<?xml version="1.0" encoding="utf-8"?>
<!-- Generator: Adobe Illustrator 23.0.1, SVG Export Plug-In . SVG Version: 6.00 Build 0)  -->
<svg version="1.1"
	 id="svg8" xmlns:cc="http://creativecommons.org/ns#" xmlns:dc="http://purl.org/dc/elements/1.1/" xmlns:inkscape="http://www.inkscape.org/namespaces/inkscape" xmlns:rdf="http://www.w3.org/1999/02/22-rdf-syntax-ns#" xmlns:sodipodi="http://sodipodi.sourceforge.net/DTD/sodipodi-0.dtd" xmlns:svg="http://www.w3.org/2000/svg"
	 xmlns="http://www.w3.org/2000/svg" xmlns:xlink="http://www.w3.org/1999/xlink" x="0px" y="0px" viewBox="0 0 400 400"
	 style="enable-background:new 0 0 400 400;" xml:space="preserve">
<sodipodi:namedview  bordercolor="#666666" borderopacity="1" fit-margin-bottom="20" fit-margin-left="0" fit-margin-right="0" fit-margin-top="0" gridtolerance="10" guidetolerance="10" id="namedview10" inkscape:current-layer="svg8" inkscape:cx="15.948224" inkscape:cy="38.697758" inkscape:pageopacity="0" inkscape:pageshadow="2" inkscape:window-height="705" inkscape:window-maximized="1" inkscape:window-width="1366" inkscape:window-x="-8" inkscape:window-y="245" inkscape:zoom="15.136255" objecttolerance="10" pagecolor="#ffffff" showgrid="false">
	</sodipodi:namedview>
<g id="Layer_1">
</g>
<g>
	<path d="M167.1,66.9c-6.3,0-11.9,0-16.9,0c-4.9,0-9.8,0.4-13.5,0.5c-0.9,0-1.6,0.7-1.6,1.6v127.1c0,0.7,0.6,1.3,1.3,1.3l18.1,0
		c0.7,0,1.3-0.6,1.3-1.3v-42.5c0-1.5,1.2-2.6,2.6-2.6h1.8c1.3,0,3.1,0,5,0c13.8,0,25.1-3.1,34.5-10c9.4-6.9,14.4-17.6,14.4-32.6
		c0-11.9-3.8-21.3-11.3-29.5S183.4,66.9,167.1,66.9z M169.5,130.7c-1.4,1-3.1,1.4-4.9,1.4h-3.8H158c-0.9,0-1.6-0.7-1.6-1.6l0-8.6
		c0-1.5,0.8-2.8,2.2-3.4C165.2,116,176.6,125.8,169.5,130.7z M188.3,112.3c-10,5.6-28.3-10.4-31.5-23.4c-0.4-1.6,0.8-3.1,2.4-3.2
		c0.7,0,1.5,0,2.2,0c2.5,0,4.4,0,6.9,0c7.5,0,13.8,1.9,18.2,5.6c3.4,2.9,5.3,7,6,12.2C192.9,107,191.4,110.6,188.3,112.3z"/>
	<path d="M264.6,181.7h-3.4c-1.9,0-3.1,0-3.8-1.3c-0.6-1.3-1.3-2.5-1.3-5l0-105.7c0-0.5-0.4-0.9-0.9-0.9h-19.5
		c-0.5,0-0.9,0.4-0.9,0.9v108.2c0,4.7,0.5,8.4,1.4,11.4l0.3,0.9c0.4,1.2,1,2.3,1.6,3.2c0.4,0.7,0.8,1.4,1.1,2.2
		c11.6,27.7-8.5,58.6,9,65.2c1.9,0.7,3.9,0.9,5.8,0.2c16-5.4-18.7-47.5,8.7-61.7c0.3-0.2,0.7-0.4,1-0.5l0.4-0.2
		c0.9-0.6,1.5-1.6,1.5-2.6v-13.2C265.6,182.1,265.1,181.7,264.6,181.7z"/>
	<path d="M332.1,4.8H67.9c-5.5,0-10,4.5-10,10V273c0,4.6,2.5,8.9,6.7,10.9c42.6,20.6-19.5,108.3,26.7,111.3
		c34.4,1.6-19.3-86.1,24-109.5c5.3-2.9,11.3-4.2,17.3-4.2l199.5,0c5.5,0,10-4.5,10-10V14.8C342.1,9.3,337.6,4.8,332.1,4.8z
		 M330.2,260.2c0,5.5-4.5,10-10,10H79.8c-5.5,0-10-4.5-10-10V26.7c0-5.5,4.5-10,10-10h240.4c5.5,0,10,4.5,10,10V260.2z"/>
</g>
</svg>
