<?xml version="1.0" encoding="utf-8"?>
<!-- Generator: Adobe Illustrator 23.0.6, SVG Export Plug-In . SVG Version: 6.00 Build 0)  -->
<svg version="1.1"
	 id="svg8" xmlns:cc="http://creativecommons.org/ns#" xmlns:dc="http://purl.org/dc/elements/1.1/" xmlns:inkscape="http://www.inkscape.org/namespaces/inkscape" xmlns:rdf="http://www.w3.org/1999/02/22-rdf-syntax-ns#" xmlns:sodipodi="http://sodipodi.sourceforge.net/DTD/sodipodi-0.dtd" xmlns:svg="http://www.w3.org/2000/svg"
	 xmlns="http://www.w3.org/2000/svg" xmlns:xlink="http://www.w3.org/1999/xlink" x="0px" y="0px" viewBox="0 0 400 400"
	 style="enable-background:new 0 0 400 400;" xml:space="preserve">
<path d="M168.1,68.5c-6.1,0-11.5,0-16.4,0c-4.8,0-9.5,0.4-13.1,0.5c-0.8,0-1.5,0.7-1.5,1.5v123c0,0.7,0.6,1.3,1.3,1.3l17.5,0
	c0.7,0,1.3-0.6,1.3-1.3v-41.1c0-1.4,1.1-2.5,2.5-2.5h1.7c1.2,0,3,0,4.9,0c13.4,0,24.3-3,33.4-9.7c9.1-6.7,14-17,14-31.6
	c0-11.5-3.6-20.6-10.9-28.5S183.9,68.5,168.1,68.5z M170.5,130.3c-1.4,1-3,1.4-4.7,1.4h-3.7h-2.7c-0.9,0-1.6-0.7-1.6-1.6l0-8.3
	c0-1.4,0.8-2.7,2.1-3.3C166.3,116,177.3,125.5,170.5,130.3z M188.7,112.5c-9.7,5.5-27.4-10.1-30.5-22.6c-0.4-1.5,0.7-3,2.3-3.1
	c0.7,0,1.4,0,2.2,0c2.4,0,4.2,0,6.7,0c7.3,0,13.4,1.8,17.6,5.5c3.3,2.8,5.1,6.7,5.8,11.8C193.2,107.3,191.7,110.8,188.7,112.5z"/>
<path d="M262.5,179.6h-3.3c-1.8,0-3,0-3.6-1.2c-0.6-1.2-1.2-2.4-1.2-4.9l0-102.3c0-0.5-0.4-0.9-0.9-0.9h-18.8
	c-0.5,0-0.9,0.4-0.9,0.9V176c0,4.5,0.4,8.1,1.3,11l0.3,0.9c0.4,1.2,0.9,2.2,1.5,3.1c0.4,0.7,0.8,1.4,1.1,2.1
	c11.2,26.8-8.2,56.7,8.7,63c1.8,0.7,3.8,0.9,5.6,0.2c15.5-5.2-18.1-46,8.5-59.7c0.3-0.2,0.6-0.3,0.9-0.5l0.3-0.2
	c0.9-0.6,1.4-1.5,1.4-2.5v-12.8C263.4,180,263,179.6,262.5,179.6z"/>
<path d="M327.8,8.4H72.2c-5.3,0-9.7,4.3-9.7,9.7V268c0,4.4,2.5,8.6,6.5,10.5c41.2,19.9-18.8,104.8,25.9,107.7
	c33.3,1.6-18.6-83.3,23.2-106c5.1-2.8,10.9-4.1,16.7-4.1l193.1,0c5.3,0,9.7-4.3,9.7-9.7V18.1C337.5,12.8,333.2,8.4,327.8,8.4z
	 M326,255.5c0,5.3-4.3,9.7-9.7,9.7H83.7c-5.3,0-9.7-4.3-9.7-9.7V29.6c0-5.3,4.3-9.7,9.7-9.7h232.6c5.3,0,9.7,4.3,9.7,9.7V255.5z"/>
</svg>
