<?xml version="1.0" encoding="utf-8"?>
<!-- Generator: Adobe Illustrator 23.0.1, SVG Export Plug-In . SVG Version: 6.00 Build 0)  -->
<svg version="1.1"
	 id="svg8" xmlns:cc="http://creativecommons.org/ns#" xmlns:dc="http://purl.org/dc/elements/1.1/" xmlns:inkscape="http://www.inkscape.org/namespaces/inkscape" xmlns:rdf="http://www.w3.org/1999/02/22-rdf-syntax-ns#" xmlns:sodipodi="http://sodipodi.sourceforge.net/DTD/sodipodi-0.dtd" xmlns:svg="http://www.w3.org/2000/svg"
	 xmlns="http://www.w3.org/2000/svg" xmlns:xlink="http://www.w3.org/1999/xlink" x="0px" y="0px" viewBox="0 0 400 400"
	 style="enable-background:new 0 0 400 400;" xml:space="preserve">
<sodipodi:namedview  bordercolor="#666666" borderopacity="1" fit-margin-bottom="20" fit-margin-left="0" fit-margin-right="0" fit-margin-top="0" gridtolerance="10" guidetolerance="10" id="namedview10" inkscape:current-layer="svg8" inkscape:cx="38.798988" inkscape:cy="16.586107" inkscape:pageopacity="0" inkscape:pageshadow="2" inkscape:window-height="705" inkscape:window-maximized="1" inkscape:window-width="1366" inkscape:window-x="-8" inkscape:window-y="245" inkscape:zoom="5.3514741" objecttolerance="10" pagecolor="#ffffff" showgrid="false">
	</sodipodi:namedview>
<g id="Layer_1">
</g>
<g>
	<path d="M183.1,131.5c-0.9-0.5-1-1.7-0.3-2.4c2-1.9,4.2-4.7,6.7-8.2c2.6-4.5,4.5-10.2,4.5-17.2c0-6.4-2.6-14-7.7-21.7
		c-5.1-8.3-17.2-12.1-35.1-12.1c-6.4,0-12.1,0-19.1,0h-11.6c-2.1,0-3.7,1.7-3.7,3.7v125.5c0,2.1,0.7,4.1,2.1,5.7
		c20.7,24.2-7.1,57.9,11.1,60.2c21.6-0.5-10.3-53.7,20.1-61.8c1.6-0.4,3.3-0.6,5-0.7c12.7-0.8,22.9-4.5,30.7-10.7
		c8.9-7,14-17.2,14-29.4c0-9.6-1.9-16.6-6.4-21.7C189.6,136.4,186.3,133.5,183.1,131.5z M143.3,91.6c0.8-2.4,3.1-3.9,5.6-3.9h2.3
		c7,0,12.1,1.3,16,4.5c3.8,3.2,5.7,7.7,5.7,14c0,4.5-0.6,7.7-1.9,10.8c-0.1,0.2-0.2,0.4-0.3,0.6c-0.9,2-3.1,3-5.2,2.5
		C153,116.8,140.5,100.3,143.3,91.6z M138.4,115.2c0-0.8,0.4-1.7,1.1-2.2c4.6-3.2,17.1,8.4,11.3,10.4h-12.3V115.2z M169.7,179
		c-5.1,3.2-12.1,5.1-19.8,5.1c-1.9,0-4.5,0-5.7,0H141c-1.4,0-2.6-1.1-2.6-2.6v-37.6c0-1.4,1.1-2.6,2.6-2.6h10.8
		c1.9,0,4.8,0.3,6.4,0.6c1.6,0.3,2.6,0.5,5.1,1.3c2.5,0.8,3.6,1.1,5,1.9c2.4,1.3,4.2,3.1,5.8,5.1c2.6,3.2,3.8,7,3.8,12.1
		C178,170,175.4,175.8,169.7,179z"/>
	<path d="M284.3,157.7c2.5-1.5,4-4.2,4-7.2V142c0-8.9-2.6-17.9-7.7-26.8c-5.1-8.9-14.7-13.4-27.4-13.4s-23,5.1-30,15.3
		c-7,10.2-10.8,22.3-10.8,36.4c0,13.4,3.2,24.9,10.2,35.1c6.4,10.2,17.9,14.7,33.8,14.7c5.1,0,9.6-0.6,13.4-1.3
		c3.1-0.5,7.1-1.8,10.2-3.2c1.2-0.6,1.9-1.8,1.9-3.1v-13.7c0-1.4-1.4-2.4-2.7-1.9c-1.4,0.5-3,1.1-4.6,1.6c-2.5,0.8-5.2,1-7.8,0.4
		C251.8,178.8,271.6,165.5,284.3,157.7z M246.3,121.5c0.7-0.9,1.7-1.5,2.8-1.6c0.9-0.1,1.9-0.2,2.9-0.2c6.4,0,10.8,2.6,12.8,7
		c1.5,3.6,2.7,8.4,3,11.8c0.1,1.2-0.9,2.2-2.1,2.2C248.5,139.7,238.2,132.3,246.3,121.5z M235.5,134.6c0.4-1.2,1.7-1.9,2.9-1.6
		c3.5,1.1,8,6.4,3.1,7.7h-4.8c-1.4,0-2.4-1.3-2.1-2.6C234.8,136.9,235.1,135.7,235.5,134.6z M241.1,173.5c-1.6-0.1-3-1-3.8-2.4
		c-1.7-3.2-2.7-6.9-3-10.9c-0.1-1.6,1.1-2.9,2.7-2.9h21.6c1.8,0,3.6,0.5,5.1,1.5C271.4,164.2,257.6,174.1,241.1,173.5z"/>
	<path d="M334.5,4.8h-269c-5.5,0-10,4.5-10,10v261.4c0,5.5,4.5,10,10,10h210c5.5,0,11,1.1,15.9,3.6c39.7,19.8-5.6,97,23.3,105.5
		c36.8-3.8-18.3-91.8,22.1-107.2c4.6-1.8,7.8-6.1,7.8-11.1V14.8C344.5,9.3,340,4.8,334.5,4.8z M332.4,264.7c0,5.5-4.5,10-10,10H77.6
		c-5.5,0-10-4.5-10-10V26.9c0-5.5,4.5-10,10-10h244.8c5.5,0,10,4.5,10,10V264.7z"/>
</g>
</svg>
