<?xml version="1.0" encoding="utf-8"?>
<!-- Generator: Adobe Illustrator 23.0.6, SVG Export Plug-In . SVG Version: 6.00 Build 0)  -->
<svg version="1.1"
	 id="svg8" xmlns:cc="http://creativecommons.org/ns#" xmlns:dc="http://purl.org/dc/elements/1.1/" xmlns:inkscape="http://www.inkscape.org/namespaces/inkscape" xmlns:rdf="http://www.w3.org/1999/02/22-rdf-syntax-ns#" xmlns:sodipodi="http://sodipodi.sourceforge.net/DTD/sodipodi-0.dtd" xmlns:svg="http://www.w3.org/2000/svg"
	 xmlns="http://www.w3.org/2000/svg" xmlns:xlink="http://www.w3.org/1999/xlink" x="0px" y="0px" viewBox="0 0 400 400"
	 style="enable-background:new 0 0 400 400;" xml:space="preserve">
<path d="M183.9,129.6c-0.8-0.5-1-1.6-0.3-2.3c1.9-1.8,4-4.4,6.4-7.8c2.4-4.2,4.2-9.7,4.2-16.4c0-6.1-2.4-13.4-7.3-20.6
	c-4.9-7.9-16.4-11.5-33.4-11.5c-6.1,0-11.5,0-18.2,0h-11c-2,0-3.6,1.6-3.6,3.6v119.4c0,2,0.7,3.9,2,5.4c19.7,23-6.8,55.1,10.6,57.3
	c20.5-0.5-9.8-51.1,19.1-58.8c1.5-0.4,3.1-0.6,4.7-0.7c12-0.8,21.8-4.3,29.2-10.1c8.5-6.7,13.4-16.4,13.4-27.9
	c0-9.1-1.8-15.8-6.1-20.6C190.1,134.2,187,131.4,183.9,129.6z M146,91.6c0.7-2.3,3-3.7,5.3-3.7h2.2c6.7,0,11.5,1.2,15.2,4.2
	c3.6,3,5.5,7.3,5.5,13.4c0,4.2-0.6,7.3-1.8,10.3c-0.1,0.2-0.2,0.4-0.3,0.6c-0.9,1.9-2.9,2.9-4.9,2.4
	C155.3,115.6,143.4,99.9,146,91.6z M141.4,114.1c0-0.8,0.3-1.6,1-2.1c4.4-3,16.2,8,10.7,9.9h-11.7V114.1z M171.2,174.7
	c-4.9,3-11.5,4.9-18.8,4.9c-1.8,0-4.2,0-5.5,0h-3c-1.3,0-2.4-1.1-2.4-2.4v-35.8c0-1.3,1.1-2.4,2.4-2.4h10.3c1.8,0,4.6,0.3,6.1,0.6
	c1.5,0.3,2.5,0.5,4.9,1.2c2.4,0.7,3.4,1.1,4.8,1.8c2.3,1.3,4,2.9,5.6,4.8c2.4,3,3.6,6.7,3.6,11.5
	C179.1,166.2,176.6,171.7,171.2,174.7z"/>
<path d="M280.2,154.5c2.4-1.4,3.8-4,3.8-6.8v-8.2c0-8.5-2.4-17-7.3-25.5c-4.9-8.5-14-12.7-26.1-12.7s-21.9,4.9-28.5,14.6
	c-6.7,9.7-10.3,21.2-10.3,34.6c0,12.7,3,23.7,9.7,33.4c6.1,9.7,17,14,32.2,14c4.9,0,9.1-0.6,12.7-1.2c3-0.5,6.8-1.7,9.7-3.1
	c1.1-0.5,1.8-1.7,1.8-2.9v-13c0-1.3-1.3-2.2-2.5-1.8c-1.3,0.5-2.9,1-4.4,1.5c-2.4,0.8-5,0.9-7.4,0.4
	C249.3,174.5,268.2,161.9,280.2,154.5z M244,120c0.6-0.9,1.6-1.4,2.7-1.6c0.9-0.1,1.8-0.2,2.8-0.2c6.1,0,10.3,2.4,12.1,6.7
	c1.5,3.4,2.5,8,2.9,11.2c0.1,1.1-0.8,2.1-2,2.1C246.1,137.4,236.4,130.3,244,120z M233.8,132.5c0.4-1.2,1.6-1.8,2.8-1.5
	c3.4,1,7.6,6.1,2.9,7.3h-4.6c-1.3,0-2.3-1.2-2-2.5C233.1,134.7,233.4,133.6,233.8,132.5z M239.1,169.5c-1.5-0.1-2.9-1-3.6-2.3
	c-1.6-3-2.6-6.6-2.9-10.4c-0.1-1.5,1.1-2.7,2.6-2.7h20.6c1.7,0,3.4,0.5,4.8,1.4C267.9,160.7,254.8,170.1,239.1,169.5z"/>
<path d="M328,9H72c-5.3,0-9.5,4.3-9.5,9.5v248.7c0,5.3,4.3,9.5,9.5,9.5h199.8c5.2,0,10.4,1,15.1,3.4c37.8,18.9-5.4,92.3,22.2,100.4
	c35.1-3.6-17.5-87.4,21-102c4.4-1.7,7.4-5.8,7.4-10.5V18.5C337.5,13.2,333.2,9,328,9z M326,256.3c0,5.3-4.3,9.5-9.5,9.5H83.5
	c-5.3,0-9.5-4.3-9.5-9.5V30c0-5.3,4.3-9.5,9.5-9.5h232.9c5.3,0,9.5,4.3,9.5,9.5V256.3z"/>
</svg>
