<?xml version="1.0" encoding="utf-8"?>
<!-- Generator: Adobe Illustrator 23.0.6, SVG Export Plug-In . SVG Version: 6.00 Build 0)  -->
<svg version="1.1" id="Layer_1" xmlns="http://www.w3.org/2000/svg" xmlns:xlink="http://www.w3.org/1999/xlink" x="0px" y="0px"
	 viewBox="0 0 400 400" style="enable-background:new 0 0 400 400;" xml:space="preserve">
<path d="M111.3,184.6c-6.3,0-15.3,9.2-15.4,17.3c-0.1,7.1,1.5,14.2,2.3,21.3c0.8,6.9,2.2,13.9,1.9,20.8c-0.2,5.9-3.8,10.8-10.2,12.1
	c-6.3,1.3-11.7-1.5-14.3-6.9c-2.6-5.5-4.5-11.8-5-17.8c-0.7-8-1.2-16.1-2-24.1c-0.8-7.9-2.2-15.6-3.7-23.4
	c-1.5-7.8-2.5-15.8-2.6-23.7c-0.2-13.9,0.7-27.8,1.3-41.6c0.2-3.6,0-8.7,2.1-10.4c2.5-2,7.2-1.9,11-2.1c29.6-1.5,59.5-3.4,89.1-3.2
	c51.8,0.4,103.6,1.9,155.4,3.3c3.2,0.1,6.4,0,9.5,0.7c2.1,0.5,5.2,2.5,5.4,4.1c0.9,6.7,1.2,13.6,1.1,20.3
	c-0.3,13.6-0.6,27.2-1.7,40.7c-0.5,6.8-1.3,13.7-1.8,20.4c-1,14.1-2.9,27.9-3.7,42c-0.5,8.7-1.1,17.7-3.4,26
	c-2.3,8-10.1,12.1-17.5,11.5c-7.2-0.5-14.6-5.9-15.4-14.2c-0.9-10,0.7-20.3,1.1-30.4c0.2-7.2,0.5-14.5-0.1-21.7
	c-0.1-1.9-1.4-5.3-4.9-5.3s-4.1,3.5-4.6,5.6c-1.5,5.9-2,12.1-3.3,18c-1.1,4.7-2.3,9.6-4.3,13.9c-3.2,6.7-8.9,10.7-16.6,9.9
	c-8.1-0.8-13.4-5.9-14.9-13.5c-1.2-6.3-0.7-13-0.7-19.6c0-4.1,0.6-8.3,0.4-12.4c-0.4-7.6-9.2-15.6-16.8-15.8c-9.8-0.4-27.4-1-38-1.1
	C180.6,185.4,117.6,184.6,111.3,184.6z"/>
</svg>
