<?xml version="1.0" encoding="utf-8"?>
<!-- Generator: Adobe Illustrator 23.0.3, SVG Export Plug-In . SVG Version: 6.00 Build 0)  -->
<svg version="1.1"
	 id="svg6" xmlns:cc="http://creativecommons.org/ns#" xmlns:dc="http://purl.org/dc/elements/1.1/" xmlns:inkscape="http://www.inkscape.org/namespaces/inkscape" xmlns:rdf="http://www.w3.org/1999/02/22-rdf-syntax-ns#" xmlns:sodipodi="http://sodipodi.sourceforge.net/DTD/sodipodi-0.dtd" xmlns:svg="http://www.w3.org/2000/svg"
	 xmlns="http://www.w3.org/2000/svg" xmlns:xlink="http://www.w3.org/1999/xlink" x="0px" y="0px" viewBox="0 0 400 400"
	 style="enable-background:new 0 0 400 400;" xml:space="preserve">
<sodipodi:namedview  bordercolor="#666666" borderopacity="1" fit-margin-bottom="12" fit-margin-left="2" fit-margin-right="2" fit-margin-top="2" gridtolerance="10" guidetolerance="10" id="namedview8" inkscape:current-layer="svg6" inkscape:cx="49.817555" inkscape:cy="35.306725" inkscape:pageopacity="0" inkscape:pageshadow="2" inkscape:window-height="1017" inkscape:window-maximized="1" inkscape:window-width="1920" inkscape:window-x="1912" inkscape:window-y="-8" inkscape:zoom="8" objecttolerance="10" pagecolor="#ffffff" showgrid="false">
	</sodipodi:namedview>
<title  id="title2">home3</title>
<path d="M362.4,166.5c-28.5-41.9-55.2-86.2-59.3-141.2c-0.4-5.7-5.2-10-10.9-10h-23.4c-4,0-7.3,3.3-7.3,7.3V49
	c0,6.5-7.8,9.7-12.4,5.1l-44.1-44.1c-2.8-2.8-7.4-2.8-10.3,0l-157,157c-1.4,1.4-2.1,3.2-2.1,5.1v0c0,4,3.3,7.3,7.3,7.3h26.5
	c4,0,7.3,3.3,7.3,7.3l0,86.2c0,5.1,3.4,9.5,8.2,10.9c57,16.2-11.9,107.1,31.6,111.2c52.7,0.2-38-100.4,38.9-112.9h16.7
	c4,0,7.3-3.3,7.3-7.3v-47.1c0-4,3.3-7.3,7.3-7.3h26.5c4,0,7.3,3.3,7.3,7.3v47.1c0,4,3.3,7.3,7.3,7.3h85.8c5.6,0,10.2-4.2,10.8-9.7
	c3.2-28.9,5.4-75.2,34-90.4c3.5-1.9,5.8-5.5,5.8-9.5C364.3,170.4,363.6,168.3,362.4,166.5z M316.3,121.3l-9.9-9.9
	c-2.4-2.4-3.8-5.7-3.8-9.1v-9.7c0-1.1,0.2-2.2,0.7-3.2c3-5.8,9.1,3.3,12.7,13.4C319.8,113.3,322.2,127.8,316.3,121.3z M323.2,196.7
	V186c0-3.6,2.9-6.6,6.6-6.6h3.3C342.7,180.9,325.5,209.9,323.2,196.7z"/>
</svg>
