<?xml version="1.0" encoding="utf-8"?>
<!-- Generator: Adobe Illustrator 23.0.1, SVG Export Plug-In . SVG Version: 6.00 Build 0)  -->
<svg version="1.1"
	 id="svg8" xmlns:cc="http://creativecommons.org/ns#" xmlns:dc="http://purl.org/dc/elements/1.1/" xmlns:inkscape="http://www.inkscape.org/namespaces/inkscape" xmlns:rdf="http://www.w3.org/1999/02/22-rdf-syntax-ns#" xmlns:sodipodi="http://sodipodi.sourceforge.net/DTD/sodipodi-0.dtd" xmlns:svg="http://www.w3.org/2000/svg"
	 xmlns="http://www.w3.org/2000/svg" xmlns:xlink="http://www.w3.org/1999/xlink" x="0px" y="0px" viewBox="0 0 400 400"
	 style="enable-background:new 0 0 400 400;" xml:space="preserve">
<sodipodi:namedview  bordercolor="#666666" borderopacity="1" fit-margin-bottom="20" fit-margin-left="0" fit-margin-right="0" fit-margin-top="0" gridtolerance="10" guidetolerance="10" id="namedview10" inkscape:current-layer="svg8" inkscape:cx="45.408967" inkscape:cy="64.618629" inkscape:pageopacity="0" inkscape:pageshadow="2" inkscape:window-height="705" inkscape:window-maximized="1" inkscape:window-width="1366" inkscape:window-x="-8" inkscape:window-y="245" inkscape:zoom="5.6568543" objecttolerance="10" pagecolor="#ffffff" showgrid="false">
	</sodipodi:namedview>
<g id="Layer_1" transform="translate(2.3048454e-4,1.6994375e-5)">
</g>
<path d="M388.9,120.9c-0.5-2.6-0.9-5-1.6-7.8s-1.9-7.4-1.9-7.4c-0.5-1.8-0.2-1.7-2.7-8.3s-3-7.9-5.5-13s-5.8-11.4-11.5-19.7
	S353.6,49,346.6,42.6s-14.3-12.9-23.2-17.9c-8.9-5.1-17.7-9.5-27.2-12.7c-10.1-3.2-19.6-5.1-30.4-6.3c-10.1-1.3-20.3-0.6-30.4,0.6
	c-10.1,1.3-20.3,3.8-29.8,7c-9.5,3.2-19,7.6-27.9,13.3c-7,4.4-13.3,8.9-19,14.6c-5.7,5.1-11.4,11.4-16.5,17.7
	c-9.5-1.9-18.4-1.9-27.9-1.3c-9.5,0.6-18.4,2.5-26.6,5.1c-8.9,2.5-17.1,6.3-24.7,11.4C55,79.2,48.1,84.9,41.7,91.2
	s-12,13.9-16.5,21.5c-4.4,7.6-8.2,15.8-10.8,24.7c-2.5,8.9-4.4,17.1-5.1,26.6c-0.6,8.9,0,17.7,1.3,26.6c2.5,13.3,7,26,13.9,37.4
	c7,11.4,15.2,21.5,25.3,29.8c6.3,5.1,13.1,9.7,20.2,13.6c4.5,2.4,8.6,5.5,11.9,9.4c22,25.9-5.8,58.1,12.2,61.9
	c1.4,0.3,2.8,0.3,4.2-0.1c14.9-4.3-4.8-43,10-55.3c2.6-2.1,5.9-3.2,9.2-3c1.7,0.1,3.4,0.1,5.1,0.1h129.2c0.4,0,0.9,0,1.3,0
	c3.5,0,6.9,0.5,10.1,1.8c38.1,15.5-1.5,107.6,24,108.9c30.3-0.5-27.9-90.1,35-129.8c4.4-2.6,8.6-5.5,12.5-8.7
	c8.2-5.7,15.2-12.7,21.5-20.3c7-7.6,12.7-16.5,17.7-25.3c5.1-9.5,8.9-19,11.4-28.5c2.5-10.1,4.4-20.3,5.1-30.4
	S390.8,131.1,388.9,120.9z M166.6,60.5c5.9-5.8,12.2-10.9,18.9-15.6c8.2-5.7,17.1-9.5,26.6-12.7c9.5-3.2,19-5.1,29.1-5.7
	c10.1-0.6,19.6-0.6,29.8,1.3c9.5,1.3,18.4,3.8,26.6,7.6c8.9,3.8,16.5,8.2,24.1,13.9c7.6,5.7,13.9,12,20.3,19
	c5.4,6,10.2,12.9,13.8,20c1.1,2.2,1.6,4.7,1.5,7.2c-1,16.2-4.2,45.1-9.4,29.5c-1.4-7.1-3.6-13.7-6.6-20.6
	c-3.8-8.2-8.9-15.8-14.6-23.4c-5.7-7-12.7-13.3-20.9-18.4c-8.2-5.7-17.1-9.5-26.6-12c-9.5-2.5-19-3.8-28.5-3.8s-19,1.3-28.5,4.4
	c-9.5,2.5-18.4,7-26,12c-2.5,1.9-5.1,3.8-7,5.7c-1,0.8-2,1.5-2.9,2.3c-2.4,2-5.9,2.3-8.6,0.7c-1.7-1-3.4-2-5-3
	c-1.7-1-3.3-1.8-5.1-2.6C165.3,65.5,164.7,62.4,166.6,60.5z M111.4,77.7c4.9-0.6,9.7-0.7,14.5-0.5c12,0.6,23.4,3.2,34.8,8.9
	c12.7,5.1,22.8,12,31.7,21.5l41.2,46.2c4.4,5.1,4.4,9.5-1.3,13.9c-5.1,4.4-10.1,4.4-14.6-0.6l-41.8-46.2c-6.3-7-13.9-12.7-22.2-16.5
	s-17.1-6.3-26-7c-8.9-0.6-18.4,0-27.2,3.2c-1.3,0.4-2.7,0.8-4,1.3l0-0.1c-0.3,0.1-0.6,0.3-0.8,0.4c-1,0.4-2,0.8-3,1.2
	C80,107.3,94.5,82.1,111.4,77.7z M146.4,204.3c-2-0.8-3.8-2.1-5.3-3.7l-23.4-24c-4.4-4.4-4.4-9.5,0.6-14.6c5.1-5.1,9.5-5.1,14.6,0
	l2.5,2.6C145.2,177.8,160.3,210,146.4,204.3z M170.8,263.4h-48.7c-9.5,0-19-1.3-27.9-4.4c-8.9-3.2-17.1-7-25.3-12.7
	c-7.6-5.1-14.6-12-20.3-19c-5.7-7.6-10.8-15.8-13.9-24.7c-3.2-8.9-5.1-17.7-5.7-27.2s0.6-18.4,2.5-27.2c1.9-8.9,5.7-17.1,10.1-25.3
	s10.1-15.2,17.1-21.5c2.1-1.9,4.2-3.7,6.4-5.4c12.1-7.5,7.6,9.9-0.9,28.4c-1.4,3-3,6-4.6,8.9c-0.3,0.5-0.6,1.1-0.9,1.7
	c-4.4,8.2-7,17.1-8.2,26c-1.3,8.9-0.6,17.7,1.3,27.2c1.9,8.9,6.3,17.7,12,25.3c7,8.9,15.2,16.5,26,21.5c10.1,5.1,20.9,7.6,32.3,7.6
	h23.4c4.4,0,8.7,1.8,11.9,4.9c2.2,2.2,4.6,4.4,7.1,6.5c2.5,1.8,5,3.5,7.6,5.3C174,260.5,173.1,263.4,170.8,263.4z M367.5,167.8
	c-0.3,1.7-0.6,3.4-1,5.1c-1.9,8.9-5.1,17.7-9.5,26s-9.5,15.8-15.2,23.4c-6.3,7-12.7,13.3-20.3,19c-7.6,5.7-15.2,10.1-24.1,13.9
	c-8.9,3.8-17.7,6.3-26.6,7.6c-11.4,1.9-22.8,1.9-34.2,0.6c-10.1-2.5-20.9-5.1-31.7-9.5c-7.6-3.2-13.9-7-20.3-11.4c0,0-0.1,0-0.1-0.1
	c-5.8-4.1-10.3-9.8-13.2-16.2c-11.1-25.1-12.4-33.6-5.2-28.8c1,0.7,1.9,1.5,2.8,2.4l12.6,13.1c6.3,7,13.9,12,21.5,17.1
	c8.2,4.4,16.5,7.6,25.3,10.1c8.9,1.9,17.7,3.2,26.6,3.2c9.5,0,18.4-1.9,27.2-4.4c8.9-3.2,17.1-7,24.7-12
	c7.6-5.1,14.6-11.4,20.3-18.4c5.2-6.4,10.2-13.8,13.9-21.4c0.7-1.4,1.3-2.7,2.1-4.1C356,159.2,371,130,367.5,167.8z"/>
</svg>
