<?xml version="1.0" encoding="utf-8"?>
<!-- Generator: Adobe Illustrator 23.0.1, SVG Export Plug-In . SVG Version: 6.00 Build 0)  -->
<svg version="1.1"
	 id="Devicon" xmlns:cc="http://creativecommons.org/ns#" xmlns:dc="http://purl.org/dc/elements/1.1/" xmlns:inkscape="http://www.inkscape.org/namespaces/inkscape" xmlns:rdf="http://www.w3.org/1999/02/22-rdf-syntax-ns#" xmlns:sodipodi="http://sodipodi.sourceforge.net/DTD/sodipodi-0.dtd" xmlns:svg="http://www.w3.org/2000/svg"
	 xmlns="http://www.w3.org/2000/svg" xmlns:xlink="http://www.w3.org/1999/xlink" x="0px" y="0px" viewBox="0 0 400 400"
	 style="enable-background:new 0 0 400 400;" xml:space="preserve">
<sodipodi:namedview  bordercolor="#666666" borderopacity="1" gridtolerance="10" guidetolerance="10" id="namedview16" inkscape:current-layer="Devicon" inkscape:cx="-55.009843" inkscape:cy="123.08717" inkscape:pageopacity="0" inkscape:pageshadow="2" inkscape:window-height="1017" inkscape:window-maximized="1" inkscape:window-width="1920" inkscape:window-x="1358" inkscape:window-y="-8" inkscape:zoom="2" objecttolerance="10" pagecolor="#ffffff" showgrid="false">
	</sodipodi:namedview>
<title  id="title6">Artboard 12</title>
<path d="M368.8,175.1c1.1-1,2.4-1.8,3.6-2.6C384.3,164.7,391,156,391,147V87.4c0-32.9-85.5-59.6-191-59.6S9,54.4,9,87.4V147
	c0,8.4,5.6,16.4,15.6,23.6c3.2,2.3,6.2,5.1,8.4,8.4c15.9,23.6-8.6,51.4,11.3,55.9c1.2,0.3,2.5,0.3,3.7,0c14-3.3-9.2-40,15.4-44.5
	c2.5-0.5,5.2-0.2,7.7,0.5c33,9.4,76.6,15.3,124.6,15.6c2.4,0,4.3,1.9,4.3,4.3l0,51.5c0,2-1.7,3.7-3.7,3.7
	C92.5,265.4,9,239.1,9,206.6v59.5c0,31.7,79.3,57.6,179.5,59.5c1.9,0,3.7,0.1,5.6,0.1c3.2,0,5.9-2.5,6-5.8c0.6-25.2,5.9-39,28.8-42
	c8.3-1.1,16.7-0.5,24.8,1.5l58.8,14.6l-0.2,0c58.6,14,7.7,76.6,37.7,78.2c17.7-0.3,6.5-29.7,7.6-53.8c0.5-11.1,6.6-21.1,15.8-27.3
	l2.4-1.7c9.7-7.1,15.2-15,15.2-23.4v-59.5c0,11.5-10.4,22.2-28.5,31.3c-7.9,4-16.9,4.9-25.4,2.8l-103.6-25.8
	c-5.2-1.3-9.7-4.6-12-9.4c-5.1-10.3,1.2-21.9,13-30.4c13.1-9.4,29.7-12.2,45.3-8.3l45.5,11.3c3.2,0.8,6.3,2,9.2,3.6
	c21.2,12.4,3.9,33.3,13.6,39.4c2,1.2,4.4,1.3,6.6,0.6C368.6,216.9,345.8,194.5,368.8,175.1z M205.7,182.2c-3.3-0.5-5.7-3.5-5.7-6.8
	c0-5.8,0-16.6,0-23.1c0-2.7,2.5-4.7,5.2-4.1c3.3,0.8,7.6,1.9,10.7,2.7c3.3,0.8,6,3.4,6.8,6.7C225.6,169.6,215.5,183.6,205.7,182.2z"
	/>
</svg>
