<?xml version="1.0" encoding="utf-8"?>
<!-- Generator: Adobe Illustrator 23.0.6, SVG Export Plug-In . SVG Version: 6.00 Build 0)  -->
<svg version="1.1"
	 id="Devicon" xmlns:cc="http://creativecommons.org/ns#" xmlns:dc="http://purl.org/dc/elements/1.1/" xmlns:inkscape="http://www.inkscape.org/namespaces/inkscape" xmlns:rdf="http://www.w3.org/1999/02/22-rdf-syntax-ns#" xmlns:sodipodi="http://sodipodi.sourceforge.net/DTD/sodipodi-0.dtd" xmlns:svg="http://www.w3.org/2000/svg"
	 xmlns="http://www.w3.org/2000/svg" xmlns:xlink="http://www.w3.org/1999/xlink" x="0px" y="0px" viewBox="0 0 400 400"
	 style="enable-background:new 0 0 400 400;" xml:space="preserve">
<path d="M321.5,138.1c0.8-0.7,1.7-1.3,2.6-1.9c8.6-5.6,13.4-11.9,13.4-18.4V75c0-23.7-61.6-42.9-137.5-42.9S62.5,51.2,62.5,75v42.9
	c0,6,4,11.8,11.2,17c2.3,1.7,4.5,3.7,6,6c11.4,17-6.2,37,8.1,40.2c0.9,0.2,1.8,0.2,2.7,0c10.1-2.4-6.6-28.8,11.1-32
	c1.8-0.4,3.7-0.1,5.5,0.4c23.8,6.8,55.1,11,89.7,11.2c1.7,0,3.1,1.4,3.1,3.1v37.1c0,1.4-1.2,2.7-2.7,2.7
	c-74.7-0.4-134.8-19.4-134.8-42.8v42.8c0,22.8,57.1,41.5,129.2,42.8c1.4,0,2.7,0.1,4,0.1c2.3,0,4.2-1.8,4.3-4.2
	c0.4-18.1,4.2-28.1,20.7-30.2c6-0.8,12-0.4,17.9,1.1l42.3,10.5h-0.1c42.2,10.1,5.5,55.1,27.1,56.3c12.7-0.2,4.7-21.4,5.5-38.7
	c0.4-8,4.8-15.2,11.4-19.7l1.7-1.2c7-5.1,10.9-10.8,10.9-16.8v-42.8c0,8.3-7.5,16-20.5,22.5c-5.7,2.9-12.2,3.5-18.3,2l-74.6-18.6
	c-3.7-0.9-7-3.3-8.6-6.8c-3.7-7.4,0.9-15.8,9.4-21.9c9.4-6.8,21.4-8.8,32.6-6l32.8,8.1c2.3,0.6,4.5,1.4,6.6,2.6
	c15.3,8.9,2.8,24,9.8,28.4c1.4,0.9,3.2,0.9,4.8,0.4C321.4,168.2,305,152.1,321.5,138.1z M204.1,143.2c-2.4-0.4-4.1-2.5-4.1-4.9
	c0-4.2,0-12,0-16.6c0-1.9,1.8-3.4,3.7-3c2.4,0.6,5.5,1.4,7.7,1.9c2.4,0.6,4.3,2.4,4.9,4.8C218.4,134.1,211.2,144.2,204.1,143.2z"/>
</svg>
