<?xml version="1.0" encoding="utf-8"?>
<!-- Generator: Adobe Illustrator 23.0.6, SVG Export Plug-In . SVG Version: 6.00 Build 0)  -->
<svg version="1.1"
	 id="Layer_1" xmlns:cc="http://creativecommons.org/ns#" xmlns:dc="http://purl.org/dc/elements/1.1/" xmlns:inkscape="http://www.inkscape.org/namespaces/inkscape" xmlns:rdf="http://www.w3.org/1999/02/22-rdf-syntax-ns#" xmlns:sodipodi="http://sodipodi.sourceforge.net/DTD/sodipodi-0.dtd" xmlns:svg="http://www.w3.org/2000/svg"
	 xmlns="http://www.w3.org/2000/svg" xmlns:xlink="http://www.w3.org/1999/xlink" x="0px" y="0px" viewBox="0 0 400 400"
	 style="enable-background:new 0 0 400 400;" xml:space="preserve">
<path d="M315.3,150.3c-9.5-6.7-1.1-14.9,19.6-22.5c1.9-0.7,2.9-2.7,2.3-4.6c-5-17.6-9.5-24.6-19.8-31.3
	c-19.1-12.4-39.8-14.5-61.6-9.3c-12.9,3.1-24,9.3-32.5,19.6c-5.4,6.6-9.2,13.7-11.4,21c-0.9,3-3.5,5.2-6.6,5.5
	c-7.2,0.7-12.3-5.8-16.4-13.9c-2.2-6.9-6.3-12.7-11.4-17.8c-19.8-19.6-59-23.2-86-7.6c-29.8,17.1-37.7,59.6-18.8,86.6
	c35,69.8-10.1,98.2,20,101.3c28.7-1.6-8.1-48.6,8.4-73.1c2.4-3.6,6.7-5.3,11-4.4c20.2,4.3,42.2,1,59-9.4c11.9-7.3,18-18.6,20.6-32.2
	c0.4-2.3-1.4-4.5-3.7-4.5h-38c-1.9,0-3.4,1.4-3.7,3.2c-0.1,0.9-0.3,1.7-0.7,2.5c-2.9,6.2-6.9,10.6-14.5,11.3
	c-8.4,0.8-15.7-2.3-18.5-9.3c-4.9-12.1-4.9-25.1-1.2-38c3.1-10.9,11.4-12.4,20.9-12c7.1,0.3,9.5,5.6,12.1,11
	c1.1,2.1,3.6,4.9,5.5,4.9c5.5,0.2,10.9,0.3,16.4,0.3c6.7,0,13.4,0.9,19.9,2.7c10.9,3,16.8,6,22.1,18.1c0.9,2.1,1.7,4.2,2.3,6.3
	c0.4,1.2,0.8,2.5,0.9,3c3.6,14.5,11.3,26.1,25.4,33.9c4.1,2.3,8.3,4.1,12.5,5.6c5.4,1.9,10,5.7,12.5,10.9
	c13,26.6-16.3,68.9,10.5,71.7c32.9-2.5-15.4-75.3,23.5-73.4c26.8-0.2-8.7,36.5,16.1,39.8c18.7-0.4,3.9-22.1,3.5-42.2
	c-0.1-6.7,2.7-13.2,7.7-17.8c8.3-7.7,13.7-18.1,14.3-28.8c0.1-2.1-1.6-3.9-3.8-3.9c-2.5,0-4.9,0-7.4,0
	C322.4,153.7,318.5,152.6,315.3,150.3z M259.6,120.6c1.6-3.4,6-6.8,9.8-7.9c11.7-3.4,16.6-0.9,22.1,10.9c0.9,2,2.4,3.6,4.3,4.8
	c13.9,8.7,16.3,23,1.5,25.4l0,0c-3,0.5-4.6,2.2-5.6,5.9c-1.8,6.8-6.5,10.7-13.9,11.3c-8,0.6-15.1-1.1-18.5-8.9
	C253.3,148.3,253.4,134.1,259.6,120.6z"/>
</svg>
