<?xml version="1.0" encoding="utf-8"?>
<!-- Generator: Adobe Illustrator 22.1.0, SVG Export Plug-In . SVG Version: 6.00 Build 0)  -->
<!DOCTYPE svg PUBLIC "-//W3C//DTD SVG 1.1//EN" "http://www.w3.org/Graphics/SVG/1.1/DTD/svg11.dtd">
<svg version="1.1"
	 id="Layer_1" inkscape:version="0.92.1 r15371" sodipodi:docname="closedcaptions.svg" xmlns:cc="http://creativecommons.org/ns#" xmlns:dc="http://purl.org/dc/elements/1.1/" xmlns:inkscape="http://www.inkscape.org/namespaces/inkscape" xmlns:rdf="http://www.w3.org/1999/02/22-rdf-syntax-ns#" xmlns:sodipodi="http://sodipodi.sourceforge.net/DTD/sodipodi-0.dtd" xmlns:svg="http://www.w3.org/2000/svg"
	 xmlns="http://www.w3.org/2000/svg" xmlns:xlink="http://www.w3.org/1999/xlink" x="0px" y="0px" viewBox="0 0 400 400"
	 style="enable-background:new 0 0 400 400;" xml:space="preserve">
<sodipodi:namedview  bordercolor="#666666" borderopacity="1" gridtolerance="10" guidetolerance="10" id="namedview9" inkscape:current-layer="Layer_1" inkscape:cx="421.48014" inkscape:cy="149.21202" inkscape:pageopacity="0" inkscape:pageshadow="2" inkscape:window-height="705" inkscape:window-maximized="1" inkscape:window-width="1366" inkscape:window-x="-8" inkscape:window-y="235" inkscape:zoom="0.921875" objecttolerance="10" pagecolor="#ffffff" showgrid="false">
	</sodipodi:namedview>
<path d="M362.2,158.3c-13.4-9.5-1.6-21.1,27.6-31.7c2.6-1,4-3.8,3.3-6.5C386,95.2,379.7,85.5,365.1,76
	c-26.9-17.5-56.2-20.5-86.9-13.1c-18.2,4.3-33.9,13.1-45.9,27.7c-7.6,9.3-13,19.3-16.1,29.6c-1.3,4.2-4.9,7.3-9.3,7.7
	c-10.1,1-17.3-8.2-23.1-19.6c-3.1-9.7-8.8-17.9-16-25.1C139.9,55.5,84.6,50.5,46.5,72.5C4.5,96.7-6.6,156.6,20,194.7
	c49.4,98.5-14.3,138.6,28.3,143c40.5-2.2-11.5-68.5,11.9-103.1c3.4-5,9.5-7.4,15.5-6.2c28.6,6,59.5,1.4,83.3-13.2
	c16.7-10.3,25.4-26.2,29-45.4c0.6-3.3-1.9-6.3-5.3-6.3H129c-2.6,0-4.9,1.9-5.3,4.5c-0.2,1.2-0.5,2.4-0.9,3.5
	c-4.1,8.7-9.8,15-20.5,16c-11.9,1.1-22.1-3.2-26.1-13.1c-6.9-17.1-6.9-35.5-1.7-53.6c4.4-15.4,16.1-17.6,29.5-16.9
	c10,0.4,13.4,7.9,17.1,15.5c1.5,3,5,6.9,7.8,7c7.7,0.3,15.4,0.4,23.1,0.4c9.5,0,18.9,1.3,28.1,3.8c15.4,4.2,23.7,8.4,31.1,25.5
	c1.3,2.9,2.3,5.9,3.3,8.9c0.5,1.7,1.2,3.6,1.3,4.3c5.1,20.5,16,36.8,35.9,47.8c5.8,3.2,11.7,5.8,17.6,7.9c7.7,2.7,14.1,8,17.7,15.3
	c18.4,37.5-23,97.2,14.8,101.2c46.3-3.5-21.8-106.2,33.1-103.5c37.8-0.2-12.2,51.4,22.7,56.1c26.4-0.6,5.5-31.2,5-59.6
	c-0.2-9.5,3.9-18.6,10.8-25.1c11.8-10.9,19.4-25.5,20.1-40.7c0.2-3-2.3-5.5-5.3-5.5c-3.5,0-6.9,0-10.4,0
	C372.2,163.1,366.7,161.6,362.2,158.3z M283.7,116.4c2.3-4.9,8.5-9.6,13.8-11.2c16.5-4.8,23.4-1.3,31.2,15.3c1.3,2.8,3.4,5.1,6,6.7
	c19.6,12.2,23,32.5,2.2,35.9l0,0c-4.2,0.7-6.5,3.1-7.9,8.3c-2.6,9.6-9.2,15.1-19.6,15.9c-11.3,0.9-21.3-1.5-26.1-12.5
	C274.7,155.4,275,135.5,283.7,116.4z"/>
</svg>
