<?xml version="1.0" encoding="utf-8"?>
<!-- Generator: Adobe Illustrator 22.1.0, SVG Export Plug-In . SVG Version: 6.00 Build 0)  -->
<!DOCTYPE svg PUBLIC "-//W3C//DTD SVG 1.1//EN" "http://www.w3.org/Graphics/SVG/1.1/DTD/svg11.dtd">
<svg version="1.1"
	 id="Layer_1" inkscape:version="0.92.2 (5c3e80d, 2017-08-06)" sodipodi:docname="juke.svg" xmlns:cc="http://creativecommons.org/ns#" xmlns:dc="http://purl.org/dc/elements/1.1/" xmlns:inkscape="http://www.inkscape.org/namespaces/inkscape" xmlns:rdf="http://www.w3.org/1999/02/22-rdf-syntax-ns#" xmlns:sodipodi="http://sodipodi.sourceforge.net/DTD/sodipodi-0.dtd" xmlns:svg="http://www.w3.org/2000/svg"
	 xmlns="http://www.w3.org/2000/svg" xmlns:xlink="http://www.w3.org/1999/xlink" x="0px" y="0px" viewBox="0 0 400 400"
	 style="enable-background:new 0 0 400 400;" xml:space="preserve">
<sodipodi:namedview  bordercolor="#666666" borderopacity="1" gridtolerance="10" guidetolerance="10" id="namedview33" inkscape:current-layer="Layer_1" inkscape:cx="362.51777" inkscape:cy="284.76284" inkscape:pageopacity="0" inkscape:pageshadow="2" inkscape:window-height="1017" inkscape:window-maximized="1" inkscape:window-width="1920" inkscape:window-x="1358" inkscape:window-y="-8" inkscape:zoom="1.4343434" objecttolerance="10" pagecolor="#ffffff" showgrid="false">
	</sodipodi:namedview>
<g>
	<path d="M327.2,188.3c-0.8,0-1.5,0-2.3,0c-2.1,0-4.2-0.4-6-1.6c-1.1-0.7-1.9-1.5-2.4-2.4c-0.7-1.5,0.4-3.3,2.1-3.3l0,0
		c4.3-0.1,10.1,1.1,12.2-1.1c2.2-2.4,0.7-8.1,1-12.4c0.3-3.5-0.9-4.6-4.4-4.5c-8.1,0.2-16.1,0-24.1,0.1c-2.4,0-3.9-0.3-3.9-3.3
		c0-3,1.2-3.7,4-3.7c8.1,0.1,16.1,0,24.1,0.1c2.9,0.1,4.5-0.6,4.3-3.9c-0.2-4.7-0.2-9.3,0-14c0.1-3.3-1-4.2-4.2-4.2
		c-5.4,0-10.8,0.1-16.2,0.1c-2.8,0-5.5-0.5-8-1.6c-0.1,0-0.2-0.1-0.3-0.1c-3.2-1.5-4.9-5-4.4-8.5c0.3-1.8-0.2-4.5-0.9-8.6
		c-5.3-31.6-22.2-54.8-51.3-68.4c-22.2-10.3-45.3-10.8-68.3-1.9c-8.6,3.3-16.2,7.7-23,13.1c-2.7,2.1-4.6,1.1-3.9-2.2
		c0.1-0.7,0.5-1.7,1.2-2.8c1.5-2.5,3.6-4.5,6-6c18.4-11.8,40.5-17.2,62.3-14.5c31.2,3.9,54.9,19.3,71.4,45.8
		c8.4,13.6,12.7,28.6,13.5,44.6c0.2,3.6,1.5,4.4,4.7,4.3c6-0.2,12-0.1,18,0c2.7,0,3.7-0.9,3.5-3.6c-0.4-3.7-0.6-7.4-1-11.1
		C323.6,52.1,272,6.1,211.1,6c-37.7-0.1-72.2,16.3-95.8,45.8c-16.7,20.9-25.4,45-26.6,71.8c-0.1,2.9,0.8,3.9,3.7,3.8
		c0.5,0,1,0,1.5,0c1.1,0,2.3,0.4,3.1,1.2c1.2,1.3,1,2.7-1.1,4.3c-1.2,0.9-2.7,1.4-4.2,1.5c-2.9,0.2-2.9,1.3-2.9,6
		c-0.1,21.9,0,43.8-0.1,65.7c-0.1,10.7-4,15.7-14.3,18.5c-2.4,0.6-2.9,1.6-2.9,3.7c0.1,5.8,0,11.6,0,17.4c0,2.4,0,3.8,0.5,4.4
		c0.8,1.1,1.6,2.1,2.1,3.3c18.8,47-31.7,136.2,12.5,140.4c44.2-0.4-18.4-70,9.3-144.3c1.8-4.9,4.7-9.4,8.2-13.4
		c5.2-5.9,8.9-13.2,9.7-20.8c1-8.5,1.2-17.2,1.3-25.8c0-2.3,0.3-4.7,1.1-6.9c1-3,2.3-4.6,4.3-3.3c1,0.6,1.6,1.8,1.7,3
		c2,15.9,15.3,28,32.2,29.6c0.4,0,0.8,0.1,1.2,0.1c3.7,0.2,7.3,2.1,9.3,5.2c2.5,3.8,2.3,8.2-0.7,11.1c-1.3,1.2-3.1,1.8-4.9,2
		c-1.8,0.2-2.6,1.4-2.6,3.8c0.1,5.3,0.1,10.4,0,15.7c0,2.2,0.8,3.7,3.1,3.7c2.9,0.1,2.5-2.1,2.5-3.9c0-3.6-0.1-7.2,0.1-10.7
		c0.2-2.9,2.1-4.2,5.1-3.9c2.8,0.2,2.5,2.4,2.5,4.2c0,3.6,0,7.1,0,10.7c0,1.9,0,3.7,2.8,3.7c2.7,0,2.9-1.5,2.9-3.6
		c-0.1-3.7,0-7.5,0-11.2c0-3.1,2.2-3.6,4.6-3.7c2.6-0.1,3.3,1.5,3.1,3.6c0,1.4,0,2.7,0,4.1c0.1,3-0.2,5.9,0,8.6
		c0.1,0.8,1.6,1.9,2.5,2c0.4,0,0.9-0.1,1.4-0.4c1.3-0.7,2.9-0.7,4.3,0c1.4,0.7,2.3,1.6,2.8,2.6c0.5,0.9,0.3,2-0.5,2.8l0,0
		c-0.7,0.7-0.7,1.8,0,2.5c0.6,0.6,1.2,1.1,1.8,1.1c3.8,0,6.3-2.2,7.5-5.6c1.5-4.1,2.9-8.3,4.2-12.4c0.6-1.9,2.5-3.4,4.5-3.2
		c2.2,0.2,3.3,2.1,4,4.8c0.1,0.4,0.1,0.9,0.2,1.3c0,1,0,2.1,0.1,3.1c0,1.8,0,3.3,2.5,3.4c2.6,0,3.1-1.2,3-3.5c0-3.4,0.2-6.7,0-10.1
		c-0.1-3.4,1.3-5.1,4.5-5.2c3.4-0.2,3.1,2.6,3.1,4.7c0,3.4,0,6.7,0,10.1c0,1.9-0.1,3.8,2.7,3.8c2.7,0,2.9-1.7,2.9-3.7
		c0-3.4,0.1-6.7,0-10.1c-0.1-3.3,1.8-4.7,4.8-4.7c3.1,0.1,2.6,2.7,2.6,4.6c0.1,3.8,0,7.5,0,11.2c-0.1,2.2,1,3.4,3,2.8
		c1-0.3,2.2-1.8,2.4-2.8c0.3-4.2,0.2-8.2,0.1-12.4c-0.2-7.5-3.8-9.7-11-6.7c-1,0.4-2.6,1.3-3,1c-3.7-3-7.5-2.2-11.6-0.9
		c-1.2,0.4-2.8,0.1-4.3-0.2c-0.7-0.1-1.4,0.4-1.4,1.1c-0.2,1.3-0.2,1.8-0.3,4.2c-0.1,1.3-1.6,2.1-2.6,1.3c-0.8-0.6-1.6-1.6-2.4-3.6
		c-0.2-0.5-0.3-1.1-0.1-1.7c0,0,0,0,0,0c0.1-0.3,0-0.7-0.2-1c-0.4-0.5-1-0.8-1.6-0.8c-1.1,0.2-2.2,0.4-2.6,1.2
		c-1.1,2-1.7,4.5-2.5,6.7c-0.2,0.6-0.5,1.2-0.9,1.8c-0.3,0.5-1,0.6-1.4,0.1c-0.5-0.6-1-1.2-1.3-1.9c-0.7-1.7-1-3.6-1.3-5.4
		c-0.4-2.7-2.2-3.1-4.5-2.7c-3,0.7-1,2.8-0.7,3.9c1.6,5.2,2.1,6.5,3.8,11.7c0.1,0.2,0.4,1.2,0.8,2.3c0.5,1.6-0.7,3.3-2.4,3.1
		c-1.4-0.1-3-0.8-4.3-1.8c-1.9-1.5-3-3.9-3-6.4c0-2.5-0.1-5-0.4-7.5c-0.4-3.6-2-5.6-4.4-6c-2.4-0.4-4.7-1.5-6.2-3.4
		c-0.1-0.1-0.1-0.1-0.2-0.2c-5.6-7.2-4.2-17.3,2.5-23.4c3.8-3.5,6.9-7.8,8.7-12.8c0.4-1,1.1-2,2.1-2.5c2.1-1.1,4,0.1,5.5,2.4
		c1.4,2.2,2,4.7,2.1,7.3c0,2.9,0,5.7,0,8.6c-0.1,3.1,0.8,4.4,4,4.3c5.6-0.1,11.2-0.1,16.8,0c2.4,0,3.3-1,3.3-3.4
		c0-4.2-0.1-8.2,0.1-12.4c0.1-1.8,0.6-3.6,1.5-5.2c1.3-2.5,2.9-2.9,4.5,0.2c3,5.8,6.5,11.3,9.4,17.2c1.5,2.7,3.1,3.6,6.2,3.5
		c6.7-0.2,13.5,0,20.2-0.1c4.2,0,4.2-0.1,1.9-3.8c-7.1-11.3-14.2-22.8-21.5-34.1c-2-3-1.9-5.1,0.3-7.9c3.4-4.3,6.7-8.6,10-12.9
		c1.1-1.5,2.6-2.7,4.3-3.3c6.1-2.3,9.5,3.1,11.6,12.3c0.9,3.8,1.3,7.7,1.3,11.5c0,0,0,0,0,0c0.1,11.5,0.1,22.9-0.1,34.1
		c0,2.8,0.2,4,3.2,4c0,0,0,0,0,0c1.4,0,2,0.3,2.8,0.8c9.5,5.5,8.3,11.4,4.5,19.3c-0.4,0.8-1,1.5-1.7,2c-1,0.8-1.6,1.9-1.8,3.1
		c-0.7,4,1.7,6.2,5.1,7.6c1.8,0.8,3.6,1.3,5.2,2.2c0.7,0.4,1.5,1.7,1.2,2.2c-0.3,0.8-1.6,2-2.2,1.9c-1.9-0.2-3.7-1.3-5.6-1.7
		c-0.5-0.1-1.1,0.1-1.7,0.3c-0.9,0.3-1.5,1.3-1.2,2.3c0.1,0.4,0.2,0.7,0.5,1c2.7,2.7,7.9,3.4,11.6,1.6c4.7-2.1,5.5-7.6,1.5-10.9
		c-1.1-0.9-2.6-1.5-3.9-2.1c-2-1-6-0.8-4.8-4c1-3.4,3.8-1.2,6.1-0.3c0.4,0.2,1.1,0,1.7-0.4c0.9-0.4,1.2-1.5,0.7-2.3
		c-0.3-0.5-0.6-1-1-1.2c-0.1-0.1-0.2-0.1-0.3-0.2c-0.8-0.3-1.4-0.9-1.7-1.7c-2-4.5-3.1-10.6,8.7-17.1c3-1.7,6.4-2.5,9.9-2.5
		c6.5,0,13,0,19.5,0.1c2.8,0,3.6-1.1,3.5-3.7c-0.1-4.5-0.2-9,0-13.5C332.1,189.5,331,188.2,327.2,188.3z M127.5,133.3
		c-0.6,0.6-1.5,0.9-2.4,0.9c-2.1,0-3.3,0.8-3.3,3.6c0,2.3,0.1,4.6,0.1,6.9c0,2.4-0.4,4.8-1.3,7c-0.9,2.2-1.9,3.3-3.2,3.3
		c-1.2,0-2.2-1-2.2-2.3c0-4.6,0-9.1,0.1-13.6c0-3.6-1.1-4.9-4.2-5c-1,0-2-0.4-2.7-1.1c-1.2-1.4-0.7-3,0.3-4.6
		c0.4-0.7,1.1-1.1,1.8-1.1c0.3,0,0.6,0,0.9,0c2.7,0.1,3.5-1,3.6-3.6c0.2-5.1,0.6-10.1,1.6-15c1.2-5.6,2.8-11,4.8-16.1
		c0.5-1.2,2-1.6,2.9-0.7c0.9,0.9,1.4,2.5,1.6,4.5c0.2,2.3,0,4.6-0.6,6.7c-1.8,6.2-2.9,12.6-3.5,19.2c-0.3,3.2,0.4,4.7,3,5
		c1.4,0.2,2.7,0.9,3.4,2.2C128.8,131,128.7,132.2,127.5,133.3z M268.8,132.4c-2.2,0.9-5,1.5-8.2,1.8c-5.5,0-11,0.1-16.5-0.1
		c-3.4-0.1-5.5,1.2-7.3,3.9c-3.7,5.4-7.6,10.7-11.5,15.9l0,0c-0.9,1.1-2.7,0.5-2.8-0.9c0,0,0-0.1,0-0.1c-0.1-5.1-0.1-10.1,0-15.2
		c0.1-2.6-0.9-3.6-3.6-3.6c-5.4,0.1-10.9,0.2-16.3,0c-3.6-0.1-4.4,1.3-4.4,4.6c0.2,11,0.1,22.1,0.1,33.1c0,0.8,0,1.6,0,2.4
		c0,1.2-1.5,1.9-2.4,1c-1.5-1.5-2.6-5-3.4-9.8c-0.7-4.2-1-8.4-1-12.6c0-4.8,0-9.6,0.1-14.4c0.1-3.3-1-4.3-4.2-4.2
		c-4.7,0.1-9.3,0-14,0c-8.9,0-7.9-1-7.9,7.6c-0.1,11.5,0,22.8-0.1,34.3c-0.1,6.5-3.4,9.8-9.1,9.5c-5.5-0.2-8.5-3.5-8.5-9.7
		c-0.1-12.6-0.1-25,0-37.6c0-2.5-0.4-3.8-2.4-4.2c-1.2-0.2-2.3-0.7-3.2-1.5c-1.6-1.6-2.7-3.2,0.4-4.9c0.6-0.1,1.2-0.3,1.7-0.4
		c2.7,0,3.3-1.1,3.5-3.8c0.9-11.8,4.5-22.6,11.6-32.2c6.8-9.3,15-16,24.8-20.4c6.8-3,14.9,1.1,16.3,8.4c3,15.8-9.3,41.6,3.1,40.7
		c17.7-0.6,2.8-25,7-41.7c2.2-8.7,11.1-13.2,19.5-10l0.1,0c25.2,9.5,40,27.7,42,55.1c0,0.4,0.1,0.8,0.2,1.1
		C273.1,127.9,271.7,131.2,268.8,132.4z M310.7,185.2c0.7,1.5-0.5,3.2-2.1,3.2c-1.8,0-3.7,0-5.5,0c-2.6,0.1-3.7-0.7-3.6-3.5
		c0.1-2.5,0.6-3.9,3.5-3.8c0.4,0,0.8,0,1.2,0C308,182,309.9,183.5,310.7,185.2z"/>
	<path d="M270.8,230.6c-2.5,0.1-2.6,1.6-2.6,3.4c0,3.6-0.1,7.1,0,10.7c0.1,3.5-1.9,4.8-4.8,4.9c-3.1,0.2-3.4-2.2-3.4-4.6
		c0-3.7,0-7.5,0-11.2c0-2-0.4-3.1-2.8-3.1c-2.2,0-2.8,1.1-2.8,3.1c0,4.5-0.2,9,0.1,13.5c0.2,3,1.2,5,2.9,6c1.1,0.7,2,1.7,2.6,2.9
		c7.6,15.1-10.1,37.4,6,37.9c16.2-0.7-5.1-28.1,4.5-40.5c0.4-0.6,1.1-1,1.7-1.1c1.4-0.3,1.4-1.5,1.4-4.8c0-1.9,0-3.7,0-5.6
		c0-2.6,0-5.3,0.1-7.9C273.8,232.1,273.5,230.5,270.8,230.6z"/>
	<path d="M317.9,242.1C317.9,242.1,317.9,242.1,317.9,242.1C318.1,242.1,318,242.1,317.9,242.1z"/>
	<path d="M328.2,232c-3.8-2.8-10.2-1.9-13.3,1.7c-3.5,4.2-3.5,13.1,0.1,17.2c3.1,3.6,9.2,4.4,13.3,1.7c0.4-0.3,1-0.7,1.2-1.1
		c1.1-1.3,1.5-2.9,1-3.5c-0.9-1.1-2.2-1.6-4.2-0.1c-4.7,3.6-7.9,1.9-8.4-4c0-0.6-0.1-1.1-0.1-1.7c-0.1,0-0.1-0.1,0,0
		c0.3-3,1.1-5.1,2.8-6.7c0.8-0.8,3.8-0.2,4.9,0.8c2.1,1.7,3.9,1.8,5.2-0.1C331.2,235.6,329.4,233,328.2,232z"/>
	<path d="M304.2,230.9c-0.9,0-2.5,1.5-2.6,2.4c-0.3,2.9-0.1,6-0.1,8.9c0,2.9-0.2,6,0,9c0.1,0.9,1.7,2.4,2.6,2.4c1,0,2.7-1.5,2.7-2.4
		c0.2-6,0.2-11.9,0-17.9C306.8,232.3,305.1,230.9,304.2,230.9z"/>
	<path d="M306.3,221.5c-0.6-0.5-0.8-0.7-1.5-0.9c-1.7-0.3-3.6-0.1-3.1,2.4c0.2,1,1.3,2.6,2.2,2.7c0.8,0.2,1.5-0.1,2.2-0.6
		c0.7-0.5,1-1.2,0.9-2.1C307,222.6,306.6,221.8,306.3,221.5z"/>
</g>
</svg>
