<?xml version="1.0" encoding="utf-8"?>
<!-- Generator: Adobe Illustrator 22.1.0, SVG Export Plug-In . SVG Version: 6.00 Build 0)  -->
<svg version="1.1"
	 id="Layer_1" inkscape:version="0.92.1 r15371" sodipodi:docname="menu.svg" xmlns:cc="http://creativecommons.org/ns#" xmlns:dc="http://purl.org/dc/elements/1.1/" xmlns:inkscape="http://www.inkscape.org/namespaces/inkscape" xmlns:rdf="http://www.w3.org/1999/02/22-rdf-syntax-ns#" xmlns:sodipodi="http://sodipodi.sourceforge.net/DTD/sodipodi-0.dtd" xmlns:svg="http://www.w3.org/2000/svg"
	 xmlns="http://www.w3.org/2000/svg" xmlns:xlink="http://www.w3.org/1999/xlink" x="0px" y="0px" viewBox="0 0 412 412"
	 style="enable-background:new 0 0 412 412;" xml:space="preserve">
<sodipodi:namedview  bordercolor="#666666" borderopacity="1" gridtolerance="10" guidetolerance="10" id="namedview11" inkscape:current-layer="Layer_1" inkscape:cx="39.785343" inkscape:cy="226.21427" inkscape:pageopacity="0" inkscape:pageshadow="2" inkscape:window-height="1017" inkscape:window-maximized="1" inkscape:window-width="1920" inkscape:window-x="1358" inkscape:window-y="-8" inkscape:zoom="0.8100835" objecttolerance="10" pagecolor="#ffffff" showgrid="false">
	</sodipodi:namedview>
<path d="M367.9,293.7c-0.6,0-1.2,0-1.7-0.1c-3.9-0.1-7.7-0.7-11.3-2c-40.1-14-46-42-1.4-60.4c3.4-1.4,6.9-2.2,10.5-2.5l0,0
	c7.1-0.1,15.2-2.5,20.8-6.6c7.5-5.4,8.9-14.5,5.1-23.5c-4.3-10.3-12.5-14.1-23.3-14.1c-53.8,0.1-107.5,0-161.3,0
	c-23.8-0.1-47.6-0.1-71.5-0.1c-11.7,0-23.2-3.6-32.5-10.8c-17-13-16.8-29.9-0.7-43.5c9.5-8.2,21.8-12.4,34.4-12.4h98.5
	c44,0,88,0.3,132-0.3c6.7-0.1,14.4-2.6,19.6-6.6c7.3-5.8,8.7-14.8,4.8-23.7c-4.3-9.7-12.1-13.6-22.5-13.6
	c-53.8,0.2-107.5,0.1-161.3,0.1c-19.4,0-38.9,0-58.4,0c-34.6,0-69.3-0.1-103.9,0.1c-17.1,0.2-27.9,15-21.9,30.1
	c3.1,7.6,8.6,11.5,15.6,13.1c8.5,1.9,16.7,5.2,23.9,10.3c24.3,17.3,19.3,36.5-15.1,56.3c-1.1,0.6-2.4,1-3.7,1.1
	c-0.2,0-0.4,0-0.6,0.1c-12.5,0.5-21.1,9.4-21.5,21.3c-0.4,11.9,7.7,21.1,20.1,22.6c3.2,0.4,6.5,0.3,9.7,0.3
	c66,0.1,132.1,0.1,198.1,0.1l19.1,0c11.3,0,22.4,3.5,31.4,10.4c16.4,12.5,15.4,27.7-1.9,42.2c-9.3,7.8-21.2,12-33.4,12H139.5
	c-31.4,0-62.8-0.2-94.2,0.1c-18,0.2-28.6,13.4-24,28.9c2.9,10.1,11.6,15.6,25.5,15.6h48.8c4.6,0,9.2,0.6,13.6,2
	c51,15.8-6,65.4,29.5,69.9c34.3-4.7-9.1-30,17.2-57.7c8.8-9.3,21.2-14.2,34-14.2h15.9c53.7,0,107.5,0,161.3,0
	c14.5,0,24.3-9.1,24.5-21.9C391.9,303.4,382.5,294.4,367.9,293.7z"/>
</svg>
