<?xml version="1.0" encoding="utf-8"?>
<!-- Generator: Adobe Illustrator 23.0.6, SVG Export Plug-In . SVG Version: 6.00 Build 0)  -->
<svg version="1.1"
	 id="Layer_1" inkscape:version="0.92.1 r15371" sodipodi:docname="menu.svg" xmlns:cc="http://creativecommons.org/ns#" xmlns:dc="http://purl.org/dc/elements/1.1/" xmlns:inkscape="http://www.inkscape.org/namespaces/inkscape" xmlns:rdf="http://www.w3.org/1999/02/22-rdf-syntax-ns#" xmlns:sodipodi="http://sodipodi.sourceforge.net/DTD/sodipodi-0.dtd" xmlns:svg="http://www.w3.org/2000/svg"
	 xmlns="http://www.w3.org/2000/svg" xmlns:xlink="http://www.w3.org/1999/xlink" x="0px" y="0px" viewBox="0 0 400 400"
	 style="enable-background:new 0 0 400 400;" xml:space="preserve">
<path d="M319.7,207.6c-0.4,0-0.9,0-1.3-0.1c-2.9-0.1-5.7-0.5-8.4-1.5c-29.7-10.4-34-31.1-1-44.7c2.5-1,5.1-1.6,7.8-1.8l0,0
	c5.3-0.1,11.2-1.8,15.4-4.9c5.5-4,6.6-10.7,3.8-17.4c-3.2-7.6-9.2-10.4-17.2-10.4c-39.8,0.1-79.5,0-119.3,0
	c-17.6-0.1-35.2-0.1-52.9-0.1c-8.7,0-17.2-2.7-24-8c-12.6-9.6-12.4-22.1-0.5-32.2c7-6.1,16.1-9.2,25.4-9.2h72.9
	c32.5,0,65.1,0.2,97.6-0.2c5-0.1,10.7-1.9,14.5-4.9c5.4-4.3,6.4-10.9,3.6-17.5c-3.2-7.2-8.9-10.1-16.6-10.1
	c-39.8,0.1-79.5,0.1-119.3,0.1c-14.3,0-28.8,0-43.2,0c-25.6,0-51.3-0.1-76.8,0.1C67.3,45.1,59.3,56,63.7,67.2
	c2.3,5.6,6.4,8.5,11.5,9.7c6.3,1.4,12.4,3.8,17.7,7.6c18,12.8,14.3,27-11.2,41.6c-0.8,0.4-1.8,0.7-2.7,0.8c-0.1,0-0.3,0-0.4,0.1
	c-9.2,0.4-15.6,7-15.9,15.8c-0.3,8.8,5.7,15.6,14.9,16.7c2.4,0.3,4.8,0.2,7.2,0.2c48.8,0.1,97.7,0.1,146.5,0.1h14.1
	c8.4,0,16.6,2.6,23.2,7.7c12.1,9.2,11.4,20.5-1.4,31.2c-6.9,5.8-15.7,8.9-24.7,8.9h-91.8c-23.2,0-46.5-0.1-69.7,0.1
	c-13.3,0.1-21.2,9.9-17.8,21.4c2.1,7.5,8.6,11.5,18.9,11.5h36.1c3.4,0,6.8,0.4,10.1,1.5c37.7,11.7-4.4,48.4,21.8,51.7
	c25.4-3.5-6.7-22.2,12.7-42.7c6.5-6.9,15.7-10.5,25.1-10.5h11.8c39.7,0,79.5,0,119.3,0c10.7,0,18-6.7,18.1-16.2
	C337.4,214.8,330.5,208.2,319.7,207.6z"/>
</svg>
