<?xml version="1.0" encoding="utf-8"?>
<!-- Generator: Adobe Illustrator 23.0.3, SVG Export Plug-In . SVG Version: 6.00 Build 0)  -->
<svg version="1.1"
	 id="Layer_1" xmlns:cc="http://creativecommons.org/ns#" xmlns:dc="http://purl.org/dc/elements/1.1/" xmlns:inkscape="http://www.inkscape.org/namespaces/inkscape" xmlns:rdf="http://www.w3.org/1999/02/22-rdf-syntax-ns#" xmlns:sodipodi="http://sodipodi.sourceforge.net/DTD/sodipodi-0.dtd" xmlns:svg="http://www.w3.org/2000/svg"
	 xmlns="http://www.w3.org/2000/svg" xmlns:xlink="http://www.w3.org/1999/xlink" x="0px" y="0px" viewBox="0 0 400 400"
	 style="enable-background:new 0 0 400 400;" xml:space="preserve">
<sodipodi:namedview  bordercolor="#666666" borderopacity="1" fit-margin-bottom="1500" fit-margin-left="500" fit-margin-right="500" fit-margin-top="200" gridtolerance="10" guidetolerance="10" id="namedview11" inkscape:current-layer="Layer_1" inkscape:cx="-1510.917" inkscape:cy="2605.1433" inkscape:pageopacity="0" inkscape:pageshadow="2" inkscape:window-height="801" inkscape:window-maximized="1" inkscape:window-width="1536" inkscape:window-x="-8" inkscape:window-y="-8" inkscape:zoom="0.0944" objecttolerance="10" pagecolor="#ffffff" showgrid="false">
	</sodipodi:namedview>
<path d="M198,4.2c-66.1,0-121.6,45.4-137.4,106.2c0,0.4-0.4,1.2-0.4,1.6c0,3.6,2.8,6.9,6.9,6.9h57.2c2.8,0,4.9-1.6,6.1-4.1
	c11.5-25.3,36.5-42.5,65.2-43.4c1.5,0,2.9,0.4,4.1,1.1c15.2,9.7,24.6,31.3,0.4,38.8c-1.9,0.6-3.8,1-5.8,1.2
	c-16.8,1.9-29.8,16.1-29.8,33.4c0,18.6,15.2,33.7,33.7,33.7c18.5-0.1,33.6-15.1,33.6-33.7c0-3.5-0.5-6.8-1.5-10
	c-0.4-1.3-0.7-2.7-1-4c-6.1-35.5,11.6-33.2,30.2-23.4c2.4,1.3,4.4,3.4,5.6,5.9c4.4,9.5,6.8,20,6.8,31.1c0,41-33.2,74.2-74.2,74.2
	c-30,0-55.5-17.8-67.3-43c-1.2-2.8-3.2-4.5-6.1-4.5H67c-0.1,0-0.2,0-0.2,0c-4.3,0.1-7.4,4.4-6.2,8.5c4.7,17.3,12.8,34.6,23.1,48.8
	c2.3,3.2,4.2,6.5,5.8,10.1c31.1,71-12.7,134.9,18.7,152.6c6.3,3.6,13.9,4.2,20.7,1.8c44-15.4-19-119.9,11.8-117.6
	c1.5,0.1,3,0.5,4.5,1.1c16.3,6.6,34.2,10.2,52.8,10.2c78.3,0,141.9-63.7,141.9-141.9C339.9,67.9,276.2,4.2,198,4.2z"/>
</svg>
