<?xml version="1.0" encoding="utf-8"?>
<!-- Generator: Adobe Illustrator 23.0.6, SVG Export Plug-In . SVG Version: 6.00 Build 0)  -->
<svg version="1.1"
	 id="Layer_1" xmlns:cc="http://creativecommons.org/ns#" xmlns:dc="http://purl.org/dc/elements/1.1/" xmlns:inkscape="http://www.inkscape.org/namespaces/inkscape" xmlns:rdf="http://www.w3.org/1999/02/22-rdf-syntax-ns#" xmlns:sodipodi="http://sodipodi.sourceforge.net/DTD/sodipodi-0.dtd" xmlns:svg="http://www.w3.org/2000/svg"
	 xmlns="http://www.w3.org/2000/svg" xmlns:xlink="http://www.w3.org/1999/xlink" x="0px" y="0px" viewBox="0 0 400 400"
	 style="enable-background:new 0 0 400 400;" xml:space="preserve">
<path d="M306.3,235.2c4.1-4.2,4.9-10.2,1.4-16.3c-13.4-23.6-26.9-47-41-70c-2.1-3.5-8.1-6.3-12.5-6.6c-3.5-0.2-7.1-0.3-10.6-0.4
	c-1.4,0-2.8-0.3-4.1-0.9c-6-2.5-11.8-6-14.3-9.9c-2.2-3.4,0.3-7.8,4.3-8c3.1-0.1,6.2-0.3,9.3-0.7c6.4-0.7,10.6-4.5,9.5-12
	c-1-7-4.6-9.7-11.9-9.5c-12.9,0.4-26,0.2-39.4,0.1c-2.4,0-4.4-1.9-4.6-4.3c-0.2-2.7-0.4-5.1-0.7-7.3c-0.3-3.3-0.8-9.4-1.2-12.7
	c-1.3-10.8-9.7-17.6-18.9-18.5c-13.4-1.4-22.7,3.8-25.2,16.9c-1.9,9.6-0.7,19.9-0.2,29.8c0.3,6,0.6,12,1,18.1
	c0.1,2.5-1.9,4.7-4.4,4.5c-4.9-0.3-6.5-4.6-7.3-10.8c-0.3-2-2.5-3.2-4.3-2.2c-9.7,5.2-16.8,12.2-25.6,26.1c-18,28.5-20.4,57-7.8,84
	c2.4,5.2,4.1,10.8,4.7,16.6c4,33.9-8.5,61.1,7.3,63.6c0.8,0.1,1.6,0.1,2.4-0.1c11.1-2.9-1.1-36.1,4.4-45.6c1.3-2.2,4.3-2.6,6.1-0.9
	c17.8,15.7,40.3,23.2,67.2,20.8c33.3-3,56.3-20.8,72.3-48.9c1.1-2,0.9-5.8-0.2-8.1c-2.2-4.4-5.1-8.5-8.4-13.5
	c-1.8-2.8-2.6-6.1-2.3-9.3c0.5-4.1,2.1-7.8,5.1-9.5c1-0.6,2.3-0.1,2.8,0.8c7.6,13.8,15.8,27.3,23.7,40.9c1,1.7,2,3.1,3.2,4.3
	c2,2.1,3.3,4.8,3.9,7.7c4.4,22.7-12.1,58.3,7.9,59.5c16.9-2.6-1.1-33.8,3.9-60.1C302.6,240.1,304.2,237.4,306.3,235.2z M194.6,126.5
	c0-0.1,0-0.1,0-0.2c0.1-1.7,1.6-3,3.3-3c0.2,0,0.5,0,0.7,0c14.7,0.8,28.1,10.3,16.5,17.6c-1.1,0.7-2.4,1-3.7,1c-0.6,0-1.1,0-1.7,0
	C194.1,141.9,194.1,141.9,194.6,126.5z M237.8,229.5c-2.6,6.4-6.8,12.1-12.2,16.4l-0.1,0.1c-19.1,15.4-41.1,18.2-63.9,12
	c-36.3-10-50.8-38.7-51.9-68.9c-0.2-6.5,0.6-12.8,2.4-18.9c2.1-7.4,6.1-14.2,11.8-19.5c12.1-11.2,18.8-6.8,25,3.3
	c0.7,1.1,1.1,2.4,1.3,3.6l0,0c1.7,13.6,9.7,19.4,23.2,19.4c19.2,0,38.3,0.1,57.5,0c2.4,0,4.7,1.3,5.9,3.4
	C244.4,194.1,244.4,212.8,237.8,229.5z"/>
<path d="M167,52.9c14.3,0,23.7-9.4,23.7-23S180.6,5,166.3,5s-23.7,10.5-23.7,24S152.8,52.9,167,52.9z"/>
</svg>
