<?xml version="1.0" encoding="utf-8"?>
<!-- Generator: Adobe Illustrator 22.1.0, SVG Export Plug-In . SVG Version: 6.00 Build 0)  -->
<!DOCTYPE svg PUBLIC "-//W3C//DTD SVG 1.1//EN" "http://www.w3.org/Graphics/SVG/1.1/DTD/svg11.dtd">
<svg version="1.1"
	 id="Layer_1" inkscape:version="0.92.1 r15371" sodipodi:docname="wheelchair.svg" xmlns:cc="http://creativecommons.org/ns#" xmlns:dc="http://purl.org/dc/elements/1.1/" xmlns:inkscape="http://www.inkscape.org/namespaces/inkscape" xmlns:rdf="http://www.w3.org/1999/02/22-rdf-syntax-ns#" xmlns:sodipodi="http://sodipodi.sourceforge.net/DTD/sodipodi-0.dtd" xmlns:svg="http://www.w3.org/2000/svg"
	 xmlns="http://www.w3.org/2000/svg" xmlns:xlink="http://www.w3.org/1999/xlink" x="0px" y="0px" viewBox="0 0 400 400"
	 style="enable-background:new 0 0 400 400;" xml:space="preserve">
<sodipodi:namedview  bordercolor="#666666" borderopacity="1" gridtolerance="10" guidetolerance="10" id="namedview11" inkscape:current-layer="Layer_1" inkscape:cx="585.70819" inkscape:cy="254.76897" inkscape:pageopacity="0" inkscape:pageshadow="2" inkscape:window-height="705" inkscape:window-maximized="1" inkscape:window-width="1366" inkscape:window-x="-8" inkscape:window-y="235" inkscape:zoom="0.65186406" objecttolerance="10" pagecolor="#ffffff" showgrid="false">
	</sodipodi:namedview>
<g>
	<path d="M341.4,283.2c-17.4-30.8-35.1-61.3-53.5-91.4c-2.8-4.6-10.6-8.2-16.3-8.6c-4.6-0.2-9.2-0.4-13.7-0.5
		c-1.9,0-3.7-0.4-5.5-1.2c-7.8-3.3-15.3-7.8-18.5-12.8c-2.9-4.4,0.3-10.3,5.6-10.5c4.1-0.1,8.1-0.4,12.1-0.9
		c8.3-1,13.8-5.9,12.4-15.6c-1.3-9.2-6-12.7-15.5-12.4c-18.8,0.6-37.6,0.2-57.1,0.2c0-5.9-0.6-10.7-1-15c-0.4-4.3-1.1-12.2-1.6-16.5
		c-1.7-14.1-12.7-23-24.6-24.2c-17.5-1.8-29.6,4.9-32.9,22.1c-2.5,12.5-1,25.9-0.3,38.9c0.4,7.9,0.8,15.7,1.2,23.6
		c0.2,3.2-2.4,6.1-5.7,5.9c-7.9-0.4-9.2-8.6-10.3-19.4l0,0v0c-15.3,7-25.5,16.1-38.4,36.5C54.2,218.8,51.1,256,67.7,291.4
		c3.2,6.7,5.2,14,6.1,21.3c5.3,45.3-11.9,81.4,11,83.2c17.1-1.2-0.1-47,7.3-59.8c1.6-2.8,5.6-3.3,8-1.2
		c23.2,20.5,52.6,30.3,87.7,27.1c43.5-3.9,73.4-27.2,94.4-63.9c1.5-2.6,1.2-7.6-0.3-10.5c-2.9-5.7-6.6-11.1-11-17.7
		c-2.4-3.6-3.4-7.9-3-12.1c0.6-5.4,2.7-10.2,6.7-12.5c1.3-0.7,2.9-0.2,3.6,1.1c9.9,18,20.6,35.6,30.9,53.5c1.3,2.2,2.7,4.1,4.2,5.7
		c2.5,2.6,4.2,5.9,4.9,9.4c6.2,29.6-15.9,76.8,10.5,78.3c22.1-3.3-1.4-44.1,5.1-78.3c0.7-3.7,2.4-7.3,5.2-9.9
		C344.8,299.5,346.1,291.5,341.4,283.2z M193.8,162.6c0-0.1,0-0.2,0-0.2c0.1-2.3,2.1-4,4.4-4c0.3,0,0.6,0,0.9,0
		c19.2,1,36.7,13.4,21.5,23c-1.4,0.9-3.1,1.3-4.8,1.3c-0.7,0-1.5,0-2.2,0C193.1,182.8,193.1,182.8,193.8,162.6z M243.9,309.8
		c-3.1,3.1-6.3,6.1-9.8,8.9c-25,20.2-53.6,23.7-83.3,15.6c-47.4-13.1-66.3-50.5-67.7-89.9c-0.3-8.7,0.9-17.1,3.2-25.1
		c2.8-9.6,8.1-18.2,15.4-25c15.7-14.5,24.5-8.7,32.6,4.6c0.8,1.4,1.4,3,1.6,4.6c0,0,0,0,0,0c2.2,17.7,12.7,25.3,30.3,25.3
		c25,0,50,0.2,75,0c3.2,0,6.1,1.7,7.7,4.5C260.7,254.4,258.3,285.3,243.9,309.8z"/>
	<path d="M157.8,66.7c18.6,0,30.9-12.3,30.9-30.1S175.5,4.1,156.8,4.1s-30.9,13.7-30.9,31.3S139.1,66.7,157.8,66.7z"/>
</g>
</svg>
