<?xml version="1.0" encoding="UTF-8" standalone="no"?>
<svg
   xmlns:dc="http://purl.org/dc/elements/1.1/"
   xmlns:cc="http://creativecommons.org/ns#"
   xmlns:rdf="http://www.w3.org/1999/02/22-rdf-syntax-ns#"
   xmlns:svg="http://www.w3.org/2000/svg"
   xmlns="http://www.w3.org/2000/svg"
   viewBox="0 0 533.33331 533.33331"
   height="533.33331"
   width="533.33331"
   xml:space="preserve"
   id="svg2"
   version="1.1"><metadata
     id="metadata8"><rdf:RDF><cc:Work
         rdf:about=""><dc:format>image/svg+xml</dc:format><dc:type
           rdf:resource="http://purl.org/dc/dcmitype/StillImage" /></cc:Work></rdf:RDF></metadata><defs
     id="defs6"><clipPath
       id="clipPath18"
       clipPathUnits="userSpaceOnUse"><path
         id="path16"
         d="M 0,400 H 400 V 0 H 0 Z" /></clipPath></defs><g
     transform="matrix(1.3333333,0,0,-1.3333333,0,533.33333)"
     id="g10"><g
       id="g12"><g
         clip-path="url(#clipPath18)"
         id="g14"><g
           transform="translate(66.8477,241.3755)"
           id="g20"><path
             id="path22"
             style="fill:#000000;fill-opacity:1;fill-rule:nonzero;stroke:none"
             d="m 0,0 c 0,-3.729 0.317,-7.492 -0.076,-11.178 -0.565,-5.304 -3.087,-10.461 -8.581,-10.78 -4.424,-0.257 -10.796,1.165 -13.115,4.244 -3.219,4.272 -5.675,11.298 -4.548,16.256 3.437,15.11 3.778,29.361 -3.12,43.624 -2.513,5.195 0.136,8.693 6.128,8.843 5.952,0.149 11.932,-0.387 17.885,-0.824 33.25,-2.441 66.504,-4.841 99.734,-7.533 5.056,-0.409 5.783,2.566 6.772,5.991 7.523,26.053 14.99,52.123 22.614,78.147 2.097,7.154 4.552,14.212 7.099,21.221 0.627,1.725 1.431,4.614 3.798,4.614 2.367,0 3.005,-2.957 3.601,-4.789 4.775,-14.657 9.414,-29.362 13.833,-44.13 4.849,-16.206 9.402,-32.5 14.117,-48.747 3.391,-11.688 3.433,-12.002 15.831,-11.334 16.891,0.912 33.753,2.385 50.629,3.592 18.363,1.313 36.72,2.733 55.099,3.754 2.945,0.164 8.279,0.479 8.99,-2.34 0.712,-2.819 -1.447,-6.391 -3.245,-8.779 -9.176,-12.195 -11.304,-24.903 -5.085,-39.198 2.117,-4.864 3.05,-10.55 3.186,-15.896 0.187,-7.379 -4.768,-12.666 -11.277,-13.688 -7.391,-1.16 -14.135,2.566 -16.045,10.119 -1.24,4.895 -0.598,10.252 -0.937,15.393 -0.336,5.114 -0.586,10.256 -1.367,15.309 -0.539,3.489 -2.608,3.448 -5.246,1.422 -17.365,-13.341 -34.703,-26.723 -52.272,-39.792 -4.569,-3.399 -2.201,-6.386 -0.625,-9.611 12.233,-25.024 24.53,-50.017 36.79,-75.027 9.085,-18.531 18.217,-37.041 27.153,-55.644 1.478,-3.078 4.897,-6.679 0.564,-9.96 -3.945,-2.987 -7.399,-0.691 -10.747,1.865 -32.046,24.458 -64.155,48.831 -96.179,73.318 -4.116,3.148 -8.184,6.452 -13.285,2.756 -4.865,-3.524 -2.802,-8.607 -1.568,-13.063 2.86,-10.321 6.34,-20.498 2.849,-31.406 -2.525,-7.892 -7.256,-13.547 -15.448,-15.75 -10.538,-2.834 -19.606,3.634 -19.138,14.471 0.318,7.366 2.615,14.626 3.666,21.986 1.233,8.63 -2.984,16.088 -9.515,15.795 -5.002,-0.224 -10.778,-1.32 -14.708,-4.13 -16.589,-11.865 -33.455,-23.592 -48.5,-37.263 -7.733,-7.026 -13.151,-17.517 -17.082,-27.445 -2.112,-5.335 0.746,-12.871 2.065,-19.269 1.391,-6.749 4.773,-13.246 5.236,-19.993 0.882,-12.845 -8.433,-21.312 -20.93,-20.469 -11.691,0.788 -19.806,10.645 -18.215,22.717 0.611,4.639 2.461,9.101 3.51,13.699 1.797,7.872 5.004,15.71 -1.999,23.191 -1.293,1.38 0.009,6.179 1.291,8.832 15.042,31.129 30.315,62.149 45.515,93.203 6.453,13.182 12.72,26.46 19.413,39.518 1.896,3.701 1.167,5.608 -1.929,7.935 C 44.285,-12.465 26.134,1.491 7.866,15.293 3.253,18.779 0.947,17.836 0.167,11.917 -0.348,8.008 0.07,3.977 0.07,0 Z" /></g></g></g></g></svg>