<?xml version="1.0" encoding="utf-8"?>
<!-- Generator: Adobe Illustrator 22.1.0, SVG Export Plug-In . SVG Version: 6.00 Build 0)  -->
<!DOCTYPE svg PUBLIC "-//W3C//DTD SVG 1.1//EN" "http://www.w3.org/Graphics/SVG/1.1/DTD/svg11.dtd">
<svg version="1.1" id="Layer_1" xmlns="http://www.w3.org/2000/svg" xmlns:xlink="http://www.w3.org/1999/xlink" x="0px" y="0px"
	 viewBox="0 0 400 400" enable-background="new 0 0 400 400" xml:space="preserve">
<g>
	<path d="M54.9,199.4c0-62.4,0.1-124.7-0.2-187.1c0-6.2,1.8-7.5,7.7-7.4c42.4,0.3,84.9-0.5,127.3,0.4c29.5,0.7,58.8,4.6,86,17.4
		c24.2,11.4,43.2,27.9,51.2,54.2c10,33.2,8.8,65.6-13.5,93.9c-6.9,8.8-17.9,14.4-26.9,21.5c-0.1,0.1-0.2,0.2-0.3,0.3
		c-1.4,1.1-1,3.4,0.7,4c0,0,0,0,0,0c35.5,11.1,56.6,38.9,58.3,76.2c0.9,21.3-1.4,42-10.8,61.4c-13.8,28.4-38,43.7-67,52.8
		c-20.6,6.5-41.9,8-63.4,8.1c-47.6,0.1-95.2,0-142.8,0.2c-5.2,0-6.4-1.6-6.4-6.5C54.9,325.6,54.9,262.5,54.9,199.4z M142.2,276.8
		c0,14.7,0,29.5,0,44.2c0,2.6-0.4,5.3,3.7,5.2c8.3-0.3,16.6,0.3,24.9-0.5c31.2-3,45.6-27.9,31.5-55.9c-5.4-10.6-13.9-19.7-21.5-29.1
		c-8.3-10.2-19.1-14.8-32.6-13.1c-4.3,0.6-6.1,1.3-6,6C142.4,248,142.2,262.4,142.2,276.8z M244.9,122.5c-0.1-11.3-2.2-22-9.7-31
		c-6.5-7.8-10.7-8.6-18.7-2.5c-18.2,13.9-26,32.8-23.6,55.3c0.7,6.5,2.1,11.2,6,16.8c2.2,3.1,5.7,5,10.8,4.3
		C233.6,161.7,245.2,145.9,244.9,122.5z M221.2,229.7c-2.2,0.3-3.3,3.3-2.7,5.8c0.5,2,0.8,3.5,1.4,5c4.5,11.3,21.4,22.4,33.5,21.8
		c3.5,0,3.8-3.5,2.9-6c-2.8-7.9-7.3-14.9-13.3-19.7c-4.9-3.9-10.7-6.4-17.4-6.9C224.4,229.6,223.4,229.5,221.2,229.7z M142.2,89.1
		c0,3.5-0.3,7,0.2,10.4c0.2,1.4,2.9,3.5,5.6,3c6.1-1.2,10.2-2.2,15.3-5.5c5.4-3.4,6.1-12.1,3.4-18.7c-2.3-5.7-6.2-5.3-10-5.4
		C143.3,72.6,142.2,75,142.2,89.1z M155.9,157.7c0.8-3,0.1-6.3-2-8.6c-1.9-2.1-4.1-4.5-6.6-6.7c-3.5-3.1-4.7-1.3-4.6,6.5
		c0,4.1-0.1,8.3-0.1,12.3c0,6.4,0.7,7.4,4.4,7.1C150.4,168.1,154.3,163.6,155.9,157.7z"/>
</g>
</svg>
