<?xml version="1.0" encoding="utf-8"?>
<!-- Generator: Adobe Illustrator 23.0.6, SVG Export Plug-In . SVG Version: 6.00 Build 0)  -->
<svg version="1.1" id="Layer_1" xmlns="http://www.w3.org/2000/svg" xmlns:xlink="http://www.w3.org/1999/xlink" x="0px" y="0px"
	 viewBox="0 0 400 400" style="enable-background:new 0 0 400 400;" xml:space="preserve">
<path d="M221.7,149.6c-35.8,0.5-70.2,1.6-101.9,17.5c-27.9,13.9-41.2,38-45,68c-0.8,6.2-1.2,12.4-1.8,18.7c-0.2,2.1-3.3,2.3-3.7,0.2
	c-1.7-8.1-3.3-16.3-4.6-24.5c-3.1-20.1-3.2-40.2,1.9-60.1c8.8-34.5,31.4-56.4,64.3-67.6c15.1-5.2,31-9,46.8-11.3
	c16.9-2.4,27.4-11.3,33.6-26.2c2.8-6.8,4.7-14,7.3-20.9c5.4-14.6,12.4-13.9,26.7,0.2c24.1,23.7,51,44.2,79.6,62.3
	c14.1,8.9,16.9,14.3,6.5,21.2c-12.6,8.5-15.8,21.1-16.8,34.7c-0.9,11.7-0.2,23.6-1.8,35.2c-1.1,7.6-4.4,15.1-8,22
	c-2.9,5.6-9.1,9.4-15.2,6.8c-4.7-1.9-9.7-6.4-11.7-11c-2.7-6-2.8-13.2-3.9-20c-2.3-14-8-16.4-19-8c-6.1,4.7-11.8,9.8-18.2,14
	c-2.9,1.9-8,4-10.1,2.7c-2.7-1.7-4.5-6.6-4.7-10.1C221.4,179.2,221.7,165,221.7,149.6z M221,84v-2.6c0-2.1-2.7-3-4-1.3l-2.6,3.5
	c-1.4,1.9-0.1,4.5,2.2,4.6l0,0C219,88.3,221,86.4,221,84z"/>
</svg>
