<?xml version="1.0" encoding="utf-8"?>
<!-- Generator: Adobe Illustrator 22.1.0, SVG Export Plug-In . SVG Version: 6.00 Build 0)  -->
<!DOCTYPE svg PUBLIC "-//W3C//DTD SVG 1.1//EN" "http://www.w3.org/Graphics/SVG/1.1/DTD/svg11.dtd">
<svg version="1.1" id="Layer_1" xmlns="http://www.w3.org/2000/svg" xmlns:xlink="http://www.w3.org/1999/xlink" x="0px" y="0px"
	 viewBox="0 0 400 400" style="enable-background:new 0 0 400 400;" xml:space="preserve">
<g>
	<path d="M168.8,270.2c-0.2,5.1-2.8,12.1-6.6,14.4c-3,1.8-10.2-1.1-14.4-3.8c-9.1-6-17.3-13.3-25.9-19.9c-15.7-12-23.8-8.6-27,11.3
		c-1.5,9.6-1.7,19.9-5.5,28.4c-3,6.5-10,12.9-16.7,15.6c-8.7,3.6-17.5-1.8-21.6-9.7c-5.1-9.8-9.8-20.5-11.4-31.3
		c-2.3-16.5-1.2-33.4-2.5-50.1c-1.5-19.4-6-37.3-24-49.4c-14.7-9.9-10.7-17.5,9.3-30.2c40.6-25.7,79-54.9,113.2-88.6
		c20.3-20,30.2-20.9,38-0.2c3.7,9.8,6.3,20.1,10.3,29.7c8.9,21.3,23.8,33.9,47.8,37.3c22.5,3.2,45.1,8.6,66.7,16
		c46.8,16,79,47.1,91.5,96.2c7.2,28.3,7,57,2.6,85.6c-1.8,11.7-4.2,23.3-6.5,34.9c-0.6,3-4.9,2.8-5.2-0.2c-0.9-9-1.5-17.9-2.6-26.6
		c-5.4-42.7-24.3-76.9-64.1-96.8c-45.2-22.6-94.1-24.1-145.1-24.9C169.1,229.8,169.5,250,168.8,270.2z M176.3,120.4L176.3,120.4
		c3.3-0.2,5.1-3.9,3.1-6.6l-3.7-5c-1.8-2.4-5.7-1.2-5.7,1.9v3.7C170.1,117.9,172.9,120.6,176.3,120.4z"/>
</g>
</svg>
