<?xml version="1.0" encoding="utf-8"?>
<!-- Generator: Adobe Illustrator 23.0.1, SVG Export Plug-In . SVG Version: 6.00 Build 0)  -->
<svg version="1.1"
	 id="svg2" xmlns:cc="http://creativecommons.org/ns#" xmlns:dc="http://purl.org/dc/elements/1.1/" xmlns:inkscape="http://www.inkscape.org/namespaces/inkscape" xmlns:rdf="http://www.w3.org/1999/02/22-rdf-syntax-ns#" xmlns:sodipodi="http://sodipodi.sourceforge.net/DTD/sodipodi-0.dtd" xmlns:svg="http://www.w3.org/2000/svg"
	 xmlns="http://www.w3.org/2000/svg" xmlns:xlink="http://www.w3.org/1999/xlink" x="0px" y="0px" viewBox="0 0 400 400"
	 style="enable-background:new 0 0 400 400;" xml:space="preserve">
<g>
	<path d="M75,60.4H63.3c-3.3,0-5.9,2.6-5.9,5.9v89.4c0,4.3-0.5,8.6-1.7,12.7c-9.8,34.2-25.3-56.9-26.9-101.3
		c-0.1-3.7-3.1-6.6-6.8-6.6H11.2c-3.3,0-5.9,2.6-5.9,5.9v168.3c0,3.3,2.6,5.9,5.9,5.9h11.5c3.3,0,5.9-2.6,5.9-5.9v-46.1
		c0-1.6,0.1-3.2,0.4-4.8c3.6-18.4,18.9,27.7,26.4,51.4c1.2,3.6,4.5,6.1,8.3,6.1H75c3.3,0,5.9-2.6,5.9-5.9l0-169
		C80.9,63.1,78.3,60.4,75,60.4z"/>
	<path d="M127.6,60.4h-11.8c-3.3,0-5.9,2.6-5.9,5.9v173c0,1.1,0.4,2.2,1.2,3c18.5,19.3-8.8,58.4,11.5,59.1
		c19.4-0.8-5.4-39.1,9.9-59.1c0.6-0.8,0.9-1.7,0.9-2.7V66.3C133.5,63.1,130.8,60.4,127.6,60.4z"/>
	<path d="M179.7,60.4H168c-3.3,0-5.9,2.6-5.9,5.9v169c0,3.3,2.6,5.9,5.9,5.9h11.7c3.3,0,5.9-2.6,5.9-5.9v-169
		C185.6,63,183,60.4,179.7,60.4z"/>
	<path d="M388.5,217.5l-169.1,0c-3.2,0-5.8,2.5-5.9,5.7l-0.4,11.8c-0.1,3.3,2.6,6.1,5.9,6.1l112.5-0.1c3.4,0,6.7,0.4,10,1.4
		c43.6,13.1-6.9,96,24.1,97.1c31.1-0.4-22.6-87.1,24.2-97.7c2.7-0.6,4.6-3,4.6-5.8v-12.6C394.4,220.2,391.8,217.5,388.5,217.5z"/>
	<path d="M259.5,136.5h129.3c3.3,0,5.9-2.6,5.9-5.9v-11.5c0-3.3-2.6-5.9-5.9-5.9h-44.6c-2.5,0-5.1-0.1-7.6-0.3
		c-44.6-3.8,7.7-24.8,56.1-28.4c1-0.1,1.8-0.9,1.8-1.9l0-15.9c0-3.3-2.6-5.9-5.9-5.9h-169c-3.3,0-5.9,2.6-5.9,5.9v11.8
		c0,3.3,2.6,5.9,5.9,5.9l48,0c3.2,0,6.4,0.3,9.6,0.9c30.4,6-25.8,25.3-60.8,27.7c-1.4,0.1-2.5,1.3-2.5,2.7c0,4.5,0,13.7,0,18.2
		c0,1.4,1.1,2.6,2.4,2.8c19.9,2.9,43.1,27.9,20.9,28.2h0c-0.4,0-0.7,0-1.1,0c0,0,0,0,0,0h-16.5c-3.3,0-5.9,2.6-5.9,5.9v11.8
		c0,3.3,2.6,5.9,5.9,5.9h169c3.3,0,5.9-2.6,5.9-5.9v-11.8c0-3.3-2.6-5.9-5.9-5.9h-95.5c-23.5,0-45.2-15.6-39.1-25.5
		C255.1,137.6,257.3,136.5,259.5,136.5z"/>
</g>
</svg>
