<?xml version="1.0" encoding="utf-8"?>
<!-- Generator: Adobe Illustrator 23.0.6, SVG Export Plug-In . SVG Version: 6.00 Build 0)  -->
<svg version="1.1" id="Layer_1" xmlns="http://www.w3.org/2000/svg" xmlns:xlink="http://www.w3.org/1999/xlink" x="0px" y="0px"
	 viewBox="0 0 400 400" style="enable-background:new 0 0 400 400;" xml:space="preserve">
<path d="M336.3,84.2c-0.1-6-1.5-11.6-3.9-17c-1.6-3.6-2.2-4.1-6.1-3.9c-3.8,0.2-7.6,0.7-11.4,0.6c-19.2-0.2-38.5-0.5-57.7-0.8
	c-2.5,0-5-0.2-7.5-0.4c-7.5-0.7-14.9-1.6-22.4-2.1c-8.2-0.5-16.5-0.8-24.8-0.5c-20.6,0.7-41.2,1.8-61.8,2.6
	c-22.4,0.8-61.9,0.4-67.1,0.6c-5.2,0.2-6.3,2.5-6.3,2.5c-2.6,5.4-4.3,11.2-4.4,17.2c-0.2,20.6-0.4,41.3-0.4,61.9
	c0,12.3,0.5,24.5,0.9,36.8c0.2,7,0.4,14.1,0.9,21.1c0.3,3.4,1.3,6.8,1.9,10.2c0.3,1.9,1,4.5,2,5.8c1.5,2.1,2.8,3.4,4.9,5
	c1.2,0.9,3.6,2,4.9,2.7c2.1,1.3,3.1,2.3,5.3,3.3c5.8,2.7,9.4,6.9,10.3,13.3c0.3,2,0.4,4.1,0.8,6.1c0.5,2.8,1,5.6,2,8.2
	c1.7,4.7,4.9,8.2,9.8,9.7c6.7,2.1,12.4-1.7,12.9-8.7c0.2-2.4,0-4.8,0-7.2c0-1.4-0.1-2.8,0.1-4.2c0.3-2.3,1.3-2.8,3.4-1.7
	c1.5,0.8,2.9,1.8,4.5,2.7c5.7,3,10.4,1.1,12.3-4.9c0.8-2.4,1-4.9,1.8-7.3c0.6-1.7,1.2-4,2.5-4.7c2.8-1.5,6.1-3,9.1-2.9
	c12.4,0.1,24.7-1.3,37-0.4c8.5,0.6,17.2,0,25.7,0.1c8.9,0.1,17.8,0.1,26.7,0.6c8.7,0.5,22.3,0.7,23.7,0.5s6.8,0.3,8,0.5
	c5.8,1.3,9.4,0.9,15.3,0.5c6-0.4,12.1-0.5,18.2-0.9c7.9-0.4,15.1-3,21.6-7.4c1.6-1.1,3.1-3.2,3.5-5.2c1.1-4.5,1.8-9.1,2.1-13.8
	c0.5-9.2,0.4-18.4,0.7-27.6c0.4-14.2,1-28.4,1.6-46.9C336.9,116.6,336.6,100.4,336.3,84.2z M108.5,83.6c0.2-0.6,1.2-0.5,1.8-0.5
	c5.6,0,15.8,0,16.9,0c1.1,0,15.6,0.1,15.6,0.1c7.5,0.1,11.9,4.2,12.8,11.7c0.4,3,0.2,6.1,0.6,9.1c0.3,2.5,0.6,5,1.4,7.3
	c1.7,4.7,6.3,7.2,10.8,6.5c4.8-0.8,8.6-4.6,8.7-9.6c0.1-3-0.5-6.1-1.2-9c-1.9-7.5,4.1-10.6,7.8-12.1c3.7-1.5,8.5-2.5,11.8-2.9
	c3.4-0.4,27.4-0.9,41-1c16.9-0.2,48.8-0.1,50.8-0.1s2.8-0.3,3.1,0.3c0.3,0.6,0,1-0.9,2.1c-0.9,1.1-5.8,6.1-8.8,9.1
	c-0.9,0.9-2,1.7-3,2.5c-6.1,4.5-12.1,9.1-18.3,13.5c-6.4,4.5-12.8,9-19.4,13.1c-6.7,4.2-13.6,8.1-20.6,11.9c-3,1.6-6.4,2.6-9.6,4
	c-3,1.4-5.9,2.8-8.7,4.5c-1.2,0.7-2,0.6-3.2,0c-5-2.5-10.2-4.7-15.3-7.2c-3.9-1.9-7.7-4-11.4-6.2c-8.9-5.4-17.9-10.6-26.6-16.4
	c-4.7-3.1-8.8-7.1-13.3-10.5c-3.1-2.4-6.5-4.4-9.7-6.6c-0.9-0.6-1.8-1.2-2.6-2c-3.3-3.3-6.5-6.7-9.8-10.1
	C109,84.7,108.4,84.2,108.5,83.6z M84.3,201.9c-0.5,0.4-2.9,2.5-3.5,1.9c-0.7-0.6-0.3-2.8-0.2-3.5c0.6-6.7,1.5-11.8,1.9-18.5
	c0.6-8.2,1.4-22.1,1.3-24.7c-0.1-2.5-0.4-17.2-0.5-23.1c-0.1-6,0-24.3,0-36.5c0-0.5-0.1-1.1,0-1.6c0.1-0.8-0.3-2,0.6-2.4
	s1.4,0.7,1.9,1.1c2.9,2.6,5.8,5.2,8.7,7.8c14,12.4,28.5,24.2,44.2,34.3c4,2.6,8.3,4.7,12.5,7c2.5,1.3,2.7,1.5,0.6,3.2
	c-4.8,4-9.8,7.9-14.7,11.8C119,173.6,102.5,187.3,84.3,201.9z M286.4,208.3c-0.3,0.8-3.7,0.6-3.7,0.6s-19.5,0.2-25.5,0.3
	c-13.4,0-23-0.1-32.5,0.1c-5.9,0.1-11.7,1.1-17.6,1.1c-8.8,0-17.6-0.4-26.4-0.7c-3.7-0.1-7.4-0.4-11.1-0.4
	c-18-0.3-36.1-0.5-54.1-0.8c-0.8,0-1.9,0.1-2.4-0.5c-0.4-0.7,0.9-1.4,1.6-2c17.1-15.4,34.2-30.8,51.3-46.3c5.5-4.9,5.4-4.9,11.9-1.7
	c4.9,2.4,6.7,6.6,5.1,11.8c-0.6,2-1.4,3.9-1.7,5.9c-0.7,4.5,2.8,7.7,7.2,6.5c2-0.6,3.9-1.9,5.8-2.9c1-0.5,2.1-1,3.2-1.4
	c0,1.1,0.1,2.3,0,3.4c-0.1,1.1-0.4,2.1-0.5,3.2c-0.9,5.8,2,10.6,7.1,11.9c5.5,1.4,11.6-1.6,13.1-6.9c0.7-2.6,0.6-5.6,0.3-8.3
	c-0.3-2.7-1.5-5.2-2.3-7.8c-1.4-4.5-0.6-8.6,2.1-12.4c2.4-3.3,8.4-5.7,9.9-5.8c1.5-0.1,1.5,0.5,2.3,1.2c0.8,0.6,36.1,32.7,54.3,49.1
	C284.7,206.3,286.7,207.5,286.4,208.3z M318.2,203.6c-0.6,0.4-1.3-0.6-1.9-1c-19-16.9-39.2-32.3-59.5-47.7c-3.5-2.6-6.7-5.5-10-8.3
	c-1.4-1.2-1.2-1.8,0.4-2.8c7.4-4.3,14.7-8.8,22-13.3c1.7-1.1,2.7-1.1,4.7-0.1c4.5,2.3,4.9,5.9,4.8,10.1c-0.1,3.4-0.3,6.7,0.1,10.1
	c0.6,4.6,3.1,7.9,7.9,8.9c4.5,1,8.2-0.7,10.9-4.2c3.3-4.2,3.9-9.1,3.2-14.2c-0.6-3.9-1.5-7.7-2.4-11.5c-2.3-9.2,0.1-17.7,4.7-25.3
	c2.5-4.2,9.9-10.5,11-10.5c1.1,0,1.3,0.4,1.4,0.7c0.2,0.8,0.1,1.7,0.1,2.6c0,12.9,0,25.9,0,38.8c0,0,0,36.6,0.2,40.1
	c0.2,3.4,1.7,17.1,2.5,25.6C318.5,202.2,318.7,203.3,318.2,203.6z"/>
</svg>
