<?xml version="1.0" encoding="utf-8"?>
<!-- Generator: Adobe Illustrator 23.0.6, SVG Export Plug-In . SVG Version: 6.00 Build 0)  -->
<svg version="1.1"
	 id="Electron" xmlns:cc="http://creativecommons.org/ns#" xmlns:dc="http://purl.org/dc/elements/1.1/" xmlns:inkscape="http://www.inkscape.org/namespaces/inkscape" xmlns:rdf="http://www.w3.org/1999/02/22-rdf-syntax-ns#" xmlns:sodipodi="http://sodipodi.sourceforge.net/DTD/sodipodi-0.dtd" xmlns:svg="http://www.w3.org/2000/svg"
	 xmlns="http://www.w3.org/2000/svg" xmlns:xlink="http://www.w3.org/1999/xlink" x="0px" y="0px" viewBox="0 0 400 400"
	 style="enable-background:new 0 0 400 400;" xml:space="preserve">
<path d="M322.7,225.2c2.5-3,4-7,4-11.2c0-7.5-4.7-13.8-11.2-16.4l0,0c0,0-0.1,0-0.1,0c-0.4-0.2-0.9-0.3-1.3-0.4
	c-14.2-4.8-22.4-16.4-19.3-33.3c1.1-6,3.6-11.6,7.1-16.6c16.2-23.6,20.8-46.4,11.2-63.1c-8.3-14.4-25.9-22-49.2-22.3
	c-2,0-3.7,1.7-3.7,3.7c0,2,1.7,3.7,3.7,3.7c21,0.3,36.1,6.8,42.9,18.6c9.4,16.2,2,41.2-19.7,66.8c-0.7,0.9-1,1.8-0.8,2.9
	c0,0,0,0.2,0.1,0.3c0,0.2,0.1,0.3,0.2,0.6c1.1,6.4,0,52.8-12.3,69.4c-0.4,0.5-1.1,0.8-1.7,0.7c-10.5-1.8-12.4-8.1-12.8-14.9
	c-0.1-2.4,0.1-4.8,0.7-7.1c4.6-18.7,6.9-37.9,6.8-57.2c0-58.3-19.5-108.9-47.8-125.1c-1-0.6-1.8-1.5-1.9-2.7
	c-1-10.7-11.4-19.3-22.8-15.8c-5.8,1.7-10.3,6.5-11.7,12.3c-1.3,5.1-0.3,9.9,2.1,13.7c1.4,2.3,2.5,4.7,3.2,7.3
	c3.5,12.5-3.1,19.4-23.8,22c-6.7,0.8-13.6,1.1-20.4,0.7c-27-1.5-47.8,6.1-57.1,22.2c-8.4,14.6-6,34,5.8,54.7c1,1.8,3.3,2.4,5,1.4
	c1.8-1,2.4-3.3,1.4-5c-10.7-18.7-12.8-35.4-5.9-47.5c7.9-13.7,27.2-20.3,53-18.3c4,0.3,8,1.1,11.7,2.5c12,4.7,11.5,10.9,4.1,19.6
	c-3.2,3.7-7,6.8-11,9.5c-42.9,29-70.4,66.9-69.1,96.2c0,0.9-0.4,1.8-1.2,2.3c-4.7,3.2-7.7,8.5-7.7,14.6c0,3.1,0.8,6.1,2.3,8.6
	c27,35.4-17,89.9,10.5,96c2.1,0.5,4.4,0.5,6.5,0.2c29.6-4.3-11.2-48.3,13.1-95.2c4.2-6.4,4.4-15.7-3.3-24.3c-2.8-3.1-7.1-3.9-11.1-3
	c-2.6,0.6-1.5-5.5-0.9-8.7c4.6-28.3,35.5-64.3,80-90C190,86,211.4,77.5,233.8,72.4c2-0.4,3.3-2.4,2.8-4.4c-0.4-2-2.3-2.6-4.4-2.7
	c-30.3-1.8-27-24.2-17.7-30.1c2.8-1.7,6.4-1.2,8.8,1C244.9,55.1,260,99.1,260,149.4c0.1,19.5-2.3,38.8-7.1,57.6l0,0
	c-2.8,9.6-10,20.3-22,18.4c-19.3-4.5-40.3-12.8-60.7-24.6c-19.7-11.2-37.7-25.3-53.1-41.9c-1.4-1.5-3.7-1.6-5.2-0.2
	c-1.5,1.4-1.6,3.7-0.2,5.2v0c0,0,0.1,0.1,0.1,0.1l-0.1-0.1c15.6,21.7,24.5,40.3,34,61.9c2,5.3,4.2,10.4,6.5,15
	c0.1,0.2,0.2,0.4,0.3,0.6l0-0.1c12.3,24.1,29.1,38.4,47.7,38.4c16.5,0,31.7-11.2,43.6-31c1.1-1.7,0.6-4-1.2-5.1
	c-1.7-1.1-4-0.6-5.1,1.2c-10.7,17.8-23.8,27.5-37.3,27.5c-18.4,0-36-18.1-47.4-48.7c-3.8-11.4-2.8-19.3,8.1-18.2
	c1.2,0.1,1.8,0.2,3.4,0.8c1.6,0.6,1.7,0.6,2.3,1c44.9,25.9,92.2,35.4,122.1,25.7c35.1-13.1-14.8,97.2,14.9,104.8
	c1.8,0.5,3.6,0.3,5.4-0.1c27.4-6.4-10.4-54.9,6.6-99.9C317.3,233.3,319.6,229,322.7,225.2z M90.9,203.8c5.7,0,10.2,4.6,10.2,10.2
	c0,5.7-4.6,10.2-10.2,10.2c-5.7,0-10.2-4.6-10.2-10.2C80.6,208.4,85.2,203.8,90.9,203.8z M200.1,32.9c-5.7,0-10.2-4.6-10.2-10.2
	c0-5.7,4.6-10.2,10.2-10.2c5.7,0,10.2,4.6,10.2,10.2C210.4,28.3,205.8,32.9,200.1,32.9z M309.1,224.3c-2.5,0-4.7-0.9-6.5-2.3
	c-0.1-0.1-0.1-0.2-0.2-0.3c-0.3-0.5-0.8-0.9-1.3-1.1c-1.5-1.8-2.4-4-2.4-6.5c0-5.7,4.6-10.2,10.2-10.2c5.7,0,10.2,4.6,10.2,10.2
	C319.4,219.7,314.8,224.3,309.1,224.3z"/>
<path d="M202.8,161.8c6.8-1.5,11.2-8.3,9.7-15.1c0,0,0-0.1,0-0.1c-1.5-6.9-8.4-11.2-15.2-9.7c-6.9,1.5-11.2,8.4-9.7,15.2
	C189.1,159,196,163.4,202.8,161.8z"/>
</svg>
