<?xml version="1.0" encoding="utf-8"?>
<!-- Generator: Adobe Illustrator 23.0.1, SVG Export Plug-In . SVG Version: 6.00 Build 0)  -->
<svg version="1.1"
	 id="Electron" inkscape:version="0.92.1 r15371" sodipodi:docname="electron.svg" xmlns:cc="http://creativecommons.org/ns#" xmlns:dc="http://purl.org/dc/elements/1.1/" xmlns:inkscape="http://www.inkscape.org/namespaces/inkscape" xmlns:rdf="http://www.w3.org/1999/02/22-rdf-syntax-ns#" xmlns:sodipodi="http://sodipodi.sourceforge.net/DTD/sodipodi-0.dtd" xmlns:svg="http://www.w3.org/2000/svg"
	 xmlns="http://www.w3.org/2000/svg" xmlns:xlink="http://www.w3.org/1999/xlink" x="0px" y="0px" viewBox="0 0 400 400"
	 style="enable-background:new 0 0 400 400;" xml:space="preserve">
<sodipodi:namedview  bordercolor="#666666" borderopacity="1" fit-margin-bottom="100" fit-margin-left="20" fit-margin-right="20" fit-margin-top="20" gridtolerance="10" guidetolerance="10" id="namedview24" inkscape:current-layer="Electron" inkscape:cx="-24.756139" inkscape:cy="126.68627" inkscape:pageopacity="0" inkscape:pageshadow="2" inkscape:window-height="705" inkscape:window-maximized="1" inkscape:window-width="1366" inkscape:window-x="-8" inkscape:window-y="245" inkscape:zoom="2" objecttolerance="10" pagecolor="#ffffff" showgrid="false">
	</sodipodi:namedview>
<title  id="title6">Artboard 5</title>
<g>
	<path d="M343.7,262.9c3-3.6,4.7-8.1,4.7-13.1c0-8.7-5.5-16.2-13.1-19.2l0,0c-0.1,0-0.1,0-0.1-0.1c-0.5-0.2-1-0.4-1.5-0.5
		c-16.6-5.6-26.2-19.2-22.6-39c1.3-7,4.3-13.5,8.3-19.4c19-27.7,24.4-54.4,13.1-74c-9.7-16.9-30.3-25.8-57.7-26.1
		c-2.4,0-4.3,1.9-4.3,4.3c0,2.4,1.9,4.3,4.3,4.3c24.6,0.3,42.3,8,50.3,21.8c11,19,2.4,48.2-23,78.3c-0.9,1-1.1,2.1-0.9,3.4
		c0,0,0,0.2,0.1,0.4c0.1,0.2,0.1,0.4,0.2,0.7c1.3,7.5,0,61.9-14.3,81.3c-0.5,0.6-1.2,0.9-2,0.8c-12.3-2.1-14.5-9.5-15-17.4
		c-0.2-2.8,0.1-5.6,0.8-8.3c5.4-21.9,8.1-44.4,7.9-67c0-68.3-22.8-127.5-55.9-146.5c-1.2-0.7-2.1-1.8-2.2-3.2
		c-1.2-12.5-13.4-22.6-26.7-18.6c-6.7,2-12,7.6-13.8,14.4c-1.5,6-0.4,11.6,2.4,16.1c1.6,2.7,2.9,5.6,3.8,8.6
		c4.1,14.6-3.6,22.7-27.9,25.7c-7.9,1-15.9,1.2-23.9,0.8c-31.7-1.7-56,7.1-66.9,26c-9.9,17.1-7.1,39.9,6.9,64.1
		c1.2,2.1,3.8,2.8,5.9,1.6c2.1-1.2,2.8-3.8,1.6-5.9c-12.5-21.9-15-41.5-6.9-55.6c9.3-16.1,31.9-23.8,62.1-21.4
		c4.7,0.4,9.3,1.2,13.7,2.9c14,5.5,13.5,12.8,4.8,22.9c-3.7,4.3-8.2,8-12.9,11.2c-50.2,34-82.5,78.3-80.9,112.7
		c0,1.1-0.5,2.1-1.4,2.7c-5.5,3.7-9,10-9,17.1c0,3.7,1,7.1,2.7,10.1c31.6,41.5-19.9,105.4,12.3,112.5c2.5,0.6,5.1,0.6,7.7,0.2
		c34.7-5.1-13.1-56.6,15.3-111.5c4.9-7.5,5.1-18.4-3.8-28.5c-3.2-3.6-8.3-4.5-13-3.5c-3.1,0.7-1.7-6.5-1.1-10.1
		c5.4-33.2,41.6-75.3,93.8-105.5c23.1-13.6,48.2-23.6,74.4-29.6c2.3-0.5,3.8-2.8,3.3-5.1c-0.5-2.3-2.7-3.1-5.1-3.2
		c-35.5-2.1-31.7-28.3-20.7-35.3c3.2-2,7.5-1.4,10.3,1.1c25.2,22.2,42.9,73.7,42.9,132.6c0.2,22.8-2.6,45.5-8.3,67.5l0,0
		c-3.3,11.2-11.7,23.8-25.7,21.6c-22.6-5.2-47.2-14.9-71.2-28.8c-23.1-13.1-44.1-29.7-62.3-49.1c-1.6-1.8-4.4-1.9-6.1-0.3
		c-1.8,1.6-1.9,4.4-0.3,6.1v0c0,0,0.1,0.1,0.1,0.1l-0.1-0.1c18.3,25.5,28.7,47.2,39.8,72.5c2.3,6.3,4.9,12.1,7.7,17.6
		c0.1,0.3,0.2,0.5,0.3,0.8l0-0.1c14.4,28.2,34.1,45,55.9,45c19.3,0,37.2-13.2,51.1-36.4c1.3-2,0.7-4.7-1.4-6c-2-1.3-4.7-0.7-6,1.4
		c-12.5,20.8-27.9,32.2-43.7,32.2c-21.6,0-42.1-21.2-55.5-57c-4.5-13.4-3.3-22.6,9.5-21.3c1.4,0.1,2.1,0.3,3.9,0.9
		c1.8,0.6,2,0.7,2.7,1.1c52.6,30.3,108,41.5,143,30.1c41.1-15.4-17.3,113.8,17.4,122.7c2.1,0.5,4.3,0.4,6.3-0.1
		c32.1-7.5-12.2-64.3,7.8-117C337.4,272.3,340.1,267.3,343.7,262.9z M72.2,237.8c6.6,0,12,5.4,12,12c0,6.6-5.4,12-12,12
		c-6.6,0-12-5.4-12-12C60.2,243.1,65.5,237.8,72.2,237.8z M200.1,37.6c-6.6,0-12-5.4-12-12c0-6.6,5.4-12,12-12c6.6,0,12,5.4,12,12
		C212.2,32.2,206.8,37.6,200.1,37.6z M327.8,261.8c-2.9,0-5.5-1.1-7.6-2.7c-0.1-0.1-0.1-0.2-0.2-0.3c-0.4-0.6-0.9-1-1.5-1.3
		c-1.7-2.1-2.8-4.7-2.8-7.6c0-6.6,5.4-12,12-12c6.6,0,12,5.4,12,12C339.8,256.4,334.5,261.8,327.8,261.8z"/>
	<path d="M203.3,188.6c8-1.8,13.1-9.7,11.3-17.7c0,0,0-0.1,0-0.1c-1.8-8-9.8-13.1-17.8-11.3c-8,1.8-13.1,9.8-11.3,17.8
		C187.3,185.4,195.3,190.4,203.3,188.6z"/>
</g>
</svg>
