<?xml version="1.0" encoding="utf-8"?>
<!-- Generator: Adobe Illustrator 23.0.6, SVG Export Plug-In . SVG Version: 6.00 Build 0)  -->
<svg version="1.1"
	 id="svg4" xmlns:cc="http://creativecommons.org/ns#" xmlns:dc="http://purl.org/dc/elements/1.1/" xmlns:inkscape="http://www.inkscape.org/namespaces/inkscape" xmlns:rdf="http://www.w3.org/1999/02/22-rdf-syntax-ns#" xmlns:sodipodi="http://sodipodi.sourceforge.net/DTD/sodipodi-0.dtd" xmlns:svg="http://www.w3.org/2000/svg"
	 xmlns="http://www.w3.org/2000/svg" xmlns:xlink="http://www.w3.org/1999/xlink" x="0px" y="0px" viewBox="0 0 400 400"
	 style="enable-background:new 0 0 400 400;" xml:space="preserve">
<path d="M311.6,65.8L211.4,7.7c-6.3-3.6-14.6-3.6-20.9,0l-101,58.1C83,69.6,78.5,76.6,78.5,84.2v116.1c0,7.5,4.5,14.6,11,18.4
	l26.6,15.2c12.8,6.3,16.3,6.3,22.1,6.3c18.9,0,28.7-11.4,28.7-31.4v-90.2c0-2.4,1-4.7,2.9-6c4.7-3.4,11.4,0.1,12.5,9.6
	c0,0.8,0.1,1.6,0.2,2.3c0,0,0,0,0,0.1l0,0c1.9,18.9,18.5,24.4,44.4,26.9c32.9,3.2,35.5,8,35.5,14.5c0,11.3-9,16-30.2,16
	c-26.6,0-32.5-7.3-34.4-20.6c-0.2-1.4-1.4-3.1-2.9-3.1h-13c-1.6,0-2.9,1.3-2.9,2.9c-0.2,17.1,8.6,38.2,53.2,38.2
	c14.8,0,26.6-2.7,35.1-7.7c3.3-2,7.3-2.8,11.1-1.9c9.2,2,13.4,11.8,8.3,20.3c-1.5,2.4-3.6,4.4-6.1,5.8L202.4,261
	c-0.9,0.5-2,0.5-2.9,0l-25.7-15.3c-0.8-0.4-1.7-0.5-2.5-0.2c-8.2,3.7-9.4,4.4-15.2,6.9c-1.3,0.6-3.2,1.1-1.4,2.8
	c42.7,53.9-0.4,89.4,23.8,91.4c24.3,0.3-11.6-75.7,11.3-70.3c0.3,0.1,0.5,0.2,0.7,0.3c3.2,1.8,7.1,2.9,10.6,2.9
	c3.7,0,7.4-1,10.6-2.8l99.8-58.1c6.5-3.8,9.8-10.8,9.8-18.4V84.2C321.5,76.6,318.2,69.6,311.6,65.8z M148.9,208.7
	c0,7.2-5.5,14.4-15.7,12.7c-2.3-0.4-4.5-1.4-6.1-3.1c-10.1-11.2,13.7-35.4,20.6-25.3c0.8,1.1,1.1,2.5,1.1,3.9V208.7z M244.8,133.5
	c-1.7,0.4-3.5,0.4-5.2,0.2c-0.9-0.1-1.8-0.2-2.7-0.4c-31.2-4.1-34.4-6.2-34.4-13.5c0-6,2.7-14.1,25.8-14.1c11.8,0,19.4,1.5,24.3,5.3
	c2.5,2,4.2,4.9,4.5,8.1C257.6,126.1,252.2,131.8,244.8,133.5z M303.3,84.2l0,89.8c0,1.9-0.2,3.8-0.6,5.6c-2.8,11-11.2,8.8-16.4,2
	c-3.1-4-4.3-9.1-3.9-14.1c0.1-0.8,0.1-1.7,0.1-2.5c0-13.6-5.8-20.9-17.7-25.5l0,0c-14.3-6.9,2-11.9,11.1-13c0.7-0.1,1.4-0.4,1.9-0.9
	c0.5-0.6,0.8-1.4,0.8-2.2c-2-24-18-35.2-50.2-35.2c-16,0-28.5,3.8-36.3,10.7c-0.8,0.7-1.6,1.4-2.6,1.9c-4.3,2.5-8.9,2.6-12.1,1.5
	c-4.7-1.5-9.9-5.5-9.9-11.3c0-0.5-0.3-0.9-0.9-0.9h-12.8c-2.6,0-4.8,2.2-4.8,4.8v25.8c0,11.5-1.9,22.9-5.8,33.7
	c-8.5,23.4-23.8,45.4-35.2,50.2c-2.5,1.1-5.4,0.8-7.8-0.6l-1.8-1.1c-1-0.5-1.5-1.6-1.5-2.7V84.2c0-1.1,1.1-2.2,2-2.8l100.7-58
	c0.9-0.5,2.3-0.5,3.2,0l99.8,58C303.4,82,303.3,83,303.3,84.2z"/>
</svg>
