<?xml version="1.0" encoding="utf-8"?>
<!-- Generator: Adobe Illustrator 23.0.1, SVG Export Plug-In . SVG Version: 6.00 Build 0)  -->
<svg version="1.1"
	 id="svg4" inkscape:version="0.92.1 r15371" sodipodi:docname="nodejs.svg" xmlns:cc="http://creativecommons.org/ns#" xmlns:dc="http://purl.org/dc/elements/1.1/" xmlns:inkscape="http://www.inkscape.org/namespaces/inkscape" xmlns:rdf="http://www.w3.org/1999/02/22-rdf-syntax-ns#" xmlns:sodipodi="http://sodipodi.sourceforge.net/DTD/sodipodi-0.dtd" xmlns:svg="http://www.w3.org/2000/svg"
	 xmlns="http://www.w3.org/2000/svg" xmlns:xlink="http://www.w3.org/1999/xlink" x="0px" y="0px" viewBox="0 0 400 400"
	 style="enable-background:new 0 0 400 400;" xml:space="preserve">
<sodipodi:namedview  bordercolor="#666666" borderopacity="1" fit-margin-bottom="50" fit-margin-left="0" fit-margin-right="0" fit-margin-top="0" gridtolerance="10" guidetolerance="10" id="namedview6" inkscape:current-layer="svg4" inkscape:cx="-41.660139" inkscape:cy="128.66456" inkscape:pageopacity="0" inkscape:pageshadow="2" inkscape:window-height="705" inkscape:window-maximized="1" inkscape:window-width="1366" inkscape:window-x="-8" inkscape:window-y="245" inkscape:zoom="1.84375" objecttolerance="10" pagecolor="#ffffff" showgrid="false">
	</sodipodi:namedview>
<path d="M327.7,74.2L213.1,7.7c-7.2-4.1-16.7-4.1-24,0L73.6,74.2c-7.4,4.3-12.5,12.3-12.5,21v132.8c0,8.6,5.2,16.7,12.6,21
	l30.4,17.4c14.6,7.2,18.7,7.2,25.3,7.2c21.6,0,32.9-13.1,32.9-35.9V134.4c0-2.7,1.2-5.3,3.3-6.9c5.3-3.9,13.1,0.1,14.3,11
	c0,0.9,0.1,1.8,0.2,2.6c0,0,0,0,0,0.1l0,0c2.2,21.6,21.2,27.9,50.7,30.8c37.7,3.7,40.6,9.2,40.6,16.6c0,12.9-10.3,18.3-34.5,18.3
	c-30.4,0-37.1-8.4-39.4-23.5c-0.3-1.6-1.6-3.6-3.3-3.6h-14.9c-1.8,0-3.3,1.5-3.3,3.3c-0.3,19.5,9.9,43.6,60.9,43.6
	c16.9,0,30.4-3,40.1-8.8c3.8-2.3,8.4-3.1,12.7-2.2c10.6,2.3,15.4,13.4,9.5,23.2c-1.7,2.8-4.1,5-6.9,6.6l-89.6,51.9
	c-1,0.6-2.3,0.6-3.3,0L170,279.9c-0.9-0.5-1.9-0.6-2.8-0.2c-9.4,4.3-10.7,5-17.3,7.9c-1.4,0.6-3.6,1.3-1.6,3.2
	c48.8,61.6-0.4,102.2,27.2,104.6c27.7,0.4-13.2-86.5,13-80.4c0.3,0.1,0.6,0.2,0.8,0.3c3.6,2,8.1,3.3,12.1,3.3
	c4.3,0,8.4-1.1,12.1-3.2l114.2-66.4c7.5-4.3,11.2-12.4,11.2-21V95.2C338.9,86.5,335.1,78.5,327.7,74.2z M141.6,237.6
	c0,8.3-6.3,16.5-17.9,14.6c-2.6-0.4-5.2-1.6-6.9-3.6c-11.5-12.8,15.6-40.5,23.6-28.9c0.9,1.3,1.3,2.9,1.3,4.4L141.6,237.6z
	 M251.2,151.6c-1.9,0.5-4,0.5-5.9,0.2c-1-0.1-2.1-0.3-3.1-0.4c-35.7-4.7-39.4-7.1-39.4-15.5c0-6.9,3.1-16.1,29.5-16.1
	c13.5,0,22.2,1.7,27.8,6.1c2.9,2.3,4.9,5.6,5.2,9.2C265.9,143.2,259.7,149.6,251.2,151.6z M318.1,95.2l0,102.6
	c0,2.2-0.2,4.3-0.7,6.4c-3.1,12.6-12.9,10-18.8,2.3c-3.5-4.6-4.9-10.4-4.5-16.1c0.1-1,0.1-1.9,0.1-2.9c0-15.6-6.6-23.9-20.2-29.2
	l0,0c-16.3-7.8,2.3-13.6,12.6-14.9c0.8-0.1,1.6-0.4,2.1-1c0.6-0.7,1-1.6,0.9-2.5c-2.3-27.4-20.5-40.2-57.4-40.2
	c-18.3,0-32.5,4.3-41.5,12.2c-0.9,0.8-1.9,1.6-2.9,2.2c-4.9,2.8-10.1,2.9-13.8,1.7c-5.4-1.7-11.4-6.3-11.4-12.9c-0.1-0.6-0.3-1-1-1
	h-14.6c-3,0-5.5,2.5-5.5,5.5v29.5c0,13.1-2.2,26.2-6.7,38.5c-9.7,26.7-27.2,52-40.3,57.4c-2.9,1.2-6.2,0.9-8.9-0.7l-2.1-1.2
	c-1.1-0.6-1.8-1.8-1.8-3.1V95.2c0-1.3,1.2-2.5,2.3-3.1l115.2-66.4c1.1-0.6,2.6-0.6,3.7,0L317.2,92C318.3,92.6,318.1,93.9,318.1,95.2
	z"/>
</svg>
