<?xml version="1.0" encoding="utf-8"?>
<!-- Generator: Adobe Illustrator 23.0.6, SVG Export Plug-In . SVG Version: 6.00 Build 0)  -->
<svg version="1.1" id="Layer_1" xmlns="http://www.w3.org/2000/svg" xmlns:xlink="http://www.w3.org/1999/xlink" x="0px" y="0px"
	 viewBox="0 0 400 400" style="enable-background:new 0 0 400 400;" xml:space="preserve">
<path d="M243.7,179.7c4.3-5.1,8.7-7.3,14.4-8.4c3.4-0.7,6.5,0.1,9.2,2.4c2,1.7,4.4,4.4,6.8,2.5c1.6-1.3,2.3-4.7,2.2-7.1
	c-0.4-7.5-1.9-14.9-2.2-22.3c-0.5-13.6-0.2-27.2-0.4-40.8c-0.2-13.4-0.6-26.8-0.9-40.1c-0.1-4.4,0-8.8-0.2-13.3
	c-0.2-4.5-2.1-5.3-5.9-3.3c-7.3,3.9-14.9,7.4-22,11.7c-4.7,2.8-8.8,6.5-13,9.9c-3.7,3-4.3,7.4-5.3,11.8c-0.7,3.3-0.8,6.2,0.5,9.5
	c2.6,7,0.2,13.5-5.9,17.7c-4.2,2.8-13.7,0-15.7-4.6c-2.2-5.3-2.5-10.4,0.2-15.7c2.2-4.4,0.3-8.5-2.6-11.9c-2.4-2.8-5.7-2.9-9-1.6
	c-6.2,2.4-12.3,4.9-18.5,7.4c-1.3,0.5-2.5,1.1-3.8,1.5c-5.3,1.5-9.1,6-9.1,11.4c0,14.6-0.1,29.3,0.1,43.9c0.3,22.3,0.7,44.7,1.4,67
	c0.4,14.3,1.5,28.6,2.2,42.9c0.1,2.4-0.2,4.8-0.3,7.2c-0.4,5.9-1.3,11.8-1.1,17.6c0.1,3.7,2.1,7.2,2.9,10.9c0.6,2.8,1.5,5.9,0.9,8.5
	c-1.3,6-6.8,7.4-13.1,7.3c-4.3-0.1-9.3-4.1-10-8.7c-0.5-3.7-0.3-7.5,0.1-11.3c0.5-4.2-2-6.8-6.2-6c-3.9,0.8-7.8,1.7-11.7,2.5
	c-10.5,2.1-23.1-3.7-29.8-14.1c-2.2-3.4-4-7.2-4.9-11.1c-2.2-9.2,1.4-17,7.6-23.6c4.5-4.8,13.1-5.6,18.7-2.3c1.7,1,3.4,2.1,5.3,2.9
	c4.2,1.7,9.8,1.3,10.7-5.3c0.7-4.8,1-9.6,0.9-14.4c-0.3-12.4-0.7-24.8-1.3-37.2c-0.6-10.7-1.6-21.4-2.3-32.1
	c-0.4-5.1-0.7-10.3-0.9-15.5c-0.1-1.9-0.3-2.3-2.3-1.4c-5.6,2.4-11.9,2.1-13.2-3.7c-1.1-4.9-1.1-10.1,2.7-14.3
	c1.7-1.9,3.2-3.9,4.9-5.8c5.4-6.1,6.4-13.7,7.9-21.3c1.1-5.5,2.7-11,4.8-16.3c1.9-4.7,6.1-7.3,10.9-9c13.5-4.7,27-9.6,40.5-14.4
	c14.6-5.2,29.1-10.4,43.7-15.5c9.3-3.3,18.7-6.5,28.1-9.6c9.2-3,18.4-5.9,27.7-8.6c6.9-2.1,13.4,3.7,13.5,11.8
	c0,2.4,0.4,7.5,0.5,14.3s0.7,22.2,1,27.9c0.3,5.7,1.1,24.8,1.7,37.3c0.6,12.3,1,27.7,1.9,36.6s1.4,16,1.5,23.5s0.7,38.8,0.7,38.8
	c0,4.4-2.3,8-5.3,11.2c-5.3,5.7-12.1,9.1-19.2,11.8c-4,1.5-8,3.2-12,4.9c-6.1,2.8-8.6,9-6.3,15.3c0.9,2.6,2.3,5,2.9,7.7
	c0.7,3.1,1.5,6.5,1,9.6c-1.1,6.8-7.6,10.2-15.4,8.8c-9-1.6-13.8-9.7-10.6-18.6c2.2-6,2.3-11.6-0.6-17.6c-3.2-6.6-5.2-9.4-7.6-20.7
	C232.2,196.6,239.4,184.8,243.7,179.7z"/>
</svg>
