<?xml version="1.0" encoding="utf-8"?>
<!-- Generator: Adobe Illustrator 23.0.6, SVG Export Plug-In . SVG Version: 6.00 Build 0)  -->
<svg version="1.1"
	 id="svg8" xmlns:cc="http://creativecommons.org/ns#" xmlns:dc="http://purl.org/dc/elements/1.1/" xmlns:inkscape="http://www.inkscape.org/namespaces/inkscape" xmlns:rdf="http://www.w3.org/1999/02/22-rdf-syntax-ns#" xmlns:sodipodi="http://sodipodi.sourceforge.net/DTD/sodipodi-0.dtd" xmlns:svg="http://www.w3.org/2000/svg"
	 xmlns="http://www.w3.org/2000/svg" xmlns:xlink="http://www.w3.org/1999/xlink" x="0px" y="0px" viewBox="0 0 400 400"
	 style="enable-background:new 0 0 400 400;" xml:space="preserve">
<path d="M132.3,184.4c4.9,5.5,10.9,9.1,17.6,11.5c5.2,1.9,10.8,3,16.5,3.5c2.6,0.2,5,1.2,6.9,3c11.4,11-6.2,36.3,7.6,39.2
	c13.3-0.8-2.8-31.2,10.5-44.3c1-1,1.6-2.4,1.6-3.8l0-12.1c0-1.8-1.2-3.5-2.9-4c-13.1-4.2-56.7-35.2-48-68.4c0,0-0.1,0.1-0.2,0.3
	c1.5-3.4,3.4-6.4,5.6-9.2c6.7-7.9,15.8-12.1,26.7-12.1c4.2,0,7.9,0.6,10.9,1.2c1.9,0.3,4,0.8,5.9,1.3c2.2,0.6,4.4-1.1,4.4-3.4V75.1
	c0-1.6-1.1-3-2.7-3.4c-1.8-0.5-4.1-1-6.4-1.4c-3.6-0.6-7.3-0.6-12.1-0.6c-9.1,0-17,1.8-24.3,4.9c-7.3,3-13.4,7.3-18.2,13.4
	c-4.9,5.5-9.1,12.7-11.5,20.6s-4.2,17-4.2,26.7c0,11.5,1.2,21.2,4.2,29.1C123.2,172.9,127.5,179.6,132.3,184.4z M168.1,178.7
	c-1.1,0.5-2.4,0.5-3.6,0.1c-5.1-1.5-10.3-4.2-15.3-8.4c-4.1-3.5-7.2-8.4-9.2-14.8c-0.5-1.7,0.9-3.3,2.6-2.9
	C151.8,154.8,176.9,174.9,168.1,178.7z"/>
<path d="M328.1,9H71.9c-5.2,0-9.4,4.2-9.4,9.4v247.7c0,5.8,3.4,10.9,8.6,13.4C109,297.6,70,374,97.7,375.3c22,0.3-7.5-52.4,9.8-84.2
	c4.9-9,14.6-14.5,24.9-14.5h195.8c5.2,0,9.4-4.2,9.4-9.4v-249C337.5,13.2,333.3,9,328.1,9z M315.4,264.6H84.6
	c-5.2,0-9.4-4.2-9.4-9.4V29.9c0-5.2,4.2-9.4,9.4-9.4h230.8c5.2,0,9.4,4.2,9.4,9.4v225.3C324.8,260.4,320.6,264.6,315.4,264.6z"/>
<path d="M273.2,117c-7.3-9.7-17.7-13.9-31-14l0,0c0,0-0.1,0-0.1,0c0,0,0,0-0.1,0l0,0c-6.6,0-11.7,0.5-18,2c-4.2,1-7.4,2.2-10.2,3.3
	c-2.3,0.9-3.8,3-3.8,5.5v112.4c0,1.4,1.2,2.6,2.7,2.4l15.8-1.6c1.2-0.1,2.2-1.2,2.2-2.4v-21.2c0-1.8,1.4-3.2,3.2-3.2h1.6
	c12.1,0,23.1-4.2,33.4-12.7c9.7-8.5,14.6-21.2,14.6-38.2C283.5,136.5,280.4,125.5,273.2,117z M244.8,178c-0.8,2-2.6,3.4-4.7,3.7
	c-1.3,0.2-2.6,0.3-3.9,0.3c-0.6,0-1.8,0-3,0l0,0c-1.7,0-3-1.4-3-3v-41.1c0-1,0.4-2.1,1.3-2.7C238.4,130.3,250.1,164.4,244.8,178z
	 M242.4,121.3c0.8-0.3,1.6-0.4,2.5-0.2c4.8,0.9,8.7,3.2,11.9,6.8c3.2,3.7,5,8.7,5.7,15.2c0.2,1.7,0.1,3.4-0.4,5
	C257.7,163.3,232.5,125.5,242.4,121.3z"/>
</svg>
