<?xml version="1.0" encoding="utf-8"?>
<!-- Generator: Adobe Illustrator 23.0.1, SVG Export Plug-In . SVG Version: 6.00 Build 0)  -->
<svg version="1.1"
	 id="svg4" inkscape:version="0.92.1 r15371" sodipodi:docname="firefox.svg" xmlns:cc="http://creativecommons.org/ns#" xmlns:dc="http://purl.org/dc/elements/1.1/" xmlns:inkscape="http://www.inkscape.org/namespaces/inkscape" xmlns:rdf="http://www.w3.org/1999/02/22-rdf-syntax-ns#" xmlns:sodipodi="http://sodipodi.sourceforge.net/DTD/sodipodi-0.dtd" xmlns:svg="http://www.w3.org/2000/svg"
	 xmlns="http://www.w3.org/2000/svg" xmlns:xlink="http://www.w3.org/1999/xlink" x="0px" y="0px" viewBox="0 0 400 400"
	 style="enable-background:new 0 0 400 400;" xml:space="preserve">
<sodipodi:namedview  bordercolor="#666666" borderopacity="1" fit-margin-bottom="50" fit-margin-left="0" fit-margin-right="0" fit-margin-top="0" gridtolerance="10" guidetolerance="10" id="namedview6" inkscape:current-layer="svg4" inkscape:cx="-26.228535" inkscape:cy="138.40914" inkscape:pageopacity="0" inkscape:pageshadow="2" inkscape:window-height="1017" inkscape:window-maximized="1" inkscape:window-width="1920" inkscape:window-x="1358" inkscape:window-y="-8" inkscape:zoom="3.6875" objecttolerance="10" pagecolor="#ffffff" showgrid="false">
	</sodipodi:namedview>
<path d="M345.3,117c-0.3-2.8-0.8-5.7-1.3-8.5c-0.1-0.4-0.5-0.4-0.6,0c-1,3.6-1.3,7.2-3.1,10.5c-0.2,0.5-0.9,0.3-1-0.2
	c-1.4-23.8-6.1-46.5-20.1-67.1c-0.3-0.5-1.1-0.2-1.1,0.4l2.3,18c0.1,0.4-0.5,0.5-0.7,0.2c-0.6-1.6-1.2-3.2-2-4.8
	c-6.7-14.3-17.3-24.8-31.4-31.8c-3.1-1.5-6.3-2.8-9.1-4.8C247.5,8.7,214.6,1.1,179.1,6.2c-28.3,4-52.9,16.3-73.8,36
	c-2.7,2.5-5.5,4.9-8.3,7.4c-1.4,1.2-3.5,0.9-4.5-0.7c-3.2-5.5-4.7-12.2-6.2-19.2c-0.2-1.2-1.7-1.6-2.5-0.7c-3.7,4.2-6,8.8-7.8,13.8
	c-4.1,11.3-5.3,23.1-5.1,35c0.1,3.4-1.2,5.8-3.1,8.3c-5,6.9-9.5,14.1-12,22.4c-0.9,3-1.7,6.1-1.6,9.4c0.1,1.5,1.8,2.3,3,1.4l3-2.4
	c1-0.8,2-0.3,1.8,0.5c-0.2,0.9-0.4,1.8-0.7,2.6c-5.6,17.2-6.4,34.8-2.8,52.5c4.9,23.9,15.8,45,32.3,63
	c34.4,37.7,76.9,53.9,127.5,47.9c4.8-0.6,9.5-1.4,14-2.5l-0.1,0.1c30.4-6-7,50,19.6,51.7c23.8-2.1-17.7-61.7,20-58.7
	c43.6,2.8-11.5,119.9,25.7,121.6c37.8-1.6-17-101.3,11.7-167.5c5.6-7.3,10.5-14.8,14.8-22.7c0.2-0.4,0.3-0.6,0.6-1
	c8.1-15.1,13.8-31.3,17.1-48.7C344.2,142.7,346.7,130,345.3,117z M135,55.9c-8.2-2.4-13.3-2.5-21.4-0.5l-2,0.4
	c-1,0.2-1.7-0.9-1.1-1.7c2.1-2.9,5.8-6.3,10.4-9.8c4.8-3.6,10.5-5.7,16.5-6.1c11.5-0.6,17.4,3.7,12.8,7.6c-4.3,2.6-8.3,5.6-12.1,9
	C137.4,55.6,135.9,56.2,135,55.9z M301.5,96.8l-9.3-7.2c-0.4-0.3-0.9,0-0.8,0.5c4.2,18.2,7.5,38.3,2.6,57.5
	c-0.2,0.7-1.1,0.7-1.4,0.1c-2.2-5.4-3.8-10.6-7.4-15.3c-0.3-0.4-1-0.1-0.9,0.4c2.2,24.1,1.4,47-14,67.3c-0.4,0.5-1.3,0.2-1.2-0.5
	l2.9-19.4c0.1-0.5-0.5-0.7-0.8-0.4c-3.4,4.3-7.6,9.8-11,13.7c-9.4,10.8-20.5,19.3-34.5,23.1c-12.5,3.5-24.9,1.8-37-2.2
	c-11-3.6-19-8.4-27.3-16.5c-0.1-0.1-0.7-0.7-1.3-1.3c-0.5-0.5-0.1-1.3,0.6-1.3c0.8,0,1.5,0,2.2,0c11.5,0.4,22.6-1.4,32.8-6.7
	c2.3-1.2,4.5-2.5,6.7-3.9c2.3-1.4,4.8-2.5,7.4-3c18.9-3.5,0.1,25.5,10.5,26.6c9.2-0.3-3.9-11,4.2-30.8c0.5-1.2,1.2-2.3,2-3.3
	c0.1-0.1,0.2-0.3,0.3-0.4c1.3-2.1,0.4-4.2-1.2-6c-8.6-10.2-22.5-12.4-34.9-5.8c-4.1,2.2-8.5,4.1-13,5c-6.4,1.4-12.5-0.7-17.9-4.4
	c-6.5-4.5-12-10.1-16.9-16.3c-2.4-3-2.4-6.8-0.1-10.3c1.9-3.1,5.1-4.4,8.9-3.7c3,0.6,6,1,9,1.6c2.1,0.4,4.1,0.9,6.3,1.4
	c1.6,0.4,3.3-0.8,3.4-2.4c0.3-3.1-0.2-6.1-1-9c-0.9-3.1-2.2-6.1-3.6-9c-0.7-1.6-0.7-2.6,0.7-3.6c5.7-4.3,11.2-8.9,17.2-12.9
	c3.1-2.1,4.6-5,6-8.1c0.9-2.1-0.7-3.9-3.3-4.1c-4.2-0.3-8.4-0.4-12.5-1.1c-2.1-0.3-4.5-1.3-6.1-2.6c-4.8-4-9.3-8.3-13.8-12.5
	c-0.4-0.4-0.5-1.4-0.4-2.1c1.9-12.5,8.8-21.7,19-28.8l0,0c1-0.7,0.7-2.2-0.4-2.5c-8.3-2.3-28.7,0.6-22.6-7.5
	c1.1-1.5,2.7-2.7,4.5-3.4c4.9-2.1,9.7-3.8,14.1-4.9c3.9-1,7.7-1.8,11.6-2.4c18.4-1.5,3.3,23.7,5.9,35.4c1,4.4,6.4,6.5,10.1,3.8
	c9.3-7-11-34.8,3.9-40.1c1.3-0.5,2.7-0.6,4-0.6c10.9,0.4,21.8,2.2,32.7,5.5c0.3,0.1,0.4,0.6,0.1,0.7l-0.6,0.3
	c-0.4,0.2-0.3,0.7,0.1,0.8c10.6,2.8,21.9,5.3,28.3,14.8c0.4,0.6,0,1.3-0.7,1.4l-15.1,0.9c-0.7,0-1.2,0.8-0.9,1.5
	c0.1,0.3,0.3,0.6,0.5,0.8c21.8,25.7-10.9,73.9,14.3,73.8c18,0.7-12.9-52.8,8.4-58.8c3.6-1,7.6-0.2,10.7,2c1.6,1.2,3.2,2.4,4.8,3.7
	c8.4,7,15.2,15.1,17.2,26.3c0.3,1.7,0.3,3.4,0.4,5.2C303.5,96.8,302.3,97.4,301.5,96.8z"/>
</svg>
