<?xml version="1.0" encoding="utf-8"?>
<!-- Generator: Adobe Illustrator 23.0.1, SVG Export Plug-In . SVG Version: 6.00 Build 0)  -->
<svg version="1.1"
	 id="svg2" inkscape:version="0.92.1 r15371" sodipodi:docname="Affinity_Designer.svg" xmlns:cc="http://creativecommons.org/ns#" xmlns:dc="http://purl.org/dc/elements/1.1/" xmlns:inkscape="http://www.inkscape.org/namespaces/inkscape" xmlns:rdf="http://www.w3.org/1999/02/22-rdf-syntax-ns#" xmlns:sodipodi="http://sodipodi.sourceforge.net/DTD/sodipodi-0.dtd" xmlns:svg="http://www.w3.org/2000/svg"
	 xmlns="http://www.w3.org/2000/svg" xmlns:xlink="http://www.w3.org/1999/xlink" x="0px" y="0px" viewBox="0 0 400 400"
	 style="enable-background:new 0 0 400 400;" xml:space="preserve">
<g>
	<path d="M367.7,246.7c1.7-2.9,1.7-6.6,0-9.5c-42.2-73-84.4-145.8-126.5-218.7c-1.7-2.9-4.8-4.7-8.2-4.7l-5.5,0
		c-3.4,0-6.5-1.8-8.2-4.7l-0.1-0.1c-1.7-2.9-4.8-4.7-8.2-4.7l-44,0c-3.4,0-6.5,1.8-8.2,4.7c-6.4,11.1-12.9,22.3-19.3,33.5
		c-1.7,2.9-1.7,6.5,0,9.5c1.9,3.2,3.7,6.4,5.5,9.6c1.7,2.9,1.7,6.5,0,9.5c-16.3,28.2-32.5,56.2-48.8,84.3c-0.5,0.9-2.4,2.1-2.4,2.1
		s-19.3,11.1-28.9,16.8c-1.5,0.9-2.8,2.2-3.7,3.7C54,190.1,46.8,202.6,39.6,215c-2.4,4.2-4.9,8.5-7.3,12.7c-1.7,2.9-1.7,6.6,0,9.5
		c7.4,12.8,14.8,25.6,22.1,38.2c1.7,2.9,4.7,4.8,8.1,4.7c3.4,0,6.6,1.8,8.3,4.7c0.9,1.6,1.9,3.2,2.8,4.8c1.7,2.9,4.8,4.7,8.2,4.7
		l108.8,0c5.1,0,10.2,0.6,15.1,2c44.5,12.5,1.9,62.9,27.9,63.9c21.9-5.9-21.3-43.1,22.8-62.5c5.1-2.2,10.5-3.4,16-3.4h37.4
		c6,0,11.7,3.3,14.3,8.8c11.7,24.9-16.6,90.7,7.7,92.6c23,1,5-44.1,5.4-80.6c0.1-10.6,3-21.1,8.4-30.3
		C352.9,272.2,360.3,259.5,367.7,246.7z M216.1,23.5c1.3-2.3,4.6-2.4,6-0.1c3.8,6.6,7.6,13.1,11.3,19.5c1.5,2.6,1.5,5.8,0,8.4
		c-6.9,11.9-13.8,23.8-20.7,35.8c-0.9,1.5-2.3,2.7-4,3C197,92.1,201.2,51,216.1,23.5z M193,130.3c9.8-17,19.7-34.1,29.6-51.3
		c1.4-2.4,3.3-4.5,5.6-6c20.2-13-10.7,63.8,11.8,62.9c23,0.1-14.4-86.9,11-59.2c3.4,3.7,6.4,7.9,8.9,12.2
		c17.1,29.7,34.2,59.3,51.4,89c1.7,3-0.4,6.8-3.9,6.8h-83c-1.6,0-3.1-0.9-3.9-2.2c-9.1-15.8-18.3-31.7-27.6-47.7
		C192.2,133.4,192.2,131.7,193,130.3z M192.9,143.8c6.7,11.5,13.2,22.8,19.8,34.2c1.7,3-0.4,6.7-3.8,6.7c-9.3,0.1-18.3,0.3-27.3-0.2
		c-8-0.4-13.1-9.5-9.8-16.9c2.2-5,5.2-9.6,7.9-14.4c1.8-3.1,3.6-6.2,5.5-9.5C186.8,140.8,191.2,140.8,192.9,143.8z M173.1,203.6
		c-0.7-0.2-1.3-0.8-1.7-1.5c-1.9-3.3-3.8-6.5-5.7-9.8c-0.7-1.2,0.2-2.8,1.6-2.8h6.8c2.4,0,4.5,1.7,4.8,4.1
		C179.5,198.3,176.6,204.8,173.1,203.6z M133.8,267.6c-8.7,1.9-17.6,2.7-26.5,2.7H80.7c-3.1,0-5.1-3.4-3.5-6.1
		c34.4-59.5,68.6-118.8,103-178.3c0.9-1.5,2.2-2.6,3.9-3c6.8-1.5,7.3,10.8,5.2,25.2c-2.5,17.4-8.6,34.1-17.4,49.4
		c-4.6,7.9-9.2,15.8-13.8,23.8c-1.4,2.3-1.4,5.2,0,7.5c3.6,6.3,7.3,12.6,10.9,18.9c4.3,7.5,6.4,16,5.7,24.6
		C173.1,251.6,158.5,262.3,133.8,267.6z M201.2,270.2h-28.6c-2.8,0-4.9-2.6-4.3-5.3c2-8.3,17.2-21.7,25.2-14.6
		c0.7,0.6,1.2,1.3,1.6,2.1l1.2,2.2c0,0,0,0,0,0c2.3,4,4.6,8,6.9,12C204.3,268.2,203.1,270.2,201.2,270.2z M196.5,241.8
		c-1.4,0-2.6-0.7-3.3-1.9c-0.9-1.6-1.8-3.2-2.8-4.8c-12.6-24-5.6-37.9,4.3-43.2c3-1.6,6.5-2.3,9.9-2.3h110.9c1.6,0,3.1,0.9,3.9,2.2
		c8.3,14.3,16.6,28.6,25,43.2c1.7,3-0.4,6.8-3.9,6.8L196.5,241.8z"/>
	<path d="M196.4,254.6C196.4,254.6,196.4,254.6,196.4,254.6C196.4,254.7,196.4,254.6,196.4,254.6z"/>
</g>
</svg>
