<?xml version="1.0" encoding="UTF-8" standalone="no"?>
<svg
   xmlns:dc="http://purl.org/dc/elements/1.1/"
   xmlns:cc="http://creativecommons.org/ns#"
   xmlns:rdf="http://www.w3.org/1999/02/22-rdf-syntax-ns#"
   xmlns:svg="http://www.w3.org/2000/svg"
   xmlns="http://www.w3.org/2000/svg"
   viewBox="0 0 533.33331 533.33331"
   height="533.33331"
   width="533.33331"
   xml:space="preserve"
   id="svg2"
   version="1.1"><metadata
     id="metadata8"><rdf:RDF><cc:Work
         rdf:about=""><dc:format>image/svg+xml</dc:format><dc:type
           rdf:resource="http://purl.org/dc/dcmitype/StillImage" /></cc:Work></rdf:RDF></metadata><defs
     id="defs6"><clipPath
       id="clipPath18"
       clipPathUnits="userSpaceOnUse"><path
         id="path16"
         d="M 0,400 H 400 V 0 H 0 Z" /></clipPath></defs><g
     transform="matrix(1.3333333,0,0,-1.3333333,0,533.33333)"
     id="g10"><g
       id="g12"><g
         clip-path="url(#clipPath18)"
         id="g14"><g
           transform="translate(248.3779,283.5649)"
           id="g20"><path
             id="path22"
             style="fill:#000000;fill-opacity:1;fill-rule:nonzero;stroke:none"
             d="m 0,0 c 0,2.381 -1.613,7.563 -2.489,11.329 -0.443,1.902 -1.257,2.296 -2.808,0.712 -5.199,-5.312 -10.453,-10.572 -15.771,-15.764 -1.394,-1.36 -1.189,-2.119 0.163,-3.372 2.842,-2.636 5.505,-5.468 8.193,-8.265 3.091,-3.215 4.812,-3.234 7.73,0.308 C -1.419,-10.727 0,-2.381 0,0 m 3.708,-99.562 c 0.539,3.034 -4.513,17.893 -10.213,24.181 -11.09,12.237 -23.372,23.393 -35.123,35.035 -8.994,8.911 -17.924,17.887 -26.903,26.812 -0.557,0.553 -1.183,1.569 -1.956,1.37 -0.773,-0.198 -0.651,-1.708 -0.603,-2.541 0.151,-2.595 0.663,-5.177 0.711,-7.77 0.105,-5.609 -3.125,-9.577 -7.957,-10.075 -4.498,-0.464 -7.977,2.57 -9.295,7.961 -1.366,5.586 0.423,10.739 1.857,16.003 0.952,3.497 1.768,7.105 1.993,10.704 0.192,3.065 -1.579,5.212 -4.781,6.223 -1.716,0.542 -3.336,1.729 -4.704,2.955 -2.464,2.21 -4.824,4.563 -7.002,7.054 -1.735,1.986 -2.865,1.951 -4.771,0.041 -26.671,-26.734 -53.416,-53.395 -80.189,-80.027 -1.473,-1.465 -1.32,-2.268 0.097,-3.657 9.627,-9.438 19.18,-18.953 28.727,-28.473 17.096,-17.052 34.204,-34.092 51.21,-51.234 1.978,-1.994 3.071,-2.043 5.047,-0.011 7.838,8.064 15.808,16.003 23.853,23.86 1.832,1.789 1.117,3.119 -0.165,4.401 -1.281,1.281 -0.978,1.02 -1.497,1.501 -7.272,6.736 -14.416,13.62 -21.903,20.107 -2.423,2.099 -5.628,3.497 -8.698,4.592 -3.453,1.23 -4.958,-0.157 -4.662,-3.811 0.21,-2.587 0.925,-5.138 1.069,-7.724 0.377,-6.757 -5.71,-11.338 -11.835,-8.468 -2.629,1.231 -5.383,3.917 -6.339,6.569 -1.218,3.376 -1.061,9.37 -0.83,11.128 0.232,1.757 0.432,2.578 0.9,3.78 2.977,7.661 2.704,15.312 -0.175,22.88 -1.429,3.758 -0.835,6.441 2.286,9.299 6.542,5.99 12.643,12.463 18.924,18.738 3.593,3.59 5.485,2.422 7.05,0.857 1.565,-1.565 0.853,-0.843 2.813,-2.802 0,0 14.484,-14.462 21.696,-21.725 9.112,-9.176 18.261,-18.316 27.46,-27.404 8.304,-8.203 16.669,-16.343 25.061,-24.454 3.16,-3.055 5.12,-5.984 3.717,-10.982 -1.535,-5.469 -0.442,-11.075 3.275,-15.788 1.455,-1.845 2.865,-2.591 4.773,-0.29 1.807,2.177 4.059,3.979 5.959,6.086 1.289,1.429 2.149,1.284 3.399,-0.055 2.503,-2.681 5.307,-5.09 7.716,-7.847 1.885,-2.157 3.048,-2.313 5.223,-0.125 26.367,26.533 52.817,52.984 79.358,79.344 2.058,2.043 1.488,2.902 -0.192,4.573 C 70.715,-41.488 53.415,-24.13 36.093,-6.795 29.565,-0.264 22.989,6.22 16.53,12.819 14.907,14.477 13.892,14.542 12.952,12.359 11.971,10.08 10.689,7.884 10.042,5.515 4.83,-13.554 8.188,-31.137 20.086,-46.838 c 4.03,-5.319 9.051,-9.902 13.753,-14.689 1.439,-1.465 1.497,-2.342 -0.031,-3.719 -2.719,-2.452 -5.358,-5.007 -7.872,-7.669 -4.072,-4.308 -9.324,-7.924 -9.365,-14.781 -0.017,-2.95 -0.229,-5.949 0.212,-8.84 0.657,-4.313 2.08,-8.515 2.665,-12.834 0.386,-2.848 0.392,-5.959 -0.35,-8.703 -1.368,-5.049 -6.295,-7.936 -10.879,-7.044 -4.646,0.906 -8.157,5.286 -7.883,10.407 0.137,2.556 1.007,5.078 1.584,7.607 0.628,2.752 1.248,4.508 1.788,7.541 M -8.01,-222.656 c 0.759,5.93 1.722,6.266 2.533,10.421 0.901,4.613 1.956,9.282 2.057,13.945 0.146,6.68 -2.682,12.22 -7.726,16.857 -6.433,5.915 -12.373,12.365 -18.722,18.377 -2.333,2.208 -2.148,4.107 -1.17,6.864 1.282,3.612 2.61,7.537 2.415,11.248 -0.173,3.285 -2.229,6.55 -3.791,9.653 -0.998,1.983 -2.431,1.97 -4.172,0.216 -16.991,-17.115 -34.064,-34.147 -51.116,-51.201 -4.267,-4.267 -8.603,-8.47 -12.78,-12.824 -1.68,-1.752 -2.642,-1.814 -4.476,0.041 -17.197,17.383 -34.479,34.68 -51.82,51.919 -26.906,26.748 -53.878,53.428 -80.815,80.143 -3.614,3.584 -3.612,3.622 -0.082,7.112 18.898,18.682 37.862,37.298 56.696,56.044 25.24,25.123 50.408,50.318 75.519,75.569 2.109,2.121 3.209,2.472 5.506,0.112 10.819,-11.109 21.789,-22.074 32.893,-32.899 2.417,-2.355 3.295,-4.409 2.238,-7.704 -1.406,-4.379 -0.837,-8.726 2.091,-12.448 3.178,-4.042 6.293,-4.167 9.879,-0.581 18.582,18.584 37.195,37.139 55.698,55.802 2.295,2.314 3.647,2.673 6.18,0.123 25.692,-25.863 51.502,-51.607 77.319,-77.345 18.574,-18.518 37.176,-37.009 55.863,-55.413 1.99,-1.959 1.641,-2.898 -0.144,-4.678 -39.229,-39.121 -78.456,-78.246 -117.532,-117.521 -10.338,-10.39 -12.238,-23.259 -9.121,-37.106 0.879,-3.907 2.611,-7.637 3.349,-11.561 1.763,-9.373 -6.155,-15.895 -15.182,-12.731 -6.909,2.423 -12.346,13.637 -11.587,19.566" /></g></g></g></g></svg>