<?xml version="1.0" encoding="utf-8"?>
<!-- Generator: Adobe Illustrator 23.0.6, SVG Export Plug-In . SVG Version: 6.00 Build 0)  -->
<svg version="1.1"
	 id="svg8" xmlns:cc="http://creativecommons.org/ns#" xmlns:dc="http://purl.org/dc/elements/1.1/" xmlns:inkscape="http://www.inkscape.org/namespaces/inkscape" xmlns:rdf="http://www.w3.org/1999/02/22-rdf-syntax-ns#" xmlns:sodipodi="http://sodipodi.sourceforge.net/DTD/sodipodi-0.dtd" xmlns:svg="http://www.w3.org/2000/svg"
	 xmlns="http://www.w3.org/2000/svg" xmlns:xlink="http://www.w3.org/1999/xlink" x="0px" y="0px" viewBox="0 0 400 400"
	 style="enable-background:new 0 0 400 400;" xml:space="preserve">
<path d="M180.7,59.4c0,1.4,0.7,2.7,2,3.3c9.4,4.7,12.6,24.1,12.8,38.3l0,0c0,2,1.6,3.6,3.6,3.6h23.7c1,0,1.9-0.8,1.9-1.9v-14
	c0-1-0.8-1.9-1.9-1.9h-1.9c-1,0-1.9-0.8-1.9-1.9V57c0-1,0.8-1.9,1.9-1.9l0,0c1,0,1.9,0.8,1.9,1.9v3.1c0,1,0.8,1.9,1.9,1.9h12.9
	c1,0,1.9-0.8,1.9-1.9V40.3c0-1-0.8-1.9-1.9-1.9h-55c-1,0-1.9,0.8-1.9,1.9V59.4z M197.4,62L197.4,62l0-5c0-1,0.8-1.9,1.9-1.9h0
	c1,0,1.9,0.8,1.9,1.9v12.4C200.3,77.4,197.3,64,197.4,62z"/>
<path d="M243,170.4L243,170.4c0.3,9.3,5.3,9.2,11.2,9c7.6-0.1,12-2.4,15.9-0.9c0.2,0.1,0.4-0.1,0.3-0.3c-0.4-0.9-1.7-2.5-4.5-2.8
	c-1-0.1-1.7-1-1.5-2c0.2-1.1,0.2-2.3,0.1-3.8c-0.7-9.3-6.1-16.7-12.1-16.5C246.5,153.4,242.7,161.1,243,170.4z M248.9,161.6
	c0.2-1.5,1.5-2.5,3-2.5l0,0c1.6-0.1,3,1.2,3,2.8l0,0.2c0,1.7-1.3,3.1-3,3.1C250.1,165.2,248.6,163.5,248.9,161.6z"/>
<path d="M161.6,181.2c0.6,0,1.3,0,1.9,0c0.6,0,1.1,0,1.7,0c5.9-0.1,10.9,0.5,10.8-8.8c-0.1-9.3-4.2-16.9-10.2-16.8
	c-5.9,0.1-11.7,7.7-11.3,17c0.1,1.4,0.2,2.5,0.4,3.5c0.2,1.1-0.4,2.2-1.4,2.6c-1.4,0.6-2.5,1.3-3.2,2c-0.5,0.5,0,1.3,0.6,1.1
	C153.9,181,157.1,181.1,161.6,181.2z M166.6,161.3l0.2,0v0c1.7-0.1,3.1,1.3,3.1,2.9c0,1.9-1.6,3.4-3.5,3.1c-1.5-0.2-2.5-1.6-2.6-3.1
	l0,0C163.8,162.7,165,161.4,166.6,161.3z"/>
<path d="M337.1,107.4L337.1,107.4c-0.1-2-0.3-4-0.6-6c-0.1-1-0.3-2-0.5-3c-0.1-0.6-0.3-1.5-0.5-2.3c-0.3-1-0.9-1.9-1.7-2.6
	c-2.9-2.1-6.3-4.1-9.3-5.5c-1.7-0.8-3.5-1.6-5.2-2.3c-2.2-0.9-4-2.6-4.8-4.9c-8.4-21.4-22-40.3-39.6-53.6
	C255.7,12.7,233.1,5,209.6,5c-23.5,0-46.1,7.7-65.3,22.3c-14.6,11.1-26.5,26-34.9,43h0c-2,4-3.8,8.1-5.4,12.3
	c-0.4,1.2-1.4,2.1-2.6,2.6C99.1,86,96.8,87,94.5,88c-3.3,1.6-6.4,3.3-9.4,5.6c-0.4,0.3-0.8,0.7-1.1,1.2c-0.2,0.4-0.4,0.8-0.5,1.2
	c-0.2,0.8-0.4,1.6-0.6,2.5c-0.2,1-0.4,2-0.5,3c-0.2,1.4-0.3,2.9-0.5,4.3h0c-0.1,0.6-0.1,1.1-0.1,1.7c-0.2,4-0.1,8.1,0.4,12.1
	c0.4,4,1.2,8,2.2,11.9c0.6,2,1.2,3.9,2,5.8c0.3,0.7,1.7,3.4,2.6,5.1c0.4,0.9,1.2,1.6,2.1,2l2.7,1.2c0.6,0.3,0.7,1,0.2,1.5
	c-7.9,7.4-16.3,16.9-23.7,28.5l-7.4,11.6c-0.6,1,0.4,2.1,1.4,1.7c24-9.6-9.9,68.6,13.3,71.5c27.3-0.9-21.3-45.7,12.8-91.2
	c2.6-3.5,5.9-6.4,9.6-8.7c0.9-0.6,1.9-1.2,2.9-1.7c0.9-0.5,2,0,2.2,1.1l0.7,5.5l3.5,28.3c0.1,0.5,0.4,1,0.8,1.3l5.6,3.9
	c1,0.7,1.6,1.8,1.7,3c1.1,11.9-2.4,19.4-9.4,21.6c-2.1,0.7-2.9,3.2-1.7,5l2.6,4c0.4,0.6,9.7,15.1,17.3,24.9
	c7.1,9.1,16.8,18.4,35.2,18.4c2.3,0,4.6-0.1,6.9-0.4c2.2-0.3,4.2-0.5,6-0.7c4.2-0.5,8.5-0.1,12.6,1.1c17.7,5.2,36.7,4.8,54.8-2
	c4.7-1.8,9.4-4,13.7-6.5c1.3-0.7,2.7-1.2,4.1-1.5c43.7-6.2,0.8,87.6,34.3,89.6c29.2-0.7-17.4-42.9,7.1-109.8
	c5.3-10.5,13.3-25.7,13.4-25.9l0.3-0.5c1.2-2.3-1.1-4.9-3.5-3.8l-0.5,0.2c-0.4,0.2-8.3,3.6-13.7,6.3c-0.8,0.4-1.6-0.4-1.2-1.2
	c3.4-7.4,5.2-13.2,5.9-15.6l2.3-9.4c0.4-1.5,0.8-2.9,1.5-4.3l5.4-12.1c1.2-2.7,2-5.5,2.3-8.4c0.7-5.8,1.8-15.5,1.8-15.5l0.6-6.1
	c0.1-0.9,0.8-1.6,1.7-1.7c1.3-0.2,3-0.3,4.4-0.7c1.3-0.3,2.4-0.9,3.6-1.5l1.8-0.8c0.3-0.2,0.8-0.4,1.3-0.6c0.8-0.4,1.5-1.1,2-1.8
	c0-0.1,0.1-0.1,0.1-0.2l0.4-0.7c0.3-0.5,0.5-1,0.7-1.4c0.4-0.9,0.9-1.9,1.2-2.9c0.7-1.9,1.4-3.8,1.9-5.8c1.1-3.9,1.8-7.9,2.2-11.9
	C337.3,115.5,337.4,111.4,337.1,107.4z M295.1,63.5c2.4,4.3,4.6,8.9,6.6,13.7c0.5,1.2-0.6,2.4-1.8,2.1c-4-1-8.2-1.9-12.4-2.7
	C272.2,72.9,286.9,53.7,295.1,63.5z M132.5,236.8c-2.6-1.1-6.7-2.6-10.3-4.2c-1.4-0.6-2.6-1.7-3.3-3c-2.3-4.7,3-9.1,7.5-4.8
	c0.5,0.5,0.9,1.1,1.2,1.7c1.8,3.3,3.6,6.4,5.7,9.4C133.6,236.3,133.1,237,132.5,236.8z M144,161.7l8-5.3c0.2-0.1,6.3-4.2,16.6-9.3
	c1.8-0.9,3.8-1.5,5.8-1.6c12-0.8,23.9-1.3,35.9-1.3c2.4,0,4.7,0,7.1,0.1c1,0,1.4,1.3,0.6,1.9c-1.6,1.2-3.2,2.3-4.9,3.3l-5,3
	c-2.1,1.3-4.4,2.1-6.8,2.6c-3.7,0.7-6.5,1.5-6.7,1.5c-0.2,0-0.3,0.1-0.4,0.2c-0.4,0.2-0.7,0.6-0.9,1.1l-6,19.7
	c-1.6,5.3-6,9.4-11.4,10.6l-30.5,6.8c-4.2,0.9-8.7,0.1-12.2-2.4l-3.3-2.3c-3.6-2.5-5.9-6.4-6.5-10.7l-2.9-23.6
	c-0.3-2.1,1.1-3.9,3.2-4.3c7-1.2,15.6-2.5,25.5-3.7c1.2-0.1,1.9,1.2,1.2,2.1c-0.7,0.9-1.4,1.9-2.1,2.8l-5.5,7.9
	C142.4,161.3,143.3,162.2,144,161.7z M239.1,269.5c-9.5,3.5-18.3,4.9-25.3,5.4c-6.5,0.4-13-0.2-19.5-1.6c-0.8-0.2-0.8-1.3,0-1.5
	c4.4-1,12.1-3.4,16.9-8.5c1.2-1.3,2.9-2.1,4.6-2.3c1.7-0.2,3.9-0.4,5.7-0.5c1.9-0.2,3.7,0.4,5.2,1.6c3.6,2.9,7.9,5.1,12.3,6
	C239.8,268.2,239.8,269.2,239.1,269.5z M215,257.4c0.8-1.7,1.4-3.2,1.9-4.4c0.2-0.4,0.6-0.4,0.9-0.1c1.2,1.3,2.4,2.6,3.6,3.9
	c0.3,0.3,0.1,0.9-0.3,0.9l-5.5,0.5C215.1,258.3,214.8,257.8,215,257.4z M298.3,200.2c-0.1,0.4-0.2,0.8-0.3,1.2
	c-0.5,1.7-1.1,3.4-1.7,5.1c-2,5.7-4.2,11-6.6,15.8c-0.7,1.3-2,2.2-3.5,2.2h0c-2.7,0-5.5-0.2-8.6-0.5c-4.1-0.4-9.9-1-13.7-1.5
	c-1.8-0.2-3.6-0.9-5-2.1c-3.5-2.7-9.4-7.5-14.6-11.5c-0.3-0.2-0.5-0.4-0.7-0.6c-1.2-1-2.5-2.1-5.1-2.1c-2.1,0-5.1,0.7-11.5,2.6
	c-0.7,0.2-1.3-0.6-0.8-1.2c0.9-1.1,1.4-2.2,1.7-3.1c0.3-0.8-0.6-1.5-1.3-1c-2.6,1.8-7.7,4.9-14.7,5.8c-7.1,0.9-13.2-1.9-16.2-3.6
	c-0.7-0.4-1.5,0.3-1.2,1.1c0.3,0.6,0.6,1.2,1.1,1.9c0.4,0.5,0,1.3-0.7,1.2c-2.2-0.2-4.4-0.3-6.8-0.3c-1.1,0-2.2,0-3.3,0.1
	c-5.9,0.3-14,8.7-20.1,17.6c-0.8,1.2-2,2.1-3.4,2.5c-3.9,1.2-10.8,3.4-18.9,5.8c-1.6,0.5-3.2-0.1-4.2-1.5
	c-5.7-8.3-9.6-16.4-11.8-21.8c-1.1-2.6-2.2-5.5-2.7-7.1c-0.1-0.3,0.3-0.6,0.5-0.4l1.8,1.2l6.5,4.6l2.2,1.5c0.3,0.2,0.7,0.3,1.1,0.3
	c0.1,0,0.3,0,0.4,0l55.9-12.5l4.1-0.9c0.7-0.2,1.2-0.7,1.4-1.3l7.9-25.9c0.4-1.4,1.7-2.4,3.1-2.5c0.5,0,1-0.1,1.5-0.1
	c0.4,0,0.9,0,1.5,0.1c1.5,0.1,2.7,1.1,3.1,2.5l8.1,26.8c0.2,0.7,0.9,1.3,1.6,1.4l3.3,0.4l0.8,0.1l56.4,6.4c0.5,0.1,0.9-0.1,1.3-0.3
	l5.7-4l4.8-3.4C297.4,198.4,298.5,199.2,298.3,200.2z M230.9,161.4c0.7-6.2,5.1-11.3,11-13c1.8-0.5,3.6-1.1,5.5-1.7
	c2-0.6,4-0.9,6.1-0.7c11.8,1,22.4,2.3,31.3,3.6c8.4,1.2,14.2,9,13,17.4l-1.1,7.4c-0.6,4.2-2.9,8-6.4,10.5l-4.3,3
	c-3.1,2.2-6.8,3.1-10.6,2.7l-30-3.4c-6.1-0.7-11.2-5-13-10.8C231,170.6,230.5,165.6,230.9,161.4z M327.4,118.8
	c-0.4,2.9-1.5,7.9-2,10c-0.1,0.6-0.6,1.1-1.2,1.2l0,0c-0.2,0-0.4,0-0.6,0c-1.4-0.4-6.7-1.8-16.8-3.6c-2.8-0.3,1.4-0.8,1.7-0.9
	c1.8-0.4,1.8-0.5,3.5-1.2c0.9-0.3,1.7-0.7,2.5-1.2c1.1-0.6,2.8-1.5,3.9-2.3c0.2-0.2,0.1-0.5-0.2-0.4c-11.5,3.1-33.6,1.5-53.3-0.5
	c-18.7-1.9-37.4-3.2-56.2-3.2c-18.8,0-37.5,1.3-56.2,3.2c-19.2,2-40.6,3.6-52.4,0.7c-0.4-0.1-0.7,0.5-0.3,0.7
	c0.7,0.4,1.4,0.8,2.1,1.2c1.6,0.9,3.2,1.6,5,2.2c1,0.3,2.1,0.6,3.3,0.9c0.8,0.2,4,0.6,1.6,0.9c-10.1,1.9-14.6,3.2-15.2,3.4
	c0,0-2.3,0.4-2.8-1.4c-1-3.6-1.7-6.1-2.2-9.8c-0.5-3.7-0.7-7.5-0.7-11.2c0-0.6,0-1.8,0-1.8c0-1.3,0.1-2.5,0.2-3.8
	c0.1-0.9,3.5-3.9,6.4-5.6c3.2-1.8,6.5-3.5,9.9-5.1c3.4-1.6,14.3-3.9,20.8-5.1c6.6-1.2,30.1-4.3,31.8-5c1.1-0.4,5.6-3.7,9.2-6.3
	c1-0.7,0.4-2.2-0.8-2.1c-11.8,1.8-39.1,6-48.8,7.7c-1.5,0.3-2.7-1.3-2.1-2.7c17.1-41.5,49.4-61.7,92-61.7c24.2,0,45.1,6.2,61.8,19.1
	c5.1,3.9,8.5,9.7,9.2,16.1c1.6,15.2-14.1,18-30.4,19.2c-1.1,0.1-1.4,1.5-0.5,2.1c3.7,2.3,9.2,5.9,10.5,6.1c15.3,2,39.4,7.3,41.2,8
	c3.5,1.4,6.9,2.9,10.3,4.4c3.4,1.5,6.7,3.2,9.9,5.1c2.9,1.7,6.3,4.7,6.4,5.6c0.2,1.9,0.2,3.7,0.3,5.6
	C328.2,111.3,327.9,115,327.4,118.8z"/>
</svg>
