<?xml version="1.0" encoding="utf-8"?>
<!-- Generator: Adobe Illustrator 23.0.6, SVG Export Plug-In . SVG Version: 6.00 Build 0)  -->
<svg version="1.1"
	 id="svg8" xmlns:cc="http://creativecommons.org/ns#" xmlns:dc="http://purl.org/dc/elements/1.1/" xmlns:inkscape="http://www.inkscape.org/namespaces/inkscape" xmlns:rdf="http://www.w3.org/1999/02/22-rdf-syntax-ns#" xmlns:sodipodi="http://sodipodi.sourceforge.net/DTD/sodipodi-0.dtd" xmlns:svg="http://www.w3.org/2000/svg"
	 xmlns="http://www.w3.org/2000/svg" xmlns:xlink="http://www.w3.org/1999/xlink" x="0px" y="0px" viewBox="0 0 400 400"
	 style="enable-background:new 0 0 400 400;" xml:space="preserve">
<sodipodi:namedview  bordercolor="#666666" borderopacity="1" fit-margin-bottom="1000" fit-margin-left="500" fit-margin-right="500" fit-margin-top="200" gridtolerance="10" guidetolerance="10" id="namedview10" inkscape:current-layer="svg8" inkscape:cx="1729.7419" inkscape:cy="2344.0561" inkscape:pageopacity="0" inkscape:pageshadow="2" inkscape:window-height="1017" inkscape:window-maximized="1" inkscape:window-width="1920" inkscape:window-x="1912" inkscape:window-y="-8" inkscape:zoom="0.19101578" objecttolerance="10" pagecolor="#ffffff" showgrid="false">
	</sodipodi:namedview>
<g>
	<path d="M179.6,65.1c0,1.5,0.8,3,2.2,3.7c10.5,5.3,14,26.9,14.3,42.8v0c0,2.2,1.8,4,4,4h26.5c1.2,0,2.1-0.9,2.1-2.1V97.9
		c0-1.2-0.9-2.1-2.1-2.1h-2.1c-1.2,0-2.1-0.9-2.1-2.1V62.4c0-1.2,0.9-2.1,2.1-2.1l0,0c1.2,0,2.1,0.9,2.1,2.1v3.5
		c0,1.2,0.9,2.1,2.1,2.1h14.4c1.2,0,2.1-0.9,2.1-2.1V43.7c0-1.2-0.9-2.1-2.1-2.1h-61.4c-1.2,0-2.1,0.9-2.1,2.1V65.1z M198.3,67.9
		L198.3,67.9l0-5.6c0-1.2,0.9-2.1,2.1-2.1l0,0c1.2,0,2.1,0.9,2.1,2.1v13.8C201.5,85.1,198.1,70.2,198.3,67.9z"/>
	<path d="M249.2,189.1L249.2,189.1c0.4,10.4,5.9,10.3,12.6,10.1c8.5-0.2,13.4-2.7,17.7-1c0.2,0.1,0.4-0.1,0.3-0.3
		c-0.5-1-1.9-2.8-5-3.2c-1.1-0.1-1.9-1.2-1.7-2.3c0.2-1.2,0.2-2.6,0.1-4.2c-0.8-10.4-6.9-18.7-13.5-18.4
		C253.1,170,248.9,178.7,249.2,189.1z M255.8,179.3c0.2-1.6,1.7-2.8,3.4-2.8l0,0c1.8-0.1,3.3,1.3,3.3,3.1l0,0.2
		c0,1.9-1.4,3.4-3.3,3.5C257.2,183.2,255.5,181.4,255.8,179.3z"/>
	<path d="M158.3,201.1c0.7,0,1.4,0,2.1,0c0.6,0,1.3,0,2,0c6.6-0.1,12.2,0.6,12.1-9.9c-0.1-10.4-4.7-18.8-11.4-18.8
		c-6.6,0.1-13,8.6-12.7,19c0.1,1.5,0.2,2.8,0.5,3.9c0.3,1.2-0.4,2.4-1.5,2.9c-1.6,0.7-2.7,1.5-3.5,2.3c-0.6,0.5,0,1.5,0.7,1.3
		C149.6,200.9,153.3,201.1,158.3,201.1z M163.8,178.9l0.2,0v0c1.9-0.1,3.4,1.4,3.5,3.3c0,2.1-1.8,3.8-3.9,3.4
		c-1.6-0.2-2.8-1.8-2.9-3.4l0,0C160.7,180.5,162.1,179,163.8,178.9z"/>
	<g>
		<path d="M354.4,118.7L354.4,118.7c-0.1-2.2-0.3-4.5-0.6-6.7c-0.2-1.1-0.3-2.2-0.6-3.3c-0.1-0.7-0.3-1.6-0.6-2.6
			c-0.3-1.1-1-2.2-1.9-2.9c-3.3-2.4-7-4.5-10.4-6.1c-1.9-0.9-3.9-1.7-5.8-2.5c-2.5-1-4.4-2.9-5.4-5.4c-9.4-23.9-24.6-45-44.3-59.9
			c-21.4-16.3-46.7-24.9-72.9-24.9c-26.3,0-51.5,8.6-73,24.9c-16.3,12.4-29.6,29-39,48h0c-2.2,4.5-4.2,9.1-6,13.7
			c-0.5,1.3-1.5,2.4-2.9,2.9c-2.6,1-5.1,2.1-7.7,3.3c-3.6,1.7-7.2,3.7-10.5,6.2c-0.5,0.4-0.9,0.8-1.2,1.3c-0.3,0.4-0.5,0.8-0.6,1.3
			c-0.2,0.9-0.4,1.8-0.6,2.7c-0.2,1.1-0.4,2.2-0.5,3.3c-0.2,1.6-0.4,3.2-0.5,4.8h0.1c-0.1,0.6-0.1,1.3-0.1,1.9
			c-0.2,4.5-0.1,9,0.4,13.5c0.5,4.5,1.3,8.9,2.5,13.3c0.6,2.2,1.3,4.4,2.2,6.5c0.3,0.8,1.9,3.8,2.9,5.7c0.5,1,1.3,1.8,2.3,2.2l3,1.4
			c0.7,0.3,0.8,1.2,0.3,1.7c-8.8,8.3-18.3,18.9-26.5,31.8l-8.2,13c-0.7,1.1,0.4,2.4,1.6,1.9c26.9-10.7-11.1,76.7,14.9,79.9
			c30.5-1-23.8-51.1,14.3-101.9c2.9-3.9,6.6-7.2,10.7-9.7c1-0.6,2.1-1.3,3.2-2c1-0.6,2.3,0,2.4,1.2l0.8,6.2l3.9,31.6
			c0.1,0.6,0.4,1.1,0.9,1.5l6.3,4.4c1.1,0.8,1.8,2,2,3.4c1.3,13.3-2.6,21.6-10.5,24.1c-2.3,0.7-3.3,3.6-1.9,5.6l2.9,4.5
			c0.4,0.7,10.8,16.9,19.3,27.8c7.9,10.2,18.8,20.6,39.3,20.6c2.6,0,5.1-0.2,7.7-0.4c2.5-0.3,4.7-0.5,6.7-0.8
			c4.7-0.6,9.5-0.1,14,1.2c19.7,5.8,41,5.4,61.2-2.3c5.2-2,10.5-4.4,15.3-7.3c1.4-0.8,3-1.4,4.6-1.6c48.8-7,0.8,97.8,38.4,100.1
			c32.6-0.8-19.4-47.9,8-122.6c5.9-11.7,14.9-28.7,15-28.9l0.3-0.6c1.4-2.6-1.3-5.4-3.9-4.3l-0.6,0.3c-0.4,0.2-9.2,4.1-15.3,7
			c-0.8,0.4-1.7-0.5-1.3-1.3c3.8-8.3,5.8-14.7,6.6-17.4l2.5-10.5c0.4-1.6,0.9-3.2,1.6-4.8l6-13.5c1.3-3,2.2-6.1,2.6-9.3
			c0.8-6.5,2-17.3,2-17.3l0.7-6.9c0.1-1,0.9-1.8,1.9-1.9c1.4-0.2,3.4-0.4,4.9-0.7c1.4-0.4,2.7-1.1,4.1-1.6l2-0.9
			c0.4-0.2,0.9-0.4,1.4-0.7c0.9-0.5,1.7-1.2,2.2-2.1c0.1-0.1,0.1-0.2,0.1-0.2l0.4-0.8c0.3-0.5,0.6-1.1,0.8-1.6
			c0.5-1.1,1-2.1,1.4-3.2c0.8-2.1,1.5-4.3,2.2-6.5c1.2-4.4,2-8.8,2.5-13.3C354.5,127.7,354.6,123.2,354.4,118.7z M307.5,69.7
			c2.7,4.8,5.2,9.9,7.4,15.4c0.5,1.3-0.6,2.7-2,2.3c-4.4-1.1-9.1-2.1-13.8-3C281.9,80.1,298.2,58.7,307.5,69.7z M125.7,263.2
			c-3-1.2-7.5-2.9-11.6-4.7c-1.6-0.7-3-1.9-3.7-3.4c-2.6-5.3,3.3-10.2,8.4-5.4c0.6,0.5,1,1.2,1.4,1.9c2,3.7,4.1,7.2,6.3,10.5
			C127,262.7,126.4,263.5,125.7,263.2z M138.6,179.3l8.9-5.9c0.2-0.1,7.1-4.6,18.5-10.4c2-1,4.3-1.6,6.5-1.8
			c13.4-0.9,26.8-1.4,40.1-1.4c2.7,0,5.3,0,7.9,0.1c1.1,0,1.6,1.5,0.7,2.1c-1.8,1.3-3.6,2.5-5.5,3.7l-5.6,3.4
			c-2.3,1.4-4.9,2.4-7.6,2.9c-4.1,0.7-7.3,1.6-7.5,1.7c-0.2,0-0.3,0.1-0.5,0.2c-0.5,0.3-0.8,0.7-1,1.2l-6.7,22
			c-1.8,6-6.7,10.5-12.8,11.8l-34,7.6c-4.7,1-9.7,0.1-13.6-2.7l-3.7-2.6c-4-2.8-6.6-7.2-7.2-12l-3.3-26.4c-0.3-2.3,1.3-4.4,3.6-4.8
			c7.8-1.4,17.4-2.8,28.5-4.1c1.3-0.2,2.2,1.3,1.3,2.4c-0.8,1-1.6,2.1-2.3,3.1l-6.1,8.8C136.8,178.9,137.8,179.9,138.6,179.3z
			 M244.9,299.8c-10.6,3.9-20.4,5.5-28.2,6c-7.2,0.5-14.5-0.2-21.7-1.8c-0.9-0.2-0.9-1.4,0-1.6c4.9-1.1,13.5-3.8,18.8-9.4
			c1.4-1.5,3.2-2.4,5.2-2.6c2-0.2,4.4-0.4,6.3-0.6c2.1-0.2,4.2,0.4,5.8,1.7c4,3.2,8.8,5.7,13.7,6.7
			C245.6,298.3,245.7,299.5,244.9,299.8z M217.9,286.3c0.9-1.9,1.6-3.6,2.2-4.9c0.2-0.4,0.7-0.5,1-0.2c1.3,1.5,2.7,2.9,4,4.3
			c0.4,0.4,0.1,1-0.4,1l-6.2,0.6C218,287.2,217.7,286.7,217.9,286.3z M311,222.3c-0.1,0.4-0.2,0.9-0.4,1.3c-0.6,1.9-1.2,3.8-1.9,5.7
			c-2.3,6.4-4.7,12.3-7.4,17.7c-0.7,1.5-2.3,2.5-3.9,2.5h0c-3.1,0-6.2-0.2-9.6-0.6c-4.5-0.4-11.1-1.1-15.3-1.6c-2-0.2-4-1-5.6-2.3
			c-3.9-3.1-10.5-8.4-16.3-12.9c-0.3-0.2-0.5-0.5-0.8-0.7c-1.3-1.1-2.8-2.3-5.7-2.3c-2.4,0-5.7,0.7-12.8,2.9
			c-0.8,0.2-1.4-0.7-0.9-1.4c1-1.2,1.6-2.4,1.9-3.4c0.3-0.9-0.7-1.6-1.4-1.1c-2.9,2-8.7,5.5-16.5,6.4c-8,1-14.8-2.1-18.1-4.1
			c-0.8-0.5-1.7,0.3-1.3,1.2c0.3,0.7,0.7,1.4,1.2,2.1c0.4,0.6-0.1,1.4-0.8,1.3c-2.4-0.2-4.9-0.4-7.6-0.4c-1.2,0-2.5,0-3.7,0.1
			c-6.6,0.4-15.6,9.7-22.5,19.6c-0.9,1.3-2.2,2.3-3.8,2.8c-4.3,1.4-12.1,3.8-21.1,6.5c-1.7,0.5-3.6-0.2-4.6-1.7
			c-6.3-9.2-10.7-18.3-13.2-24.3c-1.2-2.9-2.4-6.2-3-7.9c-0.1-0.4,0.3-0.7,0.6-0.4l2,1.4l7.3,5.1l2.4,1.7c0.4,0.3,0.8,0.4,1.2,0.4
			c0.2,0,0.3,0,0.5,0l62.5-13.9l4.6-1c0.8-0.2,1.4-0.7,1.6-1.5l8.8-29c0.5-1.6,1.9-2.7,3.5-2.8c0.6,0,1.1-0.1,1.6-0.1
			c0.5,0,1,0,1.6,0.1c1.6,0.1,3,1.2,3.5,2.8l9.1,29.9c0.3,0.8,1,1.4,1.8,1.5l3.7,0.4l0.9,0.1l63,7.2c0.5,0.1,1-0.1,1.5-0.4l6.3-4.4
			l5.4-3.8C310,220.4,311.3,221.2,311,222.3z M235.7,179c0.7-6.9,5.7-12.6,12.3-14.5c2-0.6,4-1.2,6.1-1.9c2.2-0.7,4.5-1,6.8-0.8
			c13.2,1.1,25,2.5,34.9,4c9.4,1.4,15.9,10.1,14.5,19.5l-1.2,8.3c-0.7,4.7-3.3,9-7.2,11.7l-4.8,3.4c-3.4,2.4-7.6,3.5-11.8,3
			l-33.5-3.8c-6.8-0.8-12.5-5.5-14.5-12.1C235.9,189.3,235.2,183.7,235.7,179z M343.5,131.4c-0.4,3.2-1.7,8.8-2.2,11.2
			c-0.2,0.7-0.7,1.2-1.4,1.3l0,0c-0.2,0-0.5,0-0.7,0c-1.6-0.4-7.5-2-18.8-4c-3.1-0.3,1.6-0.9,1.9-1c2-0.5,2-0.6,3.9-1.3
			c1-0.4,1.9-0.8,2.8-1.3c1.3-0.7,3.1-1.7,4.3-2.5c0.3-0.2,0.1-0.6-0.2-0.5c-12.9,3.5-37.5,1.7-59.5-0.6
			c-20.8-2.2-41.8-3.5-62.8-3.6c-21,0-41.9,1.4-62.8,3.6c-21.4,2.2-45.4,4-58.5,0.8c-0.5-0.1-0.8,0.5-0.3,0.8
			c0.7,0.5,1.6,0.9,2.4,1.4c1.8,1,3.6,1.8,5.6,2.5c1.1,0.4,2.3,0.7,3.6,1c0.9,0.2,4.5,0.7,1.8,1c-11.3,2.1-16.3,3.5-17,3.7
			c0,0-2.6,0.4-3.2-1.6c-1.1-4-1.9-6.8-2.5-11c-0.5-4.2-0.8-8.3-0.8-12.5c0-0.7,0-2.1,0-2.1c0-1.4,0.1-2.8,0.2-4.2
			c0.1-1,3.9-4.4,7.2-6.3c3.5-2.1,7.3-3.9,11.1-5.6c3.8-1.8,15.9-4.4,23.3-5.7c7.3-1.3,33.6-4.8,35.6-5.6c1.2-0.5,6.3-4.2,10.3-7
			c1.1-0.8,0.4-2.5-0.9-2.3c-13.2,2-43.6,6.7-54.5,8.6c-1.7,0.3-3.1-1.4-2.4-3c19.1-46.4,55.2-69,102.8-69c27.1,0,50.4,6.9,69,21.4
			c5.7,4.4,9.5,10.9,10.3,18c1.7,17-15.7,20.1-33.9,21.4c-1.2,0.1-1.6,1.7-0.6,2.3c4.1,2.6,10.2,6.6,11.7,6.8c17.1,2.2,44,8.2,46,9
			c3.9,1.6,7.8,3.2,11.5,5c3.8,1.7,7.5,3.6,11.1,5.6c3.3,1.9,7.1,5.2,7.2,6.3c0.2,2.1,0.3,4.2,0.3,6.3
			C344.4,123,344.1,127.2,343.5,131.4z"/>
	</g>
</g>
</svg>
