<?xml version="1.0" encoding="utf-8"?>
<!-- Generator: Adobe Illustrator 23.0.6, SVG Export Plug-In . SVG Version: 6.00 Build 0)  -->
<svg version="1.1"
	 id="svg2" inkscape:version="0.92.1 r15371" sodipodi:docname="bell-icon.svg" xmlns:cc="http://creativecommons.org/ns#" xmlns:dc="http://purl.org/dc/elements/1.1/" xmlns:inkscape="http://www.inkscape.org/namespaces/inkscape" xmlns:rdf="http://www.w3.org/1999/02/22-rdf-syntax-ns#" xmlns:sodipodi="http://sodipodi.sourceforge.net/DTD/sodipodi-0.dtd" xmlns:svg="http://www.w3.org/2000/svg"
	 xmlns="http://www.w3.org/2000/svg" xmlns:xlink="http://www.w3.org/1999/xlink" x="0px" y="0px" viewBox="0 0 400 400"
	 style="enable-background:new 0 0 400 400;" xml:space="preserve">
<path d="M293,208.2c-3.1-3.1-4.9-7.3-4.9-11.7v-66.6c0-43.1-22-79.5-60.7-91.4c-3.3-1-5.5-4.1-5.5-7.5v-4c0-12.2-9.8-22-22-22
	c-12.2,0-22,9.8-22,22v4c0,3.4-2.2,6.5-5.5,7.5c-38.8,11.8-60.6,48.1-60.6,91.4v66.6c0,4.4-1.7,8.6-4.9,11.7l-20,20
	c-2.9,2.9-4.5,6.8-4.5,10.9v2.2c0,3.4,2.7,6.1,6.1,6.1h16.6c2,0,3.9,0.1,5.9,0.3c25.8,2.4,44.8,3.8,62.6,27.5c1.1,2.2,2.5,4.2,4,6.1
	c39.8,52.1-13.3,112.4,23.7,113.7c32.6-1.2-14.9-58.3,22.9-116l-0.3,0c2.1-3,3.7-6.4,4.5-10.1c0.8-3.4-1.7-6.7-5.2-6.8
	c-28.5-1.2-29.2-13-0.6-14.6l37.7,0c2.2,0,4.5,0.2,6.6,0.6c40,8.7-7.1,79.9,24,80.3c31-1-19.8-64.4,22.3-79.7
	c2.4-0.9,4.1-3.2,4.1-5.8v-3.8c0-4.1-1.6-8-4.5-10.9L293,208.2z"/>
</svg>
