<?xml version="1.0" encoding="utf-8"?>
<!-- Generator: Adobe Illustrator 23.0.1, SVG Export Plug-In . SVG Version: 6.00 Build 0)  -->
<svg version="1.1"
	 id="svg2" xmlns:cc="http://creativecommons.org/ns#" xmlns:dc="http://purl.org/dc/elements/1.1/" xmlns:inkscape="http://www.inkscape.org/namespaces/inkscape" xmlns:rdf="http://www.w3.org/1999/02/22-rdf-syntax-ns#" xmlns:sodipodi="http://sodipodi.sourceforge.net/DTD/sodipodi-0.dtd" xmlns:svg="http://www.w3.org/2000/svg"
	 xmlns="http://www.w3.org/2000/svg" xmlns:xlink="http://www.w3.org/1999/xlink" x="0px" y="0px" viewBox="0 0 400 400"
	 style="enable-background:new 0 0 400 400;" xml:space="preserve">
<path d="M284.9,224.3c-2.8-2.8-4.4-6.7-4.4-10.7v-60.8c0-39.3-20.1-72.6-55.3-83.4c-3-0.9-5-3.7-5-6.8V59c0-11.1-9-20.1-20.1-20.1
	s-20.1,9-20.1,20.1v3.6c0,3.1-2,5.9-5,6.8c-35.4,10.8-55.3,43.9-55.3,83.4v60.8c0,4-1.6,7.9-4.4,10.7l-18.2,18.2
	c-2.6,2.6-4.1,6.2-4.1,10v2c0,3.1,2.5,5.6,5.6,5.6h15.2c1.8,0,3.6,0.1,5.4,0.3c23.6,2.2,40.9,3.5,57.1,25c1,2,2.2,3.9,3.7,5.5
	c36.3,47.5-12.1,102.6,21.6,103.8c29.7-1.1-13.6-53.2,20.9-105.9l-0.2,0c1.9-2.7,3.3-5.8,4.1-9.2c0.7-3.1-1.5-6.1-4.7-6.2
	c-26-1.1-26.7-11.8-0.5-13.3h34.4c2,0,4.1,0.2,6,0.6c36.5,8-6.4,72.9,21.9,73.3c28.3-0.9-18.1-58.7,20.4-72.7
	c2.2-0.8,3.7-2.9,3.7-5.3l0-3.5c0-3.7-1.5-7.3-4.1-10L284.9,224.3z"/>
</svg>
