<?xml version="1.0" encoding="utf-8"?>
<!-- Generator: Adobe Illustrator 23.0.1, SVG Export Plug-In . SVG Version: 6.00 Build 0)  -->
<svg version="1.1"
	 id="svg4" xmlns:cc="http://creativecommons.org/ns#" xmlns:dc="http://purl.org/dc/elements/1.1/" xmlns:inkscape="http://www.inkscape.org/namespaces/inkscape" xmlns:rdf="http://www.w3.org/1999/02/22-rdf-syntax-ns#" xmlns:sodipodi="http://sodipodi.sourceforge.net/DTD/sodipodi-0.dtd" xmlns:svg="http://www.w3.org/2000/svg"
	 xmlns="http://www.w3.org/2000/svg" xmlns:xlink="http://www.w3.org/1999/xlink" x="0px" y="0px" viewBox="0 0 400 400"
	 style="enable-background:new 0 0 400 400;" xml:space="preserve">
<sodipodi:namedview  bordercolor="#666666" borderopacity="1" fit-margin-bottom="50" fit-margin-left="0" fit-margin-right="0" fit-margin-top="0" gridtolerance="10" guidetolerance="10" id="namedview6" inkscape:current-layer="svg4" inkscape:cx="-1.4591912" inkscape:cy="73.423698" inkscape:pageopacity="0" inkscape:pageshadow="2" inkscape:window-height="705" inkscape:window-maximized="1" inkscape:window-width="1366" inkscape:window-x="-8" inkscape:window-y="245" inkscape:zoom="2.6074563" objecttolerance="10" pagecolor="#ffffff" showgrid="false">
	</sodipodi:namedview>
<path d="M313.3,4.6H86.7c-5.9,0-10.5,5-10,10.9l20.2,226.3c0.8,9.3,3.9,18.3,8.7,26.4c32.7,54.2-10.1,125.8,24.6,127.1
	c29.4-0.8-19.5-108.9,24-118.9c4.1-0.9,8.4-0.7,12.5,0.4l30.4,8.4c1.7,0.5,3.6,0.5,5.3,0l92.4-25.4c4-1.1,6.9-4.6,7.3-8.8l21-235.6
	C323.8,9.7,319.2,4.6,313.3,4.6z M135.9,211.7l-3.6-39.8c-0.2-2.4,1.7-4.5,4.1-4.5h22.8c2.1,0,3.8,1.8,3.7,3.9
	c-1.1,18.7-0.1,30.5-23.3,42.4C138,214.5,136.1,213.5,135.9,211.7z M271.7,126.9l-0.1,0.9l-7.3,81.6c-0.3,3.1-2.5,5.7-5.5,6.5
	l-56,15.4c-1.9,0.5-3.8,0.5-5.7,0l-12.5-3.3c-2.3-0.6-4.5-1.5-6.4-2.7c-19.4-12.2,24.3-24.5,52.2-32.8c2.6-0.8,4.5-3.1,4.7-5.8
	l2.8-30.7c0.2-2.4-1.7-4.5-4.1-4.5H137c-3.7,0-6.8-2.8-7.1-6.5l-7.1-79.7l-0.2-2.1c-0.3-3.6,2.5-6.6,6.1-6.6l62.9,0
	c4,0,7.9,0.4,11.8,1.2c24.2,5.4-12.1,18.8-40.5,28.2c-4,1.3-6.6,5.2-6.2,9.4c0.5,5.6,1.2,13.2,1.7,18.4c0.3,3.4,3.2,6.1,6.6,6.1
	l100.3,0C269.1,119.9,272,123.1,271.7,126.9z M277.4,63l-0.2,1.6l-1.4,16.2l-0.1,1.2c-0.3,3.5-3.2,6.2-6.8,6.2h-26.3
	c-3.2,0-6.4-0.1-9.6-0.5c-38.4-4.2,10.1-24.1,38.5-30C274.7,57.1,277.7,59.7,277.4,63z"/>
</svg>
