<?xml version="1.0" encoding="utf-8"?>
<!-- Generator: Adobe Illustrator 23.0.1, SVG Export Plug-In . SVG Version: 6.00 Build 0)  -->
<svg version="1.1"
	 id="svg2" inkscape:version="0.92.1 r15371" sodipodi:docname="medibang.svg" xmlns:cc="http://creativecommons.org/ns#" xmlns:dc="http://purl.org/dc/elements/1.1/" xmlns:inkscape="http://www.inkscape.org/namespaces/inkscape" xmlns:rdf="http://www.w3.org/1999/02/22-rdf-syntax-ns#" xmlns:sodipodi="http://sodipodi.sourceforge.net/DTD/sodipodi-0.dtd" xmlns:svg="http://www.w3.org/2000/svg"
	 xmlns="http://www.w3.org/2000/svg" xmlns:xlink="http://www.w3.org/1999/xlink" x="0px" y="0px" viewBox="0 0 400 400"
	 style="enable-background:new 0 0 400 400;" xml:space="preserve">
<path d="M310.9,141.3c-2.6-15.3-8.1-29.6-16.6-42.5c-10.4-16-23.9-28.8-40.7-38.1c-8.2-4.5-15.8-9.7-21.9-17
	c-4.5-5.5-7.2-11.4-6.4-18.6c0.4-3.2,0.8-6.4,1.4-9.5c0.4-2.3,1-4.5,1.6-6.8c0.5-2.1-1.3-4-3.4-3.5c-0.9,0.2-1.9,0.4-2.8,0.6
	c-16.6,4-31.7,11.6-46,20.7c-11.9,7.6-23.1,16.4-33.5,26c-10.4,9.6-20.2,19.9-28.6,31.3c-4.8,6.4-8.4,13.5-12.1,20.6
	c-7.6,14.5-12.8,29.5-14.1,45.9c-0.9,11.3-0.3,22.5,2.2,33.6c2.7,11.7,6.9,22.5,12.7,32.5c3.7,6.3,6.8,12.9,8.9,19.9
	c20.6,66.7-17.9,161.3,15.7,158.4c41.1,2.9-27.2-130.4,25.1-128.4c27.7,3.9-4.8,58.1,23.1,60.2c19.3-1.8-16.5-50.5,6.2-54.9
	c1.5-0.3,3.1-0.3,4.7-0.1c8.9,1,17.9,1,27,0c13.1-1.5,25.5-5.3,37.2-11.2c15.7-8,28.8-19,39.3-33.2c11.4-15.2,18.4-32.2,21.2-51
	C313,164.6,312.9,152.9,310.9,141.3z"/>
</svg>
