<?xml version="1.0" encoding="utf-8"?>
<!-- Generator: Adobe Illustrator 23.0.1, SVG Export Plug-In . SVG Version: 6.00 Build 0)  -->
<svg version="1.1"
	 id="svg6" inkscape:version="0.92.1 r15371" sodipodi:docname="gimp.svg" xmlns:cc="http://creativecommons.org/ns#" xmlns:dc="http://purl.org/dc/elements/1.1/" xmlns:inkscape="http://www.inkscape.org/namespaces/inkscape" xmlns:rdf="http://www.w3.org/1999/02/22-rdf-syntax-ns#" xmlns:sodipodi="http://sodipodi.sourceforge.net/DTD/sodipodi-0.dtd" xmlns:svg="http://www.w3.org/2000/svg"
	 xmlns="http://www.w3.org/2000/svg" xmlns:xlink="http://www.w3.org/1999/xlink" x="0px" y="0px" viewBox="0 0 400 400"
	 style="enable-background:new 0 0 400 400;" xml:space="preserve">
<sodipodi:namedview  bordercolor="#666666" borderopacity="1" gridtolerance="10" guidetolerance="10" id="namedview8" inkscape:current-layer="svg6" inkscape:cx="37.043061" inkscape:cy="78.32134" inkscape:pageopacity="0" inkscape:pageshadow="2" inkscape:window-height="1017" inkscape:window-maximized="1" inkscape:window-width="1920" inkscape:window-x="1358" inkscape:window-y="-8" inkscape:zoom="3.6875" objecttolerance="10" pagecolor="#ffffff" showgrid="false">
	</sodipodi:namedview>
<g>
	<path d="M196.7,166.3c9.1-1.6,16.2-9.2,17.2-18.4c1.3-12.3-7.9-23.1-20-23.4l-2.2-0.1c-0.7,0-1.1,0.9-0.5,1.3l1.8,1.3
		c2.6,2,4.2,5.2,4.4,8.6c0.3,5.1-2.5,9.7-7.2,11.7c-6,2.6-12.4-0.2-15.4-5.3l-1.4-2.6c-0.3-0.5-1-0.3-1,0.2l-0.4,3l0,0
		c-0.4,3.7,0,7.5,1.5,10.9C177.2,162.3,186.4,168.2,196.7,166.3z"/>
	<path d="M111.9,100.7c15.2,0,28.4,10,32.9,23.5c0.1,0.4,0.7,0.4,0.9,0c2.4-6.1,6.1-11.5,10.9-15.8c0.2-0.2,0.1-0.6-0.2-0.6
		c-45.7-3.2-67.9-40.3-71.8-47.5c-0.2-0.3-0.6-0.2-0.6,0.2l-1.2,54.7c0,0.4,0.5,0.6,0.7,0.2C89.5,106.8,99.8,100.7,111.9,100.7z"/>
	<path d="M113.5,142.8c-3.5,0-6.9-1.9-8.5-5l-1.9-3.9c-0.2-0.4-0.7-0.3-0.8,0.1l-0.7,4.4l0,0.3c-0.3,2.6-0.2,5.3,0.6,7.8
		c2.3,7.5,9.2,12.8,17.5,12.9c8.5,0.1,16.1-5.7,18.2-13.9c3-11.6-5.8-22.4-17-23.1l-4.3-0.3c-0.3,0-0.4,0.4-0.2,0.6l3.6,2.8
		c2.2,1.9,3.8,4.7,3.8,7.5C123.2,138.4,118.8,142.8,113.5,142.8z"/>
	<path d="M395.2,316l-0.2-1.1c-1.3-4.4-2.5-8.8-3.8-12.9c-7.9-28.3-13.8-50.3-38.6-48.1c-3,0.3-5.6,1.1-8,2.4
		c-1.1,0.6-2.6,0.5-3.7-0.2l-5.2-3.3c-4.2-2.6-8-5.8-11.3-9.5c-17.8-19.9-16.7-42.3-10.7-73.8c0.4-1.9,0.8-3.8,1.3-5.7
		c8.1-32.8,10-74.8,4-129.2c-0.9-8.5-5.7-9.7-8.8-0.6c-2.5,7.8-18.8,56.4-102.2,70.9c-1,0.2-1.3,1.4-0.5,2
		c10.5,7.8,17.2,20.4,16.5,34.8c-1,19.6-16.1,35.9-35.5,38.4c-20.4,2.6-38.7-10.3-44.2-28.5c-0.3-0.9-1.4-1-1.8-0.2
		c-5.8,11.2-17.4,18.9-30.9,18.9c-13.1,0-24.3-7.2-30.3-17.8c-0.6-1.1-1.1-3-1.7-3c-0.7,0-0.4,1.1-0.7,1.1c-0.3,0-0.9-1.2-1.4-2.1
		c-0.1-0.1-0.1-0.2-0.2-0.3c-17-23.1-43.9-32.5-60.5-20.6c-13.2,9.7-15.7,29.6-7.8,49c18.7,40.1-7.8,79.8,12.7,81
		c15.1-0.1-5.3-63.4,6.5-54c11.5,10.1,24.9,15.2,36.6,13.8c2.8-0.3,5.6,0.3,7.8,1.9c2.6,1.8,5.3,3.7,8.1,5.4c2.3,1.5,4.4,3.2,6.4,5
		c41,38.9-8,86.5,17.1,92.5c2.1,0.5,4.3,0.6,6.4,0c19.4-5.7,1.3-54.8,6.7-70.8c1.2-3.6,5.3-5.3,8.8-3.9
		c43.3,16.5,94.1,22.2,133.1-0.5c2.2-1.3,4.9-1.3,7.1-0.1c10.3,5.6,21.5,10.9,32.1,14.8c0.9,0.3,1.5,1,1.8,1.9l0.3,1.1
		c0.3,0.9,1.2,1.5,2.2,1.3l2.2-0.5c1.1-0.3,2.3-0.2,3.4,0.2l23.6,8.6c1.4,0.5,2.4,1.7,2.6,3.2c1.1,8.1,6.4,16.6,16.8,20.6
		c2.7,1,5.3,2.1,7.9,3.2c7.5,3.1,14,8.3,18.3,15.2c16.1,26-12.9,53.1,6.6,55.9c21.7-1.2-3.8-48.1,9.7-53.6
		C394.8,318.1,395.4,317.1,395.2,316z M29.9,169.5c-8.5,0-15.1-8.2-15.1-18.2c0-10.1,6.9-18.2,15.1-18.2c8.5,0,15.1,8.2,15.1,18.2
		C45,161.3,38.1,169.5,29.9,169.5z M221.7,219.2c-19.6,8.5-51.1,4.9-90.4-9c-0.1,0-0.1-0.2,0.1-0.2c45,8.9,72.7,3.9,90.6-5.2
		c0.1,0,0.1,0.1,0.1,0.1c-1,0.8-1.9,1.9-2.3,3.2c-1.2,3.2-0.4,7,2.2,10C222.1,218.5,222.1,219,221.7,219.2z M252.7,209.5
		c0,0.6-0.6,1-1.1,0.8c-9.5-3.2-16.6-5.3-18.1-5.9c-3.1-1.4-6-1.6-8.5-1c-0.2,0-0.2-0.2-0.1-0.2c3-1.7,5.8-3.6,8.3-5.5
		c0.4-0.3,0.4-0.8,0.1-1.1c-3.5-4.5-8.8-9.1-10.9-10.9c-0.2-0.2,0-0.5,0.2-0.4c4.3,1.3,20,6.6,26.2,14.4
		C251.6,203.3,252.7,206.4,252.7,209.5z M296.8,230.1c-3.5-1.2-6-2.3-8.4-3.8c-1.3-0.8-1.6-2.5-0.7-3.7c1.6-2,3.2-4.2,4.7-6.4
		c0.7-1,1.9-1.5,3-1.3C303.5,216.3,304.4,232.6,296.8,230.1z"/>
</g>
</svg>
