<?xml version="1.0" encoding="utf-8"?>
<!-- Generator: Adobe Illustrator 23.0.1, SVG Export Plug-In . SVG Version: 6.00 Build 0)  -->
<svg version="1.1"
	 id="svg8" xmlns:cc="http://creativecommons.org/ns#" xmlns:dc="http://purl.org/dc/elements/1.1/" xmlns:inkscape="http://www.inkscape.org/namespaces/inkscape" xmlns:rdf="http://www.w3.org/1999/02/22-rdf-syntax-ns#" xmlns:sodipodi="http://sodipodi.sourceforge.net/DTD/sodipodi-0.dtd" xmlns:svg="http://www.w3.org/2000/svg"
	 xmlns="http://www.w3.org/2000/svg" xmlns:xlink="http://www.w3.org/1999/xlink" x="0px" y="0px" viewBox="0 0 400 400"
	 style="enable-background:new 0 0 400 400;" xml:space="preserve">
<sodipodi:namedview  bordercolor="#666666" borderopacity="1" fit-margin-bottom="20" fit-margin-left="0" fit-margin-right="0" fit-margin-top="0" gridtolerance="10" guidetolerance="10" id="namedview10" inkscape:current-layer="svg8" inkscape:cx="-4.3778783" inkscape:cy="44.242729" inkscape:pageopacity="0" inkscape:pageshadow="2" inkscape:window-height="705" inkscape:window-maximized="1" inkscape:window-width="1366" inkscape:window-x="-8" inkscape:window-y="245" inkscape:zoom="5.3514741" objecttolerance="10" pagecolor="#ffffff" showgrid="false">
	</sodipodi:namedview>
<g id="Layer_1">
</g>
<g>
	<path d="M173.9,122.4l-6.3-3.8c-6.9-3.8-11.3-6.9-13.9-10.1s-3.8-6.3-3.8-10.1c0-3.1,1.3-6.9,4.4-10.1c3.1-3.1,8.2-5,15.7-5
		c4.4,0,8.8,0,13.2,1.3c2.3,0.4,4.9,1.3,7.3,2.4c1.4,0.6,3.1,2,3.9,2c1.4,0,1.4,0,1.4-0.6V71.9c0-0.8-0.2-1.5-0.7-2.2h0
		c-0.4-0.6-1-1.1-1.6-1.4c-2.3-1.1-5.2-2.1-9-2.7c-4.4-0.6-9.4-1.3-15.1-1.3c-13.2,0-23.3,3.8-30.2,10.7
		c-6.9,7.6-10.1,15.7-10.1,25.8c0,7.6,1.9,13.9,5.7,20.2c3,5,8,9.6,15,14.2c3.2,2.1,5.7,5.1,6.8,8.7c3.8,13.2-11,25.2-27.1,27.4
		c-0.4,0.1-0.4,0.7-0.4,0.7V191c0,0.6,0,0.6,0,1.3s0,0.6,0.6,1.3c2.8,1.4,6,2.5,10.1,2.7c3.8,0.2,7.6,0.7,11.3,1.2
		c3.1,0.4,6.3,0.6,9.4,0.6c12.6,0,22.7-3.1,30.2-10.1c7.6-6.9,11.3-15.7,11.3-26.5c0-6.9-1.9-13.9-5.7-20.2
		C192.8,135,185.2,128.7,173.9,122.4z M175.1,175.3c-2.7,2.7-7,4.5-12.6,4.9c-1.9,0.1-3.8-1-4.4-2.8c-2.4-7.6,4.9-26.4,12.7-27.5
		c1.4-0.2,2.8,0.4,3.8,1.4c0.6,0.7,1.2,1.3,1.7,1.9c2.5,3.1,3.8,6.9,3.8,10.7C180.2,168.4,178.3,172.1,175.1,175.3z"/>
	<path d="M332.6,4.6H67.4c-5.5,0-10,4.5-10,10v253.8c0,7.3,4.1,14.1,10.7,17.3c43.2,21.2-24.4,107.6,19.6,109.6
		c32.1,0.9,7.9-43.8,9.3-78.2c0.8-19.5,16.9-34.8,36.4-34.8h199.3c5.5,0,10-4.5,10-10V14.6C342.6,9.1,338.2,4.6,332.6,4.6z
		 M330.7,261c0,5.5-4.5,10-10,10H79.3c-5.5,0-10-4.5-10-10V26.6c0-5.5,4.5-10,10-10h241.4c5.5,0,10,4.5,10,10V261z"/>
	<path d="M264.3,101h-12.1c-1.5,0-2.8-1.2-2.8-2.8V85.9c0-4.2-0.2-7.1,0-9.8c0.1-0.9-0.5-1.8-1.4-2.1c-0.3-0.1-0.6-0.1-0.9-0.1
		l-15.9,1.8c-0.5,0.1-0.9,0.3-1.2,0.6l-1,1c-0.3,0.3-0.5,0.6-0.6,1c-0.4,1.8-0.5,4.4-0.9,8.3c-0.1,0.9-0.1,1.7-0.2,2.6
		c-0.1,3.2-0.4,6.2-0.5,8.6c-0.1,1.5-1.3,2.6-2.8,2.6c-2.4,0-5.8,0-7.5,0c-0.7,0-1.4,0.4-1.8,1l-0.3,0.4c-0.2,0.4-0.4,0.8-0.4,1.2
		v14.2c0,0.6,0.2,1.1,0.6,1.5s1,0.6,1.5,0.6h7.7c1.5,0,2.8,1.2,2.8,2.8v50.8c0,9.4,1.9,15.7,5.7,20.2c0.5,0.5,1,1,1.5,1.4
		c1.2,1,2.3,2.1,3.2,3.5c15.3,24.7-9.3,54.9,7.7,61.2c2,0.8,4.4,0.7,6.2-0.5c13-8-18.4-43.9,11.1-60.5c1.5-0.8,2.5-2.4,2.5-4.1
		c0-3.4,0-8.9,0-11.5c0-0.7-0.6-1.3-1.3-1.4c-1.1,0-2.2,0-3.1,0c-0.6,0-1.9,0-3.1,0c-3.1,0-5.7-1.3-7.6-3.1c-1.9-1.9-2.5-5-2.5-8.8
		v-47c0-1.5,1.2-2.8,2.8-2.8h14.2c0.4,0,0.8-0.1,1.2-0.4l0.4-0.3c0.6-0.4,1-1.1,1-1.8v-13.7c0-0.6-0.2-1.1-0.6-1.5
		C265.4,101.2,264.9,101,264.3,101z"/>
</g>
</svg>
