<?xml version="1.0" encoding="utf-8"?>
<!-- Generator: Adobe Illustrator 23.0.6, SVG Export Plug-In . SVG Version: 6.00 Build 0)  -->
<svg version="1.1"
	 id="svg8" xmlns:cc="http://creativecommons.org/ns#" xmlns:dc="http://purl.org/dc/elements/1.1/" xmlns:inkscape="http://www.inkscape.org/namespaces/inkscape" xmlns:rdf="http://www.w3.org/1999/02/22-rdf-syntax-ns#" xmlns:sodipodi="http://sodipodi.sourceforge.net/DTD/sodipodi-0.dtd" xmlns:svg="http://www.w3.org/2000/svg"
	 xmlns="http://www.w3.org/2000/svg" xmlns:xlink="http://www.w3.org/1999/xlink" x="0px" y="0px" viewBox="0 0 400 400"
	 style="enable-background:new 0 0 400 400;" xml:space="preserve">
<path d="M327.9,8.5H72.1c-5.3,0-9.6,4.3-9.6,9.6v244.7c0,7.1,4,13.6,10.3,16.7c41.7,20.5-23.5,103.7,18.9,105.6
	c30.9,0.9,7.6-42.2,8.9-75.3c0.8-18.8,16.3-33.6,35.1-33.6h192.1c5.3,0,9.6-4.3,9.6-9.6V18.1C337.5,12.8,333.2,8.5,327.9,8.5z
	 M326,255.6c0,5.3-4.3,9.6-9.6,9.6H83.7c-5.3,0-9.6-4.3-9.6-9.6v-226c0-5.3,4.3-9.6,9.6-9.6h232.7c5.3,0,9.6,4.3,9.6,9.6V255.6z"/>
<path d="M174.8,122l-6.1-3.6c-6.7-3.6-10.9-6.7-13.4-9.7c-2.4-3-3.6-6.1-3.6-9.7c0-3,1.2-6.7,4.2-9.7c3-3,7.9-4.9,15.2-4.9
	c4.2,0,8.5,0,12.7,1.2c2.2,0.4,4.7,1.3,7,2.3c1.4,0.6,3,2,3.8,2c1.3,0,1.3,0,1.3-0.6V73.4c0-0.7-0.2-1.5-0.6-2.1l0,0
	c-0.4-0.6-0.9-1.1-1.6-1.3c-2.3-1-5-2-8.7-2.6c-4.2-0.6-9.1-1.2-14.6-1.2c-12.7,0-22.5,3.6-29.1,10.3c-6.7,7.3-9.7,15.2-9.7,24.9
	c0,7.3,1.8,13.4,5.5,19.4c2.9,4.8,7.7,9.3,14.5,13.7c3.1,2,5.5,4.9,6.5,8.4c3.7,12.7-10.6,24.3-26.1,26.4c-0.4,0.1-0.4,0.7-0.4,0.7
	v18.2c0,0.6,0,0.6,0,1.2c0,0.6,0,0.6,0.6,1.2c2.7,1.4,5.8,2.4,9.7,2.6c3.7,0.2,7.3,0.6,10.9,1.1c3,0.4,6,0.6,9.1,0.6
	c12.1,0,21.9-3,29.1-9.7c7.3-6.7,10.9-15.2,10.9-25.5c0-6.7-1.8-13.4-5.5-19.4C193,134.2,185.7,128.1,174.8,122z M176,173
	c-2.6,2.6-6.7,4.4-12.1,4.8c-1.9,0.1-3.7-0.9-4.2-2.7c-2.3-7.3,4.7-25.5,12.3-26.5c1.4-0.2,2.7,0.4,3.7,1.4c0.6,0.6,1.2,1.2,1.6,1.8
	c2.4,3,3.6,6.7,3.6,10.3C180.9,166.3,179.1,170,176,173z"/>
<path d="M262,101.4h-11.6c-1.5,0-2.7-1.2-2.7-2.7V86.8c0-4-0.1-6.8,0-9.4c0-0.9-0.5-1.7-1.4-2c-0.3-0.1-0.6-0.1-0.8-0.1L230.1,77
	c-0.5,0-0.9,0.3-1.2,0.6l-1,1c-0.3,0.3-0.5,0.6-0.5,1c-0.4,1.7-0.5,4.2-0.9,8c-0.1,0.8-0.1,1.7-0.2,2.5c-0.1,3.1-0.3,5.9-0.5,8.3
	c-0.1,1.4-1.3,2.5-2.7,2.5c-2.3,0-5.6,0-7.3,0c-0.7,0-1.3,0.3-1.7,0.9l-0.3,0.4c-0.2,0.3-0.3,0.7-0.3,1.1v13.7
	c0,0.5,0.2,1.1,0.6,1.5c0.4,0.4,0.9,0.6,1.5,0.6h7.4c1.5,0,2.7,1.2,2.7,2.7v48.9c0,9.1,1.8,15.2,5.5,19.4c0.5,0.5,1,0.9,1.5,1.3
	c1.2,1,2.3,2,3,3.3c14.8,23.8-8.9,52.9,7.4,59c2,0.7,4.2,0.7,6-0.4c12.5-7.7-17.8-42.3,10.7-58.3c1.5-0.8,2.4-2.3,2.4-4
	c0-3.3,0-8.6,0-11.1c0-0.7-0.6-1.3-1.3-1.3c-1,0-2.1,0-3,0c-0.6,0-1.8,0-3,0c-3,0-5.5-1.2-7.3-3c-1.8-1.8-2.4-4.9-2.4-8.5v-45.3
	c0-1.5,1.2-2.7,2.7-2.7h13.7c0.4,0,0.8-0.1,1.1-0.3l0.4-0.3c0.6-0.4,0.9-1,0.9-1.7v-13.2c0-0.5-0.2-1.1-0.6-1.5
	C263,101.6,262.5,101.4,262,101.4z"/>
</svg>
