<?xml version="1.0" encoding="UTF-8" standalone="no"?>
<svg
   xmlns:dc="http://purl.org/dc/elements/1.1/"
   xmlns:cc="http://creativecommons.org/ns#"
   xmlns:rdf="http://www.w3.org/1999/02/22-rdf-syntax-ns#"
   xmlns:svg="http://www.w3.org/2000/svg"
   xmlns="http://www.w3.org/2000/svg"
   viewBox="0 0 533.33331 533.33331"
   height="533.33331"
   width="533.33331"
   xml:space="preserve"
   id="svg2"
   version="1.1"><metadata
     id="metadata8"><rdf:RDF><cc:Work
         rdf:about=""><dc:format>image/svg+xml</dc:format><dc:type
           rdf:resource="http://purl.org/dc/dcmitype/StillImage" /></cc:Work></rdf:RDF></metadata><defs
     id="defs6"><clipPath
       id="clipPath18"
       clipPathUnits="userSpaceOnUse"><path
         id="path16"
         d="M 0,400 H 400 V 0 H 0 Z" /></clipPath></defs><g
     transform="matrix(1.3333333,0,0,-1.3333333,0,533.33333)"
     id="g10"><g
       id="g12"><g
         clip-path="url(#clipPath18)"
         id="g14"><g
           transform="translate(333.7588,210.9219)"
           id="g20"><path
             id="path22"
             style="fill:#000000;fill-opacity:1;fill-rule:nonzero;stroke:none"
             d="m 0,0 c -0.606,-26.807 -1.166,-53.618 -1.317,-80.43 -0.033,-5.629 -1.212,-6.889 -7.12,-7.039 -29.243,-0.74 -58.457,-2.703 -87.701,-3.37 -25.092,-0.572 -50.215,-0.195 -75.317,0.181 -16.819,0.252 -33.627,1.247 -50.441,1.889 -12.909,0.494 -25.817,1.086 -38.732,1.339 -3.175,0.063 -3.662,1.407 -3.616,3.962 0.095,5.365 0.243,10.738 0.085,16.099 -0.873,29.727 -2.198,59.447 -2.62,89.181 -0.242,17.037 1.049,34.092 1.44,51.145 0.492,21.451 0.975,42.906 0.995,64.36 0.005,5.384 1.134,6.667 6.771,6.825 35.336,0.989 70.652,2.635 105.981,3.905 10.233,0.368 20.509,-0.203 30.72,0.406 12.238,0.73 23.162,-10.191 22.922,-22.324 -0.097,-4.875 -0.153,-9.775 0.224,-14.628 0.613,-7.876 4.598,-13.631 10.005,-14.69 7.276,-1.424 12.372,2.23 15.854,8.011 3.384,5.619 5.829,11.8 9.159,17.455 1.342,2.28 3.366,6.219 5.966,5.699 2.599,-0.521 4.092,-5.268 4.056,-7.872 -0.105,-7.744 -1.328,-15.469 -2.002,-23.21 -0.379,-4.353 -1.125,-8.786 -0.689,-13.079 1.324,-13.026 12.986,-18.496 24.067,-11.582 9.433,5.887 14.548,18.371 12.435,30.753 -1.229,7.192 -3.302,14.293 -3.91,21.527 -0.902,10.716 5.85,17.96 16.426,19.545 4.169,0.625 5.028,-0.74 4.979,-4.531 C -1.544,126.852 -1.468,116.844 -1.442,101.496 -1.416,86.147 -0.624,45.58 -0.406,30.697 -0.188,15.813 0.236,10.464 0,0 m 31.205,138.046 c -0.089,12.689 -0.026,25.378 -0.174,38.066 -0.092,7.922 -0.615,8.189 -8.274,8.276 -8.78,0.098 -28.633,-0.14 -38.832,-0.14 -10.199,0 -83.463,0.278 -117.059,0.089 -33.595,-0.189 -104.413,-0.007 -156.62,0.008 -7.604,0.002 -7.867,-0.154 -8.022,-7.523 -0.741,-35.12 -1.872,-70.239 -2.065,-105.362 -0.212,-38.542 0.356,-77.09 0.762,-115.634 0.263,-24.881 0.767,-49.762 1.389,-74.637 0.073,-2.957 0.695,-6.718 2.563,-8.678 11.733,-12.315 14.962,-26.768 12.975,-43.237 -1.123,-9.312 0.335,-18.559 5.689,-26.673 4.632,-7.02 11.66,-10.355 18.009,-8.214 7.2,2.426 10.003,8.296 10.097,15.411 0.099,7.547 -0.567,15.105 -0.427,22.65 0.084,4.558 0.547,9.247 1.794,13.604 1.127,3.94 3.885,4.133 6.157,0.488 2.192,-3.515 3.634,-7.684 6.425,-10.583 2.457,-2.551 6.554,-5.449 9.506,-5.054 2.936,0.394 6.26,4.262 7.767,7.398 2.066,4.298 2.711,9.313 3.73,14.072 2.572,12.006 14.308,20.927 27.29,20.739 51.961,-0.754 103.934,-0.674 155.903,-0.924 15.023,-0.072 22.318,-6.833 24.018,-21.81 0.684,-6.038 1.319,-12.162 2.895,-17.999 2.395,-8.865 9.153,-13.849 16.233,-12.962 7.413,0.928 13.269,7.648 13.816,16.593 0.356,5.828 0.05,11.703 -0.1,17.553 -0.191,7.529 1.385,12.882 2.056,18.313 0.672,5.43 1.465,8.297 1.587,11.348 0.122,3.049 2.134,53.8 2.075,81.363 -0.123,57.82 -0.757,115.64 -1.163,173.459" /></g></g></g></g></svg>