<?xml version="1.0" encoding="utf-8"?>
<!-- Generator: Adobe Illustrator 23.0.1, SVG Export Plug-In . SVG Version: 6.00 Build 0)  -->
<svg version="1.1"
	 id="svg6" xmlns:cc="http://creativecommons.org/ns#" xmlns:dc="http://purl.org/dc/elements/1.1/" xmlns:inkscape="http://www.inkscape.org/namespaces/inkscape" xmlns:rdf="http://www.w3.org/1999/02/22-rdf-syntax-ns#" xmlns:sodipodi="http://sodipodi.sourceforge.net/DTD/sodipodi-0.dtd" xmlns:svg="http://www.w3.org/2000/svg"
	 xmlns="http://www.w3.org/2000/svg" xmlns:xlink="http://www.w3.org/1999/xlink" x="0px" y="0px" viewBox="0 0 400 400"
	 style="enable-background:new 0 0 400 400;" xml:space="preserve">
<style type="text/css">
	.st0{fill:#000400;}
</style>
<sodipodi:namedview  bordercolor="#666666" borderopacity="1" fit-margin-bottom="50" fit-margin-left="0" fit-margin-right="0" fit-margin-top="0" gridtolerance="10" guidetolerance="10" id="namedview8" inkscape:current-layer="svg6" inkscape:cx="42.7532" inkscape:cy="89.119886" inkscape:pageopacity="0" inkscape:pageshadow="2" inkscape:window-height="1017" inkscape:window-maximized="1" inkscape:window-width="1920" inkscape:window-x="1358" inkscape:window-y="-8" inkscape:zoom="5.2149125" objecttolerance="10" pagecolor="#ffffff" showgrid="false">
	</sodipodi:namedview>
<g>
	<path class="st0" d="M322.2,71.5l-113-65.2c-4.9-2.8-13.1-2.8-18,0L78,71.5c-4.9,2.8-9.1,9.8-9.1,15.7v130.6c0,5.9,4,12.9,9.1,15.7
		l94.6,54.8c14.5,8.4,24,23.5,24.9,40.2c1.8,33-17.8,67.1,10,67.3c35.4-1-20.6-65.9,23.4-107.7c3.7-3.5,7.9-6.5,12.3-9.1l78.7-45.5
		c4.9-2.8,9.1-9.8,9.1-15.7V87.2C331.4,81.6,327.2,74.5,322.2,71.5z M251.4,121.3c-0.4,2.4-1.9,5.5-4.3,9.2
		c-4.4,6.6-10,12.4-16.3,17.1l-20.2,14.9c2.3-2.3,3.8-5.4,4-8.9c0.2-2.8-0.5-5.6-1.9-8.2c-2.3-4.2-6.8-6.8-11.5-7
		c-1.4,0-3,0-4.5,0.5l50-21.1C249.1,116.6,251.8,118.7,251.4,121.3z M200.1,141.8h0.7c3.5,0.2,6.8,2.3,8.7,5.4
		c1.2,1.9,1.6,4,1.4,6.1c-0.5,5.6-5.2,10.1-10.8,10.1h-0.7c-3.5-0.2-6.8-2.1-8.7-5.4c-1.2-1.9-1.6-4-1.4-6.1
		C189.8,146.3,194.5,141.8,200.1,141.8z M189.6,142.8v0.2c-2.1,2.3-3.5,5.4-3.8,8.7c-0.2,2.8,0.5,5.6,1.9,8.2
		c2.3,4.2,6.6,6.8,11.5,7h0.9c1.2,0,2.1-0.2,3-0.5l-99.3,43.8c-1,0.4-1.7-0.9-0.9-1.5L189.6,142.8z M253.6,126.3
		c0.8-2.1,2.8-5,5.6-8.2c5.5-6.2,12.3-10.9,19.9-14.1l20.9-8.8c0.5-0.2,1,0.5,0.5,0.9l-44,32.4C255.1,129.6,253,128,253.6,126.3z"/>
	<path class="st0" d="M199.4,162.7h0.7c5.4,0,9.8-4.2,10.1-9.4c0.2-2.1-0.2-4-1.4-5.9c-1.6-2.8-4.7-4.9-8.2-4.9h-0.7
		c-5.4,0-9.6,4.2-10.1,9.4c-0.2,2.1,0.2,4,1.4,5.9C192.8,160.6,195.9,162.7,199.4,162.7z M196.6,152.4c0.2-1.9,1.9-3.5,3.8-3.3
		c1.9,0.2,3.5,1.9,3.3,3.8c0,1.9-1.9,3.5-3.8,3.3C198,155.9,196.4,154.2,196.6,152.4z"/>
</g>
</svg>
