<?xml version="1.0" encoding="utf-8"?>
<!-- Generator: Adobe Illustrator 23.0.6, SVG Export Plug-In . SVG Version: 6.00 Build 0)  -->
<svg version="1.1"
	 id="svg2" xmlns:cc="http://creativecommons.org/ns#" xmlns:dc="http://purl.org/dc/elements/1.1/" xmlns:inkscape="http://www.inkscape.org/namespaces/inkscape" xmlns:rdf="http://www.w3.org/1999/02/22-rdf-syntax-ns#" xmlns:sodipodi="http://sodipodi.sourceforge.net/DTD/sodipodi-0.dtd" xmlns:svg="http://www.w3.org/2000/svg"
	 xmlns="http://www.w3.org/2000/svg" xmlns:xlink="http://www.w3.org/1999/xlink" x="0px" y="0px" viewBox="0 0 400 400"
	 style="enable-background:new 0 0 400 400;" xml:space="preserve">
<path d="M335.7,163.6L291,137.9c-4-2.3-7.7-5-11-8.3c-8.1-8.2-12.4-18-13.2-28.9V44.5c0-0.8-0.4-1.5-1.1-1.9L201.1,5.3c0,0,0,0,0,0
	c-0.6-0.3-1.2-0.4-1.8-0.1c0,0,0,0-0.1,0c0,0,0,0,0,0c-0.1,0-0.2,0.1-0.2,0.1c0,0,0,0,0,0l-64.7,37.4c-0.7,0.4-1.1,1.1-1.1,1.9v74.4
	c0,0.1,0,0.2,0,0.3c0,0.7,0.3,1.3,0.9,1.7c0.1,0.1,0.1,0.1,0.2,0.1c0,0,0,0,0,0l31.4,18.1c0.9,0.5,2.1,0.3,2.8-0.6
	c2.3-3.1,5.1-5.8,8.1-8c0.8-0.6,1.7-1.1,2.7-1.3c5.1-1.5-1.4,5.7-5.3,11c-5.5,6.5-8.7,15.1-8.1,24.4c1,17.1,14.8,31,31.8,32.2
	c20.1,1.4,36.8-14.5,36.8-34.3c0-19-15.4-34.4-34.4-34.4c-1.4,0-2.7,0.1-4,0.2c-3.4-0.2-2.5-1.8,0.1-3.3c3.1-1.8,6.8-2.3,10.4-1.7
	c10,1.6,18.9,7,25.2,15.2c0.4,0.6,1.1,0.9,1.7,0.9c0.4,0,0.7-0.1,1.1-0.3l16.8-9.7c1.5-0.9,3.1-1.4,4.9-1.4c3.1,0,3.8,1.4,2.3,3.4
	c-0.7,1-1.6,1.7-2.6,2.3l-18.3,10.6c-0.9,0.5-1.3,1.7-0.9,2.7c2.1,4.9,3.1,10.1,3.1,15.4c0,20-14.9,36.9-34.7,39.3
	c-1.1,0.1-1.9,1-1.9,2.1l0,14.6c0,0.7-0.1,1.5-0.3,2.1c-1.9,5.9-5.1-10.5-5.7-16.6c0,0.2,0,0.3,0,0.5V204c0-1.1-0.8-2-1.9-2.1
	c-19.8-2.4-34.7-19.3-34.7-39.3c0-5.3,1.1-10.5,3.1-15.4c0.4-1,0-2.2-0.9-2.7l-31.4-18.1c-0.1,0-0.1-0.1-0.2-0.1
	c-0.6-0.3-1.4-0.3-2,0.1l-64.7,37.4c-0.7,0.4-1.1,1.1-1.1,1.9l0,74.7c0,0.3,0.1,0.7,0.2,1l0.9,1.8c9.7,22.9-7.1,59.8,11,60.1
	c16.8-0.2-14-58,9.5-49l44.1,25.5c0.3,0.2,0.7,0.3,1.1,0.3c0.4,0,0.7-0.1,1.1-0.3l64.7-37.3c0.7-0.4,1.1-1.1,1.1-1.9v-11.5v-2
	c0-1.6,1.7-0.6,2.6,0.7c1.1,1.6,2.1,4.3,2.8,6.8c0.5,1.7,0.7,4.1,0.7,5.9l0,0c0,0,0,0,0,0c0,0,0,0,0,0c0,0.8,0.4,1.5,1.1,1.9
	l50.5,29.2c3,1.7,5.7,4,7.8,6.8c16.6,22.8-12.2,63.7,4,69.4c1.7,0.6,3.5,0.6,5.2,0.2c19.1-3.9-1.4-38.1,4.8-62.4
	c1.7-6.8,6.2-12.5,12.3-16l47.1-27.2c0.4-0.3,0.6-0.6,0.8-1.1c0.1-0.2,0.1-0.4,0.1-0.7l0-74.7C336.7,164.7,336.3,164,335.7,163.6z
	 M200.7,180.8c17.5-0.1-10.2-46.4,9-45.6c2.8,0.1,5.5,1.2,7.8,2.9c8,5.7,13.1,15.2,12.6,25.9c-0.8,16-14.3,28.8-30.3,28.6
	c-16.4-0.2-29.8-13.6-29.8-30.1c0-8.1,3.3-15.5,8.5-21c2.8-2.9,6.5-5,10.5-5.6C209.4,133.2,180.5,178.6,200.7,180.8z M188,118.5
	c-2,1.7-4.2,3.1-6.5,4.2c-4.8,2.3-9.3,5.4-13,9.4c-1.4,1.4-3.5,1.7-5.2,0.7l-17.1-9.8c-2.9-1.7-2.9-5.8,0-7.5l34-19.6
	c1.1-0.7,2.3-1.2,3.6-1.4C194.4,92.4,201,107.3,188,118.5z M197.9,78.1c0,1.5-0.8,3-2.2,3.7l-51.8,29.9c-2.9,1.7-6.5-0.4-6.5-3.7
	V48.2c0-1.5,0.8-3,2.2-3.7l51.8-29.9c2.9-1.7,6.5,0.4,6.5,3.7L197.9,78.1z M132.3,139.3c0-3.3,3.6-5.4,6.5-3.7l17.9,10.3
	c1.3,0.7,1.8,2.2,1.4,3.6c-1.3,4.2-2,8.6-2,13c0,16.1,8.7,30.4,21.9,38c14.9,9.5,11.9,22.1-6.4,20.1c-5.4-0.6-10.6-2.4-15.4-5.1
	l-21.8-12.6c-1.3-0.8-2.2-2.2-2.2-3.7L132.3,139.3z M67.6,229l0-59.8c0-1.5,0.8-3,2.2-3.7l51.8-29.9c2.9-1.7,6.5,0.4,6.5,3.7v59.8
	c0,1.5-0.8,3-2.2,3.7L74,232.7C71.2,234.4,67.6,232.3,67.6,229z M184.1,244l-51.8,29.9c-1.3,0.8-3,0.8-4.3,0l-51.8-29.9
	c-2.9-1.7-2.9-5.8,0-7.5l51.8-29.9c1.3-0.8,3-0.8,4.3,0l51.8,29.9C186.9,238.1,186.9,242.3,184.1,244z M192.7,235.4
	c0,0.5-0.5,0.8-0.9,0.5l-9.1-5.2c-6.6-5.1,8.8-11.3,10-6.4V235.4z M254,122.9l-17.1,9.8c-1.7,1-3.9,0.7-5.2-0.7
	c-5.2-5.4-11.5-9.4-18.6-11.5c-16.6-9.5-13.5-35.8,4.3-26.2l36.6,21.1C256.8,117.1,256.8,121.3,254,122.9z M256.1,111.7l-51.8-29.9
	c-1.3-0.8-2.2-2.2-2.2-3.7l0-59.8c0-3.3,3.6-5.4,6.5-3.7l51.8,29.9c1.3,0.8,2.2,2.2,2.2,3.7V108C262.6,111.3,259,113.4,256.1,111.7z
	 M207.3,229l0-19.7c0-2,1.3-3.7,3.2-4.2c19.4-4.8,33.4-22.3,33.4-42.6c0-4.2-0.6-8.3-1.7-12.2c-0.5-1.9,0.3-3.9,2-4.9l17-9.8
	c2.9-1.7,6.5,0.4,6.5,3.7v59.8c0,1.5-0.8,3-2.2,3.7l-51.8,29.9C210.9,234.4,207.3,232.3,207.3,229z M323.8,244L272,273.9
	c-1.3,0.8-3,0.8-4.3,0L215.9,244c-2.9-1.7-2.9-5.8,0-7.5l51.8-29.9c1.3-0.8,3-0.8,4.3,0l51.8,29.9
	C326.7,238.2,326.7,242.3,323.8,244z M329.6,234.9l-3.1-1.8c-2.4-1.4-4.3-3.8-4.8-6.6c-1.5-8.1,10.4-7.3,10.6-3.5l0,10.2
	C332.4,234.7,330.9,235.6,329.6,234.9z M332.4,183.6c-1.6,22.6-5,34.1-32.8,31.3c-3.7-0.4-7.3-1.6-10.6-3.4l-14.9-8.6
	c-1.3-0.8-2.2-2.2-2.2-3.7l0-59.8c0-3.3,3.6-5.4,6.5-3.7l50.6,29.2c2,1.2,3.3,3.4,3.3,5.7L332.4,183.6z"/>
</svg>
