<?xml version="1.0" encoding="utf-8"?>
<!-- Generator: Adobe Illustrator 23.0.1, SVG Export Plug-In . SVG Version: 6.00 Build 0)  -->
<svg version="1.1"
	 id="svg2" xmlns:cc="http://creativecommons.org/ns#" xmlns:dc="http://purl.org/dc/elements/1.1/" xmlns:inkscape="http://www.inkscape.org/namespaces/inkscape" xmlns:rdf="http://www.w3.org/1999/02/22-rdf-syntax-ns#" xmlns:sodipodi="http://sodipodi.sourceforge.net/DTD/sodipodi-0.dtd" xmlns:svg="http://www.w3.org/2000/svg"
	 xmlns="http://www.w3.org/2000/svg" xmlns:xlink="http://www.w3.org/1999/xlink" x="0px" y="0px" viewBox="0 0 400 400"
	 style="enable-background:new 0 0 400 400;" xml:space="preserve">
<sodipodi:namedview  bordercolor="#666666" borderopacity="1" fit-margin-bottom="400" fit-margin-left="50" fit-margin-right="50" fit-margin-top="50" gridtolerance="10" guidetolerance="10" id="namedview4" inkscape:current-layer="g10" inkscape:cx="615.77389" inkscape:cy="921.2717" inkscape:pageopacity="0" inkscape:pageshadow="2" inkscape:window-height="1017" inkscape:window-maximized="1" inkscape:window-width="1920" inkscape:window-x="1358" inkscape:window-y="-8" inkscape:zoom="1.9555923" objecttolerance="10" pagecolor="#ffffff" showgrid="false">
	</sodipodi:namedview>
<g>
	<path d="M195.4,274.6C195.3,274.6,195.5,274.5,195.4,274.6L195.4,274.6z"/>
	<path d="M354.2,185.4l-50.8-29.3c-4.5-2.6-8.8-5.7-12.5-9.4c-9.2-9.3-14.1-20.4-15-32.8V49.9c0-0.9-0.5-1.7-1.2-2.1L201.3,5.3
		c0,0,0,0,0,0c-0.6-0.4-1.4-0.4-2.1-0.2c0,0-0.1,0-0.1,0c0,0,0,0,0,0c-0.1,0-0.2,0.1-0.3,0.1c0,0,0,0,0,0l-73.6,42.5
		c-0.8,0.4-1.2,1.2-1.2,2.1v84.6c0,0.1,0,0.2,0,0.3c0,0.8,0.4,1.5,1,2c0.1,0.1,0.2,0.1,0.2,0.2c0,0,0,0,0,0l35.7,20.6
		c1.1,0.6,2.4,0.3,3.2-0.6c2.7-3.5,5.8-6.6,9.2-9.1c0.9-0.7,1.9-1.2,3-1.5c5.8-1.7-1.6,6.5-6.1,12.5c-6.3,7.4-9.9,17.1-9.2,27.7
		c1.2,19.4,16.8,35.2,36.2,36.6c22.8,1.6,41.9-16.5,41.9-39c0-21.5-17.5-39.1-39.1-39.1c-1.5,0-3.1,0.1-4.6,0.3
		c-3.9-0.2-2.9-2.1,0.1-3.8c3.5-2,7.7-2.6,11.8-1.9c11.3,1.8,21.5,7.9,28.7,17.3c0.5,0.6,1.2,1,2,1c0.4,0,0.8-0.1,1.2-0.3l19.1-11
		c1.7-1,3.6-1.6,5.5-1.6c3.5-0.1,4.3,1.6,2.7,3.9c-0.8,1.1-1.8,1.9-3,2.6l-20.9,12c-1.1,0.6-1.5,1.9-1,3.1
		c2.3,5.6,3.5,11.5,3.5,17.5c0,22.7-17,41.9-39.5,44.7c-1.2,0.2-2.1,1.2-2.1,2.4l0,16.6c0,0.8-0.1,1.7-0.4,2.4
		c-2.2,6.8-5.8-11.9-6.5-18.9c0,0.2,0,0.3,0,0.5v-0.7c0-1.2-0.9-2.3-2.1-2.4c-22.5-2.8-39.5-22-39.5-44.7c0-6.1,1.2-12,3.5-17.6
		c0.5-1.1,0-2.4-1-3.1l-35.7-20.6c-0.1,0-0.2-0.1-0.2-0.1c-0.7-0.3-1.5-0.3-2.2,0.1l-73.6,42.5c-0.8,0.4-1.2,1.2-1.2,2.1l0,85
		c0,0.4,0.1,0.8,0.3,1.1l1.1,2c11,26.1-8.1,68,12.5,68.3c19.1-0.2-15.9-65.9,10.8-55.8l50.2,29c0.4,0.2,0.8,0.3,1.2,0.3
		s0.8-0.1,1.2-0.3l73.6-42.5c0.8-0.4,1.2-1.2,1.2-2.1v-13v-2.3c0-1.8,1.9-0.7,2.9,0.8c1.2,1.8,2.4,4.9,3.1,7.8
		c0.5,2,0.8,4.6,0.8,6.7l0,0c0,0,0,0,0,0c0,0,0,0,0,0c0,0.9,0.5,1.7,1.2,2.1l57.5,33.2c3.4,2,6.5,4.6,8.8,7.8
		c18.9,25.9-13.8,72.5,4.6,78.9c1.9,0.7,4,0.7,5.9,0.3c21.7-4.5-1.6-43.3,5.4-71c1.9-7.7,7-14.2,13.9-18.2l53.6-31
		c0.4-0.3,0.7-0.7,0.9-1.2c0.1-0.2,0.1-0.5,0.1-0.8l0-85C355.5,186.6,355,185.8,354.2,185.4z M200.8,204.8
		c19.9-0.1-11.6-52.7,10.2-51.8c3.2,0.1,6.3,1.4,8.9,3.3c9.1,6.5,14.8,17.3,14.3,29.4c-0.9,18.2-16.2,32.7-34.5,32.5
		c-18.7-0.2-33.8-15.4-33.8-34.2c0-9.3,3.7-17.7,9.7-23.8c3.2-3.3,7.4-5.7,11.9-6.3C210.7,150.7,177.9,202.4,200.8,204.8z
		 M186.3,134.1c-2.2,1.9-4.8,3.5-7.4,4.8c-5.5,2.6-10.5,6.2-14.8,10.7c-1.5,1.6-4,1.9-6,0.8l-19.4-11.2c-3.3-1.9-3.3-6.6,0-8.5
		l38.6-22.3c1.3-0.7,2.7-1.3,4.1-1.6C193.7,104.3,201.1,121.3,186.3,134.1z M197.6,88.1c0,1.8-0.9,3.4-2.5,4.3l-58.9,34
		c-3.3,1.9-7.4-0.5-7.4-4.3v-68c0-1.8,0.9-3.4,2.5-4.3l58.9-34c3.3-1.9,7.4,0.5,7.4,4.3L197.6,88.1z M123,157.7
		c0-3.8,4.1-6.1,7.4-4.3l20.3,11.7c1.4,0.8,2.1,2.5,1.6,4.1c-1.5,4.8-2.2,9.7-2.2,14.8c0,18.3,9.9,34.5,24.9,43.2
		c16.9,10.8,13.6,25.1-7.3,22.8c-6.2-0.7-12.1-2.8-17.5-5.9L125.5,230c-1.5-0.9-2.5-2.5-2.5-4.3L123,157.7z M49.4,259.7l0-68
		c0-1.8,0.9-3.4,2.5-4.3l58.9-34c3.3-1.9,7.4,0.5,7.4,4.3v68c0,1.8-0.9,3.4-2.5,4.3l-58.9,34C53.5,265.8,49.4,263.5,49.4,259.7z
		 M181.9,276.7l-58.9,34c-1.5,0.9-3.4,0.9-4.9,0l-58.9-34c-3.3-1.9-3.3-6.6,0-8.5l58.9-34c1.5-0.9,3.4-0.9,4.9,0l58.9,34
		C185.1,270.1,185.1,274.8,181.9,276.7z M191.7,267c0,0.5-0.6,0.9-1.1,0.6l-10.3-6c-7.5-5.7,10-12.8,11.4-7.2V267z M261.3,139.1
		l-19.4,11.2c-1.9,1.1-4.4,0.8-5.9-0.8c-5.9-6.2-13.1-10.6-21.1-13.1c-18.9-10.8-15.4-40.7,4.8-29.8l41.6,24
		C264.6,132.5,264.6,137.2,261.3,139.1z M263.8,126.4l-58.9-34c-1.5-0.9-2.5-2.5-2.5-4.3l0-68c0-3.8,4.1-6.1,7.4-4.3l58.9,34
		c1.5,0.9,2.5,2.5,2.5,4.3v68C271.2,125.9,267.1,128.3,263.8,126.4z M208.3,259.7l0-22.4c0-2.2,1.5-4.2,3.7-4.7
		c22-5.4,38-25.3,38-48.5c0-4.7-0.7-9.4-2-13.9c-0.6-2.1,0.3-4.4,2.3-5.5l19.3-11.2c3.3-1.9,7.4,0.5,7.4,4.3v68
		c0,1.8-0.9,3.4-2.5,4.3l-58.9,34C212.4,265.9,208.3,263.5,208.3,259.7z M340.8,276.7l-58.9,34c-1.5,0.9-3.4,0.9-4.9,0l-58.9-34
		c-3.3-1.9-3.3-6.6,0-8.5l58.9-34c1.5-0.9,3.4-0.9,4.9,0l58.9,34C344,270.1,344,274.8,340.8,276.7z M347.4,266.4l-3.5-2
		c-2.8-1.6-4.9-4.3-5.4-7.5c-1.7-9.2,11.8-8.3,12.1-4l0,11.6C350.6,266.2,348.8,267.2,347.4,266.4z M350.6,208.1
		c-1.8,25.7-5.7,38.8-37.3,35.6c-4.2-0.4-8.3-1.8-12-3.9l-16.9-9.8c-1.5-0.9-2.5-2.5-2.5-4.3l0-68c0-3.8,4.1-6.1,7.4-4.3l57.5,33.2
		c2.3,1.3,3.8,3.8,3.8,6.5L350.6,208.1z"/>
</g>
</svg>
