<?xml version="1.0" encoding="utf-8"?>
<!-- Generator: Adobe Illustrator 23.0.1, SVG Export Plug-In . SVG Version: 6.00 Build 0)  -->
<svg version="1.1"
	 id="svg6" inkscape:version="0.92.1 r15371" sodipodi:docname="redhat.svg" xmlns:cc="http://creativecommons.org/ns#" xmlns:dc="http://purl.org/dc/elements/1.1/" xmlns:inkscape="http://www.inkscape.org/namespaces/inkscape" xmlns:rdf="http://www.w3.org/1999/02/22-rdf-syntax-ns#" xmlns:sodipodi="http://sodipodi.sourceforge.net/DTD/sodipodi-0.dtd" xmlns:svg="http://www.w3.org/2000/svg"
	 xmlns="http://www.w3.org/2000/svg" xmlns:xlink="http://www.w3.org/1999/xlink" x="0px" y="0px" viewBox="0 0 400 400"
	 style="enable-background:new 0 0 400 400;" xml:space="preserve">
<sodipodi:namedview  bordercolor="#666666" borderopacity="1" gridtolerance="10" guidetolerance="10" id="namedview8" inkscape:current-layer="svg6" inkscape:cx="88.766781" inkscape:cy="93.256545" inkscape:pageopacity="0" inkscape:pageshadow="2" inkscape:window-height="1017" inkscape:window-maximized="1" inkscape:window-width="1920" inkscape:window-x="1358" inkscape:window-y="-8" inkscape:zoom="2.8284271" objecttolerance="10" pagecolor="#ffffff" showgrid="false">
	</sodipodi:namedview>
<g>
	<path d="M242.8,304.7c-0.3,0-0.6,0.3-0.6,0.3c-2.5,2.8-3.8,4.1-5.3,5.3c-4.4,3.4-9.4-0.3-12.5-2.2c-7.2-4.1-12.8-1.6-14.4,1.6
		c-1.3,3.1,0.3,7.2,4.1,6.6c5.3-0.6,5.6,0,9.7,2.5c7.5,4.7,12.8,2.2,15.3,0c2.2-1.9,3.4-3.4,4.7-5.6c2.2-4.1,0.4-7.4-0.5-8.3
		C243.3,304.9,243.1,304.7,242.8,304.7z"/>
	<path d="M200,21.3C92.1,21.3,4.8,108.6,4.8,216.2c0,16.9,2,33.6,6.1,48.9c2.1,7.9,9.2,13.3,17.4,13.3h0.3c11.9,0,23.1-2.8,32.5-7.5
		c2.5-1.3,5-1.9,7.8-1.9c5.9,0,11.3,2.5,14.4,7.8c1.1,1.8,2,3.4,3.1,4.7c2.6,3.4,4.5,7.4,5.4,11.7c7.9,35.2-20.3,82.3,9.2,85.6
		c27.3,0.1-14.1-57,5.7-86.9c1-1.5,2.3-2.7,3.6-3.9c0.5-0.4,0.9-1,1.1-1.7c1.3-3.1-0.3-5.3-4.1-6.9c-5.3-2.2-6.6-5.3-9.4-10.3
		c-2.8-5-8.8-7.5-9.7-16.9c-0.9-9.4,6.3-21,20.6-17.2c10.3,2.8,16.9,15.3,19.4,19.7c1.3,2.2,5.9,5,9.7,1.6c3.8-3.4,7.2-3.4,10,0.9
		c2.5,3.8,20,27.2,39.1,27.8c19.4,0.6,29.7-4.4,38.2-4.1c5.9,0.3,8.8,3.1,12.2,3.8c1.9,0.3,3.6,0,5.3-0.7c2.8-1,5.8-1.2,8.7-0.7
		c15.2,2.7,24.5,9.7,28.9,17.4c2.5,4.3,3,9.5,1.5,14.3l0,0.1c-1.6,5.9-6.9,13.1-8.4,15.3c-4.7,7.2-8.1,9.4-12.2,16.9
		c-4.4,8.4-11.6,16.3-13.5,18.8c-2.5,3.1,13.5,0,19.1-5.3c4.7-4.4,13.1-18.1,26.6-21.3c9.1-1.9,10.6-5.3,9.7-8.8
		c-0.3-0.3-0.3-0.9-0.3-1.3c0-1.3,0.6-2.2,1.9-2.8c9.4-3.8,21.9-6.3,35.7-6.3c4.8,0,9.5,0.3,14.2,1c6,0.8,11.9-2,14.8-7.3
		c16.3-28.7,25.8-61.6,25.8-96.9C395.2,108.9,307.9,21.3,200,21.3z M83.7,139.4c0.7-0.5,1.5-0.7,2.3-0.7c6.3-0.3,13.3-0.1,20.6,0.6
		c1.2,0.1,1.9,1.3,1.5,2.4c-1.6,4-2.2,8.2-1.1,12.7C109.5,163.5,76.2,144.8,83.7,139.4z M286.6,290.5c-1.4,3.9-5.9,1.6-8.4-1
		c-2-2.1-3.7-5.4-1-6.4c5.8-1.9,12.2-5,12-2.7C289,283.1,287.8,286.9,286.6,290.5z M358.9,212.7c-9.4,51.3-93.5,68.5-175.2,43.8
		C121.1,237.7,64.9,203.9,49,177c-9.3-24.8,53-15.5,74.1-3.1c0.8,0.6,1.7,1.2,2.7,1.7c0.1,0.1,0.2,0.2,0.3,0.2
		c0.1,0.1,0.2,0.1,0.3,0.2c14.9,8.5,35.2,16.2,52.8,21.3c3.7,1.1,7.1,2.9,9.8,5.6c16.5,16.2-2.8,46,12.1,46.1
		c13.4,0.2-3.7-25.4,6.1-40.1c2-2.9,5.1-4.9,8.4-5.9c3.1-0.9,4.8-3,1.7-5.1c-4.1-2.8-7.8-8.4-10.3-18.1c-1.3-5.3-2.8-13.1-32.2-18.8
		c-63.2-12.2-60.7-30-58.8-40c0,0,5.6-25.3,7.8-34.1s8.4-29.1,49.1-20c20.7,4.7,33.1,0.2,40-2.1c1.6-0.5,3.3-0.8,5-0.8
		c8.7-0.1-2.4,6.3-9.1,10.8c-0.1,0,0,0.2,0,0.2l1.9,0.3c0.6,0.1,1.2,0.1,1.8,0.1c11.8-1.1,21.3,1.5,21.9,5.1c0.3,2.8-5,5.9-12.8,7.8
		c-0.4,0.1-0.6,0.6-0.6,0.9s0.1,0.8,0.6,0.9c3.1,0.9,7.2,1.6,11.3,1.6c12.5,0.3,22.8-5,22.8-10.9c0.5-4.8-6.6-10-16.4-11.5l-2-0.3
		c-3.9-0.8-2.2-4.3,4.1-5.1c1.4-0.2,2.9-0.1,4.2,0.3c6.8,1.9,12.9,5,17.4,9.6c11.3,11.6,26.6,46.6,33.8,73.2
		c3.8,13.5,2.8,19.7,0.9,24.4c-1.3,3.1-2.2,5-6.9,12.8c-0.9,1.3,0,2.8,1.6,1.9c6.3-3.3,10.1-7,12.6-10.8c1-1.6,2.6-2.7,4.4-3
		c14.5-2.5-7.8,46.8,8.1,47c21.9-1.1-12.6-48.4,9.9-47.7c2.4,0.1,4.7,0.7,6.9,1.8C352.5,182.3,361.9,195.9,358.9,212.7z"/>
	<path d="M180,101.7c-9.4,0-16.3,1.3-22.2,1.3c-5.9,0-10.6-4.1-12.5-6.9c-1.9-2.2-7.5-4.4-10.3,2.8c-2.8,6.5,1.5,13.2,5.8,15.1
		c1,0.5,1.8,1.2,2.4,2.1c2.3,3.6,8.1,11.6,12.8,6.4c4.1-4.4,6.6-6.9,29.1-8.4c10.6-0.9,11.9-3.1,11.6-5.9
		C195.9,105.1,189.4,101.7,180,101.7z"/>
</g>
</svg>
