<?xml version="1.0" encoding="utf-8"?>
<!-- Generator: Adobe Illustrator 23.0.6, SVG Export Plug-In . SVG Version: 6.00 Build 0)  -->
<svg version="1.1" id="Layer_1" xmlns="http://www.w3.org/2000/svg" xmlns:xlink="http://www.w3.org/1999/xlink" x="0px" y="0px"
	 viewBox="0 0 400 400" style="enable-background:new 0 0 400 400;" xml:space="preserve">
<path d="M204.3,279.9c-34.1-0.1-60.7-9-84.2-26.6c-28.4-21.2-46.2-49.3-53.2-84.2c-6.6-32.5-1.9-63.7,13.8-92.6
	c20.5-37.9,52.3-61.5,94.9-69.7c8.7-1.7,17.8-2.6,26.7-2.4c33.3,1,62.8,12.2,87.8,34.7c23.6,21.2,38.1,47.6,43.7,78.6
	c5.8,32.2,0.6,63-15.3,91.8c-16.7,30.3-41.5,51.1-73.9,62.8C230.2,277.6,215.1,280.5,204.3,279.9z M168,188.4
	c-0.1,1.2-1.8,1.4-2.2,0.3c-1.4-4.2-2.7-8.4-4.2-13.1c-0.3-1-1.7-0.9-1.9,0.1c-1.6,7.7,0.7,14.3,3,20.8c2,5.7,5.8,6.7,10.6,3
	c1.2-0.9,2.3-2,3.3-3.1c4.2-4.4,8.4-8.9,12.6-13.3c3.3-3.5,4.3-3.6,8-0.8c3.2,2.4,6.4,4.9,9.5,7.4c7.4,5.7,14.6,11.5,22.1,16.9
	c6,4.4,12.3,2.3,14.5-4.6c0.5-1.6,0.9-3.2,1.2-4.8c7.5-36.8,15.1-73.7,22.5-110.5c0.9-4.7,0.8-6.3-0.2-8.9c-1.4-3.5-4.9-3.7-8-1.6
	c-6.3,4.3-12.4,8.8-18.4,13.5c-1.9,1.5-3.2,2.8-4.4,5c-0.8,1.5-0.8,2.9,0.8,3.7c3.5,1.7,3.3,2.5,0.3,5.3
	c-6.4,5.8-12.1,11.1-18.9,16.3c-12,9.2-19.5,20.6-20.8,35.9c-0.2,2.8-1.9,5.9-3.8,8.1c-4.5,5.2-9.4,4.6-13.3-1.1
	c-0.4-0.6-0.8-1.1-1.2-1.7c-1.6-2.5-3.2-2.3-5.5-0.6c-3.5,2.6-3.9,6.1-4.2,9.9C169,176.4,168.5,182.4,168,188.4z M207.3,108.6
	c0.5-1,0.6-2.2,0.3-3.3c-1-2.8-2.4-3.3-5.6-3.6c-7.7-0.5-15.2-0.1-22.5,2.8c-20.9,8.2-41.9,16.3-62.8,24.5c-2.2,0.9-4.3,1.9-6.2,3.3
	c-1.2,0.9-2.6,2.7-2.4,3.9c0.2,1.1,2.1,2.3,3.6,2.8c9.3,3.2,18.7,6.3,28,9.3c5,1.6,9.9,2.6,10.5,8.1c0.1,1.6,0.8,2.6,1.8,2.6
	c0.6,0,1.2-1,1.5-1.7c0.4-0.9,0.6-1.9,0.5-2.8c-0.2-3,1.3-4.7,3.8-6.3c7.6-4.6,14.9-9.6,22.6-14c9.7-5.5,17.8-12.7,24.4-21.6
	C206,111.4,206.7,109.9,207.3,108.6z"/>
</svg>
