<?xml version="1.0" encoding="utf-8"?>
<!-- Generator: Adobe Illustrator 22.0.0, SVG Export Plug-In . SVG Version: 6.00 Build 0)  -->
<!DOCTYPE svg PUBLIC "-//W3C//DTD SVG 1.1//EN" "http://www.w3.org/Graphics/SVG/1.1/DTD/svg11.dtd">
<svg version="1.1" id="Layer_1" xmlns="http://www.w3.org/2000/svg" xmlns:xlink="http://www.w3.org/1999/xlink" x="0px" y="0px"
	 viewBox="0 0 400 400" enable-background="new 0 0 400 400" xml:space="preserve">
<g>
	<path d="M202.5,382.8c-45.3-0.1-80.6-12-111.8-35.3C53,319.4,29.3,282.1,20,235.8c-8.7-43.2-2.5-84.6,18.3-123
		c27.3-50.3,69.5-81.7,126-92.6c11.6-2.2,23.7-3.5,35.5-3.1c44.3,1.3,83.4,16.2,116.6,46c31.3,28.2,50.6,63.1,58,104.3
		c7.7,42.8,0.8,83.6-20.3,121.8c-22.1,40.2-55.1,67.8-98.1,83.4C236.9,379.7,216.9,383.5,202.5,382.8z M154.3,261.3
		c-0.1,1.7-2.5,1.9-3,0.3c-1.8-5.6-3.6-11.2-5.6-17.4c-0.4-1.3-2.3-1.2-2.6,0.1c-2.1,10.2,0.9,19,4,27.7c2.7,7.6,7.7,8.9,14.1,4
		c1.6-1.2,3-2.7,4.4-4.2c5.6-5.9,11.1-11.8,16.7-17.7c4.4-4.6,5.7-4.8,10.7-1c4.3,3.2,8.4,6.6,12.7,9.8c9.8,7.5,19.4,15.2,29.4,22.5
		c8,5.8,16.3,3,19.2-6.1c0.7-2.1,1.2-4.3,1.6-6.4c10-48.9,20.1-97.8,29.8-146.8c1.2-6.2,1.1-8.4-0.2-11.8c-1.8-4.6-6.5-5-10.6-2.2
		c-8.4,5.7-16.5,11.6-24.5,17.9c-2.5,2-4.3,3.7-5.9,6.6c-1.1,2-1.1,3.9,1,4.9c4.7,2.3,4.4,3.4,0.4,7c-8.5,7.7-16.1,14.8-25.1,21.7
		c-15.9,12.2-25.9,27.3-27.6,47.7c-0.3,3.7-2.6,7.8-5.1,10.7c-5.9,6.9-12.5,6.1-17.6-1.4c-0.5-0.8-1-1.5-1.5-2.3
		c-2.1-3.3-4.3-3-7.3-0.8c-4.6,3.4-5.2,8.1-5.5,13.1C155.7,245.3,155,253.3,154.3,261.3z M206.6,155.4c0.7-1.4,0.8-2.9,0.3-4.4
		c-1.3-3.7-3.2-4.4-7.5-4.7c-10.2-0.7-20.2-0.1-29.8,3.7c-27.7,10.9-55.6,21.7-83.3,32.6c-2.9,1.1-5.8,2.5-8.2,4.4
		c-1.6,1.2-3.4,3.6-3.2,5.2c0.2,1.5,2.8,3.1,4.7,3.7c12.4,4.2,24.8,8.3,37.2,12.3c6.6,2.1,13.1,3.4,14,10.8c0.2,2.1,1.1,3.5,2.4,3.5
		c0.8,0,1.7-1.3,2-2.2c0.5-1.2,0.8-2.5,0.7-3.8c-0.2-4,1.7-6.3,5-8.3c10.1-6.1,19.8-12.8,30-18.6c12.8-7.4,23.6-16.9,32.4-28.7
		C204.8,159.1,205.7,157,206.6,155.4z"/>
</g>
</svg>
