<?xml version="1.0" encoding="utf-8"?>
<!-- Generator: Adobe Illustrator 23.0.6, SVG Export Plug-In . SVG Version: 6.00 Build 0)  -->
<svg version="1.1"
	 id="svg2" xmlns:cc="http://creativecommons.org/ns#" xmlns:dc="http://purl.org/dc/elements/1.1/" xmlns:inkscape="http://www.inkscape.org/namespaces/inkscape" xmlns:rdf="http://www.w3.org/1999/02/22-rdf-syntax-ns#" xmlns:sodipodi="http://sodipodi.sourceforge.net/DTD/sodipodi-0.dtd" xmlns:svg="http://www.w3.org/2000/svg"
	 xmlns="http://www.w3.org/2000/svg" xmlns:xlink="http://www.w3.org/1999/xlink" x="0px" y="0px" viewBox="0 0 400 400"
	 style="enable-background:new 0 0 400 400;" xml:space="preserve">
<path d="M320.7,55.4C291.1,14.7,249.8,0.5,201.4,6.2c-14.3,1.7-28.3,7.5-41.9,12.7c-23,8.9-46.2,17.6-68.1,28.6
	c-25.7,13-34.9,41.9-24.4,67.4c0-0.1,0.4,1.1,0.5,1.2c1.1,2.6,2.2,4.5,3.7,7l0,0c0.6,1,1.4,2.6,1.9,3.6c21.1,48.5-7,95,22,94.1
	c24.2-2.6-10.7-68,3.6-72.2c1.1-0.3,2.2-0.2,3.3,0.3c19.1,8.2,42.3,8.9,62.2,0.2c21.2-9.3,42.4-18.7,63.6-28.1
	c9.9-4.4,13-9.4,12.5-19.7c-0.4-7.8-5.3-15.1-13-17.3l0.1,0c-0.1,0-0.2,0-0.3,0c-0.7-0.2-1.4-0.4-2.1-0.5c-0.6-0.1-1.2-0.2-1.8-0.2
	c-2.2-0.3-4.2-1.1-5.9-2.5c-7.3-6.4-3.8-20.8,7.7-28.7c8.6-6,19.9-6.5,29.4-2c8.9,4.2,17.1,10.3,23.7,18.2
	c23.1,27.4,14.8,65-17.6,80.1c-9.3,4.3-18.7,8.3-28,12.4c-24.6,11-49.1,22-73.7,33c-3.3,1.5-5.1,3.1-2.7,6.7
	c10.9,16.2,21.4,32.7,32.5,48.8c11.3,16.4,17.3,35.8,17.2,55.7c-0.2,28.6-8.2,51.1,12.2,51.1c23.7,0.3-14.6-52,7.6-85.5
	c1.4-2.1,3.3-3.8,5.3-5.2c0.3-0.2,0.5-0.4,0.8-0.6c10.3-7.8,11.2-19.7,2.7-32.5c-2.1-3.1-4.1-6.3-6.2-9.6c-2.5-3.8-1-9,3.1-10.9
	c19-8.9,38-17.6,56.9-26.6C337,161.6,352.7,99.5,320.7,55.4z M164.3,100.8L164.3,100.8c-7.3,3.2-14.7,6.3-22.1,9.3
	c-4,1.6-8.6,2.8-12.9,2.7c-8.6-0.1-17.2-8-18.6-15.8c-1.2-7.1,3.2-13.9,11.8-18c2.7-1.3,5.5-2.3,8.3-3.5c19-7.9,38.2-15.4,57-23.7
	c3.3-1.4,6.7-2.3,10.2-2.6C226.6,47.5,189.2,90.2,164.3,100.8z"/>
</svg>
