<?xml version="1.0" encoding="utf-8"?>
<!-- Generator: Adobe Illustrator 23.0.1, SVG Export Plug-In . SVG Version: 6.00 Build 0)  -->
<svg version="1.1"
	 id="svg2" inkscape:version="0.92.1 r15371" sodipodi:docname="clip_studio.svg" xmlns:cc="http://creativecommons.org/ns#" xmlns:dc="http://purl.org/dc/elements/1.1/" xmlns:inkscape="http://www.inkscape.org/namespaces/inkscape" xmlns:rdf="http://www.w3.org/1999/02/22-rdf-syntax-ns#" xmlns:sodipodi="http://sodipodi.sourceforge.net/DTD/sodipodi-0.dtd" xmlns:svg="http://www.w3.org/2000/svg"
	 xmlns="http://www.w3.org/2000/svg" xmlns:xlink="http://www.w3.org/1999/xlink" x="0px" y="0px" viewBox="0 0 400 400"
	 style="enable-background:new 0 0 400 400;" xml:space="preserve">
<path d="M334.4,60.8C301.4,15.4,255.5-0.3,201.5,6c-15.9,1.9-31.5,8.3-46.7,14.2c-25.6,9.9-51.4,19.5-75.9,31.9
	c-28.6,14.5-38.9,46.6-27.1,75.1c0-0.1,0.5,1.2,0.6,1.4c1.2,2.9,2.4,5.1,4.1,7.8l0,0c0.6,1.1,1.6,2.9,2.1,4
	c23.5,54-7.8,105.8,24.5,104.8c27-2.9-11.9-75.7,4-80.4c1.2-0.4,2.5-0.2,3.6,0.3c21.3,9.1,47.1,9.9,69.3,0.2
	c23.6-10.4,47.2-20.8,70.8-31.3c11.1-4.9,14.5-10.5,13.9-22c-0.5-8.7-5.9-16.8-14.5-19.3l0.1-0.1c-0.1,0-0.2,0-0.3,0
	c-0.8-0.2-1.5-0.4-2.3-0.5c-0.7-0.1-1.3-0.2-2-0.3c-2.4-0.3-4.7-1.2-6.5-2.8c-8.1-7.1-4.2-23.1,8.6-31.9c9.6-6.6,22.2-7.3,32.8-2.3
	c10,4.7,19,11.5,26.4,20.2c25.7,30.5,16.5,72.4-19.6,89.1c-10.3,4.8-20.8,9.2-31.2,13.8c-27.3,12.2-54.7,24.5-82,36.7
	c-3.7,1.6-5.7,3.5-3,7.5c12.1,18.1,23.8,36.4,36.2,54.3c12.6,18.2,19.3,39.9,19.1,62c-0.2,31.9-9.1,56.9,13.6,56.9
	c26.4,0.4-16.3-57.9,8.4-95.2c1.5-2.3,3.6-4.2,5.9-5.8c0.3-0.2,0.6-0.4,0.9-0.7c11.4-8.7,12.5-22,3-36.1c-2.3-3.5-4.6-7-7-10.6
	c-2.7-4.3-1.1-10,3.5-12.2c21.1-9.9,42.3-19.6,63.3-29.6C352.5,178.9,370.1,109.8,334.4,60.8z M160.3,111.3L160.3,111.3
	c-8.1,3.5-16.3,7-24.6,10.4c-4.5,1.8-9.6,3.1-14.4,3c-9.5-0.2-19.2-8.9-20.7-17.6c-1.4-7.8,3.5-15.5,13.1-20c3-1.4,6.1-2.6,9.2-3.9
	c21.2-8.8,42.5-17.2,63.5-26.4c3.6-1.6,7.5-2.6,11.4-2.9C229.6,51.9,188,99.5,160.3,111.3z"/>
</svg>
