<?xml version="1.0" encoding="utf-8"?>
<!-- Generator: Adobe Illustrator 21.1.0, SVG Export Plug-In . SVG Version: 6.00 Build 0)  -->
<!DOCTYPE svg PUBLIC "-//W3C//DTD SVG 1.1//EN" "http://www.w3.org/Graphics/SVG/1.1/DTD/svg11.dtd">
<svg version="1.1" id="Layer_1" xmlns="http://www.w3.org/2000/svg" xmlns:xlink="http://www.w3.org/1999/xlink" x="0px" y="0px"
	 viewBox="0 0 612 792" enable-background="new 0 0 612 792" xml:space="preserve">
<g>
	<path d="M263.2,296.4c6.5,0.2,19.9,0.6,28.4,0.2c8.5-0.4,40.5-2.5,60.8-2.5c48.1,0.2,96.3,1.2,144.4,1.8c8.6,0.1,17.3-0.6,25.9,0
		c9.8,0.6,14.1,6,17.6,15c4.1,10.8,10.6,20.7,14.8,31.4c2.8,6.9,4.1,14.6,4.9,22.1c0.7,6.3-3.3,9.8-9.9,9.7c-2,0-4,0.2-6-0.1
		c-3.9-0.6-5.4,1.1-5.8,4.8c-1,10.7-2.2,21.3-3.2,31.9c-0.7,7.2-7,13.7-14.3,13.9c-28.7,0.6-57.5,0.9-86.2,1.6
		c-8.8,0.2-17,1.7-25.3,5.8c-15.8,7.8-20.8,35.7-12,50.2c5.5,9.1,10.7,19.4,8.7,30.5c-1.3,7.1-5.4,13.7-7.6,20.8
		c-3,9.5-9.8,15.7-18.2,19.3c-15.3,6.6-30.7-2.8-37.1-17.4c-2.4-5.6-5.6-11.1-6.9-17c-1.3-6-1.8-12.6-0.5-18.5
		c1.6-7,5.2-13.6,8.5-20.1c6.9-13.3,3.5-37.1-8.8-44.7c-10.1-6.2-21.5-10.7-34.5-10.1c-16.6,0.8-33.3,0-50-0.1
		c-3.8,0-5.1,0.7-5.2,5.3c-0.3,16.9-0.9,33.9-2.7,50.6c-0.6,5.2-6,9.8-8.3,15c-2.4,5.5-5.3,11.5-5.1,17.1c0.5,12.1,3,24.2,4.1,36.4
		c0.2,2.7-1.2,6.5-3.2,8.3c-8.2,7.5-16.5,15.3-28,17.4c-3.9,0.7-8.5,1-12.2-0.2c-20.3-7-27.5-30.9-13.7-47.4
		c7.6-9.1,9.5-18.3,6.8-29c-2.2-8.7-3.8-17.9-8.1-25.5c-4.5-7.9-10.9-15.3-18.2-20.8c-20.1-15.2-41.4-28.9-61.7-44.1
		c-13-9.8-25-20.9-37.3-31.6c-4.6-4-9.5-8-13.2-12.8c-3.4-4.2-2-7.6,3-11.3c13.6-10.2,25.9-21.9,39.5-32.1
		c15.9-12,32.3-23.4,48.9-34.4c26.3-17.5,53.1-34.3,79.6-51.6c5.7-3.7,11-5.9,17.6-2.1c6.9,4,11.7,9.2,11.7,17.7
		c0.1,14.6,0,41.7,0.6,43.9c0.6,2.2,1.9,2.5,4.7,2.5C253.1,296.2,256.7,296.2,263.2,296.4z"/>
</g>
</svg>
