<?xml version="1.0" encoding="UTF-8" standalone="no"?>
<svg
   xmlns:dc="http://purl.org/dc/elements/1.1/"
   xmlns:cc="http://creativecommons.org/ns#"
   xmlns:rdf="http://www.w3.org/1999/02/22-rdf-syntax-ns#"
   xmlns:svg="http://www.w3.org/2000/svg"
   xmlns="http://www.w3.org/2000/svg"
   viewBox="0 0 533.33331 533.33331"
   height="533.33331"
   width="533.33331"
   xml:space="preserve"
   id="svg2"
   version="1.1"><metadata
     id="metadata8"><rdf:RDF><cc:Work
         rdf:about=""><dc:format>image/svg+xml</dc:format><dc:type
           rdf:resource="http://purl.org/dc/dcmitype/StillImage" /></cc:Work></rdf:RDF></metadata><defs
     id="defs6"><clipPath
       id="clipPath18"
       clipPathUnits="userSpaceOnUse"><path
         id="path16"
         d="M 0,400 H 400 V 0 H 0 Z" /></clipPath></defs><g
     transform="matrix(1.3333333,0,0,-1.3333333,0,533.33333)"
     id="g10"><g
       id="g12"><g
         clip-path="url(#clipPath18)"
         id="g14"><g
           transform="translate(315.8867,243.583)"
           id="g20"><path
             id="path22"
             style="fill:#000000;fill-opacity:1;fill-rule:nonzero;stroke:none"
             d="m 0,0 c -0.001,-45.904 0,-91.808 -0.002,-137.711 -0.001,-1.459 0.026,-2.921 -0.055,-4.375 -0.147,-2.643 -1.527,-4.114 -4.234,-4.214 -0.68,-0.024 -1.36,-0.027 -2.041,-0.027 -24.897,-0.005 -49.794,-0.011 -74.691,-0.007 -5.46,0 -6.401,0.959 -6.402,6.501 -0.007,48.725 -0.007,97.448 -0.012,146.172 0,4.527 -1.287,5.098 -5.218,2.912 -4.204,-2.336 -7.781,-4.96 -11.361,-8.177 -15.491,-13.919 -28.138,-30.064 -36.978,-49.013 -2.525,-5.413 -3.773,-11.134 -3.744,-17.214 0.116,-24.896 0.052,-49.793 0.048,-74.691 -0.001,-5.79 -0.727,-6.496 -6.596,-6.503 -3.89,-0.004 -7.809,0.282 -11.659,-0.111 -2.15,-0.22 -4.627,-1.067 -6.197,-2.477 -6.975,-6.264 -9.122,-14.484 -7.343,-23.365 1.518,-7.583 4.118,-14.951 6.286,-22.4 2.399,-8.245 3.81,-16.473 0.394,-24.824 -6.182,-15.116 -26.146,-18.998 -36.044,-6.936 -3.662,4.463 -5.299,9.828 -5.205,15.456 0.113,6.687 0.504,13.426 1.513,20.028 2.488,16.29 -0.75,30.138 -11.707,42.512 -1.587,1.626 -2.761,1.976 -3.966,2.044 -6.153,0.349 -6.558,0.661 -6.558,6.873 -0.003,77.901 0.004,155.8 0.006,233.7 0.001,15.561 -0.015,31.121 -0.007,46.682 0.003,4.794 0.798,5.574 5.63,5.575 24.994,0.007 49.988,0.01 74.982,0.003 5.746,-0.002 6.469,-0.755 6.47,-6.642 0.005,-28.693 0.015,-57.385 -0.003,-86.077 -0.003,-5.055 0.148,-11.447 0.472,-14.006 0.324,-2.559 1.116,-5.516 2.101,-7.194 0.985,-1.678 2.432,-3.391 3.647,-4.778 6.032,-6.88 12.923,-7.669 20.804,-3.046 7.394,4.337 12.189,11.078 16.151,18.405 8.425,15.58 12.651,32.383 13.316,49.992 0.579,15.344 0.566,30.711 0.756,46.069 0.081,6.591 0.72,7.274 7.438,7.272 24.41,-0.004 48.822,-0.004 73.232,0.005 5.966,0.002 6.775,-0.763 6.776,-6.66 C 0.002,93.168 0,46.584 0,0" /></g></g></g></g></svg>