<?xml version="1.0" encoding="utf-8"?>
<!-- Generator: Adobe Illustrator 23.0.6, SVG Export Plug-In . SVG Version: 6.00 Build 0)  -->
<svg version="1.1" id="Layer_1" xmlns="http://www.w3.org/2000/svg" xmlns:xlink="http://www.w3.org/1999/xlink" x="0px" y="0px"
	 viewBox="0 0 400 400" style="enable-background:new 0 0 400 400;" xml:space="preserve">
<path d="M98.7,178c-4.6,0-14-0.1-21.1,0c-9.3,0.1-11.5-1.6-13.5-10.7c-0.2-0.8-0.8-2.2-2.6-1.7c-1.7,0.5-6.7,1-8.5-1.9
	c-1.5-2.4-2-5.8-2.1-8.7c-0.1-1.9,2.2-6.4,3.8-9.2s8.5-24.8,8.7-31.9c0.2-7,4.6-8.5,11.9-8.6c23.6-0.2,47.2-0.5,70.8-0.5
	c9.8,0,19.6,0.7,29.4,0.8c12.7,0.2,25.4,0.1,38,0.2c3.1,0,7.8,0.4,9.4,0.2s2.1-1.1,2.2-2.8c0.1-1.6,0-16.6,0.6-25.2
	c0.5-7,9.7-10.7,15.5-6.9c18.4,11.9,37.2,23.2,55.3,35.5c9.6,6.5,18.1,14.6,27.2,21.9c4,3.2,8.2,6,12.1,9.2c0.9,0.7,1.7,1.5,1.7,3.7
	s-2,4.6-3.9,6.3c-7.3,6.2-14.8,12.2-22.4,18.1c-5.5,4.3-11.1,8.6-17,12.4c-10.5,6.9-20.6,14.1-27.4,25c-2.6,4.2-5.8,8-8.3,12.2
	c-2.3,3.8-1.2,7.7,0.7,11.4c2.3,4.5,1.5,11.6-1.7,15.3c-3.2,3.7-11.1,5.4-15.6,3.5c-3.8-1.6-5.9-7.2-5.7-13
	c0.2-5.7-0.3-11.3-4.7-15.8c-4.4-4.5-6.4-9.9-6.1-16.4c0.3-7.1-0.1-19.7-0.3-21.3s-1.4-1.7-2.1-1.7c-14.5,0.3-29.1,0.3-43.5,1.4
	c-5.2,0.4-11.1-0.4-15.7,4c-4.9,4.7-8.7,12.9-7,17.2c0.6,1.5,1.5,3,2.3,4.5c4.5,8.3-0.7,18.7-10,19.2c-3,0.1-6.1-2.1-9-3.4
	c-11.5-4.9-9.6-13.1-4.9-20.8c3.5-5.6,3.6-6.5-1.8-10.3c-3.5-2.5-6.7-5.5-10.5-7.4c-3.6-1.8-5.4-2.8-11.7-3.4
	C104.9,177.8,103.3,178,98.7,178z"/>
</svg>
