<?xml version="1.0" encoding="utf-8"?>
<!-- Generator: Adobe Illustrator 23.0.1, SVG Export Plug-In . SVG Version: 6.00 Build 0)  -->
<svg version="1.1"
	 id="NPM" inkscape:version="0.92.1 r15371" sodipodi:docname="npm.svg" xmlns:cc="http://creativecommons.org/ns#" xmlns:dc="http://purl.org/dc/elements/1.1/" xmlns:inkscape="http://www.inkscape.org/namespaces/inkscape" xmlns:rdf="http://www.w3.org/1999/02/22-rdf-syntax-ns#" xmlns:sodipodi="http://sodipodi.sourceforge.net/DTD/sodipodi-0.dtd" xmlns:svg="http://www.w3.org/2000/svg"
	 xmlns="http://www.w3.org/2000/svg" xmlns:xlink="http://www.w3.org/1999/xlink" x="0px" y="0px" viewBox="0 0 128 128"
	 style="enable-background:new 0 0 128 128;" xml:space="preserve">
<sodipodi:namedview  bordercolor="#666666" borderopacity="1" gridtolerance="10" guidetolerance="10" id="namedview10" inkscape:current-layer="NPM" inkscape:cx="42.403062" inkscape:cy="79.035911" inkscape:pageopacity="0" inkscape:pageshadow="2" inkscape:window-height="705" inkscape:window-maximized="1" inkscape:window-width="1366" inkscape:window-x="-8" inkscape:window-y="245" inkscape:zoom="1.3037281" objecttolerance="10" pagecolor="#ffffff" showgrid="false">
	</sodipodi:namedview>
<title  id="title6">Artboard 5</title>
<path d="M2,41.6v37.2c0,1.9,1.6,3.5,3.5,3.5H33c1.9,0,3.5,1.6,3.5,3.5v0.7c0,1.7,1.4,3.1,3.1,3.1h3.3c1.4,0,2.8,0.2,4.1,0.6
	c15.8,5.2-2.9,33.4,8,34c9.6-0.5-4.4-25.3,7.6-33.7c0.8-0.6,1.4-1.5,1.4-2.6c0-0.7,0-1.6,0-2.5c0-1.7,1.4-3.1,3.1-3.1h55.8
	c1.7,0,3.1-1.4,3.1-3.1V41.6c0-1.7-1.4-3.1-3.1-3.1H5.1C3.4,38.5,2,39.9,2,41.6z M19.6,74.9H12c-1.7,0-3.1-1.4-3.1-3.1v-23
	c0-1.7,1.4-3.1,3.1-3.1h21.4c1.7,0,3.1,1.4,3.1,3.1v12.7c0,6.2-4.3-1.7-6.2-6.5c-0.5-1.2-1.6-2-2.9-2h-1.6c-1.7,0-3.1,1.4-3.1,3.1
	v15.7C22.7,73.6,21.3,74.9,19.6,74.9z M29.6,71.9v-2.5c0-0.7,0.2-1.4,0.6-2c1.6-1.9,3.9,0.2,5.3,3.3c0.9,2-0.6,4.3-2.8,4.3h0
	C30.9,74.9,29.6,73.6,29.6,71.9z M57.1,78v1.1c0,1.7-1.4,3.1-3.1,3.1h-7.6c-1.7,0-3.1-1.4-3.1-3.1V48.9c0-1.7,1.4-3.1,3.1-3.1h14.3
	c2.8,0.4,2.6,4.4-1.9,6.6c-1,0.5-1.7,1.6-1.7,2.7l0,9.4c0,1.7,1.4,3.1,3.1,3.1h1c1.6,0,2.9-1.2,3.1-2.7c1.1-8.7,3.9-17,6-12.3
	c0.4,0.9,0.6,1.8,0.6,2.8v16.5c0,1.7-1.4,3.1-3.1,3.1h-7.6C58.5,74.9,57.1,76.3,57.1,78z M87.8,74.9c-5.5-1,2.6-10.5,3.7-5.3v2.2
	c0,1.7-1.4,3.1-3.1,3.1H87.8z M116,74.9h-0.7c-1.7,0-3.1-1.4-3.1-3.1V56.1c0-1.7-1.4-3.1-3.1-3.1h-0.7c-1.7,0-3.1,1.4-3.1,3.1v15.7
	c0,1.7-1.4,3.1-3.1,3.1h-0.7c-1.7,0-3.1-1.4-3.1-3.1V56.1c0-1.7-1.4-3.1-3.1-3.1h-1.6c-1.3,0-2.4,0.8-2.9,2
	c-3.4,9.3-11,19.6-13.1,12.9V48.9c0-1.7,1.4-3.1,3.1-3.1H116c1.7,0,3.1,1.4,3.1,3.1v23C119.1,73.6,117.7,74.9,116,74.9z"/>
</svg>
