<?xml version="1.0" encoding="utf-8"?>
<!-- Generator: Adobe Illustrator 21.1.0, SVG Export Plug-In . SVG Version: 6.00 Build 0)  -->
<!DOCTYPE svg PUBLIC "-//W3C//DTD SVG 1.1//EN" "http://www.w3.org/Graphics/SVG/1.1/DTD/svg11.dtd">
<svg version="1.1" id="Layer_1" xmlns="http://www.w3.org/2000/svg" xmlns:xlink="http://www.w3.org/1999/xlink" x="0px" y="0px"
	 viewBox="0 0 400 400" enable-background="new 0 0 400 400" xml:space="preserve">
<g>
	<path d="M127,361.7c1.7,6.7,1.1,12.9-4.6,17.4c-5.9,4.6-12.5,3.8-18.9,0.9c-10.2-4.8-16.6-16.4-14.7-28.4c1-6.7,3.3-13.3,5.6-19.8
		c6.4-18.5,2.4-36.1-9.1-50.3c-21.3-26.3-34.7-55.2-38.7-88.7c-4.1-34.1,0.4-67,16-97.7c22.8-45,59.3-72.3,108.9-82.1
		c24.9-4.9,49.7-3.8,74.6-0.1c25.6,3.8,48.1,14.5,67.8,31.2c4.9,4.2,5.5,7.5,0.7,12.1c-8.8,8.5-10.4,19.4-8.7,30.9
		c0.3,2,2.2,4,3.8,5.4c10.8,9.5,11.7,21.2,2.3,32.2c-3.8,4.4-2.4,23.3,2.1,26.8c0.8,0.7,2.2,1,3.3,0.9c7.3-0.7,8.8,2.7,8.8,9.6
		c-0.3,60.3-0.2,120.5-0.2,180.8c0,2.6,0,5.1,0,8.2c8.4,0,16.1,0.4,23.7-0.1c4.9-0.3,5.7,1.8,5.4,6.8c-0.6,8.6-0.5,17.2,0,25.8
		c0.3,4.5-0.7,6.6-5.3,6.6c-29.9-0.1-59.8-0.1-89.7,0c-5.4,0-5.5-3.3-5.3-7.1c1.2-16.5-1.4-32-9.7-46.6c-2.7-4.7-5.2-6.3-11.1-5.8
		c-21.2,1.9-42.5,3-63.4-2.7c-4.5-1.2-8.2-0.2-9.4,4.8c-1.3,5.5-2.2,11.1-3,16.7c-0.9,6.5-2.6,12.3-9.9,14
		c-7.3,1.6-12.3-2.1-16.1-7.8c-3.6-5.4-7.8-13.2-9-12.7C122,343.6,125.1,354.3,127,361.7z M145.4,63.7c-2.2-0.2-9.5,5.9-12.9,8.8
		c-25.4,21.6-39.4,49.1-43.2,82.3c-3.3,29.4,1.7,56.8,17,82c17.4,28.6,42.2,47,75.3,54.2c14.7,3.2,29.3,3.6,44.2,2.4
		c18.9-1.6,37.3-5.1,54.4-13.5c2-1,4-4.1,4.1-6.3c0.3-25.6,0.3-51.2,0-76.9c0-1.9-0.9-5.6-3.6-5.7s-4,3.1-4.1,4.8
		c-0.5,7.7,0,15.5-0.4,23.3c-0.3,5.3-0.3,11.1-2.1,15.9c-3.6,9.3-16.7,10.2-21.3,1.3c-2.3-4.4-2.6-10.1-2.7-15.3
		c-0.1-7.5,1.3-15.1,1-22.6c-0.4-13.2-1.6-26.3-2.6-39.5c-0.3-4.6,1.7-6.5,6.2-6.4c6.4,0.1,12.8-0.3,19.2,0.1
		c7.3,0.5,12.1-3.1,14.6-9.1c2.6-6.3,1.4-12-4.3-17.2c-10.2-9.2-10.7-19.2-2.5-30.8c0.8-1.1,1.7-2.5,1.5-3.7
		c-1.6-10.4-3.3-20.5-13.1-27.1c-11.6-7.8-24.5-11.3-37.8-14.6c-7.7-1.9-12.3,1.5-14.5,7.8c-1.8,5.2-2.5,11.1-2.1,16.6
		c0.4,5.6,3.1,11,3.8,16.6c0.9,6.3,1.7,12.8,0.8,19c-1.4,9.8-9.4,15.7-18.5,15.2c-8.9-0.5-16.5-7.6-17-17.1
		c-0.3-5.6,1.1-11.2,1.9-16.8c0.6-4.4,2-8.8,2.2-13.3c0.1-3.8-0.7-9.8-2.4-10.3c-1.7-0.5-4.9,6.8-6.9,10.8c-2.1,4.2-3.5,9-6.5,12.5
		c-2.1,2.5-5.7,5-8.6,4.5c-2.9-0.5-4.7-3.2-6.4-6.2c-1.7-3-3.3-8.1-4.7-11.3C151.2,73.5,147.6,64,145.4,63.7z M284.9,323.3
		c-0.8-2-17.1,1.1-16.8,4.9c0.4,6.8,1.6,13.9,4,20.2c0.7,1.9,8.1,3.1,9.8,2.4c1.8-0.8,2.8-4.4,2.9-6.9
		C285.1,337.2,285.7,325.3,284.9,323.3z"/>
</g>
</svg>
