<?xml version="1.0" encoding="utf-8"?>
<!-- Generator: Adobe Illustrator 23.0.1, SVG Export Plug-In . SVG Version: 6.00 Build 0)  -->
<svg version="1.1"
	 id="svg6" xmlns:cc="http://creativecommons.org/ns#" xmlns:dc="http://purl.org/dc/elements/1.1/" xmlns:inkscape="http://www.inkscape.org/namespaces/inkscape" xmlns:rdf="http://www.w3.org/1999/02/22-rdf-syntax-ns#" xmlns:sodipodi="http://sodipodi.sourceforge.net/DTD/sodipodi-0.dtd" xmlns:svg="http://www.w3.org/2000/svg"
	 xmlns="http://www.w3.org/2000/svg" xmlns:xlink="http://www.w3.org/1999/xlink" x="0px" y="0px" viewBox="0 0 400 400"
	 style="enable-background:new 0 0 400 400;" xml:space="preserve">
<sodipodi:namedview  bordercolor="#666666" borderopacity="1" fit-margin-bottom="50" fit-margin-left="0" fit-margin-right="0" fit-margin-top="0" gridtolerance="10" guidetolerance="10" id="namedview8" inkscape:current-layer="svg6" inkscape:cx="124.05739" inkscape:cy="116.58519" inkscape:pageopacity="0" inkscape:pageshadow="2" inkscape:window-height="1017" inkscape:window-maximized="1" inkscape:window-width="1920" inkscape:window-x="1358" inkscape:window-y="-8" inkscape:zoom="4" objecttolerance="10" pagecolor="#ffffff" showgrid="false">
	</sodipodi:namedview>
<path d="M372.2,89.2c-5.8,4.7-14.5,9-26.8,12.9c-1.3,0.4-2.6,0.6-3.9,0.7C327.6,102.8,348.7,82,366,68c0.7-0.6,1.5-1.2,2.3-1.7
	c2-1.3,3.6-2.7,5-4c0,0,0,0,0,0l0,0c3-3,4.5-6,4.5-8.9c0-5.8-4.7-11.2-13.2-15.8c-1.4-0.8-3.1,0.7-2.5,2.2c0.4,1,0.7,2.1,0.7,3.2
	c0,10.1-15,18.2-45,24.8c-27.7,6.1-63.5,10.4-106.8,10.4c-17.6,0-34.2-0.8-49.8-2.1c-2.2-0.2-4.3-0.7-6.4-1.5
	c-16.6-7.1,9.1-22.2,27.1-30.5c14.6-5.7,25.5-14.8,43.4-19.9c6.6-1.6-0.1,4.9-5.4,12.3l0,0c-1.2,1.7-1.4,3.5-1.2,5.1
	c1.2,6.9,15.9,13.6,40.7,11.3c28.3-2.3,37.5-13.3,35.2-24.5c-2.9-14.4-24.5-26.5-63.5-23.1c-49.9,4.6-49.6,27.4-83.4,30.3
	c-13.9,1.2-21.6-2-23.1-7.5c-0.9-5.5,5.8-8.1,13.9-8.7c6.4-0.5,13.8,0.3,18.5,1.9c1.8,0.6,3.9,0.3,5.2-1.1c0.9-1,1.1-1.9,0.8-3.1
	c-1.2-5.2-11.5-7.5-24.5-6.3c-25.1,2.3-25.1,13.6-24.2,18.5c0.2,0.9,0.5,1.8,0.8,2.6c5.8,18.7,4.7,32.8-17.6,32.2
	c-6.8-0.2-13.4-1.8-19.6-4.5c-11.2-4.8-17-10.1-17-16.1c0-1.8,0.3-3.4,1.1-5c0.9-1.8-1-3.7-2.8-2.8c-12,5.5-18.3,10.7-18.3,17.9
	c0.9,10.1,17,20.2,50.2,27.7c31.2,7.8,71,11.8,118.9,11.8c30.7,0,57.5-1.7,80.9-4.9c1.3-0.2,2.7,0,3.9,0.7
	c6.2,3.7,0.1,14.9-12.6,22.7c-3.7,2.2-7.8,3.6-12.1,4c-18.1,1.7-37.8,2.6-59.2,2.6c-48.8,0-88.6-5.2-119.8-11.8
	c-22.6-5.9-36.7-12.1-44-18.6c-1.3-1.1-3.2-0.1-3,1.6c2.4,14,5.9,27.6,10.3,40.8c1.1,3.3-0.1,6.9-2.9,9c-5.2,3.8-10.1,8.5-14.5,14
	c-11,13.9-15.9,30-15,45.9c0.9,15.9,8.7,28.9,21.1,39c13,10.1,30.7,12.1,46.6,9.3c18.9-4.8,23.6-11,31.5,7.7
	c0.3,0.9,0.5,1.7,0.7,2.6c0.9,3.3,2.5,6.4,4.8,9c0.1,0.1,0.2,0.3,0.4,0.4c38.7,52.7-13.5,126.2,25.9,128.6
	c34.5-1.8-23.4-95.1,27.7-103.2c3.2-0.5,6.5-0.5,9.7-0.1c3.6,0.4,7.3,0.6,10.9,0.7c0.1,0,0.2,0,0.3,0l-0.1,0
	c2.4,0.1,4.9,0.1,7.4,0.1h2c18.2,0,37.2-2.9,54.8-8.7c8.6-2.9,16.2-7,22.8-12.7c5.2-4.6,9.1-10.6,11.1-17.3c1.2-4,2.8-8.2,4.5-12.5
	c2.6-6.3,5.9-12.2,9.8-17.7c10.1-14.3,20.4-28.1,30.5-43.6c14.6-26.6,25.1-56.6,31.4-88.8C376.7,89.3,374.1,87.7,372.2,89.2z
	 M238.4,23.2c2.8-1.6,6-2.5,9.2-2.6c17-0.9,27.8,3.1,28.9,9.2c1.2,6.3-8.4,10.7-20.2,11.5c-4.6,0.5-8.4,0.4-11.6-0.2
	c-3.6-0.7-7-2.4-9.4-5.2C230.4,30.2,233.7,25.9,238.4,23.2z M98.9,240c-6.3,0.3-12.6-1.3-18.3-4.3c-3.5-1.9-7-4.2-10.4-6.9
	c-11.8-8.7-20.2-21.1-21.9-35.8c-2.9-13.9,0-26.8,7.8-38.1c0.3-0.4,0.6-0.8,0.9-1.2c1.9-2.4,5.7-1.8,6.9,1
	c3.8,8.9,8.2,17.5,12.7,25.8c9.4,14.5,19.1,27.5,28.6,40.9C110.3,229.6,113.7,239.3,98.9,240z"/>
</svg>
