<?xml version="1.0" encoding="UTF-8" standalone="no"?>
<svg
   xmlns:dc="http://purl.org/dc/elements/1.1/"
   xmlns:cc="http://creativecommons.org/ns#"
   xmlns:rdf="http://www.w3.org/1999/02/22-rdf-syntax-ns#"
   xmlns:svg="http://www.w3.org/2000/svg"
   xmlns="http://www.w3.org/2000/svg"
   viewBox="0 0 533.33331 533.33331"
   height="533.33331"
   width="533.33331"
   xml:space="preserve"
   id="svg2"
   version="1.1"><metadata
     id="metadata8"><rdf:RDF><cc:Work
         rdf:about=""><dc:format>image/svg+xml</dc:format><dc:type
           rdf:resource="http://purl.org/dc/dcmitype/StillImage" /></cc:Work></rdf:RDF></metadata><defs
     id="defs6"><clipPath
       id="clipPath18"
       clipPathUnits="userSpaceOnUse"><path
         id="path16"
         d="M 0,400 H 400 V 0 H 0 Z" /></clipPath></defs><g
     transform="matrix(1.3333333,0,0,-1.3333333,0,533.33333)"
     id="g10"><g
       id="g12"><g
         clip-path="url(#clipPath18)"
         id="g14"><g
           transform="translate(146.2739,174.5537)"
           id="g20"><path
             id="path22"
             style="fill:#000000;fill-opacity:1;fill-rule:nonzero;stroke:none"
             d="m 0,0 c -2.039,-8.859 6.361,-22.406 15.409,-24.505 7.074,-1.641 14.326,-2.871 21.563,-3.383 13.818,-0.978 27.661,-1.138 41.457,0.936 6.564,0.987 13.521,7.191 14.957,13.615 0.908,4.061 -3.843,10.86 -8.827,9.428 -2.412,-0.694 -5.053,-0.596 -7.59,-0.849 C 55.68,-6.882 34.494,-6.068 13.41,-2.504 9.004,-1.759 4.624,-0.867 0,0 M 53.845,24.392 C 76.936,24.007 95.337,43.704 95.435,65.709 95.537,88.874 75.794,107.588 53.817,107.503 31.681,107.418 12.334,89.4 12.23,66.064 12.125,42.566 31.599,23.992 53.845,24.392 m 0.491,131.063 c 9.583,0.507 19.171,0.942 28.748,1.539 12.383,0.772 24.696,2.282 36.665,5.579 5.207,1.434 10.318,3.617 15.059,6.216 4.238,2.324 4.282,6.378 0.218,8.995 -3.523,2.268 -7.463,4.166 -11.479,5.341 -18.908,5.531 -38.352,7.313 -57.97,7.635 -2.779,0.045 -5.009,-1.02 -6.535,-3.299 -1.145,-1.708 -2.103,-3.546 -3.065,-5.368 -3.424,-6.489 -6.711,-8.11 -13.955,-6.817 -3.473,0.62 -3.911,0.301 -4.922,-2.985 -0.783,-2.542 -1.393,-5.223 -2.676,-7.508 -2.889,-5.145 -8.555,-5.661 -12.405,-1.17 -1.464,1.708 -2.545,3.855 -3.373,5.969 -1.283,3.274 -2.052,6.749 -3.301,10.039 -2.425,6.391 -7.195,9.004 -13.815,7.681 -5.115,-1.023 -10.319,-1.807 -15.276,-3.359 -4.704,-1.473 -9.373,-3.403 -13.626,-5.875 -4.043,-2.349 -3.885,-5.966 -0.179,-8.865 1.326,-1.037 2.807,-2.081 4.388,-2.554 8.121,-2.424 16.169,-5.437 24.48,-6.809 17.51,-2.89 35.206,-4.348 53.019,-4.385 M 53.744,212.2 c 9.121,0 18.27,0.457 27.354,-0.123 9.92,-0.633 19.857,-1.784 29.643,-3.515 11.573,-2.048 23.118,-4.506 34.444,-7.623 11.148,-3.067 21.766,-7.649 31.026,-14.895 7.975,-6.24 11.332,-13.78 9.334,-24.223 -3.284,-17.164 -5.553,-34.521 -8.392,-51.773 -3.176,-19.29 -6.504,-38.556 -9.778,-57.83 -0.894,-5.269 -1.85,-10.527 -2.742,-15.797 -1.323,-7.815 -6.572,-12.834 -12.481,-17.28 -9.133,-6.874 -19.527,-11.304 -30.272,-14.916 -5.232,-1.76 -7.363,-5.849 -8.225,-10.648 -0.945,-5.251 5.873,-10.211 10.915,-7.802 6.447,3.08 12.6,6.78 18.869,10.233 0.741,0.408 1.377,1.008 2.119,1.414 4.46,2.442 8.488,0.204 7.976,-4.805 -0.604,-5.905 -1.826,-11.753 -2.921,-17.598 -1.765,-9.423 -3.933,-18.78 -5.392,-28.248 -1.362,-8.845 -5.989,-15.377 -13.179,-20.069 -4.953,-3.231 -10.352,-5.821 -15.705,-8.378 -2.852,-1.362 -5.064,-3.169 -6.934,-5.669 -8.308,-11.107 -11.055,-23.319 -7.744,-36.865 1.154,-4.722 2.177,-9.48 3.077,-14.258 0.822,-4.364 0.671,-8.713 -1.001,-12.922 -2.466,-6.207 -8.145,-10.121 -14.693,-10.089 -6.478,0.033 -12.438,4.066 -14.826,10.028 -1.965,4.908 -1.722,9.982 -1.281,15.11 0.459,5.32 1.12,10.673 0.892,15.978 -0.134,3.129 -2.344,8.35 -2.888,9.253 -0.544,0.902 -1.548,1.512 -2.243,1.416 -0.682,-0.095 -1.516,-1.194 -1.75,-2.006 -0.704,-2.446 -1.023,-5.004 -1.728,-7.45 -0.801,-2.787 -1.449,-5.738 -2.882,-8.198 -3.945,-6.772 -12.169,-7.589 -17.683,-2.027 -3.477,3.508 -4.677,7.938 -4.716,12.665 -0.033,4.005 0.598,8.019 0.499,12.017 -0.075,2.984 -0.6,6.016 -1.378,8.905 -0.717,2.658 -2.712,3.992 -5.646,4.352 -10.854,1.335 -21.674,2.917 -32.16,6.208 -10.73,3.368 -21.111,7.438 -29.663,15.052 -4.654,4.145 -7.721,9.113 -8.768,15.503 -1.609,9.823 -3.824,19.547 -5.739,29.321 -1.073,5.48 -2.069,10.975 -3.082,16.466 -0.468,2.539 -0.302,5.063 2.092,6.507 2.441,1.473 4.81,0.621 7.126,-0.898 3.754,-2.462 7.577,-4.848 11.531,-6.97 4.242,-2.276 7.079,-0.443 7.354,4.315 0.433,7.518 -4.045,12.099 -9.852,15.262 -7.269,3.959 -14.701,7.574 -20.884,13.196 -4.12,3.747 -7.335,8.016 -8.278,13.772 -1.649,10.062 -3.562,20.08 -5.278,30.131 -1.861,10.895 -3.6,21.81 -5.434,32.709 -2.801,16.65 -5.663,33.289 -8.445,49.942 -0.819,4.906 -1.321,9.867 -2.2,14.762 -1.447,8.056 1.19,14.57 7.08,19.981 6.74,6.192 14.772,10.236 23.176,13.506 14.315,5.571 29.206,8.836 44.354,11.418 19.052,3.247 38.183,3.837 57.402,3.453" /></g><g
           transform="translate(178.667,238.793)"
           id="g24"><path
             id="path26"
             style="fill:#000000;fill-opacity:1;fill-rule:nonzero;stroke:none"
             d="m 0,0 c 0,12.868 8.122,21.826 19.85,22.886 10.272,0.929 19.835,-5.805 22.345,-16.397 1.418,-5.98 0.374,-11.475 -2.878,-16.368 -3.279,-4.934 -4.802,-10.257 -5.583,-15.989 -0.322,-2.373 -1.011,-4.75 -1.903,-6.977 -1.03,-2.574 -3.175,-4.009 -6.006,-3.968 -2.679,0.04 -4.674,1.521 -5.748,3.858 -0.901,1.961 -1.535,4.102 -1.92,6.23 -0.813,4.504 -2.473,7.745 -7.141,9.972 C 3.652,-13.241 0.365,-6.483 0,0" /></g></g></g></g></svg>