<?xml version="1.0" encoding="utf-8"?>
<!-- Generator: Adobe Illustrator 22.1.0, SVG Export Plug-In . SVG Version: 6.00 Build 0)  -->
<!DOCTYPE svg PUBLIC "-//W3C//DTD SVG 1.1//EN" "http://www.w3.org/Graphics/SVG/1.1/DTD/svg11.dtd">
<svg version="1.1"
	 id="Layer_1" inkscape:version="0.92.2 (5c3e80d, 2017-08-06)" sodipodi:docname="pandora.svg" xmlns:cc="http://creativecommons.org/ns#" xmlns:dc="http://purl.org/dc/elements/1.1/" xmlns:inkscape="http://www.inkscape.org/namespaces/inkscape" xmlns:rdf="http://www.w3.org/1999/02/22-rdf-syntax-ns#" xmlns:sodipodi="http://sodipodi.sourceforge.net/DTD/sodipodi-0.dtd" xmlns:svg="http://www.w3.org/2000/svg"
	 xmlns="http://www.w3.org/2000/svg" xmlns:xlink="http://www.w3.org/1999/xlink" x="0px" y="0px" viewBox="0 0 400 400"
	 style="enable-background:new 0 0 400 400;" xml:space="preserve">
<sodipodi:namedview  bordercolor="#666666" borderopacity="1" gridtolerance="10" guidetolerance="10" id="namedview7" inkscape:current-layer="Layer_1" inkscape:cx="199.06156" inkscape:cy="278.76168" inkscape:pageopacity="0" inkscape:pageshadow="2" inkscape:window-height="1017" inkscape:window-maximized="1" inkscape:window-width="1920" inkscape:window-x="1358" inkscape:window-y="-8" inkscape:zoom="1.014234" objecttolerance="10" pagecolor="#ffffff" showgrid="false">
	</sodipodi:namedview>
<path d="M289.5,123c5.3-14.9,6.6-30.4,4.7-46c-1.6-13.5-5.8-26.2-14.1-37.1C266.6,22,247.8,13.1,226.2,10
	c-12.2-1.7-24.9-1.3-37.4-1.4c-20.9-0.1-42,0-62.9,0c-4.9,0-9.9,0-14.7-0.5c-4.3-0.4-6.1,0.8-6.1,5.1c0.1,26.6,0.3,53.3,0.3,79.8
	c-0.1,43.8-0.4,87.5-0.5,131.1c0,1.6,0,3.3,0.1,4.9c0.2,2.1,0.9,3.3,2.3,4c3.2,1.6,6.2,3.6,8.3,6.5c28,39.6-24.9,152.3,26.5,152.4
	c50.4-4.3-4.4-106.5,22.5-152.2c2-3.5,5-6.2,8.2-8.6c2.8-2.1,4-5.8,4-11.5l0-32c0-4,3.2-7.3,7.3-7.4c1.5,0,3-0.1,4.4-0.1
	c12.1,0,24-0.8,35.7-3.3c2.3-0.5,4.6-0.6,6.9,0c22.2,5.6,9.2,47.6,13.1,70c1.9,10.7,14.5,16.1,23.2,9.6c16.1-12-8.6-48.7,8.7-102.7
	c2-6.4,4.9-12.5,8.1-18.4C286.2,131.4,288,127.4,289.5,123z"/>
</svg>
