<?xml version="1.0" encoding="utf-8"?>
<!-- Generator: Adobe Illustrator 23.0.6, SVG Export Plug-In . SVG Version: 6.00 Build 0)  -->
<svg version="1.1" id="Layer_1" xmlns="http://www.w3.org/2000/svg" xmlns:xlink="http://www.w3.org/1999/xlink" x="0px" y="0px"
	 viewBox="0 0 400 400" style="enable-background:new 0 0 400 400;" xml:space="preserve">
<path d="M229,257c0.5-4.2,1.2-4.5,1.8-7.5c0.6-3.3,1.4-6.6,1.5-10c0.1-4.8-1.9-8.8-5.5-12.1c-4.6-4.2-8.9-8.9-13.4-13.2
	c-1.7-1.6-1.5-2.9-0.8-4.9c0.9-2.6,1.9-5.4,1.7-8.1c-0.1-2.4-1.6-4.7-2.7-6.9c-0.7-1.4-1.7-1.4-3-0.2
	c-12.2,12.3-24.4,24.5-36.6,36.7c-3.1,3.1-6.2,6.1-9.2,9.2c-1.2,1.3-1.9,1.3-3.2,0c-12.3-12.4-24.7-24.8-37.1-37.2
	c-19.3-19.2-38.6-38.3-57.9-57.4c-2.6-2.6-2.6-2.6-0.1-5.1c13.5-13.4,27.1-26.7,40.6-40.1c18.1-18,36.1-36,54.1-54.1
	c1.5-1.5,2.3-1.8,3.9-0.1c7.7,8,15.6,15.8,23.6,23.6c1.7,1.7,2.4,3.2,1.6,5.5c-1,3.1-0.6,6.2,1.5,8.9c2.3,2.9,4.5,3,7.1,0.4
	c13.3-13.3,26.6-26.6,39.9-40c1.6-1.7,2.6-1.9,4.4-0.1c18.4,18.5,36.9,37,55.4,55.4c13.3,13.3,26.6,26.5,40,39.7
	c1.4,1.4,1.2,2.1-0.1,3.4c-28.1,28-56.2,56-84.2,84.2c-7.4,7.4-8.8,16.7-6.5,26.6c0.6,2.8,1.9,5.5,2.4,8.3
	c1.3,6.7-4.4,11.4-10.9,9.1C232.3,269.2,228.4,261.2,229,257z M237.3,168.8c0.4-2.2-3.2-12.8-7.3-17.3c-7.9-8.8-16.7-16.8-25.2-25.1
	c-6.4-6.4-12.8-12.8-19.3-19.2c-0.4-0.4-0.8-1.1-1.4-1s-0.5,1.2-0.4,1.8c0.1,1.9,0.5,3.7,0.5,5.6c0.1,4-2.2,6.9-5.7,7.2
	c-3.2,0.3-5.7-1.8-6.7-5.7c-1-4,0.3-7.7,1.3-11.5c0.7-2.5,1.3-5.1,1.4-7.7c0.1-2.2-1.1-3.7-3.4-4.5c-1.2-0.4-2.4-1.2-3.4-2.1
	c-1.8-1.6-3.5-3.3-5-5.1c-1.2-1.4-2.1-1.4-3.4,0c-19.1,19.1-38.3,38.2-57.4,57.3c-1.1,1-0.9,1.6,0.1,2.6
	c6.9,6.8,13.7,13.6,20.6,20.4c12.2,12.2,24.5,24.4,36.7,36.7c1.4,1.4,2.2,1.5,3.6,0c5.6-5.8,11.3-11.5,17.1-17.1
	c1.3-1.3,0.8-2.2-0.1-3.2s-0.7-0.7-1.1-1.1c-5.2-4.8-10.3-9.8-15.7-14.4c-1.7-1.5-4-2.5-6.2-3.3c-2.5-0.9-3.6,0.1-3.3,2.7
	c0.2,1.9,0.7,3.7,0.8,5.5c0.3,4.8-4.1,8.1-8.5,6.1c-1.9-0.9-3.9-2.8-4.5-4.7c-0.9-2.4-0.8-6.7-0.6-8c0.2-1.3,0.3-1.8,0.6-2.7
	c2.1-5.5,1.9-11-0.1-16.4c-1-2.7-0.6-4.6,1.6-6.7c4.7-4.3,9.1-8.9,13.6-13.4c2.6-2.6,3.9-1.7,5-0.6c1.1,1.1,0.6,0.6,2,2
	c0,0,10.4,10.4,15.5,15.6c6.5,6.6,13.1,13.1,19.7,19.6c5.9,5.9,11.9,11.7,17.9,17.5c2.3,2.2,3.7,4.3,2.7,7.9
	c-1.1,3.9-0.3,7.9,2.3,11.3c1,1.3,2.1,1.9,3.4,0.2c1.3-1.6,2.9-2.8,4.3-4.4c0.9-1,1.5-0.9,2.4,0c1.8,1.9,3.8,3.6,5.5,5.6
	c1.3,1.5,2.2,1.7,3.7,0.1c18.9-19,37.8-37.9,56.8-56.8c1.5-1.5,1.1-2.1-0.1-3.3c-12.4-12.4-24.8-24.8-37.2-37.2
	c-4.7-4.7-9.4-9.3-14-14c-1.2-1.2-1.9-1.2-2.6,0.3c-0.7,1.6-1.6,3.2-2.1,4.9c-3.7,13.7-1.3,26.2,7.2,37.5c2.9,3.8,6.5,7.1,9.8,10.5
	c1,1,1.1,1.7,0,2.7c-1.9,1.8-3.8,3.6-5.6,5.5c-2.9,3.1-6.7,5.7-6.7,10.6c0,2.1-0.2,4.3,0.2,6.3c0.5,3.1,1.5,6.1,1.9,9.2
	c0.3,2,0.3,4.3-0.3,6.2c-1,3.6-4.5,5.7-7.8,5c-3.3-0.6-5.8-3.8-5.6-7.5c0.1-1.8,0.7-3.6,1.1-5.4C236.5,172.2,237,171,237.3,168.8z
	 M234.7,97.5c0-1.7-1.2-5.4-1.8-8.1c-0.3-1.4-0.9-1.6-2-0.5c-3.7,3.8-7.5,7.6-11.3,11.3c-1,1-0.9,1.5,0.1,2.4c2,1.9,3.9,3.9,5.9,5.9
	c2.2,2.3,3.4,2.3,5.5-0.2C233.7,105.2,234.7,99.2,234.7,97.5z"/>
</svg>
