<?xml version="1.0" encoding="utf-8"?>
<!-- Generator: Adobe Illustrator 23.0.1, SVG Export Plug-In . SVG Version: 6.00 Build 0)  -->
<svg version="1.1"
	 id="pycharm" xmlns:cc="http://creativecommons.org/ns#" xmlns:dc="http://purl.org/dc/elements/1.1/" xmlns:inkscape="http://www.inkscape.org/namespaces/inkscape" xmlns:rdf="http://www.w3.org/1999/02/22-rdf-syntax-ns#" xmlns:sodipodi="http://sodipodi.sourceforge.net/DTD/sodipodi-0.dtd" xmlns:svg="http://www.w3.org/2000/svg"
	 xmlns="http://www.w3.org/2000/svg" xmlns:xlink="http://www.w3.org/1999/xlink" x="0px" y="0px" viewBox="0 0 400 400"
	 style="enable-background:new 0 0 400 400;" xml:space="preserve">
<sodipodi:namedview  bordercolor="#666666" borderopacity="1" fit-margin-bottom="50" fit-margin-left="0" fit-margin-right="0" fit-margin-top="0" gridtolerance="10" guidetolerance="10" id="namedview14" inkscape:current-layer="pycharm" inkscape:cx="103.98699" inkscape:cy="78.20852" inkscape:pageopacity="0" inkscape:pageshadow="2" inkscape:window-height="1017" inkscape:window-maximized="1" inkscape:window-width="1920" inkscape:window-x="1358" inkscape:window-y="-8" inkscape:zoom="2.6074563" objecttolerance="10" pagecolor="#ffffff" showgrid="false">
	</sodipodi:namedview>
<title  id="title6">Artboard 15</title>
<path d="M355.2,267.3l-0.1,0c0-21.6-17.5-39.2-39.2-39.2l-11.3,0c-2.5,0-5.1-0.3-7.5-1.2c-11.2-4-15-15.1-11.5-38.8
	c0.3-1.9,0.8-3.7,1.6-5.4l0,0c11.3-25.1,14.1-53.2,8.1-79.9c-1.1-4.7-5.3-8-10.2-8h-1.8H282c-27.8-0.2-52.2,18.5-59.1,45.5l-0.9,4
	c-5.4,28.2-32.1,42.7-60.3,37.3c-24.5-4.7-42.2-26.1-42.2-51.1c0-1.6,0.2-3.9,0.4-5.8c0.1-0.9,0.3-1.7,0.8-2.4
	c4-6.5,9.7,20.4,17.8,29.8l0-0.2c7,10.8,19.1,18,32.9,18c18.9,0,35.1-13.5,38.6-32c8.1-32.5,37.5-55.8,71-55.8c0.8,0,1.5,0,2.2,0
	h1.7H317c4.2-0.2,8.4-1,12.4-2.5c1-0.4,0.9-1.9-0.2-2.1c0,0,0,0,0,0c-3.3-0.7-6.5-1.6-9.6-2.9c-1.2-0.5-2.2-1.4-2.8-2.5
	c-1.7-3.2,1.3-5.6,7.6-7.4c3.4-1,7-1.5,10.5-1.8c4.4-0.3,8.8-1.3,13.1-2.8c2.4-0.9,4.3-2.8,5.1-5.3c6-18.9-3.1-39.6-21.7-47.7
	c-4.9-2.1-10.1-3.2-15.4-3.2l-28.6-0.1h-6.2c-64.4,0-120.9,40.6-142.3,99.8c-0.9,2.6-3.5,4.3-6.2,4c-9.3-1.2-1.1-21.9,9.9-40
	c13.5-21.3,31.8-39.4,53.7-52.6c3.8-2.3,2.8-8.2-1.6-9C131.5-6,68.5,31.7,50,94.6c-2.4,8.1-4.5,14.3-5.2,22.7c0,1.2,0,2.7,0,3.5V306
	h75c3.3-15.3,15-27.9,28.7-36.6c11.4-7.3,24.5-11.4,37.9-13c25.4-3,49.5-13.6,68.9-30.5c2.2-2,5.1-3.1,8.1-3.1
	c5.5,0.1,5.5,4.4,3,8.7c-1,1.7-2.4,3.3-3.9,4.6c-20.3,17.5-45.3,28.8-71.9,32.5c-3.2,0.4-4.3,4.5-1.8,6.4
	c26.3,20.4,58.8,31.5,92.3,31.5l4.6,0c11.5,0,21.3,8.7,22.4,20.2c2.5,26.8-14.9,69.2,11.2,69.7c23.4,0-7.6-49.9,12-87.3
	c2.4-4.5,5.8-8.4,9.7-11.6c2.5-2.1,4.8-4.6,6.7-7.3c0.2-0.1,0.4-0.3,0.5-0.4l-0.3,0.1C352.6,283.4,355.2,275.7,355.2,267.3z
	 M303.8,26.4L303.8,26.4c1.3-6.6,7.7-10.9,14.3-9.6c6.6,1.3,10.9,7.7,9.6,14.3c-1.3,6.6-7.7,10.9-14.3,9.6
	C306.8,39.4,302.5,33,303.8,26.4z M310.2,59.2c2.7,2.4,1.7,3.4-6.5,1c-3.6-1-6.7-3.4-8.6-6.6c-1.6-2.6-2.9-5.4-4.1-8.3
	c-0.2-0.5,0.4-0.8,0.7-0.4c4.2,5,9.3,9.1,15,12.1C308.1,57.6,309.2,58.3,310.2,59.2z M134.2,262.3c-2.9,7.1-10.3,11.4-13.6,5.2
	c-0.7-1.2-0.9-2.7-0.9-4.1v-9.5c0-3.7,3.7-6.2,7.1-4.9c0.6,0.2,1.2,0.4,1.7,0.6C133.7,251.5,136.3,257.3,134.2,262.3z"/>
</svg>
