<?xml version="1.0" encoding="utf-8"?>
<!-- Generator: Adobe Illustrator 23.0.6, SVG Export Plug-In . SVG Version: 6.00 Build 0)  -->
<svg version="1.1" id="Layer_1" xmlns="http://www.w3.org/2000/svg" xmlns:xlink="http://www.w3.org/1999/xlink" x="0px" y="0px"
	 viewBox="0 0 400 400" style="enable-background:new 0 0 400 400;" xml:space="preserve">
<path d="M137.5,156.7c0-4.9-11.3,5.2-15.6,10.4c-4.4,5.3-7.4,11.8-7.5,17.5c0,4.6,0.7,9.1,0.6,13.7c-0.1,3.2-0.6,6.5-1.8,9.4
	c-3.4,7.9-13,8.8-18.3,1.9c-3.7-4.8-3.5-10.3-2.2-15.8c1-4.2,2.4-8.3,3-12.5c0.5-3.4,0.3-6.9-0.1-10.4c-0.1-1.2-1.6-2.8-2.8-3.2
	c-4-1.2-5.2-4.1-5.3-7.6c-0.2-7.7-0.1-15.3,0-23c0-3.6,1.8-6.1,5.4-7.1c4.9-1.4,9.7-3,14.7-4.3c3.4-0.9,5.2-3,6-6.2
	c1.2-4.5,1.5-13-0.3-13.5s-10,3.1-14.9,4.4c-7.8,2.1-10.8-0.3-10.8-8.4c0-6.6,0-13.2,0-19.8c0-5.1,1.4-7,6.2-8.4
	c13.3-4.1,26.5-8.4,39.8-12.3c3.2-1,4.1-2.4,4.1-5.6c-0.2-14.1-0.1-28.2-0.1-42.3c0-6.3,2.2-8.5,8.4-8.5c9.3,0,18.5,0,27.8,0
	c5,0,7.3,1.7,7.7,6.7c0.5,5.6,0.1,11.2,0.1,16.9c0,5,0,9.9-0.1,14.9c0,2.4,1,3,3.3,2.3c22.7-7.1,45.4-14.2,68.1-21.2
	c6.3-2,10,0.7,10,7.3c0,7.3,0,14.5,0,21.8c0,5-1.4,6.8-6.4,8.4c-5.6,1.8-11.3,3.4-16.8,5.2c-6,2-9.3,13.2-5.4,18.1
	c0.5,0.6,2.1,0.7,3,0.4c6.1-1.7,12-3.6,18.1-5.2c3.9-1,7.4,1.6,7.4,5.6c0.2,8.5,0.9,17.1-0.3,25.4c-0.7,4.9-0.4,8.8,2.1,12.8
	c3.2,5,7.3,9,12.9,11c2,0.7,4.2,1.1,6.3,1.1c7.3,0.1,14.5,0,21.8,0.1c4.9,0,7,2.2,7.1,7.1c0.4,31.2-9.7,58.8-28.4,83.4
	c-12.7,16.8-28.8,29.9-47.8,39.1c-7.9,3.8-16.5,6.2-24.7,9.5c-1.6,0.6-3.7,3-4.1,4.5c-1.6,6.4-2.3,12.1-3.8,18.5
	c-0.9,3.8-1.8,7.7-3.5,11c-2.9,5.6-8.6,6.7-13.6,2.8c-2.9-2.3-5.3-5.3-7.9-8c-4.4-4.6-6.6-4.1-8.5,2c-1.8,5.5-3,11.2-4.9,16.6
	c-0.9,2.7-2.3,5.5-4.1,7.8c-5.4,6.7-14.1,5.8-17.6-2c-1.5-3.3-2.2-7.2-2.3-10.9c-0.1-6.8,0.7-13.7,1-20.5c0.3-6-0.8-11.7-3.3-17.2
	c-1.2-2.7-1.6-6-1.6-9c-0.1-33.3-0.1-66.7-0.1-100c0-3.2,0-7.6,0-7.6S137.5,159.8,137.5,156.7z M185.8,236.2
	c4.8-0.9,5.6-1.2,10.3-2.2c19.7-4.6,35.5-14.7,47.2-27.2c13.6-14.5,21.8-32.3,24.3-48.3c0.8-5.3,2-14.8,0.6-15.2
	c-1.4-0.4-3.9,3.1-5.3,4.7c-1.4,1.6-2.3,3.6-3.6,5.3c-2.3,3-4.9,5.5-9.1,4.7c-4.2-0.9-6-4.1-6.7-7.8c-0.7-3.7-0.2-7.5-0.8-11.2
	c-0.7-4.3-1.7-8.6-3.1-12.7c-0.3-0.9-3-1.9-4.2-1.6c-15.4,4.5-30.7,9.2-45.9,14.1c-8,2.6-7.8,2.8-7.8,11.3c0,10.8-0.2,21.7-0.3,32.5
	c-0.1,11.3-0.1,22.5-0.1,33.8C181.4,222.9,181,237.1,185.8,236.2z M182.2,101.9c2.2,1,16.9-4.3,26.2-7.3c1.9-0.6,3.1-1.3,3.8-2.5
	c2.5-4.2,3-8.5,1-13.1c-1-2.3-2.2-3.3-4.9-2.4c-8,2.6-16.1,4.9-24.1,7.5c-1,0.3-2,1.2-2.5,2.6C181.1,88.1,180,100.9,182.2,101.9z
	 M132.5,100.5c0.3,1.7,3.2,6.9,4.5,6.5c1.4-0.4,0.3-7.3,0-8.7C136.7,96.9,132.2,98.8,132.5,100.5z"/>
</svg>
