<?xml version="1.0" encoding="UTF-8" standalone="no"?>
<svg
   xmlns:dc="http://purl.org/dc/elements/1.1/"
   xmlns:cc="http://creativecommons.org/ns#"
   xmlns:rdf="http://www.w3.org/1999/02/22-rdf-syntax-ns#"
   xmlns:svg="http://www.w3.org/2000/svg"
   xmlns="http://www.w3.org/2000/svg"
   viewBox="0 0 533.33331 533.33331"
   height="533.33331"
   width="533.33331"
   xml:space="preserve"
   id="svg2"
   version="1.1"><metadata
     id="metadata8"><rdf:RDF><cc:Work
         rdf:about=""><dc:format>image/svg+xml</dc:format><dc:type
           rdf:resource="http://purl.org/dc/dcmitype/StillImage" /></cc:Work></rdf:RDF></metadata><defs
     id="defs6"><clipPath
       id="clipPath18"
       clipPathUnits="userSpaceOnUse"><path
         id="path16"
         d="M 0,400 H 400 V 0 H 0 Z" /></clipPath></defs><g
     transform="matrix(1.3333333,0,0,-1.3333333,0,533.33333)"
     id="g10"><g
       id="g12"><g
         clip-path="url(#clipPath18)"
         id="g14"><g
           transform="translate(325.4375,249.748)"
           id="g20"><path
             id="path22"
             style="fill:#000000;fill-opacity:1;fill-rule:nonzero;stroke:none"
             d="m 0,0 c -0.478,0.549 -1.693,2.249 -2.488,3.396 -6.444,9.303 -15.246,15.227 -26.094,18.202 -6.046,1.658 -8.164,0.848 -10.283,-5.178 -2.39,-6.795 -4.018,-13.854 -6.223,-20.718 -0.973,-3.029 -2.173,-6.134 -3.98,-8.708 -3.079,-4.384 -8.671,-4.535 -12.13,-0.444 -2.602,3.077 -4.281,6.941 -6.709,10.201 -1.553,2.087 -3.265,5.627 -5.62,5.544 -2.357,-0.082 -3.708,-4.291 -4.716,-6.778 -1.837,-4.534 -2.756,-9.438 -4.577,-13.979 -1.268,-3.164 -3.102,-6.218 -5.22,-8.895 -2.958,-3.738 -7.029,-5.733 -11.89,-4.345 -4.669,1.333 -7.386,5.083 -7.711,9.569 -0.442,6.116 0.231,12.312 0.383,18.474 0.156,6.308 0.908,12.69 0.21,18.906 -0.704,6.262 -2.784,7.364 -9.041,7.367 -26.02,0.011 -52.04,-0.078 -78.059,0.089 -4.321,0.028 -5.778,-1.189 -5.674,-5.639 0.283,-12.136 0.061,-24.283 0.108,-36.426 0.013,-3.532 -0.759,-6.478 -4.057,-8.482 -3.556,-2.162 -6.681,-1.147 -9.677,0.921 -6.062,4.183 -12.027,8.506 -18.07,12.715 -4.091,2.851 -5.451,2.791 -6.65,-2.123 -2.144,-8.789 -3.331,-17.812 -4.934,-26.734 -1.043,-5.808 -1.974,-11.64 -3.25,-17.397 -0.421,-1.904 -1.545,-3.761 -2.714,-5.374 -5.392,-7.438 -14.883,-7.162 -19.097,0.985 -2.045,3.956 -3.23,8.783 -3.299,13.238 -0.114,7.329 0.948,14.682 1.601,22.017 1.225,13.762 1.739,27.511 -3.566,40.616 -1.327,3.278 -3.729,6.599 -6.532,8.717 -9.676,7.31 -19.752,14.09 -29.666,21.088 -7.595,5.361 -7.795,11.133 -0.318,16.437 32.042,22.731 64.14,45.382 96.229,68.045 2.818,1.989 5.769,3.272 9.275,1.494 3.752,-1.903 4.745,-5.081 4.726,-8.986 -0.061,-11.998 -0.019,-23.996 -0.008,-35.994 0.005,-6.108 0.014,-6.121 6.313,-6.122 50.883,-0.005 101.766,0.127 152.649,-0.067 C -19.207,75.55 -3.287,65.694 5.43,45.81 11.705,31.495 10.701,17.089 3.121,3.289 2.639,2.41 2.36,1.995 1.733,1.211 1.491,0.909 0.477,-0.549 0,0" /></g><g
           transform="translate(74.0308,164.8232)"
           id="g24"><path
             id="path26"
             style="fill:#000000;fill-opacity:1;fill-rule:nonzero;stroke:none"
             d="m 0,0 c 1.623,0.215 3.598,-3.658 5.499,-5.729 2.323,-2.532 4.606,-4.919 7.113,-7.043 7.147,-6.055 15.689,-9.149 25.133,-9.157 52.623,-0.042 105.247,0.005 157.871,-0.086 3.883,-0.006 4.931,1.49 4.88,5.153 -0.17,11.997 -0.037,23.998 -0.076,35.997 -0.012,3.719 0.13,7.208 3.982,9.346 4.15,2.305 7.502,0.601 10.811,-1.732 20.543,-14.48 41.08,-28.968 61.62,-43.453 11.214,-7.909 22.451,-15.789 33.635,-23.742 7.28,-5.176 7.327,-11.047 0.187,-16.309 -3.257,-2.399 -6.486,-4.863 -9.913,-6.998 -9.428,-5.872 -13.135,-14.744 -13.136,-25.33 0,-6.195 1.035,-12.386 1.191,-18.589 0.152,-6.038 0.257,-12.155 -0.546,-18.112 -0.479,-3.562 -2.222,-7.244 -4.304,-10.243 -5.686,-8.192 -15.764,-8.298 -21.367,-0.05 -2.782,4.095 -4.574,8.991 -6.164,13.742 -4.361,13.024 -15.116,16.579 -26.638,8.522 -5.209,-3.643 -10.376,-7.346 -15.602,-10.965 -3.002,-2.079 -6.118,-3.112 -9.707,-1.145 -3.458,1.895 -4.052,4.946 -4.043,8.446 0.032,12.433 -0.111,24.868 0.076,37.298 0.063,4.113 -1.345,5.477 -6.069,4.923 -3.016,-0.354 -6.061,-0.482 -9.081,-0.161 -9.325,0.991 -16.044,-1.707 -17.606,-10.177 -1.281,-6.943 -0.605,-14.268 -0.586,-21.426 0.012,-4.61 0.716,-9.235 0.509,-13.826 -0.186,-4.159 -1.649,-8.05 -6.22,-9.484 -3.804,-1.193 -8.089,0.41 -10.683,4.717 -2.81,4.665 -4.93,9.752 -7.273,14.691 -1.545,3.255 -2.72,6.706 -4.487,9.828 -2,3.535 -4.103,3.681 -6.782,0.664 -2.103,-2.37 -3.776,-5.124 -5.883,-7.492 -4.433,-4.985 -9.041,-5.005 -13.053,0.247 -1.958,2.564 -3.202,5.725 -4.497,8.734 -2.735,6.354 -5.307,12.779 -7.913,19.188 -1.441,3.544 -3.929,4.676 -7.8,4.629 -17.202,-0.206 -34.407,-0.116 -51.611,-0.081 -23.348,0.048 -41.654,13.107 -48.389,35.394 -3.558,11.772 -2.497,23.085 2.643,33.761 C -3.18,-3.768 -1.623,-0.216 0,0" /></g></g></g></g></svg>