<?xml version="1.0" encoding="UTF-8" standalone="no"?>
<svg
   xmlns:dc="http://purl.org/dc/elements/1.1/"
   xmlns:cc="http://creativecommons.org/ns#"
   xmlns:rdf="http://www.w3.org/1999/02/22-rdf-syntax-ns#"
   xmlns:svg="http://www.w3.org/2000/svg"
   xmlns="http://www.w3.org/2000/svg"
   viewBox="0 0 533.33331 533.33331"
   height="533.33331"
   width="533.33331"
   xml:space="preserve"
   id="svg2"
   version="1.1"><metadata
     id="metadata8"><rdf:RDF><cc:Work
         rdf:about=""><dc:format>image/svg+xml</dc:format><dc:type
           rdf:resource="http://purl.org/dc/dcmitype/StillImage" /></cc:Work></rdf:RDF></metadata><defs
     id="defs6"><clipPath
       id="clipPath18"
       clipPathUnits="userSpaceOnUse"><path
         id="path16"
         d="M 0,400 H 400 V 0 H 0 Z" /></clipPath></defs><g
     transform="matrix(1.3333333,0,0,-1.3333333,0,533.33333)"
     id="g10"><g
       id="g12"><g
         clip-path="url(#clipPath18)"
         id="g14"><g
           transform="translate(85.5146,156.1523)"
           id="g20"><path
             id="path22"
             style="fill:#000000;fill-opacity:1;fill-rule:nonzero;stroke:none"
             d="m 0,0 c -1.31,0 -2.629,0.099 -3.929,-0.02 -3.195,-0.29 -4.154,-2.042 -2.167,-4.519 1.735,-2.164 3.971,-3.945 6.089,-5.775 2.208,-1.908 4.905,-3.365 6.746,-5.557 4.555,-5.424 7.858,-11.616 10.739,-18.132 1.845,-4.175 5.369,-9.787 6.648,-10.747 1.278,-0.96 3.84,-2.268 5.303,-2.233 4.014,0.094 7.203,1.87 8.621,5.853 1.55,4.352 0.705,8.461 -2.041,12.064 -4.326,5.676 -8.634,11.384 -13.28,16.797 C 16.774,-5.329 9.648,-0.24 0,0 m 146.903,-10.174 c -0.286,2.253 14.342,4.223 21.628,6.464 18.312,5.635 34.133,14.944 42.75,33.108 4.432,9.343 7.324,19.231 7.917,29.66 0.327,5.748 0.939,11.506 0.833,17.248 -0.277,15.083 -5.519,28.36 -15.225,39.925 -0.723,0.861 -1.146,2.654 -0.765,3.655 2.824,7.429 3.134,15.191 2.323,22.838 -0.618,5.841 -2.514,11.595 -4.291,17.247 -0.969,3.089 -4.212,3.138 -6.686,2.524 -5.651,-1.402 -11.435,-2.744 -16.688,-5.15 -7.377,-3.379 -12.284,-6.65 -19.461,-10.481 -0.942,-0.503 -4.303,-1.733 -5.374,-1.543 -7.005,1.241 -14.049,2.358 -20.95,4.047 -4.611,1.128 -8.297,0.506 -11.606,-2.941 -2.745,-2.86 -3.865,-6.036 -2.605,-9.864 0.854,-2.591 1.926,-5.113 2.715,-7.722 1.638,-5.415 -0.122,-10.111 -4.382,-12.058 -4.198,-1.918 -8.983,-0.055 -11.897,4.741 -1.489,2.451 -3.506,7.811 -4.467,7.528 -0.961,-0.283 -0.25,-5.215 0.205,-7.71 0.703,-3.855 1.851,-7.629 2.797,-11.441 0.991,-3.992 0.575,-7.806 -1.527,-11.386 -2.626,-4.473 -7.855,-6.838 -12.552,-5.685 -4.759,1.168 -7.761,5.145 -7.711,10.812 0.029,3.367 0.512,6.741 0.952,10.091 1.534,11.692 -1.411,22.246 -9.879,30.292 -4.771,4.534 -11.047,7.68 -17.028,10.689 -5.49,2.762 -11.458,4.605 -17.29,6.637 -2.121,0.739 -4.446,1.009 -6.703,1.216 -3.466,0.318 -5.603,-1.899 -6.853,-6.685 -1.902,-7.277 -3.538,-14.619 -2.641,-22.181 0.544,-4.591 1.788,-9.096 2.469,-13.676 0.189,-1.27 -0.097,-3.012 -0.871,-3.962 C 16.391,106.691 11.265,96.302 9.742,84.14 7.564,66.737 9.589,49.95 15.982,33.622 21.75,18.894 32.066,8.678 46.147,1.764 c 8.954,-4.397 18.405,-6.915 28.081,-8.819 2.829,-0.556 9.442,-0.641 9.01,-1.72 -0.431,-1.079 -1.499,-3.154 -1.923,-3.666 -3.942,-4.772 -5.959,-7.971 -6.694,-14.251 -0.261,-2.224 -1.16,-4.245 -3.748,-4.786 -4.857,-1.014 -9.707,-2.067 -14.578,-3.011 -1.347,-0.261 -4.434,-0.67 -4.372,-1.455 0.397,-3.529 0.997,-5.654 2.202,-8.676 1.468,-3.685 3.629,-6.98 6.708,-9.847 0.597,-0.554 1.853,-0.665 2.763,-0.573 2.904,0.291 8.557,1.236 8.898,0.99 0.341,-0.246 0.371,-0.62 0.373,-0.997 0.053,-10.042 -0.185,-20.096 0.216,-30.123 0.205,-5.139 -5.973,-8.653 -10.141,-7.093 -6.602,2.472 -13.263,4.838 -19.688,7.722 -12.255,5.5 -23.496,12.759 -33.847,21.278 -9.191,7.564 -17.402,16.158 -24.739,25.555 -8.254,10.571 -15.333,21.848 -20.916,34.079 -4.969,10.887 -8.615,22.135 -11.095,33.856 -2.6,12.289 -3.991,24.711 -3.745,37.178 0.237,12.014 1.73,23.979 4.475,35.781 3.951,16.991 10.706,32.728 19.6,47.672 8.779,14.752 19.838,27.619 32.634,38.875 13.696,12.049 29.128,21.617 46.081,28.485 11.569,4.687 23.54,7.922 35.926,9.964 15.182,2.504 30.377,2.88 45.552,1.287 12.704,-1.333 25.216,-4.153 37.268,-8.595 13.099,-4.828 25.483,-11.072 37.014,-18.968 12.461,-8.532 23.478,-18.616 33.355,-30.067 8.879,-10.294 16.298,-21.552 22.242,-33.652 5.921,-12.055 10.494,-24.665 13.147,-37.995 2.32,-11.659 4.102,-23.385 3.859,-35.179 -0.238,-11.557 -1.134,-23.132 -3.689,-34.573 -2.228,-9.974 -4.953,-19.721 -8.915,-29.093 -5.608,-13.268 -12.545,-25.819 -21.724,-36.994 -5.042,-6.139 -10.01,-12.401 -15.626,-17.992 -11.781,-11.73 -22.947,-20.11 -37.746,-27.767 -1.469,-0.761 -5.103,-3.518 -5.817,-5.037 -3.245,-6.906 -3.187,-13.849 -0.034,-20.892 1.869,-4.176 3.178,-8.602 4.733,-12.917 0.034,-0.097 0.064,-0.196 0.085,-0.296 2.257,-10.475 -2.68,-20.065 -11.103,-21.791 -10.081,-2.064 -20.378,4.24 -22.291,14.397 -0.821,4.364 -0.338,9.13 0.36,13.588 1.097,6.995 2.444,11.133 2.099,15.46 -0.343,4.329 -0.937,5.639 -1.695,6.929 -0.758,1.291 -1.459,2.38 -1.863,3.398 -1.31,3.295 -0.813,6.931 -0.819,10.463 -0.025,12.782 0.15,25.565 -0.057,38.342 -0.094,5.786 -0.625,11.465 -2.256,16.791 -1.477,4.824 -2.462,5.987 -3.771,7.717 -1.311,1.73 -2.746,2.826 -3.033,5.08" /></g></g></g></g></svg>