<?xml version="1.0" encoding="utf-8"?>
<!-- Generator: Adobe Illustrator 23.0.6, SVG Export Plug-In . SVG Version: 6.00 Build 0)  -->
<svg version="1.1"
	 id="Layer_1" xmlns:cc="http://creativecommons.org/ns#" xmlns:dc="http://purl.org/dc/elements/1.1/" xmlns:inkscape="http://www.inkscape.org/namespaces/inkscape" xmlns:rdf="http://www.w3.org/1999/02/22-rdf-syntax-ns#" xmlns:sodipodi="http://sodipodi.sourceforge.net/DTD/sodipodi-0.dtd" xmlns:svg="http://www.w3.org/2000/svg"
	 xmlns="http://www.w3.org/2000/svg" xmlns:xlink="http://www.w3.org/1999/xlink" x="0px" y="0px" viewBox="0 0 400 400"
	 style="enable-background:new 0 0 400 400;" xml:space="preserve">
<path d="M287.5,86.8c2.9-1.6,6-2.8,9.2-3.8l3.6-1.2c2.9-1,5.3-4.4,5.3-7.5v-65c0-3.2-2.4-5.1-5.3-4.1L99.7,68.8
	c-2.2,0.7-4.1,2.8-4.9,5.2c-0.2,0.6-0.4,1.3-0.4,2.1v0.2v64.8c0,0.8,0.2,1.7,0.4,2.3c0.8,2.4,2.7,4.5,4.9,5.2l77.8,24.8
	c2.1,0.7,2.1,3.7,0,4.4l-77.8,24.7c-2.9,0.9-5.3,4.3-5.3,7.5v65c0,1.5,0.5,2.6,1.3,3.4l0,0l0.1,0.1c0.2,0.1,0.3,0.3,0.5,0.4
	c34.4,25.2-11.6,109.6,22.3,116c2.2,0.4,4.5,0.4,6.6-0.4c27-9.8-32.1-107.4,25.1-131.5l150-47.6c2.2-0.7,4.1-2.8,4.9-5.2
	c0.2-0.6,0.4-1.3,0.4-2.1v-0.2v-65c0-0.7-0.2-1.5-0.4-2.1c-0.8-2.4-2.7-4.5-4.9-5.2l-7-2.2C259.5,120.9,266,98.4,287.5,86.8z
	 M237.5,113c-4.1,0.6-8.3,0.2-12.2-1.1l-5.3-1.7c-1.4-0.4-1.4-2.4,0-2.8l20-6.3c1.5-0.5,3-0.7,4.6-0.5
	C252.7,101.5,250.2,111.1,237.5,113z"/>
</svg>
