<?xml version="1.0" encoding="utf-8"?>
<!-- Generator: Adobe Illustrator 23.0.3, SVG Export Plug-In . SVG Version: 6.00 Build 0)  -->
<svg version="1.1"
	 id="Layer_1" xmlns:cc="http://creativecommons.org/ns#" xmlns:dc="http://purl.org/dc/elements/1.1/" xmlns:inkscape="http://www.inkscape.org/namespaces/inkscape" xmlns:rdf="http://www.w3.org/1999/02/22-rdf-syntax-ns#" xmlns:sodipodi="http://sodipodi.sourceforge.net/DTD/sodipodi-0.dtd" xmlns:svg="http://www.w3.org/2000/svg"
	 xmlns="http://www.w3.org/2000/svg" xmlns:xlink="http://www.w3.org/1999/xlink" x="0px" y="0px" viewBox="0 0 400 400"
	 style="enable-background:new 0 0 400 400;" xml:space="preserve">
<sodipodi:namedview  bordercolor="#666666" borderopacity="1" fit-margin-bottom="0" fit-margin-left="0" fit-margin-right="0" fit-margin-top="0" gridtolerance="10" guidetolerance="10" id="namedview7" inkscape:current-layer="Layer_1" inkscape:cx="-108.16849" inkscape:cy="168.67193" inkscape:pageopacity="0" inkscape:pageshadow="2" inkscape:window-height="1017" inkscape:window-maximized="1" inkscape:window-width="1920" inkscape:window-x="1912" inkscape:window-y="-8" inkscape:zoom="1.0535714" objecttolerance="10" pagecolor="#ffffff" showgrid="false">
	</sodipodi:namedview>
<path d="M287.7,86.6c2.9-1.6,6-2.8,9.2-3.8l3.6-1.2c2.9-1,5.3-4.4,5.3-7.5V9c0-3.2-2.4-5.1-5.3-4.1l-201,63.7
	c-2.2,0.7-4.1,2.8-4.9,5.2c-0.2,0.6-0.4,1.3-0.4,2.1v0.2V141c0,0.8,0.2,1.7,0.4,2.3c0.8,2.4,2.7,4.5,4.9,5.2l77.9,24.8
	c2.1,0.7,2.1,3.7,0,4.4l-77.9,24.7c-2.9,0.9-5.3,4.3-5.3,7.5V275c0,1.5,0.5,2.6,1.3,3.4l0,0c0,0,0.1,0.1,0.1,0.1
	c0.2,0.1,0.3,0.3,0.5,0.4c34.5,25.2-11.6,109.8,22.3,116.2c2.2,0.4,4.5,0.4,6.6-0.4c27.1-9.8-32.2-107.6,25.1-131.7l150.3-47.7
	c2.2-0.7,4.1-2.8,4.9-5.2c0.2-0.6,0.4-1.3,0.4-2.1v-0.2v-65.1c0-0.7-0.2-1.5-0.4-2.1c-0.8-2.4-2.7-4.5-4.9-5.2l-7-2.2
	C259.6,120.7,266.1,98.2,287.7,86.6z M237.6,112.8c-4.1,0.6-8.3,0.2-12.2-1.1l-5.3-1.7c-1.4-0.4-1.4-2.4,0-2.8l20-6.3
	c1.5-0.5,3-0.7,4.6-0.5C252.8,101.3,250.3,110.9,237.6,112.8z"/>
</svg>
