<?xml version="1.0" encoding="utf-8"?>
<!-- Generator: Adobe Illustrator 21.1.0, SVG Export Plug-In . SVG Version: 6.00 Build 0)  -->
<!DOCTYPE svg PUBLIC "-//W3C//DTD SVG 1.1//EN" "http://www.w3.org/Graphics/SVG/1.1/DTD/svg11.dtd">
<svg version="1.1" id="Layer_1" xmlns="http://www.w3.org/2000/svg" xmlns:xlink="http://www.w3.org/1999/xlink" x="0px" y="0px"
	 viewBox="0 0 400 400" enable-background="new 0 0 400 400" xml:space="preserve">
<g>
	<path d="M95.6,41.6c4.5,0.3,10.1,0.4,15.9,0.5c15.3,0.1,30.7,0.5,46,0.7c37.5,0.3,89,0.8,112.5,1.2s58.4,1,64.7,1.3s7,0.6,4.8,6.5
		c-4.7,12.4-9.5,24.8-14.9,36.9c-9.1,20.5-18.4,41-28.1,61.2c-13.6,28.3-27.7,56.4-41.6,84.6c-8.6,17.3-17.3,34.5-25.8,51.9
		c-1.6,3.2-2.6,5.6-4.2,10s-5.2,14.9-5,22.3c0.2,7.6,1.3,15,4.7,22.6c1.4,3.2,4.3,7.1,6.5,11.7s2.4,10.6,2.1,13.9
		c-0.3,3.3-2.6,8.7-7.7,11.3c-12.3,6.2-24.5-3.8-24-18.5c0.2-6.3,3.1-12.4,3.9-18.8c0.6-4.9,0-8.9-1.1-13.6c-1-4.7-3.6-9.6-5.4-13.7
		c-17.9-39.8-36.3-79.4-54.3-119.2c-11-24.4-21.7-48.9-32.4-73.5c-7.1-16.5-13.5-33.2-20.1-49.9c-3.2-8.2-6.3-16.6-9.5-24.8
		c-1.5-4,0.8-4.4,3.8-4.4C88.9,41.6,91.6,41.6,95.6,41.6z"/>
</g>
</svg>
