<?xml version="1.0" encoding="utf-8"?>
<!-- Generator: Adobe Illustrator 23.0.3, SVG Export Plug-In . SVG Version: 6.00 Build 0)  -->
<svg version="1.1"
	 id="svg6" xmlns:cc="http://creativecommons.org/ns#" xmlns:dc="http://purl.org/dc/elements/1.1/" xmlns:inkscape="http://www.inkscape.org/namespaces/inkscape" xmlns:rdf="http://www.w3.org/1999/02/22-rdf-syntax-ns#" xmlns:sodipodi="http://sodipodi.sourceforge.net/DTD/sodipodi-0.dtd" xmlns:svg="http://www.w3.org/2000/svg"
	 xmlns="http://www.w3.org/2000/svg" xmlns:xlink="http://www.w3.org/1999/xlink" x="0px" y="0px" viewBox="0 0 400 400"
	 style="enable-background:new 0 0 400 400;" xml:space="preserve">
<style type="text/css">
	.st0{display:none;enable-background:new    ;}
	.st1{font-family:'MyriadPro-Regular';}
	.st2{font-size:12px;}
</style>
<sodipodi:namedview  bordercolor="#666666" borderopacity="1" gridtolerance="10" guidetolerance="10" id="namedview8" inkscape:current-layer="svg6" inkscape:cx="56.879116" inkscape:cy="30.843838" inkscape:pageopacity="0" inkscape:pageshadow="2" inkscape:window-height="1017" inkscape:window-maximized="1" inkscape:window-width="1920" inkscape:window-x="1912" inkscape:window-y="-8" inkscape:zoom="4.72" objecttolerance="10" pagecolor="#ffffff" showgrid="false">
	</sodipodi:namedview>
<text id="text4" transform="matrix(1 0 0 1 -1530 149.9999)" class="st0 st1 st2">nyt_prefs  nyt_prefix/nyt_prefix  nyt_suffix/nyt_suffix  nyt_base_path~/Dropbox/WORK/2014/Noun%20Project/15.9.14/nyt_base_path  nyt_scaling100/nyt_scaling  nyt_transparencytrue/nyt_transparency  nyt_embedImagefalse/nyt_embedImage  nyt_embedFonttrue/nyt_embedFont  nyt_trimEdgesfalse/nyt_trimEdges  nyt_formatSVG/nyt_format  nyt_artboardsall/nyt_artboards  nyt_layersnone/nyt_layers  nyt_exportArtboardstrue/nyt_exportArtboards  nyt_ignoreWarningsfalse/nyt_ignoreWarnings/nyt_prefs</text>
<path d="M366.7,99L260.1,11.2c-3-2.5-7.6-0.3-7.6,3.6v37.9c0,5-3.9,9.1-8.9,9.4c-31.7,1.8-60.2,6.8-84.6,15.6
	c-29.9,10.7-54.5,25.3-74,43.6c-15.4,14.5-27.6,31.1-36.7,49.5c-2.4,4.8-4.7,9.7-6.7,14.8c-9.5,24.5-16.1,51.1-14.2,78.4
	c0.3,5,2.5,17.4,5.4,23.5c1.1,2.3,2.1,4.7,2.8,7.2c10.1,37-13.6,89.2,8.8,98.8c4.5,1.9,9.6,1.5,13.8-0.9
	C87,375.8,13.4,290.8,74.6,215.5c3.8-4.5,8.9-9.8,13.2-13.9c5.6-5.3,11.6-10.3,18.3-14.9c18.2-12.4,40.6-22.2,66.9-29.4
	c8.3-2.3,17-4.2,26.2-5.7c8.5-1.4,17.3-0.9,25.3,2.3c64.1,25-9.3,166.7,41.5,166.9c54.2-0.6-32.5-91.8,25-149.1l75.6-62.3
	C369.9,106.7,369.9,101.7,366.7,99z"/>
</svg>
