<?xml version="1.0" encoding="utf-8"?>
<!-- Generator: Adobe Illustrator 23.0.6, SVG Export Plug-In . SVG Version: 6.00 Build 0)  -->
<svg version="1.1"
	 id="svg6" xmlns:cc="http://creativecommons.org/ns#" xmlns:dc="http://purl.org/dc/elements/1.1/" xmlns:inkscape="http://www.inkscape.org/namespaces/inkscape" xmlns:rdf="http://www.w3.org/1999/02/22-rdf-syntax-ns#" xmlns:sodipodi="http://sodipodi.sourceforge.net/DTD/sodipodi-0.dtd" xmlns:svg="http://www.w3.org/2000/svg"
	 xmlns="http://www.w3.org/2000/svg" xmlns:xlink="http://www.w3.org/1999/xlink" x="0px" y="0px" viewBox="0 0 400 400"
	 style="enable-background:new 0 0 400 400;" xml:space="preserve">
<style type="text/css">
	.st0{display:none;enable-background:new    ;}
	.st1{font-family:'MyriadPro-Regular';}
	.st2{font-size:12px;}
</style>
<sodipodi:namedview  bordercolor="#666666" borderopacity="1" gridtolerance="10" guidetolerance="10" id="namedview8" inkscape:current-layer="svg6" inkscape:cx="56.879116" inkscape:cy="30.843838" inkscape:pageopacity="0" inkscape:pageshadow="2" inkscape:window-height="1017" inkscape:window-maximized="1" inkscape:window-width="1920" inkscape:window-x="1912" inkscape:window-y="-8" inkscape:zoom="4.72" objecttolerance="10" pagecolor="#ffffff" showgrid="false">
	</sodipodi:namedview>
<text id="text4" transform="matrix(1 0 0 1 -1530 149.9999)" class="st0 st1 st2">nyt_prefs  nyt_prefix/nyt_prefix  nyt_suffix/nyt_suffix  nyt_base_path~/Dropbox/WORK/2014/Noun%20Project/15.9.14/nyt_base_path  nyt_scaling100/nyt_scaling  nyt_transparencytrue/nyt_transparency  nyt_embedImagefalse/nyt_embedImage  nyt_embedFonttrue/nyt_embedFont  nyt_trimEdgesfalse/nyt_trimEdges  nyt_formatSVG/nyt_format  nyt_artboardsall/nyt_artboards  nyt_layersnone/nyt_layers  nyt_exportArtboardstrue/nyt_exportArtboards  nyt_ignoreWarningsfalse/nyt_ignoreWarnings/nyt_prefs</text>
<path d="M335.6,97.9l-85.7-70.6c-2.4-2-6.1-0.2-6.1,2.9v30.5c0,4-3.1,7.3-7.2,7.6c-25.5,1.4-48.4,5.5-68,12.5
	c-24,8.6-43.8,20.3-59.5,35.1c-12.4,11.7-22.2,25-29.5,39.8c-1.9,3.9-3.8,7.8-5.4,11.9c-7.6,19.7-12.9,41.1-11.4,63
	c0.2,4,2,14,4.3,18.9c0.9,1.8,1.7,3.8,2.3,5.8c8.1,29.8-10.9,71.7,7.1,79.4c3.6,1.5,7.7,1.2,11.1-0.7c23.2-13.5-36-81.9,13.2-142.4
	c3.1-3.6,7.2-7.9,10.6-11.2c4.5-4.3,9.3-8.3,14.7-12c14.6-10,32.6-17.9,53.8-23.6c6.7-1.8,13.7-3.4,21.1-4.6
	c6.8-1.1,13.9-0.7,20.3,1.8c51.5,20.1-7.5,134,33.4,134.2c43.6-0.5-26.1-73.8,20.1-119.9l60.8-50.1
	C338.2,104.1,338.2,100.1,335.6,97.9z"/>
</svg>
