<?xml version="1.0" encoding="utf-8"?>
<!-- Generator: Adobe Illustrator 23.0.6, SVG Export Plug-In . SVG Version: 6.00 Build 0)  -->
<svg version="1.1" id="Layer_1" xmlns="http://www.w3.org/2000/svg" xmlns:xlink="http://www.w3.org/1999/xlink" x="0px" y="0px"
	 viewBox="0 0 400 400" style="enable-background:new 0 0 400 400;" xml:space="preserve">
<path d="M106,139.8c0,1.2-0.8,11.2-1.3,16.7c-0.5,5.8-0.8,11.6-0.2,17.4c0.3,2.6-0.8,4.9-2.9,6.6c-0.3,0.2-0.7,0.6-1.1,0.4
	c-0.3-0.2-0.2-0.7-0.1-1c0.2-1.9,0.5-3.8,0.7-5.7c0.2-3.6,0.6-7.2,0.5-10.8c-0.2-4.9-0.8-9.7-1.3-14.6c-0.4-4.3-0.8-8.7-1.3-13
	c-0.1-0.7-0.3-1.8-1.6-1.8c-1.2,0-1.7,1.4-1.8,1.9c-0.1,0.5-0.1,1.1-0.2,1.6c-0.5,5.8-0.9,11.5-1.4,17.3c0,0.4-0.1,1-0.4,1.2
	c-0.3,0.2-0.7-0.4-0.8-0.7c-1.2-2.3-2.7-4.6-3.3-7.1c-0.9-3.6-0.9-7.4-1.5-11.1c-0.1-0.7-0.4-2.1-1.5-2.1c-1.1,0-1.4,1.5-1.5,2.3
	c-0.8,7.8-1.3,15.6-2.1,23.3c-0.3,3-1.3,5.8-2,8.7c-0.1,0.4-0.4,0.6-0.8,0.6c-0.4,0-0.3-0.9-0.3-1.4c0.1-1.2,0.1-2.1,0.1-3.2
	s-0.1-2.2-0.2-3.2c-0.8-6.8-1.7-13.7-2.7-20.5c-0.1-0.7-0.2-1.9-1.4-1.9s-1.1,1.3-1.2,2.1c-0.3,2.1-0.4,4.3-0.6,6.5
	c-0.9,8.5-2.9,17-1.1,25.7c0,0.2,0.1,0.7-0.1,0.7c-0.2,0.1-0.4-0.4-0.4-0.6c-1.1-3.9-2.5-7.7-3.3-11.7c-0.9-3.9-1.3-7.9-2-11.8
	c-0.1-0.6-0.4-1.5-1.3-1.5c-1,0-1,1-1.1,1.5c-2.2,9.7-2.3,19.4,0,29.1c0.1,0.6,0.5,1.7,1.2,1.7s1.1-0.9,1.3-1.5
	c0.3-0.8,0.4-1.5,0.4-2c0-0.5-0.1-1.5,0.4-1.6s0.8,0.3,1,0.5c1.4,2.2,3,4.3,4.1,6.7c0.9,1.9,1,4.1,1.7,6.1c0.2,0.5,0.6,1.4,1.4,1.2
	c0.8-0.1,0.9-0.9,1-1.4c0.3-1.2,0.5-2.5,0.6-3.8c0.3-3.9,1.3-7.5,4-10.5c0.4-0.4,1-1.2,1.4-1s0.5,1.1,0.5,1.6
	c0.5,5.7,0.9,11.4,1.5,17c0.1,0.8,0.8,2.3,1.5,2.3c0.7,0,1.4-1.4,1.5-2.1c1-9,1.9-18.1,2.9-27.1c0.1-0.9,0.1-2.4,0.7-2.5
	s1.5,1.7,1.6,2.6c0.2,0.9,0.2,1.1,0.2,1.7c0.6,7,1.1,14.1,1.7,21.1c0.1,1.8,0.1,3.6,0.5,5.3c0.2,0.8,0.7,2.1,1.6,2.1
	s2.1-3.1,2.9-4.8c0.8-1.7,2.5-5.2,3.9-7.8c0.2-0.4,0.8-1,1.1-0.8c0.4,0.2,0.4,0.9,0.5,1.4c0.5,5.2,1,10.4,1.3,15.6
	c0.1,1.8-0.1,4.6-0.3,5.9c-0.2,1.4,0,3.9,0.4,4.9c0.4,1,1.6,2.1,2.9,1.9c1.3-0.2,1.8-0.8,2.4-2c0.6-1.2,0.4-3.4-0.2-5.2
	c-0.6-1.8-1-4.1-1-5.9c0.1-7.4,0.5-14.8,0.9-22.2c0-0.6,0.8-0.7,1.1-0.2c1,2,2,4.1,2.6,6.3s1,7.4,1.6,11c0.2,1,0.8,2.8,2.2,2.7
	c1.3,0,1.9-1.3,2.2-2.5c0.3-1.2,0.3-2.4,0.4-3.6c0.4-5.3,1-10.7,1.3-16c0.3-4.7,0.6-9.5,0.5-14.2c-0.2-8.1-0.8-16.2-1.1-24.3
	c0-1.4,0-3.6,0.1-4.3c0.1-0.8,0.2-2,0.7-3.1c0.6-1.3,1.5-2.7,2.1-4c0.2-0.3,0.6-0.8,1.2-0.7c0.5,0.1,0.5,1,0.5,1.4
	c-0.2,8.2-0.5,16.3-0.8,24.5c-0.2,5.4-0.7,10.9-0.5,16.3c0.3,8.7,1.1,17.4,1.8,26c0.1,2,0.6,4.6,2.7,4.6s2.4-2.8,2.6-4.7
	c0.4-4.7,0.6-9.5,1.1-14.2c0.3-2.5,1.1-5,1.7-7.5c0.1-0.5,0.5-1.5,1.1-1.4c0.5,0.1,0.6,1.2,0.6,1.8c0.3,3.4,0.5,6.8,0.7,10.2
	c0.3,4.4,0.5,8.8,1,13.2c0.1,0.8,0.8,1.8,1.5,2.2c1.9,1.1,3.7-0.2,3.9-2.8c0.3-3.5,0.5-7,0.8-10.6c0-0.6,0.1-1.5,0.7-1.7
	c0.7-0.1,0.9,0.9,1,1.4c1.1,3.6,2.2,7.3,3.1,10.9c0.4,1.7,1.1,3.1,2.9,3.1c1.8,0,2.8-1.2,3-3c0.5-7.5,1-15.1,1.5-22.6
	c0.2-3.6,0.2-7.2,0.4-10.8c0.1-0.8,0.4-2.5,1-2.5c0.6,0,0.8,1.5,0.9,2.2c0.2,5.8,0.2,11.6,0.6,17.3c0.5,7.4,1.6,14.7,1.9,22.1
	c0.1,2.7-1.1,5.6-2.1,8.3c-1.4,3.8,0,7.2,3.4,7.6c3.6,0.5,6.2-3,4.6-7c-1.6-4-1.7-7.9-0.5-11.9c0.3-1.1,0.5-2.2,0.5-3.3
	c0.3-13,0.6-26,0.8-39c0.1-3.5-0.4-7-0.1-10.4c0.2-2.2,1.1-4.4,1.7-6.5c0.1-0.3,0.4-1,0.9-0.8c0.5,0.2,0.3,0.8,0.3,1.3
	c-0.1,3.6-0.4,7.2-0.3,10.8c0.1,11.1,0.2,22.2,0.5,33.3c0.1,3.9,0.5,7.7,0.7,11.6c0.1,2,1.1,3.3,3.1,3.4c1.9,0.1,3.2-0.9,3.4-3
	c0.1-1.1,0.3-2.2,0.4-3.2c0.3-5,0.6-10,1-15.1c0-0.5,0.1-1.3,0.8-1.4c0.7-0.1,1.2,1,1.4,1.4c0.4,1.1,0.5,1.9,0.5,3.1
	c0.3,4.6,0.4,9.2,0.6,13.9c0.1,2.7,1.6,4.3,3.7,4.3c2.1,0,3.5-1.6,3.6-4.3c0.2-3.4,0.4-6.8,0.5-10.2c0.2-13.3,0.4-26.6,0.6-40
	c0.1-3.8,0.5-7.7,0.8-11.5c0.1-0.6,0.3-1.6,0.7-1.5c0.4,0.1,0.5,1.1,0.5,1.7c-0.1,5.4-0.4,10.7-0.3,16.1c0.3,15,0.8,30,1.2,45.1
	c0.1,2.7,1.7,4.4,3.8,4.5c2.2,0.1,3.8-1.7,4-4.5c0.5-7.9,1.4-15.7,1.4-23.6c0.1-13.8-0.5-26.7-0.7-40.5c0-0.5,0-1.8,0-2.3
	c0.1-5.8,0.3-11.7,0.5-17.5c0-0.9,0.4-2.8,0.9-2.8c0.6,0.1,0.6,1.8,0.6,2.8c0,27.6,0,55.3,0,82.9c0,2.4,0.5,3.9,1.6,4.8
	c0.9,0.7,1.7,0.7,4,0.9c2.3,0.2,3.4,0.8,4.6,2.1c2.3,2.5,3.9,5.3,4.1,8.7c0.2,3-0.2,6.1-0.1,9.2c0.1,2.8,0.1,5.6,0.9,8.2
	c0.9,3.1,4.1,4.7,7.1,4.5c3.4-0.3,5.9-2.3,6.8-5.6c1-3.8-0.4-6.9-2.3-10c-1.3-2.2-2.8-4.2-3.8-6.5c-2.4-5.7,0.7-10.5,7-10.5
	c7.9,0,15.7,0,23.6,0c7.8,0,15.7,0,23.5,0c6.2,0,10.9,5.7,9.9,11.8c-0.4,2.3-1.1,4.6-1.4,7c-0.3,2,0.3,4,2.3,4.7
	c2.3,0.9,4.2-0.2,5.5-2.3c0.5-0.9,0.8-1.9,1-2.9c0.4-2.1,0.4-4.3,0.8-6.5c0.5-2.4,2.4-2.8,4-1c0.8,0.9,1.4,1.9,1.4,3.6
	c0,1.7-0.7,4.1-1.3,6.3c-0.6,2.1-1.7,4-2.2,6.1c-0.7,2.9-0.5,5.9,1.9,8.1c2.4,2.2,5.2,2.5,8.2,1.6c4.8-1.5,7.7-6.8,6.5-12.6
	c-0.8-3.8-2.3-7.5-3.2-11.4c-1.6-6.8,0.1-12.8,5-17.8c2.1-2.2,4.7-3.9,6.9-6c6-5.9,8.6-13.4,9.3-21.6c0.5-6.1-1.5-11.9-4.4-17.3
	c-7.8-14.4-25-21.2-40.3-16c-2.2,0.8-2.5-0.1-2.9-1.9c-1.4-5.4-2.6-11-4.7-16.2c-3.7-9.2-10-16.6-17.7-22.7
	C256.4,82,243.8,78,229.9,78c-7.1,0-14.2,1.4-20.9,4.1c-2.1,0.8-3.1,2.1-3.4,4.3c-0.2,2.2-0.6,4.3-1,6.4c-0.1,0.7-0.6,1.9-1.2,1.8
	c-0.6-0.1-0.6-1-0.7-3.8c-0.1-2.8-1.6-4.8-3.7-4.9c-2.3,0-3.8,1.9-3.9,4.8c-0.1,3.4-0.1,6.8-0.4,10.2c-0.5,4.4-1.2,8.7-1.9,13
	c-0.1,0.5-0.4,1.5-0.8,1.5c-0.4,0-0.5-1.1-0.5-1.7c-0.2-5.8-0.3-11.6-0.5-17.3c-0.1-2.9-2.3-4.6-4.8-3.7c-2.1,0.8-2.5,2.7-2.5,4.7
	c-0.2,7.8-0.4,15.5-0.5,23.3c-0.2,13-0.3,26-0.6,39c0,0.7,0,2.2-0.8,2.2s-1-1.3-1.1-3.2c-0.1-1.9-0.6-15.6-0.8-23.4
	c-0.2-7.7-0.4-15.4-0.6-23.1c0-1.8-0.1-3.5-0.3-5.3c-0.2-2-1.4-3.3-3.5-3.1c-2,0.2-3,1.6-3,3.7c-0.1,4.9-0.2,9.8-0.5,14.7
	c-0.1,1.5-0.8,2.9-1.5,4.3c-0.3,0.6-0.8,1.7-1.6,1.4c-0.8-0.2-0.7-1.4-0.8-2.1c-0.2-6.6-0.4-13.2-0.6-19.8c-0.1-2.7-1.2-4.2-3.1-4.3
	c-1.9-0.1-3.2,1.7-3.3,4.4c-0.2,9.2-0.3,18.4-0.5,27.6c-0.1,3.3-0.1,6.5-0.5,9.8c-0.2,1.7-0.9,3.4-1.4,5c-0.1,0.4-0.3,1-0.8,0.9
	c-0.6-0.1-0.5-0.9-0.5-1.3c-0.2-3.7-0.3-7.5-0.4-11.2c-0.4-11-0.7-22-1-33c-0.1-1.9-1-3.3-2.9-3.3c-2,0-2.9,1.4-3,3.4
	c-0.1,2.7-0.3,5.4-0.3,8.1c-0.4,12.4-0.8,24.7-1,37.1c-0.2,7.6-0.1,15.2-0.1,22.8c0,0.5,0,1.3-0.5,1.5c-0.5,0.2-0.8-0.7-0.9-1.1
	c-0.3-1.1-0.6-2.2-0.7-3.4c-0.2-5.1-0.4-10.2-0.5-15.3c-0.4-12-0.8-23.9-1.1-35.9c-0.1-3.9-0.3-7.9-0.4-11.8
	c-0.1-1.8-0.9-3.1-2.8-3.1c-1.9,0-2.6,1.4-2.6,3.2c-0.1,3.4-0.3,6.8-0.4,10.2c-0.2,7.4-0.2,14.8-0.8,22.2c-0.2,3.1-1.4,6.2-2.3,9.2
	c-0.1,0.4-0.3,1.1-0.8,1c-0.4-0.1-0.5-0.9-0.5-1.3c-0.5-11.4-1-22.8-1.4-34.2c0-0.9-0.1-2.1-0.3-2.8s-0.8-2.3-2.2-2.3
	s-2.2,1-2.9,1.9c-1,1.5-1.4,3.4-2.4,4.9c-1.1,1.8-2.5,3.6-5,3.4c-2.4-0.2-3,1.1-3.1,3c-0.7,14.1-1.3,28.3-2,42.4c0,1-0.2,3-1.1,3
	s-1-2.3-1.1-3.2c-0.1-0.9-0.2-1.9-0.3-3c-0.5-5-1.4-14.5-2-20.9c-0.2-1.7-0.4-3.5-2.3-3.5C106.2,136.1,106,138.5,106,139.8z"/>
</svg>
