<?xml version="1.0" encoding="utf-8"?>
<!-- Generator: Adobe Illustrator 21.1.0, SVG Export Plug-In . SVG Version: 6.00 Build 0)  -->
<!DOCTYPE svg PUBLIC "-//W3C//DTD SVG 1.1//EN" "http://www.w3.org/Graphics/SVG/1.1/DTD/svg11.dtd">
<svg version="1.1" id="Layer_1" xmlns="http://www.w3.org/2000/svg" xmlns:xlink="http://www.w3.org/1999/xlink" x="0px" y="0px"
	 viewBox="0 0 400 400" enable-background="new 0 0 400 400" xml:space="preserve">
<path d="M95.2,320.7c1.6,0.4,2.2,0.6,3.5,1.3c9.2,4.9,10.1,11.3,5.6,22.3c-1.5,3.8-2.5,8.5-1.9,12.5c1,5.9,5.8,8,13.2,7.4
	c6.3-0.6,10.3-4.1,11.1-10.7c0.3-2.8-0.4-5.9-1.2-8.7c-1.7-6.2,2.3-11.3,8.4-10.3c8.1,1.4,11.5,6,11.5,14.6c0,8.6-0.2,17.3,0.9,25.8
	c1.5,11,8.4,13.5,17,13.6c9.4,0.2,16.5-7.2,15.6-16.4c-0.8-7.8-3.4-15.8-6.5-23c-6.1-14,2.6-28.8,17.6-29.1H226c9.5,0,19,0,28.4,0
	h54.4c27.5,0,50-22.5,50-50V61.5c0-27.5-22.5-50-50-50H91.2c-27.5,0-50,22.5-50,50v208.4c0,25.2,18.9,46.2,43.3,49.6
	c0.7,0.1,4,0.4,5.2,0.5C90.8,320.1,93.6,320.3,95.2,320.7z M181.2,122.2c-1.6,5.4,0.8,16.5,4.8,19.4c6.9,5.1,19.9,4.4,26.2-1.5
	c2.6-2.4,4.1-4,4.4-8.6s-1-8.2-3.2-11.5c-2.7-4.1-3.1-8.8-3.2-13.5c-0.2-8.9,7.7-17.4,14-15c6.3,2.4,5.7,2,8.2,3.1
	c21.7,9.5,37.7,27.4,43.9,50.3c4.2,15.7,2.9,37-1.5,46.8c-2.4,5.3-7.4,14.6-14.7,23.1c-6.3,7.3-14.8,14-21.1,17.5
	c-13.6,7.6-31.1,11.2-48.1,9.8c-40.2-3.3-72.4-37.6-72.3-77.2c0.1-30.7,19-57.6,45.3-70.2c2.2-1,5-2.2,8.2-2.7
	c3.3-0.5,6.1-0.8,8.6,3.3c2.6,4.3,4.7,8.2,5,12.3c0.1,2,0,4.5-0.9,6.2S182.8,116.8,181.2,122.2z M293,84.4
	c-8.5-0.1-15.1-6.8-14.8-15.1c0.2-7.9,7.2-14.6,15.1-14.5c8.3,0.1,15.2,7,15.2,15C308.3,78.1,301.5,84.5,293,84.4z"/>
</svg>
