<?xml version="1.0" encoding="utf-8"?>
<!-- Generator: Adobe Illustrator 23.0.1, SVG Export Plug-In . SVG Version: 6.00 Build 0)  -->
<svg version="1.1"
	 id="svg4" inkscape:version="0.92.1 r15371" sodipodi:docname="safari.svg" xmlns:cc="http://creativecommons.org/ns#" xmlns:dc="http://purl.org/dc/elements/1.1/" xmlns:inkscape="http://www.inkscape.org/namespaces/inkscape" xmlns:rdf="http://www.w3.org/1999/02/22-rdf-syntax-ns#" xmlns:sodipodi="http://sodipodi.sourceforge.net/DTD/sodipodi-0.dtd" xmlns:svg="http://www.w3.org/2000/svg"
	 xmlns="http://www.w3.org/2000/svg" xmlns:xlink="http://www.w3.org/1999/xlink" x="0px" y="0px" viewBox="0 0 400 400"
	 style="enable-background:new 0 0 400 400;" xml:space="preserve">
<sodipodi:namedview  bordercolor="#666666" borderopacity="1" fit-margin-bottom="50" fit-margin-left="0" fit-margin-right="0" fit-margin-top="0" gridtolerance="10" guidetolerance="10" id="namedview6" inkscape:current-layer="svg4" inkscape:cx="141.76295" inkscape:cy="175.1617" inkscape:pageopacity="0" inkscape:pageshadow="2" inkscape:window-height="1017" inkscape:window-maximized="1" inkscape:window-width="1920" inkscape:window-x="1358" inkscape:window-y="-8" inkscape:zoom="1.84375" objecttolerance="10" pagecolor="#ffffff" showgrid="false">
	</sodipodi:namedview>
<path d="M311,234.5c18.9-24.1,30.2-54.5,30.1-87.5C340.9,69.9,278.1,6.8,201,6.3C122.6,5.8,58.9,69.2,58.9,147.4
	c0,77.9,63.2,141.1,141.1,141.1c13.4,0,26.4-1.9,38.7-5.4c1.9-0.5,3.8-1,5.7-1.2c48.6-5.6-14,107.9,29,111.7
	c39.7-0.7-15.9-69,27.5-144.7C304,243.9,307.4,239.1,311,234.5z M254.6,261.7l-2,0.9l-4.7-10.2l2-0.9L254.6,261.7z M252.2,239.6
	l2-1.1l10.4,18.1l-2,1.1L252.2,239.6z M298,227.8l-1.4,1.8l-16-13.3l1.4-1.8L298,227.8z M294.2,214.3l1.4-1.8l9.3,6.5l-1.4,1.8
	L294.2,214.3z M290.6,236.2l-1.6,1.6l-7.9-7.9l1.6-1.6L290.6,236.2z M282.4,243.9l-1.8,1.4l-13.3-16l1.8-1.4L282.4,243.9z
	 M273.6,250.4l-1.8,1.4l-6.5-9.3l1.8-1.4L273.6,250.4z M309.3,211.6l-18.1-10.4l1.1-2l18.1,10.4L309.3,211.6z M314.5,201.9
	l-10.2-4.7l0.9-2l10.2,4.7L314.5,201.9z M318.8,191.7l-19.4-7.2l0.7-2l19.4,7.2L318.8,191.7z M322.4,181.1l-11.1-2.9l0.7-2.3
	l11.1,2.9L322.4,181.1z M324.9,170.3l-20.5-3.6l0.5-2.3l20.5,3.6L324.9,170.3z M326.5,159.4l-11.3-0.9l0.2-2.3l11.3,0.9L326.5,159.4
	z M306.1,147.4v-2.3h20.3v2.3H306.1z M326.5,137.1l-11.3,0.9l-0.2-2.3l11.3-0.9L326.5,137.1z M325.1,126.2l-20.5,3.6l-0.5-2.3
	l20.5-3.6L325.1,126.2z M322.8,115.4l-11.1,2.9l-0.7-2.3l11.1-2.9L322.8,115.4z M319.7,104.8l-19.4,7.2l-0.7-2l19.4-7.2L319.7,104.8
	z M315.6,94.4l-10.2,4.7l-0.9-2l10.2-4.7L315.6,94.4z M310.4,84.7l-18.1,10.4l-1.1-2l18.1-10.4L310.4,84.7z M303.4,73.4l1.4,1.8
	l-9.3,6.5l-1.4-1.8L303.4,73.4z M298,66.4l-16,13.3l-1.4-1.8l16-13.3L298,66.4z M238.5,124.1c-5.7,0.1-3.9-9.8,3.6-22.6
	c6.2-10.6,14.5-19.8,24.1-27.4l20.6-16.2c1.5-1.2,3.4,0.7,2.3,2.2l-46.4,61.7C241.6,123.1,240.1,124,238.5,124.1z M282.4,50.6
	l-13.3,16l-1.8-1.4l13.3-16L282.4,50.6z M271.8,42.4l1.8,1.4l-6.5,9.3l-1.8-1.4L271.8,42.4z M264.6,37.7l-10.4,18.1l-2-1.1
	l10.4-18.1L264.6,37.7z M252.6,31.6l2,0.9l-4.7,10.2l-2-0.9L252.6,31.6z M242.5,27.5l2,0.7l-7.2,19.4l-2-0.7L242.5,27.5z
	 M231.8,24.1l2.3,0.7l-2.9,11.1l-2.3-0.7L231.8,24.1z M221,21.9l2.3,0.5l-3.6,20.5l-2.3-0.5L221,21.9z M209.9,20.5l2.3,0.2
	l-0.9,11.3l-2.3-0.2L209.9,20.5z M197.7,21h2.3v20.3h-2.3V21z M190.1,20.5l0.9,11.3l-2.3,0.2l-0.9-11.3L190.1,20.5z M179,21.9
	l3.6,20.5l-2.3,0.5l-3.6-20.5L179,21.9z M168.2,24.1l2.9,11.1l-2.3,0.7l-2.7-11.1L168.2,24.1z M157.5,27.5l7.2,19.4l-2,0.7
	l-7.2-19.4L157.5,27.5z M147.4,31.6l4.7,10.2l-2,0.9l-4.7-10.2L147.4,31.6z M137.4,36.6l10.4,18.1l-2,1.1l-10.4-18.1L137.4,36.6z
	 M128.2,42.4l6.5,9.3l-1.8,1.4l-6.5-9.3L128.2,42.4z M119.4,49.2l13.3,16l-1.8,1.4l-13.3-16L119.4,49.2z M111,56.4l7.9,7.9l-1.6,1.8
	l-7.9-7.9L111,56.4z M103.3,64.6l16,13.3l-1.4,1.8l-16-13.3L103.3,64.6z M96.6,73.4l9.3,6.5l-1.4,1.8l-9.3-6.5L96.6,73.4z
	 M90.7,82.6L108.8,93l-1.4,2L89.3,84.7L90.7,82.6z M85.5,92.3l10.2,4.7l-0.9,2l-10.2-4.7L85.5,92.3z M81.2,102.7l19.4,7.2l-0.7,2
	l-19.6-7.2L81.2,102.7z M77.6,113.1l11.1,2.9l-0.7,2.3l-11.1-2.9L77.6,113.1z M75.1,124l20.5,3.6l-0.5,2.3l-20.5-3.6L75.1,124z
	 M73.5,135l11.3,0.9l-0.2,2.3l-11.3-0.9L73.5,135z M93.9,145.2v2.3H73.5v-2.3H93.9z M73.5,157.2l11.3-0.9l0.2,2.3l-11.3,0.9
	L73.5,157.2z M74.9,168l20.5-3.6l0.5,2.3l-20.5,3.6L74.9,168z M77.2,178.8l11.1-2.9l0.7,2.3l-11.1,2.9L77.2,178.8z M80.3,189.4
	l19.4-7.2l0.7,2L81,191.5L80.3,189.4z M84.4,199.8l10.2-4.7l0.9,2l-10.2,4.7L84.4,199.8z M89.6,209.8l18.1-10.4l1.1,2l-18.1,10.4
	L89.6,209.8z M96.6,220.8l-1.4-1.8l9.3-6.5l1.4,1.8L96.6,220.8z M118,214.5l1.4,1.8l-16,13.3l-1.4-1.8L118,214.5z M206.5,121
	l8.6-6.7c4.2-3.3,10.4-0.7,10.9,4.5c1.3,12.7-8.5,38-24.4,50.8l0,0l-89.2,67.1c-1.5,1.1-3.3-0.8-2.2-2.2l63.3-80.6
	C183.2,141.7,194.2,130.6,206.5,121z M117.6,243.6l13.3-16l1.8,1.4l-13.3,16L117.6,243.6z M128.2,251.8l-1.8-1.4l6.5-9.3l1.8,1.4
	L128.2,251.8z M135.4,256.5l10.4-18.1l2,1.1l-10.4,18.1L135.4,256.5z M147.4,262.6l-2-0.9l4.7-10.2l2,0.9L147.4,262.6z M157.5,266.9
	l-2-0.7l7.2-19.4l2,0.7L157.5,266.9z M168.2,270.1l-2.3-0.7l2.9-11.1l2.3,0.7L168.2,270.1z M179,272.3l-2.3-0.5l3.6-20.5l2.3,0.5
	L179,272.3z M190.1,273.7l-2.3-0.2l0.9-11.3l2.3,0.2L190.1,273.7z M200,273.9h-2.3v-20.3h2.3V273.9z M209.9,273.7l-0.9-11.3l2.3-0.2
	l0.9,11.3L209.9,273.7z M221,272.3l-3.6-20.5l2.3-0.5l3.6,20.5L221,272.3z M231.8,270.1l-2.9-11.1l2.3-0.7l2.7,11.1L231.8,270.1z
	 M237.3,246.8l7.2,19.4l-2,0.7l-7.2-19.4L237.3,246.8z"/>
</svg>
