<?xml version="1.0" encoding="UTF-8" standalone="no"?>
<svg
   xmlns:dc="http://purl.org/dc/elements/1.1/"
   xmlns:cc="http://creativecommons.org/ns#"
   xmlns:rdf="http://www.w3.org/1999/02/22-rdf-syntax-ns#"
   xmlns:svg="http://www.w3.org/2000/svg"
   xmlns="http://www.w3.org/2000/svg"
   viewBox="0 0 682.66669 682.66669"
   height="682.66669"
   width="682.66669"
   xml:space="preserve"
   id="svg2"
   version="1.1"><metadata
     id="metadata8"><rdf:RDF><cc:Work
         rdf:about=""><dc:format>image/svg+xml</dc:format><dc:type
           rdf:resource="http://purl.org/dc/dcmitype/StillImage" /></cc:Work></rdf:RDF></metadata><defs
     id="defs6"><clipPath
       id="clipPath18"
       clipPathUnits="userSpaceOnUse"><path
         id="path16"
         d="M 0,512 H 512 V 0 H 0 Z" /></clipPath></defs><g
     transform="matrix(1.3333333,0,0,-1.3333333,0,682.66667)"
     id="g10"><g
       id="g12"><g
         clip-path="url(#clipPath18)"
         id="g14"><g
           transform="translate(72.5396,392.6118)"
           id="g20"><path
             id="path22"
             style="fill:#000000;fill-opacity:1;fill-rule:nonzero;stroke:none"
             d="m 0,0 c -1.362,-0.194 -2.227,-4.19 -3.692,-8.608 -1.465,-4.418 -3.187,-9.893 -5.885,-14.14 -5.162,-8.126 -14.531,-8.691 -21.36,-1.877 -5.633,5.624 -7.17,12.883 -7.8,20.415 -0.294,3.529 -0.021,7.109 -0.378,10.628 -0.41,4.036 -0.135,8.704 -2.099,11.906 -4.628,7.546 -3.771,15.531 -3.792,23.556 -0.037,13.959 -0.004,27.917 -0.01,41.876 -0.001,1.324 1.072,2.397 2.396,2.397 h 304.737 c 1.156,0 2.113,-0.897 2.186,-2.051 0.076,-1.172 0.147,-2.35 0.153,-3.527 0.088,-17.555 0.337,-35.114 0.022,-52.662 -0.048,-2.69 -2.221,-5.839 -4.28,-7.912 -11.315,-11.389 -18.62,-24.844 -19.363,-40.872 -0.377,-8.144 1.907,-16.412 2.988,-24.625 0.921,-6.994 2.747,-14.01 2.575,-20.978 -0.363,-14.703 -12.275,-25.952 -26.81,-26.473 -14.441,-0.517 -26.988,9.442 -28.342,24.039 -0.667,7.187 0.869,14.756 2.464,21.917 1.176,5.28 4.021,10.196 6.194,15.243 8.015,18.622 1.904,41.649 -14.594,53.703 -2.244,1.64 -5.5,2.541 -8.323,2.626 -10.277,0.309 -20.576,-0.098 -30.853,0.23 -4.653,0.147 -5.557,-1.666 -5.539,-5.869 0.142,-32.277 0.078,-64.556 0.078,-96.835 0,-71.119 -0.032,-142.238 0.031,-213.357 0.01,-12.095 -1.782,-23.396 -8.851,-33.824 -3.368,-4.967 -4.428,-11.492 -6.569,-17.3 -1.65,-4.476 -2.835,-9.224 -5.136,-13.343 -6.125,-10.969 -18.659,-12.026 -27.018,-2.598 -4.963,5.599 -5.987,12.618 -7.345,19.627 -1.621,8.364 -3.883,16.604 -5.689,24.935 -0.73,3.364 -1.085,6.797 -1.086,10.239 -0.046,106.945 -0.038,213.89 -0.039,320.835 0,7.384 -0.002,7.387 -7.493,7.388 -7.449,0.003 -14.902,-0.147 -22.345,0.059 -3.566,0.098 -5.89,-1.255 -6.894,-4.516 C 40.991,16.202 40.042,12.06 38.981,7.953 37.832,3.502 37.239,-1.183 35.462,-5.365 30.395,-17.29 18.931,-19.289 9.847,-10.086 7.984,-8.2 6.45,-5.992 4.648,-4.04 3.389,-2.676 1.362,0.195 0,0" /></g><g
           transform="translate(460.3506,368.1904)"
           id="g24"><path
             id="path26"
             style="fill:#000000;fill-opacity:1;fill-rule:nonzero;stroke:none"
             d="m 0,0 c -0.106,0.614 -0.665,1.053 -1.287,1.022 -5.468,-0.277 -8.291,-5.488 -6.49,-12.449 0.302,-1.167 1.298,-2.535 2.334,-2.99 0.634,-0.278 2.183,0.799 2.929,1.623 C 0.935,-8.987 0.782,-4.537 0,0 m -38.243,133.268 c 0.251,0.412 0.842,0.447 1.133,0.063 1.594,-2.101 2.75,-3.403 3.553,-4.895 C -25.6,113.676 -16.843,99.428 -11.019,83.46 -4.365,65.222 4.477,47.795 11.777,29.777 15.264,21.172 17.225,12.928 19.769,3.964 20.082,2.859 19.392,0.251 18.594,-0.873 5.672,-19.088 -2.398,-39.25 -3.43,-61.558 c -0.784,-16.954 0.589,-33.997 0.282,-50.987 -0.344,-19.054 -1.335,-38.101 -2.374,-57.133 -0.487,-8.885 -0.746,-9.036 7.674,-11.12 2.924,-0.723 5.902,-1.23 8.826,-1.954 1.915,-0.474 3.814,-1.013 5.816,-1.584 1.791,-0.511 2.857,-2.33 2.458,-4.148 -0.196,-0.894 -0.413,-1.747 -0.716,-2.57 -7.321,-19.893 -14.635,-39.79 -22.142,-59.612 -1.17,-3.09 -3.183,-5.894 -5.021,-8.688 -3.158,-4.805 -4.76,-9.978 -3.518,-15.646 2.009,-9.158 4.015,-18.334 6.534,-27.359 2.784,-9.98 5.069,-19.93 3.819,-30.383 -1.378,-11.521 -7.774,-19.983 -16.197,-21.345 -9.51,-1.537 -19.471,4.141 -23.842,14.9 -2.205,5.425 -3.967,11.876 -3.189,17.483 1.349,9.702 -2.639,17.141 -6.886,24.869 -1.365,2.484 -2.977,4.859 -4.091,7.45 -10.414,24.212 -21.008,48.352 -30.972,72.748 -3.87,9.477 -6.549,19.44 -9.854,29.888 -0.42,1.325 0.364,2.734 1.715,3.061 6.057,1.461 11.564,3.008 17.177,3.773 5.459,0.744 6.827,3.226 6.664,8.422 -0.563,18.05 -0.878,36.113 -0.91,54.172 -0.018,10.788 0.972,21.578 0.969,32.368 -0.005,20.197 -0.48,40.393 -0.583,60.591 -0.026,5.239 0.645,10.48 0.923,15.723 0.199,3.771 -2.041,4.851 -5.386,4.809 -4.605,-0.058 -9.214,0.066 -13.82,0.034 -4.236,-0.03 -7.014,3.377 -6.138,7.521 0.285,1.347 0.7,2.678 1.179,3.971 7.304,19.716 14.198,39.598 22.095,59.074 5.569,13.734 12.157,27.094 18.952,40.279 4.523,8.777 10.116,17.004 15.743,26.219" /></g></g></g></g></svg>