<?xml version="1.0" encoding="utf-8"?>
<!-- Generator: Adobe Illustrator 23.0.6, SVG Export Plug-In . SVG Version: 6.00 Build 0)  -->
<svg version="1.1" id="Layer_1" xmlns="http://www.w3.org/2000/svg" xmlns:xlink="http://www.w3.org/1999/xlink" x="0px" y="0px"
	 viewBox="0 0 400 400" style="enable-background:new 0 0 400 400;" xml:space="preserve">
<path d="M89.8,71.4c-0.8,0.1-1.4,2.5-2.2,5.2c-0.9,2.7-1.9,6-3.6,8.6c-3.1,4.9-8.8,5.3-13,1.1c-3.4-3.4-4.4-7.8-4.7-12.4
	c-0.2-2.1,0-4.3-0.2-6.5c-0.2-2.5-0.1-5.3-1.3-7.2c-2.8-4.6-2.3-9.4-2.3-14.3c0-8.5,0-17,0-25.5c0-0.8,0.7-1.5,1.5-1.5h185.3
	c0.7,0,1.3,0.5,1.3,1.2c0,0.7,0.1,1.4,0.1,2.1c0.1,10.7,0.2,21.4,0,32c0,1.6-1.4,3.6-2.6,4.8c-6.9,6.9-11.3,15.1-11.8,24.9
	c-0.2,5,1.2,10,1.8,15c0.6,4.3,1.7,8.5,1.6,12.8c-0.2,8.9-7.5,15.8-16.3,16.1c-8.8,0.3-16.4-5.7-17.2-14.6c-0.4-4.4,0.5-9,1.5-13.3
	c0.7-3.2,2.4-6.2,3.8-9.3c4.9-11.3,1.2-25.3-8.9-32.7c-1.4-1-3.3-1.5-5.1-1.6c-6.2-0.2-12.5,0.1-18.8-0.1c-2.8-0.1-3.4,1-3.4,3.6
	c0.1,19.6,0,39.3,0,58.9c0,43.2,0,86.5,0,129.7c0,7.4-1.1,14.2-5.4,20.6c-2,3-2.7,7-4,10.5c-1,2.7-1.7,5.6-3.1,8.1
	c-3.7,6.7-11.3,7.3-16.4,1.6c-3-3.4-3.6-7.7-4.5-11.9c-1-5.1-2.4-10.1-3.5-15.2c-0.4-2-0.7-4.1-0.7-6.2c0-65,0-130.1,0-195.1
	c0-4.5,0-4.5-4.6-4.5c-4.5,0-9.1,0.1-13.6,0c-2.2-0.1-3.6,0.8-4.2,2.7c-0.8,2.5-1.3,5-2,7.5c-0.7,2.7-1.1,5.6-2.1,8.1
	c-3.1,7.3-10.1,8.5-15.6,2.9c-1.1-1.1-2.1-2.5-3.2-3.7C91.8,73,90.6,71.3,89.8,71.4z"/>
<path d="M302.3,5.2c0.2-0.3,0.5-0.3,0.7,0c1,1.3,1.7,2.1,2.2,3c4.8,9,10.2,17.6,13.7,27.3c4,11.1,9.4,21.7,13.9,32.6
	c2.1,5.2,3.3,10.2,4.9,15.7c0.2,0.7-0.2,2.3-0.7,2.9c-7.9,11.1-12.8,23.3-13.4,36.9c-0.5,10.3,0.4,20.7,0.2,31
	c-0.2,11.6-0.8,23.2-1.4,34.7c-0.3,5.4-0.5,5.5,4.7,6.8c1.8,0.4,3.6,0.7,5.4,1.2c1.2,0.3,2.3,0.6,3.5,1c1.1,0.3,1.7,1.4,1.5,2.5
	c-0.1,0.5-0.3,1.1-0.4,1.6c-4.5,12.1-8.9,24.2-13.5,36.2c-0.7,1.9-1.9,3.6-3.1,5.3c-1.9,2.9-2.9,6.1-2.1,9.5
	c1.2,5.6,2.4,11.1,4,16.6c1.7,6.1,3.1,12.1,2.3,18.5c-0.8,7-4.7,12.2-9.8,13c-5.8,0.9-11.8-2.5-14.5-9.1c-1.3-3.3-2.4-7.2-1.9-10.6
	c0.8-5.9-1.6-10.4-4.2-15.1c-0.8-1.5-1.8-3-2.5-4.5c-6.3-14.7-12.8-29.4-18.8-44.2c-2.4-5.8-4-11.8-6-18.2c-0.3-0.8,0.2-1.7,1-1.9
	c3.7-0.9,7-1.8,10.4-2.3c3.3-0.5,4.2-2,4.1-5.1c-0.3-11-0.5-22-0.6-32.9c0-6.6,0.6-13.1,0.6-19.7c0-12.3-0.3-24.6-0.4-36.8
	c0-3.2,0.4-6.4,0.6-9.6c0.1-2.3-1.2-2.9-3.3-2.9c-2.8,0-5.6,0-8.4,0c-2.6,0-4.3-2.1-3.7-4.6c0.2-0.8,0.4-1.6,0.7-2.4
	c4.4-12,8.6-24.1,13.4-35.9c3.4-8.4,7.4-16.5,11.5-24.5C295.5,15.8,298.9,10.8,302.3,5.2z M325.6,86.2c-0.1-0.4-0.4-0.6-0.8-0.6
	c-3.3,0.2-5,3.3-3.9,7.6c0.2,0.7,0.8,1.5,1.4,1.8c0.4,0.2,1.3-0.5,1.8-1C326.1,91.7,326.1,89,325.6,86.2z"/>
</svg>
