<?xml version="1.0" encoding="utf-8"?>
<!-- Generator: Adobe Illustrator 23.0.1, SVG Export Plug-In . SVG Version: 6.00 Build 0)  -->
<svg version="1.1"
	 id="svg4" inkscape:version="0.92.1 r15371" sodipodi:docname="atom.svg" xmlns:cc="http://creativecommons.org/ns#" xmlns:dc="http://purl.org/dc/elements/1.1/" xmlns:inkscape="http://www.inkscape.org/namespaces/inkscape" xmlns:rdf="http://www.w3.org/1999/02/22-rdf-syntax-ns#" xmlns:sodipodi="http://sodipodi.sourceforge.net/DTD/sodipodi-0.dtd" xmlns:svg="http://www.w3.org/2000/svg"
	 xmlns="http://www.w3.org/2000/svg" xmlns:xlink="http://www.w3.org/1999/xlink" x="0px" y="0px" viewBox="0 0 400 400"
	 style="enable-background:new 0 0 400 400;" xml:space="preserve">
<sodipodi:namedview  bordercolor="#666666" borderopacity="1" fit-margin-bottom="50" fit-margin-left="0" fit-margin-right="0" fit-margin-top="0" gridtolerance="10" guidetolerance="10" id="namedview6" inkscape:current-layer="svg4" inkscape:cx="-14.418744" inkscape:cy="82.885414" inkscape:pageopacity="0" inkscape:pageshadow="2" inkscape:window-height="705" inkscape:window-maximized="1" inkscape:window-width="1366" inkscape:window-x="-8" inkscape:window-y="245" inkscape:zoom="2" objecttolerance="10" pagecolor="#ffffff" showgrid="false">
	</sodipodi:namedview>
<g>
	<path d="M358.6,141.2c-5.6-7.3-12.7-12.8-20.4-17.6c-1-0.6-2.1-1.3-3.1-1.9c-1.6-0.9-3.2-1.9-4.7-3c-20.2-14.6-27.9-27.7-26.9-46.6
		l0,0c0.1-0.9,0.3-1.9,0.4-2.8c1.3-11.4,1.8-22.8-1.4-34.1c-3.1-10.6-9.1-18.7-19.9-22.5c-8.6-3-17.3-2.1-25.8,0.4
		c-10.4,3.1-19.8,8.2-28.7,14.2c-2.5,1.7-5.5,2.9-8.5,3.4c-17.6,2.6-33-4.7-38.3-7.7c-0.8-0.4-1.5-0.9-2.1-1.4
		c-8.9-6.9-18.5-12.6-29.6-15.3C136.5,3.1,125,5.5,116.1,16c-4.4,5.2-6.9,11.3-8.5,17.8c-4.1,16.4-2.9,33-0.3,49.5
		c0.6,3.7,1.3,7.4,2,11.2c0.1,0.6-0.3,1.2-0.9,1.3c-1.5,0.4-3.4,0.8-4.3,1c-15.6,3.4-28.9,7.6-43,15.2c-7.9,4.3-15.2,9.5-20.7,16.8
		c-5.4,7.1-7.9,14.9-6.5,23.9c0.9,5.7,3.3,10.6,6.5,15.1l0,0c0,0,0.1,0.1,0.1,0.1c0.8,1.1,1.7,2.2,2.6,3.3c0.6,0.7,1.3,1.6,2,2.4
		c28.3,37-4.6,80.4,17.3,85.6c21.5-0.6-6.9-41.1,14.3-67.2c0.4-0.4,0.8-0.8,1.2-1.2c0.7-0.5,1.2-1.2,1.7-2c0,0,0,0,0,0
		c0,0,0.1-0.1,0.1-0.1c1.6-3.2,0.4-6.9-2.9-8.9c-2.3-1.4-4.7-2.6-7-4c-7.8-4.8-15.2-10.1-20.2-18.2c-4.3-7-3.2-16,2.6-21.9
		c4.1-4.3,9-8.1,14.2-11.1c13.4-7.9,28.3-12,43.4-15.3c2.3-0.5,3,0.1,3.6,2.2c3.5,11.2,7.1,22.4,11,33.5c0.8,2.3,0.6,4.9-0.5,7.1
		c-15.4,29.3-28.2,59.5-32.2,92.7c-1.3,11.2-1.1,22.3,2.5,33.1c4.9,14.5,15.9,22.7,31.1,22.2c18-0.6,32.8-9.2,46.8-19.5l0,0
		c8.4-5.2,14.1-7.3,19.3-7.7c6.4-0.5,12.8,2,17.5,6.4c3.9,3.7,8,7.3,12.3,10.7c0.7,0.6,1.5,1.1,2.2,1.7l-0.1,0c0,0,0.1,0,0.1,0.1
		c2.8,2.1,5.6,4.1,8.6,6c4.7,3,8.9,6.9,11.9,11.6c20.2,31.7-15.5,75.6,9.7,85c2.7,1,7,0.7,9.3-0.9c13.7-9.9-20.9-43.6,21.3-93.6
		c2.8-2.8,5.1-6.1,6.9-10.1c1.6-3.6,2.9-7.4,3.8-11.2c4-17.1,2.6-34.3-0.3-51.4c-4.1-24.5-11.8-47.9-21.4-70.8
		c-3.1-7.4-6.6-14.6-9.9-21.9c-1.4-2.9-4.2-4.4-7-4c-3.1,0.5-5.6,2.7-5.7,5.9c-0.1,1.7,0.5,3.6,1.3,5.2
		c9.5,19.9,17.8,40.3,23.6,61.6c5.7,20.8,10,41.8,8,63.6c-0.6,6.8-2,13.3-5.5,19.3c-3.7,6.3-9.1,9.4-16.5,8.9
		c-8.2-0.5-15.3-4.1-22-8.3c-14.4-9-26.3-20.9-37.2-33.7c-26-30.5-45.5-64.9-61-101.7c-0.5-1.1-0.2-3,0.5-4
		c9.1-14.2,18.4-28.3,27.6-42.5c1.3-1.9,2.8-2.6,5.1-2.5c15.7,0.7,31.4,1.1,47,2.2c19.6,1.4,38.9,4.9,58,10
		c18.2,4.9,36,11.1,52.1,21.1c6.9,4.3,13.3,9.2,17.9,16.2c4.9,7.4,3.8,17.1-2.3,23.6c-3.3,3.5-7.2,6.6-11.3,9.1
		c-5.1,3.1-10.7,5.4-16.1,8c-3.5,1.7-5,5.3-3.7,8.8c0,0.1,0.1,0.2,0.2,0.3c0,0.1,0,0.1,0.1,0.2c0.3,0.6,0.5,1,0.9,1.6
		c9.9,16.4-5.5,49.6,8.6,56.2c2,0.9,4.3,1.1,6.2,0.1c12.9-6.8-6.6-49.8,11.9-64.2c0.8-0.5,1.5-1,2.3-1.5c0.2-0.1,0.2-0.1,0.4-0.3
		c3.2-2.3,6.3-4.8,9.2-7.6C369,172.7,370,156,358.6,141.2z M169.9,232.3L169.9,232.3c9.6,17.8-1,34.3-9.1,40.1
		c-7.8,5.3-15.8,10-25,12.5c-3.9,1.1-8.2,2-12.2,1.8c-9.2-0.4-14.7-5.6-17.3-15.5c-3-11.6-1.9-23.3,0.2-34.9
		c3.8-20.8,11.2-40.5,20.1-59.6c1.5-3.1,3-6.3,4.7-9.8c0.4-0.9,1.8-0.9,2.2,0c1.1,2.3,2.5,5.4,2.8,6
		C146.4,195.4,156,212,169.9,232.3z M133.1,129.8l-6.8-21.5c-0.3-1,0.4-2.1,1.5-2.3l22.5-2.4c1.5-0.2,2.4,1.5,1.6,2.7
		c-5.3,8.1-10.4,15.9-15.7,24C135.4,131.4,133.5,131.2,133.1,129.8z M166.9,86.4c-2.1,2.6-4.3,3.5-8.5,3.2
		c-10.6-0.6-21.3,0.4-31.6,3c-3.2,0.8-4.1,0.5-4.5-1.6c-3-14.9-5-29.9-3.3-45.1c0.8-7.2,2.3-14.2,6.6-20.3c3.4-4.8,8-7.2,13.9-7.2
		c7.2,0,13.6,2.5,19.6,6.1c2.2,1.3,4.3,2.7,6.4,4.1c3.4,2.8,18.2,14,18,30.4c-0.1,5.2-2.3,10.2-5.7,14.1
		C174.1,77.6,170.4,82,166.9,86.4z M289.3,76.1C287.6,83.9,280,90,267.2,93c-7.4,1.7-15.1,1.7-22.7,0.6c-19.2-2.8-38.7-4.2-58.3-4.4
		c0,0-3.4,0-4-0.1c-0.6,0,0.5-1,0.7-1.2c2.5-3,5-5.9,7.6-8.8c13.9-15.6,28.8-30,46.3-41.5c8.5-5.6,17.4-10.4,27.5-12.6
		c13.4-3,22.5,2.2,25.3,15.3c1.4,6.3,1.5,13,1.4,19.5C291,65.3,289.8,70.6,289.3,76.1z"/>
	<path d="M220.8,156.7c0-10.7-8.7-19.3-19.4-19.3c-10.9,0-19.6,8.6-19.6,19.4c0,4.9,1.9,9.4,4.9,12.9c2.8,3.1,5.3,6.4,6.8,10.3
		c7.7,19.1-5.9,36.6,2.8,43.6c2.6,2.1,6.4,2.1,9.1,0.1c8.6-6.5-0.9-24.5,2.7-40.7c1.1-5,4-9.2,7.5-12.9
		C218.9,166.5,220.8,161.9,220.8,156.7z"/>
</g>
</svg>
