<?xml version="1.0" encoding="utf-8"?>
<!-- Generator: Adobe Illustrator 22.0.0, SVG Export Plug-In . SVG Version: 6.00 Build 0)  -->
<!DOCTYPE svg PUBLIC "-//W3C//DTD SVG 1.1//EN" "http://www.w3.org/Graphics/SVG/1.1/DTD/svg11.dtd">
<svg version="1.1" id="Layer_1" xmlns="http://www.w3.org/2000/svg" xmlns:xlink="http://www.w3.org/1999/xlink" x="0px" y="0px"
	 viewBox="0 0 400 400" enable-background="new 0 0 400 400" xml:space="preserve">
<g>
	<path d="M161.5,260.4c-0.8-1.7-3.1-1.9-4.1-0.3c-14.9,23.2-29.4,45.8-43.7,68.4c-2.9,4.6-5.8,6.5-11.5,6.4
		c-18.2-0.4-36.5-0.2-56.1-0.2c-1.5,0-2.6-1.5-2.2-3c1.1-3.5,1.8-6.5,3.5-9.1c25-38.5,50.2-77,75.6-115.3c3-4.6,3.1-7.8-0.1-12.1
		c-4.2-5.6-7.2-12.1-11.5-17.6c-0.9-1.2-2.2-2.2-3.5-3.1c-2.8-1.8-6.6-0.9-8.3,2c-0.8,1.4-1.5,2.8-1.8,4.2
		c-0.8,3.8,0.1,7.9,0.1,11.9c0,4.6,0.2,9.3-0.5,13.8c-2.1,13.2-14,18.9-25.8,12.5c-7.8-4.2-12.4-11.3-12.7-19.8
		c-0.4-9,0.2-18.2,2-26.9c4.7-23,4.1-45.7-1-68.4c-1.2-5.5-4.3-10.5-6.4-15.8c-0.8-2-1.2-4.8-0.4-6.2c0.7-1.3,3-1.9,5-2
		c18.1-0.2,36.3-0.2,54.4,0.1c2.2,0,5.2,2.1,6.4,4.1c14.3,22.4,28.2,45.1,42.3,67.6l0,0c0.9,1.4,2.9,1.4,3.8,0
		c5.1-8.3,10.1-16.4,15-24.5c8.7-14.2,17.5-28.4,26.1-42.7c2.1-3.5,4.4-4.7,8.5-4.7c17.3,0.2,34.5,0,51.8,0.2c1.7,0,3.6,0.4,5.4,1.1
		c1.1,0.4,1.8,2,1.5,3.1c-0.4,1.6-0.9,2.9-2,4.6c-23.4,36.6-46.9,73.2-70.5,109.8c-2.3,3.5-2.2,6.2,0.4,9.9
		c17.5,25.9,34.6,52,51.8,78c7.4,11.3,14.9,22.5,22.3,33.8c0.8,1.3,0.8,1.1,1.6,2.7c5.5,10.1,2.4,11.9-8.6,11.9
		c-15,0-26.4,0.1-41.4-0.1c-4.6-0.1-6.7,1.6-6.4,6c0.3,4.8,0.6,9.7,1.2,14.5c2,14.7-4.4,25.1-16.9,27.1
		c-15.8,2.5-29.6-5.7-31.8-19.9c-1-6.6-0.8-13.7,0.2-20.4c2.3-16.2,1.8-27.9,0.8-38.2C172.4,289.4,169.1,277.7,161.5,260.4z"/>
	<path d="M322.4,105.9c-1.7,1.6-0.6,4.4,1.8,4.4c9.2,0,17.4,0.1,25.6-0.1c4.6-0.1,7.2,1,7.3,6.2c0,1.2,0,3.5,0,6.5
		c0,3.1,0.6,8.4-2,12.3c-2,2.9-9,2.1-13.9,3.3c-6.2,1.5-12.6,2.7-18.3,5.3c-10.3,4.7-14.4,13.3-12.9,24.4c0.8,5.9,1.7,11.8,2.3,17.7
		c0.3,2.6,0.2,5.3-0.1,7.9c-1.1,10.4-6.7,17-14.9,17.6c-8.5,0.7-17.1-5.8-18.2-15.8c-1.1-9.1,0.3-18.4,0.1-27.6
		c-0.2-7.9,0.8-16.5-1.9-23.5c-5.5-14.1-0.4-25.2,6.4-36.5c0.7-1.1,1.5-2.1,2.3-3.2c2.9-4.4,7.5-7.1,7.6-13.9
		c0.2-9.5-2.7-18.8-8.7-26.7c-2.8-3.6-8.2-7.4-8-12.2c0.4-9.4,3.2-17.2,10.7-23.7c15.5-13.6,40.2-15.2,56.6-2.3
		c15,11.8,17.3,34.1,4.7,51.2c-7.1,9.7-16.3,17.8-24.5,26.6C323.8,104.5,323.2,105.2,322.4,105.9z M312.4,72.1
		c1.3,1.6,3.8,1.7,5.3,0.3c1.8-1.7,3.7-3.4,5.4-5.3c4.1-4.7,5.8-10.3,4.8-16.5c-0.8-5.2-4.9-7.8-9.2-7.7c-3.3,0.1-8.3,2.1-9.6,4.7
		C306.2,53.1,306.3,64.9,312.4,72.1z"/>
</g>
</svg>
