<?xml version="1.0" encoding="utf-8"?>
<!-- Generator: Adobe Illustrator 21.1.0, SVG Export Plug-In . SVG Version: 6.00 Build 0)  -->
<!DOCTYPE svg PUBLIC "-//W3C//DTD SVG 1.1//EN" "http://www.w3.org/Graphics/SVG/1.1/DTD/svg11.dtd">
<svg version="1.1" id="Layer_1" xmlns="http://www.w3.org/2000/svg" xmlns:xlink="http://www.w3.org/1999/xlink" x="0px" y="0px"
	 viewBox="0 0 400 400" enable-background="new 0 0 400 400" xml:space="preserve">
<g>
	<path d="M106.8,269.7c-0.2-6.6-1.7-9.1-5.8-12.3c-2.7-2.1-4.7-5.2-7.5-7.1c-8.2-5.4-16.8-10.1-25-15.5c-5.4-3.5-10.2-7.9-15.4-11.7
		c-2.8-2-5.8-3.7-8.6-5.7c-5.9-4.2-11.8-8.6-17.7-12.9c-0.8-0.6-1.4-1.4-2.2-1.9c-2.6-1.9-5.1-3.8-7-6.6c-2-2.9-5.2-5.1-7.9-7.5
		c-2.2-2-2.3-3.8,0-5.8c1.9-1.7,3.7-3.3,5.4-5.1c1.3-1.4,2.5-3,3.7-4.6c0.3-0.4,0.5-0.8,0.9-1.1c9-7,17.5-14.7,27.7-20.1
		c4.5-2.4,8.1-6.4,12.4-9.4c6.2-4.3,12.5-8.3,18.8-12.3c6.4-4.1,15.7-10.2,18.3-11.1c2.7-0.9,4.3-1.9,5.8-2.6
		c3.1-1.5,6.1-3.3,9.2-4.9c2.3-1.2,4.7-2.3,7.1-3.2c2.6-1,3.4-0.3,3.8,2.4c1.3,8.8,2.6,17.7,4,26.5c0.7,4.4,2.8,5.4,7.1,4
		c2.2-0.7,4.6-1.3,7-1.3c10.5-0.1,21-0.3,31.5,0c8.3,0.2,16.5,1.1,24.8,1.5c3.9,0.2,7.9-0.4,11.8-0.5c17.5-0.4,34.1-0.4,41.2-0.4
		c7.1,0,11-0.4,15,0.3s6.9,0.5,7.5-4.2c0.8-6.1,1.6-12.2,2.4-18.3c0.4-2.7,0.8-5.5,1.1-8.2c0.3-2.7,2.2-2.4,3.9-1.8
		c3.7,1.5,4.3,2,11,5s9.8,4.1,15.7,7.8c5.9,3.7,11.6,7.5,17.6,10.9c7.2,4.1,13.9,9,20.1,14.4c2.6,2.2,5.5,4.2,8.5,5.9
		c7.7,4.6,15.2,9.5,21.7,15.8c2.4,2.3,3.6,3.2,7.6,6.9c4.1,3.7,3,2.5,6.4,6.4s4.2,7.5,2.3,12.4c-1.8,4.6-3.4,9.3-4.7,14.1
		c-0.5,2-0.1,4.3,0.1,6.5c0.6,4.8,1.6,9.7,2,14.5c0.3,3.8-3,9.1-6.2,10c-4.1,1.1-7.8-0.1-11-2.8c-2.7-2.2-2.8-4.5-2.9-8.4
		c-0.2-3.9,1.6-7.3,2.4-10.9c0.1-0.7,0,1.8,0.4-2s0-5.2-1.6-5.8s-3.3,1.1-4.8,2c-4.4,2.6-8.8,5.2-13,8.1c-3.6,2.4-7.2,4.9-10.3,7.8
		c-6.3,5.9-13.9,9.7-21.1,14.1c-6.6,4-14.3,9.6-19.4,12.5c-5.1,2.9-9.8,5-13.8,6.7c-4,1.7-5.7,1.8-7.9,2.5c-1.8,0.5-2.8-0.4-3.1-2.4
		c-1.2-9-2.4-18.1-3.7-27.1c-0.6-3.9-3-4.9-7.4-3.6c-2.3,0.7-4.8,1.2-7.2,1.3c-6.8,0.2-13.7-0.4-20.5,0.2c-6.2,0.6-12.4,2.6-15.4,9
		c-1.8,3.9-1.6,8.2-0.7,12.5c1.3,6.1,3.7,12,3,18.6c-0.7,6.6-6.5,14.7-13,16.1c-1.6,0.3-3.8,0.2-5-0.7c-4.4-3.6-10.2-6-12.3-11.7
		c-1.5-4-3.2-8.4-1.2-13c1.7-4.1,3-8.3,4.4-12.4c1.1-3.2-0.1-5.9-2.4-8.1c-3.8-3.5-7.8-6.9-11.8-10.1c-1.1-0.9-2-1.4-4.2-1.3
		s-11.5,0.8-17.3,0.9c-5.9,0.2-11.8,0.2-17.6,0c-3.3-0.1-6.6-0.7-9.8-1.5c-4.6-1.1-6.4-0.3-7.2,4.4c-0.9,5.5-1.5,11.1-2.3,16.6
		c-0.3,2-0.7,3.9-1.1,5.9c-1.1,5.4,1.5,10,3.8,14.5c3.1,6.1,2.6,11.8-1,17.5c-2.9,4.6-9.6,4.7-13.2,0.3
		C109.3,284.5,107,276.3,106.8,269.7z"/>
</g>
</svg>
