<?xml version="1.0" encoding="utf-8"?>
<!-- Generator: Adobe Illustrator 23.0.1, SVG Export Plug-In . SVG Version: 6.00 Build 0)  -->
<svg version="1.1"
	 id="svg4" xmlns:cc="http://creativecommons.org/ns#" xmlns:dc="http://purl.org/dc/elements/1.1/" xmlns:inkscape="http://www.inkscape.org/namespaces/inkscape" xmlns:rdf="http://www.w3.org/1999/02/22-rdf-syntax-ns#" xmlns:sodipodi="http://sodipodi.sourceforge.net/DTD/sodipodi-0.dtd" xmlns:svg="http://www.w3.org/2000/svg"
	 xmlns="http://www.w3.org/2000/svg" xmlns:xlink="http://www.w3.org/1999/xlink" x="0px" y="0px" viewBox="0 0 400 400"
	 style="enable-background:new 0 0 400 400;" xml:space="preserve">
<sodipodi:namedview  bordercolor="#666666" borderopacity="1" fit-margin-bottom="50" fit-margin-left="0" fit-margin-right="0" fit-margin-top="0" gridtolerance="10" guidetolerance="10" id="namedview6" inkscape:current-layer="svg4" inkscape:cx="18.716544" inkscape:cy="83.055722" inkscape:pageopacity="0" inkscape:pageshadow="2" inkscape:window-height="705" inkscape:window-maximized="1" inkscape:window-width="1366" inkscape:window-x="-8" inkscape:window-y="245" inkscape:zoom="2.8284271" objecttolerance="10" pagecolor="#ffffff" showgrid="false">
	</sodipodi:namedview>
<path d="M311.5,127.9c-1.9-1.5-4.5-3-5-5c-2.2-8.9-4.3-17.9,1.2-26.6c2.1-3.4,3.8-7.1,4.9-10.9c0.6-2.2,0.9-4.3,0.9-6.4l0,0
	c0-0.1,0-0.1,0-0.2c0-1.3-0.2-2.6-0.5-3.8c-2.2-15.2-5.3-28.5,3.6-41.3c0.6-0.8,0.5-1.8-0.1-2.6c-10.2-13.1-27.4-18.5-44.5-14.2
	c-13.8,3.4-23.8,12.4-32.8,22.8c-1.1,1.2-2.9,2.4-4.5,2.4c-4.2,0.1-5.1-3-4.3-6.3c1.1-4.8,2.4-9.6,3.7-14.4c0.7-2.4-1.6-4.7-4-4
	c-4.1,1.1-7.7,3.5-11.5,6.1c-1.9,1.3-4.6,0.3-5.1-2c-0.5-2.3-0.9-4.4-1.1-6.6c-0.1-2.1,0-4.2,0.2-6.3c0.2-2.5-2.3-4.3-4.6-3.2
	c-9.4,4.3-16.4,10.9-18.8,22.1c-0.1,0.4-0.5,0.8-0.9,0.8c-0.5,0-0.9-0.3-1-0.8l-2.5-11.6c-0.5-2.4-3.4-3.4-5.3-1.7
	c-7.4,6.6-11.9,14.7-12.8,24.7c-0.1,1.2-0.6,2.9-1.6,3.3c-1,0.5-2.9-0.7-3.9-1.6c-2-1.9-3.6-4.2-5.5-6.1
	c-11.4-11.9-24.7-19.7-41.8-18.7c-11.3,0.7-21.2,4.5-28.4,12.6c-1.5,1.7-0.8,4.5,1.4,5.2c4.9,1.7,9.7,3.3,14.2,5.6
	c7.2,3.8,8.9,9.1,8.1,17c-0.5,4.4-2.5,5.4-6.3,6C90,64,83.8,74,87.6,86.7c0.8,2.6,1.6,5.4,3.3,7.5c6,7.4,5.8,15.4,5.1,23.7
	c-0.4,4-3.4,7.1-6.6,9.5c-13.2,10.2-13.5,24.4-0.5,35c3.1,2.5,6.5,4.8,10,6.8c4.7,2.8,8.5,6.9,10.5,11.9c3.4,8.2,1.7,16.9-7.6,22.4
	c-1.9,1.1-3.7,2.4-5.2,4.1c-10.5,11.6-13.8,33-7,50.3l0,0c0,0,0,0,0,0c1.5,3.7,3.4,7.3,5.8,10.5c2.9,3.9,5.6,8.1,7.5,12.6
	c11.2,26.6,8.7,51.7,5.5,71.5C104,379,99.8,395,121.5,395c16.1-0.2,12.8-21.7,8.4-43c-4.8-23.4-9.6-46.7,13.1-41.3
	c1.3,0.3,2.7,0.8,4,1.3c3.1,1.2,6.5,2,10,2.6c1.7,0.3,3.4,1,4.8,1.9c21.4,14.4,55.2,14.5,76.5,0.1c1.3-0.9,2.8-1.7,4.3-2
	c17.9-2.8,30.6-12.7,39.2-28.4c0.8-1.4,2.1-3,3.5-3.6c18.4-7.6,27.3-21.7,28.5-41.2c0.3-4.6,0.1-9-0.7-13.2c0,0,0,0,0,0l0,0
	c-0.3-1.8-0.7-3.5-1.3-5.3c-0.8-2.8-1.4-5.6-1.5-8.5c-0.5-13.3,1.2-33.4,3.8-48.3c0.8-4.6,2.5-9,4.6-13.2
	C322.9,144.7,320.3,134.9,311.5,127.9z M119.5,39.4c7.5,1.8,15.8,9.7,15.2,16.4c-0.3,2.8-3.9,6.6-6.8,7.6c-2.8,0.9-7.2-0.3-8-4.9
	c-0.4-2.2-0.7-4.4-1.1-6.6c-0.6-3.3-1.2-6.6-1.8-10.1C116.7,40.3,118,39,119.5,39.4z M111.3,214.9c0.5-6.1,2.5-11,4.3-12.2
	c0.9-0.6,2.3-0.8,2.3,1.4c-0.1,3.7-0.3,7.4-0.5,11.1c-0.3,4.9-0.9,9.8-1.4,14.7c0,0.4-0.3,0.8-0.7,0.9c-0.5,0.1-1-0.1-1.2-0.5
	C111.5,225.3,111,219.7,111.3,214.9z M135.5,270.1l0.8,5.3c0.2,1.4-1,2.6-2.4,2.4c-3.5-0.5-6.8-0.9-10.1-1.8
	c-18-4.9-28.1-17.7-28.5-36.4c-0.1-5.4,1.2-10.7,1.8-16.1c0-0.1,0-0.6,0.3-0.6s0.6,0.8,0.9,1.4c8.6,18.4,24.6,24.1,42.5,26.2
	c1.5,0.2,2.3,1.8,1.6,3.1l-6,11.2C135.6,266.3,135.2,268.2,135.5,270.1z M134.5,133.5v-5c0-3,3.3-4.7,5.7-3.1
	c6.9,4.7,14.7,9.6,20.1,15.8c0,0,0,0.1,0.1,0.1c1.7,1.9,0.9,5-1.5,5.8C149,150.7,134.5,145.7,134.5,133.5z M185.8,273.9
	c-0.2,1.1-0.7,2.2-1.3,3.1c-1.6,2.4-3.3,4.7-5,7c-4.9,6.2-11.7,6.6-17.5,1.1c-1.8-1.8-3.6-3.6-5.5-5.4l0,0l0,0
	c-0.7-0.7-1.1-1.5-1.3-2.4c-1.8-8.9-1.1-9.2,9.4-9.2c5.2,0,10.3-0.1,15.5,0C185.1,268.3,186.6,269.7,185.8,273.9z M292.3,44.6
	c1-1.6,3.4-1.9,4.7-0.5c2.1,2.3,3.4,7.2,3.4,11.3c0,3.6-1.2,6.5-3,6.5s-2.4-0.2-3.2-0.5c-1.1-0.4-2.7-1.5-3.1-3.8
	C290,50.9,290.1,48,292.3,44.6z M288.2,179.5c8.9-1.2,17.9,3.9,11.7,24.4c-0.1,0.4-0.2,0.6-0.3,1c-1.2,3.9-3,8.3-5.4,13.3
	c-1,2-2.2,4-3.6,5.7c-1,1.2-2.1,2.4-3.3,3.5c-1.5,1.4-4,0.4-4.1-1.6c-0.5-11.9-1.1-23.8-1.1-35.6c0-2.7,0.6-5.2,1.6-7.4
	C284.6,180.9,286.3,179.8,288.2,179.5z M266.5,52.1c2.5-6.2,6.6-11,13.4-12.8c0.7-0.2,1.4-0.3,2-0.4c0.7-0.1,1.3,0.5,1.2,1.3
	c-1,6-1.8,11.4-2.7,16.8c-0.5,2.9-1.4,5-4.9,6.2c-5.2,1.8-8.1-1.5-9.2-4.7C265.7,56.7,265.7,54,266.5,52.1z M244.1,278.5
	L244.1,278.5c-0.4,0.8-0.9,1.5-1.5,2.1c-1.1,1.2-2.2,2.4-3.3,3.5c-6.5,6.6-13.7,6.2-19.4-1.2c-1.4-1.9-2.8-3.8-4.1-5.8
	c-0.9-1.3-1.6-2.9-1.7-4.5c-0.3-3.3,1.5-4.5,6.1-4.6c6-0.1,11.9-0.1,17.9,0c7.8,0.1,9.3,2,6.7,9
	C244.5,277.6,244.3,278.1,244.1,278.5z M241.2,147.1c-2.4-0.8-3.2-3.8-1.6-5.8c5.7-6.6,12.3-11.7,20.3-16.6c2.5-1.5,5.6,0.3,5.6,3.1
	v5.7C265.5,145.4,251.3,150.6,241.2,147.1z M298.8,260.3c-7.7,11.7-19.3,16.3-32.7,17.5c-1.4,0.1-2.5-1-2.3-2.4l0.7-5.5
	c0.2-1.8-0.1-3.5-0.9-5.1l-5.9-11.3c-0.7-1.3,0.1-2.9,1.6-3.1c17-2.2,32.9-7,41.6-24.8l0,0c0.4-1,1.9-0.9,2.1,0.2
	C306.1,237.8,305.8,249.6,298.8,260.3z"/>
</svg>
