<?xml version="1.0" encoding="utf-8"?>
<!-- Generator: Adobe Illustrator 23.0.6, SVG Export Plug-In . SVG Version: 6.00 Build 0)  -->
<svg version="1.1"
	 id="svg4" xmlns:cc="http://creativecommons.org/ns#" xmlns:dc="http://purl.org/dc/elements/1.1/" xmlns:inkscape="http://www.inkscape.org/namespaces/inkscape" xmlns:rdf="http://www.w3.org/1999/02/22-rdf-syntax-ns#" xmlns:sodipodi="http://sodipodi.sourceforge.net/DTD/sodipodi-0.dtd" xmlns:svg="http://www.w3.org/2000/svg"
	 xmlns="http://www.w3.org/2000/svg" xmlns:xlink="http://www.w3.org/1999/xlink" x="0px" y="0px" viewBox="0 0 400 400"
	 style="enable-background:new 0 0 400 400;" xml:space="preserve">
<path d="M295.1,109.8c-1.6-1.3-3.8-2.6-4.2-4.3c-1.9-7.6-3.6-15.2,1-22.7c1.8-2.9,3.3-6.1,4.2-9.3c0.5-1.9,0.8-3.7,0.7-5.4l0,0
	c0-0.1,0-0.1,0-0.2c0-1.1-0.2-2.2-0.5-3.3c-1.9-13-4.5-24.3,3.1-35.2c0.5-0.7,0.4-1.6-0.1-2.2c-8.7-11.1-23.4-15.8-37.9-12.1
	c-11.8,2.9-20.3,10.5-27.9,19.4c-0.9,1-2.5,2.1-3.8,2.1c-3.6,0.1-4.3-2.6-3.7-5.4c0.9-4.1,2-8.2,3.2-12.3c0.6-2.1-1.3-4-3.4-3.4
	c-3.5,0.9-6.6,3-9.8,5.2c-1.6,1.1-3.9,0.3-4.3-1.7c-0.4-2-0.8-3.8-0.9-5.6c-0.1-1.8,0-3.6,0.2-5.4c0.2-2.1-2-3.7-3.9-2.8
	c-8,3.7-14,9.3-16.1,18.8c-0.1,0.4-0.4,0.7-0.8,0.7c-0.4,0-0.7-0.3-0.8-0.7l-2.1-9.9c-0.4-2.1-2.9-2.9-4.5-1.5
	c-6.3,5.6-10.2,12.5-10.9,21.1c-0.1,1-0.5,2.4-1.4,2.8c-0.9,0.4-2.5-0.6-3.3-1.4c-1.7-1.6-3-3.5-4.7-5.2
	c-9.7-10.2-21.1-16.8-35.7-15.9c-9.6,0.6-18.1,3.8-24.2,10.7c-1.3,1.5-0.7,3.8,1.2,4.4c4.2,1.5,8.3,2.8,12.1,4.8
	c6.1,3.2,7.6,7.8,6.9,14.5c-0.4,3.7-2.1,4.6-5.4,5.1c-11.2,1.8-16.5,10.3-13.2,21.1c0.7,2.2,1.4,4.6,2.8,6.4
	c5.1,6.3,5,13.1,4.3,20.2c-0.3,3.4-2.9,6-5.6,8.1c-11.2,8.7-11.5,20.8-0.4,29.8c2.7,2.1,5.5,4.1,8.5,5.8c4,2.3,7.2,5.9,9,10.2
	c2.9,7,1.4,14.4-6.5,19.1c-1.6,1-3.2,2.1-4.5,3.5c-8.9,9.9-11.7,28.1-6,42.9l0,0c0,0,0,0,0,0c1.2,3.2,2.9,6.2,4.9,8.9
	c2.5,3.4,4.8,6.9,6.4,10.8c9.6,22.7,7.4,44.1,4.7,61c-3.7,22.7-7.3,36.3,11.2,36.3c13.7-0.1,10.9-18.5,7.1-36.7
	c-4.1-20-8.2-39.8,11.1-35.2c1.1,0.3,2.3,0.7,3.4,1.1c2.7,1,5.5,1.7,8.5,2.3c1.4,0.2,2.9,0.8,4.1,1.6c18.2,12.3,47.1,12.3,65.2,0.1
	c1.1-0.7,2.4-1.5,3.7-1.7c15.3-2.4,26.1-10.8,33.4-24.2c0.7-1.2,1.8-2.6,3-3.1c15.7-6.5,23.3-18.5,24.3-35.1
	c0.2-3.9,0.1-7.6-0.6-11.2c0,0,0,0,0,0l0,0c-0.3-1.5-0.6-3-1.1-4.5c-0.7-2.4-1.2-4.8-1.3-7.2c-0.4-11.4,1-28.5,3.3-41.2
	c0.7-3.9,2.1-7.7,3.9-11.2C304.9,124.1,302.6,115.8,295.1,109.8z M131.3,34.3c6.4,1.5,13.5,8.3,13,14c-0.2,2.4-3.3,5.6-5.8,6.4
	c-2.3,0.8-6.1-0.2-6.9-4.2c-0.4-1.9-0.6-3.8-0.9-5.7c-0.5-2.8-1-5.7-1.5-8.6C128.9,35.1,130.1,34,131.3,34.3z M124.4,184
	c0.4-5.2,2.2-9.4,3.7-10.4c0.8-0.5,1.9-0.7,1.9,1.2c-0.1,3.2-0.3,6.3-0.5,9.4c-0.2,4.2-0.8,8.4-1.2,12.5c0,0.4-0.3,0.7-0.6,0.8
	c-0.4,0.1-0.8-0.1-1-0.4C124.5,192.9,124,188.1,124.4,184z M145,231.1l0.7,4.5c0.2,1.2-0.9,2.2-2.1,2c-2.9-0.4-5.8-0.8-8.6-1.6
	c-15.4-4.2-24-15.1-24.3-31.1c-0.1-4.6,1-9.2,1.6-13.7c0-0.1,0-0.5,0.3-0.5s0.5,0.7,0.7,1.2c7.3,15.7,21,20.6,36.3,22.3
	c1.3,0.1,2,1.5,1.4,2.6l-5.2,9.6C145,227.9,144.8,229.5,145,231.1z M144.1,114.6v-4.3c0-2.5,2.8-4,4.9-2.6c5.9,4,12.5,8.2,17.1,13.5
	c0,0,0,0,0.1,0.1c1.4,1.7,0.8,4.3-1.3,5C156.5,129.2,144.1,125,144.1,114.6z M187.9,234.3c-0.2,1-0.6,1.9-1.1,2.7
	c-1.4,2-2.8,4-4.3,6c-4.1,5.3-10,5.6-15,0.9c-1.6-1.5-3.1-3-4.7-4.6l0,0l0,0c-0.6-0.6-0.9-1.3-1.1-2.1c-1.5-7.6-0.9-7.8,8-7.9
	c4.4,0,8.8-0.1,13.2,0C187.3,229.5,188.6,230.7,187.9,234.3z M278.7,38.8c0.9-1.4,2.9-1.6,4-0.4c1.8,1.9,2.9,6.1,2.9,9.6
	c0,3.1-1,5.5-2.5,5.5s-2-0.2-2.7-0.5c-1-0.4-2.3-1.3-2.6-3.2C276.7,44.1,276.9,41.7,278.7,38.8z M275.2,153.8
	c7.6-1,15.3,3.3,10,20.8c-0.1,0.3-0.2,0.5-0.3,0.8c-1.1,3.3-2.5,7.1-4.6,11.3c-0.8,1.7-1.9,3.4-3.1,4.9c-0.9,1-1.8,2-2.8,3
	c-1.3,1.2-3.4,0.4-3.5-1.4c-0.4-10.1-0.9-20.3-0.9-30.4c0-2.3,0.5-4.4,1.4-6.3C272.2,155.1,273.6,154,275.2,153.8z M256.7,45.2
	c2.1-5.3,5.7-9.4,11.4-10.9c0.6-0.2,1.2-0.3,1.7-0.3c0.6-0.1,1.1,0.5,1,1.1c-0.8,5.1-1.5,9.7-2.3,14.3c-0.4,2.5-1.2,4.2-4.2,5.3
	c-4.5,1.5-6.9-1.2-7.9-4C256,49.1,256.1,46.8,256.7,45.2z M237.6,238.3L237.6,238.3c-0.4,0.7-0.8,1.3-1.3,1.8c-0.9,1-1.9,2-2.8,3
	c-5.6,5.7-11.7,5.3-16.5-1c-1.2-1.6-2.3-3.3-3.5-4.9c-0.8-1.1-1.3-2.5-1.4-3.9c-0.2-2.8,1.3-3.9,5.2-4c5.1-0.1,10.2-0.1,15.3,0
	c6.6,0.1,7.9,1.7,5.7,7.7C238,237.5,237.8,237.9,237.6,238.3z M235.1,126.2c-2-0.7-2.7-3.3-1.3-4.9c4.8-5.6,10.5-10,17.3-14.2
	c2.1-1.3,4.8,0.2,4.8,2.7v4.8C255.9,124.8,243.8,129.2,235.1,126.2z M284.2,222.7c-6.5,10-16.5,13.9-27.9,14.9c-1.2,0.1-2.1-0.9-2-2
	l0.6-4.7c0.2-1.5-0.1-3-0.8-4.3l-5.1-9.7c-0.6-1.1,0.1-2.5,1.4-2.6c14.5-1.9,28.1-6,35.5-21.1l0,0c0.4-0.8,1.6-0.7,1.8,0.1
	C290.5,203.6,290.2,213.6,284.2,222.7z"/>
</svg>
