<?xml version="1.0" encoding="UTF-8" standalone="no"?>
<svg
   xmlns:dc="http://purl.org/dc/elements/1.1/"
   xmlns:cc="http://creativecommons.org/ns#"
   xmlns:rdf="http://www.w3.org/1999/02/22-rdf-syntax-ns#"
   xmlns:svg="http://www.w3.org/2000/svg"
   xmlns="http://www.w3.org/2000/svg"
   viewBox="0 0 533.33331 533.33331"
   height="533.33331"
   width="533.33331"
   xml:space="preserve"
   id="svg2"
   version="1.1"><metadata
     id="metadata8"><rdf:RDF><cc:Work
         rdf:about=""><dc:format>image/svg+xml</dc:format><dc:type
           rdf:resource="http://purl.org/dc/dcmitype/StillImage" /></cc:Work></rdf:RDF></metadata><defs
     id="defs6"><clipPath
       id="clipPath18"
       clipPathUnits="userSpaceOnUse"><path
         id="path16"
         d="M 0,400 H 400 V 0 H 0 Z" /></clipPath></defs><g
     transform="matrix(1.3333333,0,0,-1.3333333,0,533.33333)"
     id="g10"><g
       id="g12"><g
         clip-path="url(#clipPath18)"
         id="g14"><g
           transform="translate(218.585,274.4453)"
           id="g20"><path
             id="path22"
             style="fill:#000000;fill-opacity:1;fill-rule:nonzero;stroke:none"
             d="m 0,0 c -0.604,-0.116 -0.841,-1.558 -1.043,-2.389 -0.571,-2.345 -0.809,-4.794 -1.586,-7.061 -0.853,-2.49 -1.807,-5.086 -3.344,-7.175 -4.078,-5.538 -11.242,-4.903 -14.589,1.109 -1.985,3.565 -2.319,7.445 -1.776,11.405 0.441,3.216 1.158,6.397 1.536,9.619 0.26,2.216 0.467,4.524 0.134,6.704 -0.575,3.753 -2.805,4.52 -5.961,2.525 -0.809,-0.511 -2.22,-0.965 -2.871,-0.595 -0.718,0.409 -1.182,1.781 -1.229,2.758 -0.149,3.16 -0.055,6.33 -0.055,9.496 h -0.014 c 0,2.917 0.02,5.834 -0.006,8.75 -0.023,2.621 -1,3.539 -3.521,3.107 -2.412,-0.412 -4.868,-0.798 -7.165,-1.596 -5.904,-2.048 -11.933,-3.901 -17.531,-6.617 -5.568,-2.702 -10.805,-6.165 -15.933,-9.665 -3.453,-2.357 -6.785,-5.068 -9.598,-8.145 -3.912,-4.279 -7.543,-8.873 -10.817,-13.659 -3.081,-4.503 -5.988,-9.236 -8.157,-14.222 -2.449,-5.628 -4.111,-11.614 -5.894,-17.511 -2.868,-9.489 -2.584,-19.305 -2.094,-29.007 0.373,-7.378 2.039,-14.67 4.555,-21.682 3.137,-8.744 7.442,-16.907 12.695,-24.553 1.757,-2.558 4.004,-4.778 5.761,-7.335 2.23,-3.249 2.185,-4.449 -0.756,-7.05 -5.193,-4.595 -6.986,-10.562 -7.613,-17.107 -0.625,-6.524 0.874,-12.753 2.718,-18.923 1.869,-6.257 3.437,-12.549 2.62,-19.167 -0.483,-3.906 -1.875,-7.448 -4.591,-10.33 -3.335,-3.542 -7.453,-5.152 -12.223,-3.724 -4.874,1.459 -7.281,5.313 -7.686,10.099 -0.348,4.12 -0.127,8.324 0.222,12.459 0.75,8.873 -1.794,16.245 -7.781,23.084 -5.994,6.847 -11.136,14.503 -16.135,22.142 -6.076,9.284 -9.963,19.672 -13.233,30.212 -1.777,5.726 -2.829,11.697 -3.891,17.614 -0.778,4.341 -1.139,8.766 -1.509,13.168 -0.366,4.354 -0.906,8.748 -0.658,13.084 0.359,6.282 1.394,12.523 2.077,18.789 0.996,9.133 3.563,17.893 6.833,26.396 2.393,6.222 5.428,12.224 8.536,18.136 2.506,4.767 5.446,9.319 8.392,13.837 1.867,2.862 3.933,5.632 6.203,8.183 3.968,4.456 8.097,8.774 12.274,13.036 6.413,6.544 13.805,11.894 21.534,16.725 5.199,3.25 10.544,6.411 16.167,8.805 7.007,2.984 14.314,5.316 21.597,7.587 4.878,1.522 9.927,2.517 14.929,3.61 2.152,0.47 4.384,0.828 6.575,0.804 2.504,-0.028 3.162,1.084 3.131,3.336 -0.076,5.582 -0.021,11.166 -0.021,16.75 0.001,2.009 -0.123,4.172 2.021,5.225 2.214,1.087 4.107,0.339 6.183,-1.042 6.07,-4.039 12.375,-7.725 18.551,-11.606 4.496,-2.827 8.93,-5.75 13.398,-8.62 5.152,-3.308 10.314,-6.599 15.466,-9.907 6.4,-4.109 12.85,-8.143 19.17,-12.371 4.769,-3.191 4.535,-6.639 -0.492,-9.938 C 40.904,55.85 38.271,54.191 35.624,52.556 25.04,46.016 20.82,36.193 22.449,24.291 23.513,16.524 26.07,8.941 28.219,1.35 c 2.115,-7.478 3.637,-14.915 1.109,-22.58 -1.515,-4.591 -4.151,-8.342 -8.436,-10.753 -5.762,-3.243 -12.689,-1.726 -15.836,4.077 -1.73,3.189 -2.634,6.992 -3.16,10.628 -0.651,4.513 -0.525,9.139 -0.738,13.716 -0.015,0.333 -0.348,0.788 -0.099,0.991 z" /></g><g
           transform="translate(211.5342,67.1348)"
           id="g24"><path
             id="path26"
             style="fill:#000000;fill-opacity:1;fill-rule:nonzero;stroke:none"
             d="m 0,0 c 0,-3.166 0.036,-6.334 -0.01,-9.5 -0.047,-3.28 -1.586,-4.248 -4.481,-2.55 -4.147,2.433 -8.151,5.113 -12.196,7.715 -3.65,2.348 -7.256,4.762 -10.93,7.069 -0.495,0.311 -1.357,0.394 -1.911,0.198 -6.141,-2.183 -11.207,-5.542 -12.977,-12.336 -0.988,-3.79 0.1,-7.312 1.722,-10.627 2.12,-4.336 4.592,-8.498 6.782,-12.801 1.758,-3.453 2.933,-7.122 2.469,-11.065 -0.869,-7.375 -7.434,-11.151 -14.628,-8.282 -7.119,2.839 -11.058,8.574 -11.591,15.895 -0.449,6.149 -0.017,12.515 1.077,18.596 3.398,18.891 -2.599,34.638 -15.23,48.323 -1.673,1.812 -4.063,2.99 -6.195,4.344 -2.602,1.655 -2.674,2.974 -0.067,4.582 7.592,4.676 15.223,9.289 22.786,14.01 7.679,4.795 15.243,9.775 22.953,14.518 7.536,4.637 15.199,9.063 22.789,13.612 1.903,1.14 3.682,2.49 5.616,3.57 2.708,1.51 4.716,0.285 4.743,-2.86 0.047,-5.583 0.008,-11.166 0.018,-16.75 0.007,-3.551 1.331,-4.4 4.846,-3.415 4.934,1.383 10.028,2.284 14.833,4.009 4.757,1.708 9.34,3.992 13.806,6.385 3.223,1.725 6.295,3.839 9.14,6.142 4.295,3.475 8.45,7.143 12.455,10.948 6,5.701 10.804,12.375 14.456,19.776 2.77,5.609 5.309,11.368 7.433,17.247 1.313,3.634 1.602,7.629 2.442,11.442 1.382,6.261 1.821,12.618 1.375,18.97 -0.346,4.948 -1.203,9.878 -2.119,14.763 -0.791,4.222 -1.548,8.54 -3.106,12.508 -2.137,5.44 -4.774,10.726 -7.65,15.821 -2.565,4.546 -5.742,8.746 -8.665,13.088 -0.274,0.408 -0.655,0.747 -1,1.106 -2.949,3.075 -2.604,6.675 0.867,9.116 0.27,0.19 0.492,0.448 0.735,0.676 4.101,3.857 8.155,7.767 12.319,11.555 4.22,3.839 8.524,7.585 12.84,11.315 1.821,1.574 5.275,1.36 7.071,-0.517 2.105,-2.2 4.157,-4.474 6.008,-6.886 6.493,-8.457 12.347,-17.361 16.634,-27.132 3.133,-7.141 5.943,-14.47 8.228,-21.921 1.634,-5.334 2.375,-10.978 3.125,-16.537 0.956,-7.083 1.86,-14.205 2.13,-21.336 0.175,-4.617 -0.809,-9.281 -1.303,-13.921 -0.217,-2.042 -0.591,-4.07 -0.75,-6.115 -0.813,-10.425 -4.101,-20.288 -7.769,-29.89 -2.927,-7.66 -7.376,-14.752 -11.289,-22.02 C 103.914,73.563 98.992,66.988 93.237,61.063 89.21,56.915 85.11,52.834 80.96,48.81 77.772,45.72 78.218,41.915 79.084,38.299 c 0.727,-3.032 2.375,-5.836 3.511,-8.781 1.609,-4.174 3.572,-8.282 4.568,-12.606 C 88.526,10.991 85.347,4.535 80.537,1.871 76.096,-0.59 70.877,0.085 67.301,3.993 65.299,6.181 63.883,8.895 62.07,11.27 c -0.808,1.059 -0.927,2.969 -2.934,2.79 -2.006,-0.18 -2.093,-1.93 -2.653,-3.123 -1.41,-3.01 -2.354,-6.243 -3.828,-9.216 -1.428,-2.881 -2.954,-5.836 -5.031,-8.245 -3.041,-3.528 -7.146,-4.951 -11.744,-3.289 -4.717,1.704 -6.742,5.523 -6.986,10.287 -0.158,3.069 0.244,6.167 0.115,9.24 -0.103,2.47 -0.588,4.928 -0.974,7.38 -0.256,1.628 -1.425,1.843 -2.775,1.518 C 20.298,17.414 15.356,16.127 10.377,15.005 8.386,14.557 6.324,14.367 4.284,14.208 1.075,13.956 0.098,13.058 0.025,9.75 -0.047,6.502 0.01,3.25 0.01,0 Z" /></g></g></g></g></svg>