<?xml version="1.0" encoding="utf-8"?>
<!-- Generator: Adobe Illustrator 23.0.1, SVG Export Plug-In . SVG Version: 6.00 Build 0)  -->
<svg version="1.1"
	 id="svg8" xmlns:cc="http://creativecommons.org/ns#" xmlns:dc="http://purl.org/dc/elements/1.1/" xmlns:inkscape="http://www.inkscape.org/namespaces/inkscape" xmlns:rdf="http://www.w3.org/1999/02/22-rdf-syntax-ns#" xmlns:sodipodi="http://sodipodi.sourceforge.net/DTD/sodipodi-0.dtd" xmlns:svg="http://www.w3.org/2000/svg"
	 xmlns="http://www.w3.org/2000/svg" xmlns:xlink="http://www.w3.org/1999/xlink" x="0px" y="0px" viewBox="0 0 400 400"
	 style="enable-background:new 0 0 400 400;" xml:space="preserve">
<sodipodi:namedview  bordercolor="#666666" borderopacity="1" fit-margin-bottom="20" fit-margin-left="0" fit-margin-right="0" fit-margin-top="0" gridtolerance="10" guidetolerance="10" id="namedview10" inkscape:current-layer="svg8" inkscape:cx="18.730291" inkscape:cy="-2.2524436" inkscape:pageopacity="0" inkscape:pageshadow="2" inkscape:window-height="705" inkscape:window-maximized="1" inkscape:window-width="1366" inkscape:window-x="-8" inkscape:window-y="245" inkscape:zoom="2.8284271" objecttolerance="10" pagecolor="#ffffff" showgrid="false">
	</sodipodi:namedview>
<g id="Layer_1">
</g>
<g>
	<path d="M335.1,4.9H64.9c-5.5,0-10,4.5-10,10v262.6c0,5.5,2.4,10.8,6.7,14.3c34.5,28.3-9.9,99.9,23.8,103.2
		c23.1,0,1.2-45.2,6.3-77.9c2.7-17.2,17.7-29.7,35.1-29.7h208.4c5.5,0,10-4.5,10-10V14.9C345.1,9.4,340.7,4.9,335.1,4.9z M333,266
		c0,5.5-4.5,10-10,10H77c-5.5,0-10-4.5-10-10V27.1c0-5.5,4.5-10,10-10H323c5.5,0,10,4.5,10,10V266z"/>
	<path d="M255.4,102.3c-12.8,0-23.1,5.1-30.1,15.4c-7,10.3-10.9,22.4-10.9,36.5c0,13.5,3.8,25,10.3,35.2c4.3,6.4,10.8,10.8,19.5,13
		c3.1,0.8,6.1,2.2,8.5,4.4c17.6,16.1-7.6,53.1,11.2,53.5c16.4,0.8-12.3-45.5,17.1-60.4c0.3-0.1,0.7-0.3,1.2-0.5
		c0.9-0.5,1.5-1.4,1.5-2.4v-13.6c0-1-1-1.6-1.9-1.2c-3.1,1.4-7,2.3-9.6,2.8c-3.2,0.6-7,0.6-10.3,0.6c-9,0-16-2.6-19.9-7.7
		c-3.2-4.3-5.5-9.5-6.2-15.9c-0.2-2.1,1.5-4,3.6-4l28.2,0c5.8,0,10.3,0,13.5,0c1.7,0,3.8,0,5.5,0c2.2,0,4.1-1.8,4.1-4.1v-3.6
		c0,0,0-4.5,0-7.7c0-9-2.6-17.9-7.7-26.9C277.9,106.8,268.9,102.3,255.4,102.3z M237.6,140.7c-1,0.1-1.9-0.8-1.7-1.9
		c0.8-4.3,2.6-8.2,4.8-12.1c2.1-3.7,5.5-5.6,9.9-6.2c1.3-0.2,2.6,0.1,3.6,0.9C259.9,125.8,250.8,139.4,237.6,140.7z M269.5,139.9
		v0.9c0,0.4-0.3,0.7-0.7,0.7H267l-1.3,0c-0.4,0-0.7,0-1.1-0.1c-9.5-1.7-0.8-11.1,3.3-8c0.6,0.4,1,1.1,1.1,1.8
		c0.3,1.3,0.5,2.5,0.5,3.7C269.5,139.5,269.5,139.2,269.5,139.9z"/>
	<path d="M170,73.9c-0.7-2.5-3.1-4.2-5.7-4.2h-16.8c-2.6,0-5,1.8-5.7,4.3l-34.7,123c-0.7,2.4,1.1,4.7,3.6,4.7l12.2,0
		c2.6,0,4.9-1.4,6.1-3.6c10.1-18,26.2-29.2,42-32.2c2.8-0.5,5.5,1.3,6.2,4l6.7,27.1c0.8,3.1,3.6,5.3,6.8,5.3h11.2
		c3.1,0,5.2-2.9,4.4-5.9L170,73.9z M135,172l1-3.8c0.5-1.8,2.1-3.1,4-3.1h3.4l-0.1,0C148,165.8,135.7,178.4,135,172z M166.2,145.3
		h-18.9c-2.3,0-4-2.2-3.4-4.4c2.2-7.9,4.3-16.6,6.5-25.7c1.9-8.1,3.5-15.2,4.7-21.1c0.2-1.2,2-1.3,2.3,0c1.4,6.2,3.5,13.9,5.9,23.1
		c2.5,9.6,4.7,17.6,6.4,23.7C170.2,143.1,168.5,145.3,166.2,145.3z"/>
</g>
</svg>
