<?xml version="1.0" encoding="utf-8"?>
<!-- Generator: Adobe Illustrator 22.1.0, SVG Export Plug-In . SVG Version: 6.00 Build 0)  -->
<!DOCTYPE svg PUBLIC "-//W3C//DTD SVG 1.1//EN" "http://www.w3.org/Graphics/SVG/1.1/DTD/svg11.dtd">
<svg version="1.1"
	 id="Layer_1" inkscape:version="0.92.1 r15371" sodipodi:docname="signlanguage.svg" xmlns:cc="http://creativecommons.org/ns#" xmlns:dc="http://purl.org/dc/elements/1.1/" xmlns:inkscape="http://www.inkscape.org/namespaces/inkscape" xmlns:rdf="http://www.w3.org/1999/02/22-rdf-syntax-ns#" xmlns:sodipodi="http://sodipodi.sourceforge.net/DTD/sodipodi-0.dtd" xmlns:svg="http://www.w3.org/2000/svg"
	 xmlns="http://www.w3.org/2000/svg" xmlns:xlink="http://www.w3.org/1999/xlink" x="0px" y="0px" viewBox="0 0 400 400"
	 style="enable-background:new 0 0 400 400;" xml:space="preserve">
<sodipodi:namedview  bordercolor="#666666" borderopacity="1" gridtolerance="10" guidetolerance="10" id="namedview9" inkscape:current-layer="Layer_1" inkscape:cx="425.565" inkscape:cy="249.32907" inkscape:pageopacity="0" inkscape:pageshadow="2" inkscape:window-height="705" inkscape:window-maximized="1" inkscape:window-width="1366" inkscape:window-x="-8" inkscape:window-y="235" inkscape:zoom="0.65186406" objecttolerance="10" pagecolor="#ffffff" showgrid="false">
	</sodipodi:namedview>
<g>
	<path d="M383.3,110.1c-2-5.6-6.1-10.4-9.3-15.8c-19,13.8-29.8,17.9-57.7,14.2c-15.1-2-27.3,2.2-40.4,6.8
		c-12,4.3-24.4,7.3-36.5,11.1c-9.1,2.8-16.7,7.1-19.6,17.4c-3.5,13-11.1,24.3-10.4,39.2c0.5,12.8-5,25.6,9.2,34.2
		c5.3,3.2,10.4,7,15.6,10.4c3.8,2.5,6.6,6.3,7.8,10.7c3.2,12.2-3.9,15.8-14.2,15.4c-1.4-0.1-2.7-0.7-3.7-1.7l0,0
		c-3.9-4-11.2-5.1-17.3-6.2c-1.1-0.2-5.5,9.3-4.8,9.8c11.6,9.3,20.5,23.9,38.2,22.3c12.4-1.1,24.7-2.9,37.9-4.6
		c1.5-0.2,2.6,1.2,2.2,2.6c-2.9,8.3-11.1,11.8-18.5,14.8c-11.2,4.7-23.6,6.8-35.2,11.2c-3.5,1.3-5.7,6.5-8.4,9.9
		c3.5,1.6,7.1,3.6,10.8,4.8c2.1,0.6,4.8,0.1,7.2-0.3c22-2.8,41.3-12.3,59-25.3c2.5-1.8,5.8-2.4,8.8-3.5c0.7,0.9,1.3,1.8,2,2.5
		c-5.6,7.1-11.3,14.1-16.8,21.3c-5.5,7.3-13.2,14.2-4.9,25.9c0.2-0.2,0.4-0.5,0.6-0.7c4.3,21.2-18.3,51.8,12.2,54.9
		c22.8-3-10.4-36.4,9.7-79.2c2.5-2.9,5-5.8,7.4-8.8c18.9-23.4,36-47.7,43.9-77.7c4.8-18.2,9.9-36.8,29.8-45.7c2-0.9,3.1-5.1,3.7-8
		C395.9,150.6,390.5,130.1,383.3,110.1z M260.8,255.5C260.8,255.5,260.8,255.5,260.8,255.5c-1.1,0.2-2.2,0.1-3.2-0.2
		c-9.2-2.6-9.7-7.2-6.8-11.9c2.1-3.4,5.9-5.5,9.9-5.4c5.7,0.1,11.6-0.7,17.4-0.9c1.3,0,2.5,0.8,2.9,2c0,0,0,0,0,0
		c0.4,1.1,0,2.4-1,3.1C273.7,247.4,267.8,254.4,260.8,255.5z M280.7,203.9c-5.5,2.4-11.2,4.3-16.7,6.5c-10.6,4.3-29.9-3.8-34.4-14.6
		c-1.9-4.4-4.4-8.8-5.2-13.4c-0.6-3.6-0.1-8.3,1.9-11.2c4.2-6.2,9.5-11.5,14.3-17.1c6,0,11.7,0.2,17.2,0c5.8-0.2,13.4-3.4,17.3-0.8
		c7.7,5.1,14.2,12.7,19.7,20.3C299.5,180.2,289.9,199.9,280.7,203.9z"/>
	<path d="M161.4,67.6c-6.1-4.3-9.6-10.4,0.2-20.4c5.9-2.6,12.3-4.5,18-7.5c1.7-0.9,2.7-4.8,2.4-7.1c-0.2-1.7-3.1-4.3-4.7-4.3
		c-7.6,0.3-15.9-0.4-22.6,2.4c-17.3,7.1-33.8,15.9-50.7,24c-2.4,1.2-4.9,2.2-7.3,3.4c-0.7-1-1.5-1.9-2.2-2.8
		c7.1-9,14.2-18.1,21.3-27c5.5-6.8,5.7-12.9-1.3-19.8C105.7,18.7,97.4,27,90.6,36.3C76.8,55.7,62.8,75.2,51,95.8
		c-6.8,12-9.2,26.4-14.1,39.5c-4.4,12.2-10.6,23.2-22.8,29.8c-2.7,1.5-6.2,4.9-6.5,7.6c-2.6,25.1,0.7,48.9,13.2,70.9
		c2.2,3.9,5.6,7.1,9.5,9.4c44.4,26.8-21.9,103.8,29.2,113.8c49.7,1.3-42.7-84,29.4-129.1c0.8-0.5,1.8-0.6,2.7-0.3l0,0
		c5.8,1.8,13.4-1,19.7-2.8c15.7-4.6,31.3-9.5,46.7-15.1c6.9-2.5,16.5-5.7,18.8-11.2c5.9-14,13.3-27.5,13.7-44.1
		c0.5-18.2-1.2-32.5-17.7-43.9c-13-9-24.7-17.5-41.5-11.6c-5.5,1.9-11.6,1.9-17.4,2.8c-0.4-0.9-0.6-1.8-0.8-2.8
		c6.5-5.1,12.7-10.6,19.4-15.3c11.8-8.1,32.5-7.6,43.9,0.8c12.8,9.5,17.6,8.9,24.2-2.1C189.1,77.1,175.9,69.7,161.4,67.6z
		 M173.4,155.3c1,2.8,2.3,5.5,3.5,8.2c1,2.3,0.8,4.9-0.6,7c-4.3,6.2-8.1,11.9-12.5,17c0,0,0,0,0,0c-1.7,2-4.6,2.6-7,1.5
		c-16-7.1-19-31.6,0.1-47.8c2.1-1.8,5.1-1.7,7.2,0.1C168,144.7,171.2,149.5,173.4,155.3z M122,144.1c16.9,12.4,15.3,35.3,9.7,47.2
		c-0.8,1.7-2.5,2.9-4.5,3c-0.5,0-1,0-1.2-0.3c-7.3-9-17.4-17.3-20.5-27.6c-2.7-9,1.7-17.2,9-22.4C116.7,142.5,119.8,142.5,122,144.1
		z M117.3,74.3c1.5-4.1,2.9-7.4,5.3-8.7c6.7-3.4,13.5-6.7,20.4-9.9c5.5,2.7,8.4,7.2,1.2,11.7C135.5,68.4,126.5,70.8,117.3,74.3z"/>
</g>
</svg>
