<?xml version="1.0" encoding="utf-8"?>
<!-- Generator: Adobe Illustrator 21.1.0, SVG Export Plug-In . SVG Version: 6.00 Build 0)  -->
<!DOCTYPE svg PUBLIC "-//W3C//DTD SVG 1.1//EN" "http://www.w3.org/Graphics/SVG/1.1/DTD/svg11.dtd">
<svg version="1.1" id="Layer_1" xmlns="http://www.w3.org/2000/svg" xmlns:xlink="http://www.w3.org/1999/xlink" x="0px" y="0px"
	 viewBox="0 0 400 400" enable-background="new 0 0 400 400" xml:space="preserve">
<g>
	<path d="M231.4,99.2c-0.1,5.4-1.6,21-1.2,31.5c0.5,14.5,1.5,29,6.6,42.9c2.4,6.5,5.6,13.5,5.2,20.2c-0.4,6.8-0.4,5.2-0.9,7.6
		c-0.7,3.3-5.8,6.3-9.9,6.1c-1.6-0.1-1.9,0.2-1.9,1.7c0.1,6.6-0.1,13.3,0.1,19.9c0.2,7.9,1.1,15.8,1.1,23.7c0,6.9-0.9,13.8-1.1,20.7
		c-0.2,10.6,0.8,11.9,11.2,11.2c6.3-0.4,11.4,1.6,16.5,4.8c2.5,1.6,3.5,3.6,3.3,6.5c-0.3,5.9-0.6,11.7-0.8,17.6
		c-0.3,9-4.7,13.5-13.6,13.8c-7.6,0.2-14.7,2.5-21.2,6.3c-6.7,3.9-10.2,12.2-8,18.5c0.9,2.6,2.1,5.2,3.6,7.6
		c3.5,5.8,4.2,11.7,3.1,18.4c-0.7,3.8-3.1,5.4-5.5,7.5c-4.6,4.2-9.8,7.5-16.2,7.2c-6.2-0.3-11.8-2.8-16.2-7.5
		c-5.6-6-6.5-13.4-5.6-21c0.6-4.8,3.4-9.2,4.3-14c0.7-3.6,1-8-0.5-11.1c-3.1-6.5-8.3-11-16.2-11.4c-4.2-0.2-8.3-1-12.4-1.5
		c-2.6-0.3-4.3-1.7-4.9-4c-0.8-3-1.5-6.1-1.7-9.3c-0.6-6.2-0.8-12.4-1.2-18.6c-0.3-3.9,4.6-9.1,9.5-9.5c4.9-0.4,9.9-0.1,14.9-0.2
		c4.7,0,6.3-0.9,6.6-5.4c0.4-6.8-0.1-13.7,0-20.6c0-7.5,0.2-15.1,0.3-22.6c0-5.3-0.2-10.6-0.1-15.9c0.1-5.2,0.5-10.4,0.5-15.5
		c-0.1-15.5-0.5-30.9-0.7-46.4c0-2.8,0.6-5.6,0.5-8.4c-0.3-5.3-0.8-10.5-1.4-15.8c-0.2-1.8-1.2-1.7-2.6-1c-6,3-11,11.4-7.1,19.5
		c1.8,3.8,3,8,4.1,12.1c0.9,3.4-0.4,6.5-3,8.9c-3.8,3.5-8.2,5.5-13.4,5.6c-4,0-6.2-2.6-8.6-5.3c-4.2-4.7-4.9-9.9-1.8-15.5
		c1.1-1.9,1.7-4.2,2.4-6.3c2.5-7.5-1-13.5-4.5-19.7c-1.1-1.9-2.2-4-2.4-6.1c-0.5-8.2-0.6-16.5-0.7-24.7c-0.1-4.3-0.1-8.5,0.2-12.8
		c0.2-4.4,5.6-8.3,10.3-8.5c14-0.5,27.9-1.3,41.9-1.9c3.4-0.1,6.8,0.3,10.1,0.3c6.4,0.1,12.8-0.1,19.3,0c6.7,0.1,9.3,2.8,9.7,9.6
		C231.1,88.7,231.5,93.8,231.4,99.2z"/>
	<path d="M193.3,65.4c-7-1.1-16.8-5.2-21.2-19.8c-0.9-3-1.8-5.9-1.8-9.2c0.4-14.3,10.3-26,24.3-28.8c14.3-2.9,25.6,5.7,31,13.4
		c4.7,6.8,4.9,14,3.6,21.5c-1.4,7.8-5.7,13.7-12,18.5c-4.3,3.3-10.6,5.1-14,5.1C199.8,66.2,200.4,66.5,193.3,65.4z"/>
</g>
</svg>
