<?xml version="1.0" encoding="utf-8"?>
<!-- Generator: Adobe Illustrator 21.1.0, SVG Export Plug-In . SVG Version: 6.00 Build 0)  -->
<!DOCTYPE svg PUBLIC "-//W3C//DTD SVG 1.1//EN" "http://www.w3.org/Graphics/SVG/1.1/DTD/svg11.dtd">
<svg version="1.1" id="Layer_1" xmlns="http://www.w3.org/2000/svg" xmlns:xlink="http://www.w3.org/1999/xlink" x="0px" y="0px"
	 viewBox="0 0 400 400" enable-background="new 0 0 400 400" xml:space="preserve">
<g>
	<path d="M58,164.8c-1.9-18.8-5.3-37.7-8.3-56.6c-1.8-11.3-1-23-0.3-34.5c0.5-8.6,1.4-17.5,4.4-25.4c5.1-13.6,11.9-22.1,25.3-28.9
		s23.4-10,33.8-10.1c27-0.4,50.6,8.9,67.8,31c4.9,6.3,9.1,13.1,14.7,18.7c1.6,1.7,8,1.5,9.7-0.2c11.5-11.6,20.7-26.3,33.9-35.2
		c11.9-8,27.6-13,42.1-14.1c33.6-2.5,62,15.2,67.6,50.2c4.3,26.7,4.9,52.8-7.8,78c-8.2,16.2-15.4,32.9-21.7,49.9
		c-5.3,14.5-0.4,29,3.1,43.3c3,12.3,4.8,24.7-4.7,35.3c-5.3,6-13.2,9.3-19.7,5c-5.4-3.5-10.4-10.7-11.5-17.1
		c-1.7-9.4,0.3-19.4,0.4-29.2c0-1.8-0.1-4.8-1.7-5.3s-2.6,1.7-3.5,2.9c-7.7,10.9-15.7,21.5-22.7,32.8c-15.9,25.8-31.1,52-47,77.8
		c-6.8,11.1-8.4,22.6-6.4,35.1c0.7,4.6,1.1,9.6,0,13.9c-0.9,3.4-2.8,8.6-6.5,8.6c-3.8,0-7.7-1.4-10.1-6.7
		c-2.4-5.3-5.2-22.3-6.1-33.6c-1.8-21.6-8.3-41.6-19.2-59.9c-11.6-19.5-24-38.6-37.1-57.1c-10.3-14.6-32.4-41.1-33.2-42
		c-0.8-0.9-1.1-1.2-2-1c-0.8,0.2-1.9,0.7-1.4,3.1s4.6,22.8,7.5,34c2.3,8.9,5,18-2.5,25.4c-8.1,7.9-22,3.2-27-9.3
		c-3-7.5-4.4-12.2-6-23.8C60.2,208.2,59.8,183.6,58,164.8z"/>
</g>
</svg>
