<?xml version="1.0" encoding="utf-8"?>
<!-- Generator: Adobe Illustrator 23.0.6, SVG Export Plug-In . SVG Version: 6.00 Build 0)  -->
<svg version="1.1" id="Layer_1" xmlns="http://www.w3.org/2000/svg" xmlns:xlink="http://www.w3.org/1999/xlink" x="0px" y="0px"
	 viewBox="0 0 400 400" enable-background="new 0 0 400 400" xml:space="preserve">
<path d="M66.9,72.8c2.3-5.7,4.2-7.7,6.7-11.3c3.4-4.7,7.9-8.2,12.9-11c4.2-2.4,8.8-4.4,13.7-4.9c4.8-0.5,9.6-0.7,14.4-0.7
	c28.6-0.1,57.2,0,85.8,0c31.3,0,62.6,0,93.9,0c8.8,0,16.5,3.3,23.6,8.3c6.3,4.5,11.4,10.3,14.7,17.3c1.6,3.4,2.7,6.2,3.7,9.9
	c0.9,3.1,1,7.2,1.2,10.3c0.3,5.5-0.2,11.1-0.2,16.6c0.2,29.1,0.2,58.2,0,87.2c-0.1,6.6-2.2,12.9-5.1,18.9
	c-2.8,5.8-6.9,10.5-11.7,14.6c-5.2,4.5-11.2,7.5-17.9,9.1c-3,0.7-6.1,1.2-9.2,1.3c-14.5,0.1-29.1,0.1-43.6,0c-2.1,0-3.7,0.6-4.9,2.2
	c-1.6,2.4-3.1,4.8-4.6,7.3c-1.5,2.5-2.8,5.2-4.5,7.6c-2.7,3.6-6.5,4.8-10.9,3.9c-1.8-0.4-3.5-0.9-5.3-1.3c-2.8-0.6-4.6,0.2-5.8,2.8
	c-0.9,1.8-1.2,3.9-2,5.8c-1.4,3.1-2.6,6.4-4.5,9.2c-2.6,3.6-6.6,4.7-11,4c-5.2-0.9-7.8-4.9-7-10.3c0.4-3.1,1.2-6.1,1.5-9.2
	c0.2-2.3,0.1-4.8-0.3-7.1c-0.2-1.1-1.2-2.9-2-3c-1.1-0.1-2.6,0.8-3.4,1.7c-1.5,1.7-2.7,3.7-4,5.6c-1.7,2.4-3.4,5.2-6.9,4.6
	c-3.5-0.6-4.3-3.7-5-6.6c-0.6-2.5-0.9-5-1.7-7.4c-0.5-1.8-1.2-3.6-2.3-5.1c-2-2.9-4.6-4.6-8.4-4.6c-17,0.1-34,0.2-51,0
	c-7.2-0.1-13.8-2.6-20-6.2c-6.9-4-12.2-9.6-16.3-16.4c-3-4.9-3.8-7.4-5.5-12.8c-1.2-3.7-1.4-10.4-1.4-14.2c0-32.1,0-87.3,0-96.4
	S64.6,78.5,66.9,72.8z M77.7,123.6c-1.8,0-3.3,1.5-3.3,3.3v0c0,21.9-0.1,43.9,0.1,65.8c0,3.6,0.8,7.2,1.7,10.8
	c1.8,6.9,6.1,12.4,11.6,16.6c5.7,4.4,12.3,7.1,19.8,7c61.7-0.1,123.4-0.1,185.1,0c7.8,0,14.5-2.8,20.4-7.5
	c8.2-6.6,12.6-15.5,12.7-25.9c0.3-23,0.1-46,0.1-69c0-1.7-0.5-2.3-2.2-2.3c-9.5,0.1-19.1,0.1-28.6,0.3c-1.1,0-2.5,0.8-3.2,1.7
	c-2.3,2.7-2.4,6-1.5,9.3c0.7,2.6,1.8,5.1,2.5,7.7c1.9,7.4-1.8,13.8-8.7,15.4c-4.2,1-8.4-1-9.8-5.1c-0.8-2.6-0.8-5.5-1-8.2
	c-0.1-1.9,0.2-3.8,0.1-5.6c0-0.4-0.2-0.7-0.4-1.1c-0.4-0.8-1.5-1-2.2-0.5c-0.4,0.3-0.7,0.6-0.9,0.9c-1.2,2-2,4.3-3.2,6.4
	c-1.5,2.5-3.7,4.3-6.9,3.9c-3.2-0.5-5.1-2.7-5.7-5.7c-0.5-2.4-0.3-4.9-0.5-7.3c-0.2-2.4-0.1-4.8-0.7-7c-1-3.6-2.6-4.5-6.3-4.5
	c-9.4,0-18.9,0.1-28.3,0.2c-6.8,0.1-5.6-0.8-7.6,5.4c-1.4,4.4-4.2,7.1-8.9,7.7c-0.7,0.1-1.5,0.3-2.2,0.4c-3.4,0.4-6,2.1-7.6,5.2
	c-1.3,2.5-2.4,5.1-4,7.4c-1.2,1.8-2.8,3.5-4.6,4.7c-3.3,2.2-7.3,1.1-9.2-2.5c-0.7-1.4-1.3-2.9-1.6-4.4c-0.5-2.1-0.8-4.2-1.1-6.3
	c-1.1-8.9-5.9-14.4-14.6-16.5c-2.4-0.6-4.9-0.8-7.3-0.8c-23.2,0-46.5,0.2-69.7,0.3C79.4,123.6,78.5,123.6,77.7,123.6z M78.9,90.1
	l243.7,0c1.8,0,3.2-1.5,3-3.3c-0.1-1.2-0.3-2.4-0.5-3.5c-1.5-6.9-4.8-12.8-10-17.8c-6.2-5.9-13.3-9.2-21.9-9.2
	c-11.5,0-23,0.2-34.5-0.1c-3.7-0.1-6.3,1.1-8.1,4c-3.2,5.1-7.6,7.8-13.7,7.6c-3-0.1-4.9,1.6-6.1,4.2c-1,2-2,4-3.3,5.8
	c-1.5,2.2-3.6,3.7-6.4,3.3c-2.9-0.5-4.3-2.6-5.1-5.2c-0.6-2.1-1-4.3-1.3-6.5c-0.8-5.7-3.7-9.8-9.4-11.5c-2.9-0.8-5.9-1.6-8.9-1.6
	c-30.4-0.1-60.8-0.1-91.2-0.1c-4.4,0-8.5,1.6-12.3,3.6C86.8,63.2,82.1,68,78.7,74c-2.1,3.6-3,7.4-3.7,11.5
	C74.6,87.9,76.5,90.1,78.9,90.1z"/>
<path d="M124.2,157c-1.4,0.1-2.4,1.3-2.2,2.7c0.6,3.6,3.4,6,7.3,6c8.8,0,17.6-0.1,26.3-0.1c1.3,0,2.6,0,3.9,0.3
	c2.2,0.5,3.7,2.5,3.6,4.7c-0.1,2.1-1.5,3.9-3.7,4.3c-1.7,0.3-3.4,0.3-5.1,0.4c-19.1,0.1-38.3,0.1-57.4,0.2c-1.9,0-3.8,0.2-5.7,0.1
	c-3.5,0-5.9-2.1-5.8-5c0-2.9,2.4-4.9,5.9-4.9c3.8,0,7.6,0,11.3,0c1.9,0,3.9-0.5,4.5-2.1c0.7-2,0.8-3.4-0.6-5.4
	c-0.8-1.1-1.9-1.2-2.7-1.2c-4-0.1-8-0.1-12.1-0.1c-0.7,0-1.3,0-2-0.1c-2.9-0.4-4.8-2.2-4.8-4.7c0-2.6,1.9-4.5,4.9-4.8
	c1.9-0.2,3.8-0.3,5.7-0.3c11.2-0.1,22.5-0.1,33.7-0.1c0.9,0,1.8,0,2.7,0.2c2.8,0.5,4.5,2.3,4.5,4.8c0,2.4-1.6,4.4-4.4,4.8
	c-2.3,0.3-4.6,0.2-6.9,0.3C124.8,157,124.5,157,124.2,157z"/>
</svg>
