<?xml version="1.0" encoding="UTF-8" standalone="no"?>
<svg
   xmlns:dc="http://purl.org/dc/elements/1.1/"
   xmlns:cc="http://creativecommons.org/ns#"
   xmlns:rdf="http://www.w3.org/1999/02/22-rdf-syntax-ns#"
   xmlns:svg="http://www.w3.org/2000/svg"
   xmlns="http://www.w3.org/2000/svg"
   viewBox="0 0 682.66669 682.66669"
   height="682.66669"
   width="682.66669"
   xml:space="preserve"
   id="svg2"
   version="1.1"><metadata
     id="metadata8"><rdf:RDF><cc:Work
         rdf:about=""><dc:format>image/svg+xml</dc:format><dc:type
           rdf:resource="http://purl.org/dc/dcmitype/StillImage" /></cc:Work></rdf:RDF></metadata><defs
     id="defs6"><clipPath
       id="clipPath18"
       clipPathUnits="userSpaceOnUse"><path
         id="path16"
         d="M 0,512 H 512 V 0 H 0 Z" /></clipPath></defs><g
     transform="matrix(1.3333333,0,0,-1.3333333,0,682.66667)"
     id="g10"><g
       id="g12"><g
         clip-path="url(#clipPath18)"
         id="g14"><g
           transform="translate(37.9102,382.624)"
           id="g20"><path
             id="path22"
             style="fill:#000000;fill-opacity:1;fill-rule:nonzero;stroke:none"
             d="m 0,0 h 441.232 c 3.199,0 5.705,2.762 5.385,5.945 -0.22,2.19 -0.476,4.32 -0.921,6.41 -2.677,12.58 -8.752,23.244 -18.144,32.154 -11.185,10.612 -24.14,16.676 -39.69,16.697 -20.823,0.027 -41.653,-0.276 -62.466,0.171 -6.612,0.143 -11.328,-1.933 -14.621,-7.231 -5.749,-9.249 -13.728,-14.078 -24.759,-13.821 -5.357,0.125 -8.789,-2.858 -11.087,-7.565 -1.755,-3.596 -3.617,-7.197 -5.901,-10.467 -2.747,-3.931 -6.473,-6.772 -11.674,-5.94 -5.214,0.835 -7.809,4.736 -9.182,9.327 -1.145,3.824 -1.809,7.819 -2.386,11.781 -1.514,10.373 -6.747,17.808 -16.983,20.792 -5.224,1.522 -10.748,2.813 -16.141,2.833 -55.033,0.205 -110.066,0.15 -165.1,0.099 C 39.555,61.178 32.191,58.357 25.284,54.663 14.224,48.748 5.836,40.017 -0.44,29.131 -4.18,22.644 -5.949,15.711 -7.145,8.361 -7.858,3.975 -4.444,0 0,0 m -2.203,-60.615 c -3.269,0.002 -5.923,-2.648 -5.923,-5.917 0,-39.711 -0.144,-79.424 0.143,-119.133 0.047,-6.506 1.511,-13.122 3.155,-19.472 3.236,-12.502 10.991,-22.419 20.934,-30.059 10.374,-7.971 22.229,-12.777 35.914,-12.758 111.697,0.152 223.395,0.144 335.092,0.012 14.159,-0.018 26.292,5.102 36.913,13.597 14.876,11.899 22.796,28.119 23.062,46.964 0.585,41.637 0.16,83.287 0.228,124.932 0.005,3.02 -0.866,4.227 -4.053,4.187 -17.251,-0.217 -34.506,-0.161 -51.753,-0.504 -2.01,-0.04 -4.533,-1.497 -5.872,-3.091 -4.174,-4.973 -4.351,-10.92 -2.65,-16.906 1.339,-4.713 3.311,-9.254 4.522,-13.994 3.429,-13.432 -3.272,-25.07 -15.834,-27.922 -7.646,-1.737 -15.285,1.764 -17.661,9.177 -1.495,4.668 -1.442,9.878 -1.746,14.866 -0.208,3.393 0.411,6.839 0.169,10.225 -0.046,0.662 -0.299,1.309 -0.632,1.951 -0.761,1.461 -2.672,1.87 -3.991,0.882 -0.654,-0.489 -1.237,-1.02 -1.618,-1.67 -2.172,-3.706 -3.667,-7.811 -5.858,-11.503 -2.732,-4.603 -6.675,-7.816 -12.426,-6.977 -5.873,0.856 -9.197,4.94 -10.267,10.409 -0.844,4.319 -0.585,8.848 -0.93,13.274 -0.332,4.272 -0.228,8.694 -1.357,12.761 -1.797,6.48 -4.716,8.212 -11.372,8.183 -17.103,-0.075 -34.207,-0.121 -51.309,-0.28 -12.233,-0.114 -10.114,1.433 -13.678,-9.838 -2.529,-8 -7.635,-12.913 -16.113,-14.03 -1.325,-0.174 -2.629,-0.509 -3.955,-0.668 -6.227,-0.745 -10.81,-3.785 -13.681,-9.44 -2.287,-4.505 -4.396,-9.159 -7.227,-13.309 -2.208,-3.237 -5.022,-6.361 -8.24,-8.542 -5.998,-4.065 -13.279,-1.956 -16.741,4.441 -1.326,2.45 -2.276,5.185 -2.923,7.903 -0.892,3.751 -1.482,7.592 -1.943,11.425 -1.931,16.051 -10.747,26.072 -26.388,29.845 -4.28,1.032 -8.808,1.458 -13.222,1.451 -42.089,-0.068 -84.179,-0.291 -126.269,-0.465 -1.478,-0.007 -2.957,-0.008 -4.5,-0.007 m -19.559,91.939 c 4.176,10.258 7.56,13.985 12.158,20.417 6.077,8.501 14.336,14.882 23.362,19.989 7.688,4.35 15.886,7.986 24.789,8.864 8.661,0.855 17.402,1.208 26.11,1.226 51.755,0.107 103.51,0.053 155.265,0.053 56.663,0 113.326,0.077 169.988,-0.049 15.868,-0.035 29.956,-5.988 42.68,-14.996 11.493,-8.137 20.696,-18.602 26.705,-31.37 2.904,-6.172 4.835,-11.246 6.752,-17.86 1.615,-5.574 1.849,-13.006 2.126,-18.654 0.487,-9.975 -0.437,-20.024 -0.38,-29.994 0.303,-52.646 0.349,-105.296 -0.064,-157.94 -0.092,-11.903 -3.971,-23.311 -9.183,-34.191 -5.038,-10.515 -12.512,-19.045 -21.116,-26.505 -9.327,-8.086 -20.25,-13.664 -32.358,-16.425 -5.421,-1.238 -11.033,-2.23 -16.567,-2.279 -26.321,-0.234 -52.648,-0.176 -78.97,-0.026 -3.806,0.021 -6.773,-1.022 -8.82,-4.048 -2.903,-4.292 -5.583,-8.739 -8.26,-13.18 -2.756,-4.57 -5.005,-9.502 -8.173,-13.757 -4.899,-6.58 -11.813,-8.705 -19.823,-6.991 -3.195,0.685 -6.322,1.691 -9.519,2.368 -5.083,1.076 -8.392,-0.372 -10.577,-5.106 -1.545,-3.345 -2.188,-7.101 -3.68,-10.476 -2.5,-5.65 -4.684,-11.622 -8.229,-16.581 -4.695,-6.569 -11.974,-8.575 -19.889,-7.209 -9.331,1.612 -14.176,8.796 -12.764,18.702 0.793,5.558 2.155,11.052 2.661,16.631 0.385,4.235 0.199,8.615 -0.473,12.812 -0.327,2.046 -2.156,5.173 -3.644,5.381 -1.938,0.271 -4.722,-1.411 -6.233,-3.077 -2.771,-3.056 -4.863,-6.726 -7.263,-10.121 -3.108,-4.397 -6.088,-9.471 -12.51,-8.375 -6.389,1.089 -7.743,6.704 -8.99,11.998 -1.057,4.484 -1.709,9.078 -3.002,13.488 -0.948,3.235 -2.229,6.53 -4.093,9.309 -3.545,5.283 -8.26,8.325 -15.237,8.266 -30.783,-0.262 -61.572,-0.332 -92.354,-0.009 -13.043,0.137 -25.032,4.654 -36.291,11.207 -12.531,7.293 -22.154,17.432 -29.597,29.714 -5.384,8.886 -6.943,13.337 -9.969,23.148 -2.087,6.766 -2.599,18.92 -2.606,25.62 -0.065,58.15 -10e-4,158.079 -10e-4,174.451 0,16.371 3.863,25.318 8.039,35.575" /></g><g
           transform="translate(119.8848,261.5293)"
           id="g24"><path
             id="path26"
             style="fill:#000000;fill-opacity:1;fill-rule:nonzero;stroke:none"
             d="m 0,0 c -2.52,-0.141 -4.367,-2.421 -3.978,-4.915 1.008,-6.46 6.082,-10.894 13.157,-10.913 15.902,-0.042 31.804,0.164 47.706,0.198 2.362,0.005 4.79,-0.084 7.072,-0.622 4.055,-0.956 6.648,-4.602 6.478,-8.511 -0.164,-3.769 -2.771,-7.069 -6.765,-7.794 -3.044,-0.552 -6.203,-0.629 -9.313,-0.64 -34.628,-0.134 -69.257,-0.206 -103.885,-0.318 -3.416,-0.011 -6.833,-0.282 -10.247,-0.237 -6.396,0.084 -10.6,3.756 -10.567,9.056 0.032,5.268 4.29,8.933 10.673,8.951 6.833,0.018 13.698,-0.009 20.531,-0.009 3.523,0 7.056,0.818 8.071,3.751 1.274,3.683 1.424,6.235 -1.171,9.767 -1.413,1.924 -3.425,2.131 -4.94,2.17 -7.278,0.189 -14.561,0.176 -21.842,0.258 -1.187,0.013 -2.38,0.074 -3.556,0.227 -5.263,0.688 -8.603,3.995 -8.665,8.52 -0.063,4.64 3.457,8.193 8.933,8.735 3.397,0.337 6.824,0.482 10.239,0.497 20.361,0.095 40.721,0.135 61.083,0.162 1.627,0.002 3.281,-0.09 4.877,-0.385 5.027,-0.928 8.08,-4.243 8.107,-8.631 C 22.025,4.969 19.036,1.367 13.979,0.634 9.891,0.042 5.688,0.249 1.537,0.076 1.024,0.055 0.511,0.028 0,0" /></g></g></g></g></svg>