<?xml version="1.0" encoding="utf-8"?>
<!-- Generator: Adobe Illustrator 23.0.1, SVG Export Plug-In . SVG Version: 6.00 Build 0)  -->
<svg version="1.1"
	 id="svg8" xmlns:cc="http://creativecommons.org/ns#" xmlns:dc="http://purl.org/dc/elements/1.1/" xmlns:inkscape="http://www.inkscape.org/namespaces/inkscape" xmlns:rdf="http://www.w3.org/1999/02/22-rdf-syntax-ns#" xmlns:sodipodi="http://sodipodi.sourceforge.net/DTD/sodipodi-0.dtd" xmlns:svg="http://www.w3.org/2000/svg"
	 xmlns="http://www.w3.org/2000/svg" xmlns:xlink="http://www.w3.org/1999/xlink" x="0px" y="0px" viewBox="0 0 400 400"
	 style="enable-background:new 0 0 400 400;" xml:space="preserve">
<sodipodi:namedview  bordercolor="#666666" borderopacity="1" fit-margin-bottom="20" fit-margin-left="0" fit-margin-right="0" fit-margin-top="0" gridtolerance="10" guidetolerance="10" id="namedview10" inkscape:current-layer="svg8" inkscape:cx="27.866536" inkscape:cy="9.4025027" inkscape:pageopacity="0" inkscape:pageshadow="2" inkscape:window-height="705" inkscape:window-maximized="1" inkscape:window-width="1366" inkscape:window-x="-8" inkscape:window-y="245" inkscape:zoom="11.313709" objecttolerance="10" pagecolor="#ffffff" showgrid="false">
	</sodipodi:namedview>
<g id="Layer_1">
</g>
<g>
	<path d="M281.7,110.7c-7.8-4.6-16.3-7.2-24.7-7.2c-7.2,0-13.7,0.7-20.2,2.6c-5.1,1-9.8,2.4-14.1,4c-2.1,0.7-3.5,2.7-3.5,4.9
		l-0.6,86.5c0,2.1,0.6,4.2,1.7,5.9c14.2,21.6-12,59.4,10.7,59.9c20.1,0-8.5-40.1,9.2-60.9c0.8-1,1.4-2.1,1.8-3.3l0,0
		c8.7-29,24.7-49.5,29.3-33.4c0.5,1.9,0.8,3.9,0.8,5.9c0,5.1,0,18,0,24.9c0,2.5,2,4.5,4.5,4.5h12.4c2.5,0,4.5-2,4.5-4.5V140
		C293.4,125,289.5,115.2,281.7,110.7z M242,153.4V130c0-2.7,1.7-5,4.3-5.8c0.5-0.2,1.1-0.3,1.6-0.4c2.6-0.7,5.2-0.7,7.8-0.7
		c1.8,0,3.3,0.1,4.7,0.3c3.3,0.5,6,2.9,6.5,6.2C269.6,145.5,246.9,176.7,242,153.4z"/>
	<path d="M169.5,75.1c-0.7-2.5-3-4.2-5.6-4.2h-17.4c-2.6,0-4.9,1.7-5.6,4.2l-36,125.3c-0.7,2.3,1.1,4.6,3.5,4.6h12.5
		c2.5,0,4.7-1.7,5.4-4.1l7.8-28.8c0.7-2.4,3.1-3.9,5.5-3.3c25.5,5.7,38.6,16,43.8,31.4l0.4,1.4c0.7,2.4,2.9,4.1,5.4,4.1h14.1
		c2.4,0,4.1-2.3,3.4-4.6L169.5,75.1z M152.7,96.5c0.5-2.2,1.1-5.4,1.5-7.8c0-0.3,0.4-0.3,0.5,0c1,5.2,2.8,12.7,4.7,19.9
		c-0.6,4.1-5.2-2.1-6.6-7.6C152.4,99.6,152.4,98,152.7,96.5z M140.9,144.6c1-3.7,2-7.4,2.9-11.2c9.9-29.8,13.9-11.6,24,10.9
		c0.4,1-0.3,2.1-1.4,2.1h-24.2C141.4,146.5,140.7,145.6,140.9,144.6z M166.8,168h4.6c1.7,0,3.1,1.1,3.6,2.7l0.6,2.2
		C176.2,179.8,162.4,169.8,166.8,168z"/>
	<path d="M337.5,4.5h-275c-5.5,0-10,4.5-10,10v267.1c0,5.5,4.5,10,10,10h229.9c12.6,0,23.4,9.7,24.3,22.3c2.2,30-18.4,78.3,6.4,81.5
		c29.9-0.4-13.9-81.5,15.4-100.4c5.6-3.6,9-9.9,9-16.6v-264C347.5,9,343,4.5,337.5,4.5z M335.1,270c0,5.5-4.5,10-10,10H74.9
		c-5.5,0-10-4.5-10-10V26.9c0-5.5,4.5-10,10-10h250.2c5.5,0,10,4.5,10,10V270z"/>
</g>
</svg>
