<?xml version="1.0" encoding="utf-8"?>
<!-- Generator: Adobe Illustrator 23.0.6, SVG Export Plug-In . SVG Version: 6.00 Build 0)  -->
<svg version="1.1"
	 id="svg8" xmlns:cc="http://creativecommons.org/ns#" xmlns:dc="http://purl.org/dc/elements/1.1/" xmlns:inkscape="http://www.inkscape.org/namespaces/inkscape" xmlns:rdf="http://www.w3.org/1999/02/22-rdf-syntax-ns#" xmlns:sodipodi="http://sodipodi.sourceforge.net/DTD/sodipodi-0.dtd" xmlns:svg="http://www.w3.org/2000/svg"
	 xmlns="http://www.w3.org/2000/svg" xmlns:xlink="http://www.w3.org/1999/xlink" x="0px" y="0px" viewBox="0 0 400 400"
	 style="enable-background:new 0 0 400 400;" xml:space="preserve">
<path d="M276.2,108.1c-7.3-4.2-15.2-6.7-23.1-6.7c-6.7,0-12.7,0.6-18.8,2.4c-4.8,1-9.2,2.3-13.2,3.7c-1.9,0.7-3.2,2.5-3.2,4.6
	l-0.6,80.7c0,2,0.5,3.9,1.6,5.5c13.2,20.1-11.2,55.4,9.9,55.8c18.7,0-7.9-37.3,8.6-56.8c0.8-0.9,1.3-1.9,1.7-3.1v0
	c8.1-27,23-46.2,27.3-31.1c0.5,1.8,0.7,3.6,0.7,5.5c0,4.8,0,16.8,0,23.2c0,2.3,1.9,4.2,4.2,4.2h11.6c2.3,0,4.2-1.9,4.2-4.2v-56.5
	C287.1,121.5,283.5,112.4,276.2,108.1z M239.2,148v-21.8c0-2.5,1.6-4.7,4-5.4c0.5-0.2,1-0.3,1.5-0.4c2.4-0.6,4.9-0.6,7.3-0.6
	c1.6,0,3.1,0.1,4.4,0.3c3.1,0.4,5.6,2.7,6.1,5.8C264.9,140.6,243.7,169.7,239.2,148z"/>
<path d="M171.5,75c-0.7-2.3-2.8-3.9-5.2-3.9h-16.2c-2.4,0-4.6,1.6-5.2,3.9l-33.6,116.8c-0.6,2.1,1,4.3,3.2,4.3h11.6
	c2.4,0,4.4-1.6,5-3.9l7.3-26.8c0.6-2.2,2.9-3.6,5.1-3.1c23.8,5.3,36,14.9,40.8,29.3l0.4,1.3c0.6,2.3,2.7,3.8,5,3.8H203
	c2.2,0,3.8-2.2,3.2-4.3L171.5,75z M155.9,95c0.4-2,1-5.1,1.4-7.2c0-0.2,0.4-0.3,0.4,0c0.9,4.8,2.6,11.8,4.4,18.5
	c-0.5,3.8-4.9-1.9-6.1-7.1C155.6,97.8,155.6,96.4,155.9,95z M144.9,139.7c0.9-3.4,1.8-6.9,2.7-10.4c9.2-27.8,12.9-10.8,22.4,10.2
	c0.4,0.9-0.3,2-1.3,2h-22.5C145.4,141.5,144.7,140.6,144.9,139.7z M169.1,161.5h4.3c1.6,0,2.9,1,3.4,2.5l0.6,2
	C177.8,172.6,165,163.3,169.1,161.5z"/>
<path d="M328.2,9.2H71.8c-5.1,0-9.3,4.2-9.3,9.3v249.1c0,5.1,4.2,9.3,9.3,9.3h214.3c11.8,0,21.8,9,22.6,20.8c2,28-17.1,73,6,76
	c27.9-0.4-13-76,14.3-93.6c5.2-3.4,8.4-9.2,8.4-15.4V18.5C337.5,13.3,333.3,9.2,328.2,9.2z M326,256.6c0,5.1-4.2,9.3-9.3,9.3H83.4
	c-5.1,0-9.3-4.2-9.3-9.3V30c0-5.1,4.2-9.3,9.3-9.3h233.3c5.1,0,9.3,4.2,9.3,9.3V256.6z"/>
</svg>
