<?xml version="1.0" encoding="utf-8"?>
<!-- Generator: Adobe Illustrator 22.1.0, SVG Export Plug-In . SVG Version: 6.00 Build 0)  -->
<!DOCTYPE svg PUBLIC "-//W3C//DTD SVG 1.1//EN" "http://www.w3.org/Graphics/SVG/1.1/DTD/svg11.dtd">
<svg version="1.1" id="Layer_1" xmlns="http://www.w3.org/2000/svg" xmlns:xlink="http://www.w3.org/1999/xlink" x="0px" y="0px"
	 viewBox="0 0 400 400" enable-background="new 0 0 400 400" xml:space="preserve">
<g>
	<path d="M280.3,156.2c-0.1,1.1,1.3,1.7,2.1,0.9c3.5-3.5,6.9-6.8,10.2-10.1c3.4-3.4,3.4-3.3,7.5-1c11.2,6.3,22.4,12.5,33.5,18.7
		c6.1,3.4,12.1,7.1,18.2,10.5c4.3,2.4,8.8,4.6,13,7.1c4.2,2.5,7.7,5.8,10.6,9.8c2.7,3.9,2.6,8.2,1.7,12.6
		c-2.2,10.1-7.1,19.2-11.3,28.5c-2.3,5.2-4.3,10.6-5.7,16.1c-2.1,8-0.1,16,1.5,23.9c1.5,7.3,2.5,14.6,0.6,22
		c-2.2,8.4-6.5,15.3-14.9,18.7c-8.7,3.5-17.2,0-20.2-8.8c-1.6-4.6-2-9.6-2.4-14.5c-0.4-5.2-0.1-10.4-0.4-15.6
		c-0.6-11.4-6.5-17.9-17.8-19.7c-2.8-0.4-5.7-0.3-8.5-0.9c-2.2-0.5-4.7-1.1-6.2-2.5c-15.7-15.5-31.3-31.1-46.8-46.7
		c-2.9-2.9-2.8-6.6-1.7-10.2c0.8-2.6,2.3-4.9,3.1-7.5c1-3.2,1.7-6.4,2.3-9.7c0-0.2,0-0.4,0-0.6c-0.4-1.4-2-1.9-3.2-1.2
		c-0.2,0.1-0.3,0.2-0.5,0.4c-3.2,3-6.3,6.2-9.4,9.3c-4.1,4-6,4.1-10,0.1c-9.3-9.2-18.5-18.5-27.8-27.8l0,0c-1.3-1.3-3.6-0.3-3.4,1.6
		c0.1,0.5,0.1,0.9,0.3,1.4c1.8,5.7,3.7,11.3,5.9,16.9c0.6,1.6,1.9,3.1,3.2,4.3c4.3,4.5,8.8,8.8,13.2,13.2c3.9,4,3.9,5.2-0.1,9.2
		c-4.8,4.9-9.8,9.7-14.5,14.6c-1.5,1.6-2.8,3.4-3.6,5.4c-2.2,5.5-4.2,11.2-6.2,16.8c-0.3,1-0.4,1.2-0.7,2.6
		c-0.2,1.4-0.5,2.3,0.2,2.9c0.7,0.6,1.6-0.4,2.4-1.3s1.1-1.3,1.7-1.9c9.6-9.6,19.3-19.3,29-28.9c0.4-0.4,0.8-0.8,1.2-1.1
		c3.6-2.7,6-2.8,9.1,0.3c5.7,5.6,11.2,11.4,16.8,17.1c5.5,5.5,11,10.9,16.5,16.4c3.9,3.9,7.8,7.7,11.5,11.8c2.9,3.1,2.4,4.9-1.2,6.9
		c-8.7,4.9-17.4,9.8-26.1,14.7c-8.6,4.8-17.2,9.6-25.8,14.4c-11.2,6.2-22.4,12.4-33.5,18.7c-8.5,4.7-16.9,9.5-25.4,14.3
		c-9.6,5.4-19.1,10.9-28.7,16.3c-9.7,5.5-19.4,11-29.1,16.4c-4.3,2.4-8.7,4.8-13.1,7.3c-8.6,4.8-17.1,9.7-25.7,14.4
		c-5.6,3.1-11.3,5.9-17,8.9c-0.6,0.3-1.2,0.7-1.8,0.7c-0.2,0-0.5,0-0.7-0.1c-1.5-0.3-2-2.1-1-3.1h0c5-5.1,10-10.1,15.1-15.2
		c25.7-25.7,51.2-51.4,77-76.9c6.5-6.5,8.2-14.7,9.9-23.1c0-0.2,0-0.4,0-0.6c-0.3-1.4-1.9-1.9-3.1-1.2c-0.2,0.1-0.4,0.2-0.5,0.4
		c-6.3,6.2-12.5,12.4-18.8,18.6c-31.6,31.6-63.3,63.3-94.9,94.9c-4.2,4.2-7.9,3.1-10.1-2.4c-2.4-6.2-3.1-12.6-3-19.2
		c0.1-111,0.1-222.1,0-333.1c0-5.7,1.5-10.9,4-15.8c2.2-4.3,5.2-4.8,8.6-1.4c17.5,17.5,35.1,34.9,52.6,52.4
		c21.4,21.3,42.7,42.7,64.1,64c1.3,1.3,2.8,3.6,4.7,2.4c1.2-0.8,1.6-3.3,1.7-5.1c0.4-6.2-2.1-11.3-6.5-15.6
		c-27.4-27.3-54.7-54.6-82-82C63.4,23.6,57.2,17.4,51,11.1l0,0C49.9,9.9,50.7,8,52.3,8c0.3,0,0.6,0,0.8,0.1c3.1,1.2,6.2,2.5,9.1,4.1
		c7.1,3.9,14,8,21.1,11.9c9.7,5.4,19.5,10.7,29.2,16.2c10.6,6,21.1,12,31.7,18c11.1,6.3,22.3,12.4,33.5,18.7
		c13.1,7.4,26.2,14.9,39.4,22.3c9.3,5.2,18.6,10.2,27.9,15.4c10.8,6.1,21.7,12.2,32.5,18.3c3.3,1.9,4.2,4.3,3.8,8.1
		C280.7,146.1,280.5,151.2,280.3,156.2L280.3,156.2z"/>
</g>
</svg>
