<?xml version="1.0" encoding="utf-8"?>
<!-- Generator: Adobe Illustrator 23.0.6, SVG Export Plug-In . SVG Version: 6.00 Build 0)  -->
<svg version="1.1" id="Layer_1" xmlns="http://www.w3.org/2000/svg" xmlns:xlink="http://www.w3.org/1999/xlink" x="0px" y="0px"
	 viewBox="0 0 400 400" style="enable-background:new 0 0 400 400;" xml:space="preserve">
<path d="M257.5,111.1c0,0.8,0.9,1.2,1.5,0.7c2.5-2.5,4.9-4.9,7.3-7.3c2.4-2.4,2.4-2.4,5.4-0.7c8,4.5,16,8.9,24,13.4
	c4.4,2.5,8.7,5,13,7.5c3.1,1.7,6.3,3.3,9.3,5.1c3,1.8,5.5,4.1,7.6,7c2,2.8,1.9,5.9,1.2,9c-1.6,7.3-5.1,13.7-8.1,20.4
	c-1.7,3.7-3.1,7.6-4.1,11.5c-1.5,5.7,0,11.4,1.1,17.1c1.1,5.2,1.8,10.5,0.4,15.7c-1.6,6-4.6,11-10.7,13.4c-6.2,2.5-12.3,0-14.5-6.3
	c-1.1-3.3-1.4-6.9-1.7-10.4c-0.3-3.7-0.1-7.4-0.3-11.1c-0.4-8.2-4.7-12.8-12.7-14.1c-2-0.3-4.1-0.2-6.1-0.6
	c-1.6-0.3-3.4-0.8-4.5-1.8c-11.3-11.1-22.4-22.3-33.5-33.4c-2.1-2.1-2-4.7-1.2-7.3c0.6-1.9,1.7-3.5,2.3-5.4c0.7-2.3,1.2-4.6,1.6-7
	c0-0.1,0-0.3,0-0.4c-0.3-1-1.4-1.4-2.3-0.9c-0.1,0.1-0.2,0.2-0.3,0.3c-2.3,2.2-4.5,4.4-6.7,6.7c-2.9,2.9-4.3,2.9-7.2,0.1
	c-6.6-6.6-13.3-13.3-19.9-19.9l0,0c-0.9-0.9-2.6-0.2-2.4,1.1c0,0.3,0.1,0.7,0.2,1c1.3,4.1,2.7,8.1,4.2,12.1c0.4,1.2,1.4,2.2,2.3,3.1
	c3.1,3.2,6.3,6.3,9.4,9.5c2.8,2.8,2.8,3.7-0.1,6.6c-3.5,3.5-7,6.9-10.4,10.5c-1.1,1.1-2,2.5-2.6,3.9c-1.6,3.9-3,8-4.4,12
	c-0.2,0.7-0.3,0.9-0.5,1.9c-0.2,1-0.3,1.6,0.1,2.1c0.5,0.4,1.1-0.3,1.7-0.9c0.6-0.6,0.8-0.9,1.2-1.4c6.9-6.9,13.8-13.8,20.7-20.7
	c0.3-0.3,0.6-0.5,0.9-0.8c2.6-1.9,4.3-2,6.5,0.2c4.1,4,8,8.2,12.1,12.2c3.9,3.9,7.9,7.8,11.8,11.7c2.8,2.8,5.6,5.5,8.3,8.4
	c2,2.2,1.7,3.5-0.9,4.9c-6.2,3.5-12.5,7-18.7,10.5c-6.2,3.5-12.3,6.9-18.5,10.3c-8,4.5-16,8.9-24,13.4c-6.1,3.4-12.1,6.8-18.2,10.3
	c-6.9,3.9-13.7,7.8-20.6,11.7c-6.9,3.9-13.9,7.8-20.9,11.7c-3.1,1.7-6.3,3.5-9.4,5.2c-6.1,3.4-12.2,6.9-18.4,10.3
	c-4,2.2-8.1,4.3-12.2,6.4c-0.4,0.2-0.8,0.5-1.3,0.5c-0.2,0-0.4,0-0.5-0.1c-1-0.2-1.4-1.5-0.7-2.3h0c3.6-3.7,7.2-7.3,10.8-10.9
	c18.4-18.4,36.7-36.8,55.2-55.1c4.7-4.6,5.9-10.6,7.1-16.6c0-0.1,0-0.3,0-0.4c-0.2-1-1.4-1.4-2.2-0.9c-0.1,0.1-0.3,0.2-0.4,0.3
	c-4.5,4.4-9,8.9-13.4,13.3c-22.7,22.7-45.3,45.3-68,68c-3,3-5.7,2.2-7.2-1.7c-1.7-4.5-2.2-9-2.2-13.8c0.1-79.5,0-159,0-238.6
	c0-4.1,1-7.8,2.9-11.3c1.6-3.1,3.7-3.4,6.1-1c12.6,12.5,25.1,25,37.7,37.6c15.3,15.3,30.6,30.6,45.9,45.9c1,0.9,2,2.6,3.4,1.7
	c0.9-0.5,1.2-2.4,1.2-3.7c0.3-4.4-1.5-8.1-4.6-11.2c-19.6-19.5-39.1-39.1-58.7-58.7c-4.5-4.5-8.9-8.9-13.4-13.4l0,0
	c-0.8-0.8-0.2-2.2,1-2.2c0.2,0,0.4,0,0.6,0.1c2.2,0.9,4.4,1.8,6.5,3c5.1,2.8,10.1,5.7,15.1,8.5c7,3.9,14,7.7,20.9,11.6
	c7.6,4.3,15.1,8.6,22.7,12.9c8,4.5,16,8.9,24,13.4c9.4,5.3,18.8,10.7,28.2,16c6.6,3.7,13.3,7.3,20,11c7.8,4.3,15.5,8.7,23.3,13.1
	c2.4,1.3,3,3.1,2.7,5.8C257.8,103.9,257.7,107.5,257.5,111.1L257.5,111.1z"/>
</svg>
