<?xml version="1.0" encoding="utf-8"?>
<!-- Generator: Adobe Illustrator 23.0.1, SVG Export Plug-In . SVG Version: 6.00 Build 0)  -->
<svg version="1.1"
	 id="intelij" inkscape:version="0.92.1 r15371" sodipodi:docname="intellij.svg" xmlns:cc="http://creativecommons.org/ns#" xmlns:dc="http://purl.org/dc/elements/1.1/" xmlns:inkscape="http://www.inkscape.org/namespaces/inkscape" xmlns:rdf="http://www.w3.org/1999/02/22-rdf-syntax-ns#" xmlns:sodipodi="http://sodipodi.sourceforge.net/DTD/sodipodi-0.dtd" xmlns:svg="http://www.w3.org/2000/svg"
	 xmlns="http://www.w3.org/2000/svg" xmlns:xlink="http://www.w3.org/1999/xlink" x="0px" y="0px" viewBox="0 0 400 400"
	 style="enable-background:new 0 0 400 400;" xml:space="preserve">
<sodipodi:namedview  bordercolor="#666666" borderopacity="1" fit-margin-bottom="80" fit-margin-left="0" fit-margin-right="0" fit-margin-top="0" gridtolerance="10" guidetolerance="10" id="namedview16" inkscape:current-layer="intelij" inkscape:cx="-166.41249" inkscape:cy="218.59478" inkscape:pageopacity="0" inkscape:pageshadow="2" inkscape:window-height="705" inkscape:window-maximized="1" inkscape:window-width="1366" inkscape:window-x="-8" inkscape:window-y="245" inkscape:zoom="0.921875" objecttolerance="10" pagecolor="#ffffff" showgrid="false">
	</sodipodi:namedview>
<title  id="title6">Artboard 15</title>
<path d="M292.1,4.7c-19.9,0-31.7,16-31.7,42.8v33.9c0,4.9-1.1,9.8-3.4,14.2c-13.2,24.9-17.9-50.5-20-81.7c-0.2-3.2-2.9-5.7-6.1-5.7
	l-124.2,0C89.2,8.9,75.6,23.5,76.3,41c0.6,16.5,13.9,29.8,30.4,30.4l60.4,0.3c3.4,0,6.1,2.7,6.1,6.1v50.8c0,1.4-0.3,2.7-0.9,3.9
	c-5.4,11.2-16.5,16.5-24.4-7.9c-3.3-16.5-17.9-29-35.4-29c-20,0-36.1,16.2-36.2,36.2c0,18.4,13.8,33.6,31.5,35.8
	c2.7,0.3,5.3,0.8,7.9,1.6c19.9,6.1,30.4,16.3-1.6,22.5c-2.5,0.5-5.1,0.7-7.7,1c-16.3,1.4-30.2,14.9-30.2,31.4
	c0,10.7,5.3,20.1,13.4,25.8l0,0c0,0,0,0,0,0c1.5,1.1,3.1,2,4.8,2.8c2.3,1.1,4.6,2.3,6.6,3.9c46.4,37-29.2,134,21.6,138.6
	c43.8-2.9-16.8-73.4,30.5-135.4c7.2-9.4,16.1-17.4,26.1-23.7c31.5-20.2,53.3-54.2,56.8-93.4c0.3-3.1,1.2-6,3-8.6
	c11.1-16.3,20.6,35.8,21.4,60.3v17.7c0,26.8,11.8,42.8,31.7,42.8c19.9,0,31.7-16,31.7-42.8v-55V47.6C323.7,20.8,311.9,4.7,292.1,4.7
	z"/>
</svg>
