<?xml version="1.0" encoding="utf-8"?>
<!-- Generator: Adobe Illustrator 23.0.6, SVG Export Plug-In . SVG Version: 6.00 Build 0)  -->
<svg version="1.1"
	 id="intelij" xmlns:cc="http://creativecommons.org/ns#" xmlns:dc="http://purl.org/dc/elements/1.1/" xmlns:inkscape="http://www.inkscape.org/namespaces/inkscape" xmlns:rdf="http://www.w3.org/1999/02/22-rdf-syntax-ns#" xmlns:sodipodi="http://sodipodi.sourceforge.net/DTD/sodipodi-0.dtd" xmlns:svg="http://www.w3.org/2000/svg"
	 xmlns="http://www.w3.org/2000/svg" xmlns:xlink="http://www.w3.org/1999/xlink" x="0px" y="0px" viewBox="0 0 400 400"
	 style="enable-background:new 0 0 400 400;" xml:space="preserve">
<path d="M291.9,5c-19.8,0-31.7,16-31.7,42.7v33.9c0,4.9-1.1,9.8-3.4,14.2c-13.2,24.9-17.8-50.4-20-81.6c-0.2-3.2-2.9-5.6-6.1-5.6
	l-124,0c-17.4,0.6-31,15.2-30.4,32.6c0.6,16.5,13.8,29.8,30.4,30.4l60.3,0.3c3.4,0,6.1,2.7,6.1,6.1v50.7c0,1.4-0.3,2.7-0.9,3.9
	c-5.4,11.2-16.5,16.4-24.3-7.9c-3.3-16.5-17.9-28.9-35.4-28.9c-19.9,0-36.1,16.2-36.1,36.1c0,18.4,13.7,33.5,31.5,35.8
	c2.7,0.3,5.3,0.8,7.9,1.6c19.8,6.1,30.4,16.3-1.6,22.5c-2.5,0.5-5.1,0.7-7.7,1c-16.2,1.4-30.1,14.9-30.1,31.4
	c0,10.6,5.3,20,13.3,25.8l0,0c0,0,0,0,0,0c1.5,1.1,3.1,2,4.8,2.8c2.3,1.1,4.6,2.3,6.6,3.9c46.3,36.9-29.2,133.7,21.5,138.4
	c43.8-2.9-16.8-73.3,30.4-135.2c7.2-9.4,16.1-17.3,26-23.7c31.4-20.1,53.2-54.1,56.7-93.3c0.3-3,1.2-6,3-8.6
	c11.1-16.3,20.6,35.7,21.3,60.2v17.6c0,26.8,11.8,42.7,31.6,42.7c19.8,0,31.7-16,31.7-42.7v-54.9V47.8C323.5,21.1,311.7,5,291.9,5z"
	/>
</svg>
