<?xml version="1.0" encoding="utf-8"?>
<!-- Generator: Adobe Illustrator 23.0.6, SVG Export Plug-In . SVG Version: 6.00 Build 0)  -->
<svg version="1.1"
	 id="svg6" xmlns:cc="http://creativecommons.org/ns#" xmlns:dc="http://purl.org/dc/elements/1.1/" xmlns:inkscape="http://www.inkscape.org/namespaces/inkscape" xmlns:rdf="http://www.w3.org/1999/02/22-rdf-syntax-ns#" xmlns:sodipodi="http://sodipodi.sourceforge.net/DTD/sodipodi-0.dtd" xmlns:svg="http://www.w3.org/2000/svg"
	 xmlns="http://www.w3.org/2000/svg" xmlns:xlink="http://www.w3.org/1999/xlink" x="0px" y="0px" viewBox="0 0 400 400"
	 style="enable-background:new 0 0 400 400;" xml:space="preserve">
<path d="M159.1,134.1c0,0.6,0.7,0.9,1.1,0.6c1.5-1.2,2.6-2.4,3.6-3.3l7.6-6.7c0,0,3.7-3.5,5.8-5.4c0,0,0.4-0.4,0.8-0.8
	c0.4-0.4,1.4-1.6,1.7-2.3c0.3-0.6,1.5-2.2,1.1-2.6c-0.6-0.7-8.2,4.3-12.1,7.1l-9,6.4c-0.5,0.3-0.8,0.9-0.8,1.5V134.1z"/>
<path d="M201.5,145.7c4.5-2.6,6.9-7.1,6.9-12.5c0-7.6-3.7-14.7-11.9-14.7h-14.7c-0.6,0-1.1,0.5-1.1,1.1v2
	c-0.4,11.6-5.4,22.5-11.5,20.5c-0.4-0.1-0.4-0.6-0.1-0.9c3-2.2,4.9-5.4,4.9-9.4c0-1.8-0.3-3.7-1-5.6c-0.2-0.6-0.9-0.7-1.4-0.3
	c-2.5,2.2-5,4.5-6.3,5.7c-0.3,0.3-0.5,0.7-0.4,1.1c0,0.2,0,0.3,0,0.7c0,2.6-1.5,5-5,5h-2.1c-0.5,0-0.9-0.4-0.9-0.9v-9.6
	c0-0.5,0.2-0.9,0.6-1.2l8.9-6.1c0.4-0.3,0.3-0.8-0.1-1c-1.3-0.5-2.9-0.9-4.6-0.9h-12.4c-0.5,0-1,0.4-1,1v47.5c0,0.7,0.6,1.3,1.3,1.3
	h13.2c9.6,0,13.1-5.7,14-11c0.2-1.3,0.5-2.7,0.9-4c1-3.4,2.3-5.4,3.1,0v13.7c0,0.7,0.6,1.2,1.2,1.2h6.2c0.7,0,1.2-0.6,1.2-1.2V150
	c0-0.4,0.5-0.6,0.8-0.2l11.9,17.3c0.5,0.7,1.2,1,2,1h7c0.6,0,1-0.7,0.7-1.2l-12.3-19.6c-0.3-0.5,0-1.1,0.6-1.2
	C200.5,146.1,201,146,201.5,145.7z M160,159.7h-2c-0.5,0-1-0.4-1-1v-8.8c0-0.5,0.4-1,1-1h3.5c3.5,0,6.1,1.5,6.1,5.2
	C167.6,158.4,165.6,159.7,160,159.7z M193.9,140.2h-3.6c-0.5,0-1-0.4-1-1v-11c0-0.5,0.4-1,1-1h3.3c3.7,0,5.8,2.6,5.8,6.5
	C199.4,138.1,196.8,140.2,193.9,140.2z"/>
<path d="M145.4,134.6l-4.9,3.3c0.2-0.2-4.2,2.8-6.1,4.2c-0.1,0.1-0.2,0-0.2-0.1c0.1-1,0.2-1.7,0.2-1.7c0.9-6.5,1.7-13,1.7-17.5
	c0-2.2-0.2-3.7-0.6-4.5c-0.4-0.6-0.9-0.9-1.5-1.1c-0.9-0.2-1.7,0.2-2.6,0.9c-2.8,1.9-4.3,7.8-4.3,17.7c0,3,0.2,6.3,0.4,10.1
	c0,0.6-0.2,1.1-0.6,1.5c-0.6,0.5-1.3,1.2-1.3,1.2l-2.8,2.6l-0.2,0.2c-1.3,1.2-2.4,2.2-3.3,2.8c-0.9,0.7-2,1.2-3.2,1.5
	c-0.2,0-0.3,0.1-0.3-0.1c0-0.1,0.8-0.8,1.3-1.3c2.8-2.9,4.8-7.5,4.8-10.2c0-0.4-0.1-1-0.2-1.5c-0.6-2.4-1.8-3.7-3.5-4.6
	c-0.8-0.5-1.8-0.7-3-0.6l0,0c-16.1,2-19.1-17.8-20.5-36.2l0,0c-0.8-4.4-7.7,1.2-11.6,5c-1.7,1.7-7.1,6.7-5.2,10.6
	c2.2,4.1,4.3,2.8,5.6,9.7c1.7,10,1,20.2,0.6,24.2c-0.1,1-0.7,2-1.7,2.4c-1.7,0.8-4.3,2.1-4.3,2.1c-8.9,4.1-15.8,7.4-15.8,12.5
	c0,0.9,0.2,1.7,0.4,2.6c0.8,2.2,1.7,4.2,2.6,6.2c0.6,1.4,1.2,2.9,1.7,4.4c15.3,44.4-10.2,76.1,9.7,77.9c21.6-5.8-9.8-38.5,7.8-58.9
	c0.6-0.8,1.4-1.4,2.2-2c3.5-2.9,3.7-9.7,4.1-19.6c0.2-5.3,0.4-11.1,1.1-17.5c0.1-1.2,0.8-2.3,1.8-3.1c2.2-1.6,6.4-4.7,8.8-6.4
	c0.5-0.4,1.2,0.1,1.1,0.7c-0.2,1-0.2,1.9-0.2,2.5c0,2.4,0.4,4.1,0.9,5.2c0.9,1.7,1.5,2.8,3.2,3.7c2.4,1.1,4.3,1.3,8.2-0.2
	c1.6-0.6,4.4-2.6,7.4-5.1c0.3-0.2,0.7-0.2,0.9,0.2c1,1.7,3.1,5.4,3.1,5.4l2.6,4.5c1.1,2.2,3,2.8,5.2,1.7c1.3-0.7,2.2-1.3,2.8-2.1
	c0.2-0.2,0.2-0.5,0.3-0.8c0-0.7,0.1-1.7-0.2-2.2c-3-5.4-2.8-10.2-2.8-13.6v-0.4c0-1.1,5.2-4.3,5.2-4.3l5.1-3.9
	c0.3-0.3,0.5-0.6,0.5-1.1v-6.5C146,134.6,145.6,134.4,145.4,134.6z M81.3,182.8c-2.4-1.9-3.5-3.5-5.2-7.8c-2.9-6.7,0.7-9,7.3-12.8
	c0.5-0.3,1.1,0.1,1,0.7C83.6,170.7,82.9,184.5,81.3,182.8z M97.3,144.4c-0.6,1.3-1.5,2.4-2.8,3.1c-0.5,0.3-0.9,0.5-1.3,0.7
	c-0.6,0.4-1.4-0.1-1.4-0.9c0.2-2.4,0.5-6,0.9-10.2C94.4,128.8,102.2,132.7,97.3,144.4z M111.3,152c-0.2,0.2-0.5,0-0.6-0.3
	c-0.1-2.5-0.4-5.6,2.8-7.4c1.3-0.6,2.2-0.2,2.6,0.2C116.9,145.6,115,149.4,111.3,152z"/>
<path d="M319.6,132c0-2.6,1.7-4.1,5-4.1c3.3,0,5.2,1,10.9,3.8c0.5,0.2,1-0.1,1-0.6v-7.6c0-0.6-0.4-1.2-0.9-1.4
	c-5.7-2.5-7.5-3.5-11.6-3.5c-6.5,0-10.2,2.7-11.9,7.3c-0.2,0.6-0.7,1.2-1.3,1.3c-2.4,0.6-3.9-4.1-4.4-7.3c-0.1-0.7-0.7-1.3-1.5-1.3
	c-1.6,0-4.2,0-5.8,0c-0.8,0-1.5,0.7-1.5,1.5v27.7c0,0.5-0.7,0.7-1,0.2l-15.9-28.7c-0.3-0.5-0.8-0.8-1.3-0.8H273
	c-0.8,0-1.5,0.7-1.5,1.5v46.8c0,0.8,0.7,1.5,1.5,1.5h5.7c0.8,0,1.5-0.7,1.5-1.5v-28.1c0-0.5,0.7-0.7,0.9-0.3l18.1,29.1
	c0.3,0.4,0.7,0.7,1.3,0.7h4.2c0.8,0,1.5-0.7,1.5-1.5v-17.5c0-1.1,0.1-2.2,0.2-3.3c0.6-5.2,1.5-10.1,7.2-3.3c0.4,0.6,0.8,1.1,1.2,1.6
	c0,0,0,0.1,0.1,0.1l0,0c5.2,5.7,13.8,6,13.8,11.7c0,3-1.9,4.8-5.2,4.8c-4.1,0-6.2-1.5-11.9-5.7c-0.5-0.3-1.1,0-1.1,0.5v8
	c0,0.9,0.3,1.7,0.8,2.4c16.2,20.5-8.7,51.2,7,51.9c17.5-0.3-5.7-29.9,8.6-46.4c1.3-1.5,2.8-2.7,4.5-3.7c3.9-2.5,6.2-7,6.2-13.2
	C337.5,137.4,319.6,139.6,319.6,132z"/>
<path d="M243.6,136.2l-5.3-16.2c-0.3-0.8-1-1.4-1.9-1.4H230c-0.9,0-1.6,0.6-1.9,1.4L214,167.1c-0.2,0.6,0.3,1.2,0.9,1.2h6.8
	c0.7,0,1.4-0.5,1.6-1.2l2.3-6.5c0.2-0.6,0.8-1,1.4-1h13.3c0.7,0,1.4,0.5,1.6,1.1l2.5,6.6c0.2,0.6,0.7,0.9,1.3,0.9l6.9,0
	c0.8,0,1.4-0.7,1.2-1.5c-2.9-12.4,0.2-32.9,2.3-28.2c0.2,0.5,0.3,1.1,0.3,1.6c0,3.8,0,22.4,0,27c0,0.6,0.5,1,1.1,1h6.5
	c0.6,0,1.1-0.5,1.1-1.1v-47.6c0-0.6-0.5-1.1-1.1-1.1h-6.7c-0.5,0-1,0.4-1,0.9C255,129.2,246.2,144.1,243.6,136.2z M228.9,150.4
	l4.1-16.8c0.1-0.5,0.9-0.5,1,0l4.5,16.8c0.1,0.3-0.2,0.7-0.5,0.7h-8.6C229.1,151.1,228.8,150.7,228.9,150.4z"/>
</svg>
