<?xml version="1.0" encoding="utf-8"?>
<!-- Generator: Adobe Illustrator 23.0.1, SVG Export Plug-In . SVG Version: 6.00 Build 0)  -->
<svg version="1.1"
	 id="svg6" inkscape:version="0.92.1 r15371" sodipodi:docname="jetbrains.svg" xmlns:cc="http://creativecommons.org/ns#" xmlns:dc="http://purl.org/dc/elements/1.1/" xmlns:inkscape="http://www.inkscape.org/namespaces/inkscape" xmlns:rdf="http://www.w3.org/1999/02/22-rdf-syntax-ns#" xmlns:sodipodi="http://sodipodi.sourceforge.net/DTD/sodipodi-0.dtd" xmlns:svg="http://www.w3.org/2000/svg"
	 xmlns="http://www.w3.org/2000/svg" xmlns:xlink="http://www.w3.org/1999/xlink" x="0px" y="0px" viewBox="0 0 400 400"
	 style="enable-background:new 0 0 400 400;" xml:space="preserve">
<sodipodi:namedview  bordercolor="#666666" borderopacity="1" gridtolerance="10" guidetolerance="10" id="namedview8" inkscape:current-layer="svg6" inkscape:cx="73.007542" inkscape:cy="60.381229" inkscape:pageopacity="0" inkscape:pageshadow="2" inkscape:window-height="705" inkscape:window-maximized="1" inkscape:window-width="1366" inkscape:window-x="-8" inkscape:window-y="245" inkscape:zoom="8" objecttolerance="10" pagecolor="#ffffff" showgrid="false">
	</sodipodi:namedview>
<g>
	<path d="M141.9,136c0,0.8,1,1.3,1.6,0.8c2.2-1.7,3.6-3.4,5.1-4.6l10.8-9.5c0,0,5.2-4.9,8.3-7.7c0,0,0.6-0.6,1.1-1.1s2-2.3,2.5-3.2
		c0.5-0.9,2.1-3.1,1.6-3.6c-0.9-1-11.7,6.1-17.2,10.1l-12.7,9c-0.7,0.5-1.1,1.3-1.1,2.1V136z"/>
	<path d="M202.2,152.5c6.5-3.7,9.8-10.1,9.8-17.8c0-10.8-5.2-20.9-16.9-20.9h-20.9c-0.8,0-1.5,0.7-1.5,1.5v2.8
		c-0.5,16.5-7.6,32-16.3,29.1c-0.5-0.2-0.6-0.9-0.2-1.2c4.3-3.1,6.9-7.7,6.9-13.4c0-2.5-0.4-5.3-1.4-7.9c-0.3-0.8-1.3-1-2-0.5
		c-3.6,3.1-7.1,6.4-9,8c-0.4,0.4-0.7,1-0.5,1.5c0.1,0.3,0.1,0.5,0.1,1c0,3.7-2.2,7.1-7.1,7.1h-3c-0.7,0-1.3-0.6-1.3-1.3v-13.6
		c0-0.7,0.3-1.3,0.9-1.7l12.6-8.7c0.5-0.4,0.4-1.2-0.2-1.4c-1.9-0.7-4.1-1.3-6.6-1.3H128c-0.8,0-1.4,0.6-1.4,1.4v67.5
		c0,1,0.8,1.8,1.8,1.8h18.8c13.6,0,18.6-8.1,19.9-15.6c0.3-1.9,0.7-3.8,1.3-5.6c1.5-4.8,3.2-7.7,4.4,0v19.5c0,1,0.8,1.8,1.8,1.8h8.8
		c1,0,1.8-0.8,1.8-1.8v-24c0-0.6,0.8-0.8,1.1-0.3l16.9,24.6c0.6,0.9,1.7,1.5,2.8,1.5h10c0.9,0,1.4-1,1-1.7l-17.5-27.9
		c-0.4-0.7,0.1-1.6,0.9-1.6C200.7,153.1,201.4,153,202.2,152.5z M143.2,172.5h-2.9c-0.8,0-1.4-0.6-1.4-1.4v-12.5
		c0-0.8,0.6-1.4,1.4-1.4h5c4.9,0,8.6,2.2,8.6,7.4C153.9,170.6,151.2,172.5,143.2,172.5z M191.4,144.8h-5.1c-0.8,0-1.4-0.6-1.4-1.4
		v-15.6c0-0.8,0.6-1.4,1.4-1.4h4.7c5.2,0,8.3,3.7,8.3,9.2C199.1,141.7,195.4,144.8,191.4,144.8z"/>
	<path d="M122.4,136.7l-6.9,4.7c0.3-0.3-5.9,4-8.6,5.9c-0.1,0.1-0.3,0-0.3-0.2c0.2-1.4,0.3-2.4,0.3-2.4c1.2-9.2,2.5-18.4,2.5-24.9
		c0-3.1-0.3-5.2-0.9-6.5c-0.6-0.9-1.2-1.2-2.2-1.5c-1.2-0.3-2.5,0.3-3.7,1.2c-4,2.8-6.1,11.1-6.1,25.2c0,4.2,0.3,9,0.5,14.3
		c0,0.8-0.3,1.6-0.9,2.1c-0.8,0.7-1.8,1.7-1.8,1.7l-4,3.7l-0.3,0.3c-1.9,1.7-3.5,3.1-4.7,4c-1.3,1-2.9,1.8-4.5,2.1
		c-0.3,0.1-0.4,0.1-0.4-0.1c0-0.2,1.1-1.1,1.9-1.9c4-4.2,6.9-10.7,6.9-14.6c0-0.6-0.1-1.5-0.3-2.1c-0.9-3.4-2.5-5.3-5-6.5
		c-1.2-0.7-2.6-0.9-4.2-0.9l0.1,0c-22.9,2.9-27.1-25.3-29.2-51.4l0,0c-1.1-6.3-11,1.7-16.5,7.2c-2.5,2.5-10.1,9.5-7.4,15.1
		c3.1,5.8,6.1,4,8,13.8c2.5,14.2,1.4,28.7,0.8,34.4c-0.1,1.5-1,2.8-2.4,3.4c-2.5,1.2-6.1,3-6.1,3c-12.6,5.8-22.4,10.4-22.4,17.8
		c0,1.2,0.3,2.5,0.6,3.7c1.2,3.1,2.4,6,3.7,8.8c0.9,2,1.7,4.1,2.5,6.2c21.7,63.1-14.5,108.1,13.8,110.7c30.7-8.3-14-54.6,11.1-83.7
		c0.9-1.1,2-2,3.1-2.8c5-4.1,5.3-13.9,5.8-27.8c0.3-7.5,0.6-15.8,1.5-24.9c0.2-1.7,1.1-3.3,2.5-4.4c3.2-2.3,9-6.7,12.6-9.1
		c0.7-0.5,1.7,0.1,1.5,1c-0.3,1.5-0.3,2.7-0.3,3.5c0,3.4,0.6,5.8,1.2,7.4c1.2,2.5,2.2,4,4.6,5.2c3.4,1.5,6.1,1.8,11.7-0.3
		c2.3-0.9,6.3-3.6,10.6-7.3c0.4-0.4,1-0.3,1.3,0.2c1.4,2.4,4.4,7.7,4.4,7.7l3.7,6.5c1.5,3.1,4.3,4,7.4,2.5c1.8-1,3.2-1.9,3.9-3
		c0.2-0.3,0.3-0.8,0.4-1.2c0.1-1,0.2-2.4-0.3-3.2c-4.3-7.7-4-14.4-4-19.4v-0.6c0-1.6,7.4-6.2,7.4-6.2l7.2-5.6
		c0.5-0.4,0.7-0.9,0.7-1.5v-9.2C123.2,136.7,122.8,136.5,122.4,136.7z M31.4,205.3c-3.4-2.8-4.9-4.9-7.4-11.1
		c-4.1-9.6,0.9-12.9,10.3-18.1c0.7-0.4,1.5,0.2,1.5,0.9C34.6,188.1,33.7,207.6,31.4,205.3z M54,150.7c-0.8,1.9-2.2,3.4-3.9,4.4
		c-0.7,0.4-1.3,0.7-1.8,1c-0.9,0.5-2-0.2-1.9-1.2c0.3-3.3,0.7-8.5,1.2-14.5C50,128.6,61,134.1,54,150.7z M73.9,161.5
		c-0.3,0.2-0.8,0-0.8-0.4c-0.1-3.6-0.5-7.9,4-10.5c1.8-0.9,3.1-0.3,3.7,0.3C82,152.4,79.2,157.8,73.9,161.5z"/>
	<path d="M369.9,133.1c0-3.7,2.5-5.8,7.1-5.8c4.6,0,7.4,1.4,15.4,5.4c0.7,0.3,1.5-0.1,1.5-0.9v-10.7c0-0.9-0.5-1.7-1.3-2
		c-8.1-3.6-10.6-4.9-16.5-4.9c-9.2,0-14.5,3.9-16.9,10.3c-0.3,0.9-1,1.6-1.9,1.9c-3.4,0.8-5.6-5.8-6.2-10.4c-0.2-1-1-1.8-2.1-1.8
		c-2.2,0-6,0-8.3,0c-1.2,0-2.1,0.9-2.1,2.1v39.3c0,0.7-1,1-1.4,0.4l-22.6-40.7c-0.4-0.7-1.1-1.1-1.8-1.1h-8.9
		c-1.2,0-2.1,0.9-2.1,2.1v66.4c0,1.2,0.9,2.1,2.1,2.1h8.1c1.2,0,2.1-0.9,2.1-2.1v-39.9c0-0.7,1-1,1.3-0.4l25.7,41.4
		c0.4,0.6,1.1,1,1.8,1h5.9c1.2,0,2.1-0.9,2.1-2.1v-24.9c0-1.6,0.1-3.1,0.2-4.7c0.8-7.4,2.2-14.4,10.3-4.7c0.5,0.8,1.1,1.5,1.7,2.2
		c0,0,0.1,0.1,0.1,0.1l0,0c7.4,8.1,19.6,8.5,19.6,16.6c0,4.3-2.8,6.8-7.4,6.8c-5.8,0-8.8-2.2-16.9-8.1c-0.6-0.5-1.6,0-1.6,0.8v11.4
		c0,1.2,0.4,2.4,1.2,3.4c23,29.1-12.4,72.8,10,73.8c24.8-0.4-8.2-42.6,12.2-65.9c1.8-2.1,4-3.8,6.3-5.3c5.6-3.5,8.8-9.9,8.8-18.7
		C395.4,140.8,369.9,143.9,369.9,133.1z"/>
	<path d="M262,139l-7.6-23c-0.4-1.2-1.5-1.9-2.7-1.9h-9.1c-1.2,0-2.3,0.8-2.7,2L219.9,183c-0.3,0.9,0.4,1.8,1.3,1.8h9.6
		c1,0,2-0.7,2.3-1.6l3.2-9.2c0.3-0.9,1.1-1.4,2-1.4h18.9c1,0,2,0.6,2.3,1.6l3.5,9.4c0.3,0.8,1.1,1.3,1.9,1.3l9.9,0
		c1.1,0,1.9-1,1.7-2.1c-4.2-17.6,0.3-46.7,3.2-40c0.3,0.7,0.4,1.5,0.4,2.3c0,5.4,0,31.8,0,38.4c0,0.8,0.7,1.5,1.5,1.5h9.3
		c0.8,0,1.5-0.7,1.5-1.5v-67.7c0-0.8-0.7-1.5-1.5-1.5h-9.5c-0.7,0-1.4,0.5-1.5,1.3C278.2,129.2,265.6,150.3,262,139z M241.1,159.2
		l5.8-23.9c0.2-0.8,1.2-0.8,1.4,0l6.4,23.9c0.1,0.5-0.2,0.9-0.7,0.9h-12.2C241.3,160.2,241,159.7,241.1,159.2z"/>
</g>
</svg>
