<?xml version="1.0" encoding="utf-8"?>
<!-- Generator: Adobe Illustrator 21.1.0, SVG Export Plug-In . SVG Version: 6.00 Build 0)  -->
<!DOCTYPE svg PUBLIC "-//W3C//DTD SVG 1.1//EN" "http://www.w3.org/Graphics/SVG/1.1/DTD/svg11.dtd">
<svg version="1.1" id="Layer_1" xmlns="http://www.w3.org/2000/svg" xmlns:xlink="http://www.w3.org/1999/xlink" x="0px" y="0px"
	 viewBox="0 0 400 400" enable-background="new 0 0 400 400" xml:space="preserve">
<g>
	<path d="M132.3,231.7c-7.3,0.1-11.7-7.7-8-15.1c2.9-5.9,0.9-11-1.1-16.4c-1.8-4.7-6.4-6.2-8.5-6.8c-2-0.6-3.6-1.8-3.6-3.6
		c0-1.8,0.5-33.4,0.8-50c0-2.4,0-4.8,0-7.2c0-1.7,0.6-2.5,2.4-2.5c15.6-0.1,31.3-0.3,46.9-0.4c2.3,0,3.2-0.7,3.2-3.1
		c0,0-0.1-2.2-0.1-18.1c0-16,0.5-28.3,2.4-42.4C168.3,52,175,39.8,185.4,30c13.2-12.4,29.1-18.4,47.1-20.4
		c17.7-1.9,35.2-0.5,52.7,1.3c2.6,0.3,3.9,1.5,3.8,4.2c-0.2,16.5-0.3,33-0.7,49.5c0,1.3-0.9,3-2,3.8c-7.8,5.7-10.6,13.1-8.6,22.6
		c1.4,6.6-1.5,12.8-7.5,15.2c-2.8,1.1-5.2,1.3-7.5,0.8s-3.7-1.6-5.1-4.3s-2.2-8.3,1.1-11.2s4.8-4.3,5.5-7.6c0.7-3.2-0.3-4.8-2.5-7.5
		c-2.2-2.7-6-5.2-9.4-5.9c-3.5-0.8-6.8-0.9-9.5-0.5c-6.7,1-12.7,5.6-14.6,12.4c-2.6,9.7-1.7,19.5-1.5,29.2c0.1,5.4,0.8,10.8,1,16.2
		c0.1,3.1,1.6,3.6,4.3,3.5c15.8-0.4,31.6-0.7,47.4-1.1c0.8,0,1.5,0,2.3,0c3.2,0.1,4.3,1.1,4,4.3c-0.5,5-1.2,9.9-1.8,14.8
		c-1.2,9.5-2.5,19.1-3.7,28.6c-0.6,4.9-1.1,9.9-1.7,14.8c-0.1,0.6-0.5,1.3-1,1.6c-7.6,4.6-11.3,13.6-8.9,21.9
		c0.4,1.4,1.4,2.6,1.8,3.9c1.7,6.8-1.2,10.1-3.1,11.4s-3.5,2-6.4,2.1c-2.9,0.1-5.7-2.2-7-4.2c-2.4-3.5-3.3-8.3-1.7-12.1
		c0.2-0.5,0.4-0.9,0.7-1.4c1.4-2.9,3.1-5.5,1.7-9.2c-2.1-5.5-5.1-10.3-10.7-12.1c-3.2-1.1-6.9-0.7-10.5-0.7c-6.2,0-5.8-0.3-5.7,6
		c0.2,20.5,0.4,41.1,0.6,61.6c0.2,20.3,0.4,40.6,0.6,60.9c0.1,6.7,0.2,13.4,0.4,20.1c0.1,2.5-0.8,3.4-3.2,4.6
		c-3,1.6-5.8,4.4-7.7,7.3c-2.9,4.3-5.3,9.2-4.6,14.7c0.4,3,1.8,5.8,2.4,8.8c0.9,4.3-0.3,8.1-3.8,10.8c-3.2,2.3-6.6,3.1-10.6,1.8
		c-6-1.9-7.5-6.4-8.4-12.1c-0.8-5.6,1.1-10.5,2.7-15.5c1.1-3.7-1.2-9.2-2.1-10.7c-0.9-1.5-4.8-7.7-13.1-7.8
		c-8.3-0.1-9.6-0.1-14.4-0.1c-1.6,0-2.7-0.5-2.7-2.3c-0.1-12.1-0.1-24.2-0.2-36.4c-0.2-32.8-0.4-65.5-0.6-98.3
		c0-3.8-0.1-7.6-0.4-11.3c-0.1-0.9-1.2-2.3-1.8-2.3c-5.7-0.1-11.3,0.8-16,4.4c-4.2,3.2-5.1,6.6-2.6,11.4c3.2,6,3.6,12.5,1.1,16.7
		C140.8,230.4,139.5,231.6,132.3,231.7z"/>
</g>
</svg>
