<?xml version="1.0" encoding="UTF-8" standalone="no"?>
<svg
   xmlns:dc="http://purl.org/dc/elements/1.1/"
   xmlns:cc="http://creativecommons.org/ns#"
   xmlns:rdf="http://www.w3.org/1999/02/22-rdf-syntax-ns#"
   xmlns:svg="http://www.w3.org/2000/svg"
   xmlns="http://www.w3.org/2000/svg"
   viewBox="0 0 682.66669 682.66669"
   height="682.66669"
   width="682.66669"
   xml:space="preserve"
   id="svg2"
   version="1.1"><metadata
     id="metadata8"><rdf:RDF><cc:Work
         rdf:about=""><dc:format>image/svg+xml</dc:format><dc:type
           rdf:resource="http://purl.org/dc/dcmitype/StillImage" /></cc:Work></rdf:RDF></metadata><defs
     id="defs6"><clipPath
       id="clipPath18"
       clipPathUnits="userSpaceOnUse"><path
         id="path16"
         d="M 0,512 H 512 V 0 H 0 Z" /></clipPath></defs><g
     transform="matrix(1.3333333,0,0,-1.3333333,0,682.66667)"
     id="g10"><g
       id="g12"><g
         clip-path="url(#clipPath18)"
         id="g14"><g
           transform="translate(132.04,319.77)"
           id="g20"><path
             id="path22"
             style="fill:#000000;fill-opacity:1;fill-rule:nonzero;stroke:none"
             d="M 0,0 C 0.183,-0.6 1.053,-0.536 1.146,0.084 L 1.79,4.382 C 1.909,5.176 1.294,5.89 0.491,5.89 h -0.808 c -0.736,0 -1.263,-0.712 -1.048,-1.417 z m -38.203,-63.481 c 1.73,-0.804 3.683,0.641 3.375,2.523 -0.261,1.598 -0.879,3.081 -1.241,4.593 -0.478,2.003 -1.705,2.518 -4.273,2.29 -2.045,-0.181 -2.712,-1.479 -2.467,-3.144 0.198,-1.342 0.726,-2.791 1.55,-3.85 0.823,-1.06 1.848,-1.851 3.056,-2.412 M 185.659,3.025 c 0.864,-3.034 1.688,-5.922 2.488,-8.735 0.61,-2.137 2.953,-3.353 4.998,-2.481 1.619,0.69 2.844,1.934 3.775,3.634 1.753,3.201 -0.042,7.547 -2.305,9.616 -1.973,1.804 -4.305,1.551 -6.833,1.209 -1.546,-0.209 -2.551,-1.743 -2.123,-3.243 M 104.46,-1.281 c -2.555,-7.194 -5.9,-20.016 -7.074,-26.651 -0.311,-1.757 1.65,-3.012 3.129,-2.012 9.762,6.603 12.793,18.867 6.398,28.924 -0.616,0.969 -2.069,0.821 -2.453,-0.261 m 47.35,-28.825 c -2.887,10.714 -5.7,21.153 -8.58,31.843 -0.296,1.101 -1.737,1.498 -2.469,0.624 -0.005,-0.005 -0.009,-0.01 -0.013,-0.015 -7.455,-9.048 -7.503,-24.801 -0.072,-33.737 0.625,-0.751 1.583,-1.647 2.438,-1.706 2.072,-0.141 4.154,-0.127 6.353,-0.104 1.602,0.017 2.759,1.548 2.343,3.095 m 97.263,33.59 c 0.323,1.444 -0.777,2.823 -2.258,2.824 -3.72,0.003 -7.002,0.008 -10.284,-0.005 -3.578,-0.015 -4.169,-0.419 -4.765,-3.832 -1.943,-11.115 0.912,-21.053 7.581,-29.998 0.846,-1.124 2.622,-0.735 2.929,0.638 2.294,10.251 4.495,20.09 6.797,30.373 m 42.433,-35.201 c 0.51,-0.288 1.099,-0.423 1.678,-0.337 0.639,0.096 1.253,0.231 1.845,0.404 3.744,1.091 6.576,3.658 8.945,6.855 3.622,4.889 5.257,10.568 5.42,16.547 0.111,4.15 -0.897,8.194 -3.339,11.74 -0.797,1.156 -1.701,1.984 -2.791,2.404 -1.884,0.727 -3.97,-0.511 -4.452,-2.472 C 296,-8.001 293.4,-18.569 290.65,-29.744 c -0.01,-0.047 -0.021,-0.093 -0.03,-0.139 -0.137,-0.733 0.237,-1.469 0.886,-1.834 M 59.854,6.254 C 59.276,6.296 58.746,6.311 58.181,6.274 52.96,5.938 47.719,5.8 42.514,6.327 38.767,6.706 36.556,5.228 34.678,2.521 c -2.71,-3.906 -4.231,-8.271 -4.989,-12.888 -1.147,-6.989 -1.203,-13.991 0.831,-20.848 0.25,-0.842 1.502,-1.95 2.316,-1.972 5.099,-0.132 10.202,-0.109 15.596,-0.096 2.241,0.006 4.208,1.511 4.794,3.675 2.92,10.793 5.836,21.565 8.857,32.727 0.409,1.512 -0.667,3.022 -2.229,3.135 M 28.083,-113.189 c 2.756,1.216 3.233,2.127 4.663,7.08 1.829,6.331 3.409,12.734 5.093,19.107 2.08,7.868 4.267,15.71 6.2,23.615 1.35,5.518 -1.44,8.937 -7.196,9.128 -3.2,0.106 -5.577,0.094 -10.467,0.094 -4.89,0 -7.072,-1.577 -10.305,-4.37 -2.261,-1.955 -2.602,-4.156 -1.902,-6.949 1.802,-7.192 3.453,-14.424 5.077,-21.659 1.536,-6.843 2.859,-13.733 4.49,-20.553 0.55,-2.299 1.801,-4.405 4.347,-5.493 m 191.281,58.96 v -0.038 c -3.204,0 -6.408,-0.016 -9.612,0.006 -1.862,0.014 -4.071,-1.656 -4.874,-3.283 -1.455,-2.95 -1.304,-5.244 -0.508,-8.5 1.298,-5.307 2.692,-10.59 4.12,-15.864 1.751,-6.458 3.55,-12.904 5.384,-19.34 1.215,-4.261 2.438,-8.526 3.878,-12.713 0.283,-0.827 1.599,-1.838 2.395,-1.803 0.871,0.04 1.295,0.712 2.07,1.451 0.25,0.238 0.651,1.218 0.74,1.621 1.064,4.834 2.098,9.675 3.197,14.501 2.015,8.841 4.076,17.671 6.103,26.508 0.691,3.012 1.459,6.012 1.977,9.054 0.973,5.715 -1.27,8.304 -7.118,8.394 -2.583,0.039 -5.168,0.006 -7.752,0.006 M -80.655,6.045 c -2.143,0 -3.854,-1.776 -3.797,-3.919 0.113,-4.249 0.717,-8.213 2.003,-12.086 2.254,-6.784 5.984,-12.458 12.511,-15.893 8.085,-4.254 16.904,-5.114 25.816,-5.495 0.1,-0.005 0.2,0.02 0.311,0.065 0.695,0.286 1.052,1.07 0.9,1.806 -2.26,10.937 -5.211,21.694 -7.845,32.472 -0.437,1.789 -2.033,3.05 -3.874,3.05 z M 72.832,43.333 c 3.007,9.586 2.878,10.752 4.339,16.125 1.704,6.271 3.254,12.589 5.121,18.812 2.755,9.176 5.275,18.464 8.748,27.373 3.275,8.402 9.173,15.06 17.776,18.469 8.234,3.263 16.77,3.979 25.527,1.704 12.966,-3.369 20.053,-12.355 23.918,-24.469 2.85,-8.935 5.554,-17.92 8.158,-26.931 1.659,-5.746 3.25,-11.53 4.457,-17.383 2.247,-10.906 3.921,-19.115 12.409,-26.387 1.995,-1.709 7.435,-3.597 10.088,-3.587 14.431,0.054 28.861,-0.028 43.291,0.097 2.001,0.017 3.98,0.53 5.692,1.564 9.798,5.919 15.786,14.545 18.119,25.813 1.483,7.166 3.436,14.234 5.047,21.375 1.57,6.948 2.791,13.98 4.501,20.892 1.581,6.388 3.047,12.853 6.344,18.68 5.989,10.587 17.022,13.558 27.434,10.465 6.756,-2.006 12.048,-5.928 15.112,-12.352 1.085,-2.275 1.874,-4.878 2.021,-7.377 0.4,-6.837 -0.386,-13.577 -2.159,-20.253 -1.772,-6.673 -2.963,-13.5 -4.563,-20.222 -1.575,-6.616 -3.389,-13.177 -5.018,-19.781 -1.175,-4.768 -2.284,-9.553 -3.46,-14.583 -0.502,-2.144 1.089,-4.234 3.291,-4.278 0.079,-0.001 0.158,-0.002 0.237,-0.002 15.931,-0.027 31.864,0.03 47.795,-0.075 2.208,-0.015 4.599,-0.375 6.574,-1.291 3.824,-1.773 6.278,-6.215 5.623,-9.861 -0.775,-4.306 -2.729,-7.938 -7.551,-8.723 -3.132,-0.509 -6.347,-0.865 -9.506,-0.76 -3.165,0.106 -5.273,-1.043 -6.996,-3.578 -5.152,-7.583 -8.147,-15.824 -7.379,-25.072 0.235,-2.82 1.296,-5.597 2.18,-8.328 0.644,-1.991 2.207,-2.786 4.351,-2.752 4.757,0.076 9.518,0.07 14.275,-0.023 4.821,-0.093 8.226,-2.333 10.001,-6.926 2.047,-5.297 -1.09,-11.722 -6.674,-12.854 -3.403,-0.691 -6.963,-0.899 -10.443,-0.837 -3.706,0.066 -5.932,-1.452 -7.528,-4.704 -3.342,-6.809 -3.246,-13.812 -1.343,-20.86 1.668,-6.179 4.059,-12.174 5.527,-18.393 3.755,-15.908 -6.45,-30.084 -23.033,-29.444 -12.631,0.487 -21.137,9.562 -22.306,21.706 -0.821,8.541 0.947,16.891 2.104,25.28 0.712,5.162 0.88,10.271 -0.508,15.383 -1.668,6.138 -7.43,10.76 -12.989,10.597 -1.098,-0.032 -2.196,-0.036 -3.32,-0.031 -2.128,0.01 -3.988,-1.445 -4.489,-3.512 -0.292,-1.206 -0.579,-2.379 -0.876,-3.55 -1.748,-6.897 -3.553,-13.779 -5.257,-20.686 -1.532,-6.209 -2.915,-12.455 -4.448,-18.664 -1.632,-6.608 -3.407,-13.181 -5.036,-19.789 -1.605,-6.509 -2.949,-13.085 -4.684,-19.558 -2.481,-9.259 -5.482,-18.386 -7.749,-27.695 -1.711,-7.026 -5.324,-12.916 -9.312,-18.712 -6.769,-9.835 -7.655,-20.432 -4.312,-31.685 2.052,-6.906 3.818,-13.891 2.126,-21.303 -2.159,-9.462 -11.163,-15.819 -20.842,-15.111 -10.133,0.742 -16.979,7.331 -18.555,17.474 -1.009,6.489 0.133,12.797 1.009,19.122 1.352,9.761 0.555,19.228 -3.554,28.212 -1.175,2.568 -3.217,4.777 -5.041,7.002 -3.413,4.162 -5.408,8.983 -6.961,14.05 -2.658,8.674 -5.446,17.31 -7.995,26.015 -1.681,5.741 -2.99,11.59 -4.553,17.368 -2.532,9.349 -5.168,18.672 -7.698,28.021 -1.618,5.978 -3.097,11.992 -4.692,17.976 -1.513,5.675 -3.077,11.337 -4.676,16.988 -10e-4,0.007 -0.003,0.015 -0.005,0.023 -0.409,1.395 -2.098,1.962 -3.353,1.229 -9.084,-5.302 -16.306,-11.891 -18.517,-22.804 -0.933,-4.604 0.787,-9.004 1.258,-13.504 0.505,-4.807 1.066,-9.689 0.746,-14.482 -0.463,-6.969 -6.481,-12.722 -13.477,-14.495 -7.613,-1.931 -15.801,1.381 -19.225,7.32 -2.789,4.838 -3.452,10.103 -2.818,15.59 0.747,6.461 1.688,12.911 2.115,19.395 0.403,6.13 -1.968,11.542 -5.634,16.369 -2.458,3.235 -5.672,5.431 -9.676,6.292 -3.024,0.65 -3.96,0.087 -4.791,-2.822 -0.992,-3.467 -1.854,-6.971 -2.815,-10.448 -2.639,-9.539 -5.322,-19.065 -7.944,-28.608 -1.503,-5.469 -2.909,-10.964 -4.382,-16.441 -1.58,-5.874 -3.161,-11.748 -4.792,-17.608 -1.659,-5.963 -3.217,-11.963 -5.116,-17.851 -2.525,-7.832 -4.179,-16.024 -8.411,-23.201 -3.93,-6.666 -9.256,-12.088 -16.888,-14.257 -5.337,-1.516 -10.89,-2.426 -16.546,-1.371 -3.944,0.737 -7.928,1.019 -11.577,3.106 -5.521,3.157 -9.226,7.785 -12.124,13.286 -4.665,8.856 -6.921,18.493 -9.355,28.083 -2.231,8.788 -4.543,17.556 -6.77,26.345 -0.197,0.779 -0.336,1.57 -0.487,2.359 -1.129,5.87 -4.709,10.368 -8.264,14.817 -18.904,23.66 -42.375,41.033 -71.084,50.992 -2.936,1.019 -6.354,0.566 -9.491,1.119 -2.696,0.475 -5.532,0.992 -7.911,2.243 -3.977,2.089 -5.493,7.385 -3.791,11.547 0.506,1.237 1.243,2.377 1.794,3.597 0.844,1.869 1.983,3.698 2.364,5.667 1.835,9.502 2.217,19.086 0.967,28.708 -0.16,1.23 -0.43,2.452 -0.513,3.687 -0.226,3.371 -1.179,6.39 -3.23,9.187 -4.982,6.793 -0.68,13.473 4.169,15.495 1.835,0.765 4.014,0.963 6.039,0.972 15.828,0.076 31.657,0.037 47.485,0.053 1.322,10e-4 2.645,0.14 4.574,0.25 -0.537,2.55 -0.962,4.808 -1.491,7.041 -1.713,7.227 -3.422,14.455 -5.216,21.662 -1.493,6 -3.239,11.94 -4.63,17.963 -2.113,9.15 -4.41,18.283 -4.903,27.723 -0.537,10.27 3.945,17.83 12.927,22.487 7.807,4.049 15.952,3.879 23.924,0.261 4.661,-2.116 6.861,-6.397 8.647,-10.884 3.175,-7.975 5.514,-16.181 7.25,-24.6 2.061,-9.994 4.545,-19.901 6.801,-29.855 1.845,-8.148 3.634,-16.309 5.43,-24.468 0.759,-3.448 4.06,-6.716 7.63,-7.306 1.521,-0.252 3.09,-0.283 4.637,-0.284 16.449,-0.019 38.885,-0.145 49.347,-0.059 10.463,0.086 16.426,6.714 19.434,16.299" /></g></g></g></g></svg>