<?xml version="1.0" encoding="utf-8"?>
<!-- Generator: Adobe Illustrator 23.0.1, SVG Export Plug-In . SVG Version: 6.00 Build 0)  -->
<svg version="1.1"
	 id="svg4" xmlns:cc="http://creativecommons.org/ns#" xmlns:dc="http://purl.org/dc/elements/1.1/" xmlns:inkscape="http://www.inkscape.org/namespaces/inkscape" xmlns:rdf="http://www.w3.org/1999/02/22-rdf-syntax-ns#" xmlns:sodipodi="http://sodipodi.sourceforge.net/DTD/sodipodi-0.dtd" xmlns:svg="http://www.w3.org/2000/svg"
	 xmlns="http://www.w3.org/2000/svg" xmlns:xlink="http://www.w3.org/1999/xlink" x="0px" y="0px" viewBox="0 0 400 400"
	 style="enable-background:new 0 0 400 400;" xml:space="preserve">
<sodipodi:namedview  bordercolor="#666666" borderopacity="1" gridtolerance="10" guidetolerance="10" id="namedview6" inkscape:current-layer="svg4" inkscape:cx="-183.41177" inkscape:cy="74.342287" inkscape:pageopacity="0" inkscape:pageshadow="2" inkscape:window-height="705" inkscape:window-maximized="1" inkscape:window-width="1366" inkscape:window-x="-8" inkscape:window-y="245" inkscape:zoom="1" objecttolerance="10" pagecolor="#ffffff" showgrid="false">
	</sodipodi:namedview>
<path d="M382.8,70.5c-16.4,0-23.4-0.1-39.8,0c-5.5,0.1-11,0.4-16.4,1.3c-13.8,2.1-25.5,8.1-33.8,19.7c-5.3,7.3-8.2,15.7-10.9,24.1
	c-7,22.1-14,44.2-21.2,66.2c-1,3.3-2.6,7-4,10.3c-0.3,0.7-1.3,0.7-1.5,0c-0.1-0.3-0.2-0.6-0.3-0.9c-2.5-9.4-5.1-18.9-7.4-28.3
	c-4.1-16.6-7.7-33.3-13.4-49.4c-2.9-8-6.3-15.7-11-22.8c-7.7-11.4-17.9-17.3-32-17.1c-26.3,0.4-52.7,0.1-79.1,0.1
	c-1.2,0-2.5,0.1-3.7,0.2c-7.4,0.8-14,4-20.1,8C76,90,66.3,100.5,57.5,111.9c-12.9,16.7-23.1,35-31.8,54.1
	c-8.4,18.6-15.1,37.8-20.5,57.5c-0.8,2.9-0.6,3.1,2.3,3.1c12.4-0.1,24.8-0.1,37.1-0.4c8.3-0.2,16.4-2.1,23.9-5.8
	c4.6-2.2,8.6-5,12.1-8.3l0,0c0-0.1,0.1-0.1,0.2-0.2c2.3-2.2,4.3-4.5,6.1-7.1c18.9-21.2,50-51,67.9-34.5c2.6,2.4,4.4,5.4,5.5,8.7
	c1,2.9,2,5.7,3.1,8.6c3.9,9.9,8.6,19.4,16.6,26.8c5.6,5.2,12.1,8.1,19.8,8.1c17.5,0,35,0,52.5,0c69.7,2.7,5.4,101.5,44.2,107
	c33,1.6,10.5-44.4,12.3-92c0.7-19,7.2-37.5,18.4-52.8c5.5-7.5,10.6-15.3,15.4-23.2c11.2-18.5,22.1-37.2,33-55.9
	c5.9-10.1,12.4-22.6,18.2-33.1c0.5-0.8-0.1-1.9-1.1-1.9C389.6,70.6,383.5,70.5,382.8,70.5z M108.9,148.7c-0.6-1.2-0.6-2.5-0.2-3.8
	c0.7-2.6,1.5-5.1,2.9-7.2c7.9-11.7,16.7-22.7,26.8-32.6l0.4-0.4c0.7-0.7,1.9-0.3,2.2,0.6l0,0c0.6,2.2,1.2,4.4,1.8,6.6
	c0.3,1.1,0.4,2.2,0.3,3.4C140.7,134.5,113.5,158.2,108.9,148.7z"/>
</svg>
