<?xml version="1.0" encoding="utf-8"?>
<!-- Generator: Adobe Illustrator 23.0.1, SVG Export Plug-In . SVG Version: 6.00 Build 0)  -->
<svg version="1.1"
	 id="svg4" xmlns:cc="http://creativecommons.org/ns#" xmlns:dc="http://purl.org/dc/elements/1.1/" xmlns:inkscape="http://www.inkscape.org/namespaces/inkscape" xmlns:rdf="http://www.w3.org/1999/02/22-rdf-syntax-ns#" xmlns:sodipodi="http://sodipodi.sourceforge.net/DTD/sodipodi-0.dtd" xmlns:svg="http://www.w3.org/2000/svg"
	 xmlns="http://www.w3.org/2000/svg" xmlns:xlink="http://www.w3.org/1999/xlink" x="0px" y="0px" viewBox="0 0 400 400"
	 style="enable-background:new 0 0 400 400;" xml:space="preserve">
<style type="text/css">
	.st0{fill:#080000;}
</style>
<sodipodi:namedview  bordercolor="#666666" borderopacity="1" fit-margin-bottom="50" fit-margin-left="0" fit-margin-right="0" fit-margin-top="0" gridtolerance="10" guidetolerance="10" id="namedview6" inkscape:current-layer="svg4" inkscape:cx="-81.358046" inkscape:cy="103.49992" inkscape:pageopacity="0" inkscape:pageshadow="2" inkscape:window-height="705" inkscape:window-maximized="1" inkscape:window-width="1366" inkscape:window-x="-8" inkscape:window-y="245" inkscape:zoom="0.921875" objecttolerance="10" pagecolor="#ffffff" showgrid="false">
	</sodipodi:namedview>
<path class="st0" d="M236.7,261c-11.1-0.5-21.9-3.5-31.5-9c-47.4-27.1-18.6-52.9,18.7-51.4c2.5,0.1,5.1,0.4,7.6,0.8
	c79.5,11.8,109.5-35.8,118-54.3c0.5-1.1-1-2-1.7-1.1c-1.5,1.8-3.1,3.5-4.7,5.1c-4,4-8.9,7-14.4,8.4c-25.6,6.2-7.5-34.6,5.8-59.1
	c1.4-2.5,2.8-5,4.3-7.3c0.2-0.3,0.4-0.7,0.6-1c0.7-1.1-0.8-2.2-1.6-1.3l-1.4,1.4c-2.1,2.3-3.2,3-5.9,4.6
	c-14.5,8.8-28.4,9.2-49.1,4.2c-2.2-0.5-4.5-1.3-6.6-2c-2.7-0.9-5.3-2-7.8-3.3c-4.8-2.3-9.5-5.1-13.7-8.4
	c-21.9-16.7-36.4-46.9-27.5-73.7c0.4-1.1-1.1-1.9-1.8-0.9l-2.9,4c-11.5,16.9-12.6,37.9-4.6,56.6c6.7,15.7,18.8,28.7,33.6,37.1
	c7.9,4.5,15.2,9.9,21.4,16.5c21.6,23.2,19,46.1-20.7,45.1c-10.9-0.8-21.5-3.8-31.2-9c-5.7-3.1-12.3-7.3-19-12.7
	c-20.2-16.4-34-35.4-41.1-58.6c-6.2-20-6.2-42.1,1.5-61.5c0.5-1.1-1.1-2-1.8-1l-8.5,12c-15.9,22.8-18.1,52-10.2,78.1
	c1.3,4.3,2.5,8.6,3.4,12.9c9.8,48.5,7,97.7-19.5,79.3c-2.2-1.5-4.1-3.3-5.8-5.3c-4.1-4.9-13.1-15.4-13.9-16.6
	c-28-38.2-39.1-90-20.5-134.2c0.5-1.1-1-2-1.8-1L67,73.6c-27,38.8-24.4,88.7-3,130.4c21.4,41.7,83.9,83,112.6,90.6
	c28.7,7.6,44.6,4.5,62.6,1.8c10.6-1.6,20.3-4.1,29-7.4c1.8-0.7,3.6-1.3,5.5-1.8c79.9-22.5-6.4,105.8,40.6,108.1
	c34.6-0.9,18.4-46.6,16.6-100.6c-0.8-23.4-2.7-37.9,7.1-61.4c1.1-2.3,3.1-7.2,4.6-11.1c0.4-1.1-1-1.9-1.8-1.1
	C315.6,250.4,276.9,262.6,236.7,261z"/>
</svg>
