<?xml version="1.0" encoding="utf-8"?>
<!-- Generator: Adobe Illustrator 23.0.6, SVG Export Plug-In . SVG Version: 6.00 Build 0)  -->
<svg version="1.1"
	 id="svg4" xmlns:cc="http://creativecommons.org/ns#" xmlns:dc="http://purl.org/dc/elements/1.1/" xmlns:inkscape="http://www.inkscape.org/namespaces/inkscape" xmlns:rdf="http://www.w3.org/1999/02/22-rdf-syntax-ns#" xmlns:sodipodi="http://sodipodi.sourceforge.net/DTD/sodipodi-0.dtd" xmlns:svg="http://www.w3.org/2000/svg"
	 xmlns="http://www.w3.org/2000/svg" xmlns:xlink="http://www.w3.org/1999/xlink" x="0px" y="0px" viewBox="0 0 400 400"
	 style="enable-background:new 0 0 400 400;" xml:space="preserve">
<style type="text/css">
	.st0{fill:#080000;}
</style>
<path class="st0" d="M234.7,238.1c-10.1-0.4-19.9-3.2-28.7-8.2c-43.2-24.7-17-48.1,17.1-46.7c2.3,0.1,4.6,0.4,6.9,0.7
	c72.3,10.8,99.6-32.6,107.4-49.4c0.5-1-0.9-1.9-1.6-1c-1.4,1.6-2.8,3.2-4.3,4.6c-3.6,3.6-8.1,6.4-13.1,7.6
	c-23.3,5.7-6.9-31.5,5.3-53.8c1.2-2.3,2.5-4.5,4-6.7c0.2-0.3,0.4-0.6,0.6-0.9c0.6-1-0.7-2-1.5-1.2l-1.2,1.3
	c-1.9,2.1-2.9,2.7-5.3,4.1c-13.2,8-25.8,8.4-44.6,3.8c-2-0.5-4.1-1.2-6-1.9c-2.4-0.9-4.8-1.8-7.1-3c-4.4-2.1-8.6-4.7-12.5-7.6
	c-20-15.2-33.1-42.7-25-67.1c0.3-1-1-1.7-1.7-0.9l-2.7,3.7c-10.5,15.4-11.5,34.5-4.2,51.5c6.1,14.3,17.1,26.1,30.6,33.7
	c7.2,4.1,13.9,9,19.5,15c19.6,21.1,17.3,41.9-18.8,41c-9.9-0.7-19.6-3.5-28.3-8.2c-5.2-2.8-11.1-6.6-17.3-11.6
	c-18.4-15-30.9-32.2-37.4-53.3c-5.7-18.2-5.6-38.3,1.4-56c0.4-1-1-1.8-1.7-0.9l-7.8,11c-14.4,20.8-16.5,47.3-9.3,71
	c1.2,3.9,2.3,7.8,3.1,11.8c8.9,44.1,6.4,88.9-17.8,72.1c-2-1.4-3.7-3-5.2-4.9c-3.7-4.4-11.9-14-12.7-15.1
	C89.2,138.2,79.1,91,96.1,50.8c0.4-1-0.9-1.8-1.6-1L80.4,67.7c-24.5,35.3-22.2,80.7-2.7,118.7c19.4,37.9,76.4,75.5,102.5,82.4
	c26.1,6.9,40.6,4.1,57,1.6c9.7-1.4,18.4-3.8,26.4-6.7c1.6-0.6,3.3-1.2,5-1.7c72.7-20.5-5.9,96.3,37,98.4
	c31.4-0.8,16.8-42.4,15.1-91.5c-0.7-21.3-2.5-34.5,6.5-55.9c1-2.1,2.8-6.5,4.2-10.1c0.4-1-0.9-1.8-1.6-1
	C306.5,228.5,271.3,239.7,234.7,238.1z"/>
</svg>
