<?xml version="1.0" encoding="utf-8"?>
<!-- Generator: Adobe Illustrator 23.0.1, SVG Export Plug-In . SVG Version: 6.00 Build 0)  -->
<svg version="1.1"
	 id="svg8" xmlns:cc="http://creativecommons.org/ns#" xmlns:dc="http://purl.org/dc/elements/1.1/" xmlns:inkscape="http://www.inkscape.org/namespaces/inkscape" xmlns:rdf="http://www.w3.org/1999/02/22-rdf-syntax-ns#" xmlns:sodipodi="http://sodipodi.sourceforge.net/DTD/sodipodi-0.dtd" xmlns:svg="http://www.w3.org/2000/svg"
	 xmlns="http://www.w3.org/2000/svg" xmlns:xlink="http://www.w3.org/1999/xlink" x="0px" y="0px" viewBox="0 0 400 400"
	 style="enable-background:new 0 0 400 400;" xml:space="preserve">
<sodipodi:namedview  bordercolor="#666666" borderopacity="1" fit-margin-bottom="20" fit-margin-left="0" fit-margin-right="0" fit-margin-top="0" gridtolerance="10" guidetolerance="10" id="namedview10" inkscape:current-layer="svg8" inkscape:cx="-0.60901177" inkscape:cy="18.20699" inkscape:pageopacity="0" inkscape:pageshadow="2" inkscape:window-height="705" inkscape:window-maximized="1" inkscape:window-width="1366" inkscape:window-x="-8" inkscape:window-y="245" inkscape:zoom="22.627417" objecttolerance="10" pagecolor="#ffffff" showgrid="false">
	</sodipodi:namedview>
<g id="Layer_1">
</g>
<g>
	<path d="M58.9,14.6v251.3c0,7.3,3.3,14.2,9.3,18.4c39.8,28.2-14.4,107.4,16.4,111.1c35.8-2.3-17.6-95.3,20.6-113.7
		c3.4-1.6,7.2-2.4,11-2.4h214.9c5.5,0,10-4.5,10-10V14.6c0-5.5-4.5-10-10-10H68.9C63.4,4.6,58.9,9.1,58.9,14.6z M319.3,268.1H80.7
		c-5.5,0-10-4.5-10-10V26.4c0-5.5,4.5-10,10-10h238.6c5.5,0,10,4.5,10,10v231.7C329.3,263.7,324.8,268.1,319.3,268.1z"/>
	<path d="M112.2,196.5h13.2c2.1,0,4.3-0.6,6.1-1.6c29.2-17,42.6-21,48.9-12.9c0.9,1.2,1.5,2.5,1.9,3.9c0.9,3.1,2.6,9.2,2.6,9.2
		c0.3,1.2,1.5,2.1,2.8,2.1h16.8c1.9,0,3.3-1.8,2.8-3.7L171.1,71.1c-0.5-1.8-2.1-3-4-3h-19.4c-1.9,0-3.5,1.2-4,3l-34.3,121.7
		C108.9,194.7,110.3,196.5,112.2,196.5z M145.9,137.4c2.2-7.8,4.3-16.5,6.5-25.7c2.1-8.7,3.7-16.2,4.9-22.4c0.2-0.8,1.3-0.8,1.5,0
		c1.4,6.4,3.5,14.5,6.1,24.3c2.6,9.9,4.3,17.6,5.9,23.8c0.5,1.8-0.9,3.6-2.8,3.6h-19.3C146.8,141,145.4,139.3,145.9,137.4z
		 M136.3,169l1.4-4.8c0.5-1.9,2.3-3.2,4.3-3.2h29.8c1.9,0,3.1,2.2,2,3.8C165.9,176.6,134,186.7,136.3,169z"/>
	<path d="M232.6,244.7c14.5,0.1-5.5-41.7,13.7-45.7c1-0.2,2-0.2,3.1-0.1c0.9,0.1,1.8,0.1,2.7,0.1c6.9,0,16.9,0,22.5-1.9
		c4.1-1.4,7.4-2.6,11-4.6c2.4-1.4,3.9-3.9,3.9-6.7l0-81.8c0-1.6-1.3-2.9-2.9-2.9h-16c-1.6,0-2.9,1.3-2.9,2.9l0,26.9
		c0,1.3-0.1,2.6-0.5,3.8c-4.4,15-26.1-13.9-28-31c-0.2-1.5-1.4-2.6-2.9-2.6h-15.6c-1.6,0-2.9,1.3-2.9,2.9v60.7c0,10.1,2,17.9,5.9,23
		C241.3,214.2,218.3,242.9,232.6,244.7z M238.9,146.3c0-1.5,0.4-3.1,1.2-4.4c6.5-10,24.5,14.3,27.1,32.5c0.3,2-1.1,4-3.1,4.4
		c-0.9,0.2-1.6,0.3-1.6,0.3c-2.7,0.4-4.4,0.6-6.9,0.6c-6.2,0-10.6-1.2-13.1-4.4c-2.5-3.1-3.7-7.5-3.7-13.1V146.3z"/>
</g>
</svg>
