<?xml version="1.0" encoding="utf-8"?>
<!-- Generator: Adobe Illustrator 23.0.1, SVG Export Plug-In . SVG Version: 6.00 Build 0)  -->
<svg version="1.1"
	 id="svg8" xmlns:cc="http://creativecommons.org/ns#" xmlns:dc="http://purl.org/dc/elements/1.1/" xmlns:inkscape="http://www.inkscape.org/namespaces/inkscape" xmlns:rdf="http://www.w3.org/1999/02/22-rdf-syntax-ns#" xmlns:sodipodi="http://sodipodi.sourceforge.net/DTD/sodipodi-0.dtd" xmlns:svg="http://www.w3.org/2000/svg"
	 xmlns="http://www.w3.org/2000/svg" xmlns:xlink="http://www.w3.org/1999/xlink" x="0px" y="0px" viewBox="0 0 400 400"
	 style="enable-background:new 0 0 400 400;" xml:space="preserve">
<sodipodi:namedview  bordercolor="#666666" borderopacity="1" fit-margin-bottom="20" fit-margin-left="0" fit-margin-right="0" fit-margin-top="0" gridtolerance="10" guidetolerance="10" id="namedview10" inkscape:current-layer="svg8" inkscape:cx="-8.0730369" inkscape:cy="41.336669" inkscape:pageopacity="0" inkscape:pageshadow="2" inkscape:window-height="705" inkscape:window-maximized="1" inkscape:window-width="1366" inkscape:window-x="-8" inkscape:window-y="245" inkscape:zoom="8" objecttolerance="10" pagecolor="#ffffff" showgrid="false">
	</sodipodi:namedview>
<g id="Layer_1">
</g>
<g>
	<path d="M252.8,93.5c1.8-2.3,4.6-3.6,7.5-3.6h2.3l3,0c0.8,0,1.4-0.6,1.4-1.4l0-14.8c0-0.6,0-1.1,0-1.7c0-0.6-0.6-0.8-1.3-0.8
		c-0.6,0-1.9,0-3.1,0c-1.2,0-2.5,0-4.4,0c-5.6,0-10.6,0.6-14.3,3.1c-3.7,2.5-6.9,5.6-9.4,10.6c-1.9,2.5-2.5,5-3.1,8.1
		s-1.2,6.2-1.2,10v3.8c0,1-0.8,1.8-1.8,1.8h-7.9c-0.8,0-1.5,0.7-1.5,1.5v16.6c0,0.3,0,0.3,0.3,0.6c6.9,6.1,9.5,18.7,10.3,32.8
		l0,36.8c0,0.9,0.7,1.6,1.6,1.6h17.5c0.9,0,1.6-0.7,1.6-1.6v-67.9c0-0.9,0.7-1.6,1.6-1.6h12.5c0.8,0,1.5-0.7,1.5-1.5l0-14.5
		c0-0.8-0.7-1.5-1.5-1.5h-12.6c-0.8,0-1.5-0.7-1.5-1.5v-4.1C250.2,99.1,250.8,96,252.8,93.5z M227.9,127.3h0.8
		c0.5,0,0.9,0.4,0.9,0.9l0,4.1c0,5-3.3-1.5-2.9-4.1C226.8,127.7,227.3,127.3,227.9,127.3z"/>
	<path d="M331.2,4.5H68.8c-5.5,0-10,4.5-10,10v254.2c0,5.8,3.5,11.1,8.8,13.4c48.5,21.1-23.6,113.3,22,113.4
		c28.9,0.3,4.4-45.2,7.4-80.7c1.7-20.1,18.7-35.4,38.8-35.4h195.4c5.5,0,10-4.5,10-10V14.5C341.2,9,336.7,4.5,331.2,4.5z
		 M329.3,258.2c0,5.5-4.5,10-10,10H80.7c-5.5,0-10-4.5-10-10V26.3c0-5.5,4.5-10,10-10h238.7c5.5,0,10,4.5,10,10V258.2z"/>
	<path d="M161.7,71.8c-5.6,0-11.2,0-16.2,0h-6.6c-3.6,0-6.6,3-6.6,6.6l0.1,114c0,3.6,3,6.6,6.6,6.6h6.8c3.5,0,6.3-2.7,6.6-6.1l0,0
		c0-0.2,0-0.3,0-0.4c0,0,0,0,0,0v0c1.2-32.3,11.1-31.5,33.9-44.2c2.7-1.3,5.4-2.9,7.8-4.7c9.4-6.9,13.7-17.5,13.7-31.8
		c0-11.2-3.7-20.6-11.2-28.1C189.1,75.6,177.9,71.8,161.7,71.8z M157,160.5c-1.8,2.9-4.7,4.8-4.7,0.7v-6.8c0-0.5,0.4-1,1-1h2.8h0.8
		c1,0,1.9,0.8,2,1.8C158.9,156.8,158.1,158.8,157,160.5z M159.5,135.4c-1.7,0-3.1,0-4.1,0h-0.9c-1.2,0-2.2-1-2.2-2.2v-5.5
		c0-0.9,0.2-1.8,0.6-2.5C156.9,117.8,171.4,135.4,159.5,135.4z M185.8,121.6c-0.7,2.1-2,3.9-3.9,5c-11.1,6.7-25.5-16.8-29.1-34
		c-0.3-1.4,0.7-2.7,2.1-2.7c0.6,0,1.2,0,1.8,0c1.9,0,3.7,0,6.2,0c8.1,0,13.7,1.9,18.1,5.6c4.4,3.7,6.2,9.4,6.2,16.2
		C187.2,115.5,186.7,118.8,185.8,121.6z"/>
</g>
</svg>
