<?xml version="1.0" encoding="utf-8"?>
<!-- Generator: Adobe Illustrator 23.0.1, SVG Export Plug-In . SVG Version: 6.00 Build 0)  -->
<svg version="1.1"
	 id="svg8" xmlns:cc="http://creativecommons.org/ns#" xmlns:dc="http://purl.org/dc/elements/1.1/" xmlns:inkscape="http://www.inkscape.org/namespaces/inkscape" xmlns:rdf="http://www.w3.org/1999/02/22-rdf-syntax-ns#" xmlns:sodipodi="http://sodipodi.sourceforge.net/DTD/sodipodi-0.dtd" xmlns:svg="http://www.w3.org/2000/svg"
	 xmlns="http://www.w3.org/2000/svg" xmlns:xlink="http://www.w3.org/1999/xlink" x="0px" y="0px" viewBox="0 0 400 400"
	 style="enable-background:new 0 0 400 400;" xml:space="preserve">
<sodipodi:namedview  bordercolor="#666666" borderopacity="1" gridtolerance="10" guidetolerance="10" id="namedview10" inkscape:current-layer="svg8" inkscape:cx="3.302622" inkscape:cy="22.964676" inkscape:pageopacity="0" inkscape:pageshadow="2" inkscape:window-height="1017" inkscape:window-maximized="1" inkscape:window-width="1920" inkscape:window-x="1358" inkscape:window-y="-8" inkscape:zoom="11.313709" objecttolerance="10" pagecolor="#ffffff" showgrid="false">
	</sodipodi:namedview>
<g id="Layer_1">
</g>
<path d="M395,266.2c0-3.7-1.8-7.3-4.6-10v0c-5.5-5.5-13.7-10-25.6-13.7c-11.9-2.7-25.6-4.6-42-4.6c-9.1,0-19.2,0-30.1,1.8
	c-8.1,0.7-16.2,1.8-24.2,3.1c-5.4,0.9-11-0.9-14.9-4.7c-4.6-4.5-9.4-9.3-13.8-14.9c-6.4-7.3-12.8-15.5-19.2-24.7
	c-4.6-6.4-9.1-11.9-12.8-18.3c-1.7-3-3.6-5.9-5.4-8.9c-3.7-6.1-4.7-13.4-2.6-20.2c4.4-14.7,8.6-28.9,11.6-43.1
	c3.7-17.4,5.5-32,5.5-45.7c0-10-2.7-21-7.3-33.8C205,16,195,9.6,180.4,9.6c-3.7,0-7.3,0.9-11,3.7c-3.7,1.8-6.4,5.5-8.2,8.2
	c-2.7,5.5-5.5,12.8-6.4,21c-0.9,8.2-0.9,18.3,0.9,28.3c0.9,11,3.7,21.9,7.3,33.8c3.7,11.9,8.2,24.7,13.7,36.5
	c-3.7,11.9-8.2,24.7-12.8,36.5c-4.6,11.9-10,25.6-15.5,38.4c-4.6,11-10,22.8-15.5,33.8c-4.4,8.7-8.7,17.5-13.6,26.2
	c-2.4,4.3-6.2,7.6-10.7,9.4c-13.6,5.5-26,11.1-36.9,17.4c-12.8,6.4-24.7,13.7-33.8,20.1c-9.1,6.4-17.4,13.7-22.8,20.1
	c-5.5,6.4-9.1,12.8-10,18.3c-0.9,3.7-0.9,7.3,0.9,11c0.9,3.7,3.7,7.3,6.4,10c1.8,1.8,4.6,3.7,9.1,5.5c3.7,1.8,9.1,2.7,14.6,2.7
	c9.1,0,19.2-2.7,28.3-9.1c9.1-6.4,19.2-14.6,28.3-24.7c9.1-10,18.3-21.9,27.4-35.6c3.6-5.4,7.1-10.7,10.4-16c1.9-3,5.5-4.6,8.9-3.6
	c19.4,5.7-16.7,77.1,12,78.8c27.1-0.6-20.6-52.9,7.6-94.8c5.5-8.2,13.8-14.1,23.3-17l16.3-4.9c10-2.7,20.1-4.6,29.2-7.3
	c6.3-1.3,13.1-2.5,19.7-3.8c5.3-1,10.8,0.4,14.9,4c19.6,16.9,38.4,27.8,54.9,32.7c6.7,2,12.9,3.7,18.6,4.9l-0.1,0c0.1,0,0.2,0,0.4,0
	c2.4,0.5,4.7,1,6.9,1.4c3.1,0.6,6.1,1.5,8.8,3.1c32.8,18.9-10.6,86.8,17.6,89.7c37.8,0.4-32.8-48.6,20.8-100.6l0.1-0.2
	c1.9-2.2,3.1-4.4,3.7-6.6C395.9,276.3,395.9,271.7,395,266.2z M44.8,370c-2.8,5.8-8.5,10-14.9,10.4c-0.4,0-0.7,0-1.1,0
	c-1.8,0-3.7,0-5.5-0.9s-3.7-1.8-4.6-2.7c-5.9-4.5-6.1-8.9-6.4-13.7c0.9-4.6,3.7-10,9.1-15.5c2.6-3.1,6.1-6.3,10.2-9.6
	c5.7-4.6,12.4-7.7,19.6-8.8C62.4,327.4,62.7,332.9,44.8,370z M105.1,303.3c-5.9,10.1-12.2,19-17.9,26.8c-3.5,5.2-7.2,10.1-10.8,14.5
	c-2.5,3.1-6.6,4.5-10.4,3.4c-11.7-3.4-2.3-27.3,24-45.3c3.4-1.5,6.9-3.1,10.6-4.6C103.9,296.9,106.8,300.4,105.1,303.3z M172.9,79.2
	c-4.2,3.2-10.4,0.5-11-4.7c-0.3-2.5-0.5-5-0.6-7.4c-1.8-20.1,0-33.8,4.6-41.1c1.8-2.7,3.7-4.6,6.4-6.4c2.7-1.8,5.5-1.8,7.3-1.8
	c5.5,0,10,2.7,12.8,7.3c0,0,0,0,0,0c1.8,3.1,2.5,6.7,2.1,10.3C192.3,53.3,182.1,72.1,172.9,79.2z M174.5,122.4
	c-3.6-29.7,9-60.9,17.2-53.7c1.7,1.5,2.4,3.8,2,6c-0.5,2.8-1,5.8-1.5,9c-2.3,12.5-6,26.3-11,41.4c-0.9,2.7-4.7,2.8-5.7,0.1
	C175.2,124.1,174.9,123.3,174.5,122.4z M203.7,251.3c-4.8,3.7-10.3,6.3-16.1,7.7c-5.1,1.3-10.1,2.7-15.5,4.5
	c-6.2,2.1-11.9,3.6-17.5,5.8c-1.8,0.7-3.5-1.1-2.6-2.8c3.3-6.5,6.2-13,9.1-19.4c3.7-8.2,7.3-15.5,10-22.8c3.7-9.1,6.4-17.4,10-26.5
	c3-7.4,5.3-14.2,7.6-21.8c0.6-2.2,3.5-2.6,4.8-0.7c2.5,3.9,4.9,7.7,6.8,11.6l11,16.4c0,0,0,0,0,0c1.8,2.3,3.4,4.9,4.6,7.6
	C225,230.8,219.3,239.3,203.7,251.3z M241.9,246.3c-4.1,0.7-8.3,1.6-12.6,2.7c-3.2,0.8-6.5-1.2-6.9-4.4c-0.4-2.8,1.5-5.3,4.4-7.1
	c5.4-3.2,12.4-2.1,16.9,2.2c0,0,0.1,0.1,0.1,0.1C246.1,242,244.9,245.8,241.9,246.3z M370.3,271.7c-0.9,6.4-5.5,11-12.8,14.6
	c-7.3,2.7-14.6,3.7-23.7,0.9c-14.6-2.7-27.4-8.2-38.4-15.5c-7.4-4.7-15.2-9.9-22.5-15.2c-3-2.2-1.9-6.9,1.8-7.5
	c15.5-2.5,29.5-3.8,41.7-3.8c14.6,0,26.5,0.9,33.8,2.7c7.3,0.9,12.8,4.6,16.4,8.2C370.3,260.7,371.2,266.2,370.3,271.7z"/>
</svg>
