<?xml version="1.0" encoding="utf-8"?>
<!-- Generator: Adobe Illustrator 23.0.6, SVG Export Plug-In . SVG Version: 6.00 Build 0)  -->
<svg version="1.1"
	 id="svg8" xmlns:cc="http://creativecommons.org/ns#" xmlns:dc="http://purl.org/dc/elements/1.1/" xmlns:inkscape="http://www.inkscape.org/namespaces/inkscape" xmlns:rdf="http://www.w3.org/1999/02/22-rdf-syntax-ns#" xmlns:sodipodi="http://sodipodi.sourceforge.net/DTD/sodipodi-0.dtd" xmlns:svg="http://www.w3.org/2000/svg"
	 xmlns="http://www.w3.org/2000/svg" xmlns:xlink="http://www.w3.org/1999/xlink" x="0px" y="0px" viewBox="0 0 400 400"
	 style="enable-background:new 0 0 400 400;" xml:space="preserve">
<path d="M337.1,189c0-2.6-1.3-5.1-3.2-7.1v0c-3.9-3.9-9.6-7.1-18-9.6c-8.3-1.9-18-3.2-29.5-3.2c-6.4,0-13.5,0-21.2,1.3
	c-5.7,0.5-11.4,1.3-17,2.2c-3.8,0.6-7.7-0.6-10.5-3.3c-3.3-3.2-6.6-6.5-9.7-10.5c-4.5-5.1-9-10.9-13.5-17.3c-3.2-4.5-6.4-8.3-9-12.8
	c-1.2-2.1-2.5-4.2-3.8-6.2c-2.6-4.3-3.3-9.4-1.8-14.2C203,97.9,205.9,88,208,78c2.6-12.2,3.9-22.5,3.9-32.1c0-7.1-1.9-14.8-5.1-23.8
	c-3.2-9-10.3-13.5-20.5-13.5c-2.6,0-5.1,0.6-7.7,2.6c-2.6,1.3-4.5,3.9-5.8,5.8c-1.9,3.9-3.9,9-4.5,14.8c-0.6,5.8-0.6,12.8,0.6,19.9
	c0.6,7.7,2.6,15.4,5.1,23.8c2.6,8.3,5.8,17.3,9.6,25.7c-2.6,8.3-5.8,17.3-9,25.7c-3.2,8.3-7.1,18-10.9,27
	c-3.2,7.7-7.1,16.1-10.9,23.8c-3.1,6.1-6.1,12.3-9.5,18.4c-1.7,3-4.3,5.3-7.5,6.6c-9.6,3.9-18.2,7.8-26,12.2
	c-9,4.5-17.3,9.6-23.8,14.1c-6.4,4.5-12.2,9.6-16.1,14.1c-3.9,4.5-6.4,9-7.1,12.8c-0.6,2.6-0.6,5.1,0.6,7.7c0.6,2.6,2.6,5.1,4.5,7.1
	c1.3,1.3,3.2,2.6,6.4,3.9c2.6,1.3,6.4,1.9,10.3,1.9c6.4,0,13.5-1.9,19.9-6.4c6.4-4.5,13.5-10.3,19.9-17.3c6.4-7.1,12.8-15.4,19.3-25
	c2.5-3.8,5-7.5,7.3-11.3c1.3-2.1,3.9-3.3,6.3-2.6c13.7,4-11.8,54.2,8.4,55.4c19-0.4-14.5-37.2,5.4-66.6c3.9-5.8,9.7-9.9,16.4-11.9
	l11.5-3.4c7.1-1.9,14.1-3.2,20.5-5.1c4.5-0.9,9.2-1.8,13.9-2.7c3.7-0.7,7.6,0.3,10.5,2.8c13.8,11.9,27,19.5,38.6,23
	c4.7,1.4,9.1,2.6,13.1,3.5l-0.1,0c0.1,0,0.2,0,0.3,0c1.7,0.4,3.3,0.7,4.8,1c2.2,0.4,4.3,1.1,6.2,2.2c23,13.3-7.4,61,12.4,63.1
	c26.6,0.3-23.1-34.2,14.6-70.8l0.1-0.1c1.3-1.5,2.2-3.1,2.6-4.6C337.7,196.1,337.7,192.9,337.1,189z M90.9,262
	c-2,4.1-5.9,7-10.5,7.3c-0.3,0-0.5,0-0.8,0c-1.3,0-2.6,0-3.9-0.6s-2.6-1.3-3.2-1.9c-4.2-3.2-4.3-6.2-4.5-9.6
	c0.6-3.2,2.6-7.1,6.4-10.9c1.8-2.2,4.3-4.4,7.1-6.7c4-3.2,8.7-5.4,13.8-6.2C103.2,232.1,103.5,235.9,90.9,262z M133.3,215.1
	c-4.2,7.1-8.6,13.4-12.6,18.9c-2.5,3.7-5.1,7.1-7.6,10.2c-1.8,2.1-4.6,3.2-7.3,2.4c-8.2-2.4-1.6-19.2,16.9-31.8
	c2.4-1.1,4.9-2.2,7.5-3.2C132.4,210.6,134.5,213.1,133.3,215.1z M180.9,57.6c-3,2.3-7.3,0.4-7.8-3.3c-0.2-1.8-0.4-3.5-0.5-5.2
	c-1.3-14.1,0-23.8,3.2-28.9c1.3-1.9,2.6-3.2,4.5-4.5c1.9-1.3,3.9-1.3,5.1-1.3c3.9,0,7.1,1.9,9,5.1c0,0,0,0,0,0
	c1.3,2.2,1.8,4.7,1.5,7.2C194.6,39.4,187.4,52.6,180.9,57.6z M182.1,87.9c-2.5-20.8,6.3-42.8,12.1-37.8c1.2,1,1.7,2.7,1.4,4.2
	c-0.3,2-0.7,4.1-1.1,6.3c-1.6,8.8-4.2,18.5-7.7,29.1c-0.6,1.9-3.3,2-4,0.1C182.6,89.2,182.3,88.5,182.1,87.9z M202.6,178.5
	c-3.4,2.6-7.2,4.4-11.3,5.4c-3.6,0.9-7.1,1.9-10.9,3.1c-4.4,1.5-8.4,2.5-12.3,4.1c-1.2,0.5-2.4-0.8-1.8-2c2.3-4.6,4.4-9.1,6.4-13.7
	c2.6-5.8,5.1-10.9,7.1-16.1c2.6-6.4,4.5-12.2,7.1-18.6c2.1-5.2,3.7-10,5.3-15.3c0.4-1.5,2.5-1.8,3.4-0.5c1.8,2.7,3.4,5.4,4.8,8.1
	l7.7,11.6c0,0,0,0,0,0c1.3,1.6,2.4,3.4,3.2,5.3C217.6,164.1,213.6,170.1,202.6,178.5z M229.4,175.1c-2.9,0.5-5.8,1.1-8.8,1.9
	c-2.2,0.6-4.6-0.8-4.9-3.1c-0.3-2,1-3.7,3.1-5c3.8-2.3,8.7-1.5,11.9,1.5c0,0,0.1,0,0.1,0.1C232.4,172,231.6,174.7,229.4,175.1z
	 M319.7,192.9c-0.6,4.5-3.9,7.7-9,10.3c-5.1,1.9-10.3,2.6-16.7,0.6c-10.3-1.9-19.3-5.8-27-10.9c-5.2-3.3-10.7-6.9-15.8-10.7
	c-2.1-1.5-1.3-4.9,1.2-5.3c10.9-1.8,20.8-2.7,29.3-2.7c10.3,0,18.6,0.6,23.8,1.9c5.1,0.6,9,3.2,11.6,5.8
	C319.7,185.2,320.4,189,319.7,192.9z"/>
</svg>
