<?xml version="1.0" encoding="utf-8"?>
<!-- Generator: Adobe Illustrator 22.1.0, SVG Export Plug-In . SVG Version: 6.00 Build 0)  -->
<!DOCTYPE svg PUBLIC "-//W3C//DTD SVG 1.1//EN" "http://www.w3.org/Graphics/SVG/1.1/DTD/svg11.dtd">
<svg version="1.1"
	 id="Layer_1" inkscape:version="0.92.2 (5c3e80d, 2017-08-06)" sodipodi:docname="napster.svg" xmlns:cc="http://creativecommons.org/ns#" xmlns:dc="http://purl.org/dc/elements/1.1/" xmlns:inkscape="http://www.inkscape.org/namespaces/inkscape" xmlns:rdf="http://www.w3.org/1999/02/22-rdf-syntax-ns#" xmlns:sodipodi="http://sodipodi.sourceforge.net/DTD/sodipodi-0.dtd" xmlns:svg="http://www.w3.org/2000/svg"
	 xmlns="http://www.w3.org/2000/svg" xmlns:xlink="http://www.w3.org/1999/xlink" x="0px" y="0px" viewBox="0 0 400 400"
	 style="enable-background:new 0 0 400 400;" xml:space="preserve">
<sodipodi:namedview  bordercolor="#666666" borderopacity="1" gridtolerance="10" guidetolerance="10" id="namedview15" inkscape:current-layer="Layer_1" inkscape:cx="234.48115" inkscape:cy="205.66831" inkscape:pageopacity="0" inkscape:pageshadow="2" inkscape:window-height="1017" inkscape:window-maximized="1" inkscape:window-width="1920" inkscape:window-x="1358" inkscape:window-y="-8" inkscape:zoom="1.4343434" objecttolerance="10" pagecolor="#ffffff" showgrid="false">
	</sodipodi:namedview>
<g>
	<path d="M321.4,110.1c-4.2-3.7-6.6-9-6.6-14.6l0-23.2c0-3.3-2.9-5.8-6.2-5.3c-4.8,0.7-9.5,1.4-14.2,2.1c-4.8,0.7-9.7-0.8-13.2-4.2
		c-22.4-21.4-49.4-32.8-81.1-32.8c-31.9,0-59,11.6-81.1,32.8c-3.5,3.4-8.4,4.9-13.2,4.2c-5-0.7-9.9-1.4-14.9-2.2
		c-3.2-0.5-6.1,2-6.1,5.3c0,6.3,0,16.3,0,23.6c0,5.6-2.5,10.8-6.6,14.6c-24.6,22.2-23.7,59.2,0.5,80.2c3.8,3.3,6.4,7.8,7.3,12.7
		c2.1,10.8,5.6,21.1,10.3,30.5c3.8,7.6,6.2,15.8,7.2,24.1c7.2,55.9-23.8,101.4,12.7,109.9c30.8,1.7-11.6-71.8,12.3-85.6
		c4.2-2.5,9.5-2.2,13.8,0.2c16.6,9.3,35.8,14.7,56.5,14.8c31.9,0.2,61.2-12,82.5-32.9c2.3-2.3,5.7-3.2,8.8-2.2
		c17,5.8-13.3,56,11.2,61.7c37.5,0.6-4.4-64.1,18.2-125.5c2.1-5.8,5.3-11.2,9.1-16c7.2-8.9,11-19.7,11-32.5
		C339.8,133.6,333.2,120.4,321.4,110.1z M196.1,56.7c4.4-2.2,9.4-3,14.3-2.5c17.5,1.9,34.7,8.5,48.7,20.2c2.6,2.2,2.1,6.3-0.8,8
		c0,0-0.1,0-0.1,0.1c-3.3,1.8-7.3,2-10.8,0.5c-14.7-6.3-29.4-9.8-44.1-10.3c-3.9-0.1-7.7-1.7-10.4-4.6
		C189.6,64.3,189.1,60.2,196.1,56.7z M141.5,74c4.7-4,9.8-7.4,15.3-10.2c3.1-1.6,6.6-2.5,10.1-2.5c11.3,0,13.5,3.8,11.3,8.5
		c-1.6,3.4-4.7,5.8-8.3,6.7c-6.3,1.7-12.5,3.9-18.7,6.7c-2.6,1.2-5.6,1.1-8.2-0.1c-0.2-0.1-0.5-0.2-0.6-0.3
		C139,81,138.6,76.5,141.5,74z M292,190.1c-1.2,42.4-39.7,80.9-82.1,84.2c-1.7,0.1-3.3,0.2-5,0.3c-1.5,0.1-2.9-0.2-4.2-1
		c-3.3-1.9-2.2-4.8,6.2-9.3c2.7-1.4,5.6-2.5,8.6-3.4c3.3-1,6.4-2.4,9.1-4.1c1.5-0.9,2-2.9,1-4.4c-0.7-1.1-1.4-2.2-2-3.2
		c-0.6-1-1.8-1.6-3-1.5c-5.5,0.6-10.5,1.3-15.4,1.7c-1.4,0.1-2.8-1-2.9-2.4c-0.2-2.8,1.9-5.4,4.9-7.8c0.8-0.6,1.7-1.2,2.6-1.6
		c5.5-2.8,10.5-6,15-10c0.9-0.8,0.3-2.3-0.9-2.3H198c-3.8,0-7.5-1.2-10.5-3.5c-6.6-5.2,2.4-6.4,5-8.7l0,0c0.6-1.2,0.7-2.5,0.2-3.7
		c-1.6-4.5-3.1-9.1-5-13.4c-3.7-8.2-10-13-19.4-13.3c-11.8-0.3-23.6-0.9-35.4-1.4l0,0c-1.5,0-2.7,1.2-2.7,2.7
		c0.3,12.9,8.5,24.1,21.2,26.1c5.5,0.9,11.1,1.4,16.7,1.8c2.6,0.2,5.1,1,7.2,2.6c3.8,3,3.8,6.9-0.3,9.9c-0.8,0.6-1.7,1.7-2.2,2.5
		l0,0c0,0.1,0,0.2,0.1,0.2c8.4,4.9,16.7,9.9,24.5,14.5c1.1,0.6,1.9,1.6,2.3,2.8c0.7,2.3-1,3.7-3.8,4.4c-1.6,0.4-3.3,0.5-4.9,0.3
		c-3.7-0.4-7.5-0.9-11.6-1.4c-1.2-0.1-2.4,0.5-3,1.5c-0.6,1-1.3,2.2-2,3.3c-0.9,1.5-0.4,3.5,1.1,4.4c4.2,2.4,8.9,4.1,13.8,5.1
		c1.5,0.3,2.9,1.1,3.9,2.2c3.8,4.2-3.5,5.8-10.8,7.4c-2.5,0.5-5.1,0.5-7.6-0.2c-13.3-3.6-25.5-10.2-36.7-20.1
		c-18.8-16.8-29.6-37.9-30.2-63.1c-0.8-31.3-0.3-62.7-0.3-94l0,0c0-1.3,1.2-2.2,2.5-1.8c11.4,3.1,21.5,8.5,30.9,15.1
		c3.5,2.5,8,2.7,11.8,0.7c13.9-7.7,27.8-11.9,41.7-12.8c8.8-0.6,17.5,3,23.1,9.8c21,25.8-5.5,68,14.5,69.4
		c21.2-1.2-13.2-53.7,16.9-62c3.5-1,6.8-2.5,9.7-4.6c9.2-6.7,19.2-11.8,30.2-15.1c1.9-0.6,3.8,0.9,3.8,2.9l0,0
		C292.4,127.1,292.8,158.6,292,190.1z"/>
	<path d="M225.2,183.9c-2.9,0.3-6.1,2.8-8.3,5.1c-5.7,5.8-8.1,13.2-9.8,21.1c-0.3,1.2,0.7,2.3,1.9,2.2c0,0,0,0,0,0
		c11.4-0.3,23,0,34.4-1c14.9-1.3,25.4-12.2,25.9-26.5c0.1-2.3-1.8-4.1-4.1-4C251.9,181.7,238.5,182.5,225.2,183.9z"/>
</g>
</svg>
