<?xml version="1.0" encoding="utf-8"?>
<!-- Generator: Adobe Illustrator 23.0.6, SVG Export Plug-In . SVG Version: 6.00 Build 0)  -->
<svg version="1.1"
	 id="Layer_1" inkscape:version="0.92.2 (5c3e80d, 2017-08-06)" sodipodi:docname="napster.svg" xmlns:cc="http://creativecommons.org/ns#" xmlns:dc="http://purl.org/dc/elements/1.1/" xmlns:inkscape="http://www.inkscape.org/namespaces/inkscape" xmlns:rdf="http://www.w3.org/1999/02/22-rdf-syntax-ns#" xmlns:sodipodi="http://sodipodi.sourceforge.net/DTD/sodipodi-0.dtd" xmlns:svg="http://www.w3.org/2000/svg"
	 xmlns="http://www.w3.org/2000/svg" xmlns:xlink="http://www.w3.org/1999/xlink" x="0px" y="0px" viewBox="0 0 400 400"
	 style="enable-background:new 0 0 400 400;" xml:space="preserve">
<path d="M319.2,88.5c-4.2-3.6-6.5-8.9-6.5-14.4l0-22.8c0-3.2-2.9-5.7-6.1-5.2c-4.7,0.7-9.3,1.3-13.9,2c-4.7,0.7-9.5-0.8-12.9-4.1
	c-22-21-48.6-32.2-79.7-32.2c-31.4,0-58,11.4-79.7,32.2c-3.4,3.3-8.2,4.8-12.9,4.1c-4.9-0.7-9.7-1.4-14.6-2.1c-3.2-0.5-6,2-6,5.2
	c0,6.2,0,16,0,23.2c0,5.5-2.4,10.7-6.5,14.3c-24.2,21.9-23.3,58.2,0.5,78.9c3.7,3.2,6.3,7.6,7.2,12.5c2.1,10.7,5.5,20.7,10.2,30
	c3.7,7.4,6,15.5,7.1,23.7c7.1,54.9-23.4,99.7,12.5,108c30.3,1.7-11.4-70.5,12.1-84.2c4.2-2.4,9.4-2.2,13.6,0.2
	c16.3,9.2,35.2,14.4,55.6,14.6c31.4,0.2,60.1-11.8,81.1-32.3c2.3-2.2,5.6-3.2,8.6-2.1c16.7,5.7-13,55.1,11,60.7
	c36.9,0.6-4.3-63,17.8-123.4c2.1-5.7,5.2-11,9-15.7c7-8.8,10.8-19.4,10.8-32C337.3,111.6,330.9,98.6,319.2,88.5z M196.1,35.9
	c4.3-2.2,9.2-3,14-2.4c17.2,1.8,34.1,8.3,47.8,19.9c2.6,2.2,2.1,6.2-0.8,7.9c0,0-0.1,0-0.1,0.1c-3.3,1.8-7.2,1.9-10.6,0.5
	c-14.4-6.2-28.9-9.6-43.3-10.1c-3.9-0.1-7.6-1.7-10.2-4.6C189.7,43.4,189.2,39.5,196.1,35.9z M142.4,53c4.6-3.9,9.7-7.3,15.1-10
	c3.1-1.6,6.4-2.4,9.9-2.4c11.1,0,13.3,3.7,11.1,8.4c-1.5,3.3-4.6,5.7-8.1,6.6c-6.1,1.7-12.3,3.9-18.4,6.6c-2.6,1.1-5.5,1.1-8-0.1
	c-0.2-0.1-0.5-0.2-0.6-0.3C140,59.9,139.6,55.4,142.4,53z M290.4,167.1c-1.2,41.7-39,79.5-80.7,82.8c-1.7,0.1-3.3,0.2-4.9,0.3
	c-1.4,0.1-2.9-0.2-4.1-1c-3.3-1.9-2.2-4.7,6.1-9.1c2.7-1.4,5.5-2.5,8.5-3.4c3.2-1,6.3-2.3,9-4c1.5-0.9,1.9-2.9,1-4.3
	c-0.7-1.1-1.4-2.1-2-3.1c-0.6-1-1.8-1.6-2.9-1.4c-5.4,0.6-10.3,1.3-15.1,1.7c-1.4,0.1-2.8-1-2.9-2.4c-0.2-2.8,1.9-5.3,4.8-7.7
	c0.8-0.6,1.6-1.1,2.5-1.6c5.4-2.7,10.3-5.9,14.8-9.9c0.9-0.8,0.3-2.3-0.9-2.3l-25.5,0c-3.7,0-7.4-1.2-10.3-3.5
	c-6.5-5.1,2.4-6.3,4.9-8.5l0,0c0.6-1.1,0.6-2.5,0.2-3.7c-1.6-4.4-3-9-4.9-13.2c-3.6-8.1-9.8-12.8-19.1-13.1
	c-11.6-0.3-23.2-0.9-34.8-1.4l0,0c-1.5,0-2.7,1.2-2.6,2.7c0.3,12.7,8.4,23.7,20.9,25.6c5.4,0.8,10.9,1.4,16.4,1.7
	c2.6,0.2,5.1,1,7.1,2.6c3.8,3,3.8,6.8-0.3,9.8c-0.7,0.5-1.7,1.6-2.1,2.5l0,0c0,0.1,0,0.2,0.1,0.2c8.3,4.8,16.4,9.7,24.1,14.2
	c1.1,0.6,1.9,1.6,2.3,2.8c0.7,2.3-0.9,3.6-3.7,4.3c-1.6,0.4-3.2,0.5-4.9,0.3c-3.7-0.4-7.4-0.9-11.4-1.3c-1.2-0.1-2.3,0.4-3,1.5
	c-0.6,1-1.3,2.1-2,3.3c-0.9,1.5-0.4,3.4,1.1,4.3c4.1,2.3,8.7,4,13.5,5c1.5,0.3,2.8,1.1,3.8,2.2c3.7,4.2-3.5,5.7-10.7,7.2
	c-2.5,0.5-5,0.5-7.5-0.2c-13-3.5-25-10-36-19.8c-18.5-16.5-29.1-37.3-29.7-62c-0.8-30.8-0.3-61.6-0.3-92.4l0,0
	c0-1.3,1.2-2.1,2.4-1.8c11.2,3.1,21.1,8.3,30.3,14.9c3.4,2.4,7.9,2.7,11.6,0.7c13.7-7.5,27.3-11.7,41-12.6
	c8.7-0.6,17.2,2.9,22.7,9.7c20.7,25.4-5.4,66.9,14.3,68.2c20.9-1.2-13-52.8,16.6-60.9c3.4-0.9,6.7-2.5,9.5-4.6
	c9-6.5,18.8-11.6,29.7-14.9c1.9-0.6,3.7,0.9,3.7,2.8l0,0C290.8,105.2,291.1,136.1,290.4,167.1z"/>
<path d="M224.7,161c-2.9,0.3-6,2.8-8.2,5c-5.6,5.7-8,13-9.7,20.8c-0.2,1.2,0.7,2.3,1.9,2.2c0,0,0,0,0,0c11.2-0.3,22.6,0,33.8-1
	c14.6-1.3,25-12,25.5-26.1c0.1-2.2-1.8-4.1-4-3.9C250.9,158.9,237.8,159.7,224.7,161z"/>
</svg>
