<?xml version="1.0" encoding="utf-8"?>
<!-- Generator: Adobe Illustrator 22.1.0, SVG Export Plug-In . SVG Version: 6.00 Build 0)  -->
<!DOCTYPE svg PUBLIC "-//W3C//DTD SVG 1.1//EN" "http://www.w3.org/Graphics/SVG/1.1/DTD/svg11.dtd">
<svg version="1.1"
	 id="Layer_1" inkscape:version="0.92.1 r15371" sodipodi:docname="picarto.svg" xmlns:cc="http://creativecommons.org/ns#" xmlns:dc="http://purl.org/dc/elements/1.1/" xmlns:inkscape="http://www.inkscape.org/namespaces/inkscape" xmlns:rdf="http://www.w3.org/1999/02/22-rdf-syntax-ns#" xmlns:sodipodi="http://sodipodi.sourceforge.net/DTD/sodipodi-0.dtd" xmlns:svg="http://www.w3.org/2000/svg"
	 xmlns="http://www.w3.org/2000/svg" xmlns:xlink="http://www.w3.org/1999/xlink" x="0px" y="0px" viewBox="0 0 400 400"
	 style="enable-background:new 0 0 400 400;" xml:space="preserve">
<sodipodi:namedview  bordercolor="#666666" borderopacity="1" gridtolerance="10" guidetolerance="10" id="namedview9" inkscape:current-layer="Layer_1" inkscape:cx="308.66268" inkscape:cy="340.55519" inkscape:pageopacity="0" inkscape:pageshadow="2" inkscape:window-height="705" inkscape:window-maximized="1" inkscape:window-width="1366" inkscape:window-x="-8" inkscape:window-y="235" inkscape:zoom="0.23046875" objecttolerance="10" pagecolor="#ffffff" showgrid="false">
	</sodipodi:namedview>
<path d="M360.1,126c-64.6-38.5-129.3-76.8-194-115.1c-13.4-7.9-24.3-1.7-24.6,13.8c-0.2,12.1,0.3,24.2-0.2,36.3c0,0.6,0,1.3,0,1.9
	c0,2.9-0.2,5.7-0.6,8.6c-3.2,21.2-7.9,37.1-16.4,33.1c-3.1-1.5-5-4.7-5-8.1c0-4.9,0-12.7,0-13.2c0-24.7,0.1-34.3,0-59.1
	c0-14.2-2.8-17-16.8-17c-18.5,0-37,0-55.5,0c-14.3,0.1-17,2.7-17,16.8c0,58.8,0,117.5,0,176.3c0,58.2,0,116.5,0,174.7
	c0,2.4-0.2,5,0.1,7.4c0.6,6.2,3.8,10.4,10.2,10.5c22.7,0.2,45.5,0.2,68.1,0.1c6,0,9.6-3.5,10.3-9.5c0.4-3.2,0.5-6.4,0.5-9.6l0-147.7
	c0-14,1-28,3.2-41.8c6.7-41.9,19.9-57.7,60.3-63.6c11-1.6,22.2-0.5,32.7,3.2c2.6,0.9,5.3,1.9,7.9,2.9c6.1,2.4,9.4,7.4,9.2,13.9
	c-0.2,6.4-3.7,11.1-9.8,13.6c-3.3,1.3-6.6,2.2-9.8,3.5c-15.3,6.3-30.9,11.7-45.5,19.2c-17.6,8.9-27.6,23.4-26.3,44.2
	c0.3,4.9,0.1,9.8,0.1,14.8c0,6.7-0.1,13.3,0.1,20c0.2,15.5,11.1,21.7,24.5,13.8c30.7-18.2,61.4-36.4,92.1-54.6
	c11.4-6.8,26.3-1,29.8,11.9c9.5,35.1-26,112,15.7,117.1c71.1,0.3-40.9-80.4,43.4-178.7c3.7-4.3,8-7.9,12.8-10.7l0.1,0
	C373.3,146.6,373.4,133.9,360.1,126z"/>
</svg>
