<?xml version="1.0" encoding="utf-8"?>
<!-- Generator: Adobe Illustrator 22.0.0, SVG Export Plug-In . SVG Version: 6.00 Build 0)  -->
<!DOCTYPE svg PUBLIC "-//W3C//DTD SVG 1.1//EN" "http://www.w3.org/Graphics/SVG/1.1/DTD/svg11.dtd">
<svg version="1.1" id="Layer_1" xmlns="http://www.w3.org/2000/svg" xmlns:xlink="http://www.w3.org/1999/xlink" x="0px" y="0px"
	 viewBox="0 0 400 400" enable-background="new 0 0 400 400" xml:space="preserve">
<g>
	<path d="M255.2,255.5l-108.7,0c-3.3,0-6-2.9-5.5-6.1c0.5-3,2.7-4.8,7.2-5.7c5.9-1.1,11.7-3.2,17.6-4.3c6.9-1.8,8-4.2,7.9-10.1
		c-0.2-23,0.1-46.1,0.1-69.1c0-40.8-0.2-80,0.1-120.8c0-6.6-1.7-9.7-8.5-9.5c-1.8,0-4.7,0.1-6.4,0.1c-13.4-0.2-18.9,3.3-24.4,18.4
		c-6.8,18.7-5,37,1.1,55.6c2.2,6.7,3,14.2,2.6,21.2c-0.4,8-6.1,13.6-13.1,17.2c-11,5.8-23.5,0.9-26.8-11.1
		c-1.6-5.9-2.3-12.8-0.9-18.6c4.9-19.5,2.6-38.9,1.1-58.4c-1-12.3-1-24.7-1.8-37.1c-0.3-4.8,1.4-6.4,6.2-6.4
		c64.5,0.1,129.1,0.1,193.6,0c4.8,0,6.4,1.8,6.2,6.5c-1.1,19.1-1.8,38.3-3.1,57.4c-0.1,1.9-1.8,4.9-4,5.2c-2.6,0.4-5.7-1.2-7.1-4.1
		c-3.6-7.1-5.8-14.9-9.4-22.1c-5.5-11-14.2-12-21.2-2.1c-21,29.8-32.6,61.4-33,99.9c-0.2,25.3,0.6,47.2,0.7,71.5
		c0.1,9.9,1.2,15.5,8.7,16.5c5.7,0.7,11.3,2.9,17,3.9c5.6,1,8.2,3.6,7.5,8.6C258.9,254,257.1,255.5,255.2,255.5z M226.9,46.5
		c0.3,1.9,2.1,3.2,3.7,2.2c4.5-2.8,6.5-6.5,7.3-11.1c0.7-3.7,1.1-7.3-4.5-7.7c-4.9-0.4-5.6,0.8-6.6,5.9
		C226.3,38.9,226.3,42.9,226.9,46.5z"/>
	<path d="M131.8,336.8c-0.9,2.6-3.6,4-6.2,3.4c-29.9-7.5-59.3-15-88.8-22.4c-1.3-0.3-1.4-2.2-0.1-2.6c5.3-1.7,15.7-4.2,21.1-5.4
		c24-5.4,42.9-10,67-15.2c4-0.9,7.3,0.1,8.4,4.6c1,4.2,3.9,4.8,7.7,4.7c38.8-0.1,77.6-0.1,116.4,0c4.2,0,7.2-1,8.3-5.1
		c1.1-4.3,4.1-5.1,7.7-4.3c29.4,6.7,58.8,13.5,88.2,20.3c0.5,0.1,1,0.4,1.7,0.7c1.3,0.8,1,4.2-0.5,4.6c-4.5,1.2-7.4,1.8-10.8,2.5
		c-21.3,4.3-42.6,8.3-63.9,12.3c-4.3,0.8-8.6,1.3-12.9,2.3c-4.9,1.1-8.2,0.5-10.3-4.9c-0.7-1.8-4.4-3.4-6.9-3.5
		c-7.7-0.4-15.5-0.1-23.3-0.1c-6.2,0-12.2,3.2-15.3,8.6c-4.1,7.3-1,14.6-0.3,22c0.5,5.5,1.6,11.2,0.8,16.5c-1.3,8.6-9.3,14-17.4,13
		c-7.6-0.9-12.3-7.2-11.9-16.4c0.2-4.1,1.1-8.1,1.8-12.2c1.7-9.5-0.8-19.3-8.4-24.4c-8.3-5.6-13.8-7.1-24.5-7.1c-2.4,0-9,0.1-11.4,0
		C136.1,328.9,134.4,328.9,131.8,336.8z"/>
</g>
</svg>
