<?xml version="1.0" encoding="utf-8"?>
<!-- Generator: Adobe Illustrator 23.0.6, SVG Export Plug-In . SVG Version: 6.00 Build 0)  -->
<svg version="1.1" id="Layer_1" xmlns="http://www.w3.org/2000/svg" xmlns:xlink="http://www.w3.org/1999/xlink" x="0px" y="0px"
	 viewBox="0 0 400 400" style="enable-background:new 0 0 400 400;" xml:space="preserve">
<path d="M246,209l-90.6,0c-2.7,0-5-2.4-4.6-5.1c0.4-2.5,2.3-4,6-4.7c5-0.9,9.8-2.6,14.7-3.6c5.7-1.5,6.6-3.5,6.6-8.4
	c-0.1-19.2,0.1-38.4,0.1-57.7c0-34-0.1-66.7,0.1-100.7c0-5.5-1.4-8.1-7.1-7.9c-1.5,0-3.9,0.1-5.4,0.1c-11.2-0.2-15.8,2.7-20.4,15.4
	c-5.7,15.6-4.2,30.9,0.9,46.4c1.8,5.6,2.5,11.8,2.2,17.7c-0.4,6.7-5.1,11.3-10.9,14.4c-9.2,4.8-19.6,0.8-22.3-9.3
	c-1.4-4.9-1.9-10.7-0.7-15.5c4-16.3,2.2-32.4,0.9-48.7c-0.8-10.3-0.8-20.6-1.5-30.9c-0.2-4,1.2-5.4,5.2-5.4
	c53.8,0.1,107.6,0.1,161.5,0c4,0,5.3,1.5,5.1,5.4c-0.9,16-1.5,31.9-2.6,47.9c-0.1,1.6-1.5,4.1-3.3,4.3c-2.1,0.3-4.7-1-5.9-3.4
	c-3-5.9-4.9-12.4-7.8-18.4c-4.6-9.2-11.8-10-17.7-1.7c-17.5,24.8-27.2,51.2-27.5,83.3c-0.2,21.1,0.5,39.3,0.6,59.6
	c0,8.3,1,12.9,7.3,13.7c4.8,0.6,9.4,2.4,14.2,3.3c4.6,0.9,6.8,3,6.2,7.1C249.1,207.8,247.7,209,246,209z M222.5,34.7
	c0.3,1.6,1.7,2.6,3.1,1.8c3.8-2.3,5.4-5.4,6.1-9.2c0.6-3.1,0.9-6.1-3.7-6.4c-4.1-0.3-4.6,0.7-5.5,4.9
	C221.9,28.5,222,31.8,222.5,34.7z"/>
<path d="M143.1,276.9c-0.7,2.1-3,3.4-5.2,2.8c-24.9-6.3-49.5-12.5-74-18.7c-1.1-0.3-1.2-1.8-0.1-2.2c4.4-1.4,13.1-3.5,17.6-4.5
	c20-4.5,35.8-8.3,55.9-12.7c3.3-0.7,6.1,0.1,7,3.8c0.9,3.5,3.2,4,6.4,4c32.4-0.1,64.7-0.1,97.1,0c3.5,0,6-0.8,6.9-4.3
	c1-3.6,3.4-4.2,6.5-3.6c24.5,5.6,49.1,11.3,73.6,17c0.4,0.1,0.9,0.3,1.4,0.6c1.1,0.7,0.8,3.5-0.4,3.8c-3.7,1-6.2,1.5-9,2.1
	c-17.7,3.6-35.5,6.9-53.3,10.3c-3.6,0.7-7.2,1.1-10.7,1.9c-4.1,0.9-6.9,0.4-8.6-4.1c-0.6-1.5-3.7-2.8-5.7-2.9
	c-6.4-0.3-12.9-0.1-19.4-0.1c-5.2,0-10.2,2.6-12.7,7.2c-3.4,6.1-0.8,12.2-0.3,18.4c0.4,4.6,1.3,9.3,0.6,13.8
	c-1.1,7.2-7.7,11.7-14.5,10.8c-6.3-0.8-10.2-6-9.9-13.7c0.1-3.4,0.9-6.8,1.5-10.2c1.4-7.9-0.7-16.1-7-20.4
	c-6.9-4.7-11.5-5.9-20.5-5.9c-2,0-7.5,0-9.5,0C146.7,270.3,145.3,270.2,143.1,276.9z"/>
</svg>
