<?xml version="1.0" encoding="utf-8"?>
<!-- Generator: Adobe Illustrator 22.0.0, SVG Export Plug-In . SVG Version: 6.00 Build 0)  -->
<!DOCTYPE svg PUBLIC "-//W3C//DTD SVG 1.1//EN" "http://www.w3.org/Graphics/SVG/1.1/DTD/svg11.dtd">
<svg version="1.1" id="Layer_1" xmlns="http://www.w3.org/2000/svg" xmlns:xlink="http://www.w3.org/1999/xlink" x="0px" y="0px"
	 viewBox="0 0 400 400" enable-background="new 0 0 400 400" xml:space="preserve">
<g>
	<path d="M367,343.3c-0.8,3.1-5.3,2.7-5.5-0.5c-0.7-12.9-1.4-25.1-3.5-37.2c-8.1-47.5-37.6-75.6-83-88.7
		c-30.8-8.9-62.5-10.5-94.3-11.6c-5.6-0.2-7.6,1.6-7.5,7.3c0.3,15.9,0.6,31.9-0.2,47.7c-0.2,4.9-2.8,12.2-6.4,13.9
		c-3.6,1.7-10.5-1.2-14.7-4c-9.1-6-17.2-13.5-26-20c-8.5-6.3-15.2-4.2-17.7,6.1c-2,8-2.6,16.3-3.9,24.4c-2.2,13.1-9.2,21.5-18.8,23
		c-9.1,1.4-19.3-4.8-24.2-17c-3.4-8.4-5.5-17.7-6.4-26.8c-1.5-14.8-1-29.8-2.3-44.6c-1.3-15.6-6.5-29.3-20.5-38.9
		c-11.3-7.7-10.7-14.1,0.1-22.5c39.3-30.9,78.7-61.8,118-92.7c13.5-10.6,20.7-8.5,27.1,7.8c4.9,12.6,9.3,25.5,15.4,37.5
		c5.5,11.1,15.1,17.6,27.9,20.2c22,4.4,44.3,8.3,65.5,15.3c69.1,22.9,95.2,77.7,89.5,145.7c-1.4,16.8-4.5,33.4-7.3,50
		C367.8,339.5,367.4,341.4,367,343.3z"/>
</g>
</svg>
