<?xml version="1.0" encoding="utf-8"?>
<!-- Generator: Adobe Illustrator 23.0.3, SVG Export Plug-In . SVG Version: 6.00 Build 0)  -->
<svg version="1.1"
	 id="svg6" xmlns:cc="http://creativecommons.org/ns#" xmlns:dc="http://purl.org/dc/elements/1.1/" xmlns:inkscape="http://www.inkscape.org/namespaces/inkscape" xmlns:rdf="http://www.w3.org/1999/02/22-rdf-syntax-ns#" xmlns:sodipodi="http://sodipodi.sourceforge.net/DTD/sodipodi-0.dtd" xmlns:svg="http://www.w3.org/2000/svg"
	 xmlns="http://www.w3.org/2000/svg" xmlns:xlink="http://www.w3.org/1999/xlink" x="0px" y="0px" viewBox="0 0 400 400"
	 style="enable-background:new 0 0 400 400;" xml:space="preserve">
<sodipodi:namedview  bordercolor="#666666" borderopacity="1" fit-margin-bottom="50" fit-margin-left="20" fit-margin-right="20" fit-margin-top="20" gridtolerance="10" guidetolerance="10" id="namedview8" inkscape:current-layer="svg6" inkscape:cx="54.814513" inkscape:cy="75.903213" inkscape:pageopacity="0" inkscape:pageshadow="2" inkscape:window-height="1017" inkscape:window-maximized="1" inkscape:window-width="1920" inkscape:window-x="1912" inkscape:window-y="-8" inkscape:zoom="2.36" objecttolerance="10" pagecolor="#ffffff" showgrid="false">
	</sodipodi:namedview>
<path d="M367.1,25.2c0-3.2,0-6.8,0-10c0-5.8-4.8-10.5-10.6-10.3C228.1,8.3,224,74.6,224,110.6v60.6c-6.4,36.9-36.1-14.2-46.2-52.9
	c-1.2-4.6-5.3-7.8-10-7.8l-53.6,0c-5.6,0-10.2-4.5-10.3-10.1c-0.7-29.3,10.6-61.5,62.5-65c5.4-0.4,9.6-4.8,9.6-10.3
	c0-3.2,0-6.8,0-10c0-5.8-4.8-10.5-10.6-10.3C37,8.3,32.9,74.6,32.9,110.6v132.7c0,5.7,4.6,10.3,10.3,10.3h122.4
	c5.7,0,10.3-4.6,10.3-10.3l0-22.7c0-6,1.5-12,4.8-17c15.1-23.4,33.6,17.2,41.2,42.7c1.3,4.4,5.3,7.4,9.9,7.4c10.9,0,30.2,0,39.4,0
	c4.7,0,9.3,0.5,13.8,1.9c60.3,19-20.5,136.1,34.9,139.6c59.1-1.2-36.1-115.7,40.1-139.7c4.2-1.3,7-5.3,7-9.8V120.9
	c0-5.7-4.6-10.3-10.3-10.3l-51.4,0c-5.6,0-10.2-4.5-10.3-10.1c-0.7-29.3,10.6-61.5,62.5-65C362.9,35.1,367.1,30.6,367.1,25.2z"/>
</svg>
