<?xml version="1.0" encoding="utf-8"?>
<!-- Generator: Adobe Illustrator 23.0.6, SVG Export Plug-In . SVG Version: 6.00 Build 0)  -->
<svg version="1.1"
	 id="svg6" xmlns:cc="http://creativecommons.org/ns#" xmlns:dc="http://purl.org/dc/elements/1.1/" xmlns:inkscape="http://www.inkscape.org/namespaces/inkscape" xmlns:rdf="http://www.w3.org/1999/02/22-rdf-syntax-ns#" xmlns:sodipodi="http://sodipodi.sourceforge.net/DTD/sodipodi-0.dtd" xmlns:svg="http://www.w3.org/2000/svg"
	 xmlns="http://www.w3.org/2000/svg" xmlns:xlink="http://www.w3.org/1999/xlink" x="0px" y="0px" viewBox="0 0 400 400"
	 style="enable-background:new 0 0 400 400;" xml:space="preserve">
<sodipodi:namedview  bordercolor="#666666" borderopacity="1" fit-margin-bottom="50" fit-margin-left="20" fit-margin-right="20" fit-margin-top="20" gridtolerance="10" guidetolerance="10" id="namedview8" inkscape:current-layer="svg6" inkscape:cx="54.814513" inkscape:cy="75.903213" inkscape:pageopacity="0" inkscape:pageshadow="2" inkscape:window-height="1017" inkscape:window-maximized="1" inkscape:window-width="1920" inkscape:window-x="1912" inkscape:window-y="-8" inkscape:zoom="2.36" objecttolerance="10" pagecolor="#ffffff" showgrid="false">
	</sodipodi:namedview>
<path d="M337.5,56.2c0-2.6,0-5.6,0-8.2c0-4.8-3.9-8.6-8.7-8.5c-105.7,2.8-109,57.4-109,87v49.9c-5.3,30.4-29.7-11.7-38-43.5
	c-1-3.8-4.4-6.4-8.2-6.4h-44.1c-4.6,0-8.4-3.7-8.5-8.3c-0.6-24.1,8.7-50.6,51.4-53.5c4.4-0.3,7.9-3.9,7.9-8.5c0-2.6,0-5.6,0-8.2
	c0-4.8-3.9-8.6-8.7-8.5c-105.7,2.9-109,57.4-109,87.1v109.2c0,4.7,3.8,8.5,8.5,8.5h100.7c4.7,0,8.5-3.8,8.5-8.5V217
	c0-4.9,1.2-9.9,3.9-14c12.4-19.3,27.6,14.2,33.9,35.1c1.1,3.6,4.4,6.1,8.1,6.1c9,0,24.9,0,32.4,0c3.9,0,7.7,0.4,11.4,1.6
	c49.6,15.6-16.9,112,28.7,114.9c48.6-1-29.7-95.2,33-115c3.5-1.1,5.8-4.4,5.8-8.1V134.9c0-4.7-3.8-8.5-8.5-8.5h-42.3
	c-4.6,0-8.4-3.7-8.5-8.3c-0.6-24.1,8.7-50.6,51.4-53.5C334,64.3,337.5,60.6,337.5,56.2z"/>
</svg>
