<?xml version="1.0" encoding="utf-8"?>
<!-- Generator: Adobe Illustrator 23.0.1, SVG Export Plug-In . SVG Version: 6.00 Build 0)  -->
<svg version="1.1"
	 id="svg4" xmlns:cc="http://creativecommons.org/ns#" xmlns:dc="http://purl.org/dc/elements/1.1/" xmlns:inkscape="http://www.inkscape.org/namespaces/inkscape" xmlns:rdf="http://www.w3.org/1999/02/22-rdf-syntax-ns#" xmlns:sodipodi="http://sodipodi.sourceforge.net/DTD/sodipodi-0.dtd" xmlns:svg="http://www.w3.org/2000/svg"
	 xmlns="http://www.w3.org/2000/svg" xmlns:xlink="http://www.w3.org/1999/xlink" x="0px" y="0px" viewBox="0 0 400 400"
	 style="enable-background:new 0 0 400 400;" xml:space="preserve">
<sodipodi:namedview  bordercolor="#666666" borderopacity="1" fit-margin-bottom="50" fit-margin-left="0" fit-margin-right="0" fit-margin-top="0" gridtolerance="10" guidetolerance="10" id="namedview6" inkscape:current-layer="svg4" inkscape:cx="106.60141" inkscape:cy="98.016331" inkscape:pageopacity="0" inkscape:pageshadow="2" inkscape:window-height="1017" inkscape:window-maximized="1" inkscape:window-width="1920" inkscape:window-x="1358" inkscape:window-y="-8" inkscape:zoom="5.2149125" objecttolerance="10" pagecolor="#ffffff" showgrid="false">
	</sodipodi:namedview>
<path d="M258.8,140.5c4.3,15.7,7.2,31.7,8.7,50.6c0.3,3.9,5.1,5.6,7.8,2.8c32.9-34,61.7-70.9,64.2-113.3
	c0.7-29.9-10.6-53.4-25.8-66.8C306.9,7.9,297.5,6,289,8.8c-29.5,9.7-58.4,45-48.1,78.9c3.1,13.5,8.7,31,1.5,31.3
	c-1.7,0.1-3.3-1-4.1-2.6c-5.8-11.5-12.4-22.5-19.9-32.7c-34.5-46.9-92.9-70.6-148.8-53c-5.5,1.7-9.2,6.8-9.1,12.6
	c0.3,17.9,5.2,38.7,17.8,56.5c1,1.4,1.8,2.8,2.4,4.3c19.6,48.5-10.6,97.2,13.4,94.9c29.3-1.1-20-79.9,19.2-69.4
	c1.8,0.5,3.6,1.2,5.4,1.9c4.5,1.9,9.3,3.5,14.4,4.9c22.1,6.5,38.4,10.9,55,16.5c3.5,1.2,6.7,3.1,9.2,5.8c9.2,9.6,6.4,23.5,0.9,33.8
	c-1.7,2.3-3.6,4.7-5.5,7.1c-16.9,21.3-33.9,55.1-32,95.1c0.3,5.6,2.6,10.9,6.2,15.1c22.5,26.8-11.2,77.5,16.8,82.6
	c22.4,0.1-3.8-37.9,9.9-76.7c4.3-12.3,12.8-22.8,23.7-30c28.2-18.8,40.8-47,44.5-68.2c1-5.7-0.5-11.6-4.3-16
	c-10.5-12.4-24.3-21.4-34.4-26.8c-2.1-1.1-4.1-2.4-6-3.8c-4-2.9-8.3-5.7-5.8-7.4c0.8-0.6,1.9-0.6,2.8-0.2
	c16.3,7.6,30.2,17.1,42.2,30.1c2.1,2.3,5.9,0.5,5.5-2.6c-0.7-5.3-1.7-10.6-2.9-16c-0.8-10.9-5.7-24.1-4.7-33.9
	C254.5,138.3,258.1,138,258.8,140.5z"/>
</svg>
