<?xml version="1.0" encoding="utf-8"?>
<!-- Generator: Adobe Illustrator 23.0.3, SVG Export Plug-In . SVG Version: 6.00 Build 0)  -->
<svg version="1.1"
	 id="svg5" xmlns:cc="http://creativecommons.org/ns#" xmlns:dc="http://purl.org/dc/elements/1.1/" xmlns:inkscape="http://www.inkscape.org/namespaces/inkscape" xmlns:rdf="http://www.w3.org/1999/02/22-rdf-syntax-ns#" xmlns:sodipodi="http://sodipodi.sourceforge.net/DTD/sodipodi-0.dtd" xmlns:svg="http://www.w3.org/2000/svg"
	 xmlns="http://www.w3.org/2000/svg" xmlns:xlink="http://www.w3.org/1999/xlink" x="0px" y="0px" viewBox="0 0 400 400"
	 style="enable-background:new 0 0 400 400;" xml:space="preserve">
<sodipodi:namedview  bordercolor="#666666" borderopacity="1" fit-margin-bottom="30" fit-margin-left="10" fit-margin-right="10" fit-margin-top="10" gridtolerance="10" guidetolerance="10" id="namedview7" inkscape:current-layer="svg5" inkscape:cx="62.420106" inkscape:cy="100.50326" inkscape:pageopacity="0" inkscape:pageshadow="2" inkscape:window-height="1017" inkscape:window-maximized="1" inkscape:window-width="1920" inkscape:window-x="1912" inkscape:window-y="-8" inkscape:zoom="3.337544" objecttolerance="10" pagecolor="#ffffff" showgrid="false">
	</sodipodi:namedview>
<path d="M132.9,255.3h213.8c5.6,0,10.1-4.5,10.1-10.1V14.5c0-5.6-4.5-10.1-10.1-10.1H53.3c-5.6,0-10.1,4.5-10.1,10.1v231.1
	c0,5.5,3.2,10.5,8.1,13c60,31-26.5,133.5,31.9,136.9c59.4,0.4-27.3-97.9,24.6-132.8C115.2,257.7,124,255.3,132.9,255.3z M65.8,17
	h268.3c5.5,0,10,4.5,10,10v143.5c0,5.2-4.2,9.4-9.4,9.4H320c-5.9,0-11.7-1.2-17-3.9c-23.7-12.1-18.1-41.2-5.5-69.3
	c1.4-3.1,2.9-6.2,4.7-9c3-4.7,4.6-10.4,4.2-16.4c-0.8-14.1-12.2-25.6-26.3-26.6c-16.4-1.1-30.1,12-30.1,28.1c0,8,3.4,15.2,8.8,20.4
	c14.7,15.3-3.7,30.4-34.7,41.8c-6.6,2.4-13.7,3.6-20.7,3.6h-0.7c-4.2,0-8.2-1.7-11.1-4.6L178,130.3c-4.5-4.5-11-6.5-17.3-5.2
	l-10.3,2.1c-6.1,1.2-12.4-1.4-15.9-6.6l-14.5-21.8c-3.5-5.2-10.9-6-15.3-1.5l-41.4,41.4c-2.8,2.8-7.5,0.8-7.5-3.1V27.1
	C55.8,21.5,60.3,17,65.8,17z M262.7,82.8c0-8.7,7-15.7,15.7-15.7c8.7,0,15.7,7,15.7,15.7c0,8.7-7,15.7-15.7,15.7
	C269.7,98.5,262.7,91.6,262.7,82.8z M63.4,156.2l30.7-30.7c4.8-4.8,12.5-5.6,18-1.4c27.3,20.6-27.7,92.4,8.3,94.5
	c37.4,0-23.8-64.2,24.7-77.6l14.6-2.9c4.3-0.8,8.7,0.5,11.7,3.6l14.1,14.1c3.5,3.5,8.3,5.5,13.2,5.5h21.3c5.9,0,11.7,1.9,16.5,5.3
	l27.8,19.8c5.7,4,12.4,6.2,19.4,6.2l50.4,0c1.1,0,2.2,0.2,3.2,0.6c12,5-20.5,27.2-61.7,42c-14.1,5-28.9,7.6-43.9,7.6H65.8
	c-5.5,0-10-4.5-10-10v-58.1C55.8,167.7,58.5,161.1,63.4,156.2z"/>
</svg>
