<?xml version="1.0" encoding="utf-8"?>
<!-- Generator: Adobe Illustrator 23.0.1, SVG Export Plug-In . SVG Version: 6.00 Build 0)  -->
<svg version="1.1"
	 id="svg5" inkscape:version="0.92.1 r15371" sodipodi:docname="microsoft-edge.svg" xmlns:cc="http://creativecommons.org/ns#" xmlns:dc="http://purl.org/dc/elements/1.1/" xmlns:inkscape="http://www.inkscape.org/namespaces/inkscape" xmlns:rdf="http://www.w3.org/1999/02/22-rdf-syntax-ns#" xmlns:sodipodi="http://sodipodi.sourceforge.net/DTD/sodipodi-0.dtd" xmlns:svg="http://www.w3.org/2000/svg"
	 xmlns="http://www.w3.org/2000/svg" xmlns:xlink="http://www.w3.org/1999/xlink" x="0px" y="0px" viewBox="0 0 400 400"
	 style="enable-background:new 0 0 400 400;" xml:space="preserve">
<sodipodi:namedview  bordercolor="#666666" borderopacity="1" fit-margin-bottom="50" fit-margin-left="0" fit-margin-right="0" fit-margin-top="0" gridtolerance="10" guidetolerance="10" id="namedview7" inkscape:current-layer="svg5" inkscape:cx="-236.28935" inkscape:cy="91.470121" inkscape:pageopacity="0" inkscape:pageshadow="2" inkscape:window-height="1017" inkscape:window-maximized="1" inkscape:window-width="1920" inkscape:window-x="1358" inkscape:window-y="-8" inkscape:zoom="1.1346154" objecttolerance="10" pagecolor="#ffffff" showgrid="false">
	</sodipodi:namedview>
<path d="M242,191l91.4,0c5.8,0,10.5-4.7,10.5-10.5v-25.9c0,0-0.6-25.1-5.7-46.1c-2.7-11.2-7-22.8-12.3-31.9
	c-12.3-21-23.4-35.3-50.6-52.4S217.8,4.6,203.3,4.6c-38.4,0-67.8,12.5-88.7,28.7C72.8,65.6,61.2,119,58.2,139.5
	c-0.6,3.9,0.7,7.7,3,10.9c9.7,13.4-20.1,74.5,5.6,76.2c28.5-5-23.7-77.5,32.5-124.9c4.6-3.6,9.7-7.4,15.3-11.1
	c12.5-7.9,28.2-15,44.2-19.8c4.7-0.4,3,3.2-1.8,8.7c-3.2,3.8-6.9,7.1-10.7,10.3c-7.6,6.2-16,15.1-27,28.3c-16.5,20-26,47.6-26,76.3
	c0,7.7-0.1,21.7,3.9,36.1c3.7,13.3,11.1,26.9,18,37.1c19.5,28.9,48.5,41.2,62.4,45.8c15.9,5.2,32.4,6.6,48,6.6
	c17.3,0,32.5-2.2,45.2-5.3c2.3-0.6,4.8-0.5,7.1,0.3c24,9.2-16.8,79.7,14.3,80.3c25.3,0.8-19.6-54,18.1-93.6c3.2-3.4,5-7.8,5-12.4
	l0-50.9c0-2.9-3.4-4.5-5.7-2.7c-10.9,9.1-37.7,26.8-80.4,26.8c-5.9,0-11.4-0.3-16.6-0.9c-6.4-0.7-12.5-3.5-17-8.3
	c-9.9-10.5-8.1-26.1,1.4-39.6C207.3,199.4,224.2,191,242,191z M143.7,130.7c0.4-1.7,1.6-3,3.3-3.4c6.4-1.3,14.5,6.3,8,6.3H146
	C144.5,133.6,143.4,132.3,143.7,130.7C143.7,130.8,143.7,130.7,143.7,130.7z M186.5,65.8c2.5-0.6,5.1-0.9,7.7-0.9c0.4,0,0.8,0,1.2,0
	c54.6,0,61.9,43.4,62.6,61.2c0.2,4.1-3.1,7.5-7.2,7.5h-58.7c-4.8,0-9.6-0.6-14.2-2.1c-11.2-3.6-17.3-10.6-18.5-21.4
	c-0.9-8,1.2-16,5.4-22.8c2.2-3.5,4.6-7.2,7.2-11.1C174.9,71,179.8,67.5,186.5,65.8z M150.4,191h25.1c2.4,0,4.8,0.8,6.5,2.5
	c10.8,10.9-11.9,43.5-28.5,30.8c-2.6-2-4.5-4.8-5.6-7.9c-2.6-6.9-3.7-13.3-4.2-18C143.2,194.5,146.3,191,150.4,191z"/>
</svg>
