<?xml version="1.0" encoding="utf-8"?>
<!-- Generator: Adobe Illustrator 23.0.6, SVG Export Plug-In . SVG Version: 6.00 Build 0)  -->
<svg version="1.1"
	 id="svg5" xmlns:cc="http://creativecommons.org/ns#" xmlns:dc="http://purl.org/dc/elements/1.1/" xmlns:inkscape="http://www.inkscape.org/namespaces/inkscape" xmlns:rdf="http://www.w3.org/1999/02/22-rdf-syntax-ns#" xmlns:sodipodi="http://sodipodi.sourceforge.net/DTD/sodipodi-0.dtd" xmlns:svg="http://www.w3.org/2000/svg"
	 xmlns="http://www.w3.org/2000/svg" xmlns:xlink="http://www.w3.org/1999/xlink" x="0px" y="0px" viewBox="0 0 400 400"
	 style="enable-background:new 0 0 400 400;" xml:space="preserve">
<path d="M236.5,167.3h79.3c5,0,9.1-4.1,9.1-9.1v-22.6c0,0-0.5-21.9-4.9-40.1c-2.3-9.8-6.1-19.9-10.7-27.8
	C298.6,49.4,289,37,265.4,22.1S215.4,5,202.8,5c-33.3,0-58.8,10.9-77,25C89.7,58.1,79.6,104.6,77,122.5c-0.5,3.4,0.6,6.7,2.6,9.5
	c8.4,11.7-17.4,64.9,4.8,66.3c24.8-4.3-20.5-67.5,28.2-108.8c4-3.2,8.4-6.4,13.3-9.6c10.9-6.9,24.5-13.1,38.3-17.2
	c4.1-0.3,2.6,2.8-1.5,7.6c-2.8,3.3-6,6.2-9.3,9c-6.6,5.4-13.9,13.1-23.4,24.7c-14.3,17.5-22.5,41.5-22.5,66.5c0,6.7,0,18.9,3.4,31.4
	c3.2,11.6,9.7,23.4,15.6,32.3c16.9,25.2,42.1,35.9,54.1,39.9c13.8,4.5,28.1,5.7,41.6,5.7c15,0,28.2-1.9,39.2-4.6
	c2-0.5,4.2-0.5,6.1,0.3c20.8,8-14.6,69.4,12.4,70c21.9,0.7-17-47,15.7-81.5c2.8-2.9,4.4-6.8,4.4-10.8l0-44.3c0-2.6-3-4-4.9-2.3
	c-9.5,7.9-32.7,23.4-69.7,23.4c-5.1,0-9.9-0.3-14.4-0.8c-5.6-0.6-10.9-3.1-14.7-7.2c-8.6-9.1-7-22.7,1.2-34.5
	C206.3,174.6,221,167.3,236.5,167.3z M151.2,114.8c0.3-1.4,1.4-2.6,2.9-2.9c5.6-1.1,12.6,5.5,7,5.5h-7.9
	C151.8,117.4,150.9,116.2,151.2,114.8C151.2,114.9,151.2,114.9,151.2,114.8z M188.3,58.3c2.2-0.6,4.4-0.8,6.7-0.8c0.4,0,0.7,0,1,0
	c47.4,0,53.7,37.8,54.3,53.3c0.1,3.6-2.7,6.6-6.3,6.6h-50.9c-4.2,0-8.4-0.6-12.4-1.9c-9.7-3.2-15-9.2-16.1-18.6
	c-0.8-6.9,1-13.9,4.7-19.8c1.9-3,3.9-6.2,6.2-9.7C178.2,62.8,182.5,59.8,188.3,58.3z M156.9,167.3h21.7c2.1,0,4.1,0.7,5.6,2.2
	c9.3,9.5-10.3,37.8-24.7,26.8c-2.3-1.7-3.9-4.2-4.9-6.9c-2.2-6.1-3.2-11.6-3.6-15.6C150.7,170.4,153.4,167.3,156.9,167.3z"/>
</svg>
