<?xml version="1.0" encoding="UTF-8" standalone="no"?>
<svg
   xmlns:dc="http://purl.org/dc/elements/1.1/"
   xmlns:cc="http://creativecommons.org/ns#"
   xmlns:rdf="http://www.w3.org/1999/02/22-rdf-syntax-ns#"
   xmlns:svg="http://www.w3.org/2000/svg"
   xmlns="http://www.w3.org/2000/svg"
   viewBox="0 0 533.33331 533.33331"
   height="533.33331"
   width="533.33331"
   xml:space="preserve"
   id="svg2"
   version="1.1"><metadata
     id="metadata8"><rdf:RDF><cc:Work
         rdf:about=""><dc:format>image/svg+xml</dc:format><dc:type
           rdf:resource="http://purl.org/dc/dcmitype/StillImage" /></cc:Work></rdf:RDF></metadata><defs
     id="defs6"><clipPath
       id="clipPath18"
       clipPathUnits="userSpaceOnUse"><path
         id="path16"
         d="M 0,400 H 400 V 0 H 0 Z" /></clipPath></defs><g
     transform="matrix(1.3333333,0,0,-1.3333333,0,533.33333)"
     id="g10"><g
       id="g12"><g
         clip-path="url(#clipPath18)"
         id="g14"><g
           transform="translate(147.1782,280.815)"
           id="g20"><path
             id="path22"
             style="fill:#000000;fill-opacity:1;fill-rule:nonzero;stroke:none"
             d="m 0,0 c 9.876,0.261 10.977,4.535 10.827,10.664 -0.414,16.837 -0.527,33.688 -0.15,50.526 0.267,11.913 1.688,23.808 2.272,35.72 0.276,5.629 4.242,8.206 11.097,8.239 19.278,0.093 38.561,0.072 57.836,-0.203 7.381,-0.105 12.198,-2.685 12.209,-9.075 C 94.12,77.877 94.61,59.885 94.605,41.892 94.602,30.418 94.237,18.938 93.636,7.474 c -0.265,-5.036 1.358,-7.933 8.913,-8.214 32.266,-1.202 64.516,-2.643 96.775,-3.963 3.095,-0.126 6.216,0.107 9.307,-0.04 18.883,-0.893 19.101,-0.898 20.909,-14.893 1.307,-10.114 2.693,-20.284 2.598,-30.422 -0.069,-7.337 -1.975,-14.754 -4.175,-21.942 -0.803,-2.625 -4.432,-5.033 -7.434,-6.953 -11.341,-7.251 -17.196,-15.739 -12.613,-27.166 1.253,-3.125 1.867,-6.401 2.661,-9.624 1.334,-5.418 -1.36,-11.866 -6.237,-16.701 -3.792,-3.761 -8.229,-6.421 -13.102,-6.916 -4.872,-0.496 -9.47,0.637 -12.112,1.684 -2.642,1.047 -10.712,5.038 -14.91,12.897 -3.984,7.457 -4.722,13.593 -0.171,21.185 7.611,12.698 4.54,17.291 -10.361,22.16 -16.79,5.486 -33.647,7.582 -51.657,5.424 -6.854,-0.822 -10.263,-2.791 -9.944,-8.598 0.54,-9.819 0.297,-19.678 -0.116,-29.507 -0.892,-21.262 -1.881,-42.527 -3.422,-63.765 -0.223,-3.071 -2.998,-6.474 -5.817,-8.922 -12.874,-11.178 -20.223,-22.779 -12.232,-38.091 6.285,-12.047 3.007,-20.423 -2.745,-26.075 -5.752,-5.652 -7.333,-6.833 -13.25,-8.916 -5.917,-2.084 -13.071,-3.523 -22.667,-0.584 -9.595,2.939 -12.513,6.635 -13.75,16.167 -1.236,9.531 0.285,13.019 6.033,19.703 6.594,7.667 5.358,14.521 1.14,21.75 -4.931,8.452 -10.66,16.638 -15.852,25.007 -1.005,1.62 -1.602,3.553 -1.584,5.338 0.285,28.755 0.551,57.512 1.228,86.263 0.119,5.033 -1.906,7.179 -8.591,7.7 -18.075,1.411 -28.896,-6.659 -38.534,-16.285 -3.529,-3.524 -7.809,-7.128 -9.262,-11.199 -1.829,-5.124 -3.301,-11.363 -1.039,-16.058 4.811,-9.983 3.862,-22.871 -1.122,-29.594 -4.984,-6.724 -11.727,-11.611 -25.25,-10.375 -13.974,1.276 -17.77,3.675 -20.52,10.175 -2.75,6.5 -2.08,15.918 -0.292,20.067 4.591,10.657 7.336,19.061 -0.188,31.133 -4.866,7.807 -10.7,14.44 -15.375,20.875 -2.983,4.105 -6.023,6.739 -13.149,8.287 -1.147,0.25 -2.227,2.395 -2.226,3.664 0.021,16.926 0.239,33.852 0.421,50.778 0.005,0.464 0.021,1.077 0.1,1.542 2.229,13.112 2.36,13.161 19.76,13.503 14.906,0.292 32.35,0.06 44.802,0.309 C -48.963,-1.469 -9.876,-0.261 0,0" /></g></g></g></g></svg>