<?xml version="1.0" encoding="utf-8"?>
<!-- Generator: Adobe Illustrator 23.0.6, SVG Export Plug-In . SVG Version: 6.00 Build 0)  -->
<svg version="1.1"
	 id="svg4" xmlns:cc="http://creativecommons.org/ns#" xmlns:dc="http://purl.org/dc/elements/1.1/" xmlns:inkscape="http://www.inkscape.org/namespaces/inkscape" xmlns:rdf="http://www.w3.org/1999/02/22-rdf-syntax-ns#" xmlns:sodipodi="http://sodipodi.sourceforge.net/DTD/sodipodi-0.dtd" xmlns:svg="http://www.w3.org/2000/svg"
	 xmlns="http://www.w3.org/2000/svg" xmlns:xlink="http://www.w3.org/1999/xlink" x="0px" y="0px" viewBox="0 0 400 400"
	 style="enable-background:new 0 0 400 400;" xml:space="preserve">
<path d="M140,81.9c1.8,18.5,3.5,36.9,5.3,55.6c0.1,1.1,1.6,1.4,2.1,0.4c2.4-4.4,4.5-8.6,7.4-12.2c3.3-4.1,7.5-7.8,11.9-10.5
	c5.9-3.4,13.7-0.2,15.6,5.8c0.2,0.5,0.2,1.1,0,1.8c-0.5,2.6-3.7,3.6-5.4,1.7c0,0,0,0,0,0c-4-5-6.4-5.6-10.9-1.2
	c-8.3,8-12.9,18-14.7,29.3c0,0.2,0,0.3,0,0.5c-0.2,4.1,4.6,6.6,8.1,4.3c0.1-0.1,0.2-0.1,0.3-0.2c5.9-4.4,9.6-10.5,11.7-17.6
	c0.2-0.7,0.7-1.2,1.4-1.7c1.7-1.4,4.4-0.7,5,1.4c0.1,0.3,0.1,0.6,0,0.8c-3.1,10.8-6.5,21.6-10.1,32.2c-0.1,0.2-0.2,0.4-0.4,0.6
	c-1.6,1.5-4.2,0.5-4.5-1.6c0-0.3-0.1-0.6,0-0.8c0.2-2.2,0.8-4.3,1.4-6.3c0.3-1-0.8-1.8-1.7-1.4l-11,5.1c-1.7,0.8-2.8,2.6-2.6,4.5
	c0.8,9.5,1.7,20,2.7,30.4c0.7,7.4,1.8,10.2,7.4,11.9c0.5,0.2,1,0.3,1.5,0.5c4.4,1.7,9.5,3.6,7.3,3.6c-2.3-0.5-4.6-1-6.9-1.6
	c-1.3-0.3-2.5,1-1.9,2.3c1.8,4.1,3.8,8.2,4.4,12.5c1.7,11.5,2.1,23.2,3.2,34.8c0.2,1.7,1.3,4,2.6,4.8c8.4,4.6,16.9,7.6,25.5,8.6
	c2.4,0.3,4.7,1.3,6.5,2.9c14.4,13.2-12.1,55.4,8.4,61.4c2,0.6,4.2,0.6,6.3,0.3c25.8-3.7-19.5-43.2,12.1-70.7c0.8-0.7,1.7-1.4,2.6-2
	c2.6-1.7,3.1-4,3.5-7.1c1.8-14.9-1.8-30.6,5.9-44.9c0.7-1.3-0.4-2.7-1.8-2.4c-12.5,2.8-25.1,4.3-37.2,4.3c-2.2,0-7.2-0.9-10-1.7
	c-1.7-0.5-3.1-1.1-1.6-1.1c1.4,0.1,2.7,0.2,4.1,0.3c15.3,1.1,30.4-0.3,45.2-4.3c5.5-1.5,7.8-5.1,8.1-10.5c0.3-5,1.1-9.9,1.7-15
	c1-8.9,2-17.7,3-26.8c0.1-1.2-1.2-2-2.2-1.3c-2.6,1.8-4.9,3.5-7.5,4.4c-2,0.6-4.3,0.1-6.7-0.4c-1-0.2-1.7-1.2-1.6-2.2
	c0.3-2.1,0.5-4.2,1.4-5.8c1.9-3.4,4.6-6.4,7-9.4c0.3-0.4,0.3-1,0-1.4l0,0c-0.3-0.4-0.9-0.5-1.3-0.3c-1.7,0.9-3.5,1.6-4.7,2.9
	c-2.6,3.1-5.2,6.4-7,10.1c-3,6.1-5.2,12.6-7.8,18.8c-1.1,2.7-2.2,6.9-6,5.3c-4.1-1.7-1.2-5.3-0.3-7.9c1.1-2.9,2.5-5.8,3.7-8.3
	c0.6-1.2-0.4-2.5-1.7-2.4c-2.9,0.4-5.9,0.8-8.8,1c-1.7,0.2-3.7-0.8-5.1-0.2c-4,1.9-6.8,1.4-8.1-2.3c-0.2-0.7-1.1-1-1.7-0.5
	c-1.6,1.2-3,2.4-4.7,2.8c-2.5,0.6-6,1-7.9-0.3c-1.5-1-2.1-4.9-1.6-7.1c1-4.5,3-8.8,4.7-13.1c1.1-2.6,2.4-6.7,5.5-5.3
	c2.7,1.2,0.8,5.1,0,7.5c-1.2,3.4-2.4,6.7-3.6,10.1c-0.3,0.7,0,1.6,0.7,2l0,0c0.6,0.4,1.3,0.3,1.9-0.1c1.8-1.5,3.9-2.8,5.1-4.7
	c2.4-3.6,3.7-7.8,6-11.4c0.7-1.1,2-1.9,3.2-2.7c0.5-0.4,1.3-0.1,1.4,0.6c0.3,1.5,0.7,2.9,0.5,4.3c-0.3,1.9-1.6,3.6-2.2,5.5
	c-0.8,2.4-1.5,5-2.4,7.7c-0.2,0.6,0.3,1.2,0.9,1.2c3.7-0.2,5.4-2.1,6.6-5.1c4.1-10.7,8.2-21.4,12.7-32c0.1-0.1,0.1-0.3,0.2-0.4
	c1.7-2.8,6.2-1,5.6,2.2c0,0.1-0.1,0.3-0.1,0.4c-3.7,9.8-7.8,19.3-11.7,28.9c-0.3,0.6-0.5,1.3-0.6,2c-0.3,1.3,1,2.4,2.2,1.8
	c5.5-2.8,9.9-6.2,11.7-12.4c0.4-1.2,1.4-2.1,2.5-3.1c0.8-0.8,2.2-0.8,3,0.1l0,0c0.9,1,2.4,1,3.4,0.1c0.3-0.3,0.7-0.6,1.1-0.9
	c3.3-2.1,6.8-4,10.3-0.7c3.6,3.4,0.9,6.7-1,9.7c-1.5,2.5-3.4,4.7-5.2,7.1c-0.3,0.4,0.2,1.1,0.7,0.8c4.7-2.5,10.1-4.5,10.9-10.7
	c2.3-17.6,4.3-35.2,6.4-52.8c0.5-4.3,0.8-8.6,1.2-13c0.1-1.4-1.2-2.5-2.5-2.2c-38.5,8.9-76.6,9-115.1-0.1
	C141.2,79.3,139.9,80.5,140,81.9z"/>
<path d="M226.5,81.9c9.8-1,19.4-3.2,29-5.1c1.1-0.2,2.2-0.8,3.2-1.5c1-0.6,1-2,0.1-2.6c-1.5-1-2.9-1.5-4.4-1.7
	c-10-1.3-20.2-2.2-30.3-3.5c-0.8-0.1-1.9-0.6-2.8-1.2c-0.9-0.6-1.3-1.7-1-2.7c2.5-8.5,2.7-18,9-25c2.5-2.8,5-5.6,7.5-8.4
	c0.6-0.7,1.4-1.3,2.2-1.8c11-6.1-6.9,33.9,5.6,34.3c16.6,0.1-1.9-31.8,9-50.7c0.7-1.1,0.4-2.6-0.5-3.5c-4.8-5-5.4-4.5-10.5,0.8
	c-3.2,3.4-6.2,7.1-9.7,10.1c-13,11.2-22.1,24.6-23.9,42.2c-0.4,4-2.6,5.5-6.9,5.6c-14,0.2-28,0.6-41.9,1.5c-6.5,0.4-12.9,2-19.4,3.2
	c-0.7,0.1-1.3,0.8-1.3,1.5l0,0c0,0.7,0.4,1.4,1.1,1.6c3.9,1.3,7.8,2.8,11.7,3.6C177.1,83.4,201.8,84.2,226.5,81.9z M216.8,77
	c-4.1,2.6-7.7,2.6-11.1,0c-0.6-0.4-0.3-1.3,0.4-1.3h10.3C217.1,75.7,217.4,76.6,216.8,77z"/>
</svg>
