<?xml version="1.0" encoding="utf-8"?>
<!-- Generator: Adobe Illustrator 23.0.1, SVG Export Plug-In . SVG Version: 6.00 Build 0)  -->
<svg version="1.1"
	 id="svg4" xmlns:cc="http://creativecommons.org/ns#" xmlns:dc="http://purl.org/dc/elements/1.1/" xmlns:inkscape="http://www.inkscape.org/namespaces/inkscape" xmlns:rdf="http://www.w3.org/1999/02/22-rdf-syntax-ns#" xmlns:sodipodi="http://sodipodi.sourceforge.net/DTD/sodipodi-0.dtd" xmlns:svg="http://www.w3.org/2000/svg"
	 xmlns="http://www.w3.org/2000/svg" xmlns:xlink="http://www.w3.org/1999/xlink" x="0px" y="0px" viewBox="0 0 400 400"
	 style="enable-background:new 0 0 400 400;" xml:space="preserve">
<sodipodi:namedview  bordercolor="#666666" borderopacity="1" fit-margin-bottom="50" fit-margin-left="0" fit-margin-right="0" fit-margin-top="0" gridtolerance="10" guidetolerance="10" id="namedview6" inkscape:current-layer="svg4" inkscape:cx="72.406898" inkscape:cy="101.47083" inkscape:pageopacity="0" inkscape:pageshadow="2" inkscape:window-height="705" inkscape:window-maximized="1" inkscape:window-width="1366" inkscape:window-x="-8" inkscape:window-y="245" inkscape:zoom="2" objecttolerance="10" pagecolor="#ffffff" showgrid="false">
	</sodipodi:namedview>
<g>
	<path d="M130.9,93c2.1,21.2,4,42.4,6.1,63.8c0.1,1.3,1.8,1.6,2.4,0.5c2.8-5.1,5.2-9.9,8.5-14c3.8-4.7,8.6-9,13.7-12
		c6.8-3.9,15.7-0.2,17.9,6.7c0.2,0.6,0.2,1.3,0.1,2c-0.5,2.9-4.3,4.2-6.2,1.9c0,0,0,0,0,0c-4.6-5.7-7.4-6.4-12.5-1.4
		c-9.5,9.2-14.8,20.7-16.9,33.6c0,0.2,0,0.4-0.1,0.5c-0.2,4.8,5.3,7.6,9.2,4.9c0.1-0.1,0.2-0.1,0.3-0.2c6.8-5.1,11-12,13.4-20.2
		c0.2-0.8,0.8-1.4,1.6-2c2-1.6,5-0.8,5.7,1.7c0.1,0.3,0.1,0.6,0,0.9c-3.6,12.4-7.5,24.8-11.6,37c-0.1,0.3-0.3,0.5-0.5,0.7
		c-1.8,1.7-4.8,0.6-5.2-1.9c-0.1-0.3-0.1-0.6,0-1c0.3-2.5,1-4.9,1.6-7.3c0.3-1.1-0.9-2.1-1.9-1.6l-12.6,5.8c-2,0.9-3.2,3-3,5.2
		c0.9,10.9,1.9,22.9,3.1,34.8c0.8,8.5,2.1,11.8,8.4,13.7c0.6,0.2,1.1,0.4,1.7,0.6c5.1,2,10.9,4.2,8.4,4.1c-2.7-0.6-5.3-1.2-7.9-1.9
		c-1.5-0.4-2.9,1.2-2.2,2.6c2.1,4.7,4.4,9.4,5.1,14.4c1.9,13.2,2.4,26.6,3.7,39.9c0.2,1.9,1.5,4.6,3,5.5c9.7,5.3,19.4,8.7,29.2,9.9
		c2.8,0.3,5.4,1.4,7.4,3.3c16.5,15.2-13.9,63.6,9.6,70.5c2.3,0.7,4.8,0.7,7.2,0.4c29.5-4.2-22.4-49.5,13.9-81.2c1-0.8,1.9-1.6,3-2.3
		c3-2,3.6-4.6,4-8.1c2-17.1-2-35.2,6.8-51.5c0.8-1.4-0.5-3.1-2.1-2.8c-14.4,3.2-28.8,5-42.6,5c-2.5,0-8.2-1-11.4-1.9
		c-1.9-0.5-3.6-1.3-1.8-1.3c1.6,0.1,3.1,0.3,4.7,0.4c17.5,1.3,34.9-0.3,51.9-4.9c6.3-1.7,8.9-5.9,9.3-12.1c0.4-5.7,1.3-11.4,2-17.2
		c1.2-10.2,2.3-20.3,3.4-30.8c0.2-1.4-1.4-2.3-2.6-1.5c-3,2.1-5.6,4-8.6,5c-2.3,0.7-5,0.1-7.6-0.4c-1.2-0.2-2-1.3-1.8-2.5
		c0.3-2.4,0.6-4.8,1.6-6.7c2.2-3.9,5.2-7.3,8-10.8c0.4-0.5,0.3-1.1,0-1.6l0,0c-0.4-0.4-1-0.5-1.5-0.3c-1.9,1-4.1,1.9-5.4,3.3
		c-3,3.6-6,7.4-8,11.6c-3.4,7-6,14.4-9,21.6c-1.3,3.1-2.5,7.9-6.9,6.1c-4.7-2-1.4-6.1-0.3-9.1c1.3-3.4,2.8-6.7,4.2-9.6
		c0.6-1.4-0.5-2.9-2-2.7c-3.4,0.4-6.7,0.9-10.1,1.2c-1.9,0.2-4.2-0.9-5.8-0.2c-4.6,2.1-7.8,1.6-9.3-2.7c-0.3-0.8-1.3-1.1-2-0.6
		c-1.8,1.3-3.5,2.7-5.3,3.2c-2.9,0.7-6.9,1.2-9.1-0.3c-1.7-1.2-2.4-5.6-1.8-8.2c1.2-5.2,3.4-10.1,5.4-15c1.3-3,2.7-7.7,6.3-6
		c3.1,1.4,1,5.8,0,8.6c-1.3,3.9-2.7,7.7-4.2,11.6c-0.3,0.9,0,1.8,0.8,2.3v0c0.7,0.4,1.5,0.4,2.1-0.1c2.1-1.7,4.5-3.2,5.9-5.4
		c2.7-4.1,4.3-8.9,6.9-13.1c0.8-1.3,2.3-2.2,3.7-3.1c0.6-0.4,1.5-0.1,1.6,0.6c0.4,1.7,0.8,3.4,0.6,5c-0.3,2.2-1.8,4.1-2.5,6.3
		c-1,2.8-1.8,5.7-2.7,8.8c-0.2,0.7,0.3,1.4,1,1.3c4.2-0.2,6.2-2.4,7.6-5.9c4.7-12.3,9.4-24.6,14.6-36.7c0.1-0.2,0.1-0.3,0.2-0.4
		c1.9-3.2,7.1-1.1,6.4,2.5c0,0.2-0.1,0.3-0.1,0.5c-4.2,11.2-9,22.1-13.4,33.2c-0.3,0.7-0.5,1.5-0.7,2.3c-0.4,1.5,1.2,2.8,2.6,2.1
		c6.4-3.2,11.4-7.1,13.4-14.2c0.4-1.3,1.6-2.5,2.8-3.6c1-0.9,2.5-0.9,3.4,0.1l0,0c1.1,1.1,2.8,1.2,3.9,0.2c0.4-0.3,0.8-0.7,1.3-1
		c3.8-2.4,7.8-4.6,11.8-0.8c4.1,3.9,1,7.7-1.1,11.1c-1.8,2.8-3.9,5.4-6,8.1c-0.4,0.5,0.2,1.2,0.8,0.9c5.4-2.9,11.6-5.2,12.5-12.3
		c2.6-20.2,4.9-40.4,7.3-60.6c0.6-4.9,1-9.9,1.3-14.9c0.1-1.6-1.3-2.9-2.9-2.5c-44.2,10.2-87.8,10.3-132.1-0.2
		C132.3,90.1,130.8,91.4,130.9,93z"/>
	<path d="M230.2,93c11.2-1.1,22.3-3.7,33.3-5.9c1.3-0.2,2.5-0.9,3.7-1.7c1.1-0.7,1.2-2.3,0.1-3c-1.7-1.2-3.3-1.8-5-1.9
		c-11.5-1.5-23.2-2.5-34.8-4c-0.9-0.1-2.2-0.7-3.2-1.4c-1-0.7-1.5-1.9-1.1-3.1c2.9-9.8,3.1-20.6,10.4-28.7c2.9-3.2,5.7-6.4,8.6-9.6
		c0.7-0.8,1.6-1.5,2.5-2.1c12.6-7-7.9,38.9,6.4,39.4c19.1,0.1-2.2-36.5,10.4-58.2c0.7-1.3,0.5-2.9-0.5-4c-5.5-5.8-6.2-5.2-12.1,1
		c-3.7,3.9-7.1,8.1-11.1,11.6c-14.9,12.9-25.4,28.2-27.4,48.4c-0.5,4.6-3,6.3-7.9,6.4c-16.1,0.2-32.1,0.7-48.1,1.7
		c-7.4,0.5-14.8,2.3-22.2,3.6c-0.9,0.2-1.5,0.9-1.5,1.7l0,0c0,0.8,0.5,1.6,1.3,1.8c4.5,1.4,8.9,3.2,13.5,4.1
		C173.5,94.8,201.8,95.7,230.2,93z M219,87.5c-4.7,3-8.8,3-12.8,0c-0.6-0.5-0.3-1.5,0.5-1.5h11.8C219.4,85.9,219.7,87,219,87.5z"/>
</g>
</svg>
