<?xml version="1.0" encoding="utf-8"?>
<!-- Generator: Adobe Illustrator 23.0.1, SVG Export Plug-In . SVG Version: 6.00 Build 0)  -->
<svg version="1.1"
	 id="svg8" xmlns:cc="http://creativecommons.org/ns#" xmlns:dc="http://purl.org/dc/elements/1.1/" xmlns:inkscape="http://www.inkscape.org/namespaces/inkscape" xmlns:rdf="http://www.w3.org/1999/02/22-rdf-syntax-ns#" xmlns:sodipodi="http://sodipodi.sourceforge.net/DTD/sodipodi-0.dtd" xmlns:svg="http://www.w3.org/2000/svg"
	 xmlns="http://www.w3.org/2000/svg" xmlns:xlink="http://www.w3.org/1999/xlink" x="0px" y="0px" viewBox="0 0 400 400"
	 style="enable-background:new 0 0 400 400;" xml:space="preserve">
<sodipodi:namedview  bordercolor="#666666" borderopacity="1" fit-margin-bottom="20" fit-margin-left="0" fit-margin-right="0" fit-margin-top="0" gridtolerance="10" guidetolerance="10" id="namedview10" inkscape:current-layer="svg8" inkscape:cx="2.5786516" inkscape:cy="64.855788" inkscape:pageopacity="0" inkscape:pageshadow="2" inkscape:window-height="705" inkscape:window-maximized="1" inkscape:window-width="1366" inkscape:window-x="-8" inkscape:window-y="245" inkscape:zoom="4" objecttolerance="10" pagecolor="#ffffff" showgrid="false">
	</sodipodi:namedview>
<g id="Layer_1">
</g>
<g>
	<path d="M58,14.7v256.5c0,5.5,4.5,10,10,10h194.6c4.3,0,8.7,0.5,12.8,1.7c55.9,15.9-0.3,113,35.3,112.3
		c27.4-3.1-21.4-87.7,22.1-110.5c5.7-3,9.3-8.8,9.3-15.2V14.7c0-5.5-4.5-10-10-10H68C62.4,4.7,58,9.2,58,14.7z M79.9,16.7h240.2
		c5.5,0,10,4.5,10,10V260c0,5.5-4.5,10-10,10H79.9c-5.5,0-10-4.5-10-10V26.7C69.9,21.1,74.4,16.7,79.9,16.7z"/>
	<path d="M194.7,82.8l0-9.4c0-2.9-2-5.5-4.9-6.2c-1.6-0.4-3.3-0.8-4.5-1c-3.8-0.6-7.5-0.6-12.5-0.6c-8.8,0-16.9,1.9-24.5,5
		c-7.5,3.1-13.8,8.2-18.8,13.8c-5,6.3-8.8,13.2-11.9,21.3s-4.4,17.6-4.4,27.6c0,11.3,1.9,21.3,5,30.1c3.1,8.2,7.5,15,12.5,20.7
		c5,5.6,11.3,9.4,18.2,11.9c6.9,2.5,14.4,3.8,21.9,3.8c4.4,0,8.2,0,11.9-0.6c2.8-0.5,5.9-1.3,8.4-2.2c1.4-0.5,2.3-1.8,2.3-3.2
		c0-3.5,0-10.4,0-14.3c0-1.5-1.4-2.6-2.8-2.4c-2.3,0.4-5.4,1-7.2,1.4c-2.5,0.6-6.3,0.6-10,0.6c-8.8,0-16.9-3.1-25.7-10
		c-8.2-6.9-12.5-19.4-12.5-37.6c0-15,3.8-27,10.7-35.1c3.5-4.1,7.6-7.3,12.3-9.4c2.9-1.3,6.3-1.6,9.3-0.5c18.5,7-7.5,52.6,11.1,57.9
		c1.5,0.4,3.1,0.5,4.7,0.1c16.5-4.1-13.9-46.6,7.2-55.1C193,88.2,194.7,85.6,194.7,82.8z"/>
	<path d="M274.9,107.6c-1.3-0.9-2.5-1.7-3.8-2.4c-5.4-4.2-32.7-14.6-37-32.6c-0.5-2.3-2.5-3.9-4.9-3.9c-3.6,0-8.8,0-12.7,0
		c-2.8,0-5,2.2-5,5v119.2c0,2.8,2.2,5,5,5h14c1.9,0,3.6-1,4.4-2.7c10.1-19.4,18.9-45.8,25.7-35.7c1.2,1.8,1.7,3.9,1.7,6.1v27.3
		c0,2.8,2.2,5,5,5h12c2.8,0,5-2.2,5-5v-57.1C284.3,121.4,281.2,112,274.9,107.6z M233.5,97.1c1.3-4.3,10.6,2.9,4.3,8.1
		c-0.7,0.4-1.4,0.9-2.2,1.4c-0.9,0.6-2.1,0-2.1-1.1V97.1z M232.8,153.1l-0.4-23.6c-0.1-3.5,1.9-6.8,5-8.4c0.6-0.3,1.2-0.6,1.8-0.9
		c3.1-0.6,5.6-1.3,8.8-1.3c5,0,8.2,1.3,10.7,4.4c0,0,0,0,0,0c1.4,1.7,1.9,4,1.4,6.2c-2.2,11.6-17.2,40.3-25.3,29.6
		C233.4,157.4,232.8,155.3,232.8,153.1z"/>
</g>
</svg>
