<?xml version="1.0" encoding="utf-8"?>
<!-- Generator: Adobe Illustrator 23.0.3, SVG Export Plug-In . SVG Version: 6.00 Build 0)  -->
<svg version="1.1"
	 id="Layer_1" xmlns:cc="http://creativecommons.org/ns#" xmlns:dc="http://purl.org/dc/elements/1.1/" xmlns:inkscape="http://www.inkscape.org/namespaces/inkscape" xmlns:rdf="http://www.w3.org/1999/02/22-rdf-syntax-ns#" xmlns:sodipodi="http://sodipodi.sourceforge.net/DTD/sodipodi-0.dtd" xmlns:svg="http://www.w3.org/2000/svg"
	 xmlns="http://www.w3.org/2000/svg" xmlns:xlink="http://www.w3.org/1999/xlink" x="0px" y="0px" viewBox="0 0 400 400"
	 style="enable-background:new 0 0 400 400;" xml:space="preserve">
<sodipodi:namedview  bordercolor="#666666" borderopacity="1" fit-margin-bottom="800" fit-margin-left="200" fit-margin-right="200" fit-margin-top="200" gridtolerance="10" guidetolerance="10" id="namedview5" inkscape:current-layer="Layer_1" inkscape:cx="3505.3201" inkscape:cy="1536.2604" inkscape:pageopacity="0" inkscape:pageshadow="2" inkscape:window-height="1017" inkscape:window-maximized="1" inkscape:window-width="1920" inkscape:window-x="1912" inkscape:window-y="-8" inkscape:zoom="0.10786106" objecttolerance="10" pagecolor="#ffffff" showgrid="false" showguides="false">
	</sodipodi:namedview>
<path d="M358.3,71.4L358.3,71.4c-1.4-3.6-5.6-5.3-8.9-3.9c-2.5,1.1-4.2,3.6-4.2,6.1c0,0.8,0,1.7,0.6,2.2c6.4,17,10,35.4,10,54.9
	c0,69.5-45.7,128.7-108.8,148.4c-1.2,0.4-2.4,0.4-3.6,0.2c-7.3-1.6,4-11.9,17.3-19.1c48.5-22.7,82.2-72,82.2-129.5
	C343,77,313.2,29.8,269.1,5.6c-3.3-1.9-7.5-0.6-9.2,3.1c-0.6,0.8-0.6,1.9-0.6,3.1c0,2.5,1.4,4.7,3.3,5.8
	c39.9,22,66.9,64.7,66.9,113.4c0,0.3,0,0.5,0,0.8c-4.1,25.1-47.7-7.6-52-32c-3.1-24.6-52.2-92.8-75.7-94.5h-4.5
	c-8.1,0.6-19.4,9.1-30.7,21.1c-14,11.7-26.6,4.4-26.3-14.6c0-0.9-0.1-1.7-0.4-2.6c-0.1-0.2-0.2-0.4-0.3-0.7
	c-0.8-2.5-3.3-3.9-5.9-3.9c-1.1,0-2.2,0.3-3.3,0.8C96,24.6,70.1,57.8,60.7,97.3c-0.3,1.3-0.8,2.5-1.5,3.6
	c-5.3,8.3-5.6-13.6-4.5-24.8c0.1-0.6,0.2-1.3,0.2-1.9c0.4-2.9-1.3-5.8-4.1-7c-0.8-0.3-1.7-0.6-2.5-0.6c-2.8,0-5.3,1.7-6.4,4.5
	c-7.2,18.7-11.1,38.8-11.1,59.6c0,71,43.6,131.7,105.6,156.8c47.7,25.5-12,104.8,27.9,107.8c32.9-1.3-21.2-81.5,22.9-94.4
	c3.4-1,5.7-4.2,5.7-7.7l0-33.7c0-2,0.4-4,1.1-5.8c4.7-11.7,11.5,14.3,12.7,25.6c0.1,0.7,0.1,1.4,0.1,2.1v13.1c0,2.9,2.4,5.1,5.3,4.9
	c87.8-6.2,156.9-79.3,156.9-168.6C368.9,109.8,365.3,89.8,358.3,71.4z M159,163.6c3.9,0,7.2,1.7,9.8,4.2c2.5,2.5,4.2,5.8,4.2,9.8
	c-0.3,3.9-1.7,7.3-4.2,9.8c-2.5,2.5-5.8,4.2-9.8,4.2c-3.9,0-7.2-1.7-9.8-4.2c-2.8-2.5-4.2-5.9-4.2-9.8c0-3.9,1.7-7.3,4.2-9.8
	C151.8,165.3,155.1,163.6,159,163.6z M111.8,35.8c0.9-0.9,2-1.7,3.1-2.3c13.7-8.2,23.3,10.7,18.2,34.8c-0.9,4.2-2.4,8.4-4.3,12.2
	c-4.4,8.8-7,16.5-7,21.6v8.6c0,14.2,19.5,3.4,25.5,44c0.4,3-0.7,6-2.8,8c-4.1,3.8-6.5,9.2-6.5,15.2c0,8.2,4.8,15.2,11.8,18.7
	c1.7,0.8,2.7,2.6,2.7,4.4v43.2c0,3.6-3.8,6-7.1,4.5c-44.2-20.6-75.2-65.5-75.2-117.7C70.1,93.4,86.2,59.5,111.8,35.8z M179.6,279.4
	c0,3.1-2.8,5.4-5.8,4.9c-65.3-11.1-116.6-62.7-127.3-128.1c-0.5-2.8-0.2-5.6,0.7-8.3c4.4-12.6,11.6,16.1,17.3,29.6
	c15.1,43.6,50.6,77.5,95.1,90.6c3.2,0.9,6.3-1.5,6.3-4.8v-47.9c0-3.3,3.1-5.7,6.3-4.8c1.2,0.3,2.4,0.6,3.6,0.9
	c2.2,0.5,3.8,2.5,3.8,4.8V279.4z M207,239.3c0,1.3-0.3,2.5-0.9,3.6c-4,7.2-9.6-12.7-12.7-27.2c-0.2-0.8,0.5-1.6,1.3-1.5
	c2.9,0.1,7.3,0.1,7.3,0.1c2.8-0.1,5,2.2,5,5V239.3z M252.2,154.6c0.1-0.6,0.2-1.3,0.3-1.9c0.7-4.5,2.8-8.6,5.9-11.8
	c19.1-19.2,50.4,21.8,45.1,57.5c-1.4,9.7-6.1,18.7-13.1,25.5c-10.4,10.2-22.6,18.6-36,24.8c-3.3,1.5-7.1-0.9-7.1-4.5v-40.6
	c0-3.2,1.7-6.2,4.4-7.9c6-3.5,10.1-10.1,10.1-17.8c0-6.2-2.4-11.5-6.6-15.2C252.9,160.6,251.8,157.6,252.2,154.6z M234.3,249
	c0,0.4,0,0.9-0.1,1.3c-1.4,10.6-11.7,16.9-13.4,9.6c-0.1-0.6-0.2-1.1-0.2-1.7v-42.1c0-2.3,1.6-4.3,3.8-4.8c1.2-0.3,2.4-0.6,3.6-0.9
	c3.2-0.9,6.3,1.5,6.3,4.8V249z M231.2,187.3c-2.5-2.5-4.2-5.9-4.2-9.8c0-3.9,1.7-7.3,4.2-9.8c2.5-2.5,5.8-4.2,9.8-4.2
	c3.9,0,7.2,1.7,9.8,4.2c2.5,2.5,4.2,5.8,4.2,9.8c0,3.9-1.7,7.2-4.2,9.8c-2.5,2.5-5.8,4.2-9.8,4.2
	C237.1,191.5,233.7,189.8,231.2,187.3z"/>
</svg>
