<?xml version="1.0" encoding="utf-8"?>
<!-- Generator: Adobe Illustrator 23.0.6, SVG Export Plug-In . SVG Version: 6.00 Build 0)  -->
<svg version="1.1"
	 id="Layer_1" xmlns:cc="http://creativecommons.org/ns#" xmlns:dc="http://purl.org/dc/elements/1.1/" xmlns:inkscape="http://www.inkscape.org/namespaces/inkscape" xmlns:rdf="http://www.w3.org/1999/02/22-rdf-syntax-ns#" xmlns:sodipodi="http://sodipodi.sourceforge.net/DTD/sodipodi-0.dtd" xmlns:svg="http://www.w3.org/2000/svg"
	 xmlns="http://www.w3.org/2000/svg" xmlns:xlink="http://www.w3.org/1999/xlink" x="0px" y="0px" viewBox="0 0 400 400"
	 style="enable-background:new 0 0 400 400;" xml:space="preserve">
<path d="M328.6,74.4L328.6,74.4c-1.1-2.9-4.6-4.3-7.2-3.2c-2,0.9-3.4,2.9-3.4,5c0,0.7,0,1.4,0.5,1.8c5.2,13.8,8.1,28.8,8.1,44.6
	c0,56.5-37.1,104.6-88.4,120.6c-1,0.3-2,0.3-2.9,0.2c-5.9-1.3,3.3-9.7,14.1-15.5c39.4-18.4,66.8-58.5,66.8-105.2
	c0.1-43.6-24.1-82-60-101.6c-2.7-1.5-6.1-0.5-7.5,2.5c-0.5,0.7-0.5,1.5-0.5,2.5c0,2,1.1,3.8,2.7,4.7c32.4,17.9,54.4,52.6,54.4,92.1
	c0,0.2,0,0.4,0,0.7c-3.3,20.4-38.8-6.2-42.3-26c-2.5-20-42.4-75.4-61.5-76.8h-3.7c-6.6,0.5-15.8,7.4-24.9,17.1
	c-11.4,9.5-21.6,3.6-21.4-11.9c0-0.7-0.1-1.4-0.3-2.1c-0.1-0.2-0.2-0.3-0.2-0.6c-0.7-2-2.7-3.2-4.8-3.2c-0.9,0-1.8,0.2-2.7,0.7
	c-28,15.6-49,42.6-56.6,74.7c-0.2,1.1-0.7,2-1.2,2.9c-4.3,6.7-4.6-11.1-3.7-20.2c0.1-0.5,0.2-1.1,0.2-1.5c0.3-2.4-1.1-4.7-3.3-5.7
	c-0.7-0.2-1.4-0.5-2-0.5c-2.3,0-4.3,1.4-5.2,3.7c-5.9,15.2-9,31.5-9,48.4c0,57.7,35.4,107,85.8,127.4c38.8,20.7-9.8,85.2,22.7,87.6
	c26.7-1.1-17.2-66.2,18.6-76.7c2.8-0.8,4.6-3.4,4.6-6.3v-27.4c0-1.6,0.3-3.3,0.9-4.7c3.8-9.5,9.3,11.6,10.3,20.8
	c0.1,0.6,0.1,1.1,0.1,1.7v10.6c0,2.4,2,4.1,4.3,4c71.3-5,127.5-64.4,127.5-137C337.2,105.6,334.3,89.4,328.6,74.4z M166.7,149.3
	c3.2,0,5.9,1.4,8,3.4c2,2,3.4,4.7,3.4,8c-0.2,3.2-1.4,5.9-3.4,8s-4.7,3.4-8,3.4c-3.2,0-5.9-1.4-8-3.4c-2.3-2-3.4-4.8-3.4-8
	c0-3.2,1.4-5.9,3.4-8C160.8,150.7,163.5,149.3,166.7,149.3z M128.3,45.5c0.7-0.7,1.6-1.4,2.5-1.9c11.1-6.7,18.9,8.7,14.8,28.3
	c-0.7,3.4-2,6.8-3.5,9.9c-3.6,7.2-5.7,13.4-5.7,17.6v7c0,11.5,15.8,2.8,20.7,35.8c0.3,2.4-0.6,4.9-2.3,6.5
	c-3.3,3.1-5.3,7.5-5.3,12.4c0,6.7,3.9,12.4,9.6,15.2c1.4,0.7,2.2,2.1,2.2,3.6v35.1c0,2.9-3.1,4.9-5.8,3.7
	c-35.9-16.7-61.1-53.2-61.1-95.6C94.4,92.3,107.5,64.7,128.3,45.5z M183.4,243.4c0,2.5-2.3,4.4-4.7,4c-53.1-9-94.7-50.9-103.4-104.1
	c-0.4-2.3-0.2-4.6,0.6-6.7c3.6-10.2,9.4,13.1,14.1,24.1c12.3,35.4,41.1,63,77.3,73.6c2.6,0.7,5.1-1.2,5.1-3.9v-38.9
	c0-2.7,2.5-4.6,5.1-3.9c1,0.2,2,0.5,2.9,0.7c1.8,0.4,3.1,2,3.1,3.9L183.4,243.4L183.4,243.4z M205.7,210.8c0,1.1-0.2,2-0.7,2.9
	c-3.3,5.9-7.8-10.3-10.3-22.1c-0.2-0.7,0.4-1.3,1.1-1.2c2.4,0.1,5.9,0.1,5.9,0.1c2.3-0.1,4.1,1.8,4.1,4.1L205.7,210.8L205.7,210.8z
	 M242.4,142c0.1-0.5,0.2-1.1,0.2-1.5c0.6-3.7,2.3-7,4.8-9.6c15.5-15.6,41,17.7,36.6,46.7c-1.1,7.9-5,15.2-10.6,20.7
	c-8.5,8.3-18.4,15.1-29.3,20.2c-2.7,1.2-5.8-0.7-5.8-3.7v-33c0-2.6,1.4-5,3.6-6.4c4.9-2.8,8.2-8.2,8.2-14.5c0-5-2-9.3-5.4-12.4
	C243,146.9,242.1,144.4,242.4,142z M227.9,218.7c0,0.3,0,0.7-0.1,1.1c-1.1,8.6-9.5,13.7-10.9,7.8c-0.1-0.5-0.2-0.9-0.2-1.4V192
	c0-1.9,1.3-3.5,3.1-3.9c1-0.2,2-0.5,2.9-0.7c2.6-0.7,5.1,1.2,5.1,3.9L227.9,218.7L227.9,218.7z M225.3,168.6c-2-2-3.4-4.8-3.4-8
	c0-3.2,1.4-5.9,3.4-8c2-2,4.7-3.4,8-3.4c3.2,0,5.9,1.4,8,3.4c2,2,3.4,4.7,3.4,8c0,3.2-1.4,5.9-3.4,8c-2,2-4.7,3.4-8,3.4
	C230.1,172,227.4,170.6,225.3,168.6z"/>
</svg>
