<?xml version="1.0" encoding="utf-8"?>
<!-- Generator: Adobe Illustrator 23.0.6, SVG Export Plug-In . SVG Version: 6.00 Build 0)  -->
<svg version="1.1" id="Layer_1" xmlns="http://www.w3.org/2000/svg" xmlns:xlink="http://www.w3.org/1999/xlink" x="0px" y="0px"
	 viewBox="0 0 400 400" enable-background="new 0 0 400 400" xml:space="preserve">
<path d="M200.1,12.8c43.3,0,86.6,0,129.9,0c6.9,0,7.6,0.6,7.6,7.6c0,80.8,0,161.7,0,242.5c0,1.8,0.3,3.7-0.3,5.3
	c-0.5,1.4-1.9,3.2-3.2,3.6c-7.8,2.3-12.5,7.2-13,15.5c-0.4,6.2,0.1,12.4,0.4,18.6c0.5,7.8,0.8,15.5-2.9,22.7
	c-3,5.8-7.4,9.7-14.4,9.2c-6.8-0.5-10.4-5-11.9-10.9c-1.3-5-1.5-10.3-2.1-15.5c-0.5-4.2-0.4-8.6-1.2-12.7c-0.4-1.9-1.4-5.1-3.8-5.3
	c-2.4-0.2-3.3,3.1-3.7,5c-1,4.4-1.2,9-1.6,13.5c-0.7,8.8-0.5,17.7-2.2,26.3c-2.6,13.2-13.3,21-25.8,20.4
	c-10.8-0.5-19.1-8.5-18.7-19.2c0.3-7,2.6-14,4-21c1.2-5.8,2.8-11.5,3.5-17.4c1.2-10-1.9-18.9-9-26c-1.4-1.4-3.2-2.6-5.7-2.6
	c-2.5,0-57.7-0.2-86.5,0c-7.1,0-12,4.7-14.3,10.9c-2.2,6-3.1,12.5-3.7,18.9c-0.9,10.1-1.5,20.1-7.2,29c-4.3,6.7-10,11.5-18.2,12.4
	c-10.6,1.1-19.2-6.3-19.2-17.4c0-6.1,1.6-12.2,2.7-18.3c1.2-6.8,3.6-13.4,1.7-20.4c-2.2-7.9-6.3-13.9-15.2-15.4
	c-1.4-0.2-3.5-1.3-3.5-3.8s-0.2-2.4-0.2-3.7c0-81.3,0-162.5,0-243.8c0-7.5,0.3-7.7,7.6-7.7C113.4,12.8,156.7,12.8,200.1,12.8z"/>
</svg>
