<?xml version="1.0" encoding="utf-8"?>
<!-- Generator: Adobe Illustrator 23.0.6, SVG Export Plug-In . SVG Version: 6.00 Build 0)  -->
<svg version="1.1"
	 id="svg4" xmlns:cc="http://creativecommons.org/ns#" xmlns:dc="http://purl.org/dc/elements/1.1/" xmlns:inkscape="http://www.inkscape.org/namespaces/inkscape" xmlns:rdf="http://www.w3.org/1999/02/22-rdf-syntax-ns#" xmlns:sodipodi="http://sodipodi.sourceforge.net/DTD/sodipodi-0.dtd" xmlns:svg="http://www.w3.org/2000/svg"
	 xmlns="http://www.w3.org/2000/svg" xmlns:xlink="http://www.w3.org/1999/xlink" x="0px" y="0px" viewBox="0 0 400 400"
	 style="enable-background:new 0 0 400 400;" xml:space="preserve">
<style type="text/css">
	.st0{fill:#000008;}
</style>
<path class="st0" d="M152.7,245.8l8-3.3c1.7-0.7,3.6-0.9,5.4-0.3c12.7,4.3-6,40.1,7.6,40.9c12.8-0.5-6.5-33.7,6.5-48
	c0.6-0.6,0.9-1.5,0.9-2.4v-40.3c0-2.4-2.5-4.1-4.7-3.3l-26.3,10c-1.4,0.5-2.3,1.8-2.3,3.3v40.1C147.9,245,150.4,246.7,152.7,245.8z"
	/>
<path class="st0" d="M118.9,111.8l-15.8-6.8c-0.9-0.4-1.9-0.4-2.8,0l-16.3,7c-2.8,1.2-2.8,5.2,0,6.4l14.6,6.2
	c0.8,0.4,1.7,0.4,2.6,0.1l17.5-6.5C121.7,117.1,121.8,113,118.9,111.8z"/>
<path class="st0" d="M204,109.7c-2.8-2.9-4.8-6-0.1-5.6l9,2.6c2.2,0.6,4.4-1,4.5-3.3l0.9-37.4c0-1.4-0.8-2.8-2.1-3.3l-25.4-10.6
	c-2.3-1-4.8,0.7-4.8,3.2v41.2c0,1.4,0.8,2.6,2,3.2c5.8,2.8,12.6,7.9,6.3,7c-1.4-0.2-2.7-0.6-4-1.2c-2.4-1-4.5-1.9-5.8-2.5
	c-0.9-0.4-1.9-0.4-2.8,0l-16.3,7c-2.8,1.2-2.8,5.2,0,6.4l14.6,6.2c0.8,0.4,1.7,0.4,2.6,0.1l20.3-7.5
	C205,114.6,205.7,111.5,204,109.7z"/>
<path class="st0" d="M238.1,43.2l-15.8-6.8c-0.9-0.4-1.9-0.4-2.8,0l-16.4,7c-2.8,1.2-2.8,5.2,0,6.4l14.7,6.2
	c0.8,0.3,1.7,0.4,2.6,0.1l17.5-6.5C240.9,48.6,241,44.4,238.1,43.2z"/>
<path class="st0" d="M304.8,64.5v40.1c0,2.5,2.5,4.2,4.8,3.2l26.3-10.7c1.3-0.5,2.2-1.8,2.2-3.2V54.4c0-2.4-2.5-4.1-4.7-3.3
	l-26.3,10C305.7,61.7,304.8,63,304.8,64.5z"/>
<path class="st0" d="M298.8,36.4l-16.3,7c-2.8,1.2-2.8,5.2,0,6.4l14.6,6.2c0.8,0.4,1.7,0.4,2.6,0.1l17.5-6.5c3-1.1,3.1-5.2,0.2-6.5
	l-15.8-6.8C300.7,36.1,299.7,36.1,298.8,36.4z"/>
<path class="st0" d="M261.8,64.9c-1.1,3.2-3.2-2.4-4.8-8.1c-0.6-2-2.8-3.1-4.7-2.3l-23.9,10.2c-1.3,0.5-2.1,1.8-2.1,3.2V108
	c0,2.5,2.6,4.2,4.9,3.2l22.8-10.4c1.2-0.6,2-1.8,2-3.2V71c0-0.5,0.1-1.1,0.3-1.6c1.7-4.2,5.1,12.5,5.2,19.9l0.1-2.9l-0.2,10.1
	c0,1,0.4,2,1.1,2.6c45,41.9-10.1,91.8,20.9,96.5c28-0.2-12.2-66,13.1-80.4c1.1-0.6,1.7-1.8,1.7-3v-46c0-1.4-0.9-2.7-2.2-3.2
	L267,51.2c-2.3-0.9-4.7,0.7-4.8,3.2l-0.2,8.9C262.1,63.8,262,64.4,261.8,64.9z"/>
<path class="st0" d="M99.9,180v-45.4c0-1.4-0.9-2.7-2.2-3.2l-29.1-11.6c-2.3-0.9-4.7,0.7-4.8,3.2l-0.7,41.4c0,1.3,0.7,2.6,1.9,3.2
	c27.1,13.7,33,19.7,38.1,40.1c1.2,4.8,1.8,9.7,1.7,14.7l-0.2,11.4c0,1.4,0.8,2.7,2.1,3.3l29.8,13.1c2.3,1,4.9-0.7,4.9-3.2v-42.8
	c0-1.4-0.9-2.7-2.2-3.2l-30.9-12.3c-1.4-0.6-3-0.1-4,1.1c-1.1,1.3-2.2-0.3-3-2.2C100.4,185.1,99.9,182.6,99.9,180z"/>
<path class="st0" d="M181.1,150.5v-17.7c0-1.4-0.9-2.7-2.2-3.2L149.8,118c-2.3-0.9-4.7,0.7-4.8,3.2l-0.6,34.8
	c-2.8,6.4-3.9-5.2-4.7-11.6V123c0-2.4-2.4-4.1-4.7-3.3l-26.3,10c-1.4,0.5-2.3,1.8-2.3,3.3v40.1c0,2.5,2.5,4.2,4.8,3.2l22.1-9
	c0.9-0.3,1.8-0.4,2.7,0c2.5,1.1,1.9,4.6-0.3,7.7c-1.5,2.1-3.6,3.7-6,4.7l-4,1.7c-2.8,1.2-2.8,5.2,0,6.4l14.6,6.2
	c0.8,0.4,1.7,0.4,2.6,0.1l17.5-6.5c3-1.1,3.1-5.2,0.2-6.5c-3.1-1.3-6.5-2.8-9.5-4.1c-0.6-0.3-1.2-0.6-1.8-0.9
	c-8.5-5.2-10.1-10.2-2.9-9.5c2,0.2,3.9,0.7,5.6,1.5l24.5,10.8c2.2,1,4.7-0.5,4.9-2.9c0.7-10.2,2.6-19.8,5.2-15.7
	c0.6,1,0.9,2.2,0.9,3.4v7.6c0,2.5,2.5,4.2,4.8,3.2l26.3-10.7c1.3-0.5,2.2-1.8,2.2-3.2v-39.4c0-2.4-2.5-4.1-4.7-3.3l-26.4,10
	c-1.3,0.5-2.2,1.7-2.2,3.1C186.9,142.6,182.7,157.1,181.1,150.5z"/>
</svg>
