<?xml version="1.0" encoding="utf-8"?>
<!-- Generator: Adobe Illustrator 23.0.1, SVG Export Plug-In . SVG Version: 6.00 Build 0)  -->
<svg version="1.1"
	 id="svg4" inkscape:version="0.92.1 r15371" sodipodi:docname="amazonwebservices.svg" xmlns:cc="http://creativecommons.org/ns#" xmlns:dc="http://purl.org/dc/elements/1.1/" xmlns:inkscape="http://www.inkscape.org/namespaces/inkscape" xmlns:rdf="http://www.w3.org/1999/02/22-rdf-syntax-ns#" xmlns:sodipodi="http://sodipodi.sourceforge.net/DTD/sodipodi-0.dtd" xmlns:svg="http://www.w3.org/2000/svg"
	 xmlns="http://www.w3.org/2000/svg" xmlns:xlink="http://www.w3.org/1999/xlink" x="0px" y="0px" viewBox="0 0 400 400"
	 style="enable-background:new 0 0 400 400;" xml:space="preserve">
<style type="text/css">
	.st0{fill:#000008;}
</style>
<sodipodi:namedview  bordercolor="#666666" borderopacity="1" gridtolerance="10" guidetolerance="10" id="namedview6" inkscape:current-layer="svg4" inkscape:cx="1.6736559" inkscape:cy="100.62337" inkscape:pageopacity="0" inkscape:pageshadow="2" inkscape:window-height="1017" inkscape:window-maximized="1" inkscape:window-width="1920" inkscape:window-x="1358" inkscape:window-y="-8" inkscape:zoom="4" objecttolerance="10" pagecolor="#ffffff" showgrid="false">
	</sodipodi:namedview>
<g>
	<path class="st0" d="M132.4,321.8l11.3-4.6c2.4-1,5.1-1.2,7.6-0.4c18,6.1-8.5,56.7,10.8,57.8c18-0.7-9.2-47.6,9.2-67.8
		c0.8-0.9,1.3-2.1,1.3-3.3l0-57c0-3.5-3.5-5.8-6.7-4.6l-37.2,14.2c-1.9,0.7-3.2,2.6-3.2,4.6v56.6
		C125.6,320.8,129.1,323.2,132.4,321.8z"/>
	<path class="st0" d="M84.7,132.6L62.4,123c-1.2-0.5-2.7-0.5-3.9,0l-23.1,9.9c-4,1.7-4,7.4,0,9.1l20.6,8.8c1.2,0.5,2.5,0.5,3.6,0.1
		l24.8-9.1C88.7,140.2,88.8,134.3,84.7,132.6z"/>
	<path class="st0" d="M204.8,129.7c-4-4.1-6.7-8.5-0.2-7.8l12.7,3.7c3.1,0.9,6.2-1.4,6.3-4.6l1.2-52.8c0-2-1.2-3.9-3-4.7l-35.9-15
		c-3.3-1.4-6.8,1-6.8,4.6l0,58.1c0,1.9,1.1,3.6,2.8,4.5c8.2,3.9,17.7,11.2,9,9.9c-2-0.3-3.9-0.9-5.7-1.6c-3.4-1.5-6.3-2.7-8.1-3.5
		c-1.2-0.5-2.6-0.5-3.9,0l-23.1,9.9c-4,1.7-4,7.4,0,9.1l20.6,8.8c1.2,0.5,2.5,0.5,3.6,0.1l28.6-10.6
		C206.3,136.5,207.3,132.3,204.8,129.7z"/>
	<path class="st0" d="M252.9,35.8l-22.3-9.6c-1.2-0.5-2.6-0.5-3.9,0l-23.2,9.9c-4,1.7-4,7.4,0,9.1l20.7,8.8c1.2,0.5,2.5,0.5,3.6,0.1
		l24.8-9.1C256.9,43.4,257,37.5,252.9,35.8z"/>
	<path class="st0" d="M347.1,65.8v56.6c0,3.5,3.5,5.9,6.8,4.6l37.2-15.1c1.9-0.8,3.1-2.6,3.1-4.6V51.6c0-3.5-3.5-5.8-6.7-4.6
		l-37.2,14.2C348.4,61.9,347.1,63.8,347.1,65.8z"/>
	<path class="st0" d="M338.7,26.2l-23.1,9.9c-4,1.7-4,7.4,0,9.1l20.6,8.8c1.2,0.5,2.5,0.5,3.6,0.1l24.8-9.1c4.2-1.5,4.3-7.4,0.2-9.2
		l-22.3-9.6C341.4,25.7,340,25.7,338.7,26.2z"/>
	<path class="st0" d="M286.5,66.4c-1.5,4.5-4.6-3.3-6.7-11.4c-0.8-2.9-3.9-4.4-6.7-3.3l-33.7,14.4c-1.8,0.8-3,2.6-3,4.5v56.7
		c0,3.6,3.7,6,7,4.5l32.2-14.6c1.8-0.8,2.9-2.6,2.9-4.5V75c0-0.7,0.1-1.5,0.4-2.2c2.5-5.9,7.1,17.7,7.4,28.1l0.1-4.1l-0.2,14.3
		c0,1.4,0.6,2.8,1.6,3.7c63.5,59.1-14.2,129.6,29.5,136.2c39.5-0.2-17.2-93.2,18.5-113.6c1.5-0.9,2.5-2.5,2.5-4.3l0-65
		c0-2-1.2-3.8-3.1-4.6l-41.1-16.4c-3.2-1.3-6.7,1-6.8,4.5l-0.2,12.5C286.9,64.9,286.8,65.7,286.5,66.4z"/>
	<path class="st0" d="M57.9,229v-64.1c0-2-1.2-3.8-3.1-4.6l-41.1-16.4c-3.2-1.3-6.7,1-6.8,4.5l-1,58.5c0,1.9,1,3.6,2.7,4.5
		c38.2,19.3,46.5,27.8,53.8,56.6c1.7,6.8,2.5,13.7,2.4,20.7l-0.3,16.1c0,2,1.1,3.8,2.9,4.6l42.1,18.6c3.3,1.4,6.9-1,6.9-4.5V263
		c0-2-1.2-3.8-3.1-4.6L69.8,241c-2-0.8-4.3-0.1-5.7,1.6c-1.5,1.8-3-0.4-4.2-3.2C58.5,236.2,57.9,232.6,57.9,229z"/>
	<path class="st0" d="M172.5,187.3v-25c0-2-1.2-3.8-3.1-4.6l-41.1-16.4c-3.2-1.3-6.7,1-6.8,4.5l-0.9,49.2c-3.9,9-5.5-7.4-6.7-16.3
		v-30.3c0-3.5-3.5-5.8-6.7-4.6L70.1,158c-1.9,0.7-3.2,2.6-3.2,4.6v56.6c0,3.5,3.5,5.9,6.8,4.6l31.2-12.7c1.2-0.5,2.6-0.6,3.8,0
		c3.5,1.6,2.7,6.4-0.4,10.8c-2.1,3-5.1,5.2-8.5,6.7l-5.7,2.4c-4,1.7-4,7.4,0,9.1l20.6,8.8c1.2,0.5,2.5,0.5,3.6,0.1l24.8-9.1
		c4.2-1.5,4.3-7.4,0.2-9.2c-4.3-1.9-9.2-4-13.4-5.7c-0.9-0.4-1.7-0.8-2.5-1.3c-12-7.3-14.3-14.4-4.1-13.4c2.8,0.3,5.4,1,8,2.1
		l34.6,15.3c3.1,1.4,6.7-0.7,6.9-4.1c1-14.3,3.6-28,7.4-22.2c0.9,1.4,1.3,3.1,1.3,4.7v10.7c0,3.5,3.5,5.9,6.8,4.6l37.2-15.1
		c1.9-0.8,3.1-2.6,3.1-4.6v-55.7c0-3.5-3.5-5.8-6.7-4.6l-37.3,14.2c-1.8,0.7-3.1,2.4-3.2,4.4C180.7,176.1,174.8,196.7,172.5,187.3z"
		/>
</g>
</svg>
