<?xml version="1.0" encoding="utf-8"?>
<!-- Generator: Adobe Illustrator 23.0.6, SVG Export Plug-In . SVG Version: 6.00 Build 0)  -->
<svg version="1.1" id="Layer_1" xmlns="http://www.w3.org/2000/svg" xmlns:xlink="http://www.w3.org/1999/xlink" x="0px" y="0px"
	 viewBox="0 0 400 400" style="enable-background:new 0 0 400 400;" xml:space="preserve">
<path d="M282.1,86.1c-0.9-17.7-3-35.4-5-53C275,15,265.2,6,247,5.1c-7.1-0.4-14.1,0.1-21.2,0.3c-7.9,0.1-15.9,0.5-23.8,0.4
	c-15.3-0.2-30.6-0.9-45.9-0.8c-20.5,0.2-29.4,7.9-33.3,27.9c-0.2,1-0.3,2-0.4,3c-3.2,35.5-7.8,71-6.3,106.9c0,9.6-0.5,19.5,0.1,29.3
	c1.6,24.1,3.6,48.1,5.6,72.1c0.4,4.4,1.1,8.9,2.2,13.2c3.1,13.1,10.7,20.5,24.1,21.9c8.1,0.9,16.4,0.4,24.7,0.5
	c18.9,0.1,37.8,0,56.7,0.2c2.5,0,5.3,1.2,7.4,2.8c5.9,4.3,7,10.2,4.9,17c-1,3.3-2.1,6.6-2.7,10c-0.9,5.7,2,9.8,7.6,11.4
	c10.6,2.9,20.9-5.9,19.3-16.8c-0.5-3.4-1.9-6.6-3-9.9c-2.2-6.6-2.2-12.7,2.8-18.2c6.1-6.6,10.3-14.5,11.1-23.4
	c2.7-30.1,5.9-60.1,7-90.2C284.8,137.2,283.4,111.6,282.1,86.1z M199,266.4c-7.6-0.2-13.5-6.4-13.4-14c0.1-7.5,6-13.7,12.9-13.5
	c9.2,0.3,14.8,5.5,14.7,13.8C213.1,260.5,206.8,266.6,199,266.4z M258.4,162.9c-0.5,13.7-1.1,27.4-1.4,41.1
	c-0.1,6.6,0.3,13.2,0.6,19.8c0.1,3-1,4-4,4c-35.1-0.1-70.2-0.1-105.3,0c-2.9,0-4.2-0.9-4.1-3.9c0.1-4.5-0.1-9-0.4-13.4
	c-1.1-20.5-2.5-40.9-3.4-61.4c-0.3-6.3,0.5-12.7,0.7-19c0.9-28.7,1.8-57.5,2.7-86.2c0.1-4.6-0.1-11.7,0.7-12.9
	c0.9-1.2,2.9-0.3,4.3,0.3c5.2,2.2,6.9,5.4,7.4,11.8c0.3,4.3,0.5,8.7,1.1,12.9c0.5,3.5,2.4,6.5,6.3,6.8c3.9,0.3,6-2.5,7.2-5.8
	c1.3-3.7,2.1-9.2,2.8-10.1c0.8-0.9,2.3-0.6,3-0.3c2.7,1.1,4.5,1.6,5.9,1.3c2.4-0.5,3.5-3.2,5.2-8.9c1.9-6.6,5.8-9.7,12.5-9.7
	c17.2-0.2,34.3-0.2,51.5-0.5c3.3-0.1,4.2,1,4.3,4.2c0.5,24.1,1,48.3,1.7,72.4c0.3,9.2,1.4,18.5,1.5,27.7
	C259.3,143,258.7,153,258.4,162.9z"/>
</svg>
