<?xml version="1.0" encoding="utf-8"?>
<!-- Generator: Adobe Illustrator 21.1.0, SVG Export Plug-In . SVG Version: 6.00 Build 0)  -->
<!DOCTYPE svg PUBLIC "-//W3C//DTD SVG 1.1//EN" "http://www.w3.org/Graphics/SVG/1.1/DTD/svg11.dtd">
<svg version="1.1" id="Layer_1" xmlns="http://www.w3.org/2000/svg" xmlns:xlink="http://www.w3.org/1999/xlink" x="0px" y="0px"
	 viewBox="0 0 400 400" enable-background="new 0 0 400 400" xml:space="preserve">
<g>
	<path d="M233,104.4c0,3.6,0.1,20.6,0.1,28.8c0,8.2,0.7,9,9.8,9.6c2.1,0.2,4.2,0,6.2,0.1c7,0.2,10.2,4.6,7.3,10.9
		c-3.3,7.3-6.7,14.5-11,21.3c-7.8,12.4-16.4,24.2-24.4,36.5c-5.6,8.7-9.1,18.3-6.8,28.6c1.2,5.5,4.3,10.7,6.7,15.9
		c1,2.2,2.2,4.7,4,6.1c2.4,1.9,5.5,4.2,8.3,4.1c21.9-0.5,43.7-1.2,65.5-2.4c8.2-0.5,16.3-2.5,24.5-3.6c5.7-0.8,7.6-5.1,8.6-9.5
		c2.1-9.2,6-12.8,15.5-12.7c7.2,0.1,14.4,0.2,21.7,0.4c7.3,0.2,13.8,4.8,14.5,12c1.2,12.4,1.7,25,1.7,37.5c0,3.4-2,6.7-6.5,8.7
		c-9.6,4.2-16.6,12.1-19.6,22.2c-1.3,4.3-0.6,10.2,1.4,14.3c3.6,7.5,3.8,14.4,0.4,21.8c-4.7,10.4-18.5,11.9-25.9,2.9
		c-4.2-5.1-3.8-10.4-2.7-16.1c1.1-5.8,1.9-11.7,2.5-17.5c0.5-4.5-4.7-9.5-10.1-12.4c-12.2-6.6-25.1-4.8-38-4.5
		c-17,0.3-34,0.5-51.1,0.9c-7.2,0.2-14.3,1-21.5,1.2c-11.3,0.2-22.7,0.3-34,0c-27.1-0.8-54.3-1.7-81.4-3.1
		c-7.4-0.4-14.1-0.3-20.8,3.3c-7.4,3.9-7.8,12.2-6,18.2c2.9,9.3,0.7,21.5-9.6,26.6c-6.3,3.1-17.9,1.6-18.7-9.1
		c-0.4-5.1,0.2-10.2,0.2-15.3c0-3.3,0.1-6.7-0.4-10c-0.2-1.3-1.1-3.6-3-3.6c-1.9,0-1.5,1.9-1.9,3c-2.6,7.7-3.5,8.4-11,8.4
		c-5.4,0-7.6-2.5-8.3-8.1s-0.3-11.2-0.8-14.7c-0.5-3.4-2.1-8.1-2.6-10.2c-0.8-3.4-1.4-6.9-1.4-10.4c0-10.1,0.2-20.2,0.4-30.3
		c0.1-10.2,4.9-15.1,15.1-15.4c8.2-0.3,16.4,0,24.6-0.6c11-0.8,14.3,6.6,15.6,14.8c1.2,7.4,1.9,8.8,9.5,9.2
		c33.2,1.6,66.4,3.2,99.6,4.5c2.4,0.1,5.7-1.5,7.2-3.4c3.6-4.6,6.8-9.7,9.4-15c2.7-5.5,0.8-10.9-2.5-15.8
		c-13-19.2-26.3-38.3-38.9-57.8c-4.5-6.9-7.7-14.7-11.1-22.2c-2-4.3,2.1-9,7.6-9.4c4.2-0.3,10-0.5,12.6-1.2s3.7-2.9,3.8-4.6
		c0.7-11,1.2-25.4,1-29.3s-1.2-5.1-5.6-5.2c-4.5-0.1-8.9-5.8-7.5-12.7c0.7-3.1,1.9-6.2,3.6-8.8c6-9.3,7.7-19.8,8.6-30.4
		c0.2-2.3,0-4.6,0.2-6.8c0.7-6,3.7-7.6,9.7-7.4c12.7,0.5,25.5,0.3,38.3,0.4c2.9,0,5.1-0.1,8.9-0.2c2.8,0,4.7,2.6,5.8,6.5
		c4.7,16.7,0.4,31,2.3,53.7"/>
</g>
</svg>
