<?xml version="1.0" encoding="utf-8"?>
<!-- Generator: Adobe Illustrator 21.1.0, SVG Export Plug-In . SVG Version: 6.00 Build 0)  -->
<!DOCTYPE svg PUBLIC "-//W3C//DTD SVG 1.1//EN" "http://www.w3.org/Graphics/SVG/1.1/DTD/svg11.dtd">
<svg version="1.1" id="Layer_1" xmlns="http://www.w3.org/2000/svg" xmlns:xlink="http://www.w3.org/1999/xlink" x="0px" y="0px"
	 viewBox="0 0 400 400" enable-background="new 0 0 400 400" xml:space="preserve">
<g>
	<path d="M371.3,169.6c0,1.9-5.7,4.9-8.4,6.8c-13.2,9.6-22.5,21.8-25.8,38c-1.8,8.6-0.2,17,2.2,25.3c1.8,6.4,3.7,12.8,5.1,19.3
		c1.4,6.9,0.5,13.6-2.9,19.8c-4.8,8.7-13.6,13.3-22.5,11.7c-8.4-1.5-15.1-8.6-16.1-18.3c-0.6-5.6,0.3-11.4,0.4-17.1
		c0.1-4.1,0.6-8.3-0.2-12.3c-1.9-9.5-10.3-12.7-18.5-7.4c-6.4,4.1-8.8,10.6-9.7,17.7c-0.5,4.1-0.7,8.2-1.2,12.3
		c-0.3,2.2-0.7,4.4-1.4,6.5c-2.5,7.7-8.8,11.9-15.4,10.4c-7-1.5-11.3-7.9-10.4-15.9c0.5-4.1,1.6-8.1,2.4-12.1c0.5-2.5,1.2-5,1.4-7.5
		c0.6-6.8-2.2-10.7-8.9-12.5c-5.4-1.5-10.4-1.1-15.5,1.5c-27.1,13.5-54.4,26.6-81.6,40c-3.3,1.6-7.7,4.7-11,8.5
		c-3.3,3.7-10,14.3-14.9,23c-7.9,14.1-7.7,29-2.8,44.2c2,6.3,3.6,12.9,4.1,19.5c0.7,8.6-3.8,15.4-10.7,18c-8,2.9-15,0.6-21-5
		c-4.7-4.4-7.1-10.2-7.7-16.5c-0.6-6.1-0.3-12.4-0.7-18.5c-0.4-5.8-0.4-11.8-1.9-17.4c-2.7-10.3-13.9-14.8-23.6-10.4
		c-6.1,2.7-12.2,5.3-18.5,7.5c-4.1,1.5-6.2-0.4-6.3-4.7c-0.1-94.9-0.3-189.8-0.4-284.7c0-8.6,0.2-17.1,0.3-25.7
		c0.1-3.2,2.6-4.9,6-3.6c6.5,2.4,13.1,4.8,19.3,7.9c49.9,24.7,99.3,50.4,149.6,74.3c53.4,25.4,107.6,49.1,161.5,73.6
		C367.1,166.6,371.3,167.7,371.3,169.6z"/>
</g>
</svg>
