<?xml version="1.0" encoding="utf-8"?>
<!-- Generator: Adobe Illustrator 21.1.0, SVG Export Plug-In . SVG Version: 6.00 Build 0)  -->
<!DOCTYPE svg PUBLIC "-//W3C//DTD SVG 1.1//EN" "http://www.w3.org/Graphics/SVG/1.1/DTD/svg11.dtd">
<svg version="1.1" id="Layer_1" xmlns="http://www.w3.org/2000/svg" xmlns:xlink="http://www.w3.org/1999/xlink" x="0px" y="0px"
	 viewBox="0 0 400 400" enable-background="new 0 0 400 400" xml:space="preserve">
<g>
	<path d="M284.9,371.4c0.8-4.1,2-9.8,3-15.5c1.6-9.1-0.8-16.7-6.5-24.4c-15.7-20.9-37.2-35.6-55.8-53.4
		c-16.8-16.1-34-31.9-50.9-47.8c-18-17-52.3-49.7-54-51.1c-1.7-1.4-2.3-1.7-3.9-0.1c-1.6,1.6-17.5,17.5-25.8,26.7
		c-4.4,4.9-6,11.1-3.7,17.7c5,14.7-0.9,24.8-15.6,27c-11.1,1.6-19.9-7.3-17.7-18.3c0.8-4.2,3.5-8,4.4-12.1
		c1.2-5.4,2.7-11.3,1.8-16.5c-3.1-17.3-6.9-34.5-11-51.6c-5.8-24.1-12.9-47.8-17.8-72c-3.7-18.2-4.8-36.9-7.4-55.4
		c-1.4-9.9,2.9-14.5,13.2-13.7c15.5,1.2,31.1,2,46.6,3.5c14.2,1.4,28.2,3.6,42.3,5.4c13.6,1.7,27.2,3.2,40.7,5.2
		c14.4,2.1,28.7,4.6,42.9,7.2c3.4,0.6,6.3,1.3,9.7,2.3c1.4,0.4,3.6,0.8,5.8,1.6c2.2,0.9,4.2,2.9,4.1,9.4s-2,13.1-9.9,21.8
		c-7.4,8-20.5,23-21.5,24.6c-1,1.6-0.6,2.8,0.9,4.2c1.5,1.3,33.7,28.7,50.1,43.6c11.5,10.5,26.5,12.7,40,18.4
		c6.9,2.9,12.9,6.2,17.1,12.8c3.8,5.9,3.5,11,0.1,16.7c-0.7,1.2-1.4,2.2,0.1,4.7c1.6,2.5,39.2,37.8,58.8,56.7
		c6.3,6,13.9,11.8,9.8,22.1c-1.8,4.6-5.3,8.7-8.2,12.8c-2.8,4-5.7,7.9-8.8,11.6c-9.8,12.1-19.6,24.1-29.6,36
		c-6.7,8-10.2,16.8-6.2,27c4.7,11.9,2,21.9-7.9,29c-3.7,2.6-10.2,2.2-15.2,1.7C292.5,388.3,284.8,378.9,284.9,371.4z"/>
</g>
</svg>
