<?xml version="1.0" encoding="UTF-8" standalone="no"?>
<svg
   xmlns:dc="http://purl.org/dc/elements/1.1/"
   xmlns:cc="http://creativecommons.org/ns#"
   xmlns:rdf="http://www.w3.org/1999/02/22-rdf-syntax-ns#"
   xmlns:svg="http://www.w3.org/2000/svg"
   xmlns="http://www.w3.org/2000/svg"
   viewBox="0 0 533.33331 533.33331"
   height="533.33331"
   width="533.33331"
   xml:space="preserve"
   id="svg2"
   version="1.1"><metadata
     id="metadata8"><rdf:RDF><cc:Work
         rdf:about=""><dc:format>image/svg+xml</dc:format><dc:type
           rdf:resource="http://purl.org/dc/dcmitype/StillImage" /></cc:Work></rdf:RDF></metadata><defs
     id="defs6"><clipPath
       id="clipPath18"
       clipPathUnits="userSpaceOnUse"><path
         id="path16"
         d="M 0,400 H 400 V 0 H 0 Z" /></clipPath></defs><g
     transform="matrix(1.3333333,0,0,-1.3333333,0,533.33333)"
     id="g10"><g
       id="g12"><g
         clip-path="url(#clipPath18)"
         id="g14"><g
           transform="translate(203.1523,60.8027)"
           id="g20"><path
             id="path22"
             style="fill:#000000;fill-opacity:1;fill-rule:nonzero;stroke:none"
             d="m 0,0 c -3.707,-1.026 -11.931,-3.786 -14.013,-10.688 -1.108,-3.676 -2.01,-7.415 -3.068,-11.106 -0.762,-2.656 -1.393,-5.385 -2.487,-7.905 -4.279,-9.853 -15.303,-11.128 -21.786,-2.553 -2.754,3.645 -4.094,7.935 -4.688,12.388 -0.752,5.631 -1.21,11.301 -1.8,16.952 -0.096,0.918 -0.221,1.832 -0.336,2.747 -0.301,2.409 -1.558,3.165 -4.058,3.179 -5.375,0.028 -10.251,-1.978 -15.219,-3.412 -8.651,-2.499 -19.062,-1.803 -26.369,-3.872 -7.307,-2.068 -7.307,-2.068 -11.971,-2.451 -4.664,-0.383 -18.977,1.621 -27.935,5.321 -2.4,0.991 -4.94,1.793 -7.494,2.231 -4.311,0.742 -6.208,3.437 -7.082,7.4 -1.657,7.504 -3.437,14.982 -5.165,22.471 -2.384,10.334 -5.147,20.599 -7.077,31.017 -4.227,22.813 -8.037,45.703 -12.007,68.563 -2.55,14.684 -5.002,29.386 -7.69,44.045 -0.555,3.029 -2.48,7.828 -0.245,12.966 2.235,5.139 6.53,5.202 11.333,5.933 6.984,1.063 13.976,2.166 21.006,2.808 14.686,1.342 29.398,2.403 44.101,3.561 8.673,0.683 17.166,0.043 25.408,-3.091 3.872,-1.472 7.922,-2.476 11.883,-3.719 2.348,-0.736 3.91,-0.13 5.451,1.992 14.675,20.208 24.517,42.531 30.02,66.866 3.185,14.088 6.482,28.162 10.226,42.109 2.156,8.036 5.644,15.601 11.583,21.777 8.09,8.414 17.629,7.52 25.484,-0.312 6.63,-6.612 10.193,-14.937 12.81,-23.699 4.259,-14.257 5.898,-28.883 5.704,-43.734 0.167,-15.452 -1.891,-30.657 -5.089,-45.735 -0.192,-0.902 -0.385,-1.804 -0.551,-2.711 -0.61,-3.334 0.274,-4.748 3.521,-5.429 0.888,-0.186 1.839,-0.132 2.757,-0.097 15.977,0.604 31.955,1.181 47.929,1.847 17.2,0.717 34.393,1.916 51.598,2.121 8.667,0.103 17.57,0.693 26.039,-2.2 2.589,-0.885 5.199,-1.97 7.478,-3.455 6.343,-4.133 7.849,-10.466 6.671,-17.411 -1.643,-9.695 -3.667,-19.289 -8.593,-28.066 -2.356,-4.197 -5.282,-7.457 -9.491,-9.706 -3.383,-1.807 -3.184,-1.827 -1.929,-5.135 2.019,-5.313 4.483,-10.582 5.552,-16.105 2.205,-11.388 0.6,-22.041 -8.522,-30.472 -5.033,-4.65 -10.339,-8.769 -17.302,-9.978 -2.082,-0.362 -2.514,-1.141 -1.775,-3.107 1.023,-2.725 1.987,-5.508 2.588,-8.349 2.799,-13.202 -3.005,-25.028 -15.092,-31.026 -0.688,-0.342 -1.395,-0.653 -2.111,-0.931 -1.171,-0.456 -1.409,-1.055 -0.374,-1.928 0.587,-0.496 1.172,-0.997 1.741,-1.513 8.672,-7.863 7.741,-17.217 1.592,-25.565 -5.101,-6.927 -8.943,-14.343 -8.412,-23.271 0.393,-6.591 1.142,-13.163 1.492,-19.756 0.359,-6.726 -0.365,-13.272 -5.344,-18.461 -6.641,-6.921 -16.486,-5.603 -20.548,3.122 -1.836,3.944 -2.362,8.518 -3.328,12.842 -0.536,2.391 -0.582,4.895 -1.16,7.273 -0.717,2.954 -2.184,3.681 -5.135,2.731 -1.601,-0.516 -3.107,-1.323 -4.666,-1.973 -1.843,-0.768 -3.648,-1.677 -5.555,-2.227 -5.685,-1.641 -10.095,0.408 -12.338,5.848 -1.58,3.832 -2.836,7.798 -4.243,11.701 -1.483,4.113 -5.629,6.241 -9.18,6.577 C 39.188,-2.425 3.708,1.027 0,0" /></g></g></g></g></svg>