<?xml version="1.0" encoding="utf-8"?>
<!-- Generator: Adobe Illustrator 23.0.6, SVG Export Plug-In . SVG Version: 6.00 Build 0)  -->
<svg version="1.1"
	 id="Layer_1" inkscape:version="0.92.2 (5c3e80d, 2017-08-06)" sodipodi:docname="iheartradio.svg" xmlns:cc="http://creativecommons.org/ns#" xmlns:dc="http://purl.org/dc/elements/1.1/" xmlns:inkscape="http://www.inkscape.org/namespaces/inkscape" xmlns:rdf="http://www.w3.org/1999/02/22-rdf-syntax-ns#" xmlns:sodipodi="http://sodipodi.sourceforge.net/DTD/sodipodi-0.dtd" xmlns:svg="http://www.w3.org/2000/svg"
	 xmlns="http://www.w3.org/2000/svg" xmlns:xlink="http://www.w3.org/1999/xlink" x="0px" y="0px" viewBox="0 0 400 400"
	 style="enable-background:new 0 0 400 400;" xml:space="preserve">
<path d="M326.7,152.1c9.1-14.8,12.7-31,9-49c-6.9-33.2-34.9-57.8-68-59.9c-20.4-1.3-38.3,4.6-53.8,17.7c-3.6,3-6.8,6.6-10,10.1
	c-2.3,2.5-6.2,2.5-8.5,0c-2.8-3.1-5.7-6.3-8.9-9.2c-19.3-16.9-42-22.5-66.9-16.8c-19.5,4.5-35,15.6-45.5,32.7
	c-11.9,19.3-15.5,39.9-7.6,61.8c4.9,13.5,13.6,24.5,23.5,34.3c9.3,9.3,18.8,18.4,28.4,27.4c43.4,64.9-0.3,122.1,25.7,126.2
	c35.4-1-13.1-46.6,24-81.2c0.6,0,1.2-0.2,1.9-0.4c3.1-1.3,3.8-3.8,3.7-6.8c0-0.5,0-0.9,0-1.3c0-16.5-0.3-32.9,0.2-49.3
	c0.3-13.1,12.5-24.7,26.9-23.8c15.2,0.9,24.9,12.1,24.9,27.4c0,10.3,0,20.7,0,31c0,5.8-0.3,11.6,0.1,17.3c0.1,1.9,1.7,4,3.2,5.3
	c1.9,1.6,4.2,0.6,6.1-0.9c0.8-0.7,1.5-1.4,2.2-2.1c16-15.2,32-30.4,48.1-45.5c1.4-1.3,2.9-2.7,4.3-4c2.1-2,5-3,7.9-2.4
	c23,4.2-20.7,86.5,13.2,92.7C358.1,281.4,303.9,222.2,326.7,152.1z M107.8,74.2c0.3-0.6,0.7-1.2,1.2-1.6c1.6-1.6,3.3-3.1,5.2-4.5
	c1-0.8,2.2-1.7,3.4-1.9c2.5-0.6,4.8-0.1,5.9,2.5c1.2,2.7,0.7,5.1-1.8,6.7c-3,2-5.6,4.3-7.8,6.8c-1.4,1.6-3.5,2.4-5.6,2
	C105.2,83.6,104.4,81,107.8,74.2z M131.7,175.3c-1.5,1.9-5,2.5-6.9,0.8c-18.5-16.5-33.2-35.1-34.1-61.8c0.4-6.5,1.5-12.7,3.5-18.4
	c0.8-2.3,3.7-3,5.4-1.2c0.2,0.3,0.5,0.5,0.7,0.8c2,2.6,2.6,6,1.9,9.2c-2.9,12.4-0.4,24.6,6.3,36.6c5,9,11.7,16.7,19.1,23.7
	c1.3,1.2,2.7,2.3,3.9,3.7C133.5,170.7,133.5,173.1,131.7,175.3z M142.1,126.2c-2,5.2-4,3.5-6.7,0.8c-1.2-1.2-1.9-2.7-2.2-4.3
	c-0.4-2.3-0.5-4.8-0.6-7.3c0.7-14.6,7.5-26.9,21.3-34.9c3.4-2,6.2-1.5,7.9,1.3c1.7,2.7,0.8,5.4-2.6,7.4c-12.6,7.5-17.5,19.5-16,30.7
	c0,0.3,0.1,0.5,0,0.8v0C143.1,122.5,142.8,124.4,142.1,126.2z M165.5,154.5c-0.6,4-4.6,5.5-8.5,3.1c-3.9-2.3-7.3-5.1-10.3-8.2
	c-1.6-3.1-2-6.1-0.2-8.1c1.8-1.9,4.9-1.8,6.7,0.1c2.6,2.7,5.5,5.1,8.9,7.2C164.4,150.1,166,151.7,165.5,154.5z M200.4,142.9
	c-12.7,0.2-22.9-9.4-23.3-21.9c-0.3-11.9,9.8-22.6,21.5-22.8c13.2-0.3,23.2,9.3,23.4,22.3C222.2,132.5,212.4,142.7,200.4,142.9z
	 M237.6,81.4c1.9-2.9,5.2-2.9,9.7,0.1c0.9,0.6,1.8,1.3,2.7,1.9c2.2,1.7,3.9,4.1,4.8,6.8c1.4,4.4,1.3,7,0,8.4
	c-1.2,1.3-3.3,1.2-4.4-0.3c-2.3-3.2-5.3-6.1-8.9-8.3C236.8,87.1,235.6,84.5,237.6,81.4z M242,157.8c-3,1.9-6.1,1.1-7.5-1.5
	c-1.5-2.7-0.7-5.5,2.3-7.3c8.9-5.3,15-12.9,18.2-22.8c0.3-0.9,0.5-1.9,0.8-2.8c0.3-1.2,0.8-2.4,1.7-3.3c2.8-3,5.9-4.9,8-3.4
	c0.9,0.6,1.3,1.7,1.2,2.8C265,135.8,256.5,148.7,242,157.8z M291.6,158.2c-0.6,0.7-1.2,1.5-1.8,2.2c-4.6,5.5-9.9,10.4-15.1,15.3
	c-2.2,2.1-5.4,1.5-7.1-0.5c-1.7-2-1.5-4.9,0.5-6.9c0.7-0.8,1.6-1.5,2.4-2.3c5.8-5.4,11.1-11.1,15.6-17.4c1.4-2,4.1-2.6,6.1-1.4
	C294.6,148.8,294.9,152,291.6,158.2z M305.8,121.8c-1.7,0.5-3.4-0.2-5.3-3c-1.4-2.2-2.3-4.8-2.5-7.5c-0.9-11.8-6.3-22.9-15.6-32.1
	c-1.5-1.5-3.3-2.6-5-3.9c-2.5-1.9-3.1-5-1.4-7.3c1.5-2.2,4.5-2.8,7.1-1.1c7.9,5,13.5,12.1,17.9,20.1c5,9.2,7.4,18.3,7.4,27.7
	c0,1.3-0.1,2.5-0.2,3.8C308.2,120,307.2,121.4,305.8,121.8z"/>
</svg>
