<?xml version="1.0" encoding="utf-8"?>
<!-- Generator: Adobe Illustrator 22.1.0, SVG Export Plug-In . SVG Version: 6.00 Build 0)  -->
<!DOCTYPE svg PUBLIC "-//W3C//DTD SVG 1.1//EN" "http://www.w3.org/Graphics/SVG/1.1/DTD/svg11.dtd">
<svg version="1.1"
	 id="Layer_1" inkscape:version="0.92.2 (5c3e80d, 2017-08-06)" sodipodi:docname="iheartradio.svg" xmlns:cc="http://creativecommons.org/ns#" xmlns:dc="http://purl.org/dc/elements/1.1/" xmlns:inkscape="http://www.inkscape.org/namespaces/inkscape" xmlns:rdf="http://www.w3.org/1999/02/22-rdf-syntax-ns#" xmlns:sodipodi="http://sodipodi.sourceforge.net/DTD/sodipodi-0.dtd" xmlns:svg="http://www.w3.org/2000/svg"
	 xmlns="http://www.w3.org/2000/svg" xmlns:xlink="http://www.w3.org/1999/xlink" x="0px" y="0px" viewBox="0 0 400 400"
	 style="enable-background:new 0 0 400 400;" xml:space="preserve">
<sodipodi:namedview  bordercolor="#666666" borderopacity="1" gridtolerance="10" guidetolerance="10" id="namedview7" inkscape:current-layer="Layer_1" inkscape:cx="206.43937" inkscape:cy="223.33271" inkscape:pageopacity="0" inkscape:pageshadow="2" inkscape:window-height="1017" inkscape:window-maximized="1" inkscape:window-width="1920" inkscape:window-x="1358" inkscape:window-y="-8" inkscape:zoom="1.014234" objecttolerance="10" pagecolor="#ffffff" showgrid="false">
	</sodipodi:namedview>
<g>
	<path d="M371.2,155.6c12.3-20,17.1-41.8,12.1-66c-9.3-44.8-47.1-77.9-91.7-80.7c-27.5-1.8-51.7,6.2-72.5,23.8
		c-4.9,4.1-9.2,8.9-13.5,13.6c-3.1,3.4-8.4,3.3-11.4,0c-3.8-4.2-7.7-8.5-12-12.5C156.1,10.9,125.5,3.5,92,11.1
		c-26.2,6-47.2,21-61.4,44c-16,26-20.9,53.8-10.2,83.2c6.6,18.2,18.3,33,31.7,46.3c12.6,12.5,25.4,24.7,38.3,37
		c58.5,87.5-0.5,164.6,34.7,170.1c47.7-1.3-17.6-62.8,32.3-109.5c0.8,0,1.7-0.2,2.6-0.6c4.1-1.7,5.1-5.1,5-9.2c0-0.6,0-1.2,0-1.8
		c0-22.2-0.4-44.4,0.3-66.5c0.4-17.7,16.8-33.4,36.3-32.1c20.5,1.3,33.6,16.3,33.6,36.9c0,13.9,0,27.9,0,41.8
		c0,7.8-0.4,15.6,0.2,23.4c0.2,2.5,2.2,5.4,4.3,7.1c2.6,2.2,5.7,0.8,8.2-1.2c1.1-0.9,2-1.9,3-2.8c21.6-20.5,43.1-41,64.8-61.4
		c1.9-1.8,3.8-3.6,5.8-5.4c2.8-2.7,6.8-4,10.6-3.3c31,5.6-27.9,116.6,17.9,125C413.6,329.8,340.4,250.2,371.2,155.6z M76.2,50.6
		c0.4-0.8,1-1.6,1.6-2.2c2.2-2.1,4.5-4.1,6.9-6.1c1.3-1.1,3-2.2,4.6-2.6c3.3-0.8,6.5-0.1,8,3.3c1.6,3.6,0.9,6.8-2.4,9.1
		c-4,2.6-7.5,5.7-10.6,9.2c-1.9,2.1-4.7,3.2-7.5,2.8C72.6,63.3,71.5,59.7,76.2,50.6z M108.4,186.9c-2.1,2.6-6.7,3.3-9.3,1.1
		c-25-22.2-44.8-47.4-46-83.3c0.5-8.8,2.1-17.1,4.7-24.8c1.1-3.1,5.1-4,7.3-1.7c0.3,0.3,0.6,0.7,1,1.1c2.7,3.5,3.6,8.1,2.5,12.4
		c-3.9,16.8-0.5,33.2,8.5,49.4c6.7,12.1,15.7,22.6,25.8,32c1.8,1.6,3.6,3.1,5.2,4.9C110.7,180.7,110.8,183.9,108.4,186.9z
		 M122.3,120.7c-2.7,7-5.4,4.7-9,1.1c-1.6-1.6-2.6-3.6-2.9-5.8c-0.5-3.1-0.7-6.4-0.8-9.9c1-19.7,10.1-36.2,28.7-47.1
		c4.6-2.7,8.4-2,10.6,1.7c2.2,3.7,1.1,7.3-3.5,10c-17,10.1-23.6,26.3-21.6,41.4c0,0.4,0.1,0.7,0.1,1.1v0
		C123.7,115.7,123.3,118.3,122.3,120.7z M153.9,158.9c-0.8,5.4-6.2,7.4-11.5,4.1c-5.2-3.1-9.8-6.8-13.9-11.1
		c-2.2-4.2-2.7-8.2-0.2-10.9c2.4-2.6,6.6-2.4,9.1,0.2c3.4,3.6,7.5,6.9,12,9.7C152.4,153,154.6,155.1,153.9,158.9z M201,143.2
		c-17.2,0.3-30.9-12.7-31.4-29.6c-0.4-16,13.2-30.5,28.9-30.7c17.8-0.4,31.3,12.5,31.6,30.1C230.3,129.2,217.1,142.9,201,143.2z
		 M251.1,60.3c2.5-3.9,7-4,13,0.1c1.3,0.8,2.5,1.7,3.6,2.6c3,2.3,5.3,5.5,6.5,9.1c1.9,5.9,1.7,9.4,0.1,11.3
		c-1.6,1.8-4.5,1.6-5.9-0.4c-3.2-4.4-7.2-8.2-12-11.2C250,67.9,248.4,64.4,251.1,60.3z M257,163.3c-4,2.5-8.2,1.4-10.2-2.1
		c-2.1-3.6-1-7.5,3.1-9.9c12-7.2,20.2-17.4,24.5-30.7c0.4-1.3,0.7-2.5,1-3.8c0.4-1.7,1.1-3.2,2.3-4.4c3.8-4.1,8-6.6,10.8-4.5
		c1.2,0.8,1.7,2.3,1.6,3.7C288,133.6,276.6,151,257,163.3z M323.8,163.9c-0.8,1-1.6,2-2.4,2.9c-6.2,7.4-13.4,14-20.4,20.7
		c-3,2.8-7.3,2.1-9.6-0.7c-2.2-2.7-2-6.6,0.6-9.3c1-1.1,2.2-2.1,3.2-3.1c7.8-7.2,15-14.9,21.1-23.5c1.9-2.6,5.5-3.5,8.2-1.8
		C327.9,151.1,328.4,155.5,323.8,163.9z M343,114.8c-2.3,0.7-4.6-0.3-7.1-4.1c-1.9-3-3.1-6.5-3.3-10.1c-1.2-15.9-8.5-30.8-21-43.3
		c-2-2-4.5-3.5-6.7-5.2c-3.3-2.6-4.1-6.7-1.9-9.9c2.1-3,6-3.8,9.5-1.5c10.6,6.7,18.2,16.3,24.2,27.1c6.7,12.4,10,24.7,10,37.3
		c0,1.7-0.1,3.4-0.2,5.1C346.2,112.3,344.9,114.2,343,114.8z"/>
</g>
</svg>
