<?xml version="1.0" encoding="utf-8"?>
<!-- Generator: Adobe Illustrator 23.0.3, SVG Export Plug-In . SVG Version: 6.00 Build 0)  -->
<svg version="1.1"
	 id="svg12" xmlns:cc="http://creativecommons.org/ns#" xmlns:dc="http://purl.org/dc/elements/1.1/" xmlns:inkscape="http://www.inkscape.org/namespaces/inkscape" xmlns:rdf="http://www.w3.org/1999/02/22-rdf-syntax-ns#" xmlns:sodipodi="http://sodipodi.sourceforge.net/DTD/sodipodi-0.dtd" xmlns:svg="http://www.w3.org/2000/svg"
	 xmlns="http://www.w3.org/2000/svg" xmlns:xlink="http://www.w3.org/1999/xlink" x="0px" y="0px" viewBox="0 0 400 400"
	 style="enable-background:new 0 0 400 400;" xml:space="preserve">
<sodipodi:namedview  bordercolor="#666666" borderopacity="1" fit-margin-bottom="70" fit-margin-left="20" fit-margin-right="20" fit-margin-top="20" gridtolerance="10" guidetolerance="10" id="namedview14" inkscape:current-layer="svg12" inkscape:cx="80.725391" inkscape:cy="112.6328" inkscape:pageopacity="0" inkscape:pageshadow="2" inkscape:window-height="1017" inkscape:window-maximized="1" inkscape:window-width="1920" inkscape:window-x="1912" inkscape:window-y="-8" inkscape:zoom="2" objecttolerance="10" pagecolor="#ffffff" showgrid="false">
	</sodipodi:namedview>
<path d="M334.4,165.1h-2.8c-18.7,0-34.9-28.7-19.9-30.4c2.2,0,4.5-1.7,5.3-3.7c0,0,1.6-4.4,2.6-8.6c7-28.3,1.1-59.5-18.1-83
	c-32.2-39.5-93-46.7-133.6-13.6C145.3,44.1,133.1,96,133.1,96c-0.5,2.1-2.7,3.8-4.8,3.8H90.8c-2.2,0-3,1.5-1.8,3.3l58.4,90.5
	c1.2,1.8,3.1,1.8,4.3,0l58.4-90.5c1-1.6,0.4-2.9-1.1-3.2c-0.8-0.2-1.5-0.3-2.3-0.5c-18.4-6.1-27.7-20-21.7-45.4
	c0.4-1.6,2.1-4.4,3.3-5.5c29.4-23.9,65.4-17.6,88.7,11c15.7,19.3,19.6,42.6,11.4,63c-1.7,4.3-4.7,9-4.7,9c-0.8,1.2-0.6,2.3,0.2,2.9
	c10,10.4,14.2,28.2,15.1,49.2v54.1c0,2.1-1.8,3.9-3.9,3.9H102.6c-2.1,0-3.9-1.8-3.9-3.9V169c0-2.1-1.8-3.9-3.9-3.9H65.6
	c-2.1,0-3.9,1.8-3.9,3.9v102.3c0,2.1,1.8,3.9,3.9,3.9h0c0.4,0,0.8,0,1.3,0.1c73.1,9.9-12.6,117.9,34.8,119.9
	c55.7-1.3-30.5-115.7,34.7-119.9h198c2.1,0,3.9-1.8,3.9-3.9V169C338.3,166.9,336.5,165.1,334.4,165.1z M178,93.8
	c-0.8,3.5-4.1,6-7.7,6h-4.7c-2.2,0-3.5-1.7-2.9-3.8c0,0,1.8-6.3,5-14.6c0.6-1.5,1.8-2.7,3.3-3.2C176.8,76.5,179.7,86.8,178,93.8z"/>
</svg>
