<?xml version="1.0" encoding="utf-8"?>
<!-- Generator: Adobe Illustrator 23.0.6, SVG Export Plug-In . SVG Version: 6.00 Build 0)  -->
<svg version="1.1"
	 id="svg12" xmlns:cc="http://creativecommons.org/ns#" xmlns:dc="http://purl.org/dc/elements/1.1/" xmlns:inkscape="http://www.inkscape.org/namespaces/inkscape" xmlns:rdf="http://www.w3.org/1999/02/22-rdf-syntax-ns#" xmlns:sodipodi="http://sodipodi.sourceforge.net/DTD/sodipodi-0.dtd" xmlns:svg="http://www.w3.org/2000/svg"
	 xmlns="http://www.w3.org/2000/svg" xmlns:xlink="http://www.w3.org/1999/xlink" x="0px" y="0px" viewBox="0 0 400 400"
	 style="enable-background:new 0 0 400 400;" xml:space="preserve">
<path d="M333.6,166.2h-2.8c-18.6,0-34.7-28.5-19.8-30.2c2.2,0,4.5-1.7,5.3-3.7c0,0,1.6-4.4,2.6-8.6c7-28.1,1.1-59.2-18-82.5
	C268.9,2,208.5-5.2,168.1,27.7c-22.5,18.2-34.6,69.8-34.6,69.8c-0.5,2.1-2.7,3.8-4.8,3.8H91.4c-2.2,0-3,1.5-1.8,3.3l58.1,90
	c1.2,1.8,3.1,1.8,4.3,0l58.1-90c1-1.6,0.4-2.9-1.1-3.2c-0.8-0.2-1.5-0.3-2.3-0.5c-18.3-6.1-27.5-19.9-21.6-45.1
	c0.4-1.6,2.1-4.4,3.3-5.5c29.2-23.8,65-17.5,88.2,10.9c15.6,19.2,19.5,42.4,11.3,62.6c-1.7,4.3-4.7,8.9-4.7,8.9
	c-0.8,1.2-0.6,2.3,0.2,2.9c9.9,10.3,14.1,28,15,48.9v53.8c0,2.1-1.8,3.9-3.9,3.9H103.2c-2.1,0-3.9-1.8-3.9-3.9v-68.3
	c0-2.1-1.8-3.9-3.9-3.9h-29c-2.1,0-3.9,1.8-3.9,3.9v101.7c0,2.1,1.8,3.9,3.9,3.9l0,0c0.4,0,0.8,0,1.3,0.1
	c72.7,9.8-12.5,117.2,34.6,119.2c55.4-1.3-30.3-115,34.5-119.2h196.9c2.1,0,3.9-1.8,3.9-3.9V170.1
	C337.5,168,335.7,166.2,333.6,166.2z M178.1,95.3c-0.8,3.5-4.1,6-7.7,6h-4.7c-2.2,0-3.5-1.7-2.9-3.8c0,0,1.8-6.3,5-14.5
	c0.6-1.5,1.8-2.7,3.3-3.2C176.9,78.1,179.8,88.4,178.1,95.3z"/>
</svg>
