<?xml version="1.0" encoding="utf-8"?>
<!-- Generator: Adobe Illustrator 21.1.0, SVG Export Plug-In . SVG Version: 6.00 Build 0)  -->
<!DOCTYPE svg PUBLIC "-//W3C//DTD SVG 1.1//EN" "http://www.w3.org/Graphics/SVG/1.1/DTD/svg11.dtd">
<svg version="1.1" id="Layer_1" xmlns="http://www.w3.org/2000/svg" xmlns:xlink="http://www.w3.org/1999/xlink" x="0px" y="0px"
	 viewBox="0 0 400 400" enable-background="new 0 0 400 400" xml:space="preserve">
<g>
	<path d="M72.8,177.6c-0.1,1.7-1.1,15.1-1.8,22.7c-0.7,7.8-1.1,15.7-0.3,23.6c0.4,3.6-1.1,6.7-4,9c-0.4,0.3-1,0.9-1.4,0.6
		c-0.5-0.3-0.2-0.9-0.2-1.3c0.3-2.6,0.7-5.1,0.9-7.7c0.3-4.9,0.9-9.7,0.7-14.6c-0.3-6.6-1.1-13.2-1.7-19.8
		c-0.6-5.9-1.1-11.7-1.8-17.6c-0.1-0.9-0.5-2.5-2.1-2.5c-1.7,0-2.4,1.9-2.4,2.5s-0.2,1.4-0.2,2.2c-0.6,7.8-1.3,15.6-1.9,23.4
		c0,0.5-0.2,1.3-0.6,1.6c-0.4,0.3-0.9-0.5-1.1-0.9c-1.6-3.2-3.7-6.3-4.5-9.6c-1.2-4.9-1.2-10-2-15c-0.2-1-0.6-2.8-2-2.8
		s-1.9,2-2,3.1c-1,10.5-1.7,21.1-2.9,31.6c-0.4,4-1.8,7.9-2.8,11.8c-0.1,0.5-0.5,0.9-1,0.8c-0.5,0-0.4-1.2-0.4-1.8
		c0.1-1.6,0.1-2.9,0.1-4.4s-0.2-2.9-0.3-4.3c-1.1-9.3-2.3-18.5-3.6-27.7c-0.1-0.9-0.3-2.5-1.9-2.5s-1.5,1.8-1.7,2.8
		c-0.5,2.9-0.5,5.9-0.9,8.8c-1.2,11.6-4,23.1-1.5,34.8c0.1,0.3,0.2,0.9-0.1,1c-0.2,0.1-0.5-0.6-0.6-0.9c-1.5-5.2-3.3-10.4-4.5-15.8
		c-1.2-5.3-1.7-10.7-2.7-16c-0.1-0.8-0.5-2-1.8-2c-1.3,0-1.3,1.3-1.5,2c-2.9,13.1-3.2,26.2,0,39.3c0.2,0.8,0.7,2.3,1.6,2.3
		s1.5-1.3,1.8-2.1c0.4-1.1,0.5-2,0.6-2.7c0.1-0.7-0.1-2,0.5-2.2c0.6-0.3,1.1,0.3,1.4,0.7c1.9,3,4.1,5.8,5.6,9
		c1.2,2.5,1.4,5.5,2.3,8.2c0.2,0.7,0.8,1.8,1.9,1.7c1-0.2,1.2-1.2,1.4-1.8c0.4-1.7,0.7-3.4,0.8-5.1c0.4-5.3,1.7-10.2,5.4-14.2
		c0.5-0.6,1.3-1.7,1.8-1.3c0.5,0.3,0.7,1.4,0.7,2.1c0.7,7.7,1.3,15.4,2.1,23.1c0.1,1.1,1.1,3.1,2.1,3.1c1,0,1.9-1.9,2-2.9
		c1.4-12.2,2.6-24.5,3.9-36.7c0.1-1.2,0.2-3.3,0.9-3.4s2,2.3,2.2,3.5c0.2,1.2,0.2,1.5,0.3,2.3c0.8,9.5,1.5,19.1,2.3,28.6
		c0.2,2.4,0.2,4.8,0.7,7.1c0.2,1,1,2.8,2.1,2.8s2.8-4.2,3.9-6.5c1.1-2.3,3.4-7.1,5.2-10.5c0.3-0.5,1-1.4,1.5-1
		c0.5,0.3,0.6,1.3,0.7,1.9c0.6,7,1.3,14.1,1.8,21.1c0.2,2.4-0.1,6.2-0.4,8s0,5.3,0.5,6.6c0.6,1.3,2.1,2.8,3.9,2.6
		c1.8-0.2,2.4-1.1,3.2-2.7c0.7-1.6,0.5-4.6-0.3-7.1c-0.7-2.4-1.4-5.5-1.4-8c0.2-10,0.7-20.1,1.2-30.1c0-0.8,1.1-1,1.5-0.3
		c1.4,2.8,2.8,5.6,3.5,8.5s1.3,9.9,2.2,14.9c0.2,1.3,1.1,3.7,3,3.7c1.8-0.1,2.5-1.8,2.9-3.4c0.4-1.6,0.4-3.3,0.6-4.9
		c0.6-7.2,1.3-14.5,1.7-21.7c0.4-6.4,0.8-12.9,0.7-19.3c-0.3-11-1.1-21.9-1.5-32.8c-0.1-1.9,0-4.8,0.1-5.9c0.1-1.1,0.3-2.7,1-4.1
		c0.8-1.8,2-3.6,2.8-5.4c0.2-0.5,0.9-1.1,1.6-0.9s0.7,1.3,0.7,1.9c-0.3,11-0.7,22.1-1.1,33.1c-0.2,7.4-1,14.7-0.7,22.1
		c0.4,11.8,1.5,23.5,2.4,35.2c0.2,2.7,0.9,6.2,3.7,6.2c2.8,0,3.3-3.8,3.5-6.4c0.6-6.4,0.8-12.8,1.5-19.2c0.4-3.4,1.5-6.8,2.4-10.1
		c0.2-0.7,0.7-2,1.4-1.9c0.7,0.1,0.8,1.6,0.9,2.4c0.4,4.6,0.6,9.2,1,13.8c0.4,6,0.7,11.9,1.3,17.9c0.1,1.1,1.1,2.4,2,3
		c2.6,1.5,5-0.3,5.2-3.8c0.4-4.8,0.7-9.5,1.1-14.3c0.1-0.8,0.1-2.1,1-2.3c0.9-0.2,1.2,1.2,1.4,2c1.5,4.9,3,9.8,4.1,14.8
		c0.6,2.3,1.5,4.1,4,4.2c2.5,0,3.8-1.6,4-4.1c0.7-10.2,1.4-20.4,2-30.6c0.3-4.9,0.2-9.7,0.6-14.6c0.1-1.1,0.5-3.3,1.4-3.3
		c0.9,0,1.1,2,1.2,3c0.3,7.8,0.3,15.6,0.8,23.4c0.7,10,2.1,19.9,2.5,29.8c0.1,3.7-1.5,7.6-2.9,11.3c-1.9,5.1,0,9.7,4.7,10.3
		c4.9,0.6,8.4-4,6.2-9.4c-2.2-5.5-2.3-10.7-0.7-16.1c0.4-1.5,0.7-3,0.7-4.5c0.4-17.6,0.8-35.2,1.1-52.8c0.1-4.7-0.5-9.4-0.2-14.1
		c0.2-3,1.5-5.9,2.4-8.8c0.1-0.4,0.5-1.3,1.2-1c0.6,0.2,0.5,1.1,0.4,1.7c-0.1,4.9-0.5,9.7-0.5,14.6c0.1,15,0.3,30,0.6,45
		c0.1,5.2,0.7,10.5,1,15.7c0.2,2.7,1.5,4.4,4.2,4.5c2.6,0.1,4.4-1.2,4.7-4c0.2-1.5,0.4-2.9,0.5-4.4c0.4-6.8,0.8-13.6,1.3-20.4
		c0-0.6,0.2-1.8,1.1-1.9c0.9-0.1,1.6,1.3,1.8,2c0.6,1.5,0.6,2.6,0.7,4.2c0.3,6.2,0.5,12.5,0.8,18.7c0.2,3.6,2.1,5.8,5,5.8
		c2.9,0,4.7-2.1,4.9-5.8c0.2-4.6,0.6-9.2,0.7-13.8c0.3-18,0.5-36.1,0.9-54.1c0.1-5.2,0.7-10.4,1.1-15.6c0.1-0.8,0.4-2.2,1-2.1
		s0.7,1.5,0.6,2.3c-0.1,7.3-0.5,14.5-0.4,21.8c0.4,20.3,1,40.7,1.6,61c0.1,3.6,2.3,6,5.1,6.1c3,0.1,5.2-2.3,5.4-6.1
		c0.7-10.6,1.8-21.3,1.9-32c0.1-18.7-0.6-36.2-0.9-54.9c0-0.6,0-2.5,0-3.1c0.2-7.9,0.3-15.8,0.7-23.7c0.1-1.3,0.5-3.8,1.3-3.7
		c0.8,0.1,0.8,2.5,0.8,3.8c0,37.4,0,74.8,0,112.2c0,3.2,0.6,5.3,2.2,6.5c1.2,0.9,2.3,0.9,5.4,1.2s4.5,1.1,6.2,2.9
		c3.1,3.3,5.2,7.2,5.6,11.8c0.3,4.1-0.2,8.3-0.1,12.4c0.1,3.7,0.1,7.6,1.2,11.1c1.2,4.1,5.5,6.4,9.6,6c4.6-0.4,8-3.2,9.2-7.5
		c1.4-5.1-0.6-9.4-3.1-13.6c-1.7-2.9-3.8-5.7-5.1-8.8c-3.3-7.8,1-14.2,9.4-14.2c10.6,0,21.3,0,31.9,0c10.6,0,21.2,0,31.8,0
		c8.3,0,14.8,7.7,13.4,16c-0.5,3.2-1.5,6.3-1.9,9.5c-0.4,2.7,0.4,5.3,3.2,6.4c3.2,1.2,5.7-0.3,7.4-3.2c0.7-1.2,1.1-2.5,1.3-3.9
		c0.5-2.9,0.5-5.9,1.1-8.8c0.7-3.2,3.3-3.8,5.4-1.3c1,1.2,1.9,2.6,2,4.9c0.1,2.3-0.9,5.5-1.7,8.5c-0.8,2.8-2.3,5.4-3,8.3
		c-1,4-0.7,8,2.6,11c3.2,3,7,3.4,11.1,2.1c6.5-2.1,10.4-9.2,8.7-17.1c-1.1-5.2-3.1-10.2-4.3-15.4c-2.2-9.2,0.2-17.3,6.8-24.1
		c2.9-2.9,6.4-5.2,9.3-8.1c8.1-8,11.6-18.2,12.6-29.2c0.7-8.3-2.1-16.1-6-23.4c-10.5-19.5-33.8-28.7-54.5-21.6c-3,1-3.3-0.1-4-2.6
		c-1.8-7.4-3.5-14.9-6.3-21.9c-5-12.4-13.5-22.4-24-30.7c-14.9-11.8-32-17.2-50.7-17.1c-9.7,0-19.2,1.9-28.3,5.5
		c-2.9,1.1-4.3,2.9-4.5,5.9c-0.3,2.9-0.8,5.8-1.4,8.7c-0.2,0.9-0.8,2.5-1.6,2.4c-0.9-0.1-0.8-1.3-1-5.2c-0.2-3.8-2.1-6.6-5.1-6.6
		c-3.1-0.1-5.1,2.5-5.3,6.5c-0.2,4.6-0.1,9.2-0.6,13.8c-0.6,5.9-1.7,11.8-2.6,17.6c-0.1,0.7-0.5,2.1-1,2.1s-0.6-1.5-0.7-2.3
		c-0.2-7.8-0.4-15.6-0.6-23.5c-0.1-3.9-3.1-6.2-6.5-5c-2.9,1.1-3.4,3.7-3.4,6.3c-0.2,10.5-0.5,21-0.6,31.5
		c-0.3,17.6-0.5,35.2-0.7,52.8c0,1-0.1,3-1,3c-1,0-1.3-1.8-1.5-4.3c-0.1-2.5-0.8-21.1-1.1-31.7c-0.3-10.4-0.5-20.8-0.8-31.2
		c-0.1-2.4-0.2-4.8-0.4-7.2c-0.3-2.8-2-4.5-4.8-4.2c-2.8,0.3-4,2.2-4.1,5c-0.1,6.6-0.2,13.3-0.7,19.9c-0.1,2-1.1,4-2.1,5.8
		c-0.4,0.8-1.1,2.3-2.2,2c-1-0.3-1-1.9-1-2.9c-0.3-8.9-0.6-17.9-0.8-26.8c-0.1-3.6-1.6-5.7-4.2-5.8c-2.5-0.1-4.4,2.3-4.5,5.9
		c-0.2,12.4-0.4,24.9-0.7,37.3c-0.1,4.4-0.2,8.8-0.6,13.2c-0.2,2.3-1.2,4.6-1.9,6.8c-0.2,0.5-0.4,1.3-1.1,1.2
		c-0.8-0.1-0.7-1.2-0.7-1.7c-0.2-5.1-0.4-10.1-0.5-15.2c-0.5-14.9-0.9-29.8-1.4-44.7c-0.1-2.6-1.3-4.5-3.9-4.5
		c-2.7-0.1-4,1.9-4.1,4.6c-0.1,3.7-0.3,7.4-0.5,11c-0.5,16.7-1,33.5-1.4,50.2c-0.2,10.3-0.1,20.6-0.2,30.9c0,0.7,0,1.8-0.7,2
		c-0.7,0.2-1.1-0.9-1.2-1.5c-0.5-1.5-0.8-3-0.9-4.6c-0.3-6.9-0.5-13.8-0.7-20.7c-0.5-16.2-1-32.4-1.5-48.6c-0.2-5.3-0.3-10.7-0.6-16
		c-0.1-2.4-1.2-4.2-3.8-4.2c-2.6,0-3.5,1.9-3.6,4.3c-0.1,4.6-0.3,9.2-0.5,13.8c-0.3,10-0.3,20.1-1,30.1c-0.3,4.2-1.9,8.4-3.1,12.5
		c-0.1,0.5-0.4,1.5-1,1.3s-0.7-1.2-0.7-1.7c-0.7-15.4-1.3-30.9-2-46.3c-0.1-1.3-0.1-2.8-0.4-3.8s-1.1-3.1-3-3.1s-3,1.3-3.9,2.6
		c-1.4,2-1.9,4.6-3.2,6.7c-1.5,2.4-3.4,4.9-6.7,4.6c-3.3-0.3-4.1,1.5-4.2,4c-0.9,19.1-1.8,38.2-2.8,57.3c-0.1,1.3-0.2,4-1.5,4
		c-1.3,0-1.4-3.1-1.5-4.3c-0.1-1.2-0.2-2.5-0.4-4.1c-0.7-6.8-1.9-19.6-2.7-28.2c-0.2-2.3-0.6-4.7-3.1-4.7S72.8,176,72.8,177.6z"/>
</g>
</svg>
