<?xml version="1.0" encoding="utf-8"?>
<!-- Generator: Adobe Illustrator 23.0.1, SVG Export Plug-In . SVG Version: 6.00 Build 0)  -->
<svg version="1.1"
	 id="svg8" xmlns:cc="http://creativecommons.org/ns#" xmlns:dc="http://purl.org/dc/elements/1.1/" xmlns:inkscape="http://www.inkscape.org/namespaces/inkscape" xmlns:rdf="http://www.w3.org/1999/02/22-rdf-syntax-ns#" xmlns:sodipodi="http://sodipodi.sourceforge.net/DTD/sodipodi-0.dtd" xmlns:svg="http://www.w3.org/2000/svg"
	 xmlns="http://www.w3.org/2000/svg" xmlns:xlink="http://www.w3.org/1999/xlink" x="0px" y="0px" viewBox="0 0 400 400"
	 style="enable-background:new 0 0 400 400;" xml:space="preserve">
<sodipodi:namedview  bordercolor="#666666" borderopacity="1" fit-margin-bottom="20" fit-margin-left="0" fit-margin-right="0" fit-margin-top="0" gridtolerance="10" guidetolerance="10" id="namedview10" inkscape:current-layer="svg8" inkscape:cx="-38.668723" inkscape:cy="75.180198" inkscape:pageopacity="0" inkscape:pageshadow="2" inkscape:window-height="705" inkscape:window-maximized="1" inkscape:window-width="1366" inkscape:window-x="-8" inkscape:window-y="245" inkscape:zoom="2.6757371" objecttolerance="10" pagecolor="#ffffff" showgrid="false">
	</sodipodi:namedview>
<g id="Layer_1">
</g>
<path d="M251.5,90.2c1.9-2.6,4.5-3.9,7.8-3.9h4.2c1.6,0,2.9-1.3,2.9-2.9V69.9c0-1.4-1-2.6-2.4-2.9c-0.6-0.1-1.3-0.2-2.1-0.2h-4.5
	c-5.8,0-11,1.3-15.6,3.9c-4.5,2.6-8.7,7.7-10.4,11.7c-1.7,3.9-2,4.7-2.8,7c-0.8,2.2-1.3,3.8-2.6,5.3c-7.6,8.5-16.4-7.7-17.3-20.6
	v-0.8c0-1.7-1.2-3.2-2.8-3.7c-1.9-0.5-4.5-1.2-6.2-1.5c-3.9-0.6-7.8-0.6-13-0.6c-9.1,0-17.5,1.9-25.3,5.2
	c-7.8,3.2-14.3,8.4-19.5,14.3c-5.2,6.5-9.1,13.6-12.3,22c-3.2,8.4-4.5,18.2-4.5,28.5c0,12.3,1.9,22.7,5.2,31.1
	c3.2,8.4,7.8,15.6,13,21.4c5.2,5.2,11.7,9.7,18.8,12.3c0.6,0.2,1.2,0.4,1.9,0.6c4,1.3,7.6,3.5,10.4,6.6c16.8,19-2,52.7,14,54.1
	c18.2-0.3-17-43,17-59.9c1-0.5,1.6-1.5,1.6-2.5c1.3-17.7,18-57.3,20.6-44.2c0.1,0.7,0.2,1.5,0.2,2.2v42.2c0,1.6,1.3,2.9,2.9,2.9
	h16.2c1.6,0,2.9-1.3,2.9-2.9v-71.4c0-1.6,1.3-2.9,2.9-2.9h11.1c1.6,0,2.9-1.3,2.9-2.9v-13c0-1.6-1.3-2.9-2.9-2.9h-11.7
	c-1.6,0-2.9-1.3-2.9-2.9v-4.2C249,96.7,249.6,92.8,251.5,90.2z M215.2,127.8c0,21.7-4.7,44.2-21.1,53.8c-4.7,2.7-10.3,3.5-15.6,2.3
	c-6.1-1.4-12.5-4.5-18.3-9.4c-8.4-6.5-13-19.5-13-38.9c0-14.9,3.9-27.2,11-35.7c4.5-5.3,10.5-9.1,17.3-11.1
	c7.8-2.4,16.2-1.4,23.3,2.8c12,7,16.3,17.9,16.4,26.5L215.2,127.8z"/>
<path d="M336.9,4.6H63.1c-5.5,0-10,4.5-10,10v261.9c0,7.5,2.9,14.8,8.4,19.9c30.3,28.3-5.4,95.3,22.4,98.9
	c21.6,0.4-0.2-44.5,7.1-77.1c3.7-16.3,18.5-27.7,35.2-27.7h210.6c5.5,0,10-4.5,10-10v-266C346.9,9.1,342.4,4.6,336.9,4.6z
	 M324.5,278.9H75.5c-5.5,0-10-4.5-10-10v-242c0-5.5,4.5-10,10-10h249.1c5.5,0,10,4.5,10,10v242C334.5,274.4,330.1,278.9,324.5,278.9
	z"/>
</svg>
