<?xml version="1.0" encoding="UTF-8" standalone="no"?>
<svg
   xmlns:dc="http://purl.org/dc/elements/1.1/"
   xmlns:cc="http://creativecommons.org/ns#"
   xmlns:rdf="http://www.w3.org/1999/02/22-rdf-syntax-ns#"
   xmlns:svg="http://www.w3.org/2000/svg"
   xmlns="http://www.w3.org/2000/svg"
   viewBox="0 0 682.66669 682.66669"
   height="682.66669"
   width="682.66669"
   xml:space="preserve"
   id="svg2"
   version="1.1"><metadata
     id="metadata8"><rdf:RDF><cc:Work
         rdf:about=""><dc:format>image/svg+xml</dc:format><dc:type
           rdf:resource="http://purl.org/dc/dcmitype/StillImage" /></cc:Work></rdf:RDF></metadata><defs
     id="defs6"><clipPath
       id="clipPath18"
       clipPathUnits="userSpaceOnUse"><path
         id="path16"
         d="M 0,512 H 512 V 0 H 0 Z" /></clipPath></defs><g
     transform="matrix(1.3333333,0,0,-1.3333333,0,682.66667)"
     id="g10"><g
       id="g12"><g
         clip-path="url(#clipPath18)"
         id="g14"><g
           transform="translate(304.8076,320.9497)"
           id="g20"><path
             id="path22"
             style="fill:#000000;fill-opacity:1;fill-rule:nonzero;stroke:none"
             d="m 0,0 v -0.286 c 29.719,0 59.438,-0.054 89.156,0.095 2.563,0.012 5.806,0.612 7.559,2.22 7.374,6.764 11.684,15.175 11.683,25.475 -10e-4,6.621 -0.033,6.746 -6.834,6.746 -61.07,0.006 -122.141,0.008 -183.212,-0.017 -2.441,-10e-4 -4.997,0.127 -7.287,-0.536 -2.029,-0.587 -4.68,-1.764 -5.46,-3.429 -2.537,-5.418 -5.176,-11.025 -6.242,-16.841 -1.797,-9.8 1.467,-13.336 11.486,-13.38 C -59.435,-0.084 -29.717,0 0,0 m 38.974,140.054 c 42.466,0 84.934,0.008 127.401,-0.004 19.719,-0.006 30.64,-10.942 30.654,-30.665 0.012,-15.027 -0.035,-30.054 0.016,-45.081 0.038,-11.366 -3.859,-20.511 -13.619,-27.124 -9.282,-6.29 -12.519,-19.128 -8.855,-31.325 1.261,-4.195 3.04,-7.082 7.487,-9.157 10.107,-4.717 14.745,-13.632 14.902,-24.574 0.241,-16.82 0.248,-33.649 0.012,-50.469 -0.233,-16.548 -11.725,-27.535 -28.577,-27.549 -60.761,-0.049 -121.523,-0.017 -182.284,-0.028 -10.381,-0.002 -19.262,-6.89 -21.397,-17.033 -0.613,-2.911 -0.459,-6.219 0.252,-9.124 1.682,-6.866 4,-8.416 11.031,-8.417 64.027,-0.007 128.056,0.01 192.083,-0.021 13.438,-0.006 23.327,-6.342 27.059,-17.65 1.206,-3.654 1.762,-7.67 1.811,-11.531 0.197,-15.677 0.119,-31.36 0.071,-47.04 -0.054,-18.19 -11.602,-29.715 -29.748,-29.741 -14.7,-0.021 -29.402,-0.158 -44.098,0.097 -3.871,0.067 -6.031,-1.459 -6.77,-4.797 -1.014,-4.591 -1.641,-9.282 -2.181,-13.959 -0.541,-4.693 -0.37,-9.494 -1.231,-14.115 -1.404,-7.55 -5.409,-13.42 -13.246,-15.46 -8.106,-2.112 -15.216,0.271 -21.065,6.128 -5.085,5.09 -7.056,11.604 -7.888,18.576 -0.715,5.988 -1.458,11.974 -2.352,17.937 -0.623,4.152 -2.895,5.713 -7.404,5.697 -49.98,-0.173 -99.963,0.048 -149.942,-0.188 -19.153,-0.091 -31.092,13.342 -30.341,30.072 0.703,15.65 0.135,31.354 0.155,47.034 0.021,15.861 7.24,24.915 22.504,28.736 1.837,0.46 3.866,1.928 4.907,3.517 7.915,12.079 2.971,27.618 -10.309,32.987 -10.724,4.334 -16.98,13.371 -17.076,25.059 -0.118,14.373 0.003,28.748 -0.111,43.121 -0.085,10.659 -2.677,13.28 -13.404,13.232 -8.176,-0.036 -15.766,-1.78 -19.484,-10.281 -0.943,-2.156 -1.408,-4.685 -1.435,-7.049 -0.14,-12.412 -0.036,-24.826 -0.079,-37.24 -0.061,-17.513 -10.933,-28.401 -28.43,-28.536 -1.634,-0.012 -3.293,-0.193 -4.896,0.029 -7.219,0.998 -12.556,-1.497 -16.517,-7.751 -4.759,-7.517 -7.252,-15.387 -4.839,-24.15 0.334,-1.214 2.865,-2.524 4.424,-2.582 7.503,-0.275 15.023,-0.07 22.536,-0.157 16.607,-0.192 27.612,-11.161 27.706,-27.734 0.094,-16.661 0.089,-33.322 0.003,-49.982 -0.087,-16.63 -11.786,-28.192 -28.574,-28.228 -27.93,-0.06 -55.861,-0.068 -83.791,0.004 -16.399,0.042 -28.332,11.523 -28.603,27.878 -0.279,16.819 -0.257,33.648 -0.009,50.468 0.242,16.451 11.581,27.409 28.035,27.6 4.899,0.057 9.819,-0.207 14.688,0.186 1.435,0.117 3.699,1.802 3.935,3.074 1.93,10.41 -0.913,20.076 -5.606,29.252 -0.558,1.09 -2.611,1.832 -4.046,1.973 -3.074,0.306 -6.199,0.076 -9.301,0.129 -16.115,0.277 -27.436,11.267 -27.698,27.465 -0.271,16.819 -0.245,33.648 -0.009,50.469 0.228,16.216 11.404,27.493 27.547,27.609 28.745,0.208 57.493,0.067 86.24,0.047 3.229,-0.001 6.682,-0.933 9.637,-0.076 5.386,1.562 7.542,6.122 6.802,12.082 -1.495,12.025 -13.376,22.554 -25.489,22.558 -25.152,0.009 -50.304,-0.021 -75.456,0.013 -18.176,0.024 -29.278,11.115 -29.331,29.299 -0.046,15.517 -0.033,31.034 -0.003,46.551 0.036,18.654 11.268,29.906 29.92,29.929 27.114,0.034 54.228,0.03 81.342,0.002 18.903,-0.02 29.804,-10.928 29.779,-29.844 -0.024,-18.287 -0.131,-36.574 -0.252,-54.86 -0.03,-4.618 2.488,-7.386 6.5,-8.756 6.195,-2.115 12.169,-2.435 17.679,-0.424 2.902,1.059 6.857,3.565 8.298,5.101 1.44,1.535 2.238,4.269 2.257,6.499 0.15,17.148 0.674,34.33 -0.17,51.44 -0.897,18.154 11.491,31.203 30.842,30.994 42.462,-0.458 84.933,-0.142 127.401,-0.142" /></g></g></g></g></svg>