<?xml version="1.0" encoding="utf-8"?>
<!-- Generator: Adobe Illustrator 23.0.6, SVG Export Plug-In . SVG Version: 6.00 Build 0)  -->
<svg version="1.1" id="Layer_1" xmlns="http://www.w3.org/2000/svg" xmlns:xlink="http://www.w3.org/1999/xlink" x="0px" y="0px"
	 viewBox="0 0 400 400" style="enable-background:new 0 0 400 400;" xml:space="preserve">
<g>
	<path d="M122.7,158c5.4,3.5,7.7,8.7,7.5,15.1c-0.1,4.3-0.4,8.6,0,12.8c0.8,8.7,9.9,15.8,18.5,15c8.2-0.7,12-6.5,11.2-17
		c-0.2-2.4-0.3-4.9-0.4-7.3c0-1-0.2-3.3,0.5-4.5c0.9-1.4,2.1-2.3,3.5-2.4c1.2-0.1,2.8,1.2,3.6,2.5c1.6,2.3,2.3,5.2,3.7,7.7
		c3.9,7.1,10.7,8.8,17.5,4.3c5.5-3.6,8-8.8,8.2-15.4c0.3-11.4,3.4-14.2,14.9-14.2c36.6,0,73.3,0,109.9,0c3,0,6.1-0.1,9.1-0.2
		c3.1-0.1,5.6-2.6,5.7-5.7c0.2-3.2,0.3-6.4,0.6-9.5c0.3-3.6-0.9-6.2-3.7-8.4c-5.7-4.5-8.8-10.7-9.8-17.7c-2-13-0.1-25.5,7.7-36
		c4.9-6.6,5.8-12.6,5.8-20.8c0-1.6,0-3.3,0-4.9c0-6.3,0-6.3-6.3-6.3c-34.4,0-68.8,0-103.2,0c-33.8,0-67.6,0-101.3,0
		c-1.4,0-2.9,0-4.3,0c-2,0-3.6,1.4-3.6,3.5c0.1,4.7,0,9.4,0,14.1c0,6,0.1,5.3,7.4,5.4c18.8,0.2,37.7,0.5,56.5,0
		c14.6-0.4,20.9,5.8,20.2,19.9c-0.1,1.6-0.5,3.2-0.6,4.8c-0.2,2.8-0.6,5.7-0.4,8.5c0.7,9.9,7.4,16.1,16.6,15.8
		c9-0.3,15.4-7.3,15.1-17.1c-0.1-4.7-1.3-9.4-2-14.1c-0.8-4.9,1.1-9.8,5-12.8c4-3.1,8.5-5,13.8-5c7.8,0,14.1-0.1,21.9-0.1
		c11,0,15.4,3.9,20.6,12c1.8,2.9,3.6,5.9,4.9,9.1c5.7,14.3,1.9,28.5-10,38.4c-3.6,3-7.4,4.3-12.2,4.2c-49.7-0.1-99.3-0.1-149-0.1
		c-1.4,0-2.9,0.1-4.3,0c-3.2-0.3-3.8,1.5-3.3,5.2c0.5,3.8,0.5,7.6-0.1,11.3C117.5,152.6,119,155.6,122.7,158z"/>
	<path d="M336.9,236c-0.3-4-0.1-8.1-0.1-12.2c0-5.8,0-5.8-6.1-5.8c-34.4,0-68.7,0-103.1,0c-3.7,0-7.3,0-11,0c-30.7,0-61.4,0-92.1,0
		c-7.2,0-6.4-0.6-6.4,6.7c0,4.1,0.2,8.1-0.1,12.2c-0.2,3.3,1.2,4.4,4.3,4.1c1.2-0.1,2.4,0,3.7,0c67.7,0,135.4,0,203.1,0
		c0.8,0,1.6-0.1,2.4,0C335.4,241.5,337.3,240.2,336.9,236z"/>
	<path d="M93.4,44.8H75.9c-3.3,0-6,2.7-6,6V62c0,3.3,2.7,6,6,6c3.1,0,5.5,2.5,5.5,5.6c0,3.3-0.1,6.6-0.2,9.9
		c-0.2,10.9-1.6,28.5-5.6,41c-1,3.2-2.8,6.2-4.7,9c-0.6,0.9-1,2.1-1,3.3v11.3c0,3.3,2.7,6,6,6h17.5c3.3,0,6-2.7,6-6v-11.3
		c0-1.2-0.3-2.3-0.9-3.2c-0.4-1.2-1.1-2.3-2.1-4.8c-5.2-12.9-5.6-45.1-5.2-58.7l0,0c0-1.2,1-2.1,2.2-2.1h0c3.3,0,6-2.7,6-6V50.8
		C99.4,47.5,96.7,44.8,93.4,44.8z"/>
	<path d="M93.4,217.9H75.9c-3.3,0-6,2.7-6,6v11.3c0,1.3,0.4,2.5,1.1,3.4c0.5,0.7,0.8,1.4,1,2.2c1.2,6.5,0.4,12.1-1.5,16.3
		c-0.4,0.9-0.7,1.9-1,2.9c-1.4,6.3,3.6,13.8,10.1,15.3c6.8,1.6,13-1.9,14.8-8.4c1.1-4.1-0.6-7.5-2.6-10.9c-3.4-5.8-2.3-9.6,2.3-13.9
		c0.8-0.7,1.7-1.3,2.6-2c1.6-1.1,2.6-2.9,2.6-4.9v-11.3C99.4,220.6,96.7,217.9,93.4,217.9z"/>
</g>
</svg>
