<?xml version="1.0" encoding="utf-8"?>
<!-- Generator: Adobe Illustrator 22.1.0, SVG Export Plug-In . SVG Version: 6.00 Build 0)  -->
<!DOCTYPE svg PUBLIC "-//W3C//DTD SVG 1.1//EN" "http://www.w3.org/Graphics/SVG/1.1/DTD/svg11.dtd">
<svg version="1.1" id="Layer_1" xmlns="http://www.w3.org/2000/svg" xmlns:xlink="http://www.w3.org/1999/xlink" x="0px" y="0px"
	 viewBox="0 0 400 400" enable-background="new 0 0 400 400" xml:space="preserve">
<g>
	<path d="M121.1,218.5c-2.3,0-4.1-1.8-4.1-4.1c0-10.7,0-20.7,0-30.7c0-2.6,1.2-3.6,3.7-3.5c1,0.1,2,0,3,0c51.3,0,102.6,0,153.9,0
		l0.7,0c3.2,0,5.9,2.6,5.9,5.9l0,0c0.1,12.4,0,24.9,0.2,37.3c0.2,14.3,5.4,26.5,15.7,36.5c2.7,2.6,6.1,3.8,13.2,3.8
		c17.9-0.2,30.3,0.1,48.3-0.1c4.8-0.1,6.7,1.4,6.7,8c0,6.9-0.1,15.1-0.1,23.1c0,5.5-0.6,7.9-5.1,7.9c-1.2,0-5.2,0-6.3,0
		c-78.3,0-152.7,0.1-231-0.2c-8.9,0-15.2,2.4-18.7,10.6c-3.8,8.8-2.7,17,3.7,24.1c6.4,7,14.2,11,24.1,11
		c61.9-0.1,123.8-0.1,185.7-0.1l0,0c3.3,0,6,2.7,6,6v28.1c0,2.1-1.7,3.8-3.7,3.8c0,0,0,0,0,0c-79.7,0-159.3,0-239-0.2
		c-8.7,0-9-3.3-9.1-14.7c-0.1-12.1,0.5-18.9-0.6-30.9c-0.7-7.8-1.6-12.4-4.5-19.8c-1.6-4.1-4.8-9.3-8.2-12.2
		c-2.5-2.2-6.6-3.9-10-4.4c-4-0.6-8.6-1.3-12.7-1.4c-3.4-0.1-6.2-1.2-5.5-5.7c1.4-9.3,0.9-18.7-0.1-28c-0.5-5.1,1.8-5.2,5-5.2
		c28.4,0,56.8,0,85.1,0c31.5,0,63.1,0.3,94.6-0.1c7.3-0.1,14.9-1.7,21.9-4.1c12.5-4.2,16.7-15.2,11.3-27.2c-0.4-0.9-0.9-1.8-1.3-2.7
		c-3.8-7.7-8.9-11.5-18.5-11.3c-35.8,0.7-71.7,0.3-107.5,0.3L121.1,218.5z"/>
	<path d="M326.2,126.4c0,7.1,0.1,8.8-4.5,8.8c-15.4-0.1-30.9-0.1-46.3-0.1c-59.6,0-119.2,0-178.8,0c-7.8,0-13,4.1-14.6,11.8
		c-0.7,3.4-0.6,6.9-0.9,10.4c-0.3,4-0.4,8-1.2,11.9c-1.9,9-8,14.9-16.2,16.1c-8.2,1.2-17.1-3.3-21.5-10.7
		c-3.4-5.9-4.1-12.3-2.5-18.8c2-8.2,5.2-16.2,6.3-24.5c2.5-20.1,0.4-40-7.7-58.6c-7.7-17.8-6.3-36-6.3-54.7c0-2.3,1.8-4.1,4.1-4.1
		l326.8,0c2.4,0,4.4,2,4.4,4.4c0,10.3-0.2,18.3,0,28.4c0.1,4-1.8,4.3-2.9,4.7c-1.3,0.5-6.3,0.1-7.8,0.1c-87,0-165.9-0.1-252.9-0.1
		c-10.3,0-13.6,2.9-16.3,6.5c-3.3,4.3-4.1,8.2-4.1,13.3c0,6.3,2.4,12.5,6.9,17.4c5.1,5.4,11.1,8.6,19.6,8.6
		c69.9-0.4,139.8-0.2,209.7-0.2h1.8c3.1,0,5.1,1.9,5.1,5.8L326.2,126.4z"/>
</g>
</svg>
