<?xml version="1.0" encoding="utf-8"?>
<!-- Generator: Adobe Illustrator 23.0.6, SVG Export Plug-In . SVG Version: 6.00 Build 0)  -->
<svg version="1.1" id="Layer_1" xmlns="http://www.w3.org/2000/svg" xmlns:xlink="http://www.w3.org/1999/xlink" x="0px" y="0px"
	 viewBox="0 0 400 400" style="enable-background:new 0 0 400 400;" xml:space="preserve">
<path d="M205.5,177c0-14.3,0.7-28.2,0.9-41.9c0.1-7.6,0.1-15,0.2-22.5c0.2-8.2,0-16.3,0-24.5c0-5.1,1.8-6.4,6.4-4.3
	c13.7,6.1,27.4,11.9,40.9,18.5c19.6,9.6,39,19.8,58.5,29.8c7.7,3.9,15.4,7.9,23.1,11.6c2.1,1,2.6,1.7,0.7,3.6
	c-6.4,6.8-8.7,15.1-6.7,24.2c1.6,7.7-1.9,12.9-6.3,13.7c-4.4,0.8-7.1-0.5-8.5-2.7c-2.2-3.3-3.1-6.4-1.7-10.3
	c0.9-2.3,1.3-4.8,1.7-7.3c0.4-3-1.7-4.4-4.2-4.2c-2.8,0.1-5.8,0.7-8.3,1.8c-10.9,4.8-21.5,10.1-32.5,14.8
	c-13.9,5.9-28.1,11.1-41.9,17c-3.9,1.7-7.5,4.6-10.4,7.8c-3.3,3.7-6,8.2-8.3,12.6c-2.5,4.8-1.8,9.6,0.9,14.5
	c4.3,7.8,0.9,16.6-7.2,20.1c-6.7,2.9-14.4-1.8-14.5-9.1c0-3.6,0.4-7.3,1.5-10.7c3-9.2-1-16.8-5.9-23.6c-5.2-7.3-12.7-12.1-21.1-15.8
	c-13.2-5.8-26-12.4-38.9-18.7c-7.8-3.9-15.5-8.1-23.4-11.8c-3-1.4-6.5-2.6-9.8-2.8c-4.4-0.4-7.2,4-6.3,8.7c0.7,3.9,1.9,7.6-2.2,10.6
	c-2.8,2.1-5.3,1.8-8,0.2c-2.6-1.5-3.9-3.6-3.5-6.7c0.2-1.1,0.3-2.3,0.7-3.4c4.3-10.4-1.3-18-7.6-25.1c-1.9-2.2-1.3-2.7,0.8-3.6
	c2.1-0.9,2.8-1.2,4.2-1.9c17.6-8,35.3-16.1,52.9-24c13.5-6,27-12,40.6-17.7c9.6-4,19.3-7.4,29.1-10.9c4.6-1.6,4.7-1.5,4.5,3.7
	c-0.2,3.9-0.1,8.1-0.2,12.1c-0.2,11.4-0.7,22.5-1,33.9c-0.4,18.9-1.1,37.8-1.7,56.7c-0.1,2.5,0.5,4.9,3.2,5.4
	c1.6,0.3,4.8-0.6,5.6-1.6c1.7-1.9,2.3-3.7,2.9-6.2C205.4,183.8,205.3,180.1,205.5,177z"/>
</svg>
