<?xml version="1.0" encoding="utf-8"?>
<!-- Generator: Adobe Illustrator 21.1.0, SVG Export Plug-In . SVG Version: 6.00 Build 0)  -->
<!DOCTYPE svg PUBLIC "-//W3C//DTD SVG 1.1//EN" "http://www.w3.org/Graphics/SVG/1.1/DTD/svg11.dtd">
<svg version="1.1" id="Layer_1" xmlns="http://www.w3.org/2000/svg" xmlns:xlink="http://www.w3.org/1999/xlink" x="0px" y="0px"
	 viewBox="0 0 400 400" enable-background="new 0 0 400 400" xml:space="preserve">
<g>
	<path d="M207.3,214.1c0-18.9,0.9-37.3,1.2-55.4c0.1-10,0.1-19.8,0.3-29.8c0.3-10.8,0-21.6,0-32.4c0-6.8,2.3-8.4,8.5-5.7
		c18.1,8.1,36.3,15.8,54.1,24.5c26,12.7,51.7,26.2,77.5,39.4c10.2,5.2,20.4,10.4,30.6,15.4c2.8,1.4,3.4,2.2,1,4.8
		c-8.5,9.1-11.5,19.9-8.9,32c2.2,10.2-2.5,17.1-8.4,18.1s-9.4-0.7-11.3-3.6c-2.9-4.3-4.2-8.5-2.2-13.6c1.2-3.1,1.8-6.4,2.2-9.7
		c0.5-4-2.3-5.8-5.6-5.6c-3.7,0.2-7.7,0.9-11.1,2.4c-14.4,6.4-28.5,13.4-43,19.6c-18.4,7.8-37.2,14.6-55.5,22.5
		c-5.2,2.2-10,6.1-13.8,10.3c-4.4,4.9-7.9,10.8-11,16.7c-3.3,6.4-2.4,12.7,1.2,19.2c5.7,10.3,1.2,22-9.5,26.6
		c-8.9,3.8-19.1-2.4-19.2-12c-0.1-4.7,0.5-9.7,2-14.2c4-12.2-1.3-22.2-7.8-31.3c-6.9-9.7-16.8-16-27.9-20.9
		c-17.4-7.6-34.4-16.4-51.5-24.8c-10.4-5.1-20.5-10.7-31-15.6c-3.9-1.8-8.7-3.4-13-3.8c-5.9-0.5-9.6,5.3-8.4,11.5
		c1,5.2,2.5,10-2.9,14.1c-3.7,2.8-7,2.4-10.6,0.3c-3.4-2-5.2-4.8-4.6-8.8c0.2-1.5,0.4-3.1,1-4.5c5.7-13.8-1.8-23.8-10.1-33.2
		c-2.5-2.9-1.7-3.5,1-4.8s3.7-1.6,5.5-2.5c23.4-10.6,46.7-21.3,70.1-31.8c17.9-8,35.7-15.9,53.8-23.4c12.7-5.2,25.6-9.7,38.5-14.4
		c6.1-2.2,6.3-2,5.9,4.9c-0.3,5.2-0.2,10.8-0.2,16c-0.2,15.1-1,29.8-1.3,44.8c-0.6,25-1.4,50.1-2.2,75.1c-0.1,3.3,0.7,6.4,4.3,7.2
		c2.1,0.4,6.3-0.8,7.4-2.1c2.2-2.6,3.1-4.9,3.8-8.2C207.2,223,207,218.1,207.3,214.1z"/>
</g>
</svg>
