<?xml version="1.0" encoding="utf-8"?>
<!-- Generator: Adobe Illustrator 23.0.6, SVG Export Plug-In . SVG Version: 6.00 Build 0)  -->
<svg version="1.1" id="Layer_1" xmlns="http://www.w3.org/2000/svg" xmlns:xlink="http://www.w3.org/1999/xlink" x="0px" y="0px"
	 viewBox="0 0 400 400" style="enable-background:new 0 0 400 400;" xml:space="preserve">
<path d="M156.4,71.9c11.2-0.5,21.1,4.3,31.3,7.9c3.3,1.2,6.5,2.4,9.9,3.2c8,2,15.1-3.8,14.5-12.1c-0.1-1.2-0.3-3.6-2.3-3.8
	c-2-0.2-3.1,0.5-4.2,0.7c-4.8,0.8-6.4-1.2-6.2-6.1c1-26.4,24.5-52.7,50.8-56.6c3.8-0.6,5.1,0.6,5,4.5c-0.1,14.1-5.4,26.1-13.3,37.6
	c-3.4,5.1-5.6,11.3-7,17.4c-1.6,6.7,0.7,7.9,7.4,7.1c23.9-2.6,44.2,4.4,60,23c2.2,2.7,2.1,4-0.8,6.2c-14,10.2-23.3,23.6-25.5,41.2
	c-3.3,26.1,8.1,48.9,31.2,61.6c4.1,2.2,5.3,4.1,3.1,8.3c-5.4,10.4-9.8,21.5-16,31.4c-6.7,10.5-7.8,21.2-4.6,32.6
	c2,7.2,5.5,14,7.4,21.3c1.3,5.3,1.9,11.1,1.2,16.4c-0.9,6.7-6.2,10.6-11.9,10.7c-5.7,0.1-10.8-3.6-12.4-10.3
	c-1.4-5.8-1.5-11.8-2.6-17.7c-0.4-2-1.1-5.2-2.7-5.8c-1.6-0.5-3.4,3.1-4.1,5c-1.8,4.5-2.3,9.5-4.7,13.6c-1.7,2.9-5.2,5.9-8.4,6.7
	c-4.3,1.1-7.9-2.3-9.2-6.3c-1.6-5.1-2.9-10.4-3.3-15.7c-1-16.1-2.4-18.2-17.8-23.1c-12.1-3.8-24-3.1-35.7,1.5
	c-10.4,4.1-23,9.6-32.4,6.6c-1.6-0.7-3.4,1.9-3.9,3.3c-1.7,5.7-2.9,11.5-4.3,17.3c-0.7,3-1.3,6.1-2.4,8.9c-1.8,4.4-5.2,7.3-10.2,7.2
	c-5.2,0-9.5-2.8-10.4-7.6c-1.1-5.9-1.7-12.4-0.5-18.2c2.9-13.6,3.1-26.8-2-39.9c-1.1-2.9-2.4-5.7-4-8.3
	c-18.8-30.4-28.4-63.1-26.3-99.1c2.1-34.5,24.9-62.7,57.2-69.4C149.5,72.3,153,72.3,156.4,71.9z"/>
</svg>
