<?xml version="1.0" encoding="utf-8"?>
<!-- Generator: Adobe Illustrator 21.1.0, SVG Export Plug-In . SVG Version: 6.00 Build 0)  -->
<!DOCTYPE svg PUBLIC "-//W3C//DTD SVG 1.1//EN" "http://www.w3.org/Graphics/SVG/1.1/DTD/svg11.dtd">
<svg version="1.1" id="Layer_1" xmlns="http://www.w3.org/2000/svg" xmlns:xlink="http://www.w3.org/1999/xlink" x="0px" y="0px"
	 viewBox="0 0 400 400" enable-background="new 0 0 400 400" xml:space="preserve">
<g>
	<path d="M369.5,189c-0.8-2.3-1.2-4.7,0.1-7.2c2.3-4.3,1.1-6.6-3.3-8.6c-4.7-2.1-9.4-2.2-14.2-1.5c-1.6,0.2-2.3,1-2.2,2.7
		c0.1,3.5,0,5.7,0,10.6c0,4.9-0.7,24-0.7,24.9s-0.2,1.8-0.7,2.1c-3.2,2.4-4.2,6-5.2,9.5c-0.3,1.2,0,2.7,0.5,3.8
		c2.1,5.1,2,11.4,0.9,13.1c-1.1,1.7-2.2,5.5-7.8,5.5s-5.8-2.2-7.2-7.5c-0.9-3.3-0.5-6.6,1.3-9.3c1.9-3,1.4-5.6,0.2-8.4
		c-1.3-3-2.9-6-4.4-8.9c-0.3-0.5-0.4-1.2-0.4-1.8c0-8.4,0-16.8,0-25.1c0-2.5-0.1-5-0.1-7.5c0-1.7-0.9-2.4-2.5-2.5
		c-4.9-0.4-7.9,2.5-10.4,6c-1,1.3-2.1,2.7-2.6,4.2c-0.5,1.6-1,3.6-0.5,5.2c1.2,3.8,1.6,7.5,0.3,11.3c-0.3,1-0.7,2.1-1.4,2.9
		c-2.2,2.3-6.7,2.4-10.1,0.3c-2.4-1.4-3.6-5.1-2.8-8.1c0.7-2.6,1.4-5.3,2-7.9c0.1-0.4,0.2-1.6-0.1-3s-2.5-5.7-3.3-7.8
		c-0.9-2.2-3.4-5.4-5.2-5.4c-1.9,0-1.6-1-1.6-1.5c0-7.6,0.2-21.6,0.1-22.7c-0.1-1.1,1.4-1.7,2.2-1.7c5.9-0.3,11.7-0.3,17.6-0.6
		c5.4-0.2,10.8-0.6,16.2-0.9c1.7-0.1,2.3-0.8,2.3-2.5c-0.2-6.7-0.3-13.3-0.3-20c0-4.4,0.4-8.8,0.4-13.2c0-2.5,1.1-3.6,3.5-3.6
		c5.2,0,10.4-0.1,15.5,0c3.5,0.1,4.1,0.6,4.2,4.2c0.2,10.2,0.3,20.4,0.3,30.6c0,4.1-0.1,4.2,3.9,4.6c4.6,0.4,9.2,0.6,13.9,0.8
		c5.1,0.2,10.1,0.2,15.2,0.4c1,0,1.9,0.1,3.3,0.2c1.4,0,1.8,0.9,1.9,1.6c0.5,3.9,1,7.9,1,11.8c0,3.7-0.5,7.4-1,11.1
		c-0.1,1-1.1,2.1-1.9,2.8c-3.4,2.9-5,6.2-3.4,10.8c1.6,4.5,0.1,11.1-4.9,11.6C372.6,194.8,370.3,191.4,369.5,189z"/>
	<path d="M153.3,346.8c5,0,8.8-1.5,10.3-4.6c2.1-4.3,2.3-10.5,1.5-13.6c-0.8-3-1.3-4-2.5-5.8c-1.4-2-3.2-4.4-3.2-6.5
		c0.1-3,1.2-6.2,2.8-8.8c4.4-6.8,10.7-11.3,18.4-14.2c21.3-8.2,38.9-21.6,52.8-39.7c17.1-22.4,25.6-47.8,26.2-76
		c-0.8-6.9-1.4-13.9-2.3-20.8c-0.7-5.3-1.1-5.5-6.4-5.5c-16.9,0.1-33.8,0.2-50.6,0.4c-3.2,0-5.3-1.3-6.9-4
		c-3.8-6.6-4.2-13.3-1.5-20.1c1.1-2.8,2.9-6.3,4.9-10.7c2-4.4,7.8-12,12.8-18.6c2.2-3,5.2-5.5,7.8-8.2c2.8-2.9,2.7-3.3-0.2-5.9
		c-15-13-31.9-22.1-51.1-27c-16.8-4.3-33.8-5.2-50.9-2.3c-17.5,3-33.7,9.2-48.4,19.2c-30.2,20.5-48,49.1-54,84.9
		c-2.4,14.3-1.9,28.6,1,42.8c4.5,22.4,14.3,42.3,29.7,59.3c16.7,18.5,37.1,30.7,61.1,37.1c8,2.1,16.3,3,24.1,6.2
		c4.4,1.8,8.7,3.8,10.4,8.2c1.3,3.3,0.8,7.3,1.1,11.1c0.2,2.8,0.2,5.6,0.7,8.3c0.5,2.8,0.8,4.5,2.4,8.1
		C144.6,343.6,148.3,346.8,153.3,346.8z M205.2,203.5c-7.4,19.4-20.4,33.7-39.3,42.4c-13.6,6.2-27.9,8.3-42.8,5.7
		c-23.5-4.2-41.3-16.6-53.1-37.2c-15.7-27.4-12-62,8.8-85.9c11.7-13.4,26.3-21.6,43.8-24.6c17-3,33,0,48,8.1
		c2.2,1.2,4.3,3.9,5.1,6.3c3,9.2,2.5,18.5-0.2,27.8c-0.4,1.3-1,2.4-1.7,3.6c-2.1,4-5.2,5.3-9.8,5.1c-8.5-0.4-17.1-0.1-25.7-0.2
		c-1.8,0-2,1.1-2,2.5c0,6.9,0,13.8,0,20.7c0,0,0,0,0,0c0,6.5-0.1,13,0.1,19.6c0.1,1.7,1,3.5,1.8,5.1c3.1,6.3,6.9,12.5,4.3,20
		c-0.9,2.6-1.8,5.3-2.5,8c-1,3.8-0.8,7.9,2.8,9.4c2.1,0.9,6.8-1.4,8-2.7c1.2-1.3,3.8-5.6,2.1-11.5c-1.1-3.7-2.1-7.7-1.9-11.5
		c0.1-2.7,1.6-5.8,3.4-7.8c4.2-4.6,9.6-6.9,16.1-6.8c10.5,0.2,21-0.3,31.6-0.4C205.8,199.2,206.5,200.2,205.2,203.5z"/>
</g>
</svg>
