<?xml version="1.0" encoding="utf-8"?>
<!-- Generator: Adobe Illustrator 21.1.0, SVG Export Plug-In . SVG Version: 6.00 Build 0)  -->
<!DOCTYPE svg PUBLIC "-//W3C//DTD SVG 1.1//EN" "http://www.w3.org/Graphics/SVG/1.1/DTD/svg11.dtd">
<svg version="1.1" id="Layer_1" xmlns="http://www.w3.org/2000/svg" xmlns:xlink="http://www.w3.org/1999/xlink" x="0px" y="0px"
	 viewBox="0 0 400 400" enable-background="new 0 0 400 400" xml:space="preserve">
<g>
	<path d="M115,380.8c-2.9,0-8.9-7.4-13-12.1c-2.2-2.7-5.8-4.3-7.8-7.1c-4.2-5.8-7.8-11.9-11.5-18c-6.3-10.1-12.5-20.3-18.7-30.4
		c-1.3-2.1-2.8-4.1-4.2-6.2c-0.5-0.7-1.1-1.2-1.7-1.8c0,0.8-0.2,1.7,0,2.5c0.9,4.1,2.5,8.2,2.7,12.3c0.4,6.2,0.9,12.8-3.7,17.8
		c-4.8,5.2-10.9,8.2-18.3,6.6c-5.1-1.1-9.9-3.1-13.8-6.8c-7.3-7-7.2-14.4-3.4-24.9c2-5.5,5.3-10.4,7.4-15.9
		c1.7-4.2,2.9-8.6,3.7-13.1c1-5.4-1.8-10.2-3.8-14.9c-2.5-6-5.6-11.7-8.6-17.4c-2.9-5.6-6-11-9-16.5c-0.7-1.2-1.5-2.5-1.8-3.8
		c-0.2-0.9-0.2-2.7,0.5-2.9s1.6,0.2,2.5,0.3c2.6,0.4,5.3,1.1,7.9,1.3c15.7,1.3,31.5,2.5,47.2,3.7c4.2,0.3,6.9,2.4,9,6.3
		c2.4,4.4,5.8,8.3,8.6,12.6c2.3,3.6,4.3,7.5,6.6,11.2c1.2,2,3,3.7,4.2,5.7c1.9,3.3,3.5,6.9,5.3,10.3c2.8,5.2,4.7,7.1,7.4,12.4
		c1.2,2.3,2.5,2.7,3.9,0.5c1.4-2.3,0.9-2,4.4-5.9c3.5-3.8,7.9-8.6,11.9-12.9c7.4-8.2,14.8-16.4,22.3-24.5c4.2-4.5,9-8.5,12.9-13.3
		c7.9-9.5,15.3-19.3,23.1-28.9c1.2-1.5,3.1-2.3,4.3-3.8c7.4-9,14.8-18.1,22.1-27.2c6.9-8.7,13.9-17.5,20.4-26.5
		c8.6-11.7,16.8-23.7,25.2-35.5c0.6-0.9,1.2-1.8,1.8-2.7c1-1.4,0.5-2.2-0.9-3.1c-10.1-5.9-12-15.3-4.9-24.8c4.2-5.5,8.5-11,13.2-16
		c5.7-6.1,13.3-9.7,21.1-12.4c10.6-3.6,19.1-10,26.3-18.3c3.1-3.5,6-7.1,9.1-10.6c1.8-2.1,3.4-3.6,6.8-3.1c2.8,0.4,5.9-1.4,8.8-1.6
		c13.8-0.9,27.6-1.7,41.5-2.4c2-0.1,4.1,0.4,6.1,0.9c2.9,0.8,3.4,2.6,1.6,4.9c-21.2,27.2-43.1,53.8-63.3,81.7
		c-10,13.7-20.5,27.5-27.4,43.3c-2.4,5.5-5.2,11-7.1,16.7c-4,12-2.3,23.9,2.1,35.5c2.8,7.2,5.9,14.2,8.2,21.5
		c2.4,7.7,2.5,15.6-1.7,23c-4,6.8-10.2,10.4-17.7,10.2c-7.9-0.2-14.2-4.3-18.1-11.4c-3.2-6-4.4-12.4-4.3-19.2
		c0.6-6.4,1.5-12.7,1.8-19.1c0.3-4.5-0.1-9.1-0.3-13.6c0-0.9,0.3-2.4-1-2.6c-1.3-0.1-1.7,1-2.2,1.7c-7.1,9-14.1,18.1-21.2,27.1
		c-15.4,19.7-31,39.3-46.2,59.2c-4.8,6.3-8.5,13.3-13.2,19.7c-8.1,11-13.5,24.1-23.8,33.6c-12.1,11.1-18.4,24-29.2,36.1
		c-1.2,1.4-2.2,2.2-4.2,5.5C118.9,377.3,117.9,380.8,115,380.8z"/>
</g>
</svg>
