<?xml version="1.0" encoding="utf-8"?>
<!-- Generator: Adobe Illustrator 23.0.6, SVG Export Plug-In . SVG Version: 6.00 Build 0)  -->
<svg version="1.1"
	 id="Layer_1" inkscape:version="0.92.2 (5c3e80d, 2017-08-06)" sodipodi:docname="emusic.svg" xmlns:cc="http://creativecommons.org/ns#" xmlns:dc="http://purl.org/dc/elements/1.1/" xmlns:inkscape="http://www.inkscape.org/namespaces/inkscape" xmlns:rdf="http://www.w3.org/1999/02/22-rdf-syntax-ns#" xmlns:sodipodi="http://sodipodi.sourceforge.net/DTD/sodipodi-0.dtd" xmlns:svg="http://www.w3.org/2000/svg"
	 xmlns="http://www.w3.org/2000/svg" xmlns:xlink="http://www.w3.org/1999/xlink" x="0px" y="0px" viewBox="0 0 400 400"
	 style="enable-background:new 0 0 400 400;" xml:space="preserve">
<path d="M331.9,126.4c-3.9-5-9.1-8.2-15.3-9.4l0,0c-1.6-0.3-3.2-0.9-4.7-1.8c-11.3-6.7-17.4-12.9-13.1-32.4c0.4-2,1.2-3.9,2.2-5.6
	c2.3-3.9,3.4-8.6,3.3-13.8c-0.2-13.3-10.4-23.9-24.2-25.3c-12.2-1.2-24.8,8.2-27.1,20.6c-0.5,2.4-1.3,3.2-3.6,3.6
	c-7.3,1.3-13.4,5.9-17,12.1c-0.7,1.2-2,2-3.4,1.9c-1.3-0.1-2.2-1-2.9-2.3c-0.7-1.6-0.9-3.3-0.6-5c1-5.7,0.1-11-2.4-15.9
	c-1.6-3.2-1.8-7-0.1-10.3c5.7-11.4,2.4-23.7-5.5-30.9c-9.5-8.7-23.9-9.1-34-1.1c-7.4,6-13.4,18.3-6.9,32c1.6,3.4,1.7,7.3,0.3,10.8
	c-2.5,6-3.3,11.7-2.5,16.7c0.2,1.4-0.2,2.9-1.4,3.8c-1.2,1-2.7,0.9-4.2,0.2c-1.3-0.6-2.4-1.6-3.3-2.7c-3.7-4.8-9-8.1-15-9.3
	c-2.8-0.5-3.7-1.8-4.2-4.2c-2.5-11.1-11.3-18.6-23.2-20c-9.7-1.1-20.3,4.8-25.1,14.1c-5,9.7-3.6,21.2,3.7,29.3
	c3.1,3.5,6.8,5.8,11,7.2c3.6,1.2,6.6,4,7.9,7.7c3.8,10.8,13.2,17.3,25.1,17.2c0.5,0,1,0,1.4-0.1c3.5-0.2,6.9,0.9,9.5,3.1
	c7.6,6.4,13.2,12.7,16.1,18.9c0.9,1.9,1.2,4,1.2,6.2c0,0.3,0,0.6,0,0.9c0,1,0.1,2,0.2,3c0.3,2.7-0.1,5.4-1.4,7.8
	c-3.4,6.3-10.6,12.5-22.7,18.6c-2.1-0.4-4.3-0.6-6.6-0.5c-11.4,0.4-21.7,9.5-23.8,21.3c-0.4,2.2-1.3,2.8-3.3,3.1
	c-14.2,2.4-23.6,16.8-20.5,31.2c2.9,13.7,17.4,23,31,19.7c11-2.7,17.3-9.7,19.9-20.2c0.4-1.8,1.9-3.2,3.7-3.7l0,0
	c2.7-0.5,5.2-1.5,7.5-2.8c2.7-1.5,6.1-1.6,8.7,0.2c5.8,3.9,8.1,11.7,9,20.2c0.2,1.9,0.1,3.8-0.5,5.6c-3.5,10.8,0.4,21.3,7.5,27.5
	c0.9,0.8,1.9,1.5,2.9,2.2c3.3,2.1,5.8,5.3,7,9c7.8,23.3-14.7,52.8,8.6,52.1c20.2-1.6-4.4-31.2,3.2-52.3c1.1-3.1,3.6-5.6,6.6-7
	c2-0.9,4-2.2,5.8-3.7c6.8-5.6,11.4-15.9,8.2-26.9c-1-3.6-1.3-7.3-0.6-11c1.2-6.3,3.4-12.6,7.1-17.4c1.7-2.2,4.9-2.6,7-0.8
	c3.1,2.5,6.8,4.3,11,5.1c1.8,0.3,3,0.7,3.4,3c2,12.4,12.7,21.3,25.3,21.4c13.4,0.1,24.9-9.9,26-22.6c1.2-14.3-7.4-26.3-21-28.8
	c-1.8-0.3-2.4-1-2.8-2.8c-2.8-15.9-18.8-25.3-33.9-20.3l-0.1,0c-3.5,1.2-7.3,0.8-10.4-1.1c-4.3-2.7-7.7-7.2-9.7-12.9
	c-1.3-3.5-1.4-7.3-0.7-11c0.3-1.6,0.4-3.2,0.4-4.9c0-0.8,0-1.5-0.1-2.3c-0.3-3.3,0.3-6.6,1.5-9.6c2.2-5.6,5.7-11.2,10.6-16.5
	c2.2-2.4,5.7-3.1,8.8-2.1c4.1,1.4,8.5,1.8,12.8,0.9c11.7-2.5,18.4-7.4,20.7-20.2l0,0c0.3-1.5,2.1-2.1,3.3-1.1
	c8.4,7.2,6.9,23.8-3.8,24.7c-8.9-0.8-17,3.1-21.8,8.6c-8.6,9.7-8.6,24.5-0.2,34.3c6.5,7.5,19,12.3,31.8,5.9c3.1-1.5,6.8-1.6,9.8,0
	c11.3,5.9,23.7,2.8,31.1-5.1C339.3,151.1,339.9,136.5,331.9,126.4z M210.8,88.3c1.6-0.7,3.4-1,5.1-0.6c10.7,2.8-4.1,26.1-15.1,29.1
	c-0.2,0-0.4,0-0.6,0c-1,0-1.9,0-2.8,0.1c-10.2-1.8-15.7-19-13.8-26.4c0.6-2.3,3.2-3.3,5.3-2.3C196,91.4,204,91.5,210.8,88.3z
	 M221.9,197.9c-2,2-5.2,2.3-7.6,0.7c-8.9-5.9-20.8-5.8-29.6,0.6c0,0,0,0,0,0c-0.8,0.6-2,0.8-2.9,0.3c-7.8-4-14.1-18.4-0.3-32.9
	c1.6-1.7,4.1-2,6.1-0.9c3.6,1.9,7.7,3.1,12.1,3.2c4.5,0.1,8.8-1,12.6-3.1c2.8-1.5,6.3-1.3,8.8,0.7
	C229.8,173.9,228.6,191.1,221.9,197.9z"/>
<path d="M102,164.8c2.1-1.2,4.6-1.2,6.7,0c12.8,7.2,25.9,2.9,32.8-4.7c8.6-9.6,9.1-23.6,1.2-33.5c-8.4-10.6-19.8-12.5-34.2-5.8
	c-2,0.9-4.3,0.9-6.2-0.3c-11.9-7.2-26.1-3.8-33.6,5c-8.3,9.7-8.4,24.3,0,34.1l0,0c1,1.2,1.8,2.5,2.3,4c7.1,21.7-8.6,38.5,1.5,43.5
	c2.2,1.1,4.7,1.2,7,0.4c11.5-4-3.4-19.9,0.9-34.3c0.9-3,3.7-4.9,6.8-4.8C92,168.7,97.1,167.6,102,164.8z"/>
</svg>
