<?xml version="1.0" encoding="utf-8"?>
<!-- Generator: Adobe Illustrator 22.1.0, SVG Export Plug-In . SVG Version: 6.00 Build 0)  -->
<!DOCTYPE svg PUBLIC "-//W3C//DTD SVG 1.1//EN" "http://www.w3.org/Graphics/SVG/1.1/DTD/svg11.dtd">
<svg version="1.1"
	 id="Layer_1" inkscape:version="0.92.2 (5c3e80d, 2017-08-06)" sodipodi:docname="emusic.svg" xmlns:cc="http://creativecommons.org/ns#" xmlns:dc="http://purl.org/dc/elements/1.1/" xmlns:inkscape="http://www.inkscape.org/namespaces/inkscape" xmlns:rdf="http://www.w3.org/1999/02/22-rdf-syntax-ns#" xmlns:sodipodi="http://sodipodi.sourceforge.net/DTD/sodipodi-0.dtd" xmlns:svg="http://www.w3.org/2000/svg"
	 xmlns="http://www.w3.org/2000/svg" xmlns:xlink="http://www.w3.org/1999/xlink" x="0px" y="0px" viewBox="0 0 400 400"
	 style="enable-background:new 0 0 400 400;" xml:space="preserve">
<sodipodi:namedview  bordercolor="#666666" borderopacity="1" gridtolerance="10" guidetolerance="10" id="namedview23" inkscape:current-layer="Layer_1" inkscape:cx="225.3254" inkscape:cy="300.39005" inkscape:pageopacity="0" inkscape:pageshadow="2" inkscape:window-height="1017" inkscape:window-maximized="1" inkscape:window-width="1920" inkscape:window-x="1358" inkscape:window-y="-8" inkscape:zoom="1.014234" objecttolerance="10" pagecolor="#ffffff" showgrid="false">
	</sodipodi:namedview>
<g>
	<path d="M352.4,148.6c-4.6-5.8-10.5-9.4-17.7-10.9l0,0c-1.9-0.4-3.7-1.1-5.4-2.1c-13-7.8-20.1-14.9-15.1-37.5
		c0.5-2.3,1.4-4.5,2.5-6.5c2.6-4.5,3.9-9.9,3.9-16c-0.2-15.3-12-27.6-28-29.2c-14.1-1.4-28.6,9.4-31.3,23.8
		c-0.5,2.7-1.5,3.7-4.2,4.2c-8.5,1.5-15.4,6.8-19.6,14c-0.8,1.4-2.3,2.3-3.9,2.2c-1.5-0.1-2.6-1.1-3.3-2.7c-0.9-1.8-1-3.9-0.7-5.8
		c1.1-6.6,0.1-12.7-2.7-18.4c-1.8-3.7-2-8.1-0.2-11.9c6.5-13.1,2.8-27.3-6.4-35.7C209.4,6.3,192.7,5.7,181,15
		c-8.6,6.9-15.5,21.2-7.9,36.9c1.9,3.9,2,8.5,0.3,12.5c-2.9,7-3.8,13.5-2.9,19.3c0.3,1.7-0.3,3.4-1.6,4.4c-1.4,1.1-3.1,1-4.9,0.2
		c-1.5-0.7-2.8-1.8-3.8-3.1c-4.3-5.5-10.4-9.4-17.3-10.7c-3.3-0.6-4.3-2.1-4.9-4.9c-2.9-12.8-13.1-21.5-26.8-23.1
		c-11.2-1.3-23.5,5.5-29,16.3c-5.8,11.2-4.1,24.5,4.3,33.9c3.6,4,7.8,6.7,12.7,8.3c4.2,1.4,7.6,4.7,9.1,8.9
		c4.4,12.5,15.2,19.9,29,19.8c0.6,0,1.1,0,1.7-0.1c4-0.3,8,1,11,3.6c8.7,7.4,15.2,14.7,18.6,21.9c1,2.2,1.4,4.7,1.3,7.1
		c0,0.3,0,0.7,0,1c0,1.2,0.1,2.3,0.2,3.4c0.3,3.1-0.1,6.2-1.6,9c-3.9,7.3-12.3,14.4-26.3,21.5c-2.4-0.5-5-0.7-7.6-0.6
		c-13.1,0.5-25.1,10.9-27.5,24.6c-0.5,2.6-1.5,3.2-3.8,3.6c-16.4,2.8-27.3,19.4-23.7,36.1c3.3,15.9,20.1,26.6,35.8,22.7
		c12.7-3.1,20-11.2,23-23.3c0.5-2.1,2.2-3.7,4.2-4.3l0,0c3.1-0.6,6.1-1.7,8.7-3.2c3.2-1.8,7.1-1.8,10.1,0.2
		c6.7,4.5,9.4,13.5,10.5,23.4c0.2,2.2,0.1,4.4-0.6,6.4c-4,12.5,0.5,24.6,8.6,31.7c1.1,0.9,2.2,1.8,3.3,2.5c3.8,2.5,6.7,6.1,8.1,10.4
		c9,27-17,60.9,9.9,60.2c23.3-1.9-5.1-36.1,3.7-60.4c1.3-3.6,4.1-6.5,7.6-8.1c2.4-1.1,4.6-2.5,6.7-4.2c7.8-6.5,13.2-18.3,9.5-31.1
		c-1.2-4.1-1.5-8.5-0.7-12.7c1.4-7.3,3.9-14.5,8.2-20.1c1.9-2.5,5.6-3,8.1-1c3.6,2.9,7.9,4.9,12.7,5.9c2.1,0.4,3.5,0.8,4,3.5
		c2.4,14.4,14.7,24.6,29.3,24.7c15.4,0.1,28.7-11.5,30.1-26.1c1.4-16.5-8.6-30.4-24.3-33.3c-2.1-0.4-2.8-1.1-3.2-3.3
		c-3.2-18.3-21.7-29.3-39.2-23.4l-0.1,0c-4,1.4-8.5,1-12-1.3c-4.9-3.1-8.9-8.3-11.2-14.9c-1.5-4.1-1.6-8.5-0.8-12.7
		c0.3-1.8,0.5-3.7,0.4-5.7c0-0.9,0-1.8-0.1-2.6c-0.3-3.8,0.3-7.6,1.7-11.1c2.5-6.5,6.5-12.9,12.3-19.1c2.6-2.8,6.6-3.6,10.1-2.4
		c4.7,1.6,9.8,2.1,14.8,1c13.5-2.9,21.2-8.6,23.9-23.3l0,0c0.4-1.7,2.5-2.4,3.8-1.2c9.7,8.3,8,27.5-4.4,28.6
		c-10.3-1-19.6,3.5-25.2,9.9c-9.9,11.2-10,28.3-0.2,39.6c7.5,8.7,21.9,14.2,36.7,6.9c3.6-1.8,7.8-1.9,11.3,0
		c13.1,6.8,27.3,3.2,36-5.8C360.9,177.1,361.6,160.3,352.4,148.6z M212.5,104.6c1.9-0.9,3.9-1.2,5.9-0.7
		c12.4,3.2-4.8,30.2-17.4,33.6c-0.2,0-0.5,0-0.7,0c-1.1,0-2.2,0-3.3,0.2c-11.8-2.1-18.2-21.9-15.9-30.5c0.7-2.6,3.7-3.9,6.2-2.7
		C195.3,108.2,204.6,108.3,212.5,104.6z M225.3,231.2c-2.3,2.4-6,2.6-8.8,0.8c-10.3-6.8-24-6.8-34.2,0.7c0,0,0,0,0,0
		c-1,0.7-2.3,0.9-3.4,0.3c-9-4.6-16.2-21.2-0.4-38c1.8-1.9,4.7-2.3,7.1-1.1c4.1,2.2,8.9,3.5,14,3.7c5.2,0.1,10.1-1.2,14.5-3.5
		c3.3-1.8,7.3-1.5,10.1,0.9C234.4,203.5,233,223.4,225.3,231.2z"/>
	<path d="M86.8,192.9c2.4-1.4,5.3-1.3,7.7,0c14.8,8.3,29.9,3.4,37.9-5.5c9.9-11.1,10.5-27.3,1.4-38.7c-9.7-12.2-22.8-14.5-39.5-6.7
		c-2.3,1.1-5,1-7.2-0.3c-13.7-8.3-30.1-4.4-38.8,5.8c-9.6,11.2-9.6,28.1,0,39.4l0,0c1.2,1.4,2.1,2.9,2.7,4.6
		c8.3,25.1-9.9,44.4,1.7,50.3c2.5,1.3,5.5,1.3,8.1,0.4c13.3-4.7-3.9-23,1-39.6c1-3.4,4.3-5.7,7.9-5.5
		C75.3,197.4,81.2,196.2,86.8,192.9z"/>
</g>
</svg>
