<?xml version="1.0" encoding="utf-8"?>
<!-- Generator: Adobe Illustrator 23.0.1, SVG Export Plug-In . SVG Version: 6.00 Build 0)  -->
<svg version="1.1"
	 id="svg6" xmlns:cc="http://creativecommons.org/ns#" xmlns:dc="http://purl.org/dc/elements/1.1/" xmlns:inkscape="http://www.inkscape.org/namespaces/inkscape" xmlns:rdf="http://www.w3.org/1999/02/22-rdf-syntax-ns#" xmlns:sodipodi="http://sodipodi.sourceforge.net/DTD/sodipodi-0.dtd" xmlns:svg="http://www.w3.org/2000/svg"
	 xmlns="http://www.w3.org/2000/svg" xmlns:xlink="http://www.w3.org/1999/xlink" x="0px" y="0px" viewBox="0 0 400 400"
	 style="enable-background:new 0 0 400 400;" xml:space="preserve">
<sodipodi:namedview  bordercolor="#666666" borderopacity="1" fit-margin-bottom="50" fit-margin-left="0" fit-margin-right="0" fit-margin-top="0" gridtolerance="10" guidetolerance="10" id="namedview8" inkscape:current-layer="svg6" inkscape:cx="-45.320183" inkscape:cy="133.00256" inkscape:pageopacity="0" inkscape:pageshadow="2" inkscape:window-height="705" inkscape:window-maximized="1" inkscape:window-width="1366" inkscape:window-x="-8" inkscape:window-y="245" inkscape:zoom="2.8284271" objecttolerance="10" pagecolor="#ffffff" showgrid="false">
	</sodipodi:namedview>
<g>
	<path d="M217.3,41.8c-4.7,0-8.4,4.2-8.4,9.4s3.7,9.4,8.4,9.4s8.4-4.2,8.4-9.4S222,41.8,217.3,41.8z M221.3,55.7c-1,0-2-1-2-2.5
		c0-1.2,1-2.5,2-2.5s2,1,2,2.5C223.2,54.7,222.2,55.7,221.3,55.7z"/>
	<path d="M144.6,44c-4.7,0-8.7,4.2-8.7,9.4s4,9.4,8.7,9.4c4.7,0,8.7-4.2,8.7-9.4S149.5,44,144.6,44z M148.5,58.1c-1.2,0-2-1-2-2.5
		c0-1.2,1-2.5,2-2.5c1.2,0,2,1,2,2.5C150.5,56.9,149.8,58.1,148.5,58.1z"/>
	<path d="M312.1,165.2c-2-2.6-3.4-3.8-9.1-5.9c-2.4-0.9-4.7-1.5-6.5-1.9c-1.5-0.3-2.6-1.6-2.6-3.1c-1.1-30.3,1.1-60.9-5.8-90.2
		c-0.5-2.2,0.6-4.5,2.6-5.5C316,45.8,294.5,8.5,269,22.7c-1.7,1-3.9,0.8-5.4-0.4C246.4,9,223.7,5.5,199.7,5.2c-2.3,0-4.7,0-7,0.2
		c-23.6,1.9-45.8,7.1-62.1,18.9c-1.3,1-3.1,1.1-4.6,0.5c-6.1-2.5-12-3.1-17.1-1.6c-5.8,1.7-13,7.8-14.8,14.1
		c-1.7,6.3-0.3,16.9,4.6,20.8c3.9,3.1,4.7,3.8,7.3,4.6c1.3,0.4,2.1,1.8,1.7,3.1c-8.7,29.2-1.4,58.7-0.4,88.8
		c0.1,1.7-1.2,3.2-2.9,3.5c-2,0.3-4.9,1-7.9,2.1c-5.8,2.1-6.9,3.3-8.9,5.9c-1.8,2.4-2.3,4.7,0.2,6.3c0.4,0.2,0.6,0.6,0.6,1.1
		c0.3,2.4,1.2,3.7,2.4,4.4l0,0c0,0,0.1,0,0.1,0c0.4,0.2,0.9,0.3,1.4,0.4c7.2,2,14,4.2,13.8,13.5c-2.3,28.5-4.7,60.6,9.6,83.7
		c2.9,4.8,6.7,9.1,10.7,12.6c0.2,0.2,0.2,0.5,0,0.6c-1.4,0.9-5.8,3.7-8.9,6.4c-3.8,3.2-5.4,5.7-5.9,8.2s0.1,5.2,1.5,6.7
		c0.9,0.9,0.8,1,1.2,1.1c0.9,0.3,1.7,0.9,2.3,1.7c0.2,0.2,0.4,0.5,0.6,0.7c0.6,0.6,1.2,1.1,1.6,1.8c19.1,28-4.8,78.5,17.3,79.5
		c20.9-0.7-21.7-68.7,25.8-86.7c2.4-0.9,5.1-1.2,7.6-0.7c7.3,1.4,14.6,2.1,21.5,2.3c18.1,0.6,38.3-1.4,55.8-8.3
		c1.5-0.6,3.2-0.6,4.7,0.1c36.3,16.7-1,54.5,22.2,57.6c19.4,0.4-2.9-29.4,8.1-49.2c0.4-0.7,0.9-1.3,1.5-1.9c1.4-1.8,1.8-2.6,1.9-3.9
		c0.1-1.3,0-4.1-0.7-6.1s-2.1-3.7-4.7-7.3c-1.5-2-3.5-4.1-5-5.5c-1-0.9-1-2.5-0.1-3.5c4.2-4.3,8-9.4,10.8-15.3
		c11.8-23.6,12.4-51.3,11.2-78.1c0.2-11.6,1.8-12.5,11.7-14.4l0,0c2-0.3,3.5-1.8,3.8-5.1c0-0.1,0-0.2,0.1-0.3c0.1-0.1,0.2,0,0.3,0
		c0.2,0.1,0.5,0.1,0.7,0.2C314.5,168.8,313.8,167.3,312.1,165.2z M130.5,58.9c-7.9-39.6,55.4-47,57.6-8.4
		C190.1,82.6,138.6,90.8,130.5,58.9z M219.8,96c-2.6,2.8-5.3,3-8.1,2.3c-1-0.2-2,0.5-2,1.6c0.2,3.6,0.7,7.4,0.3,11.2
		c-0.1,0.6-0.5,1.1-1.1,1.2c-9.9,1.6,11.7,44.7-4.5,44c-14,0.3-5.2-24-4.3-37.4c0.2-3.3-0.4-6.1-1.7-7.6c-0.5-0.5-1.3-0.5-1.7,0.1
		c-8.7,10.5-14.1-2-12.6-11.4c0.1-0.9-0.5-1.8-1.4-1.9c-2.2-0.2-4-1.2-5.6-3.7c-3.1-5.8,0.7-12.7,6.3-15c1-0.4,2.1,0,2.7,0.9
		c3.6,5.2,18.4,4.6,23.3-0.6c0.7-0.8,1.9-1,2.9-0.5C219.3,83.2,225.9,89.6,219.8,96z M202.5,52.7c-2.2-34.1,50.2-43.3,57.9-9.9
		C269,79.9,208.9,89.6,202.5,52.7z"/>
</g>
</svg>
