<?xml version="1.0" encoding="utf-8"?>
<!-- Generator: Adobe Illustrator 21.1.0, SVG Export Plug-In . SVG Version: 6.00 Build 0)  -->
<!DOCTYPE svg PUBLIC "-//W3C//DTD SVG 1.1//EN" "http://www.w3.org/Graphics/SVG/1.1/DTD/svg11.dtd">
<svg version="1.1" id="Layer_1" xmlns="http://www.w3.org/2000/svg" xmlns:xlink="http://www.w3.org/1999/xlink" x="0px" y="0px"
	 viewBox="0 0 400 400" enable-background="new 0 0 400 400" xml:space="preserve">
<g>
	<path d="M328,301.5c2.4,5.6,1.8,8.8-2.3,12.5c-8.8,7.9-10.7,18.9-5.1,29.7c4.9,9.5,5,18.6-1.8,26.9c-2,2.4-4.3,3.9-8.7,4.7
		s-10-1.4-14.1-4.9c-5.3-4.4-7.9-11.5-8.2-15.6s1.6-11.2,2.1-13.7c0.5-2.5-0.2-7.4-2.4-10.6c-2.2-3.1-6.7-5-9.9-3.2
		c-3.2,1.8-3.5,4.8-2.4,10.5c1.1,5.6,0.6,11.5-2.6,14.8c-3.2,3.2-9.6,5.1-15.7,2.9c-6.1-2.2-9.9-13.7-6.3-19.1
		c3.7-5.5,4.7-16.8-0.3-21.8c-5-5-8-5.4-12.8-5.4s-44.5-1.4-63.9-1.4S148,310.6,138,319s-12.6,20.7-7.1,30
		c3.8,6.5,6.5,12.6,1.4,19.8c-5,7-11.8,9.4-19.9,9c-12.2-0.6-17.7-10.4-13.3-23.2c3.5-10.3,3.3-19.9-0.9-28.2
		c-2.2-4.4-5.4-8.7-9.9-12.2c-4.6-3.5-7.7-3.8-12.2-4.3c-4.5-0.5-6.8-2.5-4.9-7.4c2-4.9,124.5-273.4,125.5-275.7s1.8-4.6,3.2-4.6
		s2.2,1.5,3.7,4.7S325.6,295.9,328,301.5z"/>
</g>
</svg>
