<?xml version="1.0" encoding="utf-8"?>
<!-- Generator: Adobe Illustrator 23.0.1, SVG Export Plug-In . SVG Version: 6.00 Build 0)  -->
<svg version="1.1"
	 id="svg8" xmlns:cc="http://creativecommons.org/ns#" xmlns:dc="http://purl.org/dc/elements/1.1/" xmlns:inkscape="http://www.inkscape.org/namespaces/inkscape" xmlns:rdf="http://www.w3.org/1999/02/22-rdf-syntax-ns#" xmlns:sodipodi="http://sodipodi.sourceforge.net/DTD/sodipodi-0.dtd" xmlns:svg="http://www.w3.org/2000/svg"
	 xmlns="http://www.w3.org/2000/svg" xmlns:xlink="http://www.w3.org/1999/xlink" x="0px" y="0px" viewBox="0 0 400 400"
	 style="enable-background:new 0 0 400 400;" xml:space="preserve">
<sodipodi:namedview  bordercolor="#666666" borderopacity="1" fit-margin-bottom="20" fit-margin-left="0" fit-margin-right="0" fit-margin-top="0" gridtolerance="10" guidetolerance="10" id="namedview10" inkscape:current-layer="svg8" inkscape:cx="29.597475" inkscape:cy="62.549235" inkscape:pageopacity="0" inkscape:pageshadow="2" inkscape:window-height="705" inkscape:window-maximized="1" inkscape:window-width="1366" inkscape:window-x="-8" inkscape:window-y="245" inkscape:zoom="4" objecttolerance="10" pagecolor="#ffffff" showgrid="false">
	</sodipodi:namedview>
<g id="Layer_1">
</g>
<g>
	<path d="M271.6,106c-7.4-4.3-14.9-6.8-23.6-6.8c-6.8,0-13,0.6-19.2,2.5c-6.2,1.9-11.8,3.7-16.7,5c-0.6,0-0.6,0.6-0.6,0.6v0.6
		c0,0.9,0.1,1.8,0.1,2.7c0.2,2.9,0.1,5.8-0.1,8.7c0,0.5,0,0.8,0,1.1h0v73.5c0,0.6,0.2,1.1,0.6,1.5s0.9,0.6,1.5,0.6h16.7
		c2.1,0,2.1-1.2,2.1-3.9c1-6.1,2.2-8.9,4.3-14.5c7.1-18.9,19-32.7,23.9-23.8c0.8,1.4,1.1,3,1.1,4.7c0,6.7,0,30,0,34.8
		c0,0.6,0.2,1.1,0.6,1.5l0.6,0.6c0.4,0.4,0.9,0.6,1.5,0.6h16.2c0.6,0,1.1-0.2,1.5-0.6c0.4-0.4,0.6-0.9,0.6-1.5v-59.9
		C282.8,119.7,279,110.4,271.6,106z M256,127.3c-1.6,11-15.8,22.2-21.9,13c-1.1-1.7-1.6-3.8-1.6-5.8l0.1-8.9c0-3.6,2.6-6.8,6.2-7.4
		c0.1,0,0.2,0,0.3,0c2.4-0.4,4.1-0.3,6.6-0.3c1,0,2,0,2.9,0.1C253.2,118.4,256.6,122.6,256,127.3z"/>
	<path d="M330.4,5H69.6c-5.5,0-10,4.5-10,10v253.4c0,5.5,4.5,10,10,10h183c6.3,0,12.5,0.6,18.7,1.9c74.2,16.2,0.9,103.9,30.5,113.9
		c2.7,0.9,5.6,0.9,8.3,0.2c35.6-8.9-13.9-89.4,18.6-111.4c7.3-4.9,11.7-13.2,11.7-22.1V15C340.4,9.5,335.9,5,330.4,5z M328.6,257.2
		c0,5.5-4.5,10-10,10H81.4c-5.5,0-10-4.5-10-10V26.8c0-5.5,4.5-10,10-10h237.3c5.5,0,10,4.5,10,10V257.2z"/>
	<path d="M150.1,67c-6.2,0-11.2,0-16.7,0c-5,0-9.9,0-13.6,0.6c-0.6,0-0.6,0-1.2,0.6c0,0,0,0,0,0.6v125c0,0.5,0.2,1,0.6,1.4l0.1,0.1
		c0.4,0.4,0.9,0.6,1.4,0.6h16.5c0.4,0,0.8-0.1,1.2-0.4v0c0.5-0.3,0.8-0.8,0.8-1.4c2.6-21.9,17.3-35.7,38-50.7c1.8-1,3.6-2.1,5.3-3.4
		c9.3-6.8,14.3-17.4,14.3-32.2c0-11.2-3.7-21.1-11.2-29.1C178,70.7,166.2,67,150.1,67z M145.1,156.9c-2.2,3.4-6.2,6.4-6.2,2.4v-6.9
		c0-1.2,1-2.2,2.2-2.2h2.1c0.7,0,1.5,0,2.4,0C148.1,150.1,146.9,154.1,145.1,156.9z M167.5,126.5c-5.6,3.1-11.8,5-18.6,5
		c-2.5,0-4.3,0-5.6,0c-1.7,0-3.7,0.1-3.7-3.4V89c0-1.9,1.5-3.4,3.4-3.4h1.5c1.9,0,4.3,0,6.8,0c8.1,0,13.6,1.9,18,5.6
		s6.2,9.3,6.2,16.7C175.5,117.2,173,123.4,167.5,126.5z"/>
</g>
</svg>
