<?xml version="1.0" encoding="utf-8"?>
<!-- Generator: Adobe Illustrator 22.0.0, SVG Export Plug-In . SVG Version: 6.00 Build 0)  -->
<!DOCTYPE svg PUBLIC "-//W3C//DTD SVG 1.1//EN" "http://www.w3.org/Graphics/SVG/1.1/DTD/svg11.dtd">
<svg version="1.1" id="Layer_1" xmlns="http://www.w3.org/2000/svg" xmlns:xlink="http://www.w3.org/1999/xlink" x="0px" y="0px"
	 viewBox="0 0 400 400" enable-background="new 0 0 400 400" xml:space="preserve">
<g>
	<path d="M136.7,264.5h34.8c3,0,5.7,2.1,6.4,5.1c0.1,0.3,0.2,0.7,0.2,1c2.8,11.7,10.4,17.6,22.4,16.6c4.2-0.4,8.5-1.7,12.3-3.4
		c11-4.8,12.3-20.2,6.5-28.1c-4.8-6.5-11.2-10.4-18.6-12.9c-8-2.7-16.2-4.8-24-8.2c-20-8.7-35.2-22.7-42.2-43.8
		c-7.8-23.4-1.7-44.5,12.6-63.7c0.7-1,1.5-1.9,1.7-2c-4.7-8.4-10.1-16.1-13.5-24.5c-13.4-33.1,5.4-72.3,39.1-84
		c22.3-7.7,43.5-7,63.7,5.7c19.8,12.5,27.8,26.8,29.8,49.4c0.6,6.4-0.6,8.1-1.7,9.4c-4.7,6-10.2,11.5-14.2,18
		c-4.8,7.8-4.8,16.4-0.9,24.8c2.8,6,5.7,11.9,8.8,17.8c4.8,9.2,8.4,19,9.1,29.3c0.5,7.2-1.7,14.9-3.4,21.9c-2,8.3-5.7,16-10.9,22.7
		c-2.5,3.2-2.6,7.5-0.3,10.8c1.6,2.1,3.1,4.2,4.5,6.4c6.5,10,10.3,21.4,10.2,33.1c-0.2,17.1-5.9,32.7-17.6,45.9
		c-7,7.9-13.3,16.5-19.6,25c-4.3,5.7-5.4,12.2-3.6,19.3c1.1,4.5,2.3,9,2.5,13.6c0.8,13.6-11.1,22.5-23.5,17.8
		c-6.5-2.4-9.8-7.5-10.4-14c-0.5-4.8-0.5-9.9,0.4-14.7c3-15.6-7.9-25-18.2-28c-14.7-4.3-26.7-12.5-35.3-25.2
		c-7.2-10.5-11-22.2-12.3-35.1C131.1,267.2,133.5,264.5,136.7,264.5z M204.3,58.6c-6.7-0.6-10.2-0.1-13.6,0.9
		c-15.2,4.5-16.5,21.8-9.3,31c7.6,9.6,21.5,15.7,33.5,12.9c9.3-2.2,16.7-3.4,15.4-12.9c-0.4-2.9-3.2-10.2-4.1-12.3
		c-1.4-3.2-2.2-4.3-5.5-10.1C217.4,62.3,211,59.2,204.3,58.6z M200,149.8c-8.3,0-14,1.8-17.5,6.4c-5.2,6.8-6.9,16.5-3.1,22.8
		c5.8,9.5,14.4,15.6,25.5,15.6c10.9,0,19.5-12.5,17.6-23.4C220.8,161.7,208.9,149.7,200,149.8z"/>
</g>
</svg>
