<?xml version="1.0" encoding="utf-8"?>
<!-- Generator: Adobe Illustrator 23.0.6, SVG Export Plug-In . SVG Version: 6.00 Build 0)  -->
<svg version="1.1" id="Layer_1" xmlns="http://www.w3.org/2000/svg" xmlns:xlink="http://www.w3.org/1999/xlink" x="0px" y="0px"
	 viewBox="0 0 400 400" style="enable-background:new 0 0 400 400;" xml:space="preserve">
<path d="M228.5,5.3c3.7,0.1,5.4,1.6,6,4c1,4.5,1.2,6.3,1.6,13.5c0.4,7.2,1.3,26.7,0.7,40c-0.6,12.7-1.3,25.2-2.4,37.9
	c-0.3,3.5-0.6,7.2-0.8,10.7c-0.3,5.4-1.1,10.7-1.6,16.1c-1.4,13.1-2.4,26.3-5,39.3c-1.9,9.4-4.1,19-10,27.8
	c-3.7,5.6-6.5,11.6-9.5,17.5c-2.1,4.1-0.8,8.1,1.3,12.2c5.5,10.7,12.8,20.9,14.2,32.6c0.9,7.4-0.8,14.4-8.3,19.9
	c-0.3,0.2-0.5,0.4-0.8,0.6c-5.8,4-23.6,3.3-29.2-0.9c-8.9-6.5-8.3-14.7-7.3-22.9c0.4-3.2,1.9-6.5,3.4-9.5c3.4-7,7.2-14,10.8-20.9
	c2.4-4.5,2.4-8.6-0.4-13.2c-4.5-7.3-8.9-14.7-12-22.4c-4.3-10.6-7.1-21.5-8.2-32.6c-1.2-11.8-2.6-23.5-3.6-35.3
	c-1.5-17.6-3.1-35.2-3.9-52.7c-0.7-15.4-0.4-30.8-0.2-46.2c0-3.6,1-7.2,1.9-10.7c0.8-3.5,2.7-4.5,7.3-4.7c4.4-0.2,23.2-0.3,28.3-0.3
	S224.8,5.2,228.5,5.3z"/>
</svg>
