<?xml version="1.0" encoding="utf-8"?>
<!-- Generator: Adobe Illustrator 21.1.0, SVG Export Plug-In . SVG Version: 6.00 Build 0)  -->
<!DOCTYPE svg PUBLIC "-//W3C//DTD SVG 1.1//EN" "http://www.w3.org/Graphics/SVG/1.1/DTD/svg11.dtd">
<svg version="1.1" id="Layer_1" xmlns="http://www.w3.org/2000/svg" xmlns:xlink="http://www.w3.org/1999/xlink" x="0px" y="0px"
	 viewBox="0 0 612 792" enable-background="new 0 0 612 792" xml:space="preserve">
<g>
	<path d="M347.2,537c-5,2.9-31.4,11.2-46.4,18.1c-8.3,3.8-15.8,9.9-23,15.8c-8.6,7.1-9.9,15.1-4.9,26.6c2.7,6.3,1.3,12.7-1.4,17.5
		c-4,7.1-10.2,13.1-18.8,15.6c-6.8,2-16.1-1.3-19.3-7.6c-2.8-5.5-6.5-11-7.2-16.9c-0.7-6.4,0.9-13.3,2.8-19.6
		c5.1-16.8-2.1-23.4-18.1-24c-23.3-0.8-46.8,2-70.2,3.2c-3.6,0.2-7.4,0.4-10.9-0.4c-7.9-1.8-8.8-4.5-7.7-12.4
		c3.2-21.4,5.6-42.9,8.8-64.2c1.4-9.5,3.9-18.9,6.3-28.2c1.2-4.5,1.8-7.5-4.6-7.8c-6.1-0.3-10-5.4-10.7-12.5
		c-1.2-11.4,0.9-21.6,9.4-30.3c14.7-15,24.5-33,31.3-52.8c3.4-9.7,7.2-19.5,19.8-18.8c4.9,0.3,10.7,2.2,14.3,5.4
		c10.6,9.8,20.3,20.6,30.6,30.8c0.9,0.9,4.3,1.1,5.2,0.2c22.8-21.8,45.4-44,68.3-65.8c11.1-10.6,22.6-20.7,33.9-31
		c15.7-14.2,31.6-28.1,47.2-42.4c15.5-14.2,30.7-28.6,46.1-42.9c2.2-2,4.7-3.7,7.3-5.2c5-2.8,9.3-2.5,13.9,1.9
		c7.4,7.2,14.6,15,23.4,20.1c15.9,9.3,24.2,24.4,33.7,38.7c1.6,2.4,3.8,4.5,6.1,6.4c11.1,9.3,18.6,31.2,12.5,44.6
		c-5.7,12.6-1.8,23.2,4,32.8c6.6,11,5,20-1.1,29.7c-3.7,6-14,8.4-20.1,4.8c-3.6-2.1-7.5-3.7-11.1-5.7c-6.1-3.5-9.9-8.4-9.1-16.1
		c1.3-7,2.5-14,3.9-21c0.9-4.7-1.1-6.5-5-3.9c-5.5,3.6-10.9,7.5-15.5,12.2c-11.3,11.3-21.8,23.3-33.2,34.6
		c-7.3,7.2-15.6,13.4-23.3,20.2c-6.2,5.5-12.1,11.4-18.4,16.9c-25,21.9-50.1,43.8-75.3,65.6c-2.8,2.5-2.9,3.5-0.1,6.4
		c7.1,7.2,13.4,15.2,20,22.8c2.4,2.8,4.9,5.4,7.4,8.1c7.7,8.5,10.1,14.7,7.4,21.6C352.7,535,352.2,534.2,347.2,537z"/>
</g>
</svg>
