<?xml version="1.0" encoding="utf-8"?>
<!-- Generator: Adobe Illustrator 23.0.6, SVG Export Plug-In . SVG Version: 6.00 Build 0)  -->
<svg version="1.1"
	 id="svg42" xmlns:cc="http://creativecommons.org/ns#" xmlns:dc="http://purl.org/dc/elements/1.1/" xmlns:inkscape="http://www.inkscape.org/namespaces/inkscape" xmlns:rdf="http://www.w3.org/1999/02/22-rdf-syntax-ns#" xmlns:sodipodi="http://sodipodi.sourceforge.net/DTD/sodipodi-0.dtd" xmlns:svg="http://www.w3.org/2000/svg"
	 xmlns="http://www.w3.org/2000/svg" xmlns:xlink="http://www.w3.org/1999/xlink" x="0px" y="0px" viewBox="0 0 400 400"
	 style="enable-background:new 0 0 400 400;" xml:space="preserve">
<path d="M91.7,55.1c16.2,0,32.3-0.1,48.4,0.1c5.3,0.1,9.4-0.5,12.9-5.4c1.9-2.7,6.4-4.4,10-5.1c5-1,10-1.7,15.1-2.2
	c2.8-0.3,5.7,0.3,8.1,1.7c26,14.9-12.4,55.9,12,57.5c23.4-2.4-10-35.5,11.8-55.3c3.2-2.9,7.4-4.2,11.7-3.9c2.3,0.2,4.6,0.4,6.9,0.6
	c5.4,0.5,12.8,2.2,15.4,5.9c5.3,7.6,12,6.2,19,6.2c5.7,0.1,11.5,0,17.3,0c8.5,0,17,0.1,25.7,0c7.4-0.1,7.8-1,5.2-7.6
	c-5-12.7-11.1-18.5-24.3-26.3C273.5,13.5,260,9.4,241.3,6.8c-18.7-2.5-51.4-2.2-71.2-0.5c-19.8,1.8-32.7,4.7-49.3,11.6
	c-14.6,6-27.7,14.4-34.5,29.4C83.1,54.6,83.3,55,91.7,55.1z"/>
<path d="M279.5,245.8c-9.7-4.8-11.5-5.2-11.8-10.1c-0.1-1.4,0.1-2.9,0.3-4.3c0-0.3,0.1-0.6,0.1-0.9V210c0-3.2-2.7-5.7-5.9-5.7h-3.9
	c-8.7-2.7-12.5-6.5-14.3-12.6c-0.7-2.2-0.7-4.5-0.4-6.7c0-0.2,0-0.4,0-0.5V164c0-3.2-2.7-5.7-5.9-5.7h-26.9c-3.3,0-5.9,2.6-5.9,5.7
	v20.5c0,3.2,2.7,5.7,5.9,5.7h0c3.1,0,6.3,0.3,9.4,1c14,3.1,25.8,7.5,17.1,13.1h-2c-3.3,0-5.9,2.6-5.9,5.7v20.5
	c0,3.2,2.7,5.7,5.9,5.7l12.3,0c2.8,0,5.5,1.3,7.1,3.5c1.6,2.3,1.6,4.7-1,6.6c-1.4,1-3.1,1.5-4.8,1.5c-25.5,0.1-50.9,0.1-76.4,0.1
	c-3.9,0-7.7-1.2-10.7-3.7c-2.6-2.2-3.6-4.6,0-7.3c0.6-0.4,1.3-0.7,2-0.7l0,0c3.2,0,5.9-2.5,5.9-5.7V210c0-3.2-2.7-5.7-5.9-5.7h-26.9
	c-0.3,0-0.7,0-1,0.1c-1.9,0.3-3.8-0.1-5.1-1.5c-3.3-3.4-2.3-9,5.2-12.1c0.8-0.3,1.7-0.5,2.6-0.7c2.7-0.5,4.8-2.9,4.8-5.6V164
	c0-3.2-2.7-5.7-5.9-5.7h-26.9c-3.3,0-5.9,2.6-5.9,5.7v20.5c0,3.2,2.7,5.7,5.9,5.7l7.2,0c2.9,0,5.3,2.4,5.1,5.3
	c-0.1,2.8-1.8,5.1-4,7.1c-1.5,1.3-3.5,1.9-5.4,1.7c-0.2,0-0.3,0-0.5,0H85.9c-3.3,0-5.9,2.6-5.9,5.7v20.5c0,3.2,2.7,5.7,5.9,5.7h26.9
	c3.2,0,5.8-2.5,5.9-5.7l0-16.6c0-2.5,2.1-4.5,4.6-4.2c1,0.1,2,0.4,3,1c2.9,1.7,4.6,4.9,4.6,8.3v11.5c0,3.2,2.7,5.7,5.9,5.7h2
	c2.2,0,4.4,1.2,5.4,3.2c1.2,2.4,0,4.4-2.6,6.2c-2.3,1.5-5,2.3-7.7,2.3c-4.4,0-8.7,0-13.1,0c-1.5,0-3-0.1-4.5,0
	c-7.7,0.5-10,2.9-10.2,10.4c-0.1,3.5-0.1,7.1,0,10.7c0.1,9.4,1.4,10.8,11.2,10.8c27.3,0,54.7,0,82,0c26.7,0,53.5-0.3,80.2,0.3
	c10.8,0.2,13.6-3.1,12.7-12.1c-0.2-2.4-0.2-4.8,0-7.2c0.7-7.8-1.2-11.1-5.6-12.3C284.2,247.7,281.8,246.9,279.5,245.8z"/>
<path d="M312.4,65.5c-0.3-4-1.8-5.1-5.5-5c-8.8,0.2-17.6,0.1-26.4,0.1c-9.1,0-18.2,0.1-27.4,0c-4.1-0.1-6.4,1.4-6.3,5.6
	c0.1,3.3-0.2,6.6,0.5,9.7c1.9,8.1,3.9,9.5,12.4,9.6c11.2,0.1,22.5,0,33.7,0C312.7,85.4,313.8,84,312.4,65.5z"/>
<path d="M86.3,144.1h26.9c3.2,0,5.9-2.5,5.9-5.7v-20.5c0-3.2-2.7-5.7-5.9-5.7h-1.8c-2.3,0-4.6-0.7-6.5-2.1
	c-9.3-6.8-4.2-16.8,14.6-23.9c1.5-0.5,3-0.8,4.6-0.8c2.4,0,4.9,0,7.3,0.1c17.7,0,18.9-1.4,18.7-18.5c-0.1-5.1-1.7-6.5-6.7-6.4
	c-15.2,0.3-30.3-0.1-45.5,0.1c-15.4,0.3-13.6-3.3-13.6,13.8c0,4.7,0.9,7.5,3.3,9.2c1.9,1.3,3.6,3,4.7,5c4.7,8.8,2.1,17-4.4,23
	c-0.4,0.4-1,0.6-1.6,0.6l0,0c-3.3,0-5.9,2.6-5.9,5.7v20.5C80.4,141.6,83.1,144.1,86.3,144.1z"/>
<path d="M170.1,138.4v-20.5c0-3.2-2.7-5.7-5.9-5.7h-26.9c-3.3,0-5.9,2.6-5.9,5.7v20.5c0,3.2,2.7,5.7,5.9,5.7h26.9
	C167.4,144.1,170,141.6,170.1,138.4z"/>
<path d="M262.7,112.2h-26.9c-3.3,0-5.9,2.6-5.9,5.7v20.5c0,3.2,2.7,5.7,5.9,5.7h26.9c3.2,0,5.8-2.5,5.9-5.7v-20.5
	C268.6,114.7,265.9,112.2,262.7,112.2z"/>
<path d="M314.1,112.2h-26.9c-3.3,0-5.9,2.6-5.9,5.7v20.5c0,3.2,2.7,5.7,5.9,5.7h26.9c3.2,0,5.9-2.5,5.9-5.7v-20.5
	C320,114.7,317.3,112.2,314.1,112.2z"/>
<path d="M180.3,210v20.5c0,3.2,2.7,5.7,5.9,5.7h26.9c3.2,0,5.8-2.5,5.9-5.7V210c0-3.2-2.7-5.7-5.9-5.7h-26.9
	C182.9,204.3,180.3,206.9,180.3,210z"/>
<path d="M313.7,204.3h-26.9c-3.3,0-5.9,2.6-5.9,5.7v20.5c0,3.2,2.7,5.7,5.9,5.7h26.9c3.2,0,5.8-2.5,5.9-5.7V210
	C319.6,206.9,316.9,204.3,313.7,204.3z"/>
<path d="M254.1,164v20.5c0,3.2,2.7,5.7,5.9,5.7h26.9c3.2,0,5.9-2.6,5.9-5.7V164c0-3.2-2.7-5.7-5.9-5.7h-26.9
	C256.6,158.3,254.1,160.9,254.1,164z"/>
<path d="M199.4,144.7c1.6-0.4,3.3-0.6,5-0.6h9.2c3.2,0,5.8-2.5,5.9-5.7v-20.5c0-3.2-2.7-5.7-5.9-5.7h-26.9c-3.3,0-5.9,2.6-5.9,5.7
	v20.5c0,1,0.3,1.9,0.7,2.7c1.1,1.9,1.4,4.3,0.6,6.3c-1.5,4-5.1,7.5-11.8,10.1c-1.2,0.5-2.4,0.7-3.7,0.7h-5.2c-3.3,0-5.9,2.6-5.9,5.7
	v20.5c0,3.2,2.7,5.7,5.9,5.7h26.9c3.2,0,5.9-2.6,5.9-5.7V164c0-3.2-2.7-5.7-5.9-5.7h-4.1c-2.6,0-4.1-2.9-2.6-5
	C184.1,150.1,190.6,147,199.4,144.7z"/>
</svg>
