<?xml version="1.0" encoding="utf-8"?>
<!-- Generator: Adobe Illustrator 22.1.0, SVG Export Plug-In . SVG Version: 6.00 Build 0)  -->
<!DOCTYPE svg PUBLIC "-//W3C//DTD SVG 1.1//EN" "http://www.w3.org/Graphics/SVG/1.1/DTD/svg11.dtd">
<svg version="1.1"
	 id="svg42" inkscape:version="0.92.1 r15371" sodipodi:docname="tty.svg" xmlns:cc="http://creativecommons.org/ns#" xmlns:dc="http://purl.org/dc/elements/1.1/" xmlns:inkscape="http://www.inkscape.org/namespaces/inkscape" xmlns:rdf="http://www.w3.org/1999/02/22-rdf-syntax-ns#" xmlns:sodipodi="http://sodipodi.sourceforge.net/DTD/sodipodi-0.dtd" xmlns:svg="http://www.w3.org/2000/svg"
	 xmlns="http://www.w3.org/2000/svg" xmlns:xlink="http://www.w3.org/1999/xlink" x="0px" y="0px" viewBox="0 0 400 400"
	 style="enable-background:new 0 0 400 400;" xml:space="preserve">
<sodipodi:namedview  bordercolor="#666666" borderopacity="1" gridtolerance="10" guidetolerance="10" id="namedview44" inkscape:current-layer="svg42" inkscape:cx="47.910307" inkscape:cy="391.79929" inkscape:pageopacity="0" inkscape:pageshadow="2" inkscape:window-height="705" inkscape:window-maximized="1" inkscape:window-width="1366" inkscape:window-x="-8" inkscape:window-y="235" inkscape:zoom="0.65186406" objecttolerance="10" pagecolor="#ffffff" showgrid="false">
	</sodipodi:namedview>
<g id="Layer_2_1_">
</g>
<g>
	<path d="M49,78c22.5,0,45-0.2,67.5,0.1c7.4,0.1,13.2-0.7,18-7.5c2.7-3.7,8.9-6.2,13.9-7.2c7-1.3,14-2.3,21-3
		c3.9-0.4,7.9,0.4,11.4,2.4c36.2,20.8-17.4,78,16.7,80.2c32.6-3.3-14-49.5,16.5-77.2c4.4-4,10.3-5.9,16.3-5.5
		c3.2,0.2,6.4,0.5,9.6,0.8c7.5,0.7,17.8,3.1,21.4,8.3c7.4,10.6,16.8,8.6,26.5,8.7c8,0.1,16.1,0,24.1,0c11.9,0,23.8,0.2,35.8,0
		c10.3-0.1,10.9-1.4,7.2-10.6c-7-17.7-15.5-25.8-34-36.6c-18.5-10.9-37.2-16.6-63.3-20.1c-26.1-3.5-71.6-3.1-99.3-0.6
		c-27.7,2.4-45.6,6.5-68.8,16.1C69.2,34.7,51,46.4,41.5,67.3C36.9,77.3,37.2,78,49,78z"/>
	<path d="M310.9,344.1c-13.5-6.7-16-7.3-16.5-14c-0.1-2,0.1-4,0.5-6c0.1-0.4,0.1-0.8,0.1-1.3v-28.6c0-4.4-3.7-8-8.2-8h-5.4
		c-12.1-3.8-17.4-9.1-20-17.5c-0.9-3-1-6.2-0.6-9.4c0-0.2,0-0.5,0.1-0.7V230c0-4.4-3.7-8-8.2-8h-37.6c-4.5,0-8.2,3.6-8.2,8v28.6
		c0,4.4,3.7,8,8.2,8l0,0c4.4,0,8.8,0.5,13.1,1.4c19.6,4.4,36,10.4,23.8,18.3h-2.8c-4.5,0-8.2,3.6-8.2,8v28.6c0,4.4,3.7,8,8.2,8
		l17.2,0c3.9,0,7.6,1.8,9.8,4.9c2.3,3.3,2.2,6.6-1.5,9.2c-1.9,1.4-4.3,2.1-6.6,2.1c-35.5,0.1-71,0.1-106.5,0.1
		c-5.4,0-10.7-1.7-14.9-5.2c-3.7-3-5-6.4-0.1-10.1c0.8-0.6,1.8-0.9,2.8-0.9l0,0c4.5,0,8.2-3.5,8.2-8v-28.6c0-4.4-3.7-8-8.2-8h-37.6
		c-0.5,0-0.9,0-1.4,0.1c-2.6,0.4-5.3-0.2-7.2-2.1c-4.6-4.7-3.2-12.5,7.2-16.9c1.1-0.5,2.4-0.7,3.6-0.9c3.8-0.7,6.7-4,6.7-7.9V230
		c0-4.4-3.7-8-8.2-8H75.1c-4.5,0-8.2,3.6-8.2,8v28.6c0,4.4,3.7,8,8.2,8l10,0c4,0,7.3,3.3,7.1,7.3c-0.2,4-2.5,7.1-5.6,10
		c-2.1,1.9-4.8,2.7-7.6,2.4c-0.2,0-0.5,0-0.7,0H40.8c-4.5,0-8.2,3.6-8.2,8v28.6c0,4.4,3.7,8,8.2,8h37.6c4.5,0,8.1-3.5,8.2-8l0-23.1
		c0-3.5,3-6.3,6.4-5.9c1.3,0.2,2.8,0.6,4.3,1.5c4.1,2.3,6.5,6.8,6.5,11.5v16c0,4.4,3.7,8,8.2,8h2.8c3.1,0,6.1,1.7,7.5,4.5
		c1.6,3.3,0,6.2-3.6,8.6c-3.2,2.1-7,3.2-10.8,3.2c-6.1,0-12.1,0-18.2,0c-2,0-4.2-0.2-6.3,0c-10.8,0.7-14,4.1-14.2,14.5
		c-0.1,4.9-0.1,9.9,0,14.9c0.1,13.1,1.9,15.1,15.6,15.1c38.1,0,76.3,0,114.4,0c37.3,0,74.6-0.4,111.9,0.4
		c15.1,0.3,18.9-4.3,17.7-16.9c-0.3-3.4-0.3-6.7,0-10c1-10.9-1.7-15.4-7.8-17.2C317.5,346.8,314.1,345.6,310.9,344.1z"/>
	<path d="M356.8,92.6c-0.4-5.6-2.5-7.1-7.7-7c-12.2,0.3-24.6,0.1-36.8,0.1c-12.7,0-25.3,0.1-38.2,0c-5.7-0.1-8.9,1.9-8.8,7.8
		c0.1,4.5-0.3,9.2,0.7,13.5c2.6,11.2,5.5,13.2,17.3,13.3c15.7,0.1,31.4,0,47,0C357.1,120.3,358.7,118.4,356.8,92.6z"/>
	<path d="M41.4,202.3H79c4.5,0,8.2-3.5,8.2-8v-28.6c0-4.4-3.7-8-8.2-8h-2.5c-3.3,0-6.5-1-9.1-2.9c-13-9.5-5.9-23.5,20.4-33.4
		c2-0.8,4.2-1.1,6.4-1.1c3.4,0,6.8,0,10.2,0.1c24.7,0,26.4-2,26.1-25.8c-0.1-7.2-2.3-9.1-9.4-9c-21.2,0.4-42.3-0.1-63.5,0.2
		c-21.4,0.4-18.9-4.6-18.9,19.2c0,6.5,1.3,10.5,4.7,12.8c2.7,1.8,5.1,4.1,6.6,7c6.5,12.2,2.9,23.8-6.2,32.1
		c-0.6,0.6-1.4,0.9-2.3,0.9l0,0c-4.5,0-8.2,3.6-8.2,8v28.6C33.2,198.7,36.9,202.3,41.4,202.3z"/>
	<path d="M158.3,194.3v-28.6c0-4.4-3.7-8-8.2-8h-37.6c-4.5,0-8.2,3.6-8.2,8v28.6c0,4.4,3.7,8,8.2,8h37.6
		C154.6,202.3,158.2,198.7,158.3,194.3z"/>
	<path d="M287.5,157.8h-37.6c-4.5,0-8.2,3.6-8.2,8v28.6c0,4.4,3.7,8,8.2,8h37.6c4.5,0,8.1-3.5,8.2-8v-28.6
		C295.6,161.3,291.9,157.8,287.5,157.8z"/>
	<path d="M359.2,157.8h-37.6c-4.5,0-8.2,3.6-8.2,8v28.6c0,4.4,3.7,8,8.2,8h37.6c4.5,0,8.2-3.5,8.2-8v-28.6
		C367.3,161.3,363.6,157.8,359.2,157.8z"/>
	<path d="M172.6,294.2v28.6c0,4.4,3.7,8,8.2,8h37.6c4.5,0,8.1-3.5,8.2-8v-28.6c0-4.4-3.7-8-8.2-8h-37.6
		C176.2,286.2,172.6,289.9,172.6,294.2z"/>
	<path d="M358.6,286.2H321c-4.5,0-8.2,3.6-8.2,8v28.6c0,4.4,3.7,8,8.2,8h37.6c4.5,0,8.1-3.5,8.2-8v-28.6
		C366.8,289.8,363.1,286.2,358.6,286.2z"/>
	<path d="M275.4,230v28.6c0,4.4,3.7,8,8.2,8h37.6c4.5,0,8.2-3.6,8.2-8V230c0-4.4-3.7-8-8.2-8h-37.6C279,222,275.4,225.7,275.4,230z"
		/>
	<path d="M199.2,203.1c2.3-0.6,4.6-0.9,7-0.9H219c4.5,0,8.1-3.5,8.2-8v-28.6c0-4.4-3.7-8-8.2-8h-37.6c-4.5,0-8.2,3.6-8.2,8v28.6
		c0,1.4,0.4,2.7,1,3.8c1.5,2.7,1.9,5.9,0.8,8.8c-2.1,5.6-7.1,10.4-16.5,14.1c-1.6,0.6-3.4,1-5.1,1h-7.2c-4.5,0-8.2,3.6-8.2,8v28.6
		c0,4.4,3.7,8,8.2,8h37.6c4.5,0,8.2-3.6,8.2-8V230c0-4.4-3.7-8-8.2-8h-5.7c-3.6,0-5.7-4.1-3.6-6.9
		C177.8,210.7,186.8,206.3,199.2,203.1z"/>
</g>
</svg>
