<?xml version="1.0" encoding="utf-8"?>
<!-- Generator: Adobe Illustrator 23.0.1, SVG Export Plug-In . SVG Version: 6.00 Build 0)  -->
<svg version="1.1"
	 id="svg4" xmlns:cc="http://creativecommons.org/ns#" xmlns:dc="http://purl.org/dc/elements/1.1/" xmlns:inkscape="http://www.inkscape.org/namespaces/inkscape" xmlns:rdf="http://www.w3.org/1999/02/22-rdf-syntax-ns#" xmlns:sodipodi="http://sodipodi.sourceforge.net/DTD/sodipodi-0.dtd" xmlns:svg="http://www.w3.org/2000/svg"
	 xmlns="http://www.w3.org/2000/svg" xmlns:xlink="http://www.w3.org/1999/xlink" x="0px" y="0px" viewBox="0 0 400 400"
	 style="enable-background:new 0 0 400 400;" xml:space="preserve">
<sodipodi:namedview  bordercolor="#666666" borderopacity="1" fit-margin-bottom="50" fit-margin-left="0" fit-margin-right="0" fit-margin-top="0" gridtolerance="10" guidetolerance="10" id="namedview6" inkscape:current-layer="svg4" inkscape:cx="-51.813156" inkscape:cy="84.990541" inkscape:pageopacity="0" inkscape:pageshadow="2" inkscape:window-height="1017" inkscape:window-maximized="1" inkscape:window-width="1920" inkscape:window-x="1358" inkscape:window-y="-8" inkscape:zoom="3.6875" objecttolerance="10" pagecolor="#ffffff" showgrid="false">
	</sodipodi:namedview>
<path d="M315.2,4.7H84.8c-6.3,0-11.3,5.4-10.8,11.8l21.4,240.3c0.4,4.5,3.5,8.2,7.9,9.4l62.8,17.5c3.5,1,6.9,2.4,10,4.3
	c42.4,26.4-19.5,103.3,24.4,107.2c33.9-0.2-13.3-77.9,18.9-105c3.2-2.7,7.1-4.6,11.1-5.7l66.1-18.5c4.3-1.2,7.5-5,7.9-9.4L326,16.5
	C326.5,10.2,321.5,4.7,315.2,4.7z M122.4,77.7l-0.7-8.3c-0.6-7.2,5.8-13,12.9-11.5c36.5,7.4,94.8,25.9,62.7,29.7h-64.1
	C127.6,87.5,122.9,83.2,122.4,77.7z M145,218.8c-5.7,0-10.4-4.2-10.9-9.9l-2.6-29.2c-0.6-6.3,4.4-11.7,10.8-11.7h10.2
	c5.6,0,10.3,4.3,10.8,9.8l1.4,15.6C166.7,211.8,159.5,218.7,145,218.8z M278.7,67.1l-12.8,143.5c-0.4,4.5-3.5,8.2-7.9,9.4
	l-50.4,13.9c-6.5,1.8-13.7,0.2-18.5-4.5c-11.3-11,5.5-23.5,29.4-31.5l9.7-2.7c4.3-1.2,7.5-5,7.9-9.4l2-22.1
	c0.6-6.3-4.4-11.8-10.8-11.8h-52.5c-5.6,0-10.3-4.3-10.8-9.8l-0.9-10.6c-0.6-6.3,4.4-11.8,10.8-11.8h58.2c5.6,0,10.3-4.3,10.8-9.8
	l1.4-15.4c0.4-4.2-1.7-8.3-5.4-10.4c-29.5-16.7-41.2-22.1-26.8-26.7c4.5-1.4,9.1-2.1,13.8-2.1h42C274.3,55.3,279.3,60.8,278.7,67.1z
	"/>
</svg>
