<?xml version="1.0" encoding="UTF-8" standalone="no"?>
<svg
   xmlns:dc="http://purl.org/dc/elements/1.1/"
   xmlns:cc="http://creativecommons.org/ns#"
   xmlns:rdf="http://www.w3.org/1999/02/22-rdf-syntax-ns#"
   xmlns:svg="http://www.w3.org/2000/svg"
   xmlns="http://www.w3.org/2000/svg"
   viewBox="0 0 533.33331 533.33331"
   height="533.33331"
   width="533.33331"
   xml:space="preserve"
   id="svg2"
   version="1.1"><metadata
     id="metadata8"><rdf:RDF><cc:Work
         rdf:about=""><dc:format>image/svg+xml</dc:format><dc:type
           rdf:resource="http://purl.org/dc/dcmitype/StillImage" /></cc:Work></rdf:RDF></metadata><defs
     id="defs6"><clipPath
       id="clipPath18"
       clipPathUnits="userSpaceOnUse"><path
         id="path16"
         d="M 0,400 H 400 V 0 H 0 Z" /></clipPath></defs><g
     transform="matrix(1.3333333,0,0,-1.3333333,0,533.33333)"
     id="g10"><g
       id="g12"><g
         clip-path="url(#clipPath18)"
         id="g14"><g
           transform="translate(238.7959,386.9434)"
           id="g20"><path
             id="path22"
             style="fill:#000000;fill-opacity:1;fill-rule:nonzero;stroke:none"
             d="m 0,0 c 5.045,-0.099 7.369,-2.127 8.131,-5.464 1.399,-6.132 1.636,-8.627 2.233,-18.458 0.598,-9.831 1.716,-36.338 0.897,-54.488 -0.779,-17.243 -1.769,-34.372 -3.288,-51.595 -0.42,-4.766 -0.806,-9.846 -1.063,-14.614 -0.397,-7.396 -1.445,-14.584 -2.216,-21.95 -1.868,-17.865 -3.202,-35.822 -6.795,-53.502 -2.612,-12.854 -5.641,-25.866 -13.626,-37.837 -5.104,-7.654 -8.875,-15.837 -12.897,-23.883 -2.824,-5.647 -1.039,-11.026 1.838,-16.567 7.54,-14.517 17.478,-28.496 19.393,-44.396 1.22,-10.117 -1.038,-19.595 -11.267,-27.056 -0.378,-0.276 -0.728,-0.575 -1.115,-0.842 -7.89,-5.461 -32.1,-4.49 -39.756,1.163 -12.06,8.904 -11.348,20.047 -9.936,31.21 0.557,4.409 2.571,8.797 4.623,12.996 4.677,9.569 9.746,19.029 14.74,28.508 3.208,6.089 3.241,11.783 -0.612,17.995 -6.171,9.948 -12.16,20.085 -16.409,30.566 -5.854,14.437 -9.704,29.308 -11.216,44.457 -1.598,16.017 -3.596,32.013 -4.953,48.042 -2.028,23.944 -4.22,47.893 -5.269,71.867 -0.917,20.952 -0.519,41.941 -0.322,62.912 0.046,4.862 1.417,9.746 2.572,14.565 1.144,4.77 3.664,6.113 9.988,6.354 5.932,0.227 31.598,0.407 38.521,0.407 C -30.88,0.39 -5.044,0.1 0,0" /></g></g></g></g></svg>