<?xml version="1.0" encoding="UTF-8" standalone="no"?>
<svg
   xmlns:dc="http://purl.org/dc/elements/1.1/"
   xmlns:cc="http://creativecommons.org/ns#"
   xmlns:rdf="http://www.w3.org/1999/02/22-rdf-syntax-ns#"
   xmlns:svg="http://www.w3.org/2000/svg"
   xmlns="http://www.w3.org/2000/svg"
   viewBox="0 0 533.33331 533.33331"
   height="533.33331"
   width="533.33331"
   xml:space="preserve"
   id="svg2"
   version="1.1"><metadata
     id="metadata8"><rdf:RDF><cc:Work
         rdf:about=""><dc:format>image/svg+xml</dc:format><dc:type
           rdf:resource="http://purl.org/dc/dcmitype/StillImage" /></cc:Work></rdf:RDF></metadata><defs
     id="defs6"><clipPath
       id="clipPath18"
       clipPathUnits="userSpaceOnUse"><path
         id="path16"
         d="M 0,400 H 400 V 0 H 0 Z" /></clipPath></defs><g
     transform="matrix(1.3333333,0,0,-1.3333333,0,533.33333)"
     id="g10"><g
       id="g12"><g
         clip-path="url(#clipPath18)"
         id="g14"><g
           transform="translate(122.1279,280.4805)"
           id="g20"><path
             id="path22"
             style="fill:#000000;fill-opacity:1;fill-rule:nonzero;stroke:none"
             d="m 0,0 c 0.393,-1.918 3.646,-8.001 5.228,-7.553 1.582,0.448 0.376,8.406 0,10.02 C 4.851,4.082 -0.393,1.918 0,0 m 57.372,-1.668 c 2.535,-1.113 19.559,4.96 30.215,8.423 2.16,0.702 3.535,1.452 4.385,2.865 2.886,4.801 3.406,9.847 1.104,15.123 -1.167,2.674 -2.544,3.792 -5.701,2.758 C 78.145,24.48 68.787,21.847 59.545,18.859 58.342,18.47 57.26,17.522 56.66,15.865 56.06,14.207 54.837,-0.555 57.372,-1.668 m 4.125,-155.062 c 5.585,1.061 6.515,1.331 11.931,2.592 22.767,5.303 40.988,17.011 54.525,31.456 15.738,16.794 25.147,37.288 28.011,55.724 0.955,6.145 2.348,17.127 0.675,17.537 -1.673,0.409 -4.463,-3.525 -6.089,-5.37 -1.625,-1.844 -2.697,-4.163 -4.202,-6.128 -2.625,-3.427 -5.642,-6.39 -10.503,-5.389 -4.801,0.988 -6.919,4.748 -7.681,8.978 -0.762,4.227 -0.27,8.673 -0.935,12.928 -0.774,4.945 -1.951,9.874 -3.551,14.607 -0.364,1.075 -3.455,2.217 -4.843,1.808 -17.723,-5.232 -35.411,-10.591 -53.004,-16.241 -9.193,-2.951 -8.964,-3.237 -8.95,-13.086 0.017,-12.519 -0.25,-25.038 -0.332,-37.557 -0.085,-12.988 -0.104,-25.977 -0.135,-38.966 -0.018,-7.547 -0.502,-23.955 5.083,-22.893 M 5.708,-64.987 c 0,5.632 -13.03,-5.971 -18.031,-11.977 -5.086,-6.107 -8.547,-13.584 -8.609,-20.252 -0.048,-5.258 0.841,-10.531 0.688,-15.78 -0.106,-3.643 -0.636,-7.526 -2.071,-10.827 -3.967,-9.125 -15.043,-10.145 -21.12,-2.21 -4.265,5.569 -4.066,11.841 -2.593,18.222 1.114,4.832 2.79,9.567 3.504,14.448 0.572,3.915 0.357,8.019 -0.103,11.97 -0.159,1.366 -1.893,3.229 -3.275,3.645 -4.576,1.377 -6.015,4.726 -6.098,8.821 -0.179,8.839 -0.145,17.684 -0.05,26.525 0.045,4.14 2.1,7.025 6.196,8.232 5.631,1.66 11.237,3.418 16.913,4.914 3.886,1.025 6,3.432 6.976,7.205 1.35,5.217 1.786,15.046 -0.355,15.642 -2.141,0.595 -11.585,-3.53 -17.224,-5.025 -9.004,-2.387 -12.495,0.367 -12.519,9.675 -0.019,7.601 -0.035,15.203 0.008,22.804 0.033,5.868 1.659,8.032 7.149,9.745 15.315,4.777 30.588,9.699 45.979,14.221 3.741,1.099 4.756,2.807 4.714,6.506 -0.184,16.287 -0.094,32.576 -0.072,48.865 0.01,7.273 2.496,9.772 9.733,9.79 10.704,0.029 21.408,0.031 32.112,-0.002 5.73,-0.017 8.43,-1.917 8.915,-7.702 0.539,-6.443 0.108,-12.967 0.088,-19.456 -0.017,-5.718 -0.042,-11.435 -0.077,-17.152 -0.017,-2.769 1.109,-3.467 3.809,-2.619 26.179,8.221 52.39,16.339 78.578,24.529 7.217,2.256 11.488,-0.789 11.523,-8.427 0.037,-8.376 0.028,-16.754 0,-25.131 -0.019,-5.728 -1.67,-7.888 -7.351,-9.664 -6.473,-2.023 -13.005,-3.87 -19.428,-6.04 -6.892,-2.327 -10.726,-15.23 -6.208,-20.869 0.543,-0.678 2.374,-0.801 3.427,-0.514 6.991,1.907 13.892,4.162 20.908,5.964 4.525,1.162 8.496,-1.831 8.586,-6.481 0.19,-9.769 1.041,-19.684 -0.316,-29.265 -0.804,-5.677 -0.492,-10.161 2.393,-14.772 3.641,-5.821 8.382,-10.41 14.93,-12.737 2.286,-0.813 4.813,-1.256 7.241,-1.303 8.374,-0.158 16.753,-0.026 25.129,-0.087 5.676,-0.041 8.075,-2.542 8.15,-8.195 0.484,-35.975 -11.233,-67.883 -32.779,-96.263 -14.708,-19.373 -33.254,-34.474 -55.129,-45.086 -9.123,-4.423 -19.044,-7.181 -28.484,-10.99 -1.845,-0.745 -4.307,-3.475 -4.745,-5.226 -1.842,-7.35 -2.685,-14.018 -4.367,-21.413 -0.99,-4.343 -2.052,-8.834 -4.079,-12.742 -3.336,-6.434 -9.965,-7.75 -15.713,-3.278 -3.388,2.636 -6.128,6.108 -9.135,9.228 -5.085,5.277 -7.599,4.779 -9.863,-2.311 -2.027,-6.344 -3.477,-12.876 -5.608,-19.18 -1.074,-3.174 -2.682,-6.358 -4.767,-8.963 -6.196,-7.746 -16.233,-6.676 -20.315,2.346 -1.732,3.826 -2.578,8.36 -2.612,12.582 -0.064,7.89 0.795,15.784 1.202,23.681 0.357,6.932 -0.959,13.476 -3.817,19.891 -1.393,3.127 -1.85,6.898 -1.86,10.379 -0.11,38.497 -0.084,76.993 -0.079,115.491 0.001,3.698 0.001,8.812 0.001,8.812 z" /></g></g></g></g></svg>