<?xml version="1.0" encoding="utf-8"?>
<!-- Generator: Adobe Illustrator 23.0.1, SVG Export Plug-In . SVG Version: 6.00 Build 0)  -->
<svg version="1.1"
	 id="svg8" xmlns:cc="http://creativecommons.org/ns#" xmlns:dc="http://purl.org/dc/elements/1.1/" xmlns:inkscape="http://www.inkscape.org/namespaces/inkscape" xmlns:rdf="http://www.w3.org/1999/02/22-rdf-syntax-ns#" xmlns:sodipodi="http://sodipodi.sourceforge.net/DTD/sodipodi-0.dtd" xmlns:svg="http://www.w3.org/2000/svg"
	 xmlns="http://www.w3.org/2000/svg" xmlns:xlink="http://www.w3.org/1999/xlink" x="0px" y="0px" viewBox="0 0 400 400"
	 style="enable-background:new 0 0 400 400;" xml:space="preserve">
<sodipodi:namedview  bordercolor="#666666" borderopacity="1" fit-margin-bottom="20" fit-margin-left="0" fit-margin-right="0" fit-margin-top="0" gridtolerance="10" guidetolerance="10" id="namedview10" inkscape:current-layer="svg8" inkscape:cx="-59.513734" inkscape:cy="7.2421471" inkscape:pageopacity="0" inkscape:pageshadow="2" inkscape:window-height="705" inkscape:window-maximized="1" inkscape:window-width="1366" inkscape:window-x="-8" inkscape:window-y="245" inkscape:zoom="5.6568543" objecttolerance="10" pagecolor="#ffffff" showgrid="false">
	</sodipodi:namedview>
<g id="Layer_1">
</g>
<g>
	<path d="M334.4,4.6H65.6c-5.5,0-10,4.5-10,10v260.7c0,5.6,3,10.8,7.9,13.6c38.8,21.8-9.3,104.9,23.6,106.6
		c22.6-0.6-0.3-52.1,6.6-85.3c3-14.4,16-24.5,30.7-24.5h210c5.5,0,10-4.5,10-10V14.6C344.4,9,339.9,4.6,334.4,4.6z M332.3,264.2
		c0,5.5-4.5,10-10,10H77.7c-5.5,0-10-4.5-10-10V26.7c0-5.5,4.5-10,10-10h244.5c5.5,0,10,4.5,10,10V264.2z"/>
	<path d="M252.6,142.9c-6.4-3.2-10.2-5.7-12.1-7.6c-1.9-1.9-2.5-4.5-2.5-6.4s0.6-3.8,2.5-5.7s5.7-3.2,10.2-3.2c3.8,0,7.3,0,11.9,2.2
		c4.7,2.2,5.2,4.6,8.1,4.6c0.6,0,1,0.1,1.6-0.6s0.7-1.2,0.7-1.8v-13.7c0-0.6,0-1.8,0-2.4s0-1-0.6-1.7c-1.7-1.2-4-1.8-7.3-2.4
		c-0.7-0.1-1.3-0.3-2-0.5c-3.6-1-7.7-1-12.4-1c-10.2,0-18.5,2.5-24.2,8.3c-2.3,2.3-4.2,4.8-5.7,7.4l0-0.1c-0.1,0.2-0.2,0.4-0.3,0.6
		c0,0,0,0,0,0c-6.1,11.4-10.9-7.8-15.3-21.6c-0.5-2-1.2-3.9-2-5.8c0-0.1-0.1-0.2-0.1-0.2l0,0c-1.8-4.1-4.2-7.8-7.2-11.1
		c-7-8.3-19.1-12.1-35.7-12.1c-6.4,0-12.1,0-17.2,0c-6,0-10.7,0-14.7,0c-1.1,0-1.9,0.9-1.9,1.9l0,127.9c0,0.6,0.2,1.1,0.6,1.5l0,0
		c0.4,0.4,1,0.6,1.5,0.6h16.7c0.6,0,1.1-0.2,1.5-0.6l0,0c0.4-0.4,0.6-1,0.6-1.5V155c0-1.1,0.9-1.9,1.9-1.9h2.5c1.3,0,3.2,0,5.1,0
		c14,0,25.5-3.2,35.1-10.2c4.3-2.8,7.6-6.7,10.1-11.4c0.5-1.1,1.3-2,2.2-2.8c5.1-3.8,9.7,0.9,13.3,7.7c0.4,0.8,0.7,1.7,0.9,2.5
		c0.9,3.5,2.5,6.5,4.7,9.1c1.2,1.4,2.5,2.7,4.1,4.1c2,1.7,3.7,3.7,4.9,6c4.2,8.1,1.1,15.7-13.1,19c-0.6,0.1-1.1,0.5-1.4,1.1
		c-0.1,0.3-0.2,0.6-0.2,0.9l0,17.4c0,0.8,0.3,1.6,0.9,2.2c27.2,27-4.1,56.7,14.5,60.1c0.2,0,0.4,0,0.6,0c15.3-1.3-7.5-45.1,9.2-54.3
		c1.3-0.7,2.7-1,4.1-1.1c8.4-0.6,15.4-3.1,21-7.5c6.4-5.1,9.6-12.1,9.6-21.7c0-7-1.9-12.7-5.1-17.2
		C268.5,151.8,262.2,147.3,252.6,142.9z M159.4,133.4c-1.4,0.4-2.9,0.6-4.3,0.6l-3.9,0h-3.9c-0.7,0-1.2-0.6-1.2-1.2l0-8
		c0-0.8,0.1-1.5,0.3-2.2C149.9,110.7,174.6,128.8,159.4,133.4z M184.2,110.6c-2.2,4.4-4.8,6.6-8.3,6.7c-4.8,0.1-10.6-3.2-15.8-8.2
		c-3.1-3-6.1-6.6-8.5-10.3c-1.5-2.3-2.7-4.6-3.7-6.9c-1-2.4,0.8-5,3.4-5c2.5,0,4.5,0,7,0c8.3,0,14.7,1.9,19.1,5.7
		c4.5,3.8,7.5,6.5,7.3,14.3C184.6,108.8,184.7,109.8,184.2,110.6z M253.9,182.4c-1.3,1.3-3.4,2-5.9,2.3c-2.6,0.3-5.2-0.5-7.1-2.3
		c-7.2-6.9-1.6-17.1,7.4-16.2c1.8,0.2,3.5,1,4.9,2.1c0.4,0.3,0.8,0.7,1.2,1.1c1.7,1.8,2.7,4.1,2.7,5.9
		C257.1,178.6,255.8,180.5,253.9,182.4z"/>
</g>
</svg>
