<?xml version="1.0" encoding="utf-8"?>
<!-- Generator: Adobe Illustrator 23.0.1, SVG Export Plug-In . SVG Version: 6.00 Build 0)  -->
<svg version="1.1"
	 id="svg8" xmlns:cc="http://creativecommons.org/ns#" xmlns:dc="http://purl.org/dc/elements/1.1/" xmlns:inkscape="http://www.inkscape.org/namespaces/inkscape" xmlns:rdf="http://www.w3.org/1999/02/22-rdf-syntax-ns#" xmlns:sodipodi="http://sodipodi.sourceforge.net/DTD/sodipodi-0.dtd" xmlns:svg="http://www.w3.org/2000/svg"
	 xmlns="http://www.w3.org/2000/svg" xmlns:xlink="http://www.w3.org/1999/xlink" x="0px" y="0px" viewBox="0 0 400 400"
	 style="enable-background:new 0 0 400 400;" xml:space="preserve">
<sodipodi:namedview  bordercolor="#666666" borderopacity="1" fit-margin-bottom="20" fit-margin-left="0" fit-margin-right="0" fit-margin-top="0" gridtolerance="10" guidetolerance="10" id="namedview10" inkscape:current-layer="svg8" inkscape:cx="16.742216" inkscape:cy="29.409815" inkscape:pageopacity="0" inkscape:pageshadow="2" inkscape:window-height="705" inkscape:window-maximized="1" inkscape:window-width="1366" inkscape:window-x="-8" inkscape:window-y="245" inkscape:zoom="16" objecttolerance="10" pagecolor="#ffffff" showgrid="false">
	</sodipodi:namedview>
<g id="Layer_1">
</g>
<g>
	<path d="M332.5,4.8h-265c-5.5,0-10,4.5-10,10v255.6c0,6.8,3.6,12.9,9.3,16.6c48.3,30.7-10.9,106.7,27.3,108.2
		c30.5-1.9-2.8-60.5,16.1-95c6.1-11.2,18-18,30.8-18h191.6c5.5,0,10-4.5,10-10V14.8C342.5,9.3,338,4.8,332.5,4.8z M330.5,260.9
		c0,5.5-4.5,10-10,10H79.5c-5.5,0-10-4.5-10-10V26.8c0-5.5,4.5-10,10-10h241.1c5.5,0,10,4.5,10,10V260.9z"/>
	<path d="M213.9,66.9c-0.2-0.2-0.3-0.4-1-0.4h-27.1c-0.6,0-1,0-1.4,0.3c-0.4,0.3-0.4,0.4-0.5,0.9s-3.1,12-5.7,20.8
		c-2.5,8.8-5,18.2-7.5,28.3c-3.1,10.1-5,19.5-7.5,28.3c-1.8,6.2-3.2,11.4-4.1,15.5c-0.2,1.1-1.8,1.1-2,0c-0.9-4.1-1.9-9.5-3.3-16.1
		c-1.9-8.8-3.8-18.2-6.3-28.3c-2.5-9.4-5-18.9-6.9-27.7c-1.9-8.8-4.9-19.5-5-19.9c-0.1-0.3-0.2-0.6-0.6-0.8s-0.7-0.2-1.4-0.2h-27.7
		h-0.8c-0.6,0-1.1,0.5-1.1,1.1l-6.9,127.3c0,0.6,0,1.3,0.6,1.3s0.6,0,1.3,0h18.2c0.6,0,1.2,0,1.5-0.2s0.4-0.4,0.4-1
		c0.6-10.7,0.6-22,1.3-33.3s1.3-22.6,1.3-32.7c0-10.1,0.6-19.5,0.6-27.7c0-6.4,0-14,0-18.5c0-0.8-0.1-1,0.1-1s0.2,0.3,0.4,1.1
		c1.4,5.9,3.5,15.1,5.2,23.4c2.5,10.1,4.4,20.1,6.9,30.8c1.9,10.7,4.4,21.4,6.9,32.1c2.4,10,4.3,18.9,6.1,26.2
		c0.2,0.9,1,1.5,1.9,1.5h17.3c0.9,0,1.7-0.6,1.9-1.5c1-4.5,4.2-18,6.8-26.8c1.2-4.2,2.3-8.2,3.4-12.3c0.6-2.1,1.7-4,3.4-5.4
		c11.2-9,11.5,28.9,14.4,44.6c0.1,0.5,0.5,0.8,1,0.8c3.3,0,15.9,0,19.6,0c0.6,0,1-0.5,1-1l-4.4-128.6
		C214.2,67.1,214.1,67.1,213.9,66.9z M196.5,100.4V122c0,2-0.3,4-0.9,5.9c-3.1,9.7-3.6-14-2.6-26.1c0.1-1.1,0.2-2.1,0.5-3.1
		c0.9-4,1.7-7.2,2.2-9.8c0.1-0.5,0.8-0.4,0.8,0.1V100.4z"/>
	<path d="M283.4,102.3c-0.6,0-1.3,0.6-1.3,0.6c0.3,15.4-23.8,63.3-28.9,34.7v-33.5c0-0.6,0-0.6-0.6-1.3s-0.6-0.6-1.3-0.6h-18.9
		c-0.6,0-1.3,0.6-1.3,0.6s0,0.6,0,1.3v62.3c0,13.8,3.8,23.3,10.7,27.7c7.5,4.4,15.7,6.9,24.5,6.9c2.4,0,4.8-0.1,7.2-0.3
		c23.8-0.1,1.2,51.4,16.1,53.5c16.6-1-9.5-35.2,10.4-58.5c2-2.4,3.3-5.3,3.4-8.5c0.1-3.6,0.1-7.8,0.1-8.3c0,0,0,0,0,0v-74.9
		c0-0.6,0-1.3,0-1.3c-0.6-0.6-0.6-0.6-1.3-0.6H283.4z M282.1,177.7c0,1.2-0.8,2.4-2,2.8c-1.3,0.4-2.3,0.7-3.6,1.1
		c-2.5,0.6-5.2,0.7-7.8,0.7c-5.7,0-9.3-2-11.8-5.1c0,0,0,0,0,0c-1.3-1.6-1.8-3.8-1.4-5.8c2.5-13.1,23.2-40.1,26.3-23.8
		c0.2,1,0.2,1.9,0.2,2.9V177.7z"/>
</g>
</svg>
