<?xml version="1.0" encoding="utf-8"?>
<!-- Generator: Adobe Illustrator 23.0.6, SVG Export Plug-In . SVG Version: 6.00 Build 0)  -->
<svg version="1.1" id="Layer_1" xmlns="http://www.w3.org/2000/svg" xmlns:xlink="http://www.w3.org/1999/xlink" x="0px" y="0px"
	 viewBox="0 0 400 400" style="enable-background:new 0 0 400 400;" xml:space="preserve">
<path d="M245.6,217.1c-1.5,2.4-4.5,7.2-7.9,12.7c-3.1,5.1-6.2,10.1-10.4,14.5c-2.6,2.7-4.1,6.3-6.3,9.4c-2.6,3.7-5.2,7.4-8.1,10.9
	c-4.1,5-6.6,9.8-7.2,16.4c-0.2,1.5,0.1,3.8,0.8,5.3c1.3,2.9,3,5.7,2.8,9.1c-0.1,2.3-0.8,4.6-3.2,5.3c-2.4,0.8-5.1,1.1-7.4-0.8
	c-0.3-0.2-0.5-0.6-0.8-0.7c-3.7-1.7-3.7-4.8-2.9-8.1c1.4-6.1,0.6-11.9-1.8-17.5c-0.6-1.4-1.8-2.5-2.8-3.7c-1.8-2.2-3.8-4.4-5.4-6.7
	c-3.5-5-6.8-10.2-10.3-15.1c-2-2.8-4.5-5.2-6.4-8c-3-4.4-5.6-9-8.4-13.4c-2.9-4.5-5.8-9-8.7-13.5c-0.2-0.3-0.7-1-1.9-3.6
	c-1.2-2.7-1.5-3.8-2.6-7c-0.5-1.5-1.3-2.9-1.9-4.3c-0.6-1.5,0-2.1,1.6-2.3c6.6-0.9,13.1-1.9,19.7-2.7c1.9-0.2,2.4-1.1,2.3-2.8
	c-0.3-7.7-0.7-15.3-0.8-23c-0.1-5.1,0.2-10.2,0.4-15.2c0.2-6,1.1-12.1,0.6-18.1c-1.1-11.5-0.4-22.9-0.6-34.4c0-2.6,0.5-5.2,0.8-7.7
	c0.2-1.7-0.5-1.7-1.7-0.9c-3.3,2-5.3,8.5-4,12.6c1.4,4.3,1.9,8.7,1.6,13.2c-0.2,3.6-5.8,8.3-9.3,7.8c-6.3-1-11.5-6.1-7.2-13.1
	c2.9-4.7,2.6-9.6,1-14.5c-0.6-2-1.9-3.8-2.8-5.7c-1.9-3.8-1.5-7.5,0.6-11.2c1.1-1.9,2.1-4.3,2.7-5.6c0.6-1.3,0.6-2.2,1.7-4.3
	c1.2-2.1,1.8-3.1,4.1-6.7s5.5-8.7,10.2-15.8c2.2-3.3,5-6.2,7.4-9.3c1.2-1.6,2.5-3.2,3.4-4.9c3.1-5.8,6.9-11.2,11.4-16.1
	c0.5-0.5,0.9-1.3,1.4-1.8c1.2-1.2,2.4-2.3,3.6-3.4c0.7-0.7,1.3-1.4,2-2.1c1.1-1.2,2.2-2.5,3.4-3.6c2.5-2.1,2.8-2.1,5.2,0.1
	c1.1,0.9,1.9,1.5,4.1,3.7c2.2,2.1,2.5,2.4,5.3,5.8s9.8,13.2,12.3,16.9s4.5,6.7,5.8,8.5c2.8,4.1,5.4,8.3,8.1,12.4
	c3.3,5.1,7.3,11.4,9.8,16.1c2.5,4.7,3.3,6.9,4.4,9.5s1.6,3.4,2.3,5c0.6,1.4,0.1,2-1.4,2.2c-6.6,0.8-13.2,1.8-19.8,2.6
	c-1.9,0.2-2.7,1.1-2.4,3c0.2,1.6,0.5,3.1,0.5,4.7c0.2,7.7,0.1,15.5,0.4,23.2c0.3,7.4,1.2,14.8,4.3,21.7c1.4,3.2,1.7,2.8,3.7,7.2
	c2,4.4,1.8,3,2.5,9s-3,11.3-9.3,9.9c-1.5-0.3-1.8,0.3-1.8,1.6c0.1,1,0.1,1.4,0,3.1c-0.1,1.7-0.3,10.7-0.4,13.2
	c-0.2,2.5-0.5,3.4-0.8,5c-0.2,1.6,0.6,2.3,2.2,2.6c5.5,0.8,11,1.7,16.5,2.5c1.3,0.2,2.7,0.4,4,0.6c1.8,0.3,1.2,1.6,0.8,2.5
	c-1.5,3.2-3.6,7-4.7,9.4S247.1,214.8,245.6,217.1z"/>
</svg>
