<?xml version="1.0" encoding="utf-8"?>
<!-- Generator: Adobe Illustrator 21.1.0, SVG Export Plug-In . SVG Version: 6.00 Build 0)  -->
<!DOCTYPE svg PUBLIC "-//W3C//DTD SVG 1.1//EN" "http://www.w3.org/Graphics/SVG/1.1/DTD/svg11.dtd">
<svg version="1.1" id="Layer_1" xmlns="http://www.w3.org/2000/svg" xmlns:xlink="http://www.w3.org/1999/xlink" x="0px" y="0px"
	 viewBox="0 0 400 400" enable-background="new 0 0 400 400" xml:space="preserve">
<g>
	<path d="M257.2,280.3c-1.9,3-5.7,9-9.9,15.9c-3.9,6.4-7.8,12.7-13.1,18.2c-3.2,3.4-5.2,7.9-7.9,11.8c-3.3,4.7-6.6,9.3-10.2,13.7
		c-5.2,6.3-8.3,12.4-9.1,20.6c-0.2,1.9,0.2,4.8,1,6.7c1.6,3.7,3.8,7.2,3.5,11.5c-0.2,2.9-1,5.8-4,6.7c-3.1,0.9-6.5,1.4-9.3-1
		c-0.3-0.3-0.6-0.7-0.9-0.9c-4.6-2.1-4.6-6-3.7-10.1c1.7-7.6,0.7-14.9-2.3-22c-0.7-1.7-2.3-3.1-3.5-4.6c-2.3-2.8-4.7-5.5-6.8-8.4
		c-4.4-6.3-8.5-12.8-12.9-19c-2.5-3.5-5.6-6.5-8-10.1c-3.7-5.5-7-11.3-10.6-16.9c-3.6-5.7-7.3-11.3-11-16.9
		c-0.3-0.4-0.9-1.2-2.4-4.5c-1.6-3.3-1.9-4.7-3.3-8.8c-0.7-1.9-1.6-3.6-2.4-5.5c-0.7-1.8,0-2.6,2-2.9c8.3-1.1,16.5-2.4,24.8-3.4
		c2.4-0.3,3-1.4,2.9-3.6c-0.4-9.6-0.8-19.3-1-28.9c-0.1-6.4,0.3-12.8,0.5-19.1c0.3-7.6,1.4-15.2,0.7-22.7
		c-1.4-14.4-0.5-28.8-0.7-43.2c-0.1-3.2,0.6-6.5,1-9.7c0.2-2.1-0.6-2.1-2.2-1.2c-4.2,2.5-6.7,10.7-5.1,15.8c1.7,5.4,2.4,10.9,2,16.5
		c-0.3,4.5-7.3,10.4-11.7,9.8c-7.9-1.2-14.4-7.6-9-16.5c3.6-5.9,3.2-12,1.3-18.2c-0.8-2.5-2.4-4.7-3.5-7.1c-2.3-4.8-1.9-9.5,0.7-14
		c1.4-2.4,2.6-5.4,3.4-7.1s0.8-2.7,2.2-5.4c1.4-2.7,2.3-3.9,5.1-8.4c2.9-4.5,6.9-11,12.9-19.9c2.8-4.1,6.2-7.7,9.3-11.7
		c1.5-2,3.1-4,4.3-6.1c3.9-7.3,8.6-14.1,14.4-20.2c0.6-0.7,1.1-1.6,1.7-2.2c1.5-1.5,3-2.8,4.5-4.3c0.9-0.8,1.6-1.8,2.4-2.6
		c1.4-1.5,2.7-3.1,4.3-4.5c3.1-2.6,3.5-2.6,6.5,0.1c1.4,1.2,2.4,1.9,5.1,4.6c2.7,2.7,3.1,3,6.6,7.3s12.3,16.5,15.4,21.2
		c3.1,4.6,5.7,8.4,7.3,10.7c3.5,5.1,6.8,10.4,10.1,15.6c4.1,6.4,9.2,14.3,12.3,20.2s4.1,8.7,5.5,11.9c1.4,3.2,2,4.2,2.9,6.3
		c0.8,1.7,0.2,2.5-1.7,2.8c-8.3,1.1-16.5,2.2-24.8,3.3c-2.3,0.3-3.4,1.3-3.1,3.7c0.3,2,0.6,3.9,0.6,5.9c0.2,9.7,0.2,19.5,0.5,29.2
		c0.3,9.3,1.6,18.6,5.4,27.3c1.8,4.1,2.1,3.5,4.7,9.1c2.5,5.6,2.2,3.8,3.2,11.3s-3.7,14.2-11.6,12.5c-1.9-0.4-2.3,0.3-2.2,2
		c0.1,1.3,0.1,1.8,0,3.9s-0.3,13.4-0.5,16.5s-0.7,4.2-1,6.3c-0.3,2.1,0.7,2.9,2.7,3.2c6.9,1,13.8,2.1,20.7,3.2
		c1.7,0.3,3.4,0.5,5.1,0.8c2.3,0.4,1.6,2,1,3.2c-1.9,4-4.5,8.8-5.9,11.8C261.2,272.6,259.1,277.3,257.2,280.3z"/>
</g>
</svg>
