<?xml version="1.0" encoding="UTF-8" standalone="no"?>
<svg
   xmlns:dc="http://purl.org/dc/elements/1.1/"
   xmlns:cc="http://creativecommons.org/ns#"
   xmlns:rdf="http://www.w3.org/1999/02/22-rdf-syntax-ns#"
   xmlns:svg="http://www.w3.org/2000/svg"
   xmlns="http://www.w3.org/2000/svg"
   viewBox="0 0 533.33331 533.33331"
   height="533.33331"
   width="533.33331"
   xml:space="preserve"
   id="svg2"
   version="1.1"><metadata
     id="metadata8"><rdf:RDF><cc:Work
         rdf:about=""><dc:format>image/svg+xml</dc:format><dc:type
           rdf:resource="http://purl.org/dc/dcmitype/StillImage" /></cc:Work></rdf:RDF></metadata><defs
     id="defs6"><clipPath
       id="clipPath18"
       clipPathUnits="userSpaceOnUse"><path
         id="path16"
         d="M 0,400 H 400 V 0 H 0 Z" /></clipPath></defs><g
     transform="matrix(1.3333333,0,0,-1.3333333,0,533.33333)"
     id="g10"><g
       id="g12"><g
         clip-path="url(#clipPath18)"
         id="g14"><g
           transform="translate(183.1245,357.5879)"
           id="g20"><path
             id="path22"
             style="fill:#000000;fill-opacity:1;fill-rule:nonzero;stroke:none"
             d="m 0,0 c 3.852,-0.431 7.505,-2.63 8.806,-6.2 1.953,-5.358 3.317,-11.101 3.846,-16.778 2.5,-26.81 4.698,-59.002 4.698,-80.634 0,-21.633 -0.038,-34.71 -0.765,-52.022 -1.123,-26.775 -3.038,-53.522 -5,-80.253 -0.424,-5.775 -2.357,-11.461 -3.8,-17.135 -2.24,-8.809 -1.717,-17.249 2.416,-25.472 2.119,-4.216 4.059,-8.564 5.61,-13.015 3.344,-9.597 0.174,-18.154 -7.864,-22.12 -7.617,-3.759 -17.981,-0.789 -23.245,6.755 -3.548,5.083 -4.625,10.795 -3.626,16.846 0.977,5.912 2.469,11.749 3.222,17.684 2.181,17.184 -5.862,29.981 -18.027,40.931 -11.877,10.69 -23.823,21.308 -35.506,32.207 -5.5,5.132 -9.692,10.08 -14.913,15.514 -2.223,2.313 -3.597,3.145 -6.657,3.368 -3.06,0.221 -4.973,0.266 -8.923,0.087 -3.949,-0.179 -6.648,-1.299 -7.789,-6.792 -0.759,-3.657 -0.61,-7.507 -0.814,-11.273 -0.152,-2.829 0.133,-5.73 -0.394,-8.482 -1.386,-7.242 -7.785,-9.767 -13.834,-5.564 -2.237,1.555 -4.218,3.474 -6.383,5.141 -0.607,0.467 -1.325,1.422 -2.186,0.923 -0.862,-0.498 -0.635,-2.058 -0.591,-3.492 0.043,-1.435 0.259,-4.504 0.39,-7.339 0.126,-2.73 0.392,-5.467 0.29,-8.19 -0.269,-7.194 -4.278,-12.702 -10.056,-14.103 -6.406,-1.553 -14.052,1.298 -16.788,7.641 -2.039,4.731 -2.85,10.247 -3.039,15.457 -0.266,7.305 1.285,14.718 0.604,21.949 -0.348,3.693 -3.284,7.673 -6.097,10.472 -3.602,3.586 -4.92,6.373 -5.397,12.305 -0.477,5.931 -0.73,11.011 -1.053,18.99 -0.063,1.575 -0.012,8.092 0.001,9.666 0.157,18.179 0.324,36.359 0.536,54.538 0.05,4.298 0.261,8.594 0.428,12.89 0.119,3.074 3.445,5.531 8,5.612 6.622,0.118 13.249,0.03 19.873,0.03 0,0 36.688,-0.926 46.879,-0.86 10.191,0.065 14.516,4.423 20.088,9.861 7.27,7.094 14.262,14.478 21.62,21.479 11.877,11.301 23.968,22.378 35.94,33.581 1.783,1.668 4.575,4.336 7.061,4.798 C -9.954,-0.535 -3.852,0.432 0,0" /></g><g
           transform="translate(245.334,309.7505)"
           id="g24"><path
             id="path26"
             style="fill:#000000;fill-opacity:1;fill-rule:nonzero;stroke:none"
             d="m 0,0 c 4.901,0 6.802,-0.346 11.174,-1.407 1.214,-0.294 2.754,-2.065 3.684,-3.024 12.719,-13.107 25.395,-26.256 38.085,-39.39 3.419,-3.539 3.45,-3.559 6.828,-0.073 12.632,13.041 25.31,26.038 37.824,39.191 3.326,3.497 7.708,4.138 11.811,4.429 6.058,0.43 12.234,-0.107 18.303,-0.754 4.749,-0.507 5.8,-2.66 3.061,-6.617 -2.678,-3.867 -6.204,-7.149 -9.374,-10.672 -7.836,-8.71 -15.819,-17.292 -23.487,-26.148 -7.513,-8.678 -14.659,-17.675 -22.089,-26.428 -1.58,-1.861 -1.463,-3.069 0.089,-4.825 5.445,-6.16 10.727,-12.464 16.106,-18.683 9.863,-11.405 19.734,-22.802 29.637,-34.172 3.254,-3.734 6.653,-7.343 9.917,-11.068 1.814,-2.069 1.928,-4.442 0.549,-6.766 -3.667,-6.176 -3.231,-12.292 -0.663,-18.816 1.713,-4.35 3.214,-9.126 3.249,-13.724 0.08,-10.441 -11.53,-18.333 -22.486,-15.937 -12.033,2.632 -16.496,11.084 -11.574,22.487 2.041,4.729 4.996,9.062 7.067,13.78 2.779,6.331 -0.031,11.172 -6.138,14.252 -3.687,1.861 -6.554,5.484 -9.554,8.545 -10.71,10.933 -21.321,21.964 -31.965,32.961 -1.224,1.264 -2.423,2.551 -3.633,3.828 -1.223,-1.278 -2.441,-2.56 -3.668,-3.831 -11.88,-12.304 -23.964,-24.418 -35.535,-37.004 -4.22,-4.589 -9.235,-6.257 -14.832,-6.508 -5.668,-0.253 -11.396,0.222 -17.063,0.746 -4.62,0.425 -5.453,2.086 -3.55,6.225 0.602,1.307 1.55,2.506 2.53,3.579 9.963,10.911 20.143,21.629 29.898,32.722 7.79,8.858 15.037,18.192 22.613,27.241 1.591,1.901 1.609,3.365 -0.006,5.227 -4.141,4.777 -8.172,9.65 -12.214,14.512 -3.638,4.377 -7.324,8.719 -10.809,13.216 -1.913,2.469 -3.351,2.271 -4.511,-0.381 -1.6,-3.664 -3.021,-7.408 -4.459,-11.142 -1.409,-3.661 -3.329,-6.915 -7.226,-8.324 -5.678,-2.054 -11.685,1.592 -13.586,8.057 -1.734,5.898 -0.757,11.789 0.36,17.566 1.699,8.779 1.023,17.177 -2.323,25.471 -0.887,2.198 -1.313,4.729 -1.26,7.092 0.025,1.081 1.595,2.863 2.69,3.057 C -11.666,-0.648 -4.901,0 0,0" /></g></g></g></g></svg>