<?xml version="1.0" encoding="utf-8"?>
<!-- Generator: Adobe Illustrator 23.0.1, SVG Export Plug-In . SVG Version: 6.00 Build 0)  -->
<svg version="1.1"
	 id="svg4" xmlns:cc="http://creativecommons.org/ns#" xmlns:dc="http://purl.org/dc/elements/1.1/" xmlns:inkscape="http://www.inkscape.org/namespaces/inkscape" xmlns:rdf="http://www.w3.org/1999/02/22-rdf-syntax-ns#" xmlns:sodipodi="http://sodipodi.sourceforge.net/DTD/sodipodi-0.dtd" xmlns:svg="http://www.w3.org/2000/svg"
	 xmlns="http://www.w3.org/2000/svg" xmlns:xlink="http://www.w3.org/1999/xlink" x="0px" y="0px" viewBox="0 0 400 400"
	 style="enable-background:new 0 0 400 400;" xml:space="preserve">
<style type="text/css">
	.st0{fill:#000300;}
</style>
<sodipodi:namedview  bordercolor="#666666" borderopacity="1" fit-margin-bottom="50" fit-margin-left="0" fit-margin-right="0" fit-margin-top="0" gridtolerance="10" guidetolerance="10" id="namedview6" inkscape:current-layer="svg4" inkscape:cx="32.731972" inkscape:cy="99.542956" inkscape:pageopacity="0" inkscape:pageshadow="2" inkscape:window-height="1017" inkscape:window-maximized="1" inkscape:window-width="1920" inkscape:window-x="1358" inkscape:window-y="-8" inkscape:zoom="3.6875" objecttolerance="10" pagecolor="#ffffff" showgrid="false" showguides="false">
	</sodipodi:namedview>
<path class="st0" d="M325.5,78.2c-1.4-2.6-3.9-6-6-7.2L207.3,6.4c-1.9-1.2-4.5-1.6-7.3-1.6c-2.8,0-5.4,0.7-7.3,1.6L80.2,71.8
	c-4,2.3-6.8,8.2-6.8,12.7v130.6c0,2.6,0,5.6,1.6,8.2c1.2,1.9,2.8,3.5,4.5,4.5l87.1,50.4c5.5,3.2,10.4,7.3,14.1,12.4
	c28.8,38.5-17.5,100.5,17.5,104.7c41-1.9-9.2-61.6,22.1-105.1c3.9-5.4,9-9.9,14.8-13.2l84.6-49.2c4-2.3,6.8-8.2,6.8-12.7V84.3
	C326.5,82.4,326.5,80.3,325.5,78.2z M276.3,202.2c-10.7,15.6-26.2,27.7-44.2,34.4c-19.1,5.1,2.9-31.8,14.5-52.4
	c1.9-3.4,6.2-4.5,9.5-2.5l18,10.6C277.6,194.3,278.6,198.9,276.3,202.2z M277.5,148.4v2.6c0,1.9-1.5,3.4-3.4,3.4h-5
	c-1.9,0-3.4,1.5-3.4,3.4v5c0,1.9-1.5,3.4-3.4,3.4h-5c-1.9,0-3.4-1.5-3.4-3.4v-5c0-1.9-1.5-3.4-3.4-3.4h-5c-1.9,0-3.4-1.5-3.4-3.4
	v-2.6c0-1.9,1.5-3.4,3.4-3.4h5c1.9,0,3.4-1.5,3.4-3.4v-5c0-1.9,1.5-3.4,3.4-3.4h5c1.9,0,3.4,1.5,3.4,3.4v5c0,1.9,1.5,3.4,3.4,3.4h5
	C276,145,277.5,146.5,277.5,148.4z M274.3,107.5l-18.6,10.7c-3.1,1.8-7,1-9-1.9c-11-15.5-29.5-25.2-49.9-24
	c-28,1.6-52.8,26.5-54.1,54.5c-1.3,26.2,15.2,48.9,38.4,57.1c4.1,1.4,8,3.4,11.2,6.3c13.1,11.5,10.5,26.5-20.2,24.5
	c-8.7-0.6-17.1-3.6-24.2-8.5c-24.4-16.7-40.4-44.7-40.4-76.5c0-51,41.5-92.5,92.4-92.6c31.9-0.1,60.1,16.2,76.8,40.7
	C278.9,101.1,277.8,105.5,274.3,107.5z M284.5,150.5v-2.1c0-1.9,1.5-3.4,3.4-3.4h1.4c0.5,0,0.9,0.1,1.4,0.3c3.8,1.7,4.9,6.7-2,8.5
	C286.6,154.3,284.5,152.7,284.5,150.5z M301.9,166.1c-1.9,0-3.4-1.5-3.4-3.4V160c0.1-2.2,2.8-1.8,5.3,0
	C306.6,161.9,305.2,166.1,301.9,166.1L301.9,166.1z M316.3,154.4h-0.4c-9.4-1.7-16.2-3.5-17.4-9.4v-8.4c0-1.9,1.5-3.4,3.4-3.4h2.6
	c1.9,0,3.4,1.5,3.4,3.4v5c0,1.9,1.5,3.4,3.4,3.4h5c1.9,0,3.4,1.5,3.4,3.4v2.6C319.7,152.9,318.2,154.4,316.3,154.4z"/>
</svg>
