<?xml version="1.0" encoding="utf-8"?>
<!-- Generator: Adobe Illustrator 23.0.6, SVG Export Plug-In . SVG Version: 6.00 Build 0)  -->
<svg version="1.1"
	 id="svg4" inkscape:version="0.92.1 r15371" sodipodi:docname="trello.svg" xmlns:cc="http://creativecommons.org/ns#" xmlns:dc="http://purl.org/dc/elements/1.1/" xmlns:inkscape="http://www.inkscape.org/namespaces/inkscape" xmlns:rdf="http://www.w3.org/1999/02/22-rdf-syntax-ns#" xmlns:sodipodi="http://sodipodi.sourceforge.net/DTD/sodipodi-0.dtd" xmlns:svg="http://www.w3.org/2000/svg"
	 xmlns="http://www.w3.org/2000/svg" xmlns:xlink="http://www.w3.org/1999/xlink" x="0px" y="0px" viewBox="0 0 400 400"
	 style="enable-background:new 0 0 400 400;" xml:space="preserve">
<path d="M304,5H96C77.9,5,63.2,19.7,63.2,37.9v207.9c0,18.2,14.7,32.9,32.9,32.9H234c3.5,0,7.1,0.4,10.5,1.3
	c45.9,13.3-14.7,94.6,31.1,98.3c37.8-2.6-21.8-72.9,21.6-96.2c3.9-2.1,8.3-3.3,12.7-4.1c15.4-2.8,27-16.2,27-32.3V37.9
	C336.8,19.7,322.1,5,304,5z M187,217.7c0,8.5-6.9,15.4-15.4,15.4h-59.4c-7.9,0-14.3-6.4-14.3-14.3V53.3c0-8.6,7.1-15.7,15.7-15.7
	c5.5,0,10.7,3.3,12.6,8.5c9.9,26-22.2,98.1,14.8,101.9c29-0.3-10.3-91.3,17.3-108.2c2.5-1.5,5.5-2.2,8.5-2.2h4.7
	c8.5,0,15.4,6.9,15.4,15.4V217.7z M306.4,143.9c0,8.3-6.4,15.3-14.6,15.3h-5.4c-19.1,0,20.1-47.8,20.1-29.9V143.9z M306.4,57
	c0,13.7-1.7,27.3-5.4,40.5c-4.3,15.4-12.3,34.2-28.6,47.7c-11.2,9.3-25.5,14.1-40.1,14.1c-8.3,0-15-6.8-15-15V52.5
	c0-8.2,6.7-14.9,14.9-14.9h59.5c8.1,0,14.6,6.6,14.6,14.6V57z"/>
</svg>
