<?xml version="1.0" encoding="utf-8"?>
<!-- Generator: Adobe Illustrator 23.0.1, SVG Export Plug-In . SVG Version: 6.00 Build 0)  -->
<svg version="1.1"
	 id="svg4" inkscape:version="0.92.1 r15371" sodipodi:docname="trello.svg" xmlns:cc="http://creativecommons.org/ns#" xmlns:dc="http://purl.org/dc/elements/1.1/" xmlns:inkscape="http://www.inkscape.org/namespaces/inkscape" xmlns:rdf="http://www.w3.org/1999/02/22-rdf-syntax-ns#" xmlns:sodipodi="http://sodipodi.sourceforge.net/DTD/sodipodi-0.dtd" xmlns:svg="http://www.w3.org/2000/svg"
	 xmlns="http://www.w3.org/2000/svg" xmlns:xlink="http://www.w3.org/1999/xlink" x="0px" y="0px" viewBox="0 0 400 400"
	 style="enable-background:new 0 0 400 400;" xml:space="preserve">
<sodipodi:namedview  bordercolor="#666666" borderopacity="1" fit-margin-bottom="50" fit-margin-left="0" fit-margin-right="0" fit-margin-top="0" gridtolerance="10" guidetolerance="10" id="namedview6" inkscape:current-layer="svg4" inkscape:cx="66.689585" inkscape:cy="98.999524" inkscape:pageopacity="0" inkscape:pageshadow="2" inkscape:window-height="1017" inkscape:window-maximized="1" inkscape:window-width="1920" inkscape:window-x="1358" inkscape:window-y="-8" inkscape:zoom="3.6875" objecttolerance="10" pagecolor="#ffffff" showgrid="false">
	</sodipodi:namedview>
<path d="M309.3,3.8H90.7c-19.1,0-34.6,15.5-34.6,34.6v218.5c0,19.1,15.5,34.6,34.6,34.6h145c3.7,0,7.5,0.4,11,1.4
	c48.3,14-15.4,99.5,32.7,103.4c39.7-2.7-22.9-76.6,22.7-101.1c4.1-2.2,8.7-3.4,13.3-4.3c16.1-2.9,28.4-17,28.4-34V38.3
	C343.8,19.3,328.4,3.8,309.3,3.8z M186.3,227.3c0,8.9-7.3,16.2-16.2,16.2h-62.4c-8.3,0-15-6.7-15-15v-174c0-9.1,7.4-16.5,16.5-16.5
	c5.8,0,11.2,3.5,13.3,8.9C132.9,74.2,99.2,150,138,154.1c30.5-0.3-10.8-96,18.2-113.8c2.7-1.6,5.8-2.3,8.9-2.3h5
	c8.9,0,16.2,7.3,16.2,16.2V227.3z M311.9,149.8c0,8.7-6.7,16-15.4,16h-5.7c-20.1,0,21.1-50.3,21.1-31.4V149.8z M311.9,58.4
	c0,14.4-1.8,28.7-5.6,42.6c-4.5,16.2-12.9,36-30,50.1c-11.8,9.8-26.8,14.8-42.1,14.8c-8.7,0-15.8-7.1-15.8-15.8V53.7
	c0-8.7,7-15.7,15.7-15.7h62.5c8.5,0,15.4,6.9,15.4,15.4V58.4z"/>
</svg>
