<?xml version="1.0" encoding="utf-8"?>
<!-- Generator: Adobe Illustrator 22.1.0, SVG Export Plug-In . SVG Version: 6.00 Build 0)  -->
<!DOCTYPE svg PUBLIC "-//W3C//DTD SVG 1.1//EN" "http://www.w3.org/Graphics/SVG/1.1/DTD/svg11.dtd">
<svg version="1.1"
	 id="Layer_1" inkscape:version="0.92.1 r15371" sodipodi:docname="gear.svg" xmlns:cc="http://creativecommons.org/ns#" xmlns:dc="http://purl.org/dc/elements/1.1/" xmlns:inkscape="http://www.inkscape.org/namespaces/inkscape" xmlns:rdf="http://www.w3.org/1999/02/22-rdf-syntax-ns#" xmlns:sodipodi="http://sodipodi.sourceforge.net/DTD/sodipodi-0.dtd" xmlns:svg="http://www.w3.org/2000/svg"
	 xmlns="http://www.w3.org/2000/svg" xmlns:xlink="http://www.w3.org/1999/xlink" x="0px" y="0px" viewBox="0 0 400 400"
	 style="enable-background:new 0 0 400 400;" xml:space="preserve">
<sodipodi:namedview  bordercolor="#666666" borderopacity="1" gridtolerance="10" guidetolerance="10" id="namedview7" inkscape:current-layer="Layer_1" inkscape:cx="31.111935" inkscape:cy="227.40862" inkscape:pageopacity="0" inkscape:pageshadow="2" inkscape:window-height="705" inkscape:window-maximized="1" inkscape:window-width="1366" inkscape:window-x="-8" inkscape:window-y="235" inkscape:zoom="0.32593203" objecttolerance="10" pagecolor="#ffffff" showgrid="false">
	</sodipodi:namedview>
<path d="M382.3,162.8c-9.3-0.7-18.7-2.1-28-3.2c-2-0.2-3.1-0.9-3.6-3c-3.4-11.6-7.8-22.7-13.8-33.2c-0.8-1.3-0.8-2.2,0.2-3.5
	c6.6-8.3,13.1-16.8,19.7-25.1c4-5.1,3.9-11.5-0.7-16.1c-11.9-11.9-23.7-23.8-35.6-35.7c-3.8-3.8-10.6-3.9-15.2-0.3
	C297,49.3,288.6,56,280,62.5c-0.8,0.7-2.6,0.9-3.5,0.4c-10.6-5.8-21.6-10.4-33.2-13.7c-2.1-0.7-2.7-1.7-3-3.7
	c-1.1-9.3-2.4-18.7-3.2-28c-0.6-6.4-3.1-11.1-8.9-13.9c-18.8,0-37.6,0-56.4,0c-5.7,2.7-8.3,7.3-8.7,13.6c-0.8,9.5-2.2,18.9-3.3,28.3
	c-0.2,2-0.9,3.1-3,3.6c-11.6,3.4-22.6,7.9-33.2,13.7c-0.9,0.5-2.6,0.2-3.5-0.3c-8.3-6.4-16.7-12.9-24.9-19.4
	C89.8,38.9,83.6,39,78.6,44C66.8,55.7,55,67.5,43.1,79.5c-3.8,3.8-3.9,10.6-0.2,15.2c6.6,8.4,13.3,16.8,19.8,25.4
	c0.7,0.8,0.8,2.6,0.3,3.5c-5.8,10.6-10.3,21.7-13.6,33.3c-0.6,2.1-1.6,2.7-3.6,3c-10.2,1.1-20.3,2.6-30.5,3.5
	c-5.8,0.6-8.9,4-11.5,8.5c0,18.8,0,37.6,0,56.4c2.7,5.9,7.4,8.3,13.9,8.9c9.3,0.8,18.7,2.2,28,3.2c2.1,0.2,3.2,1.1,3.8,3.2
	c3.2,11.5,7.8,22.4,13.5,32.9c0.5,0.9,0.2,2.6-0.3,3.5c-6.4,8.3-12.9,16.7-19.4,24.9c-4.3,5.4-4,11.6,0.8,16.6
	c11.6,11.6,23,23.3,34.7,34.8c4.6,4.6,11,4.8,16.1,0.7c8.3-6.6,16.8-13.1,25.1-19.7c1.2-1,2.1-1.2,3.5-0.3
	c10.5,5.9,21.6,10.5,33.2,13.8c2.1,0.6,2.7,1.7,3,3.6c1.1,9.3,2.5,18.7,3.2,28c0.6,6.4,3.1,11.1,8.9,13.9c18.8,0,37.6,0,56.4,0
	c5.7-2.7,8.3-7.3,8.8-13.6c0.7-9.3,2.1-18.5,3.1-27.7c0.2-2.5,1-3.8,3.6-4.5c11.4-3.2,22.2-7.8,32.6-13.5c0.9-0.5,2.6-0.2,3.5,0.3
	c8,6,15.8,12.3,23.8,18.4c7.4,5.8,12.9,5.4,19.5-1.2c11-11.1,22-22.3,33-33.3c4.5-4.6,4.9-11,0.8-16.1c-6.6-8.3-13.2-16.7-19.6-25.2
	c-0.6-0.8-0.8-2.6-0.3-3.5c5.8-10.6,10.3-21.6,13.7-33.2c0.6-2.1,1.7-2.7,3.6-3c9.4-1.1,18.8-2.5,28.3-3.3
	c6.4-0.5,10.9-3.1,13.6-8.8c0-18.8,0-37.6,0-56.4C393.5,165.8,388.7,163.4,382.3,162.8z M298.2,200.1c0,5.4-0.4,10.6-1.2,15.6
	c-1.3,8.6-8.7,14.9-17.4,14.9c-27.3-0.1-55.9-29.9-60.4-69.5c-0.7-6.2,2-12.3,7-15.9c8.1-5.9,16.7-11.1,25.7-15.5
	c6.9-3.4,15.4-1.8,20.5,3.9C288.5,150.9,298.3,174.3,298.2,200.1z M163.5,128.9c11.6,30.1-11.6,89.6-35.5,106.8
	c-7.8,5.7-19,1.8-21.8-7.4c-2.7-9-4.2-18.6-4.1-28.5c0.1-31.5,14.9-59.6,37.9-77.5C148,116.2,159.8,119.4,163.5,128.9z M149.1,269
	c0-18.3,8.1-41.4,22-64c4.8-7.8,13.5-12.2,22.6-11.4c35.2,3.2,52.5,51.7,44.6,84.7c-2.1,9-9.3,15.8-18.4,17.7c-6.4,1.3-13.2,2-20,2
	c-12.6,0-24.7-2.4-35.7-6.8C155.1,287.7,149.1,278.9,149.1,269z"/>
</svg>
