<?xml version="1.0" encoding="UTF-8" standalone="no"?>
<svg
   xmlns:dc="http://purl.org/dc/elements/1.1/"
   xmlns:cc="http://creativecommons.org/ns#"
   xmlns:rdf="http://www.w3.org/1999/02/22-rdf-syntax-ns#"
   xmlns:svg="http://www.w3.org/2000/svg"
   xmlns="http://www.w3.org/2000/svg"
   viewBox="0 0 533.33331 533.33331"
   height="533.33331"
   width="533.33331"
   xml:space="preserve"
   id="svg2"
   version="1.1"><metadata
     id="metadata8"><rdf:RDF><cc:Work
         rdf:about=""><dc:format>image/svg+xml</dc:format><dc:type
           rdf:resource="http://purl.org/dc/dcmitype/StillImage" /></cc:Work></rdf:RDF></metadata><defs
     id="defs6"><clipPath
       id="clipPath18"
       clipPathUnits="userSpaceOnUse"><path
         id="path16"
         d="M 0,400 H 400 V 0 H 0 Z" /></clipPath></defs><g
     transform="matrix(1.3333333,0,0,-1.3333333,0,533.33333)"
     id="g10"><g
       id="g12"><g
         clip-path="url(#clipPath18)"
         id="g14"><g
           transform="translate(310.4502,181.9961)"
           id="g20"><path
             id="path22"
             style="fill:#000000;fill-opacity:1;fill-rule:nonzero;stroke:none"
             d="m 0,0 c -0.734,-17.584 -1.569,-35.167 -1.957,-52.76 -0.121,-5.457 -1.742,-6.183 -7.129,-6.036 -20.457,0.56 -40.938,0.217 -61.41,0.163 -27.932,-0.072 -55.863,-0.192 -83.795,-0.284 -22.173,-0.073 -44.348,-0.05 -66.519,-0.303 -2.883,-0.033 -3.764,0.734 -3.843,3.369 -0.091,3.057 -0.493,6.103 -0.596,9.16 -1.09,32.304 -2.147,64.609 -3.271,98.65 1.243,33.01 2.546,67.793 3.871,102.576 0.095,2.505 -0.08,4.663 3.955,4.599 22.567,-0.359 45.139,-0.38 67.709,-0.45 40.935,-0.128 81.87,-0.204 122.804,-0.344 1.256,-0.004 3.814,-0.07 3.897,-0.893 0.082,-0.822 -1.329,-2.963 -2.294,-4.241 -23.735,-31.47 -47.537,-62.89 -71.283,-94.352 -3.687,-4.885 -7.481,-9.737 -10.634,-14.961 -2.816,-4.665 -4.674,-3.786 -7.223,0.029 -4.888,7.317 -9.942,14.524 -14.964,21.751 -8.251,11.874 -11.917,12.209 -21.311,1.564 -4.044,-4.583 -7.652,-9.552 -11.44,-14.361 -2.757,-3.499 -1.651,-7.109 0.551,-10.063 9.598,-12.874 19.44,-25.566 29.211,-38.312 0.34,-0.444 0.805,-0.854 1.3,-1.11 9.658,-5.012 9.496,-13.323 7.591,-22.287 -0.635,-2.989 -1.313,-6.019 -1.443,-9.053 -0.343,-8.017 4.088,-14.233 11.14,-16.115 7.431,-1.985 15.221,1.557 18.865,8.528 3.591,6.868 3.065,14.142 1.768,21.335 -1.933,10.72 -3.446,21.498 2.74,31.224 4.166,6.553 9.05,12.807 14.44,18.396 24.043,24.93 48.384,49.572 72.619,74.316 0.536,0.547 1.18,1.37 1.815,2.004 0.634,0.635 1.985,2.393 3.014,1.849 1.006,-0.531 1.018,-2.737 1.093,-4.13 C 0.316,89.979 1.912,70.5 2.083,51.01 2.231,34.014 0.711,17.006 0,0 m 52.187,175.476 c -3.044,12.471 -9.716,22.757 -18.572,31.72 -2.079,2.104 -4.883,3.732 -7.645,4.871 -5.043,2.08 -9.309,0.663 -12.487,-3.924 -2.286,-3.301 -5.099,-6.287 -7.04,-9.768 -4.992,-8.956 -11.794,-13.092 -22.594,-12.746 -22.144,0.711 -44.441,-1.267 -66.466,0.481 -25.299,2.009 -50.389,-0.333 -75.569,-0.223 -16.827,0.073 -33.655,-0.158 -50.481,-0.067 -12.598,0.069 -25.194,0.521 -37.792,0.614 -3.997,0.029 -6.28,-2.191 -6.527,-6.392 -0.695,-11.815 -1.836,-23.616 -2.16,-35.441 -0.968,-35.373 -2.133,-70.753 -2.258,-106.134 -0.108,-30.592 1.102,-61.189 1.797,-95.09 0.706,-6.254 1.659,-15.754 2.935,-25.211 0.29,-2.15 1.124,-4.91 2.688,-6.089 6.505,-4.9 7.554,-11.857 8.902,-19.146 1.231,-6.655 2.984,-13.487 6.038,-19.457 3.597,-7.036 12.512,-9.874 18.729,-7.515 6.454,2.449 9.259,8.926 7.918,17.799 -0.741,4.899 -1.784,9.857 -1.651,14.76 0.227,8.347 8.184,15.622 16.455,15.504 21.007,-0.298 42.011,-0.999 63.019,-1.068 17.012,-0.057 34.028,0.499 51.039,0.942 4.061,0.107 7.237,-0.919 10.29,-3.806 9.194,-8.694 11.944,-19.162 9.964,-31.37 -0.731,-4.499 -1.216,-9.144 -0.955,-13.673 0.387,-6.734 4.606,-11.683 10.194,-13.154 6.442,-1.698 12.665,0.492 16.292,6.633 1.979,3.352 3.319,7.342 3.884,11.201 0.685,4.683 -0.205,9.595 0.459,14.286 0.432,3.056 2.03,8.023 3.798,8.347 2.906,0.532 7.023,-1.267 9.476,-3.407 5.709,-4.98 6.074,-13.19 2.247,-21.765 -3.027,-6.782 -6.73,-13.475 -8.379,-20.613 -3.134,-13.572 6.735,-24.274 20.624,-23.535 9.218,0.49 16.889,7.505 18.956,17.206 2.292,10.761 -1.156,20.868 -3.529,31.068 -2.938,12.634 -1.762,24.832 6.51,34.846 6.535,7.911 8.084,16.676 8.447,26.072 1.177,30.383 2.733,60.767 3.044,91.161 0.331,32.134 -0.539,64.281 -1.02,96.42 -0.106,7.07 -1.033,14.129 -1.062,21.196 -0.011,2.543 0.823,5.695 2.447,7.531 5.317,6.011 11.14,11.579 16.837,17.247 2.74,2.726 4.218,5.509 3.198,9.689" /></g></g></g></g></svg>