<?xml version="1.0" encoding="utf-8"?>
<!-- Generator: Adobe Illustrator 23.0.6, SVG Export Plug-In . SVG Version: 6.00 Build 0)  -->
<svg version="1.1" id="Layer_1" xmlns="http://www.w3.org/2000/svg" xmlns:xlink="http://www.w3.org/1999/xlink" x="0px" y="0px"
	 viewBox="0 0 400 400" style="enable-background:new 0 0 400 400;" xml:space="preserve">
<path d="M365.4,42.53c-3.04-12.47-9.72-22.76-18.57-31.72c-2.08-2.1-4.88-3.73-7.65-4.87c-5.04-2.08-9.31-0.66-12.49,3.92
	c-2.29,3.3-5.1,6.29-7.04,9.77c-4.99,8.96-11.79,13.09-22.59,12.75c-22.14-0.71-44.44,1.27-66.47-0.48
	c-25.3-2.01-50.39,0.33-75.57,0.22c-16.83-0.07-33.66,0.16-50.48,0.07c-12.6-0.07-25.19-0.52-37.79-0.61
	c-4-0.03-6.28,2.19-6.53,6.39c-0.7,11.82-1.84,23.62-2.16,35.44c-0.97,35.37-2.13,70.75-2.26,106.13
	c-0.11,30.59,1.1,61.19,1.8,95.09c0.71,6.25,1.66,15.75,2.93,25.21c0.29,2.15,1.12,4.91,2.69,6.09c6.51,4.9,7.55,11.86,8.9,19.15
	c1.23,6.65,2.98,13.49,6.04,19.46c3.6,7.03,12.51,9.87,18.73,7.51c6.45-2.45,9.26-8.93,7.92-17.8c-0.74-4.9-1.78-9.86-1.65-14.76
	c0.23-8.35,8.18-15.62,16.45-15.5c21.01,0.3,42.01,1,63.02,1.07c17.01,0.06,34.03-0.5,51.04-0.94c4.06-0.11,7.24,0.92,10.29,3.81
	c9.19,8.69,11.94,19.16,9.96,31.37c-0.73,4.5-1.22,9.14-0.96,13.67c0.39,6.73,4.61,11.68,10.2,13.15c6.44,1.7,12.67-0.49,16.29-6.63
	c1.98-3.35,3.32-7.34,3.88-11.2c0.69-4.68-0.21-9.6,0.46-14.29c0.43-3.06,2.03-8.02,3.8-8.35c2.91-0.53,7.02,1.27,9.48,3.41
	c5.71,4.98,6.08,13.19,2.25,21.77c-3.03,6.78-6.73,13.47-8.38,20.61c-3.13,13.57,6.73,24.27,20.62,23.54
	c9.22-0.49,16.89-7.5,18.96-17.21c2.29-10.76-1.16-20.87-3.53-31.07c-2.94-12.63-1.76-24.83,6.51-34.85
	c6.53-7.91,8.08-16.68,8.45-26.07c1.18-30.38,2.73-60.77,3.04-91.16c0.33-32.13-0.54-64.28-1.02-96.42
	c-0.11-7.07-1.03-14.13-1.06-21.2c-0.01-2.54,0.82-5.7,2.45-7.53c5.32-6.01,11.14-11.58,16.84-17.25
	C364.94,49.49,366.42,46.71,365.4,42.53z M313.21,218c-0.73,17.58-1.57,35.17-1.96,52.76c-0.12,5.46-1.74,6.18-7.13,6.04
	c-20.46-0.56-40.94-0.22-61.41-0.16c-27.93,0.07-55.86,0.19-83.79,0.28c-22.17,0.07-44.35,0.05-66.52,0.3
	c-2.88,0.03-3.76-0.73-3.84-3.37c-0.09-3.06-0.49-6.1-0.6-9.16c-1.09-32.3-2.15-64.61-3.27-98.65c1.24-33.01,2.55-67.79,3.87-102.57
	c0.1-2.51-0.08-4.66,3.95-4.6c22.57,0.36,45.14,0.38,67.71,0.45c40.93,0.13,81.87,0.2,122.8,0.34c1.26,0,3.81,0.07,3.9,0.89
	c0.08,0.82-1.33,2.96-2.29,4.24c-23.74,31.47-47.54,62.89-71.28,94.35c-3.69,4.88-7.48,9.74-10.63,14.96
	c-2.82,4.67-4.67,3.79-7.22-0.03c-4.89-7.32-9.94-14.52-14.96-21.75c-8.25-11.87-11.92-12.21-21.31-1.56
	c-4.04,4.58-7.65,9.55-11.44,14.36c-2.76,3.5-1.65,7.11,0.55,10.06c9.6,12.87,19.44,25.57,29.21,38.31c0.34,0.44,0.81,0.85,1.3,1.11
	c9.66,5.01,9.5,13.32,7.59,22.29c-0.63,2.99-1.31,6.02-1.44,9.05c-0.34,8.02,4.09,14.23,11.14,16.12
	c7.43,1.98,15.22-1.56,18.86-8.53c3.59-6.87,3.06-14.14,1.77-21.33c-1.93-10.72-3.45-21.5,2.74-31.23
	c4.17-6.55,9.05-12.81,14.44-18.4c24.04-24.93,48.38-49.57,72.62-74.32c0.54-0.55,1.18-1.37,1.82-2c0.63-0.63,1.99-2.39,3.01-1.85
	c1.01,0.53,1.02,2.74,1.09,4.13c1.05,19.48,2.64,38.96,2.81,58.45C315.44,183.99,313.92,201,313.21,218z"/>
</svg>
