<?xml version="1.0" encoding="UTF-8" standalone="no"?>
<svg
   xmlns:dc="http://purl.org/dc/elements/1.1/"
   xmlns:cc="http://creativecommons.org/ns#"
   xmlns:rdf="http://www.w3.org/1999/02/22-rdf-syntax-ns#"
   xmlns:svg="http://www.w3.org/2000/svg"
   xmlns="http://www.w3.org/2000/svg"
   viewBox="0 0 533.33331 533.33331"
   height="533.33331"
   width="533.33331"
   xml:space="preserve"
   id="svg2"
   version="1.1"><metadata
     id="metadata8"><rdf:RDF><cc:Work
         rdf:about=""><dc:format>image/svg+xml</dc:format><dc:type
           rdf:resource="http://purl.org/dc/dcmitype/StillImage" /></cc:Work></rdf:RDF></metadata><defs
     id="defs6"><clipPath
       id="clipPath18"
       clipPathUnits="userSpaceOnUse"><path
         id="path16"
         d="M 0,400 H 400 V 0 H 0 Z" /></clipPath></defs><g
     transform="matrix(1.3333333,0,0,-1.3333333,0,533.33333)"
     id="g10"><g
       id="g12"><g
         clip-path="url(#clipPath18)"
         id="g14"><g
           transform="translate(253.1748,264.5405)"
           id="g20"><path
             id="path22"
             style="fill:#000000;fill-opacity:1;fill-rule:nonzero;stroke:none"
             d="m 0,0 c 12.983,-0.749 24.246,9.574 20.941,22.065 -1.643,6.215 -4.545,11.451 -8.858,16.05 -10.594,11.296 -24.122,16.869 -38.893,20.164 -8.038,1.793 -9.793,0.998 -12.556,-6.868 -0.433,-1.233 -0.861,-2.52 -0.961,-3.807 -0.591,-7.586 0.124,-14.129 8.033,-18.655 4.826,-2.762 8.396,-7.869 12.2,-12.212 2.458,-2.805 4.188,-6.235 6.478,-9.204 C -9.848,2.648 -4.858,-0.044 0,0 m -117.444,-54.645 c -13.658,-0.151 -21.584,-9.658 -18.834,-21.353 1.271,-5.399 2.984,-10.93 5.71,-15.71 9.473,-16.614 24.545,-25.94 42.621,-30.799 1.463,-0.394 3.866,0.172 4.921,1.215 6.287,6.21 8.934,13.843 7.148,22.584 -0.396,1.939 -2.185,3.728 -3.653,5.286 -3.943,4.185 -8.567,7.833 -11.96,12.406 -3.199,4.312 -5.153,9.545 -7.697,14.349 -3.883,7.335 -9.594,11.929 -18.256,12.022 m 147.899,-9.366 c 0.134,15.145 -8.259,28.149 -23.831,36.925 -6.659,3.753 -7.026,3.777 -10.513,-3.087 -5.312,-10.461 -7.34,-21.603 -6.971,-33.285 0.632,-20.018 -7.356,-28.917 -27.878,-34.026 -4.139,-1.03 -8.55,-1.311 -12.835,-1.307 -3.585,0.004 -5.422,-1.296 -6.615,-4.611 -4.217,-11.717 5.375,-24.122 18.388,-22.956 13.318,1.194 26.379,3.774 38.374,10.228 19.643,10.57 31.967,25.845 31.881,52.119 m -163.502,76.643 c 0.118,-12.911 3.721,-22.528 11.934,-30.496 9.099,-8.828 20.324,-13.531 32.127,-16.719 16.476,-4.45 33.198,-7.985 49.795,-11.998 7.197,-1.74 11.343,0.18 14.202,7.032 2.857,6.853 3.009,13.95 1.049,20.987 -0.43,1.543 -2.414,3.352 -4.009,3.759 -10.362,2.648 -20.884,4.675 -31.212,7.437 -8.125,2.174 -16.417,4.323 -23.971,7.89 -12.09,5.708 -13.098,18.114 -2.159,25.957 4.549,3.261 10.43,4.93 15.943,6.473 3.109,0.87 5.559,1.872 5.765,5.051 0.35,5.385 0.624,10.87 -0.031,16.196 -0.534,4.351 -3.346,6.002 -7.707,5.585 -14.188,-1.356 -27.791,-4.889 -40.005,-12.431 -13.464,-8.313 -21.67,-20.006 -21.721,-34.723 m 235.673,-45.023 c -0.6,-5.881 -1.142,-10.372 -1.51,-16.74 -0.133,-2.288 0.001,-5.056 1.155,-6.884 26.841,-42.548 9.785,-95.778 -31.365,-119.484 -31.267,-18.013 -63.665,-18.872 -95.892,-2.578 -7.756,3.922 -19.627,-3.055 -19.785,-11.916 -0.071,-4.04 1.272,-8.089 1.778,-12.158 0.709,-5.706 1.777,-11.443 1.673,-17.149 -0.086,-4.668 -3.326,-8.025 -7.988,-9.105 -4.781,-1.107 -8.6,1.237 -11.104,5.03 -2.569,3.891 -4.252,8.36 -6.703,12.343 -1.177,1.913 -1.817,5.735 -4.887,4.908 -3.07,-0.826 -3.658,-4.085 -3.799,-6.239 -0.291,-4.426 0.606,-8.927 0.979,-13.399 0.358,-4.297 1.086,-8.614 0.922,-12.894 -0.383,-10.022 -7.185,-16.859 -16.582,-17.219 -9.873,-0.376 -18.024,6.328 -18.631,16.452 -0.354,5.895 0.677,11.953 1.684,17.835 2.053,11.998 3.335,23.911 -1.807,35.452 -1.591,3.569 -3.459,7.199 -5.973,10.139 -7.661,8.958 -15.583,17.423 -25.8,23.989 -33.745,21.683 -55.541,52.21 -64.384,91.565 -3.576,15.918 -4.086,31.998 -1.7,48.178 0.264,1.793 -0.202,4.126 -1.21,5.611 -26.703,39.364 -11.259,92.047 30.045,115.59 31.832,18.144 64.6,18.754 97.657,2.763 1.889,-0.913 4.316,-1.316 6.409,-1.109 15.588,1.545 31.213,2.002 46.646,-0.742 57.155,-10.162 99.192,-40.073 121.778,-94.706 5.953,-14.4 8.994,-41.652 8.394,-47.533" /></g></g></g></g></svg>