<?xml version="1.0" encoding="UTF-8" standalone="no"?>
<svg
   xmlns:dc="http://purl.org/dc/elements/1.1/"
   xmlns:cc="http://creativecommons.org/ns#"
   xmlns:rdf="http://www.w3.org/1999/02/22-rdf-syntax-ns#"
   xmlns:svg="http://www.w3.org/2000/svg"
   xmlns="http://www.w3.org/2000/svg"
   viewBox="0 0 682.66669 682.66669"
   height="682.66669"
   width="682.66669"
   xml:space="preserve"
   id="svg2"
   version="1.1"><metadata
     id="metadata8"><rdf:RDF><cc:Work
         rdf:about=""><dc:format>image/svg+xml</dc:format><dc:type
           rdf:resource="http://purl.org/dc/dcmitype/StillImage" /></cc:Work></rdf:RDF></metadata><defs
     id="defs6"><clipPath
       id="clipPath18"
       clipPathUnits="userSpaceOnUse"><path
         id="path16"
         d="M 0,512 H 512 V 0 H 0 Z" /></clipPath></defs><g
     transform="matrix(1.3333333,0,0,-1.3333333,0,682.66667)"
     id="g10"><g
       id="g12"><g
         clip-path="url(#clipPath18)"
         id="g14"><g
           transform="translate(276.8262,209.2393)"
           id="g20"><path
             id="path22"
             style="fill:#000000;fill-opacity:1;fill-rule:nonzero;stroke:none"
             d="m 0,0 c -1.67,1.151 -5.407,-2.213 -7.187,-3.984 -8.557,-8.521 -17.212,-16.948 -25.608,-25.626 -10.516,-10.87 -21.549,-20.893 -36.327,-25.728 -3.254,-1.064 -3.325,-3.116 -0.943,-5.269 5.303,-4.791 9.781,-7.972 16.773,-7.666 1.597,0.069 5.352,2.585 6.575,3.794 12.624,12.474 25.375,24.833 37.606,37.687 C -1.752,-19.058 1.67,-1.151 0,0 m -11.563,63.595 c 0,7.312 -1.55,14.384 -3.454,19.419 -2.407,6.371 -5.095,6.617 -9.867,1.857 -23.717,-23.666 -47.485,-47.281 -71.064,-71.085 -3.291,-3.323 -6.019,-7.371 -8.323,-11.469 -3.67,-6.53 -3.837,-13.329 0.763,-19.629 5.001,-6.85 11.206,-11.516 20.372,-10.375 8.453,1.051 15.011,5.693 20.824,11.352 11.8,11.491 23.39,23.202 34.932,34.953 2.146,2.185 4.148,4.769 5.389,7.539 5.807,12.965 10.428,30.127 10.428,37.438 m -185.533,-113 c 0.619,-4.523 0.665,-9.215 1.952,-13.537 6.555,-22.003 21.276,-37.043 41.246,-47.523 4.237,-2.223 8.442,-2.323 12.731,-0.806 3.092,1.095 6.208,2.337 9.002,4.026 17.017,10.284 22.512,26.568 23.232,45.264 0.239,6.218 -1.723,10.806 -7.133,14.888 -21.392,16.142 -26.829,41.281 -14.57,64.502 5.119,9.696 12.584,17.517 20.557,24.864 7.688,7.084 7.991,15.644 4.985,24.75 -1.707,5.173 -3.129,5.381 -7.071,1.45 -14.906,-14.871 -29.877,-29.681 -44.602,-44.731 -7.155,-7.312 -14.384,-14.673 -20.58,-22.775 -11.297,-14.775 -19.249,-31.112 -19.749,-50.372 m 327.977,283.603 c 0.095,-5.533 -0.025,-10.281 -0.771,-15.136 -2.246,-14.615 -14.486,-25.181 -29.302,-25.676 C 89.226,193 82.04,199.39 81.366,211.009 c -0.231,4.004 0.247,8.046 0.349,12.073 0.19,7.555 -1.178,14.598 -6.777,20.222 -5.156,5.176 -7.076,5.212 -12.155,0.138 -19.165,-19.148 -38.34,-38.286 -57.48,-57.459 -27.547,-27.592 -55.089,-55.19 -82.563,-82.854 -2.69,-2.708 -5.317,-5.65 -7.226,-8.92 -2.726,-4.669 -0.928,-8.68 4.271,-10.275 5.754,-1.767 10.752,-1.285 15.496,3.536 23.637,24.017 47.559,47.753 71.406,71.561 1.807,1.803 3.681,3.594 5.756,5.062 4.954,3.502 12.077,3.35 16.982,-0.136 5.214,-3.706 7.725,-9.854 5.512,-15.898 -1.266,-3.457 -3.683,-6.657 -6.146,-9.48 -7.636,-8.755 -9.935,-24.178 -4.825,-34.596 5.904,-12.038 19.81,-14.382 29.31,-4.894 16.324,16.302 32.618,32.632 48.916,48.958 13.583,13.605 27.229,27.15 40.707,40.858 8.01,8.145 12.676,17.733 12.09,29.547 -0.66,13.321 -7.476,23.437 -16.368,32.521 -3.635,3.714 -6.019,3.274 -6.984,-1.85 -0.965,-5.124 -0.85,-9.392 -0.756,-14.925 M 93.942,76.092 c 6.512,7.464 17.501,6.438 22.602,1.25 4.787,-4.868 6.451,-14.991 -1.235,-22.613 C 84.626,24.3 54.154,-6.342 23.605,-36.905 1.338,-59.182 -20.934,-81.453 -43.192,-103.738 c -15.058,-15.075 -32.199,-27.121 -52.091,-34.876 -8.615,-3.359 -11.824,-9.862 -12.533,-18.213 -0.276,-3.25 0.281,-6.568 0.418,-9.856 0.219,-5.298 0.902,-10.636 0.501,-15.889 -0.829,-10.84 -8.968,-18.344 -19.039,-18.241 -10.021,0.101 -17.563,7.209 -18.36,18.164 -0.435,5.985 0.505,12.058 0.443,18.087 -0.051,4.904 -0.474,9.827 -1.103,14.693 -0.498,3.858 -3.209,5.937 -6.871,6.99 -32.175,9.248 -54.198,30.271 -68.19,59.99 -7.899,16.777 -8.629,34.63 -4.746,52.649 5.787,26.848 20.187,48.897 39.234,67.996 78.348,78.557 156.899,156.914 235.321,235.398 9.585,9.593 20.068,17.523 33.355,21.314 19.311,5.511 37.784,3.21 55.249,-6.226 20.421,-11.034 35.465,-27.346 42.944,-49.409 8.436,-24.887 3.688,-47.975 -13.936,-67.52 -16.112,-17.869 -34.105,-34.045 -50.558,-51.6 C 110.241,112.667 103.209,106.043 96.207,99.39 90.317,93.793 87.104,88.424 85.479,81.317 84.473,76.917 81.913,67.266 84,66.396 c 2.088,-0.869 6.909,6.219 9.942,9.696" /></g></g></g></g></svg>