<?xml version="1.0" encoding="utf-8"?>
<!-- Generator: Adobe Illustrator 23.0.6, SVG Export Plug-In . SVG Version: 6.00 Build 0)  -->
<svg version="1.1" id="Layer_1" xmlns="http://www.w3.org/2000/svg" xmlns:xlink="http://www.w3.org/1999/xlink" x="0px" y="0px"
	 viewBox="0 0 400 400" style="enable-background:new 0 0 400 400;" xml:space="preserve">
<path d="M272,143.8c4.1-4.7,11-4,14.2-0.8c3,3.1,4,9.4-0.8,14.2c-19.2,19.1-38.4,38.3-57.5,57.5c-14,14-27.9,27.9-41.9,41.9
	c-9.4,9.5-20.2,17-32.7,21.9c-5.4,2.1-7.4,6.2-7.9,11.4c-0.2,2,0.2,4.1,0.3,6.2c0.1,3.3,0.6,6.7,0.3,10c-0.5,6.8-5.6,11.5-11.9,11.4
	c-6.3-0.1-11-4.5-11.5-11.4c-0.3-3.8,0.3-7.6,0.3-11.3c0-3.1-0.3-6.2-0.7-9.2c-0.3-2.4-2-3.7-4.3-4.4c-20.2-5.8-34-19-42.8-37.6
	c-5-10.5-5.4-21.7-3-33c3.6-16.8,12.7-30.7,24.6-42.6c49.1-49.3,98.4-98.4,147.6-147.6c6-6,12.6-11,20.9-13.4
	c12.1-3.5,23.7-2,34.6,3.9c12.8,6.9,22.2,17.1,26.9,31c5.3,15.6,2.3,30.1-8.7,42.3c-10.1,11.2-21.4,21.4-31.7,32.4
	c-4.1,4.4-8.6,8.6-12.9,12.7c-3.7,3.5-5.7,6.9-6.7,11.3c-0.6,2.8-2.2,8.8-0.9,9.4C267,150.4,270.1,146,272,143.8z M295.1,44.6
	c0.1,3.5,0,6.4-0.5,9.5c-1.4,9.2-9.1,15.8-18.4,16.1c-7.3,0.2-11.8-3.8-12.2-11.1c-0.1-2.5,0.2-5,0.2-7.6c0.1-4.7-0.7-9.2-4.3-12.7
	c-3.2-3.2-4.4-3.3-7.6-0.1c-12,12-24,24-36,36c-17.3,17.3-34.5,34.6-51.8,52c-1.7,1.7-3.3,3.5-4.5,5.6c-1.7,2.9-0.6,5.4,2.7,6.4
	c3.6,1.1,6.7,0.8,9.7-2.2c14.8-15.1,29.8-29.9,44.8-44.9c1.1-1.1,2.3-2.3,3.6-3.2c3.1-2.2,7.6-2.1,10.6,0.1c3.3,2.3,4.8,6.2,3.5,10
	c-0.8,2.2-2.3,4.2-3.9,5.9c-4.8,5.5-6.2,15.2-3,21.7c3.7,7.5,12.4,9,18.4,3.1c10.2-10.2,20.5-20.5,30.7-30.7
	c8.5-8.5,17.1-17,25.5-25.6c5-5.1,7.9-11.1,7.6-18.5c-0.4-8.4-4.7-14.7-10.3-20.4c-2.3-2.3-3.8-2.1-4.4,1.2
	C295,38.5,295.1,41.2,295.1,44.6z M89.5,222.5c0.4,2.8,0.4,5.8,1.2,8.5c4.1,13.8,13.3,23.2,25.9,29.8c2.7,1.4,5.3,1.5,8,0.5
	c1.9-0.7,3.9-1.5,5.6-2.5c10.7-6.4,14.1-16.7,14.6-28.4c0.2-3.9-1.1-6.8-4.5-9.3c-13.4-10.1-16.8-25.9-9.1-40.5
	c3.2-6.1,7.9-11,12.9-15.6c4.8-4.4,5-9.8,3.1-15.5c-1.1-3.2-2-3.4-4.4-0.9c-9.3,9.3-18.7,18.6-28,28.1c-4.5,4.6-9,9.2-12.9,14.3
	C94.8,200.2,89.8,210.4,89.5,222.5z M205.8,151.6c0-4.6-1-9-2.2-12.2c-1.5-4-3.2-4.1-6.2-1.2c-14.9,14.8-29.8,29.7-44.6,44.6
	c-2.1,2.1-3.8,4.6-5.2,7.2c-2.3,4.1-2.4,8.4,0.5,12.3c3.1,4.3,7,7.2,12.8,6.5c5.3-0.7,9.4-3.6,13.1-7.1c7.4-7.2,14.7-14.6,21.9-21.9
	c1.3-1.4,2.6-3,3.4-4.7C202.9,167,205.8,156.2,205.8,151.6z M213.1,191.5c-1-0.7-3.4,1.4-4.5,2.5c-5.4,5.3-10.8,10.6-16.1,16.1
	c-6.6,6.8-13.5,13.1-22.8,16.1c-2,0.7-2.1,2-0.6,3.3c3.3,3,6.1,5,10.5,4.8c1,0,3.4-1.6,4.1-2.4c7.9-7.8,15.9-15.6,23.6-23.6
	C212,203.5,214.1,192.2,213.1,191.5z"/>
</svg>
