<?xml version="1.0" encoding="utf-8"?>
<!-- Generator: Adobe Illustrator 23.0.1, SVG Export Plug-In . SVG Version: 6.00 Build 0)  -->
<svg version="1.1"
	 id="Layer_1" xmlns:cc="http://creativecommons.org/ns#" xmlns:dc="http://purl.org/dc/elements/1.1/" xmlns:inkscape="http://www.inkscape.org/namespaces/inkscape" xmlns:rdf="http://www.w3.org/1999/02/22-rdf-syntax-ns#" xmlns:sodipodi="http://sodipodi.sourceforge.net/DTD/sodipodi-0.dtd" xmlns:svg="http://www.w3.org/2000/svg"
	 xmlns="http://www.w3.org/2000/svg" xmlns:xlink="http://www.w3.org/1999/xlink" x="0px" y="0px" viewBox="0 0 400 400"
	 style="enable-background:new 0 0 400 400;" xml:space="preserve">
<style type="text/css">
	.st0{fill:#020000;}
</style>
<sodipodi:namedview  bordercolor="#666666" borderopacity="1" fit-margin-bottom="50" fit-margin-left="0" fit-margin-right="0" fit-margin-top="0" gridtolerance="10" guidetolerance="10" id="namedview7" inkscape:current-layer="Layer_1" inkscape:cx="26.56985" inkscape:cy="45.559902" inkscape:pageopacity="0" inkscape:pageshadow="2" inkscape:window-height="705" inkscape:window-maximized="1" inkscape:window-width="1366" inkscape:window-x="-8" inkscape:window-y="245" inkscape:zoom="2.8284271" objecttolerance="10" pagecolor="#ffffff" showgrid="false">
	</sodipodi:namedview>
<path class="st0" d="M367.1,59.6c-1.6-10-5.1-19.1-10.2-27.8c-5.4-9.2-12.7-16.2-22.1-20.8c-11.9-5.9-24.3-7.8-37.5-4.9
	c-5.4,1.1-10.2,3.2-14.3,6.5c-1.6,1.3-3,2.7-3.8,4.6c-0.8,1.3-1.1,2.7-0.3,4.3c0.4,0.8,0.7,1.6,1.1,2.4c2.5,5.5,4.1,11.4,4.4,17.4
	c1.3,21.8-8,44.1,6,44.3c22.1-0.3-4-41.2,9.6-52.8c1.4-1.2,3.1-1.9,4.9-2.2c4.1-0.7,8.3-0.5,12.5,0.6c10,2.7,16.2,9.7,19.7,18.9
	c2.4,5.9,1.9,12.1,0.3,18.3c-5.9,22.6-31.5,44.7-63.6,34.5c-8.1-2.4-15.1-6.5-21.8-11.3c-19.7-14.3-41.2-23.2-65.5-25.6
	c-11.3-1.3-22.6-1.1-33.7,0.5c-9.7,1.3-19.1,3.5-28.3,6.5c-6.2,2.2-12.4,4.3-18.3,7.3c-3.2,1.6-5.9,3.5-8.4,5.9
	c-3.2,3.5-4.6,7.5-4,12.1c0.3,3.2,1.3,5.9,2.7,8.6c3.5,7.3,7.2,14.5,11,21.6c1.9,5.8-8-3.2-12.9-9c-0.6-0.7-1.7-1-2.5-0.5
	c-0.1,0-0.1,0.1-0.2,0.1c-17,6.7-29.9,17.8-39.6,33.1c-7,11.3-11.6,23.7-14.8,36.9c-3.5,14.6-5.1,29.1-5.4,43.9
	c-0.3,12.7,0.5,25.3,1.9,38c0,0.3,0.1,0.5,0.1,0.8c0.4,2.9,2.9,5.1,5.9,5.1c8,0,23,0,30.5,0c2.6,0,4.9-1.7,5.7-4.2
	c1.8-5.9,4.1-12.6,7.1-17.3c2.4-4,5.7-7.5,9.7-10.2c3-1.9,5.9-3.2,9.4-3.2c4.6,0,8.6,1.6,12.1,4.6c3.2,2.7,5.7,5.9,7.5,9.7
	c2.7,4.9,4.3,10.2,5.4,15.6l0,0.1c0.4,2.9,2.9,5.1,5.8,5.1l21.4,0c2.5,0,4.8-1.6,5.6-4c1.1-3.3,2.4-6.9,3.5-9.7
	c2.7-6.7,6.2-12.9,11.3-18.1c4-4,8.9-7.3,14.6-8.6s11.3-0.5,16.7,1.1c6.7,1.9,12.7,5.4,18.3,9.4c11.3,7.8,20.8,17.8,29.4,28.6
	c35.1,45.6-11.8,116.2,20.8,119.4c36.3,0.5-20.8-76.2,17.9-115.7c1.6-1.6,2.4-3.9,2-6.1l0,0c-1.6-10-2.2-19.7-1.3-29.6
	c1.1-11.6,4-22.4,9.2-32.9c3.8-8.1,8.9-15.4,14-22.6c4.9-6.7,10-13.5,14.8-20.5c10-14.6,18.1-30.2,25.1-46.4
	c5.4-12.4,9.2-25.1,10.8-38.5C368.2,75,368.2,67.4,367.1,59.6z M178,135.1c-2.3,3.2-3.6,4.9-6,7.9s-5,5.8-7.8,8.5
	c-4.9,4.6-10,8.6-16.2,11.3c-7,3-14,3.8-21.3,1.3c-2.5-0.8-4.9-2-7-3.4c-4.8-5,7.2-3.5,15.2-3.3c2.2,0.1,4.5-0.1,6.8-0.5
	c4.6-0.8,9.2-2.7,13.2-5.1c8.4-4.6,15.6-10.5,22.4-17.2c0.5-0.6,0.8-0.7,1-0.5S178.3,134.8,178,135.1z M283.3,146.1
	c-3.8,5.9-9.2,10-16.2,11.3c-6.7,1.3-13.2-0.3-18.9-4c-5.4-3.5-7.8-8.9-8.4-15.4c-0.2-2.1,0-4.6,0.4-6.8c0.4-1.8,2.1-2.8,3.8-2.3
	c2.7,0.8,5.4,1.7,8.1,2.6c1.5,0.5,2,2.2,1.1,3.5c-3,4.1-3.4,8.5,0.2,13.2c2.7,3.8,8.1,5.1,12.4,3.5c4.9-2,7.2-5.3,7.4-10.1
	c0.1-1.5,1.6-2.5,3-2c1.8,0.6,3.5,1.2,5.3,1.8C283.7,142.1,284.5,144.4,283.3,146.1C283.3,146.1,283.3,146.1,283.3,146.1z"/>
</svg>
