<?xml version="1.0" encoding="utf-8"?>
<!-- Generator: Adobe Illustrator 23.0.6, SVG Export Plug-In . SVG Version: 6.00 Build 0)  -->
<svg version="1.1"
	 id="Layer_1" xmlns:cc="http://creativecommons.org/ns#" xmlns:dc="http://purl.org/dc/elements/1.1/" xmlns:inkscape="http://www.inkscape.org/namespaces/inkscape" xmlns:rdf="http://www.w3.org/1999/02/22-rdf-syntax-ns#" xmlns:sodipodi="http://sodipodi.sourceforge.net/DTD/sodipodi-0.dtd" xmlns:svg="http://www.w3.org/2000/svg"
	 xmlns="http://www.w3.org/2000/svg" xmlns:xlink="http://www.w3.org/1999/xlink" x="0px" y="0px" viewBox="0 0 400 400"
	 style="enable-background:new 0 0 400 400;" xml:space="preserve">
<style type="text/css">
	.st0{fill:#020000;}
</style>
<path class="st0" d="M336.8,74.8c-1.3-8.2-4.2-15.7-8.4-22.7c-4.4-7.5-10.4-13.2-18.1-17c-9.7-4.9-19.9-6.4-30.7-4
	c-4.4,0.9-8.4,2.6-11.7,5.3c-1.3,1.1-2.4,2.2-3.1,3.8c-0.7,1.1-0.9,2.2-0.2,3.5c0.3,0.7,0.6,1.3,0.9,1.9c2.1,4.5,3.3,9.3,3.6,14.3
	c1,17.8-6.5,36.1,4.9,36.3c18.1-0.3-3.3-33.7,7.9-43.2c1.1-1,2.5-1.5,4-1.8c3.4-0.6,6.8-0.4,10.3,0.5c8.2,2.2,13.2,7.9,16.1,15.4
	c2,4.9,1.5,9.9,0.2,15c-4.9,18.5-25.8,36.6-52.1,28.2c-6.6-2-12.4-5.3-17.9-9.3c-16.1-11.7-33.8-19-53.6-21
	c-9.3-1.1-18.5-0.9-27.6,0.4c-7.9,1.1-15.7,2.9-23.2,5.3c-5.1,1.8-10.1,3.5-15,6c-2.6,1.3-4.9,2.9-6.8,4.9c-2.6,2.9-3.8,6.2-3.3,9.9
	c0.2,2.6,1.1,4.9,2.2,7.1c2.9,6,5.9,11.9,9,17.7c1.6,4.8-6.6-2.7-10.6-7.4c-0.5-0.6-1.4-0.8-2.1-0.4c0,0-0.1,0-0.1,0.1
	c-13.9,5.5-24.5,14.6-32.4,27.1c-5.7,9.3-9.5,19.4-12.1,30.2c-2.9,11.9-4.2,23.8-4.4,36c-0.2,10.4,0.4,20.7,1.5,31.1
	c0,0.2,0.1,0.4,0.1,0.7c0.3,2.4,2.4,4.2,4.8,4.2c6.5,0,18.9,0,25,0c2.1,0,4-1.4,4.6-3.5c1.5-4.8,3.4-10.3,5.8-14.2
	c2-3.3,4.6-6.2,7.9-8.4c2.4-1.5,4.9-2.6,7.7-2.6c3.8,0,7.1,1.3,9.9,3.8c2.6,2.2,4.6,4.9,6.2,7.9c2.2,4,3.5,8.4,4.4,12.8l0,0
	c0.3,2.4,2.4,4.1,4.8,4.1l17.5,0c2.1,0,3.9-1.3,4.6-3.3c0.9-2.7,1.9-5.7,2.9-8c2.2-5.5,5.1-10.6,9.3-14.8c3.3-3.3,7.3-6,11.9-7.1
	c4.6-1.1,9.3-0.4,13.7,0.9c5.5,1.5,10.4,4.4,15,7.7c9.3,6.4,17,14.6,24.1,23.4c28.7,37.3-9.7,95.1,17.1,97.8
	c29.7,0.4-17-62.4,14.6-94.7c1.3-1.3,1.9-3.2,1.6-5l0,0c-1.3-8.2-1.8-16.1-1.1-24.3c0.9-9.5,3.3-18.3,7.5-26.9
	c3.1-6.6,7.3-12.6,11.5-18.5c4-5.5,8.2-11,12.1-16.8c8.2-11.9,14.8-24.7,20.5-38c4.4-10.1,7.5-20.5,8.8-31.6
	C337.7,87.4,337.7,81.2,336.8,74.8z M182,136.6c-1.9,2.6-2.9,4-4.9,6.4c-2,2.4-4.1,4.7-6.4,7c-4,3.8-8.2,7.1-13.2,9.3
	c-5.7,2.4-11.5,3.1-17.4,1.1c-2.1-0.7-4-1.6-5.7-2.8c-4-4.1,5.9-2.8,12.5-2.7c1.8,0.1,3.7-0.1,5.6-0.4c3.8-0.7,7.5-2.2,10.8-4.2
	c6.8-3.8,12.8-8.6,18.3-14.1c0.4-0.5,0.7-0.6,0.8-0.4S182.2,136.3,182,136.6z M268.2,145.6c-3.1,4.9-7.5,8.2-13.2,9.3
	c-5.5,1.1-10.8-0.2-15.4-3.3c-4.4-2.9-6.4-7.3-6.8-12.6c-0.1-1.7,0-3.7,0.4-5.5c0.3-1.4,1.7-2.3,3.1-1.9c2.2,0.7,4.4,1.4,6.7,2.2
	c1.2,0.4,1.7,1.8,0.9,2.8c-2.5,3.4-2.8,7,0.2,10.8c2.2,3.1,6.6,4.2,10.1,2.9c4-1.6,5.9-4.4,6.1-8.3c0-1.2,1.3-2,2.5-1.6
	c1.4,0.5,2.9,1,4.3,1.5C268.5,142.3,269.2,144.2,268.2,145.6C268.2,145.6,268.2,145.6,268.2,145.6z"/>
</svg>
