<?xml version="1.0" encoding="utf-8"?>
<!-- Generator: Adobe Illustrator 22.1.0, SVG Export Plug-In . SVG Version: 6.00 Build 0)  -->
<!DOCTYPE svg PUBLIC "-//W3C//DTD SVG 1.1//EN" "http://www.w3.org/Graphics/SVG/1.1/DTD/svg11.dtd">
<svg version="1.1" id="Layer_1" xmlns="http://www.w3.org/2000/svg" xmlns:xlink="http://www.w3.org/1999/xlink" x="0px" y="0px"
	 viewBox="0 0 400 400" enable-background="new 0 0 400 400" xml:space="preserve">
<g>
	<path d="M200.1,217.2c-60,0-119,0-179,0c-6.6,0-7.8-1.3-7.7-7.7c0-7.7,0.3-14.2,0.1-21.9c-0.1-3.6,1.2-4.8,4.7-4.8
		c14.6,0.1,29.1-0.1,43.7,0.1c3.9,0.1,6.6-3.9,7.8-7.4c2.3-6.5,1.8-10.6-0.6-17.1c-2.8-7.6-8-11.4-16.2-11.5
		c-11.5-0.2-23-0.3-34.6-0.1c-3.8,0-5-1.2-4.8-5c0.3-8.2,0.2-16.4,0-24.6c-0.1-3.7,1.1-5,5-5c69.4,0.1,136.5,0.1,205.9,0.1
		c8,0,11.9-1.4,11.7-9.4c-0.3-10.9-0.8-14.6-6.5-19.9c-3.1-2.9-8-6.6-14.3-6.6c-65.3,0-130.7-0.1-196,0c-4.4,0-6.2-0.9-5.9-5.7
		c0.4-8.2,0.2-16.4,0.1-24.5c-0.1-3.3,1.1-4.8,4.5-4.5c1.5,0.1,3,0,4.5,0c119.1,0,238.3,0,357.4,0c6.6,0,6.6,0,6.6,6.4
		c0,7.9-0.2,15.8,0.1,23.6c0.1,3.7-1.1,4.7-4.6,4.7c-24.4-0.1-48.8,0-73.2-0.2c-4.4,0-7.1,1.4-9.3,5c-4.9,8.2-5.9,16.7-2.1,25.6
		c1.6,3.7,4.1,5.5,8.4,5.5c25-0.2,50,0,75-0.2c4.3,0,5.8,1.1,5.8,5.6c0,7.8,0,15.8,0,24.1c0,4.1-1.4,4.8-5,4.8
		c-13.5-0.1-27-0.1-40.5-0.1c-66.5,0-133.1,0-199.6,0c-10.3,0-21,9.1-22.7,19.3c-1.6,10,4.1,16.8,14.1,16.8c82.5,0,163.7,0,246.2,0
		c6.2,0,7.5,1.1,7.5,7.4c0,7.6-0.4,14,0,21.6c0.2,4.4-1.5,5.3-5.5,5.3C320.8,217.2,260.5,217.2,200.1,217.2z"/>
	<path d="M199.5,253.4c60.3,0,120.7,0,181,0c6.1,0,6,0,6,6c0,7.6-0.3,15.2,0.1,22.7c0.2,4.5-1.5,5.7-5.8,5.6
		c-24.6-0.2-49.1-0.2-73.7,0c-12.6,0.1-20.6,7.5-20.8,19.5s9.1,16.5,15.2,16.5c27.7,0,51.2,0,79,0c6.1,0,6,0,6,5.9
		c0,7.6,0,15.2,0,22.7c0,6,0,6-6.1,6c-67,0-134,0-201,0c-53.2,0-106.4,0-159.6,0c-6.3,0-6.3,0-6.2-6.3c0-7.6,0.3-15.2-0.1-22.7
		c-0.3-4.6,1.3-5.6,5.6-5.6c53.5,0.1,107,0.1,160.5,0.1c18.3,0,36.7,0,55,0c8.2,0,13.1-5.5,11.6-13.7c-1.5-8.4-4.2-13.2-10.4-18.8
		c-3.3-3-4.3-3.5-9.7-3.5c-68.4-0.1-136.7-0.1-205.1-0.1c-7.5,0-7.5,0-7.5-7.4c0-7.4,0.2-14.9-0.1-22.3c-0.1-3.6,1-4.7,4.6-4.7
		C78.5,253.4,139,253.4,199.5,253.4z"/>
</g>
</svg>
