<?xml version="1.0" encoding="UTF-8" standalone="no"?>
<svg
   xmlns:dc="http://purl.org/dc/elements/1.1/"
   xmlns:cc="http://creativecommons.org/ns#"
   xmlns:rdf="http://www.w3.org/1999/02/22-rdf-syntax-ns#"
   xmlns:svg="http://www.w3.org/2000/svg"
   xmlns="http://www.w3.org/2000/svg"
   viewBox="0 0 533.33331 533.33331"
   height="533.33331"
   width="533.33331"
   xml:space="preserve"
   id="svg2"
   version="1.1"><metadata
     id="metadata8"><rdf:RDF><cc:Work
         rdf:about=""><dc:format>image/svg+xml</dc:format><dc:type
           rdf:resource="http://purl.org/dc/dcmitype/StillImage" /></cc:Work></rdf:RDF></metadata><defs
     id="defs6"><clipPath
       id="clipPath18"
       clipPathUnits="userSpaceOnUse"><path
         id="path16"
         d="M 0,400 H 400 V 0 H 0 Z" /></clipPath></defs><g
     transform="matrix(1.3333333,0,0,-1.3333333,0,533.33333)"
     id="g10"><g
       id="g12"><g
         clip-path="url(#clipPath18)"
         id="g14"><g
           transform="translate(233.3486,175.3906)"
           id="g20"><path
             id="path22"
             style="fill:#000000;fill-opacity:1;fill-rule:nonzero;stroke:none"
             d="M 0,0 C -0.638,-0.865 -1.174,-8.882 0,-9.131 1.174,-9.38 6.869,-0.855 6.569,0 6.27,0.855 0.638,0.865 0,0 m -71.686,-67.993 c -1.065,-2.099 5.77,-11.849 7.278,-11.135 1.507,0.714 1.142,9.736 0,11.135 -1.142,1.399 -6.213,2.099 -7.278,0 m 90.58,112.53 c 2.174,-1.142 8.052,0.398 10.119,1.925 2.948,2.18 4.25,7.497 4.25,11.505 0,4.009 -0.417,9.461 -2.179,8.807 C 29.322,66.12 16.72,45.678 18.894,44.537 M -63.967,-3.152 c 0,4.483 -19.072,3.694 -25.687,3.694 -6.615,0 -8.723,-2.592 -8.997,-7.466 -0.241,-4.271 1.472,-10.828 2.244,-12.903 0.772,-2.075 3.283,-2.847 5.081,-2.919 7.932,-0.316 19.965,-0.066 22.004,-0.066 2.039,0 5.159,0.358 5.159,4.348 0,3.989 0.196,10.827 0.196,15.312 m -0.123,-140.244 c -0.488,2.572 -3.936,-4.31 -5.798,-5.939 -4.882,-4.269 -10.291,-7.026 -16.846,-3.956 -6.428,3.01 -8.686,8.768 -8.174,15.273 0.451,5.722 1.77,11.441 3.301,16.997 2.456,8.917 3.597,17.85 0.63,26.731 -1.646,4.927 -3.866,9.8 -6.637,14.185 -3.443,5.449 -6.949,9.1 -12.401,11.167 -3.104,1.177 -6.861,1.835 -11.345,1.767 -4.484,-0.068 -11.9,-0.486 -17.876,-0.44 -7.246,0.054 -11.024,3.56 -11.217,10.861 -0.206,7.782 -0.254,15.582 0.014,23.36 0.267,7.782 3.382,10.478 11.24,10.499 2.717,0.007 5.481,0.326 8.14,-0.068 5.07,-0.751 6.812,1.772 7.217,6.27 0.519,5.762 -1.036,10.936 -5.12,14.871 -1.549,1.492 -4.498,2.067 -6.83,2.12 -12.416,0.283 -14.71,2.503 -14.711,15.011 -0.001,6.338 -0.085,12.679 0.023,19.016 0.128,7.579 3.428,10.789 10.862,10.792 16.119,0.006 32.238,0.002 48.357,0.002 1.954,0 6.434,-0.272 7.028,0.65 0.594,0.922 -2.104,4.401 -3.186,6.358 -17.772,32.128 -35.578,64.237 -53.408,96.332 -9.356,16.84 -18.837,33.61 -28.137,50.479 -5.085,9.224 -1.262,15.575 9.231,15.597 15.213,0.031 30.429,-0.115 45.64,0.069 5.937,0.072 9.803,-2.311 12.449,-7.576 19.721,-39.241 38.54,-78.919 58.185,-118.199 4.396,-8.791 11.524,-27.706 13.62,-27.706 2.095,0 6.542,12.193 9.025,17.651 14.458,31.789 27.834,63.506 42.308,95.287 5.141,11.289 10.497,22.482 15.423,33.862 2.113,4.882 5.455,6.685 10.511,6.654 15.575,-0.097 31.152,0.018 46.727,-0.056 8.772,-0.042 12.781,-6.268 8.805,-14.228 -5.233,-10.478 -10.948,-20.716 -16.506,-31.03 -10.757,-19.963 -21.625,-39.866 -32.229,-59.909 -1.287,-2.431 -1.586,-5.553 -1.74,-8.387 -0.979,-18.096 2.051,-35.315 11.424,-51.146 2.072,-3.501 4.427,-4.63 7.262,-4.63 2.836,0 4.767,-0.031 6.396,-0.083 5.252,-0.166 8.045,-2.752 8.123,-8.029 C 85.829,27.667 85.834,18.246 85.689,8.83 85.605,3.391 82.007,0.487 75.277,0.43 62.42,0.319 49.56,0.397 36.7,0.394 29.511,0.391 27.944,-0.635 26.215,-7.652 c -0.679,-2.751 -0.66,-5.743 -0.538,-8.606 0.198,-4.641 2.147,-6.927 7.515,-6.77 14.116,0.41 28.25,0.166 42.377,0.127 7.715,-0.022 10.422,-3.156 10.147,-11.223 -0.25,-7.351 -0.307,-14.712 0.065,-22.058 0.385,-7.607 -2.319,-10.98 -9.658,-11.401 -3.069,-0.176 -6.156,-0.035 -9.235,-0.039 -7.119,-0.011 -11.261,-2.187 -12.441,-9.271 -1.127,-6.763 -0.325,-13.918 0.167,-20.862 0.446,-6.294 2.21,-12.524 2.334,-18.804 0.218,-10.994 -6.282,-18.299 -15.598,-18.637 -9.717,-0.353 -17.94,6.896 -18.383,17.535 -0.29,6.971 1.321,14.007 1.834,21.031 0.261,3.583 0.357,7.257 -0.124,10.801 -1.468,10.807 -6.177,16.66 -14.7,17.891 -2.975,0.429 -10.247,1.04 -10.449,-3.307 -0.203,-4.348 0.105,-9.401 0.105,-11.347 0,-25.899 0.005,-43.268 -0.002,-69.168 -0.003,-10.034 -3.631,-13.645 -13.7,-13.653 -12.317,-0.01 -24.632,-0.017 -36.948,0.002 -9.679,0.015 -12.952,3.368 -12.795,12.987 0.044,2.699 0.21,6.458 -0.278,9.028" /></g></g></g></g></svg>