<?xml version="1.0" encoding="UTF-8" standalone="no"?>
<svg
   xmlns:dc="http://purl.org/dc/elements/1.1/"
   xmlns:cc="http://creativecommons.org/ns#"
   xmlns:rdf="http://www.w3.org/1999/02/22-rdf-syntax-ns#"
   xmlns:svg="http://www.w3.org/2000/svg"
   xmlns="http://www.w3.org/2000/svg"
   viewBox="0 0 533.33331 533.33331"
   height="533.33331"
   width="533.33331"
   xml:space="preserve"
   id="svg2"
   version="1.1"><metadata
     id="metadata8"><rdf:RDF><cc:Work
         rdf:about=""><dc:format>image/svg+xml</dc:format><dc:type
           rdf:resource="http://purl.org/dc/dcmitype/StillImage" /></cc:Work></rdf:RDF></metadata><defs
     id="defs6"><clipPath
       id="clipPath18"
       clipPathUnits="userSpaceOnUse"><path
         id="path16"
         d="M 0,400 H 400 V 0 H 0 Z" /></clipPath></defs><g
     transform="matrix(1.3333333,0,0,-1.3333333,0,533.33333)"
     id="g10"><g
       id="g12"><g
         clip-path="url(#clipPath18)"
         id="g14"><g
           transform="translate(332.6367,121.7471)"
           id="g20"><path
             id="path22"
             style="fill:#000000;fill-opacity:1;fill-rule:nonzero;stroke:none"
             d="m 0,0 c -0.185,0.338 -0.667,0.375 -0.893,0.062 -4.528,-6.246 -6.122,-12.589 -6.379,-19.122 -0.248,-6.266 0.6,-12.572 0.864,-18.865 0.154,-3.673 0.629,-7.437 0.056,-11.016 -1.95,-12.2 -14.751,-17.337 -24.816,-10.106 -6.196,4.453 -8.951,10.962 -10.225,18.205 -0.855,4.862 -1.537,9.752 -2.281,14.582 -0.038,0.248 -0.249,0.433 -0.499,0.446 -0.39,0.021 -0.579,-0.042 -0.813,-0.266 -0.235,-0.223 -1.111,-1.346 -1.774,-1.98 -5.936,-5.671 -13.538,-3.201 -20.638,-2.118 -5.094,0.777 -8.152,1.814 -13.104,3.372 -1.31,0.412 -4.353,2.244 -5.474,3.115 -2.907,2.259 -3.662,4.835 -0.793,7.696 7.581,7.563 15.203,15.087 22.771,22.662 16.324,16.337 33.179,32.19 48.732,49.231 9.737,10.668 17.472,23.158 26.18,34.774 1.468,1.959 1.222,3.423 -0.048,5.41 -15.369,24.041 -34.062,45.223 -54.885,64.645 -12.286,11.46 -24.288,23.224 -36.364,34.906 -1.947,1.884 -3.792,3.876 -5.51,5.971 -3.733,4.557 -4.214,6.146 0.401,8.901 4.39,2.622 9.623,3.911 14.55,5.447 3.015,0.941 5.986,1.787 9.203,2.48 8.071,1.739 13.161,-1.891 18.145,-7.442 31.338,-34.9 62.822,-69.67 94.268,-104.473 1.125,-1.246 2.33,-2.415 3.532,-3.587 6.017,-5.866 6.014,-12.895 0.36,-18.903 C 46.979,75.965 38.978,68.185 32.274,59.426 25.146,50.112 22.483,38.846 23.02,27.098 c 0.259,-5.687 1.658,-11.319 1.975,-17.007 0.302,-5.415 0.064,-10.886 -0.352,-16.3 -0.145,-1.893 -1.274,-3.859 -2.385,-5.5 C 17.977,-18.029 10.669,-18.183 6.25,-11.967 4.618,-9.671 3.66,-6.899 2.362,-4.361 1.714,-3.093 1.014,-1.851 0,0" /></g><g
           transform="translate(59.9424,152.7627)"
           id="g24"><path
             id="path26"
             style="fill:#000000;fill-opacity:1;fill-rule:nonzero;stroke:none"
             d="m 0,0 c -0.741,-0.868 -1.677,-5.858 -2.079,-8.693 -0.551,-3.88 -0.482,-7.843 -0.877,-11.75 -0.566,-5.613 -3.173,-9.222 -7.064,-10.141 -3.773,-0.891 -8.665,1.026 -10.876,5.803 -2.188,4.728 -3.649,7.925 -3.759,13.242 -0.11,5.317 0.114,11.384 0.012,17.308 -0.101,5.922 -1.505,13.801 -3.875,20.116 -3.809,10.15 -9.751,19.21 -17.9,26.683 -6.368,5.838 -6.467,12.616 -0.835,18.776 14.941,16.345 29.854,32.717 44.725,49.125 18.312,20.205 36.625,40.409 54.814,60.725 4.432,4.95 8.228,6.877 16.036,5.533 7.807,-1.344 11.764,-2.302 14.33,-2.863 2.565,-0.56 6.058,-1.694 6.394,-1.81 7.285,-2.535 8.837,-7.075 3.535,-12.47 C 82.318,159.144 71.678,149.071 61.102,138.943 41.484,120.157 29.043,106.847 21.895,98.716 14.748,90.585 -0.353,70.839 -2.586,67.355 -4.82,63.87 -4.524,61.115 -2.532,58.144 10.774,38.296 25.599,19.743 42.952,3.243 c 15.445,-14.687 23.202,-22.232 38.53,-37.042 1.792,-1.731 11.016,-10.907 12.535,-12.882 3.141,-4.082 3.045,-5.85 -1.366,-8.632 -5.886,-3.71 -7.856,-3.896 -12.472,-5.198 -4.616,-1.302 -6.379,-1.724 -13.551,-2.195 -7.17,-0.47 -9.706,1.083 -13.401,5.178 C 36.874,-39.404 20.484,-21.314 4.105,-3.214 3.241,-2.258 0.74,0.869 0,0" /></g><g
           transform="translate(196.4233,101.1279)"
           id="g28"><path
             id="path30"
             style="fill:#000000;fill-opacity:1;fill-rule:nonzero;stroke:none"
             d="m 0,0 c -5.333,0.194 -9.913,3.421 -12.154,9.193 -1.569,4.04 -2.271,8.474 -2.923,12.798 -0.801,5.315 -1.803,5.834 -6.788,7.14 -8.153,2.135 -14.974,6.807 -19.395,14.125 -0.89,1.474 -0.176,4.439 0.649,6.349 10.627,24.591 21.413,49.112 32.149,73.655 11.498,26.288 22.971,52.586 34.495,78.863 1.48,3.377 3.061,6.725 4.838,9.953 1.99,3.615 3.487,3.864 6.574,1.211 4.95,-4.255 9.77,-8.662 14.713,-12.927 3.082,-2.659 2.761,-5.607 1.416,-9.018 C 46.76,174.065 40.074,156.738 33.323,139.437 25.143,118.475 16.209,97.768 9.023,76.472 4.621,63.426 4.925,49.541 9.557,36.129 c 1.668,-4.83 3.559,-9.692 4.316,-14.693 0.62,-4.1 0.345,-8.591 -0.676,-12.619 C 11.797,3.297 6.642,0.063 0,0" /></g></g></g></g></svg>