<?xml version="1.0" encoding="utf-8"?>
<!-- Generator: Adobe Illustrator 23.0.6, SVG Export Plug-In . SVG Version: 6.00 Build 0)  -->
<svg version="1.1" id="Layer_1" xmlns="http://www.w3.org/2000/svg" xmlns:xlink="http://www.w3.org/1999/xlink" x="0px" y="0px"
	 viewBox="0 0 400 400" style="enable-background:new 0 0 400 400;" xml:space="preserve">
<path d="M295.3,210.2c-0.1-0.2-0.5-0.3-0.6,0c-3.3,4.5-4.4,9-4.6,13.7c-0.2,4.5,0.4,9,0.6,13.6c0.1,2.6,0.5,5.3,0,7.9
	c-1.4,8.8-10.6,12.5-17.8,7.3c-4.5-3.2-6.4-7.9-7.3-13.1c-0.6-3.5-1.1-7-1.6-10.5c0-0.2-0.2-0.3-0.4-0.3c-0.3,0-0.4,0-0.6,0.2
	c-0.2,0.2-0.8,1-1.3,1.4c-4.3,4.1-9.7,2.3-14.8,1.5c-3.7-0.6-5.9-1.3-9.4-2.4c-0.9-0.3-3.1-1.6-3.9-2.2c-2.1-1.6-2.6-3.5-0.6-5.5
	c5.4-5.4,10.9-10.8,16.4-16.3c11.7-11.7,23.8-23.1,35-35.4c7-7.7,12.6-16.6,18.8-25c1.1-1.4,0.9-2.5,0-3.9
	c-11-17.3-24.5-32.5-39.4-46.4c-8.8-8.2-17.4-16.7-26.1-25.1c-1.4-1.4-2.7-2.8-4-4.3c-2.7-3.3-3-4.4,0.3-6.4
	c3.2-1.9,6.9-2.8,10.5-3.9c2.2-0.7,4.3-1.3,6.6-1.8c5.8-1.2,9.5,1.4,13,5.3c22.5,25.1,45.1,50.1,67.7,75.1c0.8,0.9,1.7,1.7,2.5,2.6
	c4.3,4.2,4.3,9.3,0.3,13.6c-5.5,5.8-11.2,11.4-16,17.7c-5.1,6.7-7,14.8-6.6,23.2c0.2,4.1,1.2,8.1,1.4,12.2c0.2,3.9,0,7.8-0.3,11.7
	c-0.1,1.4-0.9,2.8-1.7,4c-3.1,4.5-8.3,4.7-11.5,0.2c-1.2-1.6-1.9-3.6-2.8-5.5C296.5,212.4,296,211.5,295.3,210.2z"/>
<path d="M99.4,187.9c-0.5,0.6-1.2,4.2-1.5,6.2c-0.4,2.8-0.3,5.6-0.6,8.4c-0.4,4-2.3,6.6-5.1,7.3c-2.7,0.6-6.2-0.7-7.8-4.2
	c-1.6-3.4-2.6-5.7-2.7-9.5s0.1-8.2,0-12.4c-0.1-4.3-1.1-9.9-2.8-14.5c-2.7-7.3-7-13.8-12.9-19.2c-4.6-4.2-4.6-9.1-0.6-13.5
	c10.7-11.7,21.4-23.5,32.1-35.3c13.2-14.5,26.3-29,39.4-43.6c3.2-3.6,5.9-4.9,11.5-4c5.6,1,8.5,1.7,10.3,2.1
	c1.8,0.4,4.4,1.2,4.6,1.3c5.2,1.8,6.3,5.1,2.5,9c-7.4,7.5-15,14.7-22.6,22c-14.1,13.5-23,23.1-28.2,28.9c-5.1,5.8-16,20-17.6,22.5
	c-1.6,2.5-1.4,4.5,0,6.6c9.6,14.3,20.2,27.6,32.7,39.4c11.1,10.6,16.7,16,27.7,26.6c1.3,1.2,7.9,7.8,9,9.3c2.3,2.9,2.2,4.2-1,6.2
	c-4.2,2.7-5.6,2.8-9,3.7c-3.3,0.9-4.6,1.2-9.7,1.6c-5.2,0.3-7-0.8-9.6-3.7c-11.7-13-23.5-26-35.3-39
	C101.7,189.5,99.9,187.3,99.4,187.9z"/>
<path d="M197.4,225c-3.8-0.1-7.1-2.5-8.7-6.6c-1.1-2.9-1.6-6.1-2.1-9.2c-0.6-3.8-1.3-4.2-4.9-5.1c-5.9-1.5-10.8-4.9-13.9-10.1
	c-0.6-1.1-0.1-3.2,0.5-4.6c7.6-17.7,15.4-35.3,23.1-52.9c8.3-18.9,16.5-37.8,24.8-56.7c1.1-2.4,2.2-4.8,3.5-7.1
	c1.4-2.6,2.5-2.8,4.7-0.9c3.6,3.1,7,6.2,10.6,9.3c2.2,1.9,2,4,1,6.5c-4.9,12.4-9.7,24.9-14.5,37.3c-5.9,15.1-12.3,29.9-17.5,45.2
	c-3.2,9.4-2.9,19.3,0.4,29c1.2,3.5,2.6,7,3.1,10.6c0.4,2.9,0.2,6.2-0.5,9.1C205.9,222.6,202.2,225,197.4,225z"/>
</svg>
