<?xml version="1.0" encoding="UTF-8" standalone="no"?>
<svg
   xmlns:dc="http://purl.org/dc/elements/1.1/"
   xmlns:cc="http://creativecommons.org/ns#"
   xmlns:rdf="http://www.w3.org/1999/02/22-rdf-syntax-ns#"
   xmlns:svg="http://www.w3.org/2000/svg"
   xmlns="http://www.w3.org/2000/svg"
   viewBox="0 0 533.33331 533.33331"
   height="533.33331"
   width="533.33331"
   xml:space="preserve"
   id="svg2"
   version="1.1"><metadata
     id="metadata8"><rdf:RDF><cc:Work
         rdf:about=""><dc:format>image/svg+xml</dc:format><dc:type
           rdf:resource="http://purl.org/dc/dcmitype/StillImage" /></cc:Work></rdf:RDF></metadata><defs
     id="defs6"><clipPath
       id="clipPath18"
       clipPathUnits="userSpaceOnUse"><path
         id="path16"
         d="M 0,400 H 400 V 0 H 0 Z" /></clipPath></defs><g
     transform="matrix(1.3333333,0,0,-1.3333333,0,533.33333)"
     id="g10"><g
       id="g12"><g
         clip-path="url(#clipPath18)"
         id="g14"><g
           transform="translate(380.4805,164.1436)"
           id="g20"><path
             id="path22"
             style="fill:#000000;fill-opacity:1;fill-rule:nonzero;stroke:none"
             d="m 0,0 c -1.031,-0.902 -4,-1.666 -4.824,-1.855 -4.558,-1.05 -4.98,-1.483 -9.528,-2.571 -3.665,-0.878 -7.513,-1.493 -10.858,-3.102 -6.895,-3.318 -9.66,-9.355 -7.547,-16.696 1.368,-4.754 3.641,-9.271 5.742,-13.785 2.726,-5.855 4.739,-11.676 2.096,-18.154 -4,-9.806 -18.669,-14.198 -27.289,-8.035 -4.677,3.344 -6.788,8.112 -5.536,13.631 1.003,4.416 2.937,8.663 4.805,12.83 2.012,4.489 4.31,8.831 3.982,13.962 -0.22,3.435 -1.33,6.475 -4.091,8.685 -4.131,3.307 -9.072,2.316 -11.152,-2.526 -0.996,-2.32 -1.16,-5.019 -1.555,-7.57 -0.624,-4.04 -0.797,-8.179 -1.766,-12.128 -1.075,-4.378 -3.75,-7.66 -8.417,-8.939 -9.049,-2.479 -17.038,4.426 -15.672,13.691 0.319,2.165 0.981,4.284 1.556,6.405 0.497,1.833 1.198,3.615 1.628,5.461 1.611,6.892 -0.614,10.942 -6.987,14.076 -3.618,1.779 -7.23,2.483 -11.215,2.328 -7.791,-0.305 -15.592,-0.41 -23.39,-0.489 -2.486,-0.026 -4.979,0.264 -7.464,0.459 -4.37,0.342 -8.737,1.045 -13.103,1.029 -18.904,-0.067 -37.809,-0.34 -56.713,-0.538 -0.3,-0.003 -0.603,0.016 -0.899,-0.023 -11.142,-1.458 -22.313,0.031 -33.469,-0.309 -3.982,-0.122 -7.98,0.257 -11.97,0.442 -1.848,0.086 -2.85,-0.171 -2.805,-2.588 0.075,-3.977 -0.474,-7.966 -0.753,-11.951 -0.267,-3.792 -4.703,-7.927 -8.476,-7.817 -1.291,0.037 -2.644,0.064 -3.851,0.458 -5.984,1.948 -11.949,3.959 -17.88,6.062 -4.866,1.725 -9.993,3.043 -14.439,5.546 -8.689,4.891 -17.998,8.093 -27.214,11.668 -6.876,2.668 -13.369,6.308 -20.085,9.402 -3.718,1.712 -7.588,3.095 -11.298,4.824 -1.675,0.78 -3.272,1.882 -4.636,3.132 -1.159,1.062 -1.02,2.253 0.668,3.023 10.454,4.769 20.813,9.754 31.358,14.311 6.231,2.692 12.747,4.726 19.133,7.06 13.805,5.045 27.66,9.958 41.383,15.216 4.562,1.747 8.581,1.137 12.687,-0.88 1.796,-0.883 2.558,-2.354 2.657,-4.346 0.188,-3.791 0.719,-7.576 0.693,-11.361 -0.016,-2.294 0.879,-2.697 2.817,-2.639 8.192,0.246 16.385,0.518 24.58,0.589 14.407,0.126 28.819,0.323 43.222,0.074 7.95,-0.137 14.664,7.045 15.02,14.093 0.459,9.148 -2.533,17.012 -7.388,24.526 -2.253,3.486 -4.849,4.729 -9.033,4.686 -15.101,-0.154 -30.207,0.16 -45.312,0.245 -1.683,0.009 -3.364,-0.367 -5.051,-0.487 -3.863,-0.274 -7.727,-0.628 -11.596,-0.713 -4.198,-0.092 -8.401,0.129 -12.602,0.138 -20.311,0.042 -40.622,0.062 -60.933,0.084 -4.497,0.004 -8.995,-0.092 -13.49,-0.01 -5.792,0.104 -11.609,0.063 -17.36,0.633 -3,0.297 -4.521,0.607 -8.692,2.901 -4.17,2.293 -4.781,12.139 -4.781,12.139 -0.171,5.378 -0.098,10.764 -0.198,16.145 -0.082,4.444 1.689,6.548 6.107,7.254 10.244,1.635 20.53,1.258 30.83,0.863 3.587,-0.138 7.189,0.229 10.785,0.236 35.719,0.07 71.438,0.097 107.157,0.181 5.598,0.013 11.196,0.397 16.792,0.364 23.808,-0.136 47.614,-0.345 71.421,-0.578 4.692,-0.046 9.384,-0.299 14.074,-0.484 1.623,-0.064 2.501,0.182 2.447,2.283 -0.095,3.782 0.125,7.595 0.542,11.358 0.16,1.437 0.856,3.327 1.946,4.055 3.581,2.39 7.579,3.661 11.938,2.08 19.926,-7.227 39.888,-14.358 59.743,-21.773 5.508,-2.057 10.683,-5 16.033,-7.487 5.253,-2.443 10.507,-4.89 15.815,-7.209 3.446,-1.505 4.032,-3.379 1.766,-6.555 -0.986,-1.383 -2.051,-2.712 -2.991,-4.125 -3.706,-5.576 -3.811,-11.402 -1.155,-17.42 2.104,-4.764 4.206,-9.511 3.859,-14.942 -0.652,-10.211 -12.194,-16.852 -20.919,-11.974 -3.853,2.156 -5.944,6.141 -5.348,10.526 0.254,1.873 0.772,3.715 1.248,5.551 0.552,2.129 1.297,4.213 1.767,6.358 1.593,7.259 -1.318,10.616 -8.598,9.15 -5.845,-1.176 -11.49,-3.328 -17.241,-4.991 -1.898,-0.549 -3.849,-0.909 -5.769,-1.38 -1.053,-0.259 -2.156,-0.434 -3.128,-0.883 -3.994,-1.841 -7.889,-3.909 -11.934,-5.624 -2.63,-1.115 -5.463,-1.75 -8.198,-2.623 -5.9,-1.884 -11.732,-4.028 -17.714,-5.608 -5.81,-1.534 -11.085,2.957 -11.224,8.993 -0.085,3.691 -0.472,7.38 -0.442,11.068 0.015,1.738 -0.68,2.081 -2.095,2.031 -3.892,-0.135 -7.784,-0.306 -11.677,-0.379 -5.101,-0.095 -10.212,0.066 -15.303,-0.198 -9.347,-0.484 -18.763,-9.425 -16.241,-20.084 2.377,-10.049 9.321,-15.749 18.191,-20.124 4.784,-2.358 15.71,-2.354 14.492,-2.352 -1.219,0.002 34.818,-0.05 34.818,-0.05 10.906,0 21.812,-0.004 32.718,10e-4 12.494,0.006 24.989,0.132 37.48,-0.028 4.984,-0.063 7.189,-0.16 12.083,-1.038 C 2.857,33.795 2.411,31.7 1.855,26.597 1.361,22.054 1.684,20.84 1.608,12.247 1.532,3.653 1.031,0.902 0,0" /></g></g></g></g></svg>