<?xml version="1.0" encoding="utf-8"?>
<!-- Generator: Adobe Illustrator 23.0.1, SVG Export Plug-In . SVG Version: 6.00 Build 0)  -->
<svg version="1.1"
	 id="Swift" inkscape:version="0.92.1 r15371" sodipodi:docname="swift.svg" xmlns:cc="http://creativecommons.org/ns#" xmlns:dc="http://purl.org/dc/elements/1.1/" xmlns:inkscape="http://www.inkscape.org/namespaces/inkscape" xmlns:rdf="http://www.w3.org/1999/02/22-rdf-syntax-ns#" xmlns:sodipodi="http://sodipodi.sourceforge.net/DTD/sodipodi-0.dtd" xmlns:svg="http://www.w3.org/2000/svg"
	 xmlns="http://www.w3.org/2000/svg" xmlns:xlink="http://www.w3.org/1999/xlink" x="0px" y="0px" viewBox="0 0 400 400"
	 style="enable-background:new 0 0 400 400;" xml:space="preserve">
<sodipodi:namedview  bordercolor="#666666" borderopacity="1" fit-margin-bottom="50" fit-margin-left="0" fit-margin-right="0" fit-margin-top="0" gridtolerance="10" guidetolerance="10" id="namedview6" inkscape:current-layer="Swift" inkscape:cx="-138.18307" inkscape:cy="111.83685" inkscape:pageopacity="0" inkscape:pageshadow="2" inkscape:window-height="705" inkscape:window-maximized="1" inkscape:window-width="1366" inkscape:window-x="-8" inkscape:window-y="245" inkscape:zoom="1.4142136" objecttolerance="10" pagecolor="#ffffff" showgrid="false">
	</sodipodi:namedview>
<title  id="title2">Artboard 5</title>
<path d="M343.1,55.6c-1.2-6.1-3.3-12.1-6.2-17.6c-3-5.4-6.7-10.3-11.1-14.7c-4.5-4.4-9.7-8-15.4-10.6c-5.6-2.8-11.6-4.8-17.9-5.9
	c-6.2-1.2-12.9-1.2-19.1-1.8h-152c-4.7,0.1-9.5,0.5-14.2,1.2c-4.7,0.5-9.2,1.7-13.5,3.5c-1.2,0.6-3.1,1.2-4.3,1.8
	c-4.1,2.2-8,4.7-11.6,7.6c-1.2,1.2-2.5,1.8-3.7,2.9c-4.5,4.2-8.3,9.2-11.1,14.7c-3,5.5-5.1,11.4-6.2,17.6c-0.9,6-1.5,12.1-1.8,18.2
	v140.5c0,6.1,0.6,12.2,1.8,18.2c1.2,6.1,3.3,12.1,6.2,17.6c2.4,4.2,5.2,8.2,8.3,11.8c0.9,1,1.8,2.1,2.7,3.2
	c41.8,55.3-3.8,128.6,28.3,131.2c27.1-1.3-16.1-84.3,26-108.3c5.8-3.3,12.4-4.9,19-4.9h126.2c6.4,0,12.8-0.6,19.1-1.8
	c6.2-1.1,12.2-3,17.9-5.9c5.6-2.8,10.8-6.4,15.4-10.6c4.5-4.2,8.3-9.2,11.1-14.7c3-5.5,5.1-11.4,6.2-17.6c0.9-6,1.5-12.1,1.8-18.2
	V73.8C344.9,67.7,344.3,61.6,343.1,55.6z M89.5,172.9c-0.9-1.1-1.7-2.2-2.5-3.4c-0.7-1,0.5-2.2,1.5-1.5c6.3,4.3,13.1,8,20.1,11
	c3.7,1.6,7.4,3.1,11,4.4c1.9,0.7,3.8,1.6,5.4,2.8c8.2,6.3-12.1,3.3-26.7-5.5C94.9,178.8,91.9,176.1,89.5,172.9z M299.4,231.3
	c-13.4-25-38.1-17.3-50.6-12.3c-23,12.7-53.7,15.2-85.4,5.3c-30.4-13.8-0.7-19.2,40-42.4c2.3-1.3,2.5-4.6,0.4-6.2
	c-35-26.6-64.9-60.2-87.3-87.8c-2.8-2.9-5.3-6-7.7-9.2c-0.8-1,0.6-2.3,1.5-1.5c24.7,20.7,58.4,44.3,76.4,55.4
	c1.1,0.7,2.2-0.7,1.3-1.6c-18.1-19-34.9-39-50.5-60.1c-0.8-1,0.6-2.3,1.6-1.4c24.2,22.6,50.1,43.3,77.6,61.8
	c7.2,4.9,12,12.7,12.5,21.4c1.5,22.6-9.8,55,3.6,56.4c19.1-0.1-0.4-37.1,6.3-67.3c0.6-1.6,1.1-3.3,1.6-5c0.2-0.8,0.4-1.6,0.6-2.4
	c0,0,0,0,0-0.1l0,0c7-27.9-1.5-59-20.3-85.5c-0.7-1,0.4-2.2,1.4-1.5c47.1,29.4,74.6,81.5,62.5,125.3c-0.1,0.5-0.3,1-0.4,1.4
	c-0.4,1.3-0.1,2.8,0.7,3.9C308.6,206.7,302.4,237,299.4,231.3z"/>
</svg>
