<?xml version="1.0" encoding="utf-8"?>
<!-- Generator: Adobe Illustrator 23.0.6, SVG Export Plug-In . SVG Version: 6.00 Build 0)  -->
<svg version="1.1"
	 id="Swift" xmlns:cc="http://creativecommons.org/ns#" xmlns:dc="http://purl.org/dc/elements/1.1/" xmlns:inkscape="http://www.inkscape.org/namespaces/inkscape" xmlns:rdf="http://www.w3.org/1999/02/22-rdf-syntax-ns#" xmlns:sodipodi="http://sodipodi.sourceforge.net/DTD/sodipodi-0.dtd" xmlns:svg="http://www.w3.org/2000/svg"
	 xmlns="http://www.w3.org/2000/svg" xmlns:xlink="http://www.w3.org/1999/xlink" x="0px" y="0px" viewBox="0 0 400 400"
	 style="enable-background:new 0 0 400 400;" xml:space="preserve">
<path d="M335.7,59.2c-1.2-5.8-3.1-11.5-5.8-16.7c-2.8-5.1-6.4-9.8-10.5-13.9c-4.3-4.2-9.2-7.6-14.6-10c-5.3-2.7-11.1-4.6-16.9-5.6
	c-5.8-1.1-12.3-1.1-18.1-1.7H125.5c-4.5,0.1-9,0.4-13.4,1.1c-4.4,0.5-8.7,1.6-12.8,3.4c-1.2,0.6-2.9,1.1-4.1,1.7
	c-3.9,2.1-7.6,4.5-11,7.2c-1.2,1.1-2.3,1.7-3.5,2.8c-4.3,4-7.9,8.7-10.5,13.9c-2.9,5.2-4.9,10.9-5.8,16.7
	c-0.9,5.7-1.5,11.5-1.7,17.3v133.2c0,5.8,0.6,11.6,1.7,17.3c1.2,5.8,3.1,11.5,5.8,16.7c2.2,4,4.9,7.8,7.9,11.2c0.9,1,1.7,2,2.5,3
	c39.6,52.5-3.6,122,26.8,124.4c25.8-1.2-15.2-79.9,24.6-102.7c5.5-3.1,11.7-4.6,18-4.6h119.7c6.1,0,12.1-0.6,18.1-1.7
	c5.9-1,11.6-2.9,16.9-5.6c5.3-2.7,10.2-6.1,14.6-10c4.3-4,7.9-8.7,10.5-13.9c2.9-5.2,4.9-10.9,5.8-16.7c0.9-5.7,1.5-11.5,1.7-17.3
	V76.4C337.5,70.6,336.9,64.8,335.7,59.2z M95.2,170.5c-0.8-1.1-1.6-2.1-2.4-3.2c-0.7-0.9,0.4-2.1,1.4-1.4c6,4.1,12.4,7.6,19.1,10.4
	c3.5,1.6,7,3,10.5,4.2c1.8,0.6,3.6,1.5,5.1,2.7c7.7,6-11.5,3.1-25.3-5.2C100.3,176,97.5,173.5,95.2,170.5z M294.3,225.8
	c-12.7-23.8-36.1-16.4-48-11.6c-21.8,12-50.9,14.5-81,5c-28.8-13.1-0.7-18.2,38-40.2c2.2-1.2,2.4-4.3,0.4-5.9
	c-33.2-25.3-61.5-57.1-82.8-83.3c-2.6-2.8-5.1-5.7-7.3-8.7c-0.7-1,0.5-2.2,1.5-1.4c23.4,19.6,55.4,42.1,72.5,52.6
	c1,0.6,2.1-0.7,1.3-1.6c-17.1-18-33.1-37-47.9-57c-0.7-1,0.6-2.2,1.5-1.3c22.9,21.5,47.6,41.1,73.6,58.6c6.8,4.6,11.3,12,11.9,20.3
	c1.5,21.4-9.3,52.1,3.5,53.5c18.1-0.1-0.4-35.1,6-63.9c0.6-1.6,1.1-3.1,1.5-4.7c0.2-0.8,0.4-1.5,0.6-2.3c0,0,0,0,0-0.1l0,0
	c6.7-26.4-1.4-55.9-19.2-81.1c-0.6-0.9,0.4-2,1.4-1.5c44.7,27.9,70.7,77.3,59.3,118.9c-0.1,0.5-0.2,0.9-0.4,1.4
	c-0.4,1.3-0.1,2.6,0.7,3.7C303,202.5,297.1,231.3,294.3,225.8z"/>
</svg>
