<?xml version="1.0" encoding="utf-8"?>
<!-- Generator: Adobe Illustrator 23.0.6, SVG Export Plug-In . SVG Version: 6.00 Build 0)  -->
<svg version="1.1"
	 id="svg4" xmlns:cc="http://creativecommons.org/ns#" xmlns:dc="http://purl.org/dc/elements/1.1/" xmlns:inkscape="http://www.inkscape.org/namespaces/inkscape" xmlns:rdf="http://www.w3.org/1999/02/22-rdf-syntax-ns#" xmlns:sodipodi="http://sodipodi.sourceforge.net/DTD/sodipodi-0.dtd" xmlns:svg="http://www.w3.org/2000/svg"
	 xmlns="http://www.w3.org/2000/svg" xmlns:xlink="http://www.w3.org/1999/xlink" x="0px" y="0px" viewBox="0 0 400 400"
	 style="enable-background:new 0 0 400 400;" xml:space="preserve">
<path d="M179.9,161.8c2.2-6.9,5.1-13.6,8-20.2c2.3-5.4,3.6-11.1,4-16.9c0.2-2.9,0.2-5.8,0-8.7c-0.2-3.2-0.4-6.4-0.9-9.6
	c-0.6-4.1-1.3-8.1-2.2-12.1c-1-4.3-3.7-7.3-8.2-8.4c-2.7-0.7-5.5-0.6-8.2-0.2c-6.8,1.1-13,3.6-18.7,7.2c-1.2,0.7-1.8,1.3-1.6,3
	c0.4,3.5,0.5,7.1,0.5,10.7c0,5-0.2,10.1-0.4,15.1c-0.1,1.6-0.3,3.3-0.5,4.9c-0.3,2.5-0.8,5-0.8,7.5c0,2.6,0.3,5.2,0.9,7.7
	c2,7.9,6.2,14.4,13.1,19c3.7,2.5,7.8,3.8,12.2,4.3c1.1,0.1,2.1-0.6,2.5-1.6C179.6,162.9,179.7,162.4,179.9,161.8z M171.8,93.9
	c-0.9-1.9-0.4-3.5,1.7-4.2c0.5-0.2,1.1-0.3,1.7-0.3c0.7-0.1,1.4-0.1,2.1-0.1c2.7,0,5.2,0.4,7.4,2.1c1.4,1.1,1.8,2.5,0.9,4
	c-1.3,2.1-3.3,3.2-5.7,3.4C176.1,99.1,173.4,97.3,171.8,93.9z"/>
<path d="M192,175.8c-1.5-1.2-3.4-1.3-4.8,0c-1.7,1.6-3.3,3.5-4.8,5.4c-1.8,2.1-3.4,4.4-5.7,6c-3.3,2.4-7.2,3.4-11.1,4.4
	c-3,0.7-6.5,1.5-9.6,2.2c-0.1,0-0.1,0.2,0,0.3c0.9,0.4,2.2,1.1,3,1.4c4.7,1.5,9.6,2.2,14.6,1.8c3.6-0.3,7.1-1.1,10.3-2.6
	c4.5-2.1,7.9-5.5,10.9-9.4c0.5-0.7,0.7-1.6,0.8-2.5C195.7,179.8,194.1,177.6,192,175.8z"/>
<path d="M277.5,84.3c-2.7-0.1-5.4-0.2-8.1-0.2c-3-0.1-6,0.4-8.8,1.6c-3.1,1.3-5.5,3.3-6.5,6.7c-0.7,2.5-0.9,5.1-0.7,7.7
	c0.4,4,1.3,7.9,2.7,11.7c1.9,5,3.9,10,6.2,14.8c3.2,6.5,6.8,12.8,10.2,19.2c0.8,1.6,1.5,3.2,2.4,5c0.1,0.2,0.4,0.2,0.5,0
	c1.8-4,2.7-8,2.8-12.2c0.1-3.6-0.2-7.3-0.4-10.9c-0.1-2.2-0.4-4.4-0.7-6.7c-0.3-3.1-0.8-6.2-0.8-9.3c-0.1-3.2,0.2-6.3,0.4-9.5
	c0.3-3,0.8-6,1.1-9h0c0.3-2.5,0.6-5.1,0.9-7.6C278.9,84.6,278.4,84.3,277.5,84.3z M271.9,90.8c-1,2.8-3.1,4.3-5.9,4.8
	c-2.6,0.4-4.8-0.5-6.5-2.6c-1.2-1.5-0.7-3.2,1.1-4.2c1.4-0.8,2.8-1.1,4.4-1.4c1.7-0.2,3.3-0.2,5,0.2c0.1,0,0.3,0.1,0.4,0.1
	C271.9,88.2,272.4,89.3,271.9,90.8z"/>
<path d="M333.2,171.5c-1-6.6-6.5-10.9-13-11.2c-2.3-0.1-4.7,0.1-7,0.4c-2.8,0.4-5.6,1-8.4,1.4c-1.8,0.3-3.8,0.4-5.6,0.6
	c-0.2,0-0.3-0.2-0.2-0.3c3.6-6.7,7.4-13.6,10.7-20.4c2.6-5.3,4.9-10.8,7.2-16.2c3.8-9,6.9-18.3,9.4-27.8c2.4-9,4.5-18.2,5.2-27.6
	c0.3-3.7,0.4-7.5,0.4-11.3c0-3-0.3-6-0.6-9c-0.3-3.4-1.4-6.7-2.8-9.8c-1.9-4.1-4.8-7.5-7.9-10.7c-2.5-2.6-5.2-4.9-7.9-7.2
	c-3.8-3.3-8.1-6-12.6-8.4c-5.1-2.7-10.4-4.8-16-6.2c-3.4-0.9-6.8-1.5-10.2-2.2C272.7,5.5,269,5,267.7,5h-18.5
	c-0.8,0-3.8,0.4-4.6,0.5c-5.5,0.6-11,1.7-16.3,3.3c-2,0.6-3.8,0.2-5.7,0.1c-1.4-0.1-2.9-0.5-4.3-0.6c-5.5-0.3-11-0.7-16.5-0.6
	c-6.7,0.1-13.2,1.4-19.6,3.6c-3,1-5.8,2.5-8.6,3.9c-1.5,0.7-2.7,0.6-4.3,0.1c-5.7-1.6-11.4-3.2-17.2-4.5c-3.6-0.8-7.3-1.2-11-1.6
	c-3.5-0.4-7.1-0.6-10.6-0.7c-3.5-0.1-7-0.1-10.4,0.2c-5.5,0.5-10.9,1.6-16.1,3.4c-5.8,2-11.2,4.9-16,8.7c-4.9,3.9-8.8,8.6-12,14
	c-3.3,5.7-5.6,11.8-7,18.2c-0.8,3.5-1.2,6.1-1.8,10.6c-0.6,4.4-0.5,17.6,0,21.7c0.5,4.1,0.6,4.9,1,7.4c0.7,3.9,1.4,7.7,2.2,11.5
	c1.1,5.4,2.3,10.7,3.5,16c0.9,3.9,1.9,7.7,3,11.6c1.6,5.9,3.2,11.7,5.1,17.5c1.7,5.4,3.7,10.7,5.6,16c2.7,7.3,5.9,14.4,9.8,21.3
	c2.6,4.6,5.5,9,9.1,12.8c25,30.7-11,103.2,17,107.6c36.4-2.7-14-67.3,18.9-103c0.4-0.3,0.8-0.5,1.2,0c1.7,2.1,3.9,3.5,6.2,4.7
	c6.3,3.3,13.1,4.2,20,4.6c1.7,0.1,3.4-0.1,5.1-0.2c3.3-0.1,6.5-0.7,9.7-1.6c1.1-0.3,2.2-0.7,3.3-1.1c0.8-0.3,1.7,0.3,1.7,1.1
	c0.1,1.2,0.1,2.4,0.2,3.5l0.2,9.4c0,1.4,0.1,2.9,0.2,4.3c0.3,3.7,0.7,7.3,1.1,11c0.3,2.5,0.6,5.1,1.2,7.5c1.2,5,2.8,9.8,4.9,14.5
	c2,4.6,4.9,8.5,8.8,11.7c5,4.1,10.9,5.9,17.2,6.2c2.6,0.1,5.3,0,7.9-0.5c4.1-0.7,8.2-1.7,12.2-2.9c8.1-2.4,15.1-6.7,20.3-13.5
	c3-3.9,5.4-8.1,7-12.7c1.3-3.8,2.5-7.7,3.5-11.6c0.7-2.8,1.1-5.6,1.5-8.5c0.3-2.1,0.5-4.2,0.7-6.3c0.3-3.7,0.7-7.5,1-11.2
	c0.2-2.4,0.2-4.8,0.2-7.2c0-0.7,0.1-1.5,0.2-2.2c0.1-0.7,0.4-0.9,1.1-0.9c2,0,4,0.1,6,0c3.1-0.2,6.2-0.2,9.3-0.7
	c0.6-0.1,1.2-0.2,1.8-0.4c27.9-4.6-10.4,71.4,17.1,71.2c24.1-1.2-6.7-44.3,15.7-87.3c0.4-0.8,0.9-1.6,1.4-2.3
	c0.9-1.2,1.6-2.4,2.1-3.8c0,0,0.1-0.1,0.1-0.1l0,0C333.3,176.7,333.6,174.1,333.2,171.5z M237.3,270.4c-0.6,0.3-1.2,0.7-1.9,1
	c-0.5,0.3-1,0.5-1.5,0.6l0,0c-1.7,0.4-2.9,0.5-4.5,0.6c-2.2,0.2-4.4,0.1-6.6-0.1c-6.8-0.6-12.6-3.5-16.9-8.8c-4.2-5-7-10.8-8-17.3
	c-0.5-3.1-0.8-6.2-1.1-9.3c-0.3-3.5-0.5-6.9-0.7-10.4c-0.2-4.4-0.3-8.8-0.4-13.2c-0.1-5.4-0.2-10.9-0.2-16.3c0-0.1-0.1-0.2-0.2-0.1
	c-2.6,1.6-5.2,3.3-7.9,4.7c-3.5,1.8-7.3,2.9-11.2,3.2c-2.9,0.2-5.9,0.4-8.8,0.2c-4.9-0.4-9.7-1.2-14-3.5c-1.8-1-3.6-2.1-4.8-3.7
	c-2.9-3.7-1.5-8.4,2.9-10.7c3-1.6,6.3-2.2,9.6-3c2.9-0.7,5.7-1.4,8.5-2.3c2.8-0.9,4.5-3.1,6.2-5.3l2.5-3.2c0.1-0.1,0-0.3-0.1-0.3
	c-1-0.1-2-0.2-2.9-0.3c-3.2-0.3-6.3-1.2-9.3-2.5c-2.5-1.1-2.6-1.2-4.4,0.8c-3.1,3.4-6.1,6.8-9.2,10.2c-2.2,2.5-4.5,5.1-6.7,7.6
	c-2.2,2.5-4.3,5.1-6.6,7.5c-1,1-2.1,1.8-3.2,2.6c-3.4,1.6-4.5-2.5-1.1-8.9c1-1.8,2.2-3.4,3.5-4.9c2.2-2.5,4.4-5.1,6.7-7.7
	c3.2-3.6,6.4-7.2,9.6-10.8c0.5-0.6,1-1.1,1.5-1.7c0.3-0.3,0.2-0.8-0.1-1.1l-0.5-0.5c-4-3.8-7.1-8.3-9.2-13.4
	c-1.7-4.1-2.7-8.3-3.1-12.7c-0.3-4.1,0.2-8.2,0.6-12.3c0.4-4,0.8-8,0.9-11.9c0.2-6.6-0.2-13.1-0.6-19.7c-0.2-3.9,0.3-7.8,0.6-11.8
	c0.3-3.8,0.8-7.7,1.6-11.5c0.6-2.9,1.3-5.9,2.1-8.7c0.3-1.1,0.7-2.1,1.3-3c4.1-6.5,2,14.9,2.7,23.9c0.1,0.8,0.9,1.2,1.6,0.9
	c0.2-0.1,0.4-0.2,0.7-0.3l2-0.9c6.8-3.1,13.7-5.1,21.3-4.8c3.2,0.1,6.3,0.7,9.1,2.1c5.4,2.7,8.6,7.3,10,13c1,4,1.6,8.1,2.2,12.1
	c0.5,3.2,1,6.4,1.1,9.6c0.1,4.7-0.2,9.4-0.4,14c-0.2,4-1,7.9-2.4,11.6c-2.5,6.8-5.3,13.4-8,20.1c-0.7,1.8-1.3,3.6-1.9,5.5
	c-0.2,0.7,0.3,1.4,1,1.4c0.7,0,1.3,0,2,0c0.4,0,0.8,0,1.1,0.1c3,0.7,5.6,2.1,7.7,4.4c2.9,3.1,4.4,6.7,4.4,10.9c0,2.3-0.2,4.6-0.2,7
	c0,10.8,0.1,21.6,0.2,32.4c0,1.8,0.1,3.5,0.2,5.3c0.3,3.7,0.5,7.4,0.9,11.1c0.3,2.6,0.6,5.2,1,7.8c0.6,3.7,2.3,6.9,4.2,10.1
	c1.6,2.7,3.8,5,6.6,6.5c1.6,0.9,3.3,1.5,5,1.9c0,0,0,0,0,0c1.9,0.4,3.7,0.5,5.8,0.5C238.3,265,250.7,262.9,237.3,270.4z
	 M325.5,173.7c-0.1,2.1-1.1,3.8-2.5,5.3c-1.4,1.6-2.9,3-4.5,4.2c-0.4,0.3-0.9,0.6-1.5,0.6c-2.1,0-2.9-3.3-2.7-7.3
	c0-0.2-0.2-0.4-0.4-0.4c-1.7,0.3-3.6,0.6-5.3,0.8c-3.8,0.4-7.6,0.8-11.5,1.1c-1.8,0.1-3.7-0.2-5.6-0.4c-3.1-0.3-6.2-0.9-8.8-2.6
	c-1.5-1-2.8-1.1-4.4-0.5c-2.3,0.8-4.2,2-4.8,4.5c-0.4,1.7-0.5,3.5-0.7,5.2c0,0.4,0.3,0.8,0.7,0.9c1.8,0.5,3.6,1,5.4,1.2
	c2.2,0.2,4.5,0.1,6.8,0c0.4,0,0.7,0,1.1-0.1c0.7,0,1.5,0,2.2,0c9.8,0.7,23.6,0.6,8.9,6.2c-1.5,0.6-3.2,1-4.8,1.2
	c-1.6,0.2-3.3,0.4-4.9,0.5c-3.1,0.3-6.2,0.3-9.3,0.2c-1.9-0.1-3.8-0.4-5.7-0.8c-0.6-0.1-1.2,0.3-1.3,1c-0.2,1.8-0.4,3.6-0.6,5.4
	l-1.1,8.4c-0.3,2.7-0.6,5.4-0.9,8c-0.3,2.6-0.7,5.2-1.1,7.8c-0.4,2.8-0.6,5.7-1.1,8.5c-0.1,0.6-0.2,1.2-0.3,1.8
	c-0.2,1.5-0.6,3-1.1,4.5c-4.7,12.7-5.8-4.9-5.4-16c0-0.5,0.1-1,0.1-1.5c0.3-2.4,0.6-4.8,1-7.3c0.3-2,0.5-4,0.7-6
	c0.3-2.9,0.7-5.7,1-8.6c0.3-2.2,0.5-4.4,0.7-6.7c0.3-2.8,0.6-5.7,0.9-8.5c0.2-2.2,0.1-4.3,0.5-6.5c0.7-3.9,2.5-7.2,6-9.3
	c1.4-0.8,2.9-1.4,4.4-2.1c0.1-0.1,0.2-0.2,0.1-0.4c-1.4-1.9-3.1-4.1-4.5-5.9c-2.3-3-3.9-6.4-5.5-9.8c-1.6-3.2-3.5-6.3-5.1-9.5
	c-2.9-5.6-5.8-11.1-8.4-16.8c-3.3-7.1-5.9-14.5-6.7-22.4c-0.3-3.3-0.4-6.7,0.2-10c1.1-5.3,3.8-9.4,8.5-12.2c4.3-2.6,9.1-3.5,14-3.7
	c3-0.2,6.1,0,9.2,0c0.1,0,0.2-0.1,0.1-0.2c-1.9-4.1-4-8.7-6.1-12.6c-3-5.7-6.9-10.8-11.2-15.5c-3.2-3.5-6.7-6.8-10.5-9.6
	c-3.7-2.8-7.7-5.4-11.9-7.4c-5-2.5-10.2-4.4-15.7-5.6c-5.3-1.2-10.6-1.9-16-1.9c-4.6,0-9.2,0.2-13.7,1.2c-6.8,1.6-13,4.4-18.4,8.9
	c-3,2.5-5.6,5.4-7.9,8.5c-2,2.7-3.7,5.6-5.2,8.6c-0.3,0.6-0.7,1.1-1.2,1.5c-4.1,3.3-0.2-11.7,4.4-20.4c0.4-0.7,0-1.7-0.8-1.9
	c-7.5-2.3-15.6-4.3-23.3-5.1c-3.9-0.4-7.8-0.6-11.7-0.9c-1.2-0.1-2.4,0.1-3.6,0.2c-3,0.3-6,0.4-8.9,1c-5,0.9-9.8,2.5-14.2,5.1
	c-4,2.3-7.3,5.4-10.1,9c-3.1,4-5.2,8.5-6.7,13.3c-1.8,5.7-2.6,11.5-2.8,17.4c-0.2,5.2-0.3,10.4,0.6,15.5c0.7,3.8,1.1,7.7,1.8,11.5
	c1,5.2,2.1,10.4,3.3,15.6c1.8,7.4,3.5,14.8,5.6,22.1c2,7,4.3,13.9,6.7,20.8c2,5.6,4.3,11.1,6.8,16.5c1.6,3.5,3.5,6.9,5.5,10.2
	c1.1,1.8,2.2,3.5,3.5,5.1c1.3,1.6-1.1,5.7-5.3,4.4c-1.3-0.4-2.5-1.3-3.3-2.5c-1.1-1.6-2.2-3.3-3.3-5.1c-4.3-7.3-7.7-15-10.5-22.9
	c-2-5.5-4-11-5.7-16.5c-1.9-6-3.5-12.2-5.1-18.3c-1.2-4.6-2.3-9.3-3.3-13.9c-1.2-5.3-2.3-10.6-3.3-16c-0.7-3.6-1.1-7.3-1.6-10.9
	c-0.7-4.9-0.9-9.8-0.6-14.8c0.2-4.4,0.9-8.8,1.5-13.2c0.9-6.1,2.9-11.8,5.8-17.3c1.8-3.3,4-6.3,6.5-9.2c4.2-4.6,9.2-7.9,14.8-10.4
	c3.9-1.7,8.1-2.8,12.3-3.6c6.3-1.2,12.6-1.2,18.9-1c2.8,0.1,5.5,0.6,8.3,0.8c5.9,0.6,11.8,1.8,17.5,3.4c4.2,1.1,8.3,2.6,12.4,3.8
	c0.4,0.1,1,0.1,1.4-0.1c5.6-3.7,11.8-6.1,18.3-7.5c2.5-0.5,5-0.8,7.6-0.9c3.1-0.2,6.2-0.4,9.3-0.2c3.7,0.2,7.4,0.8,11.1,1.3
	c1.8,0.2,3.5,0.9,5.3,1c0.9,0.1,3.3-0.9,4.2-1.1c4.6-1.1,7.7-1.9,12.4-2.7c3.5-0.6,7-0.9,10.5-1.1c3.9-0.2,7.9-0.4,11.8-0.2
	c5,0.2,9.9,0.9,14.8,2.1c6,1.4,11.8,3.4,17.3,6.3c4.1,2.1,8,4.6,11.5,7.6c2.3,2,4.7,3.9,6.8,6.1c2.6,2.7,5.2,5.4,6.8,8.9
	c1.2,2.6,2.1,5.3,2.3,8.2c0.3,3.6,0.7,7.2,0.6,10.8c0,3.4-0.5,6.9-0.8,10.3c-0.2,1.8-0.4,3.6-0.7,5.4c-3.1,14.2-14.2,36.9-14.9,28.4
	c-0.1-1.2,0.1-2.4,0.4-3.5c1.6-5.1,3.1-10.3,4.3-15.5c1-4.3,1.8-8.7,2.5-13.1c0.5-3.4,1-6.9,1.1-10.3c0.1-3.7-0.1-7.4-0.4-11
	c-0.3-2.8-0.9-5.5-2.7-7.8c-2.8-3.6-5.8-7.1-9.5-9.8c-3.1-2.3-6.2-4.7-9.5-6.6c-5.3-3.1-11-5.1-17-6.5c-5.8-1.4-11.8-1.9-17.7-2.1
	c-3.5-0.1-7,0.3-10.5,0.6c-2.5,0.2-5,0.6-7.6,1c-0.6,0.1-0.8,0.9-0.2,1.2c2.8,1.6,5.6,3,8.3,4.7c6.7,4.2,12.7,9.4,17.9,15.4
	c2.6,3.1,5.1,6.2,7.5,9.5c4.5,6.3,8.1,13.2,10.8,20.5c1.2,3.2,2.1,6.5,1.7,10c-0.3,2.5-0.3,5-0.5,7.5c-0.2,2.1-0.5,4.1-0.8,6.2
	c-0.4,3.1-1,6.2-1.2,9.3c-0.2,3,0,6,0.2,9c0.2,3,0.6,6,0.9,9.1c0.3,3.4,0.7,6.8,0.8,10.3c0.1,2.8-0.2,5.7-0.4,8.5
	c-0.3,3.4-1.2,6.7-2.4,9.8c-0.9,2.1-1.9,4.1-2.8,6.2c-0.1,0.2-0.2,0.5-0.3,0.7c0,0-0.2,0.5,0.3,0.8c0.4,0.4,0.9-0.3,0.9-0.3
	c4.2-5.2,12.7-19.1,19.4-29.1c6.6-10,11.3-16.3,7.8-6.4c-0.8,2-1.6,3.9-2.4,5.9c-1.7,4-3.5,8.1-5.5,12c-3.8,7.4-7.7,14.7-12.3,21.7
	c-0.6,1-1.2,1.9-1.8,2.9c-0.3,0.4-0.1,1,0.3,1.3c1.8,1,3.7,1.4,5.7,1.6c2.2,0.2,4.4,0.4,6.5,0.2c3.4-0.3,6.9-0.7,10.3-1.2
	c3.4-0.5,6.7-1.4,10.2-1.2C323.3,167.8,325.8,170.4,325.5,173.7z"/>
</svg>
