<?xml version="1.0" encoding="utf-8"?>
<!-- Generator: Adobe Illustrator 22.1.0, SVG Export Plug-In . SVG Version: 6.00 Build 0)  -->
<!DOCTYPE svg PUBLIC "-//W3C//DTD SVG 1.1//EN" "http://www.w3.org/Graphics/SVG/1.1/DTD/svg11.dtd">
<svg version="1.1" id="Layer_1" xmlns="http://www.w3.org/2000/svg" xmlns:xlink="http://www.w3.org/1999/xlink" x="0px" y="0px"
	 viewBox="0 0 400 400" enable-background="new 0 0 400 400" xml:space="preserve">
<g>
	<path d="M291.4,6.4c22.4,0,44.7,0.2,67.1-0.1c5.2-0.1,6.8,1.5,6.6,6.7c0,7.9,0.1,16,0,24.1c-0.1,4.6-1.6,6.3-6.1,6
		c-7-0.5-13.7-0.2-19.4,5.1c-11.1,10.4-8.5,25,6.1,29.6c4.4,1.4,9.4,1.5,14.1,1.6c4,0.1,5.4,1.4,5.3,5.4c0.2,8.4,0,16.6,0.1,24.7
		c0,5.2-1.4,6.7-6.6,6.6c-30-0.2-59.9-0.1-89.9-0.1c-8.9,0-17.8-0.2-26.7-0.1c-7.9,0-12.7,1.7-18,6.7c-15.6,14.8-28.9,31.2-39,50.2
		c-1.6,3-2.4,5.5-3,9c-1.2,6.4-3.4,7.9-8.9,7.9c-43.4-0.2-86.9-0.2-130.3,0c-6.4,0-7.9-1.9-7.8-8.1c0.1-7.6-0.1-15.2,0-22.8
		c0.1-4.9,1.3-6.2,6.2-6.2c34.5,0.2,66.9,0,103.6,0.4c27.6-0.4,41.5-11,55.7-28.2c9.8-11.8,15.7-26,17.5-41.4c0.5-4.3,3-4,5.9-4
		c20.6,0,41.3,0,61.9,0c10.1,0,22-9.4,24.4-19.2c2.5-10-3.3-17.6-13.6-17.6c-24.1,0-48.2-0.1-72.3,0.1c-4.8,0-6.1-1.4-6.4-6.3
		c-0.4-8.5-0.3-16.6,0-24.1c0.2-5.1,1.7-6.1,6.4-6.1C246.7,6.5,269,6.4,291.4,6.4z"/>
	<path d="M291.2,263.1c-22.1,0-44.3-0.1-66.4,0.1c-5,0.1-6.8-1.1-6.8-6.5c0-8.2-0.2-16.5,0-24.7c0.1-4.2,1.3-5.8,5.6-5.7
		c8.9,0.3,17.8,0.2,26.7,0.1c13.6-0.2,25.9-19.3,20-31.5c-1.2-2.5-5-5-7.8-5.1c-12.4-0.5-24.8-0.5-37.1-0.1
		c-5.5,0.2-7.5-1.2-7.5-7.2c0.1-7.6-0.2-15.2,0-22.8c0.1-5.3,1.4-7.1,6.9-7.1c41,0.2,82.1,0.1,123.1,0.1c3.9,0,7.8,0.1,11.7,0
		c3.9-0.2,5.4,1.3,5.3,5.3c0.2,8.7,0,17.4,0,26.1c0,4.4-1.6,5.6-5.7,5.5c-13.7-0.2-27.4-0.1-41,0c-11.6,0-27.1,18.9-24.8,30.3
		c0.9,4.6,3.3,6.8,8.5,6.7c18.9-0.3,37.8,0,56.7-0.2c4.8-0.1,6.6,1.2,6.3,6.2c0,8.2,0.1,16.5,0,24.7c0.2,4.7-1.6,6-6.1,5.9
		C336.4,263,313.8,263.1,291.2,263.1z"/>
	<path d="M107.9,336.2c-22.4,0-44.7-0.1-67.1,0.1c-4.6,0-5.8-1.2-5.8-5.8c0-8.5,0-16.9,0-25.4c0-4.4,1-5.2,5.6-5.5
		c9.9-0.2,17.3,0,28.6,0.2c4.6,0.1,7.8-1.4,10.7-4.7c5.8-6.6,10-13.7,9.2-22.8c-0.6-6.6-3.5-9.1-10-9.2c-12.8,0-25.6-0.2-38.4,0.1
		c-4.7,0.1-5.8-1.5-5.9-6c0-8.7-0.1-17.4,0-26c0-3.8,1.3-4.8,4.9-4.8c45.4,0.1,90.7,0.1,136.1,0c3.6,0,5,1.1,4.9,4.9
		c-0.1,8.2,0,16.5,0.3,24.7c0.2,5.3-1.4,7.5-7.4,7.3c-15.8-0.5-31.7,0.1-47.5-0.3c-7.5-0.2-11.3,3.7-13.6,9.7
		c-4.4,11.8,6,26.8,18.7,27c14.8,0.1,29.5,0.2,44.3,0c3.9-0.1,5.1,1,5.3,5.1c0.4,8.6,0.4,17.1,0.3,25.4c-0.1,4.9-1.4,6.3-6.3,6.2
		C152.6,336.1,130.2,336.2,107.9,336.2z"/>
	<path d="M291.4,299.7c22.3,0,44.7,0.1,67-0.1c5.1-0.1,7,1.3,6.7,6.6c0.1,7.8,0,15.6,0,23.4c0,5.1-1.3,6.7-6.6,6.7
		c-13.6,0-23.6,0.4-37.2,1.2c-7.4,0.4-10.4,1.8-13.6,3.1c-11.7,4.8-15,11.1-13,23.5c0.9,5.5,2.2,11.2,1.7,16.7
		c-1.1,11.4-11.7,16.3-21.6,10.5c-7.4-4.3-11-11-10.6-19.5c0.3-5.8,1.5-11.6,1.9-17.4c0.9-11.7-5.1-18-16.7-18.1
		c-8.5,0-16.9-0.2-25.4,0.1c-4.4,0.2-6.3-1.1-6.1-5.8c0-8.5,0-16.9,0-25.4c0-4.3,1.4-5.5,5.7-5.5
		C246.3,299.8,268.8,299.7,291.4,299.7z"/>
	<path d="M107.6,116c-22.1,0-44.2-0.1-66.3,0.1c-4.9,0.1-6.2-1.3-6.2-6.2c0-8.6-0.1-17.3,0-26c0.1-3.3,0.9-4.5,4.4-4.5
		c45.5,0.1,91.1,0.1,136.6,0c4.3,0,5.1,1.9,5.2,5.4c0.2,9.2-0.1,18.3-0.2,27.3c-0.1,4.6-2.9,3.9-5.7,3.9
		C152.7,116,130.1,116,107.6,116z"/>
	<path d="M108,6.4c22.4,0,44.7,0.1,67.1-0.1c4.9-0.1,6.1,1.4,6.2,6.2c0.1,8.4,0,16.9-0.4,25.4c-0.2,3.7-1.5,4.8-5,4.8
		c-21.9-0.1-43.8,0-65.7,0c-22.6,0.1-45.1-0.1-67.7,0.4c-6.3,0.1-7.4-1.9-7.5-7.7c-0.1-7.6-0.1-15.2,0-22.8c0.1-5.4,1.7-6.4,6.6-6.3
		C63.7,6.6,85.8,6.4,108,6.4z"/>
</g>
</svg>
