<?xml version="1.0" encoding="utf-8"?>
<!-- Generator: Adobe Illustrator 23.0.6, SVG Export Plug-In . SVG Version: 6.00 Build 0)  -->
<svg version="1.1" id="Layer_1" xmlns="http://www.w3.org/2000/svg" xmlns:xlink="http://www.w3.org/1999/xlink" x="0px" y="0px"
	 viewBox="0 0 400 400" style="enable-background:new 0 0 400 400;" xml:space="preserve">
<path d="M191.3,45.3c2.9,0.3,5.6,2,6.5,4.6c1.5,4,2.5,8.3,2.9,12.5c1.9,19.9,3.5,43.9,3.5,60s0,25.8-0.6,38.7
	c-0.8,19.9-2.3,39.8-3.7,59.7c-0.3,4.3-1.8,8.5-2.8,12.7c-1.7,6.6-1.3,12.8,1.8,18.9c1.6,3.1,3,6.4,4.2,9.7
	c2.5,7.1,0.1,13.5-5.8,16.4c-5.7,2.8-13.4,0.6-17.3-5c-2.6-3.8-3.4-8-2.7-12.5c0.7-4.4,1.8-8.7,2.4-13.2
	c1.6-12.8-4.4-22.3-13.4-30.4c-8.8-7.9-17.7-15.8-26.4-23.9c-4.1-3.8-7.2-7.5-11.1-11.5c-1.7-1.7-2.7-2.3-5-2.5
	c-2.3-0.2-3.7-0.2-6.6-0.1s-4.9,1-5.8,5.1c-0.6,2.7-0.5,5.6-0.6,8.4c-0.1,2.1,0.1,4.3-0.3,6.3c-1,5.4-5.8,7.3-10.3,4.1
	c-1.7-1.2-3.1-2.6-4.7-3.8c-0.5-0.3-1-1.1-1.6-0.7c-0.6,0.4-0.5,1.5-0.4,2.6c0,1.1,0.2,3.3,0.3,5.5c0.1,2,0.3,4.1,0.2,6.1
	c-0.2,5.3-3.2,9.4-7.5,10.5c-4.8,1.2-10.4-1-12.5-5.7c-1.5-3.5-2.1-7.6-2.3-11.5c-0.2-5.4,1-10.9,0.4-16.3c-0.3-2.7-2.4-5.7-4.5-7.8
	c-2.7-2.7-3.7-4.7-4-9.2c-0.4-4.4-0.5-8.2-0.8-14.1c0-1.2,0-6,0-7.2c0.1-13.5,0.2-27,0.4-40.6c0-3.2,0.2-6.4,0.3-9.6
	c0.1-2.3,2.6-4.1,5.9-4.2c4.9-0.1,9.9,0,14.8,0c0,0,27.3,0.7,34.9,0.6c7.6,0,10.8-3.3,14.9-7.3c5.4-5.3,10.6-10.8,16.1-16
	c8.8-8.4,17.8-16.6,26.7-25c1.3-1.2,3.4-3.2,5.2-3.6C183.9,45.7,188.4,44.9,191.3,45.3z"/>
<path d="M237.6,80.8c3.6,0,5.1,0.3,8.3,1c0.9,0.2,2,1.5,2.7,2.2c9.5,9.7,18.9,19.5,28.3,29.3c2.5,2.6,2.6,2.6,5.1,0.1
	c9.4-9.7,18.8-19.4,28.1-29.1c2.5-2.6,5.7-3.1,8.8-3.3c4.5-0.3,9.1,0.1,13.6,0.6c3.5,0.4,4.3,2,2.3,4.9c-2,2.9-4.6,5.3-7,7.9
	c-5.8,6.5-11.8,12.9-17.5,19.4c-5.6,6.5-10.9,13.1-16.4,19.7c-1.2,1.4-1.1,2.3,0.1,3.6c4,4.6,8,9.3,12,13.9c7.3,8.5,14.7,17,22,25.4
	c2.4,2.8,4.9,5.5,7.4,8.2c1.3,1.5,1.4,3.3,0.4,5c-2.7,4.6-2.4,9.1-0.5,14c1.3,3.2,2.4,6.8,2.4,10.2c0.1,7.8-8.6,13.6-16.7,11.9
	c-8.9-2-12.3-8.2-8.6-16.7c1.5-3.5,3.7-6.7,5.3-10.2c2.1-4.7,0-8.3-4.6-10.6c-2.7-1.4-4.9-4.1-7.1-6.4c-8-8.1-15.9-16.3-23.8-24.5
	c-0.9-0.9-1.8-1.9-2.7-2.8c-0.9,0.9-1.8,1.9-2.7,2.8c-8.8,9.1-17.8,18.2-26.4,27.5c-3.1,3.4-6.9,4.7-11,4.8
	c-4.2,0.2-8.5-0.2-12.7-0.6c-3.4-0.3-4.1-1.6-2.6-4.6c0.4-1,1.2-1.9,1.9-2.7c7.4-8.1,15-16.1,22.2-24.3c5.8-6.6,11.2-13.5,16.8-20.3
	c1.2-1.4,1.2-2.5,0-3.9c-3.1-3.6-6.1-7.2-9.1-10.8c-2.7-3.3-5.4-6.5-8-9.8c-1.4-1.8-2.5-1.7-3.4,0.3c-1.2,2.7-2.2,5.5-3.3,8.3
	c-1,2.7-2.5,5.1-5.4,6.2c-4.2,1.5-8.7-1.2-10.1-6c-1.3-4.4-0.6-8.8,0.3-13.1c1.3-6.5,0.8-12.8-1.7-18.9c-0.7-1.6-1-3.5-0.9-5.3
	c0-0.8,1.2-2.1,2-2.3C228.9,81.3,233.9,80.8,237.6,80.8z"/>
</svg>
