<?xml version="1.0" encoding="UTF-8" standalone="no"?>
<svg
   xmlns:dc="http://purl.org/dc/elements/1.1/"
   xmlns:cc="http://creativecommons.org/ns#"
   xmlns:rdf="http://www.w3.org/1999/02/22-rdf-syntax-ns#"
   xmlns:svg="http://www.w3.org/2000/svg"
   xmlns="http://www.w3.org/2000/svg"
   viewBox="0 0 533.33331 533.33331"
   height="533.33331"
   width="533.33331"
   xml:space="preserve"
   id="svg2"
   version="1.1"><metadata
     id="metadata8"><rdf:RDF><cc:Work
         rdf:about=""><dc:format>image/svg+xml</dc:format><dc:type
           rdf:resource="http://purl.org/dc/dcmitype/StillImage" /></cc:Work></rdf:RDF></metadata><defs
     id="defs6"><clipPath
       id="clipPath18"
       clipPathUnits="userSpaceOnUse"><path
         id="path16"
         d="M 0,400 H 400 V 0 H 0 Z" /></clipPath></defs><g
     transform="matrix(1.3333333,0,0,-1.3333333,0,533.33333)"
     id="g10"><g
       id="g12"><g
         clip-path="url(#clipPath18)"
         id="g14"><g
           transform="translate(372.8818,129.7832)"
           id="g20"><path
             id="path22"
             style="fill:#000000;fill-opacity:1;fill-rule:nonzero;stroke:none"
             d="m 0,0 c 0.636,-10.017 1.262,-20.033 1.908,-30.049 0.485,-7.493 0.512,-7.672 -7.108,-8.303 -18.246,-1.51 -36.507,-2.83 -54.761,-4.239 -2.704,-0.209 -5.401,-0.643 -8.103,-0.667 -1.212,-0.01 -3.14,0.436 -3.474,1.216 -0.467,1.093 -0.177,2.99 0.538,4.024 3.315,4.792 6.803,9.475 10.412,14.052 1.636,2.074 1.435,3.269 -0.64,4.929 -9.104,7.289 -18.117,14.693 -27.047,22.194 -1.914,1.608 -3.604,1.85 -5.893,1.102 -6.767,-2.211 -10.786,-7.151 -10.257,-14.299 0.346,-4.664 1.973,-9.227 2.951,-13.851 0.95,-4.486 2.508,-8.982 2.574,-13.492 0.244,-16.792 -19.184,-27.749 -33.762,-19.294 -8.436,4.892 -11.292,15.139 -6.241,24.046 2.042,3.601 5.075,6.652 7.746,9.881 2.935,3.547 6.25,6.812 8.916,10.544 9.01,12.611 9.35,26.051 2.456,39.555 -1.606,3.144 -5.094,5.479 -8.063,7.729 -2.758,2.092 -3.578,4.127 -1.53,6.963 2.373,3.285 4.467,6.998 7.511,9.525 6.525,5.42 9.808,12.453 11.956,20.296 6.244,22.804 7.026,45.716 1.433,68.771 -1.539,6.342 -4.337,11.668 -9.444,16.137 -4.419,3.868 -7.798,8.924 -11.64,13.452 -2.074,2.445 -1.082,4.723 0.893,6.33 6.603,5.376 13.471,10.427 20.078,15.798 15.574,12.661 31.005,25.499 46.628,38.099 2.721,2.195 3.113,3.697 0.81,6.446 -3.479,4.151 -6.633,8.586 -9.717,13.044 -0.736,1.064 -1.274,3.04 -0.763,3.97 0.495,0.901 2.493,1.466 3.772,1.371 21.637,-1.61 43.26,-3.42 64.901,-4.989 4.083,-0.296 5.334,-1.937 5.063,-5.898 -1.472,-21.514 -2.752,-43.041 -4.178,-64.558 -0.089,-1.336 0.142,-2.803 -1.292,-3.753 -1.435,-0.951 -4.575,0.44 -5.82,1.74 -3.453,3.611 -6.451,7.678 -9.425,11.715 -1.63,2.212 -2.816,2.607 -5.118,0.661 -16.577,-14.002 -33.449,-27.66 -49.78,-41.939 -3.554,-3.109 -6.319,-7.972 -7.719,-12.556 -7.663,-25.094 -3.961,-48.768 10.341,-70.74 1.538,-2.362 3.452,-4.585 5.561,-6.455 13.643,-12.101 27.439,-24.029 41.059,-36.154 2.6,-2.315 4.104,-2.143 6.035,0.672 3.51,5.12 7.262,10.079 11.009,15.033 0.491,0.646 1.659,1.324 2.316,1.167 0.865,-0.208 1.875,-1.094 2.208,-1.933 0.484,-1.218 0.49,-2.649 0.577,-3.998 0.71,-11.099 1.391,-22.198 2.081,-33.298 C -0.028,-0.002 -0.014,-0.001 0,0" /></g><g
           transform="translate(59.5259,31.2939)"
           id="g24"><path
             id="path26"
             style="fill:#000000;fill-opacity:1;fill-rule:nonzero;stroke:none"
             d="m 0,0 c -0.035,3.509 1.211,9.019 2.027,12.992 3.351,16.312 -2.469,29.297 -14.498,39.94 -4.328,3.829 -8.667,7.813 -15.15,7.786 -3.011,-0.014 -3.08,2.49 -2.936,4.785 0.624,9.881 1.245,19.763 1.875,29.643 0.813,12.721 1.632,25.442 2.457,38.163 0.053,0.808 -0.046,1.754 0.338,2.383 0.512,0.838 1.368,1.88 2.19,1.992 0.783,0.105 1.973,-0.674 2.534,-1.408 3.777,-4.938 7.533,-9.899 11.091,-14.995 1.866,-2.673 3.312,-2.612 5.754,-0.557 21.681,18.255 43.46,36.393 65.218,54.556 4.642,3.875 4.596,3.797 8.78,-0.566 7.689,-8.017 15.557,-15.864 23.146,-23.974 3.128,-3.344 6.03,-6.999 8.399,-10.898 0.78,-1.286 0.283,-4.664 -0.853,-5.599 C 83.43,120.306 66.271,106.632 49.188,92.863 43.804,88.523 38.622,83.922 33.098,79.771 30.387,77.735 30.67,76.24 32.515,73.925 35.893,69.684 39.153,65.338 42.221,60.87 43.016,59.713 43.479,57.729 43.028,56.524 42.725,55.712 40.553,55.243 39.211,55.23 26.321,55.11 18.798,48.257 18.731,35.141 18.7,29.031 20.437,22.871 21.728,16.81 22.712,12.185 24.849,7.744 25.37,3.099 25.805,-0.783 25.26,-5.05 24.029,-8.775 22.487,-13.44 18.708,-16.263 13.508,-16.365 8.334,-16.466 4.582,-13.841 2.574,-9.299 1.184,-6.154 0.035,-3.51 0,0" /></g><g
           transform="translate(25.0127,279.5488)"
           id="g28"><path
             id="path30"
             style="fill:#000000;fill-opacity:1;fill-rule:nonzero;stroke:none"
             d="m 0,0 c 0.412,4.179 1.546,9.812 3.64,14.068 4.673,9.497 4.507,19.248 3.706,29.351 -1.34,16.892 -2.261,33.817 -3.317,50.73 -0.341,5.453 0.045,5.908 5.292,6.328 21.486,1.719 42.971,3.431 64.466,5.033 1.289,0.095 3.277,-0.425 3.806,-1.325 0.535,-0.912 0.064,-2.93 -0.664,-3.979 -3.322,-4.786 -6.809,-9.465 -10.408,-14.047 -1.498,-1.908 -1.433,-3.032 0.508,-4.615 21.64,-17.649 43.21,-35.385 64.813,-53.08 0.72,-0.589 1.584,-1.22 2.324,-1.791 2.228,-1.718 3.726,-3.428 1.501,-6.105 -3.794,-4.567 -7.539,-9.186 -11.534,-13.573 -7.098,-7.797 -14.415,-15.393 -21.536,-23.168 -2.182,-2.382 -3.844,-1.055 -5.551,0.36 C 89.32,-9.415 81.623,-2.98 73.924,3.452 59.359,15.619 44.749,27.732 30.286,40.021 27.65,42.26 26.167,42.242 24.429,39.226 19.122,30.017 19.376,20.642 23.354,11.129 24.241,9.01 25.541,7.065 26.467,4.96 29.293,-1.467 28.125,-8.719 23.642,-13.195 20.009,-16.822 14.018,-17.751 8.887,-15.484 3.115,-12.934 -0.412,-4.179 0,0" /></g></g></g></g></svg>