<?xml version="1.0" encoding="utf-8"?>
<!-- Generator: Adobe Illustrator 23.0.1, SVG Export Plug-In . SVG Version: 6.00 Build 0)  -->
<svg version="1.1"
	 id="svg2" xmlns:cc="http://creativecommons.org/ns#" xmlns:dc="http://purl.org/dc/elements/1.1/" xmlns:inkscape="http://www.inkscape.org/namespaces/inkscape" xmlns:rdf="http://www.w3.org/1999/02/22-rdf-syntax-ns#" xmlns:sodipodi="http://sodipodi.sourceforge.net/DTD/sodipodi-0.dtd" xmlns:svg="http://www.w3.org/2000/svg"
	 xmlns="http://www.w3.org/2000/svg" xmlns:xlink="http://www.w3.org/1999/xlink" x="0px" y="0px" viewBox="0 0 400 400"
	 style="enable-background:new 0 0 400 400;" xml:space="preserve">
<g>
	<path d="M277.5,128.3c-3.1-3.1-6.2-6.2-9.7-9.7c-1.9-1.9-4.5-1.1-6.6,0.5c-1.7,1.3-2.9,2.3-4.4,3.7c-3.3,3-4.6,4.4-7.7,8
		c-2.7,3.1-5.2,6.7-9.1,8.4c-12.7,5.6,4.7-22.5,11-34.8c0.6-1.3,0.4-2.8-0.5-3.8l0,0c-4.1-4.3-8.2-8.7-11.5-12.2
		c-1.5-1.5-3.9-1.6-5.4-0.1c-37.2,36.9-73.8,73.2-110,109.1c-0.8,0.8-0.3,2.1,0.8,2.3c3.5,0.5,7.8,0.8,10.2,3.2
		c2.5,2.4,2.8,7.1,3.6,11.5c0.2,1.1,1.5,1.5,2.3,0.7c22.7-23,45.3-45.8,67.9-68.6c1-1,2.1-1.8,3.4-2.3c8.9-3.5,4.2,12.8-2.7,25.5
		c-1.7,3-3.7,5.8-6.2,8.2c-15.8,15.8-31.6,31.7-47.4,47.5c-2.3,2.3-5.1,4.5-8,5.4c-12.6,4-25.4,7.5-38.1,11.1
		c-6.1,1.7-14.5-6.5-12.7-12.6c3.5-12.5,7-25.1,11-37.4c1.3-4,3.6-8.1,6.5-11.1c34.3-34.5,68.8-68.7,103.2-103
		c0.8-0.8,1.5-1.6,2.2-2.3c1.4-1.5,1.4-3.8,0-5.2c-2.7-2.9-5.4-5.7-8.3-8.8c-1.6-1.7-4.3-1.5-5.7,0.3c-0.8,1-1.5,1.9-2.4,2.7
		c-34.7,34.4-69.2,68.9-104.2,103c-5.3,5.2-8.6,10.6-10.6,17.7c-6.6,23.6-13.7,47-20.7,70.5c-1.3,4.5-2.3,8.8,0.7,12.7
		c0.2,0.3,0.5,0.6,0.7,0.9c29.8,40.8-24.5,122.1,23.4,126.1c41.3-0.3-13.6-85.5,8.4-122.8c3.2-5.5,8.5-9.5,14.7-11.4
		c10.6-3.2,21.3-6.3,32-9.2c10.6-2.9,19.2-7.4,27.2-15.7c33.1-34.1,67.2-67.2,100.9-100.6c0.7-0.7,1.5-1.5,2.2-2.2
		C279,132.1,278.9,129.7,277.5,128.3z"/>
	<path d="M325.2,44.9c-10.7-10.9-21.5-21.6-32.3-32.3c-7.1-7.1-15.5-9.8-25.4-6.9c-7.4,2.2-11.8,7.7-16.7,13
		c-1.9,2.1-2.3,5.2-0.9,7.6c8.4,14.5,14.4,35.3,4.7,26.7l0,0c-5.9-5.9-11.8-11.8-17.7-17.7c-1.5-1.5-4-1.5-5.5,0.2
		c-2.6,2.9-5.3,6-7.9,8.9c-1.3,1.5-1.3,3.8,0.1,5.2c21.9,21.9,43.8,43.9,66,66.2c1.4,1.4,3.8,1.5,5.3,0.1c3.2-3,6.5-6.1,9.5-8.8
		c1.3-1.2,1.6-3.1,0.8-4.6c-8.7-16.8-25.9-46.4-10.6-33.6c6.5,6.4,13,12.8,19.6,19.3c1.5,1.5,3.9,1.5,5.3,0c2-2,4.1-4.1,6.1-6.2
		C336.7,70,336.7,56.6,325.2,44.9z"/>
</g>
</svg>
