<?xml version="1.0" encoding="utf-8"?>
<!-- Generator: Adobe Illustrator 23.0.1, SVG Export Plug-In . SVG Version: 6.00 Build 0)  -->
<svg version="1.1"
	 id="svg2" inkscape:version="0.92.1 r15371" sodipodi:docname="FireAlpaca.svg" xmlns:cc="http://creativecommons.org/ns#" xmlns:dc="http://purl.org/dc/elements/1.1/" xmlns:inkscape="http://www.inkscape.org/namespaces/inkscape" xmlns:rdf="http://www.w3.org/1999/02/22-rdf-syntax-ns#" xmlns:sodipodi="http://sodipodi.sourceforge.net/DTD/sodipodi-0.dtd" xmlns:svg="http://www.w3.org/2000/svg"
	 xmlns="http://www.w3.org/2000/svg" xmlns:xlink="http://www.w3.org/1999/xlink" x="0px" y="0px" viewBox="0 0 400 400"
	 style="enable-background:new 0 0 400 400;" xml:space="preserve">
<g>
	<path d="M281.9,59.1c-8.8-6.3-12.7-13.4-10.6-24.3c1.9-10.1,0.5-19.5-6.3-27c-1.9-2.1-4.6-3.2-7.4-3.2h-2.1c-2.6,0-4.6,1-6.1,2.6
		c-4.2,4.9-8.4,9.9-13.1,15.4c-1.9,2.3-4.9,3.3-7.8,2.7c-22.7-4.9-46.5-5.1-69.1,0.3c-1.9,0.4-3.8-0.1-5.1-1.5
		c-5.8-6.3-10.9-12-16-17.6c-1.1-1.2-2.6-1.9-4.2-1.9h-1.7c-2.7,0-5.3,1-7.3,2.9c-10.2,9.4-9.6,21.7-5.8,34.3c2.9,9.5,0.2,16-7.1,22
		C64.8,102.9,48.7,165,71,221.1c22.2,55.7,78.6,90.8,139.2,86.6c1-0.1,2-0.2,3-0.2c1.6-0.1,3.2-0.2,4.7,0
		c23.2,2.7-4.8,37.1,14.2,38.2c16.8-1.3-15-35.6,18.9-45c0.9-0.2,1.7-0.5,2.6-0.8c40.4-14.1-5.4,88.6,24.3,95.3
		c1.8,0.4,3.7,0.4,5.4-0.3c16.1-6.8-33.7-50.4,24.4-137.8c11.7-14.3,20.7-31.1,26-49.6C349.4,152.4,328.8,92.9,281.9,59.1z
		 M130.5,16c0.9-1.9,3.5-2,4.5-0.3c0.8,1.4,1.6,2.7,2.5,4.1c1.3,2.1,2.2,4.5,2.4,7c0.7,6.8-3,12.7-9.4,9c-1.9-1.1-3-3.1-3.1-5.2
		C127.2,25.9,128.1,21.1,130.5,16z M279.4,261.9c-33.1,26.2-69.7,34.7-110.7,24.7c-1.9-0.5-3.8-1.1-5.6-1.8c-0.1,0-0.2-0.1-0.4-0.2
		c-1.4-0.8-1.9-2.5-1.5-4.1c0.3-1.1,0.7-2.2,1.1-3.3c0.3-0.7,0.6-1.5,1-2.2c0.6-1.2,0.2-2.6-0.9-3.3c-11.3-7.4-12.2-10.8-5.5-20.3
		c0.8-1.1,0.7-2.7-0.2-3.7c-2.7-3.2-5.9-6.1-6.6-9.6c-0.7-3.3,1.3-7.2,2.8-11.3c0.4-1.1,0.1-2.4-0.8-3.3c-2.6-2.5-6.3-5.3-7.2-8.9
		c-0.8-3.2,1.3-7.2,2.7-10.6c0.5-1.1,0.2-2.4-0.6-3.3c-2-2.2-4.6-4.6-5.7-7.6c-1.1-3.1-0.5-6.7-0.3-10.8c0.1-1.3-0.8-2.4-2-2.7
		c-10-2-13-10.1-12.3-20.9c0.1-1.4-0.6-3.2-1.5-4.3c-9.8-11.6-11.1-15-6-25.8c1.1-2.4,1.1-5.1,0.1-7.5c-5.3-12.4-4.2-18.1,5.2-25.4
		c1.9-1.5,2.9-4,2.5-6.4c-2.4-14.5,0.4-20.1,12.7-25.8c1.3-0.6,1.7-2.2,0.9-3.4c0,0,0,0,0,0c-6.8-10.2-6.5-17.9,7.2-18.1
		c1.9,0,3.8-0.6,5.3-1.8c6.7-5.4,14.3-8,23.4-3.5c1.3,0.6,4-0.9,5.7-2.1c7.9-5.5,14.4-6.1,22-1.9c17.5,11.9-4.2,40.5,9.1,40.8
		c8.4-0.2,0.1-23.6,2.8-34.2c0.8-3,3.6-5.1,6.7-4.9c4.8,0.3,9.1,2.5,13.2,6.4c0.9,0.9,2.5,0.7,3.1-0.4c5.2-8.8,10-16.9,14.8-25
		c1.1-1.8,3.8-1.7,4.7,0.2c7.5,16.6,0,30.2-9.3,42.7c-0.9,1.2-0.7,3,0.4,4c4.4,3.9,9.2,7.3,11.4,11.9c2,4.3,1.5,9.8,1.6,16
		c0,2.1,0.9,4.1,2.4,5.6c9.8,9.3,10.6,14.3,3.8,26.3c-0.8,1.3-0.8,3,0,4.3c5,9,5.2,17.8-1.4,25.7c-0.9,1.1-0.9,2.7,0,3.8
		c3.1,3.3,6.5,6.2,7.4,9.9c0.9,3.3-0.6,7.2-1.8,11.2c-0.5,1.8,0.1,3.7,1.5,4.9c8.3,6.7,8.7,9.9,2.7,18.4c-0.9,1.2-0.7,2.8,0.4,3.9
		c3.1,3,6.7,5.8,7.6,9.4c0.8,2.9-0.8,6.5-2.3,10c-0.8,2.1-0.5,4.5,0.8,6.4c2.3,3.1,5,6.7,5.1,10.3
		C289.2,248.3,286.9,255.8,279.4,261.9z"/>
	<path d="M187.3,179.5c-0.9-0.3-1.8-0.7-2.5-1.3c-1-0.9-1.7-1.9-1.6-2.6c0.1-0.5,0.1-1.4,1.5-0.9c2.6,0.9,5.1,1.7,7.8,2.2
		c3.4,0.7,7.2,0.7,10.6,0c4.7-1,9.1-2.9,13.7-4.4c5.4-1.8,7.2-4.6,6.2-10.4c-0.1-0.3-0.5-0.4-0.7-0.2c-12.6,13.5-36.3,13.6-50.1-0.8
		c-0.2-0.2-0.4-0.1-0.5,0.1c-0.7,3-0.3,5.2,0.9,6.9c0,0,0.2,0.3,0.3,0.4c1.6,2.1,6.5,6,6.1,7c-0.1,0.2-0.4,0.5-1.3,0.1
		c-1.8-0.9-3.6-1.9-5.4-3.1c-0.3-0.2-0.6-0.1-0.8,0.1c-7.7,10-8.6,22.3-3.2,31.5c2.4,4.1,4.9,5.7,9.4,2.6c10.4-7,21-8,31.3-3.8
		c2.2,0.9,4.2,2.3,5.7,4.3c10.7,14.7-8.4,38.5,5.6,39.3c12.3-0.2-1.2-20.4,4.8-38.7c0.3-0.9,0.7-1.8,1.2-2.7
		c0.2-0.4,0.5-0.8,0.7-1.3c5.1-10.6,3.5-20.6-2.9-31.7c-0.2-0.3-0.6-0.4-0.8-0.2C210.8,181,198.9,182.7,187.3,179.5z"/>
	<path d="M180.3,148.4c-0.5,0.3-0.6,1.1-0.1,1.4c4.9,3.5,9.8,0.2,14.9-2.8c1-0.6,2.2-0.5,3.1,0.2c5,3.9,10.3,6.1,16.5,0.7
		c0.4-0.4,0.1-1-0.5-1c-7,1.1-14.1,0.9-14.6-7.3c-0.3-5,4-10.4,6.9-15.6c0.4-0.7-0.1-1.7-1-1.7c-6,0-11.9,0-17.3,0
		c-0.8,0-1.4,0.9-1,1.6c2.8,5.6,7,11,6.2,15.5C192.8,143.1,185.5,145.4,180.3,148.4z"/>
	<path d="M171.7,93c2.3,2.7,3.8,6.1,4.4,9.7c1.9,12.5-5.6,22.9,1.9,23c7-0.2-5.3-29,4.9-25.3l-0.1-0.1c3.7,1.4,7.9,2.4,12.1,2.4
		c10.8,0.1,23.3-7.2,25.6-12.9c0.3-0.7-0.4-1.4-1.1-1.1c-8.3,3.5-16.5,8.9-24.7,8.8c-8-0.1-15.9-5.4-23.4-8.9
		c-0.9-0.4-1.9,0.5-1.6,1.4C170.2,90.9,170.9,91.9,171.7,93z"/>
	<path d="M165.9,105.4c-5.5-5.6-11.6-5.7-17.9-0.3c-0.7,0.6-0.7,1.6-0.1,2.3c6,5.9,11.6,6,17.9,0.3C166.5,107,166.5,106,165.9,105.4
		z"/>
	<path d="M227.7,102.2c-1.5,0.3-3.7,1.9-3.7,3.7c0,1.8,2.2,4.1,3.9,4.7c5.4,1.7,10.7,1.9,15.4-3.1c0.6-0.7,0.6-1.8,0-2.4
		C238.5,100,233,101.1,227.7,102.2z"/>
</g>
</svg>
