<?xml version="1.0" encoding="utf-8"?>
<!-- Generator: Adobe Illustrator 23.0.6, SVG Export Plug-In . SVG Version: 6.00 Build 0)  -->
<svg version="1.1"
	 id="svg2" xmlns:cc="http://creativecommons.org/ns#" xmlns:dc="http://purl.org/dc/elements/1.1/" xmlns:inkscape="http://www.inkscape.org/namespaces/inkscape" xmlns:rdf="http://www.w3.org/1999/02/22-rdf-syntax-ns#" xmlns:sodipodi="http://sodipodi.sourceforge.net/DTD/sodipodi-0.dtd" xmlns:svg="http://www.w3.org/2000/svg"
	 xmlns="http://www.w3.org/2000/svg" xmlns:xlink="http://www.w3.org/1999/xlink" x="0px" y="0px" viewBox="0 0 400 400"
	 style="enable-background:new 0 0 400 400;" xml:space="preserve">
<path d="M274.2,54.4c-8-5.7-11.5-12.2-9.6-22c1.7-9.1,0.4-17.7-5.8-24.5c-1.7-1.9-4.1-2.9-6.7-2.9h-1.9c-2.3,0-4.2,0.9-5.5,2.4
	c-3.8,4.5-7.6,9-11.9,14c-1.7,2-4.5,3-7.1,2.4c-20.5-4.4-42.1-4.6-62.6,0.3c-1.7,0.4-3.5-0.1-4.6-1.4c-5.2-5.7-9.9-10.9-14.5-16
	c-1-1.1-2.4-1.7-3.8-1.7h-1.5c-2.5,0-4.8,0.9-6.6,2.6c-9.3,8.5-8.7,19.7-5.2,31.1c2.6,8.6,0.2,14.5-6.4,19.9
	c-42.9,35.6-57.5,91.8-37.3,142.6c20.1,50.4,71.2,82.2,126.1,78.5c0.9-0.1,1.8-0.1,2.7-0.2c1.4-0.1,2.9-0.2,4.3,0
	c21,2.5-4.3,33.6,12.8,34.6c15.2-1.2-13.6-32.3,17.1-40.8c0.8-0.2,1.6-0.5,2.3-0.7c36.6-12.8-4.9,80.2,22,86.3
	c1.6,0.4,3.3,0.3,4.9-0.3c14.6-6.1-30.5-45.6,22.1-124.8c10.6-13,18.7-28.2,23.6-44.9C335.4,139,316.7,85,274.2,54.4z M137,15.4
	c0.8-1.7,3.1-1.8,4.1-0.2c0.7,1.2,1.5,2.5,2.2,3.7c1.2,1.9,2,4.1,2.2,6.3c0.6,6.2-2.7,11.5-8.5,8.1c-1.7-1-2.7-2.8-2.8-4.7
	C134,24.3,134.8,20,137,15.4z M271.9,238.1c-30,23.7-63.2,31.4-100.2,22.4c-1.7-0.4-3.5-1-5.1-1.6c-0.1,0-0.2-0.1-0.3-0.2
	c-1.3-0.7-1.8-2.3-1.3-3.7c0.3-1,0.6-2,1-3c0.3-0.7,0.6-1.3,0.9-1.9c0.5-1,0.2-2.3-0.8-3c-10.2-6.7-11-9.8-5-18.4
	c0.7-1,0.7-2.4-0.1-3.4c-2.5-2.9-5.3-5.6-6-8.7c-0.7-3,1.2-6.5,2.5-10.2c0.4-1,0.1-2.2-0.7-2.9c-2.4-2.2-5.7-4.8-6.5-8.1
	c-0.8-2.9,1.2-6.6,2.5-9.6c0.4-1,0.2-2.2-0.5-3c-1.8-2-4.2-4.2-5.1-6.9c-1-2.8-0.5-6.1-0.3-9.8c0.1-1.1-0.7-2.2-1.8-2.4
	c-9-1.8-11.8-9.1-11.1-18.9c0.1-1.3-0.5-2.9-1.3-3.9c-8.9-10.5-10.1-13.6-5.5-23.3c1-2.1,1-4.6,0.1-6.8c-4.8-11.2-3.8-16.4,4.7-23
	c1.8-1.4,2.6-3.6,2.3-5.8c-2.2-13.1,0.3-18.2,11.5-23.4c1.2-0.5,1.6-2,0.8-3c0,0,0,0,0,0c-6.2-9.3-5.9-16.2,6.5-16.4
	c1.7,0,3.4-0.6,4.8-1.7c6.1-4.9,12.9-7.3,21.2-3.2c1.1,0.6,3.7-0.8,5.1-1.9c7.2-5,13-5.5,19.9-1.7c15.8,10.8-3.8,36.7,8.2,37
	c7.6-0.2,0.1-21.3,2.5-31c0.7-2.7,3.3-4.6,6.1-4.4c4.3,0.2,8.2,2.2,12,5.8c0.9,0.8,2.2,0.7,2.8-0.4c4.7-8,9.1-15.3,13.4-22.6
	c1-1.7,3.4-1.5,4.2,0.2c6.8,15,0,27.3-8.4,38.7c-0.8,1.1-0.7,2.7,0.4,3.6c4,3.6,8.3,6.6,10.3,10.8c1.8,3.9,1.4,8.9,1.4,14.5
	c0,1.9,0.8,3.7,2.2,5.1c8.8,8.4,9.6,12.9,3.4,23.8c-0.7,1.2-0.7,2.7,0,3.9c4.5,8.1,4.7,16.1-1.3,23.3c-0.8,1-0.9,2.5,0,3.4
	c2.8,3,5.9,5.7,6.7,8.9c0.8,3-0.6,6.5-1.7,10.1c-0.5,1.6,0.1,3.4,1.4,4.4c7.5,6,7.9,9,2.4,16.6c-0.8,1.1-0.6,2.6,0.3,3.5
	c2.8,2.7,6,5.3,6.9,8.5c0.7,2.6-0.8,5.9-2,9.1c-0.8,1.9-0.5,4.1,0.7,5.8c2.1,2.8,4.6,6.1,4.7,9.3
	C280.8,225.8,278.8,232.6,271.9,238.1z"/>
<path d="M188.5,163.5c-0.8-0.2-1.6-0.6-2.3-1.1c-0.9-0.8-1.5-1.7-1.4-2.3c0.1-0.5,0.1-1.3,1.3-0.8c2.3,0.8,4.7,1.5,7,2
	c3.1,0.6,6.5,0.6,9.6,0c4.2-0.9,8.3-2.7,12.4-4c4.1-1.3,5.8-3.3,5.9-6.9c0-1.3-1.5-2-2.5-1.1c-11.3,10.2-30.1,10.2-42.2-0.8
	c-0.9-0.8-2.3-0.2-2.3,1c0,1.6,0.4,2.8,1.1,3.9c0,0,0.2,0.3,0.2,0.3c1.5,1.9,5.9,5.4,5.5,6.3c-0.1,0.2-0.4,0.5-1.1,0.1
	c-1.2-0.6-2.3-1.2-3.5-1.9c-1.1-0.6-2.4-0.3-3.1,0.7c-6,8.8-6.5,19.2-1.9,27.1c2.2,3.8,4.4,5.1,8.5,2.4c9.4-6.3,19-7.3,28.4-3.5
	c2,0.8,3.8,2.1,5.1,3.9c9.7,13.3-7.6,34.9,5,35.6c11.1-0.1-1.1-18.4,4.4-35.1c0.3-0.8,0.6-1.6,1.1-2.4c0.2-0.4,0.4-0.8,0.6-1.2
	c4.3-9,3.3-17.5-1.6-26.9c-0.6-1.2-2.2-1.6-3.3-0.8C208.8,165,198.5,166.2,188.5,163.5z"/>
<path d="M182.1,135.3c-0.5,0.3-0.5,1-0.1,1.3c4.4,3.2,8.9,0.2,13.5-2.6c0.9-0.5,2-0.4,2.8,0.2c4.6,3.5,9.4,5.5,15,0.6
	c0.4-0.3,0.1-0.9-0.4-0.9c-6.3,1-12.8,0.8-13.2-6.6c-0.3-4.6,3.6-9.4,6.2-14.1c0.4-0.7-0.1-1.5-0.9-1.5c-5.4,0-10.8,0-15.7,0
	c-0.8,0-1.2,0.8-0.9,1.5c2.6,5,6.3,10,5.6,14.1C193.5,130.5,186.9,132.6,182.1,135.3z"/>
<path d="M174.4,85.1c2.1,2.5,3.5,5.5,4,8.7c1.7,11.4-5.1,20.7,1.7,20.8c6.3-0.1-4.8-26.3,4.5-22.9l-0.1-0.1c3.4,1.3,7.2,2.2,11,2.2
	c9.8,0.1,21.1-6.5,23.2-11.7c0.3-0.6-0.4-1.3-1-1c-7.5,3.2-15,8.1-22.3,8c-7.2-0.1-14.4-4.9-21.2-8.1c-0.8-0.4-1.7,0.4-1.4,1.3
	C173,83.2,173.6,84.2,174.4,85.1z"/>
<path d="M169.1,96.4c-5-5.1-10.5-5.2-16.2-0.3c-0.6,0.5-0.6,1.5-0.1,2c5.5,5.4,10.5,5.4,16.2,0.3C169.6,97.8,169.7,96.9,169.1,96.4z
	"/>
<path d="M225.1,93.4c-1.4,0.3-3.3,1.7-3.3,3.3c0,1.6,2,3.7,3.5,4.2c4.9,1.6,9.7,1.8,14-2.8c0.6-0.6,0.6-1.6,0-2.2
	C234.8,91.5,229.9,92.5,225.1,93.4z"/>
</svg>
