<?xml version="1.0" encoding="utf-8"?>
<!-- Generator: Adobe Illustrator 23.0.1, SVG Export Plug-In . SVG Version: 6.00 Build 0)  -->
<svg version="1.1"
	 id="svg2" xmlns:cc="http://creativecommons.org/ns#" xmlns:dc="http://purl.org/dc/elements/1.1/" xmlns:inkscape="http://www.inkscape.org/namespaces/inkscape" xmlns:rdf="http://www.w3.org/1999/02/22-rdf-syntax-ns#" xmlns:sodipodi="http://sodipodi.sourceforge.net/DTD/sodipodi-0.dtd" xmlns:svg="http://www.w3.org/2000/svg"
	 xmlns="http://www.w3.org/2000/svg" xmlns:xlink="http://www.w3.org/1999/xlink" x="0px" y="0px" viewBox="0 0 400 400"
	 style="enable-background:new 0 0 400 400;" xml:space="preserve">
<g>
	<path d="M368.7,261.2h-0.2h-86.8c-2.9,0-5.6-1.6-7-4.1L135.1,8.6c-1.4-2.5-4.1-4-7.1-4H31.8c-0.2,0.1-0.5,0.1-0.8,0.1
		c-4.4,0.2-7.8,4-7.6,8.4c0.1,3.1,2,5.7,4.7,6.9c52.7,35.4-10.2,120,31.7,120.6c39.4-0.6-21-98.1,14.9-117.3
		c3.2-1.7,6.8-2.5,10.5-2.5l33.4,0c2.9,0,5.6,1.6,7,4.1l139.6,248.2c0.8,1.5,2.1,2.6,3.6,3.3c43,26-13.1,116.5,34.2,119
		c35.8,0.6-18.9-107.7,17.2-116.5c1.9-0.5,3.9-0.5,5.9-0.3c33.4,3.4,0.4,47.2,23.5,50.1c20.9-2.3-11.3-39.1,16.2-50.3
		c1.5-0.6,3.2-1,4.8-1.4c3.4-0.8,6-3.9,6-7.7C376.7,264.9,373.2,261.2,368.7,261.2z"/>
	<path d="M224.2,20.8H280c1.3,0,2.5,0,3.8,0.2c34.2,4.7-1.4,67.2,22.2,70.3c20.8,1.2-17.1-64.3,16.9-70.8c3.3-1,5.7-4,5.7-7.6
		c0.1-4.4-3.4-8.1-7.9-8.1h-0.2h-96.2h-0.8c-4.4,0.2-7.8,4-7.6,8.4C216,17.5,219.8,20.9,224.2,20.8z"/>
</g>
</svg>
