<?xml version="1.0" encoding="utf-8"?>
<!-- Generator: Adobe Illustrator 23.0.1, SVG Export Plug-In . SVG Version: 6.00 Build 0)  -->
<svg version="1.1"
	 id="svg4" xmlns:cc="http://creativecommons.org/ns#" xmlns:dc="http://purl.org/dc/elements/1.1/" xmlns:inkscape="http://www.inkscape.org/namespaces/inkscape" xmlns:rdf="http://www.w3.org/1999/02/22-rdf-syntax-ns#" xmlns:sodipodi="http://sodipodi.sourceforge.net/DTD/sodipodi-0.dtd" xmlns:svg="http://www.w3.org/2000/svg"
	 xmlns="http://www.w3.org/2000/svg" xmlns:xlink="http://www.w3.org/1999/xlink" x="0px" y="0px" viewBox="0 0 400 400"
	 style="enable-background:new 0 0 400 400;" xml:space="preserve">
<sodipodi:namedview  bordercolor="#666666" borderopacity="1" gridtolerance="10" guidetolerance="10" id="namedview6" inkscape:current-layer="svg4" inkscape:cx="93.020235" inkscape:cy="36.776957" inkscape:pageopacity="0" inkscape:pageshadow="2" inkscape:window-height="705" inkscape:window-maximized="1" inkscape:window-width="1366" inkscape:window-x="-8" inkscape:window-y="245" inkscape:zoom="4" objecttolerance="10" pagecolor="#ffffff" showgrid="false">
	</sodipodi:namedview>
<g>
	<path d="M89.5,177.3c0-35.8-1-71.5-1-107.3v-1.4c0-2.4-1.9-4.3-4.3-4.3c-8,0-16.5-0.1-24.8,0c-4,0.1-7.5,0.4-11.4,0.9
		C32.9,67.4,25.7,74.5,23,89.6c-0.8,4.3-0.6,8.9-0.7,13.3c-0.1,8.4,0.1,16.9,0,25.3c-0.2,9.5-5.3,17.2-14.1,19.1
		c-1.9,0.4-3.2,2-3.2,3.9l0,9.3c0,2.9,1.3,4.5,3.1,4.9c9.9,2.3,13.3,7.4,14,17.9c0.1,1.8,0.2,3.7,0.2,5.5c0.1,10.3,0,20.6,0.5,30.8
		c0.4,9.6,2.6,18.1,11.6,23.2c7.5,4.2,17.6,4.9,24.1,5.2c1.2,0.1,2.3-0.9,2.3-2.2v-13.3c0-1.2-0.7-2.3-1.7-2.9
		c-19.6-11.1,0.9-25.7,23-19c5.4,2.2,11.1,3.1,17.1,4.3c1.9,0.4,3.7-0.9,4-2.8c0.6-4.3,1-8.2,1.5-12c0.3-2-0.9-3.8-2.8-4.4
		C91.3,192.4,89.5,189.7,89.5,177.3z M70,88.5c0,22.4-0.5,44.8-0.8,67.2l0,0c-1.3,18.3-12.4,51.2-23.3,31.4c-1.8-3.3-2.9-7-3.4-10.8
		c-1.2-7.5-4.1-14.4-11.2-19.5c-0.8-0.6-0.9-0.5-0.1-1.2c6.8-4.3,10.4-10.9,11.4-18.9c0.5-4.4,0.7-8.9,0.8-13.3
		c0.2-9.2,0-18.4,0.2-27.6c0.2-6.5,4.3-11.2,9.6-12.2c3.7-0.7,6.1-0.9,10.8-1.2c3.3-0.2,6.1,2.5,6.1,5.8V88.5z"/>
	<path d="M391.3,147.3c-4.7-0.3-8.7-3-10.8-7.5c-1.9-4-2.8-8.8-2.9-13.3c-0.5-11-0.1-22.1-0.6-33.1c-0.4-9.9-4-18.8-13.4-23.9
		c-7.5-4-16-4.8-24.3-5c-1.6,0-3,1.3-3,2.9l0,10.5c0,2.3,1.8,4.3,4.2,4.4l1.4,0.1c12.5,0.6,14.2,4.5,14.4,16.9
		c0.1,9.2,0,18.4,0.2,27.6c0.2,11.2,1.8,21.8,12.1,28.9c0.2,0.1,1.1,0.6,0.3,1.1c-5.2,3.7-9.3,8.4-10.5,14.9c-1,5.2-1.5,10.6-1.7,16
		c-0.3,9.7,0,19.3-0.3,29c0,0.9-0.1,1.8-0.2,2.7c-2.9,6.7-8.5,5.6-12.5,1.4c-4-4.2-6.3-11.7-2.9-17.1c3.4-5.5,4.7-7.6,5.1-12.3
		c1.5-15.6-3.2-24.5-17.1-31.3c-4.9-2.4-10.2-4.2-15.2-6.4c-3.8-1.7-7.6-3.4-11.1-5.5c-3.4-2.1-4.9-5.5-4.4-9.5c0.5-4,3-6.6,6.7-7.3
		c4.4-0.9,9.1-1.7,13.6-1.3c5,0.4,10,1.5,15,2.5c2.2,0.5,4.4-1,5-3.2l2.4-10.3c0.5-2-0.9-4-2.9-4.3c-7.4-1.2-14.5-2.6-21.6-3.1
		c-9.2-0.7-18.3,0.8-26.7,5.2c-17.9,9.2-18.2,37.5-1.8,46.8c2.1,1.2,4.3,2.3,6.6,3.3c9.8,6,6.2,25.5-13.1,25.2
		c-2.2,0-4.2,1.5-4.6,3.7l-2.1,10.4c-0.4,2.1,0.8,4.2,2.8,4.9c11,3.6,17.7,3.9,32.9,4.2c18.9,0.2,23.7,11.6,25.6,27.5
		c0.3,3,2.9,5.2,5.9,5.3c43,1.1-9.5,88,20.2,87.6c31.1-0.4-7.3-55.7,12-103.4c0.1-0.3,0.3-0.6,0.4-0.9c0.3-0.6,0.5-1.2,0.7-1.8
		l-0.1,0.1c0.9-2.4,1.5-5,1.9-7.9c0.6-4.9,0.5-9.8,0.6-14.7c0.2-9.2,0.1-18.4,0.9-27.6c0.7-8,5.9-13,13.2-13.9
		c2.1-0.2,3.7-1.9,3.7-4v-10.4C395.1,149.1,393.4,147.4,391.3,147.3z M323.1,189.4c-1,4.3-4.2,6.2-8,6.5c-2.7,0.3-5.4,0.5-8.2,0.6
		c-13.8-0.4-2.6-17,8.9-17.6c3.1-0.2,6,1.5,7.1,4.4C323.6,185.1,323.7,187.2,323.1,189.4z"/>
	<path d="M257.7,162c-6.1-3.2-12.6-5.6-18.8-8.4c-3.9-1.8-8-3.3-11.4-5.8c-6.6-4.7-5.4-13.8,2.3-16.3c4.4-1.4,9.4-1.8,14-1.5
		c5.1,0.4,10.1,1.5,15.3,2.6c2.1,0.4,4.1-0.9,4.6-2.9l2.2-9.9c0.5-2-0.7-4-2.7-4.6c-2-0.6-3.9-1.1-5.9-1.5
		c-12.3-2.6-24.7-3.6-36.8,0.7c-10.4,3.7-17.6,10.5-19,22c-1.6,12.9,2.7,23,14.5,29.1c4.8,2.4,9.8,4.2,14.7,6.5
		c4.8,2.3,9.8,4.4,14.3,7.3c3.4,2.2,4.8,5.8,3.8,10.1c-1,4.2-4,6.3-7.8,6.7c-5.3,0.5-10.7,1-16,0.6c-23.3-4.2-28.5-23.3-30.3-39.3
		c-0.2-7-1.3-14.4-3.8-21.1c-3.5-9.4-9.6-16-18.8-20.4c-22.7-10.9-50.3-1.4-60.9,21.4c-8,17.2-7.7,34.8-0.7,52.2
		c3.8,9.4,10.7,16.5,20,20.7c18.3,8.1,36.8,6.1,55.2,0.4c1.3-0.4,2.3-1.9,2.1-3.3c-0.5-3.9-1.2-7.7-1.9-11.7
		c-0.4-2.1-2.5-3.4-4.5-2.8c-2.8,0.8-5.4,1.5-8,1.9c-9.9,1.9-19.8,1.9-29.5-2c-8.2-3.3-14.1-11.8-14.5-20c-0.1-2.1,1.5-3.9,3.6-3.9
		c8,0,28.1,0,37.5,0c5.3,0,10.5,1.6,14.5,5.1c10.6,9.1,15.7,26.6,14.6,32.9c-0.2,1.1,1,3.6,2,3.9c16.7,5.8,33.6,6.6,50.6,1.6
		c10.1-3,17.2-9.4,18.6-20.5C272.7,179.1,269.7,168.3,257.7,162z M168,153.2h-34.3c-2.4,0-4.2-2.2-3.7-4.6
		c2.1-10.4,11.3-18.8,22.9-18.6c10.3,0.2,17.8,8.6,19,19.1C172.1,151.3,170.3,153.2,168,153.2z"/>
</g>
</svg>
