<?xml version="1.0" encoding="utf-8"?>
<!-- Generator: Adobe Illustrator 21.1.0, SVG Export Plug-In . SVG Version: 6.00 Build 0)  -->
<!DOCTYPE svg PUBLIC "-//W3C//DTD SVG 1.1//EN" "http://www.w3.org/Graphics/SVG/1.1/DTD/svg11.dtd">
<svg version="1.1" id="Layer_1" xmlns="http://www.w3.org/2000/svg" xmlns:xlink="http://www.w3.org/1999/xlink" x="0px" y="0px"
	 viewBox="0 0 400 400" enable-background="new 0 0 400 400" xml:space="preserve">
<g>
	<path d="M152,215c0.9,0,2.6-1.7,2.6-2.7c0-1-0.2-44.1-0.4-66.2c0-6.6,0.1-13.2,0.3-19.8c0.1-2.4,0.1-3.4-3-2.4
		c-2.4,0.8-5.6,0.5-8-0.3c-5.2-1.9-11-3.4-11.9-10.5c-1-7.9-1.3-15.8,2.4-23.2c4.5-9.2,9.3-18.3,13.9-27.4c5-9.8,7.7-20.2,8.2-31.2
		c0.2-4.7,0.8-9.4,1.7-14c0.9-4.4,3.6-6.4,8.6-6.7c8.6-0.5,17.2-2.6,25.9-2.9c9-0.3,18.1,0.6,27.1,1.5c6.8,0.6,13.6,2.1,20.4,2.9
		c5.4,0.6,9.6,4.4,9.6,9.7c0,14-0.4,28-0.1,41.9c0.3,13.9,1.4,27.8,1.6,41.6c0.1,6.5-0.9,13.1-1.4,19.7c-0.1,1.1-0.3,2.1-0.4,3.2
		c-1,26.3-1.9,52.6-2.9,78.8c-0.1,2.1,0,4.3-0.1,6.4c-0.1,2.4,0.7,3.2,3.5,3.4c12.3,0.7,24.7,1.2,36.7,3.5c4.2,0.8,7.4,3.1,7.4,6.5
		c0,3.4,0.1,6.5-1.6,9.3c-1.7,2.8-10.2,17.6-16.5,26.7c-12.8,18.8-26.1,37.3-39.4,55.7c-3.6,5-8,9.3-11.8,14.1
		c-8,10.3-11.3,21.4-6,34.2c2.4,6,4.7,12,3,18.9c-1.3,5.1-5.6,8-10.6,6.3c-0.6-0.2-1.1-0.5-1.7-0.5c-10.6-0.3-14.9-7.8-18-16.1
		c-0.8-2.1-0.5-5.1,0.4-7.2c2.8-6.6,2.3-9.1-2.4-15.1c-12.7-16.4-25.4-32.8-37.6-49.6c-5.5-7.6-9.9-16.1-14.6-24.3
		c-1.2-2.1-1.8-2.1-3.3-0.1c-2.1,2.7-4.4,6.3-7.3,6.9c-3.4,0.7-8-0.3-10.9-2.3c-3.7-2.5-5.3-7.2-3.6-11.8c2.9-7.6,1.2-14.8-1-22.1
		c-1.7-5.6-3.4-11.3-4.4-17.1c-1.6-8.6,6-17.3,14.8-17.3c3.5,0,6.1,0.1,10.6,0S151.1,215,152,215z"/>
</g>
</svg>
