<?xml version="1.0" encoding="utf-8"?>
<!-- Generator: Adobe Illustrator 23.0.1, SVG Export Plug-In . SVG Version: 6.00 Build 0)  -->
<svg version="1.1"
	 id="slack" inkscape:version="0.92.1 r15371" sodipodi:docname="slack.svg" xmlns:cc="http://creativecommons.org/ns#" xmlns:dc="http://purl.org/dc/elements/1.1/" xmlns:inkscape="http://www.inkscape.org/namespaces/inkscape" xmlns:rdf="http://www.w3.org/1999/02/22-rdf-syntax-ns#" xmlns:sodipodi="http://sodipodi.sourceforge.net/DTD/sodipodi-0.dtd" xmlns:svg="http://www.w3.org/2000/svg"
	 xmlns="http://www.w3.org/2000/svg" xmlns:xlink="http://www.w3.org/1999/xlink" x="0px" y="0px" viewBox="0 0 400 400"
	 style="enable-background:new 0 0 400 400;" xml:space="preserve">
<sodipodi:namedview  bordercolor="#666666" borderopacity="1" fit-margin-bottom="50" fit-margin-left="0" fit-margin-right="0" fit-margin-top="0" gridtolerance="10" guidetolerance="10" id="namedview16" inkscape:current-layer="slack" inkscape:cx="100.02208" inkscape:cy="71.592254" inkscape:pageopacity="0" inkscape:pageshadow="2" inkscape:window-height="705" inkscape:window-maximized="1" inkscape:window-width="1366" inkscape:window-x="-8" inkscape:window-y="245" inkscape:zoom="2.6074563" objecttolerance="10" pagecolor="#ffffff" showgrid="false">
	</sodipodi:namedview>
<title  id="title6">Artboard 7</title>
<path d="M333.5,107c-30-96.7-73.4-119.3-173.5-90.3s-123.5,71-93.4,167.7c8.8,28.3,18.7,50.2,30.9,66.4l-0.1,0
	c0.3,0.3,0.6,0.7,0.8,1c0.8,1,1.6,2.1,2.4,3.1c45.8,60.4-13,133.2,27.7,140.3c47.9-3.1-21.8-110.4,32.4-109.2c1.3,0.1,2.7,0.2,4,0.2
	c20.9,1.1,45.6-3,75.3-11.6C340.2,245.6,363.5,203.7,333.5,107z M197.4,233.1c-1.1,0.7-2.2,1.3-3.5,1.8c-0.1,0-0.3,0.1-0.4,0.1
	c-1.7,0.5-3.4,0.8-5.2,0.8c-6.3,0-11.9-4-14-9.8c0,0-1.4-3.1-1.6-4.6c-0.2-1.4,0.6-2,2.2-2.2c3-0.4,8.4,1,13.3,3.1
	c4.7,2,8.9,4.8,10,7.5C198.6,230.8,199,231.9,197.4,233.1z M283.4,169.6c-0.2,0.1-0.4,0.1-0.6,0.2l-15.3,5c-1.9,0.6-2.9,2.6-2.2,4.5
	l5.4,15.4c2.6,7.6-1.4,15.8-9,18.4c-0.2,0.1-0.4,0.1-0.7,0.2c-1.7,0.5-3.4,0.8-5.2,0.8c-6.3-0.1-11.8-4.1-13.9-9.9l-5.4-15.5
	c-0.6-1.8-2.6-2.8-4.4-2.2l-25.5,8.2c-4.1,1.4-4.2-3.4-2.9-8.4c1.9-7.7,8.9-19.1,19.1-26.6c1.7-1.3,2.5-3.5,1.7-5.6l-10.2-29.4
	c-0.6-1.8-2.6-2.8-4.4-2.2l-32.2,10.4c-1.9,0.6-2.9,2.6-2.2,4.5l3.2,9.1c9.2,28.7,11,51.1-13.1,61.4l-16.6,5.4
	c-1.7,0.5-3.4,0.8-5.2,0.8c-6.3-0.1-11.8-4.1-13.9-9.9c-2.5-7.6,1.5-15.8,9.1-18.3c0.1,0,0.3-0.1,0.4-0.1l15.4-5
	c1.9-0.6,2.9-2.6,2.2-4.5l-10.2-29.6c-0.6-1.8-2.6-2.8-4.4-2.2l-15.5,5c-1.7,0.5-3.4,0.8-5.2,0.8c-6.3-0.1-11.8-4.1-13.9-9.9
	c-2.5-7.6,1.5-15.8,9.1-18.3c0.1,0,0.3-0.1,0.4-0.1l15.3-5c1.9-0.6,2.9-2.6,2.2-4.5l-5.4-15.4c-2.6-7.6,1.4-15.8,8.9-18.4
	c0.2-0.1,0.4-0.1,0.6-0.2c7.8-2.6,16.3,1.5,19.1,9.2l5.4,15.5c0.6,1.8,2.6,2.8,4.4,2.2l32.2-10.4c1.9-0.6,2.9-2.6,2.2-4.5l-5.4-15.4
	c-2.5-7.6,1.5-15.8,9.1-18.3c0.1,0,0.3-0.1,0.4-0.1c7.8-2.7,16.4,1.4,19.2,9.2l5.4,15.5c0.6,1.8,2.6,2.8,4.4,2.2l15.5-5
	c7.8-2.6,16.3,1.5,19.1,9.2c2.5,7.6-1.5,15.8-9.1,18.3c-0.1,0-0.3,0.1-0.4,0.1l-15.3,5c-1.9,0.6-2.9,2.6-2.2,4.5l10.2,29.5
	c0.6,1.8,2.6,2.8,4.4,2.2l15.5-5c7.8-2.6,16.3,1.5,19.1,9.2C295,158.7,290.9,167,283.4,169.6z"/>
</svg>
