<?xml version="1.0" encoding="utf-8"?>
<!-- Generator: Adobe Illustrator 23.0.6, SVG Export Plug-In . SVG Version: 6.00 Build 0)  -->
<svg version="1.1"
	 id="slack" xmlns:cc="http://creativecommons.org/ns#" xmlns:dc="http://purl.org/dc/elements/1.1/" xmlns:inkscape="http://www.inkscape.org/namespaces/inkscape" xmlns:rdf="http://www.w3.org/1999/02/22-rdf-syntax-ns#" xmlns:sodipodi="http://sodipodi.sourceforge.net/DTD/sodipodi-0.dtd" xmlns:svg="http://www.w3.org/2000/svg"
	 xmlns="http://www.w3.org/2000/svg" xmlns:xlink="http://www.w3.org/1999/xlink" x="0px" y="0px" viewBox="0 0 400 400"
	 style="enable-background:new 0 0 400 400;" xml:space="preserve">
<path d="M325.6,106.2C297.3,14.9,256.3-6.4,161.9,20.9s-116.6,67-88.2,158.3c8.3,26.7,17.7,47.4,29.2,62.6l-0.1,0
	c0.3,0.3,0.5,0.7,0.8,1c0.8,1,1.5,2,2.3,2.9c43.2,57-12.2,125.7,26.1,132.5c45.2-2.9-20.6-104.2,30.6-103.1c1.2,0.1,2.6,0.2,3.8,0.2
	c19.7,1,43-2.8,71.1-10.9C332,237,354,197.4,325.6,106.2z M197.2,225.2c-1,0.7-2.1,1.3-3.3,1.7c-0.1,0-0.3,0.1-0.4,0.1
	c-1.6,0.5-3.2,0.8-4.9,0.7c-5.9,0-11.2-3.7-13.3-9.3c0,0-1.3-3-1.5-4.3c-0.2-1.3,0.6-1.9,2.1-2.1c2.8-0.3,7.9,0.9,12.5,2.9
	c4.4,1.9,8.4,4.5,9.4,7C198.3,223,198.7,224,197.2,225.2z M278.4,165.2c-0.2,0.1-0.3,0.1-0.5,0.2l-14.5,4.7
	c-1.8,0.6-2.7,2.5-2.1,4.3l5.1,14.5c2.5,7.1-1.3,14.9-8.5,17.4c-0.2,0.1-0.4,0.1-0.6,0.2c-1.6,0.5-3.2,0.8-4.9,0.7
	c-5.9-0.1-11.1-3.8-13.1-9.4l-5.1-14.7c-0.6-1.7-2.4-2.6-4.1-2.1l-24,7.7c-3.9,1.4-3.9-3.2-2.8-7.9c1.8-7.3,8.4-18,18-25.1
	c1.6-1.2,2.3-3.3,1.7-5.2l-9.6-27.7c-0.6-1.7-2.4-2.6-4.2-2.1l-30.4,9.8c-1.8,0.6-2.7,2.5-2.1,4.2l3,8.6c8.7,27.1,10.3,48.2-12.4,58
	l-15.6,5.1c-1.6,0.5-3.2,0.8-4.9,0.7c-5.9-0.1-11.1-3.8-13.1-9.4c-2.4-7.2,1.4-14.9,8.6-17.3c0.1,0,0.3-0.1,0.4-0.1l14.5-4.7
	c1.8-0.6,2.7-2.5,2.1-4.2l-9.6-28c-0.6-1.7-2.4-2.6-4.2-2.1l-14.6,4.7c-1.6,0.5-3.2,0.8-4.9,0.7c-5.9-0.1-11.1-3.8-13.1-9.4
	c-2.4-7.2,1.4-14.9,8.6-17.3c0.1,0,0.3-0.1,0.4-0.1l14.5-4.7c1.8-0.6,2.7-2.5,2.1-4.3l-5.1-14.5c-2.5-7.1,1.3-14.9,8.4-17.4
	c0.2-0.1,0.4-0.1,0.6-0.2c7.4-2.5,15.4,1.4,18,8.7l5.1,14.6c0.6,1.7,2.4,2.6,4.2,2.1l30.4-9.8c1.8-0.6,2.7-2.5,2.1-4.3l-5.1-14.5
	c-2.4-7.2,1.4-14.9,8.6-17.3c0.1,0,0.3-0.1,0.4-0.1c7.4-2.5,15.5,1.3,18.1,8.7l5.1,14.6c0.6,1.7,2.4,2.6,4.2,2.1l14.6-4.8
	c7.4-2.5,15.4,1.4,18,8.7c2.4,7.2-1.4,14.9-8.6,17.3c-0.1,0-0.3,0.1-0.4,0.1l-14.5,4.7c-1.8,0.6-2.7,2.5-2.1,4.2l9.7,27.9
	c0.6,1.7,2.4,2.6,4.2,2.1l14.6-4.7c7.4-2.5,15.4,1.4,18,8.7C289.3,155,285.5,162.8,278.4,165.2z"/>
</svg>
