<?xml version="1.0" encoding="utf-8"?>
<!-- Generator: Adobe Illustrator 22.1.0, SVG Export Plug-In . SVG Version: 6.00 Build 0)  -->
<!DOCTYPE svg PUBLIC "-//W3C//DTD SVG 1.1//EN" "http://www.w3.org/Graphics/SVG/1.1/DTD/svg11.dtd">
<svg version="1.1" id="Layer_1" xmlns="http://www.w3.org/2000/svg" xmlns:xlink="http://www.w3.org/1999/xlink" x="0px" y="0px"
	 viewBox="0 0 400 400" enable-background="new 0 0 400 400" xml:space="preserve">
<g>
	<path d="M12,204.3c2.3-69.9,28.5-123.6,83.4-161.7C133.1,16.3,175.7,5,221.5,11.3c73.2,10.1,124,50.4,152.8,118.3
		c9.5,22.3,14.4,46,13.7,70.3c-2.2,73.7-34.3,130.6-98.7,167.1c-69.1,39.3-157.2,27.9-215.5-26.2C43.2,312.5,24,277.5,16,236.5
		C13.7,224.7,13,212.6,12,204.3z M270.2,181.8c0-13,0-26.1,0-39.1c0-4.1-2.2-6.4-6.3-6.1c-2.7,0.2-5.4,0.9-8.1,1.4
		c-5.6,1.1-11.3,2.2-16.9,3.4c-3.6,0.8-11.2,3.2-14.4,4.8c-20.7,10.3-32.8,23.6-41.9,45c-4,9.6-6.5,19.8-9.2,29.9
		c-4,14.9-7.4,29.9-6.4,45.5c0.2,3.8,0.2,7.7,0,11.5c-0.4,6.4-1.9,12.4-5.1,18c-3.4,5.9-6.8,11.8-9.8,18c-6.6,13.8-4.1,29.4,6,40.6
		c2.4,2.7,5.2,4.7,8.9,5.2c5.7,0.8,11.4,1.9,17.1,2.5c34.5,3.6,66.8-3.7,96.6-21.1c61.4-35.9,92.4-109.7,76.2-177.5
		c-11.2-47.2-37.7-83-79.9-107.2c-4.2-2.4-8-2.1-11.6,0.5c-5.6,4-9.8,9.1-12.1,15.8c-0.9,2.5-1.6,6.4,0.7,8c2.4,1.6,5.4,1.8,8.3,1.8
		c3.8,0,7.6-1.1,11.4-1.7c6.6-1.1,9.1,2.4,9.1,8.4c-0.1,56.7,0,113.5,0,170.2c0,0.7,0.1,1.5-0.1,2.2c-2.8,8.4-6.6,16-14.6,20.8
		c-3.8,2.3-6.5,5.8-6.8,10.3c-0.4,5.3-0.5,10.6-0.2,15.9c0.2,6,1.6,12.1,1.3,18.1c-0.3,6.1-5.3,10.7-10.5,11.3
		c-5.8,0.6-11.1-2.6-13.2-8.5c-1-2.8-1.4-6-1.4-9.1c0-3.5,0.6-7,1-10.5c1-8.8-1.4-16.5-7.4-23c-2.2-2.4-4.4-4.6-6.6-7
		c-6-6.4-8.6-13.6-6.8-22.5c1.9-9.5,7.3-16.2,15.9-19.3c8.8-3.2,18.2-5,27.4-7.1c5.5-1.2,9.7-5.7,9.5-10.8
		C270,207.4,270.2,194.6,270.2,181.8z M39.3,200.5c0,18.3,3,35.9,9,52.9c11.2,31.8,29.5,58.6,56.8,78.8c4.2,3.1,5.9,2.7,8.6-1.7
		c0.8-1.3,1.4-2.7,1.7-4.1c1.6-8.1-1-15.1-6.2-21.3c-2-2.4-4.1-4.9-5.4-7.7c-2.3-4.9-2.7-10.3-2.1-15.8c0.5-4.8,2.2-8.9,5.4-12.6
		c4.6-5.3,10.3-8.4,17.1-10c6.5-1.5,13-3.5,19.6-4.5c6.3-0.9,10.7-5.6,10.6-11.5c-0.1-42.9-0.1-85.9-0.1-128.8
		c0-6.1,2.7-9.8,8.4-11.5c2.2-0.6,4.5-0.7,6.8-1.2c4.1-0.8,8.1-1.7,12.2-2.5c5.4-1.1,10.9-2.3,16.3-3.3c3.5-0.6,6.9-1.2,9.4-4
		c2.5-2.8,5.4-5.3,7.6-8.2c6.1-8.1,10.2-17,9.3-27.6c-1-10.8-9.4-19-20.2-19.2c-27-0.7-52.9,4.7-76.5,17.7
		C70.1,85.9,41.8,135.5,39.3,200.5z M166.9,169.5c0.3,1.5,0.9,2.8,2.1,2.9c1.2,0,2.8-0.5,4.4-1.8c3.5-3,5.1-5.9,7.4-9.8
		c3.3-5.8,2.2-7.3-4.3-6.6c-3.9,0.4-7.9,1.5-9.1,6.1c-0.5,1.8-0.7,3.7-0.7,5.5S166.7,168,166.9,169.5z"/>
</g>
</svg>
