<?xml version="1.0" encoding="utf-8"?>
<!-- Generator: Adobe Illustrator 21.1.0, SVG Export Plug-In . SVG Version: 6.00 Build 0)  -->
<!DOCTYPE svg PUBLIC "-//W3C//DTD SVG 1.1//EN" "http://www.w3.org/Graphics/SVG/1.1/DTD/svg11.dtd">
<svg version="1.1" id="Layer_1" xmlns="http://www.w3.org/2000/svg" xmlns:xlink="http://www.w3.org/1999/xlink" x="0px" y="0px"
	 viewBox="0 0 400 400" enable-background="new 0 0 400 400" xml:space="preserve">
<g>
	<path d="M180,319.1c-3-1-3.7-1.8-4.8-4.8c-1.1-3-1.1-7.9,0.2-12.3c1.5-5.3,4.9-10.1,9.2-14.6c7.8-8.2,21.3-23.6,22.5-25.3
		s-0.1-3-0.9-3.7c-10.5-9.6-21.1-19.2-31.8-28.6c-15.6-13.8-31.3-27.6-47-41.3c-7.7-6.8-16-12.9-23.4-20.1
		c-12.2-11.9-23.6-24.6-36-36.3c-3.2-3-8.7-5.7-12.5-4.8c-3.7,0.9-3.9,3.9-3.8,5.8c0.5,6.8,0.7,13.2-3.4,19.5
		c-4.1,6.3-9.5,7.3-16,6.3c-6.8-1-11.1-5-13.1-11.6c-1.9-6.3-1.6-12,2.7-17.8c5.3-7.1,6.2-15.3,3-23.8C21,94.3,26.9,77.2,36.5,68.1
		c4.9-4.6,8.1-11,12.2-16.4c4.9-6.4,9.4-13.3,15.3-18.6c9.7-8.8,20.2-16.6,30.8-24.4c1.9-1.4,6-1,8.6-0.1c2.9,1,5.5,3.3,7.9,5.4
		c31.6,28.6,63.2,57.2,94.6,86c12.4,11.4,24.2,23.6,36.4,35.3c13.5,13,27.2,26,40.7,39c2.2,2.1,3.4,2.2,5.6-0.3
		c9-9.7,17.9-19.5,27.5-28.6c8.2-7.8,24-2.8,26.4,8.1c4.7,21.4,14.2,40.3,28,57.2c3.2,3.9,5.7,8.6,7.7,13.3
		c3.5,8.1-0.3,15.3-8.9,16.9c-3.3,0.6-3.9,1.9-2.9,4.7c7.5,21.2,8.8,43.2,11.3,65.3c0.8,7.3,1.7,14.8,3.6,21.8
		c1.1,4,0.1,6.6-3.4,7.8c-4.9,1.7-5.5,1.6-15.1,3.9s-23,6.1-27.1,17.2c-0.9,2.4-0.2,5.4,0,8.2c0.5,6.6-0.1,12.8-5.1,18
		c-7.4,7.7-21.2,4.3-25.7-5.5c-3.5-7.5-2.6-14.3,0.5-20.7c6-12.2-5.3-23.5-15.8-25c-16.4-2.3-32.8-4.7-49.2-7.2
		c-15.2-2.3-40.9-6.5-45.7-7.4S183,320.1,180,319.1z"/>
</g>
</svg>
