<?xml version="1.0" encoding="utf-8"?>
<!-- Generator: Adobe Illustrator 21.1.0, SVG Export Plug-In . SVG Version: 6.00 Build 0)  -->
<!DOCTYPE svg PUBLIC "-//W3C//DTD SVG 1.1//EN" "http://www.w3.org/Graphics/SVG/1.1/DTD/svg11.dtd">
<svg version="1.1" id="Layer_1" xmlns="http://www.w3.org/2000/svg" xmlns:xlink="http://www.w3.org/1999/xlink" x="0px" y="0px"
	 viewBox="0 0 400 400" enable-background="new 0 0 400 400" xml:space="preserve">
<g>
	<path d="M302.5,264c0.8,11.2-1.5,17-12.4,21c-9.6,3.5-13.4,21.1-8,29.9c4.3,7,1,18.1-6.8,20.2c-2.7,0.7-7.5-0.9-9.1-3.1
		c-2.7-3.5-5.3-8.6-4.9-12.7c1.2-11.8-2.5-18.7-11.2-24.9c-1.2-0.9-3.7-1.4-4.8-0.8c-1,0.6-1.5,3.1-1.2,4.6c0.4,2.5,1.8,4.9,2.5,7.3
		c1.4,4.8,2.5,9.9-3.3,12.5c-5.8,2.5-11.9-0.6-13.4-6.5c-0.8-3.1-1.3-6.6-0.8-9.7c2-12.5-1.9-18.1-14.6-18.8
		c-7.8-0.4-20.4-0.5-22.9,0.2s-3.1,1.9-3.7,3c-9.3,15.6-18.6,31.2-27.6,47.1c-3,5.4-6.3,9.5-12.6,11.5c-11.3,3.7-15.3,12-12.2,23.6
		c2.3,8.5-3.2,16.4-11.9,17.2c-6.1,0.6-12.3-8.7-10.7-16.2c3.4-16.3,2.4-18.4-12.2-27.1c-1.1-0.6-2-2.4-2.1-3.7
		c-0.2-17.9-0.8-35.9-0.1-53.8c0.2-6.1,3-12.3,5.8-17.9c15.2-29.7,30.5-59.3,46.2-88.8c4.6-8.8,10.4-16.9,15.6-25.4
		c2.3-3.7,2.2-6.2-3.3-5.6c-7.8,0.8-15.9,0.6-23.5,2.5c-11.4,2.9-15.6,10.6-15,22.3c0.2,3.7-0.9,8.7-3.3,11c-2.1,2-6.6,2.8-10.3,0.9
		s-4.7-8.3-3.8-11.9c3-12,1.7-17.5-8-25.4c-1-0.8-1.5-2.9-1.6-4.4c-0.1-20.1,0-40.3,0-60.4c0-6.3,3.5-9.3,9.1-9.5
		c17.3-0.7,34.7-1.2,52-1.4c14.3-0.2,28.6-0.2,42.9,0.4c5.8,0.2,8.1-2.2,10.3-7.1c6.3-13.9,13.3-27.5,19.9-41.3
		c2.9-6.1,7.8-8.3,14.3-8.3c15.5,0,30.9-0.2,46.4-0.1c1.4,0,3.9,0.7,4,4.4s0.5,16.5,1.5,34.6c1,18.1-5.1,29.5-12.5,42.9
		c-16.5,29.7-33,59.3-49.4,89.1c-4.1,7.5-10.9,21.5-11.6,22.9c-0.7,1.4,0.1,3.3,2.2,3.3s43-0.9,64.5-1.8c6-0.2,8.3,1.8,8.6,7.9
		C300.1,223.8,301.7,252.8,302.5,264z"/>
</g>
</svg>
