<?xml version="1.0" encoding="utf-8"?>
<!-- Generator: Adobe Illustrator 23.0.6, SVG Export Plug-In . SVG Version: 6.00 Build 0)  -->
<svg version="1.1"
	 id="svg4" xmlns:cc="http://creativecommons.org/ns#" xmlns:dc="http://purl.org/dc/elements/1.1/" xmlns:inkscape="http://www.inkscape.org/namespaces/inkscape" xmlns:rdf="http://www.w3.org/1999/02/22-rdf-syntax-ns#" xmlns:sodipodi="http://sodipodi.sourceforge.net/DTD/sodipodi-0.dtd" xmlns:svg="http://www.w3.org/2000/svg"
	 xmlns="http://www.w3.org/2000/svg" xmlns:xlink="http://www.w3.org/1999/xlink" x="0px" y="0px" viewBox="0 0 400 400"
	 style="enable-background:new 0 0 400 400;" xml:space="preserve">
<g>
	<path d="M243.8,44.6C243.9,44.7,243.7,44.5,243.8,44.6L243.8,44.6z"/>
	<g>
		<path d="M243.8,58C243.9,57.9,244,57.8,243.8,58L243.8,58z"/>
		<path d="M255.8,79C255.9,79,255.9,79,255.8,79l-5.5,0c-1.3,0-2.6-0.1-3.9-0.4c-11.6-2.4-8.2-14.2-2.7-20.7c3.6-3.6,3.5-9.7,0-13.4
			L206.6,7.4c-1.8-1.8-4.2-2.8-6.7-2.7c-2.4,0-4.7,1-6.4,2.7l-37.2,37.2c-3.7,3.6-3.8,9.4-0.3,13.1s9.4,3.8,13.1,0.3
			c0.1-0.1,0.2-0.2,0.3-0.3l18.8-18.8c0.9-0.9,2.5-0.3,2.5,1v72c0,1.7-0.2,3.4-0.6,5.1c-3.1,12.6-7.8-15.3-11-33.2
			c-0.6-3.2-3.4-5.4-6.6-5.3l-9.6,0.4l-18.6,0c-15.3,0-27.9,12.6-27.9,27.9v111.6c0,14.4,12.6,26.4,26.8,27.8
			c3.3,0.3,6.6,0.9,9.7,2.1c50.5,19.8-23.6,132.1,27,146.1c3.1,0.8,6.3,1,9.4,0.2c34.4-9.8-36.6-112.6,9.5-142.5
			c5.9-3.8,12.8-5.7,19.8-5.7h37.3c15.3,0,27.9-12.6,27.9-27.9V106.9C283.7,91.6,271.1,79.1,255.8,79z M265.1,218.5
			c0,5.1-4.2,9.3-9.3,9.3H144.2c-5.1,0-9.3-4.2-9.3-9.3v-87.2c3.7-56.2,53.2-9.3,55.8,22.7l0,0c0.2,5.9,6,10.5,12.4,8.4
			c3.8-1.2,6.3-4.9,6.2-8.9l0-0.1V40c0-1.3,1.6-2,2.5-1l0.1,0.1c3.3,3.3,6.3,6.9,9,10.8c9.2,13.6,15,25.7,16.2,44
			c0.1,2.2,1.9,3.9,4.1,3.9h14.7c5.1,0,9.3,4.2,9.3,9.3V218.5z"/>
	</g>
</g>
</svg>
