<?xml version="1.0" encoding="UTF-8" standalone="no"?>
<svg
   xmlns:dc="http://purl.org/dc/elements/1.1/"
   xmlns:cc="http://creativecommons.org/ns#"
   xmlns:rdf="http://www.w3.org/1999/02/22-rdf-syntax-ns#"
   xmlns:svg="http://www.w3.org/2000/svg"
   xmlns="http://www.w3.org/2000/svg"
   viewBox="0 0 533.33331 533.33331"
   height="533.33331"
   width="533.33331"
   xml:space="preserve"
   id="svg2"
   version="1.1"><metadata
     id="metadata8"><rdf:RDF><cc:Work
         rdf:about=""><dc:format>image/svg+xml</dc:format><dc:type
           rdf:resource="http://purl.org/dc/dcmitype/StillImage" /></cc:Work></rdf:RDF></metadata><defs
     id="defs6"><clipPath
       id="clipPath18"
       clipPathUnits="userSpaceOnUse"><path
         id="path16"
         d="M 0,400 H 400 V 0 H 0 Z" /></clipPath></defs><g
     transform="matrix(1.3333333,0,0,-1.3333333,0,533.33333)"
     id="g10"><g
       id="g12"><g
         clip-path="url(#clipPath18)"
         id="g14"><g
           transform="translate(365.0576,144.7451)"
           id="g20"><path
             id="path22"
             style="fill:#000000;fill-opacity:1;fill-rule:nonzero;stroke:none"
             d="m 0,0 c -0.777,-0.533 -1.863,0.802 -2.581,1.442 -26.5,23.608 -54.681,45.115 -82.925,66.549 -4.819,3.658 -9.339,7.71 -13.997,11.58 -1.965,1.633 -1.719,2.516 0.596,3.871 10.308,6.032 20.519,12.236 30.634,18.586 2.437,1.531 3.793,1.49 6.584,0.088 6.303,-3.166 6.856,-8.211 6.741,-14.056 -0.092,-4.679 -0.39,-9.414 0.179,-14.029 0.791,-6.401 4.394,-10.978 10.964,-12.397 6.254,-1.35 11.385,1.044 15.258,5.875 4.663,5.818 5.501,12.723 4.417,19.823 -0.821,5.379 -2.028,10.717 -3.365,15.997 -3.234,12.78 0.075,24.668 6.5,35.274 3.545,5.853 13.802,14.711 15.339,14.677 1.537,-0.034 1.814,-0.516 1.973,-1.044 0.336,-1.118 0.168,-2.394 0.169,-3.605 0.005,-18.03 0.003,-36.06 0.003,-54.09 0,0 0.064,-51.096 0.297,-55.886 C -2.98,33.865 -0.856,14.868 0.336,2.973 0.433,2.003 0.778,0.533 0,0 m -44.266,-6.53 c -0.38,-1.178 -5.178,-0.822 -5.178,-0.822 0,0 -27.234,-0.219 -35.542,-0.43 -18.67,0 -32.012,0.205 -45.344,-0.075 -8.169,-0.172 -16.319,-1.528 -24.482,-1.566 -12.252,-0.056 -24.509,0.563 -36.763,0.927 -5.142,0.152 -10.28,0.493 -15.424,0.572 -25.157,0.39 -50.315,0.71 -75.472,1.101 -1.105,0.017 -2.718,-0.192 -3.304,0.751 -0.587,0.943 1.317,1.968 2.17,2.737 23.857,21.521 47.748,43.005 71.614,64.517 7.604,6.854 7.578,6.883 16.627,2.393 6.828,-3.387 9.312,-9.139 7.115,-16.469 -0.825,-2.753 -1.941,-5.461 -2.4,-8.276 -1.022,-6.278 3.877,-10.768 10.009,-9.025 2.846,0.807 5.391,2.656 8.095,3.988 1.445,0.713 2.938,1.33 4.41,1.991 -0.009,-1.568 0.083,-3.145 -0.055,-4.702 -0.133,-1.504 -0.538,-2.981 -0.764,-4.479 -1.23,-8.139 2.786,-14.817 9.95,-16.575 7.681,-1.884 16.13,2.219 18.278,9.665 1.041,3.61 0.846,7.772 0.354,11.572 -0.481,3.705 -2.041,7.271 -3.149,10.892 -1.912,6.243 -0.902,12.058 2.905,17.266 3.388,4.638 11.715,7.956 13.851,8.103 2.136,0.148 2.147,-0.731 3.27,-1.622 1.122,-0.89 50.4,-45.658 75.697,-68.526 1.143,-1.033 3.914,-2.731 3.532,-3.908 m -281.946,8.977 c -0.737,-0.593 -4.007,-3.53 -4.944,-2.714 -0.938,0.817 -0.384,3.959 -0.303,4.813 0.887,9.339 2.045,16.457 2.711,25.811 0.816,11.463 1.945,30.893 1.769,34.435 -0.175,3.542 -0.497,23.927 -0.636,32.253 -0.139,8.326 0,33.914 0,50.872 0,0.757 -0.107,1.533 0.024,2.267 0.199,1.11 -0.46,2.801 0.857,3.283 1.318,0.483 1.885,-0.921 2.643,-1.59 4.086,-3.608 8.079,-7.32 12.163,-10.93 19.535,-17.263 39.687,-33.75 61.63,-47.9 5.579,-3.597 11.549,-6.604 17.431,-9.708 3.505,-1.851 3.791,-2.041 0.823,-4.525 C -238.775,73.185 -245.717,67.81 -252.548,62.3 -277.88,41.871 -300.866,22.858 -326.212,2.447 m 33.808,165.042 c 0.213,0.86 1.641,0.666 2.464,0.671 7.879,0.052 22.083,0.031 23.638,0.031 1.555,0 21.815,-0.081 21.815,-0.081 10.407,-0.203 16.591,-5.832 17.821,-16.266 0.496,-4.204 0.328,-8.486 0.79,-12.696 0.376,-3.437 0.811,-6.977 1.979,-10.195 2.358,-6.498 8.74,-10.091 15.108,-9.074 6.737,1.076 11.951,6.421 12.087,13.352 0.082,4.164 -0.661,8.441 -1.672,12.509 -2.602,10.475 5.657,14.741 10.826,16.861 5.168,2.119 11.833,3.452 16.527,3.98 4.693,0.528 38.162,1.218 57.247,1.44 23.628,0.274 68.035,0.177 70.894,0.182 2.859,0.004 3.898,0.484 4.29,-0.37 0.393,-0.854 0.038,-1.357 -1.234,-2.896 -1.272,-1.539 -8.157,-8.548 -12.315,-12.744 -1.268,-1.281 -2.725,-2.394 -4.176,-3.475 -8.489,-6.32 -16.899,-12.751 -25.532,-18.866 -8.888,-6.296 -17.833,-12.545 -27.065,-18.314 -9.372,-5.855 -19.035,-11.266 -28.754,-16.532 -4.23,-2.291 -8.982,-3.592 -13.378,-5.606 -4.121,-1.89 -8.175,-3.972 -12.072,-6.282 -1.71,-1.014 -2.747,-0.847 -4.452,-10e-4 -7.039,3.49 -14.284,6.566 -21.323,10.055 -5.413,2.682 -10.736,5.581 -15.918,8.689 -12.463,7.475 -25.003,14.85 -37.146,22.823 -6.552,4.301 -12.251,9.881 -18.525,14.631 -4.335,3.282 -9.006,6.118 -13.505,9.184 -1.248,0.85 -2.55,1.682 -3.604,2.743 -4.589,4.621 -9.115,9.306 -13.61,14.019 -0.563,0.589 -1.418,1.368 -1.205,2.228 M 25.233,166.53 c -0.159,8.31 -2.149,16.163 -5.447,23.745 -2.166,4.979 -3.125,5.709 -8.527,5.471 -5.298,-0.234 -10.593,-0.933 -15.883,-0.879 -26.818,0.273 -53.636,0.709 -80.452,1.132 -3.48,0.054 -6.964,0.252 -10.43,0.565 -10.403,0.942 -20.779,2.3 -31.201,2.883 -11.489,0.643 -23.033,1.137 -34.522,0.762 -28.758,-0.938 -57.493,-2.539 -86.246,-3.624 -31.186,-1.176 -86.386,-0.617 -93.595,-0.888 -7.208,-0.27 -8.833,-3.553 -8.833,-3.553 -3.659,-7.553 -6.048,-15.594 -6.145,-24.027 -0.332,-28.781 -0.627,-57.565 -0.568,-86.347 0.034,-17.112 0.707,-34.223 1.192,-51.332 0.279,-9.827 0.526,-19.664 1.244,-29.463 0.352,-4.797 1.773,-9.512 2.662,-14.274 0.488,-2.608 1.457,-6.213 2.843,-8.15 2.109,-2.947 3.957,-4.748 6.895,-7.021 1.647,-1.273 5,-2.731 6.803,-3.826 2.907,-1.764 4.322,-3.211 7.377,-4.632 8.04,-3.74 13.044,-9.665 14.42,-18.49 0.444,-2.844 0.611,-5.736 1.159,-8.557 0.751,-3.854 1.36,-7.805 2.721,-11.458 2.433,-6.536 6.88,-11.395 13.733,-13.569 9.392,-2.978 17.274,2.319 17.964,12.134 0.234,3.315 -0.019,6.663 -0.006,9.996 0.007,1.968 -0.094,3.964 0.195,5.896 0.478,3.2 1.854,3.89 4.693,2.418 2.147,-1.114 4.113,-2.579 6.255,-3.703 7.907,-4.147 14.464,-1.567 17.193,6.877 1.068,3.305 1.464,6.829 2.565,10.12 0.797,2.381 1.687,5.598 3.528,6.582 3.897,2.082 8.452,4.136 12.722,4.105 17.228,-0.128 34.402,1.793 51.678,0.566 11.909,-0.845 23.933,0.026 35.904,-0.093 12.399,-0.121 24.814,-0.17 37.188,-0.876 12.079,-0.69 31.088,-0.996 33.112,-0.717 2.023,0.279 9.501,-0.387 11.097,-0.747 8.071,-1.822 13.167,-1.304 21.378,-0.741 8.437,0.579 16.9,0.767 25.346,1.232 11.004,0.605 21.081,4.24 30.153,10.307 2.283,1.526 4.314,4.52 4.947,7.198 1.484,6.283 2.558,12.758 2.887,19.201 0.657,12.833 0.616,25.699 1.016,38.548 0.618,19.838 1.364,39.672 2.261,65.353 -0.349,16.735 -0.842,39.305 -1.276,61.876" /></g></g></g></g></svg>