<?xml version="1.0" encoding="utf-8"?>
<!-- Generator: Adobe Illustrator 23.0.1, SVG Export Plug-In . SVG Version: 6.00 Build 0)  -->
<svg version="1.1"
	 id="svg8" xmlns:cc="http://creativecommons.org/ns#" xmlns:dc="http://purl.org/dc/elements/1.1/" xmlns:inkscape="http://www.inkscape.org/namespaces/inkscape" xmlns:rdf="http://www.w3.org/1999/02/22-rdf-syntax-ns#" xmlns:sodipodi="http://sodipodi.sourceforge.net/DTD/sodipodi-0.dtd" xmlns:svg="http://www.w3.org/2000/svg"
	 xmlns="http://www.w3.org/2000/svg" xmlns:xlink="http://www.w3.org/1999/xlink" x="0px" y="0px" viewBox="0 0 400 400"
	 style="enable-background:new 0 0 400 400;" xml:space="preserve">
<sodipodi:namedview  bordercolor="#666666" borderopacity="1" fit-margin-bottom="20" fit-margin-left="0" fit-margin-right="0" fit-margin-top="0" gridtolerance="10" guidetolerance="10" id="namedview10" inkscape:current-layer="svg8" inkscape:cx="60.368645" inkscape:cy="44.056523" inkscape:pageopacity="0" inkscape:pageshadow="2" inkscape:window-height="705" inkscape:window-maximized="1" inkscape:window-width="1366" inkscape:window-x="-8" inkscape:window-y="245" inkscape:zoom="4" objecttolerance="10" pagecolor="#ffffff" showgrid="false">
	</sodipodi:namedview>
<g id="Layer_1">
</g>
<g>
	<path d="M171,69.6h-66.2c-1,0-1.8,0.8-1.8,1.8v130.5c0,1,0.8,1.8,1.8,1.8h17.1c1,0,1.8-0.8,1.8-1.8c0.7-35.4,18.7-51.1,43.8-55.4
		c0.8-0.1,1.3-0.8,1.3-1.6l0-16.2c0-1-0.8-1.8-1.8-1.8h-40.9c-1,0-1.8-0.8-1.8-1.8V90.7c0-1,0.8-1.8,1.8-1.8h46.7
		c1.1,0,1.9-0.9,1.8-2l-1.7-15.8C172.7,70.3,171.9,69.6,171,69.6z M127.6,146.3h5c4.3,1-7.1,20-9,11.9v-7.9
		C123.6,148.1,125.4,146.3,127.6,146.3z"/>
	<path d="M336,4.5H64c-5.5,0-10,4.5-10,10v264.2c0,5.5,4.5,10,10,10h231.6c4.8,0,9.6,1.6,13.2,4.7c26.1,22.7-21.7,100.9,14.2,102
		c31.6,0.8-13.3-79.7,16-102.9c4.2-3.4,6.9-8.4,6.9-13.8V14.5C346,9,341.5,4.5,336,4.5z M333.7,267.1c0,5.5-4.5,10-10,10H76.3
		c-5.5,0-10-4.5-10-10V26.8c0-5.5,4.5-10,10-10h247.4c5.5,0,10,4.5,10,10V267.1z"/>
	<path d="M300.4,105.1h-11.7c-2.2,0-4.1,1.5-4.5,3.7c-2,10.1-7.4,38.2-8.5,46.6c-1.3,10.3-3.2,18.7-3.9,25.1c0,0,0,0.6-0.3,0.6
		c-0.3,0-0.3-0.6-0.3-0.6c-0.6-5.2-2.6-14.2-4.5-26.4c-1.8-11.5-5.1-28-8.1-46.4c-0.4-2.2-2.3-3.8-4.5-3.8l-15.6,0
		c-2.2,0-4,1.5-4.5,3.7c-2,9.9-7.7,37.2-9.8,46.6c-1.9,11.6-3.9,20-4.5,25.1c0,0,0,0.6-0.3,0.6s-0.3-0.6-0.3-0.6
		c-0.6-4.5-1.9-12.9-3.9-24.5c-1.8-10.9-4.3-26.9-7.8-46.5c-0.4-2.2-2.3-3.8-4.5-3.8l-13.3,0c-2.9,0-5.1,2.7-4.5,5.6
		c0,0,20.1,90.9,20.2,91.3c0.1,0.4,0.3,1,0.4,1.2c0.3,0.5,0.6,1,0.9,1.6c10.2,22.7-7.1,54,9.5,56c15.2-0.6-8.7-38.5,12.5-57.1
		c0.4-0.3,0.5-0.6,0.8-1.3c10.5-25.5,18.2-46.4,23.1-30.7c2,10.2,4.3,22.3,5.4,28.2c0.4,2.2,2.3,3.7,4.5,3.7h15.2
		c2.1,0,3.9-1.4,4.4-3.4l22.8-88.8C305.6,107.9,303.4,105.1,300.4,105.1z M245.9,141.5c-1.7,8.7-6.8,24.4-7.2,18.8
		c-0.1-0.8,0-1.6,0.2-2.3c0.1-0.3,0.1-0.5,0.2-0.7c2.2-10.5,4-19.6,5.2-26.5c0.1-0.6,1-0.6,1.1,0c0.2,1.6,0.5,3.2,0.7,4.9
		C246.3,137.7,246.3,139.6,245.9,141.5z"/>
</g>
</svg>
