<?xml version="1.0" encoding="utf-8"?>
<!-- Generator: Adobe Illustrator 22.1.0, SVG Export Plug-In . SVG Version: 6.00 Build 0)  -->
<!DOCTYPE svg PUBLIC "-//W3C//DTD SVG 1.1//EN" "http://www.w3.org/Graphics/SVG/1.1/DTD/svg11.dtd">
<svg version="1.1"
	 id="Layer_1" inkscape:version="0.92.2 (5c3e80d, 2017-08-06)" sodipodi:docname="saavn.svg" xmlns:cc="http://creativecommons.org/ns#" xmlns:dc="http://purl.org/dc/elements/1.1/" xmlns:inkscape="http://www.inkscape.org/namespaces/inkscape" xmlns:rdf="http://www.w3.org/1999/02/22-rdf-syntax-ns#" xmlns:sodipodi="http://sodipodi.sourceforge.net/DTD/sodipodi-0.dtd" xmlns:svg="http://www.w3.org/2000/svg"
	 xmlns="http://www.w3.org/2000/svg" xmlns:xlink="http://www.w3.org/1999/xlink" x="0px" y="0px" viewBox="0 0 400 400"
	 style="enable-background:new 0 0 400 400;" xml:space="preserve">
<sodipodi:namedview  bordercolor="#666666" borderopacity="1" gridtolerance="10" guidetolerance="10" id="namedview13" inkscape:current-layer="Layer_1" inkscape:cx="-13.13786" inkscape:cy="-36.421424" inkscape:pageopacity="0" inkscape:pageshadow="2" inkscape:window-height="1017" inkscape:window-maximized="1" inkscape:window-width="1920" inkscape:window-x="1358" inkscape:window-y="-8" inkscape:zoom="0.50711698" objecttolerance="10" pagecolor="#ffffff" showgrid="false">
	</sodipodi:namedview>
<path d="M355.7,98.6c-0.1-14.4-0.2-29-4.7-42.9c-7-21.2-21.3-35.5-42.5-42.4c-13.2-4.3-27.1-4.6-40.8-4.7
	c-45.1-0.2-90.1-0.2-135.2,0.1c-10.5,0.1-21.1,0.9-31.5,2.4C75,15,53.9,34.2,48.1,59.7c-2.2,10-3.3,20.4-3.5,30.6
	c-0.5,24.7-0.2,49.5-0.2,74.2c-0.1,0-0.1,0-0.2,0c0,22.5-0.2,44.9,0.1,67.4c0.2,13.9,0.3,27.9,4.7,41.2c7,21.2,21.3,35.5,42.5,42.4
	c13.2,4.3,27.1,4.6,40.8,4.7c45.1,0.2,90.1,0.2,135.2-0.1c3,0,5.9-0.1,8.9-0.2c5.4-0.2,10.7,0.5,15.8,2.3
	c38,13.7-9.7,61.7,23.3,69.1c38,2.6,9.9-57.1,23.8-96.4c3.6-4.6,6.7-9.8,9.2-15.7c0.1-0.2,0.3-0.3,0.4-0.5l-0.3,0.2
	c1.2-2.8,2.2-5.7,3.1-8.8c3.8-13,3.8-26.5,3.9-39.8C355.9,186.3,355.9,142.5,355.7,98.6z M245.4,35.1c2.9,3.2,3.6,6.5,2.8,9.6
	c-1.1,4.5-5.3,7.5-9.9,7.5c-3.9,0-7.8,0-11.8,0c-4.7,0-6.3,1.7-5.8,6.4c0.5,4.7,1.3,9.5,1.8,14.3c3.4,31.1,1.4,61.9-3.9,92.6
	c-4.3,24.4-10.7,48.2-18.9,71.5c-3.6,10.1-7.8,20.1-12.1,31l0,0c-0.6-1.7-1-3.4-1.2-5.1c-1.5-11.1-3-22.3-4.6-33.4
	c-3.5-24.1-8.7-47.8-15.5-71.2c-10.2-35.3-19.1-55.1-34.4-88.3c-0.2-0.5-3.4-7.2-5.4-11.6c-1.7-3.6-2.9-7.5-3.5-11.4
	c-1.1-8.7,1.5-14.4,11.4-16.8c2.4-0.1,4.9-0.1,7.3-0.1c30.6-0.1,61.2-0.1,91.7,0C237.9,29.9,242.3,31.7,245.4,35.1z M107.4,296.3
	c-3.3-0.7-6.5-1.6-9.4-2.7c-6.3-2.4-10.9-8-11.4-14.7c-0.2-3.4,0.7-6.5,3.8-8.8c4-2.9,9.4-2.8,13.4,0c6.5,4.4,14.6,6.8,24.1,6.9
	c4.6,0,9.1,0,13.6,0c5.5,0,10.9,0.2,16.5-0.1c1.9-0.1,4.7-1.2,5.5-2.6c0.7-1.5,0.2-4.7-1-6c-5.5-5.9-11-12-17.3-17
	c-14-11-30.7-16.5-47.4-21.5c-9.1-2.7-10.2-1.8-10,7.8c0,0,0,0,0,0c0,1.1,0,2.3-0.2,3.4c-2.1,13-4.2,21.9-14,18.2
	c-3.4-1.3-5.9-4.4-6.3-8l0-0.1c-1.2-9.4-1.7-18.9-1.7-28.4c-0.1-41.7-0.2-83.5,0.2-125.2c0.2-10,1.2-20.4,3.8-30.1
	c2.4-9.1,6.5-16.3,12-21.8C100.7,35.3,95.6,51,91,73.4c-1.1,3-1.9,6.2-2.3,9.6c-1.3,11.4-0.4,23-1.1,34.4c-0.2,3,0.3,5.3,1.4,7.4
	c2.1,3.9,3.7,8.1,4,12.6c2,26.9-12.4,74.5,11.2,76.1c20.7-2,6.8-35.2,9.7-50.4c1.1-5.9,8.6-7.8,12.6-3.3
	c16.4,18.5,29.1,39.8,38.1,63.9c5.9,15.5,9.7,31.5,12,47.7c0,0.3,0.1,0.5,0.1,0.8c0.4,2.4,0.6,4.8,0.3,7.2
	c-0.7,5.2-2.9,9.5-7.2,13.2c-4.9,4.2-11.3,6.4-17.8,6.3c-6.1,0-12.2-0.1-18.2-0.1C124.9,298.9,115.9,298.1,107.4,296.3z
	 M335.2,164.5c-0.4,26.6-0.6,53.2-1.4,79.8c-0.3,11.3-3,22.2-9.5,31.9c-8.9,13.3-22.2,19.3-37.5,21.2c-9.4,1.1-18.9,1.7-28.4,1.7
	c-8.7,0-17.4,0.1-26,0.1c-7.4,0-14.7-1.6-21.4-4.9c-13.2-6.6-12.9-14.5-11.9-20.2c0.4-0.9,0.7-2,1.1-3.4c0.5-1.5,0.9-2.9,1.4-4.4
	c1-2.9,3.1-5.4,5.9-6.5c3.2-1.3,6.3-0.8,8.5,2.2c1.8,2.5,2.4,5.8,1.5,8.8c-0.3,1-0.4,2-0.3,2.9c0.4,2.8,3.2,3.3,6,3.3
	c8.5-0.1,17.1,0,25.6,0c8.1,0,16.3,0.2,24.5-0.1c14.6-0.5,26.2-6.5,33.7-19.4c6.2-10.4,5.9-22,5.4-33.5c-0.1-3.2-2.4-4.3-5.9-3.1
	c-14.3,5.1-28.7,10-42.7,15.9c-5.9,2.5-11.6,5.3-17,8.5c-4.4,2.6-9.6,3.8-14.6,2.9c-8.3-1.5-11.7-7.6-10.2-21.1
	c0.5-4.7,2.1-9.3,4.8-13.3c6.3-9.6,13.4-18.8,21.3-27.5c6.3-7,13-13.4,20.1-19.4c2.1-1.8,4.7-2.8,7.5-2.7c17.5,0.7-5,42.8,13.4,47.3
	c23.8-3-9-45.6,18.8-71.5c0,0,0,0,0,0c1.8-0.9,3.2-1.9,4-3.3c0,0,0,0,0.1-0.1c0,0,0,0-0.1,0c0.5-0.8,0.7-1.8,0.7-3.1
	c-0.1-14.3,0.2-28.6-0.1-42.9c-0.5-22.1-16.9-38.3-39-38.5c-0.3,0-0.5,0-0.8,0c-3.7,0-7.3-1.7-9.5-4.7c-2.9-4-1.9-8.3,5.1-12.2
	c6.2-3.4,13.5-4.5,20.5-3.3c1.2,0.2,2.4,0.4,3.6,0.7c23.8,4.7,37.6,20,40.7,45.3c1.3,10.4,1.5,20.8,1.7,31.2L335.2,164.5z"/>
</svg>
