<?xml version="1.0" encoding="utf-8"?>
<!-- Generator: Adobe Illustrator 23.0.6, SVG Export Plug-In . SVG Version: 6.00 Build 0)  -->
<svg version="1.1"
	 id="Layer_1" inkscape:version="0.92.2 (5c3e80d, 2017-08-06)" sodipodi:docname="saavn.svg" xmlns:cc="http://creativecommons.org/ns#" xmlns:dc="http://purl.org/dc/elements/1.1/" xmlns:inkscape="http://www.inkscape.org/namespaces/inkscape" xmlns:rdf="http://www.w3.org/1999/02/22-rdf-syntax-ns#" xmlns:sodipodi="http://sodipodi.sourceforge.net/DTD/sodipodi-0.dtd" xmlns:svg="http://www.w3.org/2000/svg"
	 xmlns="http://www.w3.org/2000/svg" xmlns:xlink="http://www.w3.org/1999/xlink" x="0px" y="0px" viewBox="0 0 400 400"
	 style="enable-background:new 0 0 400 400;" xml:space="preserve">
<path d="M337.3,84.4c-0.1-12.7-0.1-25.5-4.2-37.8c-6.2-18.7-18.8-31.3-37.5-37.4c-11.7-3.8-23.9-4-36-4.1C219.9,5,180.2,5,140.4,5.2
	c-9.3,0.1-18.6,0.8-27.8,2.1C89.8,10.6,71.2,27.5,66.1,50c-2,8.8-2.9,18-3.1,27c-0.4,21.8-0.1,43.7-0.1,65.5c-0.1,0-0.1,0-0.2,0
	c0,19.8-0.1,39.6,0.1,59.4c0.1,12.2,0.3,24.6,4.2,36.4c6.2,18.7,18.8,31.3,37.5,37.4c11.7,3.8,23.9,4,36,4.1
	c39.8,0.1,79.5,0.1,119.2-0.1c2.6,0,5.2-0.1,7.9-0.2c4.7-0.2,9.5,0.4,13.9,2c33.5,12.1-8.6,54.4,20.6,60.9c33.5,2.3,8.8-50.4,21-85
	c3.2-4.1,5.9-8.7,8.1-13.9c0.1-0.1,0.2-0.3,0.4-0.4l-0.3,0.1c1-2.5,1.9-5.1,2.7-7.8c3.3-11.5,3.3-23.4,3.4-35.1
	C337.5,161.7,337.5,123.1,337.3,84.4z M240,28.3c2.6,2.8,3.2,5.8,2.5,8.5c-1,3.9-4.7,6.6-8.7,6.6c-3.5,0-6.9,0-10.4,0
	c-4.2,0-5.5,1.5-5.1,5.7c0.4,4.2,1.1,8.4,1.6,12.6c3,27.4,1.3,54.6-3.4,81.7c-3.8,21.5-9.4,42.5-16.7,63.1
	c-3.2,8.9-6.9,17.7-10.7,27.3l0,0c-0.5-1.5-0.9-3-1.1-4.5c-1.4-9.8-2.6-19.7-4.1-29.5c-3.1-21.2-7.6-42.2-13.7-62.8
	c-9-31.1-16.8-48.6-30.3-77.9c-0.2-0.4-3-6.4-4.8-10.2c-1.5-3.2-2.6-6.6-3.1-10.1c-1-7.7,1.3-12.7,10-14.8c2.1-0.1,4.3-0.1,6.4-0.1
	c26.9-0.1,53.9-0.1,80.9,0C233.4,23.8,237.3,25.3,240,28.3z M118.3,258.7c-3-0.6-5.7-1.4-8.3-2.4c-5.6-2.1-9.6-7.1-10-13
	c-0.2-3,0.6-5.7,3.3-7.7c3.5-2.5,8.3-2.5,11.9,0c5.7,3.9,12.9,6,21.2,6.1c4,0,8,0,12,0c4.8,0,9.6,0.2,14.5-0.1
	c1.7-0.1,4.2-1.1,4.8-2.3c0.6-1.3,0.1-4.2-0.9-5.3c-4.8-5.2-9.7-10.6-15.3-15c-12.3-9.7-27-14.6-41.8-19c-8-2.4-9-1.6-8.8,6.9
	c0,0,0,0,0,0c0,1,0,2-0.2,3c-1.9,11.5-3.7,19.3-12.3,16.1c-3-1.1-5.2-3.9-5.6-7.1l0,0c-1.1-8.3-1.5-16.7-1.5-25.1
	c-0.1-36.8-0.2-73.6,0.2-110.4c0.1-8.8,1.1-18,3.3-26.5c2.1-8,5.7-14.4,10.6-19.2c17-9.1,12.5,4.8,8.4,24.5c-1,2.6-1.7,5.4-2,8.5
	c-1.1,10-0.4,20.2-1,30.4c-0.2,2.6,0.2,4.7,1.2,6.5c1.9,3.5,3.3,7.2,3.6,11.1c1.8,23.7-11,65.7,9.9,67.1c18.2-1.7,6-31,8.5-44.4
	c1-5.2,7.6-6.9,11.1-2.9c14.4,16.3,25.6,35.1,33.6,56.3c5.2,13.7,8.6,27.7,10.5,42.1c0,0.2,0.1,0.5,0.1,0.7c0.3,2.1,0.5,4.3,0.3,6.4
	c-0.6,4.6-2.5,8.4-6.3,11.7c-4.3,3.7-10,5.6-15.7,5.6c-5.4,0-10.7-0.1-16.1-0.1C133.7,261,125.9,260.2,118.3,258.7z M319.2,142.5
	c-0.4,23.4-0.6,46.9-1.3,70.4c-0.3,10-2.7,19.6-8.4,28.1c-7.9,11.7-19.6,17.1-33,18.7c-8.3,1-16.7,1.5-25.1,1.5
	c-7.7,0-15.3,0.1-23,0.1c-6.5,0-13-1.4-18.8-4.3c-11.6-5.9-11.4-12.8-10.5-17.8c0.3-0.8,0.6-1.7,1-3c0.4-1.3,0.8-2.6,1.2-3.9
	c0.9-2.6,2.7-4.7,5.2-5.7c2.8-1.1,5.5-0.7,7.5,1.9c1.6,2.2,2.1,5.1,1.3,7.7c-0.3,0.9-0.4,1.8-0.3,2.6c0.4,2.5,2.8,2.9,5.3,2.9
	c7.5-0.1,15.1,0,22.6,0c7.1,0,14.4,0.2,21.6-0.1c12.9-0.4,23.1-5.7,29.7-17.1c5.4-9.2,5.2-19.4,4.7-29.5c-0.1-2.8-2.1-3.8-5.2-2.8
	c-12.6,4.5-25.3,8.8-37.6,14c-5.2,2.2-10.2,4.7-15,7.5c-3.9,2.3-8.5,3.4-12.9,2.6c-7.3-1.3-10.3-6.7-9-18.6
	c0.5-4.2,1.9-8.2,4.2-11.7c5.5-8.5,11.8-16.6,18.8-24.2c5.6-6.1,11.5-11.8,17.7-17.1c1.8-1.6,4.2-2.5,6.6-2.4
	c15.4,0.6-4.4,37.7,11.8,41.7c21-2.7-8-40.2,16.6-63c0,0,0,0,0,0c1.5-0.8,2.8-1.6,3.6-2.9c0,0,0,0,0.1-0.1c0,0,0,0-0.1,0
	c0.4-0.7,0.6-1.6,0.6-2.7c-0.1-12.6,0.1-25.3-0.1-37.9c-0.4-19.5-14.9-33.8-34.4-34c-0.2,0-0.5,0-0.7,0c-3.3,0-6.5-1.5-8.4-4.1
	c-2.6-3.6-1.7-7.3,4.5-10.7c5.5-3,11.9-3.9,18.1-2.9c1,0.2,2.1,0.4,3.1,0.6c21,4.2,33.1,17.6,35.9,39.9c1.1,9.1,1.3,18.3,1.5,27.5
	L319.2,142.5z"/>
</svg>
