<?xml version="1.0" encoding="UTF-8" standalone="no"?>
<svg
   xmlns:dc="http://purl.org/dc/elements/1.1/"
   xmlns:cc="http://creativecommons.org/ns#"
   xmlns:rdf="http://www.w3.org/1999/02/22-rdf-syntax-ns#"
   xmlns:svg="http://www.w3.org/2000/svg"
   xmlns="http://www.w3.org/2000/svg"
   viewBox="0 0 533.33331 533.33331"
   height="533.33331"
   width="533.33331"
   xml:space="preserve"
   id="svg2"
   version="1.1"><metadata
     id="metadata8"><rdf:RDF><cc:Work
         rdf:about=""><dc:format>image/svg+xml</dc:format><dc:type
           rdf:resource="http://purl.org/dc/dcmitype/StillImage" /></cc:Work></rdf:RDF></metadata><defs
     id="defs6"><clipPath
       id="clipPath18"
       clipPathUnits="userSpaceOnUse"><path
         id="path16"
         d="M 0,400 H 400 V 0 H 0 Z" /></clipPath></defs><g
     transform="matrix(1.3333333,0,0,-1.3333333,0,533.33333)"
     id="g10"><g
       id="g12"><g
         clip-path="url(#clipPath18)"
         id="g14"><g
           transform="translate(238.4521,258.3735)"
           id="g20"><path
             id="path22"
             style="fill:#000000;fill-opacity:1;fill-rule:nonzero;stroke:none"
             d="m 0,0 c 1.196,-2.271 19.292,3.492 19.511,5.482 0.219,1.99 -6.504,9.292 -8.667,8.849 C 8.681,13.887 -1.197,2.271 0,0 m -86.998,-193.873 c -0.076,-2.796 -0.473,-6.819 0.097,-10.088 1.249,-7.162 3.356,-14.18 4.458,-21.358 0.609,-3.962 0.514,-8.262 -0.337,-12.176 -2.992,-13.768 -17.376,-18.621 -28.316,-9.662 -8.994,7.366 -10.983,17.45 -8.497,27.99 2.165,9.176 6.034,17.956 9.233,26.88 5.21,14.537 4.797,28.914 -1.333,43.044 -1.301,2.997 -3.145,5.877 -5.243,8.392 -38.565,46.23 -23.509,113.843 30.943,139.775 12.66,6.03 19.967,17.131 22.841,30.523 1.876,8.746 2.229,17.879 2.627,26.867 0.622,14.072 6.947,23.936 19.793,29.86 1.915,0.883 3.811,3.265 4.397,5.328 3.184,11.207 7.33,21.906 14.3,31.362 2.696,3.658 4.948,6.12 7.654,8.025 1.955,1.376 4.147,2.462 6.915,3.498 0.659,0.246 2.079,0.734 2.365,0.505 0.287,-0.23 0.105,-1.025 -0.085,-1.458 -2.824,-6.458 -3.927,-13.043 -4.129,-19.688 -0.206,-6.799 0.531,-13.661 1.335,-20.514 0.157,-1.342 1.276,-3.19 2.345,-3.487 1.07,-0.297 1.538,-0.379 1.846,-0.455 C 17.815,83.949 25.766,72.317 22.894,50.082 22.429,46.48 21.765,42.881 20.878,39.36 16.638,22.528 22.986,10.954 39.696,5.281 50.393,1.65 55.992,-5.422 55.787,-16.087 c -0.093,-4.852 -0.895,-9.81 -2.187,-14.497 -2.972,-10.782 -1.934,-20.947 3.152,-30.85 4.755,-9.259 5.914,-18.93 2.891,-29.012 -2.678,-8.925 -2.227,-17.877 0.311,-26.716 4.421,-15.396 -0.492,-28.144 -13.038,-36.676 -10.738,-7.302 -10.217,-16.524 -8.168,-26.634 1.087,-5.366 3.728,-10.403 5.471,-15.654 0.992,-2.988 1.909,-6.065 2.3,-9.172 0.883,-7.022 -1.245,-12.991 -7.673,-16.568 -6.294,-3.502 -12.881,-3.496 -18.933,0.532 -6.1,4.057 -7.614,10.234 -6.431,17.154 1.068,6.236 2.517,12.411 3.441,18.666 0.432,2.927 0.317,6.014 -0.057,8.966 -1.32,10.416 -3.631,10.78 -10.839,12.918 -7.207,2.138 -17.239,-0.692 -25.206,-3.095 -8.985,-2.712 -18.487,-4.101 -27.865,-4.956 -4.709,-0.43 -7.264,-2.151 -9.106,-5.993 -3.035,-6.33 -2.634,-12.916 -1.493,-19.556 0.697,-4.056 1.744,-8.081 2.058,-12.163 0.25,-3.248 0.157,-6.713 -0.723,-9.816 -1.609,-5.681 -7.402,-7.502 -12.632,-4.331 -5.344,3.242 -7.79,8.583 -9.836,14.137 -1.475,4.006 -2.722,8.097 -4.238,12.086 -0.52,1.37 -1.122,2.657 -1.984,3.945 -0.862,1.289 -1.924,2.295 -2,-0.501" /></g></g></g></g></svg>