<?xml version="1.0" encoding="utf-8"?>
<!-- Generator: Adobe Illustrator 23.0.6, SVG Export Plug-In . SVG Version: 6.00 Build 0)  -->
<svg version="1.1" id="Layer_1" xmlns="http://www.w3.org/2000/svg" xmlns:xlink="http://www.w3.org/1999/xlink" x="0px" y="0px"
	 viewBox="0 0 400 400" style="enable-background:new 0 0 400 400;" xml:space="preserve">
<path d="M108,80.1c4-1.9,8.1-3.9,12.2-5.7c16.3-6.9,33.2-11.7,51-13.6c10.4-1.1,20.8-2.2,31.3-2.1c16.3,0.2,32.3,2.4,48.1,6.7
	c0.9,0.2,1.8,0.5,2.7,0.6c2.3,0.3,4.6-1.9,4.2-4.1c-0.1-0.7-1.2-1.6-2-1.9c-6.1-2.4-12.3-4.6-18.5-6.9l0,0c-1.2-0.4-1.5-2-0.6-2.9
	c1.1-1.1,2.4-1.5,4.4-1.3c22.3,1.9,42.3,10.1,60.4,23c1.6,1.1,2.8,2.9,3.7,4.7c8.8,17.3,15.3,35.5,20.6,54.2
	c4.5,15.8,7.8,31.9,9.6,48.2c1,9.2,1.2,18.4,1.8,27.6c0.2,2.4-0.5,4.4-2.1,6.1c-1.1,1.2-2,2.6-3.1,3.7c-6.5,6.6-8.3,14.8-7.6,23.5
	c0.6,7.1,2.1,14,2.9,21.1c0.4,3.4,0.1,6.9-0.3,10.3c-0.4,3.3-2,6.1-4.7,8.2c-5,4-10.9,2.7-13.5-3.2c-1.1-2.5-1.6-5.3-1.8-8.1
	c-0.2-3.3,0.4-6.7,0.2-10c-0.2-3.1-0.7-6.3-1.7-9.2c-1-2.9-2.7-2.9-4.6-0.4c-1,1.3-1.7,2.7-2.7,4.1c-0.8,1.2-1.6,2.4-2.6,3.4
	c-3.5,3.7-7.8,3.2-10.3-1.2c-1.4-2.5-2.5-5.1-3.6-7.7c-1.2-2.6-3.1-3.5-5.9-3.2c-2.7,0.4-5.4,0.7-8.2,0.8c-1,0-2.5-0.5-3.1-1.3
	c-4.4-5.3-8.7-10.7-13.1-16.1l0,0c-0.5-0.6-0.2-1.4,0.5-1.7c13.6-4.4,25.7-10.9,35.2-21.4c1.6-1.7,3.4-3.4,3.5-4.2
	c0.1-0.8-0.4-0.6-1-0.2c-19.3,11.5-40,19.2-62.2,22.7c-27.6,4.3-54.6,1.5-81-7.4c-2.5-0.8-4.8-1.5-7.2,0.3c-1.7,1.3-1.8,1.9-0.7,3.8
	c1.3,2.3,3.4,3.3,5.8,4.2c0.5,0.2,1,0.4,1.5,0.6c2.2,0.9,3,3.7,1.6,5.6c-0.3,0.4-0.6,0.8-0.9,1.2c-3.2,4-6.4,7.9-9.5,11.9
	c-1.2,1.5-2.5,2.3-4.4,2.2c-2.8-0.2-5.5-0.4-8.3-0.4c-4.4,0-8.9-0.3-13.1,0.3c-5,0.8-6.4,3.4-5.4,8.4c0.6,3.1,1.8,6.1,2.1,9.2
	c0.3,3.2,0.5,6.6-0.3,9.6c-1.9,7.5-9.2,10.9-16.3,7.9c-7.1-3-10.9-8.6-10.9-16.1c0-4.6,0.8-9.3,1.5-13.9c1.2-7.8,0.4-15.4-3-22.6
	c-1.3-2.9-4.1-5.2-5.7-7.3c-1.9-2.6-4.2-4.8-6.6-7c-2.2-2-2.9-4.4-2.7-7.2c0.8-9.6,1.3-19.2,2.3-28.8c3.3-29.4,11.4-57.6,22.7-84.9
	c2.3-5.5,4.9-10.9,7.6-16.3c0.9-1.7,2.1-3.2,3.7-4.3c15-10.6,31.4-18.1,49.6-21.3c3.8-0.7,7.6-1,11.5-1.4c0.8-0.1,1.8,0.2,2.5,0.6
	c0.1,0.1,0.3,0.2,0.4,0.3c0.5,0.7,0.2,1.7-0.6,2c-0.1,0-0.2,0.1-0.2,0.1c-11.1,3.6-22.1,7.6-32.5,12.8c-7.9,4-15.5,8.5-22.5,13.8
	c-0.1,0.1-0.3,0.2-0.4,0.3C106.7,79.5,107.3,80.4,108,80.1z M155,188.1c6.6,0.1,11.2-1.7,15.4-4.9c9.1-7,11.9-20.6,9.2-30.3
	c-4.1-15-23.2-21.8-36.1-13.1c-9,6.1-13.3,17.9-10.5,29C136,180.3,145.4,188.1,155,188.1z M232,158.2C232,158.2,232,158.2,232,158.2
	c0-1.6,0.1-3.3-0.1-4.9c-0.1-1.4-0.3-2.8-0.8-4.2c-0.9-2.5-2.8-3.6-5.3-3.9c-2.5-0.3-3.7,1.2-4.7,3.1c-4.5,8.8-4.7,17.7-0.2,26.5
	c7.8,15.1,27.2,17.7,38.2,5.1c6-6.9,7.8-15.2,6-24.1c-1.4-6.6-4.8-12-10.2-16c-1.5-1.1-2.5-0.8-3.5,0.6c-1.7,2.6-2.2,5.5-2.1,8.4
	c0.1,3.3,0.7,6.7,0.8,10c0.1,3.1,0.1,6.3-0.5,9.3c-0.8,4-3.9,6.4-7.3,6.7c-3.4,0.3-6.8-1.6-8.5-5.3c-0.8-1.8-1.3-3.8-1.6-5.8
	C231.8,162.1,232,160.2,232,158.2z M111.5,199.2c-0.9-0.6-2.2-1.5-2.6-1.2c-0.3,0.3,1.9,2.5,2.3,2.9c3.1,3.2,6.1,6.4,9.3,9.4
	c1.6,1.5,3.8,1.3,4.7-0.1c0.8-1.2,0.2-2.6-1.9-3.8C119.2,203.9,112.3,199.8,111.5,199.2z M286.8,79.4c0.8,0.4,1.4-0.7,0.7-1.2
	c-1.6-1.2-3.2-2.3-4.8-3.4c-3.5-2.3-7.1-4.3-10.6-6.4c-0.1-0.1-0.2-0.1-0.3-0.1c-0.6-0.1-1.1,0.2-1.2,0.8c0,0.2,0,0.9,0.1,1.1
	c0.8,1.6,2,2.5,3.5,3.3C278.2,75.6,282.5,77.5,286.8,79.4z"/>
</svg>
