<?xml version="1.0" encoding="utf-8"?>
<!-- Generator: Adobe Illustrator 22.1.0, SVG Export Plug-In . SVG Version: 6.00 Build 0)  -->
<!DOCTYPE svg PUBLIC "-//W3C//DTD SVG 1.1//EN" "http://www.w3.org/Graphics/SVG/1.1/DTD/svg11.dtd">
<svg version="1.1" id="Layer_1" xmlns="http://www.w3.org/2000/svg" xmlns:xlink="http://www.w3.org/1999/xlink" x="0px" y="0px"
	 viewBox="0 0 400 400" style="enable-background:new 0 0 400 400;" xml:space="preserve">
<g>
	<path d="M71.4,80.8c5.6-2.7,11.3-5.5,17-7.9c22.8-9.6,46.4-16.3,71.2-19c14.5-1.6,29-3,43.7-2.9c22.8,0.2,45.2,3.3,67.2,9.3
		c1.2,0.3,2.5,0.8,3.7,0.9c3.2,0.4,6.4-2.6,5.8-5.7c-0.2-1-1.7-2.2-2.8-2.6c-8.6-3.3-17.2-6.5-25.8-9.7l0,0c-1.7-0.6-2.1-2.8-0.9-4
		c1.5-1.5,3.4-2.1,6.1-1.8c31.2,2.7,59,14.1,84.4,32.1c2.2,1.5,3.9,4.1,5.1,6.6c12.3,24.2,21.4,49.6,28.8,75.7
		c6.3,22.1,10.9,44.5,13.4,67.3c1.4,12.8,1.7,25.7,2.6,38.6c0.2,3.3-0.7,6.1-2.9,8.6c-1.5,1.7-2.8,3.6-4.4,5.2
		c-9.1,9.2-11.7,20.6-10.6,32.9c0.9,9.9,3,19.6,4,29.5c0.5,4.7,0.1,9.6-0.4,14.4c-0.5,4.6-2.9,8.5-6.6,11.5
		c-6.9,5.6-15.2,3.7-18.8-4.4c-1.6-3.4-2.2-7.5-2.5-11.3c-0.3-4.6,0.6-9.4,0.3-14c-0.3-4.3-0.9-8.8-2.4-12.8c-1.4-4-3.8-4.1-6.4-0.6
		c-1.4,1.8-2.4,3.8-3.7,5.7c-1.1,1.6-2.2,3.3-3.6,4.7c-4.9,5.1-10.9,4.5-14.4-1.7c-1.9-3.4-3.4-7.2-5-10.8c-1.6-3.7-4.4-4.9-8.2-4.4
		c-3.8,0.5-7.6,1-11.4,1.1c-1.5,0-3.4-0.7-4.4-1.8c-6.2-7.4-12.2-14.9-18.3-22.4l0,0c-0.6-0.8-0.3-2,0.7-2.3
		c19-6.1,35.8-15.3,49.1-29.9c2.2-2.4,4.8-4.8,4.9-5.9c0.2-1.1-0.5-0.9-1.4-0.3c-26.9,16.1-55.8,26.8-86.9,31.7
		c-38.6,6.1-76.3,2.1-113.2-10.4c-3.5-1.2-6.8-2.2-10,0.5c-2.3,1.9-2.5,2.7-1,5.3c1.8,3.2,4.8,4.6,8,5.8c0.7,0.3,1.4,0.5,2.1,0.8
		c3.1,1.3,4.2,5.1,2.2,7.8c-0.4,0.6-0.8,1.1-1.3,1.6c-4.4,5.6-9,11-13.3,16.6c-1.6,2.1-3.5,3.2-6.2,3c-3.9-0.3-7.7-0.6-11.6-0.6
		c-6.1,0-12.4-0.5-18.4,0.5c-6.9,1.1-8.9,4.8-7.5,11.7c0.9,4.3,2.5,8.5,2.9,12.8c0.4,4.4,0.6,9.2-0.5,13.4
		c-2.7,10.4-12.9,15.2-22.8,11c-9.9-4.2-15.2-12-15.3-22.5c-0.1-6.5,1.1-13,2.1-19.4c1.7-11,0.5-21.5-4.1-31.6
		c-1.9-4-5.7-7.3-8-10.3c-2.7-3.6-5.9-6.8-9.2-9.8c-3-2.8-4.1-6.2-3.8-10.1c1.1-13.4,1.8-26.9,3.3-40.2
		c4.6-41.1,15.9-80.4,31.6-118.6c3.2-7.7,6.8-15.3,10.6-22.7c1.2-2.4,3-4.5,5.2-6c21-14.8,43.8-25.4,69.3-29.8
		c5.3-0.9,10.7-1.4,16-2c1.2-0.1,2.5,0.3,3.5,0.9c0.2,0.1,0.4,0.3,0.5,0.5c0.7,1,0.3,2.4-0.8,2.8c-0.1,0-0.2,0.1-0.3,0.1
		c-15.5,5-30.8,10.6-45.4,17.9c-11,5.6-21.6,11.9-31.5,19.3c-0.2,0.2-0.4,0.3-0.6,0.5C69.7,80,70.5,81.3,71.4,80.8z M137.2,231.6
		c9.3,0.1,15.7-2.4,21.5-6.8c12.8-9.7,16.6-28.8,12.9-42.4c-5.8-21-32.4-30.4-50.4-18.2c-12.6,8.5-18.6,25-14.6,40.6
		C110.6,220.8,123.8,231.7,137.2,231.6z M244.7,190C244.7,190,244.6,190,244.7,190c-0.1-2.3,0.1-4.5-0.1-6.8c-0.2-2-0.4-4-1.1-5.8
		c-1.2-3.4-3.9-5-7.5-5.4c-3.5-0.4-5.1,1.6-6.5,4.3c-6.3,12.3-6.6,24.8-0.2,37c11,21.1,38,24.8,53.3,7.2c8.4-9.7,11-21.2,8.4-33.7
		c-1.9-9.2-6.7-16.7-14.3-22.4c-2.1-1.6-3.5-1.2-4.9,0.9c-2.3,3.6-3.1,7.6-2.9,11.8c0.1,4.7,1,9.3,1.1,14c0.1,4.4,0.1,8.8-0.7,13
		c-1.1,5.5-5.4,9-10.3,9.4c-4.8,0.4-9.5-2.3-11.9-7.3c-1.2-2.5-1.9-5.4-2.3-8.1C244.4,195.4,244.7,192.7,244.7,190z M76.3,247.2
		c-1.2-0.9-3.1-2.1-3.6-1.7s2.7,3.4,3.2,4c4.3,4.4,8.6,8.9,13,13.2c2.2,2.1,5.3,1.9,6.6-0.1c1.1-1.6,0.2-3.6-2.7-5.4
		C87.1,253.7,77.6,248.1,76.3,247.2z M321.2,79.8c1.1,0.5,2-1,1-1.7c-2.2-1.6-4.5-3.3-6.8-4.8c-4.8-3.2-9.9-6.1-14.8-9
		c-0.1-0.1-0.3-0.1-0.4-0.2c-0.8-0.2-1.6,0.3-1.7,1.2c0,0.3,0,1.2,0.2,1.6c1.1,2.2,2.8,3.5,4.9,4.6
		C309.3,74.5,315.3,77.1,321.2,79.8z"/>
</g>
</svg>
