<?xml version="1.0" encoding="utf-8"?>
<!-- Generator: Adobe Illustrator 23.0.6, SVG Export Plug-In . SVG Version: 6.00 Build 0)  -->
<svg version="1.1" id="Layer_1" xmlns="http://www.w3.org/2000/svg" xmlns:xlink="http://www.w3.org/1999/xlink" x="0px" y="0px"
	 viewBox="0 0 400 400" style="enable-background:new 0 0 400 400;" xml:space="preserve">
<path d="M98.5,142.2c0-39.1,0-78.2,0-117.4c0-13.2,6.6-19.8,19.7-19.8c44,0,88,0,132-0.1c2.4,0,4,0.6,5.6,2.4
	c14.6,16,29.3,31.8,43.8,47.8c1.1,1.2,1.9,3.2,1.9,4.8c0.1,67.1,0.1,134.2,0.1,201.3c0,11.7-7,18.6-18.9,18.6
	c-55.1,0-110.2,0-165.4,0c-11.7,0-18.7-7-18.7-18.8C98.5,221.5,98.5,181.9,98.5,142.2z M233.2,80c0,2.3-1.9,4.2-4.2,4.2l0,0
	c-13.4,0-26.8,0-40.2,0.2c-7.4,0.1-14.3,2.4-20.3,6.7c-5.7,4-7.8,9.5-5.9,16.2c1.2,4.5,3.1,8.8,4.2,13.3c1,4.2,1.9,8.5,1.8,12.7
	c-0.5,11.5-11.2,17.9-21.8,13.5c-5.7-2.4-9.5-6.8-10.4-12.8c-0.7-4.9-0.2-10.1,0.2-15.1c0.3-3.9,1.6-7.6,1.9-11.5
	c0.8-9.1-0.7-17.3-9.3-22.6c-0.8-0.5-1.2-2.2-1.2-3.3c-0.1-7.5,0-28.8-0.1-36.2c0-2.5,0.6-3.3,3.3-3.3c12,0.1,24,0.1,36,0
	c6.4,0,12-5.8,12.1-11.9c0.1-5.3-6.1-11.1-11.9-10.9c-16.5,0.3-33.1,0.1-49.6,0.1c-4.3,0-4.9,0.6-4.9,4.8c0,78.9,0,157.8,0,236.7
	c0,4.3,0.6,4.9,4.8,4.9c33.3,0,66.6,0,99.9,0c1.7,0,8.1-0.5,9.7-0.9c19.1-5.7,30.6-15.7,42.7-31.5c8.2-10.7,12-18.9,16.1-31.6
	c0.7-2.1,1.5-9,1.5-11.2c0.1-40,0-80,0.1-120c0-2.4-0.7-3.2-3.1-3.1c-10.4,0.1-20.7,0-31.1,0c-7.4,0-9.8-2.4-9.8-9.6
	c0-11.5,0-22.9,0-34.4c0,0,0,0,0,0c0-2.2-1.8-3.9-4-3.9c-10,0-19.8-0.1-29.6,0.1c-4.4,0.1-9.5,5.5-10.2,9.7
	c-0.9,5.1,2.1,9.7,8.9,11.9c1.7,0.5,3.6,0.8,5.4,0.9c4.9,0.2,9.8,0.1,14.8,0.1c2.5,0,4.6,2,4.6,4.5V80z M260.6,33.6
	c-1-1.1-2.9-0.4-2.9,1.1c0,5.6,0,11.3,0.1,16.9c0,0.5,1.5,1.3,2.3,1.4c3.7,0.2,7.3,0.1,11,0.1c0.9,0,1.9,0,2.9,0
	c1.7,0,2.6-2.1,1.5-3.3C270.2,44.1,265.4,38.9,260.6,33.6z M284.2,247.1c-3.7,3.5-6,7.5-7.3,12.1c-1,3.5,1.2,6.5,4.9,6.5
	c0.8,0,1.5,0,2.3,0c2.1,0,3.2-1.1,3.3-3.2c0-4.5,0-9,0-14C287.4,246.9,285.4,246,284.2,247.1z"/>
</svg>
