<?xml version="1.0" encoding="utf-8"?>
<!-- Generator: Adobe Illustrator 22.1.0, SVG Export Plug-In . SVG Version: 6.00 Build 0)  -->
<!DOCTYPE svg PUBLIC "-//W3C//DTD SVG 1.1//EN" "http://www.w3.org/Graphics/SVG/1.1/DTD/svg11.dtd">
<svg version="1.1" id="Layer_1" xmlns="http://www.w3.org/2000/svg" xmlns:xlink="http://www.w3.org/1999/xlink" x="0px" y="0px"
	 viewBox="0 0 400 400" style="enable-background:new 0 0 400 400;" xml:space="preserve">
<g>
	<path d="M57,200.1c0-55.1,0-110.3,0-165.4c0-18.6,9.2-27.9,27.7-27.9c62,0,124,0,186-0.1c3.3,0,5.6,0.9,7.9,3.4
		c20.5,22.5,41.2,44.8,61.7,67.3c1.5,1.7,2.6,4.5,2.6,6.8c0.1,94.6,0.1,189.2,0.1,283.8c0,16.5-9.9,26.3-26.6,26.3
		c-77.7,0-155.4,0-233.1,0c-16.5,0-26.4-9.9-26.4-26.5C56.9,311.9,57,256,57,200.1z M246.8,112.5c0,3.3-2.6,5.9-5.9,5.9l-0.1,0
		c-18.9,0.1-37.8,0-56.7,0.3c-10.5,0.1-20.1,3.4-28.7,9.4c-8,5.6-11,13.3-8.4,22.8c1.7,6.3,4.4,12.4,5.9,18.7
		c1.4,5.9,2.7,12,2.5,17.9c-0.7,16.2-15.8,25.3-30.8,19.1c-8.1-3.3-13.4-9.6-14.6-18c-1-6.9-0.3-14.2,0.3-21.3
		c0.4-5.4,2.2-10.8,2.7-16.2c1.1-12.8-0.9-24.4-13.1-31.8c-1.1-0.7-1.7-3-1.7-4.6c-0.1-10.5,0.1-40.6-0.1-51.1
		c-0.1-3.5,0.9-4.7,4.6-4.7c16.9,0.2,33.8,0.1,50.7,0.1c9,0,17-8.1,17.1-16.8c0.1-7.5-8.7-15.6-16.8-15.4
		c-23.3,0.5-46.6,0.2-69.9,0.2c-6.1,0-6.9,0.8-6.9,6.8c0,111.2,0,222.4,0,333.6c0,6.1,0.8,6.9,6.8,6.9c46.9,0,93.8,0,140.8,0
		c2.4,0,11.4-0.7,13.7-1.3c26.9-8,43.1-22.1,60.1-44.4c11.5-15.1,16.9-26.7,22.7-44.5c1-3,2.1-12.7,2.1-15.8
		c0.1-56.4,0.1-112.7,0.2-169.1c0-3.4-1-4.5-4.4-4.4c-14.6,0.2-29.2,0.1-43.9,0.1c-10.4,0-13.8-3.3-13.8-13.6c0-16.1,0-32.3,0-48.4
		c0,0,0,0,0-0.1c0-3-2.5-5.5-5.6-5.5c-14.1,0-27.9-0.2-41.7,0.1c-6.2,0.2-13.3,7.7-14.4,13.7c-1.3,7.2,2.9,13.7,12.6,16.7
		c2.5,0.8,5,1.2,7.6,1.3c6.9,0.3,13.8,0.2,20.8,0.1c3.5,0,6.4,2.8,6.4,6.4V112.5z M285.4,47.1c-1.5-1.6-4.1-0.6-4.2,1.6
		c0,8,0,15.9,0.2,23.9c0,0.7,2.1,1.9,3.3,1.9c5.2,0.2,10.3,0.1,15.5,0.1c1.3,0,2.7,0,4.1,0c2.4,0,3.7-2.9,2.1-4.7
		C299,61.9,292.1,54.5,285.4,47.1z M318.6,348.1c-5.2,5-8.4,10.6-10.3,17c-1.4,5,1.7,9.2,6.9,9.1c1.1,0,2.1,0,3.2,0
		c3,0,4.6-1.6,4.6-4.5c0.1-6.4,0-12.7,0-19.7C323.1,347.7,320.3,346.5,318.6,348.1z"/>
</g>
</svg>
