<?xml version="1.0" encoding="UTF-8" standalone="no"?>
<svg
   xmlns:dc="http://purl.org/dc/elements/1.1/"
   xmlns:cc="http://creativecommons.org/ns#"
   xmlns:rdf="http://www.w3.org/1999/02/22-rdf-syntax-ns#"
   xmlns:svg="http://www.w3.org/2000/svg"
   xmlns="http://www.w3.org/2000/svg"
   viewBox="0 0 682.66669 682.66669"
   height="682.66669"
   width="682.66669"
   xml:space="preserve"
   id="svg2"
   version="1.1"><metadata
     id="metadata8"><rdf:RDF><cc:Work
         rdf:about=""><dc:format>image/svg+xml</dc:format><dc:type
           rdf:resource="http://purl.org/dc/dcmitype/StillImage" /></cc:Work></rdf:RDF></metadata><defs
     id="defs6"><clipPath
       id="clipPath18"
       clipPathUnits="userSpaceOnUse"><path
         id="path16"
         d="M 0,512 H 512 V 0 H 0 Z" /></clipPath></defs><g
     transform="matrix(1.3333333,0,0,-1.3333333,0,682.66667)"
     id="g10"><g
       id="g12"><g
         clip-path="url(#clipPath18)"
         id="g14"><g
           transform="translate(239.02,358.3408)"
           id="g20"><path
             id="path22"
             style="fill:#000000;fill-opacity:1;fill-rule:nonzero;stroke:none"
             d="m 0,0 c 0.229,-1.144 1.227,-1.97 2.393,-1.967 7.887,0.022 18.253,0.189 20.932,0.976 2.915,0.855 4.873,3.028 5.401,5.343 0.669,2.928 -0.681,5.727 -4.513,5.917 -0.957,0.047 -1.918,-0.002 -2.875,0.033 -6.924,0.256 -9.396,2.391 -9.733,9.297 -0.317,6.502 -0.156,13.029 -0.138,19.546 0.033,12.265 -0.131,24.54 0.354,36.789 0.117,2.964 1.819,7.521 3.922,8.302 2.26,0.839 6.629,-1.117 8.741,-3.205 C 43.833,61.898 62.874,42.453 82.059,23.152 84.706,20.49 86.853,17.201 84.584,14.096 83.21,12.215 79.431,11.42 76.695,11.334 69.282,11.1 61.485,12.513 57.013,4.289 56.809,3.913 56.611,3.532 56.413,3.139 55.19,0.721 56.91,-2.141 59.619,-2.168 h 0.046 C 67.331,-2.23 75,-2.1 82.664,-2.247 c 6.356,-0.121 8.172,-2.135 8.17,-8.326 -0.018,-83.076 -0.03,-166.153 -0.033,-249.229 0,-1.691 0.114,-3.378 0.238,-5.064 0.439,-5.954 -1.629,-8.372 -7.787,-8.329 -15.522,0.108 -31.044,0.35 -46.563,0.649 -34.105,0.657 -68.208,1.463 -102.315,1.922 -2.689,0.036 -5.945,-1.545 -8.019,-3.4 -8.461,-7.574 -10.214,-17.973 -11.391,-28.628 -0.838,-7.59 -1.644,-15.283 -3.611,-22.621 -2.407,-8.977 -7.783,-16.051 -17.803,-17.393 -10.368,-1.389 -17.921,3.879 -22.903,12.28 -3.268,5.513 -5.114,11.892 -7.374,17.966 -0.858,2.308 -1.065,4.856 -1.613,7.283 -2.554,11.299 -3.46,11.726 -13.909,6.526 -10.049,-5.002 -20.793,-0.277 -23.857,10.521 -2.419,8.526 -6.088,16.193 -11.382,23.33 -2.001,2.698 -3.136,6.726 -3.117,10.138 0.569,109.241 1.322,218.482 2.07,327.722 0.059,8.61 2.276,10.913 10.855,11.115 34.481,0.811 68.963,1.96 103.447,2.05 9.502,0.025 18.441,10.464 18.453,18.418 0.011,7.639 0.895,15.279 1.488,22.912 0.354,4.571 2.226,7.354 7.522,7.395 22.029,0.172 44.058,0.527 66.084,0.961 31.726,0.625 63.448,1.382 95.172,2.091 1.701,0.038 4.864,0.134 6.565,0.161 5.679,0.089 6.742,-1.494 6.931,-7.898 0.389,-13.213 0.816,-26.425 1.299,-39.635 0.063,-1.733 0.207,-3.464 0.37,-5.211 0.219,-2.359 2.834,-3.723 4.864,-2.502 5.145,3.094 7.776,7.936 7.837,14.154 0.093,9.39 -0.045,18.799 0.544,28.16 0.193,3.07 0.889,7.248 3.69,8.551 3.15,1.465 8.357,-0.306 10.892,-2.577 9.55,-8.558 18.389,-17.908 27.487,-26.967 9.508,-9.466 19.015,-18.932 28.509,-28.411 2.989,-2.984 6.588,-5.898 4.413,-10.816 -2.013,-4.554 -6.331,-4.212 -10.401,-4.202 -11.92,0.026 -23.84,0.013 -35.743,0.011 -2.316,-10e-4 -4.176,-2.075 -3.754,-4.352 0.391,-2.112 1.948,-3.496 4.327,-4.273 2.86,-0.934 5.98,-1.419 8.995,-1.469 10.347,-0.174 20.699,-0.014 31.049,-0.089 8.075,-0.058 11.815,-3.82 12.114,-11.966 0.056,-1.532 0.017,-3.066 0.017,-4.6 10e-4,-81.074 10e-4,-162.149 -0.001,-243.223 0,-1.725 0.221,-3.497 -0.093,-5.166 -2.182,-11.603 -4.157,-13.44 -13.182,-11.799 -6.317,1.149 -13.009,0.623 -19.5,0.244 -2.385,-0.139 -5.127,-1.512 -6.917,-3.172 -5.474,-5.08 -7.183,-12.042 -8.389,-19.112 -0.934,-5.477 -1.482,-11.044 -2.804,-16.423 -0.945,-3.848 -2.362,-7.787 -4.482,-11.101 -6.97,-10.889 -20.834,-11.962 -28.447,-1.542 -3.765,5.155 -5.521,12.032 -7.196,18.391 -1.842,6.996 -1.796,14.527 -3.95,21.394 -2.296,7.313 -5.861,14.144 -15.667,14.197 -5.054,0.026 -6.034,4.127 -6.005,8.709 0.166,26.448 0.172,52.898 0.195,79.347 0.042,46.959 0.011,93.917 0.167,140.874 0.013,3.969 -1.148,6.738 -3.961,9.518 -27.672,27.349 -55.249,54.795 -82.735,82.329 -2.785,2.79 -5.553,4.128 -9.537,4.016 -9.193,-0.257 -18.398,-0.025 -27.597,-0.106 -6.009,-0.053 -9.848,-6.431 -6.828,-11.67 0.668,-1.159 3.098,-1.858 4.703,-1.834 C -5.593,88.165 -2.866,85.439 -2.558,73.448 -1.946,49.697 -1.101,25.953 -0.323,2.207 -0.301,1.531 -0.172,0.858 0,0" /></g></g></g></g></svg>