<?xml version="1.0" encoding="UTF-8" standalone="no"?>
<svg
   xmlns:dc="http://purl.org/dc/elements/1.1/"
   xmlns:cc="http://creativecommons.org/ns#"
   xmlns:rdf="http://www.w3.org/1999/02/22-rdf-syntax-ns#"
   xmlns:svg="http://www.w3.org/2000/svg"
   xmlns="http://www.w3.org/2000/svg"
   viewBox="0 0 533.33331 533.33331"
   height="533.33331"
   width="533.33331"
   xml:space="preserve"
   id="svg2"
   version="1.1"><metadata
     id="metadata8"><rdf:RDF><cc:Work
         rdf:about=""><dc:format>image/svg+xml</dc:format><dc:type
           rdf:resource="http://purl.org/dc/dcmitype/StillImage" /></cc:Work></rdf:RDF></metadata><defs
     id="defs6"><clipPath
       id="clipPath18"
       clipPathUnits="userSpaceOnUse"><path
         id="path16"
         d="M 0,400 H 400 V 0 H 0 Z" /></clipPath></defs><g
     transform="matrix(1.3333333,0,0,-1.3333333,0,533.33333)"
     id="g10"><g
       id="g12"><g
         clip-path="url(#clipPath18)"
         id="g14"><g
           transform="translate(314.2949,159.6152)"
           id="g20"><path
             id="path22"
             style="fill:#000000;fill-opacity:1;fill-rule:nonzero;stroke:none"
             d="m 0,0 c -0.184,-11.648 -1.037,-23.285 -1.585,-34.927 -0.07,-1.496 0.3,-2.997 -2.225,-3.038 -8.126,-0.131 -16.256,-0.371 -24.366,-0.878 -4.248,-0.265 -6.866,1.677 -8.177,5.275 -3.175,8.714 -3.192,17.007 3.426,24.545 9.414,10.719 9.41,10.91 0.053,21.161 -14.898,16.32 -30.044,32.415 -44.888,48.785 -4.935,5.442 -9.215,11.474 -13.89,17.157 -2.016,2.448 -1.915,4.608 0.107,6.949 8.213,9.513 16.313,19.124 24.6,28.572 4.451,5.073 9.151,9.931 13.851,14.777 0.848,0.874 2.011,2.375 3.386,1.805 1.375,-0.571 1.777,-2.787 1.94,-4.26 0.178,-1.601 -0.468,-3.308 -0.831,-4.951 -0.561,-2.547 -1.391,-5.05 -1.745,-7.622 -0.984,-7.167 1.545,-12.356 6.892,-14.609 5.458,-2.3 12.43,-0.404 16.593,4.647 4.307,5.227 5.248,11.354 4.111,17.808 -0.61,3.461 -1.595,6.885 -2.718,10.221 -2.712,8.052 -2.478,15.97 0.453,23.902 2.074,5.607 1.139,6.675 -3.057,11.071 -4.953,5.189 -9.082,11.171 -13.48,16.878 -1.683,2.185 -3.056,4.606 -4.687,6.836 -2.645,3.615 -4.981,4.1 -8.556,1.439 -1.673,-1.245 -3.12,-2.968 -4.247,-4.743 -8.474,-13.345 -16.829,-26.765 -25.254,-40.141 -1.388,-2.204 -2.82,-4.398 -4.433,-6.438 -5.61,-7.102 -11.221,-14.206 -17.017,-21.156 -2.145,-2.571 -4.786,-4.73 -7.229,-7.048 -1.886,-1.791 -3.882,-1.811 -5.678,0.045 -3.614,3.732 -7.198,7.499 -10.684,11.351 -17.023,18.8 -28.398,41.459 -42.506,62.252 -1.445,2.129 -3.055,4.302 -5.048,5.867 -3.53,2.771 -5.787,2.229 -8.515,-1.425 -5.324,-7.13 -10.621,-14.279 -15.945,-21.409 -0.638,-0.853 -1.274,-1.753 -2.081,-2.426 -4.267,-3.553 -4.527,-5.102 -0.777,-9.248 10.707,-11.837 21.624,-23.486 32.25,-35.394 10.516,-11.781 20.749,-23.813 31.173,-35.676 2.653,-3.02 2.846,-5.731 0.118,-8.849 -8.074,-9.229 -15.879,-18.697 -24.064,-27.827 -13.112,-14.627 -26.452,-29.049 -39.679,-43.573 -3.451,-3.789 -2.829,-5.34 0.665,-9.009 4.411,-4.631 8.476,-9.731 11.877,-15.14 2.994,-4.763 1.313,-11.205 -3.41,-14.893 -4.105,-3.206 -8.731,-5.574 -14.288,-5.26 -5.97,0.337 -11.95,0.666 -17.925,0.67 -2.781,0.002 -2.425,1.657 -2.484,3.309 -0.628,17.633 -1.534,35.263 -1.797,52.901 0,0 -0.741,56.948 -0.723,63.084 0.019,6.135 0.658,57.715 1.161,86.569 0.175,9.964 0.911,19.918 1.345,29.879 0.08,1.846 0.147,2.973 2.724,3.059 15.18,0.508 30.35,1.303 45.524,1.985 9.967,0.448 19.953,0.62 29.896,1.37 10.076,0.761 30.919,1.065 25.419,1.065 -5.5,0 12.505,0.466 20.63,0.216 8.125,-0.25 21.397,-1.154 35.33,-1.87 20.08,-1.032 40.165,-1.967 60.249,-2.92 2.709,-0.128 6.418,0.918 7.862,-0.464 1.49,-1.424 0.932,-5.146 1.005,-7.869 0.577,-21.458 1.115,-42.916 1.613,-64.375 C 0.549,115.735 0.982,103.455 0.92,91.179 0.765,60.785 0.479,30.39 0,0 m -59.209,-23.963 c -2.638,-11.768 -10.119,-19.131 -20.45,-23.776 -3.407,-1.532 -7.828,-0.811 -11.472,-1.095 -3.856,0.239 -7.373,0.608 -10.892,0.647 -8.265,0.091 -16.532,-0.002 -24.797,0.027 -11.025,0.037 -22.051,0.031 -33.071,0.295 -1.394,0.033 -3.008,1.341 -4.086,2.471 -8.877,9.321 -10.159,20.659 -7.879,32.601 0.755,3.956 2.551,7.858 4.551,11.4 4.597,8.142 9.532,16.098 14.497,24.025 1.945,3.105 4.272,5.982 6.543,8.87 4.075,5.18 8.027,10.478 12.422,15.377 4.996,5.57 10.331,10.847 15.7,16.066 2.313,2.249 5.638,1.421 8.52,-1.236 18.779,-17.305 32.974,-38.058 46.373,-59.62 5.391,-8.676 6.15,-16.641 4.041,-26.052 m 91.928,110.33 c -0.324,34.974 -2.602,69.934 -4.276,104.888 -0.476,9.949 -1.827,19.855 -2.718,29.786 -0.156,1.72 0.78,4.704 -0.023,5.832 -0.802,1.128 -2.985,1.891 -4.979,2.089 -14.339,1.428 -28.683,3.372 -43.06,3.717 -33.605,0.807 -67.229,0.95 -100.847,1.098 -36.835,0.161 -73.677,0.015 -110.427,-2.909 -7.316,-0.582 -20.2,-2.231 -21.009,-3.888 -0.809,-1.655 0.103,-4.146 -0.031,-5.87 -0.119,-1.52 -0.661,-3.01 -0.746,-4.528 -2.074,-36.928 -5.267,-73.839 -5.831,-110.79 -0.569,-37.263 1.258,-74.572 2.487,-111.846 0.495,-15.018 2.22,-29.996 3.317,-44.997 0.236,-3.235 -0.405,-7.843 0.819,-9.794 1.224,-1.951 5.847,-3.677 8.974,-5.579 7.472,-4.546 11.22,-11.48 11.184,-19.95 -0.027,-6.067 -1.343,-12.15 -2.333,-18.186 -1.017,-6.202 -2.747,-12.308 -3.442,-18.538 -1.68,-15.054 7.709,-27.936 21.257,-29.762 10.795,-1.456 19.676,5.574 20.085,16.437 0.164,4.367 -0.586,8.862 -1.556,13.155 -1.112,4.924 -3.335,9.609 -4.307,14.548 -0.718,3.654 -0.32,10.179 -0.126,11.329 0.193,1.151 1.535,2.406 2.369,2.406 0.833,-0.001 1.634,-1.492 1.884,-2.394 0.903,-3.248 1.194,-6.706 2.395,-9.822 1.576,-4.09 3.121,-8.505 5.884,-11.757 5.381,-6.335 14.087,-4.333 16.706,3.583 0.933,2.819 1.203,6.068 0.915,9.038 -0.56,5.791 -1.858,11.507 -2.604,17.286 -0.689,5.335 0.194,10.952 5.247,13.277 7.233,3.328 14.994,6.718 22.764,7.394 13.562,1.18 27.305,0.128 40.967,0.337 31.762,0.485 63.52,1.157 95.279,1.773 5.55,0.109 9.549,-4.092 8.778,-9.876 -0.503,-3.776 -1.905,-7.422 -2.638,-11.179 -0.727,-3.738 -1.671,-7.558 -1.545,-11.309 0.253,-7.527 6.164,-12.687 13.685,-12.659 9.524,0.035 16.922,8.448 15.667,18.205 -0.546,4.24 -1.853,8.38 -2.771,12.574 -0.987,4.514 -0.913,8.848 2.226,12.659 2.719,3.299 6.14,5.954 5.219,11.352 -0.589,3.45 1.024,7.228 1.307,10.884 1.08,13.925 2.358,27.845 2.944,41.793 1.263,30.056 3.187,60.139 2.91,90.193" /></g></g></g></g></svg>