<?xml version="1.0" encoding="utf-8"?>
<!-- Generator: Adobe Illustrator 23.0.6, SVG Export Plug-In . SVG Version: 6.00 Build 0)  -->
<svg version="1.1" id="Layer_1" xmlns="http://www.w3.org/2000/svg" xmlns:xlink="http://www.w3.org/1999/xlink" x="0px" y="0px"
	 viewBox="0 0 400 400" style="enable-background:new 0 0 400 400;" xml:space="preserve">
<g>
	<path d="M347.01,160.6c-0.32-34.97-2.6-69.93-4.28-104.89c-0.48-9.95-1.83-13.59-2.72-23.52c-0.15-1.72,0.78-4.7-0.02-5.83
		c-0.8-1.13-2.99-1.89-4.98-2.09c-14.34-1.43-28.68-3.37-43.06-3.72c-33.61-0.81-67.23-0.95-100.85-1.1
		c-36.84-0.16-73.68-0.02-110.43,2.91c-7.32,0.58-20.2,2.23-21.01,3.89c-0.81,1.66,0.1,4.15-0.03,5.87
		c-0.12,1.52-0.66,3.01-0.75,4.53c-2.07,36.93-5.27,67.57-5.83,104.53c-0.57,37.26,1.26,74.57,2.49,111.85
		c0.5,15.02,2.22,18.75,3.32,33.75c0.24,3.24-0.4,7.84,0.82,9.79s5.85,3.68,8.97,5.58c7.47,4.55,11.22,11.48,11.18,19.95
		c-0.03,6.07-1.34,12.15-2.33,18.19c-1.02,6.2-2.75,12.31-3.44,18.54c-1.68,15.05,7.71,27.94,21.26,29.76
		c10.79,1.46,19.68-5.57,20.08-16.44c0.16-4.37-0.59-8.86-1.56-13.16c-1.11-4.92-3.34-9.61-4.31-14.55
		c-0.72-3.65-0.32-10.18-0.13-11.33c0.19-1.15,1.54-2.41,2.37-2.4c0.83,0,1.63,1.49,1.89,2.39c0.9,3.25,1.19,6.71,2.39,9.82
		c1.58,4.09,3.12,8.5,5.88,11.76c5.38,6.34,14.09,4.33,16.71-3.58c0.93-2.82,1.2-6.07,0.92-9.04c-0.56-5.79-1.86-11.51-2.6-17.29
		c-0.69-5.34,0.19-10.95,5.25-13.28c7.23-3.33,14.99-6.72,22.76-7.39c13.56-1.18,27.31-0.13,40.97-0.34
		c31.76-0.49,63.52-1.16,95.28-1.77c5.55-0.11,9.55,4.09,8.78,9.88c-0.5,3.78-1.91,7.42-2.64,11.18c-0.73,3.74-1.67,7.56-1.55,11.31
		c0.25,7.53,6.16,12.69,13.68,12.66c9.52-0.04,16.92-8.45,15.67-18.21c-0.55-4.24-1.85-8.38-2.77-12.57
		c-0.99-4.51-0.91-8.85,2.23-12.66c2.72-3.3,6.14-5.96,5.22-11.35c-0.59-3.45,1.02-7.23,1.31-10.88c1.08-13.92,2.36-16.6,2.94-30.55
		C345.37,220.74,347.29,190.65,347.01,160.6z M255.09,270.93c-2.64,11.77-8.39,10.6-14.11,11.61c-3.81,0.68-8.82,1.22-12.83,1.59
		c-3.22,0.3-6.46,0.32-9.69,0.09c-2.11-0.15-4.15-0.29-6.19-0.31c-8.26-0.09-16.53,0-24.8-0.03c-11.02-0.04-22.05-0.03-33.07-0.29
		c-1.39-0.03-3.01-1.34-4.09-2.47c-8.88-9.32-10.16-9.41-7.88-21.35c0.76-3.96,2.55-7.86,4.55-11.4c4.52-8,9.36-15.82,14.24-23.61
		c1.51-2.42,3.17-4.74,4.96-6.96c4.74-5.9,9.21-12.06,14.26-17.7c5-5.57,10.33-10.85,15.7-16.07c2.31-2.25,5.64-1.42,8.52,1.24
		c18.78,17.31,32.97,38.06,46.37,59.62C256.44,253.55,257.2,261.52,255.09,270.93z M314.29,246.97
		c-0.18,11.65-1.04,12.04-1.58,23.68c-0.07,1.5,0.3,3-2.23,3.04c-8.13,0.13-16.26,0.37-24.37,0.88c-4.25,0.27-6.87-1.68-8.18-5.27
		c-3.18-8.72-3.19-5.76,3.43-13.3c9.41-10.72,9.41-10.91,0.05-21.16c-14.9-16.32-30.04-32.42-44.89-48.79
		c-4.93-5.44-9.21-11.47-13.89-17.16c-2.02-2.45-1.91-4.61,0.11-6.95c8.21-9.51,16.31-19.12,24.6-28.57
		c4.45-5.07,9.15-9.93,13.85-14.78c0.85-0.87,2.01-2.37,3.39-1.8c1.38,0.57,1.78,2.79,1.94,4.26c0.18,1.6-0.47,3.31-0.83,4.95
		c-0.56,2.55-1.39,5.05-1.75,7.62c-0.98,7.17,1.54,12.36,6.89,14.61c5.46,2.3,12.43,0.4,16.59-4.65c4.31-5.23,5.25-11.35,4.11-17.81
		c-0.61-3.46-1.59-6.88-2.72-10.22c-2.71-8.05-2.48-15.97,0.45-23.9c2.07-5.61,1.14-6.67-3.06-11.07
		c-4.95-5.19-9.08-11.17-13.48-16.88c-1.68-2.18-3.06-4.61-4.69-6.84c-2.64-3.62-4.98-4.1-8.56-1.44c-1.67,1.24-3.12,2.97-4.25,4.74
		c-8.47,13.35-16.83,26.77-25.25,40.14c-1.39,2.2-2.82,4.4-4.43,6.44c-5.61,7.1-11.22,14.21-17.02,21.16
		c-2.14,2.57-4.79,4.73-7.23,7.05c-1.89,1.79-3.88,1.81-5.68-0.04c-3.61-3.73-7.2-7.5-10.68-11.35
		c-17.02-18.8-28.4-41.46-42.51-62.25c-1.44-2.13-3.05-4.3-5.05-5.87c-3.53-2.77-5.79-2.23-8.51,1.43
		c-5.32,7.13-10.62,14.28-15.95,21.41c-0.64,0.85-1.27,1.75-2.08,2.43c-4.27,3.55-4.53,5.1-0.78,9.25
		c10.71,11.84,21.62,23.49,32.25,35.39c10.51,11.78,20.75,23.81,31.17,35.68c2.65,3.02,2.85,5.73,0.12,8.85
		c-8.07,9.23-15.88,18.7-24.06,27.83c-13.11,14.63-26.45,29.05-39.68,43.57c-3.45,3.79-2.83,5.34,0.67,9.01
		c4.41,4.63,8.48,9.73,11.88,15.14c2.99,4.76-0.68,6.29-3.61,7.8c-2.93,1.51-8.53,1.41-14.09,1.1c-5.97-0.34-11.95-0.67-17.92-0.67
		c-2.78,0-2.42-1.66-2.48-3.31c-0.63-17.63-1.53-24.02-1.8-41.65c0,0-0.74-56.95-0.72-63.08c0.02-6.14,0.66-57.71,1.16-86.57
		c0.17-9.96,0.91-13.65,1.34-23.62c0.08-1.85,0.15-2.97,2.72-3.06c15.18-0.51,30.35-1.3,45.52-1.98c9.97-0.45,19.95-0.62,29.9-1.37
		c10.08-0.76,30.92-1.06,25.42-1.06s12.51-0.47,20.63-0.22s21.4,1.15,35.33,1.87c20.08,1.03,40.17,1.97,60.25,2.92
		c2.71,0.13,6.42-0.92,7.86,0.46c1.49,1.42,0.93-1.12,1,1.61c0.58,21.46,1.11,42.92,1.61,64.38c0.28,12.28,0.72,24.56,0.66,36.83
		C315.06,186.18,314.77,216.58,314.29,246.97z"/>
</g>
</svg>
