<?xml version="1.0" encoding="utf-8"?>
<!-- Generator: Adobe Illustrator 23.0.6, SVG Export Plug-In . SVG Version: 6.00 Build 0)  -->
<svg version="1.1" id="Layer_1" xmlns="http://www.w3.org/2000/svg" xmlns:xlink="http://www.w3.org/1999/xlink" x="0px" y="0px"
	 viewBox="0 0 400 400" style="enable-background:new 0 0 400 400;" xml:space="preserve">
<path d="M334.8,146.8c-0.3-31.4-2.4-62.9-4-94.3c-0.4-8.9-1.7-12.2-2.5-21.1c-0.1-1.5,0.7-4.2,0-5.2c-0.7-1-2.8-1.7-4.6-1.9
	c-13.3-1.3-26.6-3-39.9-3.3c-31.2-0.7-62.3-0.9-93.5-1c-34.2-0.1-68.3,0-102.4,2.6c-6.8,0.5-18.7,2-19.5,3.5c-0.8,1.5,0.1,3.7,0,5.3
	c-0.1,1.4-0.6,2.7-0.7,4.1c-1.9,33.2-4.9,60.7-5.4,93.9c-0.5,33.5,1.2,67,2.3,100.5c0.5,13.5,2.1,16.9,3.1,30.3
	c0.2,2.9-0.4,7,0.8,8.8c1.1,1.8,5.4,3.3,8.3,5c6.9,4.1,10.4,10.3,10.4,17.9c0,5.5-1.2,10.9-2.2,16.3c-0.9,5.6-2.5,11.1-3.2,16.7
	c-1.6,13.5,7.1,25.1,19.7,26.8c10,1.3,18.2-5,18.6-14.8c0.2-3.9-0.5-8-1.4-11.8c-1-4.4-3.1-8.6-4-13.1c-0.7-3.3-0.3-9.1-0.1-10.2
	c0.2-1,1.4-2.2,2.2-2.2c0.8,0,1.5,1.3,1.7,2.2c0.8,2.9,1.1,6,2.2,8.8c1.5,3.7,2.9,7.6,5.5,10.6c5,5.7,13.1,3.9,15.5-3.2
	c0.9-2.5,1.1-5.5,0.8-8.1c-0.5-5.2-1.7-10.3-2.4-15.5c-0.6-4.8,0.2-9.8,4.9-11.9c6.7-3,13.9-6,21.1-6.6c12.6-1.1,25.3-0.1,38-0.3
	c29.4-0.4,58.9-1,88.3-1.6c5.1-0.1,8.9,3.7,8.1,8.9c-0.5,3.4-1.8,6.7-2.4,10c-0.7,3.4-1.5,6.8-1.4,10.2c0.2,6.8,5.7,11.4,12.7,11.4
	c8.8,0,15.7-7.6,14.5-16.4c-0.5-3.8-1.7-7.5-2.6-11.3c-0.9-4.1-0.8-8,2.1-11.4c2.5-3,5.7-5.4,4.8-10.2c-0.5-3.1,0.9-6.5,1.2-9.8
	c1-12.5,2.2-14.9,2.7-27.5C333.3,200.8,335.1,173.8,334.8,146.8z M249.6,245.9c-2.4,10.6-7.8,9.5-13.1,10.4
	c-3.5,0.6-8.2,1.1-11.9,1.4c-3,0.3-6,0.3-9,0.1c-2-0.1-3.8-0.3-5.7-0.3c-7.7-0.1-15.3,0-23,0c-10.2,0-20.4,0-30.7-0.3
	c-1.3,0-2.8-1.2-3.8-2.2c-8.2-8.4-9.4-8.5-7.3-19.2c0.7-3.6,2.4-7.1,4.2-10.2c4.2-7.2,8.7-14.2,13.2-21.2c1.4-2.2,2.9-4.3,4.6-6.3
	c4.4-5.3,8.5-10.8,13.2-15.9c4.6-5,9.6-9.7,14.6-14.4c2.1-2,5.2-1.3,7.9,1.1c17.4,15.6,30.6,34.2,43,53.6
	C250.8,230.3,251.5,237.5,249.6,245.9z M304.5,224.4c-0.2,10.5-1,10.8-1.5,21.3c-0.1,1.3,0.3,2.7-2.1,2.7
	c-7.5,0.1-15.1,0.3-22.6,0.8c-3.9,0.2-6.4-1.5-7.6-4.7c-2.9-7.8-3-5.2,3.2-12c8.7-9.6,8.7-9.8,0-19c-13.8-14.7-27.9-29.1-41.6-43.8
	c-4.6-4.9-8.5-10.3-12.9-15.4c-1.9-2.2-1.8-4.1,0.1-6.2c7.6-8.5,15.1-17.2,22.8-25.7c4.1-4.6,8.5-8.9,12.8-13.3
	c0.8-0.8,1.9-2.1,3.1-1.6s1.6,2.5,1.8,3.8c0.2,1.4-0.4,3-0.8,4.5c-0.5,2.3-1.3,4.5-1.6,6.9c-0.9,6.4,1.4,11.1,6.4,13.1
	c5.1,2.1,11.5,0.4,15.4-4.2c4-4.7,4.9-10.2,3.8-16c-0.6-3.1-1.5-6.2-2.5-9.2c-2.5-7.2-2.3-14.4,0.4-21.5c1.9-5,1.1-6-2.8-10
	c-4.6-4.7-8.4-10-12.5-15.2c-1.6-2-2.8-4.1-4.3-6.1c-2.5-3.2-4.6-3.7-7.9-1.3c-1.6,1.1-2.9,2.7-3.9,4.3c-7.9,12-15.6,24.1-23.4,36.1
	c-1.3,2-2.6,4-4.1,5.8c-5.2,6.4-10.4,12.8-15.8,19c-2,2.3-4.4,4.3-6.7,6.3c-1.7,1.6-3.6,1.6-5.3,0c-3.4-3.4-6.7-6.7-9.9-10.2
	c-15.8-16.9-26.3-37.3-39.4-56c-1.3-1.9-2.8-3.9-4.7-5.3c-3.3-2.5-5.4-2-7.9,1.3c-4.9,6.4-9.8,12.8-14.8,19.2
	c-0.6,0.8-1.2,1.6-1.9,2.2c-4,3.2-4.2,4.6-0.7,8.3c9.9,10.6,20,21.1,29.9,31.8c9.7,10.6,19.2,21.4,28.9,32.1c2.5,2.7,2.6,5.2,0.1,8
	c-7.5,8.3-14.7,16.8-22.3,25c-12.2,13.1-24.5,26.1-36.8,39.2c-3.2,3.4-2.6,4.8,0.6,8.1c4.1,4.2,7.9,8.7,11,13.6
	c2.8,4.3-0.6,5.7-3.3,7c-2.7,1.4-7.9,1.3-13.1,1c-5.5-0.3-11.1-0.6-16.6-0.6c-2.6,0-2.2-1.5-2.3-3c-0.6-15.8-1.4-21.6-1.7-37.4
	c0,0-0.7-51.2-0.7-56.7c0-5.5,0.6-51.9,1.1-77.8c0.2-9,0.8-12.3,1.2-21.2c0.1-1.7,0.1-2.7,2.5-2.7c14.1-0.5,28.1-1.2,42.2-1.8
	c9.2-0.4,18.5-0.6,27.7-1.2c9.3-0.7,28.7-1,23.6-1s11.6-0.4,19.1-0.2s19.8,1,32.8,1.7c18.6,0.9,37.2,1.8,55.9,2.6
	c2.5,0.1,6-0.8,7.3,0.4c1.4,1.3,0.9-1,0.9,1.4c0.5,19.3,1,38.6,1.5,57.9c0.3,11,0.7,22.1,0.6,33.1
	C305.2,169.8,304.9,197.1,304.5,224.4z"/>
</svg>
