<?xml version="1.0" encoding="utf-8"?>
<!-- Generator: Adobe Illustrator 22.1.0, SVG Export Plug-In . SVG Version: 6.00 Build 0)  -->
<!DOCTYPE svg PUBLIC "-//W3C//DTD SVG 1.1//EN" "http://www.w3.org/Graphics/SVG/1.1/DTD/svg11.dtd">
<svg version="1.1" id="Layer_1" xmlns="http://www.w3.org/2000/svg" xmlns:xlink="http://www.w3.org/1999/xlink" x="0px" y="0px"
	 viewBox="0 0 400 400" enable-background="new 0 0 400 400" xml:space="preserve">
<g>
	<path d="M352.5,238.8c-0.1-4.9,0-8-0.7-11.9c-1-5.5-4.9-7.1-9.8-4.2c-1.6,0.9-3,2.3-4.3,3.6c-40.6,41-81,82.1-122,122.8
		c-8.5,8.4-18.3,15.9-28.6,21.9c-6.1,3.5-15,5-22.4,5.5c-10.2,0.7-21.4,1-29.4,0.3c-8-0.8-19.7-2.4-28-5.7
		C96.6,367,87,360.2,78.4,351.6c-21.1-21.1-41.1-43.3-61.5-65.1c-11.4-12.2-11.3-27.9,0.5-39.7c71.9-72,143.9-143.9,215.9-215.9
		c10.9-10.9,26.8-11.1,38.1,0.2c23.7,23.5,47.2,47.3,70.7,71c12.5,12.6,24.8,25.4,37.6,37.7c10,9.5,13.5,20.7,11.3,34
		c-0.2,1.4-0.3,2.9-0.7,4.3c-5.9,19.1-6,38-0.8,57.4c2.2,8.4,0.6,17.1-4,24.8c-4,6.5-10.1,9.6-16,9.2c-5.4-0.4-11.4-3.8-13.5-10
		C353.8,253.3,352.6,243.8,352.5,238.8z M145.6,350.9c5.9,0,14.9-0.6,20.4-2c5.5-1.4,10.8-3,16.4-7.5c3.9-3.1,7.6-6.5,11.1-10.1
		c15.4-15.9,30.6-32,46.1-47.8c3.3-3.4,3.7-5.3,0.1-8.8c-19.8-19.5-39.5-39.1-59-58.9c-4.5-4.6-9.7-6.4-15.6-7
		c-9.8-1-15.9,4.8-14.8,14.5c0.7,5.7,3.4,11.2,4.5,16.9c1.1,5.7,2.4,11.6,1.7,17.2c-1.6,11.9-14.6,16.5-23.1,8
		c-4.1-4.1-6.1-8.3-7.5-14.1c-1.2-5.1-0.5-13,0-18.4c0.9-11.1,2-22.2-3.4-32.6c-4-7.8-11.1-8.7-17.4-2.5
		c-6.7,6.6-11.4,10.6-17.6,17.7c-3.3,3.8-8.6,10.9-9.7,15.7c-8.4,36.5-1,70.3,19.8,100.8c7.2,10.6,17.2,14,24,15.8
		C128.6,349.6,140.4,350.9,145.6,350.9z M54.3,270.2c0-1.9-0.3-3.9-0.8-5.4c-0.7-1.9-1.6-3.6-2.5-5.4c-0.8-1.5-2.7-2-4.1-1.1
		c-1.3,0.8-2.5,1.6-3.6,2.6c-8.7,8.4-8.6,8.4,0.3,17.3c4.4,4.4,8.1,3.6,9.6-2.2C53.7,273.9,54.3,272.1,54.3,270.2z"/>
</g>
</svg>
