<?xml version="1.0" encoding="utf-8"?>
<!-- Generator: Adobe Illustrator 23.0.6, SVG Export Plug-In . SVG Version: 6.00 Build 0)  -->
<svg version="1.1" id="Layer_1" xmlns="http://www.w3.org/2000/svg" xmlns:xlink="http://www.w3.org/1999/xlink" x="0px" y="0px"
	 viewBox="0 0 400 400" style="enable-background:new 0 0 400 400;" xml:space="preserve">
<path d="M309.4,170.7c-0.1-3.5,0-5.7-0.5-8.5c-0.7-4-3.5-5.1-7-3c-1.1,0.7-2.1,1.6-3.1,2.6c-29.2,29.4-58.2,58.9-87.5,88.1
	c-6.1,6-13.1,11.4-20.5,15.7c-4.4,2.5-10.8,3.6-16.1,4c-7.3,0.5-15.3,0.7-21.1,0.2s-14.1-1.7-20.1-4.1c-7.7-3-14.6-7.9-20.8-14.1
	c-15.1-15.1-29.5-31.1-44.2-46.7c-8.2-8.7-8.1-20,0.3-28.5c51.6-51.7,103.3-103.3,154.9-154.9c7.9-7.9,19.2-7.9,27.3,0.1
	c17,16.9,33.9,33.9,50.8,50.9c9,9,17.8,18.2,27,27c7.1,6.8,9.7,14.8,8.1,24.4c-0.2,1-0.2,2.1-0.5,3.1c-4.3,13.7-4.3,27.3-0.6,41.2
	c1.6,6,0.5,12.3-2.9,17.8c-2.8,4.7-7.2,6.9-11.4,6.6c-3.8-0.3-8.2-2.7-9.7-7.2C310.3,181,309.5,174.2,309.4,170.7z M161,251.1
	c4.2,0,10.7-0.4,14.6-1.4c4-1,7.7-2.2,11.8-5.4c2.8-2.2,5.5-4.7,8-7.2c11.1-11.4,22-23,33.1-34.3c2.4-2.4,2.6-3.8,0.1-6.3
	c-14.2-14-28.4-28-42.3-42.3c-3.2-3.3-7-4.6-11.2-5c-7-0.7-11.4,3.4-10.6,10.4c0.5,4.1,2.4,8,3.2,12.1c0.8,4.1,1.8,8.4,1.2,12.3
	c-1.2,8.5-10.5,11.8-16.6,5.7c-2.9-2.9-4.4-5.9-5.4-10.1c-0.9-3.6-0.3-9.3,0-13.2c0.7-8,1.4-16-2.4-23.4c-2.9-5.6-8-6.2-12.5-1.8
	c-4.8,4.7-8.2,7.6-12.6,12.7c-2.4,2.7-6.2,7.8-7,11.3c-6.1,26.2-0.7,50.4,14.2,72.4c5.2,7.6,12.3,10,17.2,11.3
	C148.7,250.2,157.2,251.1,161,251.1z M95.4,193.2c0-1.4-0.2-2.8-0.6-3.9c-0.5-1.3-1.1-2.6-1.8-3.9c-0.6-1.1-1.9-1.5-2.9-0.8
	c-0.9,0.6-1.8,1.2-2.6,1.9c-6.2,6-6.2,6.1,0.2,12.4c3.2,3.1,5.8,2.6,6.9-1.6C95,195.9,95.4,194.5,95.4,193.2z"/>
</svg>
