<?xml version="1.0" encoding="UTF-8" standalone="no"?>
<svg
   xmlns:dc="http://purl.org/dc/elements/1.1/"
   xmlns:cc="http://creativecommons.org/ns#"
   xmlns:rdf="http://www.w3.org/1999/02/22-rdf-syntax-ns#"
   xmlns:svg="http://www.w3.org/2000/svg"
   xmlns="http://www.w3.org/2000/svg"
   viewBox="0 0 533.33331 533.33331"
   height="533.33331"
   width="533.33331"
   xml:space="preserve"
   id="svg2"
   version="1.1"><metadata
     id="metadata8"><rdf:RDF><cc:Work
         rdf:about=""><dc:format>image/svg+xml</dc:format><dc:type
           rdf:resource="http://purl.org/dc/dcmitype/StillImage" /></cc:Work></rdf:RDF></metadata><defs
     id="defs6"><clipPath
       id="clipPath18"
       clipPathUnits="userSpaceOnUse"><path
         id="path16"
         d="M 0,400 H 400 V 0 H 0 Z" /></clipPath></defs><g
     transform="matrix(1.3333333,0,0,-1.3333333,0,533.33333)"
     id="g10"><g
       id="g12"><g
         clip-path="url(#clipPath18)"
         id="g14"><g
           transform="translate(387.5908,140.2832)"
           id="g20"><path
             id="path22"
             style="fill:#000000;fill-opacity:1;fill-rule:nonzero;stroke:none"
             d="m 0,0 c 0.021,-2.034 -0.091,-4.069 -0.12,-6.104 -0.032,-2.192 -1.339,-3.185 -3.376,-2.381 -3.497,1.381 -6.995,2.774 -10.409,4.344 -3.77,1.736 -9.621,0.163 -11.591,-3.575 -0.992,-1.882 -1.761,-4.064 -1.916,-6.165 -0.328,-4.426 -0.105,-8.89 -0.258,-13.333 -0.146,-4.246 -1.344,-8.14 -4.357,-11.33 -4.372,-4.625 -13.649,-5.506 -16.406,2.591 -0.972,2.856 -0.551,6.397 -0.032,9.502 0.753,4.507 2.597,8.844 3.22,13.356 1.207,8.743 -2.472,16.168 -7.305,23.119 -0.687,0.989 -1.532,1.877 -2.145,2.907 -3.737,6.27 -10.228,8.686 -16.328,11.525 -18.467,8.593 -36.967,17.118 -55.535,25.489 -10.136,4.571 -20.395,8.876 -30.683,13.096 -4.426,1.815 -8.808,1.491 -12.571,-1.938 -4.899,-4.466 -8.005,-10.14 -10.558,-16.112 -4.648,-10.871 -7.499,-22.203 -8.112,-34.047 -0.365,-7.063 -0.693,-14.129 -1.004,-21.194 -0.083,-1.889 -1.351,-2.935 -3.138,-2.242 -3.574,1.386 -7.145,2.804 -10.621,4.415 -3.863,1.791 -9.788,0.149 -11.715,-3.73 -0.98,-1.97 -1.695,-4.232 -1.86,-6.414 -0.314,-4.124 -0.068,-8.288 -0.197,-12.43 -0.14,-4.474 -1.26,-8.625 -4.518,-11.956 -4.46,-4.559 -13.563,-5.238 -16.25,2.692 -0.97,2.864 -0.587,6.399 -0.071,9.505 0.772,4.654 2.661,9.139 3.261,13.802 1.102,8.571 -2.577,15.853 -7.307,22.675 -0.643,0.928 -1.384,1.789 -2.008,2.73 -2.971,4.471 -7.138,7.33 -11.949,9.613 -14.002,6.644 -27.9,13.506 -41.835,20.291 -3.268,1.591 -6.498,0.845 -9.573,-0.407 -1.811,-0.737 -3.036,-2.44 -2.812,-4.515 0.322,-2.97 1.147,-5.891 1.409,-8.864 0.233,-2.64 0.428,-5.424 -0.166,-7.955 -0.597,-2.542 -2.797,-3.982 -5.586,-4.184 -2.876,-0.208 -5.162,0.989 -6.365,3.435 -1.036,2.107 -1.509,4.524 -2.01,6.852 -0.786,3.652 -1.036,7.454 -2.162,10.984 -1.08,3.385 -4.015,5.168 -7.523,5.753 -3.44,0.574 -6.553,-2.419 -6.825,-6.817 -0.143,-2.307 0.342,-4.647 0.339,-6.973 -0.006,-3.13 0.228,-6.355 -0.426,-9.369 -1.08,-4.978 -4.707,-7.896 -9.235,-8.281 -4.64,-0.393 -9.188,2.341 -11.348,6.712 -2.285,4.624 -1.907,9.305 -0.627,14.096 1.24,4.645 2.828,9.282 3.324,14.021 1.151,10.996 -4.286,19.198 -12.276,26.034 -1.423,1.218 -3.071,2.181 -4.443,3.45 -1.76,1.628 -1.571,2.462 0.639,3.422 4.69,2.038 9.427,3.969 14.104,6.035 10.736,4.741 21.479,9.468 32.16,14.329 9.928,4.519 19.813,9.134 29.656,13.834 11.402,5.446 22.772,10.963 34.094,16.572 16.581,8.214 33.072,16.608 49.674,24.778 6.937,3.413 14.044,6.482 21.109,9.627 1.718,0.764 3.101,-0.308 3.094,-2.172 -0.052,-15.226 -0.056,-30.453 -0.177,-45.68 -0.138,-17.262 -0.389,-34.523 -0.557,-51.785 -0.009,-0.907 -0.213,-2.579 0.45,-2.727 0.662,-0.147 1.104,1.577 1.462,2.445 2.059,4.991 2.338,10.245 2.148,15.552 -0.089,2.515 0.521,2.946 2.844,3.683 3.499,1.11 6.903,2.558 10.277,4.021 7.659,3.323 15.314,6.659 22.902,10.141 13.538,6.211 27.045,12.491 40.526,18.827 9.326,4.383 18.628,8.821 27.865,13.387 12.611,6.233 25.141,12.626 37.721,18.92 7.666,3.836 15.317,7.709 23.056,11.393 5.829,2.775 11.767,5.326 17.703,7.871 1.806,0.774 3.16,-0.23 3.155,-2.099 C -0.135,147.744 -0.097,132.44 -0.268,117.139 -0.412,104.175 -1.087,75.665 -1.087,78.251 -1.087,80.838 0,0 0,0" /></g></g></g></g></svg>