<?xml version="1.0" encoding="utf-8"?>
<!-- Generator: Adobe Illustrator 23.0.6, SVG Export Plug-In . SVG Version: 6.00 Build 0)  -->
<svg version="1.1" id="Layer_1" xmlns="http://www.w3.org/2000/svg" xmlns:xlink="http://www.w3.org/1999/xlink" x="0px" y="0px"
	 viewBox="0 0 400 400" style="enable-background:new 0 0 400 400;" xml:space="preserve">
<path d="M280.4,103.9c2.3-5,2.5-9.5,0.1-14.6c-11.7-25.1-23.1-50.3-34.4-75.6c-2.7-6.1-6.7-8.7-13.4-8.7
	C196,5.2,159.3,5.1,122.6,5.1c-2.7,0-4.8,2.2-4.8,4.8v82.2c0,2.3,1.6,4.2,3.8,4.7c1.9,0.4,3.9,0.8,5.7,1.6
	c19.3,7.7,41.4,37.2,36.7,74.6c-0.5,3.9-1.6,7.7-3.3,11.3c0,0,0,0,0,0c-1.3,2.7-1.4,4.8-0.1,7.6c7.1,15.4,13.9,30.7,20.9,46.1
	c6.2,13.6,12.5,27.3,19.1,41.9c15.5,29.7-33.2,113.3,12.2,114.9c37.5-4.8-5.4-72,10.1-157.9c1.3-7.2,3.5-14.1,6.5-20.8
	C246.4,178.9,263.4,141.4,280.4,103.9z M198.1,101.9c-5,11.1-10,22.2-15.1,33.3c-1.3,3-4.8,4.4-7.8,3.2c-10.2-4-15.6-25.8-13.1-36.4
	c0.7-2.9,3.3-5,6.3-5h28.1c1.7,0,2.9,1.8,2.3,3.4C198.6,100.9,198.4,101.4,198.1,101.9z"/>
</svg>
