<?xml version="1.0" encoding="utf-8"?>
<!-- Generator: Adobe Illustrator 22.1.0, SVG Export Plug-In . SVG Version: 6.00 Build 0)  -->
<!DOCTYPE svg PUBLIC "-//W3C//DTD SVG 1.1//EN" "http://www.w3.org/Graphics/SVG/1.1/DTD/svg11.dtd">
<svg version="1.1"
	 id="Layer_1" inkscape:version="0.92.2 (5c3e80d, 2017-08-06)" sodipodi:docname="7digital.svg" xmlns:cc="http://creativecommons.org/ns#" xmlns:dc="http://purl.org/dc/elements/1.1/" xmlns:inkscape="http://www.inkscape.org/namespaces/inkscape" xmlns:rdf="http://www.w3.org/1999/02/22-rdf-syntax-ns#" xmlns:sodipodi="http://sodipodi.sourceforge.net/DTD/sodipodi-0.dtd" xmlns:svg="http://www.w3.org/2000/svg"
	 xmlns="http://www.w3.org/2000/svg" xmlns:xlink="http://www.w3.org/1999/xlink" x="0px" y="0px" viewBox="0 0 400 400"
	 style="enable-background:new 0 0 400 400;" xml:space="preserve">
<sodipodi:namedview  bordercolor="#666666" borderopacity="1" gridtolerance="10" guidetolerance="10" id="namedview7" inkscape:current-layer="Layer_1" inkscape:cx="376.19604" inkscape:cy="313.70856" inkscape:pageopacity="0" inkscape:pageshadow="2" inkscape:window-height="1017" inkscape:window-maximized="1" inkscape:window-width="1920" inkscape:window-x="1358" inkscape:window-y="-8" inkscape:zoom="1.4343434" objecttolerance="10" pagecolor="#ffffff" showgrid="false">
	</sodipodi:namedview>
<path d="M281.1,103.2c2.3-5.1,2.5-9.5,0.1-14.7c-11.8-25.3-23.3-50.7-34.7-76.2c-2.7-6.1-6.7-8.8-13.5-8.8c-37,0.2-74,0.1-111,0.1
	c-2.7,0-4.9,2.2-4.9,4.9v82.9c0,2.3,1.6,4.3,3.8,4.8c1.9,0.4,3.9,0.8,5.8,1.6c19.5,7.8,41.8,37.5,37,75.2c-0.5,4-1.6,7.8-3.3,11.4
	c0,0,0,0,0,0c-1.3,2.7-1.4,4.9-0.1,7.7c7.1,15.5,14,31,21,46.4c6.2,13.7,12.6,27.6,19.3,42.3c15.6,30-33.5,114.2,12.3,115.8
	c37.8-4.8-5.4-72.6,10.2-159.1c1.3-7.2,3.5-14.2,6.5-20.9C246.7,178.7,263.9,141,281.1,103.2z M198.1,101.1
	c-5.1,11.2-10.1,22.4-15.2,33.5c-1.4,3-4.8,4.4-7.9,3.2c-10.2-4.1-15.7-26-13.2-36.7c0.7-3,3.3-5.1,6.4-5.1h28.3
	c1.7,0,2.9,1.8,2.3,3.4C198.6,100.1,198.3,100.6,198.1,101.1z"/>
</svg>
