<?xml version="1.0" encoding="utf-8"?>
<!-- Generator: Adobe Illustrator 23.0.1, SVG Export Plug-In . SVG Version: 6.00 Build 0)  -->
<svg version="1.1"
	 id="svg2" xmlns:cc="http://creativecommons.org/ns#" xmlns:dc="http://purl.org/dc/elements/1.1/" xmlns:inkscape="http://www.inkscape.org/namespaces/inkscape" xmlns:rdf="http://www.w3.org/1999/02/22-rdf-syntax-ns#" xmlns:sodipodi="http://sodipodi.sourceforge.net/DTD/sodipodi-0.dtd" xmlns:svg="http://www.w3.org/2000/svg"
	 xmlns="http://www.w3.org/2000/svg" xmlns:xlink="http://www.w3.org/1999/xlink" x="0px" y="0px" viewBox="0 0 400 400"
	 style="enable-background:new 0 0 400 400;" xml:space="preserve">
<path d="M303.3,134.6c-29,0.1-52.3,23.2-52.7,52.1c-7.8,44.4-40.2,46.7-65.1,26.9c-4.2-3.3-6.8-8.2-7.3-13.6l0-0.1
	c-3.2-34.6,5.7-65.9,27.7-93c20-24.6,45.7-39.3,75.5-44.9c3.7-0.7,5.2-5.3,2.5-8c-15.3-15.3-30.6-30.6-45.6-45.7
	c-4.5-4.5-11.8-4.5-16.4,0C163.6,66.8,104.9,125.5,47,183.5c-4.2,4.2-4.5,11-0.7,15.6C110,276.2,15.8,396.7,77.9,395
	c52.8,0.8-17.1-133.7,24.1-133c5.2,0.1,10.1,2.4,13.8,6.1c35.7,35.7,71.4,71.5,106.9,107.1c4.5,4.5,11.8,4.5,16.4,0
	c17.8-17.8,35.9-35.9,54.1-54.1c2.8-2.8,1.1-7.7-2.9-8.1c-8.1-0.8-15.9-2.4-23.3-4.7c-12.2-3.8-21.8-13.3-25.7-25.5
	c-10.7-34.1,2.5-49.6,42-45.4c2.9,0.3,5.7,0.8,8.5,1.5c3.7,0.8,7.6,1.3,11.6,1.3c29.4,0,53-23.3,53-52.4
	C356.4,158.1,332.8,134.5,303.3,134.6z"/>
</svg>
