<?xml version="1.0" encoding="utf-8"?>
<!-- Generator: Adobe Illustrator 23.0.1, SVG Export Plug-In . SVG Version: 6.00 Build 0)  -->
<svg version="1.1"
	 id="svg4" inkscape:version="0.92.1 r15371" sodipodi:docname="heroku.svg" xmlns:cc="http://creativecommons.org/ns#" xmlns:dc="http://purl.org/dc/elements/1.1/" xmlns:inkscape="http://www.inkscape.org/namespaces/inkscape" xmlns:rdf="http://www.w3.org/1999/02/22-rdf-syntax-ns#" xmlns:sodipodi="http://sodipodi.sourceforge.net/DTD/sodipodi-0.dtd" xmlns:svg="http://www.w3.org/2000/svg"
	 xmlns="http://www.w3.org/2000/svg" xmlns:xlink="http://www.w3.org/1999/xlink" x="0px" y="0px" viewBox="0 0 400 400"
	 style="enable-background:new 0 0 400 400;" xml:space="preserve">
<sodipodi:namedview  bordercolor="#666666" borderopacity="1" fit-margin-bottom="50" fit-margin-left="0" fit-margin-right="0" fit-margin-top="0" gridtolerance="10" guidetolerance="10" id="namedview6" inkscape:current-layer="svg4" inkscape:cx="-32.304733" inkscape:cy="91.094964" inkscape:pageopacity="0" inkscape:pageshadow="2" inkscape:window-height="1017" inkscape:window-maximized="1" inkscape:window-width="1920" inkscape:window-x="1358" inkscape:window-y="-8" inkscape:zoom="1.3037281" objecttolerance="10" pagecolor="#ffffff" showgrid="false">
	</sodipodi:namedview>
<path d="M285.9,4.6h-172C99,4.6,87,16.6,87,31.5v226.4c0,14.8,12,26.9,26.9,26.9h117c10,0,18.9,6.8,21.1,16.6
	c7.1,31.2-17.8,93.5,16.1,94c23.3,2.8-2.3-61.3,4.2-93.5c1.8-9,9.1-16,18.2-17.5c12.8-2.1,22.5-13.2,22.5-26.5V31.5
	C312.8,16.6,300.8,4.6,285.9,4.6z M215.7,78.7c0.9-1.1,1.7-2.2,2.5-3.3c0.9-1.2,2.4-1.9,3.9-1.7c4,0.8,6.3,7.7,1.9,7.7h-7
	C215.6,81.3,214.8,79.8,215.7,78.7z M138.9,186.9c0-1.9,2.3-2.8,3.6-1.5l0.9,0.9c3.4,3.4,6.1,7.6,7.4,12.3c4.3,15.3-7,24.6-11,14.6
	c-0.6-1.6-0.9-3.3-0.9-5.1C138.9,203.9,138.9,193.3,138.9,186.9z M156.1,226c-0.7,2.3-2,4.3-3.7,6l-12.6,12.6
	c-0.3,0.3-0.9,0.1-0.9-0.4v-2.7c0-4.2,1.3-8.3,3.8-11.6C148.6,222.3,158.6,217.8,156.1,226z M170.5,108
	c-1.5,12.4-2.3,23.3-23.9,33.9c-3.3,1.6-7.1-0.7-7.1-4.4c-0.2-19.6-0.3-71.9-0.3-89.7c0-3.3,2.7-6,6-6l19.3-0.1c3.3,0,6.1,2.7,6.1,6
	V108z M252.7,246.1h-17.8c-3.2,0-5.9-2.6-5.9-5.9l0.2-106.1c0,0,4.3-16.4-40.6-5.3l0.1-0.1c-19.4,3.3,3.7-14.7,32.6-26.1
	c9.2-3.6,19.8-1.9,27.1,4.7c6.1,5.6,10,14.2,10,27.1v105.9C258.6,243.5,256,246.1,252.7,246.1z M269.4,46.7c-1.4,3-3.9,7.8-7.6,13.9
	c-4,6.4-9.8,11.4-16.7,14.2c-15.5,6.1-13.7-7.1-9-29.7c0.3-1.2,1.3-2.1,2.6-2.1H267C268.9,43,270.2,45,269.4,46.7z"/>
</svg>
