<?xml version="1.0" encoding="utf-8"?>
<!-- Generator: Adobe Illustrator 23.0.6, SVG Export Plug-In . SVG Version: 6.00 Build 0)  -->
<svg version="1.1"
	 id="svg4" xmlns:cc="http://creativecommons.org/ns#" xmlns:dc="http://purl.org/dc/elements/1.1/" xmlns:inkscape="http://www.inkscape.org/namespaces/inkscape" xmlns:rdf="http://www.w3.org/1999/02/22-rdf-syntax-ns#" xmlns:sodipodi="http://sodipodi.sourceforge.net/DTD/sodipodi-0.dtd" xmlns:svg="http://www.w3.org/2000/svg"
	 xmlns="http://www.w3.org/2000/svg" xmlns:xlink="http://www.w3.org/1999/xlink" x="0px" y="0px" viewBox="0 0 400 400"
	 style="enable-background:new 0 0 400 400;" xml:space="preserve">
<path d="M284.2,5H115.6C101,5,89.2,16.8,89.2,31.3v222c0,14.5,11.8,26.3,26.3,26.3h114.7c9.8,0,18.5,6.7,20.7,16.2
	c6.9,30.5-17.4,91.6,15.8,92.2c22.9,2.8-2.2-60.1,4.1-91.6c1.8-8.8,9-15.7,17.9-17.1c12.5-2,22.1-12.9,22.1-26v-222
	C310.5,16.7,298.8,5,284.2,5z M215.4,77.6c0.8-1.1,1.7-2.2,2.5-3.3c0.9-1.2,2.3-1.9,3.8-1.6c3.9,0.8,6.2,7.5,1.9,7.5h-6.9
	C215.3,80.2,214.5,78.7,215.4,77.6z M140.1,183.7c0-1.8,2.2-2.8,3.5-1.5l0.9,0.9c3.4,3.4,5.9,7.5,7.2,12c4.2,15-6.9,24.1-10.8,14.3
	c-0.6-1.6-0.9-3.3-0.9-5C140.1,200.4,140.1,190,140.1,183.7z M157,222c-0.7,2.2-2,4.2-3.6,5.9L141,240.3c-0.3,0.3-0.9,0.1-0.9-0.4
	v-2.6c0-4.1,1.2-8.1,3.7-11.4C149.6,218.4,159.4,214.1,157,222z M171.1,106.4c-1.5,12.2-2.2,22.9-23.4,33.2c-3.2,1.6-7-0.7-7-4.3
	c-0.1-19.2-0.3-70.5-0.3-87.9c0-3.2,2.6-5.9,5.9-5.9l19-0.1c3.3,0,5.9,2.6,5.9,5.9V106.4z M251.7,241.8h-17.5
	c-3.2,0-5.7-2.6-5.7-5.8l0.2-104c0,0,4.2-16.1-39.8-5.2l0.1-0.1c-19,3.2,3.6-14.4,32-25.6c9-3.6,19.4-1.9,26.6,4.6
	c6,5.5,9.8,13.9,9.8,26.5v103.8C257.4,239.2,254.9,241.8,251.7,241.8z M268,46.3c-1.4,3-3.8,7.6-7.5,13.6
	c-3.9,6.2-9.6,11.2-16.4,13.9c-15.2,6-13.4-7-8.8-29.1c0.2-1.2,1.3-2,2.5-2h27.9C267.6,42.6,268.8,44.6,268,46.3z"/>
</svg>
