<?xml version="1.0" encoding="utf-8"?>
<!-- Generator: Adobe Illustrator 21.1.0, SVG Export Plug-In . SVG Version: 6.00 Build 0)  -->
<!DOCTYPE svg PUBLIC "-//W3C//DTD SVG 1.1//EN" "http://www.w3.org/Graphics/SVG/1.1/DTD/svg11.dtd">
<svg version="1.1" id="Layer_1" xmlns="http://www.w3.org/2000/svg" xmlns:xlink="http://www.w3.org/1999/xlink" x="0px" y="0px"
	 viewBox="0 0 400 400" enable-background="new 0 0 400 400" xml:space="preserve">
<g>
	<path d="M251.6,234.6c5.5-6.5,11.2-9.4,18.6-10.9c4.3-0.9,8.3,0.1,11.8,3.1c2.5,2.1,5.6,5.7,8.7,3.2c2.1-1.7,3-6,2.8-9.1
		c-0.6-9.6-2.5-19.1-2.8-28.7c-0.6-17.5-0.3-35-0.6-52.5c-0.3-17.2-0.8-34.5-1.1-51.7c-0.1-5.7,0-11.4-0.2-17.1
		c-0.3-5.7-2.7-6.9-7.6-4.2c-9.4,5-19.2,9.5-28.4,15c-6,3.6-11.3,8.3-16.8,12.8c-4.8,3.9-5.5,9.6-6.8,15.2c-1,4.3-1,8,0.6,12.2
		c3.4,9,0.3,17.4-7.6,22.8c-5.3,3.7-17.7,0.1-20.2-5.9c-2.9-6.8-3.3-13.3,0.2-20.3c2.8-5.6,0.4-11-3.4-15.4c-3.1-3.6-7.3-3.7-11.6-2
		c-8,3.1-15.9,6.3-23.8,9.5c-1.6,0.7-3.2,1.5-4.9,2c-6.8,2-11.7,7.7-11.7,14.7c-0.1,18.8-0.2,37.7,0.1,56.5
		c0.4,28.7,0.9,57.5,1.8,86.2c0.6,18.4,2,36.8,2.9,55.3c0.2,3.1-0.2,6.2-0.4,9.3c-0.5,7.6-1.7,15.1-1.4,22.7c0.2,4.7,2.7,9.3,3.8,14
		c0.8,3.6,2,7.5,1.2,10.9c-1.7,7.7-8.8,9.5-16.9,9.4c-5.5-0.1-12-5.3-12.9-11.2c-0.7-4.7-0.4-9.7,0.1-14.5c0.6-5.4-2.6-8.8-7.9-7.7
		c-5,1-10,2.2-15,3.2c-13.5,2.7-29.7-4.8-38.4-18.2c-2.8-4.4-5.2-9.3-6.4-14.3c-2.8-11.8,1.7-21.8,9.8-30.3c5.8-6.1,16.8-7.3,24.1-3
		c2.2,1.3,4.4,2.7,6.8,3.7c5.4,2.2,12.6,1.7,13.8-6.9c0.9-6.1,1.3-12.4,1.2-18.6c-0.3-16-0.9-31.9-1.7-47.9c-0.7-13.8-2-27.6-3-41.3
		c-0.5-6.6-0.9-13.3-1.2-19.9c-0.1-2.4-0.4-2.9-3-1.8c-7.1,3.1-15.3,2.7-17-4.8c-1.5-6.3-1.4-13,3.5-18.5c2.2-2.4,4.2-5,6.3-7.4
		c6.9-7.8,8.2-17.7,10.2-27.4c1.4-7.1,3.5-14.2,6.1-20.9c2.4-6.1,7.9-9.4,14-11.6c17.4-6.1,34.7-12.3,52.1-18.5
		c18.8-6.7,37.5-13.4,56.3-20c12-4.2,24-8.4,36.1-12.3c11.8-3.9,23.7-7.6,35.6-11.1c8.9-2.6,17.2,4.7,17.4,15.2
		c0.1,3.1,0.6,9.7,0.6,18.4c0.1,8.7,0.9,28.6,1.3,35.9c0.3,7.3,1.4,32,2.2,48.1c0.7,15.8,1.3,35.7,2.4,47.1
		c1.1,11.4,1.8,20.6,2,30.3s0.8,50,0.8,50c0,5.7-3,10.3-6.8,14.4c-6.8,7.4-15.5,11.7-24.7,15.1c-5.2,2-10.4,4.1-15.4,6.4
		c-7.8,3.6-11.1,11.6-8.1,19.7c1.2,3.3,3,6.5,3.8,9.9c0.9,4,1.9,8.4,1.2,12.3c-1.4,8.7-9.8,13.2-19.9,11.3
		c-11.6-2.1-17.7-12.5-13.6-23.9c2.8-7.8,3-14.9-0.8-22.7c-4.1-8.5-6.7-12.1-9.8-26.7C236.7,256.4,246.1,241.2,251.6,234.6z"/>
</g>
<path d="M183.6,95.1"/>
</svg>
