<?xml version="1.0" encoding="utf-8"?>
<!-- Generator: Adobe Illustrator 23.0.6, SVG Export Plug-In . SVG Version: 6.00 Build 0)  -->
<svg version="1.1" id="Layer_1" xmlns="http://www.w3.org/2000/svg" xmlns:xlink="http://www.w3.org/1999/xlink" x="0px" y="0px"
	 viewBox="0 0 400 400" style="enable-background:new 0 0 400 400;" xml:space="preserve">
<path d="M125.1,365.8c1.8,6.9,1.1,13.3-4.7,17.9c-6,4.8-12.8,3.9-19.3,0.9c-10.5-4.9-17-16.9-15.1-29.1c1.1-6.9,3.4-13.7,5.7-20.3
	c6.6-19,2.4-37-9.3-51.6c-21.8-26.9-35.6-56.6-39.7-90.9C38.3,157.7,43,124,59,92.5c23.4-46.1,60.8-74.2,111.7-84.2
	c25.5-5,51-3.9,76.5-0.1c26.3,3.9,49.3,14.9,69.5,32c5.1,4.3,5.6,7.7,0.7,12.4c-9,8.7-10.7,19.9-8.9,31.7c0.3,2,2.2,4.1,3.9,5.6
	c11.1,9.7,12,21.7,2.3,33c-3.9,4.5-2.4,23.9,2.2,27.5c0.9,0.7,2.3,1,3.4,0.9c7.5-0.8,9.1,2.7,9,9.9c-0.3,61.8-0.2,123.6-0.2,185.4
	c0,0.8,0,1.5,0,2.3c0,3.4,2.7,6.2,6.1,6.2c6.2,0.1,12.1,0.2,18-0.2c3.4-0.2,5.7,2.5,5.7,5.9c0,9.1,0.1,18.3,0,27.5
	c-0.1,6-1.3,6.2-10.7,6.2c-27.5,0-54.4,0.2-82.7,0.2c-9.6,0-9.7-2.2-9.3-6.8c1.3-16.9-1.4-32.9-9.9-47.8c-2.8-4.9-5.4-6.5-11.4-5.9
	c-21.7,1.9-43.6,3-65-2.8c-4.6-1.3-8.4-0.2-9.6,4.9c-1.3,5.7-2.3,11.4-3.1,17.2c-0.9,6.6-2.7,12.6-10.2,14.3
	c-7.4,1.6-12.6-2.1-16.5-8c-3.6-5.5-8-13.6-9.2-13C120.1,347.3,123.2,358.2,125.1,365.8z M144.1,60.3c-2.3-0.2-9.8,6-13.2,9
	c-26.1,22.2-40.4,50.3-44.3,84.4c-3.4,30.1,1.7,58.2,17.4,84.1c17.8,29.4,43.3,48.1,77.2,55.6c15.1,3.3,30.1,3.7,45.3,2.4
	c19.4-1.6,38.2-5.3,55.8-13.9c2-1,4.1-4.2,4.2-6.5c0.3-26.3,0.3-52.5,0-78.8c0-2-0.9-5.7-3.7-5.8c-2.8-0.1-4.1,3.2-4.2,4.9
	c-0.5,7.9,0,15.9-0.4,23.9c-0.3,5.5-0.3,11.4-2.2,16.3c-3.7,9.6-17.2,10.5-21.8,1.4c-2.3-4.6-2.7-10.4-2.8-15.7
	c-0.1-7.7,1.3-15.5,1-23.2c-0.5-13.5-1.6-27-2.6-40.5c-0.3-4.7,1.8-6.6,6.4-6.6c6.6,0.1,13.2-0.3,19.7,0.1c7.5,0.5,12.4-3.2,15-9.3
	c2.7-6.4,1.4-12.3-4.4-17.6c-10.5-9.4-10.9-19.6-2.6-31.6c0.8-1.1,1.7-2.6,1.5-3.8c-1.6-10.6-3.3-21-13.5-27.8
	c-11.9-7.9-25.2-11.6-38.8-14.9c-7.9-1.9-12.6,1.6-14.8,8c-1.8,5.3-2.5,11.4-2.2,17c0.4,5.7,3.1,11.2,3.9,17
	c0.9,6.4,1.7,13.1,0.8,19.4c-1.4,10-9.6,16.1-18.9,15.6c-9.1-0.5-16.9-7.8-17.4-17.5c-0.3-5.7,1.1-11.5,1.9-17.2
	c0.6-4.5,2.1-9,2.2-13.6c0.1-3.9-0.7-10-2.5-10.6c-1.7-0.6-5,7-7.1,11.1c-2.2,4.3-3.6,9.3-6.6,12.9c-2.2,2.6-5.9,5.1-8.9,4.7
	c-3-0.5-4.8-3.3-6.6-6.3c-1.7-3-3.4-8.3-4.8-11.6C149.9,70.3,146.3,60.6,144.1,60.3z M287,326.4c-0.8-2-17.5,1.2-17.3,5.1
	c0.4,7,1.6,14.2,4.1,20.8c0.7,1.9,8.3,3.2,10.1,2.4c1.8-0.8,2.8-4.6,3-7.1C287.3,340.7,287.8,328.4,287,326.4z"/>
</svg>
