<?xml version="1.0" encoding="UTF-8" standalone="no"?>
<svg
   xmlns:dc="http://purl.org/dc/elements/1.1/"
   xmlns:cc="http://creativecommons.org/ns#"
   xmlns:rdf="http://www.w3.org/1999/02/22-rdf-syntax-ns#"
   xmlns:svg="http://www.w3.org/2000/svg"
   xmlns="http://www.w3.org/2000/svg"
   viewBox="0 0 533.33331 533.33331"
   height="533.33331"
   width="533.33331"
   xml:space="preserve"
   id="svg2"
   version="1.1"><metadata
     id="metadata8"><rdf:RDF><cc:Work
         rdf:about=""><dc:format>image/svg+xml</dc:format><dc:type
           rdf:resource="http://purl.org/dc/dcmitype/StillImage" /></cc:Work></rdf:RDF></metadata><defs
     id="defs6"><clipPath
       id="clipPath18"
       clipPathUnits="userSpaceOnUse"><path
         id="path16"
         d="M 0,400 H 400 V 0 H 0 Z" /></clipPath></defs><g
     transform="matrix(1.3333333,0,0,-1.3333333,0,533.33333)"
     id="g10"><g
       id="g12"><g
         clip-path="url(#clipPath18)"
         id="g14"><g
           transform="translate(200.2139,391.0073)"
           id="g20"><path
             id="path22"
             style="fill:#000000;fill-opacity:1;fill-rule:nonzero;stroke:none"
             d="m 0,0 c 4.783,0 9.582,-0.244 14.343,0.079 3.721,0.252 4.481,-1.241 4.409,-4.611 -0.195,-9.113 0.034,-18.234 -0.118,-27.347 -0.055,-3.267 1.029,-4.378 4.372,-4.49 16.706,-0.561 32.869,-3.811 48.425,-10.096 3.869,-1.564 4.999,-3.399 3.803,-7.614 -3.587,-12.655 -7.037,-25.37 -9.893,-38.205 -1.612,-7.24 -1.867,-14.776 -2.9,-22.155 -0.429,-3.073 -0.805,-6.305 -2.061,-9.077 -2.154,-4.755 -7.176,-4.973 -9.726,-0.412 -1.562,2.795 -2.185,6.138 -3.073,9.28 -0.525,1.861 -0.689,3.821 -1.11,5.716 -2.063,9.289 -5.256,11.459 -14.527,9.926 -8.154,-1.349 -10.965,0.251 -14.715,7.501 -2.097,4.056 -4.577,10.392 -7.22,11.688 -2.645,1.296 -12.646,-0.996 -18.748,-2.431 -6.092,-1.433 -11.531,-4.376 -14.762,-10.461 -4.014,-7.557 -2.467,-17.925 4.385,-23.392 9.277,-7.401 20.005,-12.088 30.914,-16.387 17.509,-6.9 35.482,-12.796 50.565,-24.69 14.49,-11.425 22.875,-25.948 24.591,-44.593 1.666,-18.104 -1.991,-34.659 -12.819,-49.177 -12.647,-16.956 -30.233,-26.342 -50.668,-30.636 -6.264,-1.317 -6.315,-1.086 -6.316,-7.59 -0.002,-9.565 0.16,-19.134 -0.11,-28.692 -0.07,-2.461 -0.889,-5.376 -2.401,-7.238 -6.318,-7.779 -7.267,-16.028 -3.647,-25.195 1.693,-4.284 3.38,-8.687 4.156,-13.193 1.751,-10.16 -5.322,-18.311 -15.613,-18.619 -13.844,-0.414 -23.546,12.298 -19.262,25.438 1.246,3.82 3.057,7.458 4.633,11.168 3.333,7.842 1.991,15.74 -3.348,21.394 -3.407,3.608 -2.877,6.734 -2.962,10.292 -0.197,8.216 -0.136,16.44 -0.023,24.658 0.033,2.462 -0.66,3.672 -3.273,3.324 -0.732,-0.098 -1.505,-0.067 -2.236,0.047 -8.777,1.376 -8.81,1.395 -11.633,-7.02 -1.187,-3.539 -1.959,-7.232 -3.337,-10.69 -2.385,-5.985 -6.848,-6.64 -11.486,-2.112 -1.707,1.668 -4.128,4.627 -5.801,4.309 -1.674,-0.318 -2.686,-4.529 -3.52,-6.967 -1.348,-3.938 -1.978,-8.134 -3.448,-12.018 -1.324,-3.5 -3.859,-6.106 -8.07,-6.011 -4.08,0.092 -7.178,2.424 -8.103,5.99 -1.048,4.037 -1.296,8.497 -0.831,12.655 0.527,4.701 2.618,9.211 3.344,13.91 1.38,8.94 0.029,17.226 -7.017,23.867 -0.884,0.833 -1.115,3.023 -0.787,4.377 3.093,12.786 6.391,25.523 9.585,38.285 0.727,2.904 1.586,4.166 4.97,2.345 13.006,-6.998 26.999,-11.492 41.498,-13.84 14.348,-2.324 28.844,-3.361 42.915,2.205 14.178,5.607 20.103,20.552 12.388,32.578 -5.243,8.172 -20.148,15.775 -22.265,16.485 -2.118,0.711 -3.606,-0.999 -4.037,-2.119 -1.917,-4.97 -3.355,-10.129 -4.874,-15.246 -0.847,-2.85 -0.998,-6.05 -2.43,-8.535 -1.104,-1.918 -3.779,-4.188 -5.635,-4.087 -2.13,0.116 -5.178,2.266 -5.953,4.261 -1.418,3.649 -1.857,7.821 -1.989,11.798 -0.267,7.995 -0.735,15.907 -5.154,22.861 -1.204,1.893 -3.107,3.814 -5.13,4.636 -12.36,5.018 -23.799,11.607 -33.555,20.64 -10.187,9.432 -16.263,21.301 -18.29,35.179 -4.089,28.001 9.87,54.428 34.381,67.637 8.656,4.664 18.251,7.73 27.659,10.778 3.622,1.174 4.606,2.49 4.527,6.047 -0.223,10.009 0.01,20.026 -0.136,30.037 -0.038,2.679 0.63,3.719 3.459,3.611 C -10.467,-0.143 -5.23,-0.001 0,0" /></g></g></g></g></svg>