<?xml version="1.0" encoding="UTF-8" standalone="no"?>
<svg
   xmlns:dc="http://purl.org/dc/elements/1.1/"
   xmlns:cc="http://creativecommons.org/ns#"
   xmlns:rdf="http://www.w3.org/1999/02/22-rdf-syntax-ns#"
   xmlns:svg="http://www.w3.org/2000/svg"
   xmlns="http://www.w3.org/2000/svg"
   viewBox="0 0 533.33331 533.33331"
   height="533.33331"
   width="533.33331"
   xml:space="preserve"
   id="svg2"
   version="1.1"><metadata
     id="metadata8"><rdf:RDF><cc:Work
         rdf:about=""><dc:format>image/svg+xml</dc:format><dc:type
           rdf:resource="http://purl.org/dc/dcmitype/StillImage" /></cc:Work></rdf:RDF></metadata><defs
     id="defs6"><clipPath
       id="clipPath18"
       clipPathUnits="userSpaceOnUse"><path
         id="path16"
         d="M 0,400 H 400 V 0 H 0 Z" /></clipPath></defs><g
     transform="matrix(1.3333333,0,0,-1.3333333,0,533.33333)"
     id="g10"><g
       id="g12"><g
         clip-path="url(#clipPath18)"
         id="g14"><g
           transform="translate(215.7793,111.3926)"
           id="g20"><path
             id="path22"
             style="fill:#000000;fill-opacity:1;fill-rule:nonzero;stroke:none"
             d="m 0,0 c 0.001,-2.313 0.009,-14.528 -0.004,-21.792 -0.006,-3.022 1.443,-3.612 3.329,-1.517 4.067,4.521 8.401,8.955 11.603,14.065 6.647,10.611 6.166,21.63 0.556,32.74 C 12.68,29.053 8.524,26.517 4.582,26.149 0.74,25.792 0.146,23.251 0.175,20.071 0.175,20.071 0,2.313 0,0 m 87.182,143.274 c 0.058,28.656 -7.445,49.105 -22.692,67.543 -4.52,5.466 -7.496,5.17 -11.038,-1.179 -2.922,-5.238 -2.459,-10.701 -0.882,-16.203 1.848,-6.445 4.227,-12.792 5.428,-19.354 1.856,-10.151 -4.235,-19.157 -13.4,-21.009 -8.08,-1.633 -16.484,4.417 -18.29,14.485 -1.235,6.882 -0.806,14.082 -0.902,21.143 -0.057,4.211 0.57,8.437 0.41,12.637 -0.159,4.205 -0.374,9.148 -5.22,10.57 -4.583,1.345 -7.184,-2.771 -9.771,-5.788 -3.49,-4.07 -6.499,-8.59 -10.245,-12.394 -3.457,-3.511 -7.837,-5.852 -13.014,-3.533 -5.478,2.454 -6.328,7.528 -5.932,12.641 0.398,5.141 1.6,10.222 2.475,15.324 1.243,7.248 1.866,14.431 -0.796,21.573 -1.789,4.802 -4.667,6.886 -10.045,6.242 -20.116,-2.408 -38.381,-9.289 -54.198,-22.044 -49.55,-39.96 -46.216,-107.318 -5.076,-144.914 20.045,-18.318 43.967,-26.578 71.593,-26.286 18.137,0.191 34.632,4.297 50.128,12.702 32.997,17.895 49.449,46.344 51.467,77.844 M -27.095,-0.657 c 0.003,4.211 0.026,12.282 -0.007,18.423 -0.038,7.242 -0.06,7.239 -7.118,8.286 -33.244,4.929 -61.076,19.818 -82.89,45.484 -35.719,42.028 -39.116,101.441 -7.557,146.869 57.781,83.177 182.008,72.147 226.389,-14.39 C 131.857,145.253 107.708,71.677 48.998,41.494 42.512,38.159 38.987,33.766 37.426,26.981 33.459,9.749 34.383,-6.964 42.637,-22.838 c 1.342,-2.581 3.544,-5.085 5.972,-6.662 6.751,-4.383 9.606,-9.297 8.141,-15.517 -1.505,-6.391 -6.753,-10.482 -14.66,-10.57 -11.51,-0.129 -23.028,0.1 -34.537,0.358 -7.265,0.163 -7.49,0.097 -7.555,-7.101 -0.056,-6.141 -0.03,-12.284 -0.214,-18.421 -0.074,-2.473 -0.329,-5.009 -0.991,-7.38 -1.686,-6.034 -6.737,-9.829 -12.667,-9.862 -5.932,-0.034 -11.101,3.694 -12.741,9.749 -0.789,2.913 -0.939,6.056 -0.994,9.1 -0.112,6.139 -0.118,12.288 0.134,18.42 0.182,4.427 -1.512,6.201 -6.012,6.155 -9.784,-0.101 -19.574,0.097 -29.359,0.298 -3.251,0.067 -6.549,0.233 -9.73,0.847 -6.668,1.287 -10.925,6.462 -11.01,12.882 -0.086,6.454 3.981,11.671 10.683,13.138 2.772,0.607 5.712,0.623 8.575,0.614 10.362,-0.03 20.727,-0.078 31.086,-0.345 4.233,-0.108 5.864,1.577 5.756,5.759 0,0 0.388,16.507 0.391,20.719" /></g></g></g></g></svg>