<?xml version="1.0" encoding="utf-8"?>
<!-- Generator: Adobe Illustrator 23.0.6, SVG Export Plug-In . SVG Version: 6.00 Build 0)  -->
<svg version="1.1"
	 id="svg2" xmlns:cc="http://creativecommons.org/ns#" xmlns:dc="http://purl.org/dc/elements/1.1/" xmlns:inkscape="http://www.inkscape.org/namespaces/inkscape" xmlns:rdf="http://www.w3.org/1999/02/22-rdf-syntax-ns#" xmlns:sodipodi="http://sodipodi.sourceforge.net/DTD/sodipodi-0.dtd" xmlns:svg="http://www.w3.org/2000/svg"
	 xmlns="http://www.w3.org/2000/svg" xmlns:xlink="http://www.w3.org/1999/xlink" x="0px" y="0px" viewBox="0 0 400 400"
	 style="enable-background:new 0 0 400 400;" xml:space="preserve">
<path d="M319.8,68.3c-6.1-13.2-15.3-23.9-26.8-32.9C279.9,25,265,18.1,249.1,13.1c-7.7-2.4-15.6-4.3-23.5-5.5
	c-9.1-1.4-10-1.7-20-2.3c-10-0.5-16.6-0.4-24,0.5c-7.4,0.9-12.7,2.2-20.9,4.6c-7.8,2.3-15.5,5-23.1,7.8c-10,3.7-19.5,8.7-28,15.2
	c-5.9,4.5-11.5,9.4-16.4,15c-13.6,15.7-20.3,34.2-21,54.7c-0.3,7.9,0.5,15.9,1.8,23.6c2.2,13.9,6.9,27.1,12.8,39.9
	c8.5,18.3,19.2,35.2,31.6,51.1c10.3,13.2,21.8,25.3,34.7,36c6.7,5.6,13.7,10.8,21.3,15c4.8,2.7,9.2,6.1,12.9,10.2
	c28.7,31.7-7.4,73.4,16.3,77c34.4-2.2-13.5-53.9,18.6-83.8c2-1.9,4.3-3.5,6.6-5c2.2-1.3,4.3-2.7,6.4-4.2c5.6-3.9,10.8-8.3,16-12.7
	c4.3-3.6,8.5-7.3,12.4-11.3c4.4-4.5,8.5-9.2,12.4-14c5.2-6.3,10.4-12.6,15-19.4c5-7.3,9.5-15.1,14.1-22.8c8.6-14.4,14.5-30,19.2-46
	c3.2-10.8,3.1-21.9,3.4-30C327.6,91.5,325,79.6,319.8,68.3z M152.4,112.7C139,99.3,128.3,84,120.6,66.6c-1.8-4.2-1.8-4.1,2.1-5.7
	c8.9-3.7,18.2-6.5,27.6-8.4c4.1-0.8,8.2-1.5,12.4-1.9c10.5-1.2,21.2-0.5,31.5,2c17.8,4.4,32.9,11.7,21.5,11.8
	c-18.5-0.6-37.6,3.1-57.2,10.7c-2.3,0.9-3.2,3.6-2,5.7c0.6,1,1.1,2,1.7,2.9c0.3,0.4,0.5,0.8,0.8,1.3c2.2,3.4,4.2,7,5.9,10.7
	c7.5,16.6,12,34.5,3.4,31c-1-0.4-1.9-1-2.7-1.8C161.2,120.8,156.7,116.9,152.4,112.7z M188.6,123.2c2.9,2.5,5.3,5.4,7.2,8.8
	c2,3.6,3.9,7.4,5.6,11.2c4.2,9.6,7,19.8,8.5,30.2c1.3,9.4,1.2,18.9,0.6,28.4c-0.7,11.1-3.4,21.7-7.4,32c-2,5.1-4.4,10.1-6.7,15.2
	c-0.1,0.3-0.3,0.7-0.4,1c-0.2,0.5-0.8,0.7-1.2,0.4c0,0,0,0,0,0c-0.2-0.2-0.3-0.5-0.3-0.7c0.1-0.6,0.2-1.2,0.4-1.7
	c4.7-13,6.4-26.4,6.3-40.2c-0.2-14.8-3.2-29.2-8.7-42.9c-1-2.5-2.1-5-3.3-7.5C180.5,135.6,175.6,112.2,188.6,123.2z M293.1,93.2
	c-0.1,0.1-0.3,0.1-0.4,0c-14.3-10.8-29-18.5-44-23.2c-2-0.6-3.9-1.3-5.8-2.1c-10.2-4.2-21.5-8.6-16.2-11c1.4-0.6,3-0.7,4.5-0.2
	c0.2,0.1,0.4,0.1,0.6,0.2c17.1,5.5,32.9,13.4,47.2,24.3c4.1,3.1,8.2,6.3,12.2,9.5c0.7,0.6,1.3,1.3,2,2
	C293.3,92.8,293.3,93.1,293.1,93.2z"/>
</svg>
