<?xml version="1.0" encoding="utf-8"?>
<!-- Generator: Adobe Illustrator 23.0.1, SVG Export Plug-In . SVG Version: 6.00 Build 0)  -->
<svg version="1.1"
	 id="svg2" xmlns:cc="http://creativecommons.org/ns#" xmlns:dc="http://purl.org/dc/elements/1.1/" xmlns:inkscape="http://www.inkscape.org/namespaces/inkscape" xmlns:rdf="http://www.w3.org/1999/02/22-rdf-syntax-ns#" xmlns:sodipodi="http://sodipodi.sourceforge.net/DTD/sodipodi-0.dtd" xmlns:svg="http://www.w3.org/2000/svg"
	 xmlns="http://www.w3.org/2000/svg" xmlns:xlink="http://www.w3.org/1999/xlink" x="0px" y="0px" viewBox="0 0 400 400"
	 style="enable-background:new 0 0 400 400;" xml:space="preserve">
<path d="M333.3,75.1c-6.8-14.7-17.1-26.6-29.8-36.6c-14.7-11.6-31.2-19.3-48.9-24.8c-8.5-2.7-17.3-4.7-26.2-6.2
	c-10.1-1.6-11.2-1.9-22.3-2.5c-11.1-0.6-18.4-0.5-26.7,0.5c-8.2,1-14.2,2.5-23.2,5.1c-8.7,2.5-17.2,5.5-25.7,8.7
	c-11.2,4.2-21.7,9.6-31.2,17c-6.5,5-12.8,10.4-18.2,16.7C66,70.5,58.7,91.1,57.9,113.9c-0.3,8.7,0.6,17.6,2,26.3
	c2.5,15.5,7.6,30.2,14.2,44.4c9.4,20.4,21.4,39.2,35.2,56.9c11.5,14.7,24.3,28.1,38.6,40c7.5,6.2,15.3,12,23.7,16.7
	c5.4,3,10.3,6.8,14.4,11.3c32,35.3-8.3,81.7,18.2,85.8c38.3-2.5-15-60,20.6-93.2c2.3-2.1,4.8-3.9,7.4-5.5c2.4-1.5,4.8-3,7.1-4.7
	c6.2-4.4,12-9.3,17.9-14.2c4.8-4,9.4-8.2,13.8-12.6c4.8-5,9.4-10.2,13.8-15.6c5.8-7,11.5-14.1,16.7-21.6
	c5.6-8.2,10.6-16.8,15.7-25.3c9.6-16,16.1-33.4,21.4-51.2c3.6-12,3.4-24.4,3.8-33.3C342,100.9,339.2,87.7,333.3,75.1z M147.1,124.5
	c-14.9-14.9-26.9-32-35.5-51.3c-2.1-4.6-2-4.6,2.3-6.4c9.9-4.2,20.2-7.2,30.7-9.4c4.6-0.9,9.1-1.6,13.7-2.1
	c11.7-1.3,23.6-0.6,35.1,2.2c19.8,4.8,36.7,13,24,13.1c-20.6-0.6-41.8,3.4-63.7,12c-2.5,1-3.6,4-2.2,6.3c0.6,1.1,1.3,2.2,1.9,3.2
	c0.3,0.5,0.6,0.9,0.9,1.4c2.4,3.8,4.7,7.8,6.5,11.9c8.4,18.5,13.4,38.4,3.8,34.5c-1.1-0.4-2.1-1.1-3-2
	C156.8,133.5,151.8,129.2,147.1,124.5z M187.3,136.3c3.2,2.7,5.9,6.1,8,9.7c2.3,4,4.3,8.2,6.2,12.5c4.7,10.7,7.8,22,9.4,33.6
	c1.5,10.5,1.4,21,0.7,31.6c-0.7,12.4-3.7,24.2-8.3,35.6c-2.3,5.7-5,11.3-7.4,16.9c-0.2,0.4-0.3,0.7-0.4,1.1
	c-0.2,0.5-0.8,0.7-1.3,0.4c0,0,0,0,0,0c-0.2-0.2-0.4-0.5-0.3-0.8c0.1-0.6,0.2-1.3,0.5-1.9c5.3-14.4,7.2-29.4,7-44.7
	c-0.2-16.5-3.5-32.5-9.7-47.8c-1.2-2.8-2.4-5.6-3.7-8.4C178.3,150,172.8,124,187.3,136.3z M303.7,102.8c-0.1,0.1-0.3,0.1-0.5,0
	c-15.9-12-32.2-20.6-49-25.9c-2.2-0.7-4.3-1.5-6.4-2.3c-11.3-4.6-23.9-9.6-18.1-12.2c1.6-0.7,3.4-0.8,5-0.2c0.2,0.1,0.4,0.1,0.6,0.2
	c19,6.2,36.7,14.9,52.6,27c4.6,3.5,9.1,7,13.6,10.6c0.8,0.6,1.5,1.5,2.2,2.2C303.9,102.4,303.8,102.6,303.7,102.8z"/>
</svg>
