<?xml version="1.0" encoding="utf-8"?>
<!-- Generator: Adobe Illustrator 23.0.3, SVG Export Plug-In . SVG Version: 6.00 Build 0)  -->
<svg version="1.1"
	 id="svg10" xmlns:cc="http://creativecommons.org/ns#" xmlns:dc="http://purl.org/dc/elements/1.1/" xmlns:inkscape="http://www.inkscape.org/namespaces/inkscape" xmlns:rdf="http://www.w3.org/1999/02/22-rdf-syntax-ns#" xmlns:sodipodi="http://sodipodi.sourceforge.net/DTD/sodipodi-0.dtd" xmlns:svg="http://www.w3.org/2000/svg"
	 xmlns="http://www.w3.org/2000/svg" xmlns:xlink="http://www.w3.org/1999/xlink" x="0px" y="0px" viewBox="0 0 400 400"
	 style="enable-background:new 0 0 400 400;" xml:space="preserve">
<style type="text/css">
	.st0{fill-rule:evenodd;clip-rule:evenodd;}
</style>
<sodipodi:namedview  bordercolor="#666666" borderopacity="1" fit-margin-bottom="4" fit-margin-left="1" fit-margin-right="1" fit-margin-top="1" gridtolerance="10" guidetolerance="10" id="namedview12" inkscape:current-layer="svg10" inkscape:cx="15.746734" inkscape:cy="14.994397" inkscape:pageopacity="0" inkscape:pageshadow="2" inkscape:window-height="1017" inkscape:window-maximized="1" inkscape:window-width="1920" inkscape:window-x="1912" inkscape:window-y="-8" inkscape:zoom="22.627417" objecttolerance="10" pagecolor="#ffffff" showgrid="false">
	</sodipodi:namedview>
<g>
	<path class="st0" d="M185.5,312.5c31.3,29.4-17,81.7,15.7,82.5c35-1.8-20.1-51.3,13-82.2c3.9-3.7,6.3-8.7,6.3-14.1v-22
		c0-5.6-4.5-10.2-10.2-10.2h-20.5c-5.6,0-10.2,4.5-10.2,10.2v21.9C179.6,303.8,181.7,308.9,185.5,312.5z"/>
	<path class="st0" d="M268.7,30.7C216.2-18,125.5,4.5,107.8,80.3c-1.5,6.6,1.2,13.4,6.7,17.2c42,29.1-12.8,80.4,15.9,82.6
		c38.1-0.1,5-43.7,13.7-91.6c22.3-98.5,142.3-37.4,107.6,23.3c-29.1,51.5-68.9,38-70,113c-0.1,5.6,4.5,10.2,10.1,10.2
		c4.6,0,10.1,0,14.7,0c5.3,0,9.7-4.1,10.1-9.4c4.6-62.1,42.3-54.5,68.5-102.2C302.3,92.3,294.5,54.6,268.7,30.7z"/>
</g>
</svg>
