<?xml version="1.0" encoding="utf-8"?>
<!-- Generator: Adobe Illustrator 23.0.6, SVG Export Plug-In . SVG Version: 6.00 Build 0)  -->
<svg version="1.1"
	 id="svg10" xmlns:cc="http://creativecommons.org/ns#" xmlns:dc="http://purl.org/dc/elements/1.1/" xmlns:inkscape="http://www.inkscape.org/namespaces/inkscape" xmlns:rdf="http://www.w3.org/1999/02/22-rdf-syntax-ns#" xmlns:sodipodi="http://sodipodi.sourceforge.net/DTD/sodipodi-0.dtd" xmlns:svg="http://www.w3.org/2000/svg"
	 xmlns="http://www.w3.org/2000/svg" xmlns:xlink="http://www.w3.org/1999/xlink" x="0px" y="0px" viewBox="0 0 400 400"
	 style="enable-background:new 0 0 400 400;" xml:space="preserve">
<style type="text/css">
	.st0{fill-rule:evenodd;clip-rule:evenodd;}
</style>
<path class="st0" d="M186.9,283.5c28.4,26.6-15.4,74,14.2,74.7c31.7-1.6-18.2-46.5,11.8-74.5c3.5-3.4,5.7-7.9,5.7-12.8v-19.9
	c0-5.1-4.1-9.2-9.2-9.2h-18.6c-5.1,0-9.2,4.1-9.2,9.2V271C181.6,275.7,183.5,280.3,186.9,283.5z"/>
<path class="st0" d="M262.3,28.3C214.8-15.8,132.6,4.5,116.6,73.2c-1.4,6,1.1,12.1,6.1,15.6c38,26.4-11.6,72.8,14.4,74.8
	c34.5-0.1,4.5-39.6,12.4-83c20.2-89.2,128.9-33.9,97.5,21.1c-26.4,46.7-62.4,34.4-63.4,102.4c-0.1,5.1,4.1,9.2,9.1,9.2
	c4.2,0,9.1,0,13.3,0c4.8,0,8.8-3.7,9.1-8.5c4.2-56.3,38.3-49.4,62.1-92.6C292.7,84.1,285.7,49.9,262.3,28.3z"/>
</svg>
