<?xml version="1.0" encoding="UTF-8" standalone="no"?>
<svg
   xmlns:dc="http://purl.org/dc/elements/1.1/"
   xmlns:cc="http://creativecommons.org/ns#"
   xmlns:rdf="http://www.w3.org/1999/02/22-rdf-syntax-ns#"
   xmlns:svg="http://www.w3.org/2000/svg"
   xmlns="http://www.w3.org/2000/svg"
   viewBox="0 0 533.33331 533.33331"
   height="533.33331"
   width="533.33331"
   xml:space="preserve"
   id="svg2"
   version="1.1"><metadata
     id="metadata8"><rdf:RDF><cc:Work
         rdf:about=""><dc:format>image/svg+xml</dc:format><dc:type
           rdf:resource="http://purl.org/dc/dcmitype/StillImage" /></cc:Work></rdf:RDF></metadata><defs
     id="defs6"><clipPath
       id="clipPath18"
       clipPathUnits="userSpaceOnUse"><path
         id="path16"
         d="M 0,400 H 400 V 0 H 0 Z" /></clipPath></defs><g
     transform="matrix(1.3333333,0,0,-1.3333333,0,533.33333)"
     id="g10"><g
       id="g12"><g
         clip-path="url(#clipPath18)"
         id="g14"><g
           transform="translate(185.5,71.917)"
           id="g20"><path
             id="path22"
             style="fill:#000000;fill-opacity:1;fill-rule:nonzero;stroke:none"
             d="m 0,0 c -1.609,2.227 -1.577,5.761 -1.55,9.25 0.102,13.214 1.65,26.591 -5.492,37.977 -2.236,3.564 -6.156,10.375 -8.125,8.356 -1.969,-2.019 -1.447,-9.832 -1.447,-9.832 0,0 1,-41.213 -1.136,-43.168 -2.136,-1.955 -26.669,1.853 -40.025,3.61 -3.246,0.427 -6.499,0.811 -9.731,1.332 -9.853,1.589 -10.832,0.97 -13.417,-8.843 -1.072,-4.064 -1.827,-8.237 -3.22,-12.186 -3.42,-9.704 -10.892,-11.459 -18.344,-4.433 -2.013,1.898 -5.167,6.537 -6.638,4.833 -1.471,-1.705 -0.958,-5.876 -1.043,-9.32 -0.179,-7.191 0.308,-14.507 -0.881,-21.534 -1.154,-6.825 -6.109,-10.917 -13.428,-11.086 -7.197,-0.167 -12.52,3.429 -14.375,10.067 -1.457,5.212 -1.417,11.015 -1.103,16.501 0.331,5.802 1.986,11.514 2.688,17.31 1.413,11.669 -2.804,21.431 -11.457,27.434 -2.806,1.946 -8.276,3.674 -9.276,5.315 -1,1.641 -3.062,112.028 0.563,113.813 3.625,1.784 52.117,0 54.004,0.66 1.889,0.659 0.727,6.325 -0.082,8.69 -2.071,6.058 -6.856,8.927 -14.434,8.931 -13.298,0.008 -35.566,-1.831 -40.218,3.573 -4.651,5.404 -6.03,104.428 -0.182,114.38 5.849,9.953 130.059,25.1 136.063,18.923 6.004,-6.178 6.937,-33.251 5.74,-54.846 -0.327,-5.897 -1.245,-14.663 0.234,-15.186 1.478,-0.524 5.189,5.677 7.429,9.418 4.316,7.207 6.859,15.211 7.227,24.043 0.458,10.976 0.308,21.991 0.035,32.979 -0.114,4.605 1.191,6.508 6.036,7.143 32.683,4.283 65.326,8.877 97.98,13.385 25.933,3.58 51.864,7.189 77.798,10.76 2.265,0.312 5.026,-0.094 6.568,-2.76 1.541,-2.667 4.072,-153.107 -0.594,-158.239 C 181.5,152.117 9.083,151.25 4,156.917 c -5.083,5.666 -4.34,40.198 -5.15,42.316 -0.809,2.119 -3.229,-1.815 -4.574,-3.522 -6.034,-7.658 -9.821,-15.586 -11.022,-24.273 -0.745,-5.389 1.417,-11.574 0.496,-14.605 -0.921,-3.031 -7.711,-3.102 -11.087,-3.122 -10.761,-0.065 -21.522,-0.021 -32.284,-0.025 -10.466,-0.003 -11.879,-1.223 -13.163,-11.592 -0.195,-1.577 -0.527,-4.181 1.534,-5.094 2.061,-0.914 51.386,0.996 52.75,-1 1.364,-1.997 1.354,-7.476 1.485,-11.415 0.397,-11.912 2.733,-23.256 9.542,-33.76 1.64,-2.53 2.983,-5.46 4.473,-4.179 1.49,1.28 1.26,9.604 1.26,9.604 0,0 -1.062,32.75 2.74,37.083 3.802,4.333 180.098,6.146 184.167,1.25 4.068,-4.896 5.598,-157.194 0.916,-159.917 -4.681,-2.723 -25.662,1.057 -38.838,3.633 -6.902,1.348 -9.609,-1.221 -10.861,-6.997 -1.188,-5.478 -1.873,-11.063 -3.016,-16.551 -0.711,-3.414 -0.982,-7.475 -3.033,-9.916 -2.747,-3.27 -6.742,-6.637 -10.715,-7.447 -5.357,-1.094 -9.382,3.199 -10.76,8.187 -1.534,5.557 -2.261,11.446 -2.513,17.227 -0.855,19.583 -2.001,21.145 -20.974,23.813 C 59.447,-9.738 33.502,-6.232 7.569,-2.64 4.809,-2.258 1.609,-2.227 0,0" /></g></g></g></g></svg>