<?xml version="1.0" encoding="utf-8"?>
<!-- Generator: Adobe Illustrator 23.0.6, SVG Export Plug-In . SVG Version: 6.00 Build 0)  -->
<svg version="1.1" id="Layer_1" xmlns="http://www.w3.org/2000/svg" xmlns:xlink="http://www.w3.org/1999/xlink" x="0px" y="0px"
	 viewBox="0 0 400 400" style="enable-background:new 0 0 400 400;" xml:space="preserve">
<path d="M189.6,256.5c-1.3-1.7-1.2-4.5-1.2-7.2c0.1-10.4,1.3-20.8-4.3-29.7c-1.8-2.8-4.8-8.1-6.4-6.5c-1.5,1.6-1.1,7.7-1.1,7.7
	s0.8,32.3-0.9,33.8c-1.7,1.5-20.9-1.5-31.4-2.8c-2.5-0.3-5.1-0.6-7.6-1c-7.7-1.2-8.5-0.8-10.5,6.9c-0.8,3.2-1.4,6.5-2.5,9.5
	c-2.7,7.6-8.5,9-14.4,3.5c-1.6-1.5-4-5.1-5.2-3.8c-1.2,1.3-0.8,4.6-0.8,7.3c-0.1,5.6,0.2,11.4-0.7,16.9c-0.9,5.3-4.8,8.6-10.5,8.7
	c-5.6,0.1-9.8-2.7-11.3-7.9c-1.1-4.1-1.1-8.6-0.9-12.9c0.3-4.5,1.6-9,2.1-13.6c1.1-9.1-2.2-16.8-9-21.5c-2.2-1.5-6.5-2.9-7.3-4.2
	c-0.8-1.3-2.4-87.8,0.4-89.1c2.8-1.4,40.8,0,42.3-0.5c1.5-0.5,0.6-5-0.1-6.8c-1.6-4.7-5.4-7-11.3-7c-10.4,0-27.9,1.4-31.5-2.8
	s-4.7-81.8-0.1-89.6c4.6-7.8,101.9-19.7,106.6-14.8s5.4,26,4.5,43c-0.3,4.6-1,11.5,0.2,11.9c1.2,0.4,4.1-4.4,5.8-7.4
	c3.4-5.6,5.4-11.9,5.7-18.8c0.4-8.6,0.2-17.2,0-25.8c-0.1-3.6,0.9-5.1,4.7-5.6c25.6-3.4,51.2-7,76.7-10.5
	c20.3-2.8,40.6-5.6,60.9-8.4c1.8-0.2,3.9,0.1,5.1,2.2s3.2,119.9-0.5,123.9c-3.7,4-138.7,4.7-142.7,0.3c-4-4.4-3.4-31.5-4-33.1
	c-0.6-1.7-2.5,1.4-3.6,2.8c-4.7,6-7.7,12.2-8.6,19c-0.6,4.2,1.1,9.1,0.4,11.4c-0.7,2.4-6,2.4-8.7,2.4c-8.4,0.1-16.9,0-25.3,0
	c-8.2,0-9.3,1-10.3,9.1c-0.2,1.2-0.4,3.3,1.2,4s40.3-0.8,41.3,0.8s1.1,5.9,1.2,8.9c0.3,9.3,2.1,18.2,7.5,26.4c1.3,2,2.3,4.3,3.5,3.3
	c1.2-1,1-7.5,1-7.5s-0.8-25.7,2.1-29c3-3.4,141.1-4.8,144.3-1c3.2,3.8,4.4,123.1,0.7,125.3c-3.7,2.1-20.1-0.8-30.4-2.8
	c-5.4-1.1-7.5,1-8.5,5.5c-0.9,4.3-1.5,8.7-2.4,13c-0.6,2.7-0.8,5.9-2.4,7.8c-2.2,2.6-5.3,5.2-8.4,5.8c-4.2,0.9-7.3-2.5-8.4-6.4
	c-1.2-4.4-1.8-9-2-13.5c-0.7-15.3-1.6-16.6-16.4-18.7c-20.3-2.9-40.6-5.6-60.9-8.4C193.3,258.2,190.8,258.2,189.6,256.5z"/>
</svg>
