<?xml version="1.0" encoding="utf-8"?>
<!-- Generator: Adobe Illustrator 23.0.6, SVG Export Plug-In . SVG Version: 6.00 Build 0)  -->
<svg version="1.1"
	 id="Layer_1" inkscape:version="0.92.2 (5c3e80d, 2017-08-06)" sodipodi:docname="tidal.svg" xmlns:cc="http://creativecommons.org/ns#" xmlns:dc="http://purl.org/dc/elements/1.1/" xmlns:inkscape="http://www.inkscape.org/namespaces/inkscape" xmlns:rdf="http://www.w3.org/1999/02/22-rdf-syntax-ns#" xmlns:sodipodi="http://sodipodi.sourceforge.net/DTD/sodipodi-0.dtd" xmlns:svg="http://www.w3.org/2000/svg"
	 xmlns="http://www.w3.org/2000/svg" xmlns:xlink="http://www.w3.org/1999/xlink" x="0px" y="0px" viewBox="0 0 400 400"
	 style="enable-background:new 0 0 400 400;" xml:space="preserve">
<path d="M337.5,95.1 M337.5,95.1l-45.7-46.4c-13.4,13.3-29,28.9-42.6,42.3l-0.4,0.2c-2.6,1.1-5.7,0.5-7.7-1.5
	c-13.8-13.6-27.6-27.3-41.4-41.1c0,0,0,0,0,0c-8.3,8.5-16.6,17.1-25,25.6c-6.6,6.7-13.4,13.1-20.3,19.9c-0.3,0.3-0.7,0.3-1,0
	l-0.5-0.5L108,49.2C92.5,64.3,77.4,78.9,62.5,93.5c16.1,16.2,31.2,31.4,46.8,47.1l31.8-31.8c0.7-0.7,1.6-1.3,2.6-1.7
	c18.2-6.4,24.1,62.2,12.1,79.6c9.6,9.8,19.5,19.8,29.3,29.8c3.9,3.9,6.7,8.8,7.8,14.2c4.6,20.8-5.6,45.5,8.2,48
	c17.6-2.4,3.9-23.6,5.9-45.3c0.6-6.7,3.7-12.9,8.4-17.6c9.7-9.8,19.4-19.5,28.8-29c-11-11-22.3-22.3-33.3-33.3
	c-3.8-5.7-5.4-12.5,0.2-22.5c0.5-0.9,1.1-1.7,1.8-2.4c10-10.1,20-20.2,30.4-30.6l0.5-0.2c2.4-1.1,5.2-0.7,7.1,1.2
	c9.2,9.3,18.3,18.4,27.7,27.9c1.5,1.5,2.8,3.3,3.6,5.3c13.4,33.5-18.8,72.4,12.7,75.4c30-4.9-9.5-41.9,9-77.2L337.5,95.1z
	 M180.1,122.3l-0.9-1.2c12.8,15.5,12.4,26.3,5.2,37.5c-0.9,1.5-2.9,2.1-4.3,1.2C170.1,153.8,164.8,107,180.1,122.3z"/>
</svg>
