<?xml version="1.0" encoding="utf-8"?>
<!-- Generator: Adobe Illustrator 22.1.0, SVG Export Plug-In . SVG Version: 6.00 Build 0)  -->
<!DOCTYPE svg PUBLIC "-//W3C//DTD SVG 1.1//EN" "http://www.w3.org/Graphics/SVG/1.1/DTD/svg11.dtd">
<svg version="1.1"
	 id="Layer_1" inkscape:version="0.92.2 (5c3e80d, 2017-08-06)" sodipodi:docname="tidal.svg" xmlns:cc="http://creativecommons.org/ns#" xmlns:dc="http://purl.org/dc/elements/1.1/" xmlns:inkscape="http://www.inkscape.org/namespaces/inkscape" xmlns:rdf="http://www.w3.org/1999/02/22-rdf-syntax-ns#" xmlns:sodipodi="http://sodipodi.sourceforge.net/DTD/sodipodi-0.dtd" xmlns:svg="http://www.w3.org/2000/svg"
	 xmlns="http://www.w3.org/2000/svg" xmlns:xlink="http://www.w3.org/1999/xlink" x="0px" y="0px" viewBox="0 0 400 400"
	 style="enable-background:new 0 0 400 400;" xml:space="preserve">
<sodipodi:namedview  bordercolor="#666666" borderopacity="1" gridtolerance="10" guidetolerance="10" id="namedview9" inkscape:current-layer="Layer_1" inkscape:cx="278.5371" inkscape:cy="243.11513" inkscape:pageopacity="0" inkscape:pageshadow="2" inkscape:window-height="1017" inkscape:window-maximized="1" inkscape:window-width="1920" inkscape:window-x="1358" inkscape:window-y="-8" inkscape:zoom="1.4343434" objecttolerance="10" pagecolor="#ffffff" showgrid="false">
	</sodipodi:namedview>
<path d="M390.9,104.8 M390.9,104.8l-63.5-64.4c-18.6,18.5-40.3,40.1-59.2,58.8l-0.6,0.3c-3.7,1.6-7.9,0.7-10.7-2
	c-19.2-18.9-38.3-38-57.5-57c0,0,0,0,0,0c-11.5,11.8-23.1,23.8-34.7,35.6c-9.2,9.3-18.6,18.2-28.2,27.7c-0.4,0.4-1,0.4-1.4,0
	l-0.7-0.7L72.2,41.1C50.7,62,29.8,82.4,9.1,102.5c22.4,22.5,43.3,43.6,65,65.4l44.2-44.2c1-1,2.2-1.8,3.6-2.3
	c25.3-8.9,33.4,86.4,16.8,110.5c13.4,13.7,27.1,27.5,40.7,41.3c5.4,5.5,9.2,12.3,10.9,19.7c6.3,28.9-7.7,63.2,11.3,66.7
	c24.4-3.4,5.4-32.8,8.2-62.9c0.9-9.2,5.1-17.9,11.6-24.4c13.5-13.5,26.9-27.1,40-40.3c-15.3-15.3-30.9-30.9-46.2-46.2
	c-5.3-7.8-7.5-17.4,0.2-31.2c0.7-1.2,1.6-2.4,2.6-3.4c13.9-14.1,27.8-28,42.2-42.5l0.7-0.3c3.3-1.6,7.2-0.9,9.8,1.7
	c12.7,12.8,25.4,25.6,38.5,38.7c2.1,2.1,3.8,4.6,4.9,7.4c18.6,46.5-26.1,100.5,17.7,104.7c41.6-6.8-13.2-58.2,12.5-107.2
	L390.9,104.8z M172.4,142.5l-1.3-1.7c17.7,21.5,17.2,36.5,7.2,52c-1.3,2-4,2.8-6,1.6C158.5,186.3,151.1,121.4,172.4,142.5z"/>
</svg>
