<?xml version="1.0" encoding="utf-8"?>
<!-- Generator: Adobe Illustrator 23.0.1, SVG Export Plug-In . SVG Version: 6.00 Build 0)  -->
<svg version="1.1"
	 id="svg4" xmlns:cc="http://creativecommons.org/ns#" xmlns:dc="http://purl.org/dc/elements/1.1/" xmlns:inkscape="http://www.inkscape.org/namespaces/inkscape" xmlns:rdf="http://www.w3.org/1999/02/22-rdf-syntax-ns#" xmlns:sodipodi="http://sodipodi.sourceforge.net/DTD/sodipodi-0.dtd" xmlns:svg="http://www.w3.org/2000/svg"
	 xmlns="http://www.w3.org/2000/svg" xmlns:xlink="http://www.w3.org/1999/xlink" x="0px" y="0px" viewBox="0 0 400 400"
	 style="enable-background:new 0 0 400 400;" xml:space="preserve">
<style type="text/css">
	.st0{fill:#00000C;}
</style>
<sodipodi:namedview  bordercolor="#666666" borderopacity="1" fit-margin-bottom="50.3" fit-margin-left="0" fit-margin-right="0" fit-margin-top="50" gridtolerance="10" guidetolerance="10" id="namedview6" inkscape:current-layer="svg4" inkscape:cx="73.670125" inkscape:cy="90.022003" inkscape:pageopacity="0" inkscape:pageshadow="2" inkscape:window-height="1017" inkscape:window-maximized="1" inkscape:window-width="1920" inkscape:window-x="1358" inkscape:window-y="-8" inkscape:zoom="5.2149125" objecttolerance="10" pagecolor="#ffffff" showgrid="false">
	</sodipodi:namedview>
<path class="st0" d="M302.1,5.9H97.9c-20.4,0-37,16.6-37,37v204.2c0,20.4,16.6,37,37,37h117.6c9.9,0,19.7,3.1,27.5,9.2
	c38.9,30.5-12.5,97.4,26.1,100.7c33.1-0.9-42.1-102.3,32.5-109.8c1-0.1,2-0.1,3-0.2c19.5-1.1,34.4-17.2,34.4-36.9V42.9
	C339.1,22.5,322.5,5.9,302.1,5.9z M145.5,183.5V67.5c0-3.2,2.6-5.9,5.9-5.9l48.1,0c5.7,0,11.3,1.7,15.7,5.3c6.3,5,7,10.7,2.1,13.6
	c-1.4,0.8-3.1,1.2-4.8,1.2c-3.6,0-7.8,0.1-12.7,0.1h-28.7c-3.2,0-5.7,2.6-5.7,5.7v34.3c0,2.5,2,4.5,4.5,4.5l14.6,0
	c1.7,0,3.4,0.5,4.7,1.7c6.1,5.6-8.9,14.6-19.8,17.5c-2.3,0.6-3.9,2.7-3.9,5.1v37.2C163.2,201.8,147.3,197.9,145.5,183.5z
	 M249.7,202.9c-0.3,0.8-0.9,1.5-1.6,2.1c-4.3,3.1-9.6,5.7-15.9,7.3c-6.7,1.7-15,2.9-24.7,2.9H169c-3.2,0-6.3-1-8.7-3
	c-5.5-4.5-1.3-8.7,4.8-11.6c4.6-2.2,9.7-3.2,14.8-3.2h27.7c6.6,0,11.2-0.7,13.8-1.2c1.5-0.3,2.9-0.6,4.2-1c3.8-1.2,7.8-1.6,11.7-1.2
	C245.9,194.7,251.2,198.8,249.7,202.9z M262.3,185c-0.4,1.1-0.9,2.1-1.8,2.9c-6.1,6.1-18.5-2.6-17.5-11.1l0,0
	c0.5-2.1,0.7-4.4,0.7-6.7c0-5.7-1.5-10.1-4.4-14.3c-2.9-4.2-7-6.6-12.2-8.3c-5.2-1.7-12.7-1.3-22.4-1.3l-3.3,0
	c-1.7,0-3.3-0.5-4.5-1.6c-3.8-3.4-0.9-8.7,4.8-13.1c4.3-3.3,9.5-5.4,14.9-6.2c2-0.3,3.7-0.7,5.1-1.1c5.2-1.5,9-4.2,11.7-7.8
	c2.6-3.6,3.9-8.1,3.9-13.5c0-4.2-0.9-7.9-2.5-11.3c-2.9-8.6-7.7-19.6-1.2-22.8c2.3-1.2,5.1-0.7,7.3,0.7c4.2,2.8,7.6,6.4,10.4,10.8
	c4,6.4,6,13.1,6,20.2c0,6.6-1.8,12.7-5.3,18.5c-2.6,4.3-6.2,7.9-10.8,11c-1.9,1.3-1.7,4.2,0.5,5.1c6.5,2.8,11.7,6.7,15.6,11.9
	c5,6.6,7.5,14.3,7.5,23.2C264.8,175.3,263.9,180.3,262.3,185z"/>
</svg>
