<?xml version="1.0" encoding="utf-8"?>
<!-- Generator: Adobe Illustrator 21.1.0, SVG Export Plug-In . SVG Version: 6.00 Build 0)  -->
<!DOCTYPE svg PUBLIC "-//W3C//DTD SVG 1.1//EN" "http://www.w3.org/Graphics/SVG/1.1/DTD/svg11.dtd">
<svg version="1.1" id="Layer_1" xmlns="http://www.w3.org/2000/svg" xmlns:xlink="http://www.w3.org/1999/xlink" x="0px" y="0px"
	 viewBox="0 0 400 400" enable-background="new 0 0 400 400" xml:space="preserve">
<g>
	<path d="M345.5,131.3c-2.2,60-24.9,110.6-69.9,150.7c-24.4,21.8-52.6,37-84,46c-20.4,5.8-41.2,8.5-62.5,8.1
		c-10.7-0.2-21,2.2-29.9,9c-3.2,2.5-4.6,5-3.4,9.2c1.3,4.5-2.6,9.8-7,10.3c-5.5,0.6-10.9-3.3-11.4-8c-0.3-3-0.4-6.3-4.2-7
		c-3.2-0.6-6.7,2.6-7.3,6.6c-0.4,2.5-0.5,5.1-0.2,7.6c1,8.8-5,13.7-9.2,15.2c-4.3,1.5-8.4,1.7-10.4,1.7c-2-0.1-4.3-0.2-6-1.2
		c-6-3.3-10.3-17.1-6.6-22.8c7.6-11.6,4.2-27.3-5.1-37.1c-4.4-4.7-9.2-9-13.6-13.6c-0.9-0.9-2.3-2.4-1.8-3.8
		c0.6-1.4,2.8-1.7,4.2-1.7c24.3,0.1,47.6-4.6,70.2-13.3c7.9-3.1,15.5-7.1,23.2-10.7c0.9-0.4,2.3-0.9,2.4-1.8c0.1-0.9-1.7-1.5-2.7-2
		c-14.1-5.9-27-13.6-38-24.3c-7.5-7.4-13.2-16.2-17.2-26.1c-1.6-3.9-0.3-5.2,3.5-5.4c3.3-0.1,6.6-0.5,9.8-0.9
		c0.8-0.1,2.3-0.4,2.2-1.2c-0.1-0.8-0.9-1.1-1.5-1.5c-4.7-3.1-9.5-6.3-14.2-9.3c-0.8-0.5-1.7-1.4-2.7-1.1c-1,0.3-0.8,0.7-0.8,3.1
		s-0.1,7.3-0.8,10.9c-1.1,5.1-4.8,7.3-10.9,7.1c-5-0.1-9-3-9.6-7.7c-0.5-3.8-0.9-8.1,0.4-11.5c5-12.2,1.4-23.7-1.5-35.5
		c-1.9-7.8-2.8-15.8-3.5-23.8c-0.4-4.3,2.6-6.2,6.8-5.2c2.9,0.6,5.8,1.5,8.7,2.1c1.1,0.3,2.9,1.1,3.5,0.3s-1.1-2.3-1.8-3.4
		c-7.9-10.4-13.3-22-15.5-35c-2.8-16.4-0.7-32.2,6.2-47.4c0.8-1.8,1.9-3.4,3-5c1.5-2.2,3-2.3,5-0.2c21.3,22.5,47.3,38.5,75,51.7
		c22.4,10.7,46.1,17.8,70.4,22.4c4.8,0.9,5.3,0.4,4.5-4.2c-5.4-31.5,13.1-66.1,42.4-79.1c31.6-14,61-10.2,87.8,11.6
		c3.1,2.5,6.1,2.5,9.2,1.4c11.8-4.2,23.6-8.7,35.4-12.9c1.6-0.6,3.9-1.8,5.4-0.7c1.5,1.1,0.5,3.6-0.2,5.1
		c-2.9,5.9-5.9,11.8-9.6,17.1c-3.5,5-8,9.3-12,13.9c-0.6,0.6-1.7,1.3-1.4,2.1c0.3,0.8,1.8,0.2,2.6,0c8.6-2.7,17.2-5.3,25.6-8.2
		c5-1.7,6.3-1.1,6.1,4.2c-0.1,1.5-0.3,3-0.8,4.4c-4.3,13.7-4.8,27.2,2.4,40.3c1.6,3,2,6.9,2,10.4c-0.1,6.9-4.9,12.7-10.1,13.2
		c-9.1,0.8-17-4.1-18.6-11.9c-0.7-3.6-0.8-7.4-0.9-11.2c-0.2-6-3.4-8.3-8.7-5.8c-1.2,0.6-2.4,2.5-2.5,3.9
		C345.3,123.2,345.5,127.2,345.5,131.3z"/>
</g>
</svg>
