<?xml version="1.0" encoding="utf-8"?>
<!-- Generator: Adobe Illustrator 23.0.1, SVG Export Plug-In . SVG Version: 6.00 Build 0)  -->
<svg version="1.1"
	 id="svg2" xmlns:cc="http://creativecommons.org/ns#" xmlns:dc="http://purl.org/dc/elements/1.1/" xmlns:inkscape="http://www.inkscape.org/namespaces/inkscape" xmlns:rdf="http://www.w3.org/1999/02/22-rdf-syntax-ns#" xmlns:sodipodi="http://sodipodi.sourceforge.net/DTD/sodipodi-0.dtd" xmlns:svg="http://www.w3.org/2000/svg"
	 xmlns="http://www.w3.org/2000/svg" xmlns:xlink="http://www.w3.org/1999/xlink" x="0px" y="0px" viewBox="0 0 400 400"
	 style="enable-background:new 0 0 400 400;" xml:space="preserve">
<path d="M201.8,4.9C120.6,3.9,55.3,69,54.5,148.7C53.9,204,83.9,251.9,128.3,277c53.2,33.4,2.7,116.5,36.1,118.1
	c31.7,0.4-14.7-89.6,24-98.8c1.9-0.4,3.8-0.6,5.7-0.5c1.5,0.1,2.9,0.1,4.4,0.1c81.5,0.8,147-65,147-145.4
	C345.5,70.5,281.2,5.8,201.8,4.9z M138.8,38.8c4.6-2.6,9.4-4.8,14.3-6.7c4.9-2,9.3,3.9,6,8.1c-3.1,4-6,8.1-8.7,12.3
	c-5.6,8.6-10.4,17.6-14.5,27c-0.5,1.1-1.8,1.7-3,1.2c-6.6-2.6-20.1-9.5-25.8-13.2c-1.3-0.8-1.5-2.5-0.4-3.6
	C116,53.8,126.7,45.4,138.8,38.8z M95.7,80.7c0.4-2.4,3.1-3.6,5.2-2.3c8.6,5.3,17.4,9.9,26.7,13.7c1.6,0.7,2.5,2.5,2,4.2
	c-2.4,7.8-4.4,15.6-5.7,23.5c-0.7,3.8-2.1,7.5-4.3,10.7C104.9,151.5,91.5,106.5,95.7,80.7z M72.9,143.3c0.3-5,0.9-9.8,1.7-14.6
	c0.1-0.5,0.3-0.9,0.6-1.2C79.4,122.7,98,144,85.7,144H73.6C73.2,144,72.8,143.7,72.9,143.3z M93.9,220.8
	c-11.7-17.7-18.6-37.1-20.6-58.3c-0.3-3.1,2.1-5.7,5.2-5.7h37.8c2.8,0,5.1,2.2,5.2,5c0.8,14.1,3.2,27.9,7.3,41.5
	c0.8,2.6-0.5,5.3-3,6.3c-8.6,3.7-16.8,8-24.7,12.9C98.6,223.8,95.5,223.1,93.9,220.8z M163.3,272.3c-21.4-6.4-39.8-17.8-55.4-33.9
	c-1.7-1.8-1.3-4.7,0.8-5.9c7.2-4.4,14.5-8.2,22.2-11.5c1.9-0.8,4.2,0.1,5,2c3.8,8.8,8.2,17.2,13.4,25.2c4.8,7.5,10,14.6,15.8,21.3
	C166.2,270.8,165,272.8,163.3,272.3z M193.6,275c0,1.4-1.3,2.6-2.7,2.4l0,0c-0.3,0-0.6-0.3-0.9-0.5c-10.3-9.2-19.3-19.4-27-30.8
	c-5.8-8.6-11.2-18.4-15.4-28c-0.7-1.5,0.2-3.3,1.8-3.8c13.5-4.1,27.3-6.5,41.3-7.2c1.6-0.1,2.9,1.2,2.9,2.8V275z M193.6,189.3
	c0,2.8-2.2,5-4.9,5.2c-14.1,0.9-28,3.3-41.7,7.3c-2.8,0.8-5.7-0.7-6.5-3.5c-3.4-11.8-5.5-23.7-6.3-36c-0.2-3,2.2-5.6,5.2-5.6h49.1
	c2.9,0,5.2,2.3,5.2,5.2V189.3z M193.7,138.8c0,2.9-2.3,5.2-5.2,5.2h-49c-3.1,0-5.4-2.6-5.2-5.7c0.9-12.2,3.1-24.1,6.6-35.8
	c0.8-2.7,3.7-4.3,6.5-3.5c13.6,3.9,27.3,6.3,41.4,7.2c2.8,0.2,4.9,2.4,4.9,5.2V138.8z M150.2,86.8c-1.8-0.5-2.7-2.5-1.9-4.2
	c0.4-0.8,0.7-1.6,1.1-2.4c7.2-15.4,16.4-29.4,27.8-42c13.7-11.7,15.6,25.8,16.4,52.5c0.1,1.7-1.3,3-3,2.9
	C176.8,93,163.4,90.7,150.2,86.8z M306.1,80c11.7,17.7,18.6,37.1,20.6,58.3c0.3,3.1-2.1,5.7-5.2,5.7h-37.9c-2.8,0-5-2.2-5.2-4.9
	c-0.9-14-3.4-27.8-7.6-41.3c-0.8-2.6,0.5-5.3,3-6.4c8.7-3.7,17-8,25.1-13C301.4,77,304.5,77.6,306.1,80z M247.1,32.1
	c16.5,6.5,31,16.2,43.7,29c2.4,2.4,1.8,6.4-1.1,8.1c-6.4,3.8-13,7.2-19.9,10.2c-2.6,1.1-5.7,0-6.9-2.7c-5.9-13.1-13.3-25.3-22-36.6
	C237.8,36,242.1,30.2,247.1,32.1z M206.4,24.7c0-1,1.1-1.5,1.9-0.9c0,0,0,0,0,0c18.3,16,32.9,35.8,43.1,57.9c1,2.1-0.2,4.6-2.4,5.2
	c-12.1,3.5-24.4,5.7-37,6.5c-3,0.2-5.6-2.2-5.6-5.2V24.7z M206.4,111.4c0-2.8,2.2-5,4.9-5.2c14.1-0.9,28-3.3,41.5-7.2
	c2.8-0.8,5.7,0.7,6.5,3.5c2.8,9.1,5.8,25.6,6.6,35.9c0.2,3-2.2,5.6-5.2,5.6h-49.1c-2.9,0-5.2-2.3-5.2-5.2V111.4z M206.3,160.7
	c0-2.2,1.8-3.9,3.9-3.9h9.3c0.7,0,1.3,0.2,1.8,0.6c4.7,4.2-8.7,20.9-14,13.4c-0.8-1.1-1.1-2.4-1.1-3.7V160.7z M252.7,217.3
	c-7.5,17.4-17.9,33.8-30.8,47.7c-3.5,3.8-7.4,7.3-11,11.1c-0.4,0.4-0.8,0.7-1.2,0.9c-1.5,0.8-3.4-0.4-3.4-2.1v-65.7
	c0-1.2,1-2.1,2.2-2.1c14.6,0.7,28.9,3.2,42.9,7.5C252.6,214.9,253.2,216.2,252.7,217.3z M253.6,202c-6-1.8-12.1-3.3-18.2-4.4
	c-3.8-0.7-7.3-2.5-9.9-5.4c-13.2-14.3,16.6-28.8,37-34.5c1.9-0.5,3.7,1,3.7,2.9c-0.4,8.7-3.7,27.6-6.8,38.3
	C258.7,201.3,256.1,202.7,253.6,202z M294.1,236.2c-7.5,8.2-15.8,15.2-24.7,21c-21.1,13-10.1-18.7-4.2-36.2c0.3-0.8,1.1-1.2,1.9-0.9
	c9.2,3.8,18.1,8.4,26.8,13.9C294.6,234.5,294.7,235.5,294.1,236.2z M306.1,220.8c-1.6,2.4-4.7,3.1-7.2,1.6
	c-7.9-4.9-16.2-9.2-24.8-12.9c-2.4-1.1-3.7-3.8-3-6.3c4-13.5,6.5-27.3,7.3-41.4c0.2-2.8,2.4-5,5.2-5h38.3c2.8,0,5,2.4,4.7,5.2
	C324.8,183.3,317.9,202.8,306.1,220.8z"/>
</svg>
