<?xml version="1.0" encoding="utf-8"?>
<!-- Generator: Adobe Illustrator 23.0.6, SVG Export Plug-In . SVG Version: 6.00 Build 0)  -->
<svg version="1.1"
	 id="svg2" inkscape:version="0.92.1 r15371" sodipodi:docname="globe.svg" xmlns:cc="http://creativecommons.org/ns#" xmlns:dc="http://purl.org/dc/elements/1.1/" xmlns:inkscape="http://www.inkscape.org/namespaces/inkscape" xmlns:rdf="http://www.w3.org/1999/02/22-rdf-syntax-ns#" xmlns:sodipodi="http://sodipodi.sourceforge.net/DTD/sodipodi-0.dtd" xmlns:svg="http://www.w3.org/2000/svg"
	 xmlns="http://www.w3.org/2000/svg" xmlns:xlink="http://www.w3.org/1999/xlink" x="0px" y="0px" viewBox="0 0 400 400"
	 style="enable-background:new 0 0 400 400;" xml:space="preserve">
<path d="M201.7,4.9C125.1,4,63.5,65.4,62.7,140.6c-0.5,52.1,27.8,97.3,69.6,121.1c50.2,31.6,2.5,109.9,34,111.4
	c29.9,0.3-13.9-84.5,22.6-93.3c1.8-0.4,3.6-0.5,5.4-0.5c1.4,0.1,2.8,0.1,4.2,0.1c76.9,0.7,138.7-61.3,138.7-137.2
	C337.3,66.8,276.6,5.8,201.7,4.9z M142.2,36.8c4.4-2.4,8.9-4.5,13.5-6.3c4.7-1.8,8.8,3.6,5.7,7.6c-2.9,3.8-5.7,7.6-8.3,11.6
	c-5.3,8.1-9.8,16.6-13.6,25.5c-0.5,1.1-1.7,1.6-2.8,1.2c-6.2-2.4-19-9-24.4-12.5c-1.2-0.8-1.4-2.4-0.4-3.4
	C120.7,51,130.8,43.1,142.2,36.8z M101.6,76.5c0.4-2.3,3-3.4,4.9-2.2c8.1,5,16.5,9.3,25.2,13c1.5,0.6,2.3,2.4,1.8,4
	c-2.3,7.3-4.1,14.7-5.4,22.2c-0.6,3.6-2,7.1-4.1,10.1C110.3,143.2,97.6,100.7,101.6,76.5z M80,135.4c0.3-4.7,0.8-9.3,1.6-13.8
	c0.1-0.4,0.2-0.9,0.5-1.2c4.1-4.4,21.6,15.7,9.9,15.7H80.7C80.3,136.2,80,135.8,80,135.4z M99.9,208.6c-11.1-16.7-17.5-35-19.5-55
	c-0.3-2.9,2-5.4,4.9-5.4H121c2.6,0,4.8,2.1,4.9,4.7c0.8,13.3,3.1,26.3,6.9,39.1c0.7,2.4-0.5,5-2.8,6c-8.1,3.5-15.8,7.5-23.4,12.2
	C104.3,211.5,101.4,210.8,99.9,208.6z M165.4,257.2c-20.2-6.1-37.5-16.8-52.2-32c-1.6-1.7-1.2-4.4,0.7-5.6c6.8-4.1,13.7-7.7,21-10.8
	c1.8-0.8,4,0.1,4.7,1.9c3.6,8.3,7.8,16.2,12.6,23.8c4.5,7.1,9.5,13.8,14.9,20.1C168.2,255.8,166.9,257.7,165.4,257.2z M194,259.8
	c0,1.4-1.2,2.4-2.6,2.2l0,0c-0.3,0-0.6-0.3-0.8-0.5c-9.7-8.6-18.2-18.3-25.5-29c-5.5-8.1-10.6-17.3-14.5-26.4
	c-0.6-1.4,0.1-3.1,1.7-3.6c12.7-3.8,25.7-6.1,39-6.8c1.5-0.1,2.8,1.1,2.8,2.6V259.8z M194,178.9c0,2.6-2,4.8-4.7,4.9
	c-13.3,0.8-26.5,3.1-39.4,6.9c-2.6,0.8-5.4-0.7-6.1-3.3c-3.2-11.1-5.2-22.4-6-34c-0.2-2.9,2.1-5.3,4.9-5.3h46.3
	c2.7,0,4.9,2.2,4.9,4.9V178.9z M194,131.3c0,2.7-2.2,4.9-4.9,4.9h-46.2c-2.9,0-5.1-2.5-4.9-5.3c0.9-11.5,3-22.7,6.3-33.8
	c0.8-2.6,3.5-4,6.1-3.3c12.8,3.7,25.8,6,39,6.8c2.6,0.2,4.7,2.3,4.7,4.9V131.3z M153,82.1c-1.7-0.5-2.5-2.3-1.8-3.9
	c0.3-0.8,0.7-1.5,1-2.3c6.8-14.6,15.5-27.8,26.2-39.6c12.9-11,14.7,24.3,15.5,49.6c0.1,1.6-1.3,2.9-2.9,2.8
	C178.1,88,165.5,85.8,153,82.1z M300.1,75.8c11.1,16.7,17.5,35,19.5,55c0.3,2.9-2,5.4-4.9,5.4H279c-2.6,0-4.8-2-4.9-4.6
	c-0.9-13.3-3.2-26.2-7.1-39c-0.7-2.4,0.5-5,2.8-6c8.2-3.5,16.1-7.6,23.7-12.3C295.7,72.9,298.6,73.5,300.1,75.8z M244.4,30.6
	c15.5,6.1,29.3,15.3,41.3,27.4c2.2,2.3,1.7,6.1-1,7.7c-6.1,3.6-12.3,6.8-18.8,9.6c-2.5,1.1-5.4,0-6.5-2.5
	c-5.6-12.4-12.5-23.9-20.7-34.6C235.6,34.2,239.7,28.8,244.4,30.6z M206,23.6c0-0.9,1.1-1.4,1.8-0.8c0,0,0,0,0,0
	c17.3,15.1,31.1,33.8,40.6,54.6c0.9,2-0.2,4.3-2.2,4.9c-11.4,3.3-23,5.4-34.9,6.2c-2.9,0.2-5.3-2.1-5.3-4.9V23.6z M206,105.4
	c0-2.6,2-4.8,4.7-4.9c13.3-0.8,26.4-3.1,39.2-6.8c2.6-0.8,5.3,0.7,6.1,3.3c2.6,8.6,5.5,24.2,6.2,33.9c0.2,2.9-2,5.3-4.9,5.3h-46.3
	c-2.7,0-4.9-2.2-4.9-4.9V105.4z M206,151.9c0-2,1.7-3.7,3.7-3.7h8.8c0.6,0,1.2,0.2,1.7,0.6c4.4,3.9-8.2,19.7-13.2,12.6
	c-0.7-1-1-2.2-1-3.5V151.9z M249.7,205.3c-7.1,16.4-16.9,31.9-29,45c-3.3,3.6-7,6.9-10.4,10.4c-0.4,0.4-0.7,0.6-1.1,0.8
	c-1.4,0.8-3.2-0.4-3.2-2v-62c0-1.1,0.9-2,2-1.9c13.8,0.7,27.3,3,40.5,7.1C249.6,203,250.2,204.2,249.7,205.3z M250.6,190.9
	c-5.7-1.7-11.4-3.1-17.2-4.2c-3.6-0.7-6.9-2.4-9.4-5.1c-12.4-13.5,15.6-27.2,35-32.6c1.8-0.5,3.5,0.9,3.5,2.8
	c-0.3,8.2-3.5,26.1-6.4,36.1C255.4,190.3,252.9,191.6,250.6,190.9z M288.8,223.1c-7.1,7.7-14.9,14.3-23.3,19.8
	c-19.9,12.3-9.5-17.6-4-34.1c0.2-0.7,1.1-1.1,1.8-0.8c8.7,3.6,17.1,7.9,25.3,13.1C289.2,221.5,289.4,222.5,288.8,223.1z
	 M300.1,208.6c-1.5,2.2-4.5,2.9-6.7,1.5c-7.5-4.6-15.3-8.7-23.4-12.2c-2.3-1-3.5-3.5-2.8-6c3.8-12.8,6.1-25.8,6.9-39.1
	c0.2-2.6,2.3-4.7,4.9-4.7h36.2c2.6,0,4.7,2.3,4.5,4.9C317.8,173.2,311.3,191.7,300.1,208.6z"/>
</svg>
