<?xml version="1.0" encoding="utf-8"?>
<!-- Generator: Adobe Illustrator 23.0.1, SVG Export Plug-In . SVG Version: 6.00 Build 0)  -->
<svg version="1.1"
	 id="svg8" xmlns:cc="http://creativecommons.org/ns#" xmlns:dc="http://purl.org/dc/elements/1.1/" xmlns:inkscape="http://www.inkscape.org/namespaces/inkscape" xmlns:rdf="http://www.w3.org/1999/02/22-rdf-syntax-ns#" xmlns:sodipodi="http://sodipodi.sourceforge.net/DTD/sodipodi-0.dtd" xmlns:svg="http://www.w3.org/2000/svg"
	 xmlns="http://www.w3.org/2000/svg" xmlns:xlink="http://www.w3.org/1999/xlink" x="0px" y="0px" viewBox="0 0 400 400"
	 style="enable-background:new 0 0 400 400;" xml:space="preserve">
<sodipodi:namedview  bordercolor="#666666" borderopacity="1" fit-margin-bottom="20" fit-margin-left="0" fit-margin-right="0" fit-margin-top="0" gridtolerance="10" guidetolerance="10" id="namedview10" inkscape:current-layer="svg8" inkscape:cx="-17.537717" inkscape:cy="9.1136983" inkscape:pageopacity="0" inkscape:pageshadow="2" inkscape:window-height="705" inkscape:window-maximized="1" inkscape:window-width="1366" inkscape:window-x="-8" inkscape:window-y="245" inkscape:zoom="11.313709" objecttolerance="10" pagecolor="#ffffff" showgrid="false">
	</sodipodi:namedview>
<g id="Layer_1">
</g>
<g>
	<path d="M122.3,98.1c23.1,11.3,26.6,62.5,29.7,98.7c0,0,0,0.6,0.1,0.7c0,0.1,0.1,0.2,0.1,0.3c0.1,0.4,0.2,0.6,0.5,0.6
		c0.4,0,0.6,0,1.3,0h15.8h1.3c0.3,0,0.6-0.3,0.6-0.6V99.2c0-1,0.8-1.7,1.7-1.7h27.9c0.6,0,0.8,0,1-0.3c0.2-0.2,0.2-0.3,0.2-1
		L201.3,81c0-0.6-0.2-0.8-0.5-1c-0.3-0.2-0.7-0.2-1.4-0.2h-74.5c0,0-1,0-1.1,0.6c-0.1,0.6-0.1,0.7-0.2,1.4l-1.6,13.2
		c-0.1,0.8-0.2,1.7-0.2,2.5C121.8,97.8,121.8,97.8,122.3,98.1z M142.5,98.1h7.9c0.9,0,1.6,0.7,1.6,1.6v18.7c0,0.9-0.1,1.8-0.5,2.7
		c-2.2,4.8-7.2-2-9.9-9.5C139.4,105.4,138.4,98.1,142.5,98.1z"/>
	<path d="M228.5,259.4c1.4,0.3,2.9,0.4,4.3,0.1c15.8-3.8-11.5-46,5.9-54.9c1.5-0.8,3.3-1.1,5-1.2c9.8-0.6,17.6-3.7,23.8-9.4
		c6.9-5.7,10.1-13.9,10.1-24c0-6.3-1.9-12.6-5-18.3c-1.7-3.4-4.6-6.5-8.5-9.5c-3.2-2.5-5.2-3.8-9.8-6.4l-1.5-0.9
		c-2.3-1.2-3.4-4-4.2-5.6c-2.4-4.8-2.7-9.1-1.6-12.7c2.7-8.6,13.8-13.5,25-13.5c0.8,0,0.6-0.6,0.6-1.3V86.1c0-0.6,0-0.6,0-0.9
		s0-0.7-0.6-1c-2.5-1.3-5-2.5-8.8-3.2c-3.8-0.6-8.2-1.3-13.3-1.3c-12,0-20.8,3.2-27.1,9.5s-9.5,14.5-9.5,23.3c0,6.3,1.9,12.6,5,17.7
		c3.2,5,9.5,10.7,18.3,15.8l6.3,3.2c6.3,3.8,10.7,6.9,12.6,10.1c1.9,2.5,3.2,6.3,3.2,9.5c0,3.8-1.3,6.9-4.4,10.1s-7.6,4.4-13.9,4.4
		c-5,0-9.5-0.6-13.9-1.9c-4-1.2-8.1-2.8-11.7-5.5c-0.6-0.5-1.4-0.8-2.2-0.8h0c-0.6,0-0.6,0.6-0.6,0.6v16.4c0,0.6,0,0.8,0,1.4
		c0,0.6,0.2,0.7,0.5,1.1C235.5,218,208,254.6,228.5,259.4z M232.8,118.2c-0.8-1.9-1.2-3.7-1.2-5.6c0-3.2,1.3-6.3,3.8-9.5
		c1.2-1.2,2.5-2.4,4.2-3.2c1.2-0.6,2.3-1.1,3.9-1.1C252,98.8,238.4,129.7,232.8,118.2z"/>
	<path d="M57.4,14.2v256.5c0,6.7,3.5,12.8,9.1,16.5c44.6,29.4-5.5,95.8,18.2,107.3c3.1,1.5,6.7,1.5,9.7-0.1
		c22.3-12.2-30.6-86.3,22.7-107.9c7.1-2.9,14.7-4.2,22.4-4.2h193.1c5.6,0,10.1-4.5,10.1-10.1V14.2c0-5.6-4.5-10.1-10.1-10.1h-265
		C61.9,4,57.4,8.6,57.4,14.2z M320.5,271H78.9c-5.6,0-10.1-4.5-10.1-10.1V26.2c0-5.6,4.5-10.1,10.1-10.1h241.7
		c5.6,0,10.1,4.5,10.1,10.1v234.7C330.6,266.5,326.1,271,320.5,271z"/>
</g>
</svg>
