<?xml version="1.0" encoding="utf-8"?>
<!-- Generator: Adobe Illustrator 23.0.6, SVG Export Plug-In . SVG Version: 6.00 Build 0)  -->
<svg version="1.1"
	 id="svg8" xmlns:cc="http://creativecommons.org/ns#" xmlns:dc="http://purl.org/dc/elements/1.1/" xmlns:inkscape="http://www.inkscape.org/namespaces/inkscape" xmlns:rdf="http://www.w3.org/1999/02/22-rdf-syntax-ns#" xmlns:sodipodi="http://sodipodi.sourceforge.net/DTD/sodipodi-0.dtd" xmlns:svg="http://www.w3.org/2000/svg"
	 xmlns="http://www.w3.org/2000/svg" xmlns:xlink="http://www.w3.org/1999/xlink" x="0px" y="0px" viewBox="0 0 400 400"
	 style="enable-background:new 0 0 400 400;" xml:space="preserve">
<path d="M343.7,242.7l-16.3-13.3c-5.5-4.5-7.1-12.3-3.8-18.6c10.7-20,16.4-42.5,16.4-65.8c0-23.9-6-46.9-17.2-67.3
	c-3.5-6.3-1.9-14.2,3.7-18.8l8.2-6.7c6.4-5.2,6.9-14.3,1-20.2l0,0c-5.9-5.9-15.9-6.4-22.3-1.1l-6.3,5.2c-5.5,4.5-13.5,4.6-19,0.1
	C263.2,15.9,232.5,4.9,200,4.9c-32.9,0-64,11.3-89,32c-5.5,4.6-13.6,4.5-19.2,0l-14.6-12C70.7,19.6,61.3,20.6,56,27l0,0
	c-5.1,6.3-5,15.2,0.1,21.5C68,63.2,71.6,79.9,66.3,103.4c-1.1,3.5-2.1,7.1-2.9,10.7c0,0,0,0.1,0,0.1c0,0,0,0,0,0
	c-2.2,10-3.4,20.3-3.4,30.7c0,22.9,5.5,45,15.8,64.7c3.3,6.3,1.7,14-3.8,18.5l-21.5,17.6c-6.4,5.2-7.4,14.7-2.1,21.1h0
	c5.4,6.4,14.6,7.9,21.8,3.7c8.5-5,15.4-7.9,20.8-9.1c6.9-1.5,13.6,2.9,15.1,9.7c14.6,71-28.1,121.7,14,123.9
	c35,0.6,7.3-73.8,14.5-106.1c2-9.2,11.6-14.4,20.5-11.4c14.3,4.8,29.5,7.4,45,7.4c34.3,0,66.7-12.3,92.3-34.7
	c3.7-3.2,9.1-3.4,12.9-0.3c49.8,50.8-12.7,106.2,26.4,108.2c20.6-3.4,7.4-23.1,1.7-47.6c-4.1-17.9,0.4-36.7,12-50.9
	C349.5,254.4,348.8,246.9,343.7,242.7z M297.4,82.6c5.3-4.3,13.3-2.7,16.4,3.4c0,0.1,0.1,0.1,0.1,0.2c3.4,6.6,4.5,14.2,2.7,21.4
	c-9.2,37.9-58.2,58.2-84,44.4l-0.5-0.4c-5-4-5-11.6,0-15.7L297.4,82.6z M220,21.7c3.1-1.8,6.8-2.2,10.2-1.4
	c17.8,4.3,34.5,12.4,49,23.9c4.6,3.7,4.6,10.7,0.1,14.5L234.8,95c-4.3,3.5-10.8,1.3-12.1-4.1C216,62.2,205.3,30.5,220,21.7z
	 M122.3,43c13.9-10.6,29.6-18.2,46.4-22.4c10.7-2.7,21.5,4.7,22.4,15.7c1.3,15.2-5.3,37.7-8.8,58.2c-1.1,6.4-8.7,9.2-13.8,5.1
	L122,61.5C116.1,56.7,116.2,47.6,122.3,43z M101.5,204c-5.6,4.6-14,2.7-17.1-3.8c-8.2-17.1-12.5-35.9-12.5-55.3
	c0-20.2,4.6-39.6,13.4-57.1c3.2-6.4,11.5-8.2,17.1-3.6l62.3,50.9c5.5,4.5,5.5,12.8,0,17.3L101.5,204z M278.5,246.2
	c-22.4,17.4-49.7,26.9-78.5,26.9c-29.4,0-57.2-9.8-79.8-27.9c-5.6-4.5-5.6-13.1,0-17.7l71.5-58.5c4.2-3.4,10.3-3.4,14.5,0l72.6,59.3
	C284.4,233,284.3,241.7,278.5,246.2z M300,207l-16.8-13.7c-10.9-12,34.3-40.8,41.3-25.1c0.8,1.8,0.9,3.7,0.4,5.6
	c-2.4,10.6-6.2,20.9-11.2,30.5C311,209.3,304.4,210.6,300,207z"/>
</svg>
