<?xml version="1.0" encoding="utf-8"?>
<!-- Generator: Adobe Illustrator 23.0.1, SVG Export Plug-In . SVG Version: 6.00 Build 0)  -->
<svg version="1.1"
	 id="svg2" xmlns:cc="http://creativecommons.org/ns#" xmlns:dc="http://purl.org/dc/elements/1.1/" xmlns:inkscape="http://www.inkscape.org/namespaces/inkscape" xmlns:rdf="http://www.w3.org/1999/02/22-rdf-syntax-ns#" xmlns:sodipodi="http://sodipodi.sourceforge.net/DTD/sodipodi-0.dtd" xmlns:svg="http://www.w3.org/2000/svg"
	 xmlns="http://www.w3.org/2000/svg" xmlns:xlink="http://www.w3.org/1999/xlink" x="0px" y="0px" viewBox="0 0 400 400"
	 style="enable-background:new 0 0 400 400;" xml:space="preserve">
<sodipodi:namedview  bordercolor="#666666" borderopacity="1" fit-margin-bottom="200" fit-margin-left="5" fit-margin-right="5" fit-margin-top="5" gridtolerance="10" guidetolerance="10" id="namedview4" inkscape:current-layer="g10" inkscape:cx="-97.975363" inkscape:cy="399.93648" inkscape:pageopacity="0" inkscape:pageshadow="2" inkscape:window-height="1017" inkscape:window-maximized="1" inkscape:window-width="1920" inkscape:window-x="1358" inkscape:window-y="-8" inkscape:zoom="0.88500003" objecttolerance="10" pagecolor="#ffffff" showgrid="false">
	</sodipodi:namedview>
<g>
	<path d="M303.5,101.5c-5.2-16.7-16.2-33.8-36.1-40.6l0,0c-11.4-4-19.3-13.1-16.9-26.5c1.3-7.2,5.4-13.7,11.2-18.2
		c0.1-0.1,0.2-0.1,0.3-0.2c1.3-1,2.7-1.8,3.9-2.9c2.1-1.8,2.4-4.3,1-6.5c-1.5-2.1-4-2.7-6.4-1.4c-0.6,0.3-1.2,0.8-1.8,1.2
		c-14.8,10.5-25.6,24.4-34.5,40c-1.2,2.2-2.4,4.3-3.6,6.6c-0.7,1.3-2.5,1.5-3.4,0.3l0,0c-3.8-4.7-7.1-9.8-11.5-13.9
		c-7.7-7.2-17.5-9.6-27.8-10.4c-20.1-1.4-38.8,2.3-55.2,14.7c-12.4,9.4-21.2,21.3-24.2,36.8c-0.7,3.7-0.4,6.5,1.2,8.7
		c0.7,1,1.4,2,2,3.1c4.2,7.9,6.7,15.7,4.8,27.5c-0.4,2.6-1.1,5.1-1.9,7.6c-1.1,3.2-2,6.5-3,9.8c0,0,0,0.1,0,0.1l0-0.1
		c-3.2,11.4-5.4,23-6.7,34.9c-2.7,24.3-2.2,48.5,3,72.5c3.2,14.5,8.2,28.3,17.3,40.2c1.7,2.3,3.5,4.4,5.5,6.3
		c46,44.5-3,90.7,20.1,102.8c1.9,1,4.1,1.1,6,0.3c22.9-9.4-21.9-64.2,15.3-89.6c1.9-1.3,3.9-2.3,6.1-3.1c2-0.7,4.1-1.6,6.1-2.4
		c17.3-7.6,31.2-19.6,43.4-33.7c21.4-24.8,36.7-53.2,49.6-83c2.8-6.4,5.1-13,7.6-19.5c0.3-0.8,1.4-1,1.9-0.4
		c16.9,18.1-11.2,71.3,8.3,80.4c1.3,0.6,2.7,0.9,4.1,0.8c15-1.3-9.7-46.7,6.8-83c0.8-1.8,1.9-3.5,2.9-5.2c1.4-2.2,2.7-4.6,3.5-7.1
		C307.3,133,308.4,117.3,303.5,101.5z M228.6,58.9c0.5-1,1.1-2.1,1.6-3.1c1.1-2.1,2.9-3.9,5.1-4.9c8.2-3.7,17.5,4.1,2.5,7.4
		c-0.6,0.1-1.2,0.2-1.8,0.3c-2.5,0.3-4.9,0.6-7.4,0.8C228.1,59.6,228.6,59.1,228.6,58.9z M266.1,157.8c-5.1,16.4-12.1,32-20.1,47.2
		c-10.5,19.9-21.9,39.1-37,55.8c-11.3,12.5-23.8,23.3-39.5,29.9c-7,3-14.2,5.4-22,4.3c-9.3-1.3-16.4-6.4-22.3-13.4
		c-9.1-10.7-14-23.5-17.2-36.9c-5.3-22.2-5.9-44.7-3.8-67.4c2.5-27.1,9.9-52.8,22.3-77.1c1.3-2.6,2.7-3.7,5.9-3.9
		c7.6-0.4,15.2-1.6,22.8-2.5c0.3,0,0.5-0.1,0.8-0.1c0.9-0.1,1.7,0.6,1.7,1.6c-0.5,6.1-1.1,11.9-1.1,17.7c0,8.5,2,16.6,5.8,24.2
		c2.8,5.5,6.3,10,10.3,13.5c4.5,4,8,9.1,9.4,14.9c4.6,19-8.1,40.8,4.6,41.2c13-0.6-8.1-40,7.6-46.6c1.1-0.5,2.3-0.7,3.6-0.7
		c6.9-0.4,14.1-2.7,20.9-7.2c7.7-5.1,13.8-11.8,18.8-19.4c0.2-0.3,0.4-0.7,0.7-1c0.9-1.3,2.7-1.4,3.8-0.3c0,0,0,0,0,0
		c7.7,7.5,15.5,15,23.4,22.4C266.7,155.4,266.5,156.3,266.1,157.8z M111.9,96.8c0.4-0.8,1.4-1.2,2.3-1c0.7,0.2,2,0.5,2.7,0.7
		c0.2,0.1,0.4,0.3,0.3,0.6c-0.2,0.5-0.5,1.2-0.6,1.4c-1,2-1.5,3.1-2.5,5.2c-0.4,1-1.4,0.3-1.8-0.5C111.3,101.7,111,98.6,111.9,96.8z
		 M293.7,144c-0.8,2.7-2.2,5.4-3.9,7.8c-2.4,3.4-5.3,4.1-8.7,1.7c-5.1-3.5-10.3-7.2-14.8-11.5c-7.8-7.4-15.3-15.3-22.8-23
		c-4.1-4.3-7.2-4-10,1.3c-4.7,9.1-10.6,17.2-19.1,23.1c-6.9,4.9-14.6,7.6-23.1,6.1c-11.8-2.1-18.5-10.3-22.3-20.9
		c-4.7-13-4.3-26.1,0.8-39c0.6-1.6,0.5-4-0.3-5.6c-1-2.1-3.3-2.2-5.6-1.7c-13.4,2.7-26.8,5-40.5,4.5c-4.5-0.2-9-1.2-13.4-2
		c-1.9-0.3-2.5-1.5-2-3.5c4-15.9,13.8-27.1,27.9-34.8c6.7-3.7,13.7-5.9,21-7c7.1-1.2,14.4-1.2,21.5-0.5c1.2,0.1,2.4,0.2,3.6,0.4
		c10.9,1.5,19.1,7.2,24.9,16.4c2.5,4,4.7,8.2,7,12.4c2.3,4.3,3.8,4.9,8.5,3.3c11.4-3.8,23.1-5.2,34.9-3c16.6,3.1,27,14,33.8,28.8
		C298.5,112.6,298.1,128.2,293.7,144z"/>
	<path d="M242.1,180.9c-3-1.8-6.2-3.2-9.5-4.5c-2.5-1-4.6-0.1-5.9,2.3c-1.3,2.2-0.6,5,1.7,6.3c3.3,1.7,6.6,3.4,10.1,4.6
		c1.6,0.6,3.3,0.1,4.4-1.2c1.9-2,1.6-5.4-0.5-7.2C242.3,181.1,242.2,181,242.1,180.9z"/>
	<path d="M252.2,157.6c-3.1-1.5-6.4-2.6-9-3.5c-1.2-0.4-2.6-0.6-3.8-0.4c-1.8,0.4-2.8,1.4-3.4,3c-0.8,2.4-0.1,4.7,2.2,5.7
		c3.5,1.5,7.1,2.9,10.8,3.9c2.4,0.6,4.3-0.7,5.2-3.1C254.9,160.8,254.2,158.6,252.2,157.6z"/>
	<path d="M218.4,225.8c-3.1-2.3-6.2-4.5-9.5-6.4c-2.2-1.2-4.5-0.5-5.9,1.7c-1.3,2.1-0.8,4.9,1.2,6.4c2.8,2.2,5.8,4.2,8.9,5.9
		c2.3,1.3,5.1,0.1,6.2-2.4c0.7-1.5,0.6-3.4-0.4-4.7C218.8,226.1,218.6,225.9,218.4,225.8z"/>
	<path d="M194.3,238.8c-1.8-1.3-4.1-0.7-5.7,1.1c-1.5,1.8-1.9,4.1-0.2,5.8c2.8,2.9,5.8,5.7,9.1,7.9c2.9,2,6.8-0.6,6.8-4.7
		c0-0.6-0.2-1.5-0.7-2C200.6,244.1,197.6,241.2,194.3,238.8z"/>
	<path d="M230.7,203.5c-2.9-1.9-6.1-3.6-9.2-5.1c-2.5-1.2-4.6-0.3-5.9,2c-1.3,2.3-1,4.7,1.3,6.2c3.1,2,6.4,3.9,9.8,5.4
		c2,0.9,4.1,0.1,5.3-1.8c1.2-1.9,0.9-4.4-0.5-6C231.2,203.8,231,203.6,230.7,203.5z"/>
	<path d="M178.6,256.6c-0.1-0.2-0.3-0.3-0.5-0.4c-1.7-1.4-4.2-1.7-6-0.4c-2.1,1.4-2.7,4.1-1.2,6.4c1.8,2.8,3.9,5.4,6,8
		c1.8,2.2,4.7,2.5,6.7,0.9c2.1-1.6,2.5-4.4,0.8-6.7C182.7,261.6,180.8,259,178.6,256.6z"/>
	<path d="M153.2,265.8c-2.4,0.7-3.8,2.6-3.3,5.1c0.7,3.6,1.7,7.3,3,10.8c0.8,2.4,3,3.3,5.4,2.7c1.7-0.4,2.9-1.4,3.4-3.2
		c0.4-1.3,0.3-2.6-0.1-3.8c-0.8-2.7-1.6-6-2.8-9.1C157.9,265.8,155.6,265.1,153.2,265.8z"/>
</g>
</svg>
