<?xml version="1.0" encoding="utf-8"?>
<!-- Generator: Adobe Illustrator 23.0.6, SVG Export Plug-In . SVG Version: 6.00 Build 0)  -->
<svg version="1.1"
	 id="Layer_1" inkscape:version="0.92.1 r15371" sodipodi:docname="snapchat.svg" xmlns:cc="http://creativecommons.org/ns#" xmlns:dc="http://purl.org/dc/elements/1.1/" xmlns:inkscape="http://www.inkscape.org/namespaces/inkscape" xmlns:rdf="http://www.w3.org/1999/02/22-rdf-syntax-ns#" xmlns:sodipodi="http://sodipodi.sourceforge.net/DTD/sodipodi-0.dtd" xmlns:svg="http://www.w3.org/2000/svg"
	 xmlns="http://www.w3.org/2000/svg" xmlns:xlink="http://www.w3.org/1999/xlink" x="0px" y="0px" viewBox="0 0 400 400"
	 style="enable-background:new 0 0 400 400;" xml:space="preserve">
<path d="M330.8,205.6c-8.3-1.7-15.5-4.7-21.9-8.5c-6.6-4-11.3-10.7-12.6-18.3c-1.9-11.4,0.2-25.1,6.4-40.1c0.7-1.6,1.7-2.9,3-4
	c0,0,0,0,0,0c5.8-4.8,4.8-12.2-1.6-16.2c-5.1-3.2-10.5-4-16.2-1.5c-4.2,1.9-8.6,3.8-13.8,2.1c0.1-2.6,0.3-4.8,0.3-7.1
	c0.3-9.3,0.8-18.7,1-28c0.3-21.1-8-38.4-23.6-52.4C225.6,8.1,177.9,8,151.7,28.7c-15.1,11.9-25.5,26.8-26.4,46.6
	c-0.6,13.3,0.1,26.7,0.6,40.1c0.2,3.5-0.9,4.6-4,4.5c-1.2-0.1-2.3-0.1-3.4-0.4c-3.7-1.1-7.4-2.6-11.2-3.5
	c-6.1-1.5-13.8,2.3-16.1,7.9c-2,4.8,0.3,9.8,6.5,13.8c0.9,0.6,1.9,1.2,3,1.6c4.3,1.7,8.7,3.4,13,5c10.9,4.1,12.5,8,7.4,18.3
	c-0.3,0.7-0.7,1.4-1,2c-11.3,20.4-26.7,36-50.6,41c-6.5,1.3-8.8,7.2-4.4,12.1c0.2,0.3,0.5,0.5,0.7,0.8c1.8,1.8,3.3,4,4.3,6.4
	c16.2,37.7-13.5,60.3,11.8,63.7c23,1.1-9-26.8,11.8-55.2c2.2-2.9,6.9-1.7,7.2,1.9c0,0,0,0.1,0,0.1c0.1,0.8,0.3,1.5,0.5,2.2
	c2.4,10.5,4.8,12,15.3,9.8c0.5-0.1,0.9-0.2,1.5-0.3c14.6-2.6,28.3-1.6,40.5,8.3c4.6,3.7,9.7,6.9,14.9,9.7
	c14.7,7.9,30.4,8.8,45.7,2.8c8.8-3.4,16.7-9.3,24.7-14.5c1.2-0.8,2.4-1.6,3.7-2.3c2.4-1.4,5.5-1.5,7.9-0.2c10,5.5-5.5,26.2,5.8,27.5
	c14.5,0.6-1.9-21.4,9.4-21.8c17.7,1,0.4,28.6,12.3,30.9c14.2-1.5-9.1-26.7,7.4-39.4c3.6-0.4,5.7-2.5,6.8-6.8c0.6-2.3,1.2-4.6,1.6-7
	c0.4-2.5,1.6-3.6,4.3-4.2c7.9-1.8,15.7-3.7,23.3-6.5c3.4-1.2,6.6-3.9,8.8-6.8C339.1,211.9,336.6,206.8,330.8,205.6z M280.8,146.8
	c1.3-0.7,2.6-1.3,4-1.8c2.5-1,5.3,0,6.6,2.3c4.3,7.6-0.1,15.4-7.1,16.9c-2.4,0.5-4.8-0.7-5.9-2.9c-0.5-1.1-1.1-2.2-1.6-3.4
	C274.6,153.1,276,149.4,280.8,146.8z"/>
</svg>
