<?xml version="1.0" encoding="utf-8"?>
<!-- Generator: Adobe Illustrator 22.1.0, SVG Export Plug-In . SVG Version: 6.00 Build 0)  -->
<!DOCTYPE svg PUBLIC "-//W3C//DTD SVG 1.1//EN" "http://www.w3.org/Graphics/SVG/1.1/DTD/svg11.dtd">
<svg version="1.1"
	 id="Layer_1" inkscape:version="0.92.1 r15371" sodipodi:docname="snapchat.svg" xmlns:cc="http://creativecommons.org/ns#" xmlns:dc="http://purl.org/dc/elements/1.1/" xmlns:inkscape="http://www.inkscape.org/namespaces/inkscape" xmlns:rdf="http://www.w3.org/1999/02/22-rdf-syntax-ns#" xmlns:sodipodi="http://sodipodi.sourceforge.net/DTD/sodipodi-0.dtd" xmlns:svg="http://www.w3.org/2000/svg"
	 xmlns="http://www.w3.org/2000/svg" xmlns:xlink="http://www.w3.org/1999/xlink" x="0px" y="0px" viewBox="0 0 400 400"
	 style="enable-background:new 0 0 400 400;" xml:space="preserve">
<sodipodi:namedview  bordercolor="#666666" borderopacity="1" gridtolerance="10" guidetolerance="10" id="namedview7" inkscape:current-layer="Layer_1" inkscape:cx="-29.457451" inkscape:cy="221.11709" inkscape:pageopacity="0" inkscape:pageshadow="2" inkscape:window-height="705" inkscape:window-maximized="1" inkscape:window-width="1366" inkscape:window-x="-8" inkscape:window-y="235" inkscape:zoom="0.65186406" objecttolerance="10" pagecolor="#ffffff" showgrid="false">
	</sodipodi:namedview>
<path d="M384.2,276.8c-11.6-2.5-21.8-6.6-30.8-12c-9.3-5.7-15.9-15-17.7-25.8c-2.7-16,0.3-35.3,9.1-56.5c0.9-2.2,2.4-4.1,4.2-5.6
	c0,0,0,0,0,0c8.1-6.8,6.7-17.1-2.3-22.9c-7.2-4.5-14.7-5.6-22.9-2c-6,2.6-12,5.4-19.5,2.9c0.2-3.6,0.4-6.8,0.5-10
	c0.5-13.1,1.1-26.3,1.4-39.4c0.4-29.7-11.2-54.1-33.3-73.8C236.1-1.3,168.9-1.4,132,27.7c-21.2,16.7-35.9,37.8-37.2,65.6
	c-0.9,18.8,0.2,37.6,0.9,56.5c0.2,4.9-1.2,6.5-5.7,6.3c-1.6-0.1-3.3-0.2-4.8-0.6c-5.2-1.6-10.4-3.6-15.7-4.9
	c-8.6-2.1-19.5,3.3-22.7,11.1c-2.8,6.8,0.5,13.8,9.1,19.4c1.3,0.8,2.7,1.7,4.2,2.3c6.1,2.4,12.2,4.8,18.4,7
	c15.3,5.7,17.5,11.3,10.5,25.8c-0.5,1-1,2-1.5,2.9c-16,28.8-37.6,50.6-71.3,57.7c-9.1,1.9-12.4,10.1-6.1,17c0.3,0.4,0.7,0.7,1,1.1
	c2.6,2.6,4.6,5.6,6.1,9c22.8,53.1-19,84.9,16.7,89.7c32.4,1.5-12.7-37.7,16.6-77.7c3-4.1,9.7-2.4,10.2,2.7c0,0,0,0.1,0,0.1
	c0.2,1.1,0.5,2,0.7,3.1c3.4,14.8,6.8,17,21.6,13.8c0.7-0.1,1.3-0.3,2-0.5c20.6-3.7,39.9-2.2,57,11.6c6.5,5.2,13.7,9.7,21,13.6
	c20.7,11.1,42.9,12.4,64.4,3.9c12.4-4.8,23.5-13.1,34.7-20.5c1.7-1.1,3.4-2.2,5.2-3.2c3.4-2,7.7-2.1,11.2-0.2
	c14.1,7.8-7.7,36.9,8.2,38.7c20.4,0.9-2.7-30.1,13.2-30.7c25,1.4,0.6,40.2,17.3,43.6c20-2.1-12.8-37.6,10.4-55.5
	c5.1-0.6,8-3.5,9.6-9.6c0.8-3.2,1.6-6.5,2.2-9.8c0.6-3.5,2.2-5.1,6.1-6c11.1-2.5,22.1-5.2,32.8-9.1c4.8-1.6,9.3-5.5,12.4-9.5
	C395.8,285.8,392.4,278.6,384.2,276.8z M313.8,194.1c1.8-1,3.7-1.8,5.6-2.5c3.5-1.3,7.4,0,9.3,3.3c6.1,10.7-0.2,21.7-10,23.8
	c-3.3,0.7-6.7-1-8.2-4.1c-0.8-1.6-1.5-3.1-2.2-4.8C305,202.9,307,197.7,313.8,194.1z"/>
</svg>
