<?xml version="1.0" encoding="utf-8"?>
<!-- Generator: Adobe Illustrator 23.0.1, SVG Export Plug-In . SVG Version: 6.00 Build 0)  -->
<svg version="1.1"
	 id="svg2" inkscape:version="0.92.1 r15371" sodipodi:docname="web2py.svg" xmlns:cc="http://creativecommons.org/ns#" xmlns:dc="http://purl.org/dc/elements/1.1/" xmlns:inkscape="http://www.inkscape.org/namespaces/inkscape" xmlns:rdf="http://www.w3.org/1999/02/22-rdf-syntax-ns#" xmlns:sodipodi="http://sodipodi.sourceforge.net/DTD/sodipodi-0.dtd" xmlns:svg="http://www.w3.org/2000/svg"
	 xmlns="http://www.w3.org/2000/svg" xmlns:xlink="http://www.w3.org/1999/xlink" x="0px" y="0px" viewBox="0 0 400 400"
	 style="enable-background:new 0 0 400 400;" xml:space="preserve">
<path d="M384.2,156.1c-0.5,0-1.2,0.3-1.5,0.7c-5.4,5.9-10.7,11.8-16,17.7c-2,2.2-4,4.4-6,6.7c-0.4,0.5-1.2,0.5-1.6,0
	c-3.5-3.9-7-7.8-10.5-11.6c-0.8-0.9-1.7-1.8-2.5-2.8c-1.2-1.5-2.4-3-3.7-4.4c-1.9-2-3.8-4-5.8-5.9c-0.3-0.3-0.9-0.3-1.4-0.3
	c-4.1,0-8.1,0-12.2,0c-12.9,0-25.8,0-38.7,0c-1.8,0-1.8,0-1.8,1.9v18.2c0,0.7-0.2,1.5-0.6,2.1c-2.6,4-8.1-7.2-7.7-13.6l0,0
	c0-0.1,0-0.3,0-0.4c0.1-4.4-0.9-8.4-3.5-11.9c-2.2-3-5-5.3-8.2-7c-4.8-2.6-9.9-3.9-15.3-4.3c-0.3,0-0.5-0.1-0.8-0.2h-9.5
	c-1.7,0.2-3.4,0.4-5.1,0.6c-5.6,0.7-10.8,2.7-15.6,5.7c-1.5,1-2.9,2-4.4,3.1c-0.1,0-0.1,0.1-0.1,0.1l0,0
	c-10.6,4.7-19.1,5.7-27.2,5.8c-2.7,0-5.5,0-8.2,0c-0.7,0-1.4,0-2.1,0c0,0,0,0,0,0c-8.5,0-17.1,0-25.6,0c-1.7,0-1.7,0-1.7,1.7
	c0,14.8,0,29.6,0,44.3c0,1.2,0,1.6-0.7,1.6c-14,0-35.3-13.4-19.5-15.8c1.1,0,1-0.3,1-2.3c0-1.6,0-3.2,0-4.8c0-1.9,0.1-1.9-1.4-1.9
	c-8.8,0-17.7,0-26.5,0c-0.9,0-1.7-0.8-1.7-1.7c0-3.6,0-7.2,0-10.8c0-1.3,0-1.3,1.3-1.3c12.5,0,25,0,37.5,0c1.6,0,1.6,0,1.6-1.7
	c0-1.9,0-3.7,0-5.6c0-0.9-0.4-1.3-1.2-1.3c-0.4,0-0.8,0-1.2,0c-3.2,0-6.4,0-9.6,0c-9.9-0.1-19.8-0.1-29.6-0.2
	c-4.1,0-8.1-0.1-12.2-0.2c-0.9,0-1.7,0.6-2,1.4c-2.5,8.5-5,16.9-7.6,25.4c-1.8,6.1-1.5,5.1-3.4,11.2c0,0.1-1,3.3-1.7,5.6
	c-0.2,0.7-1.3,0.7-1.5,0c-0.2-0.8-0.5-1.5-0.7-2.3c-3.2-10.6-6.4-21.3-9.5-31.9c-0.8-2.8-1.7-5.6-2.5-8.4c-0.4-1.3-1.1-0.7-3.4-0.9
	c-1.9-0.2-3.8-0.1-5.7,0c-2.6,0.1-3.4-0.3-3.8,1.1c-4.3,14.5-9.9,33.1-9.9,33.1l-2.7,9c-0.2,0.7-1.3,0.7-1.5,0l-2.4-7.9
	c0,0-2.6-8.8-5.4-17.9c-1.7-5.5-3.3-11-5-16.5c-0.2-0.7-0.6-1-1.3-1c-3,0-6.2,0-9.2,0c-0.4,0-0.7,0.4-0.6,0.8
	c0.7,2.1,1.6,4.5,2.2,6.5c2,6,4,12.1,6,18.1c2.7,8.3,5.4,16.6,8.2,24.8c0.5,1.4,0.9,2.8,1.3,4.2c0.4,1.2,1.5,2,2.8,2l8.4,0
	c1.2,0,2.2-0.7,2.7-1.8c6.2-15.4,13.3-36.5,18.8-24.4c1.7,5.8,3.5,11.6,5.2,17.4c0.7,2.3,1.3,4.5,2,6.8c0.4,1.2,1.5,2.1,2.8,2.1h8.4
	c1.3,0,2.4-0.8,2.7-2c0.7-2.2,1.4-4.4,2.1-6.7c2.4-7.2,4.7-14.5,7.1-21.7c0.6-1.7,1.1-3.4,1.7-5.1c0.2-0.4,0.8-0.3,0.8,0.1v4.3
	c0,11.7,0,17.9,0,29.6v0c0,0.9,0.6,1.6,1.5,1.8c27.1,4.1-1,44.2,13.1,46.3c15,0.6-7.4-39.5,9.5-45.9c1.2-0.4,2.4-0.6,3.6-0.6
	c1.2,0,2.5,0.2,3.5,0.8c7.4,4.3-2.7,17.1,3.6,17.4c5.2,0,0.3-9.4,1.8-15c0.5-1.9,2.4-3.2,4.4-3.2l64.9,0c1.3,0,2.6-0.1,3.9-0.3
	c1-0.2,2-0.3,3-0.5c0.7-0.1,1.4-0.4,2.2-0.7c0.3-0.1,0.6,0.1,0.6,0.4v0.6c0,0.3,0.2,0.5,0.5,0.5h84.6c1.8,0,3.2-1.4,3.2-3.2
	c0-5.4,0-10.9,0-16.3c0-0.9,0.8-1.7,1.7-1.7c1.6,0,3.3,0,4.9,0c2.6,0,5.2,0.5,7.6,1.6c19.2,9.1-2.2,43.2,10.9,44.1
	c11.6-0.3-5.7-32.1,7.3-43.5c1.7-1.5,3.9-2.3,6.2-2.7c1.5-0.2,3-0.6,4.4-1.1c4.6-1.6,8.3-4.8,10-9.4c0.1-0.2,0.4-0.3,0.6-0.1
	c0.3,0.4,0.6,0.7,0.9,1.1c2.5,2.8,5,5.5,7.4,8.3c0.4,0.5,0.7,1.1,0.7,1.8c0,6.5,0,13,0,19.5v0c0,0.8,0.7,1.5,1.5,1.5h7
	c0.8,0,1.5-0.7,1.5-1.5c0-6.4,0-12.9,0-19.3c0-0.9,0.3-1.8,1-2.5c4.2-4.5,8.3-9.1,12.4-13.7c4.3-4.7,8.6-9.4,12.8-14.1
	c0.9-1,2.9-3.1,4.1-4.3c0.4-0.4,0.1-1-0.4-1C391.2,156.1,387.4,156.1,384.2,156.1z M46.5,176.7c0.1-0.5,0.3-0.9,0.4-1.4
	c0.7-2.3,0.6-2.6,1.3-4.9c0.1-0.3,1-4,1.3-3c0.4,1.4,0.8,2.7,1.3,4.1c0.1,0.2,0.1,0.4,0.2,0.6C51.6,175.3,46.2,179.6,46.5,176.7z
	 M112.5,203.7c-4.3,0-8.6,0-12.9,0c-1.6,0-1.6,0-1.6-1.6c0-4.3,0-8.6,0-12.9c0-1,0-1.2,0.5-1.3C110.2,189.4,129.2,203.1,112.5,203.7
	z M171.7,202.9c-1.6,0.6-3.3,0.8-5,0.8c-2.9,0-5.9,0-8.8,0c-1.3,0-1.3-0.1-1.3-1.3c0-4.2,0-8.5,0-12.7c0-0.6-0.1-1.2,0.5-1.1
	C166.1,189.9,182.7,198.8,171.7,202.9z M157.8,179.5c-1.3,0-1.3,0-1.3-1.3c0-4,0-7.9,0-11.9c0-0.9,0.3-1.2,1.2-1.2
	c11.8,0,23.5,0,35.3,0c2.1,0,4.1,0.4,5.7,1.9c3.5,3,3.1,8.5-0.9,11c-1.6,1-3.3,1.5-5.2,1.5c-5.7,0-11.4,0-17.1,0
	C169.6,179.5,163.7,179.5,157.8,179.5z M198.5,202.7C198.5,202.7,198.4,202.7,198.5,202.7c-1.1,0.3-2.2,0.4-3.2,0.2
	c-11.9-2.2-20.3-9.3-14.8-13.1c1.2-0.9,2.7-1.2,4.2-1.2c2.8,0,5.6,0,8.5,0c1.8,0,3.6,0.4,5.2,0.9c2.9,0.9,4.7,3.6,4.6,6.9
	C203,199.4,201.4,201.8,198.5,202.7z M212.9,189.2c-1.1,1.2-1.1,1.2-1.9-0.2c-1.2-2-3-3.5-5.1-4.6c0,0,0,0,0,0
	c-0.8-0.4-0.9-1.5-0.2-2c0.1-0.1,0.2-0.2,0.3-0.3c3-2.5,4.5-5.6,4.7-9.1c0,0,0,0,0,0c0,0,0-0.1,0-0.1c0-0.2,0-0.4,0-0.6
	c0.3-7.2,3.3-9.8,7.4-12.9c0.2-0.1,0.3-0.2,0.5-0.4c2.6-2.3,5.7-4,9-5c2.7-0.8,5.4-1.4,8.2-1.7c2.9-0.3,5.9-0.3,8.9-0.2
	c4.4,0.2,8.6,1,12.3,3.6c3.3,2.3,4.7,6.2,3.3,9.7c-0.8,2.1-2.5,3.6-4.4,4.6c-3.4,1.9-7.1,2.9-10.8,3.9c-4.8,1.4-9.6,2.5-14.3,4.1
	C224.1,180.3,217.9,183.8,212.9,189.2z M278,199.2c-1.6,1.7-3.9,2.5-6.2,2.5c-17.2,0-29.2,0-46.4,0c-0.3,0-3.2,0-5.1,0
	c-0.8,0-1.3-0.9-0.8-1.5c0.6-1,1.3-2,1.5-2.3c3.8-6.2,7.9-7.3,15.3-9.6c5.7-1.8,11.4-3.3,17.2-4.7c0.9-0.2,1.8-0.5,2.7-0.7
	C277.7,178.7,284,192.9,278,199.2z M292.5,182.4c-0.3-0.1-0.3-0.4-0.3-1.2c0-4.9,0-9.8,0-14.8c0-1,0.3-1.3,1.3-1.3
	c5.1,0,10.1,0,15.2,0c1.2,0,2.4,0.2,3.5,0.6C320.1,168.8,316.1,180.5,292.5,182.4z M334.6,178.8c-1.5,2.4-4,3.2-6.6,3.5
	c-1.6,0.2-3.2,0.2-4.8,0.2c-1.1,0-2.3,0-3.4,0c-4.8,0-4.3-5-1.6-9c2.3-3.3,6.3-6.4,10.6-7c2-0.3,4,0.4,5.3,1.9
	c0.9,1.1,1.4,2.5,1.6,4C336,174.7,335.8,176.8,334.6,178.8z"/>
</svg>
