<?xml version="1.0" encoding="utf-8"?>
<!-- Generator: Adobe Illustrator 23.0.6, SVG Export Plug-In . SVG Version: 6.00 Build 0)  -->
<svg version="1.1"
	 id="Layer_1" xmlns:cc="http://creativecommons.org/ns#" xmlns:dc="http://purl.org/dc/elements/1.1/" xmlns:inkscape="http://www.inkscape.org/namespaces/inkscape" xmlns:rdf="http://www.w3.org/1999/02/22-rdf-syntax-ns#" xmlns:sodipodi="http://sodipodi.sourceforge.net/DTD/sodipodi-0.dtd" xmlns:svg="http://www.w3.org/2000/svg"
	 xmlns="http://www.w3.org/2000/svg" xmlns:xlink="http://www.w3.org/1999/xlink" x="0px" y="0px" viewBox="0 0 400 400"
	 style="enable-background:new 0 0 400 400;" xml:space="preserve">
<path d="M333.6,133.3l-81.7-84.9c-3.9-4.1-10.8-1.3-10.8,4.3v28.7c0,5.9-4.7,10.6-10.6,10.6h-27.1c-4.2,0-8.2-0.3-12.4-0.9
	c-46.3-7.1-95.3-35.5-57.4-47.5c5.6-1.8,11.4-2.6,17.2-2.6c6.9,0,18.2,0,26.2,0c7,0,12.8-5.6,12.9-12.6c0.1-7.7-5.1-12.9-12.7-12.9
	h-63.8c-28,0.1-51,23-51,51.1v153c0,28.1,22.9,51,51,51h63.6c7,0,12.8-5.6,12.9-12.6c0.1-7.7-5.1-12.9-12.7-12.9h-30.9
	c-4.4,0-8.8-1.1-12.5-3.5c-21.3-13.7,17.3-42.8,62.4-47.5h35.4c5.1,0,9.4,4.2,9.4,9.4v29.3c0,5.7,5.1,10.1,10.6,9.2
	c49.8-7.3-15.8,125.2,27.8,126.2c68.4-1.4-26.4-106,32-193.7l21.9-21.9C338.8,147.3,338.9,138.7,333.6,133.3z M139,157
	c0,11.9-2.5,23.8-7.7,34.6c-6.8,14-17.3,25.2-30.2,20.9c-7.9-2.6-13.1-10.3-13.1-18.6v-93c0-5.1,1.1-10.3,3.4-14.9
	c14.3-28.2,46,10.6,47.5,43.1V157z"/>
</svg>
