<?xml version="1.0" encoding="utf-8"?>
<!-- Generator: Adobe Illustrator 22.1.0, SVG Export Plug-In . SVG Version: 6.00 Build 0)  -->
<!DOCTYPE svg PUBLIC "-//W3C//DTD SVG 1.1//EN" "http://www.w3.org/Graphics/SVG/1.1/DTD/svg11.dtd">
<svg version="1.1" id="Layer_1" xmlns="http://www.w3.org/2000/svg" xmlns:xlink="http://www.w3.org/1999/xlink" x="0px" y="0px"
	 viewBox="0 0 400 400" enable-background="new 0 0 400 400" xml:space="preserve">
<g>
	<path d="M208.9,143.6c-0.1-2.4-0.1-4.8,0.2-7.1c0.4-4.1,0.3-8.8,2.4-11.9c24.1-36.8,48.6-73.3,73-109.9C290,6.3,294.6,6.4,300,15
		c8.8,13.7,9.9,28.8,6.9,44.1c-6.8,34-25.5,62.3-44.5,90.4c-5.6,8.2-11.6,16.1-17.9,24.5c-1.9,2.5-5.7,2.4-7.4-0.2l-5.9-9
		c-1.1-1.6-3.5-1.4-4.3,0.3c-2.2,4.9-1.9,9.8-0.1,14.6c2.8,7.5,6.3,14.6,9.6,21.9c3.6,7.8,9,12,18.2,11.5
		c13.5-0.7,27.2-1.7,40.6-0.3c26.1,2.9,48.9,30.2,48.9,56.7c0.1,27.9-12.5,48.8-35.1,58.2c-33,13.8-67.6-0.4-81.2-34.9
		c-4.9-12.5-6.1-26.6-8.5-40c-4-22.6-13.1-42.3-33.8-53.9c-17.8-10-29.7-25.2-41.5-40.9c0,0,0,0-0.1-0.1c-3.2-4.1-9.7-3.5-12,1.2
		c-0.1,0.3-0.2,0.5-0.4,0.8c-2.2,5.7-3.3,12.6-10.8,12.9c-7.9,0.3-12.5-5.5-14.7-12.1c-2.1-6.3-4-13.4-3.3-19.9
		c2.9-27.9-3.3-54.5-8.8-81.4c-3.2-15.5-2.2-30.8,6.8-44.6c5.6-8.5,9.9-8.5,15.5-0.1c29.1,43.4,58.2,86.8,87.3,130.2
		c0.1,0.1,0.1,0.2,0.2,0.3C205.4,147.5,208.9,146.3,208.9,143.6z M305.2,243c-1.8-1.2-4.2-0.7-5.4,1c-5.9,8.2-7.8,17.3-5.9,26.7
		c1.5,7.5,4.8,15.2,9.3,21.5c4.4,6.1,9.9,4.8,13.7-1.7C326.3,274.4,321,253.4,305.2,243z M253.9,256.7c-4.4,10.4-4.4,22.1,0,32.5
		c0.5,1.3,1.1,2.6,1.7,3.9c2.8,6.5,7.4,5.8,12.3,2.4c14.1-9.8,11.9-38.1-3.5-45.8c-3.4-1.7-6.5-2.5-8.4,2
		C255.3,253.4,254.6,255.1,253.9,256.7z M200.5,188.1c7.4,0,12.1-4.5,12.2-11.5c0.1-7-5.3-12-12.7-11.9c-6.7,0.2-12.2,5.6-12,12
		C188.1,183.2,193.6,188.1,200.5,188.1z"/>
	<path d="M169.8,203c6.3,4.5,12.3,8.8,18.3,13.2c3,2.2,4,6.3,2.1,9.6c-7.9,14.1-8.9,29.1-10.9,43.9c-3.6,26.8-15.6,48-41.6,59.3
		c-8.5,3.7-13.3,13.5-11.8,22.8c1.2,7.4,2.9,14.8,3.5,22.2c0.6,7.3-2.3,13.5-9.5,16.6c-6,2.6-13.4-0.1-18.9-6.2
		c-6.7-7.6-6.1-16.4-4.9-25.5c0.7-5.3,1.5-10.7,1-15.9c-0.8-7.9-4.3-14.3-11.9-18.7c-23.4-13.4-34.9-41.5-27.2-67.6
		c7.6-25.6,28.7-45,58-45.2c7.3,0,14.6,0.3,21.8,1c10,1.1,19.5,1.5,24.9-8.1C164.3,202,167.6,201.3,169.8,203z M79.6,272.4
		c-0.1,20.3,16,36.8,35.9,36.8c19.5,0,35.1-16.1,36.2-35.3c1.1-19.6-16.9-37.6-35.4-37.3C95.3,237.1,79.7,251.8,79.6,272.4z"/>
</g>
</svg>
