<?xml version="1.0" encoding="utf-8"?>
<!-- Generator: Adobe Illustrator 23.0.6, SVG Export Plug-In . SVG Version: 6.00 Build 0)  -->
<svg version="1.1"
	 id="Layer_1" inkscape:version="0.92.2 (5c3e80d, 2017-08-06)" sodipodi:docname="gracenote.svg" xmlns:cc="http://creativecommons.org/ns#" xmlns:dc="http://purl.org/dc/elements/1.1/" xmlns:inkscape="http://www.inkscape.org/namespaces/inkscape" xmlns:rdf="http://www.w3.org/1999/02/22-rdf-syntax-ns#" xmlns:sodipodi="http://sodipodi.sourceforge.net/DTD/sodipodi-0.dtd" xmlns:svg="http://www.w3.org/2000/svg"
	 xmlns="http://www.w3.org/2000/svg" xmlns:xlink="http://www.w3.org/1999/xlink" x="0px" y="0px" viewBox="0 0 400 400"
	 style="enable-background:new 0 0 400 400;" xml:space="preserve">
<path d="M256.6,43.4c1.3-1.4,3.2-1.9,5.1-1.7c0.7,0.1,1.4,0.1,2.1,0.1c10.5-0.1,18.4-7.7,18.6-18.3C282.5,12.4,276.1,5,264.4,5
	c-12.5-0.1-18.5,6.7-18.5,18.3c0,0.6,0,1.3,0.1,2c0.4,3.4-1.8,6.6-5.2,7.4c0,0-0.1,0-0.1,0c-2.7,0.6-5.6-0.1-7.9-1.7
	c-12-8.3-26.7-13-42.5-13c-39.3-0.1-72.5,32.5-72.7,73.1c-0.1,31.8,19.7,58,46.3,68.7c3.4,1.3,6.2,4,7.3,7.4c1,3.1,0.7,6.1-1.3,8.8
	c-1.8,2.5-4.6,4.1-7.6,4.7c-8.2,1.7-16,4.8-23.5,8.8c-11.5,6.1-18.6,18.5-3.9,30.1c4.6,3.7,9.7,6,15,7.7c9,3,16.6,9.5,20.9,17.9
	c26.2,50.5-27.7,150.5,22.9,149.7c52,1.1-22.7-96.4,11.7-151.1c4.5-7.1,11.4-12.3,19.5-14.4c8.1-2.1,15.7-5.5,22.5-10.5
	c10.1-7.3,9.5-21.2-0.6-27.3c-8.5-5.2-17.5-8.5-26.8-10.6c-3.7-0.8-7-2.9-9.1-6c-1.4-2.1-2.1-4.4-1.6-7c0.7-3.5,3.4-6.2,6.7-7.5
	c28.6-10.3,47.5-37.4,47.8-67.3c0.2-12.1-2.3-23.3-6.8-33.2c-1.3-2.9-2.3-6-2.5-9.1C254.5,47.9,254.8,45.3,256.6,43.4z"/>
</svg>
