<?xml version="1.0" encoding="utf-8"?>
<!-- Generator: Adobe Illustrator 22.1.0, SVG Export Plug-In . SVG Version: 6.00 Build 0)  -->
<!DOCTYPE svg PUBLIC "-//W3C//DTD SVG 1.1//EN" "http://www.w3.org/Graphics/SVG/1.1/DTD/svg11.dtd">
<svg version="1.1"
	 id="Layer_1" inkscape:version="0.92.2 (5c3e80d, 2017-08-06)" sodipodi:docname="gracenote.svg" xmlns:cc="http://creativecommons.org/ns#" xmlns:dc="http://purl.org/dc/elements/1.1/" xmlns:inkscape="http://www.inkscape.org/namespaces/inkscape" xmlns:rdf="http://www.w3.org/1999/02/22-rdf-syntax-ns#" xmlns:sodipodi="http://sodipodi.sourceforge.net/DTD/sodipodi-0.dtd" xmlns:svg="http://www.w3.org/2000/svg"
	 xmlns="http://www.w3.org/2000/svg" xmlns:xlink="http://www.w3.org/1999/xlink" x="0px" y="0px" viewBox="0 0 400 400"
	 style="enable-background:new 0 0 400 400;" xml:space="preserve">
<sodipodi:namedview  bordercolor="#666666" borderopacity="1" gridtolerance="10" guidetolerance="10" id="namedview11" inkscape:current-layer="Layer_1" inkscape:cx="-543.04137" inkscape:cy="348.50585" inkscape:pageopacity="0" inkscape:pageshadow="2" inkscape:window-height="1017" inkscape:window-maximized="1" inkscape:window-width="1920" inkscape:window-x="1358" inkscape:window-y="-8" inkscape:zoom="0.50711698" objecttolerance="10" pagecolor="#ffffff" showgrid="false">
	</sodipodi:namedview>
<path d="M255.6,46.1c1.3-1.4,3.2-1.9,5-1.7c0.7,0.1,1.3,0.1,2,0.1c10.3-0.1,18.1-7.5,18.3-17.9c0.2-11-6.1-18.3-17.6-18.3
	c-12.3-0.1-18.2,6.6-18.2,17.9c0,0.6,0,1.3,0.1,1.9c0.4,3.3-1.8,6.5-5.1,7.3c0,0-0.1,0-0.1,0c-2.7,0.6-5.5-0.1-7.7-1.6
	c-11.8-8.1-26.3-12.8-41.8-12.8C151.8,21,119.2,53,119.1,93c-0.1,31.3,19.3,57,45.5,67.5c3.3,1.3,6.1,3.9,7.2,7.3
	c1,3.1,0.6,6-1.3,8.6c-1.8,2.5-4.5,4-7.4,4.6c-8.1,1.6-15.7,4.7-23.1,8.6c-11.3,6-18.3,18.2-3.8,29.6c4.6,3.6,9.6,5.9,14.7,7.6
	c8.9,3,16.3,9.3,20.6,17.6c25.8,49.6-27.2,148,22.5,147.2c51.1,1.1-22.3-94.7,11.5-148.6c4.4-7,11.2-12.1,19.2-14.2
	c7.9-2.1,15.4-5.4,22.2-10.3c10-7.2,9.4-20.8-0.6-26.9c-8.4-5.1-17.2-8.4-26.4-10.5c-3.6-0.8-6.9-2.8-8.9-5.9
	c-1.4-2.1-2.1-4.4-1.6-6.9c0.7-3.4,3.3-6.1,6.6-7.3c28.1-10.1,46.7-36.8,47-66.2c0.2-11.9-2.3-22.9-6.7-32.6c-1.3-2.8-2.2-5.9-2.5-9
	C253.6,50.5,253.9,48,255.6,46.1z"/>
</svg>
