<?xml version="1.0" encoding="UTF-8" standalone="no"?>
<svg
   xmlns:dc="http://purl.org/dc/elements/1.1/"
   xmlns:cc="http://creativecommons.org/ns#"
   xmlns:rdf="http://www.w3.org/1999/02/22-rdf-syntax-ns#"
   xmlns:svg="http://www.w3.org/2000/svg"
   xmlns="http://www.w3.org/2000/svg"
   viewBox="0 0 533.33331 533.33331"
   height="533.33331"
   width="533.33331"
   xml:space="preserve"
   id="svg2"
   version="1.1"><metadata
     id="metadata8"><rdf:RDF><cc:Work
         rdf:about=""><dc:format>image/svg+xml</dc:format><dc:type
           rdf:resource="http://purl.org/dc/dcmitype/StillImage" /></cc:Work></rdf:RDF></metadata><defs
     id="defs6"><clipPath
       id="clipPath18"
       clipPathUnits="userSpaceOnUse"><path
         id="path16"
         d="M 0,400 H 400 V 0 H 0 Z" /></clipPath></defs><g
     transform="matrix(1.3333333,0,0,-1.3333333,0,533.33333)"
     id="g10"><g
       id="g12"><g
         clip-path="url(#clipPath18)"
         id="g14"><g
           transform="translate(10,130.8105)"
           id="g20"><path
             id="path22"
             style="fill:#000000;fill-opacity:1;fill-rule:nonzero;stroke:none"
             d="m 0,0 c 0,7.416 0.336,14.714 0.609,21.972 0.174,4.613 2.107,6.765 6.802,6.984 21.303,0.99 42.588,2.477 63.9,3.135 25.307,0.781 50.635,0.877 75.954,1.31 8.682,0.149 13.519,3.375 13.662,8.946 0.189,7.375 -5.903,13.148 -13.924,13.412 -23.424,0.769 -46.844,2.114 -70.271,2.263 -18.023,0.116 -36.055,-1.234 -54.082,-1.94 -1.639,-0.064 -3.349,-0.53 -4.893,-0.196 -1.681,0.364 -4.011,1.08 -4.571,2.316 -0.532,1.175 0.42,3.588 1.465,4.827 16.325,19.35 32.325,39.001 49.285,57.783 32.363,35.84 65.288,71.173 97.985,106.712 8.251,8.968 16.635,17.818 24.731,26.925 2.913,3.277 4.702,2.501 7.295,-0.311 37.661,-40.849 75.695,-81.359 113.006,-122.524 19.982,-22.045 38.785,-45.16 57.994,-67.899 1.187,-1.405 2.193,-4.157 1.587,-5.537 -0.572,-1.303 -3.382,-2.245 -5.21,-2.25 -4.435,-0.012 -8.875,0.963 -13.307,0.928 -38.653,-0.299 -77.304,-0.7 -115.955,-1.158 -6.93,-0.082 -12.523,-6.211 -12.57,-13.327 -0.034,-5.096 4.764,-8.778 12.224,-8.928 24.144,-0.483 48.301,-0.554 72.436,-1.319 22.717,-0.72 45.411,-2.153 68.119,-3.187 4.733,-0.216 7.474,-2.008 7.484,-7.155 0.023,-13.555 0.298,-27.11 0.236,-40.664 -0.023,-5.107 -2.523,-8.036 -8.129,-8.62 -5.792,-0.602 -11.573,-1.881 -17.193,-3.457 -16.364,-4.591 -22.703,-16.894 -17.22,-33.112 2.324,-6.874 5.645,-13.487 7.282,-20.505 4.532,-19.409 -12.599,-36.743 -32.295,-33.169 -10.006,1.815 -16.129,8.047 -16.052,18.333 0.058,7.881 2.126,15.727 2.858,23.63 0.578,6.24 1.017,12.594 0.413,18.791 -0.222,2.28 -1.784,5.975 -5.085,6.137 -3.3,0.161 -5.409,-2.66 -6.59,-4.812 -2.806,-5.114 -4.101,-11.169 -7.401,-15.864 -2.39,-3.402 -5.489,-7.482 -10.574,-7.128 -5.085,0.352 -6.646,3.799 -8.165,9.063 -1.519,5.264 -1.645,8.908 -2.043,13.328 -0.462,5.12 -0.412,10.356 -1.529,15.328 -1.988,8.845 -6.398,11.694 -15.375,12.364 -37.938,2.827 -75.841,1.3 -113.782,-0.044 -29.519,-1.045 -59.078,-1.227 -88.619,-1.224 -10.955,0.001 -21.908,1.633 -32.863,2.495 C 2.736,-26.963 0.69,-24.029 0.4,-19.456 -0.016,-12.909 0,-7.415 0,0" /></g></g></g></g></svg>