<?xml version="1.0" encoding="utf-8"?>
<!-- Generator: Adobe Illustrator 23.0.1, SVG Export Plug-In . SVG Version: 6.00 Build 0)  -->
<svg version="1.1"
	 id="svg8" xmlns:cc="http://creativecommons.org/ns#" xmlns:dc="http://purl.org/dc/elements/1.1/" xmlns:inkscape="http://www.inkscape.org/namespaces/inkscape" xmlns:rdf="http://www.w3.org/1999/02/22-rdf-syntax-ns#" xmlns:sodipodi="http://sodipodi.sourceforge.net/DTD/sodipodi-0.dtd" xmlns:svg="http://www.w3.org/2000/svg"
	 xmlns="http://www.w3.org/2000/svg" xmlns:xlink="http://www.w3.org/1999/xlink" x="0px" y="0px" viewBox="0 0 400 400"
	 style="enable-background:new 0 0 400 400;" xml:space="preserve">
<sodipodi:namedview  bordercolor="#666666" borderopacity="1" fit-margin-bottom="20" fit-margin-left="0" fit-margin-right="0" fit-margin-top="0" gridtolerance="10" guidetolerance="10" id="namedview10" inkscape:current-layer="svg8" inkscape:cx="58.06408" inkscape:cy="51.053141" inkscape:pageopacity="0" inkscape:pageshadow="2" inkscape:window-height="705" inkscape:window-maximized="1" inkscape:window-width="1366" inkscape:window-x="-8" inkscape:window-y="245" inkscape:zoom="4" objecttolerance="10" pagecolor="#ffffff" showgrid="false" showguides="false">
	</sodipodi:namedview>
<g id="Layer_1">
</g>
<g>
	<path d="M213,75.3h-8.9c-2.4,0-4.4,2-4.4,4.4v8.9c0,2.4,2,4.4,4.4,4.4h8.9c2.4,0,4.4-2,4.4-4.4v-8.9
		C217.4,77.3,215.4,75.3,213,75.3z"/>
	<path d="M247.2,75.3h-8.3c-2.4,0-4.4,2-4.4,4.4v8.9c0,2.4,2,4.4,4.4,4.4h8.3c2.4,0,4.4-2,4.4-4.4v-8.9
		C251.6,77.3,249.6,75.3,247.2,75.3z"/>
	<path d="M333.4,5H66.6c-5.5,0-10,4.5-10,10v259.2c0,5.5,4.5,10,10,10h185.2c4.9,0,9.9,0.5,14.7,1.7c59.4,14.6-3.8,97.8,31.2,108.1
		c2.9,0.8,6,1,8.9,0.4c34.7-7.2-32.6-95.2,28.4-108.9c4.9-1.1,8.4-5.4,8.4-10.4V15C343.4,9.5,338.9,5,333.4,5z M331.4,262.9
		c0,5.5-4.5,10-10,10l-121.1,0c-2.7,0-5.3-0.1-8-0.3c-80.9-6.2-42.7-42.1-2-42.1H282c2.4,0,4.4-2,4.4-4.4v-8.3c0-2.4-2-4.4-4.4-4.4
		h-8.3c-2.4,0-4.4-2-4.4-4.4v-7.7c0-2.4,2-4.4,4.4-4.4h8.3c2.4,0,4.4-2,4.4-4.4v-8.3c0-2.4-2-4.4-4.4-4.4h-8.3c-2.4,0-4.4,2-4.4,4.4
		v7.7c0,2.4-2,4.4-4.4,4.4H256c-2.4,0-4.4-2-4.4-4.4v-8.3c0-2.4-2-4.4-4.4-4.4h-8.3c-2.4,0-4.4-2-4.4-4.4v-8.3c0-2.4,2-4.4,4.4-4.4
		h8.3c2.4,0,4.4,2,4.4,4.4v8.3c0,2.4,2,4.4,4.4,4.4l11.3,0c1.1,0,2.1-0.8,2.2-1.9c1.4-9.3,5-14.4,11.8-15.2c2.4,0,4.4-2,4.4-4.4
		v-10.3c0-1.4-0.8-2.6-2-3.2c-4.9-2.6-5.1-8.3,0.8-15c0.8-0.9,1.3-2.1,1.3-3.3v-11.4c0-2.4-2-4.4-4.4-4.4h-8.3c-2.4,0-4.4,2-4.4,4.4
		v13.3c0.3,10.9,1.5,21-10.1,29.4c-2.9,2.1-7,0-7-3.6l0-3.7c0-3.1-2-5.1-4.4-5.1h-8.3c-2.4,0-4.4-2-4.4-4.4v-8.3
		c0-2.4,2-4.4,4.4-4.4h8.3c2.4,0,4.4-2,4.4-4.4v-8.9c0-2.4-2-4.4-4.4-4.4h-8.3c-2.4,0-4.4,2-4.4,4.4v8.9c0,2.4-2,4.4-4.4,4.4h-8.3
		c-2.4,0-4.4,2-4.4,4.4v7.7c0,2.4-2,4.4-4.4,4.4h-8.9c-2.4,0-4.4-2-4.4-4.4v-7.7c0-2.4,2-4.4,4.4-4.4h8.9c2.4,0,4.4-2,4.4-4.4v-8.9
		c0-2.4-2-4.4-4.4-4.4h-8.9c-2.4,0-4.4,2-4.4,4.4v8.3c0,2.4-2,4.4-4.4,4.4H187c-2.4,0-4.4-2-4.4-4.4v-8.3c0-2.4,2-4.4,4.4-4.4h8.3
		c2.4,0,4.4-2,4.4-4.4v-8.3c0-2.4-2-4.4-4.4-4.4H187c-2.4,0-4.4,2-4.4,4.4v7.7c0,2.4-2,4.4-4.4,4.4h-8.9c-2.4,0-4.4-2-4.4-4.4v-7.7
		c0-2.4,2-4.4,4.4-4.4h8.9c2.4,0,4.4-2,4.4-4.4v-8.9c0-2.4-2-4.4-4.4-4.4h-8.9c-2.4,0-4.4,2-4.4,4.4V88c0,2.4-2,4.4-4.4,4.4h-8.3
		c-2.4,0-4.4-2-4.4-4.4v-0.3c0.6-11.4,6-11.7,12.9-12.1c2.3-0.1,4.1-2.1,4.1-4.4v-8.6c0-2.4-2-4.4-4.4-4.4l-9,0
		c-2.1,0-3.9,1.5-4.3,3.5c-2.6,12.7-8.7,12.6-14.6,12.8c-1.4,0.1-2.5-1-2.5-2.4c0-2.5,0-6.5,0-9.5c0-2.4-2-4.4-4.4-4.4h-8.3
		c-2.4,0-4.4,2-4.4,4.4v167.8c0.3,24.3-18,34.5-36.4,40.2c-3.9,1.2-7.9-1.7-7.9-5.9V27.1c0-5.5,4.5-10,10-10h242.8
		c5.5,0,10,4.5,10,10V262.9z M217.4,157v-7.7c0-2.4,2-4.4,4.4-4.4h8.3c2.4,0,4.4,2,4.4,4.4v7.7c0,2.4-2,4.4-4.4,4.4h-8.3
		C219.4,161.4,217.4,159.5,217.4,157z"/>
</g>
</svg>
