<?xml version="1.0" encoding="utf-8"?>
<!-- Generator: Adobe Illustrator 21.1.0, SVG Export Plug-In . SVG Version: 6.00 Build 0)  -->
<!DOCTYPE svg PUBLIC "-//W3C//DTD SVG 1.1//EN" "http://www.w3.org/Graphics/SVG/1.1/DTD/svg11.dtd">
<svg version="1.1" id="Layer_1" xmlns="http://www.w3.org/2000/svg" xmlns:xlink="http://www.w3.org/1999/xlink" x="0px" y="0px"
	 viewBox="0 0 400 400" enable-background="new 0 0 400 400" xml:space="preserve">
<g>
	<path d="M284,137c-3.4,3.1-8.4,4.8-15.6,5.1c-8.2,0.3-16.4,0.5-24.5,1.2c-1.1,0.1-2.2,1-2.6,3.7c-0.4,2.7,2.8,41.9,3.4,62.2
		c0.6,21.3,0.2,42.7,0.3,64.1c0.1,14.2,0.3,28.4,0.7,42.6c0.2,8.2-1.3,14.7-10.2,18.7c-10.2,4.6-17.3,12.7-17.3,24.9
		c0,2.7,1,5.6,1.9,8.2c3.3,9.3,0,17.4-8.9,21.5c-5.4,2.5-10.4-0.1-14.6-3.3c-4.2-3.2-6.7-12.1-4.7-18.5c3.1-9.8-4.2-24.3-13.5-28.6
		c-4.6-2.1-11-4.9-14-5.3s-4.3-5.8-4.5-9.1c-0.6-9.8-0.1-19.7-0.3-29.5c-0.5-18.7-2-54.8-1.9-56s-1.7-1.6-2.3-1.4
		c-3.5,1-6.4,0.8-8.6-0.3c-2.7-1.4-4.5-4.3-5.3-8.7c-2.3-12.1,2.4-22.8,6.4-33.6c4.4-12,9.7-23.7,8.4-37c-0.3-3.3,0.8-6.7,0.9-10
		c0-0.9-1.4-2.5-2.2-2.5c-8.5-0.2-17-0.5-25.5-0.1c-6.5,0.3-11.1-1.8-14.5-7.4c-3.3-5.4-0.4-9.3,2.4-13.7
		c9.5-14.9,19.1-29.8,27.8-45.2c10.6-18.6,22.7-36,37-51.9c4-4.4,6.9-9.8,10.5-14.6c2.8-3.6,6.1-1.4,8.3,0.6
		c4.9,4.3,9.5,9,13.7,13.9c10.4,12.2,21.8,23,35.6,31.5c9.5,5.9,17.7,13.8,19.9,25.6c0.5,2.4-1.2,5.9-3,7.8c-1.9,2-2,3.1-0.6,5.1
		c4.9,6.9,9.9,13.8,14.6,21c1.8,2.7,2.4,4.1,4.1,8.9S287.4,133.8,284,137z"/>
</g>
</svg>
