<?xml version="1.0" encoding="utf-8"?>
<!-- Generator: Adobe Illustrator 23.0.6, SVG Export Plug-In . SVG Version: 6.00 Build 0)  -->
<svg version="1.1" id="Layer_1" xmlns="http://www.w3.org/2000/svg" xmlns:xlink="http://www.w3.org/1999/xlink" x="0px" y="0px"
	 viewBox="0 0 400 400" style="enable-background:new 0 0 400 400;" xml:space="preserve">
<path d="M270.2,111c-2.9,2.6-7,4-13,4.2c-6.8,0.2-13.7,0.4-20.5,1c-1,0.1-1.8,0.8-2.2,3.1s2.3,35,2.8,51.9
	c0.5,17.8,0.1,35.7,0.3,53.5c0.1,11.9,0.3,23.7,0.5,35.6c0.2,6.9-1,12.3-8.5,15.6c-8.6,3.8-14.5,10.6-14.5,20.8
	c0,2.3,0.8,4.7,1.6,6.9c2.7,7.7,0,14.5-7.4,17.9c-4.5,2-8.7-0.1-12.2-2.8c-3.5-2.7-5.6-10.1-3.9-15.5c2.6-8.2-3.5-20.3-11.3-23.9
	c-3.8-1.8-9.2-4.1-11.7-4.5s-3.6-4.8-3.8-7.6c-0.5-8.2-0.1-16.4-0.3-24.7c-0.4-15.6-1.7-45.8-1.6-46.8c0-1-1.4-1.3-1.9-1.2
	c-2.9,0.8-5.3,0.7-7.2-0.3c-2.2-1.2-3.7-3.6-4.4-7.2c-1.9-10.1,2-19,5.3-28.1c3.7-10,8.1-19.8,7.1-30.9c-0.3-2.7,0.7-5.6,0.8-8.4
	c0-0.7-1.2-2.1-1.8-2.1c-7.1-0.2-14.2-0.4-21.3-0.1c-5.4,0.2-9.3-1.5-12.1-6.2c-2.8-4.5-0.4-7.7,2-11.4c7.9-12.5,16-24.9,23.3-37.8
	c8.8-15.6,18.9-30.1,30.9-43.4c3.3-3.7,5.8-8.2,8.8-12.2c2.3-3,5.1-1.1,6.9,0.5c4.1,3.6,8,7.5,11.5,11.6
	c8.7,10.2,18.2,19.2,29.7,26.3c8,4.9,14.8,11.6,16.6,21.4c0.4,2-1,4.9-2.5,6.6c-1.6,1.7-1.7,2.6-0.5,4.3c4.1,5.8,8.3,11.6,12.2,17.5
	c1.5,2.2,2,3.4,3.4,7.4C272.7,106.1,273,108.4,270.2,111z"/>
</svg>
