<?xml version="1.0" encoding="utf-8"?>
<!-- Generator: Adobe Illustrator 23.0.1, SVG Export Plug-In . SVG Version: 6.00 Build 0)  -->
<svg version="1.1"
	 id="svg8" xmlns:cc="http://creativecommons.org/ns#" xmlns:dc="http://purl.org/dc/elements/1.1/" xmlns:inkscape="http://www.inkscape.org/namespaces/inkscape" xmlns:rdf="http://www.w3.org/1999/02/22-rdf-syntax-ns#" xmlns:sodipodi="http://sodipodi.sourceforge.net/DTD/sodipodi-0.dtd" xmlns:svg="http://www.w3.org/2000/svg"
	 xmlns="http://www.w3.org/2000/svg" xmlns:xlink="http://www.w3.org/1999/xlink" x="0px" y="0px" viewBox="0 0 400 400"
	 style="enable-background:new 0 0 400 400;" xml:space="preserve">
<sodipodi:namedview  bordercolor="#666666" borderopacity="1" fit-margin-bottom="20" fit-margin-left="0" fit-margin-right="0" fit-margin-top="0" gridtolerance="10" guidetolerance="10" id="namedview10" inkscape:current-layer="svg8" inkscape:cx="29.792186" inkscape:cy="24.53127" inkscape:pageopacity="0" inkscape:pageshadow="2" inkscape:window-height="705" inkscape:window-maximized="1" inkscape:window-width="1366" inkscape:window-x="-8" inkscape:window-y="245" inkscape:zoom="5.6568543" objecttolerance="10" pagecolor="#ffffff" showgrid="false">
	</sodipodi:namedview>
<g id="Layer_1">
</g>
<g>
	<path d="M205.6,178.4c-3.8,0.1-6.7-2.3-10.2-5.1c-7.4-6-14.4-16.4-20.5-28.5c-6.6-13.1-12.2-28.3-15.8-41.7c-1.3-4.9-2-9.9-2-15
		c0-6.4,0-15.5,0-19.2c0-0.9-0.7-1.7-1.7-1.7h-18.6c-0.9,0-1.7,0.7-1.7,1.7v126.4c0,1.7,1.4,3.1,3.1,3.1l27,0c3.1,0,6.2,0.8,8.7,2.6
		c18.2,13-6.7,55.7,6.7,62.9c1.6,0.9,3.6,1,5.4,0.5c18.9-4.8-17.1-50.3,15.8-65.6c0.6-0.3,1.1-0.7,1.4-1.3l0,0
		c0.1-0.2,0.2-0.5,0.3-0.8l2.9-15.7c0.1-0.6,0.2-1.2,0.2-1.7l0,0C206.6,178.8,206.1,178.4,205.6,178.4z M168.8,178.4h-9.6
		c-1.3,0-2.3-1-2.3-2.3v-23.2c0-0.9,0.2-1.9,0.8-2.6c5.9-7.8,25.1,23.3,13.3,27.8C170.4,178.3,169.6,178.4,168.8,178.4z"/>
	<path d="M57.8,14.4v256.9c0,5.5,4.5,10,10,10h210.8c3.2,0,6.4,0.4,9.4,1.5c41.5,14.7-2.1,110.7,25.2,112.7
		c30.9,0.9-13.8-94.3,21.8-111.9c4.5-2.2,7.3-6.9,7.3-11.9V14.4c0-5.5-4.5-10-10-10H67.8C62.2,4.4,57.8,8.9,57.8,14.4z M320.3,270.1
		H79.7c-5.5,0-10-4.5-10-10V26.3c0-5.5,4.5-10,10-10h240.6c5.5,0,10,4.5,10,10v233.7C330.3,265.6,325.8,270.1,320.3,270.1z"/>
	<path d="M268.8,99.9c-0.6,0-1.7,0-2.3,0c-9.4,0-16.5,1.2-24.7,3.1c-8.2,2.5-11.9,2.9-15.7,4.8c-0.4,0.2-0.8,0.4-1.1,0.6
		c-0.9,0.5-1.4,1.4-1.4,2.5c0,0.2,0,0.3,0,0.4c0,3.1,0,3.6,0,5.5s0,3.8,0,4.4v74.8c0,1,0.8,1.8,1.8,1.8h18.4c1,0,1.8-0.8,1.8-1.8
		l0-4.7c0-1.6,0.1-3.3,0.2-4.9c1.7-22.5,5-46,22.8-66.2c0.5-0.6,0.8-1.4,0.8-2.2l0,0v-17C269.4,100.5,269.4,99.9,268.8,99.9z
		 M245.5,136.4l0-12.6c0-1.2,0.8-2.2,2-2.5c1.3-0.3,2.9-0.6,4.7-0.9c1.3-0.2,2.6,0.5,2.9,1.8c0.6,2.5-0.7,6.9-2.5,10.5
		C250,137.7,245.5,142.1,245.5,136.4z"/>
</g>
</svg>
