<?xml version="1.0" encoding="utf-8"?>
<!-- Generator: Adobe Illustrator 23.0.6, SVG Export Plug-In . SVG Version: 6.00 Build 0)  -->
<svg version="1.1"
	 id="svg8" xmlns:cc="http://creativecommons.org/ns#" xmlns:dc="http://purl.org/dc/elements/1.1/" xmlns:inkscape="http://www.inkscape.org/namespaces/inkscape" xmlns:rdf="http://www.w3.org/1999/02/22-rdf-syntax-ns#" xmlns:sodipodi="http://sodipodi.sourceforge.net/DTD/sodipodi-0.dtd" xmlns:svg="http://www.w3.org/2000/svg"
	 xmlns="http://www.w3.org/2000/svg" xmlns:xlink="http://www.w3.org/1999/xlink" x="0px" y="0px" viewBox="0 0 400 400"
	 style="enable-background:new 0 0 400 400;" xml:space="preserve">
<path d="M205.4,177c-3.7,0.1-6.5-2.2-9.9-5c-7.1-5.8-13.9-15.8-19.8-27.5c-6.4-12.7-11.8-27.3-15.3-40.3c-1.3-4.7-2-9.6-2-14.5
	c0-6.2,0-15,0-18.5c0-0.9-0.7-1.6-1.6-1.6h-18c-0.9,0-1.6,0.7-1.6,1.6v122.2c0,1.7,1.4,3,3,3l26.1,0c3,0,6,0.8,8.4,2.6
	c17.6,12.5-6.5,53.8,6.5,60.8c1.6,0.9,3.5,0.9,5.2,0.5c18.3-4.6-16.6-48.7,15.3-63.4c0.6-0.3,1-0.7,1.3-1.3l0,0
	c0.1-0.2,0.2-0.5,0.2-0.7l2.8-15.2c0.1-0.6,0.2-1.1,0.2-1.7l0,0C206.4,177.4,205.9,177,205.4,177z M169.9,177h-9.3
	c-1.2,0-2.2-1-2.2-2.2v-22.5c0-0.9,0.2-1.8,0.8-2.5c5.7-7.5,24.3,22.5,12.9,26.8C171.4,176.9,170.6,177,169.9,177z"/>
<path d="M62.5,18.5v248.4c0,5.3,4.3,9.7,9.7,9.7h203.7c3.1,0,6.2,0.4,9.1,1.5c40.1,14.2-2.1,107,24.3,108.9
	c29.9,0.9-13.3-91.1,21.1-108.2c4.3-2.2,7.1-6.6,7.1-11.5V18.5c0-5.3-4.3-9.7-9.7-9.7H72.2C66.8,8.8,62.5,13.2,62.5,18.5z
	 M316.3,265.6H83.7c-5.3,0-9.7-4.3-9.7-9.7V30c0-5.3,4.3-9.7,9.7-9.7h232.6c5.3,0,9.7,4.3,9.7,9.7V256
	C326,261.3,321.6,265.6,316.3,265.6z"/>
<path d="M266.5,101.1c-0.6,0-1.6,0-2.2,0c-9.1,0-16,1.2-23.9,3c-7.9,2.4-11.5,2.8-15.2,4.7c-0.4,0.2-0.7,0.4-1.1,0.6
	c-0.9,0.5-1.4,1.4-1.4,2.4c0,0.1,0,0.3,0,0.4c0,3,0,3.5,0,5.3c0,1.8,0,3.7,0,4.3v72.4c0,0.9,0.8,1.7,1.7,1.7h17.8
	c0.9,0,1.7-0.8,1.7-1.7l0-4.5c0-1.6,0.1-3.2,0.2-4.8c1.7-21.8,4.9-44.5,22.1-64c0.5-0.6,0.8-1.3,0.8-2.1l0,0v-16.4
	C267.1,101.7,267.1,101.1,266.5,101.1z M244,136.5l0-12.2c0-1.1,0.8-2.1,1.9-2.4c1.2-0.3,2.8-0.6,4.5-0.8c1.2-0.2,2.5,0.5,2.8,1.7
	c0.6,2.4-0.7,6.6-2.5,10.1C248.3,137.7,244,141.9,244,136.5z"/>
</svg>
