<?xml version="1.0" encoding="utf-8"?>
<!-- Generator: Adobe Illustrator 22.0.0, SVG Export Plug-In . SVG Version: 6.00 Build 0)  -->
<!DOCTYPE svg PUBLIC "-//W3C//DTD SVG 1.1//EN" "http://www.w3.org/Graphics/SVG/1.1/DTD/svg11.dtd">
<svg version="1.1" id="Layer_1" xmlns="http://www.w3.org/2000/svg" xmlns:xlink="http://www.w3.org/1999/xlink" x="0px" y="0px"
	 viewBox="0 0 400 400" enable-background="new 0 0 400 400" xml:space="preserve">
<g>
	<path d="M355.8,203.5c-1.8,7.2-4,13.2-6.1,18.6c-3.3,8.4-7.1,16.7-11.3,24.8c-3.4,6.5-7,13-11.5,18.7c-6.2,7.8-13.1,15-20.2,22
		c-9.4,9.2-20.4,16.5-31.8,22.8c-5.3,2.9-10.9,5.3-16.5,7.5c-6.2,2.4-12.4,4.7-18.8,6.4c-10,2.6-16,4.9-33.2,6.2s-28.7,1.4-44,4.9
		c-12.8,2.9-18.1,10.5-17.9,23.7c0.1,4.1,0.6,8.2,0.8,12.3c0.4,6.8-0.7,13.1-7.7,16.3c-6.2,2.9-14.6,0.8-20-4.7
		c-4.3-4.4-6.4-9.8-6.6-15.9c-0.1-3.9,0-7.8,0.5-11.6c1.6-11.8,0.3-23.2-3.5-34.4c-3.6-10.7-5.4-15.8-11.8-25.2
		c-3.5-5.1-11-14.5-14.8-19.3c-5.9-7.4-11.8-14.8-17.1-22.6c-5.8-8.6-10.3-17.9-13.5-27.9c-2.7-8.5-4.4-13.1-6.7-21.7
		c-1-3.7-2.1-11.6-2.3-15.4c-0.4-7.3-1-14.5-0.8-21.8c0.2-8.8,0.7-17.6,2-26.2c1-6.6,3.4-13,5.3-19.5c2.2-7.9,5.7-15.2,9.2-22.6
		c5.2-11.2,12.4-21.2,20.1-30.6c6.3-7.7,16.2-16.6,23.7-22.7s17.6-12.2,28.5-17.5c8.7-4.2,17.8-7.9,27.1-10.5
		c9.4-2.6,21.1-4.6,28.9-5.1c7.8-0.6,22.4-0.4,31.8,0.3c9.4,0.8,17.6,2.5,26.1,5.1c7.8,2.3,15.4,5.1,22.8,8.5
		c6.3,2.9,12.3,6.7,18.3,10.2c10.3,6,19.3,13.7,27.7,22.1c8.3,8.3,16,17.1,21.8,27.4c3.9,7.1,6.9,12.3,10.3,19.6
		c2.3,4.8,4.7,12,6.3,17.1c1.7,5.4,3.2,9.9,4.7,15.4c0.5,2,1.7,8.4,2.5,12.6c0.7,4.1,1.1,12.5,1.1,20.4
		C359.1,179.2,357.7,196.3,355.8,203.5z M257.7,215.9c0,1.5-0.1,3.1,0,4.6c0.5,7.7,1.4,14.1,6.3,20.4c2.5,3.2,6,3.4,9,0.7
		c6.1-5.5,10.3-10.3,15.2-17c8.4-11.4,12.6-24.1,13.7-37.9c0.8-9.8-0.9-19.4-4-28.9c-3.7-11.2-9.8-20.9-18-29.3
		c-6.6-6.7-14-12.1-22.9-15.6c-6.5-2.6-10.5-4-20.1-4.9c-9.6-0.9-18.1-0.2-25.8,0.8c-14,1.7-23.6,7.9-33.8,17.4
		c-6.6,6.2-12.8,12.9-18.9,19.6c-4.4,4.9-7.4,10.3-5,17.5c2.6,7.6,7.5,12.4,15.1,14.1c6.1,1.3,11.6-0.6,16-4.9
		c6-5.8,11.6-12,17.7-17.6c9.3-8.5,20.2-11.5,32.7-8.9c9.7,2,17.2,6.8,22.4,15.2c3.9,6.2,7.1,12.9,6.7,20.3
		c-0.2,5.3-1.4,10.7-3.3,15.6C258.6,203.2,257.6,209.4,257.7,215.9z M96.2,152.4c-0.5,3.8-0.6,7.6-0.2,11c0.8,5.8,1.9,9,3.8,15.3
		c2.1,6.9,5.2,13.8,9,20c3.4,5.6,8,10.7,12.8,15.2c6.7,6.4,11.8,6.6,17.5,1.8c1.8-1.6,3.6-3.5,4.7-5.7c4.9-9.9,4.5-19.7-1.5-29.1
		c-5.6-8.8-8.8-17.9-7-28.9c1.1-5.4,2.9-9.6,5.5-13.4c7.2-10.2,14.7-17,23.3-26c6.7-7.1,14.3-13.5,21.2-20.5
		c4.7-4.8,7.6-10.5,5.7-17.5c-1.4-5.2-3.7-10.1-8.6-12.7c-8.9-4.8-17.7-3.2-25,4.2c-13,13.2-25.8,26.5-38.9,39.6
		c-8.1,8.1-13,14.9-16.8,25.6C99.1,138.7,97.3,143.9,96.2,152.4z M196.3,225.9c5.1,0,8.8-0.8,11.3-2.2c4-2.2,7.9-4.7,11.2-7.8
		c7.3-6.7,14.2-13.7,21.1-20.7c9-9,8-20.9-1.3-28.4c-5.5-4.5-11.8-6.5-18.9-2.7c-5,2.6-8.7,6.6-12.5,10.6c-4,4.3-8,8.6-12.4,12.4
		c-5.7,4.9-12.4,7.8-20.1,7.9c-3,0-4.6,1.8-5.1,4.8c-1.1,6.5,1.3,11.8,5.7,16.3C181.8,222.4,191.2,225.9,196.3,225.9z M241.9,252.6
		c-0.2-6.7-1.2-13-4.2-18.9c-2.2-4.3-6.9-4-10.3-0.6c-5.8,5.7-9.7,10.3-14.9,16.5c-2.5,2.9-4.5,7.1-4.8,10.9
		c-1,11.1,8.5,20.8,20.5,19.9c4.3-0.3,7-2.1,8.8-5.8C240.4,267.5,241.8,260.1,241.9,252.6z"/>
</g>
</svg>
