<?xml version="1.0" encoding="utf-8"?>
<!-- Generator: Adobe Illustrator 23.0.6, SVG Export Plug-In . SVG Version: 6.00 Build 0)  -->
<svg version="1.1" id="Layer_1" xmlns="http://www.w3.org/2000/svg" xmlns:xlink="http://www.w3.org/1999/xlink" x="0px" y="0px"
	 viewBox="0 0 400 400" style="enable-background:new 0 0 400 400;" xml:space="preserve">
<path d="M334.3,170.5c-1.6,6.2-3.4,11.4-5.2,16c-2.8,7.3-6.1,14.4-9.7,21.3c-2.9,5.6-6,11.2-9.9,16.1c-5.3,6.7-11.3,13-17.4,19
	c-8.1,7.9-17.5,14.2-27.4,19.7c-4.5,2.5-9.4,4.6-14.2,6.5c-5.3,2.1-10.7,4.1-16.2,5.5c-8.6,2.2-13.8,4.2-28.7,5.3
	c-14.9,1.1-24.7,1.2-37.9,4.2c-11,2.5-15.6,9.1-15.4,20.5c0.1,3.5,0.5,7.1,0.7,10.6c0.3,5.9-0.6,11.3-6.6,14.1
	c-5.3,2.5-12.6,0.7-17.3-4.1c-3.7-3.8-5.5-8.5-5.7-13.7c-0.1-3.3,0-6.7,0.5-10c1.4-10.1,0.3-20-3-29.6c-3.1-9.2-4.7-13.6-10.2-21.7
	c-3-4.4-9.4-12.5-12.8-16.6c-5.1-6.4-10.2-12.7-14.8-19.5c-5-7.4-8.9-15.5-11.6-24c-2.4-7.3-3.8-11.3-5.8-18.7
	c-0.8-3.2-1.8-10-2-13.3c-0.3-6.3-0.9-12.5-0.7-18.8c0.2-7.6,0.6-15.1,1.7-22.6c0.9-5.7,3-11.2,4.5-16.8c1.9-6.8,4.9-13.1,7.9-19.4
	c4.5-9.7,10.7-18.2,17.3-26.3c5.4-6.7,14-14.3,20.4-19.6c6.4-5.3,15.2-10.6,24.6-15.1c7.5-3.6,15.4-6.8,23.4-9
	c8.1-2.2,18.2-3.9,24.9-4.4s19.3-0.4,27.4,0.3s15.2,2.2,22.5,4.4c6.7,2,13.3,4.4,19.7,7.3c5.5,2.5,10.6,5.8,15.8,8.8
	c8.9,5.2,16.6,11.8,23.8,19.1c7.1,7.2,13.8,14.8,18.7,23.7c3.4,6.1,5.9,10.6,8.9,16.9c1.9,4.2,4.1,10.4,5.5,14.7
	c1.5,4.7,2.8,8.6,4.1,13.3c0.5,1.7,1.5,7.3,2.1,10.8s0.9,10.8,0.9,17.6S335.9,164.3,334.3,170.5z M249.7,181.1c0,1.3-0.1,2.6,0,3.9
	c0.5,6.7,1.2,12.2,5.5,17.5c2.2,2.8,5.2,2.9,7.7,0.6c5.2-4.7,8.9-8.9,13.1-14.6c7.2-9.8,10.8-20.8,11.8-32.7
	c0.7-8.5-0.8-16.8-3.4-24.9c-3.2-9.7-8.5-18-15.5-25.2c-5.7-5.8-12.1-10.4-19.7-13.5c-5.6-2.3-9.1-3.4-17.3-4.2s-15.6-0.1-22.3,0.7
	c-12,1.5-20.3,6.8-29.1,15c-5.7,5.3-11.1,11.1-16.3,16.9c-3.8,4.2-6.4,8.9-4.3,15.1c2.2,6.5,6.4,10.7,13,12.1
	c5.2,1.2,10-0.5,13.8-4.2c5.2-5,10-10.3,15.3-15.2c8-7.3,17.4-9.9,28.2-7.6c8.3,1.7,14.8,5.9,19.3,13.1c3.3,5.4,6.1,11.1,5.8,17.5
	c-0.2,4.5-1.2,9.2-2.8,13.5C250.5,170.2,249.6,175.5,249.7,181.1z M110.6,126.5c-0.4,3.3-0.6,6.5-0.1,9.5c0.7,5,1.6,7.7,3.3,13.2
	c1.8,6,4.5,11.9,7.7,17.2c3,4.8,6.9,9.2,11,13.1c5.7,5.5,10.2,5.7,15.1,1.6c1.6-1.3,3.1-3,4-4.9c4.3-8.6,3.9-16.9-1.3-25.1
	c-4.9-7.6-7.5-15.4-6-24.9c0.9-4.6,2.5-8.3,4.8-11.6c6.2-8.8,12.7-14.6,20.1-22.4c5.8-6.1,12.3-11.6,18.3-17.6c4.1-4.1,6.5-9,4.9-15
	c-1.2-4.5-3.2-8.7-7.4-11c-7.6-4.1-15.3-2.8-21.5,3.6c-11.2,11.4-22.3,22.9-33.5,34.1c-7,7-11.2,12.8-14.5,22.1
	C113.1,114.6,111.5,119.1,110.6,126.5z M196.8,189.8c4.4,0,7.6-0.7,9.8-1.9c3.4-1.9,6.8-4.1,9.6-6.7c6.3-5.7,12.2-11.8,18.2-17.8
	c7.7-7.7,6.9-18-1.1-24.5c-4.8-3.9-10.2-5.6-16.3-2.3c-4.3,2.3-7.5,5.7-10.8,9.1c-3.5,3.7-6.9,7.4-10.7,10.7
	c-4.9,4.2-10.7,6.7-17.3,6.8c-2.6,0-4,1.6-4.4,4.1c-1,5.6,1.1,10.2,4.9,14C184.4,186.7,192.4,189.8,196.8,189.8z M236.1,212.8
	c-0.1-5.8-1-11.2-3.6-16.3c-1.9-3.7-5.9-3.5-8.9-0.6c-5,4.9-8.3,8.9-12.8,14.2c-2.2,2.5-3.9,6.2-4.2,9.4
	c-0.8,9.5,7.3,17.9,17.7,17.2c3.7-0.3,6-1.8,7.6-5C234.8,225.7,236,219.3,236.1,212.8z"/>
</svg>
