<?xml version="1.0" encoding="UTF-8" standalone="no"?>
<svg
   xmlns:dc="http://purl.org/dc/elements/1.1/"
   xmlns:cc="http://creativecommons.org/ns#"
   xmlns:rdf="http://www.w3.org/1999/02/22-rdf-syntax-ns#"
   xmlns:svg="http://www.w3.org/2000/svg"
   xmlns="http://www.w3.org/2000/svg"
   viewBox="0 0 533.33331 533.33331"
   height="533.33331"
   width="533.33331"
   xml:space="preserve"
   id="svg2"
   version="1.1"><metadata
     id="metadata8"><rdf:RDF><cc:Work
         rdf:about=""><dc:format>image/svg+xml</dc:format><dc:type
           rdf:resource="http://purl.org/dc/dcmitype/StillImage" /></cc:Work></rdf:RDF></metadata><defs
     id="defs6"><clipPath
       id="clipPath18"
       clipPathUnits="userSpaceOnUse"><path
         id="path16"
         d="M 0,400 H 400 V 0 H 0 Z" /></clipPath></defs><g
     transform="matrix(1.3333333,0,0,-1.3333333,0,533.33333)"
     id="g10"><g
       id="g12"><g
         clip-path="url(#clipPath18)"
         id="g14"><g
           transform="translate(211.998,338.1895)"
           id="g20"><path
             id="path22"
             style="fill:#000000;fill-opacity:1;fill-rule:nonzero;stroke:none"
             d="m 0,0 c -4.11,-4.11 -6.395,-8.249 -8.944,-13.779 -4.251,-9.217 -6.454,-19.77 -6.638,-29.911 -0.164,-9.007 1.266,-17.688 4.268,-24.819 2.756,-6.551 6.594,-11.438 11.423,-14.309 4.83,-2.871 6.679,21.106 6.56,43.295 C 6.553,-17.902 4.109,4.11 0,0 m -24.2,-160.079 c 0,-17.9 0.041,-35.8 -0.034,-53.7 -0.015,-3.609 1.521,-4.808 5.035,-4.744 9.116,0.162 18.236,0.051 27.355,0.052 7.206,0.001 8.217,0.795 9.246,8.06 1.683,11.873 -2.206,22.424 -9.268,31.492 -5.892,7.565 -7.68,15.787 -7.954,24.943 -0.527,17.621 -6.553,33.41 -17.109,47.426 -1.262,1.677 -4.277,4.734 -5.798,3.516 -1.521,-1.218 -1.4,-3.858 -1.413,-5.792 -0.112,-17.083 -0.065,-34.168 -0.06,-51.253 m 148.833,45.831 c 0,-48.247 -0.031,-96.495 0.063,-144.742 0.007,-3.741 -0.222,-6.377 -4.644,-7.596 -4.647,-1.28 -6.102,-5.123 -4.891,-9.729 0.827,-3.148 2.027,-6.196 2.902,-9.331 1.329,-4.767 1.574,-9.815 -2.24,-13.276 -2.351,-2.134 -6.44,-3.97 -9.3,-3.452 -2.608,0.473 -5.087,2.683 -6.271,5.56 -1.184,2.877 -1.745,6.81 -0.998,9.374 0.748,2.563 1.056,4.283 0.56,7.251 -0.495,2.967 -2.486,4.9 -4.093,5.246 -1.751,0.377 -4.448,-0.712 -6.219,-3.184 -1.772,-2.472 -1.086,-8.546 -0.44,-12.836 0.717,-4.76 3.579,-9.203 4.252,-13.962 0.663,-4.676 0.685,-9.86 -0.675,-14.313 -2.423,-7.931 -11.022,-12.034 -19.306,-10.366 -7.795,1.569 -12.538,7.657 -12.009,16.51 0.299,4.988 1.614,9.935 2.686,14.853 2.392,10.976 2.478,20.178 -6.022,28.398 -3.861,3.404 -5.986,4.187 -10.488,4.187 -21.509,0.283 -40.729,0.456 -62.234,0.109 -8.313,-0.135 -16.51,-0.959 -24.646,1.622 -14.78,4.69 -24.653,14.541 -28.899,29.15 -2.322,7.985 -3.239,16.619 -3.311,24.973 -0.266,30.781 0.128,61.569 0.19,92.353 0.044,21.661 -0.056,43.322 -0.072,64.982 -0.006,7.897 3.336,14.828 8.605,19.333 4.145,3.545 8.154,5.362 13.994,5.195 0.489,-0.015 2.268,0.006 6.623,-0.061 4.356,-0.067 5.284,0.244 6.83,8.206 1.422,7.329 0.373,14.224 -3.37,20.746 -1.631,2.844 -3.73,4.068 -7.107,4.039 -16.461,-0.14 -32.926,-0.162 -49.387,-10e-4 -4.673,0.046 -6.427,-1.843 -6.381,-6.386 0.126,-12.224 0.04,-24.449 0.04,-36.674 0,-67.481 -0.114,-134.962 0.14,-202.443 0.032,-8.763 -3.11,-15.249 -9.148,-21.06 -1.523,-1.466 -3.11,-3.448 -2.515,-7.948 0.593,-4.499 1.15,-14.585 2.983,-18.501 1.833,-3.917 4.495,-8.964 4.917,-14.084 0.723,-8.768 -5.631,-15.387 -13.039,-16.289 -7.439,-0.905 -15.892,5.244 -16.757,13.222 -0.511,4.702 -0.022,9.901 1.511,14.361 4.256,12.379 2.121,22.583 -7.896,31.279 -5.33,4.627 -7.234,11.106 -7.237,17.989 -0.038,75.466 -0.005,150.931 0.001,226.397 0.002,19.885 -0.035,39.77 -0.026,59.655 0.003,5.895 0.863,6.802 6.801,6.808 34.22,0.037 68.44,0.012 102.66,0.04 11.734,0.01 23.47,0.234 35.204,0.125 6.868,-0.064 13.889,0.223 20.564,-1.074 14.809,-2.877 28.084,-17.724 29.615,-32.683 1.071,-10.459 1.869,-20.996 1.912,-31.502 0.197,-48.573 0.064,-97.146 0.11,-145.719 0.008,-8.453 -2.919,-15.238 -9.389,-20.946 -5.034,-4.442 -4.686,-11.135 -4.916,-17.305 -0.059,-1.61 0.294,-3.242 0.518,-4.856 2.07,-14.969 3.092,-15.867 17.987,-15.867 6.846,0 13.701,0.213 20.534,-0.079 4.095,-0.176 5.26,1.235 5.238,5.273 -0.149,29.175 -0.079,58.353 -0.079,87.53 0,51.508 -0.003,103.015 0.002,154.522 0.001,11.079 6.117,20.267 15.633,23.547 9.537,3.286 20.729,0.135 26.763,-8.684 2.484,-3.632 3.969,-8.713 3.994,-13.145 0.276,-48.246 0.173,-96.494 0.173,-144.741" /></g></g></g></g></svg>