<?xml version="1.0" encoding="UTF-8" standalone="no"?>
<svg
   xmlns:dc="http://purl.org/dc/elements/1.1/"
   xmlns:cc="http://creativecommons.org/ns#"
   xmlns:rdf="http://www.w3.org/1999/02/22-rdf-syntax-ns#"
   xmlns:svg="http://www.w3.org/2000/svg"
   xmlns="http://www.w3.org/2000/svg"
   viewBox="0 0 533.33331 533.33331"
   height="533.33331"
   width="533.33331"
   xml:space="preserve"
   id="svg2"
   version="1.1"><metadata
     id="metadata8"><rdf:RDF><cc:Work
         rdf:about=""><dc:format>image/svg+xml</dc:format><dc:type
           rdf:resource="http://purl.org/dc/dcmitype/StillImage" /></cc:Work></rdf:RDF></metadata><defs
     id="defs6"><clipPath
       id="clipPath18"
       clipPathUnits="userSpaceOnUse"><path
         id="path16"
         d="M 0,400 H 400 V 0 H 0 Z" /></clipPath></defs><g
     transform="matrix(1.3333333,0,0,-1.3333333,0,533.33333)"
     id="g10"><g
       id="g12"><g
         clip-path="url(#clipPath18)"
         id="g14"><g
           transform="translate(286.9404,198.4863)"
           id="g20"><path
             id="path22"
             style="fill:#000000;fill-opacity:1;fill-rule:nonzero;stroke:none"
             d="m 0,0 c -7.22,-1.745 -17.444,2.077 -27.765,5.426 -5.71,1.853 -5.652,1.682 -9.214,-3.216 -12.656,-17.408 -20.409,-36.918 -25.174,-57.772 -2.707,-11.848 -5.324,-23.74 -8.71,-35.4 -1.693,-5.826 -5.206,-11.101 -7.547,-16.77 -1.563,-3.785 -3.599,-7.843 -3.524,-11.743 0.195,-10.115 1.438,-20.21 2.263,-30.313 0.608,-7.442 -0.064,-14.656 -3.924,-21.267 -2.975,-5.095 -7.122,-8.522 -13.335,-7.992 -6.329,0.54 -9.568,4.935 -11.439,10.453 -3.043,8.978 -1.754,18.157 -0.741,27.244 1.737,15.596 1.078,30.893 -4.105,45.875 -8.092,23.394 -8.623,47.348 -4.843,71.562 0.771,4.935 1.732,9.841 2.638,14.754 0.768,4.173 -0.266,5.747 -4.282,5.795 -12.292,0.144 -24.116,-2.415 -35.583,-6.657 -6.541,-2.419 -9.592,-7.581 -9.805,-14.308 -0.195,-6.153 0.319,-12.332 0.057,-18.481 -0.16,-3.765 -0.917,-7.57 -1.912,-11.22 -1.044,-3.828 -3.862,-6.325 -7.857,-6.778 -4.037,-0.457 -7.177,1.543 -9.052,5.021 -1.482,2.752 -2.643,5.723 -3.582,8.711 -1.145,3.644 -2.497,9.86 -2.915,11.452 -0.418,1.592 -0.941,3.131 -2.454,3.026 -1.512,-0.103 -1.912,-1.957 -1.982,-3.574 -0.071,-1.618 0.335,-8.247 0.069,-12.39 -0.351,-5.459 -0.345,-11.029 -1.52,-16.323 -1.48,-6.666 -6.006,-10.333 -10.766,-10.106 -4.672,0.221 -9.112,4.391 -10.562,10.598 -0.786,3.365 -1.041,6.92 -1.038,10.389 0.006,6.66 0.353,13.32 0.584,19.98 0.481,13.854 -6.957,23.297 -17.634,30.551 -7.618,5.177 -10.291,9.975 -7.97,18.937 1.949,7.526 4.513,14.905 7.072,22.256 1.418,4.072 4.353,7.118 8.27,8.975 2.542,1.205 2.706,2.608 1.721,5.132 -2.959,7.585 -5.937,15.149 -5.238,23.654 0.443,5.392 2.048,10.235 5.511,14.163 4.633,5.254 9.712,10.201 17.06,11.508 2.529,0.45 2.94,1.462 1.964,3.75 -0.908,2.126 -1.628,4.398 -2.002,6.676 -1.982,12.074 2.305,21.055 13.182,27.087 2.764,1.533 2.691,2.148 0.561,4.329 -8.81,9.017 -6.31,21.876 4.906,27.947 9.327,5.049 22.791,5.032 29.423,4.874 6.632,-0.157 8.924,0.215 13.397,0.211 21.82,-0.017 43.642,0.045 65.459,-0.222 9.116,-0.112 18.218,-1.201 27.337,-1.425 9.566,-0.234 25.606,2.761 28.304,3.475 2.697,0.713 4.561,0.887 6.843,1.354 7.291,1.495 14.773,1.547 22.136,2.661 7.364,1.113 15.359,-1.639 23.028,-2.982 2.917,-0.512 5.633,-2.158 8.55,-2.681 4.616,-0.828 6.745,-3.446 7.669,-7.889 4.812,-23.143 10.14,-46.185 14.594,-69.395 C 60.892,74.068 64.735,49.038 69.339,24.15 70.373,18.561 71.19,11.744 69.862,9.851 68.534,7.958 63.649,6.953 62.022,6.681 53.49,5.254 44.94,3.843 36.343,2.938 25.583,1.804 14.771,1.166 0,0" /></g></g></g></g></svg>