<?xml version="1.0" encoding="utf-8"?>
<!-- Generator: Adobe Illustrator 23.0.6, SVG Export Plug-In . SVG Version: 6.00 Build 0)  -->
<svg version="1.1"
	 id="svg6" xmlns:cc="http://creativecommons.org/ns#" xmlns:dc="http://purl.org/dc/elements/1.1/" xmlns:inkscape="http://www.inkscape.org/namespaces/inkscape" xmlns:rdf="http://www.w3.org/1999/02/22-rdf-syntax-ns#" xmlns:sodipodi="http://sodipodi.sourceforge.net/DTD/sodipodi-0.dtd" xmlns:svg="http://www.w3.org/2000/svg"
	 xmlns="http://www.w3.org/2000/svg" xmlns:xlink="http://www.w3.org/1999/xlink" x="0px" y="0px" viewBox="0 0 400 400"
	 style="enable-background:new 0 0 400 400;" xml:space="preserve">
<path d="M337.3,195.9c0.3-1.1,0.2-2.4-0.2-3.1l-3.7-4.9c-0.4-0.5-0.8-1-1.2-1.5c-0.1-0.1-0.2-0.2-0.2-0.2c-0.4-0.4-0.8-0.7-1.2-1.1
	c-10-10.6-10.1-24.7-1.9-41c0.9-1.7,0.5-3.8-0.8-5.1l-45.6-45.2c-1-1-1-2.6,0-3.7l41.1-42.3c1-1.1,1.6-2.5,1.6-4V28.2
	c0-1.3-0.4-2.5-1.2-3.5l-3.3-4.2c-1.1-1.4-2.7-2.2-4.5-2.2h-84.9c-1.6,0-3.1,0.6-4.1,1.8l-4,4.3c-1,1.1-1.5,2.4-1.5,3.9v2.9
	c0,0.5-0.6,0.7-0.9,0.4l-20.9-21.1c-1.7-1.7-4.5-1.7-6.2-0.1l-12.9,12.5c-0.5,0.5-1.4,0.5-1.9,0l-2.7-2.8c-1.1-1.1-2.6-1.7-4.1-1.7
	H89.8c-2.8,0-5.6,1.2-7.4,3.4l-1.7,2c-1.5,1.8-2.4,4.1-2.4,6.4v12.9c0,2.7,1.1,5.2,3,7l0.6,0.5c1.9,1.8,4.4,3,7,3
	c1.5,0,2.7,1.2,2.7,2.6v50.5c0,2.8-1.1,5.4-3,7.4l-24.7,24.7c-1.7,1.7-1.7,4.5,0,6.2l24.4,24.4c2.1,2.1,3.3,5,3.3,8v61.3
	c0,2.8,1.5,5.3,3.9,6.7l4.8,2.7c1.8,1,3.8,1.5,5.9,1.5h17.3c3.3,0,6.4-1.3,8.7-3.7l14.6-15.3c1-1.1,2.7-1.1,3.7,0l31.8,31.8
	c5.1,5.1,8.8,11.4,10.5,18.3c7.8,31.2-15.5,69.8,3.3,69.8c22.3,0.4-7-43.4,9.7-80.3c2.1-4.6,5-8.7,8.5-12.2l13.4-13.4
	c0.1-0.1,0.4-0.1,0.5,0.1c0.3,0.5,1,0.7,2.7,0.7h20.7c1.3,0,2.3-0.2,2.6-1.3l1.5-4.4c0.4-1.5-0.2-3.1-1.8-3.1l-1.5,0
	c-0.1,0-0.2-0.1-0.2-0.3l6.9-21.8c0.3-1,0.8-1.8,1.6-2.6l2.8-2.8c0.8-0.8,1.8-1.2,2.9-1.2h7.7c0.8,0,1.4,0.8,1.1,1.5L264.8,243
	c-0.4,1.5,1.2,2.6,2.9,2.6h20c1.1,0,2.2-0.2,2.6-1.3l1.8-4c0.7-1.5-0.3-3.5-1.5-3.5h-1.5c-0.2,0-0.4-0.2-0.3-0.4l8.9-27.4
	c0.2-0.5,0.6-0.8,1.1-0.8h11c0.8,0,1.4,0.8,1.1,1.5l-10.7,33.5c-0.4,1.5,1,2.2,2.9,2.2h22c1.1,0,2.2-0.2,2.6-1.3l1.8-4.4
	c0.7-1.5-0.6-3.1-1.7-3.1c-1.1,0-2.3,0-2.3,0c-0.2,0-0.4-0.2-0.3-0.4L337.3,195.9z M91.5,166c0,0.9-1.1,1.4-1.8,0.7L68,145
	c-1.7-1.7-1.7-4.5,0-6.2l21.7-21.7c0.7-0.7,1.8-0.2,1.8,0.7V166z M178.2,52.1l2.5-3.9c0.7-1.1,1-2.3,1-3.5V27.3
	c0-0.2-0.1-0.5-0.2-0.7c-0.1-0.2-0.1-0.5,0.1-0.6l11.8-11.4c1.7-1.7,4.5-1.7,6.2,0l20.5,20.5c0.8,0.8,1.3,1.9,1.3,3.1v6.2
	c0,1.5,0.5,3,1.5,4.2l5,6c0.6,0.8,1.6,1.2,2.6,1.2c0.7,0,1.1,0.9,0.5,1.4l-20,19.3l0-0.1c-14.1,11-27.4,5.3-33.2-4.2
	C174.1,66,174.3,58.2,178.2,52.1z M168.6,97.6c0-1.5,0.7-2.9,1.9-3.8c4.2-3.1,8.6,4.9,7.2,12.4c-0.4,2-1.3,3.7-2.8,5.1l-5.3,5.1
	c-0.4,0.4-1,0.1-1-0.4V97.6z M216.1,251.6L196.7,271c-0.6,0.6-1.5,0.5-2-0.2c-6.5-9-1.3-22.2,20.9-23.2
	C217.5,247.6,217.8,249.5,216.1,251.6z M281,186.3c-0.4,0.2-0.7,0.5-1,0.7l-4.1,4.7c-0.3,0.4-0.8,0.6-1.3,0.6h-4.9
	c-0.5,0-0.9-0.2-1.2-0.5l-4.3-4.7c-0.8-0.8-1.3-1.3-2.2-1.3h-19.4c-1.3,0-2.4,0.9-2.9,2.2l-1.8,5.5c-0.3,0.9-0.1,1.8,0.3,2.4
	c0.5,0.7,1.3,1.1,2.2,1.1h1.6c0.4,0,0.7,0.4,0.6,0.8L229.5,237c-0.4,1.1-1,2-1.7,2.8l-2.2,2.2c-2.1,1.8-4.8,1.7-3.6-2.1
	c0.7-1.5-0.6-3.5-2.6-3.5h-1.9c-0.4,0-0.7-0.4-0.5-0.7l15.6-45.7c0.4-1.5-0.2-3.3-1.8-3.7c-0.6-0.1-1.2-0.2-1.8-0.2l-25.2,0
	c-1,0-1.9,0.5-2.4,1.3c-0.2,0.3-0.3,0.6-0.3,0.9l-1.5,5.5c-0.4,1.5,0.9,3.1,2.9,3.1h3c0.5,0,0.8,0.5,0.6,0.9l-14.5,41.5
	c-0.6,1.7-1.4,3.2-2.4,4.7c-5.3,7.4-10.1,9.7-18.4,2.8l-17.7-17.9c-1.3-1.4-1.3-3.5,0-4.9l57.7-59.3c0.6-0.7,1.4-1.2,2.2-1.5
	c3.7-1.5,3.3,3,2,8.6c-0.4,1.1-0.2,2.4,0.7,3.3l2.9,3.1c0.4,0.4,1.3,1.1,2,1.1H232c0.7,0,1.5-0.7,2-1.1l3.1-3.3
	c0.4-0.4,0.5-0.7,0.6-1.1c0.1-0.2,0.1-0.5,0.2-0.7l3.2-10.8c0.2-1.1,0-2.2-0.7-2.9l-2.4-2c-5.4-3.8-5.8-8.6-3.6-14.3
	c1.2-3.2,3.2-6.2,5.6-8.7l25.7-26.4c1.1-1.2,2.6-2,4.2-2.2c15.5-2.5-10.3,53.9,10.7,56c22.1-1.9-5.2-62.5,12.6-52.8
	c1.4,0.8,2.6,1.7,3.7,2.8l26.4,26.5c1.7,1.7,1.7,4.5,0,6.2L283,184.8C282.4,185.4,281.7,185.9,281,186.3z M312.5,186.7
	c-0.8,1.3-1.7,2.6-2.7,3.8l-1.1,1.3c-0.3,0.3-0.6,0.5-1.1,0.5H302c-0.4,0-0.8-0.2-1-0.5l-4.2-4.8c-0.6-0.7-1.3-1.3-2.2-1.3h-7.8
	c-0.4,0-0.5-0.4-0.3-0.7l7.5-7.5c1.6-1.6,3.4-3.2,5.3-4.5C314.2,162.6,320,174.1,312.5,186.7z"/>
</svg>
