<?xml version="1.0" encoding="utf-8"?>
<!-- Generator: Adobe Illustrator 23.0.1, SVG Export Plug-In . SVG Version: 6.00 Build 0)  -->
<svg version="1.1"
	 id="svg6" inkscape:version="0.92.1 r15371" sodipodi:docname="vim.svg" xmlns:cc="http://creativecommons.org/ns#" xmlns:dc="http://purl.org/dc/elements/1.1/" xmlns:inkscape="http://www.inkscape.org/namespaces/inkscape" xmlns:rdf="http://www.w3.org/1999/02/22-rdf-syntax-ns#" xmlns:sodipodi="http://sodipodi.sourceforge.net/DTD/sodipodi-0.dtd" xmlns:svg="http://www.w3.org/2000/svg"
	 xmlns="http://www.w3.org/2000/svg" xmlns:xlink="http://www.w3.org/1999/xlink" x="0px" y="0px" viewBox="0 0 400 400"
	 style="enable-background:new 0 0 400 400;" xml:space="preserve">
<sodipodi:namedview  bordercolor="#666666" borderopacity="1" fit-margin-bottom="50" fit-margin-left="0" fit-margin-right="0" fit-margin-top="0" gridtolerance="10" guidetolerance="10" id="namedview8" inkscape:current-layer="svg6" inkscape:cx="111.16379" inkscape:cy="92.353977" inkscape:pageopacity="0" inkscape:pageshadow="2" inkscape:window-height="705" inkscape:window-maximized="1" inkscape:window-width="1366" inkscape:window-x="-8" inkscape:window-y="245" inkscape:zoom="2.6074563" objecttolerance="10" pagecolor="#ffffff" showgrid="false">
	</sodipodi:namedview>
<path d="M356.9,218.3c0.4-1.3,0.3-2.8-0.3-3.5l-4.2-5.6c-0.4-0.6-0.9-1.1-1.4-1.7c-0.1-0.1-0.2-0.2-0.3-0.3
	c-0.5-0.4-0.9-0.8-1.4-1.3c-11.4-12.1-11.6-28.2-2.2-46.9c1-2,0.6-4.3-0.9-5.9l-52.1-51.7c-1.2-1.2-1.2-3,0-4.2L341,49
	c1.2-1.2,1.8-2.8,1.8-4.5V26.7c0-1.4-0.5-2.8-1.4-4l-3.7-4.8c-1.2-1.6-3.1-2.5-5.1-2.5h-97c-1.8,0-3.5,0.7-4.7,2l-4.6,4.9
	c-1.1,1.2-1.8,2.8-1.8,4.5v3.3c0,0.5-0.6,0.8-1,0.4L199.6,6.4c-1.9-2-5.1-2-7.1-0.1l-14.7,14.3c-0.6,0.6-1.6,0.6-2.1,0l-3.1-3.2
	c-1.2-1.3-2.9-2-4.7-2H74.1c-3.3,0-6.3,1.4-8.5,3.9l-2,2.3c-1.8,2-2.7,4.6-2.7,7.3v14.7c0,3,1.2,5.9,3.4,8.1l0.6,0.6
	c2.2,2.1,5,3.4,8,3.4c1.7,0,3,1.3,3,3v57.8c0,3.2-1.3,6.2-3.5,8.4l-28.2,28.2c-2,2-2,5.2,0,7.1l27.9,27.9c2.4,2.4,3.8,5.7,3.8,9.1
	v70.1c0,3.2,1.7,6.1,4.5,7.7L86,278c2,1.1,4.4,1.7,6.7,1.7h19.8c3.8,0,7.3-1.5,9.9-4.2l16.7-17.5c1.2-1.2,3.1-1.2,4.3,0l36.4,36.4
	c5.8,5.8,10,13,12,20.9c8.9,35.7-17.8,79.8,3.8,79.8c25.5,0.4-8-49.6,11.1-91.8c2.4-5.2,5.7-9.9,9.8-14l15.3-15.3
	c0.2-0.2,0.5-0.1,0.6,0.1c0.4,0.6,1.2,0.8,3.1,0.8H259c1.5,0,2.6-0.2,3-1.5l1.8-5c0.5-1.8-0.3-3.5-2-3.5l-1.7,0
	c-0.2,0-0.3-0.2-0.2-0.3l7.9-24.9c0.4-1.1,1-2.1,1.8-2.9l3.2-3.2c0.9-0.9,2.1-1.4,3.3-1.4h8.8c0.9,0,1.6,0.9,1.3,1.8l-12,38.3
	c-0.5,1.8,1.4,3,3.3,3h22.9c1.3,0,2.5-0.3,3-1.5l2-4.5c0.8-1.8-0.4-4-1.8-4h-1.8c-0.2,0-0.4-0.2-0.3-0.5l10.1-31.3
	c0.2-0.6,0.7-0.9,1.3-0.9h12.5c0.9,0,1.6,0.9,1.3,1.8l-12.3,38.3c-0.5,1.8,1.2,2.5,3.3,2.5h25.2c1.3,0,2.5-0.3,3-1.5l2-5
	c0.8-1.8-0.7-3.5-1.9-3.5s-2.6,0-2.6,0c-0.2,0-0.4-0.2-0.3-0.5L356.9,218.3z M76,184.2c0,1.1-1.3,1.6-2.1,0.9l-24.8-24.8
	c-2-2-2-5.2,0-7.1l24.8-24.8c0.8-0.8,2.1-0.2,2.1,0.9V184.2z M175.1,54l2.9-4.5c0.8-1.2,1.2-2.6,1.2-4.1V25.7c0-0.3-0.1-0.5-0.2-0.8
	c-0.2-0.2-0.1-0.5,0.1-0.7l13.5-13.1c2-1.9,5.1-1.9,7.1,0.1l23.5,23.5c0.9,0.9,1.5,2.2,1.5,3.5v7.1c0,1.7,0.6,3.4,1.7,4.8l5.7,6.9
	c0.7,0.9,1.8,1.4,2.9,1.4c0.8,0,1.2,1,0.6,1.5l-22.9,22.1l0-0.1c-16.2,12.6-31.3,6.1-38-4.8C170.4,69.9,170.7,60.9,175.1,54z
	 M164.1,105.9c0-1.7,0.8-3.3,2.2-4.3c4.8-3.5,9.8,5.6,8.3,14.2c-0.4,2.2-1.5,4.3-3.2,5.9l-6.1,5.9c-0.4,0.4-1.2,0.1-1.2-0.5V105.9z
	 M218.4,282l-22.1,22.2c-0.7,0.7-1.8,0.6-2.3-0.2c-7.4-10.3-1.5-25.4,23.9-26.6C220,277.4,220.3,279.6,218.4,282z M292.6,207.4
	c-0.4,0.2-0.8,0.5-1.1,0.9l-4.7,5.4c-0.4,0.4-0.9,0.7-1.5,0.7h-5.6c-0.5,0-1.1-0.2-1.4-0.6l-5-5.4c-0.9-0.9-1.5-1.5-2.5-1.5h-22.2
	c-1.5,0-2.8,1-3.3,2.5l-2,6.3c-0.3,1.1-0.2,2,0.4,2.8c0.6,0.8,1.5,1.2,2.5,1.2h1.8c0.5,0,0.9,0.5,0.7,1l-15.2,44.8
	c-0.4,1.2-1.1,2.3-2,3.2l-2.5,2.5c-2.4,2-5.5,1.9-4.2-2.4c0.8-1.8-0.7-4-3-4h-2.1c-0.4,0-0.7-0.4-0.6-0.8l17.8-52.3
	c0.5-1.8-0.3-3.8-2-4.3c-0.7-0.2-1.4-0.3-2-0.3l-28.8,0c-1.1,0-2.2,0.6-2.8,1.5c-0.2,0.3-0.3,0.6-0.4,1l-1.8,6.3
	c-0.5,1.8,1,3.5,3.3,3.5h3.4c0.5,0,0.9,0.5,0.7,1l-16.6,47.5c-0.7,1.9-1.6,3.7-2.8,5.3c-6.1,8.5-11.5,11.1-21.1,3.2l-20.2-20.5
	c-1.5-1.5-1.5-4,0-5.6l65.9-67.7c0.7-0.7,1.6-1.4,2.6-1.7c4.2-1.7,3.8,3.4,2.3,9.9c-0.5,1.3-0.3,2.8,0.8,3.8l3.3,3.5
	c0.5,0.5,1.5,1.3,2.3,1.3h13.3c0.8,0,1.8-0.8,2.3-1.3l3.5-3.8c0.4-0.4,0.6-0.8,0.7-1.2c0.1-0.3,0.1-0.5,0.2-0.8l3.6-12.3
	c0.3-1.3,0-2.5-0.8-3.3l-2.8-2.3c-6.1-4.3-6.6-9.8-4.1-16.3c1.4-3.7,3.6-7.1,6.4-9.9l29.4-30.2c1.3-1.3,2.9-2.2,4.7-2.5
	c17.7-2.9-11.7,61.6,12.2,64c25.3-2.2-6-71.5,14.4-60.3c1.6,0.9,3,2,4.3,3.2l30.2,30.3c2,2,2,5.2,0,7.1l-45.9,45.9
	C294.2,206.3,293.4,206.9,292.6,207.4z M328.6,207.8c-0.9,1.5-2,3-3.1,4.4l-1.3,1.5c-0.3,0.4-0.7,0.6-1.2,0.6h-6.4
	c-0.5,0-0.9-0.2-1.2-0.5l-4.8-5.5c-0.7-0.7-1.5-1.5-2.5-1.5h-9c-0.4,0-0.6-0.5-0.3-0.8l8.6-8.6c1.9-1.9,3.9-3.6,6.1-5.2
	C330.5,180.2,337.2,193.4,328.6,207.8z"/>
</svg>
