<?xml version="1.0" encoding="utf-8"?>
<!-- Generator: Adobe Illustrator 23.0.6, SVG Export Plug-In . SVG Version: 6.00 Build 0)  -->
<svg version="1.1" id="Layer_1" xmlns="http://www.w3.org/2000/svg" xmlns:xlink="http://www.w3.org/1999/xlink" x="0px" y="0px"
	 viewBox="0 0 400 400" enable-background="new 0 0 400 400" xml:space="preserve">
<g>
	<path d="M201.8,152.5c0.4,0,0.7-0.4,0.7-0.8c0-1,0-2.1,0-3.1c-0.2-22.2-0.3-44.4-0.6-66.6c0-3.8,1.2-4.6,4.5-3
		c12.5,6.1,24.9,12.4,37.5,18.4c30.5,14.4,61,28.5,91.5,42.8c0.4,0.2,0.7,0.4,1.1,0.6c1.1,0.7,1.3,2.1,0.5,3.1c-0.3,0.4-0.6,0.7-1,1
		c-9.8,7.2-12.4,15.6-9.1,27.3c1,3.7,1.6,7.8,1.2,11.6c-0.6,4.6-4.9,7.4-9.1,6.9c-4.1-0.4-7-3.8-7.2-8.6c-0.1-2.7,0.9-5.6,0.4-8.2
		c-0.4-2.2-1.3-4.7-3.7-5c-2-0.3-4.9,0.6-6.2,2.4c-1.5,2-1.7,5.1-2,7.8c-0.6,5.9-3,9-6.8,8.4c-3.8-0.6-4.8-4.2-3.7-10.1
		c0.5-2.6,0.6-6.5-0.9-8.1c-2.3-2.5-5.9-1.6-9.2,0.1c-10.2,5.1-20.5,10-30.6,15c-9.9,4.9-16,19.1-12.9,29.6c0.8,2.7,1.6,5.5,1.9,8.4
		c0.4,3.7-0.8,6.9-4.8,8c-4.1,1.1-7.4-0.6-9.1-4.2c-1.2-2.4-1.5-5.2-1.8-7.9c-0.3-2.8,0.1-5.8-0.2-8.6c-0.6-6-5.4-8.7-10.9-6.3
		c-11.1,4.9-8.9,3.8-9.3-5.8c-0.5-12.5-2.1-24.7-7.7-36c-0.7-1.3-1.4-2.6-2.2-3.9c-4.1-6.5-7.5-10.4-17.9-5.5
		c-21.3,10-42.9,19.4-64.2,29.2c-10.1,4.7-16.3,19.1-13.1,29.8c0.8,2.7,1.6,5.5,1.9,8.4c0.4,3.6-0.9,6.7-4.6,7.9
		c-4,1.3-7.4-0.4-9.2-3.9c-1.3-2.4-1.6-5.4-2-8.2c-0.3-2.8,0.1-5.8-0.2-8.6c-0.6-6-5.5-8.7-10.9-6.2c-10.8,4.8-9.2,4-9.2-5.7
		c-0.1-37.6-0.1-75.2,0-112.7c0-7.9,0.3-8.2,7.6-4.6c21.2,10.4,42.2,21.2,63.6,31.4c19.9,9.5,40.1,18.6,60.3,27.4
		c4.2,1.8,5.9,3.6,5.6,8.1c-0.2,2.5,0.8,5,1.3,7.5C201.1,152.3,201.4,152.5,201.8,152.5L201.8,152.5z"/>
</g>
</svg>
