<?xml version="1.0" encoding="utf-8"?>
<!-- Generator: Adobe Illustrator 22.1.0, SVG Export Plug-In . SVG Version: 6.00 Build 0)  -->
<!DOCTYPE svg PUBLIC "-//W3C//DTD SVG 1.1//EN" "http://www.w3.org/Graphics/SVG/1.1/DTD/svg11.dtd">
<svg version="1.1" id="Layer_1" xmlns="http://www.w3.org/2000/svg" xmlns:xlink="http://www.w3.org/1999/xlink" x="0px" y="0px"
	 viewBox="0 0 400 400" style="enable-background:new 0 0 400 400;" xml:space="preserve">
<g>
	<path d="M202.6,199.4c0.6-0.1,1-0.5,1-1.1c0-1.5,0-3,0-4.4c-0.2-31.4-0.4-62.7-0.8-94.1c-0.1-5.3,1.7-6.5,6.3-4.2
		c17.6,8.7,35.1,17.6,52.9,25.9c43,20.3,86.1,40.3,129.2,60.4c0.5,0.2,1,0.5,1.5,0.8c1.5,0.9,1.9,3,0.7,4.4c-0.4,0.5-0.9,1-1.4,1.4
		c-13.8,10.2-17.5,22-12.9,38.6c1.5,5.2,2.3,11.1,1.7,16.4c-0.8,6.5-7,10.4-12.8,9.8c-5.7-0.6-9.9-5.4-10.1-12.2
		c-0.1-3.9,1.2-7.9,0.5-11.6c-0.6-3.1-1.8-6.6-5.2-7.1c-2.8-0.4-7,0.9-8.8,3.4c-2.1,2.9-2.4,7.3-2.8,11.1
		c-0.9,8.3-4.3,12.7-9.5,11.8c-5.3-0.9-6.7-6-5.2-14.3c0.7-3.7,0.8-9.1-1.3-11.4c-3.3-3.6-8.4-2.2-13,0.1
		c-14.3,7.2-28.9,14.1-43.3,21.2c-14,6.9-22.6,26.9-18.2,41.8c1.1,3.9,2.3,7.8,2.7,11.8c0.6,5.3-1.1,9.8-6.8,11.3
		c-5.7,1.6-10.4-0.8-12.9-5.9c-1.7-3.4-2.2-7.4-2.6-11.2c-0.4-4,0.1-8.1-0.3-12.1c-0.8-8.5-7.6-12.2-15.4-8.9
		c-15.7,6.8-12.6,5.4-13.1-8.1c-0.7-17.6-3-34.8-10.8-50.9c-0.9-1.9-2-3.7-3.1-5.5c-5.8-9.1-10.5-14.7-25.3-7.8
		c-30,14.1-60.5,27.4-90.6,41.3c-14.3,6.6-22.9,26.9-18.5,42.1c1.1,3.9,2.2,7.8,2.7,11.8c0.6,5.1-1.2,9.5-6.4,11.1
		c-5.7,1.8-10.5-0.5-13.1-5.5c-1.8-3.4-2.3-7.7-2.8-11.6c-0.5-4,0.1-8.1-0.3-12.1c-0.8-8.5-7.7-12.3-15.4-8.8
		c-15.2,6.8-13,5.6-13-8.1C5.9,205.9,6,152.9,6,99.8c0-11.1,0.5-11.5,10.8-6.5c29.9,14.7,59.6,30,89.7,44.4
		c28.1,13.4,56.5,26.3,85.1,38.7c6,2.6,8.4,5.1,7.9,11.5c-0.2,3.5,1.1,7.1,1.9,10.7C201.5,199.1,202,199.5,202.6,199.4L202.6,199.4z
		"/>
</g>
</svg>
