<?xml version="1.0" encoding="utf-8"?>
<!-- Generator: Adobe Illustrator 22.0.0, SVG Export Plug-In . SVG Version: 6.00 Build 0)  -->
<!DOCTYPE svg PUBLIC "-//W3C//DTD SVG 1.1//EN" "http://www.w3.org/Graphics/SVG/1.1/DTD/svg11.dtd">
<svg version="1.1" id="Layer_1" xmlns="http://www.w3.org/2000/svg" xmlns:xlink="http://www.w3.org/1999/xlink" x="0px" y="0px"
	 viewBox="0 0 400 400" enable-background="new 0 0 400 400" xml:space="preserve">
<g>
	<path d="M359.9,172.8c-0.2,38.8-13.3,72.7-37.5,103c-12.2,15.3-19.5,33-17.5,53.3c0.6,5.6,2.1,11.1,3,16.6c1.4,8.7,1.3,17.3-2,25.6
		c-5.1,12.9-19.3,19.2-32.4,14.3c-8.7-3.2-13.7-10.3-13.4-19.7c0.1-4.1,1-8.1,1.7-12.2c2.6-15-3.7-23.4-19-23.6
		c-10.6-0.2-21.2,1.1-31.9,1.6c-54.5,2.6-99.8-16.6-134.3-58.7C42.9,232,32.3,184.3,45.7,133.2c16.2-61.3,56.4-100.8,118.2-116
		c64.4-15.7,129.2,9.8,167.4,63.8C350.1,107.6,359.9,139.2,359.9,172.8z M174.8,97.4c-11.4,0-31.5,0.6-46.8,2.6
		c-10.4,1.3-20.6,4.1-30.7,6.7c-7,1.8-10.9,8-10.7,15.2c0.1,7,4.4,12.3,11.2,14.5c4,1.3,7.5,0.1,11.1-0.9
		c17.1-4.7,34.6-6.8,52.3-7.5c18.6-0.8,37.1,0.2,55.5,2.7c1.6,0.2,4.5,0.2,7-1.1c6.9-3.1,9.8-6.9,11-14.7
		c1.1-7.1-3.7-13.6-10.8-14.3C207.4,98.8,186.3,97.4,174.8,97.4z M171.4,152c-5.2,0-10.3,0.1-15.5,0c-1.6,0-3.1,0.4-4.4,1.8
		c-5,4.5-8.5,8.2-9,15.4c-0.4,5.6,4.1,9.6,9.6,9.2c3.9-0.3,7.9-0.4,11.8-0.5c32.4-0.9,63.6,4.6,93.2,18.2c5.7,2.6,11,5.9,16.6,8.6
		c8.5,4.1,17.5-1.8,17.6-11.2c0-5.5-2.2-9.9-7.1-12.4c-9-4.7-18-9.6-27.4-13.4C229.6,156.7,200.9,151.8,171.4,152z M169.3,204
		c-5.8,0-18.8,0.6-28.2,1.8c-9.3,1.2-18.6,3.1-27.8,5c-5.7,1.1-8.4,4.1-9.1,8.9c-1.2,8.1,5.1,13.4,14,11.4c21.2-4.7,42.6-7,64.3-6.2
		c5.5,0.2,11.5-4.9,11.6-9.5c0-5-4.6-10.7-9.6-11C179.4,204,175.1,204,169.3,204z M314,140c-0.1-3.8-2-8.6-6.8-11.4
		c-5.7-3.4-11.7-6.5-17.7-9.3c-1.7-0.8-4.2-0.8-6.1-0.3c-6,1.6-9.7,5.8-10.3,12c-0.7,7,0.9,13.5,7,17.7c4,2.7,8.5,4.8,12.9,6.8
		C303.2,160,314,152.9,314,140z M271.7,236.4c0.1-3.2-2.5-6.5-6.7-8.9c-11.4-6.5-23.2-12.1-35.9-15.6c-5.4-1.5-9.2,0.6-9,6.3
		c0.2,4.2,0,8.5,2.8,12.5c0.4,0.6,1.7,1.5,2.5,1.8c10.7,5,21.5,10,32.3,14.8C264.4,250.4,271.7,245.6,271.7,236.4z M120.3,171.7
		c-0.1-6.6-5.1-10.9-12.6-10.9c-5.7,0.1-10.5,5.9-10.3,12.8c0.1,6.4,5.5,12.3,11.2,12.3C114.3,185.9,120.4,178.5,120.3,171.7z"/>
</g>
</svg>
