<?xml version="1.0" encoding="utf-8"?>
<!-- Generator: Adobe Illustrator 23.0.6, SVG Export Plug-In . SVG Version: 6.00 Build 0)  -->
<svg version="1.1" id="Layer_1" xmlns="http://www.w3.org/2000/svg" xmlns:xlink="http://www.w3.org/1999/xlink" x="0px" y="0px"
	 viewBox="0 0 400 400" style="enable-background:new 0 0 400 400;" xml:space="preserve">
<path d="M337.7,142.9c-0.1,33.4-11.5,62.6-32.3,88.7c-10.5,13.2-16.8,28.4-15.1,45.9c0.5,4.8,1.8,9.5,2.6,14.3
	c1.2,7.5,1.1,14.9-1.7,22.1c-4.4,11.1-16.6,16.5-27.9,12.3c-7.5-2.8-11.8-8.9-11.6-16.9c0.1-3.5,0.8-7,1.4-10.5
	c2.2-12.9-3.2-20.1-16.4-20.3c-9.1-0.2-18.3,1-27.4,1.4c-46.9,2.2-86-14.3-115.7-50.6c-29-35.4-38.1-76.5-26.5-120.5
	C81.1,56,115.7,22,168.9,9c55.5-13.6,111.3,8.5,144.1,54.9C329.2,86.8,337.7,114,337.7,142.9z M178.3,78c-9.8,0-27.1,0.5-40.3,2.3
	c-8.9,1.2-17.7,3.5-26.4,5.8c-6,1.6-9.4,6.9-9.3,13.1c0.1,6,3.8,10.6,9.6,12.5c3.4,1.1,6.5,0,9.6-0.8c14.7-4,29.8-5.8,45-6.5
	c16-0.7,32,0.1,47.8,2.4c1.4,0.2,3.9,0.2,6.1-1c5.9-2.6,8.4-6,9.5-12.7c1-6.1-3.2-11.7-9.3-12.3C206.4,79.2,188.2,78,178.3,78z
	 M175.4,125c-4.5,0-8.9,0.1-13.4,0c-1.4,0-2.6,0.4-3.8,1.6c-4.3,3.9-7.3,7-7.7,13.3c-0.3,4.8,3.6,8.3,8.3,7.9
	c3.4-0.3,6.8-0.4,10.2-0.4c27.9-0.8,54.8,4,80.2,15.7c4.9,2.2,9.5,5.1,14.3,7.4c7.3,3.5,15.1-1.6,15.2-9.6c0-4.8-1.9-8.5-6.1-10.7
	c-7.8-4-15.5-8.3-23.6-11.5C225.5,129,200.8,124.8,175.4,125z M173.5,169.8c-5,0-16.2,0.5-24.3,1.6c-8,1-16,2.7-23.9,4.3
	c-4.9,1-7.2,3.5-7.8,7.6c-1,7,4.4,11.6,12,9.9c18.2-4.1,36.7-6,55.3-5.4c4.7,0.2,9.9-4.2,10-8.2c0-4.3-4-9.2-8.2-9.5
	C182.3,169.8,178.6,169.8,173.5,169.8z M298.2,114.6c0-3.3-1.7-7.4-5.9-9.9c-4.9-2.9-10.1-5.6-15.3-8c-1.5-0.7-3.6-0.7-5.3-0.3
	c-5.2,1.4-8.3,5-8.9,10.3c-0.6,6,0.8,11.6,6,15.3c3.4,2.4,7.3,4.1,11.1,5.8C288.9,131.9,298.1,125.7,298.2,114.6z M261.8,197.7
	c0.1-2.8-2.2-5.6-5.7-7.6c-9.8-5.6-20-10.4-30.9-13.5c-4.6-1.3-7.9,0.6-7.8,5.4c0.1,3.7,0,7.3,2.4,10.8c0.4,0.5,1.5,1.2,2.1,1.6
	c9.2,4.3,18.5,8.6,27.8,12.8C255.5,209.8,261.7,205.6,261.8,197.7z M131.4,141.9c-0.1-5.7-4.4-9.4-10.8-9.4c-4.9,0-9,5.1-8.9,11
	c0.1,5.5,4.7,10.6,9.6,10.6C126.2,154.2,131.4,147.8,131.4,141.9z"/>
</svg>
