<?xml version="1.0" encoding="utf-8"?>
<!-- Generator: Adobe Illustrator 22.1.0, SVG Export Plug-In . SVG Version: 6.00 Build 0)  -->
<!DOCTYPE svg PUBLIC "-//W3C//DTD SVG 1.1//EN" "http://www.w3.org/Graphics/SVG/1.1/DTD/svg11.dtd">
<svg version="1.1" id="Layer_1" xmlns="http://www.w3.org/2000/svg" xmlns:xlink="http://www.w3.org/1999/xlink" x="0px" y="0px"
	 viewBox="0 0 400 400" enable-background="new 0 0 400 400" xml:space="preserve">
<g>
	<path d="M333.6,274.3c-0.4,2.2-0.1,3,1,4.4c4.8,6.1,7.5,12.9,7.2,20.8c-0.3,7.9,3.7,13.2,10.2,17c2.6,1.5,5.3,2.8,8,4.1
		c5.4,2.8,7.5,6,8.2,11.5c0.7,4.8-0.9,7.5-2.5,10.2c-2.8,4.7-7,7.8-11.5,10.4c-10.3,5.9-20.8,11.5-31,17.4c-8.6,5-17,10.4-24.3,17.4
		c-9.2,8.7-20.3,11.3-32.6,8.6c-7.5-1.7-12.8-6.6-16.8-12.9c-1.4-2.2-3-3.3-5.5-3.8c-13.8-2.9-27.7-3.9-41.7-3.4
		c-12.4,0.5-24.7,1.7-36.8,4.5c-1.3,0.3-3,1-3.7,2c-7.3,10.9-17.7,13.5-29.9,11.3c-12-2.1-23.3-6.7-34.6-10.8
		c-11.5-4.2-23.3-6.4-35.3-8.4c-6-1-11.9-2.6-17.8-4.4c-2.5-0.7-4.8-2.2-6.9-3.7c-4.8-3.5-6.8-8.2-5.2-14.1c0.9-3.4,1.8-6.8,3-10
		c2.9-7.4,3-14.8,0.5-22.4c-0.8-2.4-1.3-4.9-1.4-7.3c-0.3-8.3,4.4-14.4,12.7-16.7c4.1-1.1,8.2-2.1,12.3-3.2
		c7.7-2,13.7-6.2,17.3-13.7c1.4-2.9,3.6-5.4,5.8-7.7c1.2-1.3,1.8-2.4,1.4-4.3c-1.7-8.3,0.2-18.2,3.1-26.4c2.9-8.2,6.1-15,9.7-23.4
		c3.6-8.4,6.4-13.6,9.5-21.9c4.9-12.9,9.7-21.5,17.8-32.4c3.8-5.1,11-12.6,15.1-17.5c5-6,6.6-13.1,6.5-20.6
		c-0.1-10.9-0.5-21.7-1.1-32.6c-0.8-13.6-2.3-27.2-0.5-40.8c1.5-11.7,4.7-22.7,13.4-31.5c5.3-5.3,11.7-8.9,18.6-11.7
		c13.7-5.5,27.8-7,42.3-3.8c15.7,3.4,27.7,12.3,35.9,26c7.6,12.8,11.4,26.9,12.7,41.6c0.9,10.2,1,20.5,1.7,30.7
		c0.7,9.7,1.4,19.6,6.3,28.3c3.5,6.3,7.8,12.2,11.9,18.1c12.8,18.2,25.5,36.4,36.3,55.9c7.2,13,13.1,26.4,13.1,41.7
		c0,1.2,0.1,6.4-0.3,11.2C335.9,262.9,334,272.2,333.6,274.3z M274.7,247.5c-0.8-6.4-1.2-13.1-2.5-19.5
		c-2.8-13.8-8.1-26.8-13.3-39.7c-5.2-12.9-10.8-25.5-16.4-38.2c-3.2-7.2-6.8-14.2-10.3-21.2c-1.3-2.5-2.1-2.6-3.6-0.2
		c-1.5,2.4-2.8,5-3.7,7.7c-2,6-1.1,12.1-0.8,18.2c0.2,4.1,0.7,8.2,0.5,12.3c-0.2,3.2-0.8,6.5-1.9,9.5c-2.9,7.5-10.7,9.2-16.8,3.9
		c-1.5-1.3-2.7-2.9-4-4.5c-0.6-0.7-1-1.5-1.6-2.1c-0.1-0.1-0.3-0.3-0.5-0.4c-0.7-0.4-1.7-0.2-2.1,0.6c-0.1,0.2-0.2,0.4-0.2,0.6
		c-0.2,0.8-0.3,1.8-0.1,2.6c0.5,3.6,0.9,7.2,1.6,10.7c1.2,6.5,3.1,12.9,3.8,19.5c0.4,3.7-0.2,7.8-1.5,11.3c-4,11-17.4,14.1-26.1,6.3
		c-3.2-2.8-5.1-6.4-6.4-10.4c-2.3-7.6-2.4-15.3-0.4-23c2-7.9,4.6-15.6,6.7-23.4c1.9-7.3,1.2-14.5-3.1-20.8
		c-2.5-3.7-5.7-6.9-8.8-10.1c-2.4-2.5-2.8-2.3-3.5,1.1c-1.9,9.8-5.6,18.6-11.1,26.8c-0.8,1.2-2.7,4.1-3.5,5.4
		c-1.1,1.7-2.4,4.5-3.2,6.3c-2.6,6.5-3.9,9.9-6.3,16.4c-3.4,9.1-6.4,18.4-11.3,26.9c-6.8,11.9-9.4,24.9-8.9,38.5
		c0.3,8.7,3,16.4,10.5,22c2.5,1.9,5,3.9,7.3,6.1c8.3,7.8,17.5,14.5,25.6,22.4c7.3,7.2,6.1,18.3-1.6,23.5c-1.8,1.2-1.7,2.3-0.1,3.9
		c2.7,2.7,5.3,5.6,7.6,8.7c1.6,2.1,3.4,3.2,6,3.4c15.2,0.8,30.3,0.5,45-3.5c15-4.1,26.9-13.5,36.8-25.3c0.8-0.9,1-2.5,1-3.8
		c0.2-4.7,0-9.5,0.3-14.2c0.4-7,0.8-14,1.6-20.9c0.5-4.7,3.7-7.5,8.3-8.4c1.5-0.3,3-0.4,4.5-0.4c3.5,0,3.7,0,4.2-3.6
		C273.1,261.6,273.9,254.7,274.7,247.5z M87.5,296.8c0-0.6-0.8-0.9-1.1-0.4c-0.7,0.9-1.4,1.8-2.1,2.8c-2.5,3.9-6.2,6-10.5,7.1
		c-4.6,1.2-9.1,2.4-13.7,3.3c-6.3,1.3-7.3,3.1-6,9.4c0.8,3.9,1.4,7.9,1.3,11.8c-0.2,3.7-1.4,7.3-2.3,10.9c-0.6,2.3-1.5,4.5-2.1,6.7
		c-1.1,3.9-0.4,5.6,3.4,6.8c2,0.7,4.1,0.9,6.2,1.3c6,1.1,12,2.1,17.9,3.4c5.8,1.3,11.8,2.3,17.3,4.4c11.1,4.3,22.1,9,33.7,11.9
		c4.9,1.2,9.8,1.5,13.3-3.1c0.3-0.4,0.7-0.8,1-1.2c5.4-5.5,6.6-13.4,2.4-19.6c-5.1-7.5-10.6-14.7-16-21.9c-1.9-2.5-4.3-2.1-5.2,0.8
		c-0.7,2.2-0.6,4.7-1.3,7c-0.8,3-1.4,6.2-3.1,8.7c-3.3,4.7-9.6,4.1-12.3-1c-0.9-1.7-1.4-3.8-1.5-5.7c-0.2-2.7,0-5.5,0-8.2
		c0-1.9,0.1-3.7,0-5.6c-0.1-2-1.1-2.7-3-1.9c-0.6,0.2-1.2,0.4-1.8,0.6c-6.9,2.4-12.4-0.2-14.1-7.3c-0.8-3.3-0.3-6.9-0.4-10.4
		C87.5,303.7,87.6,300.2,87.5,296.8z M273.6,296.9c-0.6-2.8-1.4-3.6-1.4,0c0.1,1.2,0.1,2.3,0.2,3.5c0.5,8.3,1.8,16.7,0.4,25
		c-1.7,10.1-3.7,20.2-5.4,30.4c-1,6.3-0.5,12.4,3.6,17.7c2,2.6,4.4,4.3,7.9,4.1c5.5-0.3,9.7-3.1,13.1-7c6.6-7.6,10.8-16.4,13-26.2
		c1.6-7.4,1.9-14.9-1-22.1c-2-4.9-4.7-8.5-11.1-7.8c-5.3,0.6-10.2-1.4-14.1-5.4C275.5,305.6,274.6,301.2,273.6,296.9z M182.8,131.2
		c1.6,0.7,3.5,0.8,5.2,0.3c0.2-0.1,0.3-0.1,0.5-0.2c2.9-1.3,5.9-2.6,8.7-4.2c7-4,14-8,20.9-12.1c0.3-0.2,0.5-0.4,0.8-0.6
		c1-0.9,1.2-2.4,0.2-3.4c-0.3-0.3-0.6-0.6-0.9-0.9c-0.5-0.4-1.1-0.6-1.6-0.9c-7.7-3-15.5-6-23.2-9c-4.3-1.7-8.2-0.8-11.8,2.2
		c-3,2.5-6,4.8-9,7.2c-2.1,1.7-4.3,3.4-6.3,5.3c-0.5,0.5-1,2.1-0.1,3.3c1.1,1.5,1.5,2.3,3,3.4c4.1,3.2,8.4,6.1,12.7,9.1
		C182.2,130.9,182.5,131.1,182.8,131.2z M328.1,327.1c-0.6,1.6-0.9,3.4-0.6,5.1c0.8,4.6,2.5,7.4,6.3,8.6c1.1,0.3,3.4,0.7,5.2,0.1
		c3.3-1,5.4-2.4,8.3-4.4c1.4-0.9,1.9-2.6,0.4-3.8c-0.8-0.6-1.6-1.2-2.4-1.7c-4.3-2.9-9.4-4.6-13-8.7c-1.1-1.3-2-0.6-2.5,0.6
		C329.1,324.4,328.6,325.9,328.1,327.1z"/>
</g>
</svg>
