<?xml version="1.0" encoding="utf-8"?>
<!-- Generator: Adobe Illustrator 23.0.6, SVG Export Plug-In . SVG Version: 6.00 Build 0)  -->
<svg version="1.1" id="Layer_1" xmlns="http://www.w3.org/2000/svg" xmlns:xlink="http://www.w3.org/1999/xlink" x="0px" y="0px"
	 viewBox="0 0 400 400" style="enable-background:new 0 0 400 400;" xml:space="preserve">
<path d="M293.2,194.4c-0.3,1.5-0.1,2.1,0.7,3.1c3.3,4.2,5.2,9,5,14.5c-0.2,5.5,2.6,9.2,7.1,11.9c1.8,1,3.7,1.9,5.6,2.9
	c3.8,1.9,5.2,4.2,5.7,8c0.5,3.4-0.6,5.3-1.7,7.1c-2,3.3-4.9,5.4-8,7.2c-7.2,4.1-14.5,8-21.7,12.2c-6,3.5-11.9,7.3-17,12.1
	c-6.4,6.1-14.2,7.9-22.7,6c-5.3-1.2-8.9-4.6-11.7-9c-1-1.5-2.1-2.3-3.9-2.7c-9.6-2-19.3-2.7-29.1-2.4c-8.6,0.3-17.2,1.2-25.7,3.1
	c-0.9,0.2-2.1,0.7-2.6,1.4c-5.1,7.6-12.3,9.4-20.8,7.9c-8.4-1.5-16.2-4.6-24.2-7.5c-8-2.9-16.3-4.5-24.6-5.8
	c-4.2-0.7-8.3-1.8-12.4-3.1c-1.7-0.5-3.3-1.5-4.8-2.6c-3.3-2.4-4.8-5.7-3.7-9.8c0.6-2.4,1.2-4.7,2.1-7c2-5.2,2.1-10.3,0.4-15.6
	c-0.5-1.6-0.9-3.4-1-5.1c-0.2-5.8,3-10.1,8.9-11.7c2.9-0.8,5.7-1.5,8.6-2.2c5.4-1.4,9.6-4.3,12.1-9.5c1-2,2.5-3.7,4.1-5.4
	c0.9-0.9,1.3-1.7,1-3c-1.2-5.8,0.2-12.7,2.2-18.5c2-5.7,4.3-10.4,6.8-16.3c2.5-5.9,4.5-9.5,6.7-15.3c3.4-9,6.7-15,12.4-22.6
	c2.7-3.6,7.7-8.8,10.5-12.2c3.5-4.2,4.6-9.2,4.5-14.4c-0.1-7.6-0.3-15.2-0.7-22.7c-0.5-9.5-1.6-19-0.4-28.5
	c1.1-8.2,3.3-15.9,9.3-21.9c3.7-3.7,8.2-6.2,13-8.2c9.5-3.8,19.4-4.9,29.5-2.7c11,2.4,19.3,8.6,25.1,18.2c5.3,8.9,8,18.7,8.9,29
	c0.6,7.1,0.7,14.3,1.2,21.4c0.5,6.8,1,13.7,4.4,19.7c2.5,4.4,5.4,8.5,8.3,12.6c8.9,12.7,17.8,25.4,25.4,39c5,9.1,9.1,18.5,9.2,29.1
	c0,0.9,0.1,4.5-0.2,7.8C294.8,186.4,293.5,192.8,293.2,194.4z M252.1,175.6c-0.6-4.5-0.8-9.1-1.8-13.6c-2-9.6-5.7-18.7-9.3-27.7
	c-3.6-9-7.5-17.8-11.4-26.7c-2.2-5-4.7-9.9-7.2-14.8c-0.9-1.8-1.5-1.8-2.5-0.2c-1,1.7-2,3.5-2.6,5.4c-1.4,4.2-0.8,8.5-0.5,12.7
	c0.2,2.9,0.5,5.8,0.3,8.6c-0.1,2.2-0.5,4.5-1.3,6.6c-2.1,5.2-7.5,6.4-11.7,2.7c-1-0.9-1.9-2.1-2.8-3.1c-0.4-0.5-0.7-1-1.1-1.4
	c-0.1-0.1-0.2-0.2-0.3-0.3c-0.5-0.3-1.2-0.1-1.4,0.4c-0.1,0.1-0.1,0.3-0.2,0.4c-0.1,0.6-0.2,1.2-0.1,1.8c0.3,2.5,0.6,5,1.1,7.5
	c0.9,4.5,2.1,9,2.6,13.6c0.3,2.6-0.2,5.4-1.1,7.9c-2.8,7.7-12.1,9.8-18.2,4.4c-2.2-2-3.6-4.5-4.4-7.3c-1.6-5.3-1.7-10.7-0.3-16
	c1.4-5.5,3.2-10.9,4.7-16.3c1.3-5.1,0.9-10.1-2.2-14.5c-1.8-2.6-3.9-4.8-6.1-7.1c-1.7-1.7-2-1.6-2.4,0.8c-1.3,6.8-3.9,13-7.8,18.7
	c-0.6,0.9-1.9,2.9-2.5,3.8c-0.8,1.2-1.7,3.2-2.2,4.4c-1.8,4.5-2.7,6.9-4.4,11.4c-2.4,6.4-4.5,12.8-7.9,18.8
	c-4.7,8.3-6.6,17.4-6.2,26.9c0.2,6.1,2.1,11.5,7.3,15.4c1.8,1.3,3.5,2.7,5.1,4.3c5.8,5.4,12.2,10.1,17.9,15.7
	c5.1,5,4.3,12.8-1.1,16.4c-1.3,0.8-1.2,1.6,0,2.7c1.9,1.9,3.7,3.9,5.3,6.1c1.1,1.5,2.4,2.3,4.2,2.3c10.6,0.5,21.2,0.4,31.4-2.5
	c10.5-2.9,18.7-9.4,25.7-17.7c0.5-0.6,0.7-1.8,0.7-2.7c0.1-3.3,0-6.6,0.2-9.9c0.3-4.9,0.5-9.7,1.1-14.6c0.4-3.3,2.6-5.3,5.8-5.9
	c1-0.2,2.1-0.3,3.1-0.3c2.4,0,2.6,0,2.9-2.5C251,185.5,251.5,180.6,252.1,175.6z M121.5,210c0-0.4-0.5-0.6-0.8-0.3
	c-0.5,0.7-1,1.2-1.4,1.9c-1.7,2.7-4.3,4.2-7.3,5c-3.2,0.8-6.4,1.7-9.6,2.3c-4.4,0.9-5.1,2.2-4.2,6.5c0.6,2.7,1,5.5,0.9,8.2
	c-0.1,2.6-1,5.1-1.6,7.6c-0.4,1.6-1,3.1-1.5,4.7c-0.8,2.7-0.3,3.9,2.4,4.8c1.4,0.5,2.9,0.6,4.3,0.9c4.2,0.8,8.4,1.5,12.5,2.4
	c4,0.9,8.2,1.6,12,3.1c7.8,3,15.4,6.3,23.5,8.3c3.4,0.8,6.8,1.1,9.3-2.2c0.2-0.3,0.5-0.6,0.7-0.8c3.8-3.8,4.6-9.3,1.6-13.7
	c-3.5-5.2-7.4-10.2-11.2-15.3c-1.3-1.7-3-1.5-3.6,0.6c-0.5,1.6-0.4,3.3-0.9,4.9c-0.6,2.1-1,4.3-2.1,6c-2.3,3.3-6.7,2.8-8.6-0.7
	c-0.6-1.2-1-2.6-1.1-4c-0.2-1.9,0-3.8,0-5.7c0-1.3,0.1-2.6,0-3.9c-0.1-1.4-0.8-1.9-2.1-1.4c-0.4,0.2-0.8,0.3-1.2,0.4
	c-4.8,1.7-8.6-0.2-9.8-5.1c-0.5-2.3-0.2-4.8-0.3-7.2C121.5,214.9,121.5,212.4,121.5,210z M251.3,210.1c-0.4-1.9-1-2.5-1,0
	c0,0.8,0.1,1.6,0.1,2.4c0.4,5.8,1.2,11.7,0.3,17.5c-1.2,7.1-2.6,14.1-3.8,21.2c-0.7,4.4-0.3,8.7,2.5,12.4c1.4,1.8,3.1,3,5.5,2.8
	c3.8-0.2,6.7-2.1,9.1-4.9c4.6-5.3,7.6-11.5,9.1-18.3c1.1-5.2,1.3-10.4-0.7-15.4c-1.4-3.4-3.3-5.9-7.7-5.4c-3.7,0.4-7.1-1-9.9-3.8
	C252.7,216.2,252.1,213.1,251.3,210.1z M188,94.5c1.1,0.5,2.5,0.6,3.6,0.2c0.1,0,0.2-0.1,0.3-0.1c2-0.9,4.1-1.8,6.1-2.9
	c4.9-2.8,9.7-5.6,14.6-8.5c0.2-0.1,0.4-0.2,0.6-0.4c0.7-0.6,0.8-1.7,0.1-2.4c-0.2-0.2-0.4-0.4-0.6-0.6c-0.3-0.3-0.7-0.4-1.1-0.6
	c-5.4-2.1-10.8-4.2-16.2-6.3c-3-1.2-5.7-0.5-8.2,1.5c-2.1,1.7-4.2,3.3-6.3,5c-1.5,1.2-3,2.4-4.4,3.7c-0.4,0.4-0.7,1.4-0.1,2.3
	c0.7,1,1.1,1.6,2.1,2.4c2.9,2.2,5.9,4.3,8.9,6.3C187.6,94.3,187.8,94.4,188,94.5z M289.4,231.2c-0.4,1.1-0.6,2.3-0.4,3.5
	c0.5,3.2,1.7,5.2,4.4,6c0.8,0.2,2.4,0.5,3.6,0.1c2.3-0.7,3.8-1.7,5.8-3c1-0.7,1.3-1.8,0.3-2.6c-0.5-0.4-1.1-0.8-1.7-1.2
	c-3-2.1-6.6-3.2-9-6c-0.8-0.9-1.4-0.4-1.8,0.4C290.1,229.3,289.7,230.3,289.4,231.2z"/>
</svg>
