<?xml version="1.0" encoding="utf-8"?>
<!-- Generator: Adobe Illustrator 21.1.0, SVG Export Plug-In . SVG Version: 6.00 Build 0)  -->
<!DOCTYPE svg PUBLIC "-//W3C//DTD SVG 1.1//EN" "http://www.w3.org/Graphics/SVG/1.1/DTD/svg11.dtd">
<svg version="1.1" id="Layer_1" xmlns="http://www.w3.org/2000/svg" xmlns:xlink="http://www.w3.org/1999/xlink" x="0px" y="0px"
	 viewBox="0 0 400 400" enable-background="new 0 0 400 400" xml:space="preserve">
<path d="M357.3,281c3.4-3.9,6.9-9,11.9-14.3c9.1-10.7,14.5-24,14.5-39.3v-110c0-37.5-32.5-63.4-71.5-68.2
	c-27.8-3.4-84.1-5.9-112.2-5.9s-84.4,1.9-112.2,5.9C47.5,55.1,16.3,80,16.3,117.5v110c0,37.5,32.5,63,71.5,68.2
	c27.9,3.7,84.1,6,112.2,6c11.9,0,28.8-0.4,46.4-1.1c3.2-0.1,6.6-0.4,12.1-0.4c5.5,0,7.2,0.3,11.3,2.7c4.1,2.4,5.9,5.1,3.1,10.5
	c-1,2-2.4,4-2.7,6.1c-0.3,2.1-0.3,4.1,1,6.5c1.3,2.5,4.5,5.5,9.4,6.1c4.8,0.6,13.1-3.5,13.3-11.5c0-2.3-0.4-5.9,0.6-8.2
	s5.1-5.7,10.1-4.8c5,0.9,7,6.7,6.8,12.1c-0.1,2.5-1.4,4.6-2.7,7.6s-2.9,9.6-2.8,13c0.1,3.4,0.9,7.4,1.6,8.6c0.6,1.3,2.1,3.3,5.2,5.8
	c3.1,2.5,10,2.3,14,0.1c6.8-3.8,11.1-13,9.6-21c-1.5-8-3.1-9.1-3.2-13.2c-0.1-4.1,0.7-7.8,3.1-12.3c2.4-4.5,6-10.2,10.3-15.1
	C350.7,288.5,353.9,284.9,357.3,281z M260.8,177.4c-29.7,17.4-59.5,34.8-89.2,52.2c-0.6,0.3-1.2,0.7-1.8,1c-2.3,1.2-3.4,0.6-3.4-2
	c0-17.7,0-35.5,0-53.2c0-17.6,0-35.2,0-52.7c0-2.6,1.1-3.3,3.3-1.9c6.8,4,13.7,7.9,20.2,12.2c5.7,3.8,8.1,9.7,8.6,16.4
	c0.4,4.9-0.9,9.2-3.8,13.2c-2,2.7-1.7,6.1,0.3,8.9c1.7,2.4,6.3,4.1,9,3.2c1.7-0.6,3.4-1.3,4.7-2.4c2-1.5,2.6-3.6,1.5-6.1
	c-0.8-1.9-1.6-3.9-1.9-5.9c-0.7-5.9,3.5-8.6,9.3-7.8c11.9,1.6,20.7,9.3,30.8,14.5c4.2,2.2,8.2,4.6,12.2,7c0.6,0.3,1.1,1.2,1.2,1.9
	C262,176.3,261.3,177.1,260.8,177.4z"/>
</svg>
