<?xml version="1.0" encoding="utf-8"?>
<!-- Generator: Adobe Illustrator 23.0.6, SVG Export Plug-In . SVG Version: 6.00 Build 0)  -->
<svg version="1.1"
	 id="svg4" xmlns:cc="http://creativecommons.org/ns#" xmlns:dc="http://purl.org/dc/elements/1.1/" xmlns:inkscape="http://www.inkscape.org/namespaces/inkscape" xmlns:rdf="http://www.w3.org/1999/02/22-rdf-syntax-ns#" xmlns:sodipodi="http://sodipodi.sourceforge.net/DTD/sodipodi-0.dtd" xmlns:svg="http://www.w3.org/2000/svg"
	 xmlns="http://www.w3.org/2000/svg" xmlns:xlink="http://www.w3.org/1999/xlink" x="0px" y="0px" viewBox="0 0 400 400"
	 style="enable-background:new 0 0 400 400;" xml:space="preserve">
<path d="M196.8,5c-73.4,1.7-133,61.6-134.3,135c-0.7,40.2,16,76.6,43,102.2c4.5,4.3,8.5,9.2,11.6,14.6
	C146.7,308.2,92,376.7,131,378.4c28.7-1.8-2.8-79.5,11.8-101.1c3-4.3,8.5-6.1,13.5-4.4c15.4,5.2,32,7.7,49.2,7
	c73.5-2.9,132-64,131.9-137.5C337.4,65.5,274,3.3,196.8,5z M287.4,229.6c-16.1,12-15.8-19.1-17.9-32.9c-0.2-1.2,0.4-2.4,1.5-3
	c4.6-2.5,7.3-7.5,6.8-12.8c-0.6-7.1-6.9-12.4-14.1-11.8c-7.1,0.6-12.4,6.9-11.8,14.1c0,0.1,0,0.2,0,0.3c0.5,4.5,3.2,8.3,7.1,10.3
	c1,0.5,1.5,1.5,1.5,2.6v7.9c0,0.8-0.4,1.5-1.1,1.8l-50.1,25.4c-1,0.5-2.2-0.2-2.2-1.4v-17.8c0-1.2,0.7-2.3,1.8-2.8l21.8-10.1
	c1.5-0.7,2.5-2.2,2.5-3.9l0-35.2c0-1.1,0.6-2.1,1.5-2.6l42.1-23.6c1.3-0.8,2.2-2.2,2.2-3.7v-8.5c0-1.1,0.6-2,1.6-2.5
	c5.7-2.9,8.6-9.6,6.4-15.8c-2-5.7-7.6-9.3-13.6-8.7c-7.1,0.7-12.3,7.1-11.6,14.2c0.5,4.5,3.2,8.3,7.1,10.3c1,0.5,1.5,1.5,1.5,2.6v4
	c0,1.2-0.6,2.3-1.7,2.9L227,152.5c-1.3,0.8-2.2,2.2-2.2,3.7l0,34.9c0,1.1-0.6,2.1-1.6,2.6l-13.3,6.1c-1.2,0.6-2.6-0.3-2.6-1.7v-74.8
	c0-1.4,0.8-2.6,2-3.3l34.7-16.9c1.5-0.7,2.4-2.2,2.4-3.8V87.6c0-1.1,0.7-2.1,1.6-2.6c4.7-2.4,7.6-7.5,7-12.9
	c-0.7-7.1-7.1-12.3-14.2-11.6l-0.1,0c-7.1,0.8-12.2,7.1-11.5,14.2c0.5,4.5,3.3,8.4,7.3,10.4c0.8,0.4,1.4,1.2,1.4,2.1v7.8
	c0,0.9-0.7,1.7-1.7,1.7c-12.8,0.3-24.2-13.6-28.4-29.4c-0.3-1,0.2-2.1,1.2-2.6c5.8-2.9,8.6-9.8,6.3-16.1c-2.2-5.9-8.5-9.4-14.6-8.2
	c-6.7,1.3-11.1,7.5-10.4,14.1c0.4,4.3,3,8.1,6.8,10.1c1.1,0.6,1.8,1.8,1.8,3l0,70.6c0,1.1-1.2,1.8-2.1,1.3l-17.5-9.2
	c-1.2-0.6-1.9-1.8-1.9-3.2v-32c0-1.3-0.6-2.6-1.7-3.4l-12.5-9.6c-1.3-1-1.8-2.6-1.5-4.1c1.3-6.4-2.4-13.1-9.1-15.1
	c-5.7-1.7-12,0.9-14.9,6.2c-3.8,6.9-0.7,15.4,6.4,18.3c3,1.3,6.4,1.3,9.5,0.2c1.2-0.5,2.6-0.2,3.7,0.6l11.8,9V132
	c0,1.6,0.9,3,2.3,3.8l26.4,13.9c0.9,0.5,1.4,1.4,1.4,2.4v24.5c0,0.7-0.7,1.2-1.4,0.9l-43.6-20.2c-0.9-0.4-1.4-1.3-1.4-2.2l0.6-15.3
	c0.1-1.7-0.8-3.2-2.3-3.9l-20.5-10.5c-0.4-0.2-0.7-0.7-0.6-1.2c0.2-1.1,0.2-2.3,0.1-3.5c-0.8-7.1-7.3-12.2-14.4-11.4
	c-7,0.8-12.1,7.1-11.4,14.1c0.2,2.1,0.9,4,2,5.6c0.1,0.1,0.1,0.2,0.2,0.3c0.1,0.1,0.1,0.2,0.2,0.3c12.7,17.4-8.3,52.8,8.4,53.7
	c17.7-1.1-3.4-30.5,10.7-46.6c1.5-1.7,4-2.1,6-1.1l10.4,5.3c1.7,0.9,2.7,2.6,2.6,4.5l-0.5,13.3c0,0.2,0,0.2,0,0.7
	c0,0.3,0,0.6,0.1,0.9c0.2,0.9,0.4,1.7,0.5,2.6c1.1,9.2-3.5,13.7-10.5,19c-1.3,1-2.6,1.8-3.9,2.7c-0.9,0.6-1.8,1.4-2.6,2.2
	c0,0,0,0,0,0l0,0c-2.7,3.1-4,7.5-2.8,12c1.1,4.2,4.4,7.7,8.6,9c4.1,1.3,8.4,0.5,11.6-1.9c1.2-0.9,2.7-1,4-0.4
	c5.5,2.5,19.3,8.9,25.3,11.7c1.8,0.8,2.9,2.6,2.9,4.5l0,39.7c0,1.5-1.4,2.7-2.9,2.3c-55.9-11.9-97.9-61.7-97.9-121.1
	c0-68.4,54.7-123.4,123.1-123.9c68.6-0.4,124.6,55.3,124.6,123.9c0,32.4-12.5,61.9-32.9,83.9C289.9,227.6,288.7,228.7,287.4,229.6z"
	/>
</svg>
