<?xml version="1.0" encoding="utf-8"?>
<!-- Generator: Adobe Illustrator 23.0.1, SVG Export Plug-In . SVG Version: 6.00 Build 0)  -->
<svg version="1.1"
	 id="svg4" inkscape:version="0.92.1 r15371" sodipodi:docname="sourcetree.svg" xmlns:cc="http://creativecommons.org/ns#" xmlns:dc="http://purl.org/dc/elements/1.1/" xmlns:inkscape="http://www.inkscape.org/namespaces/inkscape" xmlns:rdf="http://www.w3.org/1999/02/22-rdf-syntax-ns#" xmlns:sodipodi="http://sodipodi.sourceforge.net/DTD/sodipodi-0.dtd" xmlns:svg="http://www.w3.org/2000/svg"
	 xmlns="http://www.w3.org/2000/svg" xmlns:xlink="http://www.w3.org/1999/xlink" x="0px" y="0px" viewBox="0 0 400 400"
	 style="enable-background:new 0 0 400 400;" xml:space="preserve">
<path d="M196.7,4.7C119.9,6.5,57.5,69.1,56.2,145.9c-0.7,42.1,16.7,80.1,44.9,106.9c4.7,4.5,8.9,9.6,12.2,15.2
	c30.9,53.8-26.4,125.5,14.4,127.2c30-1.9-3-83.2,12.4-105.8c3.1-4.5,8.9-6.4,14.1-4.6c16.1,5.4,33.5,8.1,51.5,7.3
	c76.9-3.1,138.1-66.9,138-143.9C343.7,68,277.4,2.9,196.7,4.7z M291.5,239.7c-16.9,12.6-16.5-20-18.7-34.4c-0.2-1.3,0.4-2.6,1.6-3.2
	c4.8-2.6,7.7-7.8,7.1-13.4c-0.7-7.5-7.3-13-14.7-12.3c-7.5,0.7-13,7.3-12.3,14.7c0,0.1,0,0.2,0,0.4c0.5,4.7,3.3,8.7,7.5,10.8
	c1,0.5,1.6,1.6,1.6,2.7v8.2c0,0.8-0.5,1.6-1.2,1.9l-52.4,26.5c-1.1,0.5-2.3-0.2-2.3-1.4v-18.6c0-1.2,0.7-2.4,1.9-2.9l22.8-10.5
	c1.6-0.7,2.6-2.3,2.6-4l0-36.9c0-1.1,0.6-2.2,1.6-2.7l44-24.7c1.4-0.8,2.3-2.3,2.3-3.9v-8.8c0-1.1,0.7-2.1,1.7-2.7
	c6-3,9-10,6.7-16.5c-2.1-6-8-9.7-14.3-9.1c-7.5,0.8-12.9,7.4-12.1,14.9c0.5,4.7,3.3,8.7,7.5,10.8c1,0.5,1.6,1.6,1.6,2.7v4.2
	c0,1.3-0.7,2.4-1.8,3L228.2,159c-1.4,0.8-2.3,2.3-2.3,3.9l0,36.6c0,1.2-0.7,2.2-1.7,2.7l-13.9,6.4c-1.3,0.6-2.7-0.3-2.7-1.7v-78.3
	c0-1.4,0.8-2.8,2.1-3.4l36.3-17.7c1.5-0.7,2.5-2.3,2.5-4V91.1c0-1.1,0.7-2.2,1.7-2.7c5-2.5,7.9-7.9,7.4-13.5
	c-0.8-7.5-7.4-12.9-14.9-12.1l-0.1,0c-7.4,0.8-12.8,7.5-12.1,14.9c0.5,4.7,3.4,8.8,7.6,10.8c0.9,0.4,1.4,1.3,1.4,2.2V99
	c0,1-0.8,1.8-1.7,1.8c-13.4,0.3-25.3-14.3-29.7-30.8c-0.3-1.1,0.2-2.2,1.2-2.7c6-3.1,9-10.3,6.5-16.9c-2.3-6.2-8.9-9.9-15.3-8.6
	c-7,1.4-11.6,7.8-10.9,14.7c0.5,4.5,3.2,8.5,7.2,10.6c1.2,0.6,1.9,1.9,1.9,3.2v73.9c0,1.1-1.2,1.9-2.2,1.4l-18.4-9.6
	c-1.2-0.6-2-1.9-2-3.3V99.1c0-1.4-0.6-2.7-1.7-3.5l-13.1-10.1c-1.3-1-1.9-2.7-1.6-4.3c1.4-6.7-2.5-13.7-9.6-15.8
	c-6-1.8-12.6,1-15.6,6.5c-4,7.2-0.7,16.1,6.7,19.2c3.2,1.3,6.7,1.4,9.9,0.2c1.3-0.5,2.8-0.3,3.9,0.6l12.3,9.4v36.3
	c0,1.7,0.9,3.2,2.4,3.9l27.6,14.5c0.9,0.5,1.5,1.5,1.5,2.5v25.6c0,0.7-0.8,1.2-1.4,0.9L151.6,164c-0.9-0.4-1.5-1.3-1.4-2.3l0.6-16
	c0.1-1.7-0.9-3.3-2.4-4.1l-21.5-11c-0.5-0.2-0.7-0.7-0.6-1.3c0.2-1.2,0.3-2.4,0.1-3.6c-0.9-7.5-7.6-12.8-15.1-11.9
	c-7.3,0.8-12.6,7.4-12,14.7c0.2,2.2,1,4.2,2.1,5.9c0.1,0.1,0.1,0.2,0.2,0.3c0.1,0.1,0.1,0.2,0.2,0.3c13.2,18.2-8.7,55.2,8.8,56.1
	c18.5-1.2-3.5-32,11.2-48.7c1.6-1.8,4.1-2.2,6.2-1.2l10.8,5.6c1.8,0.9,2.8,2.7,2.8,4.7l-0.5,13.9c0,0.2,0,0.2,0,0.7
	c0,0.3,0,0.7,0.1,1c0.2,0.9,0.4,1.8,0.5,2.7c1.1,9.6-3.7,14.3-11,19.9c-1.3,1-2.7,1.9-4.1,2.8c-1,0.7-1.9,1.4-2.7,2.3c0,0,0,0,0,0
	l0,0c-2.9,3.2-4.2,7.8-2.9,12.5c1.2,4.4,4.6,8,9,9.4c4.3,1.3,8.8,0.5,12.2-2c1.2-0.9,2.8-1.1,4.2-0.5c5.7,2.6,20.2,9.3,26.5,12.2
	c1.8,0.9,3,2.7,3,4.7l0,41.6c0,1.6-1.5,2.8-3,2.4c-58.5-12.5-102.5-64.5-102.5-126.7c0-71.5,57.3-129.2,128.8-129.6
	c71.8-0.4,130.4,57.9,130.4,129.6c0,33.9-13.1,64.7-34.4,87.8C294.1,237.6,292.8,238.7,291.5,239.7z"/>
</svg>
