<?xml version="1.0" encoding="utf-8"?>
<!-- Generator: Adobe Illustrator 22.0.0, SVG Export Plug-In . SVG Version: 6.00 Build 0)  -->
<!DOCTYPE svg PUBLIC "-//W3C//DTD SVG 1.1//EN" "http://www.w3.org/Graphics/SVG/1.1/DTD/svg11.dtd">
<svg version="1.1" id="Layer_1" xmlns="http://www.w3.org/2000/svg" xmlns:xlink="http://www.w3.org/1999/xlink" x="0px" y="0px"
	 viewBox="0 0 400 400" enable-background="new 0 0 400 400" xml:space="preserve">
<g>
	<path d="M199.9,379.7c-58.5,0-116.9,0-175.4,0c-8.3,0-8.9-0.6-8.9-9.1c0-114.1,0-228.3,0-342.4c0-7,0.7-7.7,7.9-7.7
		c73-0.1,145.9-0.2,218.9-0.3c28.1,0,56.3,0.1,84.4,0.4c1.6,0,3.5,0.7,4.6,1.8c17.1,15.8,33.2,30.6,50,46.7c2.5,2.5,2.9,3.7,2.9,7.3
		c0.1,43.2,0.1,86.4,0.1,129.7c0,54.1,0,108.1,0,162.2c0,1.8,0,3.5,0,5.3c-0.2,5-1.3,6.2-6.4,6.2c-19.6,0.1-39.3,0.1-58.9,0.1
		C279.3,379.8,239.6,379.8,199.9,379.7C199.9,379.7,199.9,379.7,199.9,379.7z M202,372.2c38.5,0,77.1-0.1,115.6,0.1
		c4.1,0,5.2-1.2,5.2-5.2c-0.2-19.5-0.1-39-0.1-58.5c0-30.3,0-60.7,0-91c0-2.6,0.3-5.2-3.4-5.3c-16.1-0.1-32.3-1.3-48.2-0.1
		c-17.1,1.3-26.1,11-29.5,27.8c-2.4,12-2,24.2-1.5,36.3c0.3,6.5,0.6,13.3-0.6,19.7c-3.3,17.8-21.5,26.4-37.6,18
		c-12.6-6.5-17.5-18.1-19.1-31.3c-1.2-9.6-1.2-19.3-2.2-28.9c-0.6-6.2-2.6-12-7.1-16.7c-7.9-8.1-17.4-6.3-21.4,4.2
		c-1.7,4.4-2.6,9-3.8,13.5c-1.6,5.8-4,11-8.6,15c-12.8,11.4-31.4,6.3-35-9.8c-1-4.7-1.1-9.6-1.3-14.4c-0.2-5.6,0.2-11.1-0.2-16.7
		c-0.4-6.2-2.6-11.7-7.6-15.8c-3.8-3.2-7.1-2.8-11.2-1.7c-2.9,0.8-2.8,5.1-2.8,7.7c-0.1,49.2-0.1,98.5-0.1,147.7
		c0,5.3,0,5.3,5.3,5.3C125.2,372.2,163.6,372.2,202,372.2z M135.1,122.7c19.2,0,38.4-0.2,57.6,0.1c5.9,0.1,10.9-1.9,15.6-5
		c3.2-2.1,3-5.1-0.6-6.5c-2.8-1.1-3.9-2.9-3.9-5.7c0-20.7,0.1-39.3,0.1-60c0-4,2.1-5.8,3.6-7.2c1.9-1.7,4.5-2.7,6.5-4.4
		c2.9-2.3,2.5-4.4-0.9-5.7c-1.4-0.6-3.1-0.7-4.7-0.6c-10.1,0.3-20.2,0.4-30.3,1.2c-10.5,0.8-20.4,3.8-29.6,8.9
		c-7.1,3.9-12,9.7-13,17.8c-0.9,6.8-0.5,13.7-0.6,20.6c-0.1,4.4,0.2,8.8-0.5,13.1c-1.2,7.7-5.6,13.2-13.4,15.2
		c-7.7,2-14.4-0.4-19.2-6.6c-2.5-3.3-4.8-7.3-5.3-11.3c-1.1-7.5-1.4-15.2-1.1-22.7c0.5-14.9-7.1-25.6-17.7-34.7
		c-1.4-1.2-4.1-1.7-5.6-0.9s-1.9,2.7-1.9,4.2c-0.1,28.4,0,56.8-0.1,85.2c0,3.8,1,5.1,4.9,5C94.9,122.6,115,122.7,135.1,122.7z
		 M262.3,75.5c0-14.5,0.1-29-0.1-43.5c0-1.4-0.5-4-3.3-4c-6.3,0-11.2-0.2-17.4,0.6c-3.8,0.5-6.9,4.7-6.2,6.9c1.1,3.7,4.4,2.6,7,2.8
		c4.7,0.3,6.2,1.6,6.3,6.1c0.1,20.4,0,40.7,0,61.1c0,3.8-1.7,5.6-5.4,6c-3.2,0.3-6.4,0.8-9.5,1.8c-1.2,0.4-2.6,2.1-2.6,3.3
		c-0.2,3.7,2.5,6.2,6.2,6.3c6.6,0.1,13.2-0.2,19.8,0.1c3.9,0.2,5.4-0.9,5.3-5.1C262.1,103.6,262.3,89.5,262.3,75.5z"/>
</g>
</svg>
