<?xml version="1.0" encoding="utf-8"?>
<!-- Generator: Adobe Illustrator 23.0.6, SVG Export Plug-In . SVG Version: 6.00 Build 0)  -->
<svg version="1.1" id="Layer_1" xmlns="http://www.w3.org/2000/svg" xmlns:xlink="http://www.w3.org/1999/xlink" x="0px" y="0px"
	 viewBox="0 0 400 400" style="enable-background:new 0 0 400 400;" xml:space="preserve">
<path d="M199.9,276.5c-43.6,0-87.2,0-130.8,0c-6.2,0-6.6-0.4-6.6-6.8c0-85.1,0-170.2,0-255.4c0-5.2,0.5-5.7,5.9-5.7
	c54.4-0.1,108.8-0.2,163.3-0.2c21,0,42,0.1,62.9,0.3c1.2,0,2.6,0.5,3.4,1.3c12.8,11.8,24.7,22.9,37.3,34.8c1.8,1.8,2.1,2.7,2.1,5.4
	c0.1,32.2,0.1,64.5,0.1,96.7c0,40.3,0,80.6,0,121c0,1.3,0,2.6,0,3.9c-0.1,3.7-1,4.6-4.8,4.6c-14.6,0.1-29.3,0.1-43.9,0.1
	C259.2,276.6,229.5,276.6,199.9,276.5C199.9,276.6,199.9,276.5,199.9,276.5z M201.5,271c28.7,0,57.5,0,86.2,0.1c3,0,3.9-0.9,3.9-3.9
	c-0.1-14.5-0.1-29.1-0.1-43.6c0-22.6,0-45.2,0-67.9c0-1.9,0.2-3.9-2.6-3.9c-12-0.1-24.1-1-36-0.1c-12.8,1-19.4,8.2-22,20.7
	c-1.8,9-1.5,18-1.1,27.1c0.2,4.9,0.4,9.9-0.5,14.7c-2.5,13.3-16,19.7-28,13.4c-9.4-4.9-13-13.5-14.2-23.3
	c-0.9-7.1-0.9-14.4-1.6-21.5c-0.5-4.6-1.9-9-5.3-12.4c-5.9-6-13-4.7-16,3.1c-1.2,3.2-1.9,6.7-2.8,10.1c-1.2,4.3-3,8.2-6.4,11.2
	c-9.6,8.5-23.4,4.7-26.1-7.3c-0.8-3.5-0.8-7.1-0.9-10.7c-0.2-4.1,0.1-8.3-0.2-12.4c-0.3-4.6-2-8.7-5.7-11.8
	c-2.9-2.4-5.3-2.1-8.4-1.3c-2.1,0.6-2.1,3.8-2.1,5.7c-0.1,36.7,0,73.4,0,110.2c0,3.9,0,3.9,4,3.9C144.2,271,172.9,271,201.5,271z
	 M151.6,84.9c14.3,0,28.6-0.1,42.9,0.1c4.4,0.1,8.1-1.4,11.6-3.8c2.4-1.6,2.2-3.8-0.4-4.9c-2.1-0.8-2.9-2.2-2.9-4.2
	c0-15.4,0.1-29.3,0.1-44.7c0-3,1.6-4.3,2.7-5.4c1.4-1.3,3.3-2,4.8-3.3c2.1-1.7,1.9-3.3-0.7-4.2c-1.1-0.4-2.3-0.5-3.5-0.5
	c-7.5,0.2-15.1,0.3-22.6,0.9c-7.8,0.6-15.2,2.8-22.1,6.6c-5.3,2.9-9,7.3-9.7,13.2c-0.7,5-0.3,10.2-0.5,15.3
	c-0.1,3.3,0.2,6.6-0.3,9.8c-0.9,5.7-4.2,9.9-10,11.4c-5.7,1.5-10.7-0.3-14.3-4.9c-1.9-2.4-3.6-5.5-4-8.4c-0.8-5.6-1-11.3-0.8-16.9
	c0.3-11.1-5.3-19.1-13.2-25.8c-1-0.9-3.1-1.3-4.2-0.6c-1.1,0.6-1.4,2-1.4,3.2c-0.1,21.2,0,42.4-0.1,63.6c0,2.8,0.7,3.8,3.7,3.7
	C121.7,84.8,136.6,84.9,151.6,84.9z M246.5,49.6c0-10.8,0-21.6-0.1-32.4c0-1-0.4-3-2.5-3c-4.7,0-8.3-0.2-13,0.4
	c-2.8,0.4-5.2,3.5-4.6,5.2c0.8,2.8,3.3,2,5.2,2.1c3.5,0.2,4.7,1.2,4.7,4.5c0.1,15.2,0,30.4,0,45.6c0,2.8-1.3,4.2-4.1,4.5
	c-2.4,0.3-4.8,0.6-7.1,1.3c-0.9,0.3-1.9,1.6-2,2.4c-0.2,2.8,1.8,4.6,4.7,4.7c4.9,0.1,9.8-0.1,14.7,0.1c2.9,0.1,4-0.7,4-3.8
	C246.3,70.6,246.5,60.1,246.5,49.6z"/>
</svg>
