<?xml version="1.0" encoding="UTF-8" standalone="no"?>
<svg
   xmlns:dc="http://purl.org/dc/elements/1.1/"
   xmlns:cc="http://creativecommons.org/ns#"
   xmlns:rdf="http://www.w3.org/1999/02/22-rdf-syntax-ns#"
   xmlns:svg="http://www.w3.org/2000/svg"
   xmlns="http://www.w3.org/2000/svg"
   viewBox="0 0 533.33331 533.33331"
   height="533.33331"
   width="533.33331"
   xml:space="preserve"
   id="svg2"
   version="1.1"><metadata
     id="metadata8"><rdf:RDF><cc:Work
         rdf:about=""><dc:format>image/svg+xml</dc:format><dc:type
           rdf:resource="http://purl.org/dc/dcmitype/StillImage" /></cc:Work></rdf:RDF></metadata><defs
     id="defs6"><clipPath
       id="clipPath18"
       clipPathUnits="userSpaceOnUse"><path
         id="path16"
         d="M 0,400 H 400 V 0 H 0 Z" /></clipPath></defs><g
     transform="matrix(1.3333333,0,0,-1.3333333,0,533.33333)"
     id="g10"><g
       id="g12"><g
         clip-path="url(#clipPath18)"
         id="g14"><g
           transform="translate(183.1245,357.5879)"
           id="g20"><path
             id="path22"
             style="fill:#000000;fill-opacity:1;fill-rule:nonzero;stroke:none"
             d="m 0,0 c 3.852,-0.431 7.505,-2.63 8.806,-6.2 1.953,-5.358 3.317,-11.101 3.846,-16.778 2.5,-26.81 4.698,-59.002 4.698,-80.634 0,-21.633 -0.038,-34.71 -0.765,-52.022 -1.123,-26.775 -3.038,-53.522 -5,-80.253 -0.424,-5.775 -2.357,-11.461 -3.8,-17.135 -2.24,-8.809 -1.717,-17.249 2.416,-25.472 2.119,-4.216 4.059,-8.564 5.61,-13.015 3.344,-9.597 0.174,-18.154 -7.864,-22.12 -7.617,-3.759 -17.981,-0.789 -23.245,6.755 -3.548,5.083 -4.625,10.795 -3.626,16.846 0.977,5.912 2.469,11.749 3.222,17.684 2.181,17.184 -5.862,29.981 -18.027,40.931 -11.877,10.69 -23.823,21.308 -35.506,32.207 -5.5,5.132 -9.692,10.08 -14.913,15.514 -2.223,2.313 -3.597,3.145 -6.657,3.368 -3.06,0.221 -4.973,0.266 -8.923,0.087 -3.949,-0.179 -6.648,-1.299 -7.789,-6.792 -0.759,-3.657 -0.61,-7.507 -0.814,-11.273 -0.152,-2.829 0.133,-5.73 -0.394,-8.482 -1.386,-7.242 -7.785,-9.767 -13.834,-5.564 -2.237,1.555 -4.218,3.474 -6.383,5.141 -0.607,0.467 -1.325,1.422 -2.186,0.923 -0.862,-0.498 -0.635,-2.058 -0.591,-3.492 0.043,-1.435 0.259,-4.504 0.39,-7.339 0.126,-2.73 0.392,-5.467 0.29,-8.19 -0.269,-7.194 -4.278,-12.702 -10.056,-14.103 -6.406,-1.553 -14.052,1.298 -16.788,7.641 -2.039,4.731 -2.85,10.247 -3.039,15.457 -0.266,7.305 1.285,14.718 0.604,21.949 -0.348,3.693 -3.284,7.673 -6.097,10.472 -3.602,3.586 -4.92,6.373 -5.397,12.305 -0.477,5.931 -0.73,11.011 -1.053,18.99 -0.063,1.575 -0.012,8.092 0.001,9.666 0.157,18.179 0.324,36.359 0.536,54.538 0.05,4.298 0.261,8.594 0.428,12.89 0.119,3.074 3.445,5.531 8,5.612 6.622,0.118 13.249,0.03 19.873,0.03 0,0 36.688,-0.926 46.879,-0.86 10.191,0.065 14.516,4.423 20.088,9.861 7.27,7.094 14.262,14.478 21.62,21.479 11.877,11.301 23.968,22.378 35.94,33.581 1.783,1.668 4.575,4.336 7.061,4.798 C -9.954,-0.535 -3.852,0.432 0,0" /></g><g
           transform="translate(321.2139,349.6772)"
           id="g24"><path
             id="path26"
             style="fill:#000000;fill-opacity:1;fill-rule:nonzero;stroke:none"
             d="m 0,0 c 3.107,0.595 4.758,1.104 8.229,1.236 6.032,0.231 12.155,0.191 18.127,-0.59 12.374,-1.617 21.478,-7.359 26.264,-19.875 8.269,-21.627 13.169,-43.943 15.259,-66.87 0.931,-10.219 0.672,-20.569 0.555,-30.856 -0.137,-11.957 -0.042,-23.976 -1.245,-35.847 -2.003,-19.793 -6.256,-39.187 -13.512,-57.81 -2.871,-7.368 -6.831,-13.703 -12.891,-19.29 -10.673,-9.839 -15.666,-22.344 -13.41,-37.328 1.245,-8.268 1.847,-16.681 -0.356,-24.961 -1.501,-5.642 -4.172,-10.525 -9.269,-13.767 -7.904,-5.029 -18.072,-2.619 -22.814,5.5 -2.681,4.589 -3.907,9.602 -3.017,14.869 0.965,5.712 2.13,11.403 3.528,17.024 2.766,11.114 1.589,21.743 -3.429,31.976 -2.369,4.829 -2.508,9.201 0.361,14.213 8.022,14.009 6.986,28.649 1.432,43.198 -1.899,4.97 -4.818,14.153 -6.664,14.172 -1.846,0.019 -3.022,-2.514 -3.546,-3.487 -3.961,-7.345 -7.9,-14.704 -11.962,-21.993 -2.013,-3.613 -6.07,-3.318 -10.497,-3.67 -4.429,-0.352 -9.811,-0.671 -15.709,-1.048 -3.978,-0.254 -8.364,-0.112 -12.326,0.204 -4.474,0.357 -5.522,2.588 -3.448,6.48 4.839,9.08 10.166,17.933 14.47,27.258 5.571,12.073 7.908,25.022 7.871,38.334 -0.018,6.048 -0.249,12.098 -0.545,18.14 -0.047,0.967 -0.127,2.253 -1.473,2.671 -1.344,0.419 -2.351,-0.607 -2.893,-1.422 -1.915,-2.88 -3.885,-5.807 -5.215,-8.975 -3.689,-8.79 -6.426,-18.038 -10.728,-26.501 -5.824,-11.457 -12.789,-22.333 -19.165,-33.516 -0.72,-1.263 -1.257,-2.946 -1.092,-4.342 0.573,-4.84 1.65,-9.62 2.235,-14.46 0.505,-4.169 1.212,-8.461 0.722,-12.567 -0.62,-5.194 -4.603,-8.552 -9.191,-9.139 -4.915,-0.628 -10.363,1.753 -11.897,6.684 -1.484,4.766 -2.369,10.196 -1.658,15.064 1.367,9.364 -0.306,17.777 -5.337,25.475 -3.81,5.828 -3.45,10.767 0.161,16.717 6.337,10.448 11.047,21.7 9.619,34.377 -0.601,5.326 -1.492,10.743 -3.225,15.784 -1.784,5.191 -4.495,10.126 -7.263,14.905 -4.202,7.253 -2.791,11.594 5.405,13.156 7.186,1.37 14.642,2.478 21.507,-1.454 1.878,-1.076 3.961,-2.683 4.774,-4.556 2.095,-4.825 3.412,-9.982 5.312,-14.902 0.511,-1.327 1.007,-3.605 3.027,-3.405 2.021,0.2 2.695,1.954 2.905,3.133 1.44,8.087 3.058,16.194 3.652,24.365 0.525,7.225 1.076,14.614 -2.847,21.512 -1.559,2.741 1.244,4.315 3.669,4.512 3.965,0.321 7.986,0.329 11.96,0.081 6.021,-0.377 11.768,-0.657 18.968,-0.944 7.198,-0.287 8.481,-4.141 11.573,-8.386 7.872,-10.81 10.817,-23.596 13.952,-36.201 2.357,-9.478 3.464,-19.264 5.77,-28.757 2.377,-9.787 5.632,-19.306 13.217,-26.635 2.763,-2.669 5.903,-3.908 9.492,-2.742 3.514,1.142 4.315,4.431 4.868,7.708 4.543,26.927 -0.603,52.861 -8.263,78.476 -5.155,17.238 -12.571,33.53 -21.717,49.029 -0.718,1.218 -1.463,2.458 -1.924,3.782 -1.166,3.35 -0.328,4.949 2.758,5.064 C -3.799,-1.082 -3.108,-0.594 0,0" /></g></g></g></g></svg>