<?xml version="1.0" encoding="utf-8"?>
<!-- Generator: Adobe Illustrator 22.1.0, SVG Export Plug-In . SVG Version: 6.00 Build 0)  -->
<!DOCTYPE svg PUBLIC "-//W3C//DTD SVG 1.1//EN" "http://www.w3.org/Graphics/SVG/1.1/DTD/svg11.dtd">
<svg version="1.1" id="Layer_1" xmlns="http://www.w3.org/2000/svg" xmlns:xlink="http://www.w3.org/1999/xlink" x="0px" y="0px"
	 viewBox="0 0 400 400" enable-background="new 0 0 400 400" xml:space="preserve">
<g>
	<path d="M237.3,48.5c46.9,0,93.8,0,140.6,0c8.5,0,8.5,0,8.6,8.6c0,2.2,0,4.4,0,6.7c0,11.2-1.2,19.3-7.9,28.3
		c-10.6,14.3-13.2,31.5-10.5,49.1c1.5,9.6,5.7,18,13.4,24.1c3.9,3.1,5.4,6.6,5,11.5c-0.4,4.3-0.6,8.7-0.8,13
		c-0.2,4.2-3.6,7.5-7.8,7.7c-4.1,0.2-8.3,0.3-12.4,0.3c-49.9,0.1-99.9,0-149.8,0c-15.6,0-19.9,3.8-20.3,19.3
		c-0.3,9.1-3.7,16.1-11.2,21c-9.3,6.1-18.5,3.9-23.9-5.8c-1.9-3.4-2.9-7.3-5-10.4c-1.2-1.8-3.3-3.4-5-3.4c-1.9,0.1-3.5,1.3-4.8,3.2
		c-1.1,1.6-0.8,4.8-0.7,6.2c0.1,3.3,0.3,6.7,0.5,10c1.1,14.3-4.1,22.1-15.2,23.2c-11.8,1.1-24.1-8.7-25.2-20.5
		c-0.6-5.8-0.2-11.6,0-17.5c0.2-8.7-2.9-15.8-10.3-20.5c-5.1-3.2-7.1-7.3-6.1-13.8c0.7-5.1,0.8-10.3,0.1-15.4
		c-0.7-5.1,0.1-7.5,4.5-7.1c1.9,0.2,3.9,0,5.8,0c67.7,0,135.4-0.1,203.1,0.1c6.5,0,11.7-1.7,16.6-5.8c16.2-13.5,21.4-32.8,13.6-52.3
		c-1.7-4.3-4.2-8.4-6.7-12.4c-7-11.1-13-16.4-28.1-16.4c-10.5,0-19.2,0.1-29.8,0.1c-7.3,0-13.4,2.5-18.9,6.8
		c-5.3,4.1-7.9,10.8-6.8,17.5c1,6.4,2.6,12.8,2.8,19.2c0.4,13.4-8.3,22.9-20.6,23.3c-12.6,0.4-21.7-8-22.6-21.5
		c-0.3-3.8,0.3-7.7,0.6-11.6c0.2-2.2,0.7-4.4,0.8-6.6c1-19.2-7.5-27.6-27.5-27.1c-25.7,0.6-51.3,0.3-77,0c-10-0.1-10.1,0.8-10.1-7.4
		c0-6.4,0.1-12.9,0-19.3c-0.1-2.8,2.2-4.7,4.9-4.7c1.9,0,3.9,0,5.8,0C145.2,48.5,191.2,48.5,237.3,48.5z"/>
	<path d="M237.7,284.6c46.8,0,93.7,0,140.5,0c8.2,0,8.2,0,8.3,7.9c0,5.5-0.4,11.1,0.1,16.6c0.5,5.8-2,7.4-7.2,6.8
		c-1.1-0.1-2.2,0-3.3,0c-92.3,0-184.6,0-276.8,0c-1.7,0-3.3-0.1-5,0c-4.2,0.4-6.1-1.1-5.8-5.6c0.3-5.5,0-11.1,0.1-16.6
		c0.1-9.9-1-9.1,8.7-9.1c41.8,0,83.7,0,125.5,0C227.8,284.6,232.7,284.6,237.7,284.6z"/>
	<path d="M52.2,287.3c1.1,0.7,2.2,1.7,3.3,2.6c2.3,2,4.5,4.1,6,6.6c4,6.9,1.2,15.4-5.2,20.7c-8.1,6.7-8.8,10.2-3.6,19.1
		c2.7,4.6,5,9.3,3.5,14.9c-2.5,8.9-10.9,13.7-20.2,11.5c-9-2.1-15.7-12.2-13.8-20.8c0.3-1.3,0.7-2.7,1.3-3.9
		c2.8-6.1,2.3-11.4-4.1-14.9c-6-3.2-5.8-8.6-5.6-14.3c0.2-4,1.6-4.4,5.2-3.5c5.8,1.4,11.8,2.2,17.8,2.7c4.1,0.4,7.1-1.6,7-6.2
		c-0.1-5.1-3.8-5.5-7.6-5.4c-1.6,0-3.2,0.2-5.1,0.4c-2.3,0.3-4.3-1.5-4.3-3.8c0-1.4,0-2.8,0-4.1c0-9.6,0-9.7,9.8-10.8
		c3.7-0.4,6.9-1.5,6.7-5.7c-0.2-4.8-4.5-4.4-7.9-4.4c-1.8,0-3.6,0.3-5.4,0.8c-8.1,2.3-8.1,2.3-12.3-4.7c-0.3-0.4-0.5-0.9-0.8-1.3
		c-0.7-1.1-0.7-2.5-0.1-3.7c1.9-3.4,3.7-6.6,5.5-9.9c6.1-11.5,5.5-21.9-3.4-32.1c-8.7-10-7.2-14.1,3.6-24.2
		c3.6-3.4,7.1-7.1,10.5-10.7c2.8-2.9,5.9-5.8,8.2-9.2c2.4-3.5,4.9-7.4,1.3-11.2c-3.5-3.7-7.7-2-11.4,0c-1.7,0.9-3.3,2-5.3,3.4
		c-1.4,1-3.4,0.6-4.4-0.8c-0.3-0.5-0.6-0.9-1-1.3c-6.2-6.9-5.7-6.4,0.3-13.5c11.5-13.4,16.9-28,17.3-48.1c0.2-11.4,0.5-23,0.1-34.4
		c-0.1-2.7,0.2-4.4,0-7.2c-0.1-1.1-1.3-1.7-2.2-1l-8.1,6.1c-1.5,1.2-3.7,0.9-4.9-0.5l-5.1-6c-1.2-1.4-1-3.6,0.4-4.8
		c6.1-5.2,11.9-10.5,18.4-14.7c3.3-2.1,7-1.9,11.3-1.9c2.7,0,3.6,2.6,3.7,4.1c0.3,7.5,0.1,15,0.1,22.5c0.1,6.5,0.1,13.1,0,19.6
		c-0.5,18.5-0.1,36.7,7.1,54.3c2.7,6.5,3.5,14,4.2,21.1c1.1,10.3-3.2,18.8-10.3,26.1c-4,4.1-7.8,8.3-12.7,13.4
		c5.9,0,10.7-0.3,15.6,0.1c2.7,0.2,7.8,0.5,7.5,4.2c-0.3,4.2-0.2,6.8-2.1,10.4c-2.1,4-6.3,6.8-9.2,10.5c-5.5,6.8-5.3,14.3-1.6,21.8
		c2.1,4.2,4.4,8.3,6.8,12.4c6.1,10.1,6,16.8-1,23.1c-1,0.9-2.3,1.8-3.3,2.4s-3.1,1.2-3.1,2.1C49.5,285.8,51.1,286.6,52.2,287.3z"/>
</g>
</svg>
