<?xml version="1.0" encoding="utf-8"?>
<!-- Generator: Adobe Illustrator 23.0.1, SVG Export Plug-In . SVG Version: 6.00 Build 0)  -->
<svg version="1.1"
	 id="svg5" inkscape:version="0.92.1 r15371" sodipodi:docname="opera.svg" xmlns:cc="http://creativecommons.org/ns#" xmlns:dc="http://purl.org/dc/elements/1.1/" xmlns:inkscape="http://www.inkscape.org/namespaces/inkscape" xmlns:rdf="http://www.w3.org/1999/02/22-rdf-syntax-ns#" xmlns:sodipodi="http://sodipodi.sourceforge.net/DTD/sodipodi-0.dtd" xmlns:svg="http://www.w3.org/2000/svg"
	 xmlns="http://www.w3.org/2000/svg" xmlns:xlink="http://www.w3.org/1999/xlink" x="0px" y="0px" viewBox="0 0 400 400"
	 style="enable-background:new 0 0 400 400;" xml:space="preserve">
<sodipodi:namedview  bordercolor="#666666" borderopacity="1" fit-margin-bottom="50" fit-margin-left="0" fit-margin-right="0" fit-margin-top="0" gridtolerance="10" guidetolerance="10" id="namedview7" inkscape:current-layer="svg5" inkscape:cx="52.049693" inkscape:cy="122.83908" inkscape:pageopacity="0" inkscape:pageshadow="2" inkscape:window-height="1017" inkscape:window-maximized="1" inkscape:window-width="1920" inkscape:window-x="1358" inkscape:window-y="-8" inkscape:zoom="3.2091769" objecttolerance="10" pagecolor="#ffffff" showgrid="false">
	</sodipodi:namedview>
<path d="M199.4,7.6C114.9,7.6,54,69.8,54.1,163.2c0,83,59.1,158.4,145.4,158.4c13.1,0,25.6-1.7,37.4-4.9
	c50.3-8.5-7.2,74.8,27.5,75.7c17.6-0.4,7.9-25,7.1-53.1c-0.6-20.7,7.8-40.6,23.1-54.6c2.8-2.6,5.5-5.2,8-8
	c27.4-29.5,43.4-70.5,43.4-113.5C345.9,69.1,283.2,7.6,199.4,7.6z M156.6,77.7c7.4-20.7,21.7-35.5,41.7-37.1c3.2-0.2,6.1,1.9,6.5,5
	c2,17.5-45.9,55.4-48.7,36.9C155.9,81,156.1,79.3,156.6,77.7z M199.4,284.8c-49.2,0-53.3-74.7-53.2-124.2c0,0,0-0.1,0-0.1
	c0-6.4,1.3-12.7,3.8-18.6c13.2-31.1,50.7-72.9,74.7-78.3c6.8-1.6,13.7,2.2,16.5,8.7c10,23.5,12.7,56.7,12.7,88.4
	C253.8,210.6,249.3,284.8,199.4,284.8z"/>
</svg>
