<?xml version="1.0" encoding="utf-8"?>
<!-- Generator: Adobe Illustrator 23.0.1, SVG Export Plug-In . SVG Version: 6.00 Build 0)  -->
<svg version="1.1"
	 id="svg2" xmlns:cc="http://creativecommons.org/ns#" xmlns:dc="http://purl.org/dc/elements/1.1/" xmlns:inkscape="http://www.inkscape.org/namespaces/inkscape" xmlns:rdf="http://www.w3.org/1999/02/22-rdf-syntax-ns#" xmlns:sodipodi="http://sodipodi.sourceforge.net/DTD/sodipodi-0.dtd" xmlns:svg="http://www.w3.org/2000/svg"
	 xmlns="http://www.w3.org/2000/svg" xmlns:xlink="http://www.w3.org/1999/xlink" x="0px" y="0px" viewBox="0 0 400 400"
	 style="enable-background:new 0 0 400 400;" xml:space="preserve">
<path d="M199.8,77.2C92,77.2,4.9,156.7,4.9,171.1c0,4.8,7.6,17.1,22,31.6c3.1,3.2,6.2,6.4,9,9.8c76.1,91.8-12.5,163.6,44.4,164.4
	c46.5-0.6-14.8-115.4,20.6-121.2c3-0.5,6,0,8.8,1.1c26,10.3,56.2,17.3,90.1,17.3c120.5,0,195.3-87.9,195.3-102.9
	C395.1,156.7,307.5,77.2,199.8,77.2z M199.8,229.5c-52.2-1.8-110.3-20.3-148.8-49.7c-6.1-4.6-6.9-13.6-1.6-19.1
	c32.3-33.9,95.5-66.3,150.5-66.3c55.4,0,116.7,31.5,151,66.8c5.2,5.4,4.7,14.1-1,18.8C313.2,210.1,252,231.4,199.8,229.5z"/>
</svg>
