<?xml version="1.0" encoding="utf-8"?>
<!-- Generator: Adobe Illustrator 23.0.6, SVG Export Plug-In . SVG Version: 6.00 Build 0)  -->
<svg version="1.1"
	 id="svg2" inkscape:version="0.92.1 r15371" sodipodi:docname="eye_closed.svg" xmlns:cc="http://creativecommons.org/ns#" xmlns:dc="http://purl.org/dc/elements/1.1/" xmlns:inkscape="http://www.inkscape.org/namespaces/inkscape" xmlns:rdf="http://www.w3.org/1999/02/22-rdf-syntax-ns#" xmlns:sodipodi="http://sodipodi.sourceforge.net/DTD/sodipodi-0.dtd" xmlns:svg="http://www.w3.org/2000/svg"
	 xmlns="http://www.w3.org/2000/svg" xmlns:xlink="http://www.w3.org/1999/xlink" x="0px" y="0px" viewBox="0 0 400 400"
	 style="enable-background:new 0 0 400 400;" xml:space="preserve">
<path d="M199.8,78.1c-75.9,0-137.3,56-137.3,66.2c0,3.4,5.4,12.1,15.5,22.3c2.2,2.2,4.4,4.5,6.4,6.9c53.6,64.7-8.8,115.2,31.3,115.8
	c32.8-0.4-10.4-81.3,14.5-85.4c2.1-0.3,4.2,0,6.2,0.8c18.3,7.3,39.6,12.2,63.4,12.2c84.9,0,137.6-61.9,137.6-72.5
	C337.4,134.1,275.7,78.1,199.8,78.1z M199.8,185.4c-36.8-1.3-77.7-14.3-104.8-35c-4.3-3.3-4.9-9.5-1.2-13.5
	c22.8-23.9,67.3-46.7,106-46.7c39,0,82.2,22.2,106.3,47c3.7,3.8,3.3,9.9-0.7,13.2C279.7,171.8,236.6,186.7,199.8,185.4z"/>
</svg>
