<?xml version="1.0" encoding="UTF-8" standalone="no"?>
<svg
   xmlns:dc="http://purl.org/dc/elements/1.1/"
   xmlns:cc="http://creativecommons.org/ns#"
   xmlns:rdf="http://www.w3.org/1999/02/22-rdf-syntax-ns#"
   xmlns:svg="http://www.w3.org/2000/svg"
   xmlns="http://www.w3.org/2000/svg"
   viewBox="0 0 533.33331 533.33331"
   height="533.33331"
   width="533.33331"
   xml:space="preserve"
   id="svg2"
   version="1.1"><metadata
     id="metadata8"><rdf:RDF><cc:Work
         rdf:about=""><dc:format>image/svg+xml</dc:format><dc:type
           rdf:resource="http://purl.org/dc/dcmitype/StillImage" /></cc:Work></rdf:RDF></metadata><defs
     id="defs6"><clipPath
       id="clipPath18"
       clipPathUnits="userSpaceOnUse"><path
         id="path16"
         d="M 0,400 H 400 V 0 H 0 Z" /></clipPath></defs><g
     transform="matrix(1.3333333,0,0,-1.3333333,0,533.33333)"
     id="g10"><g
       id="g12"><g
         clip-path="url(#clipPath18)"
         id="g14"><g
           transform="translate(102.855,158.5156)"
           id="g20"><path
             id="path22"
             style="fill:#000000;fill-opacity:1;fill-rule:nonzero;stroke:none"
             d="M 0,0 C -0.016,0.716 -3.465,3.4 -4.165,3.869 -4.866,4.338 -6.615,2.611 -6.746,2.006 -6.878,1.4 -3.299,-5.061 -2.573,-4.979 -1.847,-4.898 0.016,-0.716 0,0 m 58,-11.381 c 0,-3.909 -0.171,-7.831 0.108,-11.72 0.08,-1.116 1.397,-3.003 2.259,-3.069 8.078,-0.618 15.95,-0.151 22.818,5.089 7.54,5.753 9.309,15.619 3.715,23.185 -0.776,1.05 -2.615,1.808 -3.983,1.843 C 75.813,4.129 68.702,3.939 61.597,4.077 58.793,4.131 57.837,3.085 57.956,0.345 58.124,-3.558 57.999,-7.472 58,-11.381 m -0.007,128.716 c 0,-17.254 0.276,-34.515 -0.158,-51.759 -0.142,-5.656 1.676,-6.626 6.826,-6.545 19.384,0.303 38.777,0.007 58.164,0.168 10.425,0.086 20.981,-0.289 31.24,1.192 19.409,2.803 34.221,13.111 42.244,31.322 9.781,22.201 7.179,52.847 -15.402,70.235 -13.131,10.111 -27.516,15.213 -43.99,8.144 -9.474,-4.065 -14.327,-11.026 -13.513,-21.306 0.556,-7.037 2.471,-13.964 3.722,-20.95 1.531,-8.53 2.179,-16.996 -2.569,-24.871 -4.56,-7.564 -12.947,-11.256 -20.949,-9.291 -8.047,1.975 -14.007,9.087 -14.451,17.777 -0.179,3.513 0.229,7.092 0.708,10.595 1.082,7.908 3.175,15.763 3.404,23.682 0.411,14.175 -9.255,25.084 -23.252,27.644 -2.447,0.447 -5.08,0.347 -7.345,1.228 -4.346,1.689 -4.736,-0.378 -4.718,-3.901 0.088,-17.787 0.04,-35.575 0.039,-53.364 M -1.093,142.42 c 10e-4,25.63 -0.005,51.261 0.005,76.892 0.002,7.688 2.17,10.103 9.633,10.11 47.523,0.048 95.051,0.414 142.568,-0.138 25.064,-0.291 48.508,-7.309 68.661,-22.826 22.341,-17.202 36.28,-39.63 40.591,-67.783 3.041,-19.866 2.253,-39.485 -3.539,-58.758 C 252.655,66.037 245.47,53.888 236.019,42.772 218.308,21.942 195.402,10.648 169.143,6.29 155.775,4.071 141.938,4.458 128.303,4.182 c -4.409,-0.09 -7.064,-1.49 -7.28,-5.654 -0.27,-5.206 -0.747,-10.746 0.681,-15.608 1.777,-6.056 6.136,-9.632 13.591,-9.405 16.893,0.515 33.813,0.171 50.722,0.157 6.587,-0.005 9.818,-1.814 10.151,-8.08 0.59,-11.107 0.025,-22.278 -0.13,-33.421 -0.062,-4.463 -2.572,-6.884 -6.91,-7.207 -5.399,-0.402 -7.628,-4.06 -7.507,-8.542 0.145,-5.411 1.266,-10.857 2.499,-16.163 1.362,-5.868 3.954,-11.496 4.904,-17.406 2.213,-13.78 -5.698,-26.177 -17.772,-28.91 -12.216,-2.765 -21.281,4.981 -19.473,17.34 0.995,6.804 3.832,13.32 5.174,20.097 0.77,3.891 2.797,11.037 0.253,12.082 -2.545,1.046 -6.793,-3.203 -10.174,-4.838 -0.469,-0.227 -0.839,-0.654 -1.261,-0.982 -13.131,-10.234 -21.768,-7.37 -26.764,8.714 -1.524,4.907 -3.195,9.835 -5.509,14.393 -0.871,1.713 -3.739,3.368 -5.726,3.405 -15.124,0.282 -30.257,0.053 -45.384,0.231 -3.593,0.043 -4.502,-1.187 -4.462,-4.606 0.162,-14.059 0.073,-28.121 0.064,-42.182 -0.005,-8.139 -2.359,-10.565 -10.273,-10.572 -13.349,-0.01 -26.698,-0.01 -40.048,0.001 -6.197,0.005 -8.704,2.375 -8.737,8.583 -0.072,13.349 0.021,26.699 -0.038,40.048 -0.045,10.035 1.037,8.515 -8.377,8.647 -3.382,0.048 -6.781,-0.204 -10.142,0.063 -3.571,0.283 -4.842,-1.232 -4.615,-4.59 0.585,-8.692 1.435,-17.382 1.573,-26.084 0.083,-5.267 -0.304,-10.741 -1.73,-15.766 -1,-3.52 -3.534,-7.147 -6.395,-9.49 -7.705,-6.313 -18.02,-1.379 -18.708,9.153 -0.411,6.296 0.795,12.722 1.521,19.061 0.949,8.286 1.225,16.488 -4.002,23.573 -1.384,1.876 -3.938,3.46 -6.229,3.986 -6.738,1.549 -9.42,4.207 -9.512,11.164 -0.12,9.076 -0.138,18.156 0.004,27.231 0.126,8.076 3.336,11.062 11.419,11.071 6.408,0.006 12.825,0.21 19.219,-0.081 3.533,-0.16 5.021,1.237 5.992,4.439 2.492,8.219 -0.742,19.372 -7.644,24.629 -1.151,0.876 -2.91,1.253 -4.41,1.314 -4.264,0.173 -8.542,0.011 -12.812,0.079 -8.118,0.128 -11.705,3.587 -11.775,11.58 -0.094,10.678 -0.08,21.359 -0.005,32.037 0.057,8.041 3.539,11.434 11.78,11.463 16.553,0.056 33.109,0.173 49.658,-0.089 4.336,-0.068 5.308,1.351 5.283,5.414 -0.158,25.986 -0.08,51.973 -0.08,77.959" /></g></g></g></g></svg>