<?xml version="1.0" encoding="utf-8"?>
<!-- Generator: Adobe Illustrator 22.1.0, SVG Export Plug-In . SVG Version: 6.00 Build 0)  -->
<svg version="1.1"
	 id="Layer_1" inkscape:version="0.92.1 r15371" sodipodi:docname="braille.svg" xmlns:cc="http://creativecommons.org/ns#" xmlns:dc="http://purl.org/dc/elements/1.1/" xmlns:inkscape="http://www.inkscape.org/namespaces/inkscape" xmlns:rdf="http://www.w3.org/1999/02/22-rdf-syntax-ns#" xmlns:sodipodi="http://sodipodi.sourceforge.net/DTD/sodipodi-0.dtd" xmlns:svg="http://www.w3.org/2000/svg"
	 xmlns="http://www.w3.org/2000/svg" xmlns:xlink="http://www.w3.org/1999/xlink" x="0px" y="0px" viewBox="0 0 412 412"
	 style="enable-background:new 0 0 412 412;" xml:space="preserve">
<sodipodi:namedview  bordercolor="#666666" borderopacity="1" gridtolerance="10" guidetolerance="10" id="namedview17" inkscape:current-layer="Layer_1" inkscape:cx="-250.39679" inkscape:cy="379.51267" inkscape:pageopacity="0" inkscape:pageshadow="2" inkscape:window-height="1017" inkscape:window-maximized="1" inkscape:window-width="1920" inkscape:window-x="1358" inkscape:window-y="-8" inkscape:zoom="0.8100835" objecttolerance="10" pagecolor="#ffffff" showgrid="false">
	</sodipodi:namedview>
<g>
	<path d="M115.5,175.5c-16.4-27.3-20.5-42.4-7.7-66.7c4.2-7.9,9.6-15.1,15.6-21.7c5.9-6.5,9.5-15.1,9.5-24.6
		C133,42.4,116.6,26,96.5,26c-20.3,0-36.6,16.3-36.7,36.6c0,8.5,2.9,16.4,7.9,22.6c1.5,1.9,2.9,3.7,4.2,5.7
		c25,39.1,17.4,40.9-2.9,93.7c-1.4,3.6-3.1,7.1-4.9,10.5c-2.6,5-4.1,10.7-4.2,16.7c-0.1,20.3,16.1,36.7,36.5,36.8
		c20.1,0.1,36.4-16.1,36.6-36.5c0-8.8-3-16.9-8.2-23.2C121.3,184.7,118.3,180.2,115.5,175.5z"/>
	<path d="M96.9,312.9c-20.4-0.1-36.9,15.9-37.1,36C59.6,369.3,75.6,385.7,96,386c20.3,0.3,36.7-15.9,36.9-36.3
		C133.1,329.6,116.9,313.1,96.9,312.9z"/>
	<path d="M352.1,212.1c0-20.1-16.4-36.6-36.5-36.7c-20.2,0-36.5,16.3-36.5,36.6c0,8.5,2.8,16.3,7.6,22.5c2.8,3.6,5.4,7.2,7.7,11.1
		c19.7,33.7,12.5,37.1-3.8,72.2c-2.1,4.6-4.4,9.1-6.9,13.6c-2.9,5.3-4.6,11.3-4.7,17.9c-0.1,20.3,16.1,36.6,36.3,36.7
		c20.2,0.1,36.5-16,36.7-36.4c0.1-8.2-2.7-15.8-7.3-22c-2.8-3.7-5.5-7.3-8-11.2c-20-30.7-23.9-38.9-5.6-66.2
		c3-4.5,6.5-8.6,10.3-12.4C348,231.2,352.1,222.1,352.1,212.1z"/>
	<path d="M306.3,103.6c12.8,24.3-13.4,52.3,9.1,57.5c26.4-2.3-2.5-29.5,11.6-57.5c2.4-4.7,6-8.5,10.2-11.6
		c9.1-6.7,15-17.4,14.9-29.5c-0.1-20.3-16.6-36.6-36.9-36.5c-20.1,0.1-36.3,16.5-36.2,36.6c0.1,13.5,7.2,25.1,17.8,31.5
		C300.8,96.4,304.2,99.6,306.3,103.6z"/>
</g>
</svg>
