<?xml version="1.0" encoding="utf-8"?>
<!-- Generator: Adobe Illustrator 23.0.6, SVG Export Plug-In . SVG Version: 6.00 Build 0)  -->
<svg version="1.1" id="Layer_1" xmlns="http://www.w3.org/2000/svg" xmlns:xlink="http://www.w3.org/1999/xlink" x="0px" y="0px"
	 viewBox="0 0 400 400" style="enable-background:new 0 0 400 400;" xml:space="preserve">
<path d="M199.7,280c-29.4,0-58.8,0-88.2,0c-5.5,0-6.1-0.6-6.1-6.2c0-7.7-0.2-15.4,0.1-23c0.1-2,1.7-4.1,2.8-5.9
	c0.9-1.6,3-4.9,3.9-6.4c9.4-16.5,12.2-32,8.9-50.7c-1.3-7-3.6-11.9-8.5-18c-1.1-1.6-2.5-3.9-2.5-5.4c-0.2-11.3,0-22.5-0.1-33.8
	c0-3.7,1.6-5.2,5.3-5.1c7.7,0.2,15.4-0.1,23,0.1c3.6,0.1,4.6-1,4-4.6c-2.2-14.4-3.7-28.9-1.4-43.5c5-31.1,21.8-53.1,51.2-64.5
	C219.8,2.2,248,2.7,276,12.4c6,2.1,6.3,2.8,5,9c-2.3,11-4.3,22.1-7.2,32.9c-1.6,6-4.6,11.8-7.7,17.2c-2.3,4.1-3.3,7.4-1,11.8
	c3,5.9,1.5,11.7-3.6,16c-5.1,4.3-13.3,5.3-18.2,2.1c-3.5-2.3-5-5.8-4.8-9.9c0.2-2.9,0.7-5.8,1.5-8.6c3.9-14.1-3.6-22.9-18.3-22.3
	c-12.7,0.5-18.1,7.5-21.6,20.1c-3.8,13.9-1.5,27.8,2,41.6c0.7,2.8,2.8,3.1,5.2,3.1c15.5,0,31,0,46.5,0c4.7,0,5.7,0.9,5.7,5.5
	c0,10.7-0.1,21.5,0.1,32.2c0,3.6-1.9,5.5-5,5.2c-7.9-0.8-14,1.8-19.2,7.8c-6.3,7.3-10.5,15.3-11,24.9c-0.6,10.7,3.6,19.2,12.9,24.7
	c2.7,1.6,6.2,2.6,9.3,2.6c14,0.3,28.1,0.1,42.1,0.1c5.5,0,6.2,0.7,6.2,6.2c0,12.8,0,25.7,0,38.5c0,6.2-0.5,6.7-6.9,6.8
	C258.4,280,229.1,280,199.7,280z M193.3,228.5C193.3,228.5,193.3,228.5,193.3,228.5c1.7,0,3.4,0.1,5.2,0c5.5-0.1,8.7-3.2,7.7-8.6
	c-0.6-3.3-0.9-4.4-2.8-7.4c-1.6-2.6-4.7-2.4-6.7-0.1c-4.3,5-6.9,8.4-11.1,13.5c-1.2,1.5-1,2.4,1,2.5
	C188.8,228.6,191.1,228.5,193.3,228.5z M215.5,168.7c-0.9,0-1.8,0-2.8,0c-3.6,0-5.2,1.4-5,5.3c0.2,3.4-0.3,6.8-0.6,10.3
	c-0.2,2.3,0.7,2.9,2.8,2c4.7-2,8.4-5.1,10.6-9.7C223.2,170.9,221.6,168.4,215.5,168.7z M147.5,168.4c-1.1-0.2-2.2-0.3-3.1-0.3
	c-0.8,0-2.1,0-2.8,0.1s-1.6,0.1-2.1,0.3c-1.7,0.3-1.9,1.8-1,4.1c1.9,4.9,4.8,7.8,9.4,9.6c1.7,0.6,3.4-0.2,3.4-1.8
	c0-3.8-0.1-6.6-1.2-10.1C149.7,169,148.6,168.6,147.5,168.4z"/>
</svg>
