<?xml version="1.0" encoding="utf-8"?>
<!-- Generator: Adobe Illustrator 22.1.0, SVG Export Plug-In . SVG Version: 6.00 Build 0)  -->
<!DOCTYPE svg PUBLIC "-//W3C//DTD SVG 1.1//EN" "http://www.w3.org/Graphics/SVG/1.1/DTD/svg11.dtd">
<svg version="1.1" id="Layer_1" xmlns="http://www.w3.org/2000/svg" xmlns:xlink="http://www.w3.org/1999/xlink" x="0px" y="0px"
	 viewBox="0 0 400 400" enable-background="new 0 0 400 400" xml:space="preserve">
<g>
	<path d="M199.5,393.9c-41.4,0-82.9,0-124.3,0c-7.7,0-8.6-0.9-8.6-8.7c0-10.8-0.3-21.7,0.2-32.5c0.1-2.9,2.3-5.7,4-8.4
		c1.3-2.2,4.3-6.8,5.6-9.1c13.3-23.2,17.3-45.1,12.5-71.5c-1.8-9.9-5.1-16.8-12-25.4c-1.6-2.3-3.6-5.5-3.6-7.7
		c-0.2-15.9-0.1-31.7-0.1-47.6c0-5.2,2.3-7.3,7.5-7.2c10.8,0.2,21.7-0.1,32.5,0.1c5,0.1,6.4-1.4,5.6-6.6c-3.1-20.3-5.2-40.7-2-61.3
		c7-43.9,30.8-74.8,72.1-90.9c39.1-15.2,78.8-14.4,118.3-0.7c8.5,2.9,8.9,4,7,12.8c-3.3,15.5-6,31.2-10.2,46.4
		c-2.3,8.5-6.4,16.6-10.9,24.2c-3.3,5.7-4.6,10.4-1.4,16.6c4.3,8.4,2.1,16.5-5.1,22.6c-7.2,6.1-18.8,7.4-25.6,2.9
		c-5-3.3-7.1-8.2-6.8-13.9c0.2-4.1,1-8.1,2.1-12.1c5.4-19.9-5.1-32.3-25.8-31.4c-17.9,0.8-25.5,10.6-30.4,28.4
		c-5.3,19.6-2.1,39.2,2.8,58.6c1,3.9,3.9,4.4,7.4,4.4c21.8-0.1,43.7,0,65.5,0c6.6,0,8,1.3,8,7.8c0.1,15.1-0.1,30.2,0.1,45.4
		c0.1,5.1-2.7,7.8-7,7.4c-11.2-1.1-19.8,2.6-27.1,11.1c-8.8,10.2-14.8,21.6-15.6,35.1c-0.8,15.1,5.1,27.1,18.1,34.8
		c3.8,2.2,8.7,3.6,13.1,3.7c19.8,0.4,39.6,0.2,59.4,0.2c7.8,0,8.7,0.9,8.7,8.7c0,18.1,0,36.2,0,54.3c0,8.7-0.7,9.5-9.7,9.5
		C282.4,393.9,241,393.9,199.5,393.9z M190.6,321.3C190.6,321.3,190.6,321.3,190.6,321.3c2.4,0,4.9,0.1,7.3,0
		c7.7-0.2,12.2-4.5,10.8-12.1c-0.8-4.7-1.3-6.3-4-10.4c-2.3-3.6-6.6-3.4-9.4-0.1c-6,7.1-9.8,11.9-15.7,19c-1.7,2.1-1.4,3.4,1.4,3.5
		C184.2,321.4,187.4,321.3,190.6,321.3z M221.8,236.9c-1.3,0-2.6,0-3.9,0c-5,0-7.4,2-7,7.5c0.3,4.8-0.4,9.7-0.8,14.5
		c-0.2,3.2,1,4.2,3.9,2.9c6.6-2.8,11.8-7.2,14.9-13.7C232.7,240,230.4,236.5,221.8,236.9z M125.9,236.6c-1.5-0.2-3.2-0.4-4.3-0.4
		c-1.2,0-2.9,0-4,0.2c-1.1,0.1-2.2,0.2-2.9,0.4c-2.4,0.5-2.6,2.5-1.4,5.8c2.6,6.9,6.7,11,13.3,13.5c2.4,0.9,4.9-0.3,4.9-2.5
		c0-5.3-0.1-9.3-1.7-14.2C129.1,237.4,127.5,236.8,125.9,236.6z"/>
</g>
</svg>
