<?xml version="1.0" encoding="utf-8"?>
<!-- Generator: Adobe Illustrator 23.0.6, SVG Export Plug-In . SVG Version: 6.00 Build 0)  -->
<svg version="1.1" id="Layer_1" xmlns="http://www.w3.org/2000/svg" xmlns:xlink="http://www.w3.org/1999/xlink" x="0px" y="0px"
	 viewBox="0 0 400 400" style="enable-background:new 0 0 400 400;" xml:space="preserve">
<path d="M133.2,202.5c-0.1-4.7-1.2-6.5-4.2-8.8c-1.9-1.5-3.3-3.8-5.4-5.1c-5.9-3.9-12.1-7.3-17.9-11.1c-3.8-2.5-7.3-5.6-11-8.4
	c-2-1.5-4.2-2.7-6.2-4.1c-4.2-3-8.4-6.1-12.7-9.2c-0.6-0.4-1-1-1.5-1.4c-1.9-1.4-3.6-2.7-5-4.8c-1.4-2.1-3.7-3.7-5.7-5.4
	c-1.6-1.4-1.6-2.7,0-4.1c1.3-1.2,2.6-2.4,3.9-3.7c1-1,1.8-2.2,2.7-3.3c0.2-0.3,0.4-0.6,0.6-0.8c6.5-5,12.5-10.5,19.9-14.4
	c3.2-1.7,5.8-4.6,8.9-6.7c4.4-3.1,8.9-5.9,13.5-8.8c4.6-2.9,11.2-7.3,13.1-7.9s3.1-1.3,4.2-1.9c2.2-1.1,4.4-2.4,6.6-3.5
	c1.7-0.8,3.4-1.6,5.1-2.3c1.8-0.7,2.4-0.2,2.7,1.7c0.9,6.3,1.9,12.7,2.9,19c0.5,3.2,2,3.9,5.1,2.9c1.6-0.5,3.3-0.9,5-0.9
	c7.5-0.1,15.1-0.2,22.6,0c5.9,0.2,11.8,0.8,17.7,1.1c2.8,0.1,5.6-0.3,8.5-0.3c12.6-0.3,24.4-0.3,29.5-0.3c5.1,0,7.9-0.3,10.7,0.2
	s4.9,0.4,5.4-3c0.6-4.4,1.1-8.7,1.7-13.1c0.3-2,0.6-3.9,0.8-5.9c0.2-1.9,1.6-1.7,2.8-1.3c2.7,1.1,3.1,1.4,7.9,3.6
	c4.8,2.2,7,2.9,11.2,5.6s8.3,5.4,12.6,7.8c5.2,2.9,9.9,6.4,14.4,10.3c1.9,1.6,3.9,3,6.1,4.2c5.5,3.3,10.9,6.8,15.5,11.3
	c1.7,1.6,2.6,2.3,5.5,4.9c2.9,2.6,2.2,1.8,4.6,4.6s3,5.4,1.6,8.9c-1.3,3.3-2.5,6.7-3.4,10.1c-0.4,1.4-0.1,3.1,0.1,4.6
	c0.4,3.5,1.1,6.9,1.4,10.4c0.2,2.7-2.2,6.5-4.4,7.2c-2.9,0.8-5.6-0.1-7.9-2c-1.9-1.6-2-3.3-2.1-6c-0.1-2.8,1.2-5.2,1.7-7.8
	c0.1-0.5,0,1.3,0.3-1.4s0-3.7-1.2-4.2c-1.1-0.5-2.4,0.8-3.4,1.4c-3.1,1.9-6.3,3.8-9.3,5.8c-2.6,1.7-5.1,3.5-7.4,5.6
	c-4.5,4.2-9.9,6.9-15.1,10.1c-4.7,2.9-10.3,6.9-13.9,9s-7,3.6-9.9,4.8c-2.9,1.2-4.1,1.3-5.6,1.8c-1.3,0.4-2-0.3-2.2-1.7
	c-0.8-6.5-1.7-12.9-2.6-19.4c-0.4-2.8-2.2-3.5-5.3-2.6c-1.7,0.5-3.4,0.9-5.2,0.9c-4.9,0.1-9.8-0.3-14.7,0.2c-4.5,0.4-8.9,1.9-11,6.5
	c-1.3,2.8-1.2,5.8-0.5,8.9c0.9,4.4,2.7,8.6,2.2,13.4c-0.5,4.7-4.7,10.5-9.3,11.5c-1.1,0.2-2.7,0.1-3.5-0.5c-3.2-2.6-7.3-4.3-8.8-8.3
	c-1.1-2.9-2.3-6-0.9-9.3c1.2-2.9,2.1-5.9,3.2-8.9c0.8-2.3,0-4.3-1.7-5.8c-2.7-2.5-5.6-4.9-8.5-7.2c-0.8-0.6-1.5-1-3-0.9
	c-1.5,0.1-8.2,0.5-12.4,0.7c-4.2,0.1-8.4,0.1-12.6,0c-2.4-0.1-4.7-0.5-7-1c-3.3-0.8-4.6-0.2-5.2,3.1c-0.7,3.9-1.1,7.9-1.6,11.9
	c-0.2,1.4-0.5,2.8-0.8,4.2c-0.8,3.9,1.1,7.1,2.7,10.4c2.2,4.4,1.9,8.4-0.7,12.5c-2.1,3.3-6.9,3.3-9.5,0.2
	C135,213.1,133.4,207.2,133.2,202.5z"/>
</svg>
