<?xml version="1.0" encoding="utf-8"?>
<!-- Generator: Adobe Illustrator 22.1.0, SVG Export Plug-In . SVG Version: 6.00 Build 0)  -->
<!DOCTYPE svg PUBLIC "-//W3C//DTD SVG 1.1//EN" "http://www.w3.org/Graphics/SVG/1.1/DTD/svg11.dtd">
<svg version="1.1"
	 id="Layer_1" inkscape:version="0.92.1 r15371" sodipodi:docname="wrench.svg" xmlns:cc="http://creativecommons.org/ns#" xmlns:dc="http://purl.org/dc/elements/1.1/" xmlns:inkscape="http://www.inkscape.org/namespaces/inkscape" xmlns:rdf="http://www.w3.org/1999/02/22-rdf-syntax-ns#" xmlns:sodipodi="http://sodipodi.sourceforge.net/DTD/sodipodi-0.dtd" xmlns:svg="http://www.w3.org/2000/svg"
	 xmlns="http://www.w3.org/2000/svg" xmlns:xlink="http://www.w3.org/1999/xlink" x="0px" y="0px" viewBox="0 0 400 400"
	 style="enable-background:new 0 0 400 400;" xml:space="preserve">
<sodipodi:namedview  bordercolor="#666666" borderopacity="1" gridtolerance="10" guidetolerance="10" id="namedview7" inkscape:current-layer="Layer_1" inkscape:cx="541.64441" inkscape:cy="339.2902" inkscape:pageopacity="0" inkscape:pageshadow="2" inkscape:window-height="705" inkscape:window-maximized="1" inkscape:window-width="1366" inkscape:window-x="-8" inkscape:window-y="235" inkscape:zoom="0.921875" objecttolerance="10" pagecolor="#ffffff" showgrid="false">
	</sodipodi:namedview>
<path d="M374.2,166.7c0.6-1.3,1.2-2.6,1.7-3.9c5.8-13.8,9-28.1,8.1-44.3l0,0l0,0l0,0c-4,1.9-7,3.2-9.9,4.7
	c-15.2,8-30.4,16.3-45.8,24.2c-4.3,2.2-9.6,0.1-11.3-4.5c-11-29.6-2.7-69.1,25.5-103.7c-4.3-2.9-6.9-4.9-9.6-6.6
	c-37.2-20.4-74.4-19.9-109.7,3.2c-35.6,23.3-49.7,58-45.5,99.9c0.7,6.5-1,10.3-5.3,14.6c-45.9,45.5-91.6,91.3-137.3,137
	c-3.7,3.8-7.4,7.8-10.3,12.2c-17.8,26.8-8.2,62.2,20.4,76.7c21.9,11.1,45.7,6.4,65.5-13.3c44.8-44.7,89.6-89.5,134.2-134.4
	c4.7-4.7,8.8-6.2,15.7-4.8c29.8,6.1,60.4-2.1,83.7-20.1c40.8-5.3-18.8,87.8,18.4,89.3C401.9,296.3,366.8,244.9,374.2,166.7z
	 M264.6,122.5c0.8-11.6,1.6-23.3,1.5-34.9c0-6.6,2.4-10.1,8.2-13c4.3-2.2,8.6-4.3,12.9-6.6c6.2-3.2,13.8,0.5,15.1,7.4
	c4.2,23.1-2.6,46.4-14.7,58c-4.2,4-10.5,4.7-15.4,1.8c-0.4-0.2-0.8-0.5-1.3-0.7C265.8,131.7,264.2,128.1,264.6,122.5z"/>
</svg>
