<?xml version="1.0" encoding="utf-8"?>
<!-- Generator: Adobe Illustrator 23.0.1, SVG Export Plug-In . SVG Version: 6.00 Build 0)  -->
<svg version="1.1"
	 id="svg4" inkscape:version="0.92.1 r15371" sodipodi:docname="sass.svg" xmlns:cc="http://creativecommons.org/ns#" xmlns:dc="http://purl.org/dc/elements/1.1/" xmlns:inkscape="http://www.inkscape.org/namespaces/inkscape" xmlns:rdf="http://www.w3.org/1999/02/22-rdf-syntax-ns#" xmlns:sodipodi="http://sodipodi.sourceforge.net/DTD/sodipodi-0.dtd" xmlns:svg="http://www.w3.org/2000/svg"
	 xmlns="http://www.w3.org/2000/svg" xmlns:xlink="http://www.w3.org/1999/xlink" x="0px" y="0px" viewBox="0 0 128 128"
	 style="enable-background:new 0 0 128 128;" xml:space="preserve">
<sodipodi:namedview  bordercolor="#666666" borderopacity="1" gridtolerance="10" guidetolerance="10" id="namedview6" inkscape:current-layer="svg4" inkscape:cx="-44.475878" inkscape:cy="11.541025" inkscape:pageopacity="0" inkscape:pageshadow="2" inkscape:window-height="705" inkscape:window-maximized="1" inkscape:window-width="1366" inkscape:window-x="-8" inkscape:window-y="245" inkscape:zoom="2" objecttolerance="10" pagecolor="#ffffff" showgrid="false">
	</sodipodi:namedview>
<path d="M126.7,83.9c0-0.2,0-0.2,0-0.3c-0.4-3.6-2.4-6.5-5.2-8.7c-3.3-2.6-7.2-3.6-11.2-3.8c-3.3-0.1-6.6,0.4-9.8,1.5
	c-0.6,0.2-1.2,0.4-1.8,0.7c-0.5,0.2-1.2,0-1.4-0.5c-0.9-1.8-1.9-3.5-2.2-5.6c-0.2-1.5-0.4-3.1,0-4.6c0.4-1.5,0.8-2.9,1.2-4.4
	c0.2-0.6-0.1-1.3-0.7-1.5c-0.2-0.1-0.5-0.2-0.7-0.2c-1.8-0.3-3.5-0.1-5.2,0.4c-0.6,0.2-1,0.5-1.2,1.2c-0.1,0.4-0.2,0.7-0.3,1.1
	c-0.4,1.6-0.8,3.2-1.5,4.6c-1.8,3.7-3.2,6.2-5.3,9.7c-0.1,0.2-0.5,0.9-0.9,1.4c-0.2,0.4-0.8,0.4-1.1,0c-0.6-1.2-1.1-2.3-1.3-3.5
	c-0.3-1.8-0.5-3.7,0-5.5c0.3-1.4,0.8-2.7,1.2-4.1c0.1-0.5,0-1-0.5-1.2c-0.3-0.2-0.6-0.3-0.9-0.4l0,0c-5.7-1.4-7.9-7.5-3.9-12.7l0,0
	c3.1-3.8,5.4-8.1,5.9-13.2c0.3-2.7,0-5.4-1.3-7.9c-1.4-2.7-3.6-4.7-6.3-6.1c-3.9-2-8-3.2-12.3-3.2H59c-4.8,0-12.6,1.3-17.1,2.9
	C37.8,21.3,33.8,23,30,25c-7.7,3.8-14.8,8.5-20.7,14.8C6.3,43,3.8,46.5,2.4,50.6c-0.4,1.2-0.8,2.5-1.1,3.7l-0.1,1.8
	c0,0.7,0.2,1.2,0.3,1.6c0.8,2.9,2.4,5.5,4.3,7.7c2.7,3.3,6.1,5.9,9.6,8.4c3,2.1,6,4.2,9,6.4c0.1,0.1,0.3,0.2,0.4,0.3
	c0.6,0.4,0.5,1.3-0.1,1.6l-1,0.5c-3.5,1.8-6.9,3.9-10.1,6.3c-2.2,1.7-4.3,3.5-5.8,5.8c-2.3,3.7-3.1,7.6-1.4,11.8
	c0.3,0.7,0.7,1.4,1.2,2l0,0c7.3,7.8-1.3,18.7,4.6,19c6.2-0.2-3.4-13,6.9-17.2c2.2-0.6,4.3-1.5,6.2-2.8c4-2.7,6.7-6.3,8.1-10.9
	c0,0,0,0.1,0,0.1c1.4-4.8,3.7-7.2,6.3-1.7l0-0.1c0.4,1,1,2,1.6,2.9c1.6,2.2,5.3,2.3,6.9,0.1c0.6-0.8,1.2-1.6,1.6-2.5
	c1.1-2.3,1.6-3.4,2.7-5.8c0,0,0.3-0.7,0.5-0.6c0.2,0.1,0.1,1,0,2c-0.1,1.5,0,3,0.5,4.5c0.4,1.2,1.2,2.2,2.6,2.3
	c1,0.1,1.7-0.3,2.5-0.9c1.1-0.9,2-2,2.7-3.2c1.9-3.5,3.9-7,5.6-10.5c1.9-3.9,2.9-6.7,4.6-10.7c0,0,0.3-0.9,0.8-0.9s0.8,2.3,1.3,3.8
	c0.6,1.7,1.4,3.4,2.2,5.1c0.5,0.9,0.3,1.5-0.6,2.3c-1.9,1.9-3.5,4-5.1,6.2c-0.8,1.2-1.9,2.3-2.7,3.5c-0.2,0.4-0.4,0.9-0.5,1.4
	c-0.1,0.9,0.4,1.8,1.4,2c0.9,0.2,1.8,0.3,2.7,0.2c3.1-0.2,5.9-1.3,8.4-3.2c3.2-2.4,4.3-5.6,3.5-9.5c-0.2-1-0.6-2.1-0.9-3.1
	c-0.1-0.4-0.2-0.7,0-1c4-4.7,5.3,0.9,4.2,5.9c-0.1,0.3-0.2,0.5-0.3,0.8c-0.4,1.1-0.6,2.2-0.5,3.4c0.2,1.8,2,3,3.7,2.5
	c3.8-0.9,7-2.7,9.4-5.9c1.6-2.2,1.8-4.6,1.1-7.1c-0.1-0.3-0.2-0.7-0.3-1c-0.2-0.6,0.1-1.3,0.8-1.5c0.6-0.2,1.1-0.4,1.7-0.5
	c5-1.1,9.9-0.9,14.7,0.9c2.8,1,5.1,2.8,6.4,5.6c1.6,3.4,0.7,6.6-2.5,8.7c-0.3,0.2-0.6,0.4-0.9,0.6c-0.2,0.2-0.2,0.5-0.2,0.7
	c0,0,0,0,0,0.1l0,0c6.4,3.2-2.6,25,3,25.5c6.4-0.3-1.8-18.2,3.2-29.6c0.4-0.8,0.7-1.7,0.9-2.7c0,0,0-0.4,0-0.9
	C126.7,84.3,126.7,83.9,126.7,83.9z M29.1,90.4c-0.3,4.5-2.4,8.1-5.7,11c-1.9,1.6-4,2.8-6.5,3.2c-0.9,0.1-1.8,0.2-2.7-0.2
	c-1.2-0.5-1.5-1.6-1.5-2.8c0-1.9,0.6-3.6,1.5-5.2c1.2-2.1,2.9-3.7,4.7-5.2c2.5-2.1,5.5-3.9,8.3-5.6c0.6-0.4,1.4,0,1.5,0.7
	C29.1,87.6,29.2,89,29.1,90.4z M39.5,79.6c-0.6,2.2-1,4.3-1.2,6.5c-0.6,3.7-3.4-0.3-5-3.1c-0.3-0.5-0.1-1,0.4-1.3l4.3-2.5
	c0,0,1-0.6,1.3-0.4C39.6,79.2,39.6,79.2,39.5,79.6z M54.3,71c-0.2,1.4-0.5,2.8-0.9,4.2c-1.4,4.8-3.3,9.4-5.3,14
	c-0.4,0.8-0.9,1.6-1.4,2.4c-0.1,0.1-0.2,0.2-0.3,0.3c-0.6,0.6-1.1,0.5-1.4-0.2c-0.3-0.9-0.5-1.8-0.7-2.7c-0.1-0.6-0.1-1.3-0.1-1.9
	c0-4.5,1.4-8.6,3.7-12.4c1-1.6,2-3.1,3.6-4.1c0.5-0.3,1-0.5,1.6-0.7C53.9,69.7,54.4,70.1,54.3,71z M70.9,64.6
	c-0.2,0.7-0.4,1.3-0.7,2c-2.8,6.4-5.6,12.7-8.5,19c-0.6,1.3-0.7,1.5-1.4,2.8c-0.2,0.3-0.8,1.5-1.2,1.5s-0.4-0.5-0.4-0.6
	c0-0.8,0-1.1,0.2-1.9c0.6-3.1,1.3-6.1,2.1-9.2c0.2-1,0.8-2.8,1-3.8c0.2-0.6,0.2-1.2-0.3-1.8c-0.8-0.9-2.4-1.1-3.4-0.4l-0.4,0.2
	L58,72c0.2-1.5,0.2-3.1-0.2-4.6c-0.5-1.6-2-2.7-3.6-2.6c-0.9,0-1.8,0.2-2.6,0.5c-3.4,1.3-6.1,3.7-8.3,6.6c-0.2,0.3-0.5,0.5-0.8,0.6
	c-2.9,1.6-5.8,3.2-8.7,4.8l-1.5,0.8c-1,0.5-2.2,0.4-3-0.4c-0.4-0.4-0.8-0.8-1.2-1.1c-2.7-2.2-5.5-4.4-8.2-6.6
	c-2.4-1.9-4.8-4-6.6-6.6c-1.3-1.9-2.2-4-2.3-6.4c-0.1-3,0.8-5.8,2.3-8.4c1.3-2.2,2.9-4,4.7-5.8c0.6-0.6,1.4-1.1,2.3-1.3
	c5.5-1.2,7.7,9.1,11.5,13.8c0.1,0.1,0.2,0.2,0.3,0.3c0.3,0.4,0.7,0.7,1.1,1c0,0,0,0,0,0c0.5,0.4,1,0.8,1.5,1.1
	c2.6,1.7,5.6,2.2,8.7,2.4c4.6,0.2,9.2-0.5,13.7-1.7c2-0.6,3.9-1.3,5.7-2.1C68.5,54.6,71.9,58.6,70.9,64.6z M68,44.9
	c-4,4.3-8.9,7.2-14.4,9.1c-1.3,0.5-2.6,0.8-4,1.2c-2.1,0.5-4.3,0.3-6.3-0.4c-8-3.1-15.7-10.6-11.1-20.1c0.8-1.6,2.1-2.8,3.6-3.6
	c3.3-1.6,6.7-3,10.2-4.1c5.5-1.6,11.2-2.6,17-1.9c2.3,0.3,4.5,0.8,6.5,1.9c1.6,0.9,2.8,2,3.4,3.7c0.6,1.7,0.6,3.5,0.2,5.2
	C72.4,39.4,70.5,42.3,68,44.9z M77.4,87.2c-0.3,0.8-0.7,1.6-1.3,2.4c-0.7,1-1.5,1.8-2.3,2.5c-0.9,0.7-1.3,0.9-1.5,0.8
	c-0.3-0.2-0.2-0.6,0.4-1.4c0.8-0.9,1.8-2.1,2.5-2.9c0.6-0.6,1.1-1.3,1.6-1.8c0.6-0.6,0.7-0.5,0.8-0.4C77.6,86.4,77.6,86.7,77.4,87.2
	z M86,73.2c0.9-1.6,2-3.5,2.9-5.2c0.2-0.3,0.6-0.2,0.7,0.1c0.6,2.9,1.5,5.6,2.9,8.2c0.2,0.3,0,0.8-0.3,0.9
	C89.2,78.4,85,76.4,86,73.2z M91.2,88c-0.4,0.2-0.9,0.4-1.4,0.7c-0.4,0.2-0.5,0-0.6-0.4c0-0.2,0-0.5,0.1-0.7
	c0.8-2.7,2.3-5.2,4.4-7.2c0.2-0.2,0.6-0.1,0.6,0.2C95.1,83.5,93.8,86.5,91.2,88z"/>
</svg>
