<?xml version="1.0" encoding="utf-8"?>
<!-- Generator: Adobe Illustrator 23.0.6, SVG Export Plug-In . SVG Version: 6.00 Build 0)  -->
<svg version="1.1" id="Layer_1" xmlns="http://www.w3.org/2000/svg" xmlns:xlink="http://www.w3.org/1999/xlink" x="0px" y="0px"
	 viewBox="0 0 400 400" style="enable-background:new 0 0 400 400;" xml:space="preserve">
<path d="M207.2,225.4c17.4,0.2,34.7,1.6,52.1,1.6c11.4,0,23.6-4.4,34-1.5c16.9,4.6,10.4-6,10.6-12.6c0.3-10,2.3-12,12.7-11.4
	c17.5,1,17.6,1,17.5,19c0,4.5-0.5,9.1-1.2,13.6c-1.4,9.8-3.6,16.9-16.7,18.4c-17.1,1.9-21,13.4-15.3,29.4c2.5,7.1,1.1,15.9,0.2,23.8
	c-0.8,6.8-6.5,8.4-12.5,7.5c-6.5-1-14.5-1-14.9-10.2c-0.4-7.8,0.7-15.7,0.8-23.5c0.1-9.3-4.3-14.5-13.4-16.7
	c-4.6-1.1-5.7,0.3-4.6,4.5c0.7,2.6,1.4,5.2,1.6,7.9c0.2,5.2-2.1,10.2-7.5,9c-3.8-0.8-10-4.1-9.6-8.7c1.8-16.6-9.5-19.2-21.2-23.2
	c-22.7-7.6-45.9-3.9-68.9-4c-7.3,0-14.6,1-21.9,1.1c-17.2,0.3-23.8,6-27.6,22.9c-0.8,3.7-3.5,7.8-6.6,10c-1.7,1.2-6.7-0.4-8.7-2.2
	c-1.9-1.8-3.1-5.9-2.6-8.6c1.2-6.8,2.1-11.6-7.5-7.3c-4.7,2.1-9.7,1.1-9.8-5.4c-0.1-16,0.5-32.1,0.5-48.1c0-6.9,3.4-8.7,9.7-9
	c19.8-0.9,20-1,19.4,19.4c-0.1,5.2,0.7,6.9,6.5,6.4c9.1-0.8,18.3-0.2,27.4-0.2L207.2,225.4z"/>
<path d="M219,163.1c0.9,10.9,1,21.2,1.2,32c0,2.5-3.3,6.3-6,7.6c-4.5,2.1-6.6,3.9-7.1,9.4c-0.3,2.9-4,7.7-7.1,7.7
	c-3.7,0-7.1-3.9-9.7-6.8c-10.1-11-9.2-24.5-8.5-38.2c0.6-11.5,0.2-23.1,0-34.6c0-1.8-0.3-5.4-2-5.4s-3.3,2.8-4.1,4.5
	c-1,2.2-0.3,5.2-1.6,7c-1.5,2-4.8,4.6-6.5,4.1c-2.4-0.7-5.4-3.8-5.8-6.2c-4.1-25.3,9.5-46,18.4-67.9c4.2-10.4,8.7-20.7,13.8-30.7
	c4.4-8.5,6.3-8.7,10.8-0.2c6.7,12.5,12.6,25.5,17.9,38.6c5.8,14.2,15.6,40.5,15.6,43.4s-3.3,4.9-5.4,5.1
	c-14.3,1.6-14.3,1.4-14.3,16.2L219,163.1z"/>
</svg>
