<?xml version="1.0" encoding="utf-8"?>
<!-- Generator: Adobe Illustrator 21.1.0, SVG Export Plug-In . SVG Version: 6.00 Build 0)  -->
<!DOCTYPE svg PUBLIC "-//W3C//DTD SVG 1.1//EN" "http://www.w3.org/Graphics/SVG/1.1/DTD/svg11.dtd">
<svg version="1.1" id="Layer_1" xmlns="http://www.w3.org/2000/svg" xmlns:xlink="http://www.w3.org/1999/xlink" x="0px" y="0px"
	 viewBox="0 0 400 400" enable-background="new 0 0 400 400" xml:space="preserve">
<g>
	<path d="M210.1,269.6c24.6,0.3,49.2,2.2,73.7,2.3c16.1,0,33.4-6.2,48.1-2.2c23.9,6.6,14.7-8.6,15-17.8c0.4-14.2,3.3-17,18-16.2
		c24.8,1.4,24.9,1.4,24.8,26.9c0,6.4-0.8,12.9-1.6,19.3c-1.9,13.9-5.1,24-23.6,26.1c-24.3,2.7-29.7,18.9-21.6,41.7
		c3.6,10,1.6,22.5,0.3,33.7c-1.1,9.6-9.2,12-17.7,10.6c-9.2-1.5-20.5-1.5-21.1-14.5c-0.5-11.1,1-22.2,1.1-33.3
		c0.2-13.2-6.1-20.5-19-23.7c-6.5-1.6-8,0.4-6.5,6.4c0.9,3.7,2,7.4,2.2,11.2c0.3,7.4-3,14.4-10.7,12.7c-5.4-1.2-14.2-5.8-13.6-12.3
		c2.6-23.5-13.5-27.2-30.1-32.8c-32.2-10.8-65-5.5-97.6-5.6c-10.3,0-20.7,1.3-31,1.6c-24.3,0.5-33.7,8.6-39,32.4
		c-1.2,5.3-5,11-9.3,14.1c-2.3,1.7-9.5-0.5-12.4-3.2c-2.7-2.5-4.4-8.3-3.7-12.1c1.7-9.7,3-16.4-10.7-10.4c-6.7,3-13.8,1.6-13.9-7.7
		c-0.2-22.7,0.7-45.4,0.7-68.1c0-9.8,4.8-12.4,13.7-12.8c28-1.2,28.3-1.5,27.5,27.5c-0.2,7.3,1,9.7,9.2,9
		c12.9-1.1,25.9-0.3,38.9-0.3L210.1,269.6z"/>
	<path d="M227,181.3c1.3,15.4,1.5,30,1.7,45.4c0,3.6-4.6,8.9-8.6,10.7c-6.4,3-9.3,5.5-10.1,13.3c-0.4,4.1-5.6,10.9-10.1,10.9
		c-5.2,0-10-5.5-13.8-9.6c-14.3-15.6-13.1-34.8-12-54.1c0.9-16.3,0.3-32.7,0.1-49c0-2.6-0.5-7.6-2.8-7.6s-4.6,3.9-5.7,6.4
		c-1.4,3.1-0.4,7.4-2.3,9.9c-2.1,2.9-6.8,6.5-9.2,5.9c-3.4-1-7.6-5.3-8.2-8.8c-5.8-35.9,13.5-65.2,26.1-96.2
		c6-14.7,12.3-29.4,19.5-43.5c6.2-12.1,8.9-12.3,15.4-0.3c9.4,17.7,17.8,36.1,25.4,54.6c8.2,20.1,22.1,57.4,22.1,61.5
		c0,4.1-4.7,7-7.6,7.3c-20.2,2.3-20.3,2-20.3,22.9L227,181.3z"/>
</g>
</svg>
