<?xml version="1.0" encoding="utf-8"?>
<!-- Generator: Adobe Illustrator 23.0.1, SVG Export Plug-In . SVG Version: 6.00 Build 0)  -->
<svg version="1.1"
	 id="svg6" inkscape:version="0.92.1 r15371" sodipodi:docname="ssh.svg" xmlns:cc="http://creativecommons.org/ns#" xmlns:dc="http://purl.org/dc/elements/1.1/" xmlns:inkscape="http://www.inkscape.org/namespaces/inkscape" xmlns:rdf="http://www.w3.org/1999/02/22-rdf-syntax-ns#" xmlns:sodipodi="http://sodipodi.sourceforge.net/DTD/sodipodi-0.dtd" xmlns:svg="http://www.w3.org/2000/svg"
	 xmlns="http://www.w3.org/2000/svg" xmlns:xlink="http://www.w3.org/1999/xlink" x="0px" y="0px" viewBox="0 0 400 400"
	 style="enable-background:new 0 0 400 400;" xml:space="preserve">
<sodipodi:namedview  bordercolor="#666666" borderopacity="1" fit-margin-bottom="50" fit-margin-left="0" fit-margin-right="0" fit-margin-top="0" gridtolerance="10" guidetolerance="10" id="namedview8" inkscape:current-layer="svg6" inkscape:cx="-44.874083" inkscape:cy="114.42984" inkscape:pageopacity="0" inkscape:pageshadow="2" inkscape:window-height="705" inkscape:window-maximized="1" inkscape:window-width="1366" inkscape:window-x="-8" inkscape:window-y="245" inkscape:zoom="2" objecttolerance="10" pagecolor="#ffffff" showgrid="false">
	</sodipodi:namedview>
<g>
	<path d="M153.4,77.9L153.4,77.9c0-9.6-6.8-16.9-16.8-16.9c-9.5,0-17.1,7.3-17.1,16.8c0,9,7.3,17.1,16.8,17.1
		C145.4,95,153.4,87.9,153.4,77.9z"/>
	<path d="M197.8,311L197.8,311c-7.9,0-17.1,10.6-17.1,17.8c0,0.9,0,2.5,1.2,3.8c15.2,19.2-2,47.6,3.4,58.7c1.5,3.1,5.2,4.4,8.5,3.5
		c15.3-4.4,0.7-35.3,5-63.5c0.6-3.7,1.7-7.4,3-10.9c0.3-0.8,0.5-1.5,0.7-2.3c0,0,0,0,0,0l0,0c0.1-0.7,0.2-1.3,0.2-1.9
		C202.7,313.7,201.1,311.1,197.8,311z"/>
	<path d="M159.3,307.8L159.3,307.8c-8.4,0-20,11-20,19.3c0,4.2,1.7,6.4,6.3,6.4c6,0,14.7-5.1,18.4-12.6c0.3-0.6,0.6-1.2,0.9-1.8
		c0.6-1.3,1-2.8,1.2-4.2c0-0.3,0.1-0.6,0.1-0.8c0-1.2-0.4-2.4-1.2-3.3C162.9,308.5,161.3,307.8,159.3,307.8z"/>
	<path d="M122.5,287.3c-9.3,0-22.3,9.7-22.3,20.6c0,5.4,3.3,7.9,8.2,7.9c9,0,23-9.4,23-20.8C131.4,289.3,127.4,287.3,122.5,287.3z"
		/>
	<path d="M107.3,256.1L107.3,256.1c0-6.5-4.4-9.5-9.6-10c-14.2-1.7-7.6-17.8-2.2-30.6c1.2-2.8,2.6-5.4,4-8.1
		c1.2-2.3,1.9-4.9,1.9-7.8l0,0c0-1.6-0.2-3-0.7-4.3c-0.5-1.4-1-2.8-1.3-4.3c-2.6-13.4,1.9-24.7,9.6-37.6c1.6-2.7,3.5-5.2,5.3-7.6
		c0.9-1.3,1.7-2.7,2.3-4.2c0,0,0-0.1,0.1-0.1l0,0c0.6-1.8,1-3.7,1-5.8c0-9.4-7.8-15.4-16.4-15.4c-9.3,0-21.3,6.5-21.3,18.6
		c0,2.1,0.4,4,1.1,5.7l0,0c0,0,0,0,0.1,0.1c0.5,1.2,1.1,2.2,1.8,3.2c0.9,1.3,1.9,2.6,2.6,4c7.7,15.4,1.1,26.1-9.7,36.4
		c-1.4,1.3-2.9,2.5-4.4,3.7c-1.5,1.2-2.9,2.5-4.1,3.9c0,0-0.1,0.1-0.1,0.1l0,0c-2.7,3.2-4.3,7-4.3,10.9c0,2,0.4,3.8,1.2,5.3
		c0.2,0.5,0.5,0.9,0.8,1.4c0.7,1.1,1.5,2.2,2.1,3.3c7.3,12.1,12.4,27.2,6.1,43.7c-0.8,1.9-1.3,3.9-1.3,6.1c0,6.8,4.7,9.9,11.1,9.9
		C91.4,276.4,107.3,268.8,107.3,256.1z"/>
	<path d="M234.4,300.6L234.4,300.6c-7.7,0-14.1,11-14.1,16.6c0,2.8,1.3,4.5,4.2,4.5c6.9,0,14.1-10.6,14.1-16.1
		C238.6,303.2,238.1,300.6,234.4,300.6z"/>
	<path d="M277.5,8.6L277.5,8.6c-7.7,0-10.2,9.6-10.2,14.1c0,2.9,1.8,13.4,9.2,13.4c7.4-0.1,10.2-9.6,10.2-14.4
		C286.7,18,284.9,8.6,277.5,8.6z"/>
	<path d="M337,63.3c0-2-0.9-8.9-5.5-8.9v0c-6.1,0-8.4,10.1-8.4,13.1c0,0.9,0.1,2.2,0.5,3.5l0,0c0,0,0,0,0,0.1
		c0.2,0.6,0.4,1.2,0.6,1.8c1.2,2.5,2.1,5,2.5,7.7c2.7,18.2-7.6,43.3,0.8,46.5c0.7,0.3,1.5,0.3,2.2,0.2c10.2-2-2.1-33.6,4.6-54.6
		c0.2-0.7,0.5-1.4,0.8-2c0.3-0.7,0.5-1.3,0.8-2c0,0,0,0,0,0l0,0C336.7,66.4,337,64.4,337,63.3z"/>
	<path d="M310,27.1L310,27.1c-6.6,0-8.9,10.3-8.9,13.6c0,3.3,1.1,10.6,6.9,10.6c6.8,0,8.9-10.3,8.9-13.6
		C316.9,35,315.4,27.1,310,27.1z"/>
	<path d="M267.1,280.6c-7,0-11.9,10.7-11.9,14.9c0,2.2,0.6,4.5,3.7,4.5c6.9,0,11.9-10.5,11.9-14.9
		C270.8,283,270.1,280.6,267.1,280.6z"/>
	<polygon points="234.4,4.6 234.4,4.6 234.4,4.6 	"/>
	<path d="M234.4,4.6c-8.4,0-11.6,10-11.6,15.4c0,5.6,4.1,15.4,12.4,15.4c8.4,0,11.6-10,11.4-15.1C246.4,13.7,243.6,4.6,234.4,4.6z"
		/>
	<path d="M196.2,48.8c0.3-0.4,0.6-0.9,0.9-1.4c0,0,0-0.1,0.1-0.1l0,0c1.7-2.9,2.5-6.2,2.5-9.2c0-7.3-4.8-16.6-14.9-16.6
		c-9.2,0-13.9,8.1-13.9,15.4c0,3,0.9,6.6,2.7,9.7l0,0c18.2,32.7-9.9,84.7,12.6,84.7C212.5,131.2,173.1,83.4,196.2,48.8z"/>
</g>
</svg>
