<?xml version="1.0" encoding="utf-8"?>
<!-- Generator: Adobe Illustrator 23.0.3, SVG Export Plug-In . SVG Version: 6.00 Build 0)  -->
<svg version="1.1"
	 id="svg14" xmlns:cc="http://creativecommons.org/ns#" xmlns:dc="http://purl.org/dc/elements/1.1/" xmlns:inkscape="http://www.inkscape.org/namespaces/inkscape" xmlns:rdf="http://www.w3.org/1999/02/22-rdf-syntax-ns#" xmlns:sodipodi="http://sodipodi.sourceforge.net/DTD/sodipodi-0.dtd" xmlns:svg="http://www.w3.org/2000/svg"
	 xmlns="http://www.w3.org/2000/svg" xmlns:xlink="http://www.w3.org/1999/xlink" x="0px" y="0px" viewBox="0 0 400 400"
	 style="enable-background:new 0 0 400 400;" xml:space="preserve">
<sodipodi:namedview  bordercolor="#666666" borderopacity="1" fit-margin-bottom="70" fit-margin-left="20" fit-margin-right="20" fit-margin-top="10" gridtolerance="10" guidetolerance="10" id="namedview16" inkscape:current-layer="svg14" inkscape:cx="14.263851" inkscape:cy="93.93652" inkscape:pageopacity="0" inkscape:pageshadow="2" inkscape:window-height="1017" inkscape:window-maximized="1" inkscape:window-width="1920" inkscape:window-x="1912" inkscape:window-y="-8" inkscape:zoom="3.4056571" objecttolerance="10" pagecolor="#ffffff" showgrid="false">
	</sodipodi:namedview>
<path d="M269.2,176.9c-23-13.3-37.7-15-18.1-57.5c6.4-10.5,10.1-23.1,10.1-36.6c0-1.9-0.1-3.7-0.2-5.5c-0.4-4.7,1-9.3,3.7-13.1
	c8.8-12.3,16.1-31.9,14.9-48.7c-0.5-6.4-6-11-12.4-10.2c-14.6,2-25.8,8.2-33.9,16.2c-3.1,3.1-7.7,4-11.7,2.5
	c-6.7-2.4-13.9-3.7-21.6-3.7c-7.5,0-14.7,1.3-21.2,3.6c-4.1,1.5-8.7,0.5-11.7-2.5C158.9,13.3,147.7,7,133,5.1
	c-6.3-0.8-11.9,3.8-12.4,10.2c-1.3,16.8,6,36.2,14.8,48.6c2.7,3.8,4.1,8.4,3.7,13.1c-0.2,2-0.3,3.9-0.3,6
	c0,36.6,27.4,66.4,61.2,66.4c4.8,0,9.5-0.6,14-1.8c2.5-0.6,5.1-0.6,7.4,0.6c7.5,3.7,9,15.4-0.3,15.7c-6.7-0.7-13.7-1-21.1-1
	c-76,0-117.8,36-117.8,101.2c0,5.1,4.1,9.3,9.2,9.3h0c1.7,0,3.4,0.3,4.9,0.9c44,18.5-16.5,109.8,18.3,120c2.5,0.7,5.1,0.9,7.7,0.5
	c50-6-14.2-99.4,20.2-118.9c3.2-1.8,6.8-2.6,10.5-2.6h155.6c5.1,0,9.2-4.2,9.2-9.3C317.8,222.6,300.9,193,269.2,176.9z"/>
</svg>
