<?xml version="1.0" encoding="utf-8"?>
<!-- Generator: Adobe Illustrator 23.0.1, SVG Export Plug-In . SVG Version: 6.00 Build 0)  -->
<svg version="1.1"
	 id="svg5" inkscape:version="0.92.1 r15371" sodipodi:docname="icons8-waste.svg" xmlns:cc="http://creativecommons.org/ns#" xmlns:dc="http://purl.org/dc/elements/1.1/" xmlns:inkscape="http://www.inkscape.org/namespaces/inkscape" xmlns:rdf="http://www.w3.org/1999/02/22-rdf-syntax-ns#" xmlns:sodipodi="http://sodipodi.sourceforge.net/DTD/sodipodi-0.dtd" xmlns:svg="http://www.w3.org/2000/svg"
	 xmlns="http://www.w3.org/2000/svg" xmlns:xlink="http://www.w3.org/1999/xlink" x="0px" y="0px" viewBox="0 0 400 400"
	 style="enable-background:new 0 0 400 400;" xml:space="preserve">
<sodipodi:namedview  bordercolor="#666666" borderopacity="1" fit-margin-bottom="200" fit-margin-left="0" fit-margin-right="0" fit-margin-top="0" gridtolerance="10" guidetolerance="10" id="namedview7" inkscape:current-layer="svg5" inkscape:cx="-318.48523" inkscape:cy="508.87132" inkscape:pageopacity="0" inkscape:pageshadow="2" inkscape:window-height="705" inkscape:window-maximized="1" inkscape:window-width="1366" inkscape:window-x="-8" inkscape:window-y="297" inkscape:zoom="0.472" objecttolerance="10" pagecolor="#ffffff" showgrid="false">
	</sodipodi:namedview>
<g>
	<path d="M133.7,103.6c-0.2-1.6-1-3-2.2-3.9c-1.3-0.9-2.8-1.3-4.4-1.1c-1.5,0.2-2.9,1.1-3.8,2.3c-0.9,1.3-1.3,2.8-1,4.3l18.9,142.5
		c0.1,2.2,1.4,4.1,3.4,5s4.3,0.6,6-0.8c1.7-1.4,2.4-3.7,1.9-5.8L133.7,103.6z"/>
	<path d="M217.4,252.6c3.2,0.2,5.8-2.3,6-5.5l6.3-142.5c0.1-1.6-0.5-3.2-1.7-4.4c-1.2-1.2-2.8-1.8-4.4-1.7c-0.2,0-0.4,0-0.5,0
		c-2.7,0.4-4.8,2.8-4.8,5.5L212,246.6C211.8,249.7,214.3,252.4,217.4,252.6z"/>
	<path d="M304.2,39.9c-1.5-0.2-2.9-1.1-3.5-2.5c-2.6-5.2-7-9.1-13.1-9.1H244c-2.2,0-3.9-1.8-3.9-3.9v-1.8c0-9.4-7.7-17.2-17.2-17.2
		h-45.8c-9.4,0-17.2,7.7-17.2,17.2v1.8c0,2.2-1.8,3.9-3.9,3.9h-43.6c-5.7,0-9.9,3.4-12.6,8.1c-1.1,1.9-3,3.3-5.1,3.6
		c-11.3,1.8-20.6,11.7-20.6,23.7v4.6c0,1.8,0.8,3.4,2.1,4.4c2.2,1.8,4.2,3.6,5.8,6c5,7.4,6.8,17,8.7,25.8l24.7,168.3
		c0.6,4.1,2.3,7.8,4.9,10.8c1.9,2.3,3.7,4.8,4.8,7.6c13.1,32.3-19.2,102.9,14.7,103.3c28.4-0.9-28.6-98.1,19.3-103.1h103.8
		c10.7,0,19.4-8,21.6-18.2c0-0.1,0-0.2,0-0.4l28.2-192.5c0.5-3.6,3.6-6.3,7.3-6.3h0.1c3.1,0,5.7-2.6,5.7-5.7v-4.6
		C325.8,51.3,316,41.2,304.2,39.9z M200,18.3c1.6-0.9,3.5-1.4,5.4-1.4h17.6c3.2,0,5.7,2.6,5.7,5.7v1.7c0,2.2-1.9,3.9-4,3.7
		C207.9,26.2,192.6,22.5,200,18.3z M171.4,22.6L171.4,22.6c0-2.5,2-4.5,4.4-4.5c11.7-0.1,30.2,9.3,10.3,10.3h-10
		c-2.6,0-4.7-2.1-4.7-4.7V22.6z M90.6,62.7c-2.6,0-4.4-2.8-3.2-5.2c2-3.8,5.7-6.3,10.2-6.3h4.1c3.1,0,5.8-2.5,5.8-5.6
		c-0.1-3.2,2.7-5.8,5-5.8h133.4c1.3,0,2.5,0.1,3.7,0.5c11.6,3.7-14.4,14.9-36.9,20.8c-3.9,1-7.9,1.5-11.9,1.5L90.6,62.7z
		 M273.3,270.7c-0.3,1.5-0.8,2.9-1.5,4c-1.9,3.3-6.5,3.8-9.2,1.1c-7.4-7.7-5-17.6-4.1-26.7c0.1-0.5,0.2-1,0.3-1.5l18.9-142.5
		c0.3-1.7-0.2-3.5-1.4-4.8c-1.2-1.3-2.9-2-4.6-1.8c-0.2,0-0.4,0-0.5,0c-2.5,0.4-4.5,2.4-4.8,5l-18.8,142.5c-0.1,0.8-0.1,0.9-0.1,1.9
		c-0.6,8-2.3,15.8-5.7,22c-3.4,6.3-10,10.1-17.2,10.1h-87.5c-5.3,0-9.6-3.6-10.4-8.8l-28-192c-0.4-2.7,1.7-5.2,4.5-5.2h51
		c5.3,0,10.2,2.8,12.6,7.5c4.5,8.8,2.6,21.2,4.1,36.1l5.7,129.5c0.2,3.2,2.8,5.6,6,5.5c3.2-0.2,5.6-2.8,5.5-6l-5.7-130.1
		c-0.1-20-0.8-32,8.6-38.7c3.4-2.5,7.6-3.6,11.8-3.6h94.8c2.4,0,4.3,2.2,3.9,4.6L273.3,270.7z M311,62.7H266c-1.4,0-2.7-0.1-4.1-0.2
		c-28.5-3.3,1.2-17.9,21.5-22.2c1.4-0.3,2.8-0.4,4.2-0.4c2.3,0,5.1,2.6,5,5.8c-0.1,3.1,2.6,5.6,5.8,5.6h4.1c5.1,0,9.3,3.3,11,8.2
		C313.9,61,312.7,62.7,311,62.7z"/>
</g>
</svg>
