<?xml version="1.0" encoding="utf-8"?>
<!-- Generator: Adobe Illustrator 23.0.6, SVG Export Plug-In . SVG Version: 6.00 Build 0)  -->
<svg version="1.1"
	 id="svg5" inkscape:version="0.92.1 r15371" sodipodi:docname="icons8-waste.svg" xmlns:cc="http://creativecommons.org/ns#" xmlns:dc="http://purl.org/dc/elements/1.1/" xmlns:inkscape="http://www.inkscape.org/namespaces/inkscape" xmlns:rdf="http://www.w3.org/1999/02/22-rdf-syntax-ns#" xmlns:sodipodi="http://sodipodi.sourceforge.net/DTD/sodipodi-0.dtd" xmlns:svg="http://www.w3.org/2000/svg"
	 xmlns="http://www.w3.org/2000/svg" xmlns:xlink="http://www.w3.org/1999/xlink" x="0px" y="0px" viewBox="0 0 400 400"
	 style="enable-background:new 0 0 400 400;" xml:space="preserve">
<path d="M136.4,99.5c-0.2-1.5-0.9-2.8-2.1-3.8c-1.2-0.9-2.7-1.3-4.2-1c-1.5,0.2-2.8,1-3.6,2.2c-0.9,1.2-1.2,2.7-1,4.2l18.2,136.5
	c0.1,2.1,1.3,4,3.3,4.8c1.9,0.9,4.2,0.5,5.8-0.8c1.6-1.4,2.3-3.5,1.8-5.5L136.4,99.5z"/>
<path d="M216.7,242.3c3,0.1,5.6-2.2,5.7-5.2l6-136.5c0.1-1.6-0.5-3.1-1.6-4.2c-1.1-1.1-2.7-1.7-4.2-1.6c-0.2,0-0.3,0-0.5,0
	c-2.6,0.4-4.6,2.7-4.6,5.3l-6,136.5C211.3,239.6,213.7,242.2,216.7,242.3z"/>
<path d="M299.9,38.5c-1.5-0.2-2.7-1.1-3.4-2.4c-2.5-5-6.7-8.7-12.5-8.7h-41.8c-2.1,0-3.8-1.7-3.8-3.8v-1.7c0-9-7.4-16.4-16.4-16.4
	h-43.9c-9,0-16.4,7.4-16.4,16.4v1.7c0,2.1-1.7,3.8-3.8,3.8H116c-5.5,0-9.5,3.3-12,7.8c-1,1.8-2.8,3.1-4.9,3.5
	c-10.8,1.7-19.7,11.2-19.7,22.7v4.5c0,1.7,0.8,3.3,2,4.3c2.1,1.7,4.1,3.5,5.5,5.7c4.8,7.1,6.5,16.3,8.3,24.7L119,261.8
	c0.6,4,2.2,7.5,4.7,10.3c1.9,2.2,3.5,4.6,4.6,7.3c12.6,31-18.4,98.7,14.1,99c27.2-0.9-27.4-94,18.5-98.8h99.5
	c10.3,0,18.6-7.6,20.7-17.5c0-0.1,0-0.2,0-0.3l27-184.5c0.5-3.5,3.5-6.1,7-6.1h0.1c3,0,5.5-2.5,5.5-5.5v-4.5
	C320.6,49.4,311.2,39.7,299.9,38.5z M200,17.7c1.6-0.9,3.3-1.3,5.1-1.3h16.8c3,0,5.5,2.5,5.5,5.5v1.6c0,2.1-1.8,3.7-3.9,3.5
	C207.6,25.4,192.9,21.8,200,17.7z M172.6,21.9L172.6,21.9c0-2.4,1.9-4.3,4.2-4.3c11.2-0.1,28.9,8.9,9.9,9.8h-9.6
	c-2.5,0-4.5-2-4.5-4.5V21.9z M95.2,60.3c-2.5,0-4.2-2.7-3.1-4.9c1.9-3.7,5.5-6,9.7-6l3.9,0c3,0,5.6-2.4,5.5-5.4
	c-0.1-3.1,2.6-5.6,4.8-5.6h127.8c1.2,0,2.4,0.1,3.6,0.5c11.1,3.6-13.8,14.3-35.4,19.9c-3.7,1-7.6,1.5-11.4,1.5L95.2,60.3z
	 M270.2,259.7c-0.3,1.4-0.8,2.7-1.4,3.9c-1.8,3.2-6.3,3.7-8.8,1.1c-7.1-7.4-4.8-16.9-3.9-25.6c0.1-0.5,0.2-0.9,0.2-1.4L274.5,101
	c0.3-1.6-0.2-3.3-1.4-4.6c-1.1-1.2-2.8-1.9-4.5-1.8c-0.2,0-0.3,0-0.5,0c-2.4,0.4-4.3,2.3-4.6,4.8l-18,136.5
	c-0.1,0.8-0.1,0.9-0.1,1.8c-0.6,7.7-2.2,15.1-5.4,21c-3.2,6-9.6,9.7-16.4,9.7h-83.9c-5.1,0-9.2-3.4-9.9-8.4l-26.9-184
	c-0.4-2.6,1.6-5,4.3-5h48.9c5,0,9.8,2.7,12.1,7.2c4.3,8.4,2.5,20.3,3.9,34.6l5.5,124.1c0.1,3,2.7,5.4,5.7,5.2c3-0.1,5.4-2.7,5.2-5.7
	L183,111.9c-0.1-19.1-0.7-30.6,8.3-37.1c3.3-2.4,7.3-3.5,11.3-3.5h90.8c2.3,0,4.1,2.1,3.8,4.4L270.2,259.7z M306.4,60.3h-43.2
	c-1.3,0-2.6-0.1-3.9-0.2c-27.3-3.2,1.1-17.2,20.6-21.3c1.3-0.3,2.7-0.4,4.1-0.4c2.2,0,4.9,2.5,4.8,5.6c-0.1,3,2.5,5.4,5.5,5.4h3.9
	c4.9,0,8.9,3.1,10.5,7.8C309.2,58.7,308,60.3,306.4,60.3z"/>
</svg>
