<?xml version="1.0" encoding="utf-8"?>
<!-- Generator: Adobe Illustrator 22.1.0, SVG Export Plug-In . SVG Version: 6.00 Build 0)  -->
<!DOCTYPE svg PUBLIC "-//W3C//DTD SVG 1.1//EN" "http://www.w3.org/Graphics/SVG/1.1/DTD/svg11.dtd">
<svg version="1.1" id="Layer_1" xmlns="http://www.w3.org/2000/svg" xmlns:xlink="http://www.w3.org/1999/xlink" x="0px" y="0px"
	 viewBox="0 0 400 400" enable-background="new 0 0 400 400" xml:space="preserve">
<g>
	<path d="M206.2,285.5c-6.2-0.2-10.3-0.5-17-1.9c-6.7-1.4-9.7-1.8-16.1-5.2c-3.5-1.9-8.1-5.6-11-8.2c-7.3-6.6-12.9-12.2-20.1-19
		c-1-1-1.7-4-0.3-5.3c9.4-9,16.1-15.5,25.5-24.6c1.5-1.5,3.8-3.1,5.3-4.6c1.2-1.1,2.2-1.5,3.4-0.3c4.2,4.1,8.3,8.4,12.5,12.5
		c1.7,1.7,3.7,3.2,5.8,4.4c4.6,2.7,8.8,2,12.6-1.8c3-3,4.8-6.8,5.7-11c1.9-8.5,1.5-16.9,0.2-25.5c-1.3-8.2-3.3-14.3-5.6-22.2
		c-1.4-4.9-6.7-8.8-11.2-9.2c-5.4-0.5-9.1-0.2-13.9,2.8c-2.1,1.3-9.3,7.6-11.1,9.4c-17.6,17.4-29.8,30.2-47.6,47.4
		c-6.1,5.9-9.5,13-12.2,20.7c-2.9,8.3-4.7,16.9-5.3,25.7c-1,13,0.7,25.6,7.4,37.2c3.7,6.3,8.9,10.6,16,12.6c2.2,0.6,3.8,0.1,5.4-1.6
		c3-3.3,6.4-6.4,9.5-9.6c1.1-1.2,2-1.4,3.5-0.5c5.6,3.2,11.8,4.9,18,6.7c2.8,0.8,5.7,1.6,8.6,2c3,0.4,5.3,0.3,10.6-0.1
		c5.3-0.3,7.6-0.7,12.2-1.8c4.5-1.1,5.2-1,9.8-3.3c4.6-2.3,1,2.1,0.5,2.5c-17.4,17.4-34.7,35-52.3,52.2c-3.6,3.5-8.2,5.9-12.5,8.6
		c-4.6,2.8-5.1,2.9-9.4,4.8c-4.4,2-7.9,2.2-13.5,3.2c-5.6,0.9-10.4,0.6-15.6,0.9c-7.9,0.4-15.4-1.6-22.8-4.3
		c-6.5-2.3-12.3-5.8-18-9.5c-2.5-1.6-4.7-3.6-6.8-5.7c-7-6.9-14.1-13.7-20.8-21c-3.6-3.9-6.8-8.4-9.4-13c-2.9-5.2-5.1-10.8-7.4-16.4
		c-0.8-2-1-4.3-1.4-6.5c-0.6-3.5-1.2-7.1-1.7-10.6c-0.2-1.6-0.3-4.3-0.2-6c0.2-2.1,0.5-4.2,0.9-6.3c1.1-5,2.1-10,3.4-15
		c1.8-6.7,5.4-12.7,9.1-18.5c1.5-2.3,3.2-4.4,5.2-6.4c37-37,73.9-74.1,111.1-111c6-5.9,13.1-10.5,21.3-13.2c3.4-1.1,6.6-2.6,10-3.5
		c2.5-0.7,5.2-0.9,7.8-1.2c3.3-0.4,6.7-1.1,10.1-0.9c4.5,0.2,8.9,1.1,13.4,1.8c3.1,0.5,6.2,1,9.2,2c6.4,2.1,12.4,5.1,18,8.8
		c9.6,6.4,16.5,15.7,25,23.2c1,0.9,1,1.7,0,2.6c-4.2,3.8-8.2,7.7-12.4,11.4c-2.8,2.5-4.7,5.2-4.9,9.3c-0.4,6.9,0.2,13.5,3.7,19.7
		c0.8,1.4,1.7,2.6,2.8,3.8c3,3.1,4.3,3,7.3,0c23.8-23.8,47.6-47.5,71.3-71.4c3.6-3.6,5.9-7.8,7.2-13c1.8-7.1-0.1-13.2-3.4-19
		c-1.5-2.6-4-4.7-6.1-6.9c-5.4-5.3-9.5-9.4-15-14.6c-2.7-2.6-6.3-4.6-10.2-5.9s-6-1.5-8.4-1.1c-5.4,0.8-9.2,3.1-14.8,7.1
		c-7.4,5.3-9.7,8.1-16.4,15.2c-1.7,1.8-3.9,4.8-6.3,5.3c-1.7,0.3-3.3-0.6-7.1-2.4c-3.8-1.8-8.1-3.5-12.5-4.5
		c-7.3-1.5-13.4-2.9-20.8-2.3c-4.7,0.4-9.3,1.6-13.9,2.5c-1.9,0.4-3.8,0.9-5.7,1.5c-0.9,0.3-1.6-0.9-1-1.6c0,0,0,0,0,0
		c17.3-17.3,31.3-31.5,48.8-48.7c2.7-2.7,9.5-7.8,12.7-10.1c5.4-3.8,11.4-6.2,17.8-7.9c4.3-1.2,9.3-2.5,16.2-2.5
		c7,0,13.2,0.1,19.1,1.1s12,3.1,18.3,5.9c4.4,2,11.2,6.2,17.1,10.9c5.9,4.8,15.9,14.6,20.6,20.4s7.9,11.1,10.6,15.4
		c2.8,4.3,5.5,10.2,7.1,15.8c1.2,4.1,1.9,6.5,2.7,10.7c0.4,2.4,0.5,9.2,0.3,11.6c-0.3,4.6-1.3,10.8-2.3,15s-3.7,11.6-5.8,18.4
		c-2.1,6.8-3.3,9.8-4.7,14.3c-4.1,13-8.3,26-12.5,39c-2.6,8-4.8,16.1-4.6,24.5c0.1,5.3,0.9,10.7,1.8,15.9c1.6,9.1,2.6,18-2.2,26.5
		c-3.3,6-8.1,10.1-14.7,12.2c-8.9,2.8-17.9-1.9-20.6-10.8c-1.9-6.1-1.5-12.3,0.5-18.3c2-6.4,4.6-12.6,6.7-19
		c1.5-4.5,2.2-9.1,0.6-13.9c-1.7-4.9-5.9-8.4-11.4-4.3c-4.2,3.1-8.1,6.7-11.8,10.4c-16.1,16-32.1,32.2-48.3,48.1
		c-3.2,3.1-7.2,5.5-10.9,8.1c-6.3,4.5-11,6.1-17.6,7.9C220.4,284.3,212.4,285.6,206.2,285.5z M77.8,277.9c0-1.8-0.2-3.2-0.6-4.5
		c-0.4-1.3-1.7-2.1-2.5-1.3c-2.1,2.1-3.3,3.5-5.3,5.7c-2.9,3.2-3.5,5.8-4.7,9.7c-0.3,0.8-0.4,3.5,0.8,4.3c0.7,0.6,2.4,0.3,3.2-0.2
		c4.1-2.6,6.7-5.2,7.9-8.9C77.1,281.5,77.7,279.7,77.8,277.9z"/>
</g>
</svg>
