<?xml version="1.0" encoding="utf-8"?>
<!-- Generator: Adobe Illustrator 23.0.1, SVG Export Plug-In . SVG Version: 6.00 Build 0)  -->
<svg version="1.1"
	 id="svg8" xmlns:cc="http://creativecommons.org/ns#" xmlns:dc="http://purl.org/dc/elements/1.1/" xmlns:inkscape="http://www.inkscape.org/namespaces/inkscape" xmlns:rdf="http://www.w3.org/1999/02/22-rdf-syntax-ns#" xmlns:sodipodi="http://sodipodi.sourceforge.net/DTD/sodipodi-0.dtd" xmlns:svg="http://www.w3.org/2000/svg"
	 xmlns="http://www.w3.org/2000/svg" xmlns:xlink="http://www.w3.org/1999/xlink" x="0px" y="0px" viewBox="0 0 400 400"
	 style="enable-background:new 0 0 400 400;" xml:space="preserve">
<sodipodi:namedview  bordercolor="#666666" borderopacity="1" fit-margin-bottom="20" fit-margin-left="0" fit-margin-right="0" fit-margin-top="0" gridtolerance="10" guidetolerance="10" id="namedview10" inkscape:current-layer="svg8" inkscape:cx="34.770106" inkscape:cy="23.088381" inkscape:pageopacity="0" inkscape:pageshadow="2" inkscape:window-height="705" inkscape:window-maximized="1" inkscape:window-width="1366" inkscape:window-x="-8" inkscape:window-y="245" inkscape:zoom="11.313709" objecttolerance="10" pagecolor="#ffffff" showgrid="false">
	</sodipodi:namedview>
<g id="Layer_1">
</g>
<g>
	<path d="M334,4.7H66c-5.5,0-10,4.5-10,10V275c0,5.5,4.5,10,10,10h215.6c4.7,0,9.4,0.7,13.8,2.4c47.9,17.9-6.6,103.5,25.5,108
		c31-0.3-5.3-64.3,15.8-101c4.7-8.2,7.3-17.5,7.3-26.9V14.7C344,9.1,339.5,4.7,334,4.7z M78.1,16.7h243.8c5.5,0,10,4.5,10,10v236.8
		c0,5.5-4.5,10-10,10H78.1c-5.5,0-10-4.5-10-10V26.7C68.1,21.2,72.6,16.7,78.1,16.7z"/>
	<path d="M206,138.8c-4.3-4.5-6.6-6.9-9.7-8.8c-1.1-0.7-1.2-2.2-0.3-3.1c2.1-1.9,3.3-3.3,6.4-7.4s4.2-10.6,4.2-17.6
		c0-6.4-2.5-13.4-7.6-21.6s-16.5-12.1-35-12.1c-6.4,0-12.7,0-19.1,0h-9.8c-3.3,0-6.1,2.7-6.1,6.1v122c0,2,1.6,3.7,3.6,3.9l0,0
		c24.2,10.1-1.6,56,15.7,57.7c17.7-0.9-6.8-30.3,7.8-49.4c3.8-4.9,9.5-7.9,15.6-8.7c10.5-1.4,19.3-4.8,26.5-10.2
		c9.5-7,14-16.5,14-29.2C212.4,150.9,210.3,143.3,206,138.8z M157.1,86.7c2.5,0,4.5,0,7,0c7,0,12.7,1.3,16.5,4.5
		c3.8,3.2,5.7,7.6,5.7,14c0,3.7-0.4,6.9-1.3,9.4c-0.4,1.2-1.2,2.3-2.3,2.9c-7.9,4.4-26.1-13.6-30.8-28.9c-0.3-0.9,0.4-1.9,1.4-1.9
		H157.1z M152.7,115.7c4.7-3.2,14.5,6.5,6.3,6.6h-6c-0.9,0-1.7-0.7-1.7-1.7l0-2.2C151.4,117.3,151.8,116.3,152.7,115.7z
		 M181.9,176.9c-5.1,3.2-12.1,5.1-19.7,5.1c-1.9,0-3.8,0-5.7,0h-3.6c-1.2,0-2.1-1-2.1-2.1v-38.3c0-1.2,1-2.1,2.1-2.1h11.2
		c2.5,0,4.5,0.3,6.4,0.6c1.9,0.3,3.2,0.6,5.1,1.3c5.1,1.9,8.3,4.5,10.8,7.6c2.5,3.8,3.8,7.6,3.8,12.1
		C190.1,168,187.6,173.8,181.9,176.9z"/>
	<path d="M271.7,102c-9.3,0.2-18.7,1.4-25.6,3.1c-5.9,1.5-11,3.1-14.8,4.3c-1.8,0.6-3,2.3-3,4.2l0,9.3v75c0,1.4,1.1,2.5,2.5,2.5H248
		c1.4,0,2.5-1.1,2.5-2.5v-16.5c1-21.2,6.2-44.5,22.4-58.4c1.1-0.9,1.7-2.3,1.7-3.7v-14.4C274.7,103.2,273.3,101.9,271.7,102z
		 M250.5,136.3v-10.7c0-1.3,0.9-2.3,2.1-2.6c1-0.2,2.3-0.5,3.7-0.7C263.5,121.7,252.5,148.9,250.5,136.3z"/>
</g>
</svg>
