<?xml version="1.0" encoding="utf-8"?>
<!-- Generator: Adobe Illustrator 23.0.6, SVG Export Plug-In . SVG Version: 6.00 Build 0)  -->
<svg version="1.1"
	 id="svg8" xmlns:cc="http://creativecommons.org/ns#" xmlns:dc="http://purl.org/dc/elements/1.1/" xmlns:inkscape="http://www.inkscape.org/namespaces/inkscape" xmlns:rdf="http://www.w3.org/1999/02/22-rdf-syntax-ns#" xmlns:sodipodi="http://sodipodi.sourceforge.net/DTD/sodipodi-0.dtd" xmlns:svg="http://www.w3.org/2000/svg"
	 xmlns="http://www.w3.org/2000/svg" xmlns:xlink="http://www.w3.org/1999/xlink" x="0px" y="0px" viewBox="0 0 400 400"
	 style="enable-background:new 0 0 400 400;" xml:space="preserve">
<path d="M328,9H72c-5.3,0-9.5,4.3-9.5,9.5v248.6c0,5.3,4.3,9.5,9.5,9.5H278c4.5,0,9,0.7,13.2,2.3c45.8,17.1-6.3,98.8,24.3,103.1
	c29.6-0.3-5.1-61.4,15.1-96.5c4.5-7.8,7-16.7,7-25.7V18.6C337.5,13.3,333.2,9,328,9z M83.6,20.5h232.8c5.3,0,9.5,4.3,9.5,9.5v226.2
	c0,5.3-4.3,9.5-9.5,9.5H83.6c-5.3,0-9.5-4.3-9.5-9.5V30.1C74,24.8,78.3,20.5,83.6,20.5z"/>
<path d="M205.8,137.1c-4.1-4.3-6.3-6.5-9.3-8.4c-1-0.7-1.2-2.1-0.3-3c2-1.8,3.2-3.2,6.1-7.1c2.9-3.9,4-10.1,4-16.8
	c0-6.1-2.4-12.7-7.3-20.6c-4.9-7.9-15.8-11.5-33.4-11.5c-6.1,0-12.1,0-18.2,0h-9.4c-3.2,0-5.8,2.6-5.8,5.8V192
	c0,1.9,1.5,3.6,3.4,3.7l0,0c23.1,9.7-1.5,53.5,15,55.1c16.9-0.8-6.4-28.9,7.5-47.1c3.6-4.7,9.1-7.6,14.9-8.3
	c10-1.3,18.4-4.6,25.3-9.7c9.1-6.7,13.4-15.8,13.4-27.9C211.8,148.6,209.8,141.4,205.8,137.1z M159,87.3c2.4,0,4.2,0,6.7,0
	c6.7,0,12.1,1.2,15.8,4.2c3.6,3,5.5,7.3,5.5,13.4c0,3.5-0.4,6.6-1.2,9c-0.4,1.2-1.1,2.2-2.2,2.8c-7.6,4.2-25-13-29.5-27.5
	c-0.3-0.9,0.4-1.8,1.3-1.8H159z M154.9,115c4.5-3.1,13.8,6.2,6,6.3h-5.7c-0.9,0-1.6-0.7-1.6-1.6l0-2.1
	C153.6,116.6,154,115.6,154.9,115z M182.7,173.5c-4.9,3-11.5,4.9-18.8,4.9c-1.8,0-3.6,0-5.5,0H155c-1.1,0-2-0.9-2-2v-36.6
	c0-1.1,0.9-2,2-2h10.7c2.4,0,4.3,0.3,6.1,0.6c1.8,0.3,3,0.6,4.9,1.2c4.9,1.8,7.9,4.2,10.3,7.3c2.4,3.6,3.6,7.3,3.6,11.5
	C190.6,165,188.2,170.5,182.7,173.5z"/>
<path d="M268.5,101.9c-8.8,0.2-17.9,1.4-24.5,3c-5.6,1.4-10.5,2.9-14.1,4.1c-1.7,0.6-2.9,2.2-2.9,4l0,8.9v71.6
	c0,1.3,1.1,2.4,2.4,2.4h16.4c1.3,0,2.4-1.1,2.4-2.4v-15.8c1-20.3,5.9-42.5,21.4-55.7c1-0.9,1.6-2.2,1.6-3.6v-13.8
	C271.3,103.1,270,101.9,268.5,101.9z M248.3,134.7v-10.2c0-1.2,0.8-2.2,2-2.5c1-0.2,2.2-0.4,3.5-0.7
	C260.7,120.8,250.2,146.7,248.3,134.7z"/>
</svg>
