<?xml version="1.0" encoding="utf-8"?>
<!-- Generator: Adobe Illustrator 23.0.1, SVG Export Plug-In . SVG Version: 6.00 Build 0)  -->
<svg version="1.1"
	 id="svg4" inkscape:version="0.92.1 r15371" sodipodi:docname="git.svg" xmlns:cc="http://creativecommons.org/ns#" xmlns:dc="http://purl.org/dc/elements/1.1/" xmlns:inkscape="http://www.inkscape.org/namespaces/inkscape" xmlns:rdf="http://www.w3.org/1999/02/22-rdf-syntax-ns#" xmlns:sodipodi="http://sodipodi.sourceforge.net/DTD/sodipodi-0.dtd" xmlns:svg="http://www.w3.org/2000/svg"
	 xmlns="http://www.w3.org/2000/svg" xmlns:xlink="http://www.w3.org/1999/xlink" x="0px" y="0px" viewBox="0 0 400 400"
	 style="enable-background:new 0 0 400 400;" xml:space="preserve">
<style type="text/css">
	.st0{fill:#00000B;}
</style>
<sodipodi:namedview  bordercolor="#666666" borderopacity="1" fit-margin-bottom="50" fit-margin-left="0" fit-margin-right="0" fit-margin-top="0" gridtolerance="10" guidetolerance="10" id="namedview6" inkscape:current-layer="svg4" inkscape:cx="-160.86701" inkscape:cy="187.97494" inkscape:pageopacity="0" inkscape:pageshadow="2" inkscape:window-height="1017" inkscape:window-maximized="1" inkscape:window-width="1920" inkscape:window-x="1358" inkscape:window-y="-8" inkscape:zoom="1.3037281" objecttolerance="10" pagecolor="#ffffff" showgrid="false">
	</sodipodi:namedview>
<path class="st0" d="M339.5,137.1L212.9,10.6c-7.3-7.3-19.1-7.3-26.4,0l-22.3,22.3c-2.2,2.2-2.7,5.7-1.2,8.5
	c6.4,12.1,4.4,22.9-2.9,20.3c-1.3-0.5-2.4-1.3-3.4-2.3l-5.2-5.3c-2.4-2.4-6.2-2.4-8.6,0l-82.4,82.5c-7.3,7.3-7.2,19.1,0,26.4
	l121.6,121.6c4,4,7.6,8.6,10.3,13.6c23.2,43.1-22.7,90,14.5,96.8c30-2.1,9.9-35.2,8.4-72.5c-0.9-21.6,7.6-42.4,22.8-57.7
	l101.2-101.2C346.7,156.2,346.8,144.4,339.5,137.1z M216.4,227.6c-8.7,8.7-22.7,8.7-31.4,0c-8.7-8.7-9.4-22.7-0.7-31.4
	c1.3-1.3,2.6-2.4,4-3.4c1.6-1.1,2.6-2.9,2.6-4.8v-10.1c0-6.8,6,0.1,11.8,6.5c3.2,3.6,7,6.6,10.9,9.4c1,0.7,1.9,1.5,2.8,2.4
	C225.1,204.8,225.1,218.9,216.4,227.6z M220.3,122.9l-5.3-5.3c-1.7-1.7-4.5-0.5-4.5,1.9l-0.1,57.3c0,4.3-6.9,1.9-12.4-4.7
	c-4.8-5.7-7.2-13.1-7.2-20.6v-34c0-3.2-1.4-6.3-3.9-8.3c-0.9-0.7-1.8-1.5-2.6-2.4c-5.8-5.8-7.4-13.9-5.4-21.3
	c0.6-2.1,0.4-4.3-0.5-6.4c-6.2-14.7-7.1-27.4,4.1-20.2l7.9,7.9c1.8,1.8,4.4,2.7,6.9,2.3c6.8-1.1,13.9,1,19.1,6.2
	c5.2,5.2,7.3,12.4,6.2,19.2c-0.4,2.6,0.1,5.3,1.4,7.7C230.7,115.4,230.4,131.8,220.3,122.9z M276.7,167.2c-8.7,8.7-22.7,8.7-31.4,0
	c-6.1-6.1-7.9-14.9-5.4-22.6c0.3-1,0.1-2.1-0.7-2.9l0,0c-3.8-3.8-6.3-8.9-6.6-14.3c-0.3-6,1.8-10.8,5.8-10.6
	c1.2,0.1,2.3,0.7,3.2,1.5l9.4,9.4c1.7,1.7,4.1,2.4,6.4,2c6.8-1.2,14.1,0.9,19.4,6.2C285.4,144.5,285.4,158.5,276.7,167.2z"/>
</svg>
