<?xml version="1.0" encoding="utf-8"?>
<!-- Generator: Adobe Illustrator 23.0.6, SVG Export Plug-In . SVG Version: 6.00 Build 0)  -->
<svg version="1.1"
	 id="svg4" inkscape:version="0.92.1 r15371" sodipodi:docname="git.svg" xmlns:cc="http://creativecommons.org/ns#" xmlns:dc="http://purl.org/dc/elements/1.1/" xmlns:inkscape="http://www.inkscape.org/namespaces/inkscape" xmlns:rdf="http://www.w3.org/1999/02/22-rdf-syntax-ns#" xmlns:sodipodi="http://sodipodi.sourceforge.net/DTD/sodipodi-0.dtd" xmlns:svg="http://www.w3.org/2000/svg"
	 xmlns="http://www.w3.org/2000/svg" xmlns:xlink="http://www.w3.org/1999/xlink" x="0px" y="0px" viewBox="0 0 400 400"
	 style="enable-background:new 0 0 400 400;" xml:space="preserve">
<style type="text/css">
	.st0{fill:#00000B;}
</style>
<path class="st0" d="M331.9,130L212.2,10.3c-6.9-6.9-18.1-6.9-25,0l-21.1,21.1c-2.1,2.1-2.6,5.4-1.2,8c6.1,11.4,4.2,21.7-2.7,19.2
	c-1.2-0.4-2.3-1.2-3.2-2.1l-5-5c-2.2-2.2-5.9-2.2-8.1,0l-77.9,78c-6.9,6.9-6.9,18.1,0,25l115.1,115.1c3.8,3.8,7.2,8.1,9.8,12.9
	c22,40.8-21.4,85.2,13.7,91.5c28.4-1.9,9.3-33.3,7.9-68.6c-0.8-20.4,7.2-40.2,21.6-54.6l95.8-95.8
	C338.8,148.1,338.8,136.9,331.9,130z M215.5,215.6c-8.2,8.2-21.5,8.2-29.7,0c-8.2-8.2-8.9-21.5-0.7-29.7c1.3-1.2,2.5-2.3,3.8-3.2
	c1.5-1,2.4-2.7,2.4-4.5v-9.6c0-6.4,5.7,0.1,11.2,6.2c3.1,3.4,6.6,6.3,10.3,8.9c0.9,0.7,1.8,1.4,2.7,2.2
	C223.7,194.1,223.7,207.4,215.5,215.6z M219.2,116.6l-5-5c-1.6-1.6-4.3-0.5-4.3,1.8l-0.1,54.2c0,4.1-6.6,1.8-11.7-4.5
	c-4.5-5.4-6.8-12.4-6.8-19.5v-32.2c0-3-1.3-5.9-3.7-7.8c-0.8-0.7-1.7-1.4-2.5-2.3c-5.5-5.5-7-13.2-5.2-20.1c0.5-2,0.4-4.1-0.5-6
	c-5.9-13.9-6.8-25.9,3.9-19.1l7.4,7.4c1.7,1.7,4.1,2.6,6.5,2.2c6.4-1,13.2,0.9,18.1,5.9c4.9,5,6.9,11.7,5.9,18.2
	c-0.4,2.5,0.1,5,1.3,7.3C229,109.5,228.7,125,219.2,116.6z M272.6,158.5c-8.2,8.2-21.5,8.2-29.7,0c-5.8-5.8-7.5-14.1-5.1-21.3
	c0.3-1,0-2-0.7-2.7h0c-3.6-3.6-6-8.4-6.2-13.6c-0.3-5.6,1.7-10.2,5.5-10.1c1.1,0.1,2.2,0.6,3,1.4l8.9,8.9c1.6,1.6,3.9,2.2,6.1,1.9
	c6.5-1.1,13.3,0.8,18.3,5.8C280.8,137,280.8,150.3,272.6,158.5z"/>
</svg>
