<?xml version="1.0" encoding="utf-8"?>
<!-- Generator: Adobe Illustrator 23.0.6, SVG Export Plug-In . SVG Version: 6.00 Build 0)  -->
<svg version="1.1" id="Layer_1" xmlns="http://www.w3.org/2000/svg" xmlns:xlink="http://www.w3.org/1999/xlink" x="0px" y="0px"
	 viewBox="0 0 400 400" style="enable-background:new 0 0 400 400;" xml:space="preserve">
<path d="M306.9,96.7c-1.6,44.1-18.3,81.3-51.4,110.8c-17.9,16-38.6,27.2-61.7,33.8c-15,4.3-30.3,6.2-45.9,6
	c-7.9-0.1-15.5,1.6-21.9,6.6c-2.3,1.8-3.4,3.7-2.5,6.8c0.9,3.3-1.9,7.2-5.1,7.5c-4,0.4-8-2.4-8.4-5.9c-0.2-2.2-0.3-4.6-3.1-5.2
	c-2.4-0.4-4.9,1.9-5.4,4.8c-0.3,1.8-0.4,3.7-0.2,5.6c0.7,6.5-3.7,10.1-6.8,11.2c-3.1,1.1-6.2,1.3-7.6,1.2c-1.5-0.1-3.2-0.2-4.4-0.9
	c-4.4-2.4-7.5-12.6-4.8-16.7c5.6-8.6,3.1-20.1-3.7-27.3c-3.2-3.4-6.7-6.6-10-10c-0.7-0.7-1.7-1.8-1.3-2.8c0.4-1,2.1-1.3,3.1-1.3
	c17.8,0,35-3.4,51.6-9.8c5.8-2.3,11.4-5.2,17.1-7.9c0.7-0.3,1.7-0.7,1.8-1.3s-1.2-1.1-2-1.4c-10.4-4.3-19.9-10-27.9-17.9
	c-5.5-5.5-9.7-11.9-12.6-19.2c-1.1-2.9-0.2-3.8,2.6-3.9c2.4-0.1,4.8-0.3,7.2-0.6c0.6-0.1,1.7-0.3,1.6-0.9c-0.1-0.6-0.7-0.8-1.1-1.1
	c-3.5-2.3-7-4.6-10.5-6.9c-0.6-0.4-1.2-1-2-0.8c-0.7,0.2-0.6,0.5-0.6,2.3c0,1.8,0,5.4-0.6,8c-0.8,3.7-3.5,5.3-8,5.2
	c-3.7-0.1-6.6-2.2-7.1-5.7c-0.3-2.8-0.7-6,0.3-8.4c3.7-9,1-17.4-1.1-26.1c-1.4-5.7-2.1-11.6-2.6-17.5c-0.3-3.2,1.9-4.5,5-3.9
	c2.1,0.5,4.3,1.1,6.4,1.6c0.8,0.2,2.1,0.8,2.6,0.2c0.4-0.6-0.8-1.7-1.3-2.5c-5.8-7.7-9.8-16.1-11.4-25.7c-2-12.1-0.5-23.7,4.6-34.8
	c0.6-1.3,1.4-2.5,2.2-3.7c1.1-1.6,2.2-1.7,3.7-0.1c15.7,16.6,34.7,28.3,55.1,38c16.5,7.8,33.9,13.1,51.8,16.4
	c3.5,0.7,3.9,0.3,3.3-3.1c-4-23.1,9.6-48.6,31.2-58.1c23.2-10.3,44.8-7.5,64.6,8.5c2.3,1.8,4.5,1.8,6.8,1c8.7-3.1,17.3-6.4,26-9.5
	c1.2-0.4,2.9-1.3,4-0.5s0.4,2.7-0.1,3.7c-2.1,4.3-4.3,8.7-7,12.6c-2.6,3.7-5.9,6.8-8.8,10.2c-0.4,0.5-1.3,1-1.1,1.5
	c0.2,0.6,1.3,0.2,1.9,0c6.3-2,12.6-3.9,18.8-6c3.7-1.3,4.6-0.8,4.5,3.1c0,1.1-0.2,2.2-0.6,3.2c-3.2,10.1-3.6,20,1.7,29.6
	c1.2,2.2,1.5,5.1,1.4,7.6c-0.1,5.1-3.6,9.3-7.4,9.7c-6.7,0.6-12.5-3-13.7-8.8c-0.5-2.7-0.6-5.5-0.7-8.2c-0.1-4.4-2.5-6.1-6.4-4.3
	c-0.9,0.4-1.8,1.8-1.9,2.9C306.7,90.8,306.9,93.7,306.9,96.7z"/>
</svg>
