<?xml version="1.0" encoding="utf-8"?>
<!-- Generator: Adobe Illustrator 23.0.1, SVG Export Plug-In . SVG Version: 6.00 Build 0)  -->
<svg version="1.1"
	 id="Elm" xmlns:cc="http://creativecommons.org/ns#" xmlns:dc="http://purl.org/dc/elements/1.1/" xmlns:inkscape="http://www.inkscape.org/namespaces/inkscape" xmlns:rdf="http://www.w3.org/1999/02/22-rdf-syntax-ns#" xmlns:sodipodi="http://sodipodi.sourceforge.net/DTD/sodipodi-0.dtd" xmlns:svg="http://www.w3.org/2000/svg"
	 xmlns="http://www.w3.org/2000/svg" xmlns:xlink="http://www.w3.org/1999/xlink" x="0px" y="0px" viewBox="0 0 400 400"
	 style="enable-background:new 0 0 400 400;" xml:space="preserve">
<sodipodi:namedview  bordercolor="#666666" borderopacity="1" fit-margin-bottom="50" fit-margin-left="0" fit-margin-right="0" fit-margin-top="0" gridtolerance="10" guidetolerance="10" id="namedview24" inkscape:current-layer="Elm" inkscape:cx="67.18825" inkscape:cy="128.82488" inkscape:pageopacity="0" inkscape:pageshadow="2" inkscape:window-height="705" inkscape:window-maximized="1" inkscape:window-width="1366" inkscape:window-x="-8" inkscape:window-y="245" inkscape:zoom="2.6074563" objecttolerance="10" pagecolor="#ffffff" showgrid="false">
	</sodipodi:namedview>
<title  id="title6">Artboard 14</title>
<g>
	<path d="M250.4,54.5L202.3,6.5c-1.4-1.4-3.2-2.1-5.1-2.1H81.7c-6.5,0-9.7,7.8-5.1,12.4l48.1,48.1c1.4,1.4,3.2,2.1,5.1,2.1h115.5
		C251.7,66.9,254.9,59.1,250.4,54.5z"/>
	<path d="M228.3,16.7l103,103c4.6,4.6,12.4,1.3,12.4-5.1v-103c0-4-3.2-7.2-7.2-7.2h-103C227,4.3,223.7,12.1,228.3,16.7z"/>
	<path d="M343.7,266.4v-85.5c0-6.5-7.8-9.7-12.4-5.1l-42.8,42.8c-2.8,2.8-2.8,7.4,0,10.2l42.8,42.8
		C335.9,276.1,343.7,272.9,343.7,266.4z"/>
	<path d="M338.5,152.9c2.8-2.8,2.8-7.4,0-10.2l-58.9-58.9c-2.2-2.2-5.7-2.8-8.5-1.3c-10.1,5.3-25.7,15.4-21.3,8
		c4.6-4.6,1.3-12.4-5.1-12.4h-89.2c-6.5,0-9.7,7.8-5.1,12.4l31,31c4.7,4.7,8.7,9.9,11.7,15.8c4.4,8.5,6.8,17.9,0.7,25l-55.5,55.5
		c-16.1,10,29.2-39.1,49.9-64.6c2.3-2.9,2.1-7.1-0.5-9.7C168.8,124.8,97.6,53.6,68.7,24.6c-4.6-4.6-12.4-1.3-12.4,5.1v236.7
		c0,6.5,7.8,9.7,12.4,5.1l35.8-35.8c7-4.1-15.9,23.8-31.6,44.4c-3.6,4.8-0.2,11.6,5.8,11.6l184.7,0c2.7,0,5.4,0.2,8.1,0.9
		c45.2,11.1-5.4,100.8,27.7,103c31.7-0.5-13.3-79.5,26.9-100.4c4.3-2.2,5.2-8.1,1.7-11.5l-42.9-42.9c-9.7-13.4-6.3-25,2.8-37.3
		L338.5,152.9z M247.5,203.5l-40-40c-3.3-4.3-3.7-10.4-2-16.6c2.2-7.9,7.7-14.5,14.9-18.6c5.6-3.1,9.2-4.3,6.3,1L213,142.9
		c-2.8,2.8-2.8,7.4,0,10.2l6.2,6.2c4.6,4.6,8.9,9.4,13,14.4c10.7,13,32.3,32.8,21.8,32.6C251.6,206.3,249.3,205.2,247.5,203.5z"/>
</g>
</svg>
