<?xml version="1.0" encoding="utf-8"?>
<!-- Generator: Adobe Illustrator 23.0.6, SVG Export Plug-In . SVG Version: 6.00 Build 0)  -->
<svg version="1.1"
	 id="svg8" xmlns:cc="http://creativecommons.org/ns#" xmlns:dc="http://purl.org/dc/elements/1.1/" xmlns:inkscape="http://www.inkscape.org/namespaces/inkscape" xmlns:rdf="http://www.w3.org/1999/02/22-rdf-syntax-ns#" xmlns:sodipodi="http://sodipodi.sourceforge.net/DTD/sodipodi-0.dtd" xmlns:svg="http://www.w3.org/2000/svg"
	 xmlns="http://www.w3.org/2000/svg" xmlns:xlink="http://www.w3.org/1999/xlink" x="0px" y="0px" viewBox="0 0 400 400"
	 style="enable-background:new 0 0 400 400;" xml:space="preserve">
<sodipodi:namedview  bordercolor="#666666" borderopacity="1" fit-margin-bottom="60" fit-margin-left="20" fit-margin-right="20" fit-margin-top="20" gridtolerance="10" guidetolerance="10" id="namedview10" inkscape:current-layer="svg8" inkscape:cx="-77.849969" inkscape:cy="154.38575" inkscape:pageopacity="0" inkscape:pageshadow="2" inkscape:window-height="1017" inkscape:window-maximized="1" inkscape:window-width="1920" inkscape:window-x="1912" inkscape:window-y="-8" inkscape:zoom="1.7383042" objecttolerance="10" pagecolor="#ffffff" showgrid="false">
	</sodipodi:namedview>
<path d="M339.1,202.5c17.7-20.9,28.3-47.9,28.3-77.4c0-66.5-53.9-120.6-120.2-120.6c-29.6,0-56.7,10.7-77.7,28.5l0-0.1
	c-56.9,44.7-71.7,12.8-76.6-18c-1-6-6.2-10.4-12.3-10.4L45,4.6c-6.9,0-12.5,5.6-12.5,12.5v296.2c0,6.9,5.6,12.5,12.5,12.5H79
	c6.9,0,12.5-5.6,12.5-12.5V81.6c0-1.9,0.5-3.9,1.5-5.5c9.9-15.6,31.8,47.3,34.7,64.7l0,0c7.5,57.3,55.7,102,114.6,104.4l0,0
	c91,2.3-10.1,147.1,52.9,150.2C355.9,392.3,279,293.9,339.1,202.5z"/>
</svg>
