<?xml version="1.0" encoding="utf-8"?>
<!-- Generator: Adobe Illustrator 23.0.6, SVG Export Plug-In . SVG Version: 6.00 Build 0)  -->
<svg version="1.1"
	 id="svg8" inkscape:version="0.92.4 (5da689c313, 2019-01-14)" sodipodi:docname="patreon.svg" xmlns:cc="http://creativecommons.org/ns#" xmlns:dc="http://purl.org/dc/elements/1.1/" xmlns:inkscape="http://www.inkscape.org/namespaces/inkscape" xmlns:rdf="http://www.w3.org/1999/02/22-rdf-syntax-ns#" xmlns:sodipodi="http://sodipodi.sourceforge.net/DTD/sodipodi-0.dtd" xmlns:svg="http://www.w3.org/2000/svg"
	 xmlns="http://www.w3.org/2000/svg" xmlns:xlink="http://www.w3.org/1999/xlink" x="0px" y="0px" viewBox="0 0 400 400"
	 style="enable-background:new 0 0 400 400;" xml:space="preserve">
<path d="M314.2,174.3c14.5-17.2,23.3-39.4,23.3-63.6c0-54.6-44.3-99-98.7-99c-24.3,0-46.6,8.8-63.8,23.4l0-0.1
	c-46.7,36.7-58.9,10.5-62.9-14.8c-0.8-4.9-5.1-8.5-10.1-8.5l-29.1,0c-5.7,0-10.2,4.6-10.2,10.2v243.2c0,5.7,4.6,10.2,10.2,10.2h27.9
	c5.7,0,10.2-4.6,10.2-10.2V75c0-1.6,0.4-3.2,1.2-4.5c8.1-12.8,26.1,38.9,28.5,53.1l0,0c6.2,47.1,45.7,83.8,94.1,85.8l0,0
	c74.7,1.9-8.3,120.8,43.5,123.4C328,330.1,264.9,249.3,314.2,174.3z"/>
</svg>
