<?xml version="1.0" encoding="utf-8"?>
<!-- Generator: Adobe Illustrator 22.0.0, SVG Export Plug-In . SVG Version: 6.00 Build 0)  -->
<!DOCTYPE svg PUBLIC "-//W3C//DTD SVG 1.1//EN" "http://www.w3.org/Graphics/SVG/1.1/DTD/svg11.dtd">
<svg version="1.1" id="Layer_1" xmlns="http://www.w3.org/2000/svg" xmlns:xlink="http://www.w3.org/1999/xlink" x="0px" y="0px"
	 viewBox="0 0 400 400" enable-background="new 0 0 400 400" xml:space="preserve">
<g>
	<path d="M152.1,232.2c-1.1-3-5.1-3.5-6.9-0.8c-16.5,25.5-32.4,49.5-47.5,74.1c-4.6,7.4-9.4,10.2-17.9,9.9
		c-18.1-0.6-36.2,0-54.2-0.3c-2,0-4.1-0.3-6-1.2c-1.8-0.8-2.5-3.4-1.9-5.3c0.5-1.6,1.1-3.2,2-4.6c29.9-46,59.9-91.9,89.8-137.9
		c1.3-1.9,2-6.1,0.3-8.8c-5.8-9.1-11-16.2-17.8-24.5c-2-2.5-6.9-6.2-9.4-4c-2.8,2.6-5.2,7-5.5,10.9c-0.7,9.6,0.4,19.3-0.4,28.9
		c-1.2,14.3-13.2,21.9-26.8,17.4c-9.7-3.2-16.6-10.3-17.7-19.9c-1.4-11.5-1.5-23.7,0.7-35c6.7-33.5,5.7-66.1-5.7-98.4
		c-3.9-11.1-2.7-12.6,9.2-12.6c18.1,0,36.2,0.4,54.2-0.2c6.8-0.2,10.2,2.7,13.3,7.8c15.5,25.3,31.2,50.6,46.8,75.9l0,0
		c1.5,2.3,4.9,2.3,6.3,0c6.2-10,12.4-19.8,18.4-29.6c9.5-15.6,19-31.2,28.3-46.8c2.9-4.8,6.3-7.3,12.6-7.2c19,0.5,38,0.1,57,0.2
		c8.2,0.1,9.7,2.6,5.3,9.4c-24.6,38.6-49.2,77.4-74.2,115.8c-11.6,17.8-11.8,17.3,0,34.9c27.9,41.7,55.5,83.6,83.2,125.4
		c4.3,6.4,2.6,9.3-5.6,9.5c-14,0.2-28.1,0-42.1,0.1c-15.7,0.1-20.9,6.3-18.3,21.6c0.7,4,0.9,8,1.2,12.1c2.1,26.6-20,32.6-37.9,26.8
		c-13.1-4.2-20.4-14.4-20.3-28.2c0.1-9.2,0.8-18.5,2.2-27.7c3.3-22.4,0.9-45.2-7.1-66.3C157.3,246.7,154.9,239.8,152.1,232.2z"/>
	<path d="M294.1,287.6c-2.1-0.1-3.7-1.9-3.6-3.9c0.5-24.7,19.3-41.4,40.6-41.4c11.8,0,23.7-0.7,33.8,6.9
		c18.7,14.1,22.5,34.1,11.2,56.3c-3.6,7.1-7.3,14.3-10,21.8c-1.4,3.9-1.1,8.7-0.6,12.9c0.6,5.2,2.7,9.7,9.5,8.9
		c5.8-0.7,7.6,2.3,7.6,7.7c-0.2,27.2,2.7,23-21.5,23.2c-20.9,0.2-41.8,0.1-62.7,0c-11.5,0-12.3-0.9-10-12.4
		c2.8-14.2,11.1-25.4,20.8-35.5c9.7-10.1,20.2-19.4,30-29.4c5.8-6,10.7-12.6,9.3-21.9c-1-6.6-4.7-9.8-11.1-10.3
		c-6.9-0.5-12.3,2.2-13.2,9c-1.2,9.3-4.2,13.2-14.3,10C304.9,287.8,299.5,287.8,294.1,287.6z"/>
</g>
</svg>
