<?xml version="1.0" encoding="utf-8"?>
<!-- Generator: Adobe Illustrator 23.0.6, SVG Export Plug-In . SVG Version: 6.00 Build 0)  -->
<svg version="1.1" id="Layer_1" xmlns="http://www.w3.org/2000/svg" xmlns:xlink="http://www.w3.org/1999/xlink" x="0px" y="0px"
	 viewBox="0 0 400 400" style="enable-background:new 0 0 400 400;" xml:space="preserve">
<path d="M111.1,168.1c-0.3-0.8-14-26-20-39.6c-5.9-13.6-12.5-38-14.4-42.3c-1.9-4.3-2.7-5.2-3.1-8C71.4,62.7,80.7,52.3,90.3,42
	c12.4-13.3,25.5-25.7,41.6-34.6c6.6-3.7,13-2.9,19.2,0.6c11.2,6.3,16.2,18.1,23.6,27.8c14,18.3,6.6,33-3.6,46.9
	c-5.1,7-10.9,13.5-16.7,20c-2.3,2.6-2.9,4.8-1.5,8.1c13.5,33.5,32.8,62.8,61.5,85.3c3.6,2.8,7.1,5.6,10.5,8.6
	c3.4,3,6.9,3.2,10.9,1.1c7.6-3.8,15.2-7.7,23-10.9c14.7-6,32-9.3,45,7.7c7.2,9.3,14.9,18.5,20.6,28.7c4.8,8.4,1.5,17.8-6.5,23.9
	c-11.2,8.5-23.1,16.2-34.1,25c-11.8,9.5-18.8,22.2-19.3,37.6c-0.2,8.5,1.4,16.9,1.2,25.4c-0.1,5.9-1,12-2.8,17.7
	c-2.2,7-8.3,10.5-14.7,10.1c-5.5-0.4-11.3-4.8-12-11.7c-1-9.6-0.2-19.5-0.1-29.2c0-2.3,0.5-4.5,0.5-6.8c0-1.4,0.2-3.8-1-4.2
	c-1.2-0.4-2.4,2.1-3.2,3.5c-2.5,4.2-4.5,8.7-7.1,12.9c-1.4,2.2-3.4,4.1-5.5,5.5c-6.4,4.1-14,1.9-15.9-5.5
	c-1.4-5.5-1.2-11.5-0.7-17.2c0.5-6.4,2-12.7,3.2-19c2-10.7,0.3-21-5.4-30c-3.2-5-8.8-8.6-13.4-12.7c-10-9.2-20.1-18.3-30.1-27.5l0,0
	c-2.5-2.5-5.2-4.8-7.5-7.5c-5.8-6.9-11.5-13.9-17-21c-6.1-7.8-16.8-22.3-17.9-23.9C114.4,175.1,111.4,169,111.1,168.1z"/>
</svg>
