<?xml version="1.0" encoding="utf-8"?>
<!-- Generator: Adobe Illustrator 22.1.0, SVG Export Plug-In . SVG Version: 6.00 Build 0)  -->
<!DOCTYPE svg PUBLIC "-//W3C//DTD SVG 1.1//EN" "http://www.w3.org/Graphics/SVG/1.1/DTD/svg11.dtd">
<svg version="1.1" id="Layer_1" xmlns="http://www.w3.org/2000/svg" xmlns:xlink="http://www.w3.org/1999/xlink" x="0px" y="0px"
	 viewBox="0 0 400 400" enable-background="new 0 0 400 400" xml:space="preserve">
<g>
	<path d="M156.7,391.7c-41.1,0-82.2,0-123.2,0c-6.5,0-6.6,0-6.6-6.6c0-9.6,0.1-19.1-0.1-28.7c-0.1-3.1,0.7-4.3,4.1-4.4
		c18.2-0.4,28-18,18.6-33.9c-2.5-4.2-4.3-6-7.9-9.4c-1.3-1.2-4.1-3-8-3.2c-3.9-0.3-5.8-1.4-5.9-6.1c-0.3-9.4-0.5-18.8,0-28.2
		c0.2-4.3,1.5-5.3,5.5-5.3c39.2,0.1,78.5,0.1,117.7,0.1c9.9,0,19.7-6.7,23-15.6c3.1-8.4,0.1-17.5-8.3-24.5c-5.5-4.6-11.3-7.2-19-7.1
		c-38.1,0.4-76.1,0.1-114.2,0.3c-4.2,0-5.6-0.8-5.6-5.4c0-9.7-0.1-19.4,0.1-29.2c0.1-3.1,0.8-4,3.9-4c14.1,0.2,28.2,0.1,42.3,0.1
		c13,0,21.5-12.3,16.7-24.5c-4.2-10.6-10.2-15.2-19.8-20.5c-3.1-1.7-4.6-1.7-10.5-1.9c-10.2-0.3-17.1-0.1-27.3,0.2
		c-3.9,0.1-5.2-1.1-5.2-5.2c0-9.5-0.1-19.2,0-29.2c0.1-4.3,1.4-5.4,5.5-5.4c29,0.1,58,0.1,87,0.1c53.3,0,106.6,0.1,160-0.1
		c4.7,0,6.1,1,6.3,6.1c0.4,9.4,0.2,18.8,0,28.2c-0.1,4.4-1.5,5.4-5.5,5.4c-45.6-0.1-91.2,0-136.8-0.1c-9.1,0-11,1-13.8,9.7
		c-4.1,12.5-1.4,24.2,5.1,35.2c0.7,1.3,3.3,2,5.1,2c18.1,0.1,36.2,0.2,54.3,0c4.2-0.1,5.2,1,5.3,5.2c0.3,15.2,0.5,30.5,1.8,45.6
		c1.1,12.3,7.1,23,15.6,32c1.5,1.6,4.6,2.5,7,2.6c47.3,0.1,94.6,0.1,141.8,0.1c6.5,0,6.4,0,6.3,6.6c0.1,9.2-0.1,18.4,0,27.7
		c0,4.3-1.3,5.2-5.4,5.2c-77-0.1-153.9,0-230.9-0.2c-5.5,0-8.7,2.1-11.5,6.2c-8.4,12.2-6,30,5.6,39c1.7,1.3,4.7,1.6,7,1.6
		c47.5,0.1,94.9,0.1,142.4,0.1c7.6,0,6.3-0.4,6.3,6.5c0.1,9.4-0.2,18.8,0.1,28.2c0.1,4.1-1.3,5-5.1,5
		C239.2,391.7,198,391.8,156.7,391.7C156.7,391.8,156.7,391.7,156.7,391.7z"/>
	<path d="M199,8.3c55.3,0,110.7,0.1,166-0.1c4.9,0,6.5,1.4,6,6.2c-0.4,3.8-0.1,7.7-0.1,11.6c0.1,11,0,21.9-3.2,32.8
		c-3.3,11.4-2.3,23.2,0.9,34.8c1.8,6.6,3,13.4,4.4,20.1c0.3,1.3,0.2,2.7,0.2,4c0,12.7-6.5,21.4-16.8,22.8
		c-11.1,1.5-23.1-6.1-25.4-17.5c-1.3-6.7-0.6-13.9,0.3-20.8c0.9-6.8,3.5-13.3,4.7-20c2.8-15.5-4.2-26.9-19.4-30.9
		c-7.5-2-15.5-3.2-23.3-3.2c-86.8-0.2-173.7-0.2-260.5-0.1c-4.7,0-6.2-0.8-6.2-5.9c0-9.1-0.1-18.5,0-28.2c0.1-4.5,1.5-5.6,5.8-5.6
		C88,8.3,143.5,8.3,199,8.3z"/>
</g>
</svg>
