<?xml version="1.0" encoding="utf-8"?>
<!-- Generator: Adobe Illustrator 23.0.1, SVG Export Plug-In . SVG Version: 6.00 Build 0)  -->
<svg version="1.1"
	 id="svg4" xmlns:cc="http://creativecommons.org/ns#" xmlns:dc="http://purl.org/dc/elements/1.1/" xmlns:inkscape="http://www.inkscape.org/namespaces/inkscape" xmlns:rdf="http://www.w3.org/1999/02/22-rdf-syntax-ns#" xmlns:sodipodi="http://sodipodi.sourceforge.net/DTD/sodipodi-0.dtd" xmlns:svg="http://www.w3.org/2000/svg"
	 xmlns="http://www.w3.org/2000/svg" xmlns:xlink="http://www.w3.org/1999/xlink" x="0px" y="0px" viewBox="0 0 400 400"
	 style="enable-background:new 0 0 400 400;" xml:space="preserve">
<sodipodi:namedview  bordercolor="#666666" borderopacity="1" fit-margin-bottom="50" fit-margin-left="0" fit-margin-right="0" fit-margin-top="0" gridtolerance="10" guidetolerance="10" id="namedview6" inkscape:current-layer="svg4" inkscape:cx="103.77007" inkscape:cy="102.44247" inkscape:pageopacity="0" inkscape:pageshadow="2" inkscape:window-height="1017" inkscape:window-maximized="1" inkscape:window-width="1920" inkscape:window-x="1358" inkscape:window-y="-8" inkscape:zoom="2.6074563" objecttolerance="10" pagecolor="#ffffff" showgrid="false">
	</sodipodi:namedview>
<path d="M330,80.6c-1.5-2.7-5.4-7-7.6-8.2L207.6,6.3c-1.9-1.2-4.6-1.7-7.5-1.7s-5.6,0.7-7.5,1.7L76,74c-4.1,2.4-7,8.5-7,13.1v135.2
	c0,2.7,0,5.8,1.7,8.5c1.2,1.9,2.9,3.6,4.6,4.6l88.7,51.3c7.5,4.3,13.8,10.4,18.1,17.9c22.5,39.2-12.5,89.9,17,90.7
	c27.4-3.3,6.6-39.8,11.7-73c2.3-14.8,11.4-27.7,24.3-35.2l88.9-51.7c4.1-2.4,7-8.5,7-13.1V86.9C330.9,84.8,330.9,82.8,330,80.6z
	 M194.9,250.4c-50.2-2.7-90-44.3-90.7-94.5c-0.5-40,23.5-74.4,57.9-89.3c6.6-2.8,14.2-2.5,20.2,1.3c12.3,7.7,16.8,24-2.2,30.8l0,0
	c-24.3,8.7-41.4,32.7-39.4,60.4c2.1,28.9,25.1,52.3,53.9,54.9c20.8,1.9,39.8-7.1,51.7-21.9c3.5-4.4,9.7-5.4,14.5-2.6l11.9,7
	c5.8,3.4,7.4,11.2,3.3,16.5C257.6,237,227.9,252.2,194.9,250.4z M262.1,119.6C262.1,119.5,262.2,119.5,262.1,119.6
	c-19.1,8-57.2-52.6-33.3-55c2.4-0.2,4.8,0.2,7.1,1.2c16.1,6.5,30,17.3,40.3,30.9c4.2,5.4,2.6,13.3-3.3,16.7L262.1,119.6z"/>
</svg>
