<?xml version="1.0" encoding="utf-8"?>
<!-- Generator: Adobe Illustrator 23.0.1, SVG Export Plug-In . SVG Version: 6.00 Build 0)  -->
<svg version="1.1"
	 id="svg2985" inkscape:version="0.92.1 r15371" sodipodi:docname="Calligra_Krita_icon.svg" xmlns:cc="http://creativecommons.org/ns#" xmlns:dc="http://purl.org/dc/elements/1.1/" xmlns:inkscape="http://www.inkscape.org/namespaces/inkscape" xmlns:rdf="http://www.w3.org/1999/02/22-rdf-syntax-ns#" xmlns:sodipodi="http://sodipodi.sourceforge.net/DTD/sodipodi-0.dtd" xmlns:svg="http://www.w3.org/2000/svg"
	 xmlns="http://www.w3.org/2000/svg" xmlns:xlink="http://www.w3.org/1999/xlink" x="0px" y="0px" viewBox="0 0 400 400"
	 style="enable-background:new 0 0 400 400;" xml:space="preserve">
<sodipodi:namedview  bordercolor="#666666" borderopacity="1" gridtolerance="10" guidetolerance="10" id="namedview9" inkscape:current-layer="svg2985" inkscape:cx="-48.825106" inkscape:cy="560.74618" inkscape:pageopacity="0" inkscape:pageshadow="2" inkscape:window-height="1017" inkscape:window-maximized="1" inkscape:window-width="1920" inkscape:window-x="1358" inkscape:window-y="-8" inkscape:zoom="0.32593203" objecttolerance="10" pagecolor="#ffffff" showgrid="false">
	</sodipodi:namedview>
<path d="M214.9,49.1c-40.5,0-77.7,13.9-107.2,37.1C62.6,42,17.4,0.1,12.4,5c-1,1,0,3.9,2.7,8.1c16.7,37.5-9.6,79.6,9,80.3
	c21.1,0.5-8.7-72.6,5.6-61.7c15.5,17.9,39.2,42.5,63.8,67.1c-32,31.4-51.8,75.1-51.8,123.5c0,95.6,77.5,173.1,173.1,173.1
	S388,317.9,388,222.3S310.5,49.1,214.9,49.1z M293.2,366.6c-6.6,6.5-14.6,11.4-23.4,14.4c-17.4,6-36,9.3-55.4,9.3
	c-93,0-168.2-74.5-169-167.6c-0.4-45.9,17.6-87.7,47-118.4c1.8-1.9,4.8-1.9,6.6-0.1c6.7,6.7,13.5,13.5,20.1,20c2,2,2.2,5.2,0.5,7.4
	l-32.4,40.7c-3.2,4-4.6,9-3.9,14c0.2,1.5,0.4,3.2,0.7,4.6c1.5,10.2,3.6,19.7,6.3,28.7c1.3,4.2,2.2,8.4,2.7,12.8
	c6.1,50.9-8.4,79.2,9.3,78.6c16.8,1.3,3-44.2,2.3-54.3c-0.1-2,0.6-2.8,1.4-1.2c1.3,2.2,2.7,4.4,4.2,6.5c0.2,0.3,0.3,0.5,0.7,1
	c13.9,20.2,33.2,38,59.4,55.7c33.9,23,82.8,37.1,116.5,29.6c1.7-0.4,3.3-0.7,5-0.7C303.4,347.3,304.6,355.3,293.2,366.6z
	 M214.4,259.8c0.1,1.5,0.2,2.8,0.1,4.1c-0.2,3.7-2.3,7.1-5.7,8.6c-9.5,4.2-11.3-13.5-6.5-22.2c0.2-0.2,0.4-0.5,0.5-0.8
	c2.4-4.1-1.5-10.7-8.6-14.9c-7.1-4.1-14.8-4.1-17.2,0c-1.7,3-0.1,7.4,3.7,11.2c12.1,11.6,11.1,24.6,1.6,23.3
	c-1.3-0.2-2.6-0.7-3.8-1.3c-12.7-7.3-25.8-19.2-33.8-32.5c-4.6-7.6-8.2-16-11-24.9c-4.7-23.6,5.5-43.6,14.4-49.4c3-2,7-1.4,9.6,1.1
	c19.6,18.9,33.2,31.7,33.2,31.7l35.1,33.4c2,1.9,3.5,4.4,4.2,7.1c1.4,5.9,0.4,9.8-3.9,13.7c-1.7,1.5-3.6,2.7-5.6,3.7
	C216.5,253.7,214.1,256.5,214.4,259.8z M127.4,165.2c-0.8-0.8-1.2-2-1.2-3.2c-0.1-8.9,0.4-17.5,1.5-25.5c0.2-1.4,1.9-2,2.9-1
	c1.7,1.7,3.4,3.3,5.1,4.9C142.8,148.6,132.9,170.9,127.4,165.2z M242.4,242.7L242.4,242.7c0.6,0.5,0.8,1.2,0.8,1.9
	c0,0.4,0,0.8,0,1.1c0,0.7-0.5,1.2-1.2,1.3c-1.8,0.1-3.6,0.3-5.3,0.4c-4.7,0.1-1.5-7.1,3.4-6C241,241.6,241.8,242,242.4,242.7z
	 M332.8,338.6c-10.5,4.1-14.7-2.7-12.3-14.3c0.3-1.3,0.7-2.6,1.1-3.8c2.2-6,3.3-13,3.1-21.2c-0.4-17.9-10.2-30.5-23.7-38.9
	c-3-1.9-6-3.9-8.7-6.2c-6.1-5-13.3-9-21.1-12.3c-4-1.7-7.8-2.7-11.7-3.7c-5.4-1.4-10.2-4.3-14-8.5l-43.1-47.6c0,0-43.5-45.4-89-90.3
	c-1.8-1.8-1.6-4.8,0.4-6.3c18.5-13.7,39.9-23.7,63.1-29c4.4-1,8.9-1.3,13.3-0.6c45.6,6.8-5.6,94.4,21.5,94.7
	c27.9-0.5-14.8-80.1,23-93.6c4.9-1.8,10.2-2,15.3-0.9c76.2,16.4,133.3,84.1,133.3,165.2c0,42.1-15.4,80.6-40.8,110.2
	C339.8,334.7,336.5,337.2,332.8,338.6z"/>
</svg>
