<?xml version="1.0" encoding="utf-8"?>
<!-- Generator: Adobe Illustrator 23.0.6, SVG Export Plug-In . SVG Version: 6.00 Build 0)  -->
<svg version="1.1"
	 id="svg4" inkscape:version="0.92.1 r15371" sodipodi:docname="debian.svg" xmlns:cc="http://creativecommons.org/ns#" xmlns:dc="http://purl.org/dc/elements/1.1/" xmlns:inkscape="http://www.inkscape.org/namespaces/inkscape" xmlns:rdf="http://www.w3.org/1999/02/22-rdf-syntax-ns#" xmlns:sodipodi="http://sodipodi.sourceforge.net/DTD/sodipodi-0.dtd" xmlns:svg="http://www.w3.org/2000/svg"
	 xmlns="http://www.w3.org/2000/svg" xmlns:xlink="http://www.w3.org/1999/xlink" x="0px" y="0px" viewBox="0 0 400 400"
	 style="enable-background:new 0 0 400 400;" xml:space="preserve">
<style type="text/css">
	.st0{fill:#00000A;}
</style>
<path class="st0" d="M98.9,68.3c0.4-0.3,0.8-0.8,1-1.2c2.5-5.9-1.2-1.8-1.5-3.6C98.8,69.5,93.9,71.9,98.9,68.3z"/>
<polygon class="st0" points="209,9.8 207.3,10.2 208.9,10 "/>
<path class="st0" d="M93.3,83.8c-3.9,5-1.8,6-2.2,9.4C92.5,88.9,92.8,86.3,93.3,83.8z"/>
<path class="st0" d="M215.8,5c-4.2,0.4-8.4,0.6-12.5,1.1l1.8,0.3C208.2,5.2,212.6,5.7,215.8,5z"/>
<path class="st0" d="M294.4,154.2c4.4-8.3,7.3-17.5,8.5-26.7l-0.7,1.7C301,137.8,298.4,146.3,294.4,154.2z"/>
<path class="st0" d="M204.2,8.5c2.4,0.4,5.2,0.8,4.8,1.3C211.7,9.3,212.3,8.7,204.2,8.5z"/>
<path class="st0" d="M254.4,119.3c0.5-8.1-1.6-5.5-2.3-2.5C252.9,117.3,253.6,122.5,254.4,119.3z"/>
<path class="st0" d="M221.3,148.5c-4.2,0.1,0.1,2,5.4,3c0.8,0.2,1.7-0.1,2.4-0.6c1.2-1,2.3-2,3.4-3
	C228.8,148.8,225.1,148.9,221.3,148.5z"/>
<path class="st0" d="M244.1,141c1.2,0.3,2.5-0.2,3.2-1.3c1.7-2.9,3-6,3.5-9.2c-0.6,2.8-2,5.2-3.4,7.6c-0.2,0.4-0.6,0.8-1,1
	c-7.4,4.4-0.1-3.6,0.6-6.8C240.9,140.2,242.5,140.6,244.1,141z"/>
<path class="st0" d="M179.3,154.9c-0.1-0.3-0.3-0.6-0.5-0.9c-1.4-1.7-2.2-3.6-3.2-5.5c1,3.7,3,6.8,4.9,10L179.3,154.9z"/>
<path class="st0" d="M295.9,124.6c2.2-3.3,2.4,3.5,0.1,11c3.2-8.3,0.8-9.7,1.7-16.6c0.9,2.3,2,4.8,2.6,7.2
	c-1.6-6.3,0.6-11.1,2.1-15.1c0.4-1.1-0.2-2.2-1.2-2.8c-0.7-0.4-1.3-1.9-1.5-6.3l0,0c0-1.4,0.2-2.1,0.4-2.5c0.4-0.7,0.3-1.6-0.1-2.3
	c-0.9-1.6-2.1-4.3-2.9-8.1c0.9-1.4,2.5,3.7,3.8,3.9c-0.8-4.8-2.2-8.5-2.3-12.2c-3.7-7.8-1.3,1-4.3-3.3c-3.1-9.6,0.6-6.1,2.6-6.6
	c1.2-0.3,2.5,0.1,3.1,1.2c4.8,8.6,7.7,19.8,9.1,24.8c-1.1-6.3-2.9-12.5-5-18.5c-0.2-0.6-0.2-1.2-0.1-1.7c0.3-1.5-1.1-6.7-0.5-7.2
	c0.6-0.5,1.1-1,0.8-1.7c-7.1-19-24.1-36.2-39.9-44.6c2.1,1.9,4.8,4.3,3.8,4.7c-6.7-4-7.2-5.1-7.7-6.4c-0.3-0.8-0.9-1.4-1.7-1.7
	c-5.5-1.9-6.4,0.3-10,0.4c-0.5,0-1-0.1-1.5-0.3c-12.6-6.6-15.2-5.9-27.1-10.2l0.6,2.6c-8.7-2.9-10.1,1.1-19.5,0
	c-0.6-0.4,3-1.6,5.9-2c-8.4,1.1-8-1.7-16.2,0.3c2-1.4,4.2-2.4,6.3-3.6c-5.5,0.3-12.7,2.7-13.8,1.9c-0.5-0.3-1-0.6-1.6-0.3
	c-11.4,4.9-29.6,11.7-40.1,21.5l-0.3-2.3c-5.1,6.1-22.2,18.3-23.6,26.2l-1.4,0.3c-2.7,4.5-4.4,9.6-6.5,14.2
	c-3.5,5.9-5.1,2.3-4.6,3.2c-6.6,13.4-10,24.7-12.8,34c-0.2,0.5-0.2,1.1,0,1.6c1.5,4.2-0.2,18.7,0.5,30.5c0,0.1,0,0.2,0,0.2
	c-3.4,61.7,43.2,121.5,94.2,135.6c0.3,0.1,0.5,0.2,0.8,0.3c33.2,21.2-8.7,78.4,16.4,79c20-0.5-8.3-54.9,7.5-73.2
	c1.4-1.6,0.5-4.1-1.6-4.5c-6.6-1.4-9.3-1-18-4.1c-0.1-0.1-0.3-0.1-0.4-0.2c-7.7-3.7-9.5-7.9-15-12.7l2.2,3.9
	c-9.1-3.2-7.5-4.4-11.8-6.3c-1.7-0.7-2.2-2.9-1.1-4.3l0,0c-3.1-0.2-8-4.6-10.2-7.8c-0.5-0.8-1.4-1.3-2.4-1.2l-0.8,0
	c-0.9,0-1.8-0.4-2.3-1.1c-4.1-5.2-6.2-9-6-12l-1.3,2.2c-1.2-2-11.7-15-11.3-17.4c0.1-0.8,0.1-1.5-0.5-2.1c-0.9-0.9-1.9-2-2.9-3.9
	l1.7-1.9c-3.9-5-7.2-11.5-7-13.7c2.1,2.8,3.5,3.4,5,3.8c-9.9-24.6-10.5-1.4-18-25l1.6-0.1c-1.1-1.6-1.8-3.3-2.6-5.1
	c-0.2-0.5-0.3-1-0.3-1.5c0.1-1.2,0.4-3.6,0.5-5c0.1-0.7-0.1-1.3-0.5-1.9c-6.3-9-1.4-34.7-0.4-49c0.7-6,6-12.4,9.9-22.3l-2.4-0.4
	c1-1.8,2.9-4.4,5.3-7.3c0.3-0.4,0.7-0.6,1.1-0.8c41.3-18.1-11.1,86,20,88.5c14.6-0.5-20.1-114.9,21.5-114.1
	c22.6-1.7,1.1,31,12.4,32.6c15.2-0.3-12.2-36.1,22.6-52.5c0.3-0.1,0.6-0.2,0.9-0.3c12.5-2,30.1,0,42.4,5.7c18.4,8.6,39.1,34.1,40,58
	l0.9,0.2c-0.5,9.5,1.5,20.5-1.9,30.7l2.3-4.8c0.3,6.9-1.9,10.4-3.9,16c-0.2,0.7-0.7,1.2-1.4,1.6l-2,1c-0.6,0.3-1,0.7-1.3,1.3
	c-2.4,5.1,0.6,3.3-1.5,8c-5,4.4-15.1,13.8-18.3,14.7c-2.4-0.1,1.6-2.8,2.1-3.9c-6.6,4.6-5.3,6.9-15.5,9.6l-0.3-0.7
	c-25.1,11.8-60-11.6-59.5-43.5c-0.3,2-0.8,1.5-1.3,2.3c-1.3-16.4,7.6-32.9,22.6-39.7c7.3-3.6,15.3-4.7,22.8-3.6
	c0.3,0,0.5,0.1,0.8,0.2c21.4,8.6-2.3,44.7,12.3,46.7c12.7-0.6-1.4-27.8,4.9-36.3c0.8-1.1,0.7-2.5-0.2-3.5
	c-6.2-6.9-16.8-13.4-29.1-12.7c-13,0.2-25.2,8.3-29.6,17.2c-0.2,0.4-0.5,0.7-0.9,1c-5.9,4.3-7,14.8-9.5,17.9
	c-0.3,0.4-0.6,0.9-0.7,1.4c-3.6,28.8,7.8,41.4,27.1,56.1c1.6,1.1,1.8,1.7,1.6,2.2l0,0c6.3,2.4,12.6,3.9,19,4.6
	c4.3,2.1-3.2,3.1-10.1,2.3c-0.5-0.1-0.9-0.3-1.4-0.4c-3.3-1.8-7.5-5-7.5-6.1c-0.2,0.4-0.5,0.9-0.3,1.5c-6.5-3-12.4-7.6-17.3-13.2
	c2.6,3.8,5.4,7.5,9,10.4c-6.1-2.1-14.3-14.8-16.6-15.3c10.5,18.8,42.7,33.1,59.6,26c0,0,0,0,0,0c0,0,0,0,0,0l0,0
	c-0.8,0-1.6,0-2.4,0.1c-3.3-0.3,2.9-3.5,10.5-6.7c0.1,0,0.2-0.1,0.3-0.1c8.4-2.2,16.5-6.3,24-12.3c5.1-3.9,10.6-10.7,12.2-10.7
	c-2.4,3.6,0.4,1.7-1.4,4.9c4.3-7-0.4-4.4,2.9-10.4c1-1.8,3.5-2,4.7-0.3l0.3,0.4C287.5,143.5,296.9,135.3,295.9,124.6z"/>
<path class="st0" d="M171.8,156.6c-0.2,0.8,0,1.6,0.5,2.2c2.6,3.7,4.9,7.6,8.4,10.5c-2.7-5.3-4.7-7.5-8.5-14.7L171.8,156.6z"/>
</svg>
