<?xml version="1.0" encoding="utf-8"?>
<!-- Generator: Adobe Illustrator 23.0.1, SVG Export Plug-In . SVG Version: 6.00 Build 0)  -->
<svg version="1.1"
	 id="svg4" inkscape:version="0.92.1 r15371" sodipodi:docname="debian.svg" xmlns:cc="http://creativecommons.org/ns#" xmlns:dc="http://purl.org/dc/elements/1.1/" xmlns:inkscape="http://www.inkscape.org/namespaces/inkscape" xmlns:rdf="http://www.w3.org/1999/02/22-rdf-syntax-ns#" xmlns:sodipodi="http://sodipodi.sourceforge.net/DTD/sodipodi-0.dtd" xmlns:svg="http://www.w3.org/2000/svg"
	 xmlns="http://www.w3.org/2000/svg" xmlns:xlink="http://www.w3.org/1999/xlink" x="0px" y="0px" viewBox="0 0 400 400"
	 style="enable-background:new 0 0 400 400;" xml:space="preserve">
<style type="text/css">
	.st0{fill:#00000A;}
</style>
<sodipodi:namedview  bordercolor="#666666" borderopacity="1" fit-margin-bottom="50" fit-margin-left="0" fit-margin-right="0" fit-margin-top="0" gridtolerance="10" guidetolerance="10" id="namedview6" inkscape:current-layer="svg4" inkscape:cx="59.865629" inkscape:cy="124.05621" inkscape:pageopacity="0" inkscape:pageshadow="2" inkscape:window-height="1017" inkscape:window-maximized="1" inkscape:window-width="1920" inkscape:window-x="1358" inkscape:window-y="-8" inkscape:zoom="2.6074563" objecttolerance="10" pagecolor="#ffffff" showgrid="false">
	</sodipodi:namedview>
<g>
	<path class="st0" d="M89.3,78.9c0.5-0.3,0.9-0.8,1.1-1.4c2.7-6.5-1.3-2-1.7-4C89.2,80.1,83.9,82.8,89.3,78.9z"/>
	<polygon class="st0" points="209.9,14.8 208,15.2 209.8,15.1 	"/>
	<path class="st0" d="M83.2,95.8c-4.3,5.5-2,6.6-2.4,10.3C82.3,101.3,82.6,98.5,83.2,95.8z"/>
	<path class="st0" d="M217.3,9.5c-4.6,0.4-9.2,0.6-13.7,1.2l2,0.3C208.9,9.8,213.8,10.3,217.3,9.5z"/>
	<path class="st0" d="M303.3,172.9c4.9-9.1,8-19.1,9.3-29.2l-0.7,1.8C310.6,154.9,307.7,164.2,303.3,172.9z"/>
	<path class="st0" d="M204.6,13.4c2.6,0.5,5.7,0.8,5.3,1.5C212.8,14.2,213.4,13.6,204.6,13.4z"/>
	<path class="st0" d="M259.5,134.6c0.6-8.9-1.7-6.1-2.5-2.7C257.9,132.4,258.6,138.2,259.5,134.6z"/>
	<path class="st0" d="M223.3,166.6c-4.5,0.1,0.1,2.2,5.9,3.3c0.9,0.2,1.9-0.1,2.6-0.6c1.3-1.1,2.6-2.2,3.7-3.3
		C231.5,167,227.4,167,223.3,166.6z"/>
	<path class="st0" d="M248.2,158.4c1.4,0.4,2.8-0.2,3.5-1.4c1.9-3.2,3.3-6.6,3.8-10.1c-0.6,3-2.2,5.6-3.7,8.4
		c-0.3,0.5-0.6,0.9-1.1,1.1c-8,4.9-0.1-4,0.7-7.4C244.8,157.5,246.5,158,248.2,158.4z"/>
	<path class="st0" d="M177.4,173.6c-0.1-0.3-0.3-0.7-0.5-0.9c-1.5-1.8-2.5-3.9-3.5-6c1.1,4,3.3,7.4,5.4,10.9L177.4,173.6z"/>
	<path class="st0" d="M305,140.4c2.4-3.6,2.6,3.8,0.1,12.1c3.5-9.1,0.9-10.6,1.8-18.1c1,2.5,2.2,5.2,2.9,7.9
		c-1.8-6.9,0.7-12.1,2.3-16.5c0.5-1.2-0.2-2.4-1.3-3.1c-0.7-0.4-1.4-2.1-1.6-6.9l0,0c0-1.6,0.2-2.3,0.4-2.7c0.5-0.8,0.3-1.7-0.1-2.5
		c-1-1.7-2.3-4.7-3.2-8.9c1-1.6,2.7,4.1,4.1,4.3c-0.9-5.3-2.5-9.3-2.5-13.4c-4.1-8.5-1.4,1.1-4.8-3.7c-3.4-10.5,0.7-6.6,2.9-7.2
		c1.3-0.3,2.7,0.1,3.4,1.3c5.3,9.4,8.4,21.7,10,27.1c-1.2-6.9-3.1-13.7-5.5-20.2c-0.2-0.6-0.2-1.3-0.1-1.9c0.3-1.6-1.2-7.4-0.5-7.9
		c0.6-0.5,1.2-1.1,0.9-1.9c-7.7-20.8-26.4-39.6-43.6-48.8c2.3,2.1,5.2,4.7,4.2,5.2c-7.3-4.4-7.9-5.6-8.4-7c-0.3-0.8-1-1.5-1.9-1.8
		c-6-2.1-7,0.3-11,0.5c-0.6,0-1.1-0.1-1.6-0.4c-13.7-7.2-16.6-6.5-29.6-11.2l0.6,2.8c-9.5-3.2-11.1,1.2-21.3,0
		c-0.6-0.5,3.3-1.8,6.5-2.2c-9.2,1.2-8.8-1.8-17.7,0.3c2.2-1.6,4.6-2.6,6.9-3.9c-6,0.4-13.9,3-15.1,2.1c-0.5-0.4-1.1-0.6-1.7-0.4
		c-12.5,5.4-32.4,12.8-43.9,23.6l-0.4-2.6c-5.6,6.7-24.3,20-25.8,28.7l-1.5,0.3c-2.9,4.9-4.8,10.5-7.1,15.5c-3.8,6.5-5.6,2.5-5,3.5
		c-7.2,14.6-10.9,27-14.1,37.2c-0.2,0.6-0.2,1.2,0,1.8c1.7,4.6-0.2,20.5,0.6,33.4c0,0.1,0,0.2,0,0.3c-3.7,67.5,47.3,133,103.1,148.4
		c0.3,0.1,0.6,0.2,0.9,0.4c36.3,23.2-9.5,85.8,18,86.5c21.9-0.6-9.1-60.1,8.3-80.1c1.5-1.7,0.5-4.5-1.7-5
		c-7.3-1.6-10.1-1.1-19.7-4.5c-0.1-0.1-0.3-0.1-0.4-0.2c-8.4-4-10.4-8.6-16.4-13.9l2.4,4.3c-10-3.5-8.2-4.8-12.9-6.9
		c-1.8-0.8-2.5-3.1-1.2-4.7l0,0c-3.4-0.3-8.7-5.1-11.2-8.6c-0.6-0.9-1.6-1.4-2.6-1.3l-0.9,0c-1,0-1.9-0.4-2.6-1.2
		c-4.5-5.6-6.8-9.8-6.6-13.1l-1.4,2.4c-1.3-2.2-12.9-16.4-12.4-19c0.2-0.8,0.1-1.7-0.6-2.3c-1-0.9-2.1-2.2-3.2-4.2l1.8-2.1
		c-4.3-5.5-7.9-12.6-7.6-15c2.3,3.1,3.9,3.7,5.5,4.2c-10.8-26.9-11.5-1.5-19.7-27.4l1.7-0.1c-1.2-1.8-1.9-3.7-2.8-5.5
		c-0.2-0.5-0.3-1.1-0.3-1.6c0.1-1.3,0.4-4,0.5-5.5c0.1-0.7-0.1-1.4-0.5-2c-6.8-9.9-1.5-38-0.4-53.7c0.8-6.6,6.5-13.5,10.9-24.5
		l-2.7-0.5c1.1-2,3.2-4.8,5.8-8c0.3-0.4,0.7-0.7,1.2-0.9c45.2-19.8-12.1,94.1,21.9,96.9c16-0.6-22-125.8,23.5-124.9
		c24.7-1.9,1.2,33.9,13.6,35.7c16.7-0.4-13.3-39.5,24.7-57.4c0.3-0.1,0.6-0.2,0.9-0.3c13.7-2.2,32.9,0,46.5,6.3
		c20.2,9.4,42.8,37.3,43.7,63.5l1,0.3c-0.5,10.4,1.6,22.5-2.1,33.6l2.5-5.2c0.3,7.5-2,11.4-4.3,17.5c-0.3,0.7-0.8,1.4-1.5,1.7
		l-2.2,1.1c-0.6,0.3-1.1,0.8-1.4,1.4c-2.6,5.6,0.7,3.6-1.7,8.7c-5.4,4.8-16.5,15.1-20,16.1c-2.6-0.1,1.8-3,2.3-4.2
		c-7.3,5-5.8,7.5-17,10.5l-0.3-0.7c-27.5,12.9-65.6-12.7-65.1-47.6c-0.3,2.2-0.8,1.7-1.4,2.6c-1.4-18,8.3-36,24.7-43.4
		c8-4,16.8-5.1,24.9-4c0.3,0,0.6,0.1,0.8,0.2c23.4,9.4-2.5,48.9,13.5,51.1c13.9-0.7-1.5-30.4,5.4-39.8c0.9-1.2,0.8-2.8-0.2-3.8
		c-6.7-7.5-18.3-14.7-31.9-13.9c-14.2,0.2-27.6,9.1-32.4,18.9c-0.2,0.4-0.5,0.8-1,1.1c-6.5,4.7-7.7,16.2-10.4,19.6
		c-0.4,0.5-0.6,1-0.7,1.6c-4,31.5,8.6,45.3,29.7,61.4c1.7,1.2,1.9,1.8,1.8,2.4l0,0c6.9,2.6,13.8,4.2,20.7,5
		c4.7,2.3-3.5,3.4-11.1,2.5c-0.5-0.2-1-0.3-1.5-0.5c-3.6-2-8.2-5.5-8.3-6.7c-0.2,0.5-0.5,1-0.3,1.7c-7.1-3.3-13.6-8.3-18.9-14.5
		c2.8,4.1,5.9,8.2,9.8,11.3c-6.7-2.3-15.6-16.2-18.2-16.8c11.5,20.6,46.7,36.2,65.2,28.5c0,0,0,0,0,0c0,0,0,0,0,0l0,0
		c-0.9,0-1.8,0.1-2.7,0.1c-3.6-0.4,3.2-3.8,11.5-7.3c0.1,0,0.2-0.1,0.4-0.1c9.2-2.4,18-6.9,26.3-13.5c5.5-4.3,11.6-11.7,13.3-11.8
		c-2.6,4,0.5,1.9-1.6,5.4c4.8-7.7-0.5-4.8,3.2-11.4c1.1-2,3.9-2.1,5.2-0.3l0.3,0.5C295.8,161.1,306.1,152.1,305,140.4z"/>
	<path class="st0" d="M169.1,175.5c-0.2,0.8,0,1.7,0.5,2.4c2.9,4.1,5.4,8.4,9.2,11.5c-3-5.8-5.2-8.2-9.2-16.1L169.1,175.5z"/>
</g>
</svg>
