<?xml version="1.0" encoding="utf-8"?>
<!-- Generator: Adobe Illustrator 23.0.1, SVG Export Plug-In . SVG Version: 6.00 Build 0)  -->
<svg version="1.1"
	 id="svg8" xmlns:cc="http://creativecommons.org/ns#" xmlns:dc="http://purl.org/dc/elements/1.1/" xmlns:inkscape="http://www.inkscape.org/namespaces/inkscape" xmlns:rdf="http://www.w3.org/1999/02/22-rdf-syntax-ns#" xmlns:sodipodi="http://sodipodi.sourceforge.net/DTD/sodipodi-0.dtd" xmlns:svg="http://www.w3.org/2000/svg"
	 xmlns="http://www.w3.org/2000/svg" xmlns:xlink="http://www.w3.org/1999/xlink" x="0px" y="0px" viewBox="0 0 400 400"
	 style="enable-background:new 0 0 400 400;" xml:space="preserve">
<sodipodi:namedview  bordercolor="#666666" borderopacity="1" fit-margin-bottom="20" fit-margin-left="0" fit-margin-right="0" fit-margin-top="0" gridtolerance="10" guidetolerance="10" id="namedview10" inkscape:current-layer="svg8" inkscape:cx="-1.1586341" inkscape:cy="25.958005" inkscape:pageopacity="0" inkscape:pageshadow="2" inkscape:window-height="705" inkscape:window-maximized="1" inkscape:window-width="1366" inkscape:window-x="-8" inkscape:window-y="245" inkscape:zoom="4" objecttolerance="10" pagecolor="#ffffff" showgrid="false">
	</sodipodi:namedview>
<g id="Layer_1">
</g>
<g>
	<path d="M280.6,100.1H263c-0.6,0-0.6,0-0.9,0s-0.7,0.5-1,1.3c0,0.1-0.1,0.2-0.1,0.3c-6.7,18.4-18.4,42.1-27.8,28.2
		c-0.7-1-1.2-2.2-1.6-3.4c-2.1-7.5-4.7-15.9-7.5-25.2c-0.2-0.5-0.2-0.6-0.4-0.9c-0.1-0.3-0.4-0.5-0.6-0.6
		c-12.8-4.6-25.7-9.6-31-27.6c-0.3-1-0.7-1.9-1.4-2.7c-0.2-0.2-0.3-0.4-0.6-0.5c-0.3-0.2-0.7-0.4-0.8-0.4c-2.5-1.3-4.7-2-9-2.6
		c-4.4-0.6-9.4-1.3-15.1-1.3c-13.2,0-23.2,3.8-29.5,10.7c-6.9,6.9-10,15.7-10,25.1c0,7.5,1.9,13.8,5.6,20.1
		c3.8,6.3,10.7,11.9,20.7,17.6l6.9,3.8c6.9,3.8,11.3,7.5,13.8,10.7c2.5,3.1,3.8,6.9,3.8,10.7c0,4.4-1.3,7.5-5,10.7
		c-3.1,3.1-8.2,5-15.7,5c-5,0-10-0.6-14.4-1.9c-5-1.3-7.7-2.6-12.1-5.7c-0.5-0.4-1.1-1.2-2.7-1.2c-0.6,0-0.9,0.1-0.9,0.6
		s0,18.8,0,18.8c0,0.6,0,1.3,0,1.9c0.1,0.4,0.1,0.4,0.4,0.5c0.1,0,0.4,0.1,0.7,0.3c3.8,1.9,7.8,3.6,12.7,4.8
		c5,1.3,10.7,1.3,16.3,1.3c12.5,0,22.6-3.1,30.1-10c7.5-6.9,11.3-15.2,11.3-25.8v0c0-1.1,0.1-2.3,0.2-3.4c1.9-18,5.4-35.5,12.1-24.9
		c0.8,1.6,1.5,3.3,2.3,4.9c1.5,4.6,3.1,9.2,4.8,14.1c2.5,8.2,5.6,15.7,7.5,22.5c0,0,0,0.1,0,0.1c2.2,6.2,4,11.3,5.2,15.1
		c0.2,0.8,0.4,1.6,0.4,2.4c0,0.9-0.2,1.8-0.5,2.7c-2.3,6.3-4.6,11.5-6.4,16.3c-1.9,5-3.8,10-5.6,15.1c0,0,0,0,0,0
		c-0.2,0.8,0.2,1.7,1,1.8c0.1,0,0.2,0,0.3,0l19.4-1.3c0.6,0,1-0.1,1.3-0.6s0.4-0.6,0.6-1.3c3.1-8.8,6.9-17.6,10-27
		c3.8-9.4,6.9-19.4,10.7-30.1s6.9-21.3,10.7-32.6c3.8-11.2,6.9-22.5,10.6-34.3c0-0.1,0.1-0.3,0.1-0.5v-1.1
		C281.9,100.1,281.3,100.1,280.6,100.1z M185.7,134.1c-1-0.3-2-0.9-2.8-1.6c-3.7-3.1-8.4-6.1-13.9-9.2l-6.3-3.1
		c-6.9-3.8-11.3-6.9-13.2-10c-2.5-3.1-3.8-6.3-3.8-10c0-3.1,1.3-6.9,4.4-10c3.1-3.1,8.2-5,15.7-5c0,0,0,0,0,0c1.3,0,2.7,0.1,4,0.3
		c18.1,2.8,26.9,10.5,30.3,18.7c0.1,0.2,0.1,0.4,0.2,0.6c1,3.4,1.3,7,0.7,10.5C199.2,125.2,193.4,136.4,185.7,134.1z M246.1,153.4
		c-1.3,4.7-2.6,9.2-3.5,13.4c-0.1,0.5-0.7,0.5-0.9,0c-0.3-1.1-0.6-2.4-1-3.9c-0.2-1-0.4-2-0.3-3c0.4-6.9,4.7-14.1,5.8-9.8
		C246.5,151.2,246.4,152.4,246.1,153.4z"/>
	<path d="M332,4.7H67.9c-5.5,0-10,4.5-10,10v266.6h0c69.7,10.6-17.3,115.4,37.2,114.1c55.4,0.3-34.6-94.1,32.8-114.1H332
		c5.5,0,10-4.5,10-10V14.7C342,9.2,337.5,4.7,332,4.7z M330.2,260c0,5.5-4.5,10-10,10H79.9c-5.5,0-10-4.5-10-10V26.6
		c0-5.5,4.5-10,10-10h240.3c5.5,0,10,4.5,10,10V260z"/>
</g>
</svg>
