<?xml version="1.0" encoding="utf-8"?>
<!-- Generator: Adobe Illustrator 23.0.1, SVG Export Plug-In . SVG Version: 6.00 Build 0)  -->
<svg version="1.1" id="Layer_1" xmlns="http://www.w3.org/2000/svg" xmlns:xlink="http://www.w3.org/1999/xlink" x="0px" y="0px"
	 viewBox="0 0 400 400" style="enable-background:new 0 0 400 400;" xml:space="preserve">
<g>
	<path d="M216.9,150.3c-2.5,0-4.5,2-4.5,4.5c0,2.5,2,4.5,4.5,4.5c2.5,0,4.5-2,4.5-4.5C221.4,152.4,219.4,150.3,216.9,150.3z"/>
	<path d="M186.3,158c0.8-0.8,1.3-1.9,1.3-3.1c0-2.8-2.6-5-5.5-4.4c-1.7,0.4-3.1,1.8-3.5,3.6c-0.3,1.6,0.2,3,1.2,4
		c1.2,1.2,1.9,3,2,4.7c0.5,9.5-4.2,28.2,1.2,27.7c7.8,0.4-0.7-15.9,1.1-28C184.4,160.8,185.1,159.2,186.3,158z"/>
	<path d="M332.4,68.4L205.9,6.3c-3.7-1.8-8.1-1.8-11.9,0L67.6,68.4c-4.6,2.3-7.5,7-7.5,12.1v145.3c0,5.1,2.9,9.8,7.5,12.1L183.9,295
		c14.8,7.3,24.2,22.5,24,39c-0.4,29.1-15.9,60.9,8.8,62.6c20.6-0.9-0.2-37.3,7.1-74.8c4.2-21.5,18.5-39.7,38.2-49.3l70.6-34.7
		c4.6-2.3,7.5-7,7.5-12.1V80.5C340,75.4,337,70.7,332.4,68.4z M267,106.4c1.3-1.3,2.8-2.5,4.5-3.3c1.1-0.6,2.3-1,3.5-1.2
		c0.6-0.1,1.2-0.2,1.9-0.2c0.3,0,0.7,0,1,0c0.3,0,0.6,0.1,0.8,0.1c0.7,0.1,1.2,0.7,1.1,1.3c-0.1,0.6-0.5,1-1.1,1.1l0,0
		c-0.3,0-0.6,0-0.8,0.1c-0.2,0.1-0.4,0.1-0.6,0.1c-0.5,0.1-0.9,0.3-1.3,0.5c-0.9,0.4-1.7,0.9-2.4,1.5c-1.5,1.2-2.6,2.7-3.6,4.4
		c-0.9,1.7-1.7,3.5-2.2,5.4c-0.6,1.9-0.9,3.9-1.2,5.9c0,0.3-0.1,0.7-0.1,1C263.8,123.9,265.1,111.4,267,106.4z M194,254.2l0,0.4
		c0,0.1,0,0.3,0,0.4l-0.1,0.9c-0.1,0.6-0.2,1.2-0.3,1.8c-0.1,0.5-0.3,1-0.5,1.6c-0.2,0.6-0.7,0.9-1.3,0.9c-0.7-0.1-1.2-0.7-1.1-1.3
		v0c0.1-0.5,0.1-1.1,0.2-1.6c0-0.5,0-0.9,0-1.4l-0.1-0.7c0-0.1,0-0.2,0-0.4l-0.1-0.4l-0.1-0.7c0-0.2-0.1-0.5-0.2-0.7
		c-0.2-0.9-0.6-1.7-1-2.5l-0.4-0.6l-0.2-0.3l-0.2-0.3l-0.4-0.5c-0.1-0.2-0.3-0.3-0.5-0.5c-1.2-1.3-2.8-2.3-4.5-3
		c-0.1-0.1-0.3-0.1-0.4-0.2c-0.7-0.2-1.3-0.6-1.6-1.3c-1.3-2.2,2.1-2.3,6.4-1.7c0.8,0.1,1.5,0.5,2.1,1.1c0,0,0,0,0,0
		c0.2,0.2,0.4,0.4,0.6,0.6c0.4,0.5,0.8,1,1.1,1.5c0.2,0.3,0.4,0.5,0.5,0.8l0.4,0.8l0.2,0.4l0.2,0.4l0.4,0.9c0.4,1.2,0.7,2.4,0.8,3.6
		c0,0.3,0.1,0.6,0.1,0.9L194,254.2z M305.5,213.7c-0.5,1.3-1,2.5-1.6,3.6c-0.6,1.1-1.3,2.1-2,3c-0.7,0.9-1.5,1.8-2.3,2.6l-0.6,0.6
		l-0.3,0.3c-0.1,0.1-0.2,0.2-0.3,0.3l-1.1,1c-1.6,1.3-3.2,2.6-4.9,3.8c-0.4,0.2-0.7,0.5-1.1,0.7c-2.4,1.6-5.4,2.3-8.2,1.7
		c-3.3-0.7-4.3-2.8-2.6-5.9c1.9-1.4,3.7-2.9,5.4-4.5c1.2-1.2,2.4-2.4,3.5-3.7l0.8-1c0.1-0.1,0.1-0.2,0.2-0.2l0.1-0.2l0.3-0.4
		c0.4-0.6,0.8-1.2,1.1-1.8c0.3-0.6,0.6-1.2,0.8-1.8c0.2-0.6,0.3-1.1,0.4-1.6c0.1-1,0-1.8-0.2-2.5c-0.3-0.7-0.7-1.3-1.4-2
		c-0.7-0.7-1.6-1.3-2.6-1.9c-2.1-1.2-4.9-2-7.7-2.3c-2.9-0.4-5.8-0.3-8.7,0.1c-2.9,0.4-5.7,1.3-8.3,2.4c-0.6,0.3-1.3,0.6-1.9,0.9
		l-0.9,0.5l-0.8,0.4l-0.6,0.3l-0.5,0.2c-0.7,0.3-1.5,0.6-2.3,0.9l0.3,0.2c0.4,0.3,1,0.7,1.3,0.9l0.2,0.1l1.5,1.1
		c0.3,0.2,0.5,0.4,0.7,0.6l0.7,0.6c0.5,0.4,1,0.8,1.5,1.3l1.4,1.4c0.3,0.3,0.8,0.8,1.1,1.2l0.3,0.3c0.4,0.5,0.9,1,1.3,1.6
		c1.6,2.1,3.1,4.5,4.2,7.2c0.1,0.3,0.3,0.7,0.4,1c0,0.1,0.1,0.2,0.1,0.4c0.2,0.6,0.4,1.1,0.5,1.7c0.2,0.6,0.3,1.3,0.4,1.9l0.2,1.2
		c0,0.1,0,0.1,0,0.2c0,0,0,0,0,0c0.7,6-1.8,10.8-7.9,16.5c-1.3,0.9-2.8,1.6-4.2,2.1c-2.9,1.1-5.8,1.4-8.6,1.3c-0.4,0-0.7,0-1.1-0.1
		l-1-0.1l-1-0.1c-0.1,0-0.2,0-0.4-0.1l-1.6-0.4c-0.2,0-0.3-0.1-0.5-0.1l-0.5-0.2l-1-0.3l-0.5-0.2c-0.2-0.1-0.4-0.1-0.5-0.2l-1.5-0.6
		l-0.2-0.1c-0.1,0,0.2,0.1-0.2-0.1l0,0l-0.1,0l-0.3-0.2l-0.5-0.2c-0.4-0.2-1.2-0.5-1.6-0.7c-0.4-0.2-0.8-0.3-1.2-0.5
		c-1.8-0.7-3.6-1.2-5.5-1.7c-3.7-0.8-7.6-1.1-11.4-0.6c-1.9,0.3-3.7,0.8-5.4,1.5c-1.7,0.7-3.2,1.7-4.5,3c-0.2,0.2-0.3,0.3-0.5,0.5
		l-0.4,0.5l-0.2,0.3l-0.2,0.3l-0.4,0.6c-0.4,0.8-0.8,1.6-1,2.5c-0.1,0.2-0.1,0.4-0.2,0.7l-0.1,0.7l-0.1,0.4c0,0.1,0,0.2,0,0.4
		l-0.1,0.7c0,0.5,0,0.9,0,1.4c0,0.5,0.1,1.1,0.2,1.6l0,0c0.1,0.7-0.4,1.3-1.1,1.3c-0.6,0.1-1.1-0.3-1.3-0.9c-0.2-0.5-0.3-1-0.5-1.6
		c-0.1-0.6-0.3-1.2-0.3-1.8l-0.1-0.9c0-0.1,0-0.3,0-0.4l0-0.4l0-0.9c0-0.3,0-0.6,0.1-0.9c0.1-1.2,0.4-2.4,0.8-3.6l0.4-0.9l0.2-0.4
		l0.2-0.4l0.4-0.8c0.2-0.3,0.3-0.5,0.5-0.8c0.3-0.5,0.7-1,1.1-1.5c0.2-0.2,0.4-0.5,0.6-0.7c0.2-0.2,0.4-0.5,0.7-0.7
		c0.9-0.8,1.9-1.6,2.9-2.3c2.1-1.3,4.3-2.3,6.6-3.1c4.6-1.4,9.4-1.9,14.1-1.5c2.4,0.2,4.7,0.5,7,1c0.6,0.1,1.1,0.3,1.6,0.4
		c0.5,0.1,1.1,0.3,1.6,0.4l1,0.3l0.4,0.1l0.1,0l0.1,0c-0.4-0.1-0.1,0-0.2-0.1l0.2,0.1l1.6,0.4c0.1,0,0.2,0,0.3,0.1l0.3,0l0.5,0.1
		l0.3,0c0.1,0,0.2,0,0.3,0l0.6,0c0.2,0,0.4,0,0.6,0l0.6,0l0.6,0c0.2,0,0.4,0,0.6-0.1c1.5-0.2,2.8-0.6,3.9-1.2
		c1.1-0.6,1.8-1.4,2.3-2.2c0.4-0.8,0.5-1.5,0.4-2.3c-0.1-0.8-0.4-1.7-1-2.8c-0.6-1-1.5-2.1-2.6-3.2c-2.2-2.1-5.2-4.1-8.5-5.7
		l-0.6-0.3l-0.6-0.3l-1.3-0.6c-0.8-0.4-1.7-0.7-2.6-1.1l-3-1.2l-1.5-0.6l-0.2-0.1l-0.2-0.1l-0.4-0.2l-0.9-0.4c-1-0.5-2.1-1-3.1-1.5
		c-6.6-3-20.5-8.5-32.9-8.5c-12.4,0-26.3,5.5-32.9,8.5c-1,0.5-2,1-3.1,1.5l-0.9,0.4l0,0l-0.4,0.2l-0.2,0.1l-0.2,0.1l-1.5,0.6l-3,1.2
		c-0.9,0.4-1.8,0.7-2.6,1.1l-1.3,0.6l-0.6,0.3l-0.6,0.3c-3.3,1.6-6.2,3.6-8.5,5.7c-1.1,1.1-2,2.2-2.6,3.2c-0.6,1-0.9,2-1,2.8
		c-0.1,0.8,0,1.5,0.4,2.3c0.4,0.8,1.2,1.6,2.3,2.2c1.1,0.6,2.4,1,3.9,1.2c0.2,0,0.4,0,0.6,0.1l0.6,0l0.6,0c0.2,0,0.4,0,0.6,0l0.6,0
		c0.1,0,0.2,0,0.3,0l0.3,0l0.5-0.1l0.3,0c0.1,0,0.2,0,0.3-0.1l1.6-0.4l0.2-0.1c0,0,0.1,0-0.2,0.1l0.1,0l0.1,0l0.4-0.1l0.9-0.3
		c0.6-0.2,1.1-0.3,1.7-0.5c0.6-0.1,1.1-0.3,1.7-0.4c2.3-0.5,4.7-0.9,7-1c3.6-0.2,7.2,0,10.7,0.7c0.9,0.2,1.5,1.1,1.2,2
		c-0.7,2.1-3.9,3.6-8.2,5.3c-0.7,0.3-1.3,0.5-2,0.6l-0.4,0.1c-1.9,0.4-3.7,1-5.5,1.7c-0.4,0.1-0.8,0.3-1.2,0.5
		c-0.5,0.2-1.2,0.5-1.6,0.7l-0.5,0.2l-0.3,0.2l-0.1,0l0,0c-0.4,0.2-0.1,0.1-0.2,0.1l-0.2,0.1l-1.5,0.6c-0.1,0.1-0.3,0.1-0.5,0.2
		l-0.5,0.2l-1,0.3l-0.5,0.2c-0.2,0.1-0.3,0.1-0.5,0.1l-1.6,0.4c-0.1,0-0.3,0-0.4,0.1l-1,0.1l-1,0.1c-0.3,0-0.7,0-1.1,0.1
		c-2.8,0.1-5.8-0.2-8.6-1.3c-2.9-1.1-5.8-3-7.9-5.4c-1.4-1.6-2.1-3-2.5-3.9c-0.2-0.5-0.6-0.8-1-1c-3-1.1-6-2.3-9-3.7
		c-3.6-1.7-7.1-3.6-10.4-5.9c-1.7-1.2-3.3-2.4-4.9-3.8l-1.1-1c-0.1-0.1-0.2-0.2-0.3-0.3l-0.3-0.3l-0.6-0.6c-0.8-0.8-1.5-1.7-2.3-2.6
		c-0.7-0.9-1.4-2-2-3c-0.3-0.6-0.6-1.1-0.9-1.7c-0.4-0.9-0.2-1.9,0.5-2.5c2.9-2.9,7.7-2.4,11.3-0.6c0.4,0.2,0.8,0.6,1,1
		c0.1,0.2,0.2,0.4,0.3,0.5c0.3,0.6,0.5,0.8,0.9,1.4l0.3,0.4l0.1,0.2c0,0.1,0.1,0.1,0.2,0.2l0.8,1c1.1,1.3,2.3,2.5,3.5,3.7
		c2.5,2.4,5.2,4.6,8.2,6.6c1.1,0.8,2.3,1.5,3.5,2.3c0.4,0.2,0.9,0,0.9-0.4l0.3-2c0.4-1.7,0.4-1.7,1-3.1c1.1-2.9,2.7-5.4,4.4-7.5
		c0.4-0.5,0.9-1,1.3-1.6l0.3-0.3c0.3-0.3,0.8-0.9,1.1-1.2l1.4-1.4c0.5-0.4,1-0.8,1.5-1.3l0.7-0.6c0.2-0.2,0.5-0.4,0.7-0.6l0.9-0.7
		l0.5-0.4l1.4-1c0.2-0.2,0.2-0.5-0.1-0.6c-0.6-0.2-1.1-0.4-1.7-0.7l-0.5-0.2l-0.6-0.3l-0.8-0.4l-0.9-0.5c-0.6-0.3-1.2-0.7-1.9-0.9
		c-2.6-1.2-5.4-2-8.3-2.4c-2.9-0.4-5.9-0.5-8.7-0.1c-2.8,0.4-5.6,1.2-7.7,2.3c-0.2,0.1-0.4,0.2-0.6,0.3c-1.5,0.9-3.2,1.6-4.9,1.7
		c-4.8,0.2-7.4-3-5.5-10.9c0.4-1.5,1.2-2.8,2.4-3.7l0,0c4.1-3,8.4-4.9,12.9-6.1c0.4-0.1,0.7-0.2,1.1-0.3c-1.1-1.5-2.1-3-3.1-4.5
		c-1.9-3.2-3.5-6.5-4.6-10.1c-1.1-3.6-1.5-7.5-1.1-11.3c0.5-3.8,1.9-7.5,4.1-10.4c1.1-1.5,2.3-2.8,3.6-4l1-0.9
		c0.3-0.3,0.6-0.5,0.9-0.8l1.1-0.8l1-0.7c0.5-0.3,1.1-0.3,1.5,0.1c0.5,0.5,0.5,1.2,0,1.7l-0.9,0.9l-0.8,0.9l-0.7,0.9l-0.7,0.9
		c-0.9,1.3-1.7,2.6-2.3,4c-1.2,2.7-1.7,5.6-1.5,8.4c0.2,2.8,1.1,5.5,2.4,8.1c1.3,2.6,3,5,5,7.2c1,1.1,2,2.2,3.1,3.2
		c0.3,0.2,0.5,0.5,0.8,0.7l0.5,0.4c0.5,0.3,1.1,0.7,1.7,1c2.4,1.3,5,2.4,7.7,3.1c2.2,0.6,4.5,0.8,6.7,0.8c0.8,0,1.5,0.4,1.9,1
		c5.5,8.8-3.6,21.3,3,21.7c6.9,0.1-4.2-17.6,4-24.3c-0.5-0.1-1-0.2-1.5-0.3c-1.6-0.3-3.1-0.8-4.7-1.4c-1.6-0.7-3.1-1.5-4.6-2.6
		c-1.4-1.1-2.7-2.4-3.8-3.7c-1.1-1.4-1.9-2.8-2.6-4.3c-0.7-1.5-1.1-2.9-1.5-4.3c-0.3-1.4-0.6-2.8-0.7-4.2c-0.3-2.7-0.2-5.3,0-7.7
		l0.1-0.9l0.1-1c0-0.3,0.1-0.7,0.1-0.9l0.1-0.8l0.1-0.4l0-0.2l0-0.1l0-0.1l0,0c0,0,0-0.2,0-0.1l0.1-0.8l0.2-1.5
		c0.3-2.1,0.6-4.1,0.8-6.2c0.1-1,0.2-2.1,0.3-3.1c0.1-1,0.1-2.1,0.2-3.1c0.1-2.1,0.1-4.1,0.1-6.2c0-1-0.1-2-0.1-3.1
		c-0.1-1-0.2-2-0.3-3c-0.3-2-0.6-4-1.2-5.9c-0.6-1.9-1.3-3.7-2.2-5.4c-0.9-1.7-2.1-3.2-3.6-4.4c-0.7-0.6-1.5-1.1-2.4-1.5
		c-0.4-0.2-0.9-0.3-1.3-0.5c-0.2-0.1-0.4-0.1-0.6-0.1c-0.2,0-0.5-0.1-0.8-0.1l0,0c-0.6-0.1-1-0.5-1.1-1.1c-0.1-0.7,0.4-1.3,1.1-1.3
		c0.3,0,0.5-0.1,0.8-0.1c0.3,0,0.7,0,1,0c0.6,0,1.2,0.1,1.9,0.2c1.2,0.2,2.4,0.7,3.5,1.2c2.2,1.1,4.1,2.8,5.7,4.6
		c1.6,1.8,2.9,3.9,4,6c1.1,2.1,1.9,4.3,2.7,6.5c0.4,1.1,0.7,2.2,1,3.4c0.3,1.1,0.6,2.3,0.8,3.4c0.5,2.3,0.8,4.5,1.1,6.8
		c0.3,2.3,0.5,4.6,0.6,6.8c0.1,2.3,0.2,4.5,0.2,6.8l0,1.7v0.9c0,0.1,0-0.1,0-0.1v0v0.1v0.1l0,0.2l0,0.4l0,0.8c0,0.3,0,0.5,0,0.7
		l0,0.7l0.1,0.7c0.1,1.9,0.4,3.7,0.9,5.2c0.2,0.8,0.5,1.5,0.8,2.2c0.3,0.6,0.6,1.2,0.9,1.7c0.7,1,1.3,1.4,2.1,1.7
		c0.7,0.3,1.6,0.5,2.8,0.5c1.2,0,2.6-0.1,4.1-0.4c0,0,0,0,0,0c0.7-0.1,1.4-0.4,2.1-0.9c1.1-0.7,2.4-2.1,2.7-4.2
		c0.3-2-0.5-3.9-1.9-5.4c-1.4-1.5-3.4-2.8-6.3-3.2c0,0-8.9-69.1,47-113.6c0.1-0.1,0.3-0.1,0.5,0c4.4,3.5,7.6,8.4,9.1,13.8
		c6.7,24.3-12.7,50.9,7.3,53.7c16.9-0.1-9.2-47.7,6.4-43.6c30.2,41.8,24.1,89.7,24.1,89.7c-4.2,0.6-6.5,3-7.7,5.3
		c-1.2,4,0.6,6.3,2.1,7.4c1.6,1.2,2.7,3.1,3.1,5.1c0.9,5.4-1.7,10.9,2.4,11.2c4.9-0.1-1.2-7.4,4.1-15.5c0.6-0.3,1.2-0.8,1.8-1.6
		c0.3-0.5,0.6-1,0.9-1.7c0.3-0.7,0.5-1.4,0.8-2.2c0.4-1.6,0.7-3.4,0.9-5.2l0.1-0.7l0-0.7c0-0.2,0-0.4,0-0.7l0-0.8l0-0.4v-0.2l0-0.1
		V150v0c0,0,0,0.2,0,0.1v-0.9l0-1.7c0-2.3,0.1-4.5,0.2-6.8c0.1-2.3,0.3-4.6,0.6-6.8c0.3-2.3,0.6-4.5,1.1-6.8
		c2.8-3.2,6.4,4.2,9.2,12.6c0,0.3,0,0.5,0.1,0.8c0.2,2.1,0.5,4.1,0.8,6.2l0.2,1.5l0.1,0.8c0,0,0,0.1,0,0.1l0,0l0,0.1l0,0.1l0,0.2
		l0.1,0.4l0.1,0.8c0,0.3,0.1,0.6,0.1,0.9l0.1,1l0.1,0.9c0.2,2.5,0.3,5,0,7.7c-0.1,1.4-0.4,2.7-0.7,4.2c-0.4,1.4-0.8,2.9-1.5,4.3
		c-0.7,1.5-1.5,2.9-2.6,4.3c-1.1,1.4-2.4,2.7-3.8,3.7c-1.4,1.1-3,1.9-4.6,2.6c-1.6,0.7-3.2,1.1-4.7,1.4c-0.5,0.1-1,0.2-1.5,0.3
		c0.1,0,0.2,0.1,0.3,0.1c2.4,0.9,4.8,1.4,7.4,1.5c2.5,0.1,5.2-0.1,7.8-0.8c2.6-0.6,5.2-1.7,7.7-3.1c0.6-0.3,1.2-0.7,1.7-1l0.2-0.1
		c0,0,0,0,0,0c0,0,0,0,0,0c0.1-0.1-0.1,0.1-0.1,0.1l0,0l0,0c0.1-0.1,0.2-0.2,0.4-0.3c0.3-0.2,0.5-0.5,0.8-0.7c1.1-1,2.1-2.1,3.1-3.2
		c2-2.2,3.7-4.7,5-7.2c1.3-2.6,2.2-5.3,2.4-8.1c0.2-2.8-0.3-5.7-1.5-8.4c-0.6-1.4-1.4-2.7-2.3-4l-0.7-0.9l-0.7-0.9l-0.8-0.9
		l-0.9-0.9c-0.5-0.5-0.4-1.3,0-1.7c0.4-0.4,1.1-0.4,1.5-0.1l1,0.7l1.2,0.9c0.3,0.2,0.6,0.5,0.9,0.7l1,0.9c1.3,1.2,2.5,2.5,3.6,4
		c2.2,2.9,3.6,6.6,4.1,10.4c0.5,3.8,0,7.7-1.1,11.3c-1.1,3.6-2.7,7-4.6,10.1c-0.9,1.5-2,3-3.1,4.5c0.4,0.1,0.7,0.2,1.1,0.3
		c4.5,1.2,8.9,3,12.9,6.1c2,1.5,3.9,3.4,5.6,5.7c1.6,2.3,2.8,5.1,3.3,8.1C306.7,208.1,306.3,211.1,305.5,213.7z"/>
</g>
</svg>
