<?xml version="1.0" encoding="utf-8"?>
<!-- Generator: Adobe Illustrator 21.1.0, SVG Export Plug-In . SVG Version: 6.00 Build 0)  -->
<!DOCTYPE svg PUBLIC "-//W3C//DTD SVG 1.1//EN" "http://www.w3.org/Graphics/SVG/1.1/DTD/svg11.dtd">
<svg version="1.1" id="Layer_1" xmlns="http://www.w3.org/2000/svg" xmlns:xlink="http://www.w3.org/1999/xlink" x="0px" y="0px"
	 viewBox="0 0 400 400" enable-background="new 0 0 400 400" xml:space="preserve">
<g>
	<path d="M72.8,226.5c-6.1,0-18.7-0.1-28,0c-12.4,0.1-15.3-2.1-18-14.2c-0.2-1-1.1-2.9-3.4-2.3s-9,1.3-11.4-2.5
		c-2-3.2-2.7-7.7-2.8-11.6c-0.1-2.6,3-8.5,5.1-12.3c2.1-3.8,11.3-33.1,11.5-42.5c0.3-9.4,6.1-11.3,15.9-11.4
		c31.4-0.3,62.8-0.7,94.2-0.7c13,0,26.1,0.9,39.1,1.1c16.9,0.2,33.8,0.1,50.7,0.2c4.2,0,10.4,0.6,12.5,0.3c2.1-0.2,2.8-1.5,2.9-3.7
		c0.1-2.2,0-22.1,0.8-33.5c0.7-9.3,12.9-14.2,20.6-9.2c24.5,15.8,49.5,31,73.6,47.3c12.8,8.7,24.1,19.4,36.2,29.1
		c5.3,4.2,10.9,8,16.2,12.3c1.2,1,2.2,2.1,2.2,4.9s-2.7,6.2-5.2,8.4c-9.7,8.3-19.7,16.2-29.8,24.1c-7.4,5.7-14.8,11.4-22.6,16.6
		c-14,9.2-27.4,18.8-36.4,33.3c-3.5,5.6-7.7,10.7-11.1,16.3c-3,5-1.5,10.3,1,15.2c3.1,5.9,2.1,15.4-2.3,20.4
		c-4.3,4.9-14.8,7.3-20.8,4.7c-5.1-2.2-7.9-9.6-7.6-17.3c0.3-7.6-0.4-15.1-6.3-21.1c-5.9-6-8.5-13.2-8.1-21.8
		c0.4-9.4-0.2-26.3-0.4-28.4c-0.2-2.1-1.8-2.3-2.8-2.3c-19.3,0.4-38.7,0.4-58,1.9c-6.9,0.5-14.8-0.5-21,5.4
		c-6.5,6.3-11.6,17.1-9.4,22.9c0.8,2.1,2,4,3,5.9c5.9,11-0.9,24.9-13.3,25.5c-3.9,0.2-8.1-2.8-12-4.5c-15.3-6.6-12.8-17.5-6.5-27.7
		c4.6-7.5,4.8-8.6-2.5-13.8c-4.7-3.3-8.9-7.4-14-9.9c-4.8-2.4-7.2-3.8-15.5-4.5C81.1,226.3,78.9,226.5,72.8,226.5z"/>
</g>
<path d="M278.9,321.5"/>
</svg>
