<?xml version="1.0" encoding="utf-8"?>
<!-- Generator: Adobe Illustrator 23.0.1, SVG Export Plug-In . SVG Version: 6.00 Build 0)  -->
<svg version="1.1"
	 id="svg4" xmlns:cc="http://creativecommons.org/ns#" xmlns:dc="http://purl.org/dc/elements/1.1/" xmlns:inkscape="http://www.inkscape.org/namespaces/inkscape" xmlns:rdf="http://www.w3.org/1999/02/22-rdf-syntax-ns#" xmlns:sodipodi="http://sodipodi.sourceforge.net/DTD/sodipodi-0.dtd" xmlns:svg="http://www.w3.org/2000/svg"
	 xmlns="http://www.w3.org/2000/svg" xmlns:xlink="http://www.w3.org/1999/xlink" x="0px" y="0px" viewBox="0 0 400 400"
	 style="enable-background:new 0 0 400 400;" xml:space="preserve">
<sodipodi:namedview  bordercolor="#666666" borderopacity="1" gridtolerance="10" guidetolerance="10" id="namedview6" inkscape:current-layer="svg4" inkscape:cx="67.090573" inkscape:cy="49.737996" inkscape:pageopacity="0" inkscape:pageshadow="2" inkscape:window-height="1017" inkscape:window-maximized="1" inkscape:window-width="1920" inkscape:window-x="1358" inkscape:window-y="-8" inkscape:zoom="4" objecttolerance="10" pagecolor="#ffffff" showgrid="false">
	</sodipodi:namedview>
<path d="M354.2,4.4L200,92.2L45.8,4.4v382.5l138.8-79c2.2-1.2,4.5-2.3,6.9-3c39.6-10.7-7.5,85.3,28.9,90.6c27.1-1-21.6-90,16.6-75.3
	l117.2,66.7V4.4z M219.1,227c-25-1.1,7.8-34.8,33.9-42c3.8-1,7.8-0.5,11.2,1.5l16,9.1l-50.4,28.7C226.5,226.2,222.8,227.2,219.1,227
	z M209.1,155.2L209.1,155.2c1.7,1,3.1,2.3,4.1,3.9c12.6,21.4,3.8,41.7-11.1,53.1c-12.3,9.3-29.1,9.9-42.5,2.2
	c-11.4-6.5-21.9-12.5-27.8-15.9c-2.3-1.3-2.2-4.5,0-5.8l65.9-37.5C201.2,153.2,205.6,153.2,209.1,155.2z M141.6,126.9
	c-5.2,2.9-11.8,1-14.5-4.3c-3.6-7.3-2.2-16.9,10.3-12.4l16.7,9.5L141.6,126.9z M114.6,105.6c2,14.3-2.1,35.3-11.1,31.5
	c-2.7-1.1-4.2-4-4.2-6.9V88.5l5.9,3.3C110.2,94.7,113.8,99.8,114.6,105.6z M99.3,298.2v-57.9l50.8,28.9L99.3,298.2z M303.9,298.2
	l-50.8-28.9l50.8-28.9V298.2z M303.9,151L249,119.7l54.9-31.3V151z"/>
</svg>
