<?xml version="1.0" encoding="utf-8"?>
<!-- Generator: Adobe Illustrator 23.0.6, SVG Export Plug-In . SVG Version: 6.00 Build 0)  -->
<svg version="1.1"
	 id="svg4" xmlns:cc="http://creativecommons.org/ns#" xmlns:dc="http://purl.org/dc/elements/1.1/" xmlns:inkscape="http://www.inkscape.org/namespaces/inkscape" xmlns:rdf="http://www.w3.org/1999/02/22-rdf-syntax-ns#" xmlns:sodipodi="http://sodipodi.sourceforge.net/DTD/sodipodi-0.dtd" xmlns:svg="http://www.w3.org/2000/svg"
	 xmlns="http://www.w3.org/2000/svg" xmlns:xlink="http://www.w3.org/1999/xlink" x="0px" y="0px" viewBox="0 0 400 400"
	 style="enable-background:new 0 0 400 400;" xml:space="preserve">
<path d="M143.6,119.7h-8.5c-1.6,0-3,1.1-3.3,2.7l-4.8,24.8c-0.4,2.1,1.2,4,3.3,4h5.9c6.6,0,11.6-0.7,14.8-3.2
	c3.2-2.5,5.4-6.4,6.6-12.2c1.1-5.6,0.6-10-1.5-12.3C154,121.3,149.8,119.7,143.6,119.7z"/>
<path d="M200,72.5c-75.9,0-137.5,31.2-137.5,69.7c0,7,2,13.8,5.8,20.1h0c0,0,0,0.1,0.1,0.1c1.1,1.9,2.4,3.7,3.8,5.5
	c37.4,57.7-1.4,109.6,32.6,107.3c28.4,0.5-14-80,15.8-75.8c1.2,0.2,2.4,0.5,3.5,0.9c1.1,0.4,2.2,0.7,3.4,1.1c0,0,0.1,0,0.1,0l0,0
	c21,6.6,45.9,10.5,72.4,10.5c75.9,0,137.5-31.2,137.5-69.7S275.9,72.5,200,72.5z M116.8,185h-9.6c-1.9,0-3.3-1.7-3-3.6l2.9-15.3
	c0.2-1,0.6-1.9,1.3-2.7c4.6-5.1,9.3,10,11,18.3C119.8,183.4,118.5,185,116.8,185z M164.2,155.8c-3.3,3.1-6.9,4.3-10.9,5.6
	c-4,1.3-9.1,1-15.3,1h-10.3c-3.8,0-7.3-2-9.1-5.3c-4.9-9.3-3.5-27-2.1-39.6l0,0l1.2-6.2c0.3-1.6,1.8-2.8,3.4-2.8h28.7
	c9.5,0,16.4,2.7,20.8,7.7c4.4,5,5.7,12.1,3.9,21c-0.7,3.7-1.9,7.1-3.6,10.2C169.2,150.4,167,153.3,164.2,155.8z M201.1,119.7
	c-2.6,0-4.8,1.8-5.3,4.4l-6.8,34.6c-0.4,2.2-2.4,3.8-4.6,3.8h-8c-2.3,0-4-2.1-3.6-4.4L185.9,92c0.4-2.2,2.4-3.8,4.6-3.8h8
	c2.3,0,4,2.1,3.6,4.3l-2.2,11.6c-0.4,2.3,1.3,4.3,3.6,4.3h10.1c7.4,0,12.9,1.2,16.6,3.4c1.4,0.8,2.3,2.4,2.2,4
	c-0.3,7.5-10.8,19.1-13.1,11.6c-0.1-0.5-0.2-0.9-0.2-1.4c0-1.8-0.4-3.2-1.2-4c-1.3-1.4-4-2.3-8.2-2.3H201.1z M224.9,162.5h-8.2
	c-2.3,0-4-2.1-3.6-4.4l0.4-2c3.7-11.8,14.7-28.3,20.1-21.1c0.3,0.5,0.5,1.1,0.3,1.6l-4.4,22C229.1,160.9,227.1,162.5,224.9,162.5z
	 M302.8,137.3c-0.1,0.7-0.3,1.3-0.4,2c-1.4,5.4-5.5,9.8-11,11c-5.1,1.1-9.8-0.7-7.8-7.5c1-1.9,1.8-4.2,2.3-6.9
	c1.1-5.6,0.6-10-1.5-12.3c-2.1-2.3-6.2-3.9-12.5-3.9H265c-2.6,0-4.8,1.8-5.3,4.4l-4.4,22.8c-0.4,2.3,1.3,4.3,3.6,4.3h5.6
	c1.1,0,2.2,0,3.2-0.1l0,0c16.3-1,15.5,9.5,5.6,11.3c0,0,0,0,0,0c-2.2,0-4.5,0-7.1,0h-9.5c-2.6,0-4.9,1.9-5.3,4.5l-2.4,14.1
	c-0.4,2.3-2.4,3.9-4.6,3.9h-8c-2.3,0-4-2.1-3.6-4.3l13.1-68.4c0.4-2.2,2.4-3.8,4.6-3.8h27.7c9.5,0,16.4,2.7,20.8,7.7
	C303.2,121.2,304.5,128.4,302.8,137.3z"/>
</svg>
