<?xml version="1.0" encoding="utf-8"?>
<!-- Generator: Adobe Illustrator 23.0.1, SVG Export Plug-In . SVG Version: 6.00 Build 0)  -->
<svg version="1.1"
	 id="svg4" inkscape:version="0.92.1 r15371" sodipodi:docname="php.svg" xmlns:cc="http://creativecommons.org/ns#" xmlns:dc="http://purl.org/dc/elements/1.1/" xmlns:inkscape="http://www.inkscape.org/namespaces/inkscape" xmlns:rdf="http://www.w3.org/1999/02/22-rdf-syntax-ns#" xmlns:sodipodi="http://sodipodi.sourceforge.net/DTD/sodipodi-0.dtd" xmlns:svg="http://www.w3.org/2000/svg"
	 xmlns="http://www.w3.org/2000/svg" xmlns:xlink="http://www.w3.org/1999/xlink" x="0px" y="0px" viewBox="0 0 400 400"
	 style="enable-background:new 0 0 400 400;" xml:space="preserve">
<sodipodi:namedview  bordercolor="#666666" borderopacity="1" gridtolerance="10" guidetolerance="10" id="namedview6" inkscape:current-layer="svg4" inkscape:cx="69.166462" inkscape:cy="65.987465" inkscape:pageopacity="0" inkscape:pageshadow="2" inkscape:window-height="705" inkscape:window-maximized="1" inkscape:window-width="1366" inkscape:window-x="-8" inkscape:window-y="245" inkscape:zoom="2" objecttolerance="10" pagecolor="#ffffff" showgrid="false">
	</sodipodi:namedview>
<g>
	<path d="M119.9,123h-12.1c-2.3,0-4.2,1.6-4.7,3.8l-6.9,35.3c-0.6,2.9,1.7,5.6,4.7,5.6h8.4c9.4,0,16.4-0.9,21-4.5
		c4.6-3.5,7.7-9,9.3-17.3c1.5-8,0.8-14.2-2.1-17.4C134.7,125.2,128.8,123,119.9,123z"/>
	<path d="M200,56C92.2,56,4.7,100.3,4.7,155c0,9.9,2.9,19.5,8.3,28.6h0c0,0,0.1,0.1,0.1,0.1c1.6,2.7,3.4,5.3,5.4,7.8
		c53,81.9-2,155.6,46.3,152.4c40.3,0.7-19.9-113.5,22.4-107.7c1.7,0.2,3.3,0.7,5,1.2c1.6,0.5,3.2,1,4.8,1.6c0,0,0.1,0,0.1,0.1l0,0
		c29.9,9.4,65.1,14.8,102.9,14.8c107.8,0,195.3-44.3,195.3-99S307.8,56,200,56z M81.8,215.7H68.2c-2.7,0-4.7-2.4-4.2-5.1l4.2-21.7
		c0.3-1.4,0.9-2.8,1.8-3.8c6.6-7.2,13.2,14.3,15.6,26C86.1,213.5,84.3,215.7,81.8,215.7z M149.2,174.2c-4.7,4.4-9.8,6.2-15.5,8
		c-5.7,1.9-13,1.5-21.8,1.5H97.3c-5.4,0-10.4-2.8-12.9-7.5c-7-13.2-4.9-38.3-3-56.3l0,0l1.7-8.8c0.4-2.3,2.5-4,4.9-4h40.8
		c13.5,0,23.3,3.9,29.5,11c6.2,7.1,8.1,17.1,5.6,29.8c-1,5.2-2.7,10.1-5.2,14.4C156.3,166.6,153.1,170.6,149.2,174.2z M201.5,123
		c-3.7,0-6.8,2.6-7.5,6.2l-9.6,49.1c-0.6,3.1-3.4,5.4-6.6,5.4h-11.3c-3.3,0-5.7-3-5.1-6.2l18.5-93.9c0.6-3.1,3.4-5.4,6.6-5.4h11.4
		c3.3,0,5.7,3,5.1,6.2l-3.2,16.4c-0.6,3.2,1.8,6.2,5.1,6.2h14.3c10.5,0,18.4,1.7,23.6,4.8c2,1.2,3.2,3.4,3.1,5.7
		c-0.5,10.6-15.4,27.1-18.6,16.5c-0.2-0.6-0.3-1.3-0.3-2c0-2.6-0.6-4.5-1.7-5.7c-1.8-2-5.7-3.3-11.6-3.3H201.5z M235.3,183.7h-11.7
		c-3.3,0-5.7-3-5.1-6.2l0.6-2.8c5.3-16.8,20.9-40.2,28.5-30c0.5,0.7,0.7,1.5,0.5,2.3l-6.2,31.3C241.3,181.5,238.5,183.7,235.3,183.7
		z M346,148c-0.2,1-0.4,1.9-0.6,2.8c-1.9,7.7-7.9,13.9-15.6,15.6c-7.3,1.6-13.9-1.1-11.1-10.6c1.4-2.7,2.5-6,3.2-9.9
		c1.5-8,0.8-14.2-2.1-17.4c-3-3.3-8.9-5.5-17.7-5.5h-9.7c-3.7,0-6.8,2.6-7.5,6.2l-6.3,32.4c-0.6,3.2,1.8,6.2,5.1,6.2h7.9
		c1.6,0,3.1,0,4.6-0.1l0,0c23.1-1.5,22,13.6,8,16c0,0,0,0,0,0c-3.1,0.1-6.4,0-10,0h-13.5c-3.7,0-6.9,2.7-7.5,6.3l-3.5,20.1
		c-0.6,3.2-3.3,5.6-6.6,5.6h-11.4c-3.3,0-5.7-3-5.1-6.2l18.6-97.1c0.6-3.2,3.4-5.4,6.6-5.4h39.3c13.5,0,23.3,3.9,29.5,11
		C346.6,125.1,348.4,135.3,346,148z"/>
</g>
</svg>
