<?xml version="1.0" encoding="UTF-8" standalone="no"?>
<svg
   xmlns:dc="http://purl.org/dc/elements/1.1/"
   xmlns:cc="http://creativecommons.org/ns#"
   xmlns:rdf="http://www.w3.org/1999/02/22-rdf-syntax-ns#"
   xmlns:svg="http://www.w3.org/2000/svg"
   xmlns="http://www.w3.org/2000/svg"
   viewBox="0 0 682.66669 682.66669"
   height="682.66669"
   width="682.66669"
   xml:space="preserve"
   id="svg2"
   version="1.1"><metadata
     id="metadata8"><rdf:RDF><cc:Work
         rdf:about=""><dc:format>image/svg+xml</dc:format><dc:type
           rdf:resource="http://purl.org/dc/dcmitype/StillImage" /></cc:Work></rdf:RDF></metadata><defs
     id="defs6"><clipPath
       id="clipPath18"
       clipPathUnits="userSpaceOnUse"><path
         id="path16"
         d="M 0,512 H 512 V 0 H 0 Z" /></clipPath></defs><g
     transform="matrix(1.3333333,0,0,-1.3333333,0,682.66667)"
     id="g10"><g
       id="g12"><g
         clip-path="url(#clipPath18)"
         id="g14"><g
           transform="translate(249.665,239.9365)"
           id="g20"><path
             id="path22"
             style="fill:#000000;fill-opacity:1;fill-rule:nonzero;stroke:none"
             d="M 0,0 C 0.371,0 0.741,-0.002 1.111,0.001 3.773,0.021 4.457,0.589 4.908,1.107 5.409,1.683 5.456,2.326 4.05,4.865 3.512,5.837 3.028,6.838 2.536,7.834 c -4.702,9.506 -10.694,18.118 -18.7,25.087 -3.678,3.201 -7.9,5.923 -12.228,8.191 -4.219,2.212 -8.118,-0.014 -8.592,-4.768 -0.324,-3.245 -0.059,-6.699 0.704,-9.878 C -32.724,11.636 -16.778,0.127 0,0 m 27.812,29.424 c 1.635,0.12 4.218,0.382 6.807,0.481 4.112,0.157 4.114,0.112 4.149,4.089 C 38.919,51.217 24.367,66.375 5.974,68.154 0.012,68.731 -0.811,68.117 -1.894,62.253 -2.006,61.647 -2.067,61.03 -2.129,60.416 -3.945,42.397 8.211,29.4 27.812,29.424 m -192.924,5.515 c -0.099,-11.691 1.128,-23.222 3.968,-34.545 12.162,-48.483 41.545,-82.681 86.368,-104.102 2.902,-1.387 5.335,-1.163 8.041,0.283 7.777,4.156 12.417,10.78 15.024,18.956 3.12,9.786 3.072,19.755 0.876,29.679 -2.586,11.682 -6.231,22.859 -15.534,31.325 -2.704,2.461 -4.843,5.616 -6.939,8.662 -18.292,26.594 -21.648,55.055 -8.104,84.324 13.455,29.078 37.333,45.289 68.803,50.265 4.321,0.683 7.209,2.345 9.444,6.015 7.296,11.974 8.976,24.709 5.333,38.124 -2.469,9.09 -7.277,16.702 -15.204,22.137 -2.371,1.626 -4.813,2.22 -7.686,1.826 -43.9,-6.013 -80.943,-24.819 -109.581,-59.041 -22.708,-27.136 -34.708,-58.351 -34.809,-93.908 m 332.464,-1.655 c 0,2.595 0.031,5.191 -0.013,7.785 -0.024,1.357 -0.144,2.716 -0.282,4.068 -3.357,32.817 -15.663,61.771 -37.219,86.816 -19.874,23.091 -44.537,38.818 -73.283,48.484 -3.421,1.149 -6.394,1.07 -8.844,-1.484 -3.478,-3.624 -7.456,-7.078 -9.857,-11.368 -8.76,-15.657 -8.52,-32.083 -2.914,-48.759 1.1,-3.271 2.941,-5.289 6.083,-6.873 C 69.627,97.541 87.232,75.136 90.852,42.683 94.723,7.98 74.683,-28.062 40.063,-43.955 25.417,-50.679 9.911,-53.318 -6.172,-52.161 c -2.703,0.195 -4.321,-0.521 -4.873,-3.156 -1.565,-7.468 -4.053,-14.9 -4.417,-22.43 -0.783,-16.187 4.182,-30.519 17.191,-41.114 1.645,-1.341 4.26,-2.293 6.35,-2.167 37.631,2.265 72.004,13.725 101.54,37.626 37.045,29.977 55.865,69.205 57.733,116.686 m -384.969,12.979 c -0.517,31.55 12.798,69.674 37.556,103.925 34.095,47.167 80.274,75.84 137.069,87.084 51.485,10.194 101.041,3.053 147.646,-20.93 53.634,-27.6 89.955,-70.462 106.777,-128.561 18.24,-62.998 4.943,-120.677 -32.406,-173.576 -9.765,-13.833 -21.848,-25.48 -34.631,-36.458 -6.716,-5.768 -12.189,-12.585 -16.842,-20.089 -5.596,-9.022 -7.185,-18.491 -3.645,-28.72 1.613,-4.659 3.105,-9.411 4.049,-14.239 1.642,-8.396 0.347,-16.309 -5.718,-22.818 -9.524,-10.223 -24.407,-8.228 -30.4,4.366 -2.077,4.363 -2.734,9.424 -3.874,14.205 -0.628,2.634 -0.836,5.365 -1.377,8.023 -0.416,2.041 -1.625,2.376 -3.149,0.976 -1.455,-1.336 -2.746,-2.85 -4.223,-4.156 -2.582,-2.281 -5.025,-4.835 -7.933,-6.607 -6.004,-3.656 -12.313,-2.045 -16.066,3.911 -1.567,2.486 -2.693,5.27 -3.854,7.989 -4.063,9.518 -5.759,10.43 -15.939,9.086 -7.469,-0.986 -14.953,-2.104 -22.464,-2.468 -39.255,-1.905 -76.606,5.61 -112.159,22.547 -33.918,16.157 -61.934,39.193 -82.96,70.332 -23.444,34.722 -35.414,73.136 -35.457,126.178" /></g></g></g></g></svg>