<?xml version="1.0" encoding="utf-8"?>
<!-- Generator: Adobe Illustrator 23.0.6, SVG Export Plug-In . SVG Version: 6.00 Build 0)  -->
<svg version="1.1" id="Layer_1" xmlns="http://www.w3.org/2000/svg" xmlns:xlink="http://www.w3.org/1999/xlink" x="0px" y="0px"
	 viewBox="0 0 400 400" style="enable-background:new 0 0 400 400;" xml:space="preserve">
<path d="M62.5,135c-0.3-19.8,8.1-43.8,23.6-65.4c21.4-29.7,50.5-47.7,86.2-54.8c32.4-6.4,63.6-1.9,92.9,13.2
	c33.7,17.4,56.6,44.3,67.2,80.9c11.5,39.6,3.1,75.9-20.4,109.2c-6.1,8.7-13.7,16-21.8,22.9c-4.2,3.6-7.7,7.9-10.6,12.6
	c-3.5,5.7-4.5,11.6-2.3,18.1c1,2.9,2,5.9,2.5,9c1,5.3,0.2,10.3-3.6,14.4c-6,6.4-15.4,5.2-19.1-2.7c-1.3-2.7-1.7-5.9-2.4-8.9
	c-0.4-1.7-0.5-3.4-0.9-5c-0.3-1.3-1-1.5-2-0.6c-0.9,0.8-1.7,1.8-2.7,2.6c-1.6,1.4-3.2,3-5,4.2c-3.8,2.3-7.7,1.3-10.1-2.5
	c-1-1.6-1.7-3.3-2.4-5c-2.6-6-3.6-6.6-10-5.7c-4.7,0.6-9.4,1.3-14.1,1.6c-24.7,1.2-48.2-3.5-70.6-14.2c-21.3-10.2-39-24.7-52.2-44.2
	C70.1,192.5,62.5,168.4,62.5,135z M304.7,143.2c0-1.6,0-3.3,0-4.9c0-0.9-0.1-1.7-0.2-2.6c-2.1-20.6-9.9-38.9-23.4-54.6
	c-12.5-14.5-28-24.4-46.1-30.5c-2.2-0.7-4-0.7-5.6,0.9c-2.2,2.3-4.7,4.5-6.2,7.2c-5.5,9.8-5.4,20.2-1.8,30.7
	c0.7,2.1,1.8,3.3,3.8,4.3c18,9.1,29.1,23.2,31.3,43.6c2.4,21.8-10.2,44.5-31.9,54.5c-9.2,4.2-19,5.9-29.1,5.2
	c-1.7-0.1-2.7,0.3-3.1,2c-1,4.7-2.5,9.4-2.8,14.1c-0.5,10.2,2.6,19.2,10.8,25.9c1,0.8,2.7,1.4,4,1.4c23.7-1.4,45.3-8.6,63.9-23.7
	C291.7,197.7,303.5,173,304.7,143.2z M95.5,142.1c-0.1,7.4,0.7,14.6,2.5,21.7c7.7,30.5,26.1,52,54.3,65.5c1.8,0.9,3.4,0.7,5.1-0.2
	c4.9-2.6,7.8-6.8,9.5-11.9c2-6.2,1.9-12.4,0.6-18.7c-1.6-7.3-3.9-14.4-9.8-19.7c-1.7-1.5-3-3.5-4.4-5.4c-11.5-16.7-13.6-34.6-5.1-53
	c8.5-18.3,23.5-28.5,43.3-31.6c2.7-0.4,4.5-1.5,5.9-3.8c4.6-7.5,5.6-15.5,3.4-24c-1.6-5.7-4.6-10.5-9.6-13.9c-1.5-1-3-1.4-4.8-1.1
	c-27.6,3.8-50.9,15.6-68.9,37.1C103.2,100.1,95.6,119.8,95.5,142.1z M216.9,145.6c1-0.1,2.7-0.2,4.3-0.3c2.6-0.1,2.6-0.1,2.6-2.6
	c0.1-10.8-9.1-20.4-20.6-21.5c-3.8-0.4-4.3,0-4.9,3.7c-0.1,0.4-0.1,0.8-0.1,1.2C196.9,137.4,204.6,145.6,216.9,145.6z M199.4,164.1
	c0.2,0,0.5,0,0.7,0c1.7,0,2.1-0.4,2.4-0.7c0.3-0.4,0.3-0.8-0.5-2.4c-0.3-0.6-0.6-1.2-1-1.9c-3-6-6.7-11.4-11.8-15.8
	c-2.3-2-5-3.7-7.7-5.2c-2.7-1.4-5.1,0-5.4,3c-0.2,2,0,4.2,0.4,6.2C178.8,156.8,188.8,164,199.4,164.1z"/>
</svg>
