<?xml version="1.0" encoding="utf-8"?>
<!-- Generator: Adobe Illustrator 22.1.0, SVG Export Plug-In . SVG Version: 6.00 Build 0)  -->
<!DOCTYPE svg PUBLIC "-//W3C//DTD SVG 1.1//EN" "http://www.w3.org/Graphics/SVG/1.1/DTD/svg11.dtd">
<svg version="1.1" id="Layer_1" xmlns="http://www.w3.org/2000/svg" xmlns:xlink="http://www.w3.org/1999/xlink" x="0px" y="0px"
	 viewBox="0 0 400 400" enable-background="new 0 0 400 400" xml:space="preserve">
<g>
	<path d="M251.4,143.6c21.5,0,42.1,0.1,63.6-0.1c7.5-0.1,9.7,3.1,9.6,12.2c-0.1,5.3-0.1,10.7-0.1,15.8c0.1,10-1.7,13.5-9.6,13.5
		c-16.4-0.1-32.7,0-49.1,0c-10,0-19.6,16.1-14.4,24.8c0.9,1.5,4.1,2.2,6.3,2.2c20,0.2,39.9,0.2,59.9,0c5.6-0.1,7.8,1.9,7.2,7.4
		c-1.5,14.5-2.6,29.2-4.5,43.6c-2.7,19.8-0.2,37.4,16.9,50.5c2.3,1.7,4,5.1,4.6,7.9c3.6,15.3,7,30.6,9.8,46c0.5,2.7-2,7.6-4.4,8.8
		c-9.1,4.4-18.9,8.1-29,11.1c-33,9.6-70.1,11.1-105.1,2.2c-40.1-10.2-77.4-34-102.6-74.7c-4.5-7.2-7.8-15.1-11.7-22.7
		c-0.1-0.2-0.2-0.3-0.3-0.5c-1.3-2.2-4.6-2.3-5.8-0.1c-0.2,0.3-0.3,0.6-0.3,0.9c-0.3,6.6-0.6,13.4,0.2,20c1.2,9.3,3.3,18.6,4.9,27.9
		c0.4,2.2,0.6,4.4,0.7,6.7c0.6,18.2-7.9,30.7-21,31.9c-13,1.1-26.9-10-28.6-25.1c-1-9.1-0.1-19,2.5-27.7c6.5-21.7,6.7-42.9,1.9-65
		c-3-13.8-3.1-28.4-2.7-42.7c0.1-4.3,3.1-5.7,6.7-6.1c6.4-0.8,13-0.4,19.5-0.4c2.4,0,4.7-1.4,5-3.9c0.9-7.6,1.1-12.2,0.5-19.8
		c-0.2-2.8-2.3-3.3-4.7-3.2c-6.9,0.4-13.9,0.3-20.8-0.4c-3-0.3-6-2.7-6.2-6c-0.5-9.1-0.9-18.4,0-27.5c0.4-3.6,3.6-6.9,7.2-7.3
		c8.6-1,17.5,0,26.2-0.6c3.5-0.3,5.7-2.6,6.3-4.6C116.7,46.3,194.4-5.7,289.8,6.2c16.6,2.1,32,5.6,49.1,10.9
		c8.4,2.6,10.8,7.8,9.2,15.1c-3.5,16.2-7.3,32.3-11.9,48.3c-1.7,5.2-4.2,5.4-9.6,4.2c-9.3-2.2-18.6-5.1-27.9-7.2
		c-9.2-2.1-16.8,3.9-16.8,13.3c0,5.6,1.4,11.1,1.8,16.7c1,13-8.4,23.1-21.9,23.6c-12.5,0.4-20.8-8.5-20.3-22.2
		c0.2-6.7,1.4-13.4,1.1-20.1c-0.3-7.3-4-10.6-11.7-7c-24.3,11.2-40.9,29.1-48.9,55c-1.6,5.3-1.1,6.9,4.9,6.9
		c21.5-0.3,43-0.1,64.6-0.1C251.4,143.5,251.4,143.6,251.4,143.6z M224.5,253.6c-13.4,0-26.9-0.1-40.3,0.2c-3.1,0.1-4.3,1.5-3.5,6.8
		c5,20.2,14.5,34.9,32.2,46.8c22.2,15,51.5,12.8,66.7-5.1c8.3-9.7,10.4-20.7,4.7-32.5c-5.3-10.8-12.8-17.6-26.3-16.4
		C247,254.4,235.7,253.6,224.5,253.6z M195.4,212.2c1.9,0,5.9,0,11-0.1c8.1-0.2,10.9-6.7,9.8-12.3c-1-5.3-5.4-13.2-9.4-14
		c-10.1-2-17.8-1.8-28.2-0.6c-3.4,0.4-7.1,1.2-7.5,4.1c-0.8,4.9-1.3,8.7-1.5,11.7c-0.5,7.3,1.3,9.9,7.9,10.8
		c3.1,0.4,7.3,0.5,12.9,0.5C190.6,212.1,193.5,212.2,195.4,212.2z"/>
</g>
</svg>
