<?xml version="1.0" encoding="utf-8"?>
<!-- Generator: Adobe Illustrator 23.0.6, SVG Export Plug-In . SVG Version: 6.00 Build 0)  -->
<svg version="1.1" id="Layer_1" xmlns="http://www.w3.org/2000/svg" xmlns:xlink="http://www.w3.org/1999/xlink" x="0px" y="0px"
	 viewBox="0 0 400 400" enable-background="new 0 0 400 400" xml:space="preserve">
<path d="M236.2,102.5c15.2,0,29.7,0.1,44.8,0c5.3,0,6.9,2.2,6.8,8.6c0,3.8-0.1,7.5,0,11.1c0.1,7.1-1.2,9.5-6.7,9.5
	c-11.5-0.1-23.1,0-34.6,0c-7,0-13.8,11.4-10.2,17.4c0.6,1.1,2.9,1.6,4.4,1.6c14.1,0.1,28.1,0.2,42.2,0c4-0.1,5.5,1.4,5.1,5.2
	c-1.1,10.2-1.8,20.5-3.2,30.7c-1.9,13.9-0.1,26.3,11.9,35.6c1.6,1.2,2.8,3.6,3.3,5.6c2.5,10.8,5,21.5,6.9,32.4
	c0.3,1.9-1.4,5.4-3.1,6.2c-6.4,3.1-13.3,5.7-20.4,7.8c-23.2,6.8-49.4,7.8-74.1,1.5c-28.2-7.2-54.5-24-72.3-52.6
	c-3.1-5.1-5.5-10.7-8.3-16c-0.1-0.1-0.1-0.2-0.2-0.3c-0.9-1.5-3.3-1.6-4.1,0c-0.1,0.2-0.2,0.4-0.2,0.6c-0.2,4.7-0.4,9.4,0.2,14.1
	c0.8,6.6,2.3,13.1,3.5,19.6c0.3,1.5,0.5,3.1,0.5,4.7c0.4,12.8-5.6,21.7-14.8,22.5c-9.2,0.8-19-7.1-20.2-17.7
	c-0.7-6.4-0.1-13.4,1.8-19.5c4.6-15.3,4.7-30.2,1.3-45.8c-2.1-9.7-2.2-20-1.9-30.1c0.1-3,2.2-4,4.7-4.3c4.5-0.5,9.1-0.3,13.7-0.3
	c1.7,0,3.3-1,3.5-2.8c0.6-5.3,0.8-8.6,0.4-13.9c-0.1-2-1.6-2.3-3.3-2.2c-4.9,0.3-9.8,0.2-14.7-0.3c-2.1-0.2-4.2-1.9-4.4-4.2
	c-0.4-6.4-0.6-13,0-19.4c0.3-2.5,2.6-4.9,5.1-5.2c6.1-0.7,12.3,0,18.4-0.4c2.5-0.2,4-1.8,4.4-3.3C141.3,33.9,196-2.7,263.3,5.7
	c11.7,1.4,22.5,4,34.6,7.7c5.9,1.8,7.6,5.5,6.5,10.6c-2.4,11.4-5.2,22.8-8.4,34c-1.2,3.6-2.9,3.8-6.8,2.9
	c-6.6-1.5-13.1-3.6-19.7-5.1c-6.5-1.5-11.9,2.7-11.9,9.4c0,3.9,1,7.9,1.3,11.8c0.7,9.2-5.9,16.3-15.4,16.6
	c-8.8,0.3-14.6-6-14.3-15.6c0.2-4.7,1-9.5,0.7-14.2c-0.2-5.1-2.8-7.4-8.2-5c-17.1,7.9-28.8,20.5-34.4,38.7c-1.2,3.7-0.7,4.9,3.5,4.8
	C205.9,102.3,221,102.4,236.2,102.5C236.2,102.5,236.2,102.5,236.2,102.5z M217.3,180.1c-9.5,0-18.9-0.1-28.4,0.1
	c-2.2,0.1-3,1.1-2.4,4.8c3.5,14.2,10.2,24.6,22.7,33c15.6,10.5,36.3,9,47-3.6c5.8-6.9,7.3-14.6,3.3-22.9c-3.7-7.6-9-12.4-18.5-11.6
	C233.1,180.6,225.2,180,217.3,180.1z M196.8,150.8c1.4,0,4.1,0,7.7-0.1c5.7-0.1,7.7-4.7,6.9-8.7c-0.7-3.7-3.8-9.3-6.7-9.9
	c-7.1-1.4-12.6-1.3-19.9-0.4c-2.4,0.3-5,0.8-5.3,2.9c-0.5,3.4-0.9,6.1-1.1,8.3c-0.3,5.2,0.9,7,5.6,7.6c2.2,0.3,5.2,0.3,9.1,0.3
	C193.4,150.8,195.4,150.8,196.8,150.8z"/>
</svg>
