<?xml version="1.0" encoding="utf-8"?>
<!-- Generator: Adobe Illustrator 23.0.1, SVG Export Plug-In . SVG Version: 6.00 Build 0)  -->
<svg version="1.1"
	 id="svg2" xmlns:cc="http://creativecommons.org/ns#" xmlns:dc="http://purl.org/dc/elements/1.1/" xmlns:inkscape="http://www.inkscape.org/namespaces/inkscape" xmlns:rdf="http://www.w3.org/1999/02/22-rdf-syntax-ns#" xmlns:sodipodi="http://sodipodi.sourceforge.net/DTD/sodipodi-0.dtd" xmlns:svg="http://www.w3.org/2000/svg"
	 xmlns="http://www.w3.org/2000/svg" xmlns:xlink="http://www.w3.org/1999/xlink" x="0px" y="0px" viewBox="0 0 400 400"
	 style="enable-background:new 0 0 400 400;" xml:space="preserve">
<path d="M395.2,171.1c0-14.5-87.6-94-195.4-94c-107.8,0-195,79.5-195,94c0,14.5,87.2,94,195,94c38.8,0,74.9-10.3,105.3-24.1
	c2.3-1.1,4.7-1.9,7.3-2.3c36.9-5.8-11.1,83.2,19.4,84.1c36.2,0-11.1-55,25.7-108.6c3.4-5,7.6-9.4,12.3-13.3
	C385.9,187.4,395.2,175.8,395.2,171.1z M322.7,143.5c11.7,7.2,21.8,14.6,29.6,21.1c4.1,3.4,4.1,9.6,0,13c-7.8,6.5-17.9,14-29.6,21.1
	c-22.3,13.7-50.5,26.4-81.5,32.9c-12,2.5-24.3,3-36.4,1.3c-26-3.6-20.3-11.2-10.2-16.5c4.7-2.4,9.7-4,14.9-4.9
	c27.9-4.7,49.4-29.2,49.4-58.4c0-12.4-3.9-23.9-10.5-33.3c-2.2-3.1,0.7-7.3,4.4-6.4C279.4,120.4,303.3,131.5,322.7,143.5z
	 M213,116.3c13.5,0,24.6,10.7,24.6,24.2c0,13.5-11.1,24.6-24.6,24.6c-13.5,0-24.2-11.1-24.2-24.6C188.8,126.9,199.5,116.3,213,116.3
	z M47.7,177.7c-4.1-3.4-4.1-9.6,0-13c7.7-6.5,17.8-13.9,29.6-21.1c19.4-11.9,43.4-23.1,69.7-30c3.7-1,6.6,3.2,4.4,6.4
	c-6.6,9.5-10.5,20.9-10.5,33.3c0,11.8,3.5,22.8,9.4,32.1c3,4.7,5,10,5.4,15.6c1.1,16.2-9.9,28.1-30.9,21.2
	c-17.6-6.5-33.7-14.7-47.6-23.2C65.6,191.6,55.4,184.2,47.7,177.7z"/>
</svg>
