<?xml version="1.0" encoding="utf-8"?>
<!-- Generator: Adobe Illustrator 23.0.1, SVG Export Plug-In . SVG Version: 6.00 Build 0)  -->
<svg version="1.1"
	 id="svg8" xmlns:cc="http://creativecommons.org/ns#" xmlns:dc="http://purl.org/dc/elements/1.1/" xmlns:inkscape="http://www.inkscape.org/namespaces/inkscape" xmlns:rdf="http://www.w3.org/1999/02/22-rdf-syntax-ns#" xmlns:sodipodi="http://sodipodi.sourceforge.net/DTD/sodipodi-0.dtd" xmlns:svg="http://www.w3.org/2000/svg"
	 xmlns="http://www.w3.org/2000/svg" xmlns:xlink="http://www.w3.org/1999/xlink" x="0px" y="0px" viewBox="0 0 400 400"
	 style="enable-background:new 0 0 400 400;" xml:space="preserve">
<sodipodi:namedview  bordercolor="#666666" borderopacity="1" fit-margin-bottom="20" fit-margin-left="0" fit-margin-right="0" fit-margin-top="0" gridtolerance="10" guidetolerance="10" id="namedview10" inkscape:current-layer="svg8" inkscape:cx="36.410458" inkscape:cy="28.72179" inkscape:pageopacity="0" inkscape:pageshadow="2" inkscape:window-height="705" inkscape:window-maximized="1" inkscape:window-width="1366" inkscape:window-x="-8" inkscape:window-y="245" inkscape:zoom="16" objecttolerance="10" pagecolor="#ffffff" showgrid="false">
	</sodipodi:namedview>
<g id="Layer_1">
</g>
<g>
	<path d="M188.4,72.1c-0.7-2.4-2.9-4.1-5.5-4.1h-17.6c-2.6,0-4.8,1.7-5.5,4.2L128,190.4c-1,3.6,1.8,7.2,5.5,7.2h8.9
		c2.6,0,4.9-1.7,5.5-4.2l7.6-28.5c0.5-2,2.6-3.1,4.5-2.4c19.6,6.7,33.5,11.4,41.6,32.1c0.9,2.2,3,3.6,5.3,3.6c3,0,7.2,0,10.9,0
		c3.8,0,6.6-3.7,5.5-7.3L188.4,72.1z M162.2,140c2.8-8.3,5.2-17.6,7.5-27.5c2.1-9.1,3.8-16.8,5-23.1c0.1-0.7,1.1-0.7,1.2,0
		c1.4,6.5,3.6,14.8,6.3,25c2.8,10.5,4.6,18.6,6.2,25.1c0.3,1.2-0.6,2.4-1.9,2.4h-23C162.5,141.9,161.8,140.9,162.2,140z
		 M188.4,168.4c-3.1-2.1-6.7-6.6-3.3-6.6l5.7,0.1c1.2,0,2.3,0.8,2.6,2l1.1,4C195.1,171.1,191.2,170.2,188.4,168.4z"/>
	<path d="M331.8,4.8H68.2c-5.5,0-10,4.5-10,10v266.1c55.5,17,1.5,110.4,32.8,114.3c35-1.4-15.8-102.2,27.5-114.3h213.3
		c5.5,0,10-4.5,10-10V14.8C341.8,9.2,337.4,4.8,331.8,4.8z M329.9,259.6c0,5.5-4.5,10-10,10H80.1c-5.5,0-10-4.5-10-10v-233
		c0-5.5,4.5-10,10-10h239.9c5.5,0,10,4.5,10,10V259.6z"/>
	<path d="M262.9,85.5c2.5-1.9,3.8-5,3.8-8.8s-0.6-6.9-3.1-8.8s-5-3.1-8.8-3.1s-6.3,1.3-8.8,3.1s-3.8,5-3.8,8.8
		c0,2.7,0.6,4.8,1.7,6.6c0.7,1.2,1.6,2.2,2.7,3.1c4.6,3.9,2.3,8.8-2.2,14.2c-0.6,0.7-0.9,1.7-0.9,2.6v88.6c0,3.2,2.6,5.7,5.7,5.7
		h9.9c3.2,0,5.7-2.6,5.7-5.7v-88.3c0-1.1-0.4-2.2-1.3-3c-3.1-3-7.8-8.3-1.4-14.5C262.4,85.9,262.7,85.7,262.9,85.5z"/>
</g>
</svg>
