<?xml version="1.0" encoding="utf-8"?>
<!-- Generator: Adobe Illustrator 21.1.0, SVG Export Plug-In . SVG Version: 6.00 Build 0)  -->
<!DOCTYPE svg PUBLIC "-//W3C//DTD SVG 1.1//EN" "http://www.w3.org/Graphics/SVG/1.1/DTD/svg11.dtd">
<svg version="1.1" id="Layer_1" xmlns="http://www.w3.org/2000/svg" xmlns:xlink="http://www.w3.org/1999/xlink" x="0px" y="0px"
	 viewBox="0 0 400 400" enable-background="new 0 0 400 400" xml:space="preserve">
<g>
	<path d="M59.3,343.6c0.1,4.2,1.7,10.1,2.4,19.8c0.7,9.8-7.4,20.2-18.7,20.2s-15.8-6.3-15.6-17.1c0.3-10.8,5.7-18.5,7.4-27.6
		c5.3-29.1,3.3-61.6,3.4-75.8c0.1-18.7-0.2-26.7-0.1-40.3c0.3-40.6,1.1-81.1,1.7-121.7c0.3-24.3,0.5-48.6,0.6-72.9
		c0.1-13,1.7-14.3,14-8.9c38.8,17.1,78,33.5,116.3,51.7c46.1,21.9,91.4,45.6,137.1,68.3c20.1,10,40.2,19.7,60.4,29.5
		c4.4,2.1,6.9,4.8,0.6,8.9c-11.7,7.6-11,15.6-10.1,22.1s1.8,12.4,1.6,16.6c-0.2,4.2-0.7,9.3-5,12.9s-12.7,1.7-16.1-1.3
		c-3.8-3.5-4.2-7.2-4.6-11.5c-0.5-4.3-0.4-8.5-2.8-9.7c-2.5-1.2-4.6,0.7-7.1,4.8s-5.1,9.9,1.7,20.2s10.5,24.3,8.4,33.2
		c-2.1,8.9-11.9,16.8-19.4,17s-14.3-9.6-14.6-16.9c-0.4-7.3,1.2-18,2-23.8c0.8-5.8,0.1-15.9-4-20.4c-4.1-4.4-10.4-5.1-18.6-2.5
		c-8.2,2.6-43.1,19.1-64.7,28.8c-20,9-39.9,17.9-60,26.6c-18.4,7.9-37.1,14.9-55.3,23.1c-16.2,7.4-32.2,15.6-38.7,34.1
		C60,335.1,59.2,339.4,59.3,343.6z"/>
</g>
</svg>
