<?xml version="1.0" encoding="utf-8"?>
<!-- Generator: Adobe Illustrator 23.0.1, SVG Export Plug-In . SVG Version: 6.00 Build 0)  -->
<svg version="1.1"
	 id="svg2" xmlns:cc="http://creativecommons.org/ns#" xmlns:dc="http://purl.org/dc/elements/1.1/" xmlns:inkscape="http://www.inkscape.org/namespaces/inkscape" xmlns:rdf="http://www.w3.org/1999/02/22-rdf-syntax-ns#" xmlns:sodipodi="http://sodipodi.sourceforge.net/DTD/sodipodi-0.dtd" xmlns:svg="http://www.w3.org/2000/svg"
	 xmlns="http://www.w3.org/2000/svg" xmlns:xlink="http://www.w3.org/1999/xlink" x="0px" y="0px" viewBox="0 0 562 818.7"
	 style="enable-background:new 0 0 562 818.7;" xml:space="preserve">
<g>
	<path d="M309.3,505.2c-0.6-0.2-1.1-0.5-1.6-0.9l0.2,1.4c0.1,0.4,0.5,0.4,1,0.2c0.4-0.2,0.6-0.3,0.5-0.5
		C309.5,505.3,309.4,505.3,309.3,505.2z"/>
	<path d="M311.7,503.5c0.5-0.1,1-0.3,1.5-0.5c0.4-0.3,0.8-0.7,1.1-1.1c0.3-0.5,0.5-1,0.6-1.5c0.1-0.5,0.2-1.1,0.1-1.7
		c-0.1-0.6-0.3-1.1-0.6-1.6c-0.3-0.5-0.6-0.9-1.1-1.2c-0.1-0.1-0.2-0.2-0.3-0.2c-1-0.1-1.6,0-1.9,0.3c-0.3,0.3-0.4,0.7-0.3,1.2
		c0.1,0.5,0.3,1.1,0.5,1.6c0.2,0.5,0.4,1,0.4,1.5s-0.2,0.7-0.6,0.8c-0.4,0-0.6-0.2-0.8-0.5c-0.1-0.3-0.2-0.7-0.2-1.2
		c0-0.4,0-0.9,0-1.4s-0.1-0.9-0.1-1.2c-0.1-0.3-0.3-0.5-0.7-0.6c-0.4-0.1-0.9,0.1-1.6,0.5c-0.3,0.5-0.6,1-0.7,1.6
		c-0.1,0.5-0.2,1.1-0.1,1.7c0.1,0.6,0.3,1.1,0.6,1.6c0.3,0.5,0.6,0.9,1,1.2c0.4,0.3,0.9,0.6,1.4,0.7
		C310.6,503.6,311.1,503.6,311.7,503.5z"/>
	<path d="M299.4,499.4c-0.3-0.5-0.7-0.9-1.2-1.3c-1.2-0.3-2-0.3-2.3-0.1c-0.3,0.2-0.4,0.6-0.3,1.1c0.1,0.6,0.3,1.1,0.6,1.7
		c0.3,0.6,0.5,1.2,0.5,1.7c0,0.5-0.2,0.8-0.7,0.9c-0.5,0.1-0.8-0.2-1-0.6c-0.2-0.5-0.2-1.1-0.2-1.7c0.1-0.7,0.1-1.3,0-1.8
		c-0.1-0.6-0.3-0.9-0.6-1c-0.3-0.1-1,0.2-1.9,0.8c-0.3,0.5-0.6,1-0.7,1.5c-0.2,0.5-0.2,1.1-0.1,1.7c0.1,0.6,0.3,1.1,0.6,1.6
		c0.3,0.5,0.6,0.9,1.1,1.2c0.4,0.3,0.9,0.6,1.5,0.7c0.6,0.1,1.1,0.1,1.7,0c0.6-0.1,1.1-0.3,1.6-0.5c0.5-0.3,0.9-0.7,1.2-1.1
		c0.3-0.4,0.5-0.9,0.7-1.5c0.2-0.6,0.2-1.2,0.1-1.7C299.9,500.4,299.7,499.9,299.4,499.4z"/>
	<path d="M306.8,493.7c-0.3-0.3-0.5-0.2-0.7,0.2l-0.1,0.1l0.2,1.5c0.2-0.3,0.4-0.5,0.6-0.8C307.2,494.4,307.2,494,306.8,493.7z"/>
	<path d="M541.7,528.8c-2.9-19-5.9-37.9-8.9-56.9c-5-31.6-10-63.1-15-94.7c-5-31.5-10-62.9-14.9-94.4c-5-31.7-10-63.4-15.1-95
		c-5-31.6-10-63.1-15-94.7c-2.8-17.9-5.5-35.8-8.6-53.6c-2.3-13.4-14-21.2-27.4-19.1c-36.7,5.9-73.4,11.7-110.2,17.5
		c-44.2,7-88.4,13.9-132.5,20.9C142.9,66.9,91.8,75,40.6,83.1c-13.8,2.2-22.4,13.5-20.3,27.5c3.2,21.3,6.7,42.5,10.1,63.8
		c5.9,37.2,11.8,74.3,17.7,111.5c5.4,34.4,10.8,68.8,16.3,103.3c5.4,34.4,10.9,68.8,16.4,103.3c5.6,35.4,11.1,70.8,16.8,106.2
		c0.2,1.3,0.5,2.5,0.9,3.7l0,0c0,0,0,0,0,0.1c1.4,4.3,4,8.1,7.5,10.9c39.9,67.9-23.5,159,33.5,165.7c57.2,1.2-50.2-139.3,36.6-168.8
		c27.8-4.4,55.6-8.8,83.4-13.2c42.8-6.8,85.5-13.6,128.2-20.4c44.8-7.1,89.7-14.2,134.5-21.3C535.2,553.2,543.7,541.8,541.7,528.8z
		 M260.5,205.8c6.6-1.2,13.4-1.4,20.1-0.4c19,2.6,33.6,10.5,45,24.8c19.1,24,17.5,57.8-3.4,80.2c-27.4,29.5-75.4,28.6-101.6-1.9
		c-29.3-34-13.7-86.2,30.1-100.3C253.9,207,257.3,206.3,260.5,205.8z M190.7,595.1c-3.9,0.6-7.7,1.2-11.6,1.8
		c-16.9,2.7-33.7,5.4-50.6,7.7c-7.3,1-13.5-2.3-17.5-8.2c-2-3-2.1-7.4-2.7-11.2c-7.6-47.6-15.1-95.1-22.6-142.7
		c-7.7-48.5-15.3-96.9-22.9-145.4c-8.8-55.5-17.6-110.9-26.4-166.4c-1-6.1-2.1-12.2-2.7-18.3c-0.2-2.2,0.1-4.4,1-6.4
		c3.6-7.6,10.1-10.8,18.2-12.1c47-7.4,94-14.8,141.1-22.3c9.7-1.5,19.7,0.6,27.7,6.3c14.4,10.3,21.9,26.8,8.1,35.1
		c-1.6,0.9-3.3,1.6-5,2.1c-22.5,6.7-43.3,18.2-62.3,34.6c-52.7,45.5-70.8,119.9-42.5,182.7c25,55.3,67.4,85.1,117.5,94.6
		c15.5,2.9,31.3,3.4,47,1.9c5.6-0.5,10.9-1.2,16.1-2.1c8.5-1.5,17.4-0.9,25.5,2.1c11.2,4.2,16.4,10.8,11.6,21.1
		c-3.7,8.1-11.5,13.6-20.3,15c-20.2,3.2-40.5,6.4-60.7,9.6c-5.5,0.9-11,1.7-16.4,2.7c-5.5,1-7.4,3.6-6.6,8.4
		c1.7,10.4,3.1,18.7,4.7,29.2l0.8,4.4c0,0,0,0,0,0c0.9,5.6,0.7,4.5,1.4,10.1c0,0.1,0.6,4.7,0.7,5.4c0,0,0,0.1,0,0.1
		C243.7,569.2,226.4,588.4,190.7,595.1z M340.5,488.3l0,2c-1.9,3-2.9,6.6-3.1,10.8l-2.1,0.3l-1.9-11.7l2.1-0.3l0.2,1.1
		c0,0,0.1-0.1,0.2-0.3c0.1-0.2,0.3-0.4,0.6-0.6c0.3-0.2,0.6-0.5,1.1-0.7c0.4-0.2,0.9-0.4,1.5-0.5C339.6,488.3,340,488.2,340.5,488.3
		z M331.4,498.5c-0.2,0.8-0.6,1.6-1.1,2.2c-0.5,0.6-1.1,1.2-1.8,1.6c-0.7,0.4-1.5,0.7-2.4,0.9s-1.7,0.1-2.5-0.1
		c-0.8-0.2-1.5-0.6-2.2-1c-0.7-0.5-1.2-1.1-1.7-1.8c-0.5-0.7-0.8-1.5-0.9-2.4c-0.1-0.9-0.1-1.7,0.1-2.5s0.6-1.5,1-2.2
		c0.5-0.7,1.1-1.2,1.8-1.7c0.7-0.5,1.5-0.8,2.3-0.9c0.9-0.1,1.7-0.1,2.5,0.1c0.8,0.2,1.5,0.6,2.2,1c0.7,0.5,1.2,1.1,1.7,1.8
		c0.5,0.7,0.8,1.5,0.9,2.3C331.6,496.9,331.6,497.7,331.4,498.5z M309.6,507c0.1,0.4,0.2,0.9,0.3,1.5c0.2,0.5,0.3,1.1,0.5,1.5
		c0.2,0.5,0.2,0.9,0.1,1.3c-0.1,0.4-0.4,0.6-0.8,0.7c-0.5,0.1-0.8,0-0.9-0.2c-0.2-0.2-0.2-0.5-0.2-0.9c0.1-0.4,0.1-0.8,0.1-1.3
		c0-0.5,0-1-0.1-1.4c-0.1-0.5-0.3-0.9-0.8-1.3c-0.4-0.4-1-0.7-1.8-0.8l-2.7-17.1l2.1-0.3l0.4,2.7c0.1,0.7,0.5,1.3,1.2,1.7
		c0.6,0.5,1.3,0.5,2,0.1c0.5-0.2,0.9-0.3,1.3-0.3c0.8-0.1,1.6-0.1,2.3,0.1c0.7,0.2,1.4,0.5,2.1,1c0.6,0.5,1.1,1.1,1.6,1.8
		c0.4,0.7,0.7,1.5,0.9,2.4c0.1,0.8,0.1,1.7-0.1,2.5c-0.2,0.8-0.5,1.5-0.9,2.2c-0.5,0.6-1,1.2-1.6,1.6c-0.6,0.4-1.4,0.7-2.2,0.8
		c-0.3,0-0.6,0.1-0.8,0.1c-0.7,0-1.1,0.1-1.4,0.4C309.6,506.2,309.5,506.6,309.6,507z M302,503.2c-0.2,0.8-0.6,1.6-1.1,2.2
		c-0.5,0.6-1.1,1.2-1.8,1.6c-0.7,0.4-1.5,0.7-2.4,0.9s-1.7,0.1-2.5-0.1c-0.8-0.2-1.5-0.6-2.2-1c-0.7-0.5-1.2-1.1-1.7-1.8
		s-0.8-1.5-0.9-2.4c-0.1-0.9-0.1-1.7,0.1-2.5c0.2-0.8,0.6-1.5,1-2.2c0.5-0.7,1.1-1.2,1.8-1.7c0.7-0.5,1.5-0.8,2.3-0.9
		c0.9-0.1,1.7-0.1,2.5,0.1c0.8,0.2,1.5,0.6,2.2,1c0.7,0.5,1.2,1.1,1.7,1.8c0.5,0.7,0.8,1.5,0.9,2.3
		C302.2,501.5,302.2,502.4,302,503.2z M287.5,505.5c-0.2,0.8-0.6,1.6-1.1,2.2c-0.5,0.6-1.1,1.2-1.8,1.6c-0.7,0.4-1.5,0.7-2.4,0.9
		s-1.7,0.1-2.5-0.1c-0.8-0.2-1.5-0.6-2.2-1c-0.7-0.5-1.2-1.1-1.7-1.8c-0.5-0.7-0.8-1.5-0.9-2.4c-0.1-0.9-0.1-1.7,0.1-2.5
		c0.2-0.8,0.6-1.5,1-2.2c0.5-0.7,1.1-1.2,1.8-1.7c0.7-0.5,1.5-0.8,2.3-0.9s1.7-0.1,2.5,0.1c0.8,0.2,1.5,0.6,2.2,1
		c0.7,0.5,1.2,1.1,1.7,1.8c0.5,0.7,0.8,1.5,0.9,2.3C287.7,503.8,287.7,504.7,287.5,505.5z M269.9,501.2c0.4,0.9,1.3,1.4,2.6,1.7
		c0.2,1.2,0.1,2.4-0.2,3.5s-0.8,2.2-1.5,3.1c-0.7,0.9-1.5,1.7-2.5,2.3c-1,0.6-2.1,1-3.3,1.2c-1.2,0.2-2.5,0.2-3.6-0.1
		c-1.2-0.3-2.2-0.8-3.2-1.5c-0.9-0.7-1.7-1.5-2.3-2.5c-0.6-1-1.1-2.1-1.3-3.4s-0.2-2.4,0.1-3.6c0.3-1.2,0.8-2.2,1.4-3.1
		c0.7-1,1.5-1.7,2.5-2.4c1-0.6,2.1-1,3.4-1.2c1.6-0.2,3.1-0.1,4.5,0.4c1.4,0.5,2.6,1.3,3.6,2.4C269.6,499.3,269.5,500.3,269.9,501.2
		z M511.9,544.1c-16.2,2.7-32.4,5.2-48.7,7.8c-31.6,5-63.1,10-94.7,15c-31.6,5-63.1,10-94.7,15c-0.8,0.1-1.6,0.3-2.4,0.4
		c-3.8,0.6-7.8,0.1-11.2-1.8c-15.6-8.6,1.9-30.1,19.9-40.8c5.5-3.3,11.6-5.4,18-6.5c19.6-3.1,39.2-6.2,58.8-9.3
		c4.6-0.7,9.2-1.3,13.8-2.4c5.1-1.2,6.4-3.3,5.6-8.4c-1.9-12.4-3.9-24.7-5.9-37.1c-3.8-44.6,13.6-78.3,33.4-109.7
		c6.2-7.9,11.6-16.3,16.2-25c0-0.1,0.1-0.2,0.1-0.2l0,0c19-36.6,23.8-80,10.9-121.1c-13-41.4-43.2-75.2-81.4-94.5l0.6,0
		c-1-0.4-2-0.8-2.9-1.2c-5.3-2.6-10.7-4.8-16.2-6.8c-103.6-45.4-49.2-59.4,4-68.3c22.2-3.5,44.3-7,66.5-10.5
		c10-1.6,19.9-3.2,29.9-4.7c1.1-0.2,2.2-0.2,2.8-0.2c9.7-0.1,17.5,6.4,19,15.3c7.6,47.6,15.1,95.1,22.6,142.7
		c7.9,49.9,15.9,99.7,23.8,149.6c9.2,58.2,18.4,116.4,27.6,174.6c0.3,1.8,0.6,3.5,0.9,5.3C529.8,532.4,523.1,542.2,511.9,544.1z
		 M351.7,486.8l2.1-0.3l1.8,11c0.2,1,0.2,1.9,0,2.8c-0.1,0.9-0.4,1.7-0.9,2.3c-0.4,0.7-1,1.2-1.6,1.6c-0.7,0.4-1.4,0.7-2.3,0.9
		c-0.9,0.1-1.7,0.1-2.5-0.2s-1.3-0.6-1.9-1c-0.5-0.4-0.9-0.7-1.1-1.1l-0.4-0.6c0.6-0.2,1-0.5,1.2-1c0.2-0.5,0.3-1,0.1-1.5
		c-0.1-0.5-0.4-0.9-0.7-1.2c-0.1,0-0.1-0.1-0.2-0.1c-0.1-0.1-0.1-0.1-0.1-0.1c-0.6-0.5-1.1-1.1-1.5-1.8c-0.4-0.7-0.7-1.5-0.9-2.4
		c-0.1-0.9-0.1-1.7,0.1-2.5c0.2-0.8,0.5-1.5,0.9-2.2c0.4-0.7,1-1.2,1.6-1.6c0.7-0.4,1.4-0.7,2.2-0.9c0.8-0.1,1.6-0.1,2.3,0.1
		c0.7,0.2,1.4,0.5,2.1,1L351.7,486.8z"/>
	<path d="M328.8,494.8c-0.3-0.5-0.7-0.9-1.2-1.3c-1.2-0.3-2-0.3-2.3-0.1c-0.3,0.2-0.4,0.6-0.3,1.1s0.3,1.1,0.6,1.7
		c0.3,0.6,0.5,1.2,0.5,1.7c0,0.5-0.2,0.8-0.7,0.9c-0.5,0.1-0.8-0.2-1-0.6c-0.2-0.5-0.2-1.1-0.2-1.7s0.1-1.3,0-1.8
		c-0.1-0.6-0.3-0.9-0.6-1c-0.3-0.1-1,0.2-1.9,0.8c-0.3,0.5-0.6,1-0.7,1.5c-0.2,0.5-0.2,1.1-0.1,1.7c0.1,0.6,0.3,1.1,0.6,1.6
		c0.3,0.5,0.6,0.9,1.1,1.2c0.4,0.3,0.9,0.6,1.5,0.7c0.6,0.1,1.1,0.1,1.7,0c0.6-0.1,1.1-0.3,1.6-0.5c0.5-0.3,0.9-0.7,1.2-1.1
		c0.3-0.4,0.5-0.9,0.7-1.5c0.2-0.6,0.2-1.2,0.1-1.7C329.3,495.7,329.1,495.2,328.8,494.8z"/>
	<path d="M336.6,492c-0.2,0.4-0.3,0.8-0.3,1.1s0,0.6,0,0.8l0.4,2.2c0.2,0.6,0.6,0.5,1-0.6c0.5-1.2,0.8-2.4,0.8-3.6
		c0-0.8-0.2-1.2-0.7-1c0,0-0.1,0-0.2,0.1C337.1,491.3,336.8,491.6,336.6,492z"/>
	<path d="M268.3,502.5c0.3-0.7,0.5-1.5,0.3-2.3c-0.1-0.8-0.5-1.4-1.2-1.7c-0.5-0.3-1-0.6-1.6-0.8c-1.1-0.4-2.2-0.6-3.3-0.4
		c-0.9,0.1-1.8,0.5-2.5,0.9c-0.7,0.5-1.4,1.1-1.9,1.8c-0.5,0.7-0.9,1.5-1.1,2.4c-0.2,0.9-0.2,1.7-0.1,2.7c0.1,0.9,0.5,1.8,0.9,2.5
		c0.5,0.7,1.1,1.4,1.8,1.9c0.7,0.5,1.5,0.8,2.3,1.1c0.9,0.2,1.8,0.3,2.8,0.1c1.1-0.3,2-1,2.5-1.9c0.5-0.9,0.4-1.6-0.4-2.1
		c-0.4-0.2-0.9-0.4-1.6-0.4l-0.4-2.2l1.8-0.3C267.4,503.7,267.9,503.2,268.3,502.5z"/>
	<path d="M268.1,506.7c0.3,0.4,0.6,0.6,1,0.6c0.2,0,0.4-0.1,0.5-0.3c0.2-0.5,0.4-1,0.5-1.5l-1.8,0.3
		C267.9,506,267.8,506.3,268.1,506.7z"/>
	<path d="M351.8,498.7l-0.3,0.2c-0.6,0.3-1.4,0.6-2.1,0.7c-0.5,0.1-0.9,0.2-1.3,0.4c-0.4,0.2-0.7,0.3-1,0.6
		c-0.3,0.2-0.3,0.5-0.2,0.9c0.1,0.4,0.4,0.7,1,1.1c0.3,0.2,0.6,0.3,0.9,0.5c0.5,0.2,1,0.2,1.6,0.1c0.7-0.1,1.3-0.3,1.7-0.7
		c0.1-0.1,0.3-0.2,0.4-0.4c0.5-0.7,0.6-1.5,0.3-2.4C352.6,499,352.3,498.6,351.8,498.7z"/>
	<path d="M352.8,498.7c0.3,0.3,0.5,0.2,0.7-0.3c0-0.3,0-0.5-0.1-0.5l-0.1-0.7c-0.2,0.3-0.4,0.6-0.7,0.8
		C352.4,498.2,352.5,498.4,352.8,498.7z"/>
	<path d="M348.6,489.6c-0.2,0.3-0.2,0.6-0.1,1c0.1,0.4,0.3,0.8,0.4,1.2c0.2,0.4,0.3,0.9,0.5,1.3c0.2,0.4,0.2,0.8,0.1,1.1
		c-0.1,0.3-0.4,0.5-0.8,0.6c-0.4,0-0.7-0.1-0.8-0.4c-0.2-0.3-0.2-0.7-0.1-1.1c0.1-0.5,0.1-0.9,0.2-1.4s0.1-1,0.1-1.3
		c0-0.4-0.1-0.7-0.4-0.8c-0.3-0.1-0.8-0.1-1.4,0.1c-0.3,0.3-0.6,0.6-0.8,0.9c-0.3,0.4-0.5,0.9-0.6,1.5c-0.1,0.5-0.2,1.1-0.1,1.7
		c0.1,0.6,0.3,1.1,0.6,1.6c0.3,0.5,0.6,0.9,1,1.2c0.4,0.3,0.9,0.6,1.4,0.7c0.5,0.1,1,0.2,1.6,0.1c0.5-0.1,1-0.3,1.5-0.5
		c0.5-0.3,0.8-0.7,1.1-1.1c0.3-0.4,0.5-0.9,0.6-1.5c0.2-0.6,0.2-1.1,0.1-1.7s-0.3-1.1-0.6-1.6c-0.3-0.5-0.6-0.9-1.1-1.2
		c-0.3-0.3-0.7-0.5-1.2-0.7C349.1,489.2,348.8,489.3,348.6,489.6z"/>
	<path d="M284.9,501.7c-0.3-0.5-0.7-0.9-1.2-1.3c-1.2-0.3-2-0.3-2.3-0.1c-0.3,0.2-0.4,0.6-0.3,1.1c0.1,0.6,0.3,1.1,0.6,1.7
		c0.3,0.6,0.5,1.2,0.5,1.7c0,0.5-0.2,0.8-0.7,0.9c-0.5,0.1-0.8-0.2-1-0.6c-0.2-0.5-0.2-1.1-0.2-1.7s0.1-1.3,0-1.8
		c-0.1-0.6-0.3-0.9-0.6-1c-0.3-0.1-1,0.2-1.9,0.8c-0.3,0.5-0.6,1-0.7,1.5c-0.2,0.5-0.2,1.1-0.1,1.7c0.1,0.6,0.3,1.1,0.6,1.6
		c0.3,0.5,0.6,0.9,1.1,1.2c0.4,0.3,0.9,0.6,1.5,0.7c0.6,0.1,1.1,0.1,1.7,0s1.1-0.3,1.6-0.5c0.5-0.3,0.9-0.7,1.2-1.1
		c0.3-0.4,0.5-0.9,0.7-1.5c0.2-0.6,0.2-1.2,0.1-1.7C285.4,502.7,285.2,502.2,284.9,501.7z"/>
	<path d="M272.1,274.6c3.2,0,6-2.7,6-5.9c0.1-3.2-2.6-6-5.8-6.1c-3.3-0.1-6.2,2.7-6.2,6C266.2,271.9,268.9,274.5,272.1,274.6z"/>
</g>
</svg>
