<?xml version="1.0" encoding="utf-8"?>
<!-- Generator: Adobe Illustrator 23.0.6, SVG Export Plug-In . SVG Version: 6.00 Build 0)  -->
<svg version="1.1"
	 id="Layer_1" inkscape:version="0.92.2 (5c3e80d, 2017-08-06)" sodipodi:docname="kanjian.svg" xmlns:cc="http://creativecommons.org/ns#" xmlns:dc="http://purl.org/dc/elements/1.1/" xmlns:inkscape="http://www.inkscape.org/namespaces/inkscape" xmlns:rdf="http://www.w3.org/1999/02/22-rdf-syntax-ns#" xmlns:sodipodi="http://sodipodi.sourceforge.net/DTD/sodipodi-0.dtd" xmlns:svg="http://www.w3.org/2000/svg"
	 xmlns="http://www.w3.org/2000/svg" xmlns:xlink="http://www.w3.org/1999/xlink" x="0px" y="0px" viewBox="0 0 400 400"
	 style="enable-background:new 0 0 400 400;" xml:space="preserve">
<path d="M202,5C125.7,4.1,65.7,62.9,62.1,133.9c-3.9,81,61.7,143.9,136.9,143.3c74.6,1.2,137.9-58.3,139-133.8
	C339.1,67.4,278.2,5.9,202,5z M138,222.9L138,222.9c0,3.7-1.6,7.3-4.5,9.5c-2.5,1.9-5.7,2.9-9.9,2.9c-4.2,0-8.2-1.7-11.3-4.7
	c-23.1-22.2-37.5-53-38.2-87C72.7,74.2,129.1,17.4,198.8,17c13.2-0.1,25.9,1.8,37.8,5.3c5.6,1.7,10.5,5.5,13.2,10.6
	c5.8,10.8-2.5,18.3-12.6,26.8c-4.3,2.5-8.5,5-12.7,7.6c-2.2,1.4-4,5.3-4,8.1c-0.2,13.4-0.2,26.8-0.2,40.1c0,1.4-0.6,2.8-1.6,3.8
	c-1.1,1-2,1.5-2.8,0.6c-0.3-0.4-0.5-0.9-0.5-1.5c0-0.5,0-1,0-1c0.3-12.6,0.2-25.4,0.2-39.3c0-2.5-2.7-4.1-4.8-2.9
	c-8.9,4.8-17,9.3-25.6,14c-2.5,1.4-5.5-0.5-5.5-3.3V51.5c0-2.7-2.8-4.4-5.2-3.2l0,0C164.2,54,154.4,60.4,144,65.5
	c-5.1,2.5-6.5,5.7-6.5,10.9C137.8,125.2,137.8,174.1,138,222.9z M179.7,149.6c-0.2-5.9,1.1-9.9,7.3-12.7c3.7-1.6,7.2-3.4,10.7-5.4
	c1.7-1,3.9-0.9,5.6,0.1c7.9,5,8.5,14.9,4,21.4c-1.1,1.5-3.2,2-4.8,1.1c-5.3-2.9-10.7-5.9-16.3-9.1c-0.7-0.4-1.6,0.1-1.6,0.9
	c-0.3,19.2-1.9,25.1-3.6,29.2c-0.3,0.7-1.3,0.5-1.3-0.3C179.7,166.4,179.8,158,179.7,149.6z M254.5,250.5c-1.7,2.8-4.3,4.9-7.3,6.1
	c-14.6,5.8-30.6,9-47.5,9c-18.3,0-35.5-3.8-51-10.6c-3.3-1.4-5.5-4.8-5.2-8.4c0.4-6.1,5.6-13.9,16-22.4c4-2.3,8-4.5,12.1-6.4
	c0.6-0.3,1.2-0.6,1.8-0.9c1.7-1,3.6-1.7,5.6-1.9c17.3-2.1-9.8,34.9,11.4,36.2c20.5-3.4-9.8-52.3,11.2-48.2c1.8,0.3,3.5,1,5,1.9
	c12.2,7.1,24.4,14.1,36.6,21.1c1.3,0.8,2.6,1.5,3.9,2.2C257.8,237.7,257.8,245.1,254.5,250.5z M275,236.3c-6.1-0.8-11-6-13.1-14.4
	V85c1-13.6,3.9-27.3,20-26.7c8.7,0.3,16.7,4.9,21.6,12c14,20.1,22.2,44.5,22.2,70.9c0.3,35.7-15.3,68.8-40.8,91.8
	C282.3,235.5,278.7,236.8,275,236.3z"/>
<path d="M129.5,121.7c-10.6,6.2-20.5,12.1-31.4,18.5c-0.8,0.5-0.9,1.6-0.1,2.1c1.5,1.1,2.9,2.4,4.1,3.9
	c22.3,28.3-1.5,53.5,16.7,58.7c14.2,0.9-6.9-38.8,6.8-44c1.6-0.6,3.6-0.4,5.3,0.2c0.5,0.2,1.1-0.2,1.1-0.8l0-37.2
	C131.9,121.8,130.6,121,129.5,121.7z"/>
</svg>
