<?xml version="1.0" encoding="utf-8"?>
<!-- Generator: Adobe Illustrator 22.1.0, SVG Export Plug-In . SVG Version: 6.00 Build 0)  -->
<!DOCTYPE svg PUBLIC "-//W3C//DTD SVG 1.1//EN" "http://www.w3.org/Graphics/SVG/1.1/DTD/svg11.dtd">
<svg version="1.1"
	 id="Layer_1" inkscape:version="0.92.2 (5c3e80d, 2017-08-06)" sodipodi:docname="kanjian.svg" xmlns:cc="http://creativecommons.org/ns#" xmlns:dc="http://purl.org/dc/elements/1.1/" xmlns:inkscape="http://www.inkscape.org/namespaces/inkscape" xmlns:rdf="http://www.w3.org/1999/02/22-rdf-syntax-ns#" xmlns:sodipodi="http://sodipodi.sourceforge.net/DTD/sodipodi-0.dtd" xmlns:svg="http://www.w3.org/2000/svg"
	 xmlns="http://www.w3.org/2000/svg" xmlns:xlink="http://www.w3.org/1999/xlink" x="0px" y="0px" viewBox="0 0 400 400"
	 style="enable-background:new 0 0 400 400;" xml:space="preserve">
<sodipodi:namedview  bordercolor="#666666" borderopacity="1" gridtolerance="10" guidetolerance="10" id="namedview13" inkscape:current-layer="Layer_1" inkscape:cx="268.27333" inkscape:cy="259.90771" inkscape:pageopacity="0" inkscape:pageshadow="2" inkscape:window-height="1017" inkscape:window-maximized="1" inkscape:window-width="1920" inkscape:window-x="1358" inkscape:window-y="-8" inkscape:zoom="1.4343434" objecttolerance="10" pagecolor="#ffffff" showgrid="false">
	</sodipodi:namedview>
<g>
	<g>
		<path d="M202.9,5.8C94,4.4,8.3,88.3,3.2,189.7c-5.5,115.5,88.1,205.4,195.4,204.5C305.1,396,395.4,311,397,203.2
			C398.5,94.7,311.6,7.1,202.9,5.8z M111.5,316.8L111.5,316.8c0,5.3-2.3,10.4-6.4,13.5c-3.5,2.7-8.2,4.2-14.2,4.2
			c-6,0-11.7-2.5-16.1-6.6c-33-31.7-53.5-75.7-54.5-124.2c-2-99.2,78.6-180.2,178-180.8c18.9-0.1,37,2.5,54,7.6
			c8,2.4,14.9,7.8,18.9,15.2c8.2,15.4-3.5,26.1-18,38.3C247,87.4,241,91,235,94.7c-3.1,2-5.8,7.5-5.8,11.5
			c-0.3,19.1-0.3,38.2-0.3,57.3c0,2-0.8,4-2.3,5.4c-1.6,1.5-2.9,2.2-4,0.8c-0.5-0.6-0.7-1.3-0.7-2.1c0-0.7,0-1.4,0-1.5
			c0.4-18,0.3-36.2,0.2-56.2c0-3.5-3.8-5.8-6.9-4.1c-12.6,6.8-24.2,13.2-36.6,19.9c-3.6,1.9-7.9-0.6-7.9-4.7V72.1
			c0-3.8-4-6.3-7.5-4.6l-0.1,0c-14.4,8.2-28.3,17.3-43.2,24.6c-7.3,3.5-9.3,8.2-9.3,15.5C111.2,177.3,111.2,247,111.5,316.8z
			 M171,212.1c-0.2-8.4,1.5-14.2,10.4-18.2c5.3-2.3,10.3-4.9,15.3-7.7c2.5-1.4,5.6-1.4,8,0.2c11.2,7.2,12.2,21.2,5.8,30.6
			c-1.5,2.2-4.5,2.8-6.8,1.5c-7.6-4.2-15.2-8.4-23.3-12.9c-1-0.6-2.3,0.2-2.3,1.3c-0.4,27.4-2.6,35.8-5.2,41.6
			c-0.4,1-1.8,0.6-1.8-0.4C171.1,236.1,171.1,224,171,212.1z M277.8,356.1c-2.4,4-6.2,6.9-10.5,8.6c-20.8,8.3-43.6,12.9-67.8,12.9
			c-26.1-0.1-50.7-5.5-72.7-15.1c-4.7-2.1-7.8-6.9-7.5-12c0.6-8.8,8-19.8,22.8-31.9c5.7-3.3,11.4-6.4,17.3-9.1
			c0.9-0.4,1.8-0.9,2.5-1.3c2.5-1.4,5.2-2.4,8-2.8c24.7-2.9-14,49.8,16.3,51.7c29.2-4.9-14-74.6,16-68.8c2.5,0.5,5,1.5,7.2,2.8
			c17.4,10.1,34.8,20.2,52.2,30.1c1.9,1.1,3.7,2.1,5.6,3.2C282.5,337.9,282.4,348.5,277.8,356.1z M307.1,335.9
			c-8.7-1.1-15.7-8.6-18.8-20.6V120c1.5-19.4,5.5-39,28.6-38.1c12.4,0.5,23.8,7,30.9,17.2c20,28.6,31.7,63.5,31.7,101.1
			c0.5,51-21.8,98.2-58.2,131.1C317.4,334.7,312.3,336.5,307.1,335.9z"/>
	</g>
	<path d="M99.4,172.3c-15.1,8.9-29.2,17.2-44.9,26.3c-1.1,0.7-1.2,2.3-0.2,3c2.2,1.5,4.2,3.4,5.9,5.5c31.8,40.5-2.1,76.3,23.8,83.7
		c20.2,1.3-9.9-55.4,9.8-62.9c2.3-0.9,5.1-0.6,7.5,0.3c0.8,0.3,1.6-0.3,1.6-1.1l0-53C102.8,172.5,100.9,171.4,99.4,172.3z"/>
</g>
</svg>
