<?xml version="1.0" encoding="utf-8"?>
<!-- Generator: Adobe Illustrator 22.1.0, SVG Export Plug-In . SVG Version: 6.00 Build 0)  -->
<svg version="1.1"
	 id="Layer_1" inkscape:version="0.92.1 r15371" sodipodi:docname="music-record.svg" xmlns:cc="http://creativecommons.org/ns#" xmlns:dc="http://purl.org/dc/elements/1.1/" xmlns:inkscape="http://www.inkscape.org/namespaces/inkscape" xmlns:rdf="http://www.w3.org/1999/02/22-rdf-syntax-ns#" xmlns:sodipodi="http://sodipodi.sourceforge.net/DTD/sodipodi-0.dtd" xmlns:svg="http://www.w3.org/2000/svg"
	 xmlns="http://www.w3.org/2000/svg" xmlns:xlink="http://www.w3.org/1999/xlink" x="0px" y="0px" viewBox="0 0 412 412"
	 style="enable-background:new 0 0 412 412;" xml:space="preserve">
<sodipodi:namedview  bordercolor="#666666" borderopacity="1" gridtolerance="10" guidetolerance="10" id="namedview9" inkscape:current-layer="Layer_1" inkscape:cx="340.76982" inkscape:cy="245.34256" inkscape:pageopacity="0" inkscape:pageshadow="2" inkscape:window-height="1017" inkscape:window-maximized="1" inkscape:window-width="1920" inkscape:window-x="1358" inkscape:window-y="-8" inkscape:zoom="1.1456311" objecttolerance="10" pagecolor="#ffffff" showgrid="false">
	</sodipodi:namedview>
<path d="M386.4,278.2c8.9-22.5,13.9-47,13.8-72.7C399.9,98.7,313.3,12,206.6,11.9C99,11.7,11.6,99.2,11.8,206.8
	c0.2,107.5,87.9,194,196,193.3c63-0.4,118.7-30.7,153.7-77.5c13.3-10.1-17.6,84.9,10.1,82.3C399.3,410.1,371.1,347.2,386.4,278.2z
	 M273.5,206.1c0,2.6-0.1,5.2-0.4,7.7c-0.7,6.1-4.4,11.5-10,14.1c-19.7,9.2-32-1.7-38.3-16.5c-1.1-2.6-1.9-5.3-2.3-8.1
	c-1-7-7.3-13.4-16.7-13.3c-1.6,0-3.1,0.3-4.5,0.6c-3.3,0.9-6.9,0.8-9.9-0.8c-10.8-5.5-23-19.4-26.1-31.2c-0.8-3.2,0.5-6.6,3.3-8.4
	c10.5-7,23.2-11.1,37-11.2C243.4,138.8,273.4,168.5,273.5,206.1z M98.6,329.1c-5-6.4-8.3-10.6-13.3-17.1
	c18.2-15.7,34.3-29.8,51.6-44.9c3.1,4.3,6.3,7.4,6.3,7.4C129.8,291.3,114.8,309.4,98.6,329.1z M139.1,207.2c0-3.2,0.1-6.3,0.5-9.4
	c0.6-5.4,3.8-10.3,8.4-13.1c19.1-11.6,31.9,1,41.3,20.4c0.5,1,0.7,2,0.9,3.1c0,0,0,0,0,0c0.3,2.3,0.9,4.3,1.7,6
	c0.9,1.9,1.5,3.9,1.4,6c-0.5,16.4-7.3,27.5-21.3,35.9c-4,2.4-9.1,1.8-12.5-1.5C147.1,242.8,139.3,226,139.1,207.2z M205.7,273.4
	L205.7,273.4c-3.2,0-6.2-1.6-7.8-4.3c-9.8-16.1-3.2-32.7,6.8-45.3c0.7-0.9,1.8-1.4,3-1.5c0,0,0,0,0,0c0.5,0,0.9-0.1,1.4-0.2
	c21.2,4.1,31.5,19.4,31.2,35.3c-0.1,4.6-3,8.7-7.2,10.5C224.8,271.5,215.5,273.5,205.7,273.4z M273.4,147l-8.1-8.5
	c0,0,33-37.1,47.9-54.1c5.8,6,9.2,9.4,14.4,14.9C309.9,114.9,273.4,147,273.4,147z"/>
</svg>
