<?xml version="1.0" encoding="utf-8"?>
<!-- Generator: Adobe Illustrator 23.0.6, SVG Export Plug-In . SVG Version: 6.00 Build 0)  -->
<svg version="1.1"
	 id="Layer_1" inkscape:version="0.92.1 r15371" sodipodi:docname="music-record.svg" xmlns:cc="http://creativecommons.org/ns#" xmlns:dc="http://purl.org/dc/elements/1.1/" xmlns:inkscape="http://www.inkscape.org/namespaces/inkscape" xmlns:rdf="http://www.w3.org/1999/02/22-rdf-syntax-ns#" xmlns:sodipodi="http://sodipodi.sourceforge.net/DTD/sodipodi-0.dtd" xmlns:svg="http://www.w3.org/2000/svg"
	 xmlns="http://www.w3.org/2000/svg" xmlns:xlink="http://www.w3.org/1999/xlink" x="0px" y="0px" viewBox="0 0 400 400"
	 style="enable-background:new 0 0 400 400;" xml:space="preserve">
<path d="M324.4,191.2c6.2-15.7,9.7-32.9,9.6-50.8C333.9,65.7,273.3,5.1,198.7,5C123.5,4.9,62.4,66,62.5,141.3
	c0.1,75.2,61.5,135.6,137,135.2c44.1-0.3,83-21.5,107.5-54.2c9.3-7.1-12.3,59.4,7.1,57.5C333.4,283.4,313.7,239.4,324.4,191.2z
	 M245.5,140.8c0,1.8-0.1,3.6-0.3,5.4c-0.5,4.3-3.1,8-7,9.9c-13.8,6.4-22.4-1.2-26.8-11.5c-0.8-1.8-1.3-3.7-1.6-5.7
	c-0.7-4.9-5.1-9.4-11.7-9.3c-1.1,0-2.2,0.2-3.1,0.4c-2.3,0.6-4.8,0.6-6.9-0.6c-7.6-3.8-16.1-13.6-18.2-21.8
	c-0.6-2.2,0.3-4.6,2.3-5.9c7.3-4.9,16.2-7.8,25.9-7.8C224.4,93.7,245.4,114.5,245.5,140.8z M123.2,226.8c-3.5-4.5-5.8-7.4-9.3-12
	c12.7-11,24-20.8,36.1-31.4c2.2,3,4.4,5.2,4.4,5.2C145,200.4,134.5,213,123.2,226.8z M151.5,141.6c0-2.2,0.1-4.4,0.3-6.6
	c0.4-3.8,2.7-7.2,5.9-9.2c13.4-8.1,22.3,0.7,28.9,14.3c0.3,0.7,0.5,1.4,0.6,2.2l0,0c0.2,1.6,0.6,3,1.2,4.2c0.6,1.3,1,2.7,1,4.2
	c-0.3,11.5-5.1,19.2-14.9,25.1c-2.8,1.7-6.4,1.3-8.7-1C157.1,166.4,151.6,154.7,151.5,141.6z M198.1,187.8L198.1,187.8
	c-2.2,0-4.3-1.1-5.5-3c-6.9-11.3-2.2-22.9,4.8-31.7c0.5-0.6,1.3-1,2.1-1l0,0c0.3,0,0.6-0.1,1-0.1c14.8,2.9,22,13.6,21.8,24.7
	c-0.1,3.2-2.1,6.1-5,7.3C211.4,186.5,204.9,187.9,198.1,187.8z M245.4,99.5l-5.7-5.9c0,0,23.1-25.9,33.5-37.8
	c4.1,4.2,6.4,6.6,10.1,10.4C270.9,77,245.4,99.5,245.4,99.5z"/>
</svg>
