<?xml version="1.0" encoding="utf-8"?>
<!-- Generator: Adobe Illustrator 23.0.6, SVG Export Plug-In . SVG Version: 6.00 Build 0)  -->
<svg version="1.1" id="Layer_1" xmlns="http://www.w3.org/2000/svg" xmlns:xlink="http://www.w3.org/1999/xlink" x="0px" y="0px"
	 viewBox="0 0 400 400" style="enable-background:new 0 0 400 400;" xml:space="preserve">
<path d="M203.5,254.1c-6.5-3.3-6.5-3.3-2.2-8.6c5.3-6.6,14.5-18.8,15.5-20.1c0.9-1.3,0.2-2.3-0.3-2.8c-2.2-2.1-4.8-3.8-6.9-5.9
	c-10.1-10.4-20.2-20.8-30.1-31.3c-3-3.2-5.6-6.7-8.5-10c-0.6-0.7-1.8-2-2.8-1.4c-1,0.6-1,2.4-0.9,3.6c0.2,2.2,0.8,4.4,1.1,6.6
	c0.6,4.9-2.9,10.9-7.7,12.4c-2.7,0.8-5.6,1.2-8.4,1.1c-4.3-0.2-7.6-2.3-9.3-6.5c-1.6-4-3.7-7.8-2.9-12.3c0.7-3.7,2.3-7.4,2.3-11.1
	c0-4.5-0.7-9.3-2.3-13.6c-2.2-5.9-5.5-11.5-8.4-17.1c-0.6-1.1-1.3-2.1-2-3c-3-3.7-6.1-7.3-9-11c-1.2-1.6-2.3-1.7-3.8-0.6
	c-4.7,3.6-9.4,7.2-14.1,10.7c-3.2,2.4-6.4,4.7-9.8,6.8c-2,1.2-2.7-0.7-3.2-2c-1.4-3.9-2-6.9-3.9-11.9c-1.9-5-1.2-2.3-3.3-9.5
	c-2.1-7.2-3.3-14.8-4.9-22.2c-1.9-8.5-3-16.7-4.4-25.7c-1.4-8.9-1.4-9.5-2.2-14.2c-1.3-7.8-2.4-15.6-3.6-23.4
	c-0.3-2.1-0.3-1.2-0.5-6.3c-0.2-5,0-12.5,0.4-15.4c0.4-2.9,1.4-4.2,4-4.2c2.6-0.1,2.3-0.4,7.9,0.2c5.7,0.6,37.6,5.6,42.2,6
	c4.7,0.5,8.1,0.7,12.1,1.6c10.4,2.3,20.7,5,31,7.5l16.7,4.5c2.3,1,4.6,2,6.9,2.9c3.8,1.4,7.7,2.7,11.5,4.2c2,0.8,2.5,2.1,1.1,4
	c-4.9,6.2-9.6,12.5-14.5,18.8c-1,1.3-2.1,2.5-3.2,3.7c-1.3,1.4-1.2,2.7,0.3,3.9c2.6,2.1,5.4,3.9,7.7,6.3
	c9.9,10.1,20.4,19.8,29.2,30.9c10,12.6,22.5,22.4,33.4,33.9c6.5,6.8,13.2,13.4,19.6,20.3c2.2,2.4,3.9,5.3,5.9,8c1,1.4,2,1.4,3.5,0.3
	c7.3-5.3,14.7-10.4,22.1-15.6c3.7-2.6,4.5-2.4,5.9,1.9c1.4,4.2,2.6,9.3,4.1,12.6c1.5,3.3,1.5,3.6,2.5,6.6c1,2.9,3.3,13.1,5.2,19.7
	c1.8,6.3,3.6,12.6,7.7,18c2.8,3.7,5.4,7.6,8.1,11.4c2.6,3.6,2.3,7.9,1.9,11.8c-0.4,3.7-4.3,4.7-7.4,5.3c-2.6,0.5-3,1.3-2.6,3.7
	c0.9,7.2,1.9,14.3,2.2,21.5c0.3,6.2-0.1,17.3-0.4,18.6s-1.7,1.9-2.8,2.1c-2.5,0.3-5.1,0.1-7.7,0.2c-7.3,0.2-11.4,7-8.2,13.5
	c2.5,5,2.2,10,0.1,14.8c-0.7,1.5-2.7,3.2-4.2,3.3c-2.9,0.2-6-0.4-8.8-1.1c-2-0.5-3.7-1.8-5.6-2.7c-2.8-1.3-4.1-5-3.2-9
	c0.3-1.2,0.7-2.4,1-3.6c2.2-9.1-2.1-17.1-10.8-20.5c-4.8-1.9-9.7-2.4-14.7-2.9c-5.7-0.5-11.4-2-17-3.3c-10-2.3-24.2-5.6-29.9-7.2
	C214.5,259.5,210,257.4,203.5,254.1z"/>
</svg>
