<?xml version="1.0" encoding="utf-8"?>
<!-- Generator: Adobe Illustrator 21.1.0, SVG Export Plug-In . SVG Version: 6.00 Build 0)  -->
<!DOCTYPE svg PUBLIC "-//W3C//DTD SVG 1.1//EN" "http://www.w3.org/Graphics/SVG/1.1/DTD/svg11.dtd">
<svg version="1.1" id="Layer_1" xmlns="http://www.w3.org/2000/svg" xmlns:xlink="http://www.w3.org/1999/xlink" x="0px" y="0px"
	 viewBox="0 0 400 400" enable-background="new 0 0 400 400" xml:space="preserve">
<g>
	<path d="M199.6,320.3c-8.1-4.1-8.1-4.1-2.8-10.7c6.7-8.2,18.2-23.5,19.4-25.2c1.2-1.7,0.3-2.9-0.4-3.5c-2.7-2.6-6-4.7-8.6-7.4
		c-12.7-13-25.3-26.1-37.7-39.2c-3.8-4-7-8.4-10.6-12.5c-0.8-0.9-2.2-2.4-3.5-1.7c-1.3,0.7-1.2,3.1-1.1,4.5c0.2,2.8,1,5.5,1.4,8.3
		c0.7,6.2-3.7,13.7-9.6,15.5c-3.3,1-7,1.5-10.5,1.4c-5.4-0.2-9.5-2.9-11.6-8.2c-2-5-4.7-9.8-3.7-15.4c0.8-4.7,2.9-9.3,2.9-13.9
		c0-5.7-0.9-11.7-2.9-17c-2.8-7.4-6.9-14.4-10.5-21.5c-0.7-1.4-1.6-2.6-2.6-3.8c-3.7-4.6-7.6-9.1-11.3-13.8c-1.5-2-2.9-2.1-4.8-0.7
		c-5.9,4.5-11.8,9-17.7,13.4c-4,3-8.1,5.9-12.3,8.6c-2.5,1.6-3.4-0.8-4-2.6c-1.7-4.9-2.5-8.7-4.9-14.9c-2.4-6.2-1.5-2.8-4.1-11.9
		s-4.2-18.6-6.2-27.8c-2.3-10.7-3.7-21-5.5-32.2S34.5,75.8,33.5,70c-1.6-9.7-3-19.5-4.5-29.3c-0.4-2.6-0.3-1.6-0.6-7.8
		s0-15.6,0.5-19.3s1.8-5.2,5-5.3c3.3-0.1,2.8-0.5,9.9,0.3s47.1,7,52.9,7.6c5.8,0.6,10.2,0.9,15.2,2c13,2.9,25.9,6.3,38.9,9.3
		l20.9,5.6c2.9,1.3,5.8,2.5,8.7,3.6c4.8,1.8,9.7,3.4,14.4,5.3c2.5,1,3.2,2.7,1.3,5c-6.1,7.8-12.1,15.7-18.2,23.5
		c-1.2,1.6-2.6,3.1-4,4.6c-1.6,1.8-1.5,3.4,0.4,4.9c3.2,2.6,6.8,4.9,9.7,7.9c12.4,12.7,25.6,24.8,36.6,38.7
		c12.5,15.8,28.2,28.1,41.9,42.6c8.1,8.6,16.5,16.9,24.5,25.5c2.8,3,4.9,6.7,7.3,10c1.3,1.7,2.4,1.8,4.4,0.4
		c9.1-6.7,18.5-13.1,27.8-19.6c4.7-3.3,5.7-3.1,7.4,2.3c1.7,5.2,3.2,11.6,5.1,15.8c1.9,4.2,1.8,4.6,3.1,8.2
		c1.3,3.7,4.1,16.4,6.6,24.6c2.3,7.9,4.5,15.8,9.7,22.6c3.6,4.6,6.8,9.5,10.2,14.2c3.3,4.5,2.9,9.9,2.3,14.8
		c-0.5,4.6-5.3,5.9-9.3,6.7c-3.2,0.6-3.7,1.7-3.3,4.6c1.2,9,2.3,18,2.8,27c0.4,7.7-0.2,21.7-0.5,23.3s-2.2,2.4-3.4,2.6
		c-3.2,0.4-6.4,0.1-9.7,0.2c-9.1,0.3-14.3,8.8-10.2,16.9c3.1,6.2,2.8,12.5,0.1,18.6c-0.8,1.9-3.4,4-5.3,4.1
		c-3.7,0.3-7.5-0.5-11.1-1.4c-2.5-0.6-4.7-2.3-7.1-3.4c-3.5-1.6-5.2-6.2-4.1-11.3c0.3-1.5,0.9-3,1.3-4.5
		c2.8-11.4-2.6-21.5-13.5-25.7c-6-2.4-12.1-3-18.5-3.6c-7.2-0.6-14.2-2.5-21.3-4.1c-12.5-2.9-30.4-7-37.5-9S207.7,324.4,199.6,320.3
		z"/>
</g>
</svg>
