<?xml version="1.0" encoding="UTF-8" standalone="no"?>
<svg
   xmlns:dc="http://purl.org/dc/elements/1.1/"
   xmlns:cc="http://creativecommons.org/ns#"
   xmlns:rdf="http://www.w3.org/1999/02/22-rdf-syntax-ns#"
   xmlns:svg="http://www.w3.org/2000/svg"
   xmlns="http://www.w3.org/2000/svg"
   viewBox="0 0 533.33331 533.33331"
   height="533.33331"
   width="533.33331"
   xml:space="preserve"
   id="svg2"
   version="1.1"><metadata
     id="metadata8"><rdf:RDF><cc:Work
         rdf:about=""><dc:format>image/svg+xml</dc:format><dc:type
           rdf:resource="http://purl.org/dc/dcmitype/StillImage" /></cc:Work></rdf:RDF></metadata><defs
     id="defs6"><clipPath
       id="clipPath18"
       clipPathUnits="userSpaceOnUse"><path
         id="path16"
         d="M 0,400 H 400 V 0 H 0 Z" /></clipPath></defs><g
     transform="matrix(1.3333333,0,0,-1.3333333,0,533.33333)"
     id="g10"><g
       id="g12"><g
         clip-path="url(#clipPath18)"
         id="g14"><g
           transform="translate(213.0791,88.5947)"
           id="g20"><path
             id="path22"
             style="fill:#000000;fill-opacity:1;fill-rule:nonzero;stroke:none"
             d="m 0,0 c 0,5.154 -0.092,10.311 0.038,15.462 0.065,2.544 -0.811,3.525 -3.423,3.472 -6.473,-0.131 -12.954,-0.153 -19.426,0.009 -2.799,0.072 -3.64,-0.918 -3.594,-3.66 0.144,-8.588 0.331,-17.191 -0.017,-25.768 -0.409,-10.054 7.141,-14.197 14.783,-12.866 3.052,0.533 6.125,1.714 8.808,3.26 1.376,0.792 2.595,2.992 2.705,4.636 C 0.218,-10.324 0,-5.155 0,0 m -41.063,190.993 h 0.041 c 0,-8.338 0.2,-16.682 -0.089,-25.01 -0.133,-3.816 1.248,-4.675 4.764,-4.591 9.391,0.225 18.805,-0.196 28.181,0.243 6.974,0.326 14.013,1.085 20.827,2.552 14.425,3.107 22.985,13.667 22.958,27.369 -0.027,13.881 -7.451,22.911 -21.643,26.324 -8.876,2.136 -11.628,0.991 -14.184,-7.884 -1.388,-4.821 -1.044,-10.145 -1.448,-15.245 -0.362,-4.568 0.024,-9.338 -1.191,-13.661 -1.555,-5.535 -7.061,-8.277 -12.523,-7.469 -4.917,0.728 -9.011,4.875 -9.472,10.333 -0.298,3.518 0.26,7.105 0.368,10.663 0.148,4.856 0.914,9.82 0.187,14.548 -1.151,7.479 -5.988,10.828 -13.115,10.865 -3.131,0.016 -3.756,-1.243 -3.71,-4.026 0.137,-8.335 0.049,-16.674 0.049,-25.011 m 0.302,-67.26 c -0.692,-2.641 -0.134,-34.831 -0.104,-53.1 0.004,-1.981 0.164,-3.972 0.408,-5.939 0.707,-5.703 1.711,-7.206 7.41,-7.177 14.407,0.07 28.896,-0.139 43.193,1.311 15.583,1.579 26.333,12.357 29.513,27.065 3.454,15.969 -3.961,30.595 -18.084,36.122 -2.342,0.917 -3.724,0.447 -4.336,-1.621 -1.228,-4.156 -2.106,-8.415 -3.168,-12.622 C 12.979,103.448 12.369,98.899 10.575,94.884 8.781,90.87 4.928,88.935 0.346,89.659 c -4.397,0.695 -7.339,3.543 -8,7.776 -0.645,4.119 -0.321,8.396 -0.325,12.604 -0.004,3.036 0.493,6.111 0.157,9.1 -0.65,5.778 -2.398,7.107 -8.206,7.108 -6.887,0.002 -13.774,0.011 -20.661,-0.011 -1.286,-0.004 -3.381,0.139 -4.072,-2.503 m -86.188,104.125 c -1.895,2.37 -1.354,27.457 -0.5,29.25 0.855,1.793 2.609,1.582 4.154,1.582 17.352,10e-4 34.703,-0.004 52.054,0.007 4.703,0.003 4.714,0.025 4.718,4.872 0.006,11.238 0.002,24.856 0.002,34.01 0,9.154 40.167,9.095 40.167,0 v -11.177 c 0,-8.079 0.074,-16.16 -0.041,-24.238 -0.035,-2.518 0.704,-3.57 3.367,-3.513 6.487,0.138 12.982,0.15 19.468,-0.005 2.818,-0.067 3.656,1.004 3.626,3.711 -0.109,10.198 -0.049,13.51 -0.047,23.709 0,1.436 0.007,4.001 0.007,11.501 0,7.5 40.342,8.502 40.342,0 0,-8.503 0,-36.717 2.683,-40.084 2.682,-3.366 12.512,-5.822 19.368,-9.088 33.891,-16.145 42.092,-58.036 15.855,-85.356 -6.749,-7.028 -14.939,-11.735 -23.842,-15.38 -1.423,-0.583 -3.747,-0.752 -3.464,-2.176 0.283,-1.423 10.093,-3.679 15.392,-5.677 C 105.338,125.111 114.033,76.101 86.38,46.163 75.205,34.064 61.252,26.956 45.336,23.557 41.748,22.79 40.358,21.534 40.462,17.615 40.768,6.1 40.489,-5.43 40.626,-16.951 c 0.034,-2.931 -0.839,-3.993 -3.838,-3.872 -5.157,0.207 -10.344,0.281 -15.487,-0.053 -2.2,-0.143 -4.737,-0.942 -6.417,-2.309 -10.651,-8.656 -16.312,-19.952 -16.855,-33.71 -0.167,-4.232 0.076,-8.488 -0.25,-12.703 -0.19,-2.455 -0.76,-5.032 -1.822,-7.235 -2.357,-4.897 -7.957,-6.407 -11.936,-2.752 -2.553,2.347 -4.594,5.882 -5.483,9.249 -1.093,4.138 -0.929,8.653 -0.988,13.01 -0.187,13.731 -5.539,25.19 -15.187,34.708 -1.136,1.121 -3.232,1.73 -4.901,1.769 -7.786,0.183 -18.918,-0.203 -21.418,0.672 -2.5,0.875 -2.552,2.568 -2.555,3.969 -0.019,10.331 -0.107,20.664 0.046,30.993 0.044,2.988 -0.628,4.238 -3.92,4.185 -7.177,-0.118 -7.498,-0.146 -9.515,-7.116 -0.773,-2.668 -1.21,-5.439 -2.057,-8.081 -1.496,-4.664 -4.031,-6.075 -8.742,-5.152 -5.813,1.139 -7.202,0.208 -7.548,-5.713 -0.238,-4.088 0.134,-8.21 -0.059,-12.304 -0.136,-2.881 -0.423,-5.842 -1.25,-8.585 -1.38,-4.579 -5.091,-7.203 -9.384,-7.27 -4.374,-0.068 -8.849,2.628 -9.957,7.1 -0.861,3.474 -0.749,7.306 -0.433,10.923 0.356,4.065 1.766,8.037 2.12,12.1 0.848,9.715 -2.148,17.969 -10.113,24.082 -0.533,0.409 -1.032,1.257 -1.036,1.903 -0.065,10.178 -0.92,26.331 0.535,29.001 1.456,2.671 2.549,2.126 3.955,2.189 4.628,0.205 9.284,0.156 13.878,0.667 5.357,0.595 8.622,3.983 9.182,9.354 0.44,4.206 0.586,8.459 0.59,12.691 0.041,42.517 0.038,85.035 0.006,127.552 -0.003,4.102 -0.129,8.218 -0.481,12.303 -0.494,5.72 -3.354,9.009 -9.006,10.009 -3.621,0.641 -7.36,0.661 -11.051,0.844 -2.351,0.116 -4.302,0.022 -6.198,2.391" /></g></g></g></g></svg>