<?xml version="1.0" encoding="utf-8"?>
<!-- Generator: Adobe Illustrator 23.0.1, SVG Export Plug-In . SVG Version: 6.00 Build 0)  -->
<svg version="1.1"
	 id="svg8" xmlns:cc="http://creativecommons.org/ns#" xmlns:dc="http://purl.org/dc/elements/1.1/" xmlns:inkscape="http://www.inkscape.org/namespaces/inkscape" xmlns:rdf="http://www.w3.org/1999/02/22-rdf-syntax-ns#" xmlns:sodipodi="http://sodipodi.sourceforge.net/DTD/sodipodi-0.dtd" xmlns:svg="http://www.w3.org/2000/svg"
	 xmlns="http://www.w3.org/2000/svg" xmlns:xlink="http://www.w3.org/1999/xlink" x="0px" y="0px" viewBox="0 0 400 400"
	 style="enable-background:new 0 0 400 400;" xml:space="preserve">
<sodipodi:namedview  bordercolor="#666666" borderopacity="1" fit-margin-bottom="20" fit-margin-left="0" fit-margin-right="0" fit-margin-top="0" gridtolerance="10" guidetolerance="10" id="namedview10" inkscape:current-layer="svg8" inkscape:cx="30.435279" inkscape:cy="93.305765" inkscape:pageopacity="0" inkscape:pageshadow="2" inkscape:window-height="705" inkscape:window-maximized="1" inkscape:window-width="1366" inkscape:window-x="-8" inkscape:window-y="245" inkscape:zoom="2.8284271" objecttolerance="10" pagecolor="#ffffff" showgrid="false">
	</sodipodi:namedview>
<g id="Layer_1">
</g>
<g>
	<path d="M271.7,100.3c-9.5,0.1-18.9,1.4-26,3.1c-5.3,1.3-9.7,2.7-13.1,3.8c-13.5,2.2-19.6-8.7-28.2-20.7c-1.5-2.4-3.3-4.8-5.3-7
		c-7.6-8.2-19.5-12-35.9-12c-6.3,0-12,0-17,0c-5.7,0-10.1,0.6-13.9,0.6c-0.4,0-0.9,0-1.3,0c-0.3,0-0.6,0.2-0.6,0.6v127.4
		c0,1.4,1.1,2.5,2.5,2.5l16.4,0c1.4,0,2.5-1.1,2.5-2.5v-39.9c0-2.3,1.9-4.2,4.2-4.2h0.2c1.3,0,3.2,0,5,0c13.9,0,25.2-3.2,34.7-10.1
		c4.8-3.2,8.5-7.8,10.9-13.4c7.6-15.2,16.2-14.2,19.9,2.6c0.9,4,1.3,8.2,1.3,12.3v52.6c0,1.1,0.9,2.1,2.1,2.1h18.1
		c1.1,0,2-0.8,2.1-1.9c2.3-31.7,1.2-58.3,21.8-75.8c0.8-0.7,1.3-1.7,1.3-2.8V102C273.4,101.1,272.7,100.3,271.7,100.3z M153.5,131.2
		c-1,0.7-2.2,0-2.3-1.2l-0.1-42.4c0-1,0.8-1.8,1.8-1.8h3.2l5.8,0c1.4,0,2.8,0.3,4,1C176.8,93.3,164.7,123.4,153.5,131.2z
		 M180.8,127.4c-0.8,0.5-1.6,0.9-2.5,1.3c-2,0.9-4.4,0.1-5.2-2c-3.4-8.7,2.6-34,11.4-30.6c1.3,0.5,2.3,1.7,2.9,3
		c1.1,2.7,1.6,5.9,1.6,9.4C189,117.9,186.4,124.2,180.8,127.4z M250.7,140c-0.4-0.9-0.6-1.8-0.6-2.7v-14c0-0.9,0.6-1.8,1.5-2
		c1-0.2,2.3-0.5,3.8-0.7c1-0.2,1.9,0.4,2.3,1.3C259.9,127.7,253.8,146.7,250.7,140z"/>
	<path d="M332.8,4.5H67.2c-5.5,0-10,4.5-10,10V274c0,4.6,3.2,8.6,7.7,9.7c54,13.4-2.5,106.2,34,111.6c1.1,0.2,2.1,0.2,3.2,0.1
		c25.1-3.3-17.5-82.2,15.8-107.2c5.1-3.8,11.5-5.7,17.9-5.7h197.1c5.5,0,10-4.5,10-10v-258C342.8,8.9,338.3,4.5,332.8,4.5z
		 M330.8,261.1c0,5.5-4.5,10-10,10H79.2c-5.5,0-10-4.5-10-10V26.4c0-5.5,4.5-10,10-10h241.6c5.5,0,10,4.5,10,10V261.1z"/>
</g>
</svg>
