<?xml version="1.0" encoding="utf-8"?>
<!-- Generator: Adobe Illustrator 23.0.6, SVG Export Plug-In . SVG Version: 6.00 Build 0)  -->
<svg version="1.1" id="Layer_1" xmlns="http://www.w3.org/2000/svg" xmlns:xlink="http://www.w3.org/1999/xlink" x="0px" y="0px"
	 viewBox="0 0 400 400" style="enable-background:new 0 0 400 400;" xml:space="preserve">
<path d="M152.7,156.1c-0.5,1.2-0.3,4.3,0.1,7c0.7,5.7,2.5,11,3.7,16.4c1.5,6.5,3.3,13,3.6,19.6c0.5,9.9-5.4,16.8-14.1,18
	c-9.5,1.3-19.1-4.6-21.8-13.3c-1.7-5.7,0.7-10.5,2.9-15.5c3-6.8,7-13.5,8.1-20.6c2.1-12.9-0.9-25.6-8.6-36.2
	C90.9,82,120.8,13.1,181.4,5.6c15.5-1.9,30,1.3,44.1,7.2c1.8,0.8,4.2,1,6.1,0.5c17.2-3.7,33.3-2.4,46.9,10
	c8.2,7.5,12.1,16.7,9.2,27.9c-2.6,9.9-2.9,19.7-0.1,29.6c2.5,8.7-0.3,16.7-4,24.4c-3.6,7.5-4.5,15.1-2.5,23.1
	c1,3.8,2.2,7.8,2.2,11.7c0,4.3,0,9.4-2.1,12.8c-4.6,7.4-3,14.3-0.6,21.4c1.7,5.1,4.2,10,5.6,15.2c1.9,6.5-0.9,12.3-6.3,14.9
	c-6.6,3.2-13.8,0.5-17.2-6.3c-3-5.9-2.5-12-1.6-18.2c0.2-1.1,0.6-2.2,0.7-3.3c0.3-3.8,1.9-8.4,0.3-11.1c-1.3-2.2-6.3-3-9.8-3.9
	c-5.9-1.5-15.1-3.6-16.1-1.5c-1.1,2.1,8.1,13,12,21c4.5,9.2,6.8,19.2,6.5,29.5c-0.4,13.9-7.5,22.5-21,25.8c-6.9,1.7-7.1,1.7-7.7,8.8
	c-0.5,6.7-0.9,13.4,0,20.1c0.6,4.4,1.7,8.8,3.9,13.3c2.2,4.5-9-2.8-11.6-5.6c-8.7-9.3-12.6-19.7-15.7-31.9c-0.9-3.6-2.5-5.9-6.2-7.5
	c-9.3-4.1-14.6-11.5-15.6-21.7c-0.6-6.5-0.5-13-1.2-19.5c-1.9-16.5-8.9-29.7-24.8-36.8C154.5,155.2,153.3,155,152.7,156.1z"/>
</svg>
