<?xml version="1.0" encoding="UTF-8" standalone="no"?>
<svg
   xmlns:dc="http://purl.org/dc/elements/1.1/"
   xmlns:cc="http://creativecommons.org/ns#"
   xmlns:rdf="http://www.w3.org/1999/02/22-rdf-syntax-ns#"
   xmlns:svg="http://www.w3.org/2000/svg"
   xmlns="http://www.w3.org/2000/svg"
   viewBox="0 0 533.33331 533.33331"
   height="533.33331"
   width="533.33331"
   xml:space="preserve"
   id="svg2"
   version="1.1"><metadata
     id="metadata8"><rdf:RDF><cc:Work
         rdf:about=""><dc:format>image/svg+xml</dc:format><dc:type
           rdf:resource="http://purl.org/dc/dcmitype/StillImage" /></cc:Work></rdf:RDF></metadata><defs
     id="defs6"><clipPath
       id="clipPath18"
       clipPathUnits="userSpaceOnUse"><path
         id="path16"
         d="M 0,400 H 400 V 0 H 0 Z" /></clipPath></defs><g
     transform="matrix(1.3333333,0,0,-1.3333333,0,533.33333)"
     id="g10"><g
       id="g12"><g
         clip-path="url(#clipPath18)"
         id="g14"><g
           transform="translate(133.6743,180.8809)"
           id="g20"><path
             id="path22"
             style="fill:#000000;fill-opacity:1;fill-rule:nonzero;stroke:none"
             d="m 0,0 c -0.771,-1.641 -0.371,-6.076 0.103,-9.892 0.993,-7.992 3.463,-15.469 5.179,-23.078 2.05,-9.088 4.566,-18.25 5.036,-27.472 0.708,-13.885 -7.65,-23.609 -19.79,-25.276 -13.291,-1.825 -26.873,6.424 -30.556,18.626 -2.393,7.931 0.947,14.747 4.041,21.756 4.201,9.513 9.779,18.946 11.39,28.957 2.913,18.107 -1.291,35.87 -12.049,50.82 -50.11,69.641 -8.211,166.286 76.873,176.893 21.737,2.709 42.061,-1.822 61.943,-10.073 2.558,-1.062 5.896,-1.337 8.612,-0.756 24.118,5.161 46.762,3.301 65.86,-14.101 11.487,-10.467 17.018,-23.499 12.854,-39.163 -3.702,-13.923 -4.085,-27.634 -0.085,-41.554 3.498,-12.175 -0.423,-23.438 -5.635,-34.2 -5.094,-10.518 -6.374,-21.177 -3.498,-32.492 1.371,-5.392 3.033,-10.918 3.058,-16.391 0.028,-6.076 0.029,-13.203 -2.95,-18.024 -6.401,-10.358 -4.274,-20.021 -0.849,-30.062 2.44,-7.159 5.829,-14.02 7.908,-21.267 2.6,-9.069 -1.25,-17.266 -8.842,-20.919 -9.214,-4.434 -19.37,-0.686 -24.18,8.828 -4.165,8.238 -3.444,16.865 -2.209,25.545 0.219,1.541 0.816,3.039 0.937,4.581 0.417,5.315 2.662,11.797 0.42,15.599 -1.829,3.1 -8.843,4.187 -13.707,5.445 -8.326,2.154 -21.159,5.004 -22.646,2.12 -1.486,-2.884 11.327,-18.212 16.853,-29.479 6.337,-12.92 9.609,-26.904 9.149,-41.435 -0.621,-19.574 -10.579,-31.632 -29.443,-36.279 -9.747,-2.401 -10.025,-2.38 -10.766,-12.307 -0.699,-9.377 -1.256,-18.765 0.042,-28.149 0.863,-6.226 2.426,-12.317 5.534,-18.665 3.109,-6.348 -12.658,3.968 -16.301,7.876 -12.148,13.029 -17.752,27.658 -22.048,44.811 -1.28,5.111 -3.558,8.3 -8.664,10.582 -12.99,5.808 -20.534,16.207 -21.928,30.488 -0.887,9.089 -0.646,18.296 -1.67,27.366 C 35.358,-27.59 25.46,-9.101 3.225,0.971 2.462,1.316 0.771,1.641 0,0" /></g></g></g></g></svg>