<?xml version="1.0" encoding="UTF-8" standalone="no"?>
<svg
   xmlns:dc="http://purl.org/dc/elements/1.1/"
   xmlns:cc="http://creativecommons.org/ns#"
   xmlns:rdf="http://www.w3.org/1999/02/22-rdf-syntax-ns#"
   xmlns:svg="http://www.w3.org/2000/svg"
   xmlns="http://www.w3.org/2000/svg"
   viewBox="0 0 533.33331 533.33331"
   height="533.33331"
   width="533.33331"
   xml:space="preserve"
   id="svg2"
   version="1.1"><metadata
     id="metadata8"><rdf:RDF><cc:Work
         rdf:about=""><dc:format>image/svg+xml</dc:format><dc:type
           rdf:resource="http://purl.org/dc/dcmitype/StillImage" /></cc:Work></rdf:RDF></metadata><defs
     id="defs6"><clipPath
       id="clipPath18"
       clipPathUnits="userSpaceOnUse"><path
         id="path16"
         d="M 0,400 H 400 V 0 H 0 Z" /></clipPath></defs><g
     transform="matrix(1.3333333,0,0,-1.3333333,0,533.33333)"
     id="g10"><g
       id="g12"><g
         clip-path="url(#clipPath18)"
         id="g14"><g
           transform="translate(183.1245,357.5879)"
           id="g20"><path
             id="path22"
             style="fill:#000000;fill-opacity:1;fill-rule:nonzero;stroke:none"
             d="m 0,0 c 3.852,-0.431 7.505,-2.63 8.806,-6.2 1.953,-5.358 3.317,-11.101 3.846,-16.778 2.5,-26.81 4.698,-59.002 4.698,-80.634 0,-21.633 -0.038,-34.71 -0.765,-52.022 -1.123,-26.775 -3.038,-53.522 -5,-80.253 -0.424,-5.775 -2.357,-11.461 -3.8,-17.135 -2.24,-8.809 -1.717,-17.249 2.416,-25.472 2.119,-4.216 4.059,-8.564 5.61,-13.015 3.344,-9.597 0.174,-18.154 -7.864,-22.12 -7.617,-3.759 -17.981,-0.789 -23.245,6.755 -3.548,5.083 -4.625,10.795 -3.626,16.846 0.977,5.912 2.469,11.749 3.222,17.684 2.181,17.184 -5.862,29.981 -18.027,40.931 -11.877,10.69 -23.823,21.308 -35.506,32.207 -5.5,5.132 -9.692,10.08 -14.913,15.514 -2.223,2.313 -3.597,3.145 -6.657,3.368 -3.06,0.221 -4.973,0.266 -8.923,0.087 -3.949,-0.179 -6.648,-1.299 -7.789,-6.792 -0.759,-3.657 -0.61,-7.507 -0.814,-11.273 -0.152,-2.829 0.133,-5.73 -0.394,-8.482 -1.386,-7.242 -7.785,-9.767 -13.834,-5.564 -2.237,1.555 -4.218,3.474 -6.383,5.141 -0.607,0.467 -1.325,1.422 -2.186,0.923 -0.862,-0.498 -0.635,-2.058 -0.591,-3.492 0.043,-1.435 0.259,-4.504 0.39,-7.339 0.126,-2.73 0.392,-5.467 0.29,-8.19 -0.269,-7.194 -4.278,-12.702 -10.056,-14.103 -6.406,-1.553 -14.052,1.298 -16.788,7.641 -2.039,4.731 -2.85,10.247 -3.039,15.457 -0.266,7.305 1.285,14.718 0.604,21.949 -0.348,3.693 -3.284,7.673 -6.097,10.472 -3.602,3.586 -4.92,6.373 -5.397,12.305 -0.477,5.931 -0.73,11.011 -1.053,18.99 -0.063,1.575 -0.012,8.092 0.001,9.666 0.157,18.179 0.324,36.359 0.536,54.538 0.05,4.298 0.261,8.594 0.428,12.89 0.119,3.074 3.445,5.531 8,5.612 6.622,0.118 13.249,0.03 19.873,0.03 0,0 36.688,-0.926 46.879,-0.86 10.191,0.065 14.516,4.423 20.088,9.861 7.27,7.094 14.262,14.478 21.62,21.479 11.877,11.301 23.968,22.378 35.94,33.581 1.783,1.668 4.575,4.336 7.061,4.798 C -9.954,-0.535 -3.852,0.432 0,0" /></g><g
           transform="translate(216.6396,229.6782)"
           id="g24"><path
             id="path26"
             style="fill:#000000;fill-opacity:1;fill-rule:nonzero;stroke:none"
             d="m 0,0 c 0.631,12.313 -4.694,22.779 -10.464,33.034 -4.114,7.312 -2.837,11.215 5.446,12.647 7.241,1.252 14.781,2.035 21.576,-1.975 1.698,-1.003 3.338,-2.965 3.932,-4.829 2.513,-7.87 5.013,-15.785 6.748,-23.849 1.346,-6.25 2.39,-12.793 2.033,-19.118 -0.388,-6.899 -2.078,-13.838 -4.055,-20.505 -2.342,-7.9 -5.33,-15.64 -8.539,-23.238 -2.583,-6.118 -3.509,-12.179 -1.939,-18.621 0.755,-3.094 1.71,-6.162 2.167,-9.301 0.436,-2.997 0.703,-6.109 0.4,-9.104 -0.509,-5.015 -3.912,-8.639 -8.173,-9.449 -4.807,-0.914 -10.28,1.302 -12.02,6.059 -1.477,4.041 -2.622,8.825 -1.903,12.926 1.85,10.562 -0.036,20.018 -5.819,28.817 -3.037,4.621 -2.577,8.754 0.166,13.485 C -4.547,-22.843 0.674,-12.315 0,0" /></g></g></g></g></svg>