<?xml version="1.0" encoding="utf-8"?>
<!-- Generator: Adobe Illustrator 22.1.0, SVG Export Plug-In . SVG Version: 6.00 Build 0)  -->
<!DOCTYPE svg PUBLIC "-//W3C//DTD SVG 1.1//EN" "http://www.w3.org/Graphics/SVG/1.1/DTD/svg11.dtd">
<svg version="1.1"
	 id="Layer_1" inkscape:version="0.92.2 (5c3e80d, 2017-08-06)" sodipodi:docname="claro-musica.svg" xmlns:cc="http://creativecommons.org/ns#" xmlns:dc="http://purl.org/dc/elements/1.1/" xmlns:inkscape="http://www.inkscape.org/namespaces/inkscape" xmlns:rdf="http://www.w3.org/1999/02/22-rdf-syntax-ns#" xmlns:sodipodi="http://sodipodi.sourceforge.net/DTD/sodipodi-0.dtd" xmlns:svg="http://www.w3.org/2000/svg"
	 xmlns="http://www.w3.org/2000/svg" xmlns:xlink="http://www.w3.org/1999/xlink" x="0px" y="0px" viewBox="0 0 400 400"
	 style="enable-background:new 0 0 400 400;" xml:space="preserve">
<sodipodi:namedview  bordercolor="#666666" borderopacity="1" gridtolerance="10" guidetolerance="10" id="namedview13" inkscape:current-layer="Layer_1" inkscape:cx="304.46369" inkscape:cy="258.80062" inkscape:pageopacity="0" inkscape:pageshadow="2" inkscape:window-height="1017" inkscape:window-maximized="1" inkscape:window-width="1920" inkscape:window-x="1358" inkscape:window-y="-8" inkscape:zoom="1.4343434" objecttolerance="10" pagecolor="#ffffff" showgrid="false" showguides="false">
	</sodipodi:namedview>
<g>
	<path d="M184,110.3c2.7-2.7,5.4-5.4,8.2-8.1c1.5-1.5,1.5-3.8,0-5.3c-4.2-4.1-8.3-8.2-12.2-12.1c-1.4-1.4-3.7-1.4-5.2,0
		c-19.1,19-38,37.7-56.9,56.4c-1.9,1.8-1.9,4.8-0.1,6.7c3.8,3.9,7.6,7.9,11.3,11.7c1.5,1.5,3.6,2.3,5.7,2.3c8-0.2,8.9,6.3,7.5,10.9
		c-1.2,3.7-1.9,7.6-1.9,11.5v12.1c0,3.2,0.5,6.4,1.3,9.6c1.4,6-1.6,12.2-6.6,12c-1.5-0.1-3,0.6-4.1,1.7c-4.3,4.1-8.6,8.3-12.8,12.3
		c-1.8,1.8-2.2,4.6-0.8,6.7c0.7,1.1,1.3,2.2,1.7,3.4c14,36.8-20,87.6,5.8,90.6c34.6,0-1.8-69.2,13.3-71.2c1.6-0.2,3.1,0.4,4.2,1.6
		c10.2,10.2,20.4,20.3,30.6,30.5c1.8,1.8,4.7,1.8,6.5,0c3.7-3.8,7.4-7.7,11.2-11.7c1.7-1.8,1.7-4.7-0.1-6.4
		c-6.6-6.6-13.3-13.4-20.1-20.1c-4.4-4.4-8.3-9.4-11.4-14.8c-8.6-15-9.7-29.7,11.9-35.9c4.7-1.3,9.5-1.9,14.4-1.9l39.6,0
		c2.1,0,3.8-1.7,3.8-3.8V180c0-2.1-1.7-3.8-3.8-3.8l-48.5,0c-3.2,0-6.3-0.6-9.1-2.1c-14.2-7.5-12.2-28.5,10.2-56.8
		C179.6,114.9,181.7,112.5,184,110.3z"/>
	<path d="M362,232.2c1.1-2.1,2.6-3.9,4.1-5.7c1.8-2.3,2.5-6,2.2-11.9c-0.9-21.5-0.3-42.9-2.8-64.6c-6.7-59.3-35.2-102.5-88.5-128.2
		C239.9,4,200.7,0.3,160.6,9.5c-39.7,9-71.9,29.6-96.8,62.4c-20.8,27.5-25,60.4-30.5,92.4c-3.1,17.9-0.9,36.7-0.6,55.1
		c0.2,7.8,7.9,12.8,15.4,10.4c6.1-1.9,12.8,3,13.1,9.3C62.3,257,62.3,257,80,257c0.8,0,1.6,0,2.3,0c10.9,0,12.1-1.1,12.1-11.8
		c-0.2-37.3-0.2-74.7-0.3-112c0-8.9-0.6-11.8-5.8-12.7c-2.9-0.5-5.3-2.5-6.4-5.2c-3.4-8.5-0.9-24.1,6.1-41.1
		c4.5-10.8,12-20.2,21.6-26.8c3.9-2.7,8.1-5.3,12.4-7.7C147,25.5,174,20.2,202,20.3c6.5,0,12.7,2.8,16.9,7.8
		c28,33.4-20.1,104.5,13.9,104.2c36.9-4.3-14.9-70.9,10.2-100.6c2.9-3.4,7.5-4.7,11.7-3.3c7.2,2.4,14.2,5.4,21,9
		c37.3,19.4,61,49.8,70.5,90.8c0.8,3.6,1.3,7.2,1.7,11.1c0.6,5.3-7.4,6.6-8.3,1.4c-0.2-1-0.2-2.1,0-3.4c0.3-3.1,0.3-6.2,0-9.3
		c-0.6-5.6-3.7-7.7-9.3-7.9c-11.2-0.4-23.1-1.7-23.3,9.6c-0.1,9.6,0,6.3,0,14c0,40,0,65.2,0.2,105.2c0,2.5,2.5,7,4,7.2l0,0
		c4.1,0.3,8,2.1,10.6,5.3c24.9,29.6-36.4,126.7,15.9,134.2C405.8,395.6,330.3,292.2,362,232.2z M61.3,138.6c0.4,4-1,6.5-4.5,7.2
		c-1.8,0.3-3.4-1-3.4-2.9c0.1-2.4,0.2-4.7,0.5-7c1.8-10.9,4.6-21,8.4-30.5c1.3-3.3,5.9-3.8,7.7-0.7c1.7,2.9,0.6,7.8-2.5,13.5
		c-0.8,1.5-2.1,2.8-3.4,3.9C61.5,124.6,60.6,129.3,61.3,138.6z"/>
</g>
</svg>
