<?xml version="1.0" encoding="utf-8"?>
<!-- Generator: Adobe Illustrator 23.0.6, SVG Export Plug-In . SVG Version: 6.00 Build 0)  -->
<svg version="1.1"
	 id="Layer_1" inkscape:version="0.92.2 (5c3e80d, 2017-08-06)" sodipodi:docname="claro-musica.svg" xmlns:cc="http://creativecommons.org/ns#" xmlns:dc="http://purl.org/dc/elements/1.1/" xmlns:inkscape="http://www.inkscape.org/namespaces/inkscape" xmlns:rdf="http://www.w3.org/1999/02/22-rdf-syntax-ns#" xmlns:sodipodi="http://sodipodi.sourceforge.net/DTD/sodipodi-0.dtd" xmlns:svg="http://www.w3.org/2000/svg"
	 xmlns="http://www.w3.org/2000/svg" xmlns:xlink="http://www.w3.org/1999/xlink" x="0px" y="0px" viewBox="0 0 400 400"
	 style="enable-background:new 0 0 400 400;" xml:space="preserve">
<path d="M186.5,108.7c2.3-2.3,4.6-4.5,6.9-6.8c1.2-1.2,1.2-3.2,0-4.4c-3.5-3.5-7-6.9-10.2-10.1c-1.2-1.2-3.1-1.2-4.4,0
	c-16.1,16-31.9,31.7-47.8,47.3c-1.6,1.5-1.6,4-0.1,5.6c3.2,3.3,6.4,6.6,9.5,9.8c1.3,1.3,3,1.9,4.8,1.9c6.7-0.2,7.5,5.3,6.3,9.2
	c-1,3.1-1.6,6.4-1.6,9.7V181c0,2.7,0.4,5.4,1.1,8c1.2,5-1.4,10.3-5.6,10.1c-1.3-0.1-2.5,0.5-3.4,1.4c-3.6,3.4-7.2,6.9-10.8,10.3
	c-1.5,1.5-1.9,3.8-0.7,5.6c0.6,0.9,1.1,1.9,1.4,2.9c11.8,30.9-16.8,73.5,4.9,76.1c29,0-1.5-58.1,11.2-59.8c1.3-0.2,2.6,0.4,3.6,1.3
	c8.6,8.5,17.1,17.1,25.7,25.6c1.5,1.5,4,1.5,5.5,0c3.1-3.2,6.2-6.5,9.4-9.8c1.5-1.5,1.4-3.9,0-5.4c-5.6-5.6-11.2-11.2-16.8-16.9
	c-3.7-3.7-7-7.9-9.6-12.4c-7.2-12.6-8.1-25,10-30.1c3.9-1.1,8-1.6,12.1-1.6l33.2,0c1.7,0,3.2-1.4,3.2-3.2v-15.9
	c0-1.7-1.4-3.2-3.2-3.2l-40.7,0c-2.6,0-5.3-0.5-7.6-1.8c-11.9-6.3-10.3-23.9,8.6-47.7C182.9,112.5,184.7,110.6,186.5,108.7z"/>
<path d="M336,211c0.9-1.7,2.2-3.3,3.4-4.8c1.6-1.9,2.1-5.1,1.8-10c-0.8-18-0.3-36.1-2.4-54.2c-5.6-49.8-29.5-86.1-74.3-107.6
	c-31.1-14.9-64-18-97.7-10.3c-33.3,7.6-60.3,24.8-81.2,52.4c-17.5,23.1-21,50.7-25.6,77.6c-2.6,15-0.8,30.8-0.5,46.2
	c0.1,6.5,6.7,10.7,12.9,8.8c5.1-1.6,10.7,2.5,11,7.8c0.9,15,0.9,15,15.8,15c0.7,0,1.3,0,2,0c9.1,0,10.2-0.9,10.2-9.9
	c-0.1-31.4-0.1-62.7-0.3-94.1c0-7.5-0.5-9.9-4.9-10.7c-2.4-0.4-4.5-2.1-5.4-4.4c-2.9-7.1-0.8-20.3,5.2-34.5
	c3.8-9.1,10.1-16.9,18.2-22.5c3.3-2.3,6.8-4.5,10.4-6.5c20.9-11.8,43.5-16.3,67.1-16.2c5.5,0,10.7,2.4,14.2,6.6
	c23.5,28-16.9,87.8,11.7,87.5c31-3.6-12.5-59.5,8.6-84.5c2.4-2.8,6.3-3.9,9.9-2.7c6,2,11.9,4.5,17.6,7.5
	c31.4,16.3,51.2,41.8,59.2,76.3c0.7,3,1.1,6.1,1.4,9.3c0.5,4.5-6.2,5.6-7,1.2c-0.2-0.8-0.2-1.8,0-2.9c0.3-2.6,0.3-5.2,0-7.8
	c-0.5-4.7-3.1-6.5-7.8-6.7c-9.4-0.4-19.4-1.4-19.6,8.1c-0.1,8.1,0,5.3,0,11.7c0,33.6,0,54.8,0.1,88.3c0,2.1,2.1,5.9,3.4,6l0,0
	c3.4,0.3,6.7,1.8,8.9,4.4c20.9,24.8-30.6,106.4,13.3,112.7C372.8,348.3,309.4,261.5,336,211z M83.6,132.4c0.3,3.4-0.8,5.5-3.7,6
	c-1.5,0.3-2.9-0.9-2.8-2.4c0.1-2,0.2-3.9,0.4-5.8c1.5-9.1,3.9-17.6,7.1-25.6c1.1-2.8,5-3.2,6.5-0.6c1.4,2.4,0.5,6.6-2.1,11.3
	c-0.7,1.3-1.7,2.4-2.9,3.3C83.7,120.7,82.9,124.6,83.6,132.4z"/>
</svg>
