<?xml version="1.0" encoding="utf-8"?>
<!-- Generator: Adobe Illustrator 23.0.6, SVG Export Plug-In . SVG Version: 6.00 Build 0)  -->
<svg version="1.1" id="Layer_1" xmlns="http://www.w3.org/2000/svg" xmlns:xlink="http://www.w3.org/1999/xlink" x="0px" y="0px"
	 viewBox="0 0 400 400" style="enable-background:new 0 0 400 400;" xml:space="preserve">
<path d="M189.1,29.8c5.3-1.1,14.5-2.7,23.3-4.2c20.8-3.4,41.5-6.6,62.4-9.5c8.2-1.1,16.6-1.2,24.9-1.7c9-0.6,17.9-1.6,26.9-1.7
	c3.3-0.1,7.6,1.4,9.1,2.5s2,2.6,1.9,3.6c-2.2,16.1-4.1,32.3-7,48.3c-2.1,11.3-5.6,22.3-8.4,33.5c-3.7,15-7.9,30-10.8,45.1
	c-1.8,9-2.1,18.4,1.7,27.5c2.6,6.3,0.3,13.8-4.6,17.7c-3.9,3-10.2,3.1-15.4-0.3c-4.8-3.2-6.8-8.6-6-13.6c1.3-8-1-13.4-6.9-18.6
	c-5.5-4.8-13.1-13.6-14.8-15.1c-1.8-1.5-3.4-0.7-4.2,0c-9.7,9.1-19.2,18.4-29,27.5c-28.2,26.2-56.4,52.3-84.8,78.4
	c-7.1,6.6-13.3,13.8-13.7,23.9c-0.2,3.9,1.9,7.8,2.6,11.7c0.7,4.1,1.6,8.3,1.3,12.3c-0.3,4.8-3.7,6.5-10.3,6.3
	c-9.6,0-13.7-3.6-16.1-11.3c-1-3.2-0.5-7.3,0.5-10.7c2.3-8.2-1-13.9-7.3-18.6c-4.5-3.3-9.4-6.3-13-10.4
	c-5.7-6.4-10.6-13.6-15.8-20.5c-3-3.9-5.8-8-8.8-11.9c-7.7-10-3.3-14.4,3.1-20.7c12.5-12.3,25.7-23.9,38.4-36
	c5.5-5.3,14.1-14.7,15.7-16.7c1.6-1.9,0.6-3.2-0.1-4.2c-3.2-4.1-3.1-8,0.6-11.8c4-4.1,8.3-6.3,14.4-7.1c9.3-1.3,17.6-6,24.9-12.1
	c12.8-10.8,25.4-21.8,38.1-32.7c1.9-1.7,1.5-2.7-0.2-4.7c-7.4-8.3-14.7-16.7-21.6-25.4c-3.7-4.6-3.2-8-2.4-12.4
	C178.1,31.8,183.8,30.9,189.1,29.8z"/>
</svg>
