<?xml version="1.0" encoding="utf-8"?>
<!-- Generator: Adobe Illustrator 21.1.0, SVG Export Plug-In . SVG Version: 6.00 Build 0)  -->
<!DOCTYPE svg PUBLIC "-//W3C//DTD SVG 1.1//EN" "http://www.w3.org/Graphics/SVG/1.1/DTD/svg11.dtd">
<svg version="1.1" id="Layer_1" xmlns="http://www.w3.org/2000/svg" xmlns:xlink="http://www.w3.org/1999/xlink" x="0px" y="0px"
	 viewBox="0 0 400 400" enable-background="new 0 0 400 400" xml:space="preserve">
<g>
	<path d="M186,35.6c6.8-1.4,18.6-3.5,29.9-5.3c26.6-4.3,53.3-8.5,80-12.2c10.5-1.5,21.2-1.5,31.9-2.2c11.5-0.8,23-2,34.5-2.2
		c4.2-0.1,9.8,1.7,11.7,3.2c1.9,1.5,2.6,3.3,2.4,4.6c-2.8,20.6-5.3,41.4-9,61.9c-2.6,14.5-7.2,28.6-10.7,42.9
		c-4.8,19.3-10.1,38.4-13.9,57.9c-2.3,11.6-2.7,23.6,2.2,35.2c3.4,8.1,0.4,17.7-5.9,22.7c-4.9,3.9-13.1,4-19.8-0.4
		c-6.1-4-8.7-11.1-7.7-17.5c1.6-10.2-1.3-17.2-8.8-23.8c-7-6.1-16.7-17.5-19-19.4c-2.3-1.9-4.4-0.9-5.4,0
		c-12.5,11.6-24.7,23.6-37.2,35.2c-36.2,33.6-72.4,67.1-108.7,100.5c-9.2,8.4-17,17.7-17.6,30.6c-0.2,4.9,2.4,10,3.3,15
		c0.9,5.2,2,10.6,1.7,15.8c-0.4,6.2-4.7,8.3-13.2,8.1c-12.4,0.1-17.5-4.6-20.6-14.5c-1.3-4.2-0.6-9.4,0.6-13.8
		c2.9-10.6-1.3-17.8-9.4-23.8c-5.7-4.3-12-8.1-16.7-13.4c-7.3-8.2-13.6-17.4-20.2-26.3c-3.8-5-7.5-10.2-11.3-15.2
		c-9.9-12.8-4.3-18.5,3.9-26.6c16-15.8,32.9-30.6,49.2-46.1c7.1-6.7,18.1-18.9,20.1-21.4c2.1-2.5,0.8-4.2-0.2-5.3
		c-4-5.2-3.9-10.3,0.7-15.1c5.1-5.2,10.7-8.1,18.5-9.1c11.9-1.7,22.6-7.7,31.9-15.6c16.4-13.8,32.6-28,48.8-42c2.5-2.1,2-3.5-0.2-6
		c-9.5-10.7-18.9-21.5-27.7-32.6c-4.7-5.9-4.1-10.2-3.1-15.9S179.2,37,186,35.6z"/>
</g>
</svg>
