<?xml version="1.0" encoding="utf-8"?>
<!-- Generator: Adobe Illustrator 23.0.1, SVG Export Plug-In . SVG Version: 6.00 Build 0)  -->
<svg version="1.1"
	 id="svg2" inkscape:version="0.92.1 r15371" sodipodi:docname="paint_tool_sai.svg" xmlns:cc="http://creativecommons.org/ns#" xmlns:dc="http://purl.org/dc/elements/1.1/" xmlns:inkscape="http://www.inkscape.org/namespaces/inkscape" xmlns:rdf="http://www.w3.org/1999/02/22-rdf-syntax-ns#" xmlns:sodipodi="http://sodipodi.sourceforge.net/DTD/sodipodi-0.dtd" xmlns:svg="http://www.w3.org/2000/svg"
	 xmlns="http://www.w3.org/2000/svg" xmlns:xlink="http://www.w3.org/1999/xlink" x="0px" y="0px" viewBox="0 0 400 400"
	 style="enable-background:new 0 0 400 400;" xml:space="preserve">
<g>
	<path d="M83.3,234.9C83.3,234.9,83.3,234.9,83.3,234.9C83.3,234.8,83.3,234.9,83.3,234.9z"/>
	<path d="M311.8,239.4c-3,3.7-1.2,5.4,3.7,8.7c3.1,2.1,5.9,4.7,8.3,7.5c3.2,3.8,5.2,3.4,7.5,0.6c17.7-21.7,29.4-46.1,34.2-73.9
		c3.2-18.8,3-37.4-0.7-55.9c-3.2-16.2-9.1-31.5-17.5-45.9c-9.4-16-21.6-29.6-35.5-41.4c-15.7-13.2-33.7-22.7-53.6-28.3
		c-23.3-6.6-46.8-8.4-70.7-3.5c-17.2,3.5-33.5,9.3-48.7,18c-14.6,8.4-27.2,19.2-38.5,31.6c-3.4,3.7-3.3,5.3,0.3,8.3
		c2.1,1.8,4.2,3.6,6.3,5.3c6.8,6.9,2.4,19-3.8,15c-2.6-2.3-5.2-4.5-7.9-6.8c-0.9-0.8-1.9-1.4-3.1-2.1c-1.3-0.8-3-0.6-4.2,0.4
		c-1.9,1.6-3.7,3.2-5.4,4.9c-4.2,4.2-4,6.5,0.7,10.1c6,4.7,12.1,9.4,18.1,14.2c32.1,25.8,64.2,51.7,96.3,77.4
		c42.5,36.9,47.9,58.7,27.6,56c-2.3-0.3-4.4-1.2-6.4-2.4c-0.5-0.3-0.9-0.6-1.4-0.8c-44.3-26.2-89-51.9-133.6-77.7
		c-3.1-1.8-6.6-4-9.9-3.9c-7.1,0.1-11.7-3.5-16.3-8.1c-5.4-5.4-12.6-7.5-20.1-9.2c-1.4-0.3-2.8-0.3-4.1,0.2c-0.5,0.2-0.9,0.4-1,0.7
		c-0.4,0.9,0.4,2.5,1.1,3.5c5.2,8.1,12.6,13.2,22.2,14.2c4.2,0.4,6.7,2.5,9.4,5.4c2.8,3,5.7,6.2,9.2,8.3c4,2.3,8,4.7,12,7
		c10.6,6.8,11.9,22.5,6.5,20.6c-7.7-4.4-15.4-8.9-23.2-13.2l0,0c-1.8-1-4.1,0.3-4.2,2.3c0,0.3,0,0.7,0.1,1
		c3,14.4,7.8,27.7,14.2,40.2c1.2,2.4,2.6,5.1,3.9,7.3c0,0.1,0,0,0,0c32.2,57.4-3.1,98.4,17.7,105.9c2.1,0.8,4.5,1,6.7,0.4
		c23.9-6.2-6.5-80.7,8.1-67.7c26.4,22.7,57.3,34.5,91.9,36.7c14,0.9,27.9-0.6,41.4-4c7.1-1.8,14.1-4.1,21.4-6.4
		c0.9-0.3,1.4-1.4,0.9-2.2c-0.1-0.1-0.1-0.1-0.2-0.2c-10.3-5.4-20.7-10.8-31.1-16c-1.1-0.6-2.5-0.7-3.8-0.7
		c-9.1,0.3-18.2,1.3-27.3,0.8c-8.1-0.4-16.1-2.2-24.1-4c-5.2-1.1-7.4-4.1-6.9-9.3c0.4-4.6,1.8-9,2.8-13.5c0.6-2.4,1-4.8-1.7-5.9
		c-2.6-1-4.7,0.5-5.8,2.9c-0.9,1.9-1.5,4.1-2.7,5.8c-5.9,8-9.7,10.8-18.4,5.7c-6.8-4-13.1-8.7-18.7-13.8c-9-8.2-16.2-18.2-20.7-29.5
		c-7.7-19.3-0.2-22.6,9-20.7c2.9,0.6,5.7,1.8,8.2,3.3c19,11.1,38.1,22.1,57.2,32.9c30.8,17.4,62.1,33.9,93.3,50.7
		c4.2,2.3,8.4,4.4,12.7,6.6c5.6,2.9,10.1,7.4,12.9,13c19.3,38.2-6.7,90.2,14,89.8c26.5,0-14.1-77.8,5.9-85c1.7-0.6,2.1-2.7,0.8-3.9
		c-0.2-0.2-0.4-0.3-0.6-0.5c-11.8-7.7-23.6-15.4-35.4-23c-14.6-9.4-27.3-21.7-36.8-36.2c-7.3-11.1-11.1-20.7-5.8-21.1
		c1.2-0.1,2.3,0.4,3.2,1.1c25.9,20.6,51.5,40.9,77.5,61.4c3.9,3.1,7.7,6.2,11.9,9c0.2,0.2,0.5,0.2,0.9,0.3c2.1,0.1,3.5-1.6,3.1-3.6
		c-0.1-0.4-0.2-0.8-0.3-1.1c-0.5-1.1-1.8-2-2.8-2.9c-7.8-6.7-15.7-13.4-23.6-20.1c-18.9-16.1-37.9-32.1-56.8-48.2
		c-10.7-9.1-21.4-18.3-32.1-27.4c-2.6-2.2-4.9-4.9-6.7-7.8c-4.2-7.2-4.2-14.2,0.3-20.3c2-2.6,4.3-1.8,6.8-0.8
		c3.2,1.3,6.5,2.4,9.7,3.8c18.8,8.1,37.7,16.1,56.5,24.2c8.1,3.5,16.3,6.8,24.3,10.6c7.1,3.4,9.1,10.8,4.9,17.2
		C321,227.2,316.5,233.4,311.8,239.4z M232.6,34.7c1.2-0.6,2.7-0.8,4-0.6c3.1,0.4,6.1,0.9,9.1,1.4c8.3,1.5,11.9,7.7,9,15.8
		c-0.5,1.5-1.1,3-1.7,4.5c-1.7,4.6-7.3,6.3-11.3,3.5C233.3,53.5,225,38.6,232.6,34.7z M209.4,149.3c-1.1,0.7-2.9,0.6-4.4,0.3
		c-2-0.4-3.9-1.3-5.8-2c0,0-0.4-0.2-0.6,0s0.1,0.9,0.1,0.9c0.2,0.4,0.3,0.6,0.7,1.3c5.4,9.4,16.9,31.9,4,22.1
		C186,157,168.4,142,150.9,127c-6.9-5.9-13.7-11.8-20.5-17.7c-4-3.4-7.4-7.5-10-12c-4.8-8.4-3.8-13.2,2-20.6
		c8.6-10.5,18.8-19,30.3-26.1c6.7-4.1,11.5-3,15.4,3.7c0.8,1.4,1.5,2.8,2.2,4.3c8.8,19.4,17.5,38.8,26.3,58.2
		c4.3,9.5,8.6,19,12.8,28.6C209.8,146.5,210,148.9,209.4,149.3z M220,142.4c-0.1,0.3-0.3,0.6-0.5,0.9c-1.5,2.2-4.9,1.7-5.9-0.8l0,0
		c-8.6-21.7-17.2-43.5-25.7-65.3c-3.7-9.6-7.3-19.2-10.7-28.9c-1.8-5.2,0.7-10,6.1-11c3.6-0.7,7.3-1.4,10.9-2
		c1.2-0.2,2.4-0.4,3.7-0.4c20.7,0,47.9,29.8,40.4,60C232.3,110.7,226.2,126.5,220,142.4z M229.4,148.9L229.4,148.9
		c-2.6,1.1-5.3-1-4.9-3.6c0.1-0.3,0.1-0.6,0.3-0.9c4.6-10.7,9.4-21.3,14.2-31.9c8-17.8,16.2-35.6,24-53.5c5.3-12.1,11.2-14,22.4-6.9
		c15.8,10.1,28.4,23.2,38.4,38.9c0,0,0.1,0.1,0.1,0.1c2.2,3.6,2.6,8.1,0.8,11.9c-1.1,2.4-2.8,4.3-5.6,5.5
		c-13.6,6.2-27.2,12.6-40.9,18.7C262,134.6,245.7,141.8,229.4,148.9z M236,162.4c-0.7-0.3-1.4-0.5-2.1-0.8c-1-0.4-1.9-0.9-2.7-1.6
		c-2-1.5-1.9-4.5,0.2-5.9c0.8-0.6,1.7-1.1,2.6-1.4c4.3-1.7,8.7-3.4,13-5c1.1-0.4,2.4-0.5,3.6-0.1C257.5,150,248.7,164.2,236,162.4z
		 M324.4,195.5c-11.4-3.3-22.4-7.9-33.6-12.1c-9.8-3.7-19.6-7.5-29.4-11.2c-6.3-2.4-8.9-10-5.3-15.6c2.6-4,6.9-8.2,11.4-11.9
		c8.1-6.5,17.2-11.7,26.9-15.4c7.8-3,15.5-6,23.3-9c4.6-1.8,9.2-2.5,14.1-1.1c4.2,1.2,6.5,3.8,7.1,7.8c0.2,1,0.3,2.1,0.5,3.1
		c2.8,18.8,2.7,37.9-0.4,56.6l0,0.3C337.8,194.1,333.8,198.2,324.4,195.5z"/>
	<path d="M71.4,106.4c-0.1,0.1-0.1,0.3-0.1,0.4c-2.4,9-4.8,18-7.1,27c-0.8,3,1.1,3.9,3.5,4.5c7.5,1.8,14.9,3.8,22.4,5.8
		c2.2,0.6,3.2,0.1,3.6-2.2c1-5.8,2-11.6,3.4-17.3c0.6-2.5,0-4.1-1.9-5.5c-5.8-4.3-11.6-8.7-17.4-13c-0.6-0.4-1.2-0.8-1.9-1.1
		C74.2,104.2,72.1,104.8,71.4,106.4z"/>
	<path d="M157.9,184.9c2.7-0.4,5.5-1.2,8-2.4c1-0.5,1.7-1.6,2.4-2.7c0.3-0.5,0.2-1.2-0.2-1.5c-0.8-0.7-1.7-1.3-2.5-2
		c-0.5-0.4-1.2-0.5-1.8-0.3c-3.1,1.2-5.8,2.1-8.3,3.5c-1,0.5-1.9,2.9-1.5,3.8C154.5,184.3,156.6,185.1,157.9,184.9z"/>
	<path d="M201.9,204.7c0.4-0.3,0.4-0.9,0-1.2c-1.7-1.5-3.1-2.9-3.9-2.3c-1.7,1.1-2.8,2.4-3.8,4.2c-0.5,0.9,1.7,3.5,2.6,3
		C198.5,207.6,199.9,206.3,201.9,204.7z"/>
	<path d="M54.1,69.1C54.1,69.1,54.1,69.2,54.1,69.1c0.2,0.3,0.3,0.6,0.5,0.9c0.8,1.1,1.5,2.3,2,3.5c6.5,15.2-5.5,38.8,6.2,39.1
		c12.8,0.7-10.2-38.8,6.6-32.2c1.7,0.6,3.6-1,7-4.5c1.1-1.1,2-2.3,3-3.4c1.2-1.4,1.5-3.4,0.7-5c-0.1-0.2-0.2-0.4-0.4-0.6
		C76,62.9,72.4,59,68.4,55.4c-0.8-0.8-3.6-0.6-4.6,0.3c-3.1,2.6-5.9,5.4-8.5,8.5C53.7,66.1,53.4,67.6,54.1,69.1L54.1,69.1z"/>
</g>
</svg>
