<?xml version="1.0" encoding="utf-8"?>
<!-- Generator: Adobe Illustrator 23.0.6, SVG Export Plug-In . SVG Version: 6.00 Build 0)  -->
<svg version="1.1"
	 id="svg2" xmlns:cc="http://creativecommons.org/ns#" xmlns:dc="http://purl.org/dc/elements/1.1/" xmlns:inkscape="http://www.inkscape.org/namespaces/inkscape" xmlns:rdf="http://www.w3.org/1999/02/22-rdf-syntax-ns#" xmlns:sodipodi="http://sodipodi.sourceforge.net/DTD/sodipodi-0.dtd" xmlns:svg="http://www.w3.org/2000/svg"
	 xmlns="http://www.w3.org/2000/svg" xmlns:xlink="http://www.w3.org/1999/xlink" x="0px" y="0px" viewBox="0 0 400 400"
	 style="enable-background:new 0 0 400 400;" xml:space="preserve">
<g>
	<path d="M291.6,210.1c-2.4,3-1,4.4,3.1,7.1c2.6,1.7,4.8,3.8,6.8,6.2c2.6,3.1,4.3,2.8,6.2,0.5c14.5-17.8,24.1-37.8,28-60.6
		c2.6-15.4,2.4-30.6-0.6-45.8c-2.6-13.3-7.4-25.8-14.4-37.6C313,66.8,303,55.6,291.6,46c-12.8-10.8-27.6-18.6-43.9-23.2
		c-19.1-5.4-38.3-6.9-57.9-2.8c-14.1,2.9-27.5,7.6-40,14.7c-12,6.9-22.3,15.7-31.5,25.9c-2.8,3.1-2.7,4.4,0.2,6.8
		c1.7,1.5,3.4,2.9,5.1,4.4c5.5,5.7,2,15.6-3.1,12.3c-2.1-1.9-4.3-3.7-6.4-5.6c-0.7-0.6-1.6-1.1-2.6-1.7c-1.1-0.6-2.5-0.5-3.4,0.3
		c-1.5,1.3-3,2.6-4.4,4c-3.5,3.4-3.3,5.3,0.6,8.3c4.9,3.9,9.9,7.7,14.8,11.6c26.3,21.1,52.6,42.3,79,63.4
		c34.8,30.3,39.3,48.1,22.7,45.9c-1.9-0.3-3.6-1-5.2-2c-0.4-0.2-0.7-0.5-1.1-0.7c-36.3-21.5-72.9-42.5-109.5-63.6
		c-2.5-1.5-5.4-3.2-8.1-3.2c-5.8,0.1-9.6-2.9-13.3-6.7c-4.4-4.4-10.3-6.1-16.5-7.6c-1.1-0.3-2.3-0.2-3.4,0.1
		c-0.4,0.1-0.7,0.3-0.9,0.6c-0.3,0.7,0.3,2,0.9,2.9c4.3,6.7,10.3,10.9,18.2,11.7c3.4,0.4,5.5,2.1,7.7,4.4c2.3,2.5,4.6,5.1,7.5,6.8
		c3.3,1.9,6.6,3.8,9.8,5.7c8.7,5.5,9.7,18.4,5.3,16.8c-6.3-3.6-12.7-7.3-19-10.8l0,0c-1.5-0.8-3.4,0.2-3.4,1.9c0,0.3,0,0.5,0.1,0.8
		c2.5,11.8,6.4,22.7,11.6,32.9c1,2,2.2,4.2,3.2,6c0,0,0,0,0,0c26.4,47-2.6,80.6,14.5,86.8c1.8,0.6,3.7,0.8,5.5,0.3
		c19.6-5.1-5.3-66.1,6.6-55.5c21.7,18.6,47,28.3,75.3,30.1c11.4,0.7,22.8-0.5,34-3.2c5.8-1.5,11.6-3.4,17.6-5.2
		c0.8-0.2,1.1-1.1,0.7-1.8c0-0.1-0.1-0.1-0.1-0.1c-8.5-4.4-17-8.8-25.5-13.1c-0.9-0.5-2.1-0.6-3.1-0.6c-7.5,0.2-14.9,1.1-22.4,0.7
		c-6.6-0.4-13.2-1.8-19.7-3.3c-4.3-0.9-6.1-3.4-5.7-7.6c0.3-3.7,1.4-7.4,2.3-11.1c0.5-1.9,0.8-4-1.4-4.8c-2.2-0.8-3.8,0.4-4.8,2.4
		c-0.7,1.6-1.2,3.4-2.2,4.7c-4.8,6.5-8,8.9-15.1,4.7c-5.6-3.3-10.7-7.1-15.4-11.3c-7.4-6.7-13.3-14.9-17-24.2
		c-6.3-15.8-0.1-18.6,7.4-17c2.4,0.5,4.6,1.4,6.8,2.7c15.6,9.1,31.2,18.1,46.9,26.9c25.3,14.2,50.9,27.8,76.5,41.5
		c3.4,1.9,6.9,3.6,10.4,5.4c4.6,2.3,8.3,6.1,10.6,10.6c15.8,31.3-5.5,73.9,11.5,73.6c21.7,0-11.6-63.8,4.9-69.7
		c1.4-0.5,1.8-2.2,0.7-3.2c-0.2-0.1-0.3-0.3-0.5-0.4c-9.7-6.3-19.3-12.6-29-18.9c-12-7.7-22.3-17.8-30.2-29.7
		c-6-9.1-9.1-17-4.7-17.3c1-0.1,1.9,0.3,2.7,0.9c21.3,16.9,42.2,33.5,63.5,50.4c3.2,2.5,6.3,5.1,9.7,7.4c0.2,0.1,0.4,0.2,0.7,0.2
		c1.7,0.1,2.9-1.3,2.6-3c-0.1-0.3-0.1-0.6-0.3-0.9c-0.4-0.9-1.5-1.6-2.3-2.3c-6.4-5.5-12.9-11-19.3-16.5
		c-15.5-13.2-31.1-26.3-46.5-39.5c-8.8-7.5-17.5-15-26.3-22.5c-2.2-1.8-4.1-4-5.5-6.4c-3.4-5.9-3.4-11.6,0.2-16.7
		c1.6-2.2,3.5-1.5,5.5-0.7c2.7,1.1,5.4,2,8,3.1c15.4,6.6,30.9,13.2,46.3,19.9c6.7,2.9,13.4,5.6,19.9,8.7c5.8,2.8,7.5,8.8,4,14.1
		C299.2,200.1,295.5,205.2,291.6,210.1z M226.7,42.3c1-0.5,2.2-0.6,3.3-0.5c2.5,0.4,5,0.7,7.4,1.2c6.8,1.3,9.7,6.3,7.4,13
		c-0.4,1.2-0.9,2.5-1.4,3.7c-1.4,3.8-6,5.2-9.3,2.9C227.3,57.7,220.5,45.5,226.7,42.3z M207.7,136.2c-0.9,0.6-2.4,0.5-3.6,0.2
		c-1.6-0.4-3.2-1.1-4.8-1.7c0,0-0.3-0.2-0.5,0c-0.2,0.2,0.1,0.8,0.1,0.8c0.2,0.4,0.2,0.5,0.6,1.1c4.5,7.7,13.9,26.1,3.3,18.1
		c-14.4-12.3-28.8-24.5-43.1-36.8c-5.6-4.8-11.2-9.7-16.8-14.5c-3.3-2.8-6.1-6.1-8.2-9.9c-3.9-6.9-3.1-10.8,1.6-16.9
		c7-8.6,15.4-15.6,24.8-21.4c5.5-3.4,9.4-2.5,12.7,3c0.7,1.1,1.3,2.3,1.8,3.5c7.2,15.9,14.4,31.8,21.5,47.7
		c3.5,7.8,7,15.6,10.5,23.5C208.1,134,208.2,135.9,207.7,136.2z M216.4,130.5c-0.1,0.3-0.2,0.5-0.4,0.7c-1.3,1.8-4,1.4-4.8-0.6l0,0
		c-7.1-17.8-14.1-35.7-21.1-53.6c-3.1-7.9-6-15.8-8.8-23.7c-1.5-4.3,0.6-8.2,5-9.1c3-0.6,6-1.1,8.9-1.6c1-0.2,2-0.3,3-0.3
		c17,0,39.2,24.5,33.1,49.2C226.5,104.6,221.5,117.6,216.4,130.5z M224.1,135.9L224.1,135.9c-2.1,0.9-4.4-0.8-4-3
		c0-0.3,0.1-0.5,0.2-0.7c3.8-8.8,7.7-17.5,11.6-26.2c6.6-14.6,13.2-29.1,19.7-43.8c4.3-9.9,9.2-11.5,18.4-5.6
		c12.9,8.2,23.3,19,31.5,31.9c0,0,0,0.1,0.1,0.1c1.8,2.9,2.1,6.6,0.7,9.7c-0.9,2-2.3,3.5-4.6,4.5c-11.2,5.1-22.3,10.3-33.5,15.3
		C250.8,124.2,237.5,130.1,224.1,135.9z M229.5,146.9c-0.6-0.2-1.1-0.4-1.7-0.6c-0.8-0.3-1.5-0.8-2.2-1.3c-1.6-1.2-1.5-3.7,0.1-4.8
		c0.7-0.5,1.4-0.9,2.2-1.2c3.5-1.4,7.1-2.8,10.6-4.1c0.9-0.4,2-0.4,2.9-0.1C247.1,136.8,239.9,148.4,229.5,146.9z M302,174.1
		c-9.4-2.7-18.4-6.5-27.5-9.9c-8-3-16.1-6.1-24.1-9.2c-5.1-2-7.3-8.2-4.3-12.8c2.2-3.3,5.6-6.7,9.4-9.7c6.6-5.4,14.1-9.6,22-12.6
		c6.4-2.5,12.7-4.9,19.1-7.4c3.8-1.5,7.5-2,11.6-0.9c3.4,1,5.3,3.1,5.8,6.4c0.1,0.9,0.3,1.7,0.4,2.6c2.3,15.4,2.2,31.1-0.4,46.4
		l0,0.2C312.9,172.9,309.7,176.3,302,174.1z"/>
	<path d="M94.6,101.1c0,0.1-0.1,0.2-0.1,0.3c-2,7.4-3.9,14.8-5.8,22.2c-0.6,2.5,0.9,3.2,2.9,3.7c6.1,1.5,12.2,3.1,18.3,4.7
		c1.8,0.5,2.6,0.1,2.9-1.8c0.8-4.7,1.6-9.5,2.8-14.1c0.5-2.1,0-3.3-1.6-4.5c-4.8-3.5-9.5-7.1-14.2-10.6c-0.5-0.3-1-0.6-1.6-0.9
		C96.9,99.3,95.2,99.7,94.6,101.1z"/>
	<path d="M165.5,165.4c2.2-0.3,4.5-1,6.6-2c0.8-0.4,1.4-1.3,2-2.2c0.3-0.4,0.2-1-0.2-1.3c-0.7-0.5-1.4-1.1-2-1.6
		c-0.4-0.3-1-0.4-1.5-0.2c-2.5,1-4.8,1.7-6.8,2.8c-0.8,0.4-1.6,2.4-1.2,3.1C162.7,164.9,164.5,165.6,165.5,165.4z"/>
	<path d="M201.6,181.7c0.3-0.3,0.3-0.7,0-1c-1.4-1.2-2.5-2.4-3.2-1.9c-1.4,0.9-2.3,2-3.1,3.4c-0.4,0.7,1.4,2.8,2.1,2.5
		C198.8,184,199.9,183,201.6,181.7z"/>
	<path d="M80.4,70.5C80.4,70.5,80.4,70.5,80.4,70.5c0.1,0.3,0.2,0.5,0.4,0.7c0.6,0.9,1.2,1.9,1.7,2.9c5.3,12.5-4.5,31.8,5,32.1
		c10.5,0.6-8.4-31.8,5.4-26.4c1.4,0.5,2.9-0.9,5.7-3.7c0.9-0.9,1.7-1.8,2.4-2.8c0.9-1.2,1.2-2.8,0.6-4.1c-0.1-0.2-0.2-0.4-0.3-0.5
		c-3-3.2-6-6.5-9.2-9.4c-0.7-0.6-3-0.5-3.8,0.2c-2.5,2.1-4.9,4.5-7,7C80.1,68,79.9,69.3,80.4,70.5L80.4,70.5z"/>
</g>
</svg>
