<?xml version="1.0" encoding="utf-8"?>
<!-- Generator: Adobe Illustrator 23.0.6, SVG Export Plug-In . SVG Version: 6.00 Build 0)  -->
<svg version="1.1"
	 id="svg10" xmlns:cc="http://creativecommons.org/ns#" xmlns:dc="http://purl.org/dc/elements/1.1/" xmlns:inkscape="http://www.inkscape.org/namespaces/inkscape" xmlns:rdf="http://www.w3.org/1999/02/22-rdf-syntax-ns#" xmlns:sodipodi="http://sodipodi.sourceforge.net/DTD/sodipodi-0.dtd" xmlns:svg="http://www.w3.org/2000/svg"
	 xmlns="http://www.w3.org/2000/svg" xmlns:xlink="http://www.w3.org/1999/xlink" x="0px" y="0px" viewBox="0 0 400 400"
	 style="enable-background:new 0 0 400 400;" xml:space="preserve">
<path d="M333.9,33.2L272.8,8.6c-2.1-0.9-4.6-0.4-6.2,1.3L162.9,113.6c-2,2-5.3,2.2-7.6,0.5L92.8,65c-1.7-1.3-4-1.6-6-0.7L65.7,74.5
	c-2,1-3.2,3-3.2,5.2l0,123.9c0,6.2,1.5,12.2,4.4,17.7c25.2,47.6-17.8,124.8,22.6,129c1.9,0.2,3.8,0.2,5.7-0.2
	c32.2-7-35.8-98.4,32-150.7l-0.4,0.1l28.5-22.2c2.3-1.8,5.5-1.6,7.5,0.5l100.4,99.8c31.9,41.6-6.3,88.4,14.9,99.2
	c3.8,2,8.4,2,12.4,0.5c24.5-9.1-11.5-57.6,12.7-96.7c6.3-10.2,15.8-17.9,26.9-22.3l3.7-1.5c2.2-0.9,3.6-3,3.6-5.3v-213
	C337.5,36.2,336.1,34.1,333.9,33.2z M129.4,147.6L94.9,183c-1.8,1.8-4.9,0.6-4.9-2v-69.9c0-2.5,3.1-3.8,4.9-2l34.5,34.5
	C130.5,144.7,130.5,146.5,129.4,147.6z M231.5,172.3l-31.1-24.5c-1.5-1.1-1.5-3.3,0-4.5l4.4-3.5c4.1-3.3,9.9-3.9,14.5-1.5
	c17.2,9.2,36.4,44.5,18.4,37.5C235.5,175,233.4,173.8,231.5,172.3z M268.9,170.8c0,1.5-0.4,3-1.3,4.3c-6.9,9.6-18.3-24.4-17.3-60.3
	c0.2-7,3.5-13.6,9-18l4.9-3.9c1.9-1.5,4.6-0.1,4.6,2.2V170.8z"/>
</svg>
