<?xml version="1.0" encoding="utf-8"?>
<!-- Generator: Adobe Illustrator 23.0.1, SVG Export Plug-In . SVG Version: 6.00 Build 0)  -->
<svg version="1.1"
	 id="svg10" inkscape:version="0.92.1 r15371" sodipodi:docname="visualstudio.svg" xmlns:cc="http://creativecommons.org/ns#" xmlns:dc="http://purl.org/dc/elements/1.1/" xmlns:inkscape="http://www.inkscape.org/namespaces/inkscape" xmlns:rdf="http://www.w3.org/1999/02/22-rdf-syntax-ns#" xmlns:sodipodi="http://sodipodi.sourceforge.net/DTD/sodipodi-0.dtd" xmlns:svg="http://www.w3.org/2000/svg"
	 xmlns="http://www.w3.org/2000/svg" xmlns:xlink="http://www.w3.org/1999/xlink" x="0px" y="0px" viewBox="0 0 400 400"
	 style="enable-background:new 0 0 400 400;" xml:space="preserve">
<sodipodi:namedview  bordercolor="#666666" borderopacity="1" fit-margin-bottom="50" fit-margin-left="0" fit-margin-right="0" fit-margin-top="0" gridtolerance="10" guidetolerance="10" id="namedview12" inkscape:current-layer="svg10" inkscape:cx="-80.7797" inkscape:cy="-14.017247" inkscape:pageopacity="0" inkscape:pageshadow="2" inkscape:window-height="705" inkscape:window-maximized="1" inkscape:window-width="1366" inkscape:window-x="-8" inkscape:window-y="245" inkscape:zoom="1.3037281" objecttolerance="10" pagecolor="#ffffff" showgrid="false">
	</sodipodi:namedview>
<title  id="title6">visualstudio-plain</title>
<path d="M341.4,31.1L276.9,5c-2.2-0.9-4.8-0.4-6.5,1.3L160.8,115.9c-2.2,2.2-5.6,2.4-8,0.5l-66-51.7c-1.8-1.4-4.3-1.7-6.3-0.7
	L58.3,74.6c-2.1,1-3.4,3.1-3.4,5.4l0,130.8c0,6.5,1.6,12.9,4.7,18.7c26.6,50.2-18.7,131.7,23.8,136.2c2,0.2,4,0.2,6-0.2
	c34-7.4-37.7-103.9,33.8-159.1l-0.5,0.1l30.1-23.4c2.4-1.9,5.8-1.7,8,0.5l106,105.4c33.6,43.9-6.6,93.4,15.8,104.8
	c4,2.1,8.8,2.1,13.1,0.6c25.9-9.6-12.1-60.8,13.4-102.1c6.6-10.7,16.7-18.9,28.4-23.6l3.9-1.6c2.3-0.9,3.8-3.1,3.8-5.6V36.6
	C345.2,34.2,343.7,32,341.4,31.1z M125.5,151.8l-36.4,37.4c-1.9,1.9-5.2,0.6-5.2-2.1v-73.8c0-2.7,3.2-4,5.1-2.1l36.4,36.4
	C126.6,148.7,126.6,150.6,125.5,151.8z M233.3,177.9L200.4,152c-1.5-1.2-1.5-3.5,0-4.7l4.7-3.7c4.4-3.5,10.4-4.2,15.3-1.5
	c18.2,9.7,38.4,47,19.4,39.6C237.5,180.8,235.3,179.4,233.3,177.9z M272.7,176.3c0,1.6-0.4,3.2-1.3,4.5
	c-7.2,10.1-19.3-25.7-18.3-63.7c0.2-7.4,3.7-14.4,9.5-19l5.2-4.1c2-1.6,4.9-0.2,4.9,2.4V176.3z"/>
</svg>
