<?xml version="1.0" encoding="utf-8"?>
<!-- Generator: Adobe Illustrator 23.0.6, SVG Export Plug-In . SVG Version: 6.00 Build 0)  -->
<svg version="1.1"
	 id="svg8" xmlns:cc="http://creativecommons.org/ns#" xmlns:dc="http://purl.org/dc/elements/1.1/" xmlns:inkscape="http://www.inkscape.org/namespaces/inkscape" xmlns:rdf="http://www.w3.org/1999/02/22-rdf-syntax-ns#" xmlns:sodipodi="http://sodipodi.sourceforge.net/DTD/sodipodi-0.dtd" xmlns:svg="http://www.w3.org/2000/svg"
	 xmlns="http://www.w3.org/2000/svg" xmlns:xlink="http://www.w3.org/1999/xlink" x="0px" y="0px" viewBox="0 0 400 400"
	 style="enable-background:new 0 0 400 400;" xml:space="preserve">
<path d="M193.9,109.3c-17.4,4.7-56.8,6.6-48.9-39.6c1.1-6.8,3.2-13.4,5.8-19.7l9.6-22.7c2-4.8-1.5-10-6.6-10h-84
	c-4,0-7.2,3.2-7.2,7.2v199.2c0,7.9,10.8,10,13.8,2.8l26.3-62.4c7.6-18.1,24.4-30.7,44-33c35.5-4.1,34.9,10.4,27.5,33.7
	c-2.4,7.8-5.3,15.4-8.5,22.9l-5.6,13.3c-2,4.8,1.5,10,6.6,10h28.9c4.5,0,8.6,2.7,10.3,6.9l11,27.2c3.1,7.7,6.9,15,11.2,22.1
	c27.7,46.7-9.8,133.7,23.4,134.2c24.6-0.2-18.4-87.8,9.2-135.6c2.3-4,2.7-8.9,0.9-13.2l-59.1-139.2
	C200.9,110.1,197.3,108.4,193.9,109.3z"/>
<path d="M239.7,25l87,208.4c2.4,5.7,10.8,4,10.8-2.2V22.9c0-3.1-2.5-5.6-5.6-5.6h-87C240.9,17.3,238.2,21.3,239.7,25z"/>
</svg>
