<?xml version="1.0" encoding="utf-8"?>
<!-- Generator: Adobe Illustrator 23.0.1, SVG Export Plug-In . SVG Version: 6.00 Build 0)  -->
<svg version="1.1"
	 id="svg8" inkscape:version="0.92.1 r15371" sodipodi:docname="Adobe.svg" xmlns:cc="http://creativecommons.org/ns#" xmlns:dc="http://purl.org/dc/elements/1.1/" xmlns:inkscape="http://www.inkscape.org/namespaces/inkscape" xmlns:rdf="http://www.w3.org/1999/02/22-rdf-syntax-ns#" xmlns:sodipodi="http://sodipodi.sourceforge.net/DTD/sodipodi-0.dtd" xmlns:svg="http://www.w3.org/2000/svg"
	 xmlns="http://www.w3.org/2000/svg" xmlns:xlink="http://www.w3.org/1999/xlink" x="0px" y="0px" viewBox="0 0 400 400"
	 style="enable-background:new 0 0 400 400;" xml:space="preserve">
<sodipodi:namedview  bordercolor="#666666" borderopacity="1" fit-margin-bottom="50" fit-margin-left="0" fit-margin-right="0" fit-margin-top="0" gridtolerance="10" guidetolerance="10" id="namedview10" inkscape:current-layer="svg8" inkscape:cx="-43.44625" inkscape:cy="66.604988" inkscape:pageopacity="0" inkscape:pageshadow="2" inkscape:window-height="1017" inkscape:window-maximized="1" inkscape:window-width="1920" inkscape:window-x="1358" inkscape:window-y="-8" inkscape:zoom="5.6568543" objecttolerance="10" pagecolor="#ffffff" showgrid="false">
	</sodipodi:namedview>
<g id="Layer_1">
</g>
<g>
	<path d="M193.8,98.9c-17.6,4.8-57.4,6.7-49.4-40c1.2-6.8,3.2-13.5,5.9-19.9l9.7-23c2-4.8-1.5-10.1-6.7-10.1H68.3
		c-4,0-7.3,3.3-7.3,7.3v201.3c0,7.9,10.9,10.2,14,2.8l26.6-63.1c7.7-18.3,24.7-31,44.4-33.3c35.9-4.2,35.2,10.5,27.8,34.1
		c-2.5,7.8-5.4,15.5-8.6,23.1l-5.7,13.4c-2,4.8,1.5,10.1,6.7,10.1h29.2c4.6,0,8.7,2.8,10.4,7l11.1,27.4c3.1,7.7,7,15.1,11.3,22.3
		c28,47.2-9.9,135.2,23.6,135.7c24.9-0.2-18.6-88.7,9.3-137c2.4-4.1,2.8-9,0.9-13.3l-59.7-140.7C201,99.8,197.3,98,193.8,98.9z"/>
	<path d="M240.2,13.7l87.9,210.6c2.4,5.7,10.9,4,10.9-2.2V11.6c0-3.1-2.5-5.7-5.7-5.7h-87.9C241.4,5.9,238.6,10,240.2,13.7z"/>
</g>
</svg>
