<?xml version="1.0" encoding="utf-8"?>
<!-- Generator: Adobe Illustrator 23.0.1, SVG Export Plug-In . SVG Version: 6.00 Build 0)  -->
<svg version="1.1"
	 id="svg6" inkscape:version="0.92.1 r15371" sodipodi:docname="nginx.svg" xmlns:cc="http://creativecommons.org/ns#" xmlns:dc="http://purl.org/dc/elements/1.1/" xmlns:inkscape="http://www.inkscape.org/namespaces/inkscape" xmlns:rdf="http://www.w3.org/1999/02/22-rdf-syntax-ns#" xmlns:sodipodi="http://sodipodi.sourceforge.net/DTD/sodipodi-0.dtd" xmlns:svg="http://www.w3.org/2000/svg"
	 xmlns="http://www.w3.org/2000/svg" xmlns:xlink="http://www.w3.org/1999/xlink" x="0px" y="0px" viewBox="0 0 400 400"
	 style="enable-background:new 0 0 400 400;" xml:space="preserve">
<sodipodi:namedview  bordercolor="#666666" borderopacity="1" gridtolerance="10" guidetolerance="10" id="namedview8" inkscape:current-layer="svg6" inkscape:cx="-79.761624" inkscape:cy="76.343624" inkscape:pageopacity="0" inkscape:pageshadow="2" inkscape:window-height="705" inkscape:window-maximized="1" inkscape:window-width="1366" inkscape:window-x="-8" inkscape:window-y="245" inkscape:zoom="2" objecttolerance="10" pagecolor="#ffffff" showgrid="false">
	</sodipodi:namedview>
<g>
	<path d="M138.7,153.2c-6.7-4.4-4.7-10.2,1.9-14.4c2.2-1.4,4.7-2.1,7.3-2.1h7.7c1.2,0,2.2,0.6,2.8,1.7l4.8,9.1
		c0.5,1,1.6,1.7,2.8,1.7h10.3c2.3,0,3.8-2.3,2.8-4.4l-9.9-21.7c-0.5-1.1-1.6-1.8-2.8-1.8h-45.5c-1.1,0-2.1,0.6-2.7,1.6l-20.9,36.6
		c-0.5,0.9-0.5,2.1,0,3l18.9,34.3c1.7,3.1,4,6,6.6,8.4c32.9,30.7-6.1,70.5,21.5,75.3c24.7-4.3-11.9-51.1,17.5-75.6
		c2.7-2.2,4.9-5,6.3-8.3l0,0l13.3-27.9l3.6-8.2c0.9-2.1-0.6-4.4-2.8-4.4c-8.1,0-24.6-0.1-33.3,0
		C145.3,156.1,141.7,155.2,138.7,153.2z M153.2,186.3h-22.4c-1.2,0-2.2-0.6-2.7-1.7l-11.4-21.4c-0.5-0.9-0.5-2,0-2.9l5.2-9.7
		c4.2-8.7,7.5,5,9.4,15.9c0,0,0,0,0,0.1c0,0,0,0,0,0l0,0c0.9,3.7,4.4,7,8.2,7l16.4,0c2.2,0,3.7,2.2,2.9,4.3l-2.6,6.5
		C155.6,185.6,154.5,186.3,153.2,186.3z"/>
	<path d="M78.4,119.6c-4.4-0.1-7.9,3.9-7.9,8.3v38.1c0,2.1-2.5,3.1-4,1.6l-45.3-45.6c-2.5-2.5-6.8-3.1-9.9-1.9s-5.9,4.3-5.9,7.8
		v64.2c0,4.7,4.7,8.4,9.3,8.4s9.3-3.7,9.3-8.4v-38.1c0-2.1,2.5-3.1,4-1.7l28.4,28.2c29.4,32.2-10.9,85.1,17.6,86.6
		c19.4-1.9,1.9-32.1,6.6-58c0.8-4.3,2.8-8.3,4.7-12.3c0.6-1.4,0.9-3,0.9-4.7v-63.9C86.1,123.7,83,119.7,78.4,119.6z"/>
	<path d="M204,119.6c-4.3,0-9.3,4-9.3,8.4v18c0,1.7,1.4,3.1,3.1,3.1h12.4c1.7,0,3.1-1.4,3.1-3.1v-17.7
		C213.3,123.7,208.4,119.6,204,119.6z"/>
	<path d="M298.3,120.5c-3.1-1.2-7.4-0.6-9.6,1.9l-18.7,18.3c-7.7,7.2-25.7,8.4-32-13.9c-0.6-3.8-3.3-6.7-7.2-6.9
		c-4.5-0.2-8.2,3.8-8.2,8.3v64.3c0,3.4,2.2,6.5,5.3,7.8c0.9,0.3,2.2,0.6,3.1,0.6c2.2,0,5-0.9,6.5-2.5l45-44.4c2-1.9,5.3-0.5,5.3,2.2
		l0,36.4c0,4.4,3.4,8.4,7.9,8.3c4.6-0.1,7.7-3.8,7.7-8.4v-64.2C303.3,124.9,301.4,121.8,298.3,120.5z M247,163.4l-3.5,3.5
		c-2,1.9-5.3,0.5-5.3-2.2v-2.5c0-2.5,1.3-4.9,3.6-5.8C246.1,154.5,250.6,158.3,247,163.4z"/>
	<path d="M194.7,192.2c0,4.3,4.7,8.4,9.3,8.4c4.3,0,9.3-4,9.3-8.4v-33.8c0-1.7-1.4-3.1-3.1-3.1h-12.4c-1.7,0-3.1,1.4-3.1,3.1V192.2z
		"/>
	<path d="M393.8,188.7c-16-32.2-2.2-48.2,0.6-58.5c0-0.2,0.1-0.3,0.1-0.5c0-0.1,0-0.1,0-0.2l0,0c0.4-2.6-0.4-5.2-2.4-7.1
		c-3.4-3.4-8.7-3.4-11.8,0l-23.9,23.9c-1.2,1.2-3.2,1.2-4.4,0l-23.9-23.9c-3.4-3.4-8.7-3.4-11.8,0c-3.4,3.4-3.4,8.7,0,11.8
		l23.9,23.9c1.2,1.2,1.2,3.2,0,4.4l-23.9,23.9c-3.4,3.4-3.4,8.7,0,11.8c1.6,1.6,3.7,2.5,5.9,2.5c2.2,0,4.3-0.9,5.9-2.5l23.9-23.9
		c1.2-1.2,3.2-1.2,4.4,0l23.9,23.9c1.6,1.6,3.7,2.5,5.9,2.5s4.3-0.9,5.9-2.5C394.7,195.5,395.3,191.7,393.8,188.7z M374.1,168.4
		L374.1,168.4l-5.9-5.9c-1.2-1.2-1.2-3.2,0-4.4l3.1-3.1C375,151.5,382.6,175.5,374.1,168.4z"/>
</g>
</svg>
