<?xml version="1.0" encoding="utf-8"?>
<!-- Generator: Adobe Illustrator 23.0.6, SVG Export Plug-In . SVG Version: 6.00 Build 0)  -->
<svg version="1.1"
	 id="svg6" xmlns:cc="http://creativecommons.org/ns#" xmlns:dc="http://purl.org/dc/elements/1.1/" xmlns:inkscape="http://www.inkscape.org/namespaces/inkscape" xmlns:rdf="http://www.w3.org/1999/02/22-rdf-syntax-ns#" xmlns:sodipodi="http://sodipodi.sourceforge.net/DTD/sodipodi-0.dtd" xmlns:svg="http://www.w3.org/2000/svg"
	 xmlns="http://www.w3.org/2000/svg" xmlns:xlink="http://www.w3.org/1999/xlink" x="0px" y="0px" viewBox="0 0 400 400"
	 style="enable-background:new 0 0 400 400;" xml:space="preserve">
<path d="M156.7,137.3c-4.7-3.1-3.3-7.2,1.3-10.2c1.5-1,3.3-1.5,5.2-1.5h5.5c0.8,0,1.6,0.5,1.9,1.2l3.4,6.4c0.4,0.7,1.1,1.2,1.9,1.2
	h7.3c1.6,0,2.7-1.7,2-3.1l-7-15.3c-0.4-0.8-1.1-1.3-2-1.3H144c-0.8,0-1.5,0.4-1.9,1.1l-14.8,25.9c-0.4,0.7-0.4,1.5,0,2.2l13.4,24.2
	c1.2,2.2,2.8,4.2,4.7,5.9c23.3,21.7-4.3,49.8,15.2,53.2c17.4-3-8.4-36.1,12.4-53.4c1.9-1.6,3.5-3.5,4.4-5.8l0,0l9.4-19.7l2.6-5.8
	c0.6-1.4-0.4-3.1-2-3.1c-5.7,0-17.4-0.1-23.5,0C161.4,139.3,158.8,138.7,156.7,137.3z M166.9,160.7h-15.8c-0.8,0-1.6-0.4-1.9-1.2
	l-8-15.1c-0.3-0.6-0.3-1.4,0-2.1l3.6-6.9c3-6.1,5.3,3.5,6.7,11.2c0,0,0,0,0,0c0,0,0,0,0,0l0,0c0.6,2.6,3.1,5,5.8,5l11.6,0
	c1.6,0,2.6,1.6,2,3l-1.9,4.6C168.6,160.1,167.8,160.7,166.9,160.7z"/>
<path d="M114.1,113.5c-3.1,0-5.6,2.8-5.6,5.9v26.9c0,1.5-1.8,2.2-2.8,1.2l-32-32.2c-1.8-1.8-4.8-2.2-7-1.3c-2.2,0.9-4.2,3.1-4.2,5.5
	v45.4c0,3.3,3.3,5.9,6.6,5.9s6.6-2.6,6.6-5.9v-26.9c0-1.5,1.8-2.2,2.8-1.2l20,19.9c20.8,22.7-7.7,60.1,12.4,61.2
	c13.7-1.4,1.3-22.6,4.6-41c0.6-3.1,2-5.8,3.3-8.7c0.5-1,0.6-2.1,0.6-3.4v-45.2C119.5,116.4,117.3,113.6,114.1,113.5z"/>
<path d="M202.8,113.5c-3.1,0-6.6,2.9-6.6,5.9v12.7c0,1.2,1,2.2,2.2,2.2h8.8c1.2,0,2.2-1,2.2-2.2v-12.5
	C209.4,116.4,205.9,113.5,202.8,113.5z"/>
<path d="M269.5,114.2c-2.2-0.9-5.3-0.4-6.8,1.3l-13.2,13c-5.4,5.1-18.1,5.9-22.6-9.8c-0.4-2.7-2.3-4.8-5.1-4.9
	c-3.2-0.2-5.8,2.7-5.8,5.9v45.4c0,2.4,1.5,4.6,3.7,5.5c0.7,0.2,1.5,0.4,2.2,0.4c1.5,0,3.5-0.7,4.6-1.8l31.8-31.4
	c1.4-1.4,3.7-0.4,3.7,1.6v25.7c0,3.1,2.4,5.9,5.6,5.9c3.2,0,5.4-2.7,5.4-5.9v-45.4C273,117.3,271.7,115.1,269.5,114.2z M233.2,144.5
	l-2.5,2.4c-1.4,1.4-3.7,0.4-3.7-1.6v-1.8c0-1.7,0.9-3.5,2.5-4.1C232.6,138.1,235.8,140.9,233.2,144.5z"/>
<path d="M196.3,164.8c0,3.1,3.3,5.9,6.6,5.9c3.1,0,6.6-2.9,6.6-5.9v-23.9c0-1.2-1-2.2-2.2-2.2h-8.8c-1.2,0-2.2,1-2.2,2.2V164.8z"/>
<path d="M336.9,162.3c-11.3-22.8-1.5-34.1,0.4-41.3c0-0.1,0.1-0.2,0.1-0.4c0,0,0-0.1,0-0.1l0,0c0.3-1.8-0.3-3.7-1.7-5
	c-2.4-2.4-6.1-2.4-8.3,0l-16.9,16.9c-0.9,0.9-2.3,0.9-3.1,0l-16.9-16.9c-2.4-2.4-6.1-2.4-8.3,0c-2.4,2.4-2.4,6.1,0,8.3l16.9,16.9
	c0.9,0.9,0.9,2.3,0,3.1l-16.9,16.9c-2.4,2.4-2.4,6.1,0,8.3c1.1,1.1,2.6,1.8,4.2,1.8s3.1-0.7,4.2-1.8l16.9-16.9
	c0.9-0.9,2.3-0.9,3.1,0l16.9,16.9c1.1,1.1,2.6,1.8,4.2,1.8c1.5,0,3.1-0.7,4.2-1.8C337.6,167.1,338,164.4,336.9,162.3z M323,148
	L323,148l-4.2-4.2c-0.9-0.9-0.9-2.3,0-3.1l2.2-2.2C323.7,136.1,329,153,323,148z"/>
</svg>
