<?xml version="1.0" encoding="utf-8"?>
<!-- Generator: Adobe Illustrator 23.0.6, SVG Export Plug-In . SVG Version: 6.00 Build 0)  -->
<svg version="1.1"
	 id="svg2" xmlns:cc="http://creativecommons.org/ns#" xmlns:dc="http://purl.org/dc/elements/1.1/" xmlns:inkscape="http://www.inkscape.org/namespaces/inkscape" xmlns:rdf="http://www.w3.org/1999/02/22-rdf-syntax-ns#" xmlns:sodipodi="http://sodipodi.sourceforge.net/DTD/sodipodi-0.dtd" xmlns:svg="http://www.w3.org/2000/svg"
	 xmlns="http://www.w3.org/2000/svg" xmlns:xlink="http://www.w3.org/1999/xlink" x="0px" y="0px" viewBox="0 0 400 400"
	 style="enable-background:new 0 0 400 400;" xml:space="preserve">
<path d="M111.7,79.8h-8.3c-2.3,0-4.2,1.9-4.2,4.2v63.1c0,3-0.4,6.1-1.2,9c-6.9,24.2-17.9-40.2-19-71.5c-0.1-2.6-2.2-4.7-4.8-4.7
	h-7.6c-2.3,0-4.2,1.9-4.2,4.2V203c0,2.3,1.9,4.2,4.2,4.2h8.1c2.3,0,4.2-1.9,4.2-4.2v-32.6c0-1.1,0.1-2.3,0.3-3.4
	c2.6-13,13.4,19.6,18.7,36.3c0.8,2.6,3.2,4.3,5.9,4.3h7.9c2.3,0,4.2-1.9,4.2-4.2l0-119.4C115.9,81.7,114,79.8,111.7,79.8z"/>
<path d="M148.8,79.8h-8.3c-2.3,0-4.2,1.9-4.2,4.2v122.2c0,0.8,0.3,1.5,0.8,2.1c13.1,13.6-6.2,41.3,8.2,41.7
	c13.7-0.6-3.8-27.6,7-41.8c0.4-0.5,0.6-1.2,0.6-1.9V84C153,81.7,151.1,79.8,148.8,79.8z"/>
<path d="M185.7,79.8h-8.3c-2.3,0-4.2,1.9-4.2,4.2v119.4c0,2.3,1.9,4.2,4.2,4.2h8.3c2.3,0,4.2-1.9,4.2-4.2V84
	C189.8,81.7,188,79.8,185.7,79.8z"/>
<path d="M333.2,190.8l-119.4,0c-2.3,0-4.1,1.8-4.2,4l-0.3,8.4c-0.1,2.4,1.8,4.3,4.2,4.3l79.4-0.1c2.4,0,4.8,0.3,7,1
	c30.8,9.3-4.9,67.8,17,68.6c22-0.3-15.9-61.5,17.1-69c1.9-0.4,3.2-2.1,3.2-4.1V195C337.3,192.7,335.5,190.8,333.2,190.8z"/>
<path d="M242,133.6h91.3c2.3,0,4.2-1.9,4.2-4.2v-8.1c0-2.3-1.9-4.2-4.2-4.2h-31.5c-1.8,0-3.6-0.1-5.4-0.2
	c-31.5-2.7,5.4-17.5,39.6-20c0.7-0.1,1.3-0.6,1.3-1.4l0-11.2c0-2.3-1.9-4.2-4.2-4.2H213.9c-2.3,0-4.2,1.9-4.2,4.2v8.3
	c0,2.3,1.9,4.2,4.2,4.2l33.9,0c2.3,0,4.5,0.2,6.8,0.6c21.5,4.3-18.2,17.9-42.9,19.6c-1,0.1-1.8,0.9-1.8,1.9c0,3.2,0,9.7,0,12.9
	c0,1,0.7,1.8,1.7,2c14,2,30.5,19.7,14.8,19.9h0c-0.3,0-0.5,0-0.8,0c0,0,0,0,0,0h-11.7c-2.3,0-4.2,1.9-4.2,4.2v8.3
	c0,2.3,1.9,4.2,4.2,4.2h119.4c2.3,0,4.2-1.9,4.2-4.2v-8.3c0-2.3-1.9-4.2-4.2-4.2h-67.5c-16.6,0-31.9-11-27.6-18
	C238.9,134.3,240.5,133.6,242,133.6z"/>
</svg>
