<?xml version="1.0" encoding="utf-8"?>
<!-- Generator: Adobe Illustrator 23.0.6, SVG Export Plug-In . SVG Version: 6.00 Build 0)  -->
<svg version="1.1"
	 id="svg8" xmlns:cc="http://creativecommons.org/ns#" xmlns:dc="http://purl.org/dc/elements/1.1/" xmlns:inkscape="http://www.inkscape.org/namespaces/inkscape" xmlns:rdf="http://www.w3.org/1999/02/22-rdf-syntax-ns#" xmlns:sodipodi="http://sodipodi.sourceforge.net/DTD/sodipodi-0.dtd" xmlns:svg="http://www.w3.org/2000/svg"
	 xmlns="http://www.w3.org/2000/svg" xmlns:xlink="http://www.w3.org/1999/xlink" x="0px" y="0px" viewBox="0 0 400 400"
	 style="enable-background:new 0 0 400 400;" xml:space="preserve">
<path d="M188.7,74.5c-0.7-2.4-2.9-4-5.3-4h-17.1c-2.5,0-4.7,1.7-5.4,4.1l-30.8,114.6c-0.9,3.5,1.7,7,5.4,7h8.6
	c2.5,0,4.7-1.7,5.4-4.1l7.4-27.6c0.5-1.9,2.5-3,4.4-2.3c19,6.5,32.5,11.1,40.4,31.1c0.8,2.1,2.9,3.5,5.1,3.5c2.9,0,7,0,10.5,0
	c3.7,0,6.4-3.6,5.3-7.1L188.7,74.5z M163.3,140.3c2.7-8,5-17.1,7.2-26.7c2.1-8.8,3.7-16.2,4.9-22.4c0.1-0.7,1.1-0.7,1.2,0
	c1.3,6.3,3.5,14.4,6.1,24.2c2.7,10.2,4.4,18,6.1,24.3c0.3,1.2-0.6,2.4-1.8,2.4h-22.3C163.7,142.1,163,141.2,163.3,140.3z
	 M188.8,167.8c-3.1-2-6.5-6.4-3.2-6.4l5.5,0.1c1.2,0,2.2,0.8,2.5,1.9l1.1,3.9C195.2,170.4,191.5,169.6,188.8,167.8z"/>
<path d="M327.8,9.2H72.2c-5.4,0-9.7,4.3-9.7,9.7v258c53.8,16.5,1.5,107,31.8,110.8c34-1.4-15.3-99.1,26.7-110.8h206.8
	c5.4,0,9.7-4.3,9.7-9.7V18.9C337.5,13.5,333.2,9.2,327.8,9.2z M326,256.3c0,5.4-4.3,9.7-9.7,9.7H83.7c-5.4,0-9.7-4.3-9.7-9.7V30.4
	c0-5.4,4.3-9.7,9.7-9.7h232.5c5.4,0,9.7,4.3,9.7,9.7V256.3z"/>
<path d="M261,87.5c2.4-1.8,3.6-4.9,3.6-8.5c0-3.6-0.6-6.7-3-8.5c-2.4-1.8-4.9-3-8.5-3c-3.6,0-6.1,1.2-8.5,3
	c-2.4,1.8-3.6,4.9-3.6,8.5c0,2.6,0.6,4.6,1.7,6.4c0.7,1.2,1.6,2.1,2.6,3c4.4,3.8,2.2,8.5-2.2,13.8c-0.6,0.7-0.9,1.6-0.9,2.5l0,85.9
	c0,3.1,2.5,5.5,5.5,5.5h9.6c3.1,0,5.5-2.5,5.5-5.5l0-85.6c0-1.1-0.4-2.1-1.2-2.9c-3-2.9-7.6-8-1.4-14.1
	C260.5,87.9,260.7,87.7,261,87.5z"/>
</svg>
