<?xml version="1.0" encoding="utf-8"?>
<!-- Generator: Adobe Illustrator 23.0.6, SVG Export Plug-In . SVG Version: 6.00 Build 0)  -->
<svg version="1.1"
	 id="svg8" xmlns:cc="http://creativecommons.org/ns#" xmlns:dc="http://purl.org/dc/elements/1.1/" xmlns:inkscape="http://www.inkscape.org/namespaces/inkscape" xmlns:rdf="http://www.w3.org/1999/02/22-rdf-syntax-ns#" xmlns:sodipodi="http://sodipodi.sourceforge.net/DTD/sodipodi-0.dtd" xmlns:svg="http://www.w3.org/2000/svg"
	 xmlns="http://www.w3.org/2000/svg" xmlns:xlink="http://www.w3.org/1999/xlink" x="0px" y="0px" viewBox="0 0 400 400"
	 style="enable-background:new 0 0 400 400;" xml:space="preserve">
<path d="M328,8.9H72c-5.2,0-9.5,4.2-9.5,9.5v248.8c0,5.2,2.3,10.3,6.3,13.6c32.7,26.8-9.4,94.6,22.6,97.7c21.9,0,1.1-42.8,6-73.8
	c2.5-16.3,16.8-28.1,33.3-28.1H328c5.2,0,9.5-4.2,9.5-9.5V18.3C337.5,13.1,333.3,8.9,328,8.9z M326,256.2c0,5.2-4.2,9.5-9.5,9.5
	h-233c-5.2,0-9.5-4.2-9.5-9.5V29.9c0-5.2,4.2-9.5,9.5-9.5h233c5.2,0,9.5,4.2,9.5,9.5V256.2z"/>
<path d="M252.5,101.1c-12.1,0-21.9,4.9-28.5,14.6c-6.7,9.7-10.3,21.2-10.3,34.6c0,12.7,3.6,23.7,9.7,33.4
	c4.1,6.1,10.3,10.2,18.5,12.4c3,0.8,5.8,2.1,8,4.2c16.7,15.3-7.2,50.3,10.6,50.7c15.5,0.7-11.6-43.1,16.2-57.3
	c0.2-0.1,0.7-0.3,1.1-0.5c0.9-0.4,1.4-1.3,1.4-2.3V178c0-0.9-0.9-1.5-1.8-1.2c-2.9,1.3-6.6,2.2-9.1,2.7c-3,0.6-6.7,0.6-9.7,0.6
	c-8.5,0-15.2-2.4-18.8-7.3c-3-4.1-5.2-9-5.9-15.1c-0.2-2,1.4-3.8,3.4-3.8l26.7,0c5.5,0,9.7,0,12.7,0c1.6,0,3.6,0,5.3,0
	c2.1,0,3.8-1.7,3.8-3.9v-3.4c0,0,0-4.2,0-7.3c0-8.5-2.4-17-7.3-25.5C273.8,105.4,265.3,101.1,252.5,101.1z M235.6,137.5
	c-1,0.1-1.8-0.8-1.6-1.8c0.8-4.1,2.4-7.8,4.6-11.5c2-3.5,5.2-5.3,9.4-5.9c1.2-0.2,2.4,0.1,3.4,0.8
	C256.8,123.3,248.2,136.3,235.6,137.5z M265.9,136.7v0.9c0,0.3-0.3,0.6-0.6,0.6h-1.8l-1.2,0c-0.3,0-0.7,0-1-0.1
	c-9-1.6-0.8-10.5,3.1-7.6c0.6,0.4,0.9,1,1.1,1.7c0.3,1.2,0.5,2.4,0.5,3.5C265.9,136.3,265.9,136.1,265.9,136.7z"/>
<path d="M171.6,74.2c-0.7-2.4-2.9-4-5.4-4h-16c-2.5,0-4.7,1.7-5.4,4.1L112,190.8c-0.6,2.2,1,4.4,3.4,4.4l11.6,0
	c2.4,0,4.6-1.3,5.8-3.4c9.6-17.1,24.8-27.7,39.8-30.5c2.6-0.5,5.2,1.2,5.8,3.8l6.3,25.7c0.7,3,3.4,5.1,6.5,5.1h10.6
	c2.9,0,5-2.8,4.1-5.6L171.6,74.2z M138.4,167.2l1-3.6c0.5-1.7,2-2.9,3.8-2.9h3.2l-0.1,0C150.8,161.3,139,173.2,138.4,167.2z
	 M168,141.8H150c-2.2,0-3.8-2.1-3.2-4.2c2-7.4,4.1-15.7,6.1-24.3c1.8-7.7,3.3-14.4,4.4-20c0.2-1.2,1.9-1.2,2.2,0
	c1.3,5.9,3.3,13.2,5.5,21.9c2.4,9.1,4.4,16.7,6.1,22.5C171.8,139.7,170.2,141.8,168,141.8z"/>
</svg>
