<?xml version="1.0" encoding="utf-8"?>
<!-- Generator: Adobe Illustrator 23.0.6, SVG Export Plug-In . SVG Version: 6.00 Build 0)  -->
<svg version="1.1"
	 id="svg8" xmlns:cc="http://creativecommons.org/ns#" xmlns:dc="http://purl.org/dc/elements/1.1/" xmlns:inkscape="http://www.inkscape.org/namespaces/inkscape" xmlns:rdf="http://www.w3.org/1999/02/22-rdf-syntax-ns#" xmlns:sodipodi="http://sodipodi.sourceforge.net/DTD/sodipodi-0.dtd" xmlns:svg="http://www.w3.org/2000/svg"
	 xmlns="http://www.w3.org/2000/svg" xmlns:xlink="http://www.w3.org/1999/xlink" x="0px" y="0px" viewBox="0 0 400 400"
	 style="enable-background:new 0 0 400 400;" xml:space="preserve">
<path d="M172.7,70.4h-62.4c-0.9,0-1.7,0.8-1.7,1.7V195c0,0.9,0.8,1.7,1.7,1.7h16.1c0.9,0,1.7-0.7,1.7-1.7
	c0.7-33.4,17.7-48.1,41.2-52.1c0.7-0.1,1.3-0.7,1.3-1.5l0-15.3c0-0.9-0.8-1.7-1.7-1.7h-38.5c-0.9,0-1.7-0.8-1.7-1.7V90.3
	c0-0.9,0.8-1.7,1.7-1.7h43.9c1,0,1.8-0.9,1.7-1.9l-1.6-14.9C174.3,71,173.6,70.4,172.7,70.4z M131.8,142.6h4.7
	c4,1-6.7,18.8-8.5,11.2v-7.4C128.1,144.3,129.8,142.6,131.8,142.6z"/>
<path d="M328.1,9.1H71.9c-5.2,0-9.4,4.2-9.4,9.4v248.9c0,5.2,4.2,9.4,9.4,9.4h218.2c4.5,0,9,1.5,12.5,4.4
	c24.6,21.4-20.5,95.1,13.4,96.1c29.7,0.8-12.5-75,15-96.9c4-3.2,6.5-7.9,6.5-13V18.5C337.5,13.3,333.3,9.1,328.1,9.1z M326,256.4
	c0,5.2-4.2,9.4-9.4,9.4H83.5c-5.2,0-9.4-4.2-9.4-9.4V30c0-5.2,4.2-9.4,9.4-9.4h233.1c5.2,0,9.4,4.2,9.4,9.4V256.4z"/>
<path d="M294.6,103.8h-11c-2.1,0-3.8,1.5-4.2,3.5c-1.9,9.5-7,36-8,43.9c-1.2,9.7-3,17.6-3.6,23.7c0,0,0,0.6-0.3,0.6
	c-0.3,0-0.3-0.6-0.3-0.6c-0.6-4.9-2.4-13.4-4.2-24.9c-1.7-10.8-4.8-26.4-7.7-43.7c-0.3-2.1-2.1-3.6-4.3-3.6l-14.7,0
	c-2,0-3.8,1.4-4.2,3.4c-1.9,9.3-7.2,35-9.2,43.9c-1.8,10.9-3.6,18.8-4.2,23.7c0,0,0,0.5-0.3,0.5c-0.3,0-0.3-0.5-0.3-0.5
	c-0.6-4.2-1.8-12.1-3.6-23.1c-1.7-10.3-4-25.4-7.3-43.8c-0.4-2.1-2.2-3.6-4.3-3.6l-12.5,0c-2.8,0-4.8,2.6-4.2,5.3
	c0,0,19,85.6,19.1,86c0.1,0.4,0.3,0.9,0.4,1.1c0.3,0.5,0.6,1,0.8,1.5c9.6,21.4-6.7,50.8,9,52.8c14.3-0.5-8.2-36.3,11.8-53.8
	c0.3-0.3,0.5-0.6,0.8-1.2c9.9-24,17.1-43.7,21.7-28.9c1.9,9.7,4,21,5.1,26.6c0.4,2,2.2,3.5,4.2,3.5h14.3c2,0,3.7-1.3,4.2-3.2
	l21.4-83.6C299.5,106.4,297.4,103.8,294.6,103.8z M243.2,138.1c-1.6,8.2-6.4,23-6.8,17.7c-0.1-0.7,0-1.5,0.2-2.2
	c0-0.2,0.1-0.5,0.1-0.7c2.1-9.9,3.7-18.5,4.9-24.9c0.1-0.6,0.9-0.6,1,0c0.2,1.5,0.5,3.1,0.7,4.7
	C243.6,134.5,243.6,136.3,243.2,138.1z"/>
</svg>
