<?xml version="1.0" encoding="utf-8"?>
<!-- Generator: Adobe Illustrator 23.0.6, SVG Export Plug-In . SVG Version: 6.00 Build 0)  -->
<svg version="1.1"
	 id="svg8" xmlns:cc="http://creativecommons.org/ns#" xmlns:dc="http://purl.org/dc/elements/1.1/" xmlns:inkscape="http://www.inkscape.org/namespaces/inkscape" xmlns:rdf="http://www.w3.org/1999/02/22-rdf-syntax-ns#" xmlns:sodipodi="http://sodipodi.sourceforge.net/DTD/sodipodi-0.dtd" xmlns:svg="http://www.w3.org/2000/svg"
	 xmlns="http://www.w3.org/2000/svg" xmlns:xlink="http://www.w3.org/1999/xlink" x="0px" y="0px" viewBox="0 0 400 400"
	 style="enable-background:new 0 0 400 400;" xml:space="preserve">
<g>
	<path d="M114.9,88.2h28.9h1.6c0.8,0,1.4,0.6,1.4,1.4v105.4v1.2c0,0.3,0.3,0.6,0.6,0.6h18.2c0.7,0,1.2-0.5,1.2-1.2v-0.6V195
		c0-14.7,1.5-29.4,5-43.6c5.3-22,14.4-42.9,27.1-61.5c0.4-0.7,0.7-1.4,0.7-2.2L198,73c-0.1-1.2-0.2-1.8-0.2-1.8
		c0-1.1-1.1-1.1-1.7-1.1h-79.5h-0.2c-0.7,0-1.4,0.5-1.6,1.2c0,0,0,0,0,0l-2.2,14.5C112.5,87.1,113.5,88.2,114.9,88.2z M166.9,90.7
		c0-0.7,0.6-1.3,1.3-1.3h9.3c1.3,0,2.5,0.5,3.3,1.6c6.7,9.3-9.1,49-13.4,35.1c-0.3-1.1-0.5-2.3-0.5-3.4V90.7z"/>
	<path d="M211.1,196.3c0.6,0,0.1,0,0.7,0h16.4h1.9c0.3,0,0.5-0.2,0.5-0.5c0.1-11.3,6.5-22.8,14.4-19.9c1.5,0.6,2.8,1.7,3.8,3
		c5,6.8,8.8,12.1,11.5,15.8c0.5,0.7,1.2,1.2,2,1.4c0.4,0.1,0.8,0.2,1.2,0.2H284c0.8,0,1.5-0.4,1.9-1l0.1-0.2c0.2-0.4,0.2-0.9,0-1.2
		l-36-48c0,0-0.3-0.3-0.3-0.6s0.3-0.6,0.3-0.6c3.6-4.2,9.1-10.9,17-20.6c7.9-9.7,12.7-15.8,15.2-18.8c0.6-0.6,0.6-1.2,0.6-1.2
		c0-0.6-0.6-0.6-1.2-0.6h-18.8c-1,0-1.9,0.5-2.4,1.2l-25.6,34.9c-1.3,1.4-3.2,0.3-3.5-1.7V72.3c0-0.7-0.3-1.3-0.9-1.7l-0.4-0.3
		c-0.3-0.2-0.7-0.3-1.1-0.3h-16.1c-0.5,0-1.1,0.2-1.5,0.6c-0.4,0.4-0.6,0.9-0.6,1.5v123C210.6,195.7,210.5,196.3,211.1,196.3z
		 M230.7,165.3c0-0.9,0.2-1.8,0.7-2.5c1.4-2.1,4-2.2,5.9-0.2c0.1,0.2,0.2,0.3,0.3,0.5c0.3,0.5,0.6,1.1,0.6,1.7
		c0,4.5-3.4,12.4-6.4,8.6c-0.7-0.9-1-2.1-1-3.2L230.7,165.3z"/>
	<path d="M62.5,13.6v258c0,2.7,2.2,4.9,4.9,4.9l183.3,0c7.5,0,15,1.4,21.8,4.5c53.6,24.2-6.3,105.2,27.9,106.7
		c37.5,0.8-20.7-83.9,29.8-108.3c4.4-2.1,7.3-6.6,7.3-11.5V13.6c0-2.7-2.2-4.9-4.9-4.9H67.4C64.7,8.7,62.5,10.9,62.5,13.6z
		 M321.1,265.5H78.9c-2.7,0-4.9-2.2-4.9-4.9V25.1c0-2.7,2.2-4.9,4.9-4.9h242.2c2.7,0,4.9,2.2,4.9,4.9v235.5
		C326,263.3,323.8,265.5,321.1,265.5z"/>
</g>
</svg>
