<?xml version="1.0" encoding="utf-8"?>
<!-- Generator: Adobe Illustrator 23.0.6, SVG Export Plug-In . SVG Version: 6.00 Build 0)  -->
<svg version="1.1"
	 id="svg8" xmlns:cc="http://creativecommons.org/ns#" xmlns:dc="http://purl.org/dc/elements/1.1/" xmlns:inkscape="http://www.inkscape.org/namespaces/inkscape" xmlns:rdf="http://www.w3.org/1999/02/22-rdf-syntax-ns#" xmlns:sodipodi="http://sodipodi.sourceforge.net/DTD/sodipodi-0.dtd" xmlns:svg="http://www.w3.org/2000/svg"
	 xmlns="http://www.w3.org/2000/svg" xmlns:xlink="http://www.w3.org/1999/xlink" x="0px" y="0px" viewBox="0 0 400 400"
	 style="enable-background:new 0 0 400 400;" xml:space="preserve">
<path d="M203.5,70.3h-57.7c-2.1,0-3.8,1.7-3.8,3.8v118.1c0,2.1,1.7,3.8,3.8,3.8h12.5c2.1,0,3.8-1.7,3.8-3.8v-45.9
	c0-2.1,1.7-3.8,3.8-3.8h34.3c2.1,0,3.8-1.7,3.8-3.8l0-10.3c0-2.2-1.5-4.2-3.7-4.8c-12-3.1-30.4-16.4-36.7-30.8
	c-0.9-2.1,0.7-4.3,2.9-4.3h37.7c2.2,0,3.9-1.8,3.8-4l-0.7-10.7C207.1,71.9,205.4,70.3,203.5,70.3z M170.2,124.4h-4.9
	c-1.8,0-3.3-1.5-3.3-3.3v-6.4c0-3.3,4.8-1.7,7.9,0.7C174,118.5,177.2,124.4,170.2,124.4z"/>
<path d="M254.9,180.2c-1.2,0-3,0-3.6-1.2c-0.6-1.2-1.2-2.4-1.2-4.9V74.6c0-2-1.6-3.6-3.6-3.6h-13.4c-2,0-3.6,1.6-3.6,3.6V176
	c0,9.1,1.8,15.2,5.5,17.6c0.5,0.4,0.9,0.7,1.4,1.1c19.1,15.5-9,62.1,11.3,62.6c18.1-0.5-7.4-42.3,9.7-60.1c0.7-0.8,1.2-1.8,1.2-2.9
	v-10.4C258.6,181.9,257,180.2,254.9,180.2z"/>
<path d="M328.1,9H71.9c-5.2,0-9.4,4.2-9.4,9.4v251.3c0,3.6,1.8,7,4.8,8.8c24.8,14.5-14.4,99.3,16,99.2c23.2-0.4-4.1-60.4,6.7-88.7
	c2.8-7.5,10.2-12.2,18.2-12.2l219.7-0.1c5.2,0,9.4-4.2,9.4-9.4V18.5C337.5,13.3,333.3,9,328.1,9z M325.4,256.4
	c0,5.2-4.2,9.4-9.4,9.4h-233c-5.2,0-9.4-4.2-9.4-9.4V30c0-5.2,4.2-9.4,9.4-9.4h233c5.2,0,9.4,4.2,9.4,9.4V256.4z"/>
</svg>
