<?xml version="1.0" encoding="utf-8"?>
<!-- Generator: Adobe Illustrator 23.0.6, SVG Export Plug-In . SVG Version: 6.00 Build 0)  -->
<svg version="1.1"
	 id="svg8" xmlns:cc="http://creativecommons.org/ns#" xmlns:dc="http://purl.org/dc/elements/1.1/" xmlns:inkscape="http://www.inkscape.org/namespaces/inkscape" xmlns:rdf="http://www.w3.org/1999/02/22-rdf-syntax-ns#" xmlns:sodipodi="http://sodipodi.sourceforge.net/DTD/sodipodi-0.dtd" xmlns:svg="http://www.w3.org/2000/svg"
	 xmlns="http://www.w3.org/2000/svg" xmlns:xlink="http://www.w3.org/1999/xlink" x="0px" y="0px" viewBox="0 0 400 400"
	 style="enable-background:new 0 0 400 400;" xml:space="preserve">
<path d="M269,101.1c-9.1,0.1-18.2,1.3-25,3c-5.1,1.3-9.3,2.6-12.6,3.6c-13,2.2-18.8-8.4-27.2-20c-1.4-2.3-3.1-4.6-5.1-6.7
	c-7.3-7.9-18.8-11.5-34.6-11.5c-6.1,0-11.5,0-16.4,0c-5.5,0-9.7,0.6-13.4,0.6c-0.3,0-0.9,0-1.3,0c-0.3,0-0.6,0.2-0.6,0.5v122.7
	c0,1.3,1.1,2.4,2.4,2.4l15.8,0c1.3,0,2.4-1.1,2.4-2.4v-38.4c0-2.2,1.8-4,4-4h0.2c1.2,0,3,0,4.9,0c13.4,0,24.3-3,33.4-9.7
	c4.6-3.1,8.2-7.5,10.5-12.9c7.3-14.6,15.6-13.7,19.2,2.5c0.9,3.9,1.2,7.9,1.2,11.8v50.7c0,1.1,0.9,2,2,2h17.4c1,0,1.9-0.8,2-1.9
	c2.2-30.5,1.2-56.1,21-73c0.8-0.7,1.3-1.7,1.3-2.7v-14.8C270.7,101.8,270,101.1,269,101.1z M155.2,130.8c-0.9,0.6-2.2,0-2.2-1.1
	L153,88.9c0-1,0.8-1.8,1.8-1.8h3.1l5.6,0c1.3,0,2.7,0.3,3.9,1C177.7,94.4,166,123.4,155.2,130.8z M181.5,127.2
	c-0.8,0.4-1.6,0.8-2.4,1.2c-1.9,0.9-4.3,0.1-5-1.9c-3.3-8.4,2.6-32.7,11-29.5c1.3,0.5,2.3,1.6,2.8,2.9c1,2.6,1.6,5.6,1.6,9.1
	C189.4,118.1,186.9,124.1,181.5,127.2z M248.8,139.3c-0.4-0.8-0.5-1.7-0.5-2.6v-13.4c0-0.9,0.6-1.7,1.5-1.9c1-0.2,2.3-0.5,3.7-0.7
	c0.9-0.2,1.9,0.3,2.2,1.2C257.7,127.5,251.8,145.7,248.8,139.3z"/>
<path d="M327.9,8.8H72.1c-5.3,0-9.6,4.3-9.6,9.6v249.9c0,4.5,3,8.3,7.4,9.4c52,12.9-2.4,102.3,32.7,107.5c1,0.2,2.1,0.2,3.1,0.1
	c24.2-3.1-16.9-79.2,15.2-103.2c4.9-3.7,11-5.5,17.2-5.5h189.8c5.3,0,9.6-4.3,9.6-9.6V18.4C337.5,13.1,333.2,8.8,327.9,8.8z
	 M326,256c0,5.3-4.3,9.6-9.6,9.6H83.7c-5.3,0-9.6-4.3-9.6-9.6V30c0-5.3,4.3-9.6,9.6-9.6h232.7c5.3,0,9.6,4.3,9.6,9.6V256z"/>
</svg>
