<?xml version="1.0" encoding="utf-8"?>
<!-- Generator: Adobe Illustrator 23.0.6, SVG Export Plug-In . SVG Version: 6.00 Build 0)  -->
<svg version="1.1"
	 id="svg8" xmlns:cc="http://creativecommons.org/ns#" xmlns:dc="http://purl.org/dc/elements/1.1/" xmlns:inkscape="http://www.inkscape.org/namespaces/inkscape" xmlns:rdf="http://www.w3.org/1999/02/22-rdf-syntax-ns#" xmlns:sodipodi="http://sodipodi.sourceforge.net/DTD/sodipodi-0.dtd" xmlns:svg="http://www.w3.org/2000/svg"
	 xmlns="http://www.w3.org/2000/svg" xmlns:xlink="http://www.w3.org/1999/xlink" x="0px" y="0px" viewBox="0 0 400 400"
	 style="enable-background:new 0 0 400 400;" xml:space="preserve">
<path d="M251.4,95.2c1.7-2.2,4.5-3.5,7.3-3.5h2.3l2.9,0c0.8,0,1.4-0.6,1.4-1.4l0-14.4c0-0.6,0-1.1,0-1.7c0-0.6-0.6-0.8-1.2-0.8
	c-0.6,0-1.8,0-3,0c-1.2,0-2.4,0-4.2,0c-5.5,0-10.3,0.6-14,3c-3.6,2.4-6.7,5.5-9.1,10.3c-1.8,2.4-2.4,4.9-3,7.9s-1.2,6.1-1.2,9.7v3.7
	c0,1-0.8,1.8-1.8,1.8H220c-0.8,0-1.4,0.6-1.4,1.4v16.2c0,0.3,0,0.3,0.3,0.6c6.7,5.9,9.2,18.2,10.1,31.9l0,35.8
	c0,0.8,0.7,1.5,1.5,1.5h17c0.8,0,1.5-0.7,1.5-1.5v-66.1c0-0.9,0.7-1.6,1.6-1.6h12.1c0.8,0,1.4-0.6,1.4-1.4l0-14.1
	c0-0.8-0.6-1.4-1.4-1.4h-12.3c-0.8,0-1.4-0.6-1.4-1.4v-4C248.9,100.7,249.5,97.6,251.4,95.2z M227.1,128.1h0.8
	c0.5,0,0.9,0.4,0.9,0.9l0,4c0,4.9-3.2-1.4-2.9-4C226.1,128.5,226.6,128.1,227.1,128.1z"/>
<path d="M327.8,8.5H72.2c-5.4,0-9.7,4.4-9.7,9.7v247.6c0,5.7,3.4,10.8,8.6,13.1c47.3,20.5-23,110.4,21.4,110.4
	c28.2,0.3,4.3-44,7.2-78.6c1.7-19.5,18.2-34.5,37.8-34.5h190.3c5.4,0,9.7-4.4,9.7-9.7V18.2C337.5,12.9,333.1,8.5,327.8,8.5z
	 M326,255.6c0,5.4-4.4,9.7-9.7,9.7H83.8c-5.4,0-9.7-4.4-9.7-9.7V29.8c0-5.4,4.4-9.7,9.7-9.7h232.5c5.4,0,9.7,4.4,9.7,9.7V255.6z"/>
<path d="M162.7,74.1c-5.5,0-10.9,0-15.8,0h-6.5c-3.6,0-6.4,2.9-6.4,6.4l0.1,111c0,3.5,2.9,6.4,6.4,6.4h6.6c3.4,0,6.2-2.6,6.4-6l0,0
	c0-0.1,0-0.3,0-0.4c0,0,0,0,0,0v0c1.2-31.5,10.8-30.7,33-43c2.7-1.3,5.2-2.8,7.6-4.6c9.1-6.7,13.4-17,13.4-31
	c0-10.9-3.6-20-10.9-27.3C189.4,77.7,178.4,74.1,162.7,74.1z M158.2,160.5c-1.7,2.8-4.6,4.7-4.6,0.7v-6.6c0-0.5,0.4-1,1-1h2.7h0.8
	c1,0,1.9,0.8,1.9,1.8C159.9,156.8,159.2,158.8,158.2,160.5z M160.6,136c-1.7,0-3,0-4,0h-0.9c-1.2,0-2.1-1-2.1-2.1v-5.3
	c0-0.9,0.2-1.7,0.6-2.5C158,118.9,172.2,136,160.6,136z M186.1,122.5c-0.7,2-2,3.8-3.8,4.9C171.5,134,157.5,111,154,94.3
	c-0.3-1.3,0.7-2.6,2.1-2.6c0.6,0,1.2,0,1.8,0c1.8,0,3.6,0,6.1,0c7.9,0,13.4,1.8,17.6,5.5c4.2,3.6,6.1,9.1,6.1,15.8
	C187.6,116.6,187.1,119.8,186.1,122.5z"/>
</svg>
