<?xml version="1.0" encoding="utf-8"?>
<!-- Generator: Adobe Illustrator 23.0.6, SVG Export Plug-In . SVG Version: 6.00 Build 0)  -->
<svg version="1.1"
	 id="svg8" xmlns:cc="http://creativecommons.org/ns#" xmlns:dc="http://purl.org/dc/elements/1.1/" xmlns:inkscape="http://www.inkscape.org/namespaces/inkscape" xmlns:rdf="http://www.w3.org/1999/02/22-rdf-syntax-ns#" xmlns:sodipodi="http://sodipodi.sourceforge.net/DTD/sodipodi-0.dtd" xmlns:svg="http://www.w3.org/2000/svg"
	 xmlns="http://www.w3.org/2000/svg" xmlns:xlink="http://www.w3.org/1999/xlink" x="0px" y="0px" viewBox="0 0 400 400"
	 style="enable-background:new 0 0 400 400;" xml:space="preserve">
<g>
	<path d="M278,100.4h-17c-0.6,0-0.6,0-0.9,0s-0.7,0.5-1,1.3c0,0.1-0.1,0.2-0.1,0.3c-6.5,17.8-17.8,40.7-26.9,27.3
		c-0.7-1-1.2-2.1-1.5-3.3c-2-7.3-4.5-15.4-7.3-24.4c-0.2-0.5-0.2-0.6-0.4-0.9c-0.1-0.3-0.4-0.5-0.6-0.6c-12.4-4.5-24.9-9.3-30-26.7
		c-0.3-1-0.7-1.8-1.4-2.6c-0.2-0.2-0.3-0.4-0.6-0.5c-0.3-0.2-0.7-0.4-0.8-0.4c-2.4-1.3-4.5-1.9-8.7-2.5c-4.3-0.6-9.1-1.3-14.6-1.3
		c-12.8,0-22.4,3.7-28.5,10.4c-6.7,6.7-9.7,15.2-9.7,24.3c0,7.3,1.8,13.4,5.4,19.4c3.7,6.1,10.4,11.5,20,17l6.7,3.7
		c6.7,3.7,10.9,7.3,13.4,10.4c2.4,3,3.7,6.7,3.7,10.4c0,4.3-1.3,7.3-4.8,10.4c-3,3-7.9,4.8-15.2,4.8c-4.8,0-9.7-0.6-13.9-1.8
		c-4.8-1.3-7.5-2.5-11.7-5.5c-0.5-0.4-1.1-1.2-2.6-1.2c-0.6,0-0.9,0.1-0.9,0.6s0,18.2,0,18.2c0,0.6,0,1.3,0,1.8
		c0.1,0.4,0.1,0.4,0.4,0.5c0.1,0,0.4,0.1,0.7,0.3c3.7,1.8,7.5,3.5,12.3,4.6c4.8,1.3,10.4,1.3,15.8,1.3c12.1,0,21.9-3,29.1-9.7
		c7.3-6.7,10.9-14.7,10.9-25l0,0c0-1.1,0.1-2.2,0.2-3.3c1.8-17.4,5.2-34.4,11.7-24.1c0.8,1.5,1.5,3.2,2.2,4.7
		c1.5,4.5,3,8.9,4.6,13.6c2.4,7.9,5.4,15.2,7.3,21.8v0.1c2.1,6,3.9,10.9,5,14.6c0.2,0.8,0.4,1.5,0.4,2.3c0,0.9-0.2,1.7-0.5,2.6
		c-2.2,6.1-4.5,11.1-6.2,15.8c-1.8,4.8-3.7,9.7-5.4,14.6l0,0c-0.2,0.8,0.2,1.6,1,1.7c0.1,0,0.2,0,0.3,0l18.8-1.3
		c0.6,0,1-0.1,1.3-0.6c0.3-0.5,0.4-0.6,0.6-1.3c3-8.5,6.7-17,9.7-26.1c3.7-9.1,6.7-18.8,10.4-29.1s6.7-20.6,10.4-31.5
		c3.7-10.8,6.7-21.8,10.3-33.2c0-0.1,0.1-0.3,0.1-0.5v-1.1C279.2,100.4,278.7,100.4,278,100.4z M186.2,133.3c-1-0.3-1.9-0.9-2.7-1.5
		c-3.6-3-8.1-5.9-13.4-8.9l-6.1-3c-6.7-3.7-10.9-6.7-12.8-9.7c-2.4-3-3.7-6.1-3.7-9.7c0-3,1.3-6.7,4.3-9.7c3-3,7.9-4.8,15.2-4.8l0,0
		c1.3,0,2.6,0.1,3.9,0.3c17.5,2.7,26,10.2,29.3,18.1c0.1,0.2,0.1,0.4,0.2,0.6c1,3.3,1.3,6.8,0.7,10.2
		C199.2,124.7,193.6,135.5,186.2,133.3z M244.6,152c-1.3,4.5-2.5,8.9-3.4,13c-0.1,0.5-0.7,0.5-0.9,0c-0.3-1.1-0.6-2.3-1-3.8
		c-0.2-1-0.4-1.9-0.3-2.9c0.4-6.7,4.5-13.6,5.6-9.5C245,149.8,244.9,151,244.6,152z"/>
	<path d="M327.7,8.1H72.2c-5.3,0-9.7,4.4-9.7,9.7v258l0,0c67.4,10.3-16.7,111.7,36,110.4c53.6,0.3-33.5-91.1,31.7-110.4h197.5
		c5.3,0,9.7-4.4,9.7-9.7V17.8C337.4,12.4,333,8.1,327.7,8.1z M326,255.1c0,5.3-4.4,9.7-9.7,9.7H83.8c-5.3,0-9.7-4.4-9.7-9.7V29.3
		c0-5.3,4.4-9.7,9.7-9.7h232.5c5.3,0,9.7,4.4,9.7,9.7V255.1z"/>
</g>
</svg>
