<?xml version="1.0" encoding="utf-8"?>
<!-- Generator: Adobe Illustrator 23.0.6, SVG Export Plug-In . SVG Version: 6.00 Build 0)  -->
<svg version="1.1"
	 id="svg8" xmlns:cc="http://creativecommons.org/ns#" xmlns:dc="http://purl.org/dc/elements/1.1/" xmlns:inkscape="http://www.inkscape.org/namespaces/inkscape" xmlns:rdf="http://www.w3.org/1999/02/22-rdf-syntax-ns#" xmlns:sodipodi="http://sodipodi.sourceforge.net/DTD/sodipodi-0.dtd" xmlns:svg="http://www.w3.org/2000/svg"
	 xmlns="http://www.w3.org/2000/svg" xmlns:xlink="http://www.w3.org/1999/xlink" x="0px" y="0px" viewBox="0 0 400 400"
	 style="enable-background:new 0 0 400 400;" xml:space="preserve">
<g>
	<path d="M327.9,9H72.1c-5.3,0-9.6,4.3-9.6,9.6v246.7c0,6.5,3.4,12.5,8.9,16c46.6,29.7-10.5,103,26.4,104.4
		c29.5-1.9-2.7-58.3,15.5-91.6c5.9-10.8,17.4-17.4,29.7-17.4h184.8c5.3,0,9.6-4.3,9.6-9.6V18.7C337.5,13.3,333.2,9,327.9,9z
		 M326,256.2c0,5.3-4.3,9.6-9.6,9.6H83.7c-5.3,0-9.6-4.3-9.6-9.6v-226c0-5.3,4.3-9.6,9.6-9.6h232.6c5.3,0,9.6,4.3,9.6,9.6V256.2z"/>
	<path d="M213.4,68.9c-0.2-0.2-0.3-0.4-0.9-0.4h-26.1c-0.6,0-0.9,0-1.3,0.3c-0.4,0.3-0.4,0.4-0.5,0.9s-3,11.5-5.5,20
		c-2.4,8.5-4.9,17.6-7.3,27.3c-3,9.7-4.9,18.8-7.3,27.3c-1.7,5.9-3.1,11-4,14.9c-0.2,1.1-1.7,1.1-2,0c-0.9-4-1.9-9.2-3.1-15.5
		c-1.8-8.5-3.6-17.6-6.1-27.3c-2.4-9.1-4.9-18.2-6.7-26.7c-1.8-8.5-4.7-18.9-4.8-19.2c-0.1-0.3-0.2-0.5-0.6-0.7s-0.7-0.1-1.3-0.1
		h-26.7h-0.8c-0.6,0-1.1,0.4-1.1,1l-6.6,122.8c0,0.6,0,1.2,0.6,1.2s0.6,0,1.2,0h17.6c0.6,0,1.2,0,1.4-0.2s0.4-0.4,0.4-1
		c0.6-10.3,0.6-21.2,1.2-32.2c0.6-10.9,1.2-21.9,1.2-31.6c0-9.7,0.6-18.8,0.6-26.7c0-6.2,0-13.5,0-17.8c0-0.8-0.1-0.9,0.1-0.9
		c0.2,0,0.2,0.3,0.4,1.1c1.3,5.7,3.4,14.6,5,22.6c2.4,9.7,4.2,19.4,6.7,29.7c1.8,10.3,4.2,20.6,6.7,31c2.3,9.7,4.1,18.2,5.9,25.3
		c0.2,0.8,1,1.4,1.8,1.4h16.7c0.9,0,1.6-0.6,1.8-1.5c1-4.3,4-17.4,6.5-25.8c1.1-4,2.2-8,3.3-11.9c0.6-2,1.7-3.9,3.3-5.2
		c10.8-8.7,11.1,27.9,13.9,43.1c0.1,0.4,0.5,0.8,0.9,0.8c3.2,0,15.3,0,18.9,0c0.5,0,1-0.4,0.9-1l-4.2-124.1
		C213.7,69.1,213.6,69.1,213.4,68.9z M196.7,101.3v20.8c0,1.9-0.3,3.9-0.9,5.7c-3,9.3-3.5-13.5-2.5-25.1c0.1-1,0.2-2,0.5-3
		c0.8-3.8,1.6-6.9,2.2-9.5c0.1-0.5,0.8-0.4,0.8,0.1V101.3z"/>
	<path d="M280.4,103.1c-0.6,0-1.2,0.6-1.2,0.6c0.3,14.9-23,61.1-27.9,33.5v-32.3c0-0.6,0-0.6-0.6-1.2c-0.6-0.6-0.6-0.6-1.2-0.6
		h-18.2c-0.6,0-1.2,0.6-1.2,0.6s0,0.6,0,1.2V165c0,13.4,3.6,22.5,10.3,26.7c7.3,4.2,15.2,6.7,23.7,6.7c2.3,0,4.6-0.1,6.9-0.3
		c23-0.1,1.2,49.6,15.5,51.6c16.1-0.9-9.1-33.9,10-56.4c2-2.3,3.2-5.2,3.3-8.2c0.1-3.5,0.1-7.6,0.1-8c0,0,0,0,0,0v-72.2
		c0-0.6,0-1.2,0-1.2c-0.6-0.6-0.6-0.6-1.2-0.6H280.4z M279.2,175.9c0,1.2-0.8,2.3-1.9,2.7c-1.2,0.4-2.2,0.7-3.5,1.1
		c-2.4,0.6-5.1,0.7-7.5,0.7c-5.5,0-9-1.9-11.4-4.9c0,0,0,0,0,0c-1.2-1.6-1.7-3.6-1.3-5.6c2.4-12.6,22.4-38.7,25.4-23
		c0.2,0.9,0.2,1.9,0.2,2.8V175.9z"/>
</g>
</svg>
