<?xml version="1.0" encoding="utf-8"?>
<!-- Generator: Adobe Illustrator 23.0.6, SVG Export Plug-In . SVG Version: 6.00 Build 0)  -->
<svg version="1.1"
	 id="svg8" xmlns:cc="http://creativecommons.org/ns#" xmlns:dc="http://purl.org/dc/elements/1.1/" xmlns:inkscape="http://www.inkscape.org/namespaces/inkscape" xmlns:rdf="http://www.w3.org/1999/02/22-rdf-syntax-ns#" xmlns:sodipodi="http://sodipodi.sourceforge.net/DTD/sodipodi-0.dtd" xmlns:svg="http://www.w3.org/2000/svg"
	 xmlns="http://www.w3.org/2000/svg" xmlns:xlink="http://www.w3.org/1999/xlink" x="0px" y="0px" viewBox="0 0 400 400"
	 style="enable-background:new 0 0 400 400;" xml:space="preserve">
<path d="M212.5,76.4h-8.5c-2.3,0-4.2,1.9-4.2,4.2v8.5c0,2.3,1.9,4.2,4.2,4.2h8.5c2.3,0,4.2-1.9,4.2-4.2v-8.5
	C216.7,78.3,214.8,76.4,212.5,76.4z"/>
<path d="M245.3,76.4h-7.9c-2.3,0-4.2,1.9-4.2,4.2v8.5c0,2.3,1.9,4.2,4.2,4.2h7.9c2.3,0,4.2-1.9,4.2-4.2v-8.5
	C249.5,78.3,247.6,76.4,245.3,76.4z"/>
<path d="M327.9,9.1H72.1c-5.3,0-9.6,4.3-9.6,9.6v248.5c0,5.3,4.3,9.6,9.6,9.6h177.6c4.7,0,9.5,0.5,14.1,1.6
	c56.9,14-3.6,93.8,29.9,103.7c2.8,0.8,5.7,1,8.5,0.4c33.2-6.9-31.3-91.2,27.2-104.4c4.7-1.1,8.1-5.2,8.1-10V18.6
	C337.5,13.3,333.2,9.1,327.9,9.1z M326,256.3c0,5.3-4.3,9.6-9.6,9.6l-116.1,0c-2.6,0-5.1-0.1-7.7-0.3c-77.6-5.9-41-40.4-2-40.4h88
	c2.3,0,4.2-1.9,4.2-4.2V213c0-2.3-1.9-4.2-4.2-4.2h-7.9c-2.3,0-4.2-1.9-4.2-4.2v-7.3c0-2.3,1.9-4.2,4.2-4.2h7.9
	c2.3,0,4.2-1.9,4.2-4.2v-7.9c0-2.3-1.9-4.2-4.2-4.2h-7.9c-2.3,0-4.2,1.9-4.2,4.2v7.3c0,2.3-1.9,4.2-4.2,4.2h-8.5
	c-2.3,0-4.2-1.9-4.2-4.2v-7.9c0-2.3-1.9-4.2-4.2-4.2h-7.9c-2.3,0-4.2-1.9-4.2-4.2v-7.9c0-2.3,1.9-4.2,4.2-4.2h7.9
	c2.3,0,4.2,1.9,4.2,4.2v7.9c0,2.3,1.9,4.2,4.2,4.2l10.9,0c1.1,0,2-0.8,2.1-1.8c1.3-9,4.8-13.8,11.3-14.5c2.3,0,4.2-1.9,4.2-4.2v-9.8
	c0-1.3-0.8-2.5-1.9-3.1c-4.7-2.5-4.9-8,0.7-14.4c0.8-0.9,1.2-2,1.2-3.1v-10.9c0-2.3-1.9-4.2-4.2-4.2h-7.9c-2.3,0-4.2,1.9-4.2,4.2
	v12.8c0.3,10.4,1.4,20.1-9.7,28.2c-2.8,2-6.7,0-6.7-3.4l0-3.6c0-3-1.9-4.8-4.2-4.8h-7.9c-2.3,0-4.2-1.9-4.2-4.2v-7.9
	c0-2.3,1.9-4.2,4.2-4.2h7.9c2.3,0,4.2-1.9,4.2-4.2v-8.5c0-2.3-1.9-4.2-4.2-4.2h-7.9c-2.3,0-4.2,1.9-4.2,4.2v8.5
	c0,2.3-1.9,4.2-4.2,4.2h-7.9c-2.3,0-4.2,1.9-4.2,4.2v7.3c0,2.3-1.9,4.2-4.2,4.2h-8.5c-2.3,0-4.2-1.9-4.2-4.2v-7.3
	c0-2.3,1.9-4.2,4.2-4.2h8.5c2.3,0,4.2-1.9,4.2-4.2v-8.5c0-2.3-1.9-4.2-4.2-4.2h-8.5c-2.3,0-4.2,1.9-4.2,4.2v7.9
	c0,2.3-1.9,4.2-4.2,4.2h-7.9c-2.3,0-4.2-1.9-4.2-4.2v-7.9c0-2.3,1.9-4.2,4.2-4.2h7.9c2.3,0,4.2-1.9,4.2-4.2v-7.9
	c0-2.3-1.9-4.2-4.2-4.2h-7.9c-2.3,0-4.2,1.9-4.2,4.2v7.3c0,2.3-1.9,4.2-4.2,4.2h-8.5c-2.3,0-4.2-1.9-4.2-4.2v-7.3
	c0-2.3,1.9-4.2,4.2-4.2h8.5c2.3,0,4.2-1.9,4.2-4.2v-8.5c0-2.3-1.9-4.2-4.2-4.2h-8.5c-2.3,0-4.2,1.9-4.2,4.2v7.9
	c0,2.3-1.9,4.2-4.2,4.2h-7.9c-2.3,0-4.2-1.9-4.2-4.2v-0.3c0.6-11,5.8-11.2,12.4-11.6c2.2-0.1,4-2,4-4.2v-8.3c0-2.3-1.9-4.2-4.2-4.2
	l-8.6,0c-2,0-3.7,1.4-4.1,3.4c-2.5,12.2-8.3,12.1-14,12.3c-1.3,0-2.4-1-2.4-2.3c0-2.4,0-6.2,0-9.1c0-2.3-1.9-4.2-4.2-4.2h-7.9
	c-2.3,0-4.2,1.9-4.2,4.2v160.9c0.3,23.3-17.3,33.1-34.9,38.6c-3.8,1.2-7.6-1.7-7.6-5.6V30.2c0-5.3,4.3-9.6,9.6-9.6h232.8
	c5.3,0,9.6,4.3,9.6,9.6V256.3z M216.7,154.8v-7.3c0-2.3,1.9-4.2,4.2-4.2h7.9c2.3,0,4.2,1.9,4.2,4.2v7.3c0,2.3-1.9,4.2-4.2,4.2h-7.9
	C218.6,159,216.7,157.1,216.7,154.8z"/>
</svg>
