<?xml version="1.0" encoding="utf-8"?>
<!-- Generator: Adobe Illustrator 23.0.6, SVG Export Plug-In . SVG Version: 6.00 Build 0)  -->
<svg version="1.1"
	 id="svg8" xmlns:cc="http://creativecommons.org/ns#" xmlns:dc="http://purl.org/dc/elements/1.1/" xmlns:inkscape="http://www.inkscape.org/namespaces/inkscape" xmlns:rdf="http://www.w3.org/1999/02/22-rdf-syntax-ns#" xmlns:sodipodi="http://sodipodi.sourceforge.net/DTD/sodipodi-0.dtd" xmlns:svg="http://www.w3.org/2000/svg"
	 xmlns="http://www.w3.org/2000/svg" xmlns:xlink="http://www.w3.org/1999/xlink" x="0px" y="0px" viewBox="0 0 400 400"
	 style="enable-background:new 0 0 400 400;" xml:space="preserve">
<path d="M248.3,89.3c1.8-2.4,4.2-3.6,7.3-3.6h4c1.5,0,2.7-1.2,2.7-2.7V70.3c0-1.3-0.9-2.4-2.2-2.7c-0.6-0.1-1.3-0.2-2-0.2h-4.2
	c-5.5,0-10.3,1.2-14.6,3.6c-4.2,2.4-8.2,7.2-9.7,10.9s-1.9,4.4-2.6,6.5c-0.8,2.1-1.2,3.6-2.4,5c-7.1,8-15.4-7.2-16.2-19.3v-0.7
	c0-1.6-1.1-3-2.7-3.5c-1.8-0.5-4.2-1.1-5.8-1.4c-3.6-0.6-7.3-0.6-12.1-0.6c-8.5,0-16.4,1.8-23.7,4.9c-7.3,3-13.4,7.9-18.2,13.4
	c-4.9,6.1-8.5,12.7-11.5,20.6c-3,7.9-4.2,17-4.2,26.7c0,11.5,1.8,21.2,4.9,29.1c3,7.9,7.3,14.6,12.1,20c4.9,4.9,10.9,9.1,17.6,11.5
	c0.6,0.2,1.2,0.4,1.7,0.6c3.7,1.2,7.1,3.2,9.7,6.2c15.7,17.8-1.8,49.3,13.1,50.6c17.1-0.3-15.9-40.2,15.9-56.1
	c0.9-0.4,1.5-1.4,1.5-2.4c1.2-16.6,16.8-53.7,19.3-41.4c0.1,0.7,0.2,1.4,0.2,2v39.5c0,1.5,1.2,2.7,2.7,2.7h15.2
	c1.5,0,2.7-1.2,2.7-2.7v-66.8c0-1.5,1.2-2.7,2.7-2.7h10.3c1.5,0,2.7-1.2,2.7-2.7V109c0-1.5-1.2-2.7-2.7-2.7h-11
	c-1.5,0-2.7-1.2-2.7-2.7v-4C245.8,95.3,246.4,91.7,248.3,89.3z M214.2,124.5c0,20.3-4.4,41.4-19.8,50.4c-4.4,2.6-9.6,3.3-14.6,2.1
	c-5.8-1.3-11.7-4.2-17.1-8.8c-7.9-6.1-12.1-18.2-12.1-36.4c0-14,3.6-25.5,10.3-33.4c4.2-5,9.9-8.5,16.2-10.4
	c7.3-2.2,15.2-1.3,21.8,2.6c11.3,6.6,15.2,16.8,15.4,24.8L214.2,124.5z"/>
<path d="M328.1,9.1H71.9c-5.2,0-9.4,4.2-9.4,9.4v245.2c0,7,2.8,13.9,7.9,18.7c28.4,26.5-5,89.3,21,92.6c20.2,0.3-0.2-41.6,6.7-72.2
	c3.4-15.3,17.3-26,32.9-26h197.2c5.2,0,9.4-4.2,9.4-9.4v-249C337.5,13.3,333.3,9.1,328.1,9.1z M316.6,265.9H83.4
	c-5.2,0-9.4-4.2-9.4-9.4V30c0-5.2,4.2-9.4,9.4-9.4h233.2c5.2,0,9.4,4.2,9.4,9.4v226.5C326,261.7,321.8,265.9,316.6,265.9z"/>
</svg>
