<?xml version="1.0" encoding="utf-8"?>
<!-- Generator: Adobe Illustrator 23.0.6, SVG Export Plug-In . SVG Version: 6.00 Build 0)  -->
<svg version="1.1"
	 id="svg8" xmlns:cc="http://creativecommons.org/ns#" xmlns:dc="http://purl.org/dc/elements/1.1/" xmlns:inkscape="http://www.inkscape.org/namespaces/inkscape" xmlns:rdf="http://www.w3.org/1999/02/22-rdf-syntax-ns#" xmlns:sodipodi="http://sodipodi.sourceforge.net/DTD/sodipodi-0.dtd" xmlns:svg="http://www.w3.org/2000/svg"
	 xmlns="http://www.w3.org/2000/svg" xmlns:xlink="http://www.w3.org/1999/xlink" x="0px" y="0px" viewBox="0 0 400 400"
	 style="enable-background:new 0 0 400 400;" xml:space="preserve">
<path d="M336.1,121.4c-0.4-1.9-0.6-3.6-1.1-5.6c-0.5-2-1.4-5.3-1.4-5.3c-0.4-1.3-0.1-1.2-1.9-6s-2.2-5.7-3.9-9.4
	c-1.8-3.7-4.2-8.2-8.3-14.2c-4.1-5.9-8.8-11.4-13.8-16c-5-4.6-10.3-9.3-16.7-12.9c-6.4-3.6-12.8-6.8-19.6-9.1
	c-7.3-2.3-14.1-3.6-21.9-4.6c-7.3-0.9-14.6-0.5-21.9,0.5c-7.3,0.9-14.6,2.7-21.4,5c-6.8,2.3-13.7,5.5-20.1,9.6
	c-5,3.2-9.6,6.4-13.7,10.5c-4.1,3.6-8.2,8.2-11.9,12.8c-6.8-1.4-13.2-1.4-20.1-0.9c-6.8,0.5-13.2,1.8-19.2,3.6
	c-6.4,1.8-12.3,4.6-17.8,8.2c-5.9,3.6-10.9,7.8-15.5,12.3c-4.6,4.6-8.7,10-11.9,15.5c-3.2,5.5-5.9,11.4-7.8,17.8
	c-1.8,6.4-3.2,12.3-3.6,19.2c-0.5,6.4,0,12.8,0.9,19.2c1.8,9.6,5,18.7,10,26.9c5,8.2,10.9,15.5,18.2,21.4c4.5,3.7,9.4,7,14.6,9.8
	c3.2,1.7,6.2,4,8.6,6.8c15.9,18.7-4.2,41.8,8.8,44.6c1,0.2,2,0.2,3,0c10.7-3.1-3.5-31,7.2-39.9c1.8-1.5,4.2-2.3,6.6-2.2
	c1.2,0.1,2.5,0.1,3.7,0.1h93.1c0.3,0,0.6,0,0.9,0c2.5,0,5,0.4,7.3,1.3c27.5,11.2-1,77.6,17.3,78.5c21.9-0.4-20.1-64.9,25.2-93.5
	c3.2-1.9,6.2-4,9-6.3c5.9-4.1,10.9-9.1,15.5-14.6c5-5.5,9.1-11.9,12.8-18.2c3.6-6.8,6.4-13.7,8.2-20.5c1.8-7.3,3.2-14.6,3.6-21.9
	C337.8,136.4,337.5,128.7,336.1,121.4z M175.9,77.9c4.2-4.2,8.8-7.9,13.6-11.2c5.9-4.1,12.3-6.8,19.2-9.1c6.8-2.3,13.7-3.6,21-4.1
	c7.3-0.5,14.1-0.5,21.4,0.9c6.8,0.9,13.2,2.7,19.2,5.5c6.4,2.7,11.9,5.9,17.3,10c5.5,4.1,10,8.7,14.6,13.7c3.9,4.3,7.3,9.3,10,14.4
	c0.8,1.6,1.2,3.4,1.1,5.2c-0.7,11.7-3,32.5-6.8,21.3c-1-5.1-2.6-9.8-4.7-14.8c-2.7-5.9-6.4-11.4-10.5-16.9c-4.1-5-9.1-9.6-15.1-13.2
	c-5.9-4.1-12.3-6.8-19.2-8.7c-6.8-1.8-13.7-2.7-20.5-2.7c-6.8,0-13.7,0.9-20.5,3.2c-6.8,1.8-13.2,5-18.7,8.7c-1.8,1.4-3.6,2.7-5,4.1
	c-0.7,0.6-1.4,1.1-2.1,1.7c-1.7,1.5-4.2,1.7-6.2,0.5c-1.2-0.7-2.4-1.5-3.6-2.2c-1.2-0.7-2.4-1.3-3.7-1.9
	C175,81.4,174.6,79.2,175.9,77.9z M136.2,90.3c3.5-0.4,7-0.5,10.4-0.3c8.7,0.5,16.9,2.3,25.1,6.4c9.1,3.6,16.4,8.7,22.8,15.5
	l29.7,33.3c3.2,3.6,3.2,6.8-0.9,10c-3.6,3.2-7.3,3.2-10.5-0.5l-30.1-33.3c-4.6-5-10-9.1-16-11.9c-5.9-2.7-12.3-4.6-18.7-5
	c-6.4-0.5-13.2,0-19.6,2.3c-1,0.3-1.9,0.6-2.9,0.9l0-0.1c-0.2,0.1-0.4,0.2-0.6,0.3c-0.7,0.3-1.4,0.6-2.1,0.9
	C113.5,111.6,124,93.4,136.2,90.3z M161.4,181.5c-1.4-0.6-2.7-1.5-3.8-2.6l-16.9-17.3c-3.2-3.2-3.2-6.8,0.5-10.5
	c3.6-3.6,6.8-3.6,10.5,0l1.8,1.9C160.5,162.3,171.4,185.6,161.4,181.5z M179,224h-35.1c-6.8,0-13.7-0.9-20.1-3.2
	c-6.4-2.3-12.3-5-18.2-9.1c-5.5-3.6-10.5-8.7-14.6-13.7c-4.1-5.5-7.8-11.4-10-17.8c-2.3-6.4-3.6-12.8-4.1-19.6s0.5-13.2,1.8-19.6
	c1.4-6.4,4.1-12.3,7.3-18.2c3.2-5.9,7.3-10.9,12.3-15.5c1.5-1.4,3-2.7,4.6-3.9c8.7-5.4,5.5,7.1-0.6,20.5c-1,2.2-2.1,4.3-3.3,6.4
	c-0.2,0.4-0.4,0.8-0.7,1.2c-3.2,5.9-5,12.3-5.9,18.7c-0.9,6.4-0.5,12.8,0.9,19.6c1.4,6.4,4.6,12.8,8.7,18.2
	c5,6.4,10.9,11.9,18.7,15.5c7.3,3.6,15.1,5.5,23.3,5.5h16.9c3.2,0,6.3,1.3,8.6,3.5c1.6,1.6,3.3,3.1,5.1,4.7c1.8,1.3,3.6,2.6,5.4,3.8
	C181.2,222,180.6,224,179,224z M320.7,155.1c-0.2,1.2-0.4,2.4-0.7,3.7c-1.4,6.4-3.6,12.8-6.8,18.7c-3.2,5.9-6.8,11.4-10.9,16.9
	c-4.6,5-9.1,9.6-14.6,13.7c-5.5,4.1-10.9,7.3-17.3,10c-6.4,2.7-12.8,4.6-19.2,5.5c-8.2,1.4-16.4,1.4-24.6,0.5
	c-7.3-1.8-15.1-3.6-22.8-6.8c-5.5-2.3-10-5-14.6-8.2c0,0,0,0-0.1,0c-4.2-2.9-7.4-7-9.5-11.7c-8-18.1-8.9-24.2-3.7-20.8
	c0.7,0.5,1.4,1.1,2,1.7l9.1,9.4c4.6,5,10,8.7,15.5,12.3c5.9,3.2,11.9,5.5,18.2,7.3c6.4,1.4,12.8,2.3,19.2,2.3
	c6.8,0,13.2-1.4,19.6-3.2c6.4-2.3,12.3-5,17.8-8.7c5.5-3.6,10.5-8.2,14.6-13.2c3.8-4.6,7.3-10,10-15.4c0.5-1,1-2,1.5-2.9
	C312.4,149,323.3,127.9,320.7,155.1z"/>
</svg>
