<?xml version="1.0" encoding="utf-8"?>
<!-- Generator: Adobe Illustrator 23.0.6, SVG Export Plug-In . SVG Version: 6.00 Build 0)  -->
<svg version="1.1"
	 id="svg8" xmlns:cc="http://creativecommons.org/ns#" xmlns:dc="http://purl.org/dc/elements/1.1/" xmlns:inkscape="http://www.inkscape.org/namespaces/inkscape" xmlns:rdf="http://www.w3.org/1999/02/22-rdf-syntax-ns#" xmlns:sodipodi="http://sodipodi.sourceforge.net/DTD/sodipodi-0.dtd" xmlns:svg="http://www.w3.org/2000/svg"
	 xmlns="http://www.w3.org/2000/svg" xmlns:xlink="http://www.w3.org/1999/xlink" x="0px" y="0px" viewBox="0 0 400 400"
	 style="enable-background:new 0 0 400 400;" xml:space="preserve">
<path d="M62.5,18.7v244.8c0,7.1,3.3,13.9,9,18c38.8,27.5-14,104.7,16,108.3c34.9-2.2-17.1-92.9,20.1-110.8c3.3-1.6,7-2.3,10.7-2.3
	h209.4c5.4,0,9.7-4.4,9.7-9.7V18.7c0-5.4-4.4-9.7-9.7-9.7H72.2C66.9,8.9,62.5,13.3,62.5,18.7z M316.2,265.7H83.8
	c-5.4,0-9.7-4.4-9.7-9.7V30.2c0-5.4,4.4-9.7,9.7-9.7h232.4c5.4,0,9.7,4.4,9.7,9.7V256C326,261.4,321.6,265.7,316.2,265.7z"/>
<path d="M114.4,195.9h12.9c2.1,0,4.1-0.6,6-1.6c28.5-16.6,41.5-20.5,47.7-12.6c0.9,1.1,1.5,2.5,1.9,3.8c0.8,3,2.5,9,2.5,8.9
	c0.3,1.2,1.4,2,2.7,2h16.4c1.9,0,3.2-1.8,2.7-3.6L171.8,73.8c-0.5-1.7-2.1-2.9-3.9-2.9H149c-1.8,0-3.4,1.2-3.9,3l-33.4,118.5
	C111.2,194.1,112.6,195.9,114.4,195.9z M147.3,138.4c2.1-7.6,4.2-16.1,6.3-25c2-8.5,3.6-15.8,4.8-21.8c0.2-0.8,1.3-0.8,1.4,0
	c1.3,6.2,3.4,14.1,6,23.7c2.5,9.6,4.2,17.1,5.8,23.2c0.4,1.8-0.9,3.5-2.7,3.5H150C148.1,141.9,146.8,140.1,147.3,138.4z M138,169.1
	l1.3-4.7c0.5-1.9,2.2-3.1,4.2-3.1h29c1.9,0,3,2.1,2,3.7C166.8,176.6,135.7,186.4,138,169.1z"/>
<path d="M231.7,242.9c14.1,0.1-5.3-40.6,13.4-44.5c1-0.2,2-0.2,3-0.1c0.9,0.1,1.7,0.1,2.6,0.1c6.7,0,16.5,0,21.9-1.8
	c4-1.3,7.2-2.5,10.7-4.5c2.4-1.3,3.8-3.8,3.8-6.5l0-79.7c0-1.6-1.3-2.8-2.8-2.8h-15.6c-1.6,0-2.8,1.3-2.8,2.8l0,26.2
	c0,1.2-0.1,2.5-0.5,3.7c-4.3,14.6-25.4-13.6-27.3-30.2c-0.2-1.4-1.4-2.5-2.8-2.5h-15.2c-1.6,0-2.8,1.3-2.8,2.8V165
	c0,9.9,2,17.4,5.7,22.4C240.2,213.2,217.9,241.1,231.7,242.9z M237.9,147c0-1.5,0.4-3,1.2-4.3c6.3-9.8,23.9,13.9,26.5,31.7
	c0.3,2-1,3.9-3,4.2c-0.9,0.2-1.5,0.3-1.5,0.3c-2.6,0.4-4.2,0.6-6.7,0.6c-6.1,0-10.3-1.2-12.7-4.2c-2.4-3-3.6-7.3-3.6-12.7V147z"/>
</svg>
