<?xml version="1.0" encoding="utf-8"?>
<!-- Generator: Adobe Illustrator 23.0.6, SVG Export Plug-In . SVG Version: 6.00 Build 0)  -->
<svg version="1.1"
	 id="svg8" xmlns:cc="http://creativecommons.org/ns#" xmlns:dc="http://purl.org/dc/elements/1.1/" xmlns:inkscape="http://www.inkscape.org/namespaces/inkscape" xmlns:rdf="http://www.w3.org/1999/02/22-rdf-syntax-ns#" xmlns:sodipodi="http://sodipodi.sourceforge.net/DTD/sodipodi-0.dtd" xmlns:svg="http://www.w3.org/2000/svg"
	 xmlns="http://www.w3.org/2000/svg" xmlns:xlink="http://www.w3.org/1999/xlink" x="0px" y="0px" viewBox="0 0 400 400"
	 style="enable-background:new 0 0 400 400;" xml:space="preserve">
<path d="M274.4,110.6c-3.2-2.5-6.5-4.3-10-5.4c-2.6-0.8-5.2-1.8-7.6-3c-10.5-5.4-18-13.5-21.1-25.2c-0.6-2.4-2.8-4-5.2-4h-10.3
	c-3,0-5.4,2.4-5.4,5.4v23.4c0,0.8,0,1.6-0.1,2.4c-3.2,37.6-14.3,64.8-31.1,57.3c-3.7-1.7-6.7-4.7-8.6-8.3c-0.3-0.6-0.6-1.3-1-1.9
	c-1.7-3.3-3.3-6.1-4.6-8.2c-0.8-1.4-0.3-3.1,1.2-3.8c4.1-2,8.5-5.3,12.5-9.8c4.9-5.5,7.3-12.7,7.3-22.5c0-11.5-4.2-20-11.5-26.1
	c-7.3-6.1-17.6-9.1-31-9.1h-13c-2.3,0-4.7,0.1-7,0.3c-3.5,0.3-7,0.3-10.9,0.3c-0.3,0-0.6,0.3-0.6,0.6l0,1.2v119.6c0,0.6,0,0.9,0,0.9
	c0,0.8,1.2,1,1.8,1h17c0.6,0,1.2,0,1.2,0c0.6,0,0.6,0,0.6-0.6c-0.4-10.5,13.4-44.2,24.1-26.2l0,0c0.9,1.6,1.7,3.3,2.6,5
	c5.5,10.3,9.7,17.6,11.5,21.2c0,0.6,0.6,0.6,0.6,0.6s0.6,0,1.2,0h19.4c0.6,0,1,0.1,1-0.5c-3-13.4,9.6-37.2,15.9-31.7
	c0.9,0.8,1.3,2,1.3,3.2c0,4.4,0,18.6,0,25.8c0,2.4,2,4.4,4.4,4.4h10.7c2.4,0,4.4-1.9,4.4-4.4l0.5-62.6c0-1.9,1-3.6,2.5-4.7
	c0.1-0.1,0.3-0.2,0.4-0.3c2.4-1.6,5.2-2.6,8-3.1c1.1-0.2,2.3-0.3,3.6-0.3c4.2,0,7.3,1.2,9.7,4.2c1.8,3,3,7.3,3,12.7l0,53
	c0,2.9,2.4,5.3,5.3,5.3h10.1c2.9,0,5.3-2.4,5.3-5.3v-54.2C282.9,124,279.8,114.9,274.4,110.6z M136.6,155.6V147
	c0-0.3,0.3-0.6,0.6-0.6h11.7c0.3,0,0.5,0.1,0.7,0.4c0,0.1,0.1,0.2,0.1,0.3c0.2,0.3,0.3,0.7,0.3,1.1c-0.1,5.8-8.3,23.1-13,9.8
	C136.7,157.2,136.6,156.4,136.6,155.6z M165.1,124c-4.9,3-10.3,4.2-17,4.2h-9.6c-0.7,0-1.3-0.6-1.3-1.3V91.3c0-0.7,0.6-1.3,1.3-1.3
	h4.1c2.4,0,4.2,0,6.7,0c6.7,0,12.1,1.8,16.4,4.9c4.2,3,6.1,7.9,6.1,14.6C171.8,116.1,170,120.9,165.1,124z M239.1,108.2
	c-0.3,0.2-0.7,0.4-1,0.5c0,0,0,0,0,0l0,0c-0.6,0.4-1.3,0.7-1.9,1.1c-0.5,0.3-1.2-0.1-1.2-0.7v-5c0-0.8,0.5-1.6,1.3-1.9
	C239.4,101.5,244.8,104.8,239.1,108.2z"/>
<path d="M327.8,8.6H72.2c-5.4,0-9.7,4.4-9.7,9.7v248.3c0,5.4,4.4,9.7,9.7,9.7h179.2c5.6,0,11.2,0.8,16.4,2.7
	c55.1,19.5-15.4,104.1,30.6,109.2c39.4-0.7-24.9-93.6,31.8-110.3c4.3-1.3,7.2-5.1,7.2-9.6v-250C337.5,13,333.1,8.6,327.8,8.6z
	 M326,255.7c0,5.4-4.4,9.7-9.7,9.7H83.8c-5.4,0-9.7-4.4-9.7-9.7V29.9c0-5.4,4.4-9.7,9.7-9.7h232.5c5.4,0,9.7,4.4,9.7,9.7V255.7z"/>
</svg>
