<?xml version="1.0" encoding="utf-8"?>
<!-- Generator: Adobe Illustrator 23.0.6, SVG Export Plug-In . SVG Version: 6.00 Build 0)  -->
<svg version="1.1"
	 id="svg8" xmlns:cc="http://creativecommons.org/ns#" xmlns:dc="http://purl.org/dc/elements/1.1/" xmlns:inkscape="http://www.inkscape.org/namespaces/inkscape" xmlns:rdf="http://www.w3.org/1999/02/22-rdf-syntax-ns#" xmlns:sodipodi="http://sodipodi.sourceforge.net/DTD/sodipodi-0.dtd" xmlns:svg="http://www.w3.org/2000/svg"
	 xmlns="http://www.w3.org/2000/svg" xmlns:xlink="http://www.w3.org/1999/xlink" x="0px" y="0px" viewBox="0 0 400 400"
	 style="enable-background:new 0 0 400 400;" xml:space="preserve">
<path d="M328,9.1H72c-5.3,0-9.5,4.3-9.5,9.5v248.7c0,5.3,4.3,9.5,9.5,9.5h210.5c4.1,0,8.1,1,11.5,3.2
	c29.2,18.8-12.4,99.9,17.5,101.1c28-2.4-14.4-82.5,18.4-101.4c4.6-2.6,7.5-7.4,7.5-12.7V18.6C337.5,13.4,333.2,9.1,328,9.1z
	 M326,256.3c0,5.3-4.3,9.5-9.5,9.5H83.6c-5.3,0-9.5-4.3-9.5-9.5v-44.5c0-17.8,2.9-35.4,8.8-52.2c6.8-19.2,15.2-30.9,16.7-12.1v41.5
	c0,4.2,3.4,7.6,7.6,7.6h5.8h16.4c6.7,0,13.4-0.6,20-3c6.7-2.4,13.4-6.1,18.8-10.9c5.5-4.9,10.3-11.5,14-20
	c2.1-4.9,3.6-10.5,4.5-16.7c0.2-1.6,0.5-3.1,0.8-4.7c2.2-10.1,7.2-20.2,10.8-11.7v0l13.2,60.6c0.8,3.5,3.8,5.9,7.4,5.9h9.8
	c3.5,0,6.6-2.5,7.4-5.9c2.1-9.7,6.3-28.8,8-37.2c1.7-8.1,3.1-15.3,4.2-21.2c0.2-1.3,2.1-1.2,2.3,0c0.9,6.3,2.1,13.4,3.8,21.8
	c1.8,8.3,5.3,27.2,7.2,37c0.7,3.6,3.8,6.1,7.4,6.1l9.5,0c3.5,0,6.5-2.4,7.3-5.7l19.3-77.8c1.2-4.8-2.4-9.4-7.3-9.4l-4.6,0
	c-3.1,0-5.8,2.1-6.5,5.2c-4,16.9-13.9,39.6-18.7,24.7c-1.5-8.9-3.3-18.7-4.4-24.9c-0.6-3.6-3.8-6.2-7.4-6.2h-9.5
	c-3.5,0-6.6,2.5-7.4,5.9c-2.4,10.8-7.3,33.3-8.7,41.4c-1.3,6-2.6,13.1-3.4,18.4c-0.2,1.3-2.1,1.3-2.3,0c-0.8-5.1-1.9-11.9-2.8-17.8
	c-1.6-9.8-3.8-23.9-6.9-41.1c-0.6-3.6-3.8-6.2-7.4-6.2l-8,0c-3.8,0-7.1,2.9-7.5,6.7c-0.4,3.8-1.3,7.5-2.6,9
	c-0.5,0.6-1.2,0.8-1.8,0.6c-0.7-0.3-1.1-0.9-1.2-1.6c-0.6-4.1-1.5-8-2.7-11.6c-2.4-7.9-6.1-14-10.9-19.4
	c-4.9-4.9-10.9-9.1-18.2-12.1c-7.3-3-15.8-4.2-25.5-4.2l-24,0c-3.4,0-6.4,2.3-7.3,5.6c-6.3,22.7-17.1,62.9-23,54.1
	c-0.7-1-1-2.2-1-3.4V30.1c0-5.3,4.3-9.5,9.5-9.5h232.9c5.3,0,9.5,4.3,9.5,9.5V256.3z M120.2,170.9V95.6c0-4.2,3.4-7.6,7.6-7.6h2.7
	c9.7,0,18.2,3.6,25.5,10.3c6.7,6.7,10.3,17.6,10.3,33.4c-0.6,15.8-3.6,27.9-10.9,35.2c-7.3,7.9-15.8,11.5-26.7,11.5h-0.9
	C123.6,178.5,120.2,175.1,120.2,170.9z M279.8,145.9c0.1,0.8,0.1,1.6-0.1,2.4c-0.2,1-0.3,1.9-0.5,2.8c-1,5.5-2.4,13-3.3,18.4
	c-0.2,1.3-2.1,1.3-2.3,0c-0.2-1.4-0.4-3-0.7-4.6c0,0,0,0,0,0C271.7,155.6,278.8,139.9,279.8,145.9z"/>
</svg>
