<?xml version="1.0" encoding="utf-8"?>
<!-- Generator: Adobe Illustrator 23.0.6, SVG Export Plug-In . SVG Version: 6.00 Build 0)  -->
<svg version="1.1"
	 id="svg8" xmlns:cc="http://creativecommons.org/ns#" xmlns:dc="http://purl.org/dc/elements/1.1/" xmlns:inkscape="http://www.inkscape.org/namespaces/inkscape" xmlns:rdf="http://www.w3.org/1999/02/22-rdf-syntax-ns#" xmlns:sodipodi="http://sodipodi.sourceforge.net/DTD/sodipodi-0.dtd" xmlns:svg="http://www.w3.org/2000/svg"
	 xmlns="http://www.w3.org/2000/svg" xmlns:xlink="http://www.w3.org/1999/xlink" x="0px" y="0px" viewBox="0 0 400 400"
	 style="enable-background:new 0 0 400 400;" xml:space="preserve">
<path d="M125.1,100c22.3,10.9,25.7,60.2,28.6,95.2c0,0,0,0.6,0.1,0.7c0,0.1,0.1,0.2,0.1,0.3c0.1,0.4,0.2,0.6,0.5,0.6
	c0.4,0,0.6,0,1.2,0h15.2h1.2c0.3,0,0.6-0.3,0.6-0.6v-95.1c0-0.9,0.8-1.7,1.7-1.7h26.9c0.6,0,0.8,0,1-0.3c0.2-0.2,0.2-0.3,0.2-0.9
	l-1.2-14.6c0-0.6-0.2-0.8-0.5-1c-0.3-0.2-0.7-0.2-1.3-0.2h-71.8c0,0-1,0-1.1,0.6c-0.1,0.6-0.1,0.7-0.2,1.3L124.7,97
	c-0.1,0.8-0.2,1.6-0.2,2.4C124.6,99.7,124.6,99.8,125.1,100z M144.6,100h7.6c0.8,0,1.5,0.7,1.5,1.5v18c0,0.9-0.1,1.8-0.5,2.6
	c-2.1,4.6-7-2-9.6-9.1C141.6,107.1,140.6,100,144.6,100z"/>
<path d="M227.4,255.5c1.4,0.3,2.8,0.4,4.2,0.1c15.2-3.7-11.1-44.3,5.7-52.9c1.5-0.8,3.2-1.1,4.8-1.2c9.4-0.5,16.9-3.6,23-9
	c6.7-5.5,9.7-13.4,9.7-23.1c0-6.1-1.8-12.2-4.9-17.6c-1.7-3.3-4.4-6.3-8.2-9.2c-3.1-2.4-5-3.7-9.4-6.2l-1.5-0.8
	c-2.2-1.2-3.3-3.9-4.1-5.4c-2.3-4.6-2.6-8.7-1.5-12.2c2.6-8.3,13.3-13,24.1-13c0.7,0,0.6-0.6,0.6-1.2V88.5c0-0.6,0-0.6,0-0.9
	c0-0.3,0-0.7-0.6-0.9c-2.4-1.2-4.9-2.4-8.5-3c-3.7-0.6-7.9-1.2-12.8-1.2c-11.6,0-20.1,3-26.2,9.1c-6.1,6.1-9.1,14-9.1,22.5
	c0,6.1,1.8,12.2,4.9,17c3,4.9,9.1,10.3,17.6,15.2l6.1,3c6.1,3.7,10.3,6.7,12.2,9.7c1.8,2.4,3,6.1,3,9.1c0,3.7-1.2,6.7-4.3,9.7
	c-3,3-7.3,4.3-13.4,4.3c-4.9,0-9.1-0.6-13.4-1.8c-3.9-1.1-7.8-2.7-11.2-5.3c-0.6-0.5-1.3-0.7-2.1-0.7h0c-0.6,0-0.6,0.6-0.6,0.6v15.8
	c0,0.6,0,0.8,0,1.4c0,0.6,0.2,0.7,0.5,1.1C234.3,215.6,207.7,250.9,227.4,255.5z M231.6,119.4c-0.7-1.8-1.2-3.6-1.2-5.4
	c0-3,1.2-6.1,3.7-9.1c1.2-1.2,2.4-2.4,4-3.1c1.1-0.5,2.3-1.1,3.8-1.1C250.1,100.7,237,130.5,231.6,119.4z"/>
<path d="M62.5,19.1v247.3c0,6.5,3.3,12.4,8.7,15.9c43,28.4-5.3,92.4,17.6,103.5c3,1.4,6.5,1.5,9.4-0.1c21.5-11.8-29.5-83.2,21.9-104
	c6.8-2.8,14.2-4,21.6-4h186.2c5.4,0,9.8-4.4,9.8-9.8V19.1c0-5.4-4.4-9.8-9.8-9.8H72.3C66.9,9.4,62.5,13.7,62.5,19.1z M316.2,266.7
	h-233c-5.4,0-9.8-4.4-9.8-9.8V30.7c0-5.4,4.4-9.8,9.8-9.8h233c5.4,0,9.8,4.4,9.8,9.8V257C325.9,262.4,321.6,266.7,316.2,266.7z"/>
</svg>
