<?xml version="1.0" encoding="utf-8"?>
<!-- Generator: Adobe Illustrator 23.0.6, SVG Export Plug-In . SVG Version: 6.00 Build 0)  -->
<svg version="1.1"
	 id="svg8" xmlns:cc="http://creativecommons.org/ns#" xmlns:dc="http://purl.org/dc/elements/1.1/" xmlns:inkscape="http://www.inkscape.org/namespaces/inkscape" xmlns:rdf="http://www.w3.org/1999/02/22-rdf-syntax-ns#" xmlns:sodipodi="http://sodipodi.sourceforge.net/DTD/sodipodi-0.dtd" xmlns:svg="http://www.w3.org/2000/svg"
	 xmlns="http://www.w3.org/2000/svg" xmlns:xlink="http://www.w3.org/1999/xlink" x="0px" y="0px" viewBox="0 0 400 400"
	 style="enable-background:new 0 0 400 400;" xml:space="preserve">
<path d="M327.5,9h-255c-5.2,0-9.5,4.2-9.5,9.5v247.4c0,5.3,2.8,10.3,7.5,12.9c36.8,20.7-8.8,99.5,22.4,101.1
	c21.5-0.6-0.3-49.4,6.3-80.9c2.9-13.6,15.2-23.2,29.1-23.2h199.3c5.2,0,9.5-4.2,9.5-9.5V18.5C337,13.3,332.7,9,327.5,9z
	 M325.5,255.4c0,5.2-4.2,9.5-9.5,9.5H84c-5.2,0-9.5-4.2-9.5-9.5V30c0-5.2,4.2-9.5,9.5-9.5h232c5.2,0,9.5,4.2,9.5,9.5V255.4z"/>
<path d="M249.9,140.3c-6-3-9.7-5.4-11.5-7.3c-1.8-1.8-2.4-4.2-2.4-6c0-1.8,0.6-3.6,2.4-5.4c1.8-1.8,5.4-3,9.7-3
	c3.6,0,6.9,0,11.3,2.1c4.4,2.1,5,4.4,7.7,4.4c0.6,0,0.9,0.1,1.5-0.6s0.6-1.1,0.6-1.7v-13c0-0.6,0-1.7,0-2.3s0-1-0.6-1.6
	c-1.7-1.1-3.8-1.7-6.9-2.3c-0.6-0.1-1.3-0.3-1.9-0.4c-3.4-0.9-7.3-0.9-11.8-0.9c-9.7,0-17.5,2.4-23,7.9c-2.2,2.2-4,4.5-5.4,7l0-0.1
	c-0.1,0.2-0.2,0.4-0.3,0.6c0,0,0,0,0,0c-5.7,10.8-10.3-7.4-14.5-20.5c-0.5-1.9-1.1-3.7-1.9-5.5c0-0.1-0.1-0.1-0.1-0.2l0,0
	c-1.7-3.9-4-7.4-6.8-10.5c-6.7-7.9-18.1-11.5-33.9-11.5c-6,0-11.5,0-16.3,0c-5.7,0-10.2,0-13.9,0c-1,0-1.8,0.8-1.8,1.8l0,121.3
	c0,0.5,0.2,1.1,0.6,1.5l0,0c0.4,0.4,0.9,0.6,1.5,0.6H148c0.5,0,1.1-0.2,1.5-0.6l0,0c0.4-0.4,0.6-0.9,0.6-1.5v-40.9
	c0-1,0.8-1.8,1.8-1.8h2.4c1.2,0,3,0,4.8,0c13.3,0,24.2-3,33.3-9.7c4-2.7,7.2-6.4,9.5-10.9c0.5-1,1.2-1.9,2.1-2.6
	c4.9-3.6,9.2,0.8,12.6,7.3c0.4,0.8,0.7,1.6,0.9,2.4c0.9,3.3,2.4,6.2,4.5,8.6c1.1,1.3,2.4,2.6,3.9,3.9c1.9,1.6,3.5,3.5,4.6,5.7
	c4,7.7,1,14.9-12.5,18c-0.6,0.1-1,0.5-1.3,1c-0.1,0.3-0.2,0.6-0.2,0.9l0,16.5c0,0.8,0.3,1.5,0.9,2.1c25.8,25.6-3.8,53.8,13.8,57
	c0.2,0,0.4,0,0.5,0c14.5-1.3-7.2-42.8,8.8-51.5c1.2-0.7,2.6-0.9,3.9-1c8-0.5,14.6-2.9,19.9-7.1c6-4.8,9.1-11.5,9.1-20.6
	c0-6.7-1.8-12.1-4.8-16.3C265,148.7,259,144.5,249.9,140.3z M161.5,131.2c-1.3,0.4-2.7,0.6-4.1,0.6l-3.7,0h-3.7
	c-0.7,0-1.2-0.5-1.2-1.2l0-7.6c0-0.7,0.1-1.4,0.3-2.1C152.5,109.7,175.9,126.9,161.5,131.2z M185,109.7c-2.1,4.2-4.6,6.3-7.9,6.4
	c-4.5,0.1-10-3.1-15-7.8c-3-2.8-5.8-6.2-8-9.8c-1.4-2.2-2.6-4.4-3.5-6.6c-1-2.3,0.7-4.8,3.2-4.8c2.4,0,4.2,0,6.7,0
	c7.9,0,13.9,1.8,18.1,5.4c4.3,3.7,7.1,6.2,6.9,13.5C185.4,107.9,185.5,108.9,185,109.7z M251.1,177.8c-1.2,1.2-3.2,1.9-5.6,2.2
	c-2.5,0.3-5-0.4-6.8-2.1c-6.9-6.6-1.5-16.2,7-15.3c1.7,0.2,3.3,0.9,4.6,2c0.4,0.3,0.8,0.7,1.1,1c1.6,1.7,2.6,3.9,2.6,5.6
	C254.1,174.1,252.9,175.9,251.1,177.8z"/>
</svg>
