<?xml version="1.0" encoding="utf-8"?>
<!-- Generator: Adobe Illustrator 23.0.6, SVG Export Plug-In . SVG Version: 6.00 Build 0)  -->
<svg version="1.1"
	 id="svg2" xmlns:cc="http://creativecommons.org/ns#" xmlns:dc="http://purl.org/dc/elements/1.1/" xmlns:inkscape="http://www.inkscape.org/namespaces/inkscape" xmlns:rdf="http://www.w3.org/1999/02/22-rdf-syntax-ns#" xmlns:sodipodi="http://sodipodi.sourceforge.net/DTD/sodipodi-0.dtd" xmlns:svg="http://www.w3.org/2000/svg"
	 xmlns="http://www.w3.org/2000/svg" xmlns:xlink="http://www.w3.org/1999/xlink" x="0px" y="0px" viewBox="0 0 400 400"
	 style="enable-background:new 0 0 400 400;" xml:space="preserve">
<path d="M336.5,216c1.4-2.4,1.4-5.4,0-7.8c-34.4-59.4-68.7-118.7-103-178c-1.4-2.4-3.9-3.8-6.7-3.8h-4.5c-2.7,0-5.3-1.5-6.7-3.8
	l0-0.1c-1.4-2.4-3.9-3.8-6.7-3.8l-35.8,0c-2.8,0-5.3,1.5-6.7,3.8c-5.2,9-10.5,18.1-15.7,27.2c-1.4,2.4-1.4,5.3,0,7.7
	c1.5,2.6,3,5.2,4.5,7.8c1.4,2.4,1.4,5.3,0,7.7c-13.3,22.9-26.5,45.8-39.7,68.6c-0.4,0.7-1.9,1.7-1.9,1.7s-15.7,9.1-23.5,13.7
	c-1.2,0.7-2.2,1.8-3,3c-5.9,10.1-11.8,20.2-17.6,30.4c-2,3.4-4,6.9-6,10.3c-1.4,2.4-1.4,5.4,0,7.7c6.1,10.5,12,20.8,18,31.1
	c1.4,2.4,3.9,3.9,6.6,3.8c2.8,0,5.3,1.4,6.7,3.8c0.8,1.3,1.5,2.6,2.3,3.9c1.4,2.4,3.9,3.8,6.7,3.8l88.5,0c4.1,0,8.3,0.5,12.3,1.6
	c36.2,10.2,1.6,51.2,22.7,52c17.9-4.8-17.4-35.1,18.6-50.9c4.1-1.8,8.6-2.7,13.1-2.7l30.4,0c4.9,0,9.5,2.7,11.6,7.1
	c9.5,20.2-13.5,73.8,6.3,75.4c18.7,0.8,4.1-35.9,4.4-65.6c0.1-8.7,2.5-17.1,6.8-24.6C324.5,236.7,330.4,226.4,336.5,216z
	 M213.1,34.3c1-1.9,3.8-1.9,4.9,0c3.1,5.4,6.1,10.6,9.2,15.9c1.2,2.1,1.2,4.7,0,6.9c-5.6,9.7-11.2,19.4-16.8,29.1
	c-0.7,1.2-1.9,2.2-3.3,2.4C197.6,90.2,201,56.8,213.1,34.3z M194.3,121.3c8-13.9,16-27.7,24.1-41.7c1.1-2,2.7-3.7,4.6-4.9
	c16.4-10.6-8.7,52,9.6,51.2c18.7,0.1-11.7-70.7,9-48.2c2.8,3,5.2,6.4,7.3,10c13.9,24.2,27.8,48.2,41.8,72.4c1.4,2.4-0.3,5.5-3.2,5.5
	h-67.6c-1.3,0-2.5-0.7-3.2-1.8c-7.4-12.8-14.9-25.8-22.5-38.8C193.6,123.8,193.6,122.4,194.3,121.3z M194.2,132.3
	c5.4,9.4,10.8,18.6,16.1,27.9c1.4,2.4-0.3,5.5-3.1,5.5c-7.6,0.1-14.9,0.2-22.2-0.2c-6.5-0.3-10.7-7.7-8-13.8
	c1.8-4.1,4.2-7.8,6.4-11.7c1.4-2.5,2.9-5.1,4.4-7.7C189.3,129.8,192.8,129.8,194.2,132.3z M178.1,181c-0.6-0.2-1.1-0.7-1.4-1.2
	c-1.5-2.6-3.1-5.3-4.6-8c-0.6-1,0.1-2.2,1.3-2.2h5.6c2,0,3.7,1.4,3.9,3.4C183.3,176.6,181,181.9,178.1,181z M146.1,233
	c-7.1,1.5-14.3,2.2-21.6,2.2h-21.6c-2.6,0-4.1-2.8-2.9-5c28-48.4,55.9-96.7,83.9-145.1c0.7-1.2,1.8-2.1,3.2-2.4
	c5.5-1.2,6,8.8,4.3,20.5c-2.1,14.2-7,27.8-14.1,40.2c-3.7,6.4-7.5,12.9-11.2,19.3c-1.1,1.9-1.1,4.2,0,6.1c3,5.1,5.9,10.2,8.9,15.4
	c3.5,6.1,5.2,13.1,4.6,20C178.1,220,166.2,228.7,146.1,233z M201,235.2h-23.3c-2.3,0-4-2.1-3.5-4.3c1.6-6.7,14-17.6,20.5-11.9
	c0.5,0.5,1,1.1,1.3,1.7l1,1.8c0,0,0,0,0,0c1.9,3.2,3.8,6.5,5.6,9.7C203.5,233.5,202.5,235.2,201,235.2z M197.1,212
	c-1.1,0-2.1-0.6-2.7-1.6c-0.8-1.3-1.5-2.6-2.3-3.9c-10.2-19.5-4.5-30.9,3.5-35.1c2.5-1.3,5.3-1.9,8-1.9H294c1.3,0,2.5,0.7,3.2,1.8
	c6.8,11.7,13.5,23.3,20.3,35.2c1.4,2.4-0.3,5.5-3.2,5.5L197.1,212z"/>
</svg>
