<?xml version="1.0" encoding="utf-8"?>
<!-- Generator: Adobe Illustrator 23.0.6, SVG Export Plug-In . SVG Version: 6.00 Build 0)  -->
<svg version="1.1" id="Layer_1" xmlns="http://www.w3.org/2000/svg" xmlns:xlink="http://www.w3.org/1999/xlink" x="0px" y="0px"
	 viewBox="0 0 400 400" enable-background="new 0 0 400 400" xml:space="preserve">
<path d="M169,279.9c-29.4,0-58.9,0-88.3,0c-4.7,0-4.7,0-4.7-4.7c0-6.8,0.1-13.7-0.1-20.5c0-2.3,0.5-3.1,2.9-3.2
	c13.1-0.3,20-12.9,13.3-24.3c-1.8-3-3-4.3-5.7-6.7c-0.9-0.9-2.9-2.1-5.7-2.3c-2.8-0.2-4.2-1-4.3-4.4c-0.2-6.7-0.4-13.5,0-20.2
	c0.2-3.1,1-3.8,3.9-3.8c28.1,0.1,56.2,0.1,84.4,0.1c7.1,0,14.1-4.8,16.5-11.2c2.2-6.1,0-12.6-6-17.5c-3.9-3.3-8.1-5.2-13.6-5.1
	c-27.3,0.3-54.6,0.1-81.8,0.2c-3,0-4-0.6-4-3.9c0-7-0.1-13.9,0-20.9c0-2.2,0.6-2.9,2.8-2.8c10.1,0.1,20.2,0.1,30.3,0
	c9.3,0,15.4-8.8,11.9-17.6c-3-7.6-7.3-10.9-14.2-14.7c-2.2-1.2-3.3-1.2-7.5-1.4c-7.3-0.2-12.3,0-19.6,0.1c-2.8,0.1-3.7-0.8-3.7-3.7
	c0-6.8-0.1-13.8,0-20.9c0-3.1,1-3.9,4-3.8c20.8,0.1,41.6,0.1,62.4,0.1c38.2,0,76.4,0,114.6-0.1c3.4,0,4.4,0.7,4.5,4.4
	c0.3,6.7,0.2,13.5,0,20.2c-0.1,3.2-1.1,3.8-4,3.8c-32.7-0.1-65.4,0-98.1,0c-6.5,0-7.9,0.7-9.9,6.9c-2.9,9-1,17.3,3.7,25.2
	c0.5,0.9,2.4,1.4,3.6,1.4c13,0.1,26,0.2,38.9,0c3,0,3.7,0.7,3.8,3.7c0.2,10.9,0.3,21.8,1.3,32.7c0.8,8.8,5.1,16.5,11.2,22.9
	c1.1,1.2,3.3,1.8,5,1.8c33.9,0.1,67.8,0.1,101.7,0.1c4.7,0,4.6,0,4.5,4.7c0.1,6.6,0,13.2,0,19.8c0,3.1-0.9,3.7-3.8,3.7
	c-55.2-0.1-110.3,0-165.5-0.2c-3.9,0-6.2,1.5-8.3,4.4c-6,8.7-4.3,21.5,4,28c1.2,1,3.3,1.1,5,1.1c34,0.1,68,0,102,0
	c5.4,0,4.5-0.3,4.5,4.7c0,6.7-0.1,13.5,0.1,20.2c0.1,3-0.9,3.6-3.7,3.6C228.1,279.9,198.5,279.9,169,279.9
	C169,279.9,169,279.9,169,279.9z"/>
<path d="M199.3,5.1c39.7,0,79.3,0,119-0.1c3.5,0,4.6,1,4.3,4.4c-0.3,2.7-0.1,5.5-0.1,8.3c0,7.9,0,15.7-2.3,23.5
	c-2.3,8.2-1.6,16.6,0.7,24.9c1.3,4.7,2.2,9.6,3.2,14.4c0.2,0.9,0.2,1.9,0.2,2.9c0,9.1-4.7,15.4-12.1,16.3c-8,1.1-16.6-4.4-18.2-12.6
	c-0.9-4.8-0.4-10,0.2-14.9c0.6-4.8,2.5-9.5,3.4-14.4c2-11.1-3-19.3-13.9-22.1c-5.4-1.4-11.1-2.3-16.7-2.3
	c-62.2-0.2-124.5-0.1-186.7,0c-3.3,0-4.4-0.6-4.4-4.2c0-6.5-0.1-13.2,0-20.2c0-3.3,1-4,4.1-4C119.7,5.1,159.5,5.1,199.3,5.1z"/>
</svg>
