<?xml version="1.0" encoding="utf-8"?>
<!-- Generator: Adobe Illustrator 23.0.6, SVG Export Plug-In . SVG Version: 6.00 Build 0)  -->
<svg version="1.1" id="Layer_1" xmlns="http://www.w3.org/2000/svg" xmlns:xlink="http://www.w3.org/1999/xlink" x="0px" y="0px"
	 viewBox="0 0 400 400" enable-background="new 0 0 400 400" xml:space="preserve">
<path d="M141.7,156.2c-1.7,0-3-1.4-3-3c0-7.9,0-15.3,0-22.7c0-1.9,0.9-2.7,2.7-2.6c0.7,0,1.5,0,2.2,0c37.9,0,75.8,0,113.6,0l0.5,0
	c2.4,0,4.3,1.9,4.4,4.3v0c0,9.2,0,18.4,0.1,27.6c0.2,10.5,4,19.5,11.6,27c2,1.9,4.5,2.8,9.7,2.8c13.2-0.1,22.4,0.1,35.6-0.1
	c3.6,0,5,1,5,5.9c0,5.1-0.1,11.1-0.1,17.1c0,4.1-0.5,5.8-3.8,5.8c-0.9,0-3.8,0-4.7,0c-57.9,0-112.8,0.1-170.6-0.1
	c-6.5,0-11.2,1.7-13.8,7.9c-2.8,6.5-2,12.6,2.7,17.8c4.7,5.2,10.5,8.2,17.8,8.1c45.7-0.1,91.4,0,137.2,0h0c2.5,0,4.5,2,4.5,4.5v20.8
	c0,1.5-1.2,2.8-2.8,2.8c0,0,0,0,0,0c-58.8,0-117.7,0-176.5-0.1c-6.4,0-6.6-2.5-6.7-10.8c-0.1-8.9,0.4-13.9-0.5-22.8
	c-0.5-5.7-1.2-9.2-3.3-14.6c-1.2-3.1-3.5-6.8-6.1-9c-1.8-1.6-4.9-2.9-7.4-3.3c-3-0.5-6.4-1-9.4-1c-2.5-0.1-4.6-0.9-4.1-4.2
	c1-6.8,0.6-13.8-0.1-20.7c-0.4-3.7,1.3-3.9,3.7-3.9c21,0,41.9,0,62.9,0c23.3,0,46.6,0.2,69.9-0.1c5.4-0.1,11-1.3,16.2-3
	c9.3-3.1,12.3-11.2,8.4-20.1c-0.3-0.7-0.7-1.3-1-2c-2.8-5.7-6.6-8.5-13.7-8.4c-26.5,0.5-53,0.2-79.4,0.2H141.7z"/>
<path d="M293.2,88.1c0,5.2,0.1,6.5-3.4,6.5c-11.4-0.1-22.8,0-34.2,0c-44,0-88,0-132.1,0c-5.7,0-9.6,3-10.8,8.7
	c-0.5,2.5-0.5,5.1-0.7,7.7c-0.3,2.9-0.3,5.9-0.9,8.8c-1.4,6.7-5.9,11-12,11.9c-6,0.9-12.7-2.4-15.8-7.9c-2.5-4.4-3-9.1-1.8-13.9
	c1.5-6.1,3.8-12,4.6-18.1c1.9-14.8,0.3-29.6-5.7-43.3C75,35.3,76,21.8,76,8c0-1.7,1.4-3,3-3l241.3,0c1.8,0,3.2,1.4,3.2,3.2
	c0,7.6-0.1,13.5,0,21c0.1,2.9-1.3,3.2-2.2,3.5c-1,0.3-4.6,0.1-5.7,0.1c-64.3,0-122.6-0.1-186.8-0.1c-7.6,0-10,2.2-12.1,4.8
	c-2.4,3.2-3,6.1-3,9.8c0,4.6,1.7,9.3,5.1,12.9c3.7,4,8.2,6.4,14.5,6.3c51.6-0.3,103.2-0.1,154.9-0.1h1.4c2.3,0,3.8,1.4,3.8,4.3
	L293.2,88.1z"/>
</svg>
