<?xml version="1.0" encoding="utf-8"?>
<!-- Generator: Adobe Illustrator 23.0.6, SVG Export Plug-In . SVG Version: 6.00 Build 0)  -->
<svg version="1.1" id="Layer_1" xmlns="http://www.w3.org/2000/svg" xmlns:xlink="http://www.w3.org/1999/xlink" x="0px" y="0px"
	 viewBox="0 0 400 400" enable-background="new 0 0 400 400" xml:space="preserve">
<path d="M200.1,155.2c-44.2,0-87.7,0-131.9,0c-4.8,0-5.7-0.9-5.7-5.7c0-5.7,0.2-10.5,0-16.1c-0.1-2.6,0.9-3.5,3.5-3.5
	c10.7,0.1,21.4,0,32.2,0.1c2.8,0,4.8-2.9,5.7-5.4c1.7-4.8,1.3-7.8-0.4-12.6c-2.1-5.6-5.9-8.4-11.9-8.5c-8.5-0.1-17-0.2-25.5-0.1
	c-2.8,0-3.7-0.9-3.6-3.7c0.2-6,0.2-12.1,0-18.1c-0.1-2.7,0.8-3.7,3.7-3.7C117.4,78,166.8,78,217.9,78c5.9,0,8.8-1,8.6-6.9
	c-0.2-8-0.6-10.7-4.8-14.6c-2.3-2.2-5.9-4.9-10.5-4.9c-48.1,0-96.3-0.1-144.4,0c-3.3,0-4.5-0.7-4.3-4.2c0.3-6,0.1-12.1,0-18.1
	c0-2.4,0.8-3.6,3.3-3.3c1.1,0.1,2.2,0,3.3,0c87.8,0,175.6,0,263.4,0c4.9,0,4.9,0,4.8,4.8c0,5.8-0.1,11.6,0.1,17.4
	c0.1,2.7-0.8,3.5-3.4,3.4c-18-0.1-36,0-53.9-0.1c-3.2,0-5.2,1-6.8,3.7c-3.6,6.1-4.4,12.3-1.6,18.9c1.2,2.7,3,4,6.2,4
	c18.4-0.1,36.9,0,55.3-0.1c3.2,0,4.2,0.8,4.2,4.1c0,5.8,0,11.6,0,17.8c0,3-1,3.6-3.7,3.5c-9.9-0.1-19.9,0-29.8,0
	c-49,0-98.1,0-147.1,0c-7.6,0-15.5,6.7-16.7,14.2c-1.2,7.4,3,12.4,10.4,12.4c60.8,0,120.6,0,181.4,0c4.6,0,5.5,0.8,5.5,5.5
	c0,5.6-0.3,10.3,0,15.9c0.2,3.3-1.1,3.9-4,3.9C289,155.2,244.5,155.2,200.1,155.2z"/>
<path d="M199.6,181.8c44.5,0,88.9,0,133.4,0c4.5,0,4.4,0,4.4,4.4c0,5.6-0.2,11.2,0.1,16.7c0.2,3.3-1.1,4.2-4.2,4.1
	c-18.1-0.1-36.2-0.1-54.3,0c-9.3,0.1-15.2,5.5-15.3,14.4s6.7,12.1,11.2,12.1c20.4,0,37.8,0,58.2,0c4.5,0,4.4,0,4.4,4.3
	c0,5.6,0,11.2,0,16.8c0,4.4,0,4.4-4.5,4.4c-49.4,0-98.7,0-148.1,0c-39.2,0-78.4,0-117.6,0c-4.6,0-4.6,0-4.6-4.7
	c0-5.6,0.2-11.2-0.1-16.7c-0.2-3.4,0.9-4.1,4.1-4.1c39.4,0.1,78.8,0.1,118.3,0.1c13.5,0,27,0,40.5,0c6,0,9.6-4.1,8.6-10.1
	c-1.1-6.2-3.1-9.7-7.6-13.8c-2.5-2.2-3.2-2.6-7.2-2.6c-50.4-0.1-100.7,0-151.1,0c-5.5,0-5.5,0-5.5-5.4c0-5.5,0.1-10.9-0.1-16.4
	c-0.1-2.7,0.7-3.5,3.4-3.5C110.5,181.9,155.1,181.8,199.6,181.8z"/>
</svg>
