<?xml version="1.0" encoding="utf-8"?>
<!-- Generator: Adobe Illustrator 23.0.6, SVG Export Plug-In . SVG Version: 6.00 Build 0)  -->
<svg version="1.1"
	 id="svg2" xmlns:cc="http://creativecommons.org/ns#" xmlns:dc="http://purl.org/dc/elements/1.1/" xmlns:inkscape="http://www.inkscape.org/namespaces/inkscape" xmlns:rdf="http://www.w3.org/1999/02/22-rdf-syntax-ns#" xmlns:sodipodi="http://sodipodi.sourceforge.net/DTD/sodipodi-0.dtd" xmlns:svg="http://www.w3.org/2000/svg"
	 xmlns="http://www.w3.org/2000/svg" xmlns:xlink="http://www.w3.org/1999/xlink" x="0px" y="0px" viewBox="0 0 400 400"
	 style="enable-background:new 0 0 400 400;" xml:space="preserve">
<path d="M331.3,234.1h-0.1h-67.6c-2.3,0-4.3-1.2-5.4-3.2L149.4,37.5c-1.1-1.9-3.2-3.1-5.5-3.1H69c-0.1,0.1-0.4,0.1-0.6,0.1
	c-3.4,0.1-6.1,3.1-5.9,6.5c0.1,2.4,1.6,4.4,3.6,5.4c41,27.6-8,93.4,24.7,93.9c30.7-0.5-16.4-76.4,11.6-91.3c2.5-1.3,5.3-1.9,8.2-1.9
	l26,0c2.3,0,4.3,1.2,5.4,3.2l108.7,193.3c0.7,1.2,1.6,2.1,2.8,2.6c33.5,20.3-10.2,90.7,26.6,92.6c27.9,0.5-14.7-83.8,13.4-90.7
	c1.5-0.4,3.1-0.4,4.6-0.2c26,2.6,0.3,36.8,18.3,39c16.2-1.8-8.8-30.4,12.6-39.2c1.2-0.5,2.5-0.8,3.7-1.1c2.7-0.7,4.7-3.1,4.7-6
	C337.6,236.9,334.8,234.1,331.3,234.1z"/>
<path d="M218.9,46.9h43.4c1,0,2,0,2.9,0.2c26.7,3.6-1.1,52.3,17.3,54.7c16.2,0.9-13.3-50.1,13.2-55.1c2.5-0.7,4.4-3.1,4.4-5.9
	c0.1-3.4-2.7-6.3-6.2-6.3h-0.1h-74.9h-0.6c-3.4,0.1-6.1,3.1-5.9,6.5C212.5,44.4,215.4,47,218.9,46.9z"/>
</svg>
