<?xml version="1.0" encoding="utf-8"?>
<!-- Generator: Adobe Illustrator 23.0.6, SVG Export Plug-In . SVG Version: 6.00 Build 0)  -->
<svg version="1.1"
	 id="svg4" inkscape:version="0.92.1 r15371" sodipodi:docname="android.svg" xmlns:cc="http://creativecommons.org/ns#" xmlns:dc="http://purl.org/dc/elements/1.1/" xmlns:inkscape="http://www.inkscape.org/namespaces/inkscape" xmlns:rdf="http://www.w3.org/1999/02/22-rdf-syntax-ns#" xmlns:sodipodi="http://sodipodi.sourceforge.net/DTD/sodipodi-0.dtd" xmlns:svg="http://www.w3.org/2000/svg"
	 xmlns="http://www.w3.org/2000/svg" xmlns:xlink="http://www.w3.org/1999/xlink" x="0px" y="0px" viewBox="0 0 400 400"
	 style="enable-background:new 0 0 400 400;" xml:space="preserve">
<style type="text/css">
	.st0{fill:#000005;}
</style>
<path class="st0" d="M316.3,110.8c0-9.4-7.6-17-17-17c-9.4,0-17,7.6-17,17l0,38.8l0-0.1c-0.9,12.7-3.5,30.9-6,26.1
	c-0.4-0.8-0.6-1.7-0.6-2.5l0-72.5c0-2-1.6-3.6-3.6-3.6l-37.2,0c-1.3,0-2.6-0.1-3.8-0.3c-9.6-1.8,23.1-4,41.7-5.3
	c2-0.1,3.5-1.8,3.3-3.8c-1-18.4-9.7-34.9-23.3-46.9c-5.6-5.8-9-13.5-3.9-31.9l0.2-0.4c0.6-1.1,0.2-2.6-0.9-3.2
	c-1.2-0.6-2.6-0.2-3.2,0.9l-10.4,19c-0.9,1.6-2.8,2.3-4.5,1.6c-9.3-3.7-19.5-5.7-30.3-5.7c-10.7,0-20.9,2-30.2,5.7
	c-1.7,0.7-3.6,0-4.5-1.6L154.8,6.2c-0.6-1.1-2.1-1.6-3.2-0.9c-1.2,0.6-1.6,2.1-0.9,3.2l10.1,18.4c1,1.7,0.3,3.9-1.4,4.9
	C139,43.6,125,63.9,123.7,87.4c-0.1,2.1,1.6,3.8,3.6,3.8l55.6,0c1.1,0,2.3,0.2,3.3,0.7c3.3,1.5,0,2.6-5.6,3.5
	c-6.6,1.2-13.2,1.7-19.9,1.7l-30.3,0c-4.6,0-6.2,1.6-6.2,3.6l0,40.4c0,1.7-0.3,3.5-0.8,5.1c-3.2,8.9-5-14-5.7-28v-7.4
	c0-9.4-7.6-17-17-17c-9.4,0-17,7.6-17,17l0,71c0,9.4,7.6,17,17,17c8.7,0,15.9-6.5,16.8-15c0.2-1.7,0.4-3.4,0.9-5
	c3.5-12.5,4-0.1,5.2,13.5c0.4,4.9,0.6,9.9,0.6,14.9c0,10,8.1,18.1,18.1,18.1l8.7,0c2,0,3.6,1.6,3.6,3.6l0,34c0,9.4,7.6,17,16.9,17
	c9.4,0,17-7.6,17-17l0-33.9c0-2,1.6-3.6,3.6-3.6l15.6,0c2,0,3.6,1.6,3.6,3.6l0,34c0,3.8,1.3,7.3,3.4,10.2c1.8,2.4,3.4,5,4.5,7.8
	c14.1,35.9-15.2,73.2,11.2,74.7c18.6-0.4-3.4-36,5.7-70.2c1.2-4.6,3.5-8.9,6.2-12.9c1.9-2.7,3-6,3-9.5l0-33.9c0-2,1.6-3.6,3.6-3.6
	l8.7,0c7.3,0,13.5-4.3,16.4-10.5c6.6-8.2-0.9-28.2,16.7-18.3l0.8,0.4c2.3,1.2,4.9,1.8,7.7,1.8c9.4,0,17-7.6,17-17L316.3,110.8z
	 M165.2,63.5c-3.5,0-6.4-2.9-6.4-6.4c0-3.5,2.9-6.4,6.4-6.4c3.5,0,6.4,2.9,6.4,6.4C171.6,60.6,168.8,63.5,165.2,63.5z M238.5,28.2
	l0.3-0.6c2.1-2.1,4.1,5.9,1.4,4.1c0,0,0,0,0,0c-0.3-0.2-0.6-0.3-0.9-0.5C238.3,30.5,237.9,29.2,238.5,28.2z M234.8,50.7
	c3.5,0,6.4,2.9,6.4,6.4c0,3.5-2.9,6.4-6.4,6.4c-3.5,0-6.4-2.9-6.4-6.4C228.4,53.6,231.2,50.7,234.8,50.7z"/>
</svg>
