<?xml version="1.0" encoding="utf-8"?>
<!-- Generator: Adobe Illustrator 23.0.6, SVG Export Plug-In . SVG Version: 6.00 Build 0)  -->
<svg version="1.1" id="Layer_1" xmlns="http://www.w3.org/2000/svg" xmlns:xlink="http://www.w3.org/1999/xlink" x="0px" y="0px"
	 viewBox="0 0 400 400" style="enable-background:new 0 0 400 400;" xml:space="preserve">
<path d="M184.2,108.1c3.6,0.1,11,0.4,15.7,0.1c4.7-0.2,22.4-1.4,33.6-1.4c26.6,0.1,53.2,0.6,79.8,1c4.8,0.1,9.6-0.3,14.3,0
	c5.4,0.3,7.8,3.3,9.7,8.3c2.3,6,5.8,11.4,8.2,17.4c1.5,3.8,2.3,8.1,2.7,12.2c0.4,3.5-1.8,5.4-5.5,5.4c-1.1,0-2.2,0.1-3.3-0.1
	c-2.2-0.3-3,0.6-3.2,2.6c-0.5,5.9-1.2,11.8-1.8,17.6c-0.4,4-3.9,7.6-7.9,7.7c-15.9,0.3-31.8,0.5-47.6,0.9c-4.8,0.1-9.4,1-14,3.2
	c-8.7,4.3-11.5,19.7-6.6,27.7c3,5,5.9,10.7,4.8,16.9c-0.7,3.9-3,7.6-4.2,11.5c-1.7,5.2-5.4,8.7-10.1,10.7c-8.5,3.6-17-1.5-20.5-9.6
	c-1.4-3.1-3.1-6.1-3.8-9.4c-0.7-3.3-1-7-0.2-10.2c0.9-3.9,2.8-7.5,4.7-11.1c3.8-7.3,1.9-20.5-4.9-24.7c-5.6-3.5-11.9-5.9-19.1-5.6
	c-9.2,0.5-18.4,0-27.6-0.1c-2.1,0-2.8,0.4-2.9,3c-0.2,9.3-0.5,18.7-1.5,28c-0.3,2.9-3.3,5.4-4.6,8.3c-1.3,3-2.9,6.3-2.8,9.5
	c0.2,6.7,1.7,13.4,2.3,20.1c0.1,1.5-0.7,3.6-1.8,4.6c-4.6,4.1-9.1,8.5-15.5,9.6c-2.2,0.4-4.7,0.6-6.7-0.1
	c-11.2-3.9-15.2-17.1-7.5-26.2c4.2-5,5.3-10.1,3.8-16.1c-1.2-4.8-2.1-9.9-4.5-14.1c-2.5-4.4-6-8.5-10-11.5
	c-11.1-8.4-22.9-16-34.1-24.3c-7.2-5.4-13.8-11.6-20.6-17.4c-2.6-2.2-5.2-4.4-7.3-7.1c-1.9-2.3-1.1-4.2,1.6-6.3
	c7.5-5.6,14.3-12.1,21.8-17.7c8.8-6.6,17.8-12.9,27-19c14.6-9.7,29.3-19,44-28.5c3.1-2.1,6.1-3.3,9.7-1.2c3.8,2.2,6.5,5.1,6.5,9.8
	c0.1,8.1,0,23,0.3,24.2s1.1,1.4,2.6,1.4S180.6,108,184.2,108.1z"/>
</svg>
