<?xml version="1.0" encoding="utf-8"?>
<!-- Generator: Adobe Illustrator 23.0.6, SVG Export Plug-In . SVG Version: 6.00 Build 0)  -->
<svg version="1.1" id="Layer_1" xmlns="http://www.w3.org/2000/svg" xmlns:xlink="http://www.w3.org/1999/xlink" x="0px" y="0px"
	 viewBox="0 0 400 400" style="enable-background:new 0 0 400 400;" xml:space="preserve">
<path d="M266.3,291.9c0.6-3.2,1.6-7.6,2.4-12.1c1.2-7.1-0.6-13.1-5.1-19c-12.3-16.3-29-27.8-43.5-41.7
	c-13.1-12.6-26.5-24.9-39.8-37.4c-14.1-13.3-40.8-38.8-42.1-39.9c-1.3-1.1-1.8-1.3-3-0.1c-1.2,1.3-13.7,13.6-20.1,20.8
	c-3.4,3.8-4.7,8.7-2.9,13.8c3.9,11.4-0.7,19.4-12.2,21.1c-8.6,1.3-15.6-5.7-13.8-14.3c0.7-3.3,2.7-6.2,3.4-9.5
	c0.9-4.2,2.1-8.8,1.4-12.9c-2.4-13.5-5.4-26.9-8.6-40.3c-4.5-18.8-10-37.3-13.9-56.2c-2.9-14.2-3.8-28.8-5.8-43.2
	C61.6,13.4,64.9,9.8,73,10.4c12.1,0.9,24.3,1.5,36.3,2.7c11,1.1,22,2.8,33.1,4.2c10.6,1.3,21.2,2.5,31.8,4
	c11.2,1.6,22.4,3.6,33.5,5.6c2.6,0.5,4.9,1,7.5,1.8c1.1,0.3,2.8,0.6,4.5,1.3s3.3,2.2,3.2,7.3c0,5.1-1.5,10.2-7.8,17
	c-5.7,6.3-16,18-16.8,19.2c-0.8,1.2-0.5,2.2,0.7,3.3s26.3,22.4,39.1,34c9,8.2,20.7,9.9,31.3,14.3c5.3,2.3,10.1,4.8,13.4,10
	c2.9,4.6,2.7,8.6,0.1,13c-0.5,0.9-1.1,1.7,0.1,3.7c1.2,2,30.6,29.5,45.9,44.3c4.9,4.7,10.8,9.2,7.7,17.3c-1.4,3.6-4.1,6.8-6.4,10
	c-2.2,3.1-4.5,6.1-6.9,9.1c-7.7,9.4-15.3,18.8-23.1,28.1c-5.2,6.3-8,13.1-4.9,21.1c3.7,9.3,1.6,17.1-6.2,22.6
	c-2.9,2-7.9,1.7-11.9,1.4C272.2,305,266.2,297.7,266.3,291.9z"/>
</svg>
