<?xml version="1.0" encoding="utf-8"?>
<!-- Generator: Adobe Illustrator 23.0.6, SVG Export Plug-In . SVG Version: 6.00 Build 0)  -->
<svg version="1.1" id="Layer_1" xmlns="http://www.w3.org/2000/svg" xmlns:xlink="http://www.w3.org/1999/xlink" x="0px" y="0px"
	 viewBox="0 0 400 400" style="enable-background:new 0 0 400 400;" xml:space="preserve">
<path d="M162.2,168.5c0.7,0,2-1.3,2-2.1c0-0.8-0.2-34.7-0.3-52.1c0-5.2,0.1-10.4,0.3-15.6c0.1-1.9,0.1-2.7-2.4-1.9
	c-1.9,0.6-4.4,0.4-6.3-0.3c-4.1-1.5-8.7-2.7-9.4-8.3c-0.8-6.3-1-12.4,1.9-18.3c3.6-7.2,7.3-14.4,11-21.6c3.9-7.7,6-15.9,6.5-24.6
	c0.2-3.7,0.6-7.4,1.3-11c0.7-3.5,2.9-5.1,6.7-5.3c6.8-0.4,13.6-2.1,20.4-2.3c7.1-0.2,14.3,0.5,21.4,1.2c5.4,0.5,10.7,1.7,16,2.3
	c4.2,0.5,7.6,3.5,7.6,7.6c0,11-0.3,22-0.1,33C239,60.1,239.8,71,240,82c0.1,5.2-0.7,10.3-1.1,15.5c-0.1,0.8-0.3,1.7-0.3,2.5
	c-0.8,20.7-1.5,41.4-2.3,62.1c-0.1,1.7,0,3.4,0,5c-0.1,1.9,0.5,2.5,2.7,2.6c9.7,0.6,19.5,1,28.9,2.8c3.3,0.6,5.8,2.4,5.8,5.2
	c0,2.7,0.1,5.1-1.3,7.4c-1.3,2.2-8.1,13.8-13,21.1c-10.1,14.8-20.5,29.4-31,43.9c-2.8,3.9-6.3,7.3-9.3,11.1
	c-6.3,8.1-8.9,16.9-4.8,27c1.9,4.7,3.7,9.5,2.4,14.9c-1,4-4.4,6.3-8.3,5c-0.4-0.1-0.9-0.4-1.3-0.4c-8.3-0.2-11.7-6.1-14.2-12.7
	c-0.6-1.6-0.4-4,0.3-5.7c2.2-5.2,1.8-7.2-1.9-11.9c-10-12.9-20-25.8-29.6-39.1c-4.4-6-7.8-12.7-11.5-19.1c-1-1.6-1.4-1.7-2.6-0.1
	c-1.6,2.1-3.5,5-5.7,5.4c-2.7,0.6-6.3-0.2-8.6-1.8c-2.9-2-4.2-5.7-2.8-9.3c2.3-6,0.9-11.7-0.8-17.4c-1.3-4.4-2.6-8.9-3.5-13.4
	c-1.3-6.8,4.7-13.6,11.6-13.7c2.8,0,4.8,0.1,8.4,0S161.4,168.5,162.2,168.5z"/>
</svg>
