<?xml version="1.0" encoding="utf-8"?>
<!-- Generator: Adobe Illustrator 23.0.6, SVG Export Plug-In . SVG Version: 6.00 Build 0)  -->
<svg version="1.1" id="Layer_1" xmlns="http://www.w3.org/2000/svg" xmlns:xlink="http://www.w3.org/1999/xlink" x="0px" y="0px"
	 viewBox="0 0 400 400" style="enable-background:new 0 0 400 400;" xml:space="preserve">
<path d="M213.2,244c-3.3,1.9-21,7.5-31,12.1c-5.6,2.6-10.6,6.6-15.3,10.6c-5.8,4.7-6.6,10.1-3.3,17.8c1.8,4.2,0.9,8.5-1,11.7
	c-2.7,4.8-6.8,8.7-12.5,10.4c-4.5,1.3-10.7-0.9-12.9-5.1c-1.9-3.7-4.4-7.4-4.8-11.3c-0.5-4.3,0.6-8.9,1.9-13.1
	c3.4-11.2-1.4-15.7-12.1-16c-15.6-0.5-31.3,1.3-46.9,2.1c-2.4,0.1-4.9,0.2-7.3-0.3c-5.3-1.2-5.9-3-5.1-8.3
	c2.1-14.3,3.7-28.7,5.9-42.9c1-6.4,2.6-12.6,4.2-18.9c0.8-3,1.2-5-3-5.2c-4-0.2-6.7-3.6-7.2-8.4c-0.8-7.6,0.6-14.4,6.3-20.2
	c9.8-10,16.4-22.1,20.9-35.3c2.2-6.5,4.8-13,13.2-12.6c3.3,0.2,7.2,1.5,9.5,3.6c7.1,6.5,13.6,13.8,20.4,20.6
	c0.6,0.6,2.9,0.7,3.5,0.1c15.3-14.6,30.4-29.4,45.6-44c7.4-7.1,15.1-13.8,22.7-20.7c10.5-9.5,21.1-18.8,31.5-28.4
	c10.3-9.5,20.5-19.1,30.8-28.7c1.5-1.3,3.1-2.5,4.9-3.5c3.4-1.9,6.2-1.7,9.3,1.3c4.9,4.8,9.8,10,15.6,13.4
	c10.6,6.2,16.2,16.3,22.5,25.9c1.1,1.6,2.5,3,4,4.3c7.4,6.2,12.4,20.9,8.4,29.8c-3.8,8.4-1.2,15.5,2.7,21.9
	c4.4,7.3,3.3,13.4-0.7,19.9c-2.5,4-9.4,5.6-13.5,3.2c-2.4-1.4-5-2.5-7.4-3.8c-4.1-2.4-6.6-5.6-6.1-10.8c0.9-4.7,1.7-9.4,2.6-14.1
	c0.6-3.1-0.7-4.3-3.3-2.6c-3.7,2.4-7.3,5-10.4,8.1c-7.5,7.6-14.6,15.6-22.2,23.1c-4.9,4.8-10.4,8.9-15.6,13.5
	c-4.2,3.7-8.1,7.6-12.3,11.3c-16.7,14.7-33.5,29.3-50.3,43.8c-1.9,1.6-2,2.4-0.1,4.3c4.7,4.8,8.9,10.1,13.4,15.2
	c1.6,1.8,3.3,3.6,4.9,5.4c5.1,5.7,6.8,9.8,4.9,14.4C216.9,242.7,216.5,242.1,213.2,244z"/>
</svg>
