<?xml version="1.0" encoding="utf-8"?>
<!-- Generator: Adobe Illustrator 23.0.6, SVG Export Plug-In . SVG Version: 6.00 Build 0)  -->
<svg version="1.1" id="Layer_1" xmlns="http://www.w3.org/2000/svg" xmlns:xlink="http://www.w3.org/1999/xlink" x="0px" y="0px"
	 viewBox="0 0 400 400" style="enable-background:new 0 0 400 400;" xml:space="preserve">
<path d="M88.2,5c4.4,0.3,9.8,0.4,15.4,0.4C118.3,5.6,133.2,6,148,6.1c36.2,0.3,86,0.7,108.6,1.1c22.6,0.4,56.4,0.9,62.6,1.2
	s6.8,0.6,4.6,6.2c-4.6,12-9.2,24-14.4,35.7c-8.8,19.8-17.8,39.6-27.2,59.2c-13.2,27.4-26.7,54.5-40.2,81.7
	c-8.3,16.7-16.7,33.4-24.9,50.1c-1.6,3.1-2.5,5.4-4.1,9.7c-1.5,4.3-5,14.4-4.8,21.6c0.2,7.3,1.3,14.5,4.5,21.9
	c1.3,3.1,4.1,6.9,6.3,11.3c2.2,4.5,2.3,10.2,2,13.4c-0.3,3.2-2.5,8.4-7.4,10.9c-11.9,6-23.7-3.7-23.2-17.9c0.2-6.1,3-12,3.7-18.1
	c0.5-4.7,0-8.6-1-13.2c-1-4.6-3.4-9.2-5.2-13.2c-17.3-38.5-35.1-76.8-52.5-115.2c-10.7-23.6-21-47.3-31.3-71
	c-6.9-15.9-13-32.1-19.4-48.2c-3.1-7.9-6.1-16.1-9.2-24C74.1,5.4,76.3,5,79.2,5C81.8,5,84.3,5,88.2,5z"/>
</svg>
