<?xml version="1.0" encoding="utf-8"?>
<!-- Generator: Adobe Illustrator 23.0.6, SVG Export Plug-In . SVG Version: 6.00 Build 0)  -->
<svg version="1.1" id="Layer_1" xmlns="http://www.w3.org/2000/svg" xmlns:xlink="http://www.w3.org/1999/xlink" x="0px" y="0px"
	 viewBox="0 0 400 400" style="enable-background:new 0 0 400 400;" xml:space="preserve">
<path d="M321.8,270.7c2.3,5.3,1.7,8.3-2.2,11.9c-8.3,7.5-10.2,18-4.8,28.3c4.7,9,4.8,17.7-1.8,25.6c-1.9,2.3-4.1,3.7-8.2,4.5
	c-4.1,0.8-9.5-1.4-13.4-4.6c-5-4.2-7.5-10.9-7.8-14.8s1.6-10.7,2-13c0.5-2.4-0.2-7-2.3-10c-2.1-3-6.3-4.7-9.4-3
	c-3.1,1.7-3.4,4.6-2.3,10s0.6,11-2.5,14c-3.1,3.1-9.1,4.8-14.9,2.7c-5.8-2.1-9.4-13-5.9-18.2c3.5-5.2,4.5-16-0.2-20.7
	c-4.7-4.7-7.7-5.1-12.2-5.1s-42.3-1.3-60.8-1.3s-24.3,2.7-33.9,10.6c-9.6,7.9-12,19.7-6.7,28.6c3.7,6.2,6.2,12,1.3,18.8
	c-4.8,6.7-11.2,9-19,8.6c-11.6-0.6-16.8-9.8-12.6-22.1c3.4-9.8,3.1-18.9-0.8-26.8c-2.1-4.2-5.1-8.3-9.4-11.6
	c-4.3-3.3-7.3-3.7-11.6-4.1s-6.5-2.4-4.6-7S195.9,11.5,196.9,9.4s1.8-4.4,3.1-4.4c1.3,0,2.1,1.5,3.5,4.5
	C204.8,12.5,319.5,265.4,321.8,270.7z"/>
</svg>
