<?xml version="1.0" encoding="utf-8"?>
<!-- Generator: Adobe Illustrator 23.0.6, SVG Export Plug-In . SVG Version: 6.00 Build 0)  -->
<svg version="1.1" id="Layer_1" xmlns="http://www.w3.org/2000/svg" xmlns:xlink="http://www.w3.org/1999/xlink" x="0px" y="0px"
	 viewBox="0 0 400 400" style="enable-background:new 0 0 400 400;" xml:space="preserve">
<path d="M184.9,248.2c-2.3-0.8-2.8-1.4-3.6-3.7c-0.8-2.3-0.8-6,0.1-9.3c1.2-4,3.7-7.6,7-11.1c5.9-6.2,16.1-17.9,17-19.2
	c0.9-1.3-0.1-2.3-0.7-2.8c-8-7.3-16-14.5-24-21.7c-11.8-10.5-23.7-20.9-35.6-31.3c-5.9-5.1-12.1-9.8-17.7-15.2
	c-9.2-9-17.9-18.6-27.2-27.4c-2.4-2.3-6.6-4.3-9.5-3.7c-2.8,0.6-3,2.9-2.9,4.4c0.4,5.2,0.5,10-2.5,14.7c-3.1,4.8-7.2,5.5-12.1,4.8
	c-5.2-0.8-8.4-3.8-9.9-8.7c-1.4-4.8-1.2-9.1,2.1-13.5c4-5.3,4.7-11.5,2.3-18c-3.1-8.5,1.3-21.4,8.5-28.3c3.7-3.5,6.1-8.3,9.3-12.4
	C89.2,41,92.6,35.8,97,31.7c7.3-6.6,15.3-12.6,23.3-18.4c1.5-1.1,4.5-0.8,6.5-0.1c2.2,0.8,4.2,2.5,6,4.1
	c23.9,21.7,47.9,43.3,71.6,65.1c9.4,8.7,18.3,17.8,27.5,26.7c10.2,9.9,20.6,19.7,30.8,29.5c1.6,1.6,2.6,1.6,4.3-0.2
	c6.8-7.4,13.6-14.7,20.8-21.6c6.2-5.9,18.2-2.1,20,6.1c3.5,16.2,10.7,30.5,21.2,43.3c2.4,3,4.3,6.5,5.8,10.1
	c2.7,6.1-0.2,11.6-6.8,12.8c-2.5,0.5-3,1.4-2.2,3.6c5.7,16.1,6.7,32.7,8.5,49.4c0.6,5.5,1.3,11.2,2.8,16.5c0.8,3,0,5-2.5,5.9
	c-3.7,1.3-4.1,1.2-11.4,3c-7.3,1.7-17.4,4.6-20.5,13c-0.7,1.8-0.2,4.1,0,6.2c0.4,5-0.1,9.7-3.9,13.6c-5.6,5.8-16.1,3.2-19.5-4.1
	c-2.6-5.6-2-10.8,0.4-15.7c4.5-9.3-4-17.8-11.9-18.9c-12.4-1.8-24.8-3.6-37.2-5.5c-11.5-1.8-31-4.9-34.6-5.6
	C192.4,249.9,187.1,249,184.9,248.2z"/>
</svg>
