<?xml version="1.0" encoding="utf-8"?>
<!-- Generator: Adobe Illustrator 23.0.6, SVG Export Plug-In . SVG Version: 6.00 Build 0)  -->
<svg version="1.1"
	 id="svg4" xmlns:cc="http://creativecommons.org/ns#" xmlns:dc="http://purl.org/dc/elements/1.1/" xmlns:inkscape="http://www.inkscape.org/namespaces/inkscape" xmlns:rdf="http://www.w3.org/1999/02/22-rdf-syntax-ns#" xmlns:sodipodi="http://sodipodi.sourceforge.net/DTD/sodipodi-0.dtd" xmlns:svg="http://www.w3.org/2000/svg"
	 xmlns="http://www.w3.org/2000/svg" xmlns:xlink="http://www.w3.org/1999/xlink" x="0px" y="0px" viewBox="0 0 400 400"
	 style="enable-background:new 0 0 400 400;" xml:space="preserve">
<path d="M330.9,129.2c-4.6-6-10.5-10.6-16.9-14.6c-0.8-0.5-1.7-1-2.6-1.5c-1.3-0.8-2.7-1.6-3.9-2.5c-16.7-12-23.1-22.8-22.2-38.4
	l0,0c0.1-0.8,0.2-1.6,0.3-2.3c1.1-9.4,1.5-18.9-1.2-28.1c-2.6-8.7-7.5-15.5-16.4-18.6c-7.1-2.5-14.3-1.7-21.3,0.4
	c-8.6,2.6-16.4,6.7-23.7,11.7c-2.1,1.4-4.5,2.4-7,2.8c-14.5,2.1-27.2-3.9-31.6-6.3c-0.6-0.3-1.2-0.7-1.8-1.2
	c-7.3-5.7-15.2-10.4-24.4-12.7c-10.6-2.6-20.1-0.7-27.5,8.1c-3.6,4.3-5.7,9.4-7,14.7c-3.3,13.6-2.4,27.2-0.3,40.9
	c0.5,3.1,1.1,6.1,1.6,9.2c0.1,0.5-0.2,1-0.7,1.1c-1.2,0.3-2.8,0.7-3.5,0.8c-12.8,2.8-23.9,6.2-35.5,12.6
	c-6.5,3.6-12.5,7.9-17.1,13.9c-4.4,5.8-6.5,12.3-5.4,19.7c0.7,4.7,2.7,8.8,5.4,12.5l0,0c0,0,0.1,0.1,0.1,0.1
	c0.7,0.9,1.4,1.8,2.2,2.7c0.5,0.6,1.1,1.3,1.6,2c23.4,30.5-3.8,66.4,14.3,70.7c17.8-0.5-5.7-33.9,11.8-55.5c0.3-0.4,0.7-0.7,1-1
	c0.6-0.4,1-1,1.4-1.7c0,0,0,0,0,0c0,0,0-0.1,0.1-0.1c1.3-2.6,0.4-5.7-2.4-7.3c-1.9-1.1-3.9-2.1-5.8-3.3c-6.5-3.9-12.6-8.3-16.6-15
	c-3.5-5.8-2.6-13.2,2.1-18.1c3.4-3.5,7.5-6.7,11.7-9.2c11.1-6.5,23.3-9.9,35.8-12.6c1.9-0.4,2.5,0.1,3,1.8
	c2.9,9.3,5.9,18.5,9.1,27.7c0.7,1.9,0.5,4-0.4,5.8c-12.7,24.2-23.3,49.1-26.6,76.6c-1.1,9.2-0.9,18.4,2.1,27.4
	c4,12,13.1,18.7,25.7,18.3c14.9-0.5,27.1-7.6,38.6-16.1l0,0c7-4.3,11.6-6,16-6.4c5.3-0.4,10.5,1.7,14.4,5.3
	c3.3,3.1,6.6,6.1,10.2,8.9c0.6,0.5,1.2,0.9,1.8,1.4l0,0c0,0,0.1,0,0.1,0c2.3,1.8,4.7,3.4,7.1,4.9c3.9,2.5,7.3,5.7,9.8,9.6
	c16.7,26.2-12.8,62.4,8,70.2c2.2,0.8,5.8,0.6,7.7-0.8c11.3-8.2-17.3-36,17.6-77.3c2.3-2.3,4.2-5.1,5.7-8.4c1.4-3,2.4-6.1,3.2-9.3
	c3.3-14.1,2.1-28.3-0.2-42.5c-3.4-20.2-9.8-39.6-17.7-58.4c-2.6-6.1-5.4-12.1-8.2-18.1c-1.1-2.4-3.5-3.6-5.7-3.3
	c-2.6,0.4-4.6,2.2-4.7,4.8c-0.1,1.4,0.4,3,1.1,4.3c7.8,16.5,14.7,33.3,19.5,50.9c4.7,17.2,8.3,34.5,6.6,52.5
	c-0.5,5.6-1.7,11-4.5,15.9c-3,5.2-7.5,7.8-13.7,7.4c-6.8-0.5-12.6-3.4-18.2-6.8c-11.9-7.4-21.7-17.2-30.8-27.8
	c-21.4-25.2-37.6-53.6-50.4-83.9c-0.4-0.9-0.1-2.4,0.4-3.3c7.5-11.7,15.2-23.4,22.8-35.1c1-1.6,2.3-2.2,4.2-2.1
	c12.9,0.6,25.9,0.9,38.8,1.8c16.2,1.2,32.2,4.1,47.9,8.2c15.1,4,29.7,9.1,43,17.4c5.7,3.5,11,7.6,14.8,13.3
	c4.1,6.1,3.2,14.1-1.9,19.5c-2.7,2.9-6,5.4-9.4,7.5c-4.2,2.6-8.8,4.4-13.3,6.6c-2.9,1.4-4.2,4.4-3,7.3c0,0.1,0.1,0.2,0.1,0.3
	c0,0,0,0.1,0.1,0.1c0.2,0.5,0.4,0.8,0.8,1.4c8.2,13.5-4.5,41,7.1,46.4c1.6,0.7,3.5,0.9,5.1,0.1c10.7-5.6-5.4-41.1,9.8-53
	c0.6-0.4,1.3-0.8,1.9-1.3c0.1-0.1,0.2-0.1,0.3-0.2c2.7-1.9,5.2-3.9,7.6-6.3C339.6,155.1,340.4,141.4,330.9,129.2z M175.1,204.3
	L175.1,204.3c7.9,14.7-0.8,28.3-7.5,33.2c-6.4,4.4-13.1,8.2-20.6,10.4c-3.3,0.9-6.8,1.6-10.1,1.5c-7.6-0.3-12.1-4.6-14.2-12.8
	c-2.5-9.6-1.5-19.2,0.2-28.8c3.1-17.2,9.2-33.4,16.6-49.2c1.2-2.6,2.5-5.2,3.9-8.1c0.4-0.8,1.5-0.8,1.8,0c0.9,1.9,2.1,4.4,2.3,5
	C155.7,173.9,163.7,187.6,175.1,204.3z M144.7,119.7l-5.6-17.8c-0.3-0.9,0.3-1.8,1.2-1.9l18.6-2c1.2-0.1,2,1.2,1.3,2.2
	c-4.4,6.7-8.6,13.1-13,19.8C146.6,121.1,145.1,120.9,144.7,119.7z M172.7,83.9c-1.7,2.2-3.6,2.8-7,2.7c-8.8-0.5-17.6,0.4-26.1,2.5
	c-2.6,0.7-3.4,0.4-3.7-1.3c-2.4-12.3-4.1-24.7-2.7-37.2c0.7-5.9,1.9-11.7,5.5-16.8c2.8-4,6.6-5.9,11.5-5.9c5.9,0,11.2,2.1,16.2,5
	c1.8,1.1,3.6,2.2,5.3,3.4c2.8,2.3,15,11.5,14.8,25.1c-0.1,4.3-1.9,8.4-4.7,11.6C178.6,76.6,175.6,80.2,172.7,83.9z M273.7,75.4
	c-1.4,6.5-7.6,11.5-18.2,14c-6.1,1.4-12.5,1.4-18.7,0.5c-15.9-2.3-31.9-3.5-48.1-3.6c0,0-2.8,0-3.3-0.1c-0.5,0,0.4-0.8,0.6-1
	c2.1-2.4,4.1-4.9,6.2-7.3c11.4-12.9,23.8-24.8,38.2-34.3c7-4.6,14.4-8.5,22.7-10.4c11.1-2.4,18.6,1.8,20.9,12.6
	c1.1,5.2,1.2,10.7,1.2,16.1C275.2,66.4,274.2,70.9,273.7,75.4z"/>
<path d="M217.2,142c0-8.8-7.2-16-16-16c-9,0-16.2,7.1-16.2,16c0,4.1,1.5,7.8,4.1,10.6c2.3,2.5,4.4,5.3,5.6,8.5
	c6.3,15.8-4.9,30.2,2.3,36c2.1,1.7,5.3,1.8,7.5,0.1c7.1-5.4-0.8-20.3,2.2-33.7c0.9-4.1,3.3-7.6,6.2-10.7
	C215.6,150,217.2,146.2,217.2,142z"/>
</svg>
