<?xml version="1.0" encoding="utf-8"?>
<!-- Generator: Adobe Illustrator 23.0.6, SVG Export Plug-In . SVG Version: 6.00 Build 0)  -->
<svg version="1.1"
	 id="svg4" xmlns:cc="http://creativecommons.org/ns#" xmlns:dc="http://purl.org/dc/elements/1.1/" xmlns:inkscape="http://www.inkscape.org/namespaces/inkscape" xmlns:rdf="http://www.w3.org/1999/02/22-rdf-syntax-ns#" xmlns:sodipodi="http://sodipodi.sourceforge.net/DTD/sodipodi-0.dtd" xmlns:svg="http://www.w3.org/2000/svg"
	 xmlns="http://www.w3.org/2000/svg" xmlns:xlink="http://www.w3.org/1999/xlink" x="0px" y="0px" viewBox="0 0 400 400"
	 style="enable-background:new 0 0 400 400;" xml:space="preserve">
<path d="M306.1,5.7L202.5,64.6c-1.6,0.9-3.5,0.9-5,0L93.9,5.7c-3.4-1.9-7.6,0.5-7.6,4.4v264.4c0,3.9,4.2,6.4,7.6,4.4l94.9-54
	c1.7-0.9,3.4-1.7,5.3-2.2c28.5-7.1-5.8,63,20.9,66.9c20-0.7-15.9-66.4,12.3-55.5l78.7,44.8c3.4,1.9,7.6-0.5,7.6-4.4V10.1
	C313.7,6.2,309.5,3.7,306.1,5.7z M214.3,165.4c-18.8-0.6,5.4-25.6,24.7-30.9c2.8-0.8,5.8-0.4,8.3,1.1l5.6,3.2c2.7,1.6,2.7,5.5,0,7.1
	l-31,17.6C219.6,164.8,216.9,165.5,214.3,165.4z M206.7,112.5L206.7,112.5c1.2,0.7,2.3,1.7,3,2.9c9.3,15.8,2.8,30.8-8.2,39.1
	c-9,6.9-21.5,7.3-31.3,1.6c-8.4-4.8-16.1-9.2-20.5-11.7c-1.7-0.9-1.7-3.3,0-4.3l48.6-27.7C200.9,111,204.1,111,206.7,112.5z
	 M157,91.6c-3.9,2.2-8.8,0.7-10.7-3.3c-2.6-5.3-1.5-12.3,7.7-9l8.4,4.8c1.7,1,1.7,3.4,0,4.4L157,91.6z M137.1,75.7
	c1.6,10.6-1.5,26.3-8.3,23.4c-1.9-0.8-3-2.8-3-4.9c0-5.5,0-18.8,0-26c0-2.2,2.4-3.6,4.3-2.5c0,0,0.1,0,0.1,0.1
	C133.8,67.9,136.4,71.5,137.1,75.7z M125.8,209.1V184c0-3.9,4.2-6.4,7.6-4.4l22,12.5c3.4,2,3.4,6.9,0,8.9l-22,12.6
	C130,215.5,125.8,213,125.8,209.1z M268.9,213.6l-22-12.6c-3.4-2-3.4-6.9,0-8.9l22-12.6c3.4-1.9,7.6,0.5,7.6,4.4v25.1
	C276.6,213,272.3,215.5,268.9,213.6z M268.9,105l-25.1-14.3c-3.4-2-3.4-6.9,0-8.9l25.1-14.3c3.4-1.9,7.6,0.5,7.6,4.4v28.6
	C276.6,104.5,272.3,107,268.9,105z"/>
</svg>
