<?xml version="1.0" encoding="utf-8"?>
<!-- Generator: Adobe Illustrator 23.0.6, SVG Export Plug-In . SVG Version: 6.00 Build 0)  -->
<svg version="1.1" id="Layer_1" xmlns="http://www.w3.org/2000/svg" xmlns:xlink="http://www.w3.org/1999/xlink" x="0px" y="0px"
	 viewBox="0 0 400 400" style="enable-background:new 0 0 400 400;" xml:space="preserve">
<path d="M200.1,5.2c8.3,0,16.5-0.4,24.8,0.1c9,0.6,18,1.6,26.8,3.2c10.5,1.9,20.9,4.1,31.2,6.9c10.1,2.8,19.7,6.9,28.1,13.5
	c7.2,5.6,10.3,12.5,8.4,21.9c-3,15.5-5,31.2-7.6,46.8c-2.9,17.5-5.9,34.9-8.8,52.3c-0.8,4.8-1.7,9.5-2.5,14.3
	c-1.2,7.1-5.9,11.6-11.3,15.6c-8.3,6.2-17.7,10.2-27.4,13.5c-4.7,1.6-6.7,5.3-7.4,9.6c-0.9,4.8,5.3,9.2,9.9,7.1
	c5.8-2.8,11.4-6.1,17.1-9.3c0.7-0.4,1.2-0.9,1.9-1.3c4-2.2,7.7-0.2,7.2,4.3c-0.5,5.3-1.7,10.6-2.6,15.9c-1.6,8.5-3.6,17-4.9,25.6
	c-1.2,8-5.4,13.9-11.9,18.2c-4.5,2.9-9.4,5.3-14.2,7.6c-2.6,1.2-4.6,2.9-6.3,5.1c-7.5,10.1-10,21.1-7,33.4c1,4.3,2,8.6,2.8,12.9
	c0.7,3.9,0.6,7.9-0.9,11.7c-2.2,5.6-7.4,9.2-13.3,9.1c-5.9,0-11.3-3.7-13.4-9.1c-1.8-4.4-1.6-9-1.2-13.7c0.4-4.8,1-9.7,0.8-14.5
	c-0.1-2.8-2.1-7.6-2.6-8.4s-1.4-1.4-2-1.3c-0.6,0.1-1.4,1.1-1.6,1.8c-0.6,2.2-0.9,4.5-1.6,6.7c-0.7,2.5-1.3,5.2-2.6,7.4
	c-3.6,6.1-11,6.9-16,1.8c-3.1-3.2-4.2-7.2-4.3-11.5c0-3.6,0.5-7.3,0.5-10.9c-0.1-2.7-0.5-5.4-1.2-8.1c-0.6-2.4-2.5-3.6-5.1-3.9
	c-9.8-1.2-19.6-2.6-29.1-5.6c-9.7-3-19.1-6.7-26.8-13.6c-4.2-3.7-7-8.2-7.9-14c-1.5-8.9-3.5-17.7-5.2-26.5c-1-5-1.9-9.9-2.8-14.9
	c-0.4-2.3-0.3-4.6,1.9-5.9c2.2-1.3,4.4-0.6,6.4,0.8c3.4,2.2,6.9,4.4,10.4,6.3c3.8,2.1,6.4,0.4,6.7-3.9c0.4-6.8-3.7-10.9-8.9-13.8
	c-6.6-3.6-13.3-6.9-18.9-11.9c-3.7-3.4-6.6-7.3-7.5-12.5c-1.5-9.1-3.2-18.2-4.8-27.3c-1.7-9.9-3.3-19.7-4.9-29.6
	c-2.5-15.1-5.1-30.1-7.6-45.2c-0.7-4.4-1.2-8.9-2-13.4c-1.3-7.3,1.1-13.2,6.4-18.1c6.1-5.6,13.4-9.3,21-12.2c13-5,26.4-8,40.1-10.3
	C165.4,5.3,182.7,4.8,200.1,5.2z M200.7,56.5c8.7-0.5,17.3-0.9,26-1.4c11.2-0.7,22.3-2.1,33.2-5c4.7-1.3,9.3-3.3,13.6-5.6
	c3.8-2.1,3.9-5.8,0.2-8.1c-3.2-2.1-6.8-3.8-10.4-4.8c-17.1-5-34.7-6.6-52.5-6.9c-2.5,0-4.5,0.9-5.9,3c-1,1.5-1.9,3.2-2.8,4.9
	c-3.1,5.9-6.1,7.3-12.6,6.2c-3.1-0.6-3.5-0.3-4.5,2.7c-0.7,2.3-1.3,4.7-2.4,6.8c-2.6,4.7-7.7,5.1-11.2,1.1c-1.3-1.5-2.3-3.5-3.1-5.4
	c-1.2-3-1.9-6.1-3-9.1c-2.2-5.8-6.5-8.1-12.5-7c-4.6,0.9-9.3,1.6-13.8,3c-4.3,1.3-8.5,3.1-12.3,5.3c-3.7,2.1-3.5,5.4-0.2,8
	c1.2,0.9,2.5,1.9,4,2.3c7.3,2.2,14.6,4.9,22.2,6.2C168.5,55.1,184.5,56.5,200.7,56.5z M200.2,175.1c20.9,0.3,37.5-17.5,37.6-37.4
	c0.1-21-17.8-37.9-37.7-37.8c-20,0.1-37.5,16.4-37.6,37.5C162.5,158.7,180.1,175.5,200.2,175.1z M156.4,198.1c-2.9-0.6-5.4,2-4.8,5
	c1.5,7.1,7.5,14.8,13.9,16.3c6.4,1.5,13,2.6,19.5,3.1c12.5,0.9,25,1,37.5-0.8c5.9-0.9,12.2-6.5,13.5-12.3c0.8-3.7-2.3-8.5-8-8.5
	c-2.6,0.3-4.7,0.4-6.9,0.8c-19.3,1.9-38.4,1.2-57.5-2C161.2,199,158.8,198.6,156.4,198.1z"/>
<path d="M180.8,139c0-11.6,7.3-19.7,18-20.7c9.3-0.8,17.9,5.3,20.2,14.8c1.3,5.4,0.3,10.4-2.6,14.8c-3,4.5-4.3,9.3-5.1,14.5
	c-0.3,2.1-0.9,4.3-1.7,6.3c-0.9,2.3-2.9,3.6-5.4,3.6c-2.4,0-4.2-1.4-5.2-3.5c-0.8-1.8-1.4-3.7-1.7-5.6c-0.7-4.1-2.2-7-6.5-9
	C184.1,151,181.1,144.9,180.8,139z"/>
</svg>
