<?xml version="1.0" encoding="utf-8"?>
<!-- Generator: Adobe Illustrator 23.0.6, SVG Export Plug-In . SVG Version: 6.00 Build 0)  -->
<svg version="1.1" id="Layer_1" xmlns="http://www.w3.org/2000/svg" xmlns:xlink="http://www.w3.org/1999/xlink" x="0px" y="0px"
	 viewBox="0 0 400 400" style="enable-background:new 0 0 400 400;" xml:space="preserve">
<path d="M97.7,141.9c0-44,0.1-87.9-0.1-131.9c0-4.4,1.2-5.3,5.4-5.3c29.9,0.2,59.8-0.4,89.7,0.3c20.8,0.5,41.4,3.3,60.6,12.3
	c17,8,30.5,19.7,36.1,38.2c7,23.4,6.2,46.3-9.5,66.2c-4.9,6.2-12.6,10.2-19,15.2c-0.1,0.1-0.2,0.1-0.2,0.2c-1,0.8-0.7,2.4,0.5,2.8
	c0,0,0,0,0,0c25,7.9,39.9,27.4,41.1,53.7c0.7,15-1,29.6-7.6,43.3c-9.7,20-26.8,30.8-47.2,37.2c-14.5,4.6-29.6,5.6-44.7,5.7
	c-33.6,0.1-67.1,0-100.7,0.1c-3.7,0-4.5-1.1-4.5-4.6C97.7,230.9,97.7,186.4,97.7,141.9z M159.3,196.5c0,10.4,0,20.8,0,31.2
	c0,1.8-0.3,3.7,2.6,3.6c5.8-0.2,11.7,0.2,17.5-0.3c22-2.1,32.2-19.7,22.2-39.4c-3.8-7.5-9.8-13.9-15.2-20.5
	c-5.9-7.2-13.5-10.5-23-9.2c-3.1,0.4-4.3,0.9-4.2,4.2C159.4,176.2,159.3,186.4,159.3,196.5z M231.7,87.8c0-8-1.6-15.5-6.8-21.8
	c-4.6-5.5-7.5-6.1-13.2-1.7c-12.8,9.8-18.3,23.1-16.6,39c0.5,4.6,1.5,7.9,4.2,11.9c1.5,2.2,4,3.6,7.6,3
	C223.7,115.4,231.9,104.3,231.7,87.8z M215,163.3c-1.6,0.2-2.3,2.3-1.9,4.1c0.3,1.4,0.6,2.5,1,3.5c3.2,8,15.1,15.8,23.6,15.3
	c2.5,0,2.7-2.5,2-4.2c-1.9-5.5-5.1-10.5-9.4-13.9c-3.4-2.8-7.6-4.5-12.3-4.8C217.2,163.3,216.5,163.1,215,163.3z M159.3,64.2
	c0,2.5-0.2,5,0.1,7.4c0.1,1,2.1,2.5,3.9,2.1c4.3-0.9,7.2-1.6,10.8-3.9c3.8-2.4,4.3-8.5,2.4-13.2c-1.7-4-4.4-3.7-7-3.8
	C160,52.6,159.3,54.2,159.3,64.2z M168.9,112.6c0.6-2.1,0-4.4-1.4-6.1c-1.3-1.5-2.9-3.2-4.6-4.7c-2.5-2.2-3.3-0.9-3.2,4.5
	c0,2.9-0.1,5.8-0.1,8.7c0,4.5,0.5,5.2,3.1,5C165,119.9,167.8,116.7,168.9,112.6z"/>
</svg>
