<?xml version="1.0" encoding="utf-8"?>
<!-- Generator: Adobe Illustrator 23.0.6, SVG Export Plug-In . SVG Version: 6.00 Build 0)  -->
<svg version="1.1"
	 id="svg4" xmlns:cc="http://creativecommons.org/ns#" xmlns:dc="http://purl.org/dc/elements/1.1/" xmlns:inkscape="http://www.inkscape.org/namespaces/inkscape" xmlns:rdf="http://www.w3.org/1999/02/22-rdf-syntax-ns#" xmlns:sodipodi="http://sodipodi.sourceforge.net/DTD/sodipodi-0.dtd" xmlns:svg="http://www.w3.org/2000/svg"
	 xmlns="http://www.w3.org/2000/svg" xmlns:xlink="http://www.w3.org/1999/xlink" x="0px" y="0px" viewBox="0 0 400 400"
	 style="enable-background:new 0 0 400 400;" xml:space="preserve">
<style type="text/css">
	.st0{fill:#00000C;}
</style>
<path class="st0" d="M300.9,5H99.1C78.9,5,62.6,21.4,62.6,41.6v201.8c0,20.2,16.4,36.6,36.6,36.6h116.2c9.8,0,19.5,3.1,27.2,9.1
	c38.4,30.2-12.4,96.2,25.8,99.5c32.7-0.8-41.6-101.1,32.2-108.5c1-0.1,2-0.1,3-0.2c19.2-1,34-17,34-36.5V41.6
	C337.4,21.4,321.1,5,300.9,5z M146.1,180.5V65.8c0-3.2,2.6-5.8,5.8-5.8l47.6,0c5.6,0,11.1,1.7,15.6,5.2c6.2,4.9,6.9,10.6,2.1,13.4
	c-1.4,0.8-3.1,1.2-4.7,1.1c-3.6,0-7.7,0.1-12.6,0.1h-28.4c-3.1,0-5.6,2.5-5.6,5.6v33.9c0,2.4,2,4.4,4.4,4.4l14.4,0
	c1.7,0,3.4,0.5,4.6,1.7c6,5.5-8.7,14.4-19.6,17.3c-2.3,0.6-3.9,2.7-3.9,5v36.8C163.6,198.5,147.9,194.7,146.1,180.5z M249.2,199.7
	c-0.3,0.8-0.9,1.5-1.6,2c-4.3,3-9.5,5.6-15.7,7.2c-6.6,1.7-14.8,2.8-24.4,2.8h-38c-3.1,0-6.2-1-8.6-2.9c-5.5-4.4-1.2-8.6,4.7-11.5
	c4.5-2.2,9.5-3.2,14.6-3.2h27.3c6.5,0,11-0.7,13.6-1.2c1.5-0.3,2.9-0.6,4.2-1c3.7-1.2,7.7-1.6,11.6-1.2
	C245.4,191.5,250.6,195.6,249.2,199.7z M261.6,181.9c-0.4,1.1-0.9,2.1-1.7,2.9c-6,6-18.3-2.6-17.3-11l0,0c0.5-2.1,0.7-4.3,0.7-6.6
	c0-5.6-1.4-10-4.3-14.2c-2.9-4.2-6.9-6.5-12-8.2c-5.1-1.7-12.5-1.3-22.2-1.3l-3.2,0c-1.6,0-3.3-0.5-4.5-1.6c-3.8-3.3-0.9-8.6,4.7-13
	c4.3-3.3,9.4-5.3,14.8-6.1c2-0.3,3.7-0.7,5.1-1.1c5.1-1.5,8.9-4.2,11.5-7.7c2.6-3.5,3.9-8,3.9-13.3c0-4.1-0.9-7.9-2.5-11.2
	c-2.9-8.5-7.6-19.3-1.2-22.5c2.3-1.1,5.1-0.7,7.2,0.7c4.1,2.8,7.5,6.3,10.2,10.6c4,6.4,5.9,13,5.9,19.9c0,6.5-1.8,12.6-5.3,18.3
	c-2.6,4.2-6.1,7.8-10.7,10.8c-1.9,1.3-1.7,4.1,0.4,5c6.4,2.7,11.6,6.6,15.4,11.7c4.9,6.5,7.4,14.1,7.4,22.9
	C264,172.4,263.2,177.3,261.6,181.9z"/>
</svg>
