<?xml version="1.0" encoding="utf-8"?>
<!-- Generator: Adobe Illustrator 23.0.6, SVG Export Plug-In . SVG Version: 6.00 Build 0)  -->
<svg version="1.1"
	 id="Layer_1" xmlns:cc="http://creativecommons.org/ns#" xmlns:dc="http://purl.org/dc/elements/1.1/" xmlns:inkscape="http://www.inkscape.org/namespaces/inkscape" xmlns:rdf="http://www.w3.org/1999/02/22-rdf-syntax-ns#" xmlns:sodipodi="http://sodipodi.sourceforge.net/DTD/sodipodi-0.dtd" xmlns:svg="http://www.w3.org/2000/svg"
	 xmlns="http://www.w3.org/2000/svg" xmlns:xlink="http://www.w3.org/1999/xlink" x="0px" y="0px" viewBox="0 0 400 400"
	 style="enable-background:new 0 0 400 400;" xml:space="preserve">
<path d="M131.1,118.9c-12.5-20.8-15.6-32.3-5.9-50.8c3.2-6,7.3-11.5,11.9-16.5c4.5-5,7.2-11.5,7.2-18.7C144.4,17.5,131.9,5,116.6,5
	c-15.5,0-27.9,12.4-28,27.9c0,6.5,2.2,12.5,6,17.2c1.1,1.4,2.2,2.8,3.2,4.3c19.1,29.8,13.3,31.2-2.2,71.4c-1.1,2.7-2.4,5.4-3.7,8
	c-2,3.8-3.1,8.2-3.2,12.7c-0.1,15.5,12.3,28,27.8,28c15.3,0.1,27.7-12.3,27.9-27.8c0-6.7-2.3-12.9-6.2-17.7
	C135.5,126,133.2,122.5,131.1,118.9z"/>
<path d="M116.9,223.7c-15.5-0.1-28.1,12.1-28.3,27.4c-0.2,15.5,12,28,27.6,28.3c15.5,0.2,28-12.1,28.1-27.7
	C144.5,236.4,132.1,223.8,116.9,223.7z"/>
<path d="M311.4,146.8c0-15.3-12.5-27.9-27.8-28c-15.4,0-27.8,12.4-27.8,27.9c0,6.5,2.1,12.4,5.8,17.1c2.1,2.7,4.1,5.5,5.9,8.5
	c15,25.7,9.5,28.3-2.9,55c-1.6,3.5-3.4,6.9-5.3,10.4c-2.2,4-3.5,8.6-3.6,13.6c-0.1,15.5,12.3,27.9,27.7,28
	c15.4,0.1,27.8-12.2,28-27.7c0.1-6.2-2.1-12-5.6-16.8c-2.1-2.8-4.2-5.6-6.1-8.5c-15.2-23.4-18.2-29.6-4.3-50.5
	c2.3-3.4,5-6.6,7.8-9.5C308.3,161.4,311.4,154.5,311.4,146.8z"/>
<path d="M276.5,64.1c9.8,18.5-10.2,39.9,6.9,43.8c20.1-1.8-1.9-22.5,8.8-43.8c1.8-3.6,4.6-6.5,7.8-8.8c6.9-5.1,11.4-13.3,11.4-22.5
	C311.3,17.3,298.7,4.9,283.3,5c-15.3,0.1-27.7,12.6-27.6,27.9c0.1,10.3,5.5,19.1,13.6,24C272.3,58.7,274.9,61.1,276.5,64.1z"/>
</svg>
