<?xml version="1.0" encoding="utf-8"?>
<!-- Generator: Adobe Illustrator 23.0.6, SVG Export Plug-In . SVG Version: 6.00 Build 0)  -->
<svg version="1.1"
	 id="svg4" xmlns:cc="http://creativecommons.org/ns#" xmlns:dc="http://purl.org/dc/elements/1.1/" xmlns:inkscape="http://www.inkscape.org/namespaces/inkscape" xmlns:rdf="http://www.w3.org/1999/02/22-rdf-syntax-ns#" xmlns:sodipodi="http://sodipodi.sourceforge.net/DTD/sodipodi-0.dtd" xmlns:svg="http://www.w3.org/2000/svg"
	 xmlns="http://www.w3.org/2000/svg" xmlns:xlink="http://www.w3.org/1999/xlink" x="0px" y="0px" viewBox="0 0 400 400"
	 style="enable-background:new 0 0 400 400;" xml:space="preserve">
<path d="M321.9,75.9c-1.4-2.5-5.1-6.6-7.1-7.7l-107.7-62c-1.8-1.1-4.3-1.6-7-1.6s-5.3,0.7-7,1.6L83.7,69.7c-3.8,2.3-6.6,8-6.6,12.3
	v126.8c0,2.5,0,5.4,1.6,8c1.1,1.8,2.7,3.4,4.3,4.3l83.2,48.1c7,4,12.9,9.8,17,16.8c21.1,36.8-11.7,84.3,15.9,85.1
	c25.7-3.1,6.2-37.3,11-68.5c2.2-13.9,10.7-26,22.8-33l83.4-48.5c3.8-2.3,6.6-8,6.6-12.3v-127C322.8,79.8,322.8,78,321.9,75.9z
	 M195.2,235.2c-47.1-2.5-84.4-41.6-85.1-88.6c-0.5-37.5,22-69.8,54.3-83.8c6.2-2.6,13.3-2.3,18.9,1.2c11.5,7.2,15.8,22.5-2.1,28.9
	l0,0c-22.8,8.2-38.8,30.7-37,56.7c2,27.1,23.5,49.1,50.6,51.5c19.5,1.8,37.3-6.7,48.5-20.5c3.3-4.1,9.1-5.1,13.6-2.4l11.2,6.6
	c5.4,3.2,6.9,10.5,3.1,15.5C254,222.6,226.2,236.9,195.2,235.2z M258.3,112.5C258.3,112.4,258.3,112.4,258.3,112.5
	c-17.9,7.5-53.7-49.3-31.2-51.6c2.3-0.2,4.5,0.2,6.7,1.1c15.1,6.1,28.1,16.2,37.8,29c3.9,5.1,2.4,12.5-3.1,15.7L258.3,112.5z"/>
</svg>
