<?xml version="1.0" encoding="utf-8"?>
<!-- Generator: Adobe Illustrator 23.0.6, SVG Export Plug-In . SVG Version: 6.00 Build 0)  -->
<svg version="1.1" id="Layer_1" xmlns="http://www.w3.org/2000/svg" xmlns:xlink="http://www.w3.org/1999/xlink" x="0px" y="0px"
	 viewBox="0 0 400 400" style="enable-background:new 0 0 400 400;" xml:space="preserve">
<path d="M298.8,189.7c-8.5,0.1-11-0.7-18-3.2c-7-2.5-11.4-7.9-14.2-14.3c-2.8-6.2-4.6-12.8-6.7-19.3c-1-3.2-1.4-4.3-2.9-9.9
	c-1.5-5.6-3.4-7.6-8.6-8.6c-11.2-2.2-21.5,2.9-25.5,13.5c-1.3,3.3-1.8,6.8-2.8,10.3c-1.1,3.7-1.7,7.6-3.5,10.9c-3.6,7-11.9,7-15.4,0
	c-2.2-4.6-2.9-9.9-4.4-14.8c-0.6-1.9-1-4.9-2.1-5.6s-3,1.1-4.1,1.9c-1.1,0.8-2.1,1.5-2.7,1.9c-6.9,4.9-12.4,3.6-16-4.2
	c-1.4-3-2.4-6.1-4-8.9c-1.8-3.3-4.6-4.8-8.6-3.5c-4.1,1.4-8.2,2.5-12.4,3.5c-3.3,0.8-4.7,2.8-5.3,6.1c-2,10.5-3.9,21-6.8,31.2
	c-3,10.8-10.7,16.9-21.8,19.9c-9,2.4-15.3,8.8-17.4,18.4c-1.2,5.2-2.3,10.4-3.9,15.5C90.4,235,88,239,83.3,241
	c-4.8,2-10.1,0.4-11.8-4.6c-1.3-3.8-2.1-8.2-1.5-12.1c1.9-12.7,0.7-24.6-3.9-37c-3.4-9.1-2.8-19.8-3.4-29.8
	c-0.4-6.6-0.4-13.4,0.8-19.9c1.8-9.4,6.2-17.7,13.9-24.1c11.7-9.8,24.8-17.5,38.9-22.9c11-4.2,22.8-6.2,34.2-9.3
	c13.5-3.6,27.2-5,41.1-5.9c10.3-0.7,13.4-1.1,30.9-0.2s59,6,86.5,18.1c3.7,1.6,6.8,2.7,11.2,4.9c4.4,2.2,5.6,5,7.2,8.9
	c6.1,14.9,8.3,30.6,9.8,46.3c0.7,7.3,0.6,15.1-1.3,22c-1.9,7.2-8.2,11.8-16,12.7C313.8,188.9,307.2,189.6,298.8,189.7z"/>
</svg>
