<?xml version="1.0" encoding="utf-8"?>
<!-- Generator: Adobe Illustrator 23.0.6, SVG Export Plug-In . SVG Version: 6.00 Build 0)  -->
<svg version="1.1" id="Layer_1" xmlns="http://www.w3.org/2000/svg" xmlns:xlink="http://www.w3.org/1999/xlink" x="0px" y="0px"
	 viewBox="0 0 400 400" style="enable-background:new 0 0 400 400;" xml:space="preserve">
<path d="M356.7,34.9c-2.9-11.6-9.2-21.2-17.6-29.5c-2-2-4.6-3.5-7.3-4.5c-4.8-1.9-8.8-0.6-11.9,3.7c-2.2,3.1-4.8,5.9-6.7,9.1
	c-4.7,8.3-11.2,12.2-21.5,11.9c-21-0.7-42.2,1.2-63.2-0.4c-24-1.9-47.9,0.3-71.8,0.2c-16-0.1-32,0.1-48,0.1
	c-12-0.1-23.9-0.5-35.9-0.6c-3.8,0-6,2-6.2,5.9c-0.7,11-1.7,22-2.1,33c-0.9,32.9-2,65.9-2.1,98.8c-0.1,28.5,1,57,1.7,88.5
	c0.7,5.8,1.6,14.7,2.8,23.5c0.3,2,1.1,4.6,2.6,5.7c6.2,4.6,7.2,11,8.5,17.8c1.2,6.2,2.8,12.6,5.7,18.1c3.4,6.5,11.9,9.2,17.8,7
	c6.1-2.3,8.8-8.3,7.5-16.6c-0.7-4.6-1.7-9.2-1.6-13.7c0.2-7.8,7.8-14.5,15.6-14.4c20,0.3,39.9,0.9,59.9,1
	c16.2,0.1,32.3-0.5,48.5-0.9c3.9-0.1,6.9,0.9,9.8,3.5c8.7,8.1,11.3,17.8,9.5,29.2c-0.7,4.2-1.2,8.5-0.9,12.7
	c0.4,6.3,4.4,10.9,9.7,12.2c6.1,1.6,12-0.5,15.5-6.2c1.9-3.1,3.2-6.8,3.7-10.4c0.7-4.4-0.2-8.9,0.4-13.3c0.4-2.8,1.9-7.5,3.6-7.8
	c2.8-0.5,6.7,1.2,9,3.2c5.4,4.6,5.8,12.3,2.1,20.3c-2.9,6.3-6.4,12.5-8,19.2c-3,12.6,6.4,22.6,19.6,21.9c8.8-0.5,16-7,18-16
	c2.2-10-1.1-19.4-3.4-28.9c-2.8-11.8-1.7-23.1,6.2-32.4c6.2-7.4,7.7-15.5,8-24.3c1.1-28.3,2.6-56.6,2.9-84.9
	c0.3-29.9-0.5-59.8-1-89.8c-0.1-6.6-1-13.2-1-19.7c0-2.4,0.8-5.3,2.3-7c5.1-5.6,10.6-10.8,16-16.1C356.2,41.4,357.6,38.8,356.7,34.9
	z M307.1,198.3c-0.7,16.4-1.5,32.7-1.9,49.1c-0.1,5.1-1.7,5.8-6.8,5.6c-19.4-0.5-38.9-0.2-58.4-0.2c-26.5,0.1-53.1,0.2-79.6,0.3
	c-21.1,0.1-42.1,0-63.2,0.3c-2.7,0-3.6-0.7-3.7-3.1c-0.1-2.8-0.5-5.7-0.6-8.5c-1-30.1-2-60.1-3.1-91.8c1.2-30.7,2.4-63.1,3.7-95.5
	c0.1-2.3-0.1-4.3,3.8-4.3c21.4,0.3,42.9,0.4,64.3,0.4c38.9,0.1,77.8,0.2,116.7,0.3c1.2,0,3.6,0.1,3.7,0.8c0.1,0.8-1.3,2.8-2.2,3.9
	c-22.6,29.3-45.2,58.5-67.7,87.8c-3.5,4.5-7.1,9.1-10.1,13.9c-2.7,4.3-4.4,3.5-6.9,0c-4.6-6.8-9.4-13.5-14.2-20.2
	c-7.8-11.1-11.3-11.4-20.2-1.5c-3.8,4.3-7.3,8.9-10.9,13.4c-2.6,3.3-1.6,6.6,0.5,9.4c9.1,12,18.5,23.8,27.8,35.7
	c0.3,0.4,0.8,0.8,1.2,1c9.2,4.7,9,12.4,7.2,20.7c-0.6,2.8-1.2,5.6-1.4,8.4c-0.3,7.5,3.9,13.2,10.6,15c7.1,1.8,14.5-1.5,17.9-7.9
	c3.4-6.4,2.9-13.2,1.7-19.9c-1.8-10-3.3-20,2.6-29.1c4-6.1,8.6-11.9,13.7-17.1c22.8-23.2,46-46.1,69-69.2c0.5-0.5,1.1-1.3,1.7-1.9
	c0.6-0.6,1.9-2.2,2.9-1.7c1,0.5,1,2.5,1,3.8c1,18.1,2.5,36.3,2.7,54.4C309.2,166.6,307.8,182.5,307.1,198.3z"/>
</svg>
