<?xml version="1.0" encoding="utf-8"?>
<!-- Generator: Adobe Illustrator 23.0.6, SVG Export Plug-In . SVG Version: 6.00 Build 0)  -->
<svg version="1.1"
	 id="Layer_1" xmlns:cc="http://creativecommons.org/ns#" xmlns:dc="http://purl.org/dc/elements/1.1/" xmlns:inkscape="http://www.inkscape.org/namespaces/inkscape" xmlns:rdf="http://www.w3.org/1999/02/22-rdf-syntax-ns#" xmlns:sodipodi="http://sodipodi.sourceforge.net/DTD/sodipodi-0.dtd" xmlns:svg="http://www.w3.org/2000/svg"
	 xmlns="http://www.w3.org/2000/svg" xmlns:xlink="http://www.w3.org/1999/xlink" x="0px" y="0px" viewBox="0 0 400 400"
	 style="enable-background:new 0 0 400 400;" xml:space="preserve">
<path d="M198.1,5C134,5,80.2,49,64.9,108c0,0.4-0.4,1.2-0.4,1.6c0,3.5,2.7,6.7,6.7,6.7h55.5c2.7,0,4.8-1.6,5.9-4
	c11.1-24.5,35.4-41.2,63.2-42.1c1.5,0,2.8,0.4,4,1.1c14.7,9.4,23.8,30.3,0.4,37.6c-1.8,0.6-3.7,1-5.6,1.2
	c-16.3,1.8-28.9,15.6-28.9,32.4c0,18,14.7,32.7,32.7,32.7c17.9-0.1,32.6-14.6,32.6-32.7c0-3.4-0.5-6.6-1.5-9.7
	c-0.4-1.3-0.7-2.6-1-3.9c-5.9-34.4,11.2-32.2,29.3-22.7c2.3,1.3,4.3,3.3,5.4,5.7c4.3,9.2,6.6,19.4,6.6,30.2
	c0,39.7-32.2,71.9-71.9,71.9c-29.1,0-53.8-17.3-65.2-41.7c-1.2-2.7-3.1-4.4-5.9-4.4H71.1c-0.1,0-0.2,0-0.2,0c-4.2,0.1-7.2,4.3-6,8.2
	c4.6,16.8,12.4,33.5,22.4,47.3c2.2,3.1,4.1,6.3,5.6,9.8C123,302,80.6,364,111,381.1c6.1,3.5,13.5,4.1,20.1,1.7
	c42.7-14.9-18.4-116.2,11.4-114c1.5,0.1,2.9,0.5,4.4,1.1c15.8,6.4,33.2,9.9,51.2,9.9c75.9,0,137.6-61.8,137.6-137.6
	C335.6,66.8,273.9,5,198.1,5z"/>
</svg>
