<?xml version="1.0" encoding="utf-8"?>
<!-- Generator: Adobe Illustrator 23.0.6, SVG Export Plug-In . SVG Version: 6.00 Build 0)  -->
<svg version="1.1" id="Layer_1" xmlns="http://www.w3.org/2000/svg" xmlns:xlink="http://www.w3.org/1999/xlink" x="0px" y="0px"
	 viewBox="0 0 400 400" style="enable-background:new 0 0 400 400;" xml:space="preserve">
<path d="M290,126.8c-7.3,0.5-12.5-5.7-12.3-13c0.2-6.8,0.2-13.5,0.2-20.3c0-0.9-0.6-2.3-1.3-2.6c-0.6-0.3-2,0.3-2.7,1
	c-3.8,3.9-7.5,7.8-11.1,11.9c-9.9,11.4-19.7,22.8-29.5,34.2c-1.9,2.2-2.3,4.4-0.5,6.8c3.7,5,7.2,10.2,11.1,15
	c6.3,7.8,12.7,15.4,19.3,22.9c4.7,5.4,10.3,10,14.4,15.8c16.3,23.3,32.2,47,48.2,70.5c2.5,3.7,3.5,7,1.4,11.8
	c-2.3,5.5-2.7,11.8,0.6,17.7c3.7,6.6,4.4,13.5,2.1,20.8c-2.6,8.2-11.8,12.5-19.8,9c-0.9-0.4-2.1-0.8-3.1-0.6
	c-4.5,0.9-6.9-1.7-8.1-5.4c-2.2-7-3.8-14.1-0.1-21.3c1.1-2.2,1.5-4.8,1.9-7.3c1.2-8.3-2.5-13.8-10.8-16.5c-0.8-0.2-1.6-0.8-2.1-1.5
	c-2.9-4.1-5.7-8.3-8.7-12.3c-6-8.3-11.8-16.7-18.2-24.7c-7.8-9.7-16.2-19-24.4-28.5c-4.4-5.1-8.8-10.3-13.4-15.3
	c-6.2-6.9-12.5-13.8-18.7-20.7c-1.6-1.8-3.4-2-5.3-0.5c-5,4-9.6,8.4-11.9,14.7c-0.4,1-1.1,2-1.8,2.8c-4.5,5.9-1.5,12.3-0.6,18.5
	c0.4,2.7,1.5,5.4,2.1,8.1c1.5,6.9-1.5,12.6-5.5,17.7c-1.3,1.6-4.5,2.3-6.9,2.4c-9.3,0.4-15.2-7.7-12.4-16.4c1.2-3.6,1.6-6.6-0.9-6.6
	s-9.6,10.5-13.9,15.9c-5,6.4-9.6,13.1-14.3,19.6c-5.6,7.6-11.1,15.3-16.7,22.9c-2.6,3.5-6,5.5-10.6,5c-1.7-0.2-3.4,0.1-5.1,0.2
	c-4.9,0.3-9.8,0.6-14.7,0.9c-4.4,0.3-6.7-2.6-8.7-5.9c-2-3.2-0.5-6,1.2-8.6c11.4-16.9,22.7-33.8,34.3-50.6
	c6.1-8.8,11.8-18.4,19.5-25.7c11.8-11.1,20.3-24.9,31.6-36.3c3.4-3.5,5.5-7.7,4.3-12.6c-0.6-2.3-2.2-4.4-3.7-6.3
	c-8.8-11-16.8-23-26.8-32.7c-15.2-14.7-24.9-33.4-38.1-49.5c-1.3-1.6-3.9-3.4-4.8-4.2c-1-0.8-1.6-0.5-1.3,1c0.3,1.5,0.4,2.7,0.8,4.1
	c1.1,3.9,3.1,7.8,3.2,11.7c0.1,2.5-2,6-4.2,7.5c-4.6,3.1-10.5,3.8-15.2,1.2c-3.2-1.8-5.2-6-7.1-9.5c-4.5-7.9-0.4-15.1,2-22.7
	c1.6-5,1.2-10.7,1.4-16.1c0.1-2.1-0.5-4.2-0.7-6.3c-0.6-5.7,2-10.5,7.6-12C85.2,5.2,89.7,5,94,5c4,0,8,0.7,12,1
	c3.6,0.3,6.6,1.6,8.8,4.6c8.8,12,17.5,24.2,26.7,35.9C149.1,56,157.2,65,165.2,74c9.7,11.1,19.6,22.1,29.5,32.9
	c1.6,1.8,4.4,4,6.2,4.1s2.8-0.5,3.6-1.4c7.9-8.1,15.8-16.2,23.3-24.7c8.1-9.1,16-18.4,23.6-28c10.7-13.4,21-27.2,31.6-40.7
	c4.7-6,11-9.8,18.7-10.4c6.5-0.5,13-0.8,19.5-0.5c6.1,0.3,8.5,5.4,5.3,10.6c-4.9,8.1-9.7,16.2-14.7,24.3
	c-6.4,10.4-7.7,22.3-10.1,33.9c-1.6,7.8,1.1,14.8,3.3,21.7c2.6,8,1.7,18.9,0.4,22.8C304.4,122.5,297.3,126.3,290,126.8z"/>
</svg>
