<?xml version="1.0" encoding="utf-8"?>
<!-- Generator: Adobe Illustrator 23.0.6, SVG Export Plug-In . SVG Version: 6.00 Build 0)  -->
<svg version="1.1" id="Layer_1" xmlns="http://www.w3.org/2000/svg" xmlns:xlink="http://www.w3.org/1999/xlink" x="0px" y="0px"
	 viewBox="0 0 400 400" style="enable-background:new 0 0 400 400;" xml:space="preserve">
<path d="M276.1,5.1c18.6,0,37.3,0.1,55.9-0.1c4.4-0.1,5.7,1.3,5.5,5.6c0,6.6,0.1,13.3,0,20.1c0,3.9-1.3,5.2-5,5
	c-5.8-0.4-11.4-0.2-16.2,4.3c-9.3,8.7-7,20.8,5,24.7c3.7,1.2,7.8,1.3,11.8,1.3c3.3,0.1,4.5,1.2,4.4,4.5c0.2,7,0,13.9,0,20.6
	c0,4.3-1.2,5.6-5.5,5.5c-25-0.2-49.9-0.1-74.9-0.1c-7.4,0-14.8-0.2-22.2-0.1c-6.6,0-10.6,1.4-15,5.6c-13,12.3-24,26-32.4,41.8
	c-1.3,2.5-2,4.6-2.5,7.5c-1,5.3-2.8,6.6-7.4,6.6c-36.2-0.2-72.3-0.2-108.5,0c-5.3,0-6.6-1.6-6.5-6.7c0.1-6.3-0.1-12.7,0-19
	c0-4.1,1.1-5.2,5.1-5.2c28.8,0.2,55.7,0,86.3,0.4c23-0.4,34.5-9.2,46.4-23.5c8.1-9.8,13.1-21.6,14.6-34.5c0.4-3.5,2.5-3.3,4.9-3.3
	c17.2,0,34.4,0,51.5,0c8.4,0,18.3-7.8,20.3-16c2.1-8.4-2.7-14.7-11.3-14.7c-20.1,0-40.1-0.1-60.2,0.1c-4,0-5.1-1.2-5.3-5.2
	c-0.3-7.1-0.2-13.8,0-20.1c0.2-4.2,1.4-5.1,5.3-5.1C238.9,5.2,257.5,5.1,276.1,5.1z"/>
<path d="M276,218.9c-18.4,0-36.9-0.1-55.3,0.1c-4.1,0-5.7-0.9-5.7-5.4c0-6.9-0.1-13.7,0-20.6c0.1-3.5,1.1-4.8,4.7-4.7
	c7.4,0.2,14.8,0.1,22.2,0c11.3-0.1,21.6-16.1,16.6-26.2c-1-2-4.2-4.2-6.5-4.3c-10.3-0.5-20.6-0.4-30.9-0.1c-4.6,0.1-6.3-1-6.2-6
	c0-6.3-0.1-12.7,0-19c0.1-4.5,1.2-5.9,5.8-5.9c34.2,0.2,68.4,0.1,102.5,0.1c3.3,0,6.5,0.1,9.8,0c3.2-0.1,4.5,1.1,4.4,4.4
	c0.1,7.2,0,14.5,0,21.7c0,3.7-1.3,4.6-4.8,4.6c-11.4-0.1-22.8-0.1-34.2,0c-9.7,0-22.6,15.8-20.6,25.2c0.8,3.9,2.7,5.7,7.1,5.6
	c15.7-0.3,31.5,0,47.2-0.2c4,0,5.5,1,5.3,5.2c0,6.9,0.1,13.7,0,20.6c0.1,3.9-1.3,5-5,4.9C313.6,218.8,294.8,218.9,276,218.9z"/>
<path d="M123.3,279.8c-18.6,0-37.2-0.1-55.9,0.1c-3.8,0-4.9-1-4.9-4.8c0-7,0-14.1,0-21.1c0-3.6,0.8-4.4,4.7-4.5
	c8.3-0.2,14.4,0,23.9,0.1c3.8,0,6.5-1.1,8.9-3.9c4.8-5.5,8.3-11.4,7.7-19c-0.5-5.5-2.9-7.6-8.3-7.6c-10.7,0-21.3-0.2-32,0.1
	c-3.9,0.1-4.9-1.3-4.9-5c0-7.2-0.1-14.5,0-21.7c0-3.1,1.1-4,4.1-4c37.8,0.1,75.6,0.1,113.4,0c3,0,4.1,1,4.1,4
	c-0.1,6.9,0,13.7,0.2,20.6c0.2,4.5-1.2,6.3-6.1,6.1c-13.2-0.4-26.4,0.1-39.6-0.3c-6.3-0.2-9.4,3.1-11.3,8.1
	c-3.7,9.8,5,22.4,15.5,22.5c12.3,0.1,24.6,0.1,36.9,0c3.2,0,4.2,0.8,4.4,4.2c0.4,7.2,0.4,14.2,0.3,21.1c0,4.1-1.2,5.2-5.2,5.2
	C160.5,279.7,141.9,279.8,123.3,279.8z"/>
<path d="M276.1,249.4c18.6,0,37.2,0.1,55.8-0.1c4.2,0,5.8,1.1,5.6,5.5c0,6.5,0,13,0,19.5c0,4.2-1.1,5.6-5.5,5.6
	c-11.4,0-19.7,0.4-31,1c-6.2,0.4-8.7,1.5-11.3,2.5c-9.7,4-12.5,9.2-10.8,19.6c0.7,4.6,1.9,9.4,1.4,13.9c-0.9,9.5-9.7,13.6-18,8.7
	c-6.1-3.6-9.2-9.2-8.8-16.3c0.3-4.9,1.2-9.7,1.6-14.5c0.7-9.7-4.2-15-13.9-15.1c-7,0-14.1-0.2-21.1,0.1c-3.7,0.1-5.2-0.9-5.1-4.8
	c0-7,0-14.1,0-21.1c0-3.6,1.2-4.6,4.7-4.6C238.5,249.5,257.3,249.4,276.1,249.4z"/>
<path d="M123,96.4c-18.4,0-36.8-0.1-55.3,0.1c-4,0-5.2-1.1-5.2-5.2c0-7.2-0.1-14.4,0-21.7c0-2.8,0.7-3.8,3.6-3.7
	c37.9,0.1,75.8,0.1,113.8,0c3.6,0,4.2,1.6,4.3,4.5c0.1,7.6-0.1,15.2-0.2,22.7c-0.1,3.8-2.4,3.3-4.7,3.3
	C160.6,96.4,141.8,96.4,123,96.4z"/>
<path d="M123.4,5.1c18.6,0,37.2,0.1,55.9-0.1c4.1,0,5.1,1.1,5.2,5.2c0.1,7,0,14.1-0.3,21.1c-0.1,3.1-1.2,4-4.2,4
	c-18.2-0.1-36.5,0-54.7,0c-18.8,0-37.6-0.1-56.4,0.3c-5.2,0.1-6.2-1.6-6.2-6.4c-0.1-6.3-0.1-12.7,0-19C62.6,5.7,64,5,68,5
	C86.5,5.2,104.9,5.1,123.4,5.1z"/>
</svg>
