<?xml version="1.0" encoding="utf-8"?>
<!-- Generator: Adobe Illustrator 23.0.1, SVG Export Plug-In . SVG Version: 6.00 Build 0)  -->
<svg version="1.1"
	 id="svg2" xmlns:cc="http://creativecommons.org/ns#" xmlns:dc="http://purl.org/dc/elements/1.1/" xmlns:inkscape="http://www.inkscape.org/namespaces/inkscape" xmlns:rdf="http://www.w3.org/1999/02/22-rdf-syntax-ns#" xmlns:sodipodi="http://sodipodi.sourceforge.net/DTD/sodipodi-0.dtd" xmlns:svg="http://www.w3.org/2000/svg"
	 xmlns="http://www.w3.org/2000/svg" xmlns:xlink="http://www.w3.org/1999/xlink" x="0px" y="0px" viewBox="0 0 400 400"
	 style="enable-background:new 0 0 400 400;" xml:space="preserve">
<sodipodi:namedview  bordercolor="#666666" borderopacity="1" fit-margin-bottom="200" fit-margin-left="0" fit-margin-right="0" fit-margin-top="0" gridtolerance="10" guidetolerance="10" id="namedview4" inkscape:current-layer="g10" inkscape:cx="130.5893" inkscape:cy="405.58809" inkscape:pageopacity="0" inkscape:pageshadow="2" inkscape:window-height="1017" inkscape:window-maximized="1" inkscape:window-width="1920" inkscape:window-x="1358" inkscape:window-y="-8" inkscape:zoom="0.62578953" objecttolerance="10" pagecolor="#ffffff" showgrid="false">
	</sodipodi:namedview>
<g>
	<path d="M385,7.4c-6-4-14.4-3.6-19.9,1.1c-6,5.1-7.6,12.6-4.4,20c0.5,1.2,0.5,3.3-0.2,4.3c-16,23.2-32.1,46.3-48.4,69.3
		c-0.7,1-2.5,1.4-3.9,1.7c-3.6,0.7-7.4,0.8-10.8,2.1c-2,0.7-3.2,0.9-4.9-0.4c-12.7-9.3-25.5-18.5-38.4-27.7
		c-1.7-1.2-2.4-2.4-2.3-4.6c0.5-10.1-7.3-18.2-17-17.9c-9.9,0.3-16.9,8.5-16.2,18.7c0.1,1.2-0.5,3.1-1.4,3.8
		c-14.5,11.4-29,22.7-43.6,33.9c-0.9,0.7-2.5,0.9-3.6,0.7c-10.7-2.6-19.6,3-21.8,13.8c-0.2,1.1-1.1,2.6-2.1,3.1
		c-12.8,6.9-25.6,13.8-38.4,20.5c-0.9,0.5-2.7,0.4-3.6-0.1c-8.5-4.8-16.7-3.5-22.9,3.8c-0.7,0.8-2.3,1.6-3.3,1.5
		c-11.4-1.6-22.8-3.5-34.1-5.2c-2-0.3-3.1-1.1-3.9-3.2c-2.5-6.7-9-10.9-15.7-10.8c-7,0.2-13,4.5-15.6,11.1c0,0,0,0,0,0
		c-0.6,1.6-1,3.4-1,5.1v1.1c0,1.9,0.4,3.7,1.1,5.4c0.1,0.3,0.2,0.5,0.4,0.8c5,11.1,20.1,13.5,27.7,4.2c1.8-2.2,3.4-2.7,6-2.3
		c11,1.8,22,3.4,33,5.3c1.1,0.2,2.6,1.4,3,2.5c3.5,8.1,10.6,12.3,18.9,10.9c7.8-1.3,13.1-7.8,13.7-16.5c0.1-1,0.7-2.5,1.5-3
		c12.2-6.6,24.5-13.2,36.7-19.7c1.5-0.8,3.3-0.3,4.2,1.1c2.9,5,3.9,9.9,0.3,21.8c-0.6,1.3-0.9,3.2-0.9,5.9c0,24,0,48.1,0,72.1
		c0,12.9,0,25.8,0,38.7c0,11.5,0,23,0,34.6c0,5.5,1.9,7.3,7.5,7.4c2.3,0,4.5,0,6.8,0c7.2,0,8.9-1.4,9.1-8c0.1-2.2,0.3-4.4,0.5-6.6
		c6.3-47.7,39.2-107.1,45.5-80.2c0.5,2.1,0.7,4.3,0.7,6.4c0,26.3,0,52.6,0,79c0,0.9,0,1.8,0,2.6c0.2,4.6,2.2,6.6,6.8,6.8
		c2.6,0.1,5.3,0,7.9,0c7.3,0,8.7-1.5,8.7-8.8c0-32.2,0-64.4,0-96.6v-79.7c0-5.8,0-11.5,0-17.3c0-6.5-1.7-8.3-8.2-8.3c-2,0-4,0-6,0
		c-6.9,0-8.9,1.3-9.2,7.2c-0.1,2.1-0.3,4.2-0.6,6.4c-6.1,44.9-26.4,115.4-42.4,94.6c-2.6-3.3-3.8-7.5-3.8-11.7c0-12.6,0-25.2,0-37.8
		c0-0.6,0-1.3,0-1.9c0-2.2-0.4-3.8-1.1-5c-5.7-10.9-5.3-14.7,1.3-23.5c3.9-3.9,5.7-9.6,4.2-15.3c-0.7-2.7,0-4,2-5.6
		c13.5-10.4,27-20.8,40.4-31.4c1.7-1.3,2.9-1.7,5-0.6c4.6,2.5,9.5,2.3,14-0.1c2.2-1.2,3.5-0.8,5.3,0.5c12.6,9.2,25.3,18.4,38.1,27.5
		c2.2,1.5,3.1,3.1,3,5.8c-0.1,6.7,4.2,12.6,10.5,15.1c6.6,2.5,12.6,1.2,17.7-3.5c4.9-4.5,6.4-11.8,3.8-18c-0.8-2-0.7-3.4,0.5-5.1
		c16.1-23,32.2-46,48.2-69c1.3-1.9,2.6-2.5,4.9-2.4c8,0.5,14.8-4.1,17.1-11.3C394,19.4,391.3,11.6,385,7.4z"/>
	<path d="M381.4,83.6c-2.6-0.2-5.3-0.1-7.9-0.1c-8,0-9.5,1.5-9.5,9.3c0,73.4,0,146.8,0,220.2c0,1.1-0.1,2.3,0.1,3.4
		c0.4,3.7,2.3,5.7,6.1,5.9c2.7,0.1,5.5,0.1,8.3,0.1c7.6,0,9-1.4,9-8.9c0-36.8,0-73.7,0-110.5c0-36.5,0-72.9,0-109.4
		c0-1.3,0-2.5,0-3.8C387.2,85.9,385.3,83.8,381.4,83.6z"/>
	<path d="M310.1,160.8c-2.5-0.1-5,0-7.5,0c-7.2,0-8.8,1.7-8.8,8.9c0,24,0,48.1,0,72.1c0,16.3,0,32.6,0,48.8c0,8,0,16,0,24
		c0,3,0.5,4.6,1.7,6.1c17.1,23.7-8.1,71,12.4,74.6c17.9-2-10.7-44.5,8.3-75.5l0,0c0.8-1.4,1.1-3.6,1.1-6.8c0-47.6,0-95.2,0-142.7
		c0-0.8,0-1.5,0-2.3C317.1,163.1,315,161,310.1,160.8z"/>
	<path d="M106.2,231.5c0-5.3-2-7.2-7.2-7.4c-2.5-0.1-5,0-7.5,0c-6.9,0-8.7,1.8-8.7,8.7c0,13.2,0,26.5,0,39.7c0,1.1-0.1,2.2-0.6,3.3
		c-5.5,13.8-38.9-15.4-46-43.2c-0.1-0.5-0.2-1.1-0.2-1.6c-0.2-5-2.3-6.8-7.7-6.9c-2.3,0-4.5,0-6.8,0c-7.3,0-8.9,1.6-8.9,8.7
		c0,13.4,0,26.8,0,40.2c0,14,0,28,0,42c0,4,3.2,7.3,7.3,7.4c2.6,0,5.3,0,7.9,0c6.4,0,8.2-1.9,8.2-8.3c0-3.8,0-7.7,0-11.5
		c0-4.5,1.8-8.8,5-11.9c14-13,34.3,4.7,40.7,21.8c0.6,1.6,1,3.3,1.3,5c0.7,3.3,2.7,4.7,6.7,4.8c2.8,0.1,5.5,0,8.3,0
		c6.5,0,8.2-1.7,8.2-8.2c0-13.5,0-27.1,0-40.6C106.3,259.5,106.3,245.5,106.2,231.5z"/>
</g>
</svg>
