<?xml version="1.0" encoding="utf-8"?>
<!-- Generator: Adobe Illustrator 23.0.6, SVG Export Plug-In . SVG Version: 6.00 Build 0)  -->
<svg version="1.1"
	 id="Layer_1" inkscape:version="0.92.4 (5da689c313, 2019-01-14)" sodipodi:docname="comment.svg" xmlns:cc="http://creativecommons.org/ns#" xmlns:dc="http://purl.org/dc/elements/1.1/" xmlns:inkscape="http://www.inkscape.org/namespaces/inkscape" xmlns:rdf="http://www.w3.org/1999/02/22-rdf-syntax-ns#" xmlns:sodipodi="http://sodipodi.sourceforge.net/DTD/sodipodi-0.dtd" xmlns:svg="http://www.w3.org/2000/svg"
	 xmlns="http://www.w3.org/2000/svg" xmlns:xlink="http://www.w3.org/1999/xlink" x="0px" y="0px" viewBox="0 0 400 400"
	 style="enable-background:new 0 0 400 400;" xml:space="preserve">
<path d="M303.9,38.3H94.2c-17.5,0-31.7,14.2-31.7,31.7v126.6c0,10.9,5.2,20.2,13.2,25.9l-0.1,0.1c66.2,34.9-15.4,168.4,41.8,172.4
	c65.9-2.3,18.7-101.4,38.2-153.1c3.1-8.3,11.1-13.7,19.9-13.7h130.4c17.5,0,31.7-14.2,31.7-31.7V69.9
	C335.5,52.1,321.7,38.3,303.9,38.3z M317.7,194.6c0,5.9-4,11.9-11.9,11.9h-8.3c-27-0.4-47.7-2.3-46.1-25.2c0.1-1.3,0.4-2.6,0.7-3.9
	c0.2-0.8,0.3-1.6,0.3-2.5c0-5.5-4.5-9.9-10-9.9c-24,0-104.1,0-128.3,0c-5.6,0-10.1,4.5-10.1,10.1c0.1,5.8,4,9.7,9.9,9.7h53.4
	c9.6,0,19.2,1,28.6,2.9c26.1,5.5,45.5,12.3,30.3,17.2c-3.4,1.1-7,1.6-10.6,1.6c-10.3,0-37.9,0-53.4,0c-6.9,0-13.5,2.9-18.2,7.9
	l-14.6,15.7c-1.3,1.4-3.8,0.5-3.8-1.5v-15c0-4-3.2-7.2-7.2-7.2H94.2c-5.9,0-11.9-4-11.9-11.9V69.9c0-5.9,4-11.9,11.9-11.9l61,0
	c1.9,0,3.8,0.2,5.5,0.8c11.8,3.7,0.9,13.8-11.4,19.6c-4.9,2.3-10.2,3.4-15.6,3.4l-19.6,0c-5.6,0-10.1,4.5-10.1,10.1
	c0.1,5.8,4,9.7,9.9,9.7h84.9c5.6,0,10.1-4.5,10.1-10.1c-0.1-5.3-3.3-9-8.3-9.6c-2-0.3-4.1-0.5-6.1-0.9c-21.5-4.8-2.5-13.9,20.2-19.8
	c8-2.1,16.2-3.1,24.4-3.1h66.7c5.9,0,11.9,4,11.9,11.9V194.6z"/>
<path d="M284.1,123.3H113.9c-5.9,0-9.9,4-9.9,9.9c0,5.9,4,9.9,9.9,9.9h170.1c5.9,0,9.9-4,9.9-9.9C294,127.3,290,123.3,284.1,123.3z"
	/>
</svg>
