<?xml version="1.0" encoding="utf-8"?>
<!-- Generator: Adobe Illustrator 23.0.6, SVG Export Plug-In . SVG Version: 6.00 Build 0)  -->
<svg version="1.1"
	 id="svg2" xmlns:cc="http://creativecommons.org/ns#" xmlns:dc="http://purl.org/dc/elements/1.1/" xmlns:inkscape="http://www.inkscape.org/namespaces/inkscape" xmlns:rdf="http://www.w3.org/1999/02/22-rdf-syntax-ns#" xmlns:sodipodi="http://sodipodi.sourceforge.net/DTD/sodipodi-0.dtd" xmlns:svg="http://www.w3.org/2000/svg"
	 xmlns="http://www.w3.org/2000/svg" xmlns:xlink="http://www.w3.org/1999/xlink" x="0px" y="0px" viewBox="0 0 400 400"
	 style="enable-background:new 0 0 400 400;" xml:space="preserve">
<path d="M284.3,173.6h-21.6c-2.8,0-5.1-2.3-5.1-5.1v-53.3c0-2.1,2-3.7,4.1-3.2c22.5,6-7.3,53.5,14.7,55.8c24-0.8-11.9-47.5,10.7-56
	c1.2-0.5,2.5-0.7,3.8-0.9c26.3-3.3,46.6-25.7,46.6-52.8c0-29.4-23.8-53.2-53.2-53.2c-29.4,0-53.2,23.8-53.2,53.2l0,21.6
	c0,2.8-2.3,5.1-5.1,5.1h-48.4c-6.3,0-8.6-2.3-8.6-5.1V58.2c0-29.4-23.8-53.2-53.2-53.2S62.5,28.9,62.5,58.2s23.8,53.2,53.2,53.2
	l21.6,0c2.8,0,5.1,2.3,5.1,5.1V165c0,6.3-2.3,8.6-5.1,8.6h-21.6c-29.7,0-53.8,24.4-53.2,54.3c0.6,28.5,23.9,51.7,52.4,52.1
	c28.7,0.4,52.4-22,53.9-50.3c1.7-11.9,15.3-23.7,36.9-28c5.4-1.1,10.8-1.5,16.3-1.5h4c2.8,0,5.1,2.3,5.1,5.1v20.9
	c0,29.3,23.4,53.6,52.7,53.9c29.6,0.3,53.7-23.6,53.7-53.2C337.5,197.4,313.7,173.6,284.3,173.6z M257.6,58.2
	c0-15.5,13.1-27.8,28.7-26.6c13.1,1,23.7,11.7,24.5,24.9c1,15.5-11.4,28.3-26.6,28.3h-20.3c-3.5,0-6.3-2.8-6.3-6.3V58.2z
	 M105.5,77.9c-6.8,0-12.8-4.6-15-11c-0.9-2.7-1.5-5.7-1.5-8.7c0-14.8,12-26.7,26.7-26.7c0,0,0.1,0,0.1,0c8.3,0,15.5,6.1,16.8,14.3
	C135.3,62.1,120.6,77.9,105.5,77.9z M142.3,83c0,1.1-0.9,1.9-1.9,1.9h-5.8c-6.4,0,3.8-16.6,7.2-11.2c0.4,0.6,0.5,1.3,0.5,1.9V83z
	 M142.4,226.8c0,14.8-12,26.7-26.7,26.7c-14.8,0-26.7-12-26.7-26.7c0-14.7,12-26.6,26.7-26.7h20.1c3.6,0,6.6,2.9,6.6,6.6V226.8z
	 M168.9,208.2v-5.9c0-1.2,1-2.2,2.2-2.2h4.1c2.1,0,0.9,3.6-0.8,6.1C172.6,208.8,168.9,211.7,168.9,208.2z M178.3,173.6h-7
	c-1.3,0-2.4-1.1-2.4-2.4V163C171.2,157.5,185.6,173,178.3,173.6z M231.1,167c0,3.4-3.3,5.7-6.5,4.7c-24.1-8.2-45.6-29.5-53.8-53.8
	c-1.1-3.2,1.3-6.5,4.7-6.5h48.2c4.1,0,7.3,3.3,7.3,7.3V167z M277.7,250.5c-1.6,0.9-3.5,1-5.1,0.2c-8.8-4.4-14.9-13.4-14.9-23.9
	l0.1-24.7c0-0.9,1-1.5,1.8-1.1C281.7,212.7,293.3,241.3,277.7,250.5z M293.3,201.7c9.3,3.3,16.2,11.5,17.5,21.5
	c0.1,1.1,0.1,2.2-0.4,3.2c-5,11.6-36-21.5-21.9-25C290.1,201.1,291.7,201.2,293.3,201.7z"/>
</svg>
