<?xml version="1.0" encoding="utf-8"?>
<!-- Generator: Adobe Illustrator 23.0.6, SVG Export Plug-In . SVG Version: 6.00 Build 0)  -->
<svg version="1.1" id="Layer_1" xmlns="http://www.w3.org/2000/svg" xmlns:xlink="http://www.w3.org/1999/xlink" x="0px" y="0px"
	 viewBox="0 0 400 400" style="enable-background:new 0 0 400 400;" xml:space="preserve">
<path d="M138.7,272.8c-2.1,0-6.4-5.3-9.3-8.8c-1.6-1.9-4.2-3.1-5.6-5.1c-3-4.2-5.6-8.6-8.3-13c-4.5-7.3-9-14.6-13.5-21.9
	c-0.9-1.5-2-3-3.1-4.4c-0.3-0.5-0.8-0.9-1.2-1.3c0,0.6-0.1,1.2,0,1.8c0.6,3,1.8,5.9,2,8.9c0.3,4.4,0.6,9.2-2.7,12.8
	c-3.5,3.8-7.8,5.9-13.2,4.7c-3.7-0.8-7.1-2.2-9.9-4.9c-5.3-5-5.2-10.4-2.5-17.9c1.4-3.9,3.8-7.5,5.4-11.4c1.2-3,2.1-6.2,2.7-9.4
	c0.7-3.9-1.3-7.3-2.8-10.7c-1.8-4.3-4.1-8.4-6.2-12.6c-2.1-4-4.3-7.9-6.5-11.9c-0.5-0.9-1.1-1.8-1.3-2.7c-0.2-0.7-0.1-1.9,0.4-2.1
	c0.5-0.2,1.2,0.1,1.8,0.2c1.9,0.3,3.8,0.8,5.7,0.9c11.3,0.9,22.7,1.8,34,2.7c3.1,0.2,5,1.8,6.5,4.5c1.7,3.2,4.2,6,6.2,9.1
	c1.7,2.6,3.1,5.4,4.7,8.1c0.9,1.4,2.2,2.6,3,4.1c1.4,2.4,2.5,5,3.8,7.4c2,3.8,3.4,5.2,5.4,8.9c0.9,1.7,1.8,2,2.8,0.3
	c1-1.6,0.7-1.5,3.2-4.2c2.5-2.7,5.7-6.2,8.5-9.3c5.4-5.9,10.7-11.9,16.1-17.7c3-3.3,6.5-6.2,9.3-9.6c5.7-6.8,11.1-13.9,16.6-20.8
	c0.9-1.1,2.2-1.7,3.1-2.7c5.4-6.5,10.7-13,15.9-19.6c5-6.3,10-12.6,14.7-19.1c6.2-8.4,12.1-17.1,18.2-25.6c0.5-0.6,0.8-1.3,1.3-2
	c0.7-1,0.4-1.6-0.7-2.2c-7.3-4.2-8.7-11-3.5-17.9c3-4,6.1-7.9,9.5-11.5c4.1-4.4,9.6-7,15.2-8.9c7.6-2.6,13.8-7.2,19-13.2
	c2.2-2.5,4.4-5.1,6.5-7.6c1.3-1.5,2.5-2.6,4.9-2.3c2,0.3,4.2-1,6.4-1.1c10-0.7,19.9-1.2,29.9-1.7c1.4-0.1,3,0.3,4.4,0.6
	c2.1,0.5,2.5,1.9,1.1,3.6c-15.3,19.6-31.1,38.8-45.6,58.9c-7.2,9.9-14.8,19.8-19.8,31.2c-1.7,4-3.7,7.9-5.1,12
	c-2.9,8.7-1.7,17.2,1.5,25.6c2,5.2,4.3,10.3,5.9,15.5c1.8,5.6,1.8,11.2-1.3,16.6c-2.9,4.9-7.3,7.5-12.8,7.3
	c-5.7-0.1-10.2-3.1-13-8.3c-2.3-4.3-3.1-9-3.1-13.8c0.5-4.6,1-9.2,1.3-13.7c0.2-3.3,0-6.5-0.2-9.8c0-0.6,0.2-1.7-0.8-1.8
	c-0.9-0.1-1.2,0.7-1.6,1.2c-5.1,6.5-10.2,13-15.3,19.6c-11.1,14.2-22.3,28.4-33.3,42.7c-3.5,4.5-6.1,9.6-9.5,14.2
	c-5.9,8-9.7,17.4-17.1,24.2c-8.7,8-13.3,17.3-21.1,26.1c-0.9,1-1.6,1.6-3,3.9S140.8,272.8,138.7,272.8z"/>
</svg>
