<?xml version="1.0" encoding="utf-8"?>
<!-- Generator: Adobe Illustrator 23.0.6, SVG Export Plug-In . SVG Version: 6.00 Build 0)  -->
<svg version="1.1"
	 id="svg2" xmlns:cc="http://creativecommons.org/ns#" xmlns:dc="http://purl.org/dc/elements/1.1/" xmlns:inkscape="http://www.inkscape.org/namespaces/inkscape" xmlns:rdf="http://www.w3.org/1999/02/22-rdf-syntax-ns#" xmlns:sodipodi="http://sodipodi.sourceforge.net/DTD/sodipodi-0.dtd" xmlns:svg="http://www.w3.org/2000/svg"
	 xmlns="http://www.w3.org/2000/svg" xmlns:xlink="http://www.w3.org/1999/xlink" x="0px" y="0px" viewBox="0 0 400 400"
	 style="enable-background:new 0 0 400 400;" xml:space="preserve">
<path d="M333.8,187.3c-41.3-41.5-82.9-83.3-124.1-124.7c-4.9-5-13-5-17.9,0c-42.1,42.1-84.3,84.3-125.6,125.6
	c-4.1,4.1-5,10.5-2,15.4c24.4,40.2-12.5,108.9,23.4,110.7c18.8-0.2,4-29.8,2.7-63.7c-0.9-22.7,7.9-44.8,24-60.8
	c6.9-6.9,13.7-13.7,20.7-20.6c53.8-41.9,119.1-11.3,147.4,16.6l-0.2-0.3c8.9,8.9,17.8,17.8,26.7,26.7c4.9,4.9,12.9,5,17.9,0
	c2.4-2.3,4.7-4.6,6.9-6.9C338.7,200.3,338.8,192.3,333.8,187.3z M187.7,116.4c3.7-3.7,7.3-7.3,11-11c1-1,2.6-1,3.6,0
	c7.9,7.9,15.8,15.8,23.6,23.6c4.1,4.3-9,5-20.6,2.7c-10.6-2.1-21-6.6-19.2-12.8C186.4,117.9,187,117.1,187.7,116.4z"/>
</svg>
