<?xml version="1.0" encoding="utf-8"?>
<!-- Generator: Adobe Illustrator 23.0.6, SVG Export Plug-In . SVG Version: 6.00 Build 0)  -->
<svg version="1.1" id="Layer_1" xmlns="http://www.w3.org/2000/svg" xmlns:xlink="http://www.w3.org/1999/xlink" x="0px" y="0px"
	 viewBox="0 0 400 400" style="enable-background:new 0 0 400 400;" xml:space="preserve">
<path d="M188.7,97.1c0.2,0.8,0.8,1.3,1.6,1.3c5.3,0,12.2-0.1,13.9-0.6c1.9-0.6,3.2-2,3.6-3.6c0.4-2-0.5-3.8-3-3.9
	c-0.6,0-1.3,0-1.9,0c-4.6-0.2-6.3-1.6-6.5-6.2c-0.2-4.3-0.1-8.7-0.1-13c0-8.2-0.1-16.3,0.2-24.5c0.1-2,1.2-5,2.6-5.5
	c1.5-0.6,4.4,0.7,5.8,2.1c12.9,12.7,25.6,25.7,38.4,38.6c1.8,1.8,3.2,4,1.7,6c-0.9,1.3-3.4,1.8-5.3,1.8c-4.9,0.2-10.1-0.8-13.1,4.7
	c-0.1,0.3-0.3,0.5-0.4,0.8c-0.8,1.6,0.3,3.5,2.1,3.5l0,0c5.1,0,10.2,0,15.3,0.1c4.2,0.1,5.4,1.4,5.4,5.5c0,55.3,0,110.7,0,166
	c0,1.1,0.1,2.3,0.2,3.4c0.3,4-1.1,5.6-5.2,5.5c-10.3-0.1-20.7-0.2-31-0.4c-22.7-0.4-45.4-1-68.2-1.3c-1.8,0-4,1-5.3,2.3
	c-5.6,5-6.8,12-7.6,19.1c-0.6,5.1-1.1,10.2-2.4,15.1c-1.6,6-5.2,10.7-11.9,11.6c-6.9,0.9-11.9-2.6-15.3-8.2c-2.2-3.7-3.4-7.9-4.9-12
	c-0.6-1.5-0.7-3.2-1.1-4.9c-1.7-7.5-2.3-7.8-9.3-4.3c-6.7,3.3-13.9,0.2-15.9-7c-1.6-5.7-4.1-10.8-7.6-15.5c-1.3-1.8-2.1-4.5-2.1-6.8
	c0.4-72.8,0.9-145.6,1.4-218.3c0-5.7,1.5-7.3,7.2-7.4c23-0.5,45.9-1.3,68.9-1.4c6.3,0,12.3-7,12.3-12.3c0-5.1,0.6-10.2,1-15.3
	c0.2-3,1.5-4.9,5-4.9c14.7-0.1,29.4-0.4,44-0.6c21.1-0.4,42.3-0.9,63.4-1.4c1.1,0,3.2-0.1,4.4-0.1c3.8-0.1,4.5,1,4.6,5.3
	c0.3,8.8,0.5,17.6,0.9,26.4c0,1.2,0.1,2.3,0.2,3.5c0.1,1.6,1.9,2.5,3.2,1.7c3.4-2.1,5.2-5.3,5.2-9.4c0.1-6.3,0-12.5,0.4-18.8
	c0.1-2,0.6-4.8,2.5-5.7c2.1-1,5.6,0.2,7.3,1.7c6.4,5.7,12.3,11.9,18.3,18c6.3,6.3,12.7,12.6,19,18.9c2,2,4.4,3.9,2.9,7.2
	c-1.3,3-4.2,2.8-6.9,2.8c-7.9,0-15.9,0-23.8,0c-1.5,0-2.8,1.4-2.5,2.9c0.3,1.4,1.3,2.3,2.9,2.8c1.9,0.6,4,0.9,6,1
	c6.9,0.1,13.8,0,20.7,0.1c5.4,0,7.9,2.5,8.1,8c0,1,0,2,0,3.1c0,54,0,108,0,162c0,1.1,0.1,2.3-0.1,3.4c-1.5,7.7-2.8,9-8.8,7.9
	c-4.2-0.8-8.7-0.4-13-0.2c-1.6,0.1-3.4,1-4.6,2.1c-3.6,3.4-4.8,8-5.6,12.7c-0.6,3.6-1,7.4-1.9,10.9c-0.6,2.6-1.6,5.2-3,7.4
	c-4.6,7.3-13.9,8-19,1c-2.5-3.4-3.7-8-4.8-12.3c-1.2-4.7-1.2-9.7-2.6-14.3c-1.5-4.9-3.9-9.4-10.4-9.5c-3.4,0-4-2.7-4-5.8
	c0.1-17.6,0.1-35.2,0.1-52.9c0-31.3,0-62.6,0.1-93.8c0-2.6-0.8-4.5-2.6-6.3c-18.4-18.2-36.8-36.5-55.1-54.8
	c-1.9-1.9-3.7-2.7-6.4-2.7c-6.1,0.2-12.3,0-18.4,0.1c-4,0-6.6,4.3-4.5,7.8c0.4,0.8,2.1,1.2,3.1,1.2c8.1-0.1,9.9,1.7,10.1,9.7
	c0.4,15.8,1,31.6,1.5,47.5C188.5,96.1,188.6,96.5,188.7,97.1z"/>
</svg>
