<?xml version="1.0" encoding="utf-8"?>
<!-- Generator: Adobe Illustrator 23.0.6, SVG Export Plug-In . SVG Version: 6.00 Build 0)  -->
<svg version="1.1"
	 id="svg4" xmlns:cc="http://creativecommons.org/ns#" xmlns:dc="http://purl.org/dc/elements/1.1/" xmlns:inkscape="http://www.inkscape.org/namespaces/inkscape" xmlns:rdf="http://www.w3.org/1999/02/22-rdf-syntax-ns#" xmlns:sodipodi="http://sodipodi.sourceforge.net/DTD/sodipodi-0.dtd" xmlns:svg="http://www.w3.org/2000/svg"
	 xmlns="http://www.w3.org/2000/svg" xmlns:xlink="http://www.w3.org/1999/xlink" x="0px" y="0px" viewBox="0 0 400 400"
	 style="enable-background:new 0 0 400 400;" xml:space="preserve">
<style type="text/css">
	.st0{fill:#000300;}
</style>
<path class="st0" d="M321.7,76.2c-1.4-2.5-3.8-5.8-5.8-7L207.2,6.6c-1.8-1.1-4.3-1.6-7-1.6c-2.7,0-5.2,0.7-7,1.6L83.9,70
	c-3.9,2.3-6.6,8-6.6,12.3v126.6c0,2.5,0,5.5,1.6,8c1.1,1.8,2.7,3.4,4.3,4.3l84.4,48.9c5.3,3.1,10,7.1,13.7,12
	c27.9,37.3-17,97.4,16.9,101.5c39.7-1.8-8.9-59.7,21.4-101.9c3.8-5.3,8.7-9.6,14.3-12.8l82-47.7c3.9-2.3,6.6-8,6.6-12.3V82.1
	C322.7,80.2,322.7,78.2,321.7,76.2z M274,196.4c-10.4,15.1-25.4,26.9-42.8,33.4c-18.5,5,2.8-30.8,14.1-50.8c1.8-3.3,6-4.4,9.2-2.5
	l17.5,10.3C275.3,188.8,276.2,193.2,274,196.4z M275.1,144.2v2.5c0,1.8-1.5,3.3-3.3,3.3H267c-1.8,0-3.3,1.5-3.3,3.3v4.8
	c0,1.8-1.5,3.3-3.3,3.3h-4.8c-1.8,0-3.3-1.5-3.3-3.3v-4.8c0-1.8-1.5-3.3-3.3-3.3h-4.8c-1.8,0-3.3-1.5-3.3-3.3v-2.5
	c0-1.8,1.5-3.3,3.3-3.3h4.8c1.8,0,3.3-1.5,3.3-3.3v-4.8c0-1.8,1.5-3.3,3.3-3.3h4.8c1.8,0,3.3,1.5,3.3,3.3v4.8c0,1.8,1.5,3.3,3.3,3.3
	h4.8C273.7,141,275.1,142.4,275.1,144.2z M272.1,104.6l-18,10.4c-3,1.7-6.8,1-8.8-1.8c-10.7-15-28.6-24.4-48.4-23.3
	c-27.1,1.5-51.1,25.7-52.5,52.9c-1.2,25.4,14.7,47.4,37.2,55.3c4,1.4,7.7,3.3,10.9,6.1c12.7,11.1,10.2,25.7-19.6,23.7
	c-8.4-0.6-16.5-3.4-23.5-8.2c-23.6-16.2-39.2-43.4-39.2-74.1c0-49.4,40.2-89.7,89.6-89.8c31-0.1,58.2,15.7,74.4,39.5
	C276.5,98.4,275.5,102.7,272.1,104.6z M282,146.3v-2c0-1.8,1.5-3.3,3.3-3.3h1.4c0.5,0,0.9,0.1,1.3,0.3c3.7,1.6,4.8,6.5-1.9,8.2
	C284,150,282,148.4,282,146.3z M298.9,161.4c-1.8,0-3.3-1.5-3.3-3.3v-2.7c0.1-2.2,2.7-1.8,5.2,0
	C303.3,157.3,302.1,161.4,298.9,161.4L298.9,161.4z M312.8,150h-0.4c-9.1-1.7-15.7-3.4-16.8-9.1v-8.1c0-1.8,1.5-3.3,3.3-3.3h2.5
	c1.8,0,3.3,1.5,3.3,3.3v4.8c0,1.8,1.5,3.3,3.3,3.3h4.8c1.8,0,3.3,1.5,3.3,3.3v2.5C316.1,148.6,314.6,150,312.8,150z"/>
</svg>
