<?xml version="1.0" encoding="utf-8"?>
<!-- Generator: Adobe Illustrator 23.0.6, SVG Export Plug-In . SVG Version: 6.00 Build 0)  -->
<svg version="1.1"
	 id="svg4" xmlns:cc="http://creativecommons.org/ns#" xmlns:dc="http://purl.org/dc/elements/1.1/" xmlns:inkscape="http://www.inkscape.org/namespaces/inkscape" xmlns:rdf="http://www.w3.org/1999/02/22-rdf-syntax-ns#" xmlns:sodipodi="http://sodipodi.sourceforge.net/DTD/sodipodi-0.dtd" xmlns:svg="http://www.w3.org/2000/svg"
	 xmlns="http://www.w3.org/2000/svg" xmlns:xlink="http://www.w3.org/1999/xlink" x="0px" y="0px" viewBox="0 0 400 400"
	 style="enable-background:new 0 0 400 400;" xml:space="preserve">
<path d="M310.1,5H89.9C83.8,5,79,10.2,79.6,16.2L100,246c0.4,4.3,3.4,7.9,7.5,9l60,16.7c3.4,0.9,6.6,2.3,9.6,4.1
	c40.5,25.3-18.6,98.7,23.3,102.5c32.4-0.2-12.7-74.5,18.1-100.3c3.1-2.6,6.7-4.4,10.6-5.4l63.2-17.6c4.1-1.2,7.1-4.8,7.5-9
	l20.5-229.7C321,10.2,316.2,5,310.1,5z M125.8,74.7l-0.7-8c-0.6-6.9,5.6-12.4,12.4-11c34.9,7.1,90.6,24.7,59.9,28.4h-61.3
	C130.8,84.1,126.3,80,125.8,74.7z M147.4,209.6c-5.4,0-10-4-10.4-9.4l-2.5-27.9c-0.5-6,4.2-11.2,10.3-11.2h9.8
	c5.3,0,9.8,4.1,10.3,9.4l1.3,14.9C168.1,203,161.3,209.6,147.4,209.6z M275.2,64.6L263,201.8c-0.4,4.3-3.4,7.9-7.5,9l-48.1,13.3
	c-6.2,1.7-13.1,0.2-17.7-4.3c-10.8-10.5,5.3-22.5,28.1-30.1l9.3-2.5c4.2-1.1,7.2-4.7,7.6-9l1.9-21.2c0.5-6-4.2-11.3-10.3-11.3H176
	c-5.3,0-9.8-4.1-10.3-9.4l-0.9-10.1c-0.5-6,4.2-11.2,10.3-11.2h55.7c5.3,0,9.8-4.1,10.3-9.4l1.3-14.8c0.4-4-1.7-7.9-5.2-9.9
	c-28.2-15.9-39.3-21.1-25.7-25.5c4.3-1.4,8.7-2,13.2-2h40.2C271,53.4,275.8,58.6,275.2,64.6z"/>
</svg>
