<?xml version="1.0" encoding="utf-8"?>
<!-- Generator: Adobe Illustrator 23.0.6, SVG Export Plug-In . SVG Version: 6.00 Build 0)  -->
<svg version="1.1"
	 id="svg2" xmlns:cc="http://creativecommons.org/ns#" xmlns:dc="http://purl.org/dc/elements/1.1/" xmlns:inkscape="http://www.inkscape.org/namespaces/inkscape" xmlns:rdf="http://www.w3.org/1999/02/22-rdf-syntax-ns#" xmlns:sodipodi="http://sodipodi.sourceforge.net/DTD/sodipodi-0.dtd" xmlns:svg="http://www.w3.org/2000/svg"
	 xmlns="http://www.w3.org/2000/svg" xmlns:xlink="http://www.w3.org/1999/xlink" x="0px" y="0px" viewBox="0 0 400 400"
	 style="enable-background:new 0 0 400 400;" xml:space="preserve">
<path d="M276,100.3c-21.3,0.1-38.5,17.1-38.8,38.3c-5.7,32.7-29.6,34.4-47.9,19.8c-3.1-2.4-5-6.1-5.4-10l0-0.1
	c-2.3-25.5,4.2-48.5,20.4-68.4c14.7-18.1,33.7-28.9,55.6-33c2.8-0.5,3.8-3.9,1.8-5.9c-11.3-11.3-22.5-22.5-33.6-33.6
	c-3.3-3.3-8.7-3.3-12,0c-42.9,43-86.1,86.2-128.7,128.8c-3.1,3.1-3.3,8.1-0.5,11.5c46.8,56.7-22.5,145.4,23.2,144.1
	c38.8,0.6-12.6-98.3,17.7-97.9c3.8,0.1,7.5,1.7,10.2,4.5c26.2,26.3,52.5,52.6,78.6,78.8c3.3,3.3,8.7,3.3,12,0
	c13.1-13.1,26.4-26.4,39.8-39.8c2.1-2.1,0.8-5.7-2.1-6c-5.9-0.6-11.7-1.8-17.1-3.5c-9-2.8-16.1-9.8-18.9-18.8
	c-7.9-25.1,1.8-36.5,30.9-33.4c2.1,0.2,4.2,0.6,6.2,1.1c2.7,0.6,5.6,0.9,8.5,0.9c21.6,0,39-17.1,39-38.6
	C315,117.6,297.7,100.3,276,100.3z"/>
</svg>
