<?xml version="1.0" encoding="utf-8"?>
<!-- Generator: Adobe Illustrator 23.0.6, SVG Export Plug-In . SVG Version: 6.00 Build 0)  -->
<svg version="1.1" id="Layer_1" xmlns="http://www.w3.org/2000/svg" xmlns:xlink="http://www.w3.org/1999/xlink" x="0px" y="0px"
	 viewBox="0 0 400 400" style="enable-background:new 0 0 400 400;" xml:space="preserve">
<g>
	<path d="M207.5,119.5c0-2-0.1-4.1,0.1-6.1c0.3-3.4,0.3-7.4,2-10.1c20.4-31.2,41.2-62.1,61.9-93.1c4.7-7,8.6-6.9,13.2,0.3
		c7.4,11.6,8.4,24.4,5.8,37.3c-5.8,28.8-21.6,52.8-37.7,76.6c-4.7,7-9.8,13.7-15.1,20.7c-1.6,2.1-4.8,2.1-6.3-0.2l-5-7.6
		c-0.9-1.4-3-1.2-3.7,0.3c-1.9,4.1-1.6,8.3-0.1,12.4c2.3,6.3,5.3,12.4,8.1,18.5c3,6.6,7.6,10.1,15.5,9.7c11.4-0.6,23.1-1.5,34.4-0.2
		c22.1,2.5,41.4,25.6,41.4,48c0,23.7-10.6,41.3-29.7,49.3c-28,11.7-57.3-0.3-68.8-29.5c-4.2-10.6-5.2-22.5-7.2-33.9
		c-3.4-19.2-11.1-35.9-28.6-45.6c-15.1-8.5-25.2-21.4-35.1-34.7c0,0,0,0,0-0.1c-2.7-3.5-8.3-2.9-10.2,1c-0.1,0.2-0.2,0.4-0.3,0.7
		c-1.9,4.8-2.8,10.7-9.2,10.9c-6.7,0.3-10.6-4.6-12.5-10.3c-1.8-5.4-3.4-11.3-2.8-16.8c2.5-23.6-2.8-46.2-7.4-68.9
		c-2.7-13.1-1.8-26.1,5.8-37.8c4.7-7.2,8.4-7.2,13.2-0.1c24.6,36.8,49.3,73.6,74,110.3c0.1,0.1,0.1,0.2,0.2,0.2
		C204.6,122.8,207.6,121.8,207.5,119.5z M289.2,203.6c-1.5-1-3.5-0.6-4.6,0.9c-5,6.9-6.6,14.7-5,22.6c1.2,6.4,4.1,12.9,7.8,18.2
		c3.7,5.2,8.4,4,11.6-1.5C307,230.2,302.5,212.4,289.2,203.6z M245.7,215.3c-3.7,8.8-3.7,18.7,0,27.6c0.5,1.1,0.9,2.2,1.4,3.3
		c2.4,5.5,6.3,5,10.4,2.1c11.9-8.3,10.1-32.3-3-38.8c-2.8-1.4-5.5-2.1-7.1,1.7C246.8,212.5,246.3,213.9,245.7,215.3z M200.4,157.1
		c6.2,0,10.3-3.8,10.3-9.7c0.1-5.9-4.5-10.2-10.8-10.1c-5.7,0.1-10.3,4.7-10.2,10.2C189.9,153,194.6,157.2,200.4,157.1z"/>
	<path d="M174.5,169.7c5.3,3.8,10.4,7.5,15.5,11.2c2.6,1.9,3.4,5.3,1.8,8.1c-6.7,11.9-7.5,24.6-9.2,37.2
		c-3.1,22.7-13.2,40.6-35.2,50.2c-7.2,3.1-11.3,11.5-10,19.3c1,6.3,2.5,12.5,3,18.8c0.5,6.2-1.9,11.4-8,14c-5.1,2.2-11.4-0.1-16-5.2
		c-5.7-6.4-5.2-13.9-4.2-21.6c0.6-4.5,1.3-9,0.8-13.5c-0.7-6.7-3.7-12.1-10.1-15.8c-19.8-11.4-29.5-35.2-23-57.2
		c6.4-21.7,24.3-38.2,49.1-38.3c6.2,0,12.3,0.2,18.4,0.9c8.4,0.9,16.5,1.3,21.1-6.8C169.8,169,172.5,168.3,174.5,169.7z M98,228.6
		c-0.1,17.2,13.6,31.2,30.4,31.2c16.5,0,29.7-13.6,30.6-29.9c0.9-16.6-14.4-31.9-30-31.6C111.3,198.7,98.1,211.1,98,228.6z"/>
</g>
</svg>
