<?xml version="1.0" encoding="utf-8"?>
<!-- Generator: Adobe Illustrator 23.0.6, SVG Export Plug-In . SVG Version: 6.00 Build 0)  -->
<svg version="1.1"
	 id="Layer_1" xmlns:cc="http://creativecommons.org/ns#" xmlns:dc="http://purl.org/dc/elements/1.1/" xmlns:inkscape="http://www.inkscape.org/namespaces/inkscape" xmlns:rdf="http://www.w3.org/1999/02/22-rdf-syntax-ns#" xmlns:sodipodi="http://sodipodi.sourceforge.net/DTD/sodipodi-0.dtd" xmlns:svg="http://www.w3.org/2000/svg"
	 xmlns="http://www.w3.org/2000/svg" xmlns:xlink="http://www.w3.org/1999/xlink" x="0px" y="0px" viewBox="0 0 400 400"
	 style="enable-background:new 0 0 400 400;" xml:space="preserve">
<path d="M93.3,226.2c-0.8-0.7-2-0.7-2.7,0l-6.7,6.7c-0.7,0.8-0.7,2,0,2.7c0.5,0.5,1,1.1,1.3,1.8c12.3,26.3-6.1,40.4,6.2,42.5
	c16.2-0.7-5.9-22.2,5.9-41.6l2.7-2.7c0.7-0.8,0.7-2,0-2.7L93.3,226.2z"/>
<path d="M116.9,202.6c-0.8-0.7-2-0.7-2.7,0l-6.7,6.7c-0.7,0.8-0.7,2,0,2.7l6.7,6.7c0.8,0.7,2,0.7,2.7,0l6.7-6.7c0.7-0.8,0.7-2,0-2.7
	L116.9,202.6z"/>
<path d="M189.6,146l6.7-6.7c0.7-0.8,0.7-2,0-2.7l-6.7-6.7c-0.8-0.7-2-0.7-2.7,0l-6.7,6.7c-0.7,0.8-0.7,2,0,2.7l6.7,6.7
	C187.6,146.8,188.8,146.8,189.6,146z"/>
<path d="M316.3,90c-16.5-43.1-46.6-71-90.2-84.9c-1.7-0.6-3.6,0.3-4.3,2.1l0,0c-0.8,2-1.5,4.1-2.3,6.4c-0.5,1.4,0.2,2.9,1.5,3.5
	c0.6,0.2,1.1,0.5,1.6,0.8c9.2,5.3,15.8,12.4,11.2,15.6c-1.3,0.9-2.9,1-4.4,0.5c-4.1-1.4-7.9-2.2-11.1-2.2c-2,0-3.7,1.4-4.1,3.4
	c-0.2,0.9-0.4,1.9-0.6,2.8c-0.3,1.7,0.6,3.3,2.2,3.8c24,8.1,42.3,21.7,54.6,41.6c2,3.2,2.8,6.9,2.6,10.6
	c-0.7,10.1-3.7,15.6-11.1,8.8c-2.2-2.1-4-4.5-5.5-7.2c-12.5-23.4-37.1-39.4-64.9-40.2c-32.6-0.9-63.3,21-73.3,52.7
	c-2.7,8.7-6.5,18.5-1.4,27.8c0.9,1.5,1.5,3.2,2.1,4.9c3.4,11.2,5.5,22.2,5,32.7c-0.1,1.2-0.4,2.4-0.7,3.6c-0.2,0.6,0,1.3,0.5,1.8
	l15.6,15.6c4.5,4.5,7.3,10.5,7.6,16.9c0.9,16-8.2,32.9,4.6,33.3c13.7-1.4-4.7-28.9,3.6-47.2c0.3-0.7,0.8-1.4,1.3-1.9
	c0.5-0.6,0.6-1.5,0.3-2.2c-0.3-0.7-0.5-1.4-0.6-2.1c-0.5-6.7,2.9-13.6,8.8-20.9c0.3-0.3,0.6-0.6,1-0.8c0.1-0.1,0.1-0.1,0.2-0.2
	l6.7-6.7c0.7-0.8,0.7-2,0-2.7l-6.7-6.7c-0.8-0.7-2-0.7-2.7,0l-6.7,6.7c-0.5,0.6-0.7,1.4-0.4,2.1c0.5,1.2,0.6,2.5,0.7,3.7
	c0.7,10.2-2.7,16.8-7.8,17.1c-1.7,0.1-3.3-0.6-4.5-1.8l-9.4-9.4c-2-2-3.5-4.3-4.6-6.8c-3.5-8.4-3.4-18.1-2.2-27.8
	c0.2-1.7,0.5-3.4,0.9-5.1c0.2-0.7,0.3-1.4,0.4-2.1c2.5-16,7.3-29.9,20-41.7c15.1-14,32.3-19.8,51-15.7c15.1,3.3,27.1,10.9,35.4,21
	c1.4,1.7,2.2,3.8,2.4,6c0.3,4.6-3.2,3-7.4-0.8c-3.4-4.5-7.3-8.4-11.3-11.2c-26.4-18.6-59.1-9.8-76.8,20c-6.2,10.4-8.1,24.2-4.2,29
	c0.7,0.9,1.9,1.3,3,1.2c0.9-0.1,1.9-0.2,3-0.3c1.3-0.1,2.4-1.1,2.8-2.3c0.8-3,1.6-5.8,2.1-8.8c2.5-15.6,12.8-28,25.6-33.5
	c2-0.9,4.3-0.6,6.1,0.7c11.2,8.8-6.2,29.2,6,30c15-0.1-5.6-22.4,9.4-31.1c1.8-1,4-1.2,5.9-0.4l0,0c14.6,5.7,22.8,17.1,26.2,32.4
	c0.9,4.2,3.3,8.1,5.9,13.1c0.8,1.5,3,1.5,3.7,0c3.4-6.5,3.4-14.1,1.3-21.5c-0.7-8.1,0.9-10.4,4.1-7.7c1.2,1.1,2.1,2.5,2.6,4
	c5.8,17.9,2.8,38.6-11.1,55.9c-13.7,17-25.4,34.6-23.5,58.6c1.6,19.8-5,26.1-24.8,29.7c-2.5,0.4-5.7,2.7-6.5,4.9
	c-0.7,2,0.8,5.6,2.5,7.4c5,5.6,17,4.6,26.8-1.3c15.3-9.1,20.1-23.2,18.6-39.9c-1.6-17.3,4.5-31.7,15.1-44.9
	c12.4-15.6,22.2-31.8,21.7-53.4c0-1-0.1-2-0.1-2.9c-0.2-2.8,0.4-5.7,1.7-8.2c3.5-6.8,9.1-10.4,17.6-14.1c0.8-0.3,1.6-0.7,2.3-1
	c0,0,0,0,0,0l0,0c0.5-0.2,1-0.4,1.5-0.6c1.8-0.8,2.7-2.8,2.1-4.6c-6.6-21.3-24-40.8-41.2-52.9c-3.1-2.2-5.7-5.1-7.4-8.5
	c-1.8-3.5-1.9-6.3,0.2-8c1.6-1.2,3.8-1.3,5.5-0.4c21.4,11.6,37.7,28.6,49.3,50.4c7.7,14.3,10.7,30.7,8.9,46.8
	c-1.2,11.2-2.5,19.3,4.6,19c15.1-0.3-3.5-29.5,5.6-49.2C316.8,93.3,316.9,91.6,316.3,90z"/>
</svg>
