<?xml version="1.0" encoding="utf-8"?>
<!-- Generator: Adobe Illustrator 26.0.2, SVG Export Plug-In . SVG Version: 6.00 Build 0)  -->
<svg version="1.1" id="Layer_1" xmlns="http://www.w3.org/2000/svg" xmlns:xlink="http://www.w3.org/1999/xlink" x="0px" y="0px"
	 viewBox="0 0 400 400" style="enable-background:new 0 0 400 400;" xml:space="preserve">
<style type="text/css">
	.st0{fill-rule:evenodd;clip-rule:evenodd;}
</style>
<g id="svgg">
	<path id="path0" class="st0" d="M102.1,17.4c-28.6,5.7-38.7,41-17.6,61.8c0,0,2.7,2.7,4.7,4.6c1.2,1.2,1.9,2.8,1.9,4.5
		c0.1,11.7,0.3,58.3,0.3,58.3s0.2,38.3,0.2,54.2c0,4.4,0.9,8.9,2.5,13l0,0c9.6,24.6,30.6,38.4,58.4,38.5c0,0,2.1,0,4.5,0
		c3.5,0,6.3,2.8,6.3,6.3c0,5.1,0,11.5,0,11.5c0,1.3,0,2.6,0,3.8c0,2.5,1.6,4.8,3.9,5.7c2.3,1,5,0.5,6.8-1.3
		c4.9-4.7,11.1-10.8,17.7-17.4c0,0,14.8-14.8,22.5-22.5c2.5-2.5,2.5-6.5,0-8.9L168,183.2c-1-1-2.3-1.4-3.7-1.2
		c-1.4,0.2-2.5,1.1-3.1,2.3c-8.9,18-32.3,24.3-32.9,7.9c0,0-0.5-24.8-0.5-52.1V88.3c0-2.1,1-4,2.7-5.2c0.7-0.5,1.2-0.8,1.2-0.8
		C163,60.6,139.9,9.9,102.1,17.4z M208.1,26.1c0,0-14.8,14.8-22.5,22.5c-2.5,2.5-2.5,6.5,0,8.9c7.8,7.8,23.2,23.2,23.2,23.2
		c38.2,30.7-1.3,72.8,22.1,74.3c20.4-0.5,7.3-33.4,5.6-65.1V77.6c0-1.7,0.7-3.3,1.8-4.5c1.2-1.2,2.8-1.8,4.5-1.8h1.3
		c11.9,0,16.9,1.4,21.7,6.2c6.2,6.2,6.2,6.6,6.2,69.2v51.9c0,2-1,3.9-2.6,5.1c-1,0.7-1.8,1.3-1.8,1.3c-20.8,14.9-17.4,49.8,5.9,61.2
		c37.8,18.4,71.6-29,41.7-58.5c0,0-2.8-2.7-4.7-4.6c-1.2-1.2-1.9-2.8-1.9-4.5c0-11.3,0-55.3,0-55.3c0-71.4-0.3-73.3-15.1-89.2
		c-12.9-13.9-23-18.4-43.4-19.1c0,0-4-0.1-7.6-0.3c-3.4-0.1-6.1-2.9-6.1-6.3c0-5.1,0-11.6,0-11.6c0-2.5,0-5-0.1-7.1
		c-0.1-1.9-1.2-3.6-3-4.3c-1.8-0.7-3.8-0.3-5.2,1C223.1,11.3,215.8,18.3,208.1,26.1z M298.6,214.6c2.1,1,5.5,3.6,7.3,5.8
		c16.6,19.4-9.8,45.7-29.1,29.1C258.5,233.8,276.7,204.6,298.6,214.6z M163.3,203.6v5.8c0,3.5-2.8,6.3-6.3,6.3c-0.8,0-1.3,0-1.3,0
		C144.9,214.9,162.9,197.5,163.3,203.6z M108.3,74c0,0-0.2,0-0.3,0c-8-0.8-15.7-6.2-18.4-14.4c-1.7-5-1.3-10,0.5-14.2
		c0-0.1,0.1-0.3,0.1-0.3C97.2,31.6,123.4,73.9,108.3,74z M116.3,33.3c11.7,4.1,15.9,16,13.1,26.7c0,0.1-0.1,0.2-0.1,0.2
		C126.4,68.7,100.5,29.5,116.3,33.3z"/>
</g>
</svg>
