<?xml version="1.0" encoding="utf-8"?>
<!-- Generator: Adobe Illustrator 23.0.6, SVG Export Plug-In . SVG Version: 6.00 Build 0)  -->
<svg version="1.1" id="Layer_1" xmlns="http://www.w3.org/2000/svg" xmlns:xlink="http://www.w3.org/1999/xlink" x="0px" y="0px"
	 viewBox="0 0 400 400" style="enable-background:new 0 0 400 400;" xml:space="preserve">
<path d="M275.9,171.4c-6.3,1.5-15.2-1.8-24.2-4.7c-5-1.6-4.9-1.5-8,2.8c-11.1,15.2-17.8,32.2-22,50.4c-2.4,10.3-4.6,20.7-7.6,30.9
	c-1.5,5.1-4.5,9.7-6.6,14.6c-1.4,3.3-3.1,6.8-3.1,10.3c0.2,8.8,1.3,17.6,2,26.5c0.5,6.5-0.1,12.8-3.4,18.6c-2.6,4.4-6.2,7.4-11.6,7
	c-5.5-0.5-8.4-4.3-10-9.1c-2.7-7.8-1.5-15.9-0.6-23.8c1.5-13.6,0.9-27-3.6-40.1c-7.1-20.4-7.5-41.3-4.2-62.5
	c0.7-4.3,1.5-8.6,2.3-12.9c0.7-3.6-0.2-5-3.7-5.1c-10.7-0.1-21.1,2.1-31.1,5.8c-5.7,2.1-8.4,6.6-8.6,12.5
	c-0.2,5.4,0.3,10.8,0.1,16.1c-0.1,3.3-0.8,6.6-1.7,9.8c-0.9,3.3-3.4,5.5-6.9,5.9c-3.5,0.4-6.3-1.3-7.9-4.4c-1.3-2.4-2.3-5-3.1-7.6
	c-1-3.2-2.2-8.6-2.5-10c-0.4-1.4-0.8-2.7-2.1-2.6c-1.3,0.1-1.7,1.7-1.7,3.1c-0.1,1.4,0.3,7.2,0.1,10.8c-0.3,4.8-0.3,9.6-1.3,14.3
	c-1.3,5.8-5.2,9-9.4,8.8c-4.1-0.2-8-3.8-9.2-9.3c-0.7-2.9-0.9-6-0.9-9.1c0-5.8,0.3-11.6,0.5-17.4c0.4-12.1-6.1-20.3-15.4-26.7
	c-6.7-4.5-9-8.7-7-16.5c1.7-6.6,3.9-13,6.2-19.4c1.2-3.6,3.8-6.2,7.2-7.8c2.2-1.1,2.4-2.3,1.5-4.5c-2.6-6.6-5.2-13.2-4.6-20.7
	c0.4-4.7,1.8-8.9,4.8-12.4c4-4.6,8.5-8.9,14.9-10c2.2-0.4,2.6-1.3,1.7-3.3c-0.8-1.9-1.4-3.8-1.7-5.8c-1.7-10.5,2-18.4,11.5-23.6
	c2.4-1.3,2.4-1.9,0.5-3.8c-7.7-7.9-5.5-19.1,4.3-24.4c8.1-4.4,19.9-4.4,25.7-4.3c5.8,0.1,7.8-0.2,11.7-0.2c19.1,0,38.1,0,57.1,0.2
	c8,0.1,15.9,1,23.9,1.2c8.4,0.2,22.4-2.4,24.7-3c2.4-0.6,4-0.8,6-1.2c6.4-1.3,12.9-1.4,19.3-2.3c6.4-1,13.4,1.4,20.1,2.6
	c2.5,0.4,4.9,1.9,7.5,2.3c4,0.7,5.9,3,6.7,6.9c4.2,20.2,8.9,40.3,12.7,60.6c4.2,21.7,7.5,43.6,11.5,65.3c0.9,4.9,1.6,10.8,0.5,12.5
	c-1.2,1.7-5.4,2.5-6.8,2.8c-7.4,1.2-14.9,2.5-22.4,3.3C298.2,169.8,288.8,170.3,275.9,171.4z"/>
</svg>
