<?xml version="1.0" encoding="utf-8"?>
<!-- Generator: Adobe Illustrator 23.0.6, SVG Export Plug-In . SVG Version: 6.00 Build 0)  -->
<svg version="1.1"
	 id="svg4" xmlns:cc="http://creativecommons.org/ns#" xmlns:dc="http://purl.org/dc/elements/1.1/" xmlns:inkscape="http://www.inkscape.org/namespaces/inkscape" xmlns:rdf="http://www.w3.org/1999/02/22-rdf-syntax-ns#" xmlns:sodipodi="http://sodipodi.sourceforge.net/DTD/sodipodi-0.dtd" xmlns:svg="http://www.w3.org/2000/svg"
	 xmlns="http://www.w3.org/2000/svg" xmlns:xlink="http://www.w3.org/1999/xlink" x="0px" y="0px" viewBox="0 0 400 400"
	 style="enable-background:new 0 0 400 400;" xml:space="preserve">
<path d="M329.4,90.3c-11.6,0-16.6-0.1-28.1,0c-3.9,0-7.8,0.3-11.6,0.9c-9.7,1.5-18,5.8-23.9,13.9c-3.7,5.2-5.8,11.1-7.7,17.1
	c-4.9,15.6-9.9,31.2-14.9,46.8c-0.7,2.3-1.9,4.9-2.8,7.3c-0.2,0.5-0.9,0.5-1.1,0c-0.1-0.2-0.2-0.4-0.2-0.6c-1.8-6.7-3.6-13.3-5.2-20
	c-2.9-11.7-5.4-23.5-9.5-34.9c-2-5.6-4.4-11.1-7.8-16.1c-5.4-8-12.6-12.3-22.6-12.1c-18.6,0.3-37.2,0.1-55.8,0.1
	c-0.9,0-1.7,0.1-2.6,0.2c-5.3,0.6-9.9,2.8-14.2,5.7c-8.6,5.6-15.4,13-21.6,21c-9.1,11.8-16.3,24.7-22.5,38.2
	c-5.9,13.1-10.7,26.7-14.4,40.6c-0.5,2-0.4,2.2,1.6,2.2c8.7-0.1,17.5-0.1,26.2-0.3c5.9-0.1,11.6-1.5,16.9-4.1
	c3.3-1.6,6.1-3.5,8.5-5.8l0,0c0,0,0.1-0.1,0.1-0.1c1.6-1.5,3.1-3.2,4.3-5c13.3-15,35.3-36,47.9-24.4c1.8,1.7,3.1,3.8,3.9,6.1
	c0.7,2,1.4,4.1,2.2,6.1c2.7,7,6.1,13.7,11.7,18.9c3.9,3.6,8.6,5.7,14,5.7c12.4,0,24.7,0,37.1,0c49.2,1.9,3.8,71.7,31.2,75.5
	c23.3,1.2,7.4-31.4,8.7-65c0.5-13.4,5.1-26.5,13-37.3c3.9-5.3,7.5-10.8,10.9-16.4c7.9-13.1,15.6-26.3,23.3-39.5
	c4.2-7.2,8.8-16,12.9-23.4c0.3-0.6-0.1-1.3-0.8-1.3C334.2,90.3,329.9,90.3,329.4,90.3z M136,145.5c-0.4-0.8-0.4-1.8-0.2-2.7
	c0.5-1.8,1.1-3.6,2.1-5.1c5.6-8.2,11.8-16,18.9-23l0.3-0.3c0.5-0.5,1.3-0.2,1.5,0.4l0,0c0.4,1.6,0.8,3.1,1.2,4.7
	c0.2,0.8,0.3,1.6,0.2,2.4C158.5,135.5,139.2,152.2,136,145.5z"/>
</svg>
