<?xml version="1.0" encoding="utf-8"?>
<!-- Generator: Adobe Illustrator 23.0.6, SVG Export Plug-In . SVG Version: 6.00 Build 0)  -->
<svg version="1.1" id="Layer_1" xmlns="http://www.w3.org/2000/svg" xmlns:xlink="http://www.w3.org/1999/xlink" x="0px" y="0px"
	 viewBox="0 0 400 400" style="enable-background:new 0 0 400 400;" xml:space="preserve">
<path d="M224.5,91.8c0,2.7,0.1,15.2,0.1,21.3c0,6.1,0.5,6.6,7.2,7.1c1.5,0.1,3.1,0,4.6,0.1c5.2,0.2,7.5,3.4,5.4,8.1
	c-2.4,5.4-5,10.8-8.1,15.8c-5.8,9.2-12.2,18-18.1,27c-4.2,6.4-6.7,13.5-5,21.2c0.9,4.1,3.2,7.9,5,11.8c0.8,1.6,1.6,3.5,3,4.5
	c1.8,1.4,4.1,3.1,6.2,3.1c16.2-0.3,32.4-0.9,48.6-1.8c6.1-0.3,12.1-1.9,18.2-2.7c4.2-0.6,5.7-3.8,6.4-7c1.5-6.8,4.5-9.5,11.5-9.4
	c5.4,0,10.7,0.1,16.1,0.3c5.4,0.2,10.2,3.6,10.8,8.9c0.9,9.2,1.3,18.5,1.2,27.8c0,2.5-1.5,5-4.8,6.4c-7.1,3.1-12.3,9-14.6,16.5
	c-1,3.2-0.4,7.5,1,10.6c2.7,5.6,2.8,10.7,0.3,16.2c-3.5,7.7-13.7,8.8-19.2,2.2c-3.1-3.8-2.8-7.7-2-12c0.8-4.3,1.4-8.6,1.8-13
	c0.3-3.4-3.5-7-7.5-9.2c-9-4.9-18.6-3.5-28.2-3.3c-12.6,0.2-25.2,0.3-37.9,0.6c-5.3,0.1-10.6,0.8-15.9,0.9c-8.4,0.2-16.8,0.3-25.3,0
	c-20.1-0.6-40.3-1.2-60.4-2.3c-5.5-0.3-10.5-0.2-15.4,2.4c-5.5,2.9-5.8,9-4.4,13.5c2.1,6.9,0.5,16-7.1,19.7
	c-4.7,2.3-13.3,1.2-13.9-6.8c-0.3-3.8,0.1-7.6,0.2-11.4c0-2.5,0.1-5-0.3-7.4c-0.2-1-0.8-2.7-2.3-2.7c-1.4,0-1.1,1.4-1.4,2.2
	c-1.9,5.7-2.6,6.2-8.2,6.2c-4,0-5.6-1.8-6.1-6s-0.2-8.3-0.6-10.9c-0.4-2.5-1.5-6-1.9-7.5c-0.6-2.5-1-5.1-1-7.7
	c0-7.5,0.2-15,0.3-22.5c0.1-7.6,3.6-11.2,11.2-11.5c6.1-0.2,12.2,0,18.3-0.4c8.2-0.6,10.6,4.9,11.6,11c0.9,5.5,1.4,6.6,7.1,6.8
	c24.6,1.2,49.2,2.3,73.9,3.3c1.8,0.1,4.2-1.1,5.3-2.5c2.7-3.4,5-7.2,6.9-11.1c2-4.1,0.6-8.1-1.8-11.8c-9.7-14.3-19.5-28.4-28.9-42.9
	c-3.3-5.1-5.7-10.9-8.2-16.4c-1.5-3.2,1.6-6.7,5.7-7c3.1-0.2,7.4-0.4,9.4-0.9s2.8-2.2,2.8-3.4c0.5-8.1,0.9-18.9,0.8-21.8
	c-0.1-2.9-0.9-3.8-4.2-3.9c-3.3-0.1-6.6-4.3-5.5-9.4c0.5-2.3,1.4-4.6,2.7-6.6c4.5-6.9,5.7-14.7,6.4-22.6c0.2-1.7,0-3.4,0.2-5.1
	c0.5-4.5,2.7-5.6,7.2-5.5c9.5,0.4,18.9,0.2,28.4,0.3c2.1,0,3.8-0.1,6.6-0.1c2.1,0,3.5,1.9,4.3,4.8c3.5,12.4,0.3,23,1.7,39.9"/>
</svg>
