<?xml version="1.0" encoding="utf-8"?>
<!-- Generator: Adobe Illustrator 23.0.6, SVG Export Plug-In . SVG Version: 6.00 Build 0)  -->
<svg version="1.1" id="Layer_1" xmlns="http://www.w3.org/2000/svg" xmlns:xlink="http://www.w3.org/1999/xlink" x="0px" y="0px"
	 viewBox="0 0 400 400" enable-background="new 0 0 400 400" xml:space="preserve">
<path d="M62.5,225.1c0-5.4,0.2-10.6,0.4-15.9c0.1-3.3,1.5-4.9,4.9-5.1c15.4-0.7,30.8-1.8,46.2-2.3c18.3-0.6,36.6-0.6,55-0.9
	c6.3-0.1,9.8-2.4,9.9-6.5c0.1-5.3-4.3-9.5-10.1-9.7c-17-0.6-33.9-1.5-50.9-1.6c-13-0.1-26.1,0.9-39.1,1.4c-1.2,0-2.4,0.4-3.5,0.1
	c-1.2-0.3-2.9-0.8-3.3-1.7c-0.4-0.9,0.3-2.6,1.1-3.5c11.8-14,23.4-28.2,35.7-41.8c23.4-25.9,47.2-51.5,70.9-77.2
	c6-6.5,12-12.9,17.9-19.5c2.1-2.4,3.4-1.8,5.3,0.2c27.3,29.6,54.8,58.9,81.8,88.7c14.5,16,28.1,32.7,42,49.1c0.9,1,1.6,3,1.1,4
	c-0.4,0.9-2.4,1.6-3.8,1.6c-3.2,0-6.4-0.7-9.6-0.7c-28,0.2-55.9,0.5-83.9,0.8c-5,0.1-9.1,4.5-9.1,9.6c0,3.7,3.4,6.4,8.8,6.5
	c17.5,0.3,35,0.4,52.4,1c16.4,0.5,32.9,1.6,49.3,2.3c3.4,0.2,5.4,1.5,5.4,5.2c0,9.8,0.2,19.6,0.2,29.4c0,3.7-1.8,5.8-5.9,6.2
	c-4.2,0.4-8.4,1.4-12.4,2.5c-11.8,3.3-16.4,12.2-12.5,24c1.7,5,4.1,9.8,5.3,14.8c3.3,14-9.1,26.6-23.4,24
	c-7.2-1.3-11.7-5.8-11.6-13.3c0-5.7,1.5-11.4,2.1-17.1c0.4-4.5,0.7-9.1,0.3-13.6c-0.2-1.7-1.3-4.3-3.7-4.4c-2.4-0.1-3.9,1.9-4.8,3.5
	c-2,3.7-3,8.1-5.4,11.5c-1.7,2.5-4,5.4-7.7,5.2s-4.8-2.7-5.9-6.6c-1.1-3.8-1.2-6.4-1.5-9.6c-0.3-3.7-0.3-7.5-1.1-11.1
	c-1.4-6.4-4.6-8.5-11.1-8.9c-27.5-2-54.9-0.9-82.3,0c-21.4,0.8-42.8,0.9-64.1,0.9c-7.9,0-15.9-1.2-23.8-1.8c-3.5-0.3-5-2.4-5.2-5.7
	C62.5,234.4,62.5,230.5,62.5,225.1z"/>
</svg>
