<?xml version="1.0" encoding="utf-8"?>
<!-- Generator: Adobe Illustrator 27.0.1, SVG Export Plug-In . SVG Version: 6.00 Build 0)  -->
<svg version="1.1" id="Layer_1" xmlns="http://www.w3.org/2000/svg" xmlns:xlink="http://www.w3.org/1999/xlink" x="0px" y="0px"
	 viewBox="0 0 400 400" style="enable-background:new 0 0 400 400;" xml:space="preserve">
<style type="text/css">
	.st0{fill-rule:evenodd;clip-rule:evenodd;}
</style>
<path id="path4" class="st0" d="M277.1,118.5c-2.6,2-6,3.3-9.7,3.3c-8.8,0-15.7-6.9-15.7-15.7c0-37.9-28.3-69.4-64.9-74.3
	c-3.3-0.4-6.7-0.7-10.1-0.7c-8.8,0.4-15.7-6.5-15.7-15.3S167.8,0,176.6,0c52,0,95,36.9,104.5,85.7c6.2,19,22.2,4.2,33.3,4.6
	c8.8,0,15.7,6.9,15.7,15.7c0,53.2-39.2,97.3-90.6,104.9c-5.2,0.8-10.5,1.2-15.9,1.2c-21,1.7-6.3,17.9,0,17.2
	c8.8-0.4,15.7,6.5,15.7,15.3c0,6.2-3.4,11.4-8.4,14c-41.5,21.2,32,140.7-18.9,141.4c-43.8,1.4,17.6-114.3-26.9-146.8
	c-39.8-15.4-67.9-53.8-67.9-98.9c0-8.8,6.9-15.7,15.7-15.7c8.8,0,15.7,6.9,15.7,15.7c0,25.2,12.6,47.6,31.8,61.2
	c16.7,8.7,28.2,3.2,27.6-19.1c0-8.8,6.9-15.7,15.7-15.7c36.1,0,66.4-25.7,73.5-59.7C302.4,103.9,287.9,107.9,277.1,118.5z"/>
<path id="path10" class="st0" d="M86.6,251.8c-31.3-0.5,6.4-53.1-13.5-87.9c0,0-3.2-6-3.2-9.6c0-50.4,35.1-92.5,82.4-103.3
	c14.5-3.7,39.2-4.8,39.7,13c0,8.8-6.9,15.7-15.7,15.7c-41.3,0-75,33.7-75,75c0,2.6-2,7.4-2,7.4C81.3,196.6,119.7,250.9,86.6,251.8z"
	/>
</svg>
