<?xml version="1.0" encoding="utf-8"?>
<!-- Generator: Adobe Illustrator 23.0.6, SVG Export Plug-In . SVG Version: 6.00 Build 0)  -->
<svg version="1.1"
	 id="Elm" xmlns:cc="http://creativecommons.org/ns#" xmlns:dc="http://purl.org/dc/elements/1.1/" xmlns:inkscape="http://www.inkscape.org/namespaces/inkscape" xmlns:rdf="http://www.w3.org/1999/02/22-rdf-syntax-ns#" xmlns:sodipodi="http://sodipodi.sourceforge.net/DTD/sodipodi-0.dtd" xmlns:svg="http://www.w3.org/2000/svg"
	 xmlns="http://www.w3.org/2000/svg" xmlns:xlink="http://www.w3.org/1999/xlink" x="0px" y="0px" viewBox="0 0 400 400"
	 style="enable-background:new 0 0 400 400;" xml:space="preserve">
<path d="M248.1,52.9L202.2,7c-1.3-1.3-3.1-2-4.9-2H87.1c-6.2,0-9.2,7.4-4.9,11.8l45.9,45.9c1.3,1.3,3.1,2,4.9,2h110.2
	C249.3,64.7,252.4,57.3,248.1,52.9z"/>
<path d="M227,16.8l98.3,98.3c4.4,4.4,11.8,1.3,11.8-4.9V11.9c0-3.8-3.1-6.9-6.9-6.9h-98.3C225.7,5,222.7,12.4,227,16.8z"/>
<path d="M337.1,255v-81.6c0-6.2-7.4-9.2-11.8-4.9l-40.8,40.8c-2.7,2.7-2.7,7.1,0,9.8l40.8,40.8C329.7,264.3,337.1,261.2,337.1,255z"
	/>
<path d="M332.1,146.7c2.7-2.7,2.7-7.1,0-9.8l-56.2-56.2c-2.1-2.1-5.4-2.6-8.1-1.2c-9.7,5.1-24.6,14.7-20.3,7.7
	c4.4-4.4,1.3-11.8-4.9-11.8h-85.1c-6.2,0-9.2,7.4-4.9,11.8l29.6,29.6c4.4,4.4,8.3,9.5,11.2,15c4.2,8.1,6.5,17.1,0.7,23.9l-53,53
	c-15.3,9.5,27.8-37.3,47.6-61.6c2.2-2.8,2-6.7-0.5-9.2C170.3,119.9,102.3,52,74.7,24.3c-4.4-4.4-11.8-1.3-11.8,4.9V255
	c0,6.2,7.4,9.2,11.8,4.9l34.2-34.2c6.7-3.9-15.2,22.7-30.2,42.4c-3.5,4.5-0.2,11.1,5.5,11.1l176.3,0c2.6,0,5.2,0.2,7.7,0.9
	c43.1,10.5-5.2,96.2,26.4,98.3c30.3-0.5-12.7-75.8,25.7-95.8c4.1-2.1,4.9-7.7,1.6-11L281,230.7c-9.2-12.8-6-23.9,2.7-35.6
	L332.1,146.7z M245.3,195l-38.2-38.2c-3.1-4.1-3.5-9.9-1.9-15.8c2.1-7.6,7.4-13.9,14.2-17.7c5.3-3,8.8-4.1,6,0.9l-13,13
	c-2.7,2.7-2.7,7.1,0,9.8l5.9,5.9c4.4,4.4,8.5,8.9,12.4,13.7c10.3,12.4,30.9,31.3,20.8,31.1C249.2,197.7,247,196.7,245.3,195z"/>
</svg>
