<?xml version="1.0" encoding="utf-8"?>
<!-- Generator: Adobe Illustrator 23.0.6, SVG Export Plug-In . SVG Version: 6.00 Build 0)  -->
<svg version="1.1" id="Layer_1" xmlns="http://www.w3.org/2000/svg" xmlns:xlink="http://www.w3.org/1999/xlink" x="0px" y="0px"
	 viewBox="0 0 400 400" enable-background="new 0 0 400 400" xml:space="preserve">
<path d="M335.8,225.2c0.5,7.9,1,15.7,1.5,23.6c0.4,5.9,0.4,6-5.6,6.5c-14.3,1.2-28.7,2.2-43,3.3c-2.1,0.2-4.2,0.5-6.4,0.5
	c-1,0-2.5-0.3-2.7-1c-0.4-0.9-0.1-2.3,0.4-3.2c2.6-3.8,5.3-7.4,8.2-11c1.3-1.6,1.1-2.6-0.5-3.9c-7.2-5.7-14.2-11.5-21.2-17.4
	c-1.5-1.3-2.8-1.5-4.6-0.9c-5.3,1.7-8.5,5.6-8.1,11.2c0.3,3.7,1.5,7.2,2.3,10.9c0.7,3.5,2,7.1,2,10.6c0.2,13.2-15.1,21.8-26.5,15.2
	c-6.6-3.8-8.9-11.9-4.9-18.9c1.6-2.8,4-5.2,6.1-7.8c2.3-2.8,4.9-5.4,7-8.3c7.1-9.9,7.3-20.5,1.9-31.1c-1.3-2.5-4-4.3-6.3-6.1
	c-2.2-1.6-2.8-3.2-1.2-5.5c1.9-2.6,3.5-5.5,5.9-7.5c5.1-4.3,7.7-9.8,9.4-15.9c4.9-17.9,5.5-35.9,1.1-54c-1.2-5-3.4-9.2-7.4-12.7
	c-3.5-3-6.1-7-9.1-10.6c-1.6-1.9-0.8-3.7,0.7-5c5.2-4.2,10.6-8.2,15.8-12.4c12.2-9.9,24.4-20,36.6-29.9c2.1-1.7,2.4-2.9,0.6-5.1
	c-2.7-3.3-5.2-6.7-7.6-10.2c-0.6-0.8-1-2.4-0.6-3.1c0.4-0.7,2-1.2,3-1.1c17,1.3,34,2.7,51,3.9c3.2,0.2,4.2,1.5,4,4.6
	c-1.2,16.9-2.2,33.8-3.3,50.7c-0.1,1,0.1,2.2-1,2.9c-1.1,0.7-3.6-0.3-4.6-1.4c-2.7-2.8-5.1-6-7.4-9.2c-1.3-1.7-2.2-2-4-0.5
	c-13,11-26.3,21.7-39.1,32.9c-2.8,2.4-5,6.3-6.1,9.9c-6,19.7-3.1,38.3,8.1,55.6c1.2,1.9,2.7,3.6,4.4,5.1
	c10.7,9.5,21.6,18.9,32.3,28.4c2,1.8,3.2,1.7,4.7-0.5c2.8-4,5.7-7.9,8.6-11.8c0.4-0.5,1.3-1,1.8-0.9c0.7,0.2,1.5,0.9,1.7,1.5
	c0.4,1,0.4,2.1,0.5,3.1C334.7,207.8,335.2,216.5,335.8,225.2C335.8,225.2,335.8,225.2,335.8,225.2z"/>
<path d="M89.6,302.6c0-2.8,1-7.1,1.6-10.2c2.6-12.8-1.9-23-11.4-31.4c-3.4-3-6.8-6.1-11.9-6.1c-2.4,0-2.4-2-2.3-3.8
	c0.5-7.8,1-15.5,1.5-23.3c0.6-10,1.3-20,1.9-30c0-0.6,0-1.4,0.3-1.9c0.4-0.7,1.1-1.5,1.7-1.6c0.6-0.1,1.5,0.5,2,1.1
	c3,3.9,5.9,7.8,8.7,11.8c1.5,2.1,2.6,2.1,4.5,0.4c17-14.3,34.1-28.6,51.2-42.9c3.6-3,3.6-3,6.9,0.4c6,6.3,12.2,12.5,18.2,18.8
	c2.5,2.6,4.7,5.5,6.6,8.6c0.6,1,0.2,3.7-0.7,4.4c-13.3,10.9-26.8,21.7-40.2,32.5c-4.2,3.4-8.3,7-12.6,10.3c-2.1,1.6-1.9,2.8-0.5,4.6
	c2.7,3.3,5.2,6.7,7.6,10.3c0.6,0.9,1,2.5,0.6,3.4c-0.2,0.6-1.9,1-3,1c-10.1,0.1-16,5.5-16.1,15.8c0,4.8,1.3,9.6,2.4,14.4
	c0.8,3.6,2.5,7.1,2.9,10.8c0.3,3-0.1,6.4-1.1,9.3c-1.2,3.7-4.2,5.9-8.3,6c-4.1,0.1-7-2-8.6-5.6C90.6,307.4,89.7,305.4,89.6,302.6z"
	/>
<path d="M62.5,107.6c0.3-3.3,1.2-7.7,2.9-11.1c3.7-7.5,3.5-15.1,2.9-23.1c-1.1-13.3-1.8-26.6-2.6-39.9c-0.3-4.3,0-4.6,4.2-5
	c16.9-1.4,33.8-2.7,50.6-4c1-0.1,2.6,0.3,3,1c0.4,0.7,0.1,2.3-0.5,3.1c-2.6,3.8-5.3,7.4-8.2,11c-1.2,1.5-1.1,2.4,0.4,3.6
	c17,13.9,33.9,27.8,50.9,41.7c0.6,0.5,1.2,1,1.8,1.4c1.8,1.4,2.9,2.7,1.2,4.8c-3,3.6-5.9,7.2-9.1,10.7c-5.6,6.1-11.3,12.1-16.9,18.2
	c-1.7,1.9-3,0.8-4.4-0.3c-6.1-5-12.1-10.1-18.2-15.1c-11.4-9.6-22.9-19.1-34.3-28.7c-2.1-1.8-3.2-1.7-4.6,0.6
	c-4.2,7.2-4,14.6-0.8,22.1c0.7,1.7,1.7,3.2,2.4,4.8c2.2,5,1.3,10.7-2.2,14.3c-2.9,2.8-7.6,3.6-11.6,1.8
	C65,117.7,62.2,110.8,62.5,107.6z"/>
</svg>
