<?xml version="1.0" encoding="utf-8"?>
<!-- Generator: Adobe Illustrator 23.0.6, SVG Export Plug-In . SVG Version: 6.00 Build 0)  -->
<svg version="1.1"
	 id="svg2" inkscape:version="0.92.1 r15371" sodipodi:docname="eye_open.svg" xmlns:cc="http://creativecommons.org/ns#" xmlns:dc="http://purl.org/dc/elements/1.1/" xmlns:inkscape="http://www.inkscape.org/namespaces/inkscape" xmlns:rdf="http://www.w3.org/1999/02/22-rdf-syntax-ns#" xmlns:sodipodi="http://sodipodi.sourceforge.net/DTD/sodipodi-0.dtd" xmlns:svg="http://www.w3.org/2000/svg"
	 xmlns="http://www.w3.org/2000/svg" xmlns:xlink="http://www.w3.org/1999/xlink" x="0px" y="0px" viewBox="0 0 400 400"
	 style="enable-background:new 0 0 400 400;" xml:space="preserve">
<path d="M337.5,144.3c0-10.2-61.7-66.2-137.7-66.2c-75.9,0-137.3,56-137.3,66.2c0,10.2,61.4,66.2,137.3,66.2
	c27.3,0,52.8-7.2,74.2-17c1.6-0.7,3.3-1.3,5.1-1.6c26-4.1-7.8,58.6,13.7,59.2c25.5,0-7.8-38.7,18.1-76.5c2.4-3.5,5.4-6.6,8.7-9.4
	C331,155.8,337.5,147.6,337.5,144.3z M286.5,124.8c8.3,5.1,15.4,10.3,20.8,14.9c2.9,2.4,2.9,6.8,0,9.2c-5.5,4.6-12.6,9.8-20.8,14.9
	c-15.7,9.6-35.6,18.6-57.4,23.2c-8.4,1.8-17.1,2.1-25.6,0.9c-18.3-2.5-14.3-7.9-7.2-11.6c3.3-1.7,6.9-2.8,10.5-3.5
	c19.7-3.3,34.8-20.6,34.8-41.2c0-8.7-2.8-16.8-7.4-23.5c-1.5-2.2,0.5-5.2,3.1-4.5C255.9,108.6,272.8,116.4,286.5,124.8z
	 M209.1,105.7c9.5,0,17.3,7.5,17.3,17c0,9.5-7.8,17.3-17.3,17.3c-9.5,0-17-7.8-17-17.3C192.1,113.2,199.6,105.7,209.1,105.7z
	 M92.7,148.9c-2.9-2.4-2.9-6.8,0-9.2c5.5-4.6,12.6-9.8,20.8-14.9c13.7-8.4,30.6-16.3,49.1-21.2c2.6-0.7,4.7,2.3,3.1,4.5
	c-4.6,6.7-7.4,14.7-7.4,23.5c0,8.3,2.4,16.1,6.6,22.6c2.1,3.3,3.5,7,3.8,11c0.8,11.4-7,19.8-21.7,14.9
	c-12.4-4.6-23.8-10.3-33.5-16.3C105.3,158.7,98.2,153.5,92.7,148.9z"/>
</svg>
