<?xml version="1.0" encoding="utf-8"?>
<!-- Generator: Adobe Illustrator 23.0.6, SVG Export Plug-In . SVG Version: 6.00 Build 0)  -->
<svg version="1.1" id="Layer_1" xmlns="http://www.w3.org/2000/svg" xmlns:xlink="http://www.w3.org/1999/xlink" x="0px" y="0px"
	 viewBox="0 0 400 400" style="enable-background:new 0 0 400 400;" xml:space="preserve">
<path d="M144.6,187.4c-5.9,0.1-9.5-6.3-6.6-12.3c2.4-4.8,0.8-9-0.9-13.4c-1.5-3.9-5.3-5.1-6.9-5.6c-1.7-0.5-3-1.5-3-2.9
	c0-1.4,0.4-27.3,0.6-40.9c0-2,0-3.9,0-5.9c0-1.4,0.5-2,2-2c12.8-0.1,25.6-0.3,38.4-0.3c1.9,0,2.6-0.6,2.6-2.5c0,0-0.1-1.8-0.1-14.8
	c0-13.1,0.4-23.1,1.9-34.7c1.5-11.5,7-21.5,15.5-29.5c10.8-10.1,23.8-15.1,38.5-16.7c14.5-1.6,28.8-0.4,43.1,1
	c2.1,0.2,3.2,1.2,3.1,3.4c-0.2,13.5-0.3,27-0.5,40.5c0,1.1-0.8,2.5-1.6,3.1c-6.4,4.7-8.6,10.7-7,18.4c1.1,5.4-1.3,10.5-6.2,12.4
	c-2.3,0.9-4.2,1.1-6.1,0.7c-1.9-0.4-3.1-1.3-4.1-3.5c-1.1-2.2-1.8-6.8,0.9-9.1s4-3.6,4.5-6.2c0.6-2.7-0.3-3.9-2.1-6.2
	c-1.8-2.2-4.9-4.2-7.7-4.8c-2.8-0.6-5.6-0.8-7.8-0.4c-5.5,0.8-10.4,4.6-11.9,10.2c-2.2,7.9-1.4,15.9-1.2,23.9
	c0.1,4.4,0.7,8.8,0.9,13.2c0.1,2.5,1.3,2.9,3.5,2.9c12.9-0.4,25.9-0.6,38.8-0.9c0.6,0,1.3,0,1.9,0c2.6,0,3.5,0.9,3.3,3.5
	c-0.4,4.1-1,8.1-1.5,12.1c-1,7.8-2.1,15.6-3.1,23.4c-0.5,4-0.9,8.1-1.4,12.1c-0.1,0.5-0.4,1.1-0.8,1.3c-6.2,3.8-9.3,11.1-7.3,17.9
	c0.3,1.1,1.2,2.1,1.5,3.2c1.4,5.6-1,8.3-2.6,9.3c-1.6,1-2.9,1.6-5.3,1.7c-2.4,0.1-4.6-1.8-5.7-3.4c-2-2.9-2.7-6.8-1.4-9.9
	c0.2-0.4,0.4-0.8,0.5-1.1c1.1-2.4,2.5-4.5,1.4-7.5c-1.7-4.5-4.1-8.4-8.7-9.9c-2.6-0.9-5.7-0.6-8.6-0.6c-5.1,0-4.7-0.3-4.7,4.9
	c0.2,16.8,0.3,33.6,0.5,50.4c0.2,16.6,0.3,33.2,0.5,49.8c0.1,5.5,0.2,11,0.3,16.5c0.1,2-0.7,2.8-2.6,3.8c-2.5,1.3-4.7,3.6-6.3,6
	c-2.4,3.5-4.4,7.5-3.7,12c0.3,2.5,1.5,4.8,2,7.2c0.7,3.5-0.2,6.6-3.1,8.8c-2.6,1.9-5.4,2.6-8.7,1.5c-4.9-1.6-6.2-5.3-6.9-9.9
	c-0.7-4.6,0.9-8.6,2.2-12.7c0.9-3-1-7.5-1.7-8.8c-0.7-1.3-4-6.3-10.7-6.4c-6.8-0.1-7.9-0.1-11.8-0.1c-1.3,0-2.2-0.4-2.2-1.9
	c0-9.9-0.1-19.8-0.1-29.7c-0.1-26.8-0.3-53.6-0.5-80.4c0-3.1-0.1-6.2-0.3-9.3c-0.1-0.7-1-1.9-1.5-1.9c-4.7-0.1-9.2,0.7-13.1,3.6
	c-3.5,2.6-4.1,5.4-2.1,9.3c2.6,4.9,3,10.3,0.9,13.6C151.6,186.3,150.5,187.3,144.6,187.4z"/>
</svg>
