<?xml version="1.0" encoding="utf-8"?>
<!-- Generator: Adobe Illustrator 23.0.6, SVG Export Plug-In . SVG Version: 6.00 Build 0)  -->
<svg version="1.1" id="Layer_1" xmlns="http://www.w3.org/2000/svg" xmlns:xlink="http://www.w3.org/1999/xlink" x="0px" y="0px"
	 viewBox="0 0 400 400" enable-background="new 0 0 400 400" xml:space="preserve">
<path d="M192.3,208.3c0-3.1,0-9.1,0-13.6c0-5.3,0-5.3-5.2-6.1c-24.5-3.6-45-14.6-61.1-33.5c-26.3-31-28.8-74.7-5.6-108.2
	C163-14.4,254.5-6.3,287.2,57.5c22.2,43.3,4.4,97.5-38.9,119.8c-4.8,2.5-7.4,5.7-8.5,10.7c-2.9,12.7-2.2,25,3.8,36.7
	c1,1.9,2.6,3.7,4.4,4.9c5,3.2,7.1,6.9,6,11.4c-1.1,4.7-5,7.7-10.8,7.8c-8.5,0.1-17-0.1-25.4-0.3c-5.4-0.1-5.5-0.1-5.6,5.2
	c0,4.5,0,9.1-0.2,13.6c-0.1,1.8-0.2,3.7-0.7,5.4c-1.2,4.4-5,7.2-9.3,7.3c-4.4,0-8.2-2.7-9.4-7.2c-0.6-2.1-0.7-4.5-0.7-6.7
	c-0.1-4.5-0.1-9.1,0.1-13.6c0.1-3.3-1.1-4.6-4.4-4.5c-7.2,0.1-14.4-0.1-21.6-0.2c-2.4,0-4.8-0.2-7.2-0.6c-4.9-0.9-8.1-4.8-8.1-9.5
	c-0.1-4.8,2.9-8.6,7.9-9.7c2-0.4,4.2-0.5,6.3-0.5c7.6,0,15.3,0.1,22.9,0.3c3.1,0.1,4.3-1.2,4.2-4.2
	C192,223.5,192.3,211.4,192.3,208.3z M276.5,102.2c0-21.1-5.5-36.2-16.7-49.8c-3.3-4-5.5-3.8-8.1,0.9c-2.2,3.9-1.8,7.9-0.7,11.9
	c1.4,4.7,3.1,9.4,4,14.3c1.4,7.5-3.1,14.1-9.9,15.5c-6,1.2-12.1-3.3-13.5-10.7c-0.9-5.1-0.6-10.4-0.7-15.6c0-3.1,0.4-6.2,0.3-9.3
	c-0.1-3.1-0.3-6.7-3.8-7.8c-3.4-1-5.3,2-7.2,4.3c-2.6,3-4.8,6.3-7.5,9.1c-2.5,2.6-5.8,4.3-9.6,2.6c-4-1.8-4.7-5.5-4.4-9.3
	c0.3-3.8,1.2-7.5,1.8-11.3c0.9-5.3,1.4-10.6-0.6-15.9c-1.3-3.5-3.4-5.1-7.4-4.6c-14.8,1.8-28.3,6.8-39.9,16.2
	c-36.5,29.4-34.1,79.1-3.7,106.8c14.8,13.5,32.4,19.6,52.8,19.4c13.4-0.1,25.5-3.2,36.9-9.4C262.9,146.4,275,125.4,276.5,102.2z
	 M212.3,207.8c0,1.7,0,10.7,0,16.1c0,2.2,1.1,2.7,2.5,1.1c3-3.3,6.2-6.6,8.5-10.4c4.9-7.8,4.5-15.9,0.4-24.1c-2.1-4.1-5.1-2.2-8-2
	c-2.8,0.3-3.3,2.1-3.2,4.5C212.4,193,212.3,206.1,212.3,207.8z"/>
</svg>
