<?xml version="1.0" encoding="utf-8"?>
<!-- Generator: Adobe Illustrator 23.0.6, SVG Export Plug-In . SVG Version: 6.00 Build 0)  -->
<svg version="1.1" id="Layer_1" xmlns="http://www.w3.org/2000/svg" xmlns:xlink="http://www.w3.org/1999/xlink" x="0px" y="0px"
	 viewBox="0 0 400 400" style="enable-background:new 0 0 400 400;" xml:space="preserve">
<path d="M223.4,66.5l0.7-0.8c5.9-7.4,8.7-16,9.2-25.4c0.4-8.3,0.2-16.7,0.3-25.1c0-0.9,0-1.8,0.1-2.6c0.2-1.6,1.3-1.9,2.5-1.3
	c0.8,0.4,1.5,1.2,2.1,1.9c24.8,26.3,49.5,52.7,74.3,79c0.9,1,2,2.4,0.9,3.8c-0.7,0.9-1.9,0.9-3.1,1c-4.6,0.2-9.2,0.2-13.8,0
	c-2.3-0.1-4.4,1.4-5.2,3.6c-0.6,1.7-1.3,3.5-1.7,5.3c-0.6,3,0,3.7,3,3.7c7.3,0.1,14.6,0,21.9,0.1c1.6,0,3.1,0,4.7,0
	c2.6,0.1,3.4,0.7,3.8,3.1c0.2,1.2,0.3,2.4,0.3,3.5c-0.2,30.4-0.5,60.8-0.8,91.2c-0.2,21.4-0.4,42.8-0.6,64.1
	c-0.1,6.6-0.9,7.4-7.7,7.4c-18.8,0-37.5-0.1-56.3-0.1c-15.5,0-31.1,0-46.6,0c-11.4,0-22.1,3.1-32,8.5c-5,2.7-9.5,6.2-10.7,12
	c-0.7,3.7-0.3,7.7-0.1,11.6c0.2,4.2,1.2,8.3,1.2,12.4c0,3.1-0.7,6.4-1.8,9.3c-2.8,7.2-10.1,11.3-17.7,10.5
	c-8-0.9-14.4-6.9-15.8-14.6c-1-5.8,0.5-11.4,1.6-17c0.9-4.4,1.9-8.8,0.7-13.3c-0.2-0.7-0.4-1.5-0.7-2.2c-1.5-3-3.5-3.3-5.6-0.8
	c-1.3,1.5-2.4,3.3-3.6,4.9c-1.9,2.4-3.7,5.1-6,7.1c-6.3,5.8-14.1,4.2-17.7-3.6c-1.2-2.6-2.1-5.4-3-8.2c-2.8-9.2-9.3-14.2-18.3-16.5
	c-4.9-1.2-5.4-1.9-5.4-7c0.2-32.3,0.3-64.5,0.5-96.8c0.3-54.3,0.6-108.6,1-163c0-0.9,0-1.8,0.1-2.6c0.3-2.6,1.7-3.7,4.6-3.8
	C87.5,6.1,92.3,6.1,97,6c36-0.3,71.9-0.6,107.9-1c3.2,0,4.7,0,9.6,0s6.3,1.5,6.3,6.2c0,17.8,0,35.1,0,52.9c0,0.6,0,1.1,0.1,1.7
	C221,67,222.6,67.5,223.4,66.5z M253.4,109.6c1.7,0,4,0,5.7,0c1.7,0,3.3,0,5,0c4.8,0,7.1-1.3,7.3-6.1c0-1-0.1-1.9-0.3-2.9
	c-0.6-2.7-2.6-3.6-5.3-3.7c-7.7-0.1-14.1,0.1-21.8,0c-1.9,0-3,0.9-3.2,2.6c-0.3,2-0.5,4.1-0.4,6.1c0.1,3.3,0.7,3.9,4,3.9
	C247.8,109.6,249.8,109.6,253.4,109.6z"/>
</svg>
