<?xml version="1.0" encoding="utf-8"?>
<!-- Generator: Adobe Illustrator 23.0.6, SVG Export Plug-In . SVG Version: 6.00 Build 0)  -->
<svg version="1.1"
	 id="svg4" xmlns:cc="http://creativecommons.org/ns#" xmlns:dc="http://purl.org/dc/elements/1.1/" xmlns:inkscape="http://www.inkscape.org/namespaces/inkscape" xmlns:rdf="http://www.w3.org/1999/02/22-rdf-syntax-ns#" xmlns:sodipodi="http://sodipodi.sourceforge.net/DTD/sodipodi-0.dtd" xmlns:svg="http://www.w3.org/2000/svg"
	 xmlns="http://www.w3.org/2000/svg" xmlns:xlink="http://www.w3.org/1999/xlink" x="0px" y="0px" viewBox="0 0 400 400"
	 style="enable-background:new 0 0 400 400;" xml:space="preserve">
<path d="M337.1,116.7c-0.3-2.7-0.8-5.4-1.2-8c-0.1-0.3-0.5-0.4-0.6,0c-1,3.4-1.2,6.8-2.9,9.9c-0.2,0.4-0.9,0.3-0.9-0.2
	c-1.3-22.4-5.8-43.8-19-63.3c-0.3-0.5-1.1-0.2-1,0.4l2.2,17c0,0.4-0.5,0.5-0.6,0.2c-0.6-1.5-1.2-3-1.9-4.5
	c-6.3-13.5-16.3-23.4-29.7-30c-2.9-1.4-5.9-2.7-8.6-4.5c-28.1-19.1-59.1-26.3-92.6-21.6c-26.8,3.8-50,15.4-69.7,33.9
	c-2.5,2.4-5.2,4.7-7.8,7c-1.3,1.1-3.4,0.8-4.2-0.7c-3-5.2-4.5-11.5-5.8-18.1c-0.2-1.1-1.6-1.5-2.3-0.6c-3.5,3.9-5.7,8.3-7.3,13
	c-3.9,10.7-5,21.8-4.9,33c0.1,3.2-1.2,5.5-2.9,7.9c-4.7,6.5-8.9,13.4-11.3,21.1c-0.9,2.8-1.6,5.7-1.5,8.9c0.1,1.4,1.7,2.2,2.8,1.3
	l2.8-2.3c1-0.8,1.8-0.2,1.7,0.5c-0.2,0.8-0.4,1.7-0.7,2.5c-5.3,16.2-6,32.8-2.6,49.5c4.6,22.6,14.9,42.4,30.5,59.5
	c32.4,35.5,72.6,50.9,120.3,45.2c4.5-0.5,8.9-1.3,13.2-2.4l-0.1,0.1c28.7-5.6-6.6,47.2,18.5,48.8c22.4-2-16.8-58.2,18.9-55.4
	c41.1,2.7-10.9,113.2,24.3,114.8c35.7-1.5-16-95.6,11-158.1c5.2-6.8,9.9-14,13.9-21.5c0.2-0.4,0.3-0.6,0.5-1
	c7.6-14.2,13-29.5,16.1-45.9C336.1,140.9,338.5,129,337.1,116.7z M138.7,59.1c-7.7-2.2-12.6-2.3-20.2-0.5l-1.8,0.4
	c-0.9,0.2-1.6-0.8-1-1.6c2-2.8,5.5-6,9.9-9.3c4.5-3.4,9.9-5.4,15.6-5.7c10.8-0.6,16.5,3.5,12,7.1c-4,2.4-7.8,5.3-11.4,8.5
	C140.9,58.8,139.5,59.3,138.7,59.1z M295.8,97.6l-8.8-6.8c-0.4-0.3-0.9,0-0.8,0.5c4,17.2,7,36.2,2.4,54.3c-0.2,0.6-1,0.7-1.3,0.1
	c-2-5.1-3.5-10-7-14.5c-0.3-0.4-0.9-0.1-0.9,0.4c2.1,22.8,1.3,44.4-13.3,63.5c-0.4,0.5-1.2,0.2-1.1-0.5l2.8-18.3
	c0.1-0.4-0.5-0.7-0.8-0.3c-3.2,4.1-7.2,9.3-10.4,13c-8.9,10.1-19.3,18.2-32.6,21.8c-11.8,3.3-23.5,1.7-34.9-2
	c-10.4-3.4-18-8-25.8-15.5c-0.1-0.1-0.7-0.7-1.2-1.2c-0.5-0.5-0.1-1.3,0.5-1.3c0.7,0,1.4,0,2,0c10.8,0.4,21.3-1.3,30.9-6.3
	c2.1-1.1,4.2-2.4,6.3-3.6c2.1-1.3,4.5-2.3,7-2.8c17.9-3.3,0.1,24.1,9.9,25.1c8.6-0.3-3.7-10.4,3.9-29c0.5-1.1,1.2-2.1,1.9-3.1
	c0.1-0.1,0.2-0.2,0.3-0.4c1.2-2,0.4-4-1.1-5.7c-8.1-9.6-21.3-11.7-33-5.5c-3.9,2-8,3.9-12.2,4.8c-6.1,1.3-11.8-0.6-16.9-4.2
	c-6.1-4.2-11.4-9.5-15.9-15.3c-2.3-2.9-2.2-6.4-0.1-9.7c1.8-2.9,4.8-4.1,8.4-3.5c2.8,0.5,5.7,1,8.5,1.5c1.9,0.4,3.9,0.8,5.9,1.3
	c1.5,0.3,3.1-0.7,3.2-2.3c0.3-2.9-0.1-5.7-0.9-8.5c-0.8-2.9-2.1-5.8-3.4-8.5c-0.7-1.5-0.6-2.4,0.7-3.4c5.4-4,10.6-8.4,16.2-12.2
	c3-2,4.4-4.7,5.7-7.6c0.9-2-0.7-3.7-3.1-3.9c-4-0.3-7.9-0.4-11.8-1c-2-0.3-4.2-1.2-5.8-2.5c-4.5-3.7-8.7-7.8-13-11.8
	c-0.4-0.4-0.5-1.4-0.4-2c1.8-11.8,8.3-20.5,18-27.1l0,0c0.9-0.6,0.7-2-0.4-2.3c-7.8-2.1-27.1,0.5-21.4-7.1c1.1-1.5,2.6-2.5,4.2-3.2
	c4.6-2,9.2-3.6,13.3-4.6c3.6-0.9,7.3-1.7,10.9-2.3c17.4-1.5,3.1,22.3,5.6,33.4c0.9,4.2,6.1,6.1,9.5,3.5c8.8-6.6-10.3-32.9,3.7-37.8
	c1.2-0.4,2.5-0.6,3.8-0.5c10.3,0.4,20.5,2.1,30.9,5.2c0.3,0.1,0.4,0.5,0.1,0.7l-0.6,0.3c-0.3,0.2-0.3,0.7,0.1,0.8
	c10,2.7,20.7,5,26.8,14c0.4,0.5,0,1.2-0.6,1.3l-14.3,0.8c-0.7,0-1.1,0.7-0.9,1.4c0.1,0.3,0.3,0.5,0.5,0.8
	c20.5,24.2-10.3,69.8,13.5,69.6c17,0.7-12.2-49.8,7.9-55.5c3.4-1,7.2-0.2,10.1,1.9c1.5,1.1,3,2.3,4.5,3.5c8,6.6,14.4,14.3,16.2,24.8
	c0.3,1.6,0.3,3.3,0.4,4.9C297.7,97.6,296.6,98.2,295.8,97.6z"/>
</svg>
