<?xml version="1.0" encoding="utf-8"?>
<!-- Generator: Adobe Illustrator 23.0.6, SVG Export Plug-In . SVG Version: 6.00 Build 0)  -->
<svg version="1.1"
	 id="svg2" xmlns:cc="http://creativecommons.org/ns#" xmlns:dc="http://purl.org/dc/elements/1.1/" xmlns:inkscape="http://www.inkscape.org/namespaces/inkscape" xmlns:rdf="http://www.w3.org/1999/02/22-rdf-syntax-ns#" xmlns:sodipodi="http://sodipodi.sourceforge.net/DTD/sodipodi-0.dtd" xmlns:svg="http://www.w3.org/2000/svg"
	 xmlns="http://www.w3.org/2000/svg" xmlns:xlink="http://www.w3.org/1999/xlink" x="0px" y="0px" viewBox="0 0 400 400"
	 style="enable-background:new 0 0 400 400;" xml:space="preserve">
<path d="M294.5,93.4c-4.8-15.3-14.8-30.8-32.9-37l0,0c-10.4-3.6-17.6-12-15.4-24.2c1.2-6.6,5-12.5,10.3-16.6
	c0.1-0.1,0.2-0.1,0.2-0.2c1.2-0.9,2.4-1.7,3.6-2.6c1.9-1.6,2.2-4,0.9-5.9c-1.3-1.9-3.7-2.5-5.9-1.3c-0.6,0.3-1.1,0.7-1.6,1.1
	c-13.5,9.6-23.4,22.3-31.5,36.5c-1.1,2-2.2,4-3.3,6c-0.6,1.2-2.3,1.3-3.1,0.3l0,0c-3.4-4.3-6.5-9-10.5-12.7c-7-6.6-16-8.8-25.4-9.5
	c-18.3-1.3-35.4,2.1-50.3,13.4c-11.3,8.5-19.3,19.4-22.1,33.6c-0.7,3.3-0.3,5.9,1.1,7.9c0.7,0.9,1.3,1.8,1.8,2.8
	c3.9,7.3,6.1,14.3,4.4,25.1c-0.4,2.4-1,4.7-1.8,7c-1,3-1.9,5.9-2.7,8.9c0,0,0,0,0,0.1l0-0.1c-2.9,10.4-4.9,21-6.1,31.9
	c-2.5,22.2-2,44.3,2.8,66.2c2.9,13.2,7.5,25.8,15.8,36.7c1.6,2.1,3.2,4,5,5.8c42,40.7-2.7,82.8,18.3,93.8c1.7,0.9,3.7,1,5.5,0.3
	c20.9-8.6-20-58.6,13.9-81.8c1.7-1.2,3.6-2.1,5.6-2.8c1.9-0.7,3.7-1.4,5.6-2.2c15.8-6.9,28.5-17.9,39.6-30.8
	c19.5-22.6,33.5-48.6,45.3-75.8c2.5-5.8,4.6-11.8,6.9-17.8c0.3-0.7,1.2-0.9,1.8-0.4c15.4,16.5-10.3,65,7.6,73.4
	c1.2,0.5,2.4,0.8,3.7,0.7c13.7-1.2-8.9-42.7,6.2-75.7c0.8-1.7,1.7-3.2,2.7-4.8c1.3-2,2.4-4.2,3.2-6.5
	C298,122.2,299,107.8,294.5,93.4z M226.1,54.6c0.5-0.9,1-1.9,1.5-2.8c1-1.9,2.6-3.6,4.6-4.5c7.5-3.3,16,3.8,2.3,6.8
	c-0.5,0.1-1.1,0.2-1.6,0.3c-2.3,0.2-4.5,0.5-6.8,0.8C225.7,55.2,226.1,54.7,226.1,54.6z M260.3,144.8c-4.7,15-11.1,29.2-18.4,43.1
	c-9.5,18.1-20,35.7-33.8,51c-10.3,11.4-21.7,21.2-36,27.3c-6.4,2.7-13,4.9-20.1,3.9c-8.5-1.2-15-5.9-20.4-12.2
	c-8.3-9.8-12.8-21.4-15.7-33.7c-4.8-20.3-5.4-40.8-3.5-61.5c2.3-24.7,9-48.2,20.3-70.4c1.2-2.4,2.5-3.4,5.3-3.5
	c7-0.4,13.9-1.5,20.9-2.3c0.2,0,0.5-0.1,0.7-0.1c0.8-0.1,1.6,0.6,1.5,1.4c-0.4,5.5-1,10.8-1,16.1c0,7.7,1.8,15.1,5.3,22.1
	c2.5,5,5.7,9.1,9.4,12.4c4.1,3.6,7.3,8.3,8.6,13.6c4.2,17.3-7.4,37.2,4.2,37.6c11.9-0.5-7.4-36.5,7-42.5c1-0.4,2.1-0.6,3.3-0.7
	c6.3-0.3,12.8-2.5,19.1-6.6c7.1-4.6,12.6-10.7,17.2-17.7c0.2-0.3,0.4-0.6,0.6-1c0.8-1.2,2.5-1.3,3.5-0.3c0,0,0,0,0,0
	c7.1,6.9,14.1,13.7,21.3,20.5C260.9,142.6,260.7,143.5,260.3,144.8z M119.6,89.1c0.4-0.7,1.2-1.1,2.1-0.9c0.7,0.2,1.8,0.5,2.5,0.7
	c0.2,0.1,0.3,0.3,0.3,0.5c-0.2,0.4-0.5,1.1-0.6,1.3c-0.9,1.9-1.4,2.8-2.3,4.7c-0.4,0.9-1.2,0.3-1.7-0.5
	C119.1,93.6,118.8,90.8,119.6,89.1z M285.5,132.2c-0.7,2.5-2,5-3.6,7.1c-2.2,3.1-4.8,3.7-7.9,1.6c-4.7-3.2-9.4-6.6-13.5-10.5
	c-7.2-6.8-13.9-13.9-20.8-21c-3.8-3.9-6.6-3.6-9.1,1.2c-4.3,8.3-9.7,15.7-17.4,21.1c-6.3,4.4-13.3,7-21.1,5.6
	c-10.8-1.9-16.9-9.4-20.3-19.1c-4.3-11.9-4-23.8,0.8-35.6c0.6-1.5,0.4-3.7-0.3-5.1c-0.9-1.9-3-2-5.1-1.6c-12.2,2.5-24.5,4.6-37,4.1
	c-4.1-0.2-8.2-1.1-12.2-1.8c-1.8-0.3-2.3-1.4-1.8-3.2c3.7-14.5,12.6-24.7,25.5-31.8c6.1-3.4,12.5-5.3,19.2-6.4
	c6.5-1.1,13.1-1.1,19.6-0.5c1.1,0.1,2.2,0.2,3.3,0.4c9.9,1.4,17.5,6.5,22.7,15c2.3,3.7,4.3,7.5,6.4,11.3c2.1,4,3.5,4.5,7.8,3
	c10.4-3.4,21.1-4.7,31.9-2.7c15.2,2.8,24.6,12.8,30.9,26.3C289.9,103.5,289.6,117.8,285.5,132.2z"/>
<path d="M238.4,165.9c-2.7-1.6-5.7-3-8.7-4.1c-2.2-0.9-4.2-0.1-5.4,2.1c-1.1,2.1-0.6,4.6,1.6,5.7c3,1.6,6,3.1,9.2,4.2
	c1.5,0.5,3,0.1,4.1-1.1c1.7-1.9,1.5-4.9-0.5-6.6C238.7,166,238.5,165.9,238.4,165.9z"/>
<path d="M247.6,144.6c-2.8-1.4-5.8-2.4-8.3-3.2c-1.1-0.4-2.3-0.6-3.5-0.3c-1.6,0.3-2.6,1.3-3.1,2.7c-0.7,2.2-0.1,4.2,2,5.2
	c3.2,1.4,6.5,2.6,9.9,3.5c2.2,0.6,3.9-0.7,4.7-2.9C250.1,147.5,249.5,145.5,247.6,144.6z"/>
<path d="M216.8,206.9c-2.8-2.1-5.6-4.1-8.7-5.8c-2.1-1.1-4.1-0.5-5.4,1.6c-1.2,1.9-0.7,4.4,1.1,5.8c2.6,2,5.3,3.9,8.2,5.4
	c2.1,1.1,4.6,0.1,5.7-2.2c0.7-1.4,0.5-3.1-0.4-4.3C217.1,207.2,217,207,216.8,206.9z"/>
<path d="M194.8,218.7c-1.6-1.2-3.8-0.7-5.2,1c-1.4,1.7-1.7,3.8-0.2,5.3c2.6,2.6,5.3,5.2,8.3,7.2c2.7,1.8,6.2-0.5,6.2-4.3
	c0-0.5-0.1-1.4-0.7-1.8C200.5,223.6,197.8,220.9,194.8,218.7z"/>
<path d="M228,186.5c-2.7-1.8-5.5-3.3-8.4-4.7c-2.3-1.1-4.2-0.3-5.4,1.8c-1.2,2.1-0.9,4.3,1.2,5.6c2.8,1.8,5.8,3.5,8.9,4.9
	c1.9,0.8,3.8,0.1,4.9-1.6c1.1-1.7,0.9-4-0.5-5.5C228.5,186.8,228.3,186.6,228,186.5z"/>
<path d="M180.5,235c-0.1-0.1-0.3-0.3-0.4-0.4c-1.6-1.3-3.8-1.5-5.5-0.4c-1.9,1.3-2.5,3.8-1.1,5.9c1.7,2.5,3.5,4.9,5.5,7.3
	c1.7,2,4.3,2.3,6.1,0.8c1.9-1.5,2.3-4,0.8-6.1C184.2,239.6,182.4,237.2,180.5,235z"/>
<path d="M157.3,243.4c-2.2,0.6-3.5,2.4-3.1,4.6c0.6,3.3,1.6,6.6,2.7,9.8c0.8,2.1,2.7,3,4.9,2.5c1.6-0.4,2.6-1.3,3.1-2.9
	c0.3-1.1,0.3-2.4-0.1-3.5c-0.7-2.5-1.5-5.5-2.5-8.3C161.6,243.3,159.5,242.7,157.3,243.4z"/>
</svg>
