<?xml version="1.0" encoding="utf-8"?>
<!-- Generator: Adobe Illustrator 26.0.2, SVG Export Plug-In . SVG Version: 6.00 Build 0)  -->
<svg version="1.1" id="Layer_1" xmlns="http://www.w3.org/2000/svg" xmlns:xlink="http://www.w3.org/1999/xlink" x="0px" y="0px"
	 viewBox="0 0 400 400" style="enable-background:new 0 0 400 400;" xml:space="preserve">
<g>
	<path d="M318.6,56.2H167.5c-3.6,0-7-1.6-9.3-4.4c-4.2-5.1-10.5-12.7-10.5-12.7c-3.9-4.8-10.5-7.5-16.5-7.5H81.1
		c-10.2,0-18.6,8.4-18.6,18.6v184.6c0,10.2,8.4,18.6,18.6,18.6c42.8,8.8-3.7,58.7,24.5,58.5c32.3-1.7-11.2-57.6,30.4-58.3l80.3,0.3
		c92.2,7,5.3,110.4,56.7,110.3c58.8-0.9-29.3-109.7,46-110.8c10.2,0,18.6-8.4,18.6-18.6V74.7C337.2,64.5,328.8,56.2,318.6,56.2
		L318.6,56.2z"/>
</g>
</svg>
