<?xml version="1.0" encoding="utf-8"?>
<!-- Generator: Adobe Illustrator 23.0.6, SVG Export Plug-In . SVG Version: 6.00 Build 0)  -->
<svg version="1.1" id="Layer_1" xmlns="http://www.w3.org/2000/svg" xmlns:xlink="http://www.w3.org/1999/xlink" x="0px" y="0px"
	 viewBox="0 0 400 400" style="enable-background:new 0 0 400 400;" xml:space="preserve">
<path d="M215.3,268.9c-3.3,0.1-6-2.7-5.6-6c0.2-1.4,0.2-2.2,0.6-3.5c0.6-2,2.7-3.1,4.3-3.5c7.7-2,15.6-3.5,23.3-5.5
	c6.7-1.7,8.5-4.8,6-11.5c-4.8-12.6-10-25-15.1-37.5c-1.8-4.5-3.6-9-5.4-13.5c-1.2-3.1-5.2-3.9-7.7-1.7c-5.7,5.2-8,13.2-6.1,21.9
	c1.2,5.2,2.8,10.4,3.3,15.7c1.4,14-12,24.5-24.4,19.3c-5.6-2.4-9-6.7-9.4-12.6c-0.4-5.8-0.2-11.8,0.7-17.6
	c3.4-20.5-4.9-30.5-25.5-31.3c-6.4-0.3-9.4,1.6-11.4,7.7c-5.2,15.6-11.3,30.9-16.8,46.4c-2.8,7.7-0.6,12.5,7.2,14.8
	c6.6,2,13.4,3.5,20.2,4.2c4.5,0.5,5.5,1.8,5.5,6.3c0,0.9-0.1,1.8-0.1,2.8c0,3-2.5,5.4-5.5,5.2c-9.4-0.5-18.4-0.8-27.4-1.5
	c-13-0.9-26-2.2-39.1,0.5c-7.7,1.6-13.6,1.5-21.2,2.2c-2.2,0-3-1.2-3.1-2.8c-0.7-9.8-0.5-10.2,10.4-12.8c3.4-0.8,6.8-1.3,9.1-1.7
	c2.3-0.3,4.6-1.1,6.1-1.6c7.4-2.4,11.8-8.3,14.7-15.6c14.4-37.2,28.5-74.5,42.8-111.7c13.4-34.7,27-69.3,40.3-104.1
	c1.3-3.3,3.9-5.1,6.1-5.1c2.2,0,6.7-0.1,11.1,0c4.4,0.1,6.6,3,8.6,7.9c15.1,36,30.6,71.8,45.6,107.8c12.8,30.9,25.1,62,37.7,93
	c2.8,6.9,6.2,13.5,9.5,20.2c2.8,5.9,8.5,7,14.2,8c3.5,0.6,7,1.3,10.4,2.2c6.3,1.7,9.9,7.8,7.4,13.8c-0.5,1.3-3.8,2.1-5.7,2
	c-11-0.5-22-1.5-32.9-2c-10.5-0.5-21-1-31.5-0.8C249.5,267.3,232.5,268.3,215.3,268.9L215.3,268.9z M157.9,151
	c-0.7,1.8,1.2,3.6,3,2.8c11.9-5.1,19.2-15.6,23.4-27.6c4-11.4,6.8-23.1,0.3-34.8c-1-1.7-3.5-1.5-4.2,0.4
	C172.7,111.8,165.3,131.4,157.9,151z M207.7,162.6c2.6-0.1,4.3-2.9,3.5-5.4c-0.8-2.3-1.5-4.5-2.3-6.6c-1.3-3.5-2.7-6.9-4-10.4
	c-1.1-3.1-3-3.8-5.7-1.9c-4.3,3-5.5,12.4-3.1,19.5C198.3,164,203.1,162.7,207.7,162.6C207.6,162.6,207.6,162.6,207.7,162.6z"/>
</svg>
