<?xml version="1.0" encoding="utf-8"?>
<!-- Generator: Adobe Illustrator 23.0.6, SVG Export Plug-In . SVG Version: 6.00 Build 0)  -->
<svg version="1.1"
	 id="Layer_1" inkscape:version="0.92.1 r15371" sodipodi:docname="gear.svg" xmlns:cc="http://creativecommons.org/ns#" xmlns:dc="http://purl.org/dc/elements/1.1/" xmlns:inkscape="http://www.inkscape.org/namespaces/inkscape" xmlns:rdf="http://www.w3.org/1999/02/22-rdf-syntax-ns#" xmlns:sodipodi="http://sodipodi.sourceforge.net/DTD/sodipodi-0.dtd" xmlns:svg="http://www.w3.org/2000/svg"
	 xmlns="http://www.w3.org/2000/svg" xmlns:xlink="http://www.w3.org/1999/xlink" x="0px" y="0px" viewBox="0 0 400 400"
	 style="enable-background:new 0 0 400 400;" xml:space="preserve">
<path d="M327.7,116.5c-6.5-0.5-13.1-1.5-19.6-2.3c-1.4-0.2-2.1-0.6-2.5-2.1c-2.4-8.1-5.5-15.9-9.7-23.2c-0.6-0.9-0.6-1.6,0.2-2.5
	c4.6-5.8,9.2-11.7,13.8-17.6c2.8-3.6,2.7-8-0.5-11.3c-8.3-8.3-16.6-16.6-24.9-25c-2.7-2.7-7.5-2.7-10.6-0.2
	C267.9,37,262,41.7,256,46.3c-0.6,0.5-1.8,0.6-2.4,0.3c-7.4-4-15.1-7.3-23.2-9.6c-1.4-0.5-1.9-1.2-2.1-2.6
	c-0.8-6.5-1.7-13.1-2.3-19.6c-0.4-4.5-2.1-7.8-6.2-9.8c-13.2,0-26.4,0-39.5,0c-4,1.9-5.8,5.1-6.1,9.5c-0.6,6.6-1.6,13.2-2.3,19.8
	c-0.1,1.4-0.6,2.1-2.1,2.5c-8.1,2.4-15.8,5.5-23.2,9.6c-0.6,0.3-1.8,0.2-2.4-0.2c-5.8-4.4-11.7-9-17.5-13.6c-3.8-3-8.1-2.9-11.6,0.6
	c-8.3,8.2-16.6,16.5-24.9,24.8c-2.7,2.7-2.7,7.4-0.2,10.6c4.6,5.9,9.3,11.8,13.9,17.8c0.5,0.6,0.6,1.8,0.2,2.4
	c-4,7.5-7.2,15.2-9.5,23.3c-0.4,1.4-1.1,1.9-2.5,2.1c-7.1,0.8-14.2,1.8-21.3,2.5c-4,0.4-6.2,2.8-8,6c0,13.2,0,26.4,0,39.5
	c1.9,4.1,5.2,5.8,9.7,6.2c6.5,0.6,13.1,1.6,19.6,2.3c1.5,0.1,2.3,0.8,2.7,2.3c2.3,8,5.5,15.7,9.5,23.1c0.3,0.6,0.2,1.8-0.2,2.4
	c-4.4,5.8-9,11.7-13.6,17.5c-3,3.8-2.8,8.1,0.6,11.6c8.1,8.1,16.1,16.3,24.3,24.4c3.2,3.2,7.7,3.4,11.3,0.5
	c5.8-4.6,11.7-9.2,17.6-13.8c0.9-0.7,1.5-0.8,2.5-0.2c7.3,4.2,15.1,7.3,23.2,9.7c1.4,0.4,1.9,1.2,2.1,2.5c0.8,6.5,1.7,13.1,2.3,19.6
	c0.4,4.5,2.1,7.8,6.2,9.8c13.2,0,26.4,0,39.5,0c4-1.9,5.8-5.1,6.2-9.5c0.5-6.5,1.5-12.9,2.2-19.4c0.2-1.7,0.7-2.7,2.5-3.2
	c8-2.3,15.5-5.4,22.8-9.4c0.6-0.3,1.8-0.2,2.4,0.2c5.6,4.2,11.1,8.6,16.6,12.9c5.2,4,9,3.8,13.6-0.9c7.7-7.8,15.4-15.6,23.1-23.3
	c3.2-3.2,3.4-7.7,0.6-11.3c-4.6-5.8-9.2-11.7-13.8-17.6c-0.4-0.6-0.6-1.8-0.2-2.4c4-7.4,7.2-15.1,9.6-23.2c0.4-1.4,1.2-1.9,2.5-2.1
	c6.6-0.8,13.2-1.7,19.8-2.3c4.4-0.3,7.6-2.1,9.5-6.2c0-13.2,0-26.4,0-39.5C335.5,118.5,332.1,116.9,327.7,116.5z M268.7,142.6
	c0,3.8-0.3,7.4-0.9,10.9c-0.9,6-6.1,10.4-12.2,10.4c-19.1-0.1-39.1-20.9-42.3-48.7c-0.5-4.3,1.4-8.6,4.9-11.2
	c5.7-4.2,11.7-7.8,18-10.9c4.9-2.4,10.7-1.3,14.4,2.7C262,108.1,268.8,124.5,268.7,142.6z M174.4,92.7c8.1,21.1-8.1,62.8-24.8,74.8
	c-5.5,4-13.3,1.3-15.3-5.2c-1.9-6.3-2.9-13-2.9-19.9c0.1-22.1,10.4-41.7,26.5-54.3C163.6,83.8,171.8,86.1,174.4,92.7z M164.4,190.8
	c0-12.8,5.7-29,15.4-44.8c3.4-5.4,9.5-8.6,15.8-8c24.6,2.3,36.8,36.2,31.3,59.3c-1.5,6.3-6.5,11.1-12.9,12.4
	c-4.5,0.9-9.2,1.4-14,1.4c-8.8,0-17.3-1.7-25-4.7C168.6,203.9,164.4,197.7,164.4,190.8z"/>
</svg>
