<?xml version="1.0" encoding="utf-8"?>
<!-- Generator: Adobe Illustrator 23.0.6, SVG Export Plug-In . SVG Version: 6.00 Build 0)  -->
<svg version="1.1" id="Layer_1" xmlns="http://www.w3.org/2000/svg" xmlns:xlink="http://www.w3.org/1999/xlink" x="0px" y="0px"
	 viewBox="0 0 400 400" enable-background="new 0 0 400 400" xml:space="preserve">
<path d="M210.3,10.9c50.1,2.8,94.4,29.1,116.9,83.7c19.4,47,11.4,92.1-22.2,131.4c-13.2,15.4-28.8,28.1-47.8,36.2
	c-7.6,3.2-12.5,14.5-10.5,23.6c0.9,4.1,2.6,8,3.8,12c0.8,2.8,1.8,5.6,2,8.5c0.6,7.9-3.7,13.9-10.9,15.8c-7.4,1.9-14.8-1.1-17.8-8.2
	c-1.9-4.4-2.6-9.4-3.4-14.2c-1.1-7.4-2.6-14.6-7.4-20.7c-2.8-3.6-6-5.1-10.7-5.1c-40.4,0.4-75.1-13.5-103.4-42.3
	c-48.6-49.3-48.6-130.6,0.8-179.1C126.9,25.6,160,10.5,210.3,10.9z M201.1,108.3c0.6,10.9-0.3,21.6-6.5,31
	c-5.8,8.9-13.8,13.7-24.7,12.8c-12-1-19.7-11-16.6-22.6c1.5-5.4,4.6-10.4,7.2-15.5c3.5-7,8.1-13.5,10.7-20.8
	c6.1-17-3-33.7-20.3-39.1c-3.9-1.2-7.2-0.8-10.8,1.4c-9.6,5.8-17.5,13.5-24.5,22.1c-25.8,32.1-31.8,67.4-15.1,105.3
	c18,40.8,62.5,66,108,61.8c35.6-3.3,65.4-18.4,84.9-48.9c29.6-46.2,17.8-109.3-35.9-141.9c-4-2.5-6.9-1.4-8.3,3.2
	c-0.6,1.9-0.8,4.2-0.4,6.1c1.1,5,2.9,9.9,3.9,15c1.8,8.8,0.5,17.1-6.6,23.4c-6.3,5.5-13.8,3.9-17.2-3.8c-1.3-2.9-1.8-6.1-2.5-9.3
	c-1.2-5.3-1.6-10.9-3.4-16c-3.2-9.3-11.3-10.5-17.7-2.9c-4.2,5-5.5,11-5.4,17.3C200,94.1,200.7,101.2,201.1,108.3z"/>
</svg>
