<?xml version="1.0" encoding="utf-8"?>
<!-- Generator: Adobe Illustrator 23.0.6, SVG Export Plug-In . SVG Version: 6.00 Build 0)  -->
<svg version="1.1"
	 id="svg6" xmlns:cc="http://creativecommons.org/ns#" xmlns:dc="http://purl.org/dc/elements/1.1/" xmlns:inkscape="http://www.inkscape.org/namespaces/inkscape" xmlns:rdf="http://www.w3.org/1999/02/22-rdf-syntax-ns#" xmlns:sodipodi="http://sodipodi.sourceforge.net/DTD/sodipodi-0.dtd" xmlns:svg="http://www.w3.org/2000/svg"
	 xmlns="http://www.w3.org/2000/svg" xmlns:xlink="http://www.w3.org/1999/xlink" x="0px" y="0px" viewBox="0 0 400 400"
	 style="enable-background:new 0 0 400 400;" xml:space="preserve">
<path d="M197.6,138c6.4-1.1,11.4-6.4,12.1-12.9c0.9-8.7-5.5-16.2-14-16.5l-1.6-0.1c-0.5,0-0.8,0.6-0.3,0.9l1.3,0.9
	c1.8,1.4,2.9,3.6,3.1,6.1c0.2,3.6-1.8,6.8-5,8.2c-4.2,1.8-8.7-0.1-10.8-3.7l-1-1.8c-0.2-0.3-0.7-0.2-0.7,0.1l-0.3,2.1l0,0
	c-0.3,2.6,0,5.3,1.1,7.6C183.9,135.1,190.4,139.3,197.6,138z"/>
<path d="M138,91.9c10,0,18.7,6.1,22.4,14.6c0.4,1,1.8,1,2.2,0c1.5-3.1,3.4-5.8,5.8-8.2c0.5-0.5,0.2-1.4-0.5-1.5
	c-28.3-2.6-43.4-23.7-48-31.3c-0.4-0.7-1.6-0.4-1.6,0.4l-0.7,34.1c0,0.9,1.1,1.4,1.7,0.6C123.7,95.4,130.3,91.9,138,91.9z"/>
<path d="M139.1,121.4c-2.4,0-4.9-1.3-6-3.5l-1.4-2.7c-0.1-0.3-0.5-0.2-0.5,0.1l-0.5,3.1l0,0.2c-0.2,1.8-0.1,3.7,0.4,5.5
	c1.6,5.3,6.4,9,12.3,9.1c6,0.1,11.3-4,12.8-9.8c2.1-8.2-4.1-15.7-12-16.3l-3.1-0.2c-0.2,0-0.3,0.3-0.1,0.4l2.5,2
	c1.5,1.3,2.6,3.3,2.6,5.3C146,118.4,142.9,121.4,139.1,121.4z"/>
<path d="M337.1,243.2l-0.2-0.8c-0.9-3.1-1.8-6.2-2.6-9.1c-5.5-19.9-9.7-35.3-27.2-33.8c-2.1,0.2-3.9,0.8-5.5,1.6
	c-0.8,0.5-1.8,0.4-2.6-0.1l-3.7-2.3c-2.9-1.8-5.5-4-7.7-6.5c-12.7-14.1-11.9-29.9-7.7-52.1c0.3-1.3,0.6-2.7,0.9-4
	c5.7-23.1,7-52.5,2.8-90.8c-0.7-6-4-6.8-6.2-0.4c-1.7,5.4-13,39.1-70.3,49.5c-1.2,0.2-1.6,1.8-0.7,2.6c7,5.7,11.2,14.6,10.4,24.6
	c-1.1,13-11.1,23.7-24,25.8c-14.7,2.3-28-6.8-31.9-19.9c-0.2-0.6-1-0.7-1.3-0.1c-4.1,7.9-12.2,13.3-21.7,13.3
	c-9.2,0-17.1-5.1-21.3-12.5c-0.4-0.8-0.7-2.1-1.2-2.1c-0.5,0-0.3,0.7-0.5,0.8c-0.2,0-0.6-0.9-1-1.5c0-0.1-0.1-0.1-0.1-0.2
	c-11.9-16.3-30.9-22.8-42.5-14.5c-9.3,6.8-11,20.8-5.5,34.4c13.2,28.2-5.5,56.1,8.9,56.9c10.6-0.1-3.7-44.6,4.6-38
	c8.1,7.2,17.6,10.7,25.9,9.7c1.9-0.2,3.8,0.2,5.4,1.3c1.7,1.2,3.5,2.4,5.4,3.6c1.3,0.8,3.3,2.3,4.5,3.4
	c29.6,27.5-5.5,61.3,12.5,65.4c1.4,0.3,3,0.4,4.4,0c13.6-4,0.9-38.5,4.7-49.8c0.8-2.5,3.7-3.7,6.1-2.8c30.5,11.6,66.2,15.6,93.6-0.3
	c1.5-0.9,3.4-0.9,5-0.1c7.2,3.9,15.1,7.6,22.6,10.4c0.6,0.2,1.1,0.7,1.3,1.3l0.2,0.7c0.2,0.6,0.9,1,1.5,0.9l1.6-0.3
	c0.8-0.2,1.6-0.1,2.4,0.2l16.6,6c1,0.4,1.7,1.2,1.8,2.3c0.8,5.7,4.5,11.6,11.8,14.4c1.9,0.7,3.7,1.5,5.5,2.2
	c5.3,2.2,9.9,5.9,12.9,10.7c11.2,18.3-9.1,37.2,4.6,39.2c15.3-0.9-2.7-33.9,6.9-37.7C336.9,244.7,337.2,243.9,337.1,243.2z
	 M80.4,140.2c-6,0-10.6-5.7-10.6-12.8c0-7.1,4.9-12.8,10.6-12.8c6,0,10.6,5.7,10.6,12.8C91,134.5,86.1,140.2,80.4,140.2z
	 M215.2,175.1c-13.8,6-35.9,3.4-63.5-6.3c-0.1,0-0.1-0.2,0-0.1c31.6,6.2,51.1,2.8,63.7-3.7c0.1,0,0.1,0,0,0.1
	c-0.7,0.6-1.3,1.3-1.6,2.3c-0.8,2.3-0.3,4.9,1.6,7C215.5,174.6,215.4,175,215.2,175.1z M237,168.3c0,0.4-0.4,0.7-0.8,0.6
	c-6.7-2.3-11.6-3.7-12.7-4.2c-2.2-1-4.2-1.1-6-0.7c-0.1,0-0.2-0.1-0.1-0.2c2.1-1.2,4.1-2.5,5.8-3.9c0.2-0.2,0.3-0.6,0.1-0.8
	c-2.5-3.2-6.2-6.4-7.6-7.6c-0.1-0.1,0-0.3,0.2-0.3c3.1,0.9,14.1,4.6,18.4,10.1C236.2,164,237,166.2,237,168.3z M268,182.8
	c-2.5-0.8-4.2-1.6-5.9-2.6c-0.9-0.5-1.1-1.8-0.5-2.6c1.1-1.4,2.2-2.9,3.3-4.5c0.5-0.7,1.3-1.1,2.1-0.9
	C272.7,173.1,273.3,184.5,268,182.8z"/>
</svg>
