<?xml version="1.0" encoding="utf-8"?>
<!-- Generator: Adobe Illustrator 23.0.6, SVG Export Plug-In . SVG Version: 6.00 Build 0)  -->
<svg version="1.1" id="Layer_1" xmlns="http://www.w3.org/2000/svg" xmlns:xlink="http://www.w3.org/1999/xlink" x="0px" y="0px"
	 viewBox="0 0 400 400" style="enable-background:new 0 0 400 400;" xml:space="preserve">
<path d="M226.9,208.4c-0.2-1.9,11.9-3.5,18-5.4c15.2-4.7,28.4-12.4,35.5-27.5c3.7-7.8,6.1-16,6.6-24.6c0.3-4.8,0.8-9.6,0.7-14.3
	c-0.2-12.5-4.6-23.6-12.6-33.2c-0.6-0.7-1-2.2-0.6-3c2.3-6.2,2.6-12.6,1.9-19c-0.5-4.9-2.1-9.6-3.6-14.3c-0.8-2.6-3.5-2.6-5.6-2.1
	c-4.7,1.2-9.5,2.3-13.9,4.3c-6.1,2.8-10.2,5.5-16.2,8.7c-0.8,0.4-3.6,1.4-4.5,1.3c-5.8-1-11.7-2-17.4-3.4c-3.8-0.9-6.9-0.4-9.6,2.4
	c-2.3,2.4-3.2,5-2.2,8.2c0.7,2.2,1.6,4.2,2.3,6.4c1.4,4.5-0.1,8.4-3.6,10c-3.5,1.6-7.5,0-9.9-3.9c-1.2-2-2.9-6.5-3.7-6.3
	c-0.8,0.2-0.2,4.3,0.2,6.4c0.6,3.2,1.5,6.3,2.3,9.5c0.8,3.3,0.5,6.5-1.3,9.5c-2.2,3.7-6.5,5.7-10.4,4.7c-4-1-6.4-4.3-6.4-9
	c0-2.8,0.4-5.6,0.8-8.4c1.3-9.7-1.2-18.5-8.2-25.2c-4-3.8-9.2-6.4-14.1-8.9c-4.6-2.3-9.5-3.8-14.4-5.5c-1.8-0.6-3.7-0.8-5.6-1
	c-2.9-0.3-4.7,1.6-5.7,5.6c-1.6,6-2.9,12.1-2.2,18.4c0.5,3.8,1.5,7.6,2.1,11.4c0.2,1.1-0.1,2.5-0.7,3.3
	c-6.4,7.8-10.6,16.4-11.9,26.5c-1.8,14.5-0.1,28.4,5.2,42c4.8,12.2,13.4,20.7,25.1,26.5c7.4,3.7,15.3,5.7,23.3,7.3
	c2.4,0.5,7.8,0.5,7.5,1.4c-0.4,0.9-1.2,2.6-1.6,3c-3.3,4-5,6.6-5.6,11.8c-0.2,1.8-1,3.5-3.1,4c-4,0.8-8.1,1.7-12.1,2.5
	c-1.1,0.2-3.7,0.6-3.6,1.2c0.3,2.9,0.8,4.7,1.8,7.2c1.2,3.1,3,5.8,5.6,8.2c0.5,0.5,1.5,0.6,2.3,0.5c2.4-0.2,7.1-1,7.4-0.8
	c0.3,0.2,0.3,0.5,0.3,0.8c0,8.3-0.2,16.7,0.2,25c0.2,4.3-5,7.2-8.4,5.9c-5.5-2.1-11-4-16.4-6.4c-10.2-4.6-19.5-10.6-28.1-17.7
	c-7.6-6.3-14.5-13.4-20.6-21.2c-6.9-8.8-12.7-18.1-17.4-28.3c-4.1-9-7.2-18.4-9.2-28.1c-2.2-10.2-3.3-20.5-3.1-30.9
	c0.2-10,1.4-19.9,3.7-29.7c3.3-14.1,8.9-27.2,16.3-39.6c7.3-12.3,16.5-22.9,27.1-32.3c11.4-10,24.2-18,38.3-23.7
	c9.6-3.9,19.6-6.6,29.8-8.3c12.6-2.1,25.2-2.4,37.8-1.1c10.6,1.1,20.9,3.5,31,7.1c10.9,4,21.2,9.2,30.7,15.8
	c10.4,7.1,19.5,15.5,27.7,25c7.4,8.6,13.5,17.9,18.5,28c4.9,10,8.7,20.5,10.9,31.6c1.9,9.7,3.4,19.4,3.2,29.2
	c-0.2,9.6-0.9,19.2-3.1,28.7c-1.9,8.3-4.1,16.4-7.4,24.2c-4.7,11-10.4,21.4-18,30.7c-4.2,5.1-8.3,10.3-13,14.9
	c-9.8,9.7-19.1,16.7-31.4,23.1c-1.2,0.6-4.2,2.9-4.8,4.2c-2.7,5.7-2.6,11.5,0,17.4c1.6,3.5,2.6,7.1,3.9,10.7c0,0.1,0.1,0.2,0.1,0.2
	c1.9,8.7-2.2,16.7-9.2,18.1c-8.4,1.7-16.9-3.5-18.5-12c-0.7-3.6-0.3-7.6,0.3-11.3c0.9-5.8,2-9.2,1.7-12.8s-0.8-4.7-1.4-5.8
	c-0.6-1.1-1.2-2-1.5-2.8c-1.1-2.7-0.7-5.8-0.7-8.7c0-10.6,0.1-21.2,0-31.9c-0.1-4.8-0.5-9.5-1.9-13.9c-1.2-4-2-5-3.1-6.4
	C228.4,211.1,227.2,210.2,226.9,208.4z M104.9,199.9c-1.1,0-2.2-0.1-3.3,0c-2.7,0.2-3.5,1.7-1.8,3.8c1.4,1.8,3.3,3.3,5.1,4.8
	c1.8,1.6,4.1,2.8,5.6,4.6c3.8,4.5,6.5,9.7,8.9,15.1c1.5,3.5,4.5,8.1,5.5,8.9c1.1,0.8,3.2,1.9,4.4,1.9c3.3-0.1,6-1.6,7.2-4.9
	c1.3-3.6,0.6-7-1.7-10c-3.6-4.7-7.2-9.5-11-14C118.8,204.3,112.9,200.1,104.9,199.9z"/>
</svg>
