<?xml version="1.0" encoding="utf-8"?>
<!-- Generator: Adobe Illustrator 23.0.6, SVG Export Plug-In . SVG Version: 6.00 Build 0)  -->
<svg version="1.1"
	 id="svg6" xmlns:cc="http://creativecommons.org/ns#" xmlns:dc="http://purl.org/dc/elements/1.1/" xmlns:inkscape="http://www.inkscape.org/namespaces/inkscape" xmlns:rdf="http://www.w3.org/1999/02/22-rdf-syntax-ns#" xmlns:sodipodi="http://sodipodi.sourceforge.net/DTD/sodipodi-0.dtd" xmlns:svg="http://www.w3.org/2000/svg"
	 xmlns="http://www.w3.org/2000/svg" xmlns:xlink="http://www.w3.org/1999/xlink" x="0px" y="0px" viewBox="0 0 400 400"
	 style="enable-background:new 0 0 400 400;" xml:space="preserve">
<path d="M215.4,37.7c-4.2,0-7.5,3.8-7.5,8.4s3.3,8.4,7.5,8.4c4.2,0,7.5-3.8,7.5-8.4S219.6,37.7,215.4,37.7z M219,50
	c-0.9,0-1.8-0.9-1.8-2.2c0-1.1,0.9-2.2,1.8-2.2c0.9,0,1.8,0.9,1.8,2.2C220.7,49.1,219.9,50,219,50z"/>
<path d="M150.5,39.7c-4.2,0-7.7,3.8-7.7,8.4s3.5,8.4,7.7,8.4c4.2,0,7.7-3.8,7.7-8.4S154.9,39.7,150.5,39.7z M154.1,52.2
	c-1.1,0-1.8-0.9-1.8-2.2c0-1.1,0.9-2.2,1.8-2.2c1.1,0,1.8,0.9,1.8,2.2C155.8,51.1,155.2,52.2,154.1,52.2z"/>
<path d="M300.1,147.7c-1.8-2.3-3-3.4-8.2-5.3c-2.2-0.8-4.2-1.3-5.8-1.7c-1.3-0.3-2.3-1.4-2.3-2.8c-1-27,1-54.4-5.2-80.5
	c-0.5-2,0.5-4,2.3-4.9c22.6-11.4,3.4-44.7-19.3-32c-1.5,0.9-3.4,0.7-4.8-0.4c-15.4-11.9-35.6-15-57-15.3c-2.1,0-4.2,0-6.2,0.2
	c-21.1,1.7-40.8,6.3-55.4,16.9c-1.2,0.9-2.8,1-4.1,0.4c-5.4-2.2-10.7-2.7-15.2-1.4c-5.1,1.5-11.6,6.9-13.2,12.6
	c-1.5,5.6-0.3,15.1,4.1,18.6c3.5,2.8,4.2,3.4,6.6,4.1c1.2,0.4,1.8,1.6,1.5,2.8c-7.8,26.1-1.2,52.4-0.4,79.3c0,1.5-1.1,2.9-2.6,3.1
	c-1.8,0.3-4.4,0.9-7.1,1.9c-5.2,1.9-6.1,3-7.9,5.3c-1.6,2.1-2,4.2,0.1,5.6c0.3,0.2,0.5,0.6,0.6,0.9c0.2,2.1,1,3.3,2.2,3.9l0,0
	c0,0,0.1,0,0.1,0c0.4,0.2,0.8,0.3,1.3,0.4c6.4,1.8,12.5,3.8,12.3,12c-2,25.4-4.2,54,8.6,74.7c2.6,4.2,6,8.1,9.6,11.2
	c0.2,0.1,0.1,0.4,0,0.5c-1.2,0.8-5.2,3.3-8,5.7c-3.4,2.8-4.8,5.1-5.3,7.3c-0.5,2.2,0.1,4.7,1.3,6c0.8,0.8,0.7,0.9,1.1,1
	c0.8,0.3,1.5,0.8,2,1.5c0.2,0.2,0.3,0.4,0.6,0.6c0.5,0.5,1,1,1.5,1.6c17.1,25-4.2,70,15.5,70.9c18.7-0.6-19.4-61.3,23-77.4
	c2.2-0.8,4.5-1,6.8-0.6c6.5,1.2,13,1.9,19.2,2.1c16.1,0.6,34.2-1.2,49.8-7.4c1.3-0.5,2.8-0.5,4.2,0.1c32.4,14.9-0.9,48.6,19.8,51.4
	c17.3,0.3-2.6-26.2,7.2-43.9c0.3-0.6,0.8-1.2,1.3-1.7c1.3-1.6,1.6-2.3,1.7-3.5c0.1-1.2,0-3.6-0.6-5.5c-0.6-1.8-1.9-3.3-4.2-6.5
	c-1.3-1.8-3.2-3.6-4.5-4.9c-0.9-0.8-0.9-2.2-0.1-3.1c3.8-3.9,7.1-8.4,9.6-13.6c10.5-21,11.1-45.8,10-69.7
	c0.2-10.3,1.6-11.2,10.5-12.9l0,0c1.8-0.3,3.1-1.6,3.4-4.6c0-0.1,0-0.2,0.1-0.2c0.1-0.1,0.2,0,0.3,0c0.2,0.1,0.4,0.1,0.6,0.1
	C302.2,151,301.5,149.6,300.1,147.7z M137.9,52.9c-7.1-35.3,49.5-42,51.4-7.5C191.2,74.1,145.2,81.4,137.9,52.9z M217.6,86
	c-2.3,2.5-4.8,2.7-7.2,2.1c-0.9-0.2-1.8,0.5-1.7,1.4c0.2,3.3,0.6,6.6,0.3,10c-0.1,0.5-0.5,1-1,1.1c-8.9,1.4,10.4,39.9-4,39.3
	c-12.5,0.3-4.6-21.4-3.9-33.3c0.2-3-0.4-5.5-1.6-6.8c-0.4-0.5-1.1-0.4-1.5,0c-7.7,9.4-12.6-1.8-11.2-10.2c0.1-0.8-0.4-1.6-1.3-1.7
	c-1.9-0.2-3.6-1.1-5-3.3c-2.8-5.1,0.7-11.3,5.7-13.4c0.9-0.4,1.9,0,2.4,0.8c3.2,4.7,16.4,4.1,20.8-0.5c0.7-0.7,1.7-0.9,2.5-0.5
	C217.2,74.6,223.1,80.3,217.6,86z M202.2,47.4c-2-30.5,44.8-38.6,51.7-8.8C261.6,71.7,207.9,80.3,202.2,47.4z"/>
</svg>
