<?xml version="1.0" encoding="utf-8"?>
<!-- Generator: Adobe Illustrator 23.0.6, SVG Export Plug-In . SVG Version: 6.00 Build 0)  -->
<svg version="1.1" id="Layer_1" xmlns="http://www.w3.org/2000/svg" xmlns:xlink="http://www.w3.org/1999/xlink" x="0px" y="0px"
	 viewBox="0 0 400 400" style="enable-background:new 0 0 400 400;" xml:space="preserve">
<path d="M147.1,259.7c1.2,4.9,0.8,9.4-3.3,12.6c-4.3,3.4-9.1,2.8-13.6,0.6c-7.4-3.5-12-11.9-10.7-20.5c0.8-4.9,2.4-9.6,4-14.3
	c4.6-13.4,1.7-26.1-6.6-36.4c-15.4-19-25.1-40-28-64.2c-3-24.7,0.3-48.5,11.6-70.7c16.5-32.5,42.9-52.3,78.8-59.4
	c18-3.5,36-2.7,54-0.1c18.6,2.7,34.8,10.5,49.1,22.6c3.6,3,4,5.4,0.5,8.8c-6.4,6.1-7.5,14-6.3,22.3c0.2,1.4,1.6,2.9,2.8,3.9
	c7.9,6.9,8.5,15.3,1.6,23.3c-2.8,3.2-1.7,16.9,1.5,19.4c0.6,0.5,1.6,0.7,2.4,0.6c5.3-0.5,6.4,1.9,6.4,7
	c-0.2,43.6-0.1,87.2-0.1,130.9c0,0.5,0,1.1,0,1.6c0,2.4,1.9,4.4,4.3,4.4c4.4,0.1,8.6,0.1,12.7-0.1c2.4-0.2,4.1,1.7,4,4.2
	c0,6.5,0.1,12.9,0,19.4c-0.1,4.3-0.9,4.4-7.6,4.4c-19.4,0-38.4,0.1-58.4,0.1c-6.8,0-6.8-1.5-6.6-4.8c0.9-11.9-1-23.2-7-33.7
	c-2-3.4-3.8-4.6-8-4.2c-15.3,1.4-30.7,2.1-45.9-1.9c-3.3-0.9-5.9-0.1-6.8,3.5c-0.9,4-1.6,8.1-2.2,12.1c-0.6,4.7-1.9,8.9-7.2,10.1
	c-5.3,1.2-8.9-1.5-11.7-5.7c-2.6-3.9-5.6-9.6-6.5-9.2C143.6,246.6,145.8,254.3,147.1,259.7z M160.5,44c-1.6-0.2-6.9,4.3-9.3,6.3
	c-18.4,15.6-28.5,35.5-31.3,59.6c-2.4,21.3,1.2,41.1,12.3,59.4c12.6,20.7,30.6,34,54.5,39.2c10.7,2.3,21.2,2.6,32,1.7
	c13.7-1.1,27-3.7,39.4-9.8c1.4-0.7,2.9-3,2.9-4.6c0.2-18.5,0.2-37.1,0-55.6c0-1.4-0.7-4-2.6-4.1c-2-0.1-2.9,2.3-3,3.5
	c-0.3,5.6,0,11.2-0.3,16.9c-0.2,3.9-0.2,8.1-1.6,11.5c-2.6,6.7-12.1,7.4-15.4,1c-1.6-3.2-1.9-7.3-2-11.1c-0.1-5.5,0.9-10.9,0.7-16.4
	c-0.3-9.5-1.1-19.1-1.8-28.6c-0.2-3.4,1.2-4.7,4.5-4.6c4.6,0.1,9.3-0.2,13.9,0.1c5.3,0.4,8.8-2.2,10.6-6.6c1.9-4.5,1-8.7-3.1-12.4
	c-7.4-6.7-7.7-13.9-1.8-22.3c0.5-0.8,1.2-1.8,1.1-2.7c-1.1-7.5-2.4-14.8-9.5-19.6c-8.4-5.6-17.8-8.2-27.4-10.6
	c-5.5-1.4-8.9,1.1-10.5,5.7c-1.3,3.7-1.8,8-1.5,12c0.3,4,2.2,7.9,2.8,12c0.6,4.5,1.2,9.3,0.6,13.7c-1,7.1-6.8,11.4-13.4,11
	c-6.4-0.4-11.9-5.5-12.3-12.4c-0.2-4,0.8-8.1,1.3-12.2c0.5-3.2,1.5-6.4,1.6-9.6c0.1-2.7-0.5-7.1-1.8-7.5c-1.2-0.4-3.5,4.9-5,7.8
	c-1.6,3-2.6,6.5-4.7,9.1c-1.5,1.8-4.1,3.6-6.3,3.3c-2.1-0.3-3.4-2.3-4.7-4.5c-1.2-2.2-2.4-5.9-3.4-8.2
	C164.7,51.1,162.1,44.2,160.5,44z M261.4,231.9c-0.6-1.4-12.3,0.8-12.2,3.6c0.3,5,1.2,10,2.9,14.6c0.5,1.4,5.8,2.3,7.1,1.7
	c1.3-0.5,2-3.2,2.1-5C261.6,242,262,233.3,261.4,231.9z"/>
</svg>
