<?xml version="1.0" encoding="utf-8"?>
<!-- Generator: Adobe Illustrator 23.0.6, SVG Export Plug-In . SVG Version: 6.00 Build 0)  -->
<svg version="1.1" id="Layer_1" xmlns="http://www.w3.org/2000/svg" xmlns:xlink="http://www.w3.org/1999/xlink" x="0px" y="0px"
	 viewBox="0 0 400 400" style="enable-background:new 0 0 400 400;" xml:space="preserve">
<g>
	<path d="M74.6,132.4c-1.6-15.4-4-31-6.6-46.5c-1.5-9.2-0.9-18.8-0.3-28.2c0.4-7,1.2-14.3,3.9-20.8c4.5-11.1,10.4-18.1,22.2-23.6
		s20.6-8.2,29.6-8.3c23.7-0.4,44.4,7.3,59.5,25.4c4.3,5.1,8,10.7,12.9,15.3c1.4,1.4,7,1.2,8.5-0.2c10.1-9.5,18.2-21.5,29.8-28.8
		c10.4-6.6,24.3-10.6,36.9-11.5c29.5-2.1,54.4,12.4,59.4,41c3.8,21.8,4.3,43.1-6.9,63.7c-7.2,13.2-13.5,26.9-19,40.8
		c-4.7,11.8-0.3,23.7,2.8,35.4c2.6,10,4.2,20.2-4.1,28.9c-4.7,4.9-11.6,7.6-17.3,4.1c-4.7-2.9-9.1-8.8-10.1-13.9
		c-1.5-7.7,0.2-15.9,0.4-23.8c0-1.4-0.1-4-1.5-4.3c-1.4-0.4-2.3,1.4-3,2.4c-6.7,8.9-13.8,17.6-19.9,26.8
		c-14,21.1-27.3,42.5-41.3,63.6c-6,9.1-7.3,18.5-5.6,28.7c0.6,3.7,1,7.8,0,11.4c-0.8,2.8-2.4,7-5.7,7c-3.3,0-6.8-1.2-8.9-5.5
		c-2.1-4.3-4.6-18.2-5.4-27.5c-1.6-17.6-7.3-34-16.8-49c-10.2-16-21.1-31.5-32.6-46.7c-9-11.9-28.4-33.6-29.1-34.3
		c-0.7-0.7-1-1-1.7-0.8s-1.6,0.6-1.2,2.6c0.4,2,4,18.6,6.6,27.8c2.1,7.3,4.4,14.7-2.2,20.7c-7.1,6.4-19.3,2.6-23.7-7.6
		c-2.7-6.2-3.9-10-5.3-19.5C77.3,167.7,76.2,147.8,74.6,132.4z"/>
</g>
</svg>
