<?xml version="1.0" encoding="utf-8"?>
<!-- Generator: Adobe Illustrator 23.0.6, SVG Export Plug-In . SVG Version: 6.00 Build 0)  -->
<svg version="1.1"
	 id="svg4" xmlns:cc="http://creativecommons.org/ns#" xmlns:dc="http://purl.org/dc/elements/1.1/" xmlns:inkscape="http://www.inkscape.org/namespaces/inkscape" xmlns:rdf="http://www.w3.org/1999/02/22-rdf-syntax-ns#" xmlns:sodipodi="http://sodipodi.sourceforge.net/DTD/sodipodi-0.dtd" xmlns:svg="http://www.w3.org/2000/svg"
	 xmlns="http://www.w3.org/2000/svg" xmlns:xlink="http://www.w3.org/1999/xlink" x="0px" y="0px" viewBox="0 0 400 400"
	 style="enable-background:new 0 0 400 400;" xml:space="preserve">
<path d="M310.9,5H89.1c-5.8,0-10.3,4.9-9.8,10.7l19.8,221.6c0.8,9.1,3.8,17.9,8.6,25.8c32,53.1-9.9,123.1,24.1,124.5
	c28.8-0.8-19.1-106.7,23.5-116.4c4-0.9,8.3-0.7,12.3,0.4l29.7,8.2c1.7,0.5,3.5,0.5,5.2,0l90.5-24.9c3.9-1.1,6.8-4.5,7.2-8.6
	l20.6-230.7C321.2,9.9,316.7,5,310.9,5z M137.3,207.7l-3.5-39c-0.2-2.4,1.6-4.4,4-4.4h22.3c2.1,0,3.7,1.7,3.6,3.8
	c-1,18.3-0.1,29.8-22.8,41.5C139.3,210.5,137.4,209.4,137.3,207.7z M270.2,124.7l-0.1,0.9l-7.2,79.9c-0.3,3-2.5,5.6-5.4,6.4
	l-54.8,15.1c-1.8,0.5-3.7,0.5-5.5,0l-12.2-3.2c-2.2-0.6-4.4-1.4-6.3-2.7c-19-12,23.8-24,51.1-32.1c2.6-0.8,4.4-3,4.6-5.7l2.7-30.1
	c0.2-2.4-1.6-4.4-4-4.4h-94.8c-3.6,0-6.6-2.8-6.9-6.3l-6.9-78l-0.2-2.1c-0.3-3.5,2.5-6.5,6-6.5l61.6,0c3.9,0,7.8,0.4,11.6,1.2
	c23.7,5.2-11.8,18.4-39.7,27.6c-3.9,1.3-6.4,5.1-6.1,9.2c0.5,5.4,1.2,12.9,1.6,18c0.3,3.4,3.1,5.9,6.5,5.9l98.2,0
	C267.6,117.9,270.5,121,270.2,124.7z M275.7,62.1l-0.1,1.6l-1.4,15.9l-0.1,1.2c-0.3,3.4-3.2,6.1-6.6,6.1h-25.8
	c-3.1,0-6.2-0.1-9.4-0.5c-37.6-4.1,9.9-23.6,37.7-29.4C273.2,56.4,276,58.9,275.7,62.1z"/>
</svg>
