<?xml version="1.0" encoding="utf-8"?>
<!-- Generator: Adobe Illustrator 23.0.6, SVG Export Plug-In . SVG Version: 6.00 Build 0)  -->
<svg version="1.1" id="Layer_1" xmlns="http://www.w3.org/2000/svg" xmlns:xlink="http://www.w3.org/1999/xlink" x="0px" y="0px"
	 viewBox="0 0 400 400" style="enable-background:new 0 0 400 400;" xml:space="preserve">
<path d="M317.6,149.5c0,41.5,0,83.1,0.1,124.6c0,3.2-0.2,5.5-4,6.5c-4,1.1-5.3,4.4-4.2,8.4c0.7,2.7,1.7,5.3,2.5,8
	c1.1,4.1,1.4,8.4-1.9,11.4c-2,1.8-5.5,3.4-8,3c-2.2-0.4-4.4-2.3-5.4-4.8c-1-2.5-1.5-5.9-0.9-8.1c0.6-2.2,0.9-3.7,0.5-6.2
	c-0.4-2.6-2.1-4.2-3.5-4.5c-1.5-0.3-3.8,0.6-5.4,2.7s-0.9,7.4-0.4,11c0.6,4.1,3.1,7.9,3.7,12c0.6,4,0.6,8.5-0.6,12.3
	c-2.1,6.8-9.5,10.4-16.6,8.9c-6.7-1.4-10.8-6.6-10.3-14.2c0.3-4.3,1.4-8.6,2.3-12.8c2.1-9.4,2.1-17.4-5.2-24.4
	c-3.3-2.9-5.2-3.6-9-3.6c-18.5-0.2-35.1-0.4-53.6-0.1c-7.2,0.1-14.2,0.8-21.2-1.4c-12.7-4-21.2-12.5-24.9-25.1
	c-2-6.9-2.8-14.3-2.8-21.5c-0.2-26.5,0.1-53,0.2-79.5c0-18.6,0-37.3-0.1-55.9c0-6.8,2.9-12.8,7.4-16.6c3.6-3.1,7-4.6,12-4.5
	c0.4,0,2,0,5.7,0.1c3.7,0.1,4.5-0.2,5.9-7.1c1.2-6.3,0.3-12.2-2.9-17.9c-1.4-2.4-3.2-3.5-6.1-3.5c-14.2,0.1-28.3,0.1-42.5,0
	c-4,0-5.5,1.6-5.5,5.5c0.1,10.5,0,21,0,31.6c0,58.1-0.1,116.2,0.1,174.3c0,7.5-2.7,13.1-7.9,18.1c-1.3,1.3-2.7,3-2.2,6.8
	s1,12.6,2.6,15.9c1.6,3.4,3.9,7.7,4.2,12.1c0.6,7.5-4.8,13.2-11.2,14c-6.4,0.8-13.7-4.5-14.4-11.4c-0.4-4,0-8.5,1.3-12.4
	c3.7-10.7,1.8-19.4-6.8-26.9c-4.6-4-6.2-9.6-6.2-15.5c0-65,0-129.9,0-194.9c0-17.1,0-34.2,0-51.4c0-5.1,0.7-5.9,5.9-5.9
	c29.5,0,58.9,0,88.4,0c10.1,0,20.2-0.2,30.3-0.1c5.9,0.1,12-0.2,17.7,0.9c12.7,2.5,24.2,15.3,25.5,28.1c0.9,9,1.6,18.1,1.6,27.1
	c0.2,41.8,0.1,83.6,0.1,125.4c0,7.3-2.5,13.1-8.1,18c-4.3,3.8-4,9.6-4.2,14.9c-0.1,1.4,0.3,2.8,0.4,4.2c1.8,12.9,2.7,13.7,15.5,13.7
	c5.9,0,11.8-0.2,17.7,0.1c3.5,0.2,4.5-1.1,4.5-4.5c-0.1-25.1-0.1-50.2-0.1-75.4c0-44.3,0-88.7,0-133c0-9.5,5.3-17.4,13.5-20.3
	c8.2-2.8,17.8-0.1,23,7.5c2.1,3.1,3.4,7.5,3.4,11.3C317.7,66.4,317.6,108,317.6,149.5z M189.5,188.9c0,15.4,0,30.8,0,46.2
	c0,3.1,1.3,4.1,4.3,4.1c7.8-0.1,15.7,0,23.5,0c6.2,0,7.1-0.7,8-6.9c1.4-10.2-1.9-19.3-8-27.1c-5.1-6.5-6.6-13.6-6.8-21.5
	c-0.5-15.2-5.6-28.8-14.7-40.8c-1.1-1.4-3.7-4.1-5-3c-1.3,1-1.2,3.3-1.2,5C189.5,159.5,189.5,174.2,189.5,188.9z M210.3,51.1
	c-3.5,3.5-5.5,7.1-7.7,11.9c-3.7,7.9-5.6,17-5.7,25.8c-0.1,7.8,1.1,15.2,3.7,21.4c2.4,5.6,5.7,9.8,9.8,12.3
	c4.2,2.5,5.7-18.2,5.6-37.3C216,66.6,213.9,47.6,210.3,51.1z"/>
</svg>
