<?xml version="1.0" encoding="utf-8"?>
<!-- Generator: Adobe Illustrator 23.0.6, SVG Export Plug-In . SVG Version: 6.00 Build 0)  -->
<svg version="1.1" id="Layer_1" xmlns="http://www.w3.org/2000/svg" xmlns:xlink="http://www.w3.org/1999/xlink" x="0px" y="0px"
	 viewBox="0 0 400 400" style="enable-background:new 0 0 400 400;" xml:space="preserve">
<g>
	<path d="M226.7,85.4c-0.1,4.6-1.3,17.9-1,26.8c0.4,12.3,1.2,24.7,5.6,36.5c2,5.5,4.8,11.4,4.4,17.2c-0.4,5.7-0.3,4.4-0.7,6.5
		c-0.6,2.8-5,5.4-8.4,5.2c-1.3-0.1-1.6,0.1-1.6,1.4c0.1,5.6-0.1,11.3,0,16.9c0.2,6.7,0.9,13.4,1,20.1c0,5.9-0.8,11.8-0.9,17.6
		c-0.2,9,0.7,10.1,9.5,9.6c5.4-0.4,9.7,1.4,14,4.1c2.1,1.3,3,3,2.8,5.5c-0.3,5-0.5,10-0.6,15c-0.3,7.7-4,11.5-11.6,11.7
		c-6.5,0.2-12.5,2.1-18,5.3c-5.7,3.3-8.7,10.3-6.8,15.7c0.8,2.2,1.8,4.4,3,6.5c3,4.9,3.6,10,2.6,15.6c-0.6,3.2-2.7,4.6-4.7,6.4
		c-3.9,3.6-8.3,6.4-13.8,6.1c-5.3-0.3-10.1-2.3-13.8-6.3c-4.8-5.1-5.6-11.4-4.7-17.8c0.5-4.1,2.9-7.9,3.6-11.9
		c0.6-3,0.8-6.8-0.4-9.4c-2.6-5.5-7-9.4-13.7-9.7c-3.5-0.2-7-0.9-10.6-1.3c-2.2-0.2-3.6-1.4-4.2-3.4c-0.7-2.6-1.2-5.2-1.5-7.9
		c-0.5-5.2-0.7-10.5-1-15.8c-0.2-3.3,3.9-7.8,8-8.1c4.2-0.3,8.4-0.1,12.6-0.1c4,0,5.3-0.8,5.6-4.6c0.4-5.8,0-11.7,0-17.5
		c0-6.4,0.2-12.8,0.3-19.2c0-4.5-0.1-9-0.1-13.5c0.1-4.4,0.5-8.8,0.4-13.2c-0.1-13.2-0.4-26.3-0.6-39.5c0-2.4,0.5-4.8,0.4-7.2
		c-0.2-4.5-0.7-9-1.2-13.4c-0.2-1.6-1-1.5-2.2-0.9c-5.1,2.6-9.3,9.7-6,16.6c1.5,3.2,2.6,6.8,3.5,10.3c0.8,2.9-0.4,5.5-2.5,7.5
		c-3.2,2.9-6.9,4.7-11.4,4.8c-3.4,0-5.3-2.2-7.3-4.5c-3.6-4-4.1-8.4-1.5-13.1c0.9-1.7,1.4-3.5,2-5.3c2.1-6.3-0.8-11.5-3.9-16.7
		c-0.9-1.6-1.9-3.4-2-5.2c-0.4-7-0.5-14-0.6-21c-0.1-3.6-0.1-7.2,0.1-10.9c0.2-3.8,4.7-7.1,8.8-7.2c11.9-0.4,23.7-1.1,35.6-1.6
		c2.9-0.1,5.7,0.3,8.6,0.3c5.5,0.1,10.9-0.1,16.4,0c5.7,0.1,7.9,2.4,8.3,8.1C226.5,76.5,226.8,80.8,226.7,85.4z"/>
	<path d="M194.3,56.7c-6-0.9-14.3-4.4-18.1-16.8c-0.8-2.5-1.6-5-1.6-7.8c0.4-12.1,8.8-22.1,20.7-24.5c12.2-2.5,21.8,4.8,26.3,11.4
		c4,5.8,4.2,11.9,3.1,18.3c-1.2,6.6-4.8,11.7-10.2,15.8c-3.6,2.8-9.1,4.4-11.9,4.4C199.8,57.3,200.3,57.6,194.3,56.7z"/>
</g>
</svg>
