<?xml version="1.0" encoding="utf-8"?>
<!-- Generator: Adobe Illustrator 23.0.6, SVG Export Plug-In . SVG Version: 6.00 Build 0)  -->
<svg version="1.1"
	 id="svg6" xmlns:cc="http://creativecommons.org/ns#" xmlns:dc="http://purl.org/dc/elements/1.1/" xmlns:inkscape="http://www.inkscape.org/namespaces/inkscape" xmlns:rdf="http://www.w3.org/1999/02/22-rdf-syntax-ns#" xmlns:sodipodi="http://sodipodi.sourceforge.net/DTD/sodipodi-0.dtd" xmlns:svg="http://www.w3.org/2000/svg"
	 xmlns="http://www.w3.org/2000/svg" xmlns:xlink="http://www.w3.org/1999/xlink" x="0px" y="0px" viewBox="0 0 400 400"
	 style="enable-background:new 0 0 400 400;" xml:space="preserve">
<path d="M348.1,167.1c-1-1.1-2.2-2.4-3.5-3.6c-4.6-4-11-5.2-16.7-3.2c-2.1,0.7-4.1,1.6-6,2.6c-1.3,0.6-2.2,0.9-0.6-0.1
	c1.6-1,1.3-0.8,3.2-2.2c12.7-8.7,16.9-19.9,0.3-36.5L220.9,17.8c-12.7-12.2-33.8-12.2-45.8,0L74.8,120.3
	c-12,14.9-12.6,23.9-7.3,29.8c3.4,3.8,6.1,8.2,7.6,13c7.1,23.9-9.1,44.2,2.7,45.5c17.3-1.5-9.7-45.9,10.6-48c1.5-0.2,3,0,4.5,0.4
	c10,2.4,20.7,4.4,28.4,8c0.8,0.4,1.4,0.9,1.7,1.7c3.6,8.2-34.1,14.7-25.6,23.1c6.7,6.8,34.3,13.3,50.7,20c2.1,0.9,3.3,3.2,2.6,5.4
	c-0.6,2.1-1.6,3.6-3,4.8c-1.1,0.7-2.2,1.1-3.7,1.3c-1.4,0.2-2.8,0.2-4.1-0.1c-12.2-2.1-29.8,7.3-18.7,17c5.9,5,14,2.5,19.9-2.9
	l0,0.1c0.1-0.1,0.1-0.2,0.2-0.3c1.7-1.5,3.1-3.3,4.4-5.2c1.4-2.2,3.2-4.2,5.4-5.8c0.9-0.7,1.8-1.2,2.6-1.6c1.4-0.6,3,0.7,2.5,2.2
	c-0.9,2.8-3,8.9-4.5,13.4c-1.2,3.7,0.7,7.6,4.4,8.8c9.8,3.1,23.5,0.9,26.5,17.6c2.7,14.7,36.5,6.2,52.9-5.8c8.7-8.9-16-7.4-8-17.1
	c11.5-14.1,21.4-14.5,35.9-16.7c6.6-1.3,20.5-1.8,18.1,2.2l0,0c-3.1,8.1,7.1,14.2,16.3,8.7c1.8-1.9,1-7.2-4.5-10.9
	c-3.7-2.5-2.9-8.2,1.4-9.4c0.2-0.1,0.5-0.1,0.8-0.2c1.3-0.2,2.6-0.2,3.9,0c7.3,1.2,17.1,1.4,22.9-0.5c3.7-1.2,5.2-5.7,2.9-8.8
	c-7.1-9.4-24.5-9.4-32.1-0.5l0,0c-2.2,2.5-6.6,2.7-10.5,2c-3.5-0.6-6.7-2.2-9.5-4.4c-7.7-6.1-23.4-10.7-20.5-16.7
	c0.4-0.8,1.1-1.5,2-1.9c7.3-3.9,19.1-7.5,31.4-11.5c6.9-2.2,14.2-2.9,21.4-1.9c8,1.1,15.6,2.6,24.8,2.7c4.6-0.4,11.3-2.6,15.1-4.9
	C349.4,171.8,349.7,168.9,348.1,167.1z M145.3,84.7c-8.9,0-9.8-11.8-1.8-19.8c6.5-7,13.5-14.2,19.9-20.7c1-1,2.1-1.9,3.3-2.7
	c15.2-9.4,7.4,26.8,1,41.2c-0.5,1.2-1.7,2-3.1,2L145.3,84.7z M204.2,190.5c-2.2,2.1-5.3,3.1-8.4,2.8c-15.6-1.4-53.7-17.3-45.9-18.3
	c0.6-0.1,1.1,0,1.6,0.2c5.8,2.1,43,9.6,52.5,11.3C206.4,187,206.1,188.7,204.2,190.5z M230,81c-1.7,1.5-4.1,1.7-6.1,0.7l-4.1-2.2
	c-2.2-1.2-4.9-1.1-7,0.3l-18.3,11.6c-2.2,1.4-5.2,0.2-5.8-2.3l-2.4-9.3c-0.8-3.2-1.6-6.5-2.2-9.7c-3.1-15.7-13.3-35.6,6.7-48.5
	c3.3-2.1,7.3-3.1,11.2-2.6c4.8,0.6,9.5,2.9,13,6.4c7.9,8,13.8,17.8,16.9,28.7C235.3,65.9,234.7,76.9,230,81z M256.8,77.5
	c-0.3,0.7-1.2,0.9-1.8,0.4c-4.2-4.4-16.5-24.5-10.2-21.8c0.6,0.3,1.1,0.6,1.6,1.1l8,8.2C257.7,68.6,258.2,74.5,256.8,77.5z"/>
</svg>
