<?xml version="1.0" encoding="utf-8"?>
<!-- Generator: Adobe Illustrator 23.0.6, SVG Export Plug-In . SVG Version: 6.00 Build 0)  -->
<svg version="1.1" id="Layer_1" xmlns="http://www.w3.org/2000/svg" xmlns:xlink="http://www.w3.org/1999/xlink" x="0px" y="0px"
	 viewBox="0 0 400 400" style="enable-background:new 0 0 400 400;" xml:space="preserve">
<g>
	<path d="M199.9,5c25.9,0,51.8,0,77.8,0c1.5,0,3.1,0.1,4.5,0.6c3.1,0.9,4.5,3,4.5,6.3c-0.1,6.1,0,12.1,0,18.2c0,5-2.1,7.2-7.2,7.2
		c-6.1,0.1-12.1,0.2-18.2,0c-2.9-0.1-4.5,1-5.6,3.5c-3.3,7.6-3.1,15.3-0.8,23.1c0.5,1.8,1.7,1.9,3.3,1.9c7.1,0,14.2,0,21.3,0
		c5.4,0,7.2,1,7.5,6.4c0.4,6.9,0.1,13.9-0.3,20.8c-0.2,3.2-2.3,4.5-5.5,4.6c-4,0.1-4.1,0.2-5.4,4c-1.5,4.6-1.3,9.2-0.3,13.8
		c1.2,5.8,2.9,11.5,3.7,17.4c0.6,4.3,0.5,8.8-0.3,13c-1.5,7-7.7,11.2-14.6,10.6c-6.6-0.6-11.9-5.7-12.3-12.7
		c-0.2-3.9,0.5-7.9,1.2-11.8c0.8-4.8,2.2-9.5,3-14.4c0.7-4.9-0.3-9.5-3.1-13.6c-0.6-1-1.5-1.8-2.3-2.6c-2-1.7-2.5-1.6-3.1,1.1
		c-1.6,6.6-3.5,13.1-6.7,19.1c-4.6,8.9-10.7,16.6-18.6,22.8c-3,2.4-6.3,4.3-9.4,6.6c-1.3,1-2.4,2.3-3.1,3.8
		c-6.7,14.1-8.7,29.1-8.1,44.4c0.1,1.6,1.1,3.4,2.2,4.7c8.4,9.9,16.9,19.6,25.2,29.5c9.1,10.9,18,22,27,32.9c0.8,1,1.8,1.8,2.6,2.8
		c1.4,1.9,2.6,4,1.2,6.4c-1.3,2.3-3.1,4.1-6,4.2c-3.2,0.1-6.5,0.2-9.7,0c-2.6-0.2-3.3,1-3.4,3.3c-0.2,4.5,1.1,8.7,2.9,12.7
		c1.5,3.3,3.2,6.5,4.5,9.9c1.7,4.6,2.1,9.3-1.9,12.9c-4.1,3.7-9,3.5-13.8,1.5c-5.2-2.1-8.1-6.3-9.1-11.7c-0.6-3-0.6-6.1-0.8-9.2
		c-0.3-3.3-0.3-6.7-0.8-10c-0.8-4.5-2.8-8.1-7.4-10c-1.7-0.7-3.2-2.2-4.4-3.6c-9.3-11-18.5-22.2-27.8-33.2
		c-7.4-8.7-14.9-17.3-22.4-25.8c-10.9-12.4-21.9-24.8-33-37.1c-3.3-3.7-6.8-7.4-10.3-10.9c-2.1-2.2-3.4-4.5-3.3-7.8
		c0.2-7.3,0.1-14.7,0.1-22c0-5.5,2.1-7.6,7.7-7.6c8.6,0,17.3,0,25.9,0c3.3,0,6.7-0.3,10-0.7c0.9-0.1,1.9-0.8,2.4-1.6
		c4.4-7.4,5.9-17.6,0.5-25.7c-2.3-3.4-5.1-5.3-9.6-5.2c-10.3,0.3-20.6,0.1-30.9,0.1c-4,0-5.8-1.8-5.9-5.8c-0.1-6.7,0-13.4,0-20.1
		c0-3.8,1.8-5.6,5.6-5.7c3.2-0.1,6.5-0.1,9.7,0c2.1,0.1,3-0.8,3.4-2.7c1.8-7.2-1-13.2-5.2-18.7c-0.4-0.6-1.6-0.7-2.4-0.8
		c-1.1-0.1-2.3,0.1-3.5-0.1c-4.8-0.5-8.1-1.4-7.8-8c0.4-7.8,0.3-15.7,0-23.6c-0.2-4.3,2.6-6.5,6.5-7c1-0.1,2.1,0,3.1,0
		C148.3,5,174.1,5,199.9,5z M180.6,65.8c5.2,0,10.3,0,15.5,0c3,0,3.2-0.3,1.6-2.9c-4.3-7.1-10.6-11.9-18.4-14.4
		c-6.9-2.1-14.1-3.3-21.2-4.9c-2.1-0.5-3.7,0.4-4.1,2.5c-0.5,2.2-1,4.6-0.7,6.8c0.5,4.7,3.3,8.3,7.1,11.1c1.3,1,3.2,1.7,4.9,1.7
		C170.3,66,175.4,65.8,180.6,65.8z M190.6,97.6c-2.8,0-5.7,0-8.5,0c-1.5,0-2.3,0.3-2.6,2c-0.9,6.5,4.3,13.8,10.8,14.9
		c0.8,0.1,2-0.2,2.6-0.7c4-3.6,6.3-8.4,8.3-13.2c1-2.5,0.7-2.9-2.1-2.9C196.3,97.5,193.4,97.5,190.6,97.6z M187.7,165.3
		c0.4-0.6,0.4-3.7-2.4-3.3c-4.8,0.7-9.6,1.6-14.3,2.4c-1.1,0.2-1.6,0.9-0.6,1.9c3.3,3.6,6.7,7.1,9.9,10.7c1.3,1.4,2.2,0.9,2.8-0.5
		C184.8,172.7,187.3,165.9,187.7,165.3z M239.5,37.1c-2.1,0-3.4,0.2-3.5,0.9c-0.2,0.8,1.2,2.2,1.8,3.2c0.2,0.3,0.5,0.6,0.7,0.9
		c0.7,0.8,1.5,2.5,2.1,2.4c0.6-0.1,1.2-2,1.6-3C243.7,37.7,241.6,37.1,239.5,37.1z"/>
</g>
</svg>
