<?xml version="1.0" encoding="utf-8"?>
<!-- Generator: Adobe Illustrator 23.0.6, SVG Export Plug-In . SVG Version: 6.00 Build 0)  -->
<svg version="1.1" id="Layer_1" xmlns="http://www.w3.org/2000/svg" xmlns:xlink="http://www.w3.org/1999/xlink" x="0px" y="0px"
	 viewBox="0 0 400 400" style="enable-background:new 0 0 400 400;" xml:space="preserve">
<path d="M110,275.5c1.4,0.3,1.9,0.5,3,1.1c7.9,4.2,8.6,9.7,4.8,19.2c-1.3,3.3-2.2,7.3-1.6,10.8c0.8,5.1,5,6.9,11.4,6.3
	c5.4-0.5,8.9-3.5,9.5-9.2c0.3-2.4-0.3-5.1-1-7.5c-1.5-5.3,2-9.7,7.2-8.9c6.9,1.2,9.9,5.2,9.9,12.6c0,7.4-0.2,14.9,0.8,22.1
	c1.3,9.5,7.2,11.6,14.6,11.7c8.1,0.1,14.2-6.2,13.4-14.1c-0.7-6.7-2.9-13.5-5.6-19.8c-5.2-12,2.2-24.7,15.1-25h30.9
	c8.1,0,16.3,0,24.4,0h46.7c23.6,0,43-19.3,43-43V52.8c0-23.6-19.3-43-43-43h-187c-23.6,0-43,19.3-43,43v179.1
	c0,21.7,16.2,39.7,37.2,42.6c0.6,0.1,3.4,0.3,4.4,0.4C106.1,275,108.6,275.2,110,275.5z M183.8,105c-1.3,4.6,0.7,14.2,4.1,16.7
	c6,4.4,17.1,3.8,22.5-1.3c2.2-2.1,3.5-3.5,3.7-7.4c0.2-3.9-0.8-7-2.7-9.9c-2.3-3.6-2.7-7.5-2.8-11.6c-0.2-7.7,6.6-14.9,12-12.9
	s4.9,1.7,7,2.7c18.6,8.2,32.4,23.5,37.7,43.3c3.6,13.5,2.5,31.8-1.3,40.2c-2.1,4.5-6.3,12.5-12.7,19.8c-5.5,6.3-12.7,12-18.1,15.1
	c-11.7,6.5-26.7,9.6-41.3,8.5c-34.5-2.8-62.2-32.3-62.1-66.3c0.1-26.4,16.3-49.4,38.9-60.3c1.9-0.9,4.3-1.9,7.1-2.3
	c2.8-0.4,5.2-0.7,7.4,2.8c2.3,3.7,4,7,4.3,10.6c0.1,1.7,0,3.9-0.8,5.3C186,99.2,185.2,100.3,183.8,105z M279.9,72.5
	c-7.3-0.1-13-5.8-12.7-13c0.2-6.8,6.2-12.5,13-12.4c7.1,0.1,13.1,6,13,12.9C293.1,67,287.2,72.6,279.9,72.5z"/>
</svg>
