<?xml version="1.0" encoding="utf-8"?>
<!-- Generator: Adobe Illustrator 23.0.6, SVG Export Plug-In . SVG Version: 6.00 Build 0)  -->
<svg version="1.1" id="Layer_1" xmlns="http://www.w3.org/2000/svg" xmlns:xlink="http://www.w3.org/1999/xlink" x="0px" y="0px"
	 viewBox="0 0 400 400" style="enable-background:new 0 0 400 400;" xml:space="preserve">
<path d="M301.8,5.1c1,0.1,1.8,1,1.6,2.1c-0.8,5-1.9,5.6-7.4,5.8c-14.6,0.7-26,6.9-31.4,20.9c-4.8,12.4-8.9,25.2-12.7,38
	c-13.9,48-27.6,96.2-41.3,144.3c-3,10.4-5.8,20.9-8.4,31.4c-3.9,16.1,4,20.8,16.6,23c4.1,0.7,8.2,1,12.3,1.4
	c1.5,0.1,2.6,1.4,2.5,2.8c-0.1,4-1.8,5.1-6.7,5.1c-11.4,0-22.8,0-34.3,0c-8.5,0-14.3,3.9-16.8,12.1c-1.6,5.1-2.1,10.6-3.5,15.8
	c-1.1,4.1-2.2,8.3-4.2,12c-4.7,8.4-14.4,9.1-20.2,1.3c-2.5-3.3-3.8-7.5-5.4-11.5c-1.3-3.1-1.9-6.4-3.2-9.5c-1.2-3.1-3.7-4.3-7-3.4
	c-1.9,0.5-3.8,1.1-5.6,1.7c-6,1.9-10.8,0.4-14.8-4.5c-3.4-4.1-5.9-6.9-9.6-10.7c-0.7-0.7-2.5-2.3-3.4-2.8c-1.7-1-2.7-2.9-2.3-4.8
	c0.6-3.2,2.2-3.7,7.2-4.2c5.4-0.5,10.8-1.4,15.9-2.9c11-3.3,16.2-12.4,19.6-22.2c5.2-14.9,9.7-30,14.2-45.2
	c10.4-35.6,20.7-71.3,30.9-107c5.2-18.4,10.1-36.9,15.1-55.3c0.2-0.7,0.3-1.4,0.3-2.1c0.1-1.3-1.1-2.3-2.3-2c-3,0.8-5.3,2.5-7.1,4.9
	c-1.9,2.6-3.6,5.4-5.3,8.1c-1.3,2.1-2.5,4.4-3.9,6.5c-2.3,3.3-5,6.5-9.6,5.5c-4.5-1-5.9-4.8-6.8-8.7c-0.5-1.9-0.9-3.9-0.7-5.8
	c1.5-12.3,3.2-24.5,4.8-36.8c0.3-2,2-3.6,4.1-3.6c42.6,0.1,85.1,0.1,127.7,0.1C301.1,5.1,301.4,5.1,301.8,5.1z"/>
</svg>
