<?xml version="1.0" encoding="utf-8"?>
<!-- Generator: Adobe Illustrator 23.0.6, SVG Export Plug-In . SVG Version: 6.00 Build 0)  -->
<svg version="1.1" id="Layer_1" xmlns="http://www.w3.org/2000/svg" xmlns:xlink="http://www.w3.org/1999/xlink" x="0px" y="0px"
	 viewBox="0 0 400 400" style="enable-background:new 0 0 400 400;" xml:space="preserve">
<path d="M64.2,145.6c1.7-50.5,20.6-89.3,60.2-116.8c27.3-19,58.1-27.1,91.1-22.6c52.9,7.3,89.6,36.4,110.3,85.5
	c6.8,16.1,10.4,33.2,9.9,50.7c-1.6,53.2-24.7,94.3-71.3,120.7c-49.9,28.4-113.6,20.2-155.6-18.9c-22.1-20.5-36-45.8-41.8-75.4
	C65.5,160.4,64.9,151.6,64.2,145.6z M250.7,129.3c0-9.4,0-18.8,0-28.2c0-3-1.6-4.6-4.5-4.4c-2,0.1-3.9,0.7-5.8,1
	c-4.1,0.8-8.2,1.6-12.2,2.5c-2.6,0.6-8.1,2.3-10.4,3.5c-14.9,7.5-23.7,17-30.3,32.5c-2.9,6.9-4.7,14.3-6.7,21.6
	c-2.9,10.7-5.3,21.6-4.6,32.8c0.2,2.8,0.2,5.6,0,8.3c-0.3,4.6-1.4,9-3.7,13c-2.4,4.3-4.9,8.5-7,13c-4.7,10-2.9,21.3,4.4,29.3
	c1.8,1.9,3.8,3.4,6.4,3.8c4.1,0.6,8.2,1.4,12.3,1.8c24.9,2.6,48.2-2.6,69.8-15.2c44.4-25.9,66.7-79.2,55.1-128.2
	c-8.1-34.1-27.2-60-57.7-77.5c-3-1.7-5.8-1.5-8.4,0.4c-4.1,2.9-7.1,6.6-8.7,11.4c-0.6,1.8-1.1,4.6,0.5,5.8c1.7,1.2,3.9,1.3,6,1.3
	c2.7,0,5.5-0.8,8.3-1.2c4.8-0.8,6.6,1.7,6.6,6c-0.1,41,0,81.9,0,122.9c0,0.5,0.1,1.1-0.1,1.6c-2,6-4.8,11.5-10.5,15
	c-2.8,1.7-4.7,4.2-4.9,7.5c-0.3,3.8-0.3,7.7-0.2,11.5c0.2,4.4,1.1,8.7,0.9,13.1c-0.2,4.4-3.8,7.7-7.6,8.1c-4.2,0.4-8-1.9-9.5-6.2
	c-0.7-2.1-1-4.4-1-6.6c0-2.5,0.4-5.1,0.7-7.6c0.7-6.4-1-11.9-5.3-16.6c-1.6-1.7-3.2-3.3-4.8-5c-4.3-4.6-6.2-9.8-4.9-16.3
	c1.4-6.9,5.3-11.7,11.5-14c6.4-2.3,13.1-3.6,19.8-5.1c4-0.9,7-4.1,6.9-7.8C250.6,147.8,250.7,138.6,250.7,129.3z M83.9,142.8
	c0,13.2,2.2,25.9,6.5,38.2c8.1,23,21.3,42.3,41,56.9c3,2.2,4.3,2,6.2-1.3c0.5-0.9,1-1.9,1.2-3c1.2-5.9-0.7-10.9-4.4-15.4
	c-1.5-1.7-3-3.5-3.9-5.6c-1.7-3.6-1.9-7.4-1.5-11.4c0.4-3.5,1.6-6.5,3.9-9.1c3.3-3.8,7.5-6.1,12.4-7.2c4.7-1.1,9.4-2.6,14.1-3.3
	c4.5-0.7,7.7-4,7.7-8.3c-0.1-31-0.1-62-0.1-93c0-4.4,1.9-7.1,6.1-8.3c1.6-0.5,3.3-0.5,4.9-0.8c2.9-0.6,5.9-1.2,8.8-1.8
	c3.9-0.8,7.9-1.7,11.8-2.4c2.5-0.4,5-0.8,6.8-2.9c1.8-2,3.9-3.8,5.5-6c4.4-5.9,7.4-12.3,6.7-19.9c-0.7-7.8-6.8-13.7-14.6-13.9
	c-19.5-0.5-38.2,3.4-55.3,12.8C106.2,60.1,85.8,95.9,83.9,142.8z M176.1,120.5c0.2,1.1,0.6,2.1,1.5,2.1c0.9,0,2-0.4,3.2-1.3
	c2.5-2.2,3.7-4.2,5.4-7.1c2.4-4.2,1.6-5.3-3.1-4.8c-2.8,0.3-5.7,1.1-6.6,4.4c-0.4,1.3-0.5,2.7-0.5,4
	C176,119,175.9,119.4,176.1,120.5z"/>
</svg>
