<?xml version="1.0" encoding="utf-8"?>
<!-- Generator: Adobe Illustrator 23.0.6, SVG Export Plug-In . SVG Version: 6.00 Build 0)  -->
<svg version="1.1" id="Layer_1" xmlns="http://www.w3.org/2000/svg" xmlns:xlink="http://www.w3.org/1999/xlink" x="0px" y="0px"
	 viewBox="0 0 400 400" style="enable-background:new 0 0 400 400;" xml:space="preserve">
<path d="M177.8,264.1c-0.4-1.9-2.8,3.1-4.2,4.3c-3.5,3.1-7.4,5.1-12.2,2.9c-4.7-2.2-6.3-6.3-5.9-11.1c0.3-4.1,1.3-8.3,2.4-12.3
	c1.8-6.5,2.6-12.9,0.5-19.3c-1.2-3.6-2.8-7.1-4.8-10.3c-2.5-3.9-5-6.6-9-8.1c-2.2-0.9-5-1.3-8.2-1.3s-8.6,0.4-12.9,0.3
	c-5.2,0-8-2.6-8.1-7.9c-0.1-5.6-0.2-11.3,0-16.9c0.2-5.6,2.4-7.6,8.1-7.6c2,0,4-0.2,5.9,0c3.7,0.5,4.9-1.3,5.2-4.5
	c0.4-4.2-0.7-7.9-3.7-10.8c-1.1-1.1-3.3-1.5-4.9-1.5c-9-0.2-10.6-1.8-10.6-10.9c0-4.6-0.1-9.2,0-13.8c0.1-5.5,2.5-7.8,7.9-7.8
	c11.7,0,23.3,0,35,0c1.4,0,4.7,0.2,5.1-0.5c0.4-0.7-1.5-3.2-2.3-4.6c-12.9-23.2-25.7-46.5-38.6-69.7c-6.8-12.2-13.6-24.3-20.4-36.5
	c-3.7-6.7-0.9-11.3,6.7-11.3c11,0,22,0.1,33-0.1c4.3-0.1,7.1,1.7,9,5.5c14.3,28.4,27.9,57.1,42.1,85.5c3.2,6.4,8.3,20,9.9,20
	c1.5,0,4.7-8.8,6.5-12.8c10.5-23,20.1-46,30.6-69c3.7-8.2,7.6-16.3,11.2-24.5c1.5-3.5,3.9-4.8,7.6-4.8c11.3,0.1,22.5,0,33.8,0
	c6.3,0,9.2,4.5,6.4,10.3c-3.8,7.6-7.9,15-11.9,22.5c-7.8,14.4-15.6,28.8-23.3,43.4c-0.9,1.8-1.1,4-1.3,6.1
	c-0.7,13.1,1.5,25.6,8.3,37c1.5,2.5,3.2,3.4,5.3,3.4c2.1,0,3.5,0,4.6,0.1c3.8,0.1,5.8,2,5.9,5.8c0.1,6.8,0.1,13.6,0,20.4
	c-0.1,3.9-2.7,6-7.5,6.1c-9.3,0.1-18.6,0-27.9,0c-5.2,0-6.3,0.7-7.6,5.8c-0.5,2-0.5,4.2-0.4,6.2c0.1,3.4,1.6,5,5.4,4.9
	c10.2-0.3,20.4-0.1,30.7-0.1c5.6,0,7.5,2.3,7.3,8.1c-0.2,5.3-0.2,10.6,0,16c0.3,5.5-1.7,7.9-7,8.3c-2.2,0.1-4.5,0-6.7,0
	c-5.2,0-8.1,1.6-9,6.7c-0.8,4.9-0.2,10.1,0.1,15.1c0.3,4.6,1.6,9.1,1.7,13.6c0.2,8-4.5,13.2-11.3,13.5c-7,0.3-13-5-13.3-12.7
	c-0.2-5,1-10.1,1.3-15.2c0.2-2.6,0.3-5.3-0.1-7.8c-1.1-7.8-4.5-12.1-10.6-12.9c-2.2-0.3-7.4-0.8-7.6,2.4c-0.1,3.1,0.1,6.8,0.1,8.2
	c0,18.7,0,31.3,0,50.1c0,7.3-2.6,9.9-9.9,9.9c-8.9,0-17.8,0-26.7,0c-7,0-9.4-2.4-9.3-9.4C178,268.6,178.1,265.9,177.8,264.1z
	 M177.8,162.6c0-3.2-13.8-2.7-18.6-2.7c-4.8,0-6.3,1.9-6.5,5.4c-0.2,3.1,1.1,7.8,1.6,9.3c0.6,1.5,2.4,2.1,3.7,2.1
	c5.7,0.2,14.4,0,15.9,0c1.5,0,3.7-0.3,3.7-3.1C177.7,170.8,177.8,165.8,177.8,162.6z M237.8,128.1c1.6,0.8,5.8-0.3,7.3-1.4
	c2.1-1.6,3.1-5.4,3.1-8.3c0-2.9-0.3-6.8-1.6-6.4S236.2,127.2,237.8,128.1z M172.3,209.5c-0.8,1.5,4.2,8.6,5.3,8.1
	c1.1-0.5,0.8-7,0-8.1C176.7,208.5,173,208,172.3,209.5z M224.1,160.3c-0.5,0.6-0.8,6.4,0,6.6c0.8,0.2,5-6,4.8-6.6
	C228.7,159.7,224.6,159.7,224.1,160.3z"/>
</svg>
