<?xml version="1.0" encoding="utf-8"?>
<!-- Generator: Adobe Illustrator 23.0.6, SVG Export Plug-In . SVG Version: 6.00 Build 0)  -->
<svg version="1.1"
	 id="Layer_1" inkscape:version="0.92.2 (5c3e80d, 2017-08-06)" sodipodi:docname="juke.svg" xmlns:cc="http://creativecommons.org/ns#" xmlns:dc="http://purl.org/dc/elements/1.1/" xmlns:inkscape="http://www.inkscape.org/namespaces/inkscape" xmlns:rdf="http://www.w3.org/1999/02/22-rdf-syntax-ns#" xmlns:sodipodi="http://sodipodi.sourceforge.net/DTD/sodipodi-0.dtd" xmlns:svg="http://www.w3.org/2000/svg"
	 xmlns="http://www.w3.org/2000/svg" xmlns:xlink="http://www.w3.org/1999/xlink" x="0px" y="0px" viewBox="0 0 400 400"
	 style="enable-background:new 0 0 400 400;" xml:space="preserve">
<path d="M327.9,188.2c-0.8,0-1.5,0-2.3,0c-2.1,0-4.3-0.4-6.1-1.6c-1.1-0.7-1.9-1.5-2.4-2.4c-0.7-1.5,0.4-3.3,2.1-3.3l0,0
	c4.3-0.1,10.2,1.1,12.3-1.1c2.3-2.4,0.7-8.1,1-12.4c0.3-3.5-0.9-4.6-4.4-4.5c-8.1,0.2-16.1,0-24.3,0.1c-2.4,0-4-0.3-4-3.3
	c0-3,1.2-3.7,4.1-3.7c8.1,0.1,16.1,0,24.3,0.1c2.9,0.1,4.5-0.6,4.3-4c-0.2-4.7-0.2-9.4,0-14.1c0.1-3.3-1-4.2-4.2-4.2
	c-5.4,0-10.8,0.1-16.3,0.1c-2.8,0-5.5-0.5-8.1-1.6c-0.1,0-0.2-0.1-0.3-0.1c-3.3-1.5-4.9-5-4.4-8.5c0.3-1.8-0.2-4.5-0.9-8.7
	c-5.3-31.7-22.4-55.1-51.6-68.8c-22.4-10.4-45.5-10.8-68.6-1.9c-8.6,3.3-16.3,7.7-23.2,13.2c-2.7,2.2-4.6,1.1-4-2.3
	c0.1-0.8,0.5-1.7,1.2-2.8c1.5-2.5,3.6-4.5,6.1-6.1c18.5-11.9,40.7-17.3,62.6-14.6c31.4,4,55.2,19.4,71.8,46.1
	c8.5,13.7,12.8,28.8,13.5,44.8c0.2,3.6,1.5,4.4,4.7,4.3c6-0.2,12.1-0.1,18.1,0c2.7,0,3.7-0.9,3.5-3.6c-0.5-3.7-0.6-7.5-1-11.2
	C324.3,51.3,272.4,5.1,211.1,5c-37.9-0.1-72.6,16.4-96.3,46.1c-16.8,21-25.5,45.3-26.8,72.1c-0.1,2.9,0.8,4,3.7,3.8c0.5,0,1,0,1.5,0
	c1.2,0,2.3,0.4,3.1,1.2c1.2,1.3,1,2.7-1.1,4.3c-1.2,0.9-2.7,1.4-4.2,1.5c-2.9,0.2-2.9,1.3-2.9,6c-0.1,22,0,44-0.1,66
	c-0.1,10.7-4.1,15.8-14.3,18.6c-2.4,0.6-2.9,1.6-2.9,3.7c0.1,5.9,0,11.6,0,17.5c0,2.4,0,3.8,0.5,4.5c0.8,1.1,1.6,2.1,2.1,3.3
	C92.3,301.1,41.5,390.8,86,395c44.4-0.4-18.5-70.3,9.4-145c1.9-5,4.7-9.5,8.2-13.5c5.3-6,8.9-13.2,9.8-20.9c1-8.6,1.2-17.3,1.3-25.9
	c0-2.3,0.4-4.7,1.1-6.9c1-3,2.3-4.6,4.4-3.3c1,0.6,1.6,1.8,1.7,3c2,16,15.4,28.2,32.4,29.8c0.4,0,0.8,0.1,1.2,0.1
	c3.8,0.2,7.3,2.1,9.4,5.2c2.5,3.9,2.3,8.3-0.7,11.2c-1.3,1.3-3.1,1.8-4.9,2c-1.8,0.2-2.6,1.4-2.6,3.8c0.1,5.3,0.1,10.5,0,15.8
	c0,2.3,0.8,3.7,3.2,3.7c2.9,0.1,2.5-2.1,2.5-4c0-3.6-0.1-7.2,0.1-10.7c0.2-2.9,2.1-4.2,5.1-4c2.8,0.2,2.5,2.4,2.5,4.2
	c0,3.6,0,7.1,0,10.7c0,1.9,0,3.7,2.8,3.7c2.7,0,2.9-1.5,2.9-3.6c-0.1-3.7,0-7.6,0-11.3c0-3.2,2.3-3.6,4.6-3.7
	c2.6-0.1,3.3,1.5,3.2,3.6c0,1.4,0,2.8,0,4.1c0.1,3-0.2,5.9,0,8.6c0.1,0.8,1.6,1.9,2.5,2c0.4,0,0.9-0.1,1.4-0.4c1.3-0.7,3-0.7,4.3,0
	c1.4,0.7,2.3,1.7,2.8,2.6c0.5,0.9,0.3,2.1-0.5,2.8l0,0c-0.7,0.7-0.7,1.8,0,2.5c0.6,0.6,1.2,1.1,1.8,1.1c3.8,0,6.3-2.3,7.6-5.6
	c1.5-4.2,2.9-8.3,4.2-12.5c0.6-2,2.5-3.4,4.5-3.2c2.2,0.2,3.3,2.1,4,4.8c0.1,0.4,0.1,0.9,0.2,1.3c0,1,0,2.1,0.1,3.1
	c0,1.8,0,3.3,2.5,3.4c2.6,0,3.2-1.2,3-3.5c0-3.4,0.2-6.8,0-10.2c-0.1-3.4,1.4-5.1,4.5-5.2c3.4-0.2,3.2,2.6,3.2,4.7
	c0,3.4,0,6.8,0,10.2c0,1.9-0.1,3.8,2.7,3.8c2.7,0,2.9-1.7,2.9-3.7c0-3.4,0.1-6.8,0-10.2c-0.1-3.3,1.8-4.7,4.9-4.7
	c3.2,0.1,2.6,2.7,2.6,4.6c0.1,3.8,0,7.6,0,11.3c-0.1,2.3,1,3.4,3,2.8c1-0.3,2.3-1.8,2.4-2.8c0.3-4.2,0.2-8.2,0.1-12.4
	c-0.2-7.6-3.8-9.7-11.1-6.8c-1,0.5-2.6,1.4-3,1c-3.7-3-7.6-2.3-11.6-0.9c-1.2,0.4-2.8,0.1-4.3-0.2c-0.7-0.1-1.4,0.4-1.4,1.1
	c-0.2,1.3-0.2,1.8-0.3,4.3c-0.1,1.3-1.6,2.1-2.6,1.3c-0.8-0.6-1.6-1.7-2.5-3.6c-0.2-0.5-0.3-1.1-0.1-1.7c0,0,0,0,0,0
	c0.1-0.3,0-0.7-0.2-1c-0.4-0.5-1-0.8-1.6-0.8c-1.1,0.2-2.2,0.4-2.6,1.2c-1.1,2-1.7,4.5-2.5,6.8c-0.2,0.6-0.5,1.2-0.9,1.8
	c-0.3,0.5-1,0.6-1.4,0.1c-0.5-0.6-1-1.2-1.3-1.9c-0.7-1.7-1-3.6-1.4-5.4c-0.5-2.7-2.3-3.2-4.5-2.7c-3,0.7-1,2.8-0.7,4
	c1.6,5.2,2.2,6.5,3.8,11.7c0.1,0.2,0.4,1.2,0.8,2.3c0.5,1.6-0.7,3.3-2.4,3.1c-1.5-0.1-3-0.8-4.3-1.8c-2-1.5-3-4-3-6.4
	c0-2.5-0.1-5-0.4-7.5c-0.4-3.7-2-5.6-4.4-6.1c-2.4-0.4-4.7-1.5-6.2-3.4c-0.1-0.1-0.1-0.1-0.2-0.2c-5.6-7.2-4.2-17.4,2.5-23.6
	c3.8-3.5,6.9-7.9,8.7-12.8c0.4-1.1,1.1-2,2.1-2.5c2.1-1.1,4,0.1,5.5,2.4c1.4,2.2,2.1,4.8,2.1,7.3c0,2.9,0,5.7,0,8.6
	c-0.1,3.2,0.8,4.4,4.1,4.3c5.6-0.1,11.3-0.1,16.9,0c2.4,0,3.3-1,3.3-3.4c0-4.2-0.1-8.2,0.1-12.4c0.1-1.8,0.6-3.6,1.5-5.2
	c1.4-2.5,2.9-2.9,4.5,0.2c3,5.9,6.5,11.4,9.5,17.3c1.5,2.7,3.2,3.6,6.2,3.5c6.8-0.2,13.5,0,20.3-0.1c4.2,0,4.2-0.1,1.9-3.8
	c-7.1-11.4-14.2-22.9-21.6-34.3c-2-3-1.9-5.1,0.3-7.9c3.4-4.3,6.8-8.6,10.1-13c1.1-1.5,2.6-2.7,4.3-3.4c6.1-2.3,9.6,3.1,11.7,12.4
	c0.9,3.8,1.3,7.7,1.3,11.6c0,0,0,0,0,0c0.1,11.5,0.1,23-0.1,34.3c0,2.8,0.2,4.1,3.2,4.1c0,0,0,0,0,0c1.4,0,2,0.3,2.8,0.8
	c9.5,5.6,8.4,11.5,4.5,19.4c-0.4,0.8-1,1.5-1.7,2c-1,0.8-1.6,1.9-1.8,3.1c-0.7,4.1,1.7,6.2,5.1,7.7c1.8,0.8,3.6,1.4,5.2,2.3
	c0.7,0.5,1.5,1.7,1.2,2.3c-0.3,0.8-1.6,2-2.3,1.9c-1.9-0.2-3.7-1.4-5.6-1.7c-0.5-0.1-1.1,0.1-1.7,0.3c-0.9,0.3-1.5,1.3-1.2,2.3
	c0.1,0.4,0.2,0.7,0.5,1c2.7,2.7,7.9,3.4,11.6,1.6c4.7-2.1,5.5-7.7,1.5-11c-1.1-0.9-2.6-1.5-4-2.1c-2-1-6-0.8-4.9-4.1
	c1-3.4,3.8-1.2,6.1-0.3c0.4,0.2,1.1,0,1.7-0.4c0.9-0.4,1.2-1.5,0.7-2.3c-0.3-0.5-0.6-1-1-1.2c-0.1-0.1-0.2-0.1-0.3-0.2
	c-0.8-0.3-1.4-0.9-1.7-1.7c-2-4.5-3.1-10.7,8.7-17.2c3-1.7,6.5-2.5,9.9-2.5c6.5,0,13,0,19.6,0.1c2.8,0,3.6-1.1,3.5-3.7
	c-0.1-4.5-0.2-9,0-13.5C332.8,189.5,331.7,188.1,327.9,188.2z M127.2,133c-0.6,0.6-1.5,0.9-2.4,0.9c-2.1,0-3.4,0.8-3.4,3.6
	c0,2.3,0.1,4.6,0.1,6.9c0,2.4-0.4,4.8-1.3,7.1c-0.9,2.2-1.9,3.3-3.2,3.3c-1.2,0-2.2-1-2.2-2.3c0-4.6,0-9.2,0.1-13.7
	c0-3.6-1.1-5-4.2-5c-1,0-2-0.4-2.7-1.1c-1.2-1.4-0.7-3,0.3-4.7c0.4-0.7,1.1-1.1,1.9-1.1c0.3,0,0.6,0,1,0c2.7,0.1,3.5-1,3.6-3.6
	c0.2-5.1,0.6-10.2,1.6-15.1c1.2-5.6,2.8-11,4.8-16.1c0.5-1.2,2-1.6,2.9-0.7c0.9,0.9,1.4,2.5,1.6,4.5c0.2,2.3,0,4.6-0.6,6.8
	c-1.8,6.2-2.9,12.7-3.5,19.3c-0.3,3.2,0.4,4.7,3,5c1.4,0.2,2.7,1,3.4,2.2C128.4,130.6,128.3,131.9,127.2,133z M269.1,132.1
	c-2.2,0.9-5,1.5-8.2,1.9c-5.5,0-11,0.1-16.6-0.1c-3.4-0.1-5.5,1.2-7.3,4c-3.7,5.4-7.7,10.7-11.5,16l0,0c-0.9,1.1-2.7,0.5-2.8-0.9
	c0,0,0-0.1,0-0.1c-0.1-5.1-0.1-10.2,0-15.2c0.1-2.6-0.9-3.6-3.6-3.6c-5.4,0.1-11,0.2-16.4,0c-3.6-0.1-4.4,1.4-4.4,4.6
	c0.2,11.1,0.1,22.2,0.1,33.3c0,0.8,0,1.6,0,2.4c0,1.2-1.5,1.9-2.4,1c-1.5-1.5-2.6-5.1-3.5-9.9c-0.7-4.2-1-8.4-1.1-12.7
	c0-4.8,0-9.6,0.1-14.5c0.1-3.3-1-4.3-4.2-4.2c-4.7,0.1-9.4,0-14.1,0c-8.9,0-7.9-1-7.9,7.7c-0.1,11.5,0,22.9-0.1,34.4
	c-0.1,6.5-3.4,9.8-9.1,9.6c-5.5-0.2-8.6-3.5-8.6-9.7c-0.1-12.6-0.1-25.2,0-37.8c0-2.5-0.4-3.8-2.4-4.2c-1.2-0.2-2.3-0.7-3.2-1.5
	c-1.7-1.6-2.7-3.3,0.4-4.9c0.6-0.1,1.2-0.3,1.7-0.4c2.7,0,3.4-1.1,3.6-3.8c0.9-11.9,4.5-22.7,11.6-32.4c6.8-9.3,15-16.1,24.9-20.5
	c6.9-3,15,1.1,16.4,8.5c3,15.8-9.3,41.8,3.1,40.9c17.8-0.6,2.8-25.2,7.1-42c2.2-8.7,11.2-13.3,19.6-10.1l0.1,0
	c25.3,9.6,40.2,27.9,42.2,55.4c0,0.4,0.1,0.8,0.2,1.1C273.5,127.5,272.1,130.8,269.1,132.1z M311.3,185.1c0.7,1.5-0.5,3.2-2.1,3.2
	c-1.8,0-3.7,0-5.5,0c-2.6,0.1-3.7-0.7-3.6-3.5c0.1-2.5,0.6-4,3.5-3.8c0.4,0,0.8,0,1.2,0C308.5,181.9,310.5,183.4,311.3,185.1z"/>
<path d="M271.2,230.8c-2.5,0.1-2.6,1.6-2.6,3.4c0,3.6-0.1,7.1,0,10.7c0.1,3.5-1.9,4.9-4.9,5c-3.2,0.2-3.4-2.3-3.4-4.6
	c0-3.7,0-7.6,0-11.3c0-2-0.5-3.2-2.8-3.2c-2.3,0-2.8,1.1-2.8,3.2c0,4.5-0.2,9,0.1,13.5c0.2,3,1.2,5,3,6c1.1,0.7,2,1.7,2.6,2.9
	c7.7,15.2-10.2,37.6,6.1,38.1c16.3-0.7-5.1-28.3,4.5-40.7c0.4-0.6,1.1-1,1.7-1.1c1.4-0.3,1.4-1.5,1.4-4.8c0-1.9,0-3.7,0-5.6
	c0-2.6,0-5.3,0.1-7.9C274.2,232.3,273.9,230.7,271.2,230.8z"/>
<path d="M318.5,242.3C318.5,242.3,318.5,242.3,318.5,242.3C318.7,242.3,318.6,242.3,318.5,242.3z"/>
<path d="M328.9,232.2c-3.8-2.8-10.3-1.9-13.3,1.7c-3.5,4.2-3.5,13.2,0.1,17.3c3.2,3.6,9.3,4.4,13.3,1.7c0.5-0.3,1-0.7,1.2-1.1
	c1.1-1.3,1.5-2.9,1-3.5c-0.9-1.1-2.3-1.6-4.2-0.1c-4.7,3.6-7.9,1.9-8.5-4.1c0-0.6-0.1-1.1-0.1-1.7c-0.1,0-0.1-0.1,0,0
	c0.3-3,1.1-5.2,2.8-6.7c0.8-0.8,3.8-0.2,5,0.8c2.1,1.7,4,1.8,5.2-0.1C331.9,235.8,330.1,233.2,328.9,232.2z"/>
<path d="M304.7,231c-0.9,0-2.5,1.5-2.6,2.4c-0.3,2.9-0.1,6-0.1,8.9c0,2.9-0.2,6,0,9c0.1,0.9,1.7,2.4,2.6,2.4c1,0,2.7-1.5,2.7-2.4
	c0.2-6,0.2-12,0-18C307.3,232.5,305.6,231,304.7,231z"/>
<path d="M306.9,221.6c-0.6-0.5-0.8-0.7-1.5-0.9c-1.7-0.3-3.6-0.1-3.2,2.4c0.2,1,1.4,2.6,2.3,2.7c0.8,0.2,1.5-0.1,2.2-0.6
	c0.7-0.5,1-1.2,0.9-2.1C307.6,222.8,307.2,221.9,306.9,221.6z"/>
</svg>
