<?xml version="1.0" encoding="utf-8"?>
<!-- Generator: Adobe Illustrator 23.0.6, SVG Export Plug-In . SVG Version: 6.00 Build 0)  -->
<svg version="1.1" id="Layer_1" xmlns="http://www.w3.org/2000/svg" xmlns:xlink="http://www.w3.org/1999/xlink" x="0px" y="0px"
	 viewBox="0 0 400 400" style="enable-background:new 0 0 400 400;" xml:space="preserve">
<path d="M215.7,140c-2.3,0-4.2,1.9-4.2,4.2c0,2.3,1.9,4.2,4.2,4.2c2.3,0,4.2-1.9,4.2-4.2C219.9,141.9,218,140,215.7,140z"/>
<path d="M187.3,147.1c0.7-0.8,1.2-1.8,1.2-2.9c0-2.6-2.4-4.7-5.1-4.1c-1.6,0.3-2.9,1.7-3.2,3.3c-0.3,1.5,0.2,2.8,1.1,3.7
	c1.1,1.2,1.8,2.8,1.8,4.4c0.5,8.8-3.9,26.2,1.1,25.7c7.2,0.4-0.7-14.8,1-26C185.5,149.7,186.2,148.3,187.3,147.1z"/>
<path d="M322.9,64L205.5,6.3c-3.5-1.7-7.6-1.7-11,0L77.1,64c-4.3,2.1-7,6.5-7,11.2v134.9c0,4.8,2.7,9.1,7,11.2l108,53
	c13.8,6.8,22.5,20.8,22.3,36.2c-0.4,27-14.7,56.6,8.2,58.2c19.1-0.8-0.2-34.6,6.5-69.4c3.9-20,17.2-36.8,35.4-45.8l65.5-32.2
	c4.3-2.1,7-6.5,7-11.2V75.2C329.9,70.4,327.2,66.1,322.9,64z M262.2,99.2c1.2-1.2,2.6-2.3,4.2-3.1c1-0.5,2.1-0.9,3.3-1.2
	c0.6-0.1,1.1-0.2,1.7-0.2c0.3,0,0.6,0,0.9,0c0.3,0,0.5,0.1,0.8,0.1c0.6,0.1,1.1,0.6,1,1.2c-0.1,0.5-0.5,0.9-1,1l0,0
	c-0.2,0-0.5,0-0.7,0.1c-0.2,0-0.4,0.1-0.6,0.1c-0.4,0.1-0.8,0.3-1.2,0.4c-0.8,0.3-1.5,0.8-2.2,1.3c-1.4,1.1-2.5,2.5-3.3,4.1
	c-0.9,1.6-1.6,3.3-2.1,5c-0.5,1.8-0.9,3.6-1.1,5.5c0,0.3-0.1,0.6-0.1,0.9C259.2,115.5,260.4,103.8,262.2,99.2z M194.5,236.4l0,0.4
	c0,0.1,0,0.3,0,0.4l-0.1,0.8c-0.1,0.5-0.2,1.1-0.3,1.6c-0.1,0.5-0.3,1-0.4,1.4c-0.2,0.5-0.7,0.9-1.2,0.8c-0.6-0.1-1.1-0.6-1-1.2v0
	c0.1-0.5,0.1-1,0.2-1.5c0-0.4,0-0.9,0-1.3l0-0.7c0-0.1,0-0.2,0-0.3l-0.1-0.3l-0.1-0.7c0-0.2-0.1-0.4-0.2-0.6c-0.2-0.8-0.6-1.6-1-2.3
	l-0.3-0.5l-0.2-0.3l-0.2-0.2l-0.4-0.5c-0.1-0.2-0.3-0.3-0.4-0.5c-1.1-1.2-2.6-2.1-4.1-2.8c-0.1-0.1-0.3-0.1-0.4-0.2
	c-0.6-0.2-1.2-0.6-1.5-1.2c-1.2-2,1.9-2.2,6-1.6c0.7,0.1,1.4,0.5,1.9,1c0,0,0,0,0,0c0.2,0.2,0.4,0.4,0.5,0.6
	c0.4,0.5,0.7,0.9,1.1,1.4c0.2,0.2,0.3,0.5,0.5,0.7l0.4,0.8l0.2,0.4l0.2,0.4l0.3,0.8c0.4,1.1,0.7,2.2,0.7,3.4c0,0.3,0.1,0.6,0.1,0.8
	L194.5,236.4z M297.9,198.8c-0.4,1.2-0.9,2.3-1.5,3.3c-0.6,1-1.2,2-1.9,2.8c-0.7,0.9-1.4,1.7-2.1,2.4l-0.6,0.6l-0.3,0.3
	c-0.1,0.1-0.2,0.2-0.3,0.3l-1.1,0.9c-1.5,1.3-3,2.4-4.5,3.5c-0.3,0.2-0.7,0.5-1,0.7c-2.3,1.5-5,2.2-7.6,1.6
	c-3.1-0.7-3.9-2.6-2.4-5.5c1.8-1.3,3.5-2.7,5-4.2c1.1-1.1,2.2-2.2,3.2-3.4l0.8-0.9c0.1-0.1,0.1-0.2,0.2-0.2l0.1-0.2l0.3-0.4
	c0.4-0.6,0.8-1.1,1.1-1.7c0.3-0.6,0.5-1.1,0.8-1.7c0.2-0.5,0.3-1,0.4-1.5c0.1-0.9,0-1.7-0.2-2.3c-0.3-0.6-0.7-1.2-1.3-1.8
	c-0.6-0.6-1.4-1.2-2.4-1.8c-2-1.1-4.5-1.8-7.2-2.2c-2.7-0.3-5.4-0.3-8.1,0.1c-2.7,0.4-5.3,1.2-7.7,2.3c-0.6,0.3-1.2,0.6-1.8,0.9
	l-0.8,0.5l-0.7,0.4l-0.5,0.2l-0.5,0.2c-0.7,0.3-1.4,0.6-2.1,0.8l0.3,0.2c0.3,0.2,0.9,0.6,1.2,0.9l0.2,0.1l1.4,1.1
	c0.2,0.2,0.5,0.4,0.7,0.6l0.7,0.6c0.4,0.4,0.9,0.8,1.3,1.2l1.3,1.3c0.3,0.3,0.7,0.8,1,1.1l0.3,0.3c0.4,0.5,0.8,0.9,1.2,1.4
	c1.5,1.9,2.9,4.1,3.9,6.7c0.1,0.3,0.3,0.6,0.4,1c0,0.1,0.1,0.2,0.1,0.3c0.2,0.5,0.3,1.1,0.5,1.6c0.1,0.6,0.3,1.2,0.4,1.8l0.1,1.2
	c0,0.1,0,0.1,0,0.2c0,0,0,0,0,0c0.6,5.6-1.7,10.1-7.3,15.3c-1.2,0.8-2.6,1.5-3.9,2c-2.7,1-5.4,1.3-8,1.2c-0.3,0-0.7,0-1-0.1l-1-0.1
	l-0.9-0.1c-0.1,0-0.2,0-0.3-0.1l-1.5-0.3c-0.2,0-0.3-0.1-0.5-0.1l-0.5-0.1l-1-0.3l-0.5-0.2c-0.2-0.1-0.3-0.1-0.4-0.2l-1.4-0.6
	l-0.2-0.1c-0.1,0,0.2,0.1-0.2-0.1l0,0l-0.1,0l-0.3-0.1l-0.5-0.2c-0.4-0.2-1.1-0.5-1.5-0.7c-0.4-0.2-0.7-0.3-1.1-0.4
	c-1.7-0.6-3.4-1.2-5.1-1.5c-3.5-0.8-7.1-1-10.6-0.5c-1.7,0.3-3.4,0.7-5,1.4c-1.6,0.7-3,1.6-4.1,2.8c-0.1,0.2-0.3,0.3-0.4,0.5
	l-0.4,0.5l-0.2,0.2l-0.2,0.3l-0.3,0.5c-0.4,0.7-0.8,1.5-1,2.3c0,0.2-0.1,0.4-0.2,0.6l-0.1,0.7l-0.1,0.3c0,0.1,0,0.2,0,0.3l0,0.7
	c0,0.4,0,0.9,0,1.3c0,0.5,0.1,1,0.2,1.5l0,0c0.1,0.6-0.4,1.2-1,1.2c-0.6,0.1-1.1-0.3-1.2-0.8c-0.1-0.5-0.3-0.9-0.4-1.4
	c-0.1-0.5-0.2-1.1-0.3-1.6l-0.1-0.8c0-0.1,0-0.3,0-0.4l0-0.4l0-0.8c0-0.3,0-0.6,0.1-0.8c0.1-1.1,0.4-2.3,0.7-3.4l0.3-0.8l0.2-0.4
	l0.2-0.4l0.4-0.8c0.1-0.2,0.3-0.5,0.5-0.7c0.3-0.5,0.7-0.9,1-1.4c0.2-0.2,0.4-0.4,0.6-0.7c0.2-0.2,0.4-0.4,0.6-0.6
	c0.9-0.8,1.8-1.5,2.7-2.1c1.9-1.2,4-2.2,6.1-2.9c4.3-1.3,8.7-1.7,13.1-1.4c2.2,0.1,4.4,0.5,6.5,0.9c0.5,0.1,1,0.2,1.5,0.4
	c0.5,0.1,1,0.3,1.5,0.4l1,0.3l0.4,0.1l0.1,0l0,0c-0.4-0.1-0.1,0-0.1-0.1l0.2,0l1.4,0.4c0.1,0,0.2,0,0.3,0.1l0.2,0l0.5,0.1l0.2,0
	c0.1,0,0.2,0,0.3,0l0.6,0c0.2,0,0.4,0,0.5,0l0.5,0l0.5,0c0.2,0,0.3,0,0.5-0.1c1.4-0.1,2.6-0.5,3.6-1.1c1-0.6,1.7-1.3,2.1-2
	c0.4-0.7,0.5-1.4,0.4-2.2c-0.1-0.7-0.4-1.6-0.9-2.6c-0.6-1-1.4-2-2.4-3c-2.1-2-4.8-3.8-7.9-5.3l-0.6-0.3l-0.6-0.3l-1.2-0.5
	c-0.8-0.4-1.6-0.7-2.4-1l-2.8-1.1l-1.4-0.6l-0.2-0.1l-0.2-0.1l-0.4-0.2l-0.8-0.4c-1-0.5-2-0.9-2.9-1.4c-6.1-2.8-19-7.9-30.5-7.9
	c-11.5,0-24.4,5.1-30.5,7.9c-0.9,0.5-1.9,0.9-2.9,1.4l-0.8,0.4l0,0l-0.4,0.2l-0.2,0.1l-0.2,0.1l-1.4,0.6l-2.8,1.1
	c-0.8,0.3-1.7,0.6-2.4,1l-1.2,0.5l-0.6,0.3l-0.6,0.3c-3,1.5-5.8,3.3-7.9,5.3c-1,1-1.8,2-2.4,3c-0.6,1-0.8,1.8-0.9,2.6
	c-0.1,0.7,0,1.4,0.4,2.2c0.4,0.7,1.1,1.4,2.1,2c1,0.6,2.2,1,3.6,1.1c0.2,0,0.3,0,0.5,0.1l0.5,0l0.5,0c0.2,0,0.4,0,0.5,0l0.6,0
	c0.1,0,0.2,0,0.3,0l0.2,0l0.5-0.1l0.2,0c0.1,0,0.2,0,0.3-0.1l1.4-0.4l0.2,0c0,0,0.1,0-0.1,0.1l0,0l0.1,0l0.4-0.1l0.8-0.3
	c0.5-0.2,1-0.3,1.6-0.4c0.5-0.1,1-0.3,1.6-0.4c2.2-0.5,4.3-0.8,6.5-0.9c3.3-0.2,6.6,0,9.9,0.6c0.9,0.2,1.4,1,1.1,1.9
	c-0.7,1.9-3.6,3.3-7.6,4.9c-0.6,0.2-1.2,0.4-1.9,0.6l-0.4,0.1c-1.7,0.4-3.5,0.9-5.1,1.5c-0.4,0.1-0.8,0.3-1.1,0.5
	c-0.4,0.2-1.1,0.5-1.5,0.7l-0.4,0.2l-0.3,0.1l-0.1,0l0,0c-0.4,0.1-0.1,0.1-0.2,0.1l-0.2,0.1l-1.4,0.6c-0.1,0-0.3,0.1-0.4,0.2
	l-0.5,0.2l-1,0.3l-0.5,0.1c-0.2,0-0.3,0.1-0.5,0.1l-1.5,0.3c-0.1,0-0.2,0-0.4,0.1l-1,0.1l-1,0.1c-0.3,0-0.7,0-1,0.1
	c-2.6,0.1-5.3-0.2-8-1.2c-2.7-1-5.4-2.8-7.3-5c-1.3-1.5-2-2.8-2.3-3.6c-0.2-0.4-0.5-0.8-1-0.9c-2.8-1-5.6-2.2-8.4-3.5
	c-3.3-1.5-6.6-3.4-9.7-5.5c-1.5-1.1-3.1-2.3-4.5-3.5l-1.1-0.9c-0.1-0.1-0.2-0.2-0.3-0.3l-0.3-0.3l-0.6-0.6c-0.7-0.8-1.4-1.6-2.1-2.4
	c-0.7-0.9-1.3-1.8-1.9-2.8c-0.3-0.5-0.5-1-0.8-1.6c-0.3-0.8-0.2-1.7,0.4-2.3c2.7-2.7,7.1-2.2,10.5-0.5c0.4,0.2,0.7,0.6,0.9,1
	c0.1,0.2,0.2,0.4,0.3,0.5c0.3,0.6,0.4,0.7,0.8,1.3l0.3,0.4l0.1,0.2c0,0.1,0.1,0.1,0.2,0.2l0.8,0.9c1,1.2,2.1,2.3,3.2,3.4
	c2.3,2.2,4.8,4.2,7.6,6.1c1.1,0.7,2.1,1.4,3.2,2.1c0.3,0.2,0.8,0,0.9-0.4l0.3-1.8c0.4-1.6,0.4-1.6,0.9-2.9c1.1-2.7,2.5-5,4.1-7
	c0.4-0.5,0.8-1,1.2-1.4l0.2-0.3c0.3-0.3,0.8-0.8,1-1.1l1.3-1.3c0.4-0.4,0.9-0.8,1.4-1.2l0.7-0.6c0.2-0.2,0.5-0.4,0.7-0.6l0.8-0.6
	l0.5-0.4l1.3-0.9c0.2-0.1,0.2-0.5-0.1-0.6c-0.5-0.2-1-0.4-1.5-0.6l-0.5-0.2l-0.5-0.2l-0.7-0.4l-0.8-0.5c-0.6-0.3-1.2-0.6-1.8-0.9
	c-2.4-1.1-5-1.9-7.7-2.3c-2.7-0.4-5.5-0.5-8.1-0.1c-2.6,0.3-5.2,1.1-7.2,2.2c-0.2,0.1-0.4,0.2-0.5,0.3c-1.4,0.9-2.9,1.5-4.6,1.6
	c-4.5,0.2-6.8-2.8-5.1-10.1c0.3-1.4,1.1-2.6,2.2-3.5l0,0c3.8-2.8,7.8-4.6,12-5.6c0.3-0.1,0.7-0.2,1-0.2c-1-1.4-2-2.7-2.9-4.2
	c-1.8-2.9-3.2-6.1-4.2-9.4c-1-3.3-1.4-7-1-10.5c0.4-3.5,1.8-7,3.8-9.7c1-1.4,2.1-2.6,3.3-3.7l0.9-0.8c0.3-0.2,0.6-0.5,0.9-0.7
	l1.1-0.8l1-0.6c0.4-0.3,1-0.3,1.4,0.1c0.5,0.4,0.5,1.2,0,1.6l-0.8,0.8l-0.7,0.8l-0.7,0.9l-0.7,0.9c-0.8,1.2-1.6,2.4-2.1,3.7
	c-1.1,2.5-1.6,5.2-1.4,7.8c0.2,2.6,1,5.1,2.2,7.5c1.2,2.4,2.8,4.6,4.6,6.7c0.9,1,1.9,2,2.9,2.9c0.2,0.2,0.5,0.4,0.7,0.7l0.5,0.3
	c0.5,0.3,1,0.6,1.6,1c2.2,1.2,4.7,2.2,7.1,2.8c2.1,0.5,4.2,0.8,6.2,0.8c0.7,0,1.4,0.3,1.7,0.9c5.1,8.1-3.3,19.8,2.8,20.1
	c6.4,0.1-3.9-16.4,3.7-22.6c-0.5-0.1-0.9-0.1-1.4-0.2c-1.4-0.3-2.9-0.7-4.4-1.3c-1.5-0.6-2.9-1.4-4.2-2.4c-1.3-1-2.5-2.2-3.5-3.5
	c-1-1.3-1.8-2.6-2.4-4c-0.6-1.4-1.1-2.7-1.4-4c-0.3-1.3-0.5-2.6-0.7-3.9c-0.3-2.5-0.2-4.9,0-7.2l0.1-0.9l0.1-0.9
	c0-0.3,0.1-0.6,0.1-0.9l0.1-0.7l0.1-0.4l0-0.2l0-0.1l0,0l0,0c0,0,0-0.2,0-0.1l0.1-0.7l0.2-1.4c0.3-1.9,0.6-3.8,0.8-5.8
	c0.1-1,0.2-1.9,0.3-2.9c0.1-1,0.1-1.9,0.2-2.9c0.1-1.9,0.1-3.8,0.1-5.7c0-1-0.1-1.9-0.1-2.8c-0.1-0.9-0.2-1.9-0.3-2.8
	c-0.2-1.9-0.6-3.7-1.1-5.5c-0.5-1.8-1.2-3.5-2.1-5c-0.9-1.6-2-3-3.3-4.1c-0.7-0.6-1.4-1-2.2-1.3c-0.4-0.2-0.8-0.3-1.2-0.4
	c-0.2-0.1-0.4-0.1-0.6-0.1c-0.2,0-0.5-0.1-0.7-0.1l0,0c-0.5-0.1-0.9-0.5-1-1c-0.1-0.6,0.4-1.2,1-1.2c0.3,0,0.5-0.1,0.8-0.1
	c0.3,0,0.6,0,0.9,0c0.6,0,1.2,0.1,1.7,0.2c1.1,0.2,2.2,0.6,3.3,1.2c2.1,1.1,3.8,2.6,5.3,4.3c1.5,1.7,2.7,3.6,3.7,5.6
	c1,2,1.8,4,2.5,6.1c0.4,1,0.6,2.1,0.9,3.1c0.3,1,0.5,2.1,0.7,3.1c0.4,2.1,0.8,4.2,1,6.3c0.3,2.1,0.4,4.2,0.6,6.3
	c0.1,2.1,0.2,4.2,0.2,6.3l0,1.6v0.8c0,0.1,0-0.1,0-0.1v0v0v0.1l0,0.2l0,0.4l0,0.8c0,0.2,0,0.4,0,0.6l0,0.6l0,0.7
	c0.1,1.7,0.4,3.4,0.8,4.9c0.2,0.7,0.4,1.4,0.7,2c0.3,0.6,0.6,1.1,0.9,1.6c0.6,0.9,1.3,1.3,1.9,1.6c0.7,0.3,1.5,0.5,2.6,0.5
	c1.1,0,2.4-0.1,3.9-0.4c0,0,0,0,0,0c0.7-0.1,1.3-0.4,1.9-0.8c1-0.7,2.2-1.9,2.5-3.9c0.3-1.8-0.5-3.7-1.7-5c-1.3-1.4-3.1-2.6-5.8-3
	c0,0-8.2-64.2,43.6-105.5c0.1-0.1,0.3-0.1,0.4,0c4.1,3.3,7.1,7.8,8.4,12.9c6.2,22.6-11.8,47.3,6.8,49.9c15.7-0.1-8.5-44.3,5.9-40.5
	c28.1,38.8,22.3,83.3,22.3,83.3c-3.9,0.6-6,2.8-7.2,4.9c-1.1,3.7,0.6,5.8,2,6.9c1.5,1.2,2.5,2.9,2.8,4.8c0.8,5-1.6,10.1,2.2,10.4
	c4.6-0.1-1.1-6.9,3.8-14.4c0.6-0.3,1.1-0.7,1.6-1.5c0.3-0.4,0.6-1,0.9-1.6c0.3-0.6,0.5-1.3,0.7-2c0.4-1.5,0.7-3.1,0.8-4.9l0-0.7
	l0-0.6c0-0.2,0-0.4,0-0.6l0-0.8l0-0.4v-0.2l0-0.1v0v0c0,0,0,0.1,0,0.1v-0.8l0-1.6c0-2.1,0.1-4.2,0.2-6.3c0.1-2.1,0.3-4.2,0.6-6.3
	c0.3-2.1,0.6-4.2,1-6.3c2.6-3,5.9,3.9,8.5,11.7c0,0.2,0,0.5,0.1,0.7c0.2,1.9,0.5,3.8,0.8,5.8l0.2,1.4l0.1,0.7c0,0,0,0.1,0,0.1l0,0
	l0,0l0,0.1l0,0.2l0.1,0.4l0.1,0.7c0,0.3,0.1,0.6,0.1,0.9l0.1,0.9l0.1,0.9c0.2,2.3,0.2,4.7,0,7.2c-0.1,1.3-0.3,2.5-0.7,3.9
	c-0.3,1.3-0.8,2.7-1.4,4c-0.6,1.4-1.4,2.7-2.4,4c-1,1.3-2.2,2.5-3.5,3.5c-1.3,1-2.8,1.8-4.2,2.4c-1.5,0.6-2.9,1-4.4,1.3
	c-0.5,0.1-0.9,0.2-1.4,0.2c0.1,0,0.2,0.1,0.3,0.1c2.2,0.8,4.5,1.3,6.9,1.4c2.4,0.1,4.8-0.1,7.3-0.7c2.4-0.6,4.9-1.6,7.1-2.8
	c0.6-0.3,1.1-0.7,1.6-1l0.2-0.1c0,0,0,0,0,0c0,0,0,0,0,0c0.1-0.1-0.1,0.1-0.1,0.1l0,0l0,0c0.1-0.1,0.2-0.2,0.3-0.3
	c0.2-0.2,0.5-0.4,0.7-0.7c1-0.9,2-1.9,2.9-2.9c1.8-2.1,3.4-4.3,4.6-6.7c1.2-2.4,2-4.9,2.2-7.5c0.2-2.6-0.3-5.3-1.4-7.8
	c-0.6-1.3-1.3-2.5-2.1-3.7l-0.7-0.9l-0.7-0.9l-0.7-0.8l-0.8-0.8c-0.4-0.5-0.4-1.2,0-1.6c0.4-0.4,1-0.4,1.4-0.1l1,0.6l1.1,0.8
	c0.3,0.2,0.6,0.5,0.9,0.7l0.9,0.8c1.2,1.1,2.3,2.3,3.3,3.7c2,2.7,3.4,6.1,3.8,9.7c0.4,3.6,0,7.2-1,10.5c-1,3.4-2.5,6.5-4.2,9.4
	c-0.9,1.4-1.8,2.8-2.9,4.2c0.3,0.1,0.7,0.2,1,0.3c4.1,1.1,8.2,2.8,12,5.6c1.9,1.4,3.7,3.1,5.2,5.3c1.5,2.1,2.6,4.8,3,7.6
	C299.1,193.6,298.7,196.4,297.9,198.8z"/>
</svg>
