<?xml version="1.0" encoding="utf-8"?>
<!-- Generator: Adobe Illustrator 23.0.6, SVG Export Plug-In . SVG Version: 6.00 Build 0)  -->
<svg version="1.1"
	 id="svg2985" xmlns:cc="http://creativecommons.org/ns#" xmlns:dc="http://purl.org/dc/elements/1.1/" xmlns:inkscape="http://www.inkscape.org/namespaces/inkscape" xmlns:rdf="http://www.w3.org/1999/02/22-rdf-syntax-ns#" xmlns:sodipodi="http://sodipodi.sourceforge.net/DTD/sodipodi-0.dtd" xmlns:svg="http://www.w3.org/2000/svg"
	 xmlns="http://www.w3.org/2000/svg" xmlns:xlink="http://www.w3.org/1999/xlink" x="0px" y="0px" viewBox="0 0 400 400"
	 style="enable-background:new 0 0 400 400;" xml:space="preserve">
<path d="M210.5,36.3c-27.7,0-53.1,9.2-73.6,24.7c-1.1,0.8-2.5,0.7-3.5-0.2c-31.2-30.6-62-59-65.4-55.6C67.3,6,68,8,69.9,11
	c11.8,26.4-6.8,56,6.3,56.5c14.8,0.4-6.1-51.1,4-43.4c10.5,12.1,26.4,28.7,43,45.4c1,1,1,2.7,0,3.7c-21.2,21.7-34.3,51.3-34.6,84.1
	C88.1,224.7,142.9,280,210.5,280c67.1,0,121.6-54.3,121.8-121.4C332.5,91.4,277.7,36.3,210.5,36.3z M265.6,259.8
	c-4.6,4.6-10.3,8-16.4,10.2c-12.2,4.2-25.4,6.5-39,6.5c-65.5,0-118.4-52.5-118.9-117.9c-0.3-32.3,12.4-61.7,33.1-83.3
	c1.3-1.3,3.4-1.3,4.7-0.1c4.7,4.7,9.5,9.5,14.2,14.1c1.4,1.4,1.6,3.7,0.3,5.2l-22.8,28.6c-2.2,2.8-3.2,6.4-2.7,9.9
	c0.1,1,0.3,2.2,0.5,3.3c1.1,7.2,2.6,13.9,4.5,20.2c0.9,2.9,1.5,5.9,1.9,9c4.3,35.8-5.9,55.7,6.6,55.3c11.8,0.9,2.1-31.1,1.6-38.2
	c-0.1-1.4,0.4-2,1-0.9c0.9,1.5,1.9,3.1,2.9,4.6c0.1,0.2,0.2,0.4,0.5,0.7c9.8,14.2,23.4,26.7,41.8,39.2c23.9,16.2,58.3,26.1,82,20.9
	c1.2-0.3,2.3-0.5,3.5-0.5C272.7,246.2,273.6,251.8,265.6,259.8z M210.1,184.6c0.1,1,0.1,2,0.1,2.9c-0.2,2.6-1.6,5-4,6.1
	c-6.7,2.9-8-9.5-4.6-15.7c0.1-0.2,0.3-0.3,0.4-0.5c1.7-2.9-1-7.6-6.1-10.5c-5-2.9-10.4-2.9-12.1,0c-1.2,2.1-0.1,5.2,2.6,7.8
	c8.5,8.1,7.8,17.3,1.2,16.4c-0.9-0.1-1.8-0.5-2.7-1c-8.9-5.2-18.1-13.5-23.8-22.9c-3.2-5.3-5.8-11.3-7.8-17.6
	c-3.3-16.6,3.8-30.7,10.2-34.8c2.1-1.4,5-1,6.8,0.7c13.8,13.3,23.3,22.3,23.3,22.3l24.7,23.5c1.4,1.4,2.5,3.1,3,5
	c1,4.1,0.3,6.9-2.8,9.6c-1.2,1.1-2.5,1.9-4,2.6C211.6,180.3,209.9,182.3,210.1,184.6z M148.9,118c-0.6-0.6-0.8-1.4-0.8-2.2
	c-0.1-6.2,0.3-12.3,1-17.9c0.1-1,1.3-1.4,2-0.7c1.2,1.2,2.4,2.3,3.6,3.5C159.7,106.3,152.8,122,148.9,118z M229.8,172.5L229.8,172.5
	c0.4,0.4,0.6,0.8,0.6,1.3c0,0.3,0,0.5,0,0.8c0,0.5-0.4,0.9-0.9,0.9c-1.3,0.1-2.5,0.2-3.7,0.3c-3.3,0.1-1-5,2.4-4.2
	C228.8,171.7,229.4,172.1,229.8,172.5z M293.4,240.1c-7.4,2.9-10.3-1.9-8.7-10c0.2-0.9,0.5-1.8,0.8-2.7c1.5-4.2,2.3-9.2,2.2-14.9
	c-0.3-12.6-7.2-21.5-16.7-27.4c-2.1-1.3-4.2-2.7-6.2-4.3c-4.3-3.5-9.4-6.3-14.8-8.6c-2.8-1.2-5.5-1.9-8.2-2.6c-3.8-1-7.2-3-9.8-5.9
	L201.7,130c0,0-30.6-32-62.7-63.6c-1.3-1.3-1.1-3.4,0.3-4.5c13-9.7,28.1-16.7,44.4-20.4c3.1-0.7,6.3-0.9,9.4-0.4
	c32.1,4.8-3.9,66.4,15.1,66.7c19.7-0.3-10.4-56.4,16.2-65.9c3.4-1.2,7.2-1.4,10.8-0.6c53.6,11.5,93.8,59.2,93.8,116.3
	c0,29.6-10.8,56.7-28.7,77.5C298.4,237.3,296.1,239,293.4,240.1z"/>
</svg>
