<?xml version="1.0" encoding="utf-8"?>
<!-- Generator: Adobe Illustrator 23.0.6, SVG Export Plug-In . SVG Version: 6.00 Build 0)  -->
<svg version="1.1" id="Layer_1" xmlns="http://www.w3.org/2000/svg" xmlns:xlink="http://www.w3.org/1999/xlink" x="0px" y="0px"
	 viewBox="0 0 400 400" style="enable-background:new 0 0 400 400;" xml:space="preserve">
<path d="M171.4,111.1c1.7-5.4,1.6-6,2.4-9c1-3.5,1.8-7.1,2.9-10.5c1.5-5.1,3-10.3,4.9-15.3c1.8-4.7,5.1-8.4,10-10.3
	c4.6-1.8,9.4-2.2,14.3-1c7.3,1.9,11.2,6.9,13.4,13.7c1.6,5,3.1,10,4.6,15.1c0.9,3.2,1.8,6.5,2.5,9.7c1.3,6.1,2.2,10.7,7,14.8
	c1.1,1,4.2,2,5.7,2c8.1,0,16.2,0,24.3-0.1c1.1,0,2.2-0.3,3.2-0.9c5.5-3.3,8.8-8.1,10.2-14.5c0.8-4,1.9-8,2.8-12
	c0.9-3.9,1.6-7.8,2.5-11.7c0.9-3.6,1.7-7.2,3.6-10.5c3.4-5.9,9.5-7.6,15.4-5.9c3.8,1.1,6.8,3.3,8.5,6.9c0.6,1.3,1,2.7,1.1,4.1
	c0.2,3.8-0.2,7.6-1.2,11.3c-1,3.7-1.7,7.6-2.6,11.3c-0.9,3.7-1.9,7.4-2.8,11.1c-0.7,2.7-1.3,5.4-1.9,8.2c-0.3,1.2,0.6,2.4,1.8,2.4
	c0,0,0.1,0,0.1,0c8.9,0,17.9,0,26.8,0c1.2,0,2.6,0.2,3.7,0.7c2.1,1,3.5,3.5,3.2,5.5c-0.4,2.4-1.5,4.4-4.2,4.9
	c-1.8,0.3-3.6,0.5-5.3,0.4c-1.8-0.1-3,0.6-3.9,2c-2.9,4.2-4.6,8.9-4.1,14c0.1,1.6,0.7,3.1,1.2,4.7c0.4,1.1,1.2,1.6,2.4,1.5
	c2.7,0,5.3,0,8,0c2.7,0.1,4.6,1.3,5.6,3.9c1.1,3-0.6,6.6-3.7,7.2c-1.9,0.4-3.9,0.5-5.9,0.5c-2.1,0-3.3,0.8-4.2,2.6
	c-1.9,3.8-1.8,7.7-0.8,11.7c0.9,3.5,2.3,6.8,3.1,10.3c2.1,8.9-3.6,16.9-12.9,16.5c-7.1-0.3-11.8-5.4-12.5-12.2
	c-0.5-4.8,0.5-9.5,1.2-14.2c0.4-2.9,0.5-5.8-0.3-8.6c-0.9-3.4-4.2-6-7.3-5.9c-0.6,0-1.2,0-1.9,0c-1.2,0-2.2,0.8-2.5,2
	c-0.2,0.7-0.3,1.3-0.5,2c-1,3.9-2,7.7-2.9,11.6c-0.9,3.5-1.6,7-2.5,10.5c-0.9,3.7-1.9,7.4-2.8,11.1c-0.9,3.6-1.7,7.3-2.6,11
	c-1.4,5.2-3.1,10.3-4.3,15.5c-1,3.9-3,7.2-5.2,10.5c-3.8,5.5-4.3,11.4-2.4,17.8c1.1,3.9,2.1,7.8,1.2,11.9c-1.2,5.3-6.3,8.9-11.7,8.5
	c-5.7-0.4-9.5-4.1-10.4-9.8c-0.6-3.6,0.1-7.2,0.6-10.7c0.8-5.5,0.3-10.8-2-15.8c-0.7-1.4-1.8-2.7-2.8-3.9c-1.9-2.3-3-5-3.9-7.9
	c-1.5-4.9-3.1-9.7-4.5-14.6c-0.9-3.2-1.7-6.5-2.6-9.7c-1.4-5.2-2.9-10.5-4.3-15.7c-0.9-3.3-1.7-6.7-2.6-10.1
	c-0.8-3.2-1.7-6.4-2.6-9.5c0,0,0,0,0,0c-0.2-0.8-1.2-1.1-1.9-0.7c-5.1,3-9.1,6.7-10.4,12.8c-0.5,2.6,0.4,5,0.7,7.6
	c0.3,2.7,0.6,5.4,0.4,8.1c-0.3,3.9-3.6,7.1-7.6,8.1c-4.3,1.1-8.9-0.8-10.8-4.1c-1.6-2.7-1.9-5.7-1.6-8.7c0.4-3.6,0.9-7.2,1.2-10.9
	c0.2-3.4-1.1-6.5-3.2-9.2c-1.4-1.8-3.2-3-5.4-3.5c-1.7-0.4-2.2,0-2.7,1.6c-0.6,1.9-1,3.9-1.6,5.9c-1.5,5.3-3,10.7-4.5,16
	c-0.8,3.1-1.6,6.1-2.5,9.2c-0.9,3.3-1.8,6.6-2.7,9.9c-0.9,3.3-1.8,6.7-2.9,10c-1.4,4.4-2.3,9-4.7,13c-2.2,3.7-5.2,6.8-9.5,8
	c-3,0.8-6.1,1.4-9.3,0.8c-2.2-0.4-4.4-0.6-6.5-1.7c-3.1-1.8-5.2-4.4-6.8-7.4c-2.6-5-3.9-10.4-5.2-15.7c-1.2-4.9-2.5-9.8-3.8-14.8
	c-0.1-0.4-0.2-0.9-0.3-1.3c-0.6-3.3-2.6-5.8-4.6-8.3c-10.6-13.3-23.7-23-39.8-28.6c-1.6-0.6-3.6-0.3-5.3-0.6
	c-1.5-0.3-3.1-0.6-4.4-1.3c-2.2-1.2-3.1-4.1-2.1-6.5c0.3-0.7,0.7-1.3,1-2c0.5-1,1.1-2.1,1.3-3.2c1-5.3,1.2-10.7,0.5-16.1
	c-0.1-0.7-0.2-1.4-0.3-2.1c-0.1-1.9-0.7-3.6-1.8-5.1c-2.8-3.8-0.4-7.5,2.3-8.7c1-0.4,2.2-0.5,3.4-0.5c8.9,0,17.7,0,26.6,0
	c0.7,0,1.5-0.1,2.6-0.1c-0.3-1.4-0.5-2.7-0.8-3.9c-1-4-1.9-8.1-2.9-12.1c-0.8-3.4-1.8-6.7-2.6-10.1c-1.2-5.1-2.5-10.2-2.7-15.5
	c-0.3-5.8,2.2-10,7.2-12.6c4.4-2.3,8.9-2.2,13.4-0.1c2.6,1.2,3.8,3.6,4.8,6.1c1.8,4.5,3.1,9.1,4.1,13.8c1.2,5.6,2.5,11.2,3.8,16.7
	c1,4.6,2,9.1,3,13.7c0.4,1.9,2.3,3.8,4.3,4.1c0.9,0.1,1.7,0.2,2.6,0.2c9.2,0,21.8,0.1,27.6,0S169.7,116.5,171.4,111.1z M85.4,132
	c-1.2,0-2.2,1-2.1,2.2c0.1,2.4,0.4,4.6,1.1,6.8c1.3,3.8,3.4,7,7,8.9c4.5,2.4,9.5,2.9,14.5,3.1c0.1,0,0.1,0,0.2,0
	c0.4-0.2,0.6-0.6,0.5-1c-1.3-6.1-2.9-12.2-4.4-18.2c-0.2-1-1.1-1.7-2.2-1.7H85.4z M253.5,165.8C253.5,165.8,253.5,165.8,253.5,165.8
	c-1.8,0-3.6,0-5.4,0c-1,0-2.3,0.9-2.7,1.8c-0.8,1.7-0.7,2.9-0.3,4.8c0.7,3,1.5,5.9,2.3,8.9c1,3.6,2,7.2,3,10.8
	c0.7,2.4,1.4,4.8,2.2,7.1c0.2,0.5,0.9,1,1.3,1c0.5,0,0.7-0.4,1.2-0.8c0.1-0.1,0.4-0.7,0.4-0.9c0.6-2.7,1.2-5.4,1.8-8.1
	c1.1-5,2.3-9.9,3.4-14.9c0.4-1.7,0.8-3.4,1.1-5.1c0.5-3.2-0.7-4.7-4-4.7C256.4,165.8,254.9,165.8,253.5,165.8z M146.3,198.8
	c1.5-0.7,1.8-1.2,2.6-4c1-3.5,1.9-7.1,2.9-10.7c1.2-4.4,2.4-8.8,3.5-13.2c0.8-3.1-0.8-5-4-5.1c-1.8-0.1-3.1-0.1-5.9-0.1
	s-4,0.9-5.8,2.4c-1.3,1.1-1.5,2.3-1.1,3.9c1,4,1.9,8.1,2.8,12.1c0.9,3.8,1.6,7.7,2.5,11.5C144.2,197.1,144.9,198.2,146.3,198.8z
	 M164.1,131.9c-0.3,0-0.6,0-0.9,0c-2.9,0.2-5.9,0.3-8.8,0c-2.1-0.2-3.3,0.6-4.4,2.1c-1.5,2.2-2.4,4.6-2.8,7.2
	c-0.6,3.9-0.7,7.8,0.5,11.7c0.1,0.5,0.8,1.1,1.3,1.1c2.9,0.1,5.7,0.1,8.7,0.1c1.3,0,2.4-0.8,2.7-2.1c1.6-6,3.3-12.1,5-18.3
	C165.6,132.8,165,132,164.1,131.9z M293.9,153.2c0.3,0.2,0.6,0.2,0.9,0.2c0.4-0.1,0.7-0.1,1-0.2c2.1-0.6,3.7-2,5-3.8
	c2-2.7,2.9-5.9,3-9.3c0.1-2.3-0.5-4.6-1.9-6.6c-0.4-0.6-1-1.1-1.6-1.3c-1.1-0.4-2.2,0.3-2.5,1.4c-1.6,6.4-3,12.3-4.6,18.6
	c0,0,0,0.1,0,0.1C293.3,152.6,293.5,153,293.9,153.2L293.9,153.2z M270.1,133.5c0.2-0.8-0.4-1.6-1.3-1.6c-2.1,0-3.9,0-5.8,0
	c-2,0-2.3,0.2-2.7,2.1c-1.1,6.2,0.5,11.8,4.2,16.8l0,0c0.5,0.6,1.5,0.4,1.6-0.4C267.6,144.7,268.8,139.2,270.1,133.5z M215.6,152.3
	c-1.6-6-3.2-11.9-4.8-17.8c-0.2-0.6-1-0.8-1.4-0.3c0,0,0,0,0,0c-4.2,5.1-4.2,13.9,0,18.9c0.3,0.4,0.9,0.9,1.4,1
	c1.2,0.1,2.3,0.1,3.6,0.1C215.2,154,215.8,153.2,215.6,152.3z M189.1,136.1c-1.4,4-3.3,11.2-4,14.9c-0.2,1,0.9,1.7,1.8,1.1
	c5.5-3.7,7.2-10.6,3.6-16.2C190.1,135.5,189.3,135.5,189.1,136.1z M234.6,133.7c0.5,1.7,0.9,3.3,1.4,4.9c0.3,1.2,1.7,1.9,2.8,1.4
	c0.9-0.4,1.6-1.1,2.1-2c1-1.8,0-4.2-1.3-5.4c-1.1-1-2.4-0.9-3.8-0.7C234.9,132,234.3,132.9,234.6,133.7z M109.1,171
	c1,0.5,2.1-0.4,1.9-1.4c-0.1-0.9-0.5-1.7-0.7-2.6c-0.3-1.1-1-1.4-2.4-1.3c-1.1,0.1-1.5,0.8-1.4,1.8c0.1,0.8,0.4,1.6,0.9,2.2
	C107.9,170.2,108.5,170.7,109.1,171z M130.5,135.4c0.1,0.3,0.6,0.3,0.6,0l0.4-2.4c0.1-0.4-0.3-0.8-0.7-0.8h-0.5
	c-0.4,0-0.7,0.4-0.6,0.8L130.5,135.4z"/>
</svg>
