<?xml version="1.0" encoding="utf-8"?>
<!-- Generator: Adobe Illustrator 23.0.6, SVG Export Plug-In . SVG Version: 6.00 Build 0)  -->
<svg version="1.1"
	 id="svg4" xmlns:cc="http://creativecommons.org/ns#" xmlns:dc="http://purl.org/dc/elements/1.1/" xmlns:inkscape="http://www.inkscape.org/namespaces/inkscape" xmlns:rdf="http://www.w3.org/1999/02/22-rdf-syntax-ns#" xmlns:sodipodi="http://sodipodi.sourceforge.net/DTD/sodipodi-0.dtd" xmlns:svg="http://www.w3.org/2000/svg"
	 xmlns="http://www.w3.org/2000/svg" xmlns:xlink="http://www.w3.org/1999/xlink" x="0px" y="0px" viewBox="0 0 400 400"
	 style="enable-background:new 0 0 400 400;" xml:space="preserve">
<path d="M122.1,158.2c0-25.2-0.7-50.4-0.7-75.6v-1c0-1.7-1.3-3-3-3c-5.7,0-11.6,0-17.5,0c-2.8,0-5.3,0.3-8.1,0.7
	c-10.6,1.4-15.8,6.4-17.7,17.1c-0.5,3.1-0.4,6.2-0.5,9.4c-0.1,5.9,0.1,11.9,0,17.8c-0.1,6.7-3.7,12.1-9.9,13.5
	c-1.3,0.3-2.3,1.4-2.3,2.7l0,6.6c0,2.1,0.9,3.2,2.2,3.5c7,1.6,9.4,5.2,9.9,12.6c0.1,1.3,0.1,2.6,0.1,3.9c0.1,7.2,0,14.5,0.3,21.7
	c0.3,6.8,1.8,12.8,8.2,16.3c5.3,2.9,12.4,3.5,17,3.7c0.9,0,1.6-0.7,1.6-1.5v-9.4c0-0.8-0.5-1.6-1.2-2c-13.8-7.9,0.6-18.1,16.2-13.4
	c3.8,1.5,7.8,2.2,12.1,3.1c1.3,0.3,2.6-0.6,2.8-2c0.4-3,0.7-5.8,1.1-8.5c0.2-1.4-0.7-2.7-2-3.1C123.4,168.8,122.1,166.9,122.1,158.2
	z M108.3,95.5c0,15.8-0.4,31.6-0.6,47.4l0,0C106.8,155.7,99,179,91.3,165c-1.3-2.3-2-4.9-2.4-7.6c-0.8-5.3-2.9-10.1-7.9-13.7
	c-0.6-0.4-0.6-0.4,0-0.8c4.8-3,7.4-7.7,8-13.3c0.4-3.1,0.5-6.3,0.6-9.4c0.1-6.5,0-13,0.2-19.5c0.1-4.6,3-7.9,6.7-8.6
	c2.6-0.5,4.3-0.6,7.6-0.8c2.3-0.1,4.3,1.7,4.3,4.1V95.5z"/>
<path d="M334.9,137c-3.3-0.2-6.2-2.1-7.6-5.3c-1.3-2.8-1.9-6.2-2.1-9.3c-0.3-7.8-0.1-15.6-0.4-23.3c-0.3-7-2.8-13.2-9.5-16.8
	c-5.3-2.8-11.3-3.4-17.1-3.5c-1.2,0-2.1,0.9-2.1,2.1l0,7.4c0,1.6,1.3,3,2.9,3.1l1,0c8.8,0.4,10,3.2,10.2,11.9c0.1,6.5,0,13,0.1,19.5
	c0.1,7.9,1.3,15.4,8.5,20.3c0.1,0.1,0.8,0.4,0.2,0.8c-3.7,2.6-6.6,6-7.4,10.5c-0.7,3.7-1.1,7.5-1.2,11.2c-0.2,6.8,0,13.6-0.2,20.4
	c0,0.7-0.1,1.3-0.2,1.9c-2.1,4.7-6,3.9-8.8,1c-2.8-3-4.5-8.2-2.1-12.1c2.4-3.8,3.3-5.4,3.6-8.7c1.1-11-2.3-17.2-12.1-22
	c-3.5-1.7-7.2-3-10.7-4.5c-2.7-1.2-5.3-2.4-7.8-3.9c-2.4-1.5-3.4-3.9-3.1-6.7c0.4-2.8,2.1-4.6,4.7-5.1c3.1-0.6,6.4-1.2,9.6-0.9
	c3.5,0.3,7,1.1,10.6,1.8c1.6,0.3,3.1-0.7,3.5-2.3l1.7-7.3c0.3-1.4-0.6-2.8-2-3c-5.2-0.9-10.2-1.8-15.2-2.2
	c-6.5-0.5-12.9,0.6-18.8,3.6c-12.6,6.5-12.8,26.4-1.3,33c1.5,0.9,3.1,1.6,4.6,2.4c6.9,4.2,4.4,18-9.2,17.8c-1.6,0-2.9,1-3.2,2.6
	l-1.5,7.3c-0.3,1.5,0.6,3,2,3.4c7.7,2.6,12.5,2.7,23.2,2.9c13.3,0.2,16.7,8.2,18,19.4c0.2,2.1,2,3.7,4.1,3.7
	c30.3,0.8-6.7,62,14.2,61.7c22-0.3-5.2-39.3,8.5-72.9c0.1-0.2,0.2-0.4,0.3-0.7c0.2-0.4,0.3-0.8,0.5-1.3l-0.1,0.1
	c0.6-1.7,1.1-3.5,1.3-5.6c0.4-3.4,0.4-6.9,0.4-10.4c0.1-6.5,0.1-13,0.7-19.4c0.5-5.7,4.1-9.1,9.3-9.8c1.5-0.2,2.6-1.3,2.6-2.8v-7.3
	C337.5,138.3,336.4,137.1,334.9,137z M286.8,166.7c-0.7,3-3,4.3-5.6,4.6c-1.9,0.2-3.8,0.4-5.8,0.4c-9.8-0.3-1.8-12,6.2-12.4
	c2.2-0.1,4.2,1.1,5,3.1C287.1,163.7,287.2,165.1,286.8,166.7z"/>
<path d="M240.7,147.4c-4.3-2.3-8.9-3.9-13.3-5.9c-2.7-1.3-5.6-2.3-8.1-4.1c-4.6-3.3-3.8-9.8,1.6-11.5c3.1-1,6.6-1.3,9.9-1
	c3.6,0.3,7.1,1.1,10.8,1.8c1.5,0.3,2.9-0.6,3.2-2.1l1.6-7c0.3-1.4-0.5-2.8-1.9-3.2c-1.4-0.4-2.8-0.8-4.2-1.1
	c-8.7-1.8-17.4-2.5-25.9,0.5c-7.3,2.6-12.4,7.4-13.4,15.5c-1.1,9.1,1.9,16.2,10.2,20.5c3.4,1.7,6.9,3,10.4,4.6
	c3.4,1.6,6.9,3.1,10.1,5.1c2.4,1.5,3.4,4.1,2.7,7.1c-0.7,3-2.8,4.5-5.5,4.7c-3.7,0.4-7.5,0.7-11.3,0.4
	c-16.4-2.9-20.1-16.4-21.4-27.7c-0.2-4.9-0.9-10.2-2.7-14.8c-2.5-6.7-6.8-11.3-13.3-14.4c-16-7.7-35.5-1-42.9,15.1
	c-5.6,12.1-5.4,24.6-0.5,36.8c2.7,6.7,7.5,11.6,14.1,14.6c12.9,5.7,25.9,4.3,38.9,0.3c0.9-0.3,1.6-1.3,1.5-2.3
	c-0.3-2.7-0.8-5.5-1.3-8.2c-0.3-1.5-1.7-2.4-3.2-2c-2,0.5-3.8,1-5.6,1.4c-7,1.3-14,1.3-20.8-1.4c-5.8-2.3-9.9-8.3-10.2-14.1
	c-0.1-1.5,1.1-2.8,2.6-2.8c5.7,0,19.8,0,26.4,0c3.7,0,7.4,1.1,10.2,3.6c7.5,6.4,11,18.7,10.3,23.2c-0.1,0.8,0.7,2.5,1.4,2.8
	c11.8,4.1,23.7,4.7,35.7,1.1c7.1-2.1,12.1-6.7,13.1-14.5C251.2,159.5,249.1,151.9,240.7,147.4z M177.5,141.2h-24.2
	c-1.7,0-3-1.6-2.6-3.3c1.5-7.3,8-13.3,16.1-13.1c7.3,0.1,12.5,6.1,13.4,13.5C180.3,139.9,179,141.2,177.5,141.2z"/>
</svg>
