<?xml version="1.0" encoding="utf-8"?>
<!-- Generator: Adobe Illustrator 23.0.6, SVG Export Plug-In . SVG Version: 6.00 Build 0)  -->
<svg version="1.1" id="Layer_1" xmlns="http://www.w3.org/2000/svg" xmlns:xlink="http://www.w3.org/1999/xlink" x="0px" y="0px"
	 viewBox="0 0 400 400" style="enable-background:new 0 0 400 400;" xml:space="preserve">
<path d="M202.4,267.6c-2.9,0.8-9.2,2.9-10.8,8.2c-0.9,2.8-1.5,5.7-2.4,8.6c-0.6,2-1.1,4.2-1.9,6.1c-3.3,7.6-11.8,8.6-16.8,2
	c-2.1-2.8-3.2-6.1-3.6-9.5c-0.6-4.3-0.9-8.7-1.4-13.1c-0.1-0.7-0.2-1.4-0.3-2.1c-0.2-1.9-1.2-2.4-3.1-2.4c-4.1,0-7.9,1.5-11.7,2.6
	c-6.7,1.9-14.7,1.4-20.3,3c-5.6,1.6-5.6,1.6-9.2,1.9s-14.6-1.3-21.5-4.1c-1.9-0.8-3.8-1.4-5.8-1.7c-3.3-0.6-4.8-2.6-5.5-5.7
	c-1.3-5.8-2.6-11.5-4-17.3c-1.8-8-4-15.9-5.5-23.9c-3.3-17.6-6.2-35.2-9.3-52.8c-2-11.3-3.9-22.6-5.9-33.9c-0.4-2.3-1.9-6-0.2-10
	c1.7-4,5-4,8.7-4.6c5.4-0.8,10.8-1.7,16.2-2.2c11.3-1,22.7-1.9,34-2.7c6.7-0.5,13.2,0,19.6,2.4c3,1.1,6.1,1.9,9.2,2.9
	c1.8,0.6,3,0.1,4.2-1.5c11.3-15.6,18.9-32.8,23.1-51.5c2.5-10.9,5-21.7,7.9-32.5c1.7-6.2,4.4-12,8.9-16.8c6.2-6.5,13.6-5.8,19.6,0.2
	c5.1,5.1,7.9,11.5,9.9,18.3c3.3,11,4.5,22.3,4.4,33.7c0.1,11.9-1.5,23.6-3.9,35.3c-0.1,0.7-0.3,1.4-0.4,2.1
	c-0.5,2.6,0.2,3.7,2.7,4.2c0.7,0.1,1.4,0.1,2.1,0.1c12.3-0.5,24.6-0.9,36.9-1.4c13.3-0.6,26.5-1.5,39.8-1.6
	c6.7-0.1,13.5-0.5,20.1,1.7c2,0.7,4,1.5,5.8,2.7c4.9,3.2,6,8.1,5.1,13.4c-1.3,7.5-2.8,14.9-6.6,21.6c-1.8,3.2-4.1,5.7-7.3,7.5
	c-2.6,1.4-2.5,1.4-1.5,4c1.6,4.1,3.5,8.2,4.3,12.4c1.7,8.8,0.5,17-6.6,23.5c-3.9,3.6-8,6.8-13.3,7.7c-1.6,0.3-1.9,0.9-1.4,2.4
	c0.8,2.1,1.5,4.2,2,6.4c2.2,10.2-2.3,19.3-11.6,23.9c-0.5,0.3-1.1,0.5-1.6,0.7c-0.9,0.4-1.1,0.8-0.3,1.5c0.5,0.4,0.9,0.8,1.3,1.2
	c6.7,6.1,6,13.3,1.2,19.7c-3.9,5.3-6.9,11.1-6.5,17.9c0.3,5.1,0.9,10.1,1.2,15.2c0.3,5.2-0.3,10.2-4.1,14.2
	c-5.1,5.3-12.7,4.3-15.8-2.4c-1.4-3-1.8-6.6-2.6-9.9c-0.4-1.8-0.4-3.8-0.9-5.6c-0.6-2.3-1.7-2.8-4-2.1c-1.2,0.4-2.4,1-3.6,1.5
	c-1.4,0.6-2.8,1.3-4.3,1.7c-4.4,1.3-7.8-0.3-9.5-4.5c-1.2-3-2.2-6-3.3-9c-1.1-3.2-4.3-4.8-7.1-5.1
	C232.6,269.5,205.3,266.8,202.4,267.6z"/>
</svg>
