<?xml version="1.0" encoding="utf-8"?>
<!-- Generator: Adobe Illustrator 23.0.6, SVG Export Plug-In . SVG Version: 6.00 Build 0)  -->
<svg version="1.1" id="Layer_1" xmlns="http://www.w3.org/2000/svg" xmlns:xlink="http://www.w3.org/1999/xlink" x="0px" y="0px"
	 viewBox="0 0 400 400" style="enable-background:new 0 0 400 400;" xml:space="preserve">
<g>
	<path d="M204.6,204c-4.6-0.1-7.7-0.3-12.6-1.4c-5-1.1-7.2-1.3-12-3.9c-2.6-1.4-6-4.1-8.2-6.1c-5.4-4.9-9.6-9.1-14.9-14.1
		c-0.8-0.7-1.3-3-0.3-4c7-6.7,12-11.6,19-18.3c1.1-1.1,2.8-2.3,4-3.4c0.9-0.8,1.6-1.1,2.5-0.2c3.1,3.1,6.2,6.2,9.3,9.3
		c1.3,1.2,2.8,2.4,4.3,3.3c3.4,2,6.6,1.5,9.4-1.4c2.2-2.3,3.5-5.1,4.2-8.2c1.4-6.3,1.1-12.6,0.2-18.9c-0.9-6.1-2.5-10.6-4.1-16.5
		c-1-3.6-5-6.5-8.3-6.8c-4-0.3-6.8-0.2-10.4,2.1c-1.6,1-6.9,5.7-8.2,7c-13.1,13-22.2,22.5-35.4,35.2c-4.6,4.4-7.1,9.6-9.1,15.4
		c-2.2,6.2-3.5,12.6-4,19.1c-0.7,9.7,0.5,19.1,5.5,27.6c2.7,4.6,6.6,7.9,11.9,9.4c1.7,0.5,2.8,0.1,4-1.2c2.3-2.5,4.7-4.7,7-7.1
		c0.8-0.9,1.5-1,2.6-0.4c4.2,2.4,8.8,3.7,13.4,5c2.1,0.6,4.2,1.2,6.4,1.5c2.3,0.3,3.9,0.2,7.9,0c3.9-0.2,5.7-0.5,9.1-1.3
		c3.4-0.8,3.9-0.8,7.3-2.5c3.4-1.7,0.7,1.6,0.4,1.9c-12.9,13-25.8,26-38.9,38.8c-2.7,2.6-6.1,4.4-9.3,6.4c-3.4,2.1-3.8,2.1-7,3.6
		c-3.3,1.5-5.9,1.7-10,2.4c-4.2,0.7-7.7,0.5-11.6,0.7c-5.9,0.3-11.5-1.2-17-3.2c-4.8-1.7-9.2-4.3-13.4-7.1c-1.8-1.2-3.5-2.7-5.1-4.3
		c-5.2-5.1-10.5-10.2-15.5-15.6c-2.7-2.9-5.1-6.2-7-9.7c-2.2-3.9-3.8-8-5.5-12.2c-0.6-1.5-0.7-3.2-1-4.8c-0.5-2.6-0.9-5.3-1.3-7.9
		c-0.2-1.2-0.2-3.2-0.1-4.4c0.1-1.6,0.3-3.1,0.7-4.7c0.8-3.7,1.5-7.5,2.5-11.1c1.4-5,4-9.5,6.8-13.8c1.1-1.7,2.4-3.3,3.8-4.7
		c27.5-27.5,55-55.1,82.6-82.5c4.4-4.4,9.8-7.8,15.8-9.8c2.5-0.8,4.9-1.9,7.4-2.6c1.9-0.5,3.8-0.7,5.8-0.9c2.5-0.3,5-0.8,7.5-0.7
		c3.3,0.2,6.6,0.8,10,1.3c2.3,0.4,4.6,0.8,6.8,1.5c4.7,1.6,9.2,3.8,13.4,6.6c7.2,4.8,12.3,11.6,18.6,17.3c0.8,0.7,0.7,1.2,0,1.9
		c-3.1,2.8-6.1,5.7-9.2,8.5c-2.1,1.9-3.5,3.9-3.6,6.9c-0.3,5.1,0.2,10,2.7,14.6c0.6,1,1.3,2,2.1,2.8c2.2,2.3,3.2,2.3,5.4,0
		c17.7-17.7,35.4-35.3,53-53.1c2.6-2.7,4.4-5.8,5.4-9.7c1.4-5.3,0-9.8-2.5-14.1c-1.1-1.9-2.9-3.5-4.6-5.1c-4-4-7-7-11.1-10.9
		c-2-1.9-4.7-3.4-7.6-4.4s-4.5-1.1-6.2-0.8c-4,0.6-6.9,2.3-11,5.3c-5.5,4-7.2,6.1-12.2,11.3c-1.3,1.4-2.9,3.6-4.7,3.9
		c-1.3,0.3-2.4-0.5-5.2-1.8c-2.8-1.3-6-2.6-9.3-3.3c-5.4-1.1-10-2.2-15.5-1.7c-3.5,0.3-6.9,1.2-10.4,1.9c-1.4,0.3-2.8,0.7-4.2,1.1
		c-0.7,0.2-1.2-0.7-0.7-1.2c0,0,0,0,0,0c12.9-12.9,23.3-23.4,36.3-36.2c2-2,7.1-5.8,9.5-7.5c4-2.8,8.5-4.6,13.2-5.9
		c3.2-0.9,6.9-1.9,12.1-1.9c5.2,0,9.8,0.1,14.2,0.8c4.4,0.8,8.9,2.3,13.6,4.4c3.3,1.5,8.3,4.6,12.7,8.1s11.8,10.9,15.3,15.2
		c3.5,4.3,5.8,8.3,7.9,11.4c2,3.2,4.1,7.6,5.3,11.8c0.9,3,1.4,4.8,2,8c0.3,1.8,0.3,6.9,0.2,8.6c-0.2,3.4-1,8-1.7,11.1
		c-0.7,3.1-2.8,8.6-4.3,13.7c-1.6,5.1-2.4,7.3-3.5,10.6c-3,9.7-6.1,19.4-9.3,29c-1.9,5.9-3.6,11.9-3.5,18.2c0.1,4,0.7,7.9,1.4,11.8
		c1.2,6.8,1.9,13.4-1.6,19.7c-2.5,4.4-6,7.5-10.9,9.1c-6.6,2.1-13.3-1.4-15.3-8.1c-1.4-4.6-1.1-9.2,0.3-13.6c1.5-4.8,3.4-9.4,5-14.1
		c1.1-3.4,1.6-6.8,0.4-10.3c-1.3-3.7-4.4-6.3-8.5-3.2c-3.1,2.3-6,5-8.8,7.7c-12,11.9-23.9,23.9-35.9,35.8c-2.4,2.3-5.3,4.1-8.1,6
		c-4.6,3.3-8.2,4.5-13.1,5.9C215.1,203.1,209.2,204.1,204.6,204z M109.1,198.4c0-1.3-0.1-2.4-0.4-3.3s-1.2-1.5-1.8-0.9
		c-1.6,1.6-2.4,2.6-3.9,4.2c-2.2,2.4-2.6,4.3-3.5,7.2c-0.2,0.6-0.3,2.6,0.6,3.2c0.5,0.4,1.8,0.2,2.4-0.2c3-2,5-3.9,5.9-6.6
		C108.6,201,109,199.7,109.1,198.4z"/>
</g>
</svg>
