<?xml version="1.0" encoding="utf-8"?>
<!-- Generator: Adobe Illustrator 23.0.1, SVG Export Plug-In . SVG Version: 6.00 Build 0)  -->
<svg version="1.1"
	 id="Linkedin" inkscape:version="0.92.1 r15371" sodipodi:docname="linkedin.svg" xmlns:cc="http://creativecommons.org/ns#" xmlns:dc="http://purl.org/dc/elements/1.1/" xmlns:inkscape="http://www.inkscape.org/namespaces/inkscape" xmlns:rdf="http://www.w3.org/1999/02/22-rdf-syntax-ns#" xmlns:sodipodi="http://sodipodi.sourceforge.net/DTD/sodipodi-0.dtd" xmlns:svg="http://www.w3.org/2000/svg"
	 xmlns="http://www.w3.org/2000/svg" xmlns:xlink="http://www.w3.org/1999/xlink" x="0px" y="0px" viewBox="0 0 400 400"
	 style="enable-background:new 0 0 400 400;" xml:space="preserve">
<sodipodi:namedview  bordercolor="#666666" borderopacity="1" fit-margin-bottom="70" fit-margin-left="0" fit-margin-right="0" fit-margin-top="0" gridtolerance="10" guidetolerance="10" id="namedview6" inkscape:current-layer="Linkedin" inkscape:cx="5.6951146" inkscape:cy="153.04243" inkscape:pageopacity="0" inkscape:pageshadow="2" inkscape:window-height="1017" inkscape:window-maximized="1" inkscape:window-width="1920" inkscape:window-x="1358" inkscape:window-y="-8" inkscape:zoom="5.2149125" objecttolerance="10" pagecolor="#ffffff" showgrid="false">
	</sodipodi:namedview>
<title  id="title2">Artboard 14</title>
<path d="M312.9,5.5H87.1c-10.7-0.1-19.4,8.4-19.5,19.1v226.6c0.1,8.4,5.6,15.5,13.1,18c4.5,1.5,8.7,3.8,11.9,7.2
	c30,31.8-20.1,116.8,21.8,118.1c40.2,0-17.5-118,21.5-121.3c32.1-2.4-0.2,43.2,21.8,46.2c24.5-4.7-8.9-40.7,16.6-48.3
	c2.3-0.7,4.7-1,7.1-1h131.5c10.7,0.1,19.4-8.5,19.5-19.1V24.5C332.2,13.9,323.5,5.4,312.9,5.5z M114.8,84.2c-4.5-2.7-8-7-9.8-12.1
	c-2.5-15.6,29.3,14.1,15.2,13.8C118.3,85.8,116.4,85.2,114.8,84.2z M124.5,109.4c-1.8,9.6-12,28.6-16.8,18.7c-0.7-1.4-1-2.9-1-4.4
	v-13.9c0-2.8,2.3-5.1,5.1-5.1h8.7C123.1,104.7,125,107,124.5,109.4z M146.1,224.7c0,3.6-2.9,6.5-6.5,6.5h-26.3
	c-3.6,0-6.5-2.9-6.5-6.5v-27.9c0-25.6,7.7-50.8,22.4-71.8c8.3-11.9,16.9-20.3,16.9-7.7V224.7z M149.3,64.7c0,2.5-0.4,4.9-1.2,7.2
	c-1.6,4.6-6.5,7.4-11.2,6.1c-8.5-2.4-20-10.9-24.4-20.7c-2.4-5.4,0.2-11.7,5.7-13.8c2.5-1,5.3-1.5,8.2-1.5
	C139.1,41.9,149.3,52.1,149.3,64.7C149.3,64.7,149.3,64.7,149.3,64.7z M261.4,231.2h-2.3c-2.8,0-5.1-2.3-5.1-5.1v-10.9
	C254,204.9,272,231.2,261.4,231.2z M288.2,229.5c-11-5.8-32.1-25.9-34.2-57.5v-2.3c0-14.7-0.3-33.5-20.4-33.5
	c-20.2,0-23.6,16-23.6,32.6v57c0,3-2.5,5.5-5.5,5.5h-28.2c-3,0-5.5-2.5-5.5-5.5V110.2c0-3,2.5-5.5,5.5-5.5h26.7c3,0,5.5,2.5,5.5,5.5
	v9.5c0,0.6,0.8,0.9,1.2,0.3c5.9-9.3,18.7-18.4,36.5-18.4c39.8-0.1,47.2,26.1,47.2,60.1v64.6C293.3,229,290.6,230.7,288.2,229.5z"/>
</svg>
