<?xml version="1.0" encoding="utf-8"?>
<!-- Generator: Adobe Illustrator 23.0.6, SVG Export Plug-In . SVG Version: 6.00 Build 0)  -->
<svg version="1.1" id="Layer_1" xmlns="http://www.w3.org/2000/svg" xmlns:xlink="http://www.w3.org/1999/xlink" x="0px" y="0px"
	 viewBox="0 0 400 400" style="enable-background:new 0 0 400 400;" xml:space="preserve">
<path d="M227.4,44.8c34.4,0,68.8,0,103.2,0c6.3,0,6.3,0,6.3,6.3c0,1.6,0,3.3,0,4.9c0,8.2-0.9,14.2-5.8,20.8
	c-7.8,10.5-9.7,23.1-7.7,36c1.1,7,4.2,13.2,9.8,17.7c2.8,2.2,4,4.9,3.7,8.4c-0.3,3.2-0.4,6.4-0.6,9.5c-0.1,3.1-2.6,5.5-5.7,5.7
	c-3,0.1-6.1,0.2-9.1,0.2c-36.6,0-73.3,0-109.9,0c-11.5,0-14.6,2.8-14.9,14.2c-0.2,6.7-2.7,11.8-8.2,15.4c-6.8,4.5-13.6,2.9-17.5-4.3
	c-1.4-2.5-2.1-5.3-3.7-7.7c-0.9-1.3-2.4-2.5-3.6-2.5c-1.4,0.1-2.6,0.9-3.5,2.4c-0.8,1.2-0.6,3.5-0.5,4.5c0.1,2.4,0.2,4.9,0.4,7.3
	c0.8,10.5-3,16.3-11.2,17c-8.6,0.8-17.7-6.4-18.5-15c-0.4-4.2-0.1-8.5,0-12.8c0.1-6.4-2.1-11.6-7.5-15.1c-3.7-2.4-5.2-5.3-4.5-10.1
	c0.5-3.8,0.6-7.6,0.1-11.3c-0.5-3.7,0.1-5.5,3.3-5.2c1.4,0.1,2.8,0,4.3,0c49.7,0,99.3-0.1,149,0.1c4.8,0,8.6-1.2,12.2-4.2
	c11.9-9.9,15.7-24.1,10-38.4c-1.3-3.2-3.1-6.2-4.9-9.1c-5.2-8.1-9.6-12-20.6-12c-7.7,0-14.1,0.1-21.9,0.1c-5.4,0-9.8,1.9-13.8,5
	c-3.9,3-5.8,8-5,12.8c0.8,4.7,1.9,9.4,2,14.1c0.3,9.8-6.1,16.8-15.1,17.1c-9.2,0.3-15.9-5.9-16.6-15.8c-0.2-2.8,0.2-5.7,0.4-8.5
	c0.1-1.6,0.5-3.2,0.6-4.8c0.8-14.1-5.5-20.2-20.2-19.9c-18.8,0.5-37.7,0.2-56.5,0c-7.4-0.1-7.4,0.6-7.4-5.4c0-4.7,0.1-9.4,0-14.1
	c-0.1-2,1.6-3.5,3.6-3.5c1.4,0,2.8,0,4.3,0C159.8,44.8,193.6,44.8,227.4,44.8z"/>
<path d="M227.7,218c34.4,0,68.7,0,103.1,0c6,0,6,0,6.1,5.8c0,4.1-0.3,8.2,0.1,12.2c0.4,4.2-1.5,5.5-5.3,5c-0.8-0.1-1.6,0-2.4,0
	c-67.7,0-135.4,0-203.1,0c-1.2,0-2.4-0.1-3.7,0c-3.1,0.3-4.5-0.8-4.3-4.1c0.2-4.1,0-8.1,0.1-12.2c0.1-7.3-0.8-6.7,6.4-6.7
	c30.7,0,61.4,0,92.1,0C220.4,218,224,218,227.7,218z"/>
<path d="M91.5,220c0.8,0.5,1.6,1.2,2.4,1.9c1.7,1.5,3.3,3,4.4,4.8c2.9,5.1,0.9,11.3-3.8,15.2c-5.9,4.9-6.4,7.5-2.6,14
	c2,3.4,3.7,6.8,2.6,10.9c-1.8,6.5-8,10-14.8,8.4c-6.6-1.5-11.5-9-10.1-15.3c0.2-1,0.5-2,1-2.9c2.1-4.5,1.7-8.3-3-10.9
	c-4.4-2.4-4.2-6.3-4.1-10.5c0.1-2.9,1.2-3.2,3.8-2.6c4.3,1,8.7,1.6,13,2c3,0.3,5.2-1.2,5.2-4.6c-0.1-3.7-2.8-4-5.6-3.9
	c-1.2,0-2.4,0.2-3.8,0.3c-1.7,0.2-3.1-1.1-3.1-2.8c0-1,0-2,0-3c0-7,0-7.1,7.2-7.9c2.7-0.3,5.1-1.1,4.9-4.2c-0.1-3.5-3.3-3.2-5.8-3.2
	c-1.3,0-2.7,0.2-4,0.6c-5.9,1.7-5.9,1.7-9-3.4c-0.2-0.3-0.4-0.6-0.6-0.9c-0.5-0.8-0.5-1.9,0-2.7c1.4-2.5,2.7-4.9,4-7.3
	c4.5-8.4,4-16.1-2.5-23.6c-6.4-7.3-5.3-10.3,2.6-17.8c2.7-2.5,5.2-5.2,7.7-7.9c2-2.2,4.3-4.3,6-6.8c1.8-2.5,3.6-5.4,1-8.2
	c-2.5-2.7-5.6-1.5-8.4,0c-1.2,0.7-2.4,1.5-3.9,2.5c-1.1,0.7-2.5,0.5-3.2-0.6c-0.2-0.3-0.5-0.7-0.7-1c-4.6-5.1-4.2-4.7,0.2-9.9
	c8.4-9.9,12.4-20.5,12.7-35.3c0.2-8.4,0.4-16.9,0.1-25.3c-0.1-2,0.2-3.2,0-5.3c-0.1-0.8-1-1.2-1.6-0.7l-5.9,4.5
	c-1.1,0.8-2.7,0.7-3.6-0.4l-3.8-4.4c-0.9-1-0.7-2.6,0.3-3.5c4.5-3.8,8.7-7.7,13.5-10.8c2.4-1.6,5.1-1.4,8.3-1.4c2,0,2.6,1.9,2.7,3
	c0.2,5.5,0,11,0.1,16.5c0.1,4.8,0.1,9.6,0,14.4c-0.4,13.6-0.1,26.9,5.2,39.8c1.9,4.8,2.5,10.2,3.1,15.5c0.8,7.6-2.4,13.8-7.6,19.1
	c-2.9,3-5.8,6.1-9.3,9.8c4.3,0,7.9-0.2,11.4,0.1c2,0.1,5.7,0.4,5.5,3.1c-0.2,3-0.2,5-1.6,7.6c-1.6,2.9-4.6,5-6.8,7.7
	c-4,5-3.9,10.5-1.1,16c1.5,3.1,3.2,6.1,5,9.1c4.5,7.4,4.4,12.3-0.8,16.9c-0.7,0.7-1.7,1.3-2.4,1.8c-0.7,0.4-2.3,0.9-2.3,1.6
	S90.7,219.5,91.5,220z"/>
</svg>
