<?xml version="1.0" encoding="utf-8"?>
<!-- Generator: Adobe Illustrator 23.0.6, SVG Export Plug-In . SVG Version: 6.00 Build 0)  -->
<svg version="1.1"
	 id="svg2" xmlns:cc="http://creativecommons.org/ns#" xmlns:dc="http://purl.org/dc/elements/1.1/" xmlns:inkscape="http://www.inkscape.org/namespaces/inkscape" xmlns:rdf="http://www.w3.org/1999/02/22-rdf-syntax-ns#" xmlns:sodipodi="http://sodipodi.sourceforge.net/DTD/sodipodi-0.dtd" xmlns:svg="http://www.w3.org/2000/svg"
	 xmlns="http://www.w3.org/2000/svg" xmlns:xlink="http://www.w3.org/1999/xlink" x="0px" y="0px" viewBox="0 0 400 400"
	 style="enable-background:new 0 0 400 400;" xml:space="preserve">
<path d="M213,228.1c-0.3-0.1-0.5-0.2-0.7-0.4l0.1,0.6c0.1,0.2,0.2,0.2,0.5,0.1C213.1,228.3,213.1,228.3,213,228.1
	C213.1,228.2,213.1,228.1,213,228.1z"/>
<path d="M214.1,227.3c0.3,0,0.5-0.1,0.7-0.3c0.2-0.1,0.4-0.3,0.5-0.5c0.1-0.2,0.2-0.4,0.3-0.7c0.1-0.2,0.1-0.5,0-0.8
	c0-0.3-0.1-0.5-0.3-0.7c-0.1-0.2-0.3-0.4-0.5-0.6c0,0-0.1-0.1-0.1-0.1c-0.5,0-0.8,0-0.9,0.1c-0.1,0.1-0.2,0.3-0.1,0.6
	c0,0.2,0.1,0.5,0.2,0.7c0.1,0.2,0.2,0.5,0.2,0.7c0,0.2-0.1,0.3-0.3,0.4c-0.2,0-0.3-0.1-0.4-0.2c-0.1-0.1-0.1-0.3-0.1-0.5
	c0-0.2,0-0.4,0-0.6c0-0.2,0-0.4-0.1-0.5c0-0.1-0.1-0.2-0.3-0.3c-0.2,0-0.4,0-0.7,0.2c-0.2,0.2-0.3,0.5-0.3,0.7
	c-0.1,0.2-0.1,0.5,0,0.8c0,0.3,0.1,0.5,0.3,0.7c0.1,0.2,0.3,0.4,0.5,0.6c0.2,0.1,0.4,0.3,0.6,0.3
	C213.6,227.4,213.9,227.4,214.1,227.3z"/>
<path d="M208.5,225.5c-0.1-0.2-0.3-0.4-0.5-0.6c-0.6-0.1-0.9-0.1-1.1-0.1c-0.1,0.1-0.2,0.3-0.1,0.5c0.1,0.3,0.2,0.5,0.3,0.8
	c0.1,0.3,0.2,0.5,0.2,0.8c0,0.2-0.1,0.4-0.3,0.4c-0.2,0-0.4-0.1-0.4-0.3c-0.1-0.2-0.1-0.5-0.1-0.8c0-0.3,0-0.6,0-0.8
	c0-0.3-0.1-0.4-0.3-0.5c-0.2,0-0.5,0.1-0.9,0.4c-0.2,0.2-0.3,0.4-0.3,0.7c-0.1,0.3-0.1,0.5,0,0.8c0,0.3,0.1,0.5,0.3,0.7
	c0.1,0.2,0.3,0.4,0.5,0.5c0.2,0.1,0.4,0.3,0.7,0.3c0.3,0,0.5,0.1,0.8,0c0.3,0,0.5-0.1,0.7-0.3c0.2-0.1,0.4-0.3,0.5-0.5
	c0.1-0.2,0.2-0.4,0.3-0.7c0.1-0.3,0.1-0.5,0-0.8C208.7,225.9,208.6,225.7,208.5,225.5z"/>
<path d="M211.9,222.8c-0.1-0.1-0.2-0.1-0.3,0.1l0,0l0.1,0.7c0.1-0.1,0.2-0.2,0.3-0.3C212,223.1,212,223,211.9,222.8z"/>
<path d="M319.9,239c-1.3-8.7-2.7-17.4-4.1-26.2c-2.3-14.5-4.6-29-6.9-43.5c-2.3-14.5-4.6-28.9-6.9-43.4c-2.3-14.6-4.6-29.1-6.9-43.7
	c-2.3-14.5-4.6-29-6.9-43.6c-1.3-8.2-2.5-16.4-4-24.6c-1.1-6.2-6.4-9.8-12.6-8.8c-16.9,2.7-33.8,5.4-50.7,8
	c-20.3,3.2-40.6,6.4-60.9,9.6C136.5,26.5,113,30.3,89.5,34c-6.4,1-10.3,6.2-9.3,12.7c1.5,9.8,3.1,19.6,4.6,29.3
	c2.7,17.1,5.4,34.2,8.1,51.3c2.5,15.8,5,31.7,7.5,47.5c2.5,15.8,5,31.7,7.5,47.5c2.6,16.3,5.1,32.6,7.7,48.8
	c0.1,0.6,0.2,1.1,0.4,1.7l0,0c0,0,0,0,0,0c0.7,2,1.8,3.7,3.4,5c18.3,31.2-10.8,73.1,15.4,76.2c26.3,0.5-23.1-64,16.8-77.6
	c12.8-2,25.6-4,38.4-6.1c19.7-3.1,39.3-6.3,59-9.4c20.6-3.3,41.2-6.5,61.8-9.8C316.9,250.2,320.8,244.9,319.9,239z M190.6,90.4
	c3-0.5,6.2-0.6,9.2-0.2c8.8,1.2,15.5,4.8,20.7,11.4c8.8,11.1,8.1,26.6-1.6,36.9c-12.6,13.6-34.7,13.1-46.7-0.9
	C158.7,122,165.9,98,186,91.5C187.5,91,189.1,90.7,190.6,90.4z M158.5,269.4c-1.8,0.3-3.6,0.6-5.3,0.8c-7.8,1.2-15.5,2.5-23.3,3.6
	c-3.4,0.5-6.2-1.1-8-3.8c-0.9-1.4-1-3.4-1.2-5.1c-3.5-21.9-6.9-43.7-10.4-65.6c-3.5-22.3-7-44.6-10.5-66.8c-4-25.5-8.1-51-12.1-76.5
	c-0.4-2.8-0.9-5.6-1.3-8.4c-0.1-1,0-2,0.5-3c1.7-3.5,4.6-5,8.4-5.6c21.6-3.4,43.2-6.8,64.9-10.2c4.5-0.7,9.1,0.3,12.8,2.9
	c6.6,4.7,10.1,12.3,3.7,16.1c-0.7,0.4-1.5,0.7-2.3,1c-10.3,3.1-19.9,8.4-28.7,15.9c-24.2,20.9-32.6,55.1-19.5,84
	c11.5,25.4,31,39.1,54,43.5c7.1,1.4,14.4,1.6,21.6,0.9c2.6-0.2,5-0.6,7.4-1c3.9-0.7,8-0.4,11.7,1c5.1,1.9,7.5,5,5.3,9.7
	c-1.7,3.7-5.3,6.3-9.3,6.9c-9.3,1.5-18.6,2.9-27.9,4.4c-2.5,0.4-5,0.8-7.6,1.2c-2.5,0.5-3.4,1.7-3.1,3.8c0.8,4.8,1.4,8.6,2.2,13.4
	l0.4,2c0,0,0,0,0,0c0.4,2.6,0.3,2.1,0.7,4.7c0,0,0.3,2.1,0.3,2.5c0,0,0,0,0,0C182.8,257.5,174.9,266.4,158.5,269.4z M227.4,220.3
	l0,0.9c-0.9,1.4-1.3,3-1.4,4.9l-0.9,0.2l-0.9-5.4l0.9-0.2l0.1,0.5c0,0,0-0.1,0.1-0.1c0.1-0.1,0.1-0.2,0.3-0.3
	c0.1-0.1,0.3-0.2,0.5-0.3c0.2-0.1,0.4-0.2,0.7-0.2C226.9,220.3,227.2,220.3,227.4,220.3z M223.2,225c-0.1,0.4-0.3,0.7-0.5,1
	c-0.2,0.3-0.5,0.5-0.8,0.8c-0.3,0.2-0.7,0.3-1.1,0.4c-0.4,0.1-0.8,0.1-1.2,0c-0.4-0.1-0.7-0.3-1-0.5c-0.3-0.2-0.6-0.5-0.8-0.8
	c-0.2-0.3-0.3-0.7-0.4-1.1c-0.1-0.4,0-0.8,0.1-1.1c0.1-0.4,0.3-0.7,0.5-1c0.2-0.3,0.5-0.6,0.8-0.8c0.3-0.2,0.7-0.3,1.1-0.4
	c0.4-0.1,0.8,0,1.2,0.1c0.4,0.1,0.7,0.3,1,0.5c0.3,0.2,0.6,0.5,0.8,0.8c0.2,0.3,0.3,0.7,0.4,1.1C223.3,224.3,223.3,224.7,223.2,225z
	 M213.2,228.9c0,0.2,0.1,0.4,0.2,0.7c0.1,0.2,0.1,0.5,0.2,0.7c0.1,0.2,0.1,0.4,0,0.6c0,0.2-0.2,0.3-0.4,0.3c-0.2,0-0.4,0-0.4-0.1
	c-0.1-0.1-0.1-0.2-0.1-0.4c0-0.2,0-0.4,0-0.6c0-0.2,0-0.4-0.1-0.7c0-0.2-0.2-0.4-0.4-0.6c-0.2-0.2-0.5-0.3-0.8-0.4l-1.3-7.8l0.9-0.2
	l0.2,1.3c0.1,0.3,0.2,0.6,0.5,0.8c0.3,0.2,0.6,0.2,0.9,0.1c0.2-0.1,0.4-0.1,0.6-0.1c0.4-0.1,0.7,0,1.1,0.1c0.3,0.1,0.7,0.3,0.9,0.5
	c0.3,0.2,0.5,0.5,0.7,0.8c0.2,0.3,0.3,0.7,0.4,1.1c0.1,0.4,0,0.8,0,1.2c-0.1,0.4-0.2,0.7-0.4,1c-0.2,0.3-0.5,0.5-0.8,0.7
	c-0.3,0.2-0.6,0.3-1,0.4c-0.1,0-0.3,0-0.4,0c-0.3,0-0.5,0-0.6,0.2C213.2,228.6,213.1,228.7,213.2,228.9z M209.6,227.2
	c-0.1,0.4-0.3,0.7-0.5,1c-0.2,0.3-0.5,0.5-0.8,0.8c-0.3,0.2-0.7,0.3-1.1,0.4c-0.4,0.1-0.8,0.1-1.2,0c-0.4-0.1-0.7-0.3-1-0.5
	c-0.3-0.2-0.6-0.5-0.8-0.8c-0.2-0.3-0.3-0.7-0.4-1.1c-0.1-0.4,0-0.8,0.1-1.1c0.1-0.4,0.3-0.7,0.5-1c0.2-0.3,0.5-0.6,0.8-0.8
	c0.3-0.2,0.7-0.3,1.1-0.4c0.4-0.1,0.8,0,1.2,0.1c0.4,0.1,0.7,0.3,1,0.5c0.3,0.2,0.6,0.5,0.8,0.8c0.2,0.3,0.3,0.7,0.4,1.1
	C209.8,226.4,209.7,226.8,209.6,227.2z M203,228.2c-0.1,0.4-0.3,0.7-0.5,1c-0.2,0.3-0.5,0.5-0.8,0.8c-0.3,0.2-0.7,0.3-1.1,0.4
	s-0.8,0.1-1.2,0c-0.4-0.1-0.7-0.3-1-0.5c-0.3-0.2-0.6-0.5-0.8-0.8c-0.2-0.3-0.3-0.7-0.4-1.1c-0.1-0.4,0-0.8,0.1-1.1
	c0.1-0.4,0.3-0.7,0.5-1c0.2-0.3,0.5-0.6,0.8-0.8c0.3-0.2,0.7-0.3,1.1-0.4s0.8,0,1.2,0.1c0.4,0.1,0.7,0.3,1,0.5
	c0.3,0.2,0.6,0.5,0.8,0.8c0.2,0.3,0.3,0.7,0.4,1.1C203.1,227.5,203.1,227.9,203,228.2z M194.9,226.3c0.2,0.4,0.6,0.7,1.2,0.8
	c0.1,0.6,0,1.1-0.1,1.6c-0.1,0.5-0.4,1-0.7,1.4c-0.3,0.4-0.7,0.8-1.2,1.1c-0.5,0.3-1,0.5-1.5,0.5c-0.6,0.1-1.1,0.1-1.7,0
	c-0.5-0.1-1-0.4-1.4-0.7c-0.4-0.3-0.8-0.7-1.1-1.2c-0.3-0.5-0.5-1-0.6-1.5c-0.1-0.6-0.1-1.1,0.1-1.6c0.1-0.5,0.4-1,0.7-1.4
	c0.3-0.4,0.7-0.8,1.2-1.1c0.5-0.3,1-0.5,1.6-0.6c0.7-0.1,1.4,0,2.1,0.2c0.7,0.2,1.2,0.6,1.7,1.1
	C194.8,225.4,194.7,225.9,194.9,226.3z M306.2,246c-7.4,1.3-14.9,2.4-22.4,3.6c-14.5,2.3-29,4.6-43.5,6.9c-14.5,2.3-29,4.6-43.5,6.9
	c-0.4,0.1-0.7,0.1-1.1,0.2c-1.8,0.3-3.6,0-5.2-0.8c-7.2-4,0.9-13.8,9.1-18.8c2.5-1.5,5.3-2.5,8.3-3c9-1.4,18-2.9,27-4.3
	c2.1-0.3,4.2-0.6,6.3-1.1c2.4-0.6,2.9-1.5,2.6-3.8c-0.9-5.7-1.8-11.4-2.7-17.1c-1.7-20.5,6.2-36,15.4-50.4c2.8-3.6,5.3-7.5,7.4-11.5
	c0,0,0-0.1,0.1-0.1l0,0c8.7-16.8,10.9-36.8,5-55.7c-6-19-19.9-34.6-37.4-43.4l0.3,0c-0.5-0.2-0.9-0.4-1.3-0.5
	c-2.4-1.2-4.9-2.2-7.5-3.1c-47.7-20.9-22.6-27.3,1.8-31.4c10.2-1.6,20.4-3.2,30.6-4.8c4.6-0.7,9.2-1.5,13.8-2.2
	c0.5-0.1,1-0.1,1.3-0.1c4.5,0,8.1,2.9,8.7,7.1c3.5,21.9,6.9,43.8,10.4,65.6c3.6,22.9,7.3,45.9,10.9,68.8
	c4.2,26.8,8.5,53.5,12.7,80.3c0.1,0.8,0.3,1.6,0.4,2.4C314.4,240.6,311.3,245.1,306.2,246z M232.5,219.6l0.9-0.2l0.8,5.1
	c0.1,0.5,0.1,0.9,0,1.3c-0.1,0.4-0.2,0.8-0.4,1.1c-0.2,0.3-0.4,0.6-0.7,0.8c-0.3,0.2-0.7,0.3-1.1,0.4c-0.4,0.1-0.8,0-1.1-0.1
	c-0.3-0.1-0.6-0.3-0.9-0.4c-0.2-0.2-0.4-0.3-0.5-0.5l-0.2-0.3c0.3-0.1,0.4-0.2,0.5-0.4c0.1-0.2,0.1-0.5,0.1-0.7
	c-0.1-0.2-0.2-0.4-0.3-0.6c0,0-0.1,0-0.1-0.1c0,0-0.1,0-0.1-0.1c-0.3-0.2-0.5-0.5-0.7-0.8c-0.2-0.3-0.3-0.7-0.4-1.1
	c-0.1-0.4-0.1-0.8,0-1.2c0.1-0.4,0.2-0.7,0.4-1c0.2-0.3,0.4-0.6,0.7-0.8c0.3-0.2,0.6-0.3,1-0.4c0.4-0.1,0.7,0,1.1,0.1
	c0.3,0.1,0.7,0.3,1,0.5L232.5,219.6z"/>
<path d="M222,223.3c-0.1-0.2-0.3-0.4-0.5-0.6c-0.6-0.1-0.9-0.1-1.1-0.1c-0.1,0.1-0.2,0.3-0.1,0.5c0.1,0.3,0.2,0.5,0.3,0.8
	c0.1,0.3,0.2,0.5,0.2,0.8c0,0.2-0.1,0.4-0.3,0.4c-0.2,0-0.4-0.1-0.4-0.3c-0.1-0.2-0.1-0.5-0.1-0.8c0-0.3,0-0.6,0-0.8
	c0-0.3-0.1-0.4-0.3-0.5c-0.2,0-0.5,0.1-0.9,0.4c-0.2,0.2-0.3,0.4-0.3,0.7c-0.1,0.3-0.1,0.5,0,0.8c0,0.3,0.1,0.5,0.3,0.7
	c0.1,0.2,0.3,0.4,0.5,0.5c0.2,0.1,0.4,0.3,0.7,0.3c0.3,0,0.5,0.1,0.8,0c0.3,0,0.5-0.1,0.7-0.3c0.2-0.1,0.4-0.3,0.5-0.5
	c0.1-0.2,0.2-0.4,0.3-0.7c0.1-0.3,0.1-0.5,0-0.8C222.2,223.8,222.1,223.5,222,223.3z"/>
<path d="M225.6,222c-0.1,0.2-0.1,0.3-0.1,0.5c0,0.2,0,0.3,0,0.4l0.2,1c0.1,0.3,0.3,0.2,0.5-0.3c0.2-0.6,0.4-1.1,0.4-1.7
	c0-0.4-0.1-0.5-0.3-0.5c0,0,0,0-0.1,0C225.8,221.7,225.7,221.9,225.6,222z"/>
<path d="M194.1,226.9c0.2-0.3,0.2-0.7,0.1-1c-0.1-0.4-0.2-0.6-0.6-0.8c-0.2-0.2-0.4-0.3-0.7-0.4c-0.5-0.2-1-0.3-1.5-0.2
	c-0.4,0.1-0.8,0.2-1.2,0.4c-0.3,0.2-0.6,0.5-0.9,0.8c-0.2,0.3-0.4,0.7-0.5,1.1c-0.1,0.4-0.1,0.8,0,1.2c0.1,0.4,0.2,0.8,0.4,1.2
	c0.2,0.3,0.5,0.6,0.8,0.9c0.3,0.2,0.7,0.4,1.1,0.5c0.4,0.1,0.8,0.1,1.3,0c0.5-0.1,0.9-0.4,1.2-0.9c0.2-0.4,0.2-0.8-0.2-1
	c-0.2-0.1-0.4-0.2-0.7-0.2l-0.2-1l0.8-0.1C193.8,227.4,194,227.2,194.1,226.9z"/>
<path d="M194.1,228.8c0.1,0.2,0.3,0.3,0.5,0.3c0.1,0,0.2-0.1,0.2-0.1c0.1-0.2,0.2-0.5,0.2-0.7l-0.8,0.1
	C194,228.5,193.9,228.6,194.1,228.8z"/>
<path d="M232.6,225.1l-0.2,0.1c-0.3,0.2-0.6,0.3-1,0.3c-0.2,0-0.4,0.1-0.6,0.2c-0.2,0.1-0.3,0.2-0.4,0.3c-0.1,0.1-0.1,0.2-0.1,0.4
	c0.1,0.2,0.2,0.3,0.4,0.5c0.1,0.1,0.3,0.2,0.4,0.2c0.2,0.1,0.5,0.1,0.7,0.1c0.3-0.1,0.6-0.2,0.8-0.3c0.1,0,0.1-0.1,0.2-0.2
	c0.2-0.3,0.3-0.7,0.2-1.1C232.9,225.2,232.8,225.1,232.6,225.1z"/>
<path d="M233,225.1c0.1,0.1,0.2,0.1,0.3-0.1c0-0.1,0-0.2,0-0.3l-0.1-0.3c-0.1,0.1-0.2,0.3-0.3,0.4C232.9,224.9,232.9,225,233,225.1z
	"/>
<path d="M231.1,220.9c-0.1,0.1-0.1,0.3,0,0.4c0.1,0.2,0.1,0.4,0.2,0.6c0.1,0.2,0.2,0.4,0.2,0.6c0.1,0.2,0.1,0.4,0,0.5
	c0,0.1-0.2,0.2-0.4,0.3c-0.2,0-0.3,0-0.4-0.2c-0.1-0.1-0.1-0.3-0.1-0.5c0-0.2,0.1-0.4,0.1-0.7c0-0.2,0-0.4,0-0.6
	c0-0.2-0.1-0.3-0.2-0.4c-0.1-0.1-0.3,0-0.6,0.1c-0.2,0.1-0.3,0.3-0.4,0.4c-0.1,0.2-0.2,0.4-0.3,0.7c-0.1,0.2-0.1,0.5,0,0.8
	c0,0.3,0.1,0.5,0.3,0.7c0.1,0.2,0.3,0.4,0.5,0.6c0.2,0.1,0.4,0.3,0.7,0.3c0.2,0.1,0.5,0.1,0.7,0c0.3,0,0.5-0.1,0.7-0.3
	c0.2-0.1,0.4-0.3,0.5-0.5c0.1-0.2,0.2-0.4,0.3-0.7c0.1-0.3,0.1-0.5,0-0.8c0-0.3-0.1-0.5-0.3-0.7c-0.1-0.2-0.3-0.4-0.5-0.5
	c-0.2-0.1-0.3-0.3-0.6-0.3C231.3,220.7,231.2,220.8,231.1,220.9z"/>
<path d="M201.8,226.5c-0.1-0.2-0.3-0.4-0.5-0.6c-0.6-0.1-0.9-0.1-1.1-0.1c-0.1,0.1-0.2,0.3-0.1,0.5c0.1,0.3,0.2,0.5,0.3,0.8
	c0.1,0.3,0.2,0.5,0.2,0.8c0,0.2-0.1,0.4-0.3,0.4c-0.2,0-0.4-0.1-0.4-0.3c-0.1-0.2-0.1-0.5-0.1-0.8c0-0.3,0-0.6,0-0.8
	c0-0.3-0.1-0.4-0.3-0.5c-0.2,0-0.5,0.1-0.9,0.4c-0.2,0.2-0.3,0.4-0.3,0.7c-0.1,0.3-0.1,0.5,0,0.8c0,0.3,0.1,0.5,0.3,0.7
	c0.1,0.2,0.3,0.4,0.5,0.5c0.2,0.1,0.4,0.3,0.7,0.3c0.3,0,0.5,0.1,0.8,0c0.3,0,0.5-0.1,0.7-0.3c0.2-0.1,0.4-0.3,0.5-0.5
	c0.1-0.2,0.2-0.4,0.3-0.7c0.1-0.3,0.1-0.5,0-0.8C202,227,202,226.7,201.8,226.5z"/>
<path d="M195.9,122c1.5,0,2.7-1.2,2.8-2.7c0-1.5-1.2-2.8-2.7-2.8c-1.5-0.1-2.9,1.2-2.8,2.8C193.2,120.8,194.4,122,195.9,122z"/>
</svg>
