<?xml version="1.0" encoding="utf-8"?>
<!-- Generator: Adobe Illustrator 23.0.6, SVG Export Plug-In . SVG Version: 6.00 Build 0)  -->
<svg version="1.1" id="Layer_1" xmlns="http://www.w3.org/2000/svg" xmlns:xlink="http://www.w3.org/1999/xlink" x="0px" y="0px"
	 viewBox="0 0 400 400" enable-background="new 0 0 400 400" xml:space="preserve">
<path d="M270.7,65.5c1-1.4-7.9-8.9-11.6-13.1c-1.5-1.7-3.1-3.3-4.6-5.1c-3.2-3.7-4.9-7.9-2.7-12.6c2.2-4.6,6.3-5.7,11-5.8
	c17.1-0.3,34.2-0.7,51.2-1c1.9,0,3.9-0.1,5.8-0.1c12.8-0.1,19,8.5,14.6,20.7c-4.2,11.9-8.2,24-13.3,35.6c-5.1,11.7-4.5,22.8,0,34.3
	c2.8,7.2,5.5,14.5,4.1,22.5c-1.1,6.2-4.6,10.2-9.8,11.1c-5.6,0.9-11-1.9-13.9-7.5c-3.1-5.8-2.9-11.9-1.2-18c0.8-3,2.2-5.9,3.3-8.9
	c2.2-6.2,1.9-12.2-2.3-17.5c-4.4-5.5-9.1-10.7-13.5-16.2c-2-2.5-3.9-3-6.6-0.9c-10.3,7.7-20.7,15.2-31.1,22.7
	c-2.1,1.5-3.2,2.8-1.5,5.6c21.9,34.5,21,69.6-1.6,102.6c-23.8,34.8-58.7,47.8-100.1,41.7c-46.4-6.8-81.6-46.4-82.7-91.4
	c-1.1-46.8,34.1-88.2,81.4-96.5c31.4-5.5,58.9,2.7,83.5,22c3.1,2.4,5.3,3,8.6,0.4c9.7-7.4,19.6-14.4,29.4-21.6
	C268.2,67.9,269.7,66.9,270.7,65.5z M164.3,237.4c3.5-0.3,7-0.4,10.5-0.8c31.3-3.5,59.1-27.1,66.4-56.4c7.8-31.4-3.4-60.4-30.6-79.3
	c-6.3-4.4-9.4-3.8-13.8,2.7c-3.1,4.7-3.8,9.9-2.2,15.2c1.2,4,3.2,7.8,4.5,11.8c1.5,4.8,3.4,9.7,3.8,14.7c0.7,8.6-4.7,15.8-12.1,17.7
	c-7.6,1.9-14.9-1.9-19-9.9c-4.1-7.9-2.6-16-0.9-24.2c0.9-4.3,1.5-8.7,1.4-13c-0.1-4.3-2.5-8-7.2-8.5c-4.4-0.4-7.3,2.6-8.5,6.5
	c-1,3.3-1.3,6.9-1.9,10.3c-0.7,4.3-0.8,8.8-2.2,12.9c-2.5,7.6-10.1,11.2-17.3,8.8c-7.1-2.4-10.5-9.2-8.4-17c0.8-2.9,2-5.6,2.8-8.5
	c2.3-7.6,0-14.6-6.6-18.9c-1.6-1-5-1.1-6.4-0.1c-23.9,17.6-35.7,41.1-31.7,70.9C90.2,209.9,124.4,237.5,164.3,237.4z"/>
</svg>
