<?xml version="1.0" encoding="utf-8"?>
<!-- Generator: Adobe Illustrator 27.0.0, SVG Export Plug-In . SVG Version: 6.00 Build 0)  -->
<svg version="1.1" id="Layer_1" xmlns="http://www.w3.org/2000/svg" xmlns:xlink="http://www.w3.org/1999/xlink" x="0px" y="0px"
	 viewBox="0 0 400 400" style="enable-background:new 0 0 400 400;" xml:space="preserve">
<path id="path2" d="M199.6,0c-36.7,0.3-72.1,4.3-92.7,13.7c0,0-40.8,18.3-40.8,80.6c0,14.3-0.3,31.3,0.2,49.4
	c1.5,61,11.2,121,67.5,135.9c84,39,13.6,93,54,94.5c49-1-42-85.6,57.6-98.2c3.1-0.4,5.4-3.1,5.3-6.2l-0.5-11.7
	c-0.2-3.5-2.9-5.3-6.3-4.4c-4.8,1.2-12.4,2.7-23.4,3.3c-18.8,0.8,2.9-33.8,22.6-36.4c4.7-0.5,9.3-1,14-1.6
	c36-4.3,67.3-26.5,71.3-46.7c6.2-31.9,5.7-77.9,5.7-77.9c0-62.3-40.8-80.6-40.8-80.6C272.6,4.3,237.2,0.3,200.5,0H199.6z M158,48.7
	c15.3,0,26.9,5.9,34.5,17.6l3.8,6.4c1.6,2.7,5.6,2.7,7.2,0l3.8-6.4c7.7-11.8,19.2-17.6,34.5-17.6c13.2,0,23.9,4.6,32,13.7
	c7.9,9.1,11.8,21.3,11.8,36.8v37.1c0.1,11.3-29.1,4.5-29.9-10.9v-24c0-15.4-6.5-23.3-19.5-23.3c-14.4,0-21.6,9.3-21.6,27.7v31.4
	c0,4.8-3.9,8.7-8.7,8.7h-12.8c-4.5,0-8.2-3.7-8.2-8.2v-31.9c0-18.4-7.2-27.7-21.6-27.7C151.6,78.9,144.9,49.7,158,48.7z M132.1,59
	c9.6-0.6,12.1,26.3,12,42.4v65.8c0,4.1-3.3,7.4-7.4,7.4h-13.6c-4.9,0-8.9-4-8.9-8.9V99.2c0-15.4,3.9-27.7,11.8-36.8
	C128.3,60.2,130.3,59.1,132.1,59z M259,150.9c7.6,0.6,26.7,12.9,26.9,23.7h-25.7c-2.3,0-4.2-1.9-4.2-4.2v-17.9
	C256.1,151.3,257.2,150.8,259,150.9z M147.7,216c0.4,0,0.9,0,1.3,0.1c9.6,1.9,28.7,5.2,51,6.3c20,2.7-8.6,36.8-20.8,34.3
	c-9.4-1.4-18.1-4-24.6-9.6c-6-5-10.2-12.5-11.6-23.5c-0.1-0.7-0.2-1.4-0.3-2.1C142.4,218.2,144.6,216,147.7,216L147.7,216z"/>
</svg>
