<!-- Generated by IcoMoon.io -->
<svg version="1.1" xmlns="http://www.w3.org/2000/svg" width="256" height="256" viewBox="0 0 256 256">
<title></title>
<g id="icomoon-ignore">
</g>
<path fill="#000" d="M135.366 86.191v28.16c0 0.832-0.704 1.536-1.536 1.536h-11.584c-0.384 0-0.768-0.192-1.088-0.448-0.256-0.32-0.448-0.704-0.448-1.088v-28.352l-0.128-4.672c-0.064-1.536-0.384-2.944-0.896-4.288s-1.344-2.368-2.56-3.136c-1.216-0.768-2.944-1.152-5.312-1.152-0.704 0-1.6 0.128-2.752 0.448-1.216 0.32-2.304 0.96-3.328 1.728-1.088 0.832-1.984 2.112-2.752 3.712s-1.152 3.712-1.152 6.336v30.016c0 0.64-0.384 1.216-0.96 1.408-7.872 5.184 6.592 40.704-5.952 39.488-13.248-0.96 3.712-33.344-6.784-39.552-0.512-0.256-0.832-0.768-0.832-1.344-0.064-6.272-0.064-42.88-0.064-50.816 0-0.832 0.704-1.536 1.536-1.536 2.688 0 8.064 0 10.752 0 0.384 0 0.768 0.192 1.088 0.448 0.256 0.32 0.448 0.704 0.448 1.088v5.504c0 0.128 0.064 0.192 0.192 0.192 1.92-2.752 4.224-4.864 6.976-6.4 2.688-1.536 5.824-2.24 9.344-2.24 3.392 0 6.464 0.64 9.216 1.984 2.176 1.024 3.904 2.624 5.312 4.864 0.256 0.384 0.704 0.704 1.152 0.704 0.512 0.064 0.96-0.192 1.28-0.512 1.408-1.6 3.072-3.008 5.056-4.352 2.688-1.792 5.952-2.688 9.664-2.688 2.816 0 5.44 0.32 7.808 1.024s4.48 1.792 6.208 3.328c1.728 1.536 3.008 3.456 4.032 5.952 1.024 2.432 1.472 5.376 1.472 8.832v34.112c0 0.384-0.192 0.768-0.448 1.088-0.32 0.256-0.704 0.448-1.088 0.448h-11.584c-0.384 0-0.768-0.192-1.088-0.448-0.256-0.32-0.448-0.704-0.448-1.088v-17.792c-0.064-4.992-17.536-17.28-18.752-10.496zM154.118 85.679l-0.192-5.056c-0.128-1.6-0.512-2.944-1.152-4.096s-1.536-2.112-2.752-2.752-2.816-1.024-4.864-1.024-3.712 0.384-4.992 1.152c-1.152 0.704-2.176 1.728-2.88 2.88-0.064 0.064-0.064 0.128-0.128 0.192-1.6 3.2 16.704 13.184 16.96 8.704z"></path>
<path fill="#000" d="M45.446 17.455c-0.832 0-1.536 0.704-1.536 1.536v139.456c0 0.384 0.192 0.768 0.448 1.088 0.32 0.256 0.704 0.448 1.088 0.448h7.168c0.384 0 0.768 0.192 1.088 0.448 0.256 0.32 0.448 0.704 0.448 1.088v0.384c0 0.384-0.192 0.768-0.448 1.088-0.256 0.256-0.64 0.448-1.088 0.448 0 0 0 0 0 0-8.64-0.128 2.688 27.968-5.056 28.288-8.896-0.384 1.664-28.416-6.080-28.288v0c-0.384 0-0.768-0.192-1.088-0.448-0.256-0.32-0.448-0.704-0.448-1.088v-146.304c0-0.384 0.192-0.768 0.448-1.088 0.32-0.256 0.704-0.448 1.088-0.448h11.136c0.384 0 0.768 0.192 1.088 0.448 0.256 0.32 0.448 0.704 0.448 1.088v0.384c0 0.832-0.704 1.536-1.536 1.536-1.92-0.064-5.184-0.064-7.168-0.064zM210.502 159.983c0.384 0 0.768-0.192 1.088-0.448 0.256-0.32 0.448-0.704 0.448-1.088v-139.456c0-0.384-0.192-0.768-0.448-1.088-0.32-0.256-0.704-0.448-1.088-0.448h-7.168c-0.384 0-0.768-0.192-1.088-0.448-0.256-0.32-0.448-0.704-0.448-1.088v-0.384c0-0.384 0.192-0.768 0.448-1.088 0.32-0.256 0.704-0.448 1.088-0.448h11.136c0.384 0 0.768 0.192 1.088 0.448 0.256 0.32 0.448 0.704 0.448 1.088v146.304c0 0.384-0.192 0.768-0.448 1.088-0.32 0.256-0.704 0.448-1.088 0.448v0c-8.256 0.896 2.752 18.88-5.184 18.752-8.256 0 1.984-18.624-5.952-18.752v0c-0.384 0-0.768-0.192-1.088-0.448-0.256-0.32-0.448-0.704-0.448-1.088v-0.384c0-0.384 0.192-0.768 0.448-1.088 0.32-0.256 0.704-0.448 1.088-0.448h7.168z"></path>
</svg>
