<?xml version="1.0" encoding="utf-8"?>
<!-- Generator: Adobe Illustrator 23.0.6, SVG Export Plug-In . SVG Version: 6.00 Build 0)  -->
<svg version="1.1"
	 id="Layer_1" inkscape:version="0.92.2 (5c3e80d, 2017-08-06)" sodipodi:docname="melon.svg" xmlns:cc="http://creativecommons.org/ns#" xmlns:dc="http://purl.org/dc/elements/1.1/" xmlns:inkscape="http://www.inkscape.org/namespaces/inkscape" xmlns:rdf="http://www.w3.org/1999/02/22-rdf-syntax-ns#" xmlns:sodipodi="http://sodipodi.sourceforge.net/DTD/sodipodi-0.dtd" xmlns:svg="http://www.w3.org/2000/svg"
	 xmlns="http://www.w3.org/2000/svg" xmlns:xlink="http://www.w3.org/1999/xlink" x="0px" y="0px" viewBox="0 0 400 400"
	 style="enable-background:new 0 0 400 400;" xml:space="preserve">
<sodipodi:namedview  bordercolor="#666666" borderopacity="1" gridtolerance="10" guidetolerance="10" id="namedview9" inkscape:current-layer="Layer_1" inkscape:cx="356.15746" inkscape:cy="264.68028" inkscape:pageopacity="0" inkscape:pageshadow="2" inkscape:window-height="1017" inkscape:window-maximized="1" inkscape:window-width="1920" inkscape:window-x="1358" inkscape:window-y="-8" inkscape:zoom="1.4343434" objecttolerance="10" pagecolor="#ffffff" showgrid="false">
	</sodipodi:namedview>
<path d="M251.2,82c1.1-7.9,8.2-13.4,16.1-13.2c0.4,0,0.9,0,1.3,0c17.5-0.2,31.5-14.4,31.5-32c0-17.7-13.7-31.7-31.4-31.7
	c-17.9-0.1-32,13.7-32.1,31.6c0,5.4,1.4,10.6,3.8,15.1c2.9,5.4,2.3,12.2-1.9,16.8c-0.2,0.2-0.4,0.5-0.7,0.7c-4.7,4.6-12,5.5-18,2.7
	c-10.6-4.8-22.4-7.6-34.8-7.7c-46.7-0.3-84.9,37.2-85.3,84.2c-0.3,27.3,13.1,52.1,33.7,67.7c10,7.6,18.6,16.9,24.7,27.8
	c39.1,70.1-26.9,148.4,31.4,150.8c42.1-0.9-18.2-88.4,20-152.8c5.4-9.1,13-16.6,21.8-22.5c22.6-15.2,37.6-41.1,37.8-70.4
	c0.1-17.2-5-33.2-13.8-46.6c-3.1-4.7-4.7-10.3-4.6-15.9C250.9,85,251,83.5,251.2,82z M184.8,111.8c20.5,0.1,37,17,36.9,37.8
	c-0.1,20.2-17.2,36.7-37.6,36.4c-20.4-0.2-36.8-16.9-36.5-37.3C147.7,128.2,164.5,111.6,184.8,111.8z"/>
</svg>
