<?xml version="1.0" encoding="utf-8"?>
<!-- Generator: Adobe Illustrator 23.0.6, SVG Export Plug-In . SVG Version: 6.00 Build 0)  -->
<svg version="1.1" id="Layer_1" xmlns="http://www.w3.org/2000/svg" xmlns:xlink="http://www.w3.org/1999/xlink" x="0px" y="0px"
	 viewBox="0 0 400 400" enable-background="new 0 0 400 400" xml:space="preserve">
<path d="M280.6,239.1c-0.4-1.5-2.3-2.1-3.4-1c-0.9,0.9-1.7,1.7-2.6,2.5c-10.9,10.4-25.4,6.1-29-8.5c-0.4-1.5-0.7-3-1-4.5
	c-0.7-4.8-3.7-7.2-8.1-8.7c-4.3-1.4-8.5-1.9-13-1.8c-24.5,0.1-49,0-73.4-0.1c-24.5-0.1-49.1-0.2-73.6-0.3c-1.9,0-3.8-0.1-5.7-0.4
	c-5.9-0.9-7.6-2.7-7.7-8.2c-0.2-15.4-0.4-30.7-0.5-46.1c-0.1-20.1-0.1-40.1,0-60.2c0-7.2,0.3-14.4,0.5-21.6c0.1-4.1,1.9-6.2,5.9-7
	c2.3-0.4,4.8-0.7,7.1-0.7c35.6-0.2,71.2-0.5,106.8-0.4c46.6,0,93.3,0.2,139.9,0.4c2.6,0,5.2,0.2,7.7,0.7c4.7,0.8,6.3,2.9,6.4,7.7
	c0.2,12.7,0.4,25.3,0.5,38c0.1,24,0.1,48,0,72c0,6-0.3,12.1-0.5,18.1c-0.1,4-1.9,6.2-6,6.9c-2.7,0.5-5.5,0.7-8.3,0.9
	c-3.9,0.3-5.7,2.2-5,6c0.5,2.8,1.5,5.5,2.4,8.3c1.9,5.8,2.5,11.7-0.3,17.4c-3.6,7.4-11.4,12-19.4,11.4c-8.6-0.6-15.6-6.3-18.2-14.8
	C281.6,243.1,281.1,241.2,280.6,239.1z M324.5,123.3c0-1.2-1-2.1-2.2-1.9c-0.2,0-0.4,0.1-0.6,0.1c-6.1,1.2-12,0.5-17.9-1.4
	c-14.5-4.6-25-17.6-25.8-31.8c-0.2-3.7-0.2-3.7-4-3.7c-25.2,0-50.3-0.1-75.5-0.1c-1.1,0-2.3,0.1-3.4,0.2c-3.1,0.3-3.7,2.2-3.7,4.4
	c0,2.1,1.7,3.4,3,3.8c4.6,1.2,9.3,2,14,3c10.3,2.1,19.7,5.6,26.7,14c14.5,17.3,15.8,42.9,5.8,60.8c-2.4,4.3-5.1,8.3-7.5,12.6
	c-2,3.6-2.9,7.5-1.8,11.6c1.2,4.5,3.9,7.7,8.1,9.5c0.4,0.2,1.3,0.3,1.9,0.3c11.2,0,22.5-0.1,33.7-0.1c2.2,0,2.5-1,2.8-2.9
	c0.5-3.9,1-7.9,2.5-11.5c6.2-15.4,23.7-25.1,40.1-22.7c0.3,0.1,0.7,0.1,1,0.1c1.5,0.2,2.8-1,2.8-2.4L324.5,123.3z M75.5,165.1
	c0,1.6,1.4,2.8,3,2.5l0,0c19.8-3.6,42.9,11.7,43.5,34.4c0,1.8,0.6,2.6,2.5,2.6c21.1,0,42.2,0.2,63.4,0.2c1.1,0,2.3-0.4,3.2-1
	c2-1.4,3.2-3.4,2.4-6c-0.8-2.6-1.9-4.6-5-5.2c-9.8-2.2-18.4-6.4-24.7-14.7c-11.3-14.9-13.1-31.6-9.5-49.2c1.6-7.7,2.4-15.4,0.4-23.1
	c-2.6-10.1-8-18-18.8-20.4c-3.8-0.9-6.5-0.7-10.5-0.5c-2.1,0.1-3.2,1.2-3.2,3c-0.1,4.1-0.9,7.3-2.4,10.8
	c-6.6,16.5-25.5,26.2-41.7,23l0,0c-1.3-0.3-2.6,0.8-2.6,2.1V165.1z M174.8,170.7c-0.2,0.4-0.2,1,0.1,1.4c1.9,2.4,4.2,4,6.8,5.3
	c9.6,4.5,19.3,6.1,29.8,2.8c9.1-2.8,15.3-8.3,19.4-16.7c2.8-5.7,4.2-11.7,4.2-18c0.1-16.3-7.3-35-30.6-37.7
	c-1.3-0.2-3.7,0.6-4.4,1.4c-3.7,4.1-6.9,7.9-7.7,13.6c-0.6,4.5-0.4,9.1-0.3,13.7c0.2,6.6,1.4,13.2,0.8,19.7
	c-0.5,5.2-2.9,9.2-6.5,11.5c-2.8,1.8-6.4,2.7-10.4,2.5C175.5,170,175,170.3,174.8,170.7L174.8,170.7z"/>
<path d="M289.8,142.4c0.1,7.6-5.8,13.5-13.4,13.6c-7.4,0-13.4-5.8-13.5-13.2c-0.1-7.5,5.9-13.6,13.3-13.7
	C283.4,129.1,289.8,135.3,289.8,142.4z"/>
<path d="M123.6,156c-7.6,0-13.6-6-13.5-13.5c0.1-7.2,6.3-13.4,13.5-13.4c7.3,0,13.4,6,13.5,13.3C137.1,149.9,131.1,156,123.6,156z"
	/>
</svg>
