<?xml version="1.0" encoding="utf-8"?>
<!-- Generator: Adobe Illustrator 23.0.6, SVG Export Plug-In . SVG Version: 6.00 Build 0)  -->
<svg version="1.1" id="Layer_1" xmlns="http://www.w3.org/2000/svg" xmlns:xlink="http://www.w3.org/1999/xlink" x="0px" y="0px"
	 viewBox="0 0 400 400" style="enable-background:new 0 0 400 400;" xml:space="preserve">
<path d="M337.4,85.5c-0.2-18.9-1.1-37.8-6.2-56.4c-1.4-5.2-3.1-6.6-7.6-6.9c-14.8-1-29.5-2.4-44.2-3.1c-10.9-0.5-21.9,0-32.8,0
	c-23.9,0-47.9-0.1-71.8-0.2c-14.3-0.1-28.7-0.8-43-0.2c-17.8,0.7-35.6,2.4-53.4,3.5c-7.3,0.4-7.8,0.2-9.3,7.2
	c-2,9.5-4.4,19.1-5,28.7c-1.1,18.6-1.1,37.3-1.3,56c-0.2,15-0.4,30,0.3,45c0.6,12.1,2.6,24.1,4.1,36.2c0.3,2.2,0.4,3.1,0.7,6.5
	c0.3,3.4,1.6,5.3,4.5,5.6c8.8,1.2,17.7,2,26.5,2.8c6.1,0.5,12.3,0.7,18.5,0.9c8.9,0.3,17.8,0.7,26.8,0.7c10.1,0,20.2-0.4,30.4-0.4
	c0.9,0,2.5,1.7,2.6,2.6c0.3,3.8,0.2,7.7-0.1,11.6c-0.1,0.9-1.3,2.4-2.2,2.5c-8.1,0.9-13.4,1.3-19,1.8c-5.5,0.5-6.6,0.6-8.2,1
	c-1.6,0.4-3,0.8-3.4,5.8c-0.3,5-0.5,8.5-0.8,12.8c-0.6,8.1,0.2,9,8,11.1c15.9,4.2,32,5.9,48.5,5.8c8.8-0.5,17.7-0.6,26.4-1.7
	c8.3-1,16.4-3.1,24.6-4.9c4.3-0.9,7-3.5,6.3-8.2c-0.6-4.2-1.1-7.7-1.5-12c-0.1-1-0.2-2.6-0.3-3.6c-0.1-1.2-0.2-3.2-0.9-3.7
	c-1.5-1.1-3.1-1.7-4.9-1.9c-8.1-0.9-16.1-1.5-24.2-2.4c-0.9-0.1-2.2-1.5-2.3-2.4c-0.3-3.7-0.1-7.4-0.4-11c-0.2-2.7,0.7-3.5,3.4-3.5
	c17.4,0.2,34.8,0.1,52.2,0.4c12.6,0.2,20.4,10,18.1,22.3c-0.7,3.8-1.8,7.5-2.2,11.4c-0.7,7.1,3.5,12.4,10.1,13.6
	c11.7,2,20.9-6.7,19.3-18.5c-0.5-3.8-1.7-7.5-2.8-11.2c-1.8-6.4-0.9-12.2,3.6-17.3c3-3.3,6.7-4.1,8.1-11.5
	c1.3-7.3,3.3-22.1,3.7-33.3C337.3,140,337.7,112.7,337.4,85.5z M311.6,184.2c0,0.8-1.1,2.1-1.7,2.1c-6.2,0.1-12.4-0.1-18.6,0.1
	c-24.4,0.7-48.8,1.5-73.1,2.5c-4.1,0.2-9.9,0.4-13.9,0.3c-8.6-0.3-15.4,0-23.9-0.3c-19.8-0.8-39.7-1.4-59.5-1.9
	c-10.6-0.3-21.2-0.3-31.9-0.5c-0.5,0-1.4-1.3-1.5-2c-1.5-18.9-1.8-37.8-2.8-56.7c-0.4-6.9,0-13.8,0.3-20.8c0.9-18,1.5-36,2.2-54
	c0-1-0.1-2.5,0.8-2.8c0.8-0.4,1.8,1.1,2.5,1.8c5.8,6.2,5.9,14.6,8,22.2c0.6,2.2,1.3,4.4,2.3,6.4c4,7.3,11.4,8.2,16.7,1.7
	c2.5-3.1,4.3-6.8,6.5-10.2c0.5-0.7,1.1-2.3,1.9-1.8c0.8,0.5,0.7,1.7,0.7,2.6c0.1,3.9,0,7.4,0,11.8c0,4.3-0.3,11.7,1.9,20.5
	c2.3,8.8,9.6,13.7,17,13.2c7.1-0.5,13.6-6.4,14.4-15.2c0.7-7.3,0.3-14.9-1.3-22.1c-4.1-19.1,6.8-28.4,21-33.7
	c4.6-1.7,8.8-3.2,13.5-4.1c5-1,10.3-1.5,15.5-1.1c11.2,0.8,22.5,1.8,33.7,2.3c20.2,0.9,40.5,1.3,60.8,1.9c0.2,0,0.4,0,0.6,0
	c2.5-0.1,6.5-0.2,7.2,0.9c1.4,2.3,1.3,4.9,1.5,7.8c0.8,11.7,1.7,23.3,2.2,35c0.3,8.8-0.7,17.8,0.2,26.5
	C317,139.2,312.3,161.6,311.6,184.2z"/>
</svg>
