<?xml version="1.0" encoding="utf-8"?>
<!-- Generator: Adobe Illustrator 23.0.6, SVG Export Plug-In . SVG Version: 6.00 Build 0)  -->
<svg version="1.1"
	 id="svg4" xmlns:cc="http://creativecommons.org/ns#" xmlns:dc="http://purl.org/dc/elements/1.1/" xmlns:inkscape="http://www.inkscape.org/namespaces/inkscape" xmlns:rdf="http://www.w3.org/1999/02/22-rdf-syntax-ns#" xmlns:sodipodi="http://sodipodi.sourceforge.net/DTD/sodipodi-0.dtd" xmlns:svg="http://www.w3.org/2000/svg"
	 xmlns="http://www.w3.org/2000/svg" xmlns:xlink="http://www.w3.org/1999/xlink" x="0px" y="0px" viewBox="0 0 400 400"
	 style="enable-background:new 0 0 400 400;" xml:space="preserve">
<path d="M131,68.8c1-1.7,1.4-3.6,1.4-4.8c0-2-0.4-3.2-2.1-5.6c-1.7-2.4-2.8-3.6-5.1-4.3c-1.3-0.4-2.8-0.2-4.3,0.2
	c-1.7,0.4-2.5,2.3-1.8,3.8c8.5,17.6-4.1,37.8,6.6,39.9c0.9,0.2,1.8,0.2,2.6-0.1c5.7-1.9,0.1-13.4,0.8-23.2
	C129.2,72.6,129.9,70.6,131,68.8z"/>
<path d="M337.4,276.5c-0.6-0.9-0.9-1.7-1.2-2.5c-0.6-1.6-1.5-3.1-2.7-4.3l-2.4-2.4c-1-1-2-2-2.9-3.2c-4.6-5.8-10.2-11-16.1-15.5
	c-0.5-0.4-0.9-0.8-1.3-1.3c-4.9-6.4,4.2-18.8,16-25.2c0.9-0.5,1.3-1.7,0.7-2.6c-2.3-3.6-5.8-8.5-8.9-11.2
	c-9.5-8.1-19.8-16.2-30.5-23c-5.9-3.7-9.7-5.1-16.2-7.8c-2.6-1.1-9.1-3.2-10.5-5c-3.3-4.2-4.6-10-7.2-14.8
	c-5.4-10.3-10.3-21.6-15-32.4c-3.2-7.4-6.1-14.3-10.1-20.9c-19.3-31.8-40.2-51-72.5-70c-6-3.5-13.2-5.2-20.8-7
	c-2.2-0.5-4.5-0.9-6.8-1c-2.1-0.2-4.2-0.3-6.3-0.4c-3.4-0.2-6.6-1.5-9.1-3.7c-1.3-1.1-2.5-2.2-3.7-3C99,12.6,71.6-2,63.7,17.3
	c-5,12.2,7.5,24.1,11.9,30.3c3.1,4.3,6.4,9.4,8.6,14.3c1.5,3.2,2.5,6.2,3.7,9.6c3.1,8.3,5.8,17.4,9.8,25.2c2,3.9,4.2,8,6.8,11.5
	c0.4,0.6,0.9,1,1.4,1.5c1.6,1.5,2.6,4.5,2.3,6.7c-0.7,4.2-2,8.3-3.2,12.3c-6.6,21-4.2,47.2,5.6,62.7c1.1,1.8,2.8,4.3,4.9,6.6
	c2,2.1,3.7,4.6,4.8,7.3c7.8,19.8-10,50,7.2,52.2c15.4-0.3-0.6-34.9,7.3-58.1c0.4-1.2,0.7-2.5,1-3.8c0.9-4.2,2.2-11.7,3.2-15.7
	c0.5-1.7,0.7-3.2,1.6-4.8c0.3-0.5,1.1-0.5,1.3,0.1c1.7,4,3.5,8.1,5.5,12.1c0.9,1.9,2,3.7,3.2,5.4c5.7,8.2,14,16.4,21.6,22.2
	c4.2,3.1,8.1,8.3,12.2,10.5c0.2,0.1,0.5-0.1,0.3-0.3c-1.4-2.2-4.4-5-5.7-6.3c-3.3-3.2-4.7-4.4-7.5-8.1
	c-7.8-10.6-14.6-22.2-20.9-34.2c-3-5.7-5.6-12.1-8.1-17.9c-0.5-1.2-0.8-2.6-1.2-4c-0.5-1.5-2.5-1.9-3.4-0.6
	c-2.6,3.3-5.6,6.4-7.4,10.5c-3.4,8-3.7,16.4-5,26.6c-0.1,0.7-0.2,2.3-1.5,1.8c-5.9-2.1-7.6-7.4-9.8-12.6
	c-5.6-13.3-6.6-34.7-1.7-49.9c1.3-4,7-15.2,4.7-20.1c-2.3-4.9-4.8-5.7-6.8-8.5c-2.5-3.5-5.1-8-6.8-11.9c-4.6-10.4-6.7-22-11.5-32.4
	c-2.3-5-6.2-10.1-9.4-14.5c-3.5-4.9-7.5-8.5-10.2-14.5c-1-2.1-2.3-5.5-0.8-7.7c0.8-1.1,1.4-1.7,2.5-2.5c2.5-1.9,9.4,0.6,11.9,1.7
	c6.8,2.8,12.6,5.4,18.4,9.3c2.3,1.5,4.6,3.4,7.2,5.2c1.1,0.8,2.4,1.2,3.7,1.2h1.8c6,0,12.7,0.5,18.4,2.2c9.9,3,18.8,7.8,26.9,12.9
	c24.6,15.5,43.9,37.7,57.7,64.1c2.2,4.2,4,8.3,5.9,12.7c4,9.1,8.9,18.4,12.8,27.3c3.9,8.9,7.7,17.8,13.2,25.2
	c2.9,3.9,13.7,6.6,19.2,8.1c3.8,1,9.4,3.1,12.8,5.1c0.9,0.5,1.7,1.1,2.6,1.6c1.6,1,3,2.1,4.4,3.4c11.4,10.9-3.2,17.1-17.1,25.4
	c-0.3,0.2-0.6,0.3-0.8,0.5c0,0,0,0,0,0l0,0l0,0c-0.9,0.6-1.2,1.8-0.9,2.8c0.6,1.9,1.3,3.8,2.4,5.6c2.3,3.8,6.3,8.9,9.8,11.5
	c3.9,2.9,7.8,6,11.9,8.5c7.3,4.4,15.5,7.1,22.6,11.5c4.2,2.6,8.7,6,12.7,9c1.6,1.2,2.3,3.2,5,4.3
	C337.2,277.5,337.7,276.9,337.4,276.5z M310.6,211.2c0.6,0.1,1.2,0.4,1.7,0.8c1.5,1.2,2.7,2.5,3.2,3.7c0.2,0.4-0.1,0.9-0.6,0.9
	c-2.4-0.1-4.7-0.1-6.9,0c-1.2,0-2.4-0.1-3.6-0.5C294.5,212.9,304.7,209.8,310.6,211.2z M300.5,239c-1.8,0.4-3.7,0-5.2-1.1
	c-2.8-2-5.5-4.4-6.9-6.8c-0.4-0.6,0-1.4,0.7-1.5c3.8-0.6,8-1.9,11.4-2.8c1.5-0.4,2.9-0.7,4.4-0.9c0.6-0.1,1.2-0.1,1.8-0.1
	C314.1,226.5,307.6,237.3,300.5,239z"/>
</svg>
