<?xml version="1.0" encoding="utf-8"?>
<!-- Generator: Adobe Illustrator 23.0.6, SVG Export Plug-In . SVG Version: 6.00 Build 0)  -->
<svg version="1.1"
	 id="svg6" xmlns:cc="http://creativecommons.org/ns#" xmlns:dc="http://purl.org/dc/elements/1.1/" xmlns:inkscape="http://www.inkscape.org/namespaces/inkscape" xmlns:rdf="http://www.w3.org/1999/02/22-rdf-syntax-ns#" xmlns:sodipodi="http://sodipodi.sourceforge.net/DTD/sodipodi-0.dtd" xmlns:svg="http://www.w3.org/2000/svg"
	 xmlns="http://www.w3.org/2000/svg" xmlns:xlink="http://www.w3.org/1999/xlink" x="0px" y="0px" viewBox="0 0 400 400"
	 style="enable-background:new 0 0 400 400;" xml:space="preserve">
<style type="text/css">
	.st0{fill:#000400;}
</style>
<path class="st0" d="M316.5,69.2L208.8,7c-4.7-2.7-12.5-2.7-17.2,0L83.7,69.2c-4.7,2.7-8.7,9.3-8.7,15v124.5c0,5.6,3.8,12.3,8.7,15
	l90.2,52.2c13.8,8,22.9,22.4,23.7,38.3c1.7,31.5-17,64,9.5,64.2c33.8-1-19.6-62.8,22.3-102.7c3.5-3.3,7.5-6.2,11.7-8.7l75-43.4
	c4.7-2.7,8.7-9.3,8.7-15V84.1C325.3,78.8,321.3,72,316.5,69.2z M249,116.6c-0.4,2.3-1.8,5.2-4.1,8.8c-4.2,6.3-9.5,11.8-15.5,16.3
	l-19.3,14.2c2.2-2.2,3.6-5.1,3.8-8.5c0.2-2.7-0.5-5.3-1.8-7.8c-2.2-4-6.5-6.5-11-6.7c-1.3,0-2.9,0-4.3,0.5l47.7-20.1
	C246.8,112.2,249.4,114.2,249,116.6z M200.1,136.2h0.7c3.3,0.2,6.5,2.2,8.3,5.1c1.1,1.8,1.5,3.8,1.3,5.8c-0.5,5.3-5,9.6-10.3,9.6
	h-0.7c-3.3-0.2-6.5-2-8.3-5.1c-1.1-1.8-1.5-3.8-1.3-5.8C190.3,140.5,194.8,136.2,200.1,136.2z M190.1,137.1v0.2
	c-2,2.2-3.3,5.1-3.6,8.3c-0.2,2.7,0.5,5.3,1.8,7.8c2.2,4,6.3,6.5,11,6.7h0.9c1.1,0,2-0.2,2.9-0.5l-94.7,41.8c-1,0.4-1.6-0.9-0.9-1.4
	L190.1,137.1z M251.1,121.4c0.8-2,2.7-4.8,5.3-7.8c5.2-5.9,11.7-10.4,19-13.4l19.9-8.4c0.5-0.2,1,0.5,0.5,0.9l-42,30.9
	C252.5,124.6,250.5,123,251.1,121.4z"/>
<path class="st0" d="M199.4,156.1h0.7c5.1,0,9.3-4,9.6-9c0.2-2-0.2-3.8-1.3-5.6c-1.5-2.7-4.5-4.7-7.8-4.7h-0.7c-5.1,0-9.2,4-9.6,9
	c-0.2,2,0.2,3.8,1.3,5.6C193.1,154.1,196.1,156.1,199.4,156.1z M196.8,146.3c0.2-1.8,1.8-3.3,3.6-3.1s3.3,1.8,3.1,3.6
	c0,1.8-1.8,3.3-3.6,3.1C198.1,149.6,196.6,148,196.8,146.3z"/>
</svg>
