<?xml version="1.0" encoding="utf-8"?>
<!-- Generator: Adobe Illustrator 23.0.6, SVG Export Plug-In . SVG Version: 6.00 Build 0)  -->
<svg version="1.1"
	 id="NPM" xmlns:cc="http://creativecommons.org/ns#" xmlns:dc="http://purl.org/dc/elements/1.1/" xmlns:inkscape="http://www.inkscape.org/namespaces/inkscape" xmlns:rdf="http://www.w3.org/1999/02/22-rdf-syntax-ns#" xmlns:sodipodi="http://sodipodi.sourceforge.net/DTD/sodipodi-0.dtd" xmlns:svg="http://www.w3.org/2000/svg"
	 xmlns="http://www.w3.org/2000/svg" xmlns:xlink="http://www.w3.org/1999/xlink" x="0px" y="0px" viewBox="0 0 400 400"
	 style="enable-background:new 0 0 400 400;" xml:space="preserve">
<path d="M62.5,100.8v82.4c0,4.3,3.5,7.7,7.7,7.7h60.9c4.3,0,7.7,3.5,7.7,7.7v1.6c0,3.8,3.1,6.8,6.8,6.8l7.4,0c3.1,0,6.2,0.3,9.1,1.3
	c34.9,11.5-6.3,74.2,17.8,75.3c21.3-1-9.7-56.2,16.9-74.8c1.9-1.3,3.1-3.4,3.1-5.7c0-1.6,0-3.6,0-5.5c0-3.8,3.1-6.8,6.8-6.8h123.9
	c3.8,0,6.8-3.1,6.8-6.8v-83.3c0-3.8-3.1-6.8-6.8-6.8H69.3C65.6,94,62.5,97,62.5,100.8z M101.5,174.8H84.6c-3.8,0-6.8-3.1-6.8-6.8
	v-51c0-3.8,3.1-6.8,6.8-6.8h47.5c3.8,0,6.8,3.1,6.8,6.8v28.2c0,13.7-9.5-3.7-13.8-14.5c-1-2.6-3.5-4.3-6.4-4.3h-3.6
	c-3.8,0-6.8,3.1-6.8,6.8v34.8C108.3,171.7,105.3,174.8,101.5,174.8z M123.6,167.9v-5.7c0-1.6,0.4-3.1,1.4-4.3
	c3.5-4.2,8.7,0.4,11.7,7.3c1.9,4.5-1.4,9.5-6.3,9.5h0C126.7,174.8,123.6,171.7,123.6,167.9z M184.7,181.6v2.5c0,3.8-3.1,6.8-6.8,6.8
	H161c-3.8,0-6.8-3.1-6.8-6.8V117c0-3.8,3.1-6.8,6.8-6.8h31.6c6.3,0.9,5.8,9.7-4.1,14.6c-2.3,1.2-3.8,3.5-3.8,6.1l0,20.9
	c0,3.8,3.1,6.8,6.8,6.8h2.3c3.5,0,6.3-2.6,6.8-6c2.4-19.3,8.6-37.6,13.4-27.3c0.9,1.9,1.3,4,1.3,6.2v36.5c0,3.8-3.1,6.8-6.8,6.8
	h-16.9C187.8,174.8,184.7,177.8,184.7,181.6z M252.8,174.8c-12.1-2.2,5.8-23.3,8.3-11.6v4.8c0,3.8-3.1,6.8-6.8,6.8H252.8z
	 M315.4,174.8h-1.6c-3.8,0-6.8-3.1-6.8-6.8v-34.8c0-3.8-3.1-6.8-6.8-6.8h-1.6c-3.8,0-6.8,3.1-6.8,6.8v34.8c0,3.8-3.1,6.8-6.8,6.8
	h-1.6c-3.8,0-6.8-3.1-6.8-6.8v-34.8c0-3.8-3.1-6.8-6.8-6.8H266c-2.9,0-5.4,1.8-6.4,4.5c-7.6,20.7-24.5,43.5-29,28.7V117
	c0-3.8,3.1-6.8,6.8-6.8h78c3.8,0,6.8,3.1,6.8,6.8v51C322.2,171.7,319.2,174.8,315.4,174.8z"/>
</svg>
