<?xml version="1.0" encoding="utf-8"?>
<!-- Generator: Adobe Illustrator 23.0.6, SVG Export Plug-In . SVG Version: 6.00 Build 0)  -->
<svg version="1.1" id="Layer_1" xmlns="http://www.w3.org/2000/svg" xmlns:xlink="http://www.w3.org/1999/xlink" x="0px" y="0px"
	 viewBox="0 0 400 400" style="enable-background:new 0 0 400 400;" xml:space="preserve">
<path d="M200.3,5.2c42.4,0,84.8,0.2,127.3-0.2c6.8,0,8.6,2,8.2,8.5c-0.5,9.5-0.4,19.1,0,28.6c0.2,5.2-1.5,7.1-6.7,6.8
	c-9.6-0.6-17,4.5-22.3,11.6c-2.5,3.3-3.7,8.9-2.8,12.9c1.2,5.7,6.5,8.8,12.6,9.1c4.5,0.3,9,0.3,13.5,0c4.7-0.4,5.8,1.6,5.7,5.9
	c-0.3,10.1-0.4,20.2,0,30.2c0.3,5.8-1.8,7-7.2,6.9c-33.9-0.2-67.9,0-101.8-0.2c-8.2,0-15.1,2.6-21,7.9c-7.1,6.4-7.2,13.8,0.5,19.5
	c4.4,3.2,10.4,5.8,15.7,5.9c35.3,0.5,70.5,0.4,105.8,0.1c5.9,0,8.5,1,8,7.7c-0.6,9.8-0.3,19.6-0.1,29.4c0.1,4.2-0.8,6.1-5.6,6.1
	c-52-0.2-103.9-0.2-155.9,0c-4.7,0-5.8-1.6-5.7-5.9c0.3-7.9,0.2-15.9,0-23.9c-0.1-6.4,0.1-10.6,0.1-17.7c0-8,0-14.4,0-21.9
	c0-8.6,0.1-13.6,0.1-19.8c0-9.2,0.2-15.5-0.3-24.2c-0.3-5.1,1.6-6.1,6.3-6.1c26.2,0.2,52.5-0.1,78.7,0.2c6.2,0.1,10.7-2.3,14.5-6.6
	c5.9-6.6,5.4-14.5-1.3-20.3c-6.3-5.5-13.9-7.1-22.2-7.1c-56.5,0.1-112.9,0-169.4,0c-10.6,0-10.6,0-10.6-10.8c0-8.5,0.4-17-0.1-25.4
	C64.2,6.5,66.4,5,72.3,5C114.9,5.3,157.6,5.2,200.3,5.2z"/>
<path d="M199.6,279.9c-42.7,0-85.3-0.1-128,0.1c-5.2,0-7.8-0.3-7.2-6.9c0.9-10.3,0.4-20.7,0.2-31c-0.1-4.9,1.1-7.3,6.6-6.9
	c6.3,0.5,12.8-0.4,19.1,0.2c6.7,0.7,11-2.3,15-6.9c11.5-13.3,12-31.9,0.8-48.5c-8.5-12.6-19.9-22.4-32.2-31.3
	c-8.7-6.3-8.6-6.4-0.3-13c20.2-16.1,40.4-32.2,60.7-48.3c0.6-0.5,1.2-0.9,1.9-1.2c1.6-0.9,3.5,0.1,3.7,1.9c0.1,0.8,0.2,1.7,0.2,2.5
	c0,33.9,0,67.8,0.1,101.7c0.1,14.6,4.9,27.4,15.5,37.9c3.8,3.7,7.8,5.4,13.4,5.4c52.7-0.2,105.5,0,158.2-0.3c7.7,0,9.4,2.1,8.5,10.4
	c-0.9,8.6-0.7,17.3,0.1,26c0.6,6.9-1.2,8.5-7.4,8.5C285.4,279.7,242.5,279.9,199.6,279.9z"/>
</svg>
