<?xml version="1.0" encoding="utf-8"?>
<!-- Generator: Adobe Illustrator 23.0.6, SVG Export Plug-In . SVG Version: 6.00 Build 0)  -->
<svg version="1.1"
	 id="Layer_1" inkscape:version="0.92.2 (5c3e80d, 2017-08-06)" sodipodi:docname="pandora.svg" xmlns:cc="http://creativecommons.org/ns#" xmlns:dc="http://purl.org/dc/elements/1.1/" xmlns:inkscape="http://www.inkscape.org/namespaces/inkscape" xmlns:rdf="http://www.w3.org/1999/02/22-rdf-syntax-ns#" xmlns:sodipodi="http://sodipodi.sourceforge.net/DTD/sodipodi-0.dtd" xmlns:svg="http://www.w3.org/2000/svg"
	 xmlns="http://www.w3.org/2000/svg" xmlns:xlink="http://www.w3.org/1999/xlink" x="0px" y="0px" viewBox="0 0 400 400"
	 style="enable-background:new 0 0 400 400;" xml:space="preserve">
<path d="M290.9,121.8c5.3-15.1,6.7-30.9,4.8-46.8c-1.6-13.8-5.9-26.6-14.3-37.7c-13.8-18.2-32.9-27.3-54.8-30.3
	c-12.4-1.7-25.2-1.3-37.9-1.5c-21.2-0.1-42.6,0-63.9,0c-4.9,0-10,0-15-0.5c-4.4-0.4-6.1,0.8-6.1,5.2c0.1,27,0.3,54.1,0.3,81.1
	c-0.1,44.5-0.4,88.8-0.5,133.2c0,1.6,0,3.3,0.1,4.9c0.2,2.1,0.9,3.4,2.3,4.1c3.3,1.6,6.3,3.6,8.4,6.6
	C142.7,280.4,89,394.9,141.2,395c51.2-4.4-4.5-108.1,22.9-154.6c2.1-3.5,5-6.3,8.3-8.8c2.9-2.2,4.1-5.9,4.1-11.7l0-32.5
	c0-4.1,3.3-7.4,7.4-7.5c1.5,0,3-0.1,4.5-0.1c12.3,0,24.4-0.8,36.2-3.4c2.3-0.5,4.7-0.6,7,0c22.5,5.7,9.3,48.4,13.3,71
	c1.9,10.8,14.7,16.3,23.5,9.7c16.4-12.2-8.8-49.5,8.8-104.3c2.1-6.5,5-12.7,8.3-18.6C287.5,130.3,289.4,126.2,290.9,121.8z"/>
</svg>
