<?xml version="1.0" encoding="utf-8"?>
<!-- Generator: Adobe Illustrator 23.0.6, SVG Export Plug-In . SVG Version: 6.00 Build 0)  -->
<svg version="1.1" id="Layer_1" xmlns="http://www.w3.org/2000/svg" xmlns:xlink="http://www.w3.org/1999/xlink" x="0px" y="0px"
	 viewBox="0 0 400 400" style="enable-background:new 0 0 400 400;" xml:space="preserve">
<path d="M268.6,156c0,39-0.1,77.9,0.1,116.9c0,4.9-0.9,6.4-6.4,6.6c-5.5,0.2-14.3,1.8-18.2-1.7c-3.4-3.1-2.9-12.7-2.9-19.4
	c-0.1-23.5,0-47-0.1-70.5l0,0c0-3.7-4.5-5.5-7.1-2.9c-0.1,0.1-0.2,0.2-0.3,0.3c-13.6,15.2-20.9,32.8-20.3,53.4
	c0.3,11.8-0.1,23.7,0.1,35.5c0.1,3.1-1.4,5.3-5.6,5.3c-4.1,0-11,0-16.3,0c-5.4,0-5.4-2.5-5.3-6.4c0.1-33.9,0-67.9,0-101.8
	c0-7.8-0.1-15.7,0-23.5c0.1-3.3-0.9-4.5-4.4-4.5c-16-0.2-23.3,8.5-20.4,24.1c1.2,6.4,2.1,12.8,2.3,19.3c0.1,5.6-2.8,10.2-8.7,11.5
	c-6.3,1.3-11.4-2.2-12.7-7.7c-1.6-7-2-14.5-1.3-21.7c1-9.8,3.4-19.5-0.7-28.9c-1.6-3.8-4.3-7.6-7.6-10c-23.5-17.4-34-46-26.6-73.9
	c7-26.5,30.5-46.8,58.5-50.4c1.8-0.2,3.6-0.3,5.5-0.3c39.6,0,79.3,0.1,118.9-0.1c5.2,0,7,1.8,7,6.6S296,21,296,25.9
	s-0.7,6.3-6.4,6.3s-10-0.2-15-0.2s-6.1,1.7-6.1,6.4C268.7,77.6,268.6,116.8,268.6,156z M213.4,96.9c0.1,0,0.1,0,0.2,0
	c0,20.7-0.1,41.3,0.1,62c0,0,0,0,0,0.1c0.1,3.2,4.5,4.5,6.3,1.8c0,0,0.1-0.1,0.1-0.1c13.6-20.7,20.2-43.7,20.9-68.2
	c0.6-18,0-36.1,0.2-54.1c0-4.5-1.1-6-6.3-6c-5.2,0-10.9-0.1-15.7-0.1s-5.9,1.6-5.9,6C213.5,57.7,213.4,77.3,213.4,96.9z
	 M170.3,102.9c-0.2-1.2-0.5-4.3-1.4-7.2c-4.7-14.7-12.5-27.3-26.2-35.2c-6.8-3.9-9.1-2.7-10.7,4.9c-4.4,20.3,7.6,41,27.4,47.3
	C168.2,115.5,170.4,113.9,170.3,102.9z M186.3,48.4C186.3,48.4,186.3,48.4,186.3,48.4c0.1-1.3,0.1-2.6,0.1-3.9
	c0-13.5,0-13.8-13.6-12c-2.7,0.3-6.3,3.3-7.2,5.9c-3.2,8.9,5,23.6,14,26.5c4.6,1.5,6.6-0.2,6.7-4.7
	C186.3,56.2,186.3,52.3,186.3,48.4z"/>
</svg>
