<?xml version="1.0" encoding="utf-8"?>
<!-- Generator: Adobe Illustrator 23.0.6, SVG Export Plug-In . SVG Version: 6.00 Build 0)  -->
<svg version="1.1" id="Layer_1" xmlns="http://www.w3.org/2000/svg" xmlns:xlink="http://www.w3.org/1999/xlink" x="0px" y="0px"
	 viewBox="0 0 400 400" style="enable-background:new 0 0 400 400;" xml:space="preserve">
<path d="M290.2,111.8c2.9-1.9,8.8-25.6,10.2-29.5s8.2,5.4,10.6,9.7c6.3,11.6,6.8,24,5.3,36.7c-1.5,12.4-4.9,24.1-10.5,35.2
	c-5.5,10.9-13.1,20-23.4,26.7c-5.9,3.8-7.5,9.3-7,15.8c0.2,2.7,0.8,5.4,0.7,8.1c-0.3,7-5.8,10.6-12.4,8.1c-2.3-0.9-4.4-2.2-6.6-3.4
	c-2.3-1.2-4.1-0.4-4.3,2.1c-0.3,2.6,0,5.4,0.3,8c0.3,2.8,1.2,5.6,1.5,8.4c0.6,8.1-4,13.9-11.3,14.6c-8.3,0.8-15.5-4.3-16.3-12
	c-0.4-3.7,0.6-7.5,1-11.3c0.4-3.8,1.3-7.6,1.2-11.3c-0.3-6.6-4.7-11.5-11.2-12.2c-1.8-0.2-4.8,1.6-5.7,3.3
	c-1.7,3.5-2.6,7.5-3.4,11.4c-1.1,4.9-1.9,9.8-2.7,14.7c-1.5,9.1-2.9,18.2-4.4,27.3c-0.6,3.3-1.4,6.6-2.1,10
	c-0.7,3.8-3.2,5.9-6.5,7.3c-9.5,4.1-13.8,12.7-11.3,22.8c1.3,5.2,3.4,10.3,4.6,15.6c0.8,3.8,1.2,7.9,0.7,11.7
	c-0.9,6.2-5.6,9.8-11.9,10c-10.7,0.4-18.4-7.9-17.4-19.1c0.3-4,1.1-8.1,1.5-12.1c1.2-11.8-1.2-22.3-11.4-29.8
	c-3.9-2.9-2.4-7.3-1.9-11c1.5-10.2,3.4-20.4,5.2-30.5c1.2-6.7,2.6-13.4,3.9-20c0.1-0.5,0.4-1.6-0.7-1.9c-1.1-0.3-4.9,4.5-6.3,7.3
	c-4,8-7.4,16.3-11.3,24.3c-0.5,1.1-2.5,2.2-3.8,2.2c-5.3,0-10.6-0.5-15.8-0.6c-8.5-0.1-17,0-25.5,0c-6.5,0-9.3-4-8.1-10.4
	c1.5-7.5,2.4-15.1,3.7-22.7c1.6-9.1,3.4-18.1,5-27.2c1.6-9.2,3-18.5,4.5-27.8c0.7-4.4,1.6-8.8,2.4-13.3c1.3-7.5,2.5-15.1,3.8-22.6
	c1.7-10.1,3.5-20.1,5.2-30.2c1.5-9,2.8-18,4.3-27c1-6.2,2.3-12.4,3.4-18.6c1.6-8.9,3-17.7,4.5-26.6c0.6-3.2,1-6.5,1.8-9.6
	c1.2-4.2,5.4-7.4,10-7.3c17.2,0.2,34.5,0.5,51.7,0.7c14.2,0.1,28.4-0.7,42.5,0.3c16.5,1.2,32.6,5.2,46,15.7
	c10,7.8,15.4,18.4,17.2,31.3c1.9,14-1,27.2-5,40.3c-1.2,4-0.5,10.8,1.4,16.1C286.5,111.6,287.3,113.6,290.2,111.8z M144.8,201.6
	c1.5,0.5,5.6-3.7,7.9-6.2c5.9-6.2,8.6-13.9,9.2-22.3c0.5-5.9,2.7-9,7.7-9.2c3.1-0.1,6.1,0.2,9.2,0.2c11.5-0.1,23.1,0.5,34.6-0.5
	c11.4-1,22.6-3.9,33-8.6c12-5.4,20.6-13.5,23.1-26.9c0.3-1.4,0.8-4.1-0.2-4.5c-1-0.5-8,8.4-12.8,11.8c-6.4,4.6-13.4,8.1-20.9,10.7
	c-11.1,3.9-22.9,5.6-34.8,5.8c-11.3,0.2-22.7,0.4-34-0.1c-6.5-0.3-14.2,5.3-15.3,11.4c-0.8,4.3-1.7,8.6-2.5,12.9
	C147.5,184.5,143.2,201.1,144.8,201.6z"/>
</svg>
