<?xml version="1.0" encoding="utf-8"?>
<!-- Generator: Adobe Illustrator 23.0.6, SVG Export Plug-In . SVG Version: 6.00 Build 0)  -->
<svg version="1.1"
	 id="Layer_1" inkscape:version="0.92.1 r15371" sodipodi:docname="picarto.svg" xmlns:cc="http://creativecommons.org/ns#" xmlns:dc="http://purl.org/dc/elements/1.1/" xmlns:inkscape="http://www.inkscape.org/namespaces/inkscape" xmlns:rdf="http://www.w3.org/1999/02/22-rdf-syntax-ns#" xmlns:sodipodi="http://sodipodi.sourceforge.net/DTD/sodipodi-0.dtd" xmlns:svg="http://www.w3.org/2000/svg"
	 xmlns="http://www.w3.org/2000/svg" xmlns:xlink="http://www.w3.org/1999/xlink" x="0px" y="0px" viewBox="0 0 400 400"
	 style="enable-background:new 0 0 400 400;" xml:space="preserve">
<path d="M314.1,89.7C268.1,62.3,222,35,175.8,7.7c-9.6-5.6-17.3-1.2-17.5,9.9c-0.1,8.6,0.2,17.3-0.1,25.9c0,0.4,0,0.9,0,1.3
	c0,2-0.1,4.1-0.4,6.1c-2.3,15.1-5.6,26.5-11.7,23.6c-2.2-1-3.5-3.4-3.5-5.8c0-3.5,0-9.1,0-9.4c0-17.6,0.1-24.5,0-42.1
	c0-10.1-2-12.1-11.9-12.1C117.3,5,104.2,5,91,5C80.8,5.1,78.9,6.9,78.9,16.9c0,41.9,0,83.8,0,125.7c0,41.5,0,83.1,0,124.5
	c0,1.7-0.1,3.5,0.1,5.3c0.4,4.4,2.7,7.4,7.3,7.5c16.2,0.2,32.4,0.2,48.6,0.1c4.3,0,6.8-2.5,7.4-6.8c0.3-2.3,0.3-4.6,0.3-6.8l0-105.3
	c0-10,0.7-20,2.3-29.8c4.8-29.9,14.2-41.1,43-45.4c7.8-1.2,15.8-0.4,23.3,2.2c1.9,0.7,3.8,1.3,5.6,2.1c4.3,1.7,6.7,5.3,6.5,9.9
	c-0.1,4.6-2.6,7.9-7,9.7c-2.3,0.9-4.7,1.6-7,2.5c-10.9,4.5-22,8.3-32.5,13.7c-12.5,6.4-19.7,16.7-18.7,31.5c0.2,3.5,0.1,7,0.1,10.5
	c0,4.8-0.1,9.5,0.1,14.3c0.2,11.1,7.9,15.5,17.4,9.9c21.9-13,43.8-25.9,65.7-38.9c8.1-4.8,18.8-0.7,21.3,8.5
	c6.8,25-18.5,79.8,11.2,83.5c50.7,0.2-29.2-57.3,31-127.4c2.6-3,5.7-5.6,9.2-7.7l0,0C323.5,104.4,323.6,95.4,314.1,89.7z"/>
</svg>
