<?xml version="1.0" encoding="utf-8"?>
<!-- Generator: Adobe Illustrator 23.0.6, SVG Export Plug-In . SVG Version: 6.00 Build 0)  -->
<svg version="1.1"
	 id="svg5" xmlns:cc="http://creativecommons.org/ns#" xmlns:dc="http://purl.org/dc/elements/1.1/" xmlns:inkscape="http://www.inkscape.org/namespaces/inkscape" xmlns:rdf="http://www.w3.org/1999/02/22-rdf-syntax-ns#" xmlns:sodipodi="http://sodipodi.sourceforge.net/DTD/sodipodi-0.dtd" xmlns:svg="http://www.w3.org/2000/svg"
	 xmlns="http://www.w3.org/2000/svg" xmlns:xlink="http://www.w3.org/1999/xlink" x="0px" y="0px" viewBox="0 0 400 400"
	 style="enable-background:new 0 0 400 400;" xml:space="preserve">
<path d="M141.2,252.4h187.5c4.9,0,8.9-3.9,8.9-8.9V41.2c0-4.9-3.9-8.9-8.9-8.9H71.4c-4.9,0-8.9,3.9-8.9,8.9v202.7
	c0,4.8,2.8,9.2,7.1,11.4c52.6,27.2-23.2,117.1,28,120c52.1,0.4-23.9-85.8,21.6-116.5C125.6,254.5,133.4,252.4,141.2,252.4z
	 M82.3,43.4h235.3c4.8,0,8.8,3.9,8.8,8.8V178c0,4.6-3.7,8.2-8.2,8.2h-12.9c-5.2,0-10.3-1.1-14.9-3.4c-20.8-10.6-15.9-36.1-4.8-60.8
	c1.2-2.7,2.5-5.4,4.1-7.9c2.6-4.1,4-9.1,3.7-14.4c-0.7-12.4-10.7-22.4-23.1-23.3c-14.4-1-26.4,10.5-26.4,24.6c0,7,3,13.3,7.7,17.9
	c12.9,13.4-3.2,26.7-30.4,36.7c-5.8,2.1-12,3.2-18.2,3.2h-0.6c-3.7,0-7.2-1.5-9.7-4l-11.9-12c-3.9-3.9-9.6-5.7-15.2-4.6l-9,1.8
	c-5.3,1.1-10.9-1.2-13.9-5.8l-12.7-19.1c-3.1-4.6-9.6-5.3-13.4-1.3l-36.3,36.3c-2.5,2.5-6.6,0.7-6.6-2.7V52.3
	C73.5,47.4,77.5,43.4,82.3,43.4z M255,101.1c0-7.6,6.1-13.8,13.8-13.8c7.6,0,13.8,6.1,13.8,13.8s-6.1,13.8-13.8,13.8
	C261.1,114.9,255,108.8,255,101.1z M80.2,165.5l26.9-26.9c4.2-4.2,11-4.9,15.8-1.2c23.9,18.1-24.3,81,7.3,82.9
	c32.8,0-20.9-56.3,21.7-68l12.8-2.5c3.8-0.7,7.6,0.4,10.3,3.2l12.4,12.4c3.1,3.1,7.3,4.8,11.6,4.8h18.7c5.2,0,10.3,1.7,14.5,4.6
	l24.4,17.4c5,3.5,10.9,5.4,17,5.4h44.2c1,0,1.9,0.2,2.8,0.5c10.5,4.4-18,23.9-54.1,36.8c-12.4,4.4-25.3,6.7-38.5,6.7H82.3
	c-4.8,0-8.8-3.9-8.8-8.8v-50.9C73.5,175.6,75.9,169.8,80.2,165.5z"/>
</svg>
