<?xml version="1.0" encoding="utf-8"?>
<!-- Generator: Adobe Illustrator 23.0.6, SVG Export Plug-In . SVG Version: 6.00 Build 0)  -->
<svg version="1.1" id="Layer_1" xmlns="http://www.w3.org/2000/svg" xmlns:xlink="http://www.w3.org/1999/xlink" x="0px" y="0px"
	 viewBox="0 0 400 400" enable-background="new 0 0 400 400" xml:space="preserve">
<g>
	<path d="M337.5,142.3c0,1.5-4.6,3.9-6.7,5.5c-10.6,7.7-18.1,17.5-20.7,30.5c-1.4,6.9-0.2,13.7,1.7,20.3c1.5,5.1,3,10.3,4.1,15.5
		c1.2,5.5,0.4,10.9-2.4,15.9c-3.8,7-10.9,10.7-18.1,9.4c-6.8-1.2-12.1-6.9-13-14.7c-0.5-4.5,0.2-9.1,0.3-13.7
		c0.1-3.3,0.4-6.7-0.2-9.8c-1.5-7.6-8.3-10.2-14.9-5.9c-5.1,3.3-7.1,8.5-7.8,14.2c-0.4,3.3-0.6,6.6-1,9.9c-0.2,1.8-0.6,3.5-1.1,5.2
		c-2,6.1-7.1,9.5-12.3,8.4c-5.6-1.2-9.1-6.3-8.3-12.8c0.4-3.3,1.3-6.5,1.9-9.7c0.4-2,0.9-4,1.1-6c0.5-5.5-1.8-8.6-7.1-10
		c-4.3-1.2-8.3-0.9-12.5,1.2c-21.8,10.8-43.7,21.3-65.5,32.1c-2.7,1.3-6.2,3.8-8.8,6.8c-2.7,3-8.1,11.5-12,18.4
		c-6.4,11.3-6.2,23.3-2.2,35.5c1.6,5,2.9,10.4,3.3,15.6c0.5,6.9-3,12.4-8.6,14.4c-6.4,2.4-12.1,0.5-16.8-4
		c-3.8-3.6-5.7-8.2-6.2-13.2c-0.5-4.9-0.3-9.9-0.6-14.9c-0.3-4.7-0.3-9.5-1.5-14c-2.2-8.3-11.2-11.9-18.9-8.4
		c-4.9,2.2-9.8,4.2-14.8,6c-3.3,1.2-5-0.3-5-3.8c-0.1-76.2-0.2-152.3-0.3-228.5c0-6.9,0.1-13.8,0.3-20.6c0-2.6,2.1-3.9,4.8-2.9
		c5.2,2,10.5,3.9,15.5,6.4c40,19.9,79.7,40.4,120.1,59.6c42.9,20.4,86.4,39.4,129.6,59.1C334.2,139.8,337.5,140.8,337.5,142.3z"/>
</g>
</svg>
