<?xml version="1.0" encoding="utf-8"?>
<!-- Generator: Adobe Illustrator 23.0.6, SVG Export Plug-In . SVG Version: 6.00 Build 0)  -->
<svg version="1.1" id="Layer_1" xmlns="http://www.w3.org/2000/svg" xmlns:xlink="http://www.w3.org/1999/xlink" x="0px" y="0px"
	 viewBox="0 0 400 400" style="enable-background:new 0 0 400 400;" xml:space="preserve">
<path d="M159.5,112.1c7.6-0.2,8.4-3.5,8.3-8.2c-0.3-12.9-0.4-25.8-0.1-38.7c0.2-9.1,1.3-18.3,1.7-27.4c0.2-4.3,3.3-6.3,8.5-6.3
	c14.8-0.1,29.6-0.1,44.3,0.2c5.7,0.1,9.4,2.1,9.4,7c0,13.8,0.4,27.6,0.4,41.4c0,8.8-0.3,17.6-0.7,26.4c-0.2,3.9,1,6.1,6.8,6.3
	c24.7,0.9,49.5,2,74.2,3c2.4,0.1,4.8-0.1,7.1,0c14.5,0.7,14.6,0.7,16,11.4c1,7.8,2.1,15.6,2,23.3c-0.1,5.6-1.5,11.3-3.2,16.8
	c-0.6,2-3.4,3.9-5.7,5.3c-8.7,5.6-13.2,12.1-9.7,20.8c1,2.4,1.4,4.9,2,7.4c1,4.2-1,9.1-4.8,12.8c-2.9,2.9-6.3,4.9-10,5.3
	c-3.7,0.4-7.3-0.5-9.3-1.3c-2-0.8-8.2-3.9-11.4-9.9c-3.1-5.7-3.6-10.4-0.1-16.2c5.8-9.7,3.5-13.3-7.9-17
	c-12.9-4.2-25.8-5.8-39.6-4.2c-5.3,0.6-7.9,2.1-7.6,6.6c0.4,7.5,0.2,15.1-0.1,22.6c-0.7,16.3-1.4,32.6-2.6,48.9
	c-0.2,2.4-2.3,5-4.5,6.8c-9.9,8.6-15.5,17.5-9.4,29.2c4.8,9.2,2.3,15.7-2.1,20c-4.4,4.3-5.6,5.2-10.2,6.8s-10,2.7-17.4,0.4
	c-7.4-2.3-9.6-5.1-10.5-12.4c-0.9-7.3,0.2-10,4.6-15.1c5.1-5.9,4.1-11.1,0.9-16.7c-3.8-6.5-8.2-12.8-12.2-19.2
	c-0.8-1.2-1.2-2.7-1.2-4.1c0.2-22,0.4-44.1,0.9-66.1c0.1-3.9-1.5-5.5-6.6-5.9c-13.9-1.1-22.2,5.1-29.5,12.5c-2.7,2.7-6,5.5-7.1,8.6
	c-1.4,3.9-2.5,8.7-0.8,12.3c3.7,7.7,3,17.5-0.9,22.7c-3.8,5.2-9,8.9-19.4,8c-10.7-1-13.6-2.8-15.7-7.8c-2.1-5-1.6-12.2-0.2-15.4
	c3.5-8.2,5.6-14.6-0.1-23.9c-3.7-6-8.2-11.1-11.8-16c-2.3-3.1-4.6-5.2-10.1-6.4c-0.9-0.2-1.7-1.8-1.7-2.8c0-13,0.2-26,0.3-38.9
	c0-0.4,0-0.8,0.1-1.2c1.7-10.1,1.8-10.1,15.2-10.4c11.4-0.2,24.8,0,34.4-0.2S151.9,112.3,159.5,112.1z"/>
</svg>
