<?xml version="1.0" encoding="utf-8"?>
<!-- Generator: Adobe Illustrator 23.0.6, SVG Export Plug-In . SVG Version: 6.00 Build 0)  -->
<svg version="1.1"
	 id="pycharm" xmlns:cc="http://creativecommons.org/ns#" xmlns:dc="http://purl.org/dc/elements/1.1/" xmlns:inkscape="http://www.inkscape.org/namespaces/inkscape" xmlns:rdf="http://www.w3.org/1999/02/22-rdf-syntax-ns#" xmlns:sodipodi="http://sodipodi.sourceforge.net/DTD/sodipodi-0.dtd" xmlns:svg="http://www.w3.org/2000/svg"
	 xmlns="http://www.w3.org/2000/svg" xmlns:xlink="http://www.w3.org/1999/xlink" x="0px" y="0px" viewBox="0 0 400 400"
	 style="enable-background:new 0 0 400 400;" xml:space="preserve">
<path d="M337.4,242.4l-0.1,0c0-19.2-15.5-34.7-34.7-34.7l-10,0c-2.3,0-4.5-0.3-6.6-1.1c-9.9-3.5-13.3-13.4-10.2-34.3
	c0.2-1.7,0.7-3.3,1.4-4.8l0,0c10-22.2,12.5-47.1,7.2-70.7c-0.9-4.2-4.7-7.1-9-7.1h-1.6h-1.2c-24.6-0.2-46.2,16.4-52.4,40.3l-0.8,3.5
	c-4.8,25-28.4,37.8-53.4,33c-21.7-4.1-37.4-23.1-37.4-45.2c0-1.4,0.2-3.5,0.4-5.1c0.1-0.8,0.3-1.5,0.7-2.2
	c3.6-5.8,8.6,18.1,15.8,26.4l0-0.2c6.2,9.6,16.9,15.9,29.2,15.9c16.7,0,31-11.9,34.2-28.3c7.2-28.8,33.2-49.4,62.9-49.4
	c0.7,0,1.3,0,2,0h1.5h28.3c3.8-0.1,7.5-0.9,11-2.2c0.9-0.4,0.8-1.7-0.2-1.9c0,0,0,0,0,0c-2.9-0.6-5.8-1.5-8.5-2.6
	c-1.1-0.4-2-1.2-2.5-2.2c-1.5-2.8,1.1-4.9,6.7-6.6c3-0.9,6.2-1.3,9.3-1.6c3.9-0.3,7.8-1.1,11.6-2.5c2.2-0.8,3.8-2.5,4.5-4.6
	c5.3-16.7-2.8-35.1-19.2-42.3C311.9,10,307.3,9,302.6,9l-25.3-0.1h-5.5c-57,0-107,35.9-126,88.4c-0.8,2.3-3.1,3.8-5.5,3.5
	c-8.2-1.1-1-19.4,8.8-35.4c12-18.8,28.2-34.9,47.5-46.6c3.4-2.1,2.5-7.2-1.4-8C139.3,0.3,83.5,33.7,67.1,89.4
	c-2.1,7.2-4,12.7-4.6,20.1c0,1.1,0,2.4,0,3.1v163.9h66.4c2.9-13.6,13.3-24.7,25.4-32.4c10.1-6.4,21.7-10.1,33.6-11.5
	c22.5-2.6,43.8-12,61-27c2-1.7,4.6-2.8,7.2-2.7c4.9,0.1,4.8,3.9,2.6,7.7c-0.9,1.5-2.1,2.9-3.4,4.1c-18,15.5-40.1,25.5-63.7,28.8
	c-2.8,0.4-3.8,4-1.6,5.7c23.3,18.1,52.1,27.9,81.7,27.9h4.1c10.2,0,18.9,7.7,19.8,17.9c2.2,23.7-13.2,61.3,9.9,61.7
	c20.7,0-6.7-44.2,10.7-77.3c2.1-4,5.1-7.4,8.6-10.3c2.2-1.9,4.2-4,6-6.4c0.2-0.1,0.3-0.3,0.5-0.4l-0.2,0.1
	C335.1,256.6,337.4,249.8,337.4,242.4z M291.9,29L291.9,29c1.2-5.9,6.8-9.6,12.7-8.5c5.8,1.2,9.6,6.8,8.5,12.7
	c-1.2,5.8-6.8,9.6-12.7,8.5C294.5,40.5,290.7,34.8,291.9,29z M297.6,58c2.4,2.1,1.5,3-5.7,0.9c-3.2-0.9-5.9-3-7.6-5.9
	c-1.4-2.3-2.6-4.8-3.6-7.4c-0.2-0.4,0.4-0.7,0.7-0.4c3.7,4.4,8.3,8,13.3,10.7C295.7,56.6,296.7,57.3,297.6,58z M141.7,237.9
	c-2.6,6.3-9.1,10.1-12,4.6c-0.6-1.1-0.8-2.4-0.8-3.6v-8.4c0-3.3,3.3-5.5,6.3-4.3c0.5,0.2,1,0.4,1.5,0.6
	C141.3,228.4,143.6,233.4,141.7,237.9z"/>
</svg>
