<?xml version="1.0" encoding="utf-8"?>
<!-- Generator: Adobe Illustrator 23.0.6, SVG Export Plug-In . SVG Version: 6.00 Build 0)  -->
<svg version="1.1"
	 id="svg4" xmlns:cc="http://creativecommons.org/ns#" xmlns:dc="http://purl.org/dc/elements/1.1/" xmlns:inkscape="http://www.inkscape.org/namespaces/inkscape" xmlns:rdf="http://www.w3.org/1999/02/22-rdf-syntax-ns#" xmlns:sodipodi="http://sodipodi.sourceforge.net/DTD/sodipodi-0.dtd" xmlns:svg="http://www.w3.org/2000/svg"
	 xmlns="http://www.w3.org/2000/svg" xmlns:xlink="http://www.w3.org/1999/xlink" x="0px" y="0px" viewBox="0 0 400 400"
	 style="enable-background:new 0 0 400 400;" xml:space="preserve">
<path d="M330.6,108.1c-4.7-18.9-13.7-33.2-32.7-33.2h-17.6c-3.7,0-6.8,2.6-7.5,6.1c-2,9.6-5.3,23.5-7.8,16.7V41.7
	c0-17.7-14.9-31.1-32.6-34c-11.2-1.9-22.8-2.7-34-2.7c-11.2,0.1-21.5,1-30.9,2.7c-27.7,4.9-32.4,15.1-32.4,34v16.8
	c0,4.3,3.1,7.9,7.3,8.6c12.5,2.1,24.7,5.2,17.2,7.3c-1.4,0.4-2.8,0.5-4.3,0.5h-45.4c-19,0-35.7,11.4-40.9,33.2
	c-6,24.9-6.3,40.2,0,66.2c3.4,14.2,10.3,25.2,21.2,30.1c28.3,10.9,39.9,26.6,45.7,43.8l0,0c0,0,0,0,0,0l0,0c0.1,0.1,0.1,0.3,0.1,0.4
	c0.4,1.5,0.9,3,1.6,4.4c16.6,49.9-13.5,104.8,19.9,105.5c24.9,0-17.9-76.6,18.7-80.9c2.2-0.3,4.5-0.1,6.7,0.3
	c15.4,2.5,31,1.8,49.6-3.6C249,269.5,265,259.9,265,241v-20.5c0-2.5-2-4.5-4.5-4.5h-56c-2.5,0-4.5-2-4.5-4.5s2-4.5,4.5-4.5h93.4
	c19,0,26.1-12.9,32.7-32.9C337.4,153.8,337.2,134.4,330.6,108.1z M236.6,232.7c6.8,0,12.3,5.6,12.3,12.4c0,6.9-5.5,12.5-12.3,12.5
	c-6.8,0-12.3-5.6-12.3-12.5C224.3,238.3,229.8,232.7,236.6,232.7z M177.1,66.7c1.2-0.6,2.5-0.8,3.8-0.8h13.7c3,0,5.4,2.4,5.4,5.4
	c0,1.8-1.7,3.2-3.5,2.8C186.8,72.1,170.9,69.8,177.1,66.7z M150.7,37.6c0-6.9,5.5-12.5,12.3-12.5c6.8,0,12.3,5.6,12.3,12.5
	c0,6.9-5.5,12.4-12.3,12.4C156.2,50,150.7,44.4,150.7,37.6z M271.2,118.3c-6.2,15.3-21.8,26.1-38.7,26.1h-65.4
	c-17.9,0-32.1,16.4-32.1,34.3v34.7c0,0.8-0.2,1.7-0.5,2.5c-1.4,2.6-3.5,0.9-5.3-1.8c-2.1-3.2-3.1-6.9-3.1-10.8l0-25.5
	c0-21.6,18.9-40.2,41.1-40.2h65.4c9.4,0,17.7-4.1,23.6-10.5c5.2-4.3,15.6-25.9,16.3-15.3C272.4,114,272,116.2,271.2,118.3z"/>
</svg>
