<?xml version="1.0" encoding="utf-8"?>
<!-- Generator: Adobe Illustrator 23.0.6, SVG Export Plug-In . SVG Version: 6.00 Build 0)  -->
<svg version="1.1"
	 id="svg8" inkscape:version="0.92.4 (5da689c313, 2019-01-14)" sodipodi:docname="circlecheck.svg" xmlns:cc="http://creativecommons.org/ns#" xmlns:dc="http://purl.org/dc/elements/1.1/" xmlns:inkscape="http://www.inkscape.org/namespaces/inkscape" xmlns:rdf="http://www.w3.org/1999/02/22-rdf-syntax-ns#" xmlns:sodipodi="http://sodipodi.sourceforge.net/DTD/sodipodi-0.dtd" xmlns:svg="http://www.w3.org/2000/svg"
	 xmlns="http://www.w3.org/2000/svg" xmlns:xlink="http://www.w3.org/1999/xlink" x="0px" y="0px" viewBox="0 0 400 400"
	 style="enable-background:new 0 0 400 400;" xml:space="preserve">
<path d="M387.8,34.1l-10.6-14.5c-3-4.1-8.8-5-12.8-2l-48.9,36c-3.6,2.6-8.6,2.1-11.5-1.3c-2.1-2.5-4.4-4.8-6.7-7.2
	c-26-26-60.5-40.3-97.3-40.3c-36.4,0-71.5,14.5-97.3,40.3c-26,26-40.3,60.5-40.3,97.3c0,28.8,8.8,56.3,25.2,79.4
	c4.3,6,8,12.5,10.9,19.3c11.3,27.1,12.9,52,11.5,73.3c-3.8,43.6-19.7,72.1,11.3,73.8c0.8,0,1.6,0,2.4-0.1c33.5-0.5,5.3-75,13.8-105
	c2.3-8.2,11.1-12.7,19.2-10c13.8,4.5,28.3,6.9,43.2,6.9c36.7,0,71.3-14.3,97.3-40.3c26-26,40.3-60.5,40.3-97.3
	c0-15.7-2.6-31-7.7-45.4c-1.2-3.5,0-7.4,2.9-9.7l0,0c78.3-53.6-44.4,173.1,36.6,170.7c48.6-5.5-39.8-107.3,19.1-209.3
	C391.2,44.2,391,38.4,387.8,34.1z M219.4,21.6c3.1-2,6.9-2.4,10.5-1.6c22.2,5.4,42.6,16.8,59.2,33.3c1.9,1.9,3.8,3.9,5.5,5.9
	c2.8,3.2,2.2,8.1-1.2,10.6l-57.5,42.3c-3.9,2.9-9.4,0.5-10-4.3C221.8,76.6,202.2,32.7,219.4,21.6z M164.4,204.2
	c5.2,29.2-3.8,42.6-23.8,41.9c-9.5-0.3-18.6-4.3-25.6-10.8c-1.3-1.2-2.7-2.5-4-3.8c-23.4-23.4-36.5-54.5-36.9-87.6
	c-0.4-32.8,12.1-64.6,34.8-88.4c17.8-18.6,40.3-31.1,64.8-36.3c5.8-1.2,11.8,1.2,14.8,6.3c13.9,23.9-26.2,96,3,112
	c2.6,1.4,3,5.1,0.6,6.9l-0.1,0.1c-1.6,1.2-3.9,1-5.3-0.5l-34.6-35.9c-5.2-5.4-13.9-5.5-19.1-0.1l-9.8,10c-5,5-5.1,13.1-0.4,18.3
	l18.2,20.2C153,170,161.2,186.4,164.4,204.2z M289.1,231.5c-15.7,15.7-34.8,26.8-55.7,32.4c-9.9,2.7-20.7-0.8-26.9-9
	c-14.3-19.2-15.3-54.1,15.3-82.7l-0.2,0l89.4-68.2c3.6-2.8,8.9-1,10.1,3.4c3.2,11.2,4.9,23,4.9,35
	C326,176.1,312.9,207.7,289.1,231.5z"/>
</svg>
