<?xml version="1.0" encoding="utf-8"?>
<!-- Generator: Adobe Illustrator 23.0.6, SVG Export Plug-In . SVG Version: 6.00 Build 0)  -->
<svg version="1.1"
	 id="svg8" inkscape:version="0.92.4 (5da689c313, 2019-01-14)" sodipodi:docname="circlex.svg" xmlns:cc="http://creativecommons.org/ns#" xmlns:dc="http://purl.org/dc/elements/1.1/" xmlns:inkscape="http://www.inkscape.org/namespaces/inkscape" xmlns:rdf="http://www.w3.org/1999/02/22-rdf-syntax-ns#" xmlns:sodipodi="http://sodipodi.sourceforge.net/DTD/sodipodi-0.dtd" xmlns:svg="http://www.w3.org/2000/svg"
	 xmlns="http://www.w3.org/2000/svg" xmlns:xlink="http://www.w3.org/1999/xlink" x="0px" y="0px" viewBox="0 0 400 400"
	 style="enable-background:new 0 0 400 400;" xml:space="preserve">
<path d="M341,238.3l-16-13.1c-5.4-4.4-7-12.1-3.7-18.3c10.5-19.7,16.1-41.7,16.1-64.6c0-23.5-5.9-46.1-16.9-66.1
	c-3.4-6.2-1.8-13.9,3.6-18.4l8.1-6.6c6.3-5.2,6.8-14.1,1-19.8l0,0c-5.8-5.8-15.6-6.3-21.9-1.1l-6.2,5.1c-5.4,4.4-13.2,4.5-18.6,0.1
	C262,15.7,231.8,4.9,199.9,4.9c-32.3,0-62.9,11.1-87.4,31.4c-5.4,4.5-13.4,4.4-18.8,0L79.3,24.5c-6.3-5.1-15.6-4.2-20.7,2.1l0,0
	c-5,6.1-4.9,14.9,0.1,21.1c11.7,14.4,15.2,30.8,10,53.8c-1.1,3.5-2,7-2.8,10.5c0,0,0,0.1,0,0.1c0,0,0,0,0,0
	c-2.2,9.8-3.3,19.9-3.3,30.2c0,22.5,5.4,44.1,15.5,63.5c3.2,6.2,1.6,13.8-3.8,18.2l-21.1,17.3c-6.3,5.1-7.2,14.4-2.1,20.7h0
	c5.3,6.3,14.3,7.8,21.4,3.6c8.4-4.9,15.1-7.8,20.4-8.9c6.7-1.4,13.4,2.8,14.8,9.6c14.3,69.7-27.6,119.5,13.7,121.7
	c34.4,0.6,7.2-72.4,14.2-104.2c2-9,11.4-14.2,20.1-11.2c14.1,4.8,28.9,7.2,44.2,7.2c33.7,0,65.5-12,90.6-34.1
	c3.6-3.2,8.9-3.3,12.6-0.3c48.9,49.9-12.5,104.3,25.9,106.2c20.2-3.3,7.2-22.6,1.7-46.7c-4-17.6,0.4-36,11.8-50
	C346.7,249.9,346,242.5,341,238.3z M295.6,81.2c5.2-4.3,13-2.7,16.1,3.3c0,0.1,0.1,0.1,0.1,0.2c3.3,6.5,4.4,14,2.7,21.1
	c-9,37.2-57.2,57.2-82.4,43.6l-0.5-0.4c-4.9-4-4.9-11.4,0-15.4L295.6,81.2z M219.6,21.4c3-1.8,6.6-2.2,10-1.3
	c17.5,4.2,33.9,12.2,48.1,23.4c4.6,3.6,4.6,10.5,0.1,14.2l-43.7,35.7c-4.2,3.5-10.6,1.3-11.9-4C215.6,61.1,205.1,30.1,219.6,21.4z
	 M123.7,42.3c13.6-10.4,29.1-17.9,45.6-22c10.5-2.6,21.1,4.6,22,15.5c1.3,15-5.2,37-8.7,57.1c-1.1,6.3-8.6,9-13.5,5l-45.7-37.4
	C117.6,55.7,117.7,46.8,123.7,42.3z M103.2,200.4c-5.5,4.5-13.8,2.7-16.8-3.7c-8-16.7-12.3-35.2-12.3-54.3
	c0-19.8,4.5-38.9,13.1-56.1c3.1-6.3,11.3-8,16.8-3.6l61.2,50c5.4,4.4,5.4,12.6,0,17L103.2,200.4z M277,241.8
	c-22,17.1-48.8,26.4-77.1,26.4c-28.8,0-56.2-9.6-78.4-27.4c-5.5-4.4-5.5-12.9,0-17.4l70.2-57.4c4.1-3.4,10.1-3.4,14.2,0l71.3,58.2
	C282.8,228.8,282.7,237.4,277,241.8z M298.1,203.3l-16.5-13.5c-10.7-11.8,33.7-40.1,40.5-24.7c0.8,1.7,0.9,3.7,0.4,5.5
	c-2.4,10.4-6.1,20.5-11,29.9C309,205.5,302.4,206.8,298.1,203.3z"/>
</svg>
