<?xml version="1.0" encoding="utf-8"?>
<!-- Generator: Adobe Illustrator 23.0.6, SVG Export Plug-In . SVG Version: 6.00 Build 0)  -->
<svg version="1.1"
	 id="svg6" inkscape:version="0.92.1 r15371" sodipodi:docname="redhat.svg" xmlns:cc="http://creativecommons.org/ns#" xmlns:dc="http://purl.org/dc/elements/1.1/" xmlns:inkscape="http://www.inkscape.org/namespaces/inkscape" xmlns:rdf="http://www.w3.org/1999/02/22-rdf-syntax-ns#" xmlns:sodipodi="http://sodipodi.sourceforge.net/DTD/sodipodi-0.dtd" xmlns:svg="http://www.w3.org/2000/svg"
	 xmlns="http://www.w3.org/2000/svg" xmlns:xlink="http://www.w3.org/1999/xlink" x="0px" y="0px" viewBox="0 0 400 400"
	 style="enable-background:new 0 0 400 400;" xml:space="preserve">
<path d="M227.8,220.6c-0.2,0-0.4,0.2-0.4,0.2c-1.8,2-2.7,2.9-3.7,3.7c-3.1,2.4-6.6-0.2-8.8-1.5c-5.1-2.9-9-1.1-10.1,1.1
	c-0.9,2.2,0.2,5.1,2.9,4.6c3.7-0.4,3.9,0,6.8,1.8c5.3,3.3,9,1.5,10.8,0c1.5-1.3,2.4-2.4,3.3-3.9c1.5-2.9,0.3-5.2-0.4-5.9
	C228.2,220.7,228.1,220.6,227.8,220.6z"/>
<path d="M197.7,21c-76,0-137.5,61.5-137.5,137.3c0,11.9,1.4,23.6,4.3,34.4c1.5,5.5,6.5,9.4,12.2,9.4H77c8.4,0,16.3-2,22.9-5.3
	c1.8-0.9,3.5-1.3,5.5-1.3c4.2,0,8,1.8,10.1,5.5c0.7,1.3,1.4,2.4,2.1,3.3c1.9,2.4,3.2,5.2,3.8,8.2c5.6,24.8-14.3,58,6.5,60.3
	c19.3,0.1-9.9-40.1,4-61.2c0.7-1,1.6-1.9,2.5-2.7c0.4-0.3,0.6-0.7,0.8-1.2c0.9-2.2-0.2-3.7-2.9-4.9c-3.7-1.5-4.6-3.7-6.6-7.3
	c-2-3.5-6.2-5.3-6.8-11.9c-0.6-6.6,4.4-14.8,14.5-12.1c7.3,2,11.9,10.8,13.7,13.9c0.9,1.5,4.2,3.5,6.8,1.1c2.7-2.4,5.1-2.4,7,0.6
	c1.8,2.7,14.1,19.2,27.5,19.6c13.7,0.4,20.9-3.1,26.9-2.9c4.2,0.2,6.2,2.2,8.6,2.7c1.4,0.2,2.6,0,3.7-0.5c2-0.7,4.1-0.9,6.2-0.5
	c10.7,1.9,17.2,6.9,20.3,12.2c1.7,3,2.1,6.7,1.1,10l0,0c-1.1,4.2-4.9,9.2-5.9,10.8c-3.3,5.1-5.7,6.6-8.6,11.9
	c-3.1,5.9-8.2,11.5-9.5,13.2c-1.8,2.2,9.5,0,13.5-3.7c3.3-3.1,9.2-12.7,18.7-15c6.4-1.3,7.5-3.7,6.8-6.2c-0.2-0.2-0.2-0.6-0.2-0.9
	c0-0.9,0.4-1.5,1.3-2c6.6-2.7,15.4-4.4,25.1-4.4c3.4,0,6.7,0.2,10,0.7c4.2,0.6,8.3-1.4,10.5-5.1c11.5-20.2,18.2-43.4,18.2-68.2
	C335.2,82.7,273.7,21,197.7,21z M115.8,104.2c0.5-0.3,1.1-0.5,1.6-0.5c4.5-0.2,9.3,0,14.5,0.4c0.8,0.1,1.3,0.9,1,1.7
	c-1.1,2.8-1.6,5.8-0.8,8.9C134,121.2,110.5,108,115.8,104.2z M258.7,210.6c-1,2.7-4.1,1.1-5.9-0.7c-1.4-1.5-2.6-3.8-0.7-4.5
	c4.1-1.3,8.6-3.5,8.5-1.9C260.4,205.4,259.5,208.1,258.7,210.6z M309.6,155.8c-6.6,36.1-65.9,48.3-123.4,30.9
	c-44.1-13.2-83.7-37.1-94.9-56c-6.6-17.5,37.3-10.9,52.2-2.2c0.6,0.4,1.2,0.8,1.9,1.2c0.1,0.1,0.1,0.1,0.2,0.1
	c0.1,0.1,0.1,0.1,0.2,0.1c10.5,6,24.8,11.4,37.2,15c2.6,0.8,5,2.1,6.9,4c11.6,11.4-1.9,32.4,8.6,32.5c9.4,0.1-2.6-17.9,4.3-28.2
	c1.4-2.1,3.6-3.4,5.9-4.2c2.2-0.7,3.4-2.1,1.2-3.6c-2.9-2-5.5-5.9-7.3-12.7c-0.9-3.7-2-9.2-22.7-13.2c-44.5-8.6-42.8-21.1-41.4-28.2
	c0,0,3.9-17.8,5.5-24c1.5-6.2,5.9-20.5,34.6-14.1c14.6,3.3,23.3,0.1,28.2-1.4c1.2-0.4,2.3-0.6,3.6-0.6c6.1-0.1-1.7,4.4-6.4,7.6
	c0,0,0,0.1,0,0.1l1.3,0.2c0.4,0.1,0.8,0.1,1.2,0c8.3-0.8,15,1,15.4,3.6c0.2,2-3.5,4.2-9,5.5c-0.3,0.1-0.4,0.4-0.4,0.6
	c0,0.2,0,0.5,0.4,0.6c2.2,0.6,5.1,1.1,8,1.1c8.8,0.2,16.1-3.5,16.1-7.7c0.4-3.4-4.6-7-11.6-8.1l-1.4-0.2c-2.7-0.6-1.5-3.1,2.9-3.6
	c1-0.1,2,0,3,0.2c4.8,1.3,9.1,3.5,12.3,6.8c8,8.2,18.7,32.8,23.8,51.6c2.7,9.5,2,13.9,0.6,17.2c-0.9,2.2-1.5,3.5-4.9,9
	c-0.6,0.9,0,2,1.1,1.3c4.5-2.3,7.1-5,8.9-7.6c0.7-1.1,1.8-1.9,3.1-2.1c10.2-1.7-5.5,33,5.7,33.1c15.4-0.8-8.9-34.1,6.9-33.6
	c1.7,0.1,3.3,0.5,4.8,1.3C305.1,134.4,311.7,144,309.6,155.8z"/>
<path d="M183.6,77.6c-6.6,0-11.5,0.9-15.6,0.9c-4.2,0-7.5-2.9-8.8-4.9c-1.3-1.5-5.3-3.1-7.3,2c-2,4.6,1,9.3,4.1,10.7
	c0.7,0.3,1.3,0.8,1.7,1.5c1.6,2.6,5.7,8.2,9,4.5c2.9-3.1,4.6-4.9,20.5-5.9c7.5-0.6,8.4-2.2,8.2-4.2C194.8,80,190.2,77.6,183.6,77.6z
	"/>
</svg>
