<?xml version="1.0" encoding="utf-8"?>
<!-- Generator: Adobe Illustrator 23.0.6, SVG Export Plug-In . SVG Version: 6.00 Build 0)  -->
<svg version="1.1" id="Layer_1" xmlns="http://www.w3.org/2000/svg" xmlns:xlink="http://www.w3.org/1999/xlink" x="0px" y="0px"
	 viewBox="0 0 400 400" enable-background="new 0 0 400 400" xml:space="preserve">
<path d="M215.4,97.4c-0.5,0.1-0.7,1.3-0.9,2c-0.5,1.9-0.7,4-1.3,5.8c-0.7,2.1-1.5,4.2-2.8,5.9c-3.4,4.6-9.3,4.1-12.1-0.9
	c-1.6-3-1.9-6.2-1.5-9.4c0.4-2.7,1-5.3,1.3-8c0.2-1.8,0.4-3.7,0.1-5.6c-0.5-3.1-2.3-3.7-4.9-2.1c-0.7,0.4-1.8,0.8-2.4,0.5
	c-0.6-0.3-1-1.5-1-2.3c-0.1-2.6,0-5.2,0-7.9c0,0,0,0,0,0c0-2.4,0-4.8,0-7.2c0-2.2-0.8-2.9-2.9-2.6c-2,0.3-4,0.7-5.9,1.3
	c-4.9,1.7-9.9,3.2-14.5,5.5c-4.6,2.2-9,5.1-13.2,8c-2.9,2-5.6,4.2-8,6.7c-3.2,3.5-6.2,7.4-9,11.3c-2.6,3.7-5,7.7-6.8,11.8
	c-2,4.7-3.4,9.6-4.9,14.5c-2.4,7.9-2.1,16-1.7,24c0.3,6.1,1.7,12.2,3.8,18c2.6,7.2,6.2,14,10.5,20.3c1.5,2.1,3.3,4,4.8,6.1
	c1.8,2.7,1.8,3.7-0.6,5.8c-4.3,3.8-5.8,8.7-6.3,14.2c-0.5,5.4,0.7,10.6,2.3,15.7c1.5,5.2,2.8,10.4,2.2,15.9
	c-0.4,3.2-1.6,6.2-3.8,8.6c-2.8,2.9-6.2,4.3-10.1,3.1c-4-1.2-6-4.4-6.4-8.4c-0.3-3.4-0.1-6.9,0.2-10.3c0.6-7.4-1.5-13.5-6.4-19.1
	c-5-5.7-9.2-12-13.4-18.3c-5-7.7-8.3-16.3-11-25c-1.5-4.7-2.3-9.7-3.2-14.6c-0.6-3.6-0.9-7.3-1.3-10.9c-0.3-3.6-0.8-7.2-0.5-10.8
	c0.3-5.2,1.2-10.4,1.7-15.6c0.8-7.6,3-14.8,5.7-21.9c2-5.2,4.5-10.1,7.1-15c2.1-3.9,4.5-7.7,7-11.5c1.5-2.4,3.3-4.7,5.1-6.8
	c3.3-3.7,6.7-7.3,10.2-10.8c5.3-5.4,11.4-9.9,17.8-13.9c4.3-2.7,8.7-5.3,13.4-7.3c5.8-2.5,11.9-4.4,17.9-6.3c4-1.3,8.2-2.1,12.4-3
	c1.8-0.4,3.6-0.7,5.4-0.7c2.1,0,2.6-0.9,2.6-2.8c-0.1-4.6,0-9.3,0-13.9c0-1.7-0.1-3.5,1.7-4.3c1.8-0.9,3.4-0.3,5.1,0.9
	c5,3.3,10.3,6.4,15.4,9.6c3.7,2.3,7.4,4.8,11.1,7.1c4.3,2.7,8.5,5.5,12.8,8.2c5.3,3.4,10.6,6.7,15.9,10.2c4,2.6,3.8,5.5-0.4,8.2
	c-2.2,1.4-4.3,2.8-6.5,4.1c-8.8,5.4-12.3,13.6-10.9,23.4c0.9,6.4,3,12.7,4.8,19c1.8,6.2,3,12.4,0.9,18.7c-1.3,3.8-3.4,6.9-7,8.9
	c-4.8,2.7-10.5,1.4-13.1-3.4c-1.4-2.6-2.2-5.8-2.6-8.8c-0.5-3.7-0.4-7.6-0.6-11.4c0-0.3-0.3-0.7-0.1-0.8L215.4,97.4z"/>
<path d="M209.6,269.2c0,2.6,0,5.2,0,7.9c0,2.7-1.3,3.5-3.7,2.1c-3.4-2-6.8-4.2-10.1-6.4c-3-1.9-6-3.9-9.1-5.9
	c-0.4-0.3-1.1-0.3-1.6-0.2c-5.1,1.8-9.3,4.6-10.8,10.2c-0.8,3.1,0.1,6.1,1.4,8.8c1.8,3.6,3.8,7,5.6,10.6c1.5,2.9,2.4,5.9,2,9.2
	c-0.7,6.1-6.2,9.2-12.1,6.9c-5.9-2.4-9.2-7.1-9.6-13.2c-0.4-5.1,0-10.4,0.9-15.4c2.8-15.6-2.2-28.7-12.6-40
	c-1.4-1.5-3.4-2.5-5.1-3.6c-2.2-1.4-2.2-2.5-0.1-3.8c6.3-3.9,12.6-7.7,18.9-11.6c6.4-4,12.6-8.1,19-12c6.2-3.8,12.6-7.5,18.9-11.3
	c1.6-0.9,3-2.1,4.7-3c2.2-1.3,3.9-0.2,3.9,2.4c0,4.6,0,9.3,0,13.9c0,2.9,1.1,3.6,4,2.8c4.1-1.1,8.3-1.9,12.3-3.3
	c3.9-1.4,7.7-3.3,11.4-5.3c2.7-1.4,5.2-3.2,7.6-5.1c3.6-2.9,7-5.9,10.3-9.1c5-4.7,8.9-10.3,12-16.4c2.3-4.6,4.4-9.4,6.2-14.3
	c1.1-3,1.3-6.3,2-9.5c1.1-5.2,1.5-10.5,1.1-15.7c-0.3-4.1-1-8.2-1.8-12.2c-0.7-3.5-1.3-7.1-2.6-10.4c-1.8-4.5-4-8.9-6.3-13.1
	c-2.1-3.8-4.8-7.2-7.2-10.8c-0.2-0.3-0.5-0.6-0.8-0.9c-2.4-2.5-2.2-5.5,0.7-7.6c0.2-0.2,0.4-0.4,0.6-0.6c3.4-3.2,6.8-6.4,10.2-9.6
	c3.5-3.2,7.1-6.3,10.6-9.4c1.5-1.3,4.4-1.1,5.9,0.4c1.7,1.8,3.4,3.7,5,5.7c5.4,7,10.2,14.4,13.8,22.5c2.6,5.9,4.9,12,6.8,18.2
	c1.4,4.4,2,9.1,2.6,13.7c0.8,5.9,1.5,11.8,1.8,17.7c0.1,3.8-0.7,7.7-1.1,11.5c-0.2,1.7-0.5,3.4-0.6,5.1c-0.7,8.6-3.4,16.8-6.4,24.8
	c-2.4,6.3-6.1,12.2-9.4,18.2c-3.2,6-7.3,11.5-12.1,16.4c-3.3,3.4-6.7,6.8-10.2,10.2c-2.6,2.6-2.3,5.7-1.6,8.7c0.6,2.5,2,4.8,2.9,7.3
	c1.3,3.5,3,6.9,3.8,10.4c1.1,4.9-1.5,10.3-5.5,12.5c-3.7,2-8,1.5-11-1.8c-1.7-1.8-2.8-4.1-4.3-6c-0.7-0.9-0.8-2.5-2.4-2.3
	c-1.7,0.1-1.7,1.6-2.2,2.6c-1.2,2.5-2,5.2-3.2,7.6c-1.2,2.4-2.4,4.8-4.2,6.8c-2.5,2.9-5.9,4.1-9.7,2.7c-3.9-1.4-5.6-4.6-5.8-8.5
	c-0.1-2.5,0.2-5.1,0.1-7.7c-0.1-2-0.5-4.1-0.8-6.1c-0.2-1.3-1.2-1.5-2.3-1.3c-4.1,1-8.2,2.1-12.3,3c-1.6,0.4-3.4,0.5-5,0.7
	c-2.7,0.2-3.5,1-3.5,3.7C209.5,263.8,209.6,266.5,209.6,269.2C209.6,269.2,209.6,269.2,209.6,269.2z"/>
</svg>
