<?xml version="1.0" encoding="utf-8"?>
<!-- Generator: Adobe Illustrator 23.0.6, SVG Export Plug-In . SVG Version: 6.00 Build 0)  -->
<svg version="1.1" id="Layer_1" xmlns="http://www.w3.org/2000/svg" xmlns:xlink="http://www.w3.org/1999/xlink" x="0px" y="0px"
	 viewBox="0 0 400 400" enable-background="new 0 0 400 400" xml:space="preserve">
<path d="M290.8,111.9c-0.3-0.4-1.2-1.6-1.8-2.5c-4.7-6.7-11-11-18.9-13.2c-4.4-1.2-5.9-0.6-7.4,3.7c-1.7,4.9-2.9,10-4.5,15
	c-0.7,2.2-1.6,4.4-2.9,6.3c-2.2,3.2-6.3,3.3-8.8,0.3c-1.9-2.2-3.1-5-4.9-7.4c-1.1-1.5-2.4-4.1-4.1-4c-1.7,0.1-2.7,3.1-3.4,4.9
	c-1.3,3.3-2,6.8-3.3,10.1c-0.9,2.3-2.2,4.5-3.8,6.4c-2.1,2.7-5.1,4.1-8.6,3.1c-3.4-1-5.3-3.7-5.6-6.9c-0.3-4.4,0.2-8.9,0.3-13.4
	c0.1-4.6,0.7-9.2,0.2-13.7c-0.5-4.5-2-5.3-6.5-5.3c-18.8,0-37.7,0.1-56.5-0.1c-3.1,0-4.2,0.9-4.1,4.1c0.2,8.8,0,17.6,0.1,26.4
	c0,2.6-0.5,4.7-2.9,6.1c-2.6,1.6-4.8,0.8-7-0.7c-4.4-3-8.7-6.2-13.1-9.2c-3-2.1-3.9-2-4.8,1.5c-1.6,6.4-2.4,12.9-3.6,19.3
	c-0.8,4.2-1.4,8.4-2.4,12.6c-0.3,1.4-1.1,2.7-2,3.9c-3.9,5.4-10.8,5.2-13.8-0.7c-1.5-2.9-2.3-6.4-2.4-9.6
	c-0.1-5.3,0.7-10.6,1.2-15.9c0.9-10,1.3-19.9-2.6-29.4c-1-2.4-2.7-4.8-4.7-6.3c-7-5.3-14.3-10.2-21.5-15.3
	c-5.5-3.9-5.6-8.1-0.2-11.9c23.2-16.4,46.4-32.8,69.6-49.2c2-1.4,4.2-2.4,6.7-1.1c2.7,1.4,3.4,3.7,3.4,6.5c0,8.7,0,17.4,0,26
	c0,4.4,0,4.4,4.6,4.4c36.8,0,73.6-0.1,110.5,0c15.6,0.1,27.1,7.2,33.4,21.6c4.5,10.4,3.8,20.8-1.7,30.8c-0.3,0.6-0.6,0.9-1,1.5
	C291.9,111.2,291.1,112.3,290.8,111.9z"/>
<path d="M108.8,173.3c1.2-0.2,2.6,2.6,4,4.1c1.7,1.8,3.3,3.6,5.1,5.1c5.2,4.4,11.4,6.6,18.2,6.6c38.1,0,76.2,0,114.2,0.1
	c2.8,0,3.6-1.1,3.5-3.7c-0.1-8.7,0-17.4-0.1-26.1c0-2.7,0.1-5.2,2.9-6.8c3-1.7,5.4-0.4,7.8,1.3c14.9,10.5,29.7,21,44.6,31.4
	c8.1,5.7,16.2,11.4,24.3,17.2c5.3,3.7,5.3,8,0.1,11.8c-2.4,1.7-4.7,3.5-7.2,5.1c-6.8,4.2-9.5,10.7-9.5,18.3c0,4.5,0.7,9,0.9,13.5
	c0.1,4.4,0.2,8.8-0.4,13.1c-0.3,2.6-1.6,5.2-3.1,7.4c-4.1,5.9-11.4,6-15.5,0c-2-3-3.3-6.5-4.5-9.9c-3.2-9.4-10.9-12-19.3-6.2
	c-3.8,2.6-7.5,5.3-11.3,7.9c-2.2,1.5-4.4,2.3-7,0.8c-2.5-1.4-2.9-3.6-2.9-6.1c0-9-0.1-18,0.1-27c0-3-1-4-4.4-3.6
	c-2.2,0.3-4.4,0.3-6.6,0.1c-6.7-0.7-11.6,1.2-12.7,7.4c-0.9,5-0.4,10.3-0.4,15.5c0,3.3,0.5,6.7,0.4,10c-0.1,3-1.2,5.8-4.5,6.9
	c-2.8,0.9-5.9-0.3-7.7-3.4c-2-3.4-3.6-7.1-5.3-10.6c-1.1-2.4-2-4.9-3.2-7.1c-1.4-2.6-3-2.7-4.9-0.5c-1.5,1.7-2.7,3.7-4.3,5.4
	c-3.2,3.6-6.5,3.6-9.4-0.2c-1.4-1.9-2.3-4.1-3.3-6.3c-2-4.6-3.8-9.2-5.7-13.9c-1-2.6-2.8-3.4-5.6-3.4c-12.4,0.1-24.9,0.1-37.3,0.1
	c-16.9,0-30.1-9.5-35-25.6c-2.6-8.5-1.8-16.7,1.9-24.4C106.5,176.1,107.7,173.5,108.8,173.3z"/>
</svg>
