<?xml version="1.0" encoding="utf-8"?>
<!-- Generator: Adobe Illustrator 23.0.6, SVG Export Plug-In . SVG Version: 6.00 Build 0)  -->
<svg version="1.1" id="Layer_1" xmlns="http://www.w3.org/2000/svg" xmlns:xlink="http://www.w3.org/1999/xlink" x="0px" y="0px"
	 viewBox="0 0 400 400" style="enable-background:new 0 0 400 400;" xml:space="preserve">
<g>
	<path d="M330.3,254.3c-0.6,2.4-4.2,2.1-4.3-0.4c-0.6-10-1.1-19.6-2.7-29c-6.3-37-29.4-59-64.8-69.2c-24.1-6.9-48.8-8.2-73.6-9.1
		c-4.4-0.2-5.9,1.2-5.8,5.7c0.2,12.4,0.4,24.9-0.2,37.3c-0.2,3.9-2.2,9.5-5,10.8c-2.8,1.3-8.2-0.9-11.5-3.1
		c-7.1-4.7-13.4-10.5-20.3-15.6c-6.6-4.9-11.9-3.3-13.9,4.7c-1.5,6.2-2,12.7-3.1,19.1c-1.7,10.2-7.2,16.8-14.6,18
		c-7.1,1.1-15.1-3.8-18.9-13.3c-2.7-6.6-4.3-13.8-5-20.9c-1.2-11.6-0.8-23.3-1.8-34.8c-1.1-12.2-5.1-22.9-16-30.4
		c-8.8-6-8.3-11,0.1-17.6c30.7-24.1,61.4-48.2,92.1-72.4c10.5-8.3,16.2-6.6,21.2,6.1c3.9,9.8,7.3,19.9,12,29.3
		c4.3,8.7,11.8,13.8,21.8,15.8c17.1,3.4,34.6,6.5,51.1,12c53.9,17.9,74.3,60.6,69.8,113.7c-1.1,13.1-3.5,26.1-5.7,39
		C331,251.4,330.7,252.8,330.3,254.3z"/>
</g>
</svg>
