<?xml version="1.0" encoding="utf-8"?>
<!-- Generator: Adobe Illustrator 23.0.6, SVG Export Plug-In . SVG Version: 6.00 Build 0)  -->
<svg version="1.1" id="Layer_1" xmlns="http://www.w3.org/2000/svg" xmlns:xlink="http://www.w3.org/1999/xlink" x="0px" y="0px"
	 viewBox="0 0 400 400" enable-background="new 0 0 400 400" xml:space="preserve">
<path d="M337.5,196.9c0,1.5-0.1,3-0.1,4.5c0,1.6-1,2.3-2.5,1.7c-2.6-1-5.1-2-7.6-3.2c-2.8-1.3-7.1-0.1-8.5,2.6
	c-0.7,1.4-1.3,3-1.4,4.5c-0.2,3.2-0.1,6.5-0.2,9.8c-0.1,3.1-1,6-3.2,8.3c-3.2,3.4-10,4-12-1.9c-0.7-2.1-0.4-4.7,0-7
	c0.6-3.3,1.9-6.5,2.4-9.8c0.9-6.4-1.8-11.9-5.4-16.9c-0.5-0.7-1.1-1.4-1.6-2.1c-2.7-4.6-7.5-6.4-12-8.4
	c-13.5-6.3-27.1-12.5-40.7-18.7c-7.4-3.3-14.9-6.5-22.5-9.6c-3.2-1.3-6.5-1.1-9.2,1.4c-3.6,3.3-5.9,7.4-7.7,11.8
	c-3.4,8-5.5,16.3-5.9,25c-0.3,5.2-0.5,10.4-0.7,15.5c-0.1,1.4-1,2.2-2.3,1.6c-2.6-1-5.2-2.1-7.8-3.2c-2.8-1.3-7.2-0.1-8.6,2.7
	c-0.7,1.4-1.2,3.1-1.4,4.7c-0.2,3,0,6.1-0.1,9.1c-0.1,3.3-0.9,6.3-3.3,8.8c-3.3,3.3-9.9,3.8-11.9-2c-0.7-2.1-0.4-4.7-0.1-7
	c0.6-3.4,2-6.7,2.4-10.1c0.8-6.3-1.9-11.6-5.4-16.6c-0.5-0.7-1-1.3-1.5-2c-2.2-3.3-5.2-5.4-8.8-7c-10.3-4.9-20.4-9.9-30.7-14.9
	c-2.4-1.2-4.8-0.6-7,0.3c-1.3,0.5-2.2,1.8-2.1,3.3c0.2,2.2,0.8,4.3,1,6.5c0.2,1.9,0.3,4-0.1,5.8c-0.4,1.9-2,2.9-4.1,3.1
	c-2.1,0.2-3.8-0.7-4.7-2.5c-0.8-1.5-1.1-3.3-1.5-5c-0.6-2.7-0.8-5.5-1.6-8.1c-0.8-2.5-2.9-3.8-5.5-4.2c-2.5-0.4-4.8,1.8-5,5
	c-0.1,1.7,0.3,3.4,0.2,5.1c0,2.3,0.2,4.7-0.3,6.9c-0.8,3.6-3.4,5.8-6.8,6.1c-3.4,0.3-6.7-1.7-8.3-4.9c-1.7-3.4-1.4-6.8-0.5-10.3
	c0.9-3.4,2.1-6.8,2.4-10.3c0.8-8.1-3.1-14.1-9-19.1c-1-0.9-2.3-1.6-3.3-2.5c-1.3-1.2-1.2-1.8,0.5-2.5c3.4-1.5,6.9-2.9,10.3-4.4
	c7.9-3.5,15.7-6.9,23.6-10.5c7.3-3.3,14.5-6.7,21.7-10.1c8.4-4,16.7-8,25-12.1c12.2-6,24.2-12.2,36.4-18.2
	c5.1-2.5,10.3-4.8,15.5-7.1c1.3-0.6,2.3,0.2,2.3,1.6c0,11.2,0,22.3-0.1,33.5c-0.1,12.7-0.3,25.3-0.4,38c0,0.7-0.2,1.9,0.3,2
	s0.8-1.2,1.1-1.8c1.5-3.7,1.7-7.5,1.6-11.4c-0.1-1.8,0.4-2.2,2.1-2.7c2.6-0.8,5.1-1.9,7.5-2.9c5.6-2.4,11.2-4.9,16.8-7.4
	c9.9-4.6,19.8-9.2,29.7-13.8c6.8-3.2,13.7-6.5,20.4-9.8c9.2-4.6,18.4-9.3,27.6-13.9c5.6-2.8,11.2-5.6,16.9-8.4c4.3-2,8.6-3.9,13-5.8
	c1.3-0.6,2.3,0.2,2.3,1.5c0,11.2,0,22.4-0.1,33.6c-0.1,9.5-0.6,30.4-0.6,28.5S337.5,196.9,337.5,196.9z"/>
</svg>
