<?xml version="1.0" encoding="utf-8"?>
<!-- Generator: Adobe Illustrator 23.0.6, SVG Export Plug-In . SVG Version: 6.00 Build 0)  -->
<svg version="1.1"
	 id="Layer_1" xmlns:cc="http://creativecommons.org/ns#" xmlns:dc="http://purl.org/dc/elements/1.1/" xmlns:inkscape="http://www.inkscape.org/namespaces/inkscape" xmlns:rdf="http://www.w3.org/1999/02/22-rdf-syntax-ns#" xmlns:sodipodi="http://sodipodi.sourceforge.net/DTD/sodipodi-0.dtd" xmlns:svg="http://www.w3.org/2000/svg"
	 xmlns="http://www.w3.org/2000/svg" xmlns:xlink="http://www.w3.org/1999/xlink" x="0px" y="0px" viewBox="0 0 400 400"
	 style="enable-background:new 0 0 400 400;" xml:space="preserve">
<path d="M301.4,225.8l-14.9-21.3c-6.3-10.8-10.6-21.3-10.8-32c-0.2-9.6,3.5-18.8,9.5-26.2c12.9-15.7,20.9-34.4,22-50.4v-2.9
	c0-48.3-39.6-87.9-87.9-87.9H159c-1.7,0-2.7,2.1-1.5,3.2c5.4,5.7,10.2,13.4,12,20.6c0.1,0.2,0.1,0.4,0.1,0.6
	c0.1,0.4,0.2,0.8,0.3,1.1c0.6,2.8,0.9,5.6,0.9,8.5v0.1l0,0c0,8.6-2.6,16.8-6.9,23.6c-1.1,1.7-2.6,3.2-4.4,4.1
	c-3.7,1.9-6.9,0.6-3.9-7.6c0.4-1,0.8-2,1.4-2.8c2.8-5,4.2-10.8,4.1-17.1c-0.3-19.1-15.7-33.9-34.8-33.6C107.6,6,92.7,21.1,92.7,39.9
	c0,1,0,2,0,2.5c1.1,13.5,9.9,24.9,22.1,29.5c1,0.4,2,0.8,2.9,1.3c6.1,2.8,11.9,6.4,6.1,8.2c-2.8,0.9-5.6,0.7-8.4,0
	c-7.6-2.1-14.3-6.1-19.6-11.6c-0.3-0.3-0.6-0.6-0.9-0.9c-1-1-2.8-0.3-2.8,1.2v0.9v179.3c0,6.9,2.4,12.8,6.3,17.5
	c34.2,50.8-30.7,118.8,19.1,120.5c55.3-2.8-21.4-80.8,22.5-110.6c0.8-0.6,1.7-1,2.6-1.4c10.5-4.6,18-13.8,18-26v-35.3
	c1.2-13.3,4.1-23.4,10.7-30c2.2-2.1,2.4-5.4,0.6-7.9l-1.4-2c-6.4-7.7-10.3-17.6-10.3-28.3c0-24.5,20.1-44.4,44.6-44.3
	c8.5,0.1,16.6,2.6,23.4,6.9c0.1,0.1,0.3,0.2,0.4,0.3c0.7,0.4,1.3,0.9,2,1.3l0.1,0.1c5.3,3.8,9.4,8.9,12.3,14.8
	c5,10.4,11.2,24.8,4.8,21.5c-1.2-0.6-2.3-1.6-3-2.7L233,128c-5.1-7.5-13.3-12.7-22.5-14c-0.8-0.1-1.5-0.3-2.3-0.5
	c-0.9-0.2-2.1-0.2-3.1-0.2c-19.1,0-34.2,15.1-34.2,34.2c0,6.9,2,13.7,6.4,19.6l68.4,97.8c6.4,9.3,16.6,14.6,27.9,14.6
	c18.1,0,32.7-13.7,34.2-31.2c0-0.5,0-1.5,0-2.5v-0.5C307.8,238.6,305.8,231.7,301.4,225.8z"/>
</svg>
