<?xml version="1.0" encoding="utf-8"?>
<!-- Generator: Adobe Illustrator 23.0.6, SVG Export Plug-In . SVG Version: 6.00 Build 0)  -->
<svg version="1.1" id="Layer_1" xmlns="http://www.w3.org/2000/svg" xmlns:xlink="http://www.w3.org/1999/xlink" x="0px" y="0px"
	 viewBox="0 0 400 400" style="enable-background:new 0 0 400 400;" xml:space="preserve">
<path d="M62.5,142.6C62.1,67.3,124.4,2.4,204.6,5.1C277.1,7.5,338,65.3,337.5,143.5c-0.5,76.1-59.6,136.5-137.8,136.5
	C123.1,279.9,62.9,218.9,62.5,142.6z M179.1,78.2c-5.2,0-8.1,0.1-11.6,0.3c-3.1,0.2-5.6,1.6-6.9,2.6c-6.9,5.1-9.9,10.9-8.2,19.8
	c0.6,3.2,1.1,6.5,1,9.7c-0.1,5.3-3.1,8.8-7.8,9.8c-4.4,0.9-9.3-1.2-11.2-5.8c-1.3-3.2-1.6-6.8-2.2-10.3c-0.9-5.2-0.8-8.5-2.1-15.5
	c-1.3-7-2.3-11.9-3.1-19.3c-0.8-7.4-1-7.7-1.4-9.8c-1-4.7-5.4-6.3-8.6-3c-5.4,5.7-10.8,11.5-15.4,17.8C89,92,82.3,111.7,80.6,132.8
	c-1.6,20.7,1.8,40.6,10.6,59.7c8.2,17.8,20.1,32.6,35.4,44.7c10.7,8.5,22.8,14.5,35.6,19.2c17.5,6.4,32.3-0.1,37.6-17.5
	c5.2-17,1.2-32.6-9.2-46.6c-7.1-9.6-11.2-20.1-11.5-32.1c-0.1-2.8,1.2-3.9,3.6-4.2c1.8-0.2,3.6-0.6,5.4-0.8
	c11.2-1.2,20.1-6.5,26.5-15.6c12.9-18.4,8.1-42.8-10.5-54.9C195.7,79.1,187.5,78.2,179.1,78.2z M191.4,60.3
	c13.5,1.1,26.8,8.8,36.4,20.4c7.8,9.5,12.1,20.3,12.9,32.5c1.1,15.8-4,29.7-13.9,42c-7.4,9.1-7.5,28.7,0.1,37.7
	c1.3,1.5,4.9,2.2,6.9,1c0.8-0.4,1.5-1.9,1.6-3.4c0.1-3.1,1.2-3.8,3.9-2.3c8.6,4.7,17.1,9.3,25.7,14c1.2,0.7,3,1.9,2.9,3
	c0,1.2-1.6,2.6-2.8,3.3c-8.2,4.6-16.6,9.1-24.9,13.6c-4.7,2.5-4.7,2.4-5.5-2.9c-0.1-0.5-0.3-1-0.6-1.4c-0.2-0.4-0.7-0.6-1.2-0.4
	c-0.5,0.2-0.9,0.5-1.2,0.8c-4.5,5.9-3.8,16.9,1.5,23.6c5.5,6.9,15.1,10,22,6.7c11.8-5.5,22.2-13.3,30.9-22.7
	c7.1-7.7,13.5-16.4,18.6-25.5c11.9-21.1,16.8-43.9,14.4-68.3c-1.6-16.1-5.9-31.2-13.5-45.4c-8.7-16.3-20.3-30.1-35.5-40.7
	c-3.6-2.5-5.6-2.2-7.3,1.7c-1.4,3.2-1.9,6.8-2.4,10.2c-0.5,3.8-0.1,7.7-0.6,11.5c-0.6,4.6-2.9,8.4-7.7,9.9c-4.9,1.6-9.3,0.1-13-3.3
	c-4.2-3.8-6.2-8.8-7.1-14.2c-0.9-5-1.3-10.2-2.5-15.1c-2.7-11-16.3-22.9-26.2-23.5c-14.9-0.9-29.1,2.1-43.2,6.6
	C152.3,32,146.6,36.4,145,45c-1.4,7.9,3.9,14.5,11.9,14.8c5.3,0.2,10.5-0.2,15.8-0.2C178,59.6,177.9,59.2,191.4,60.3z M206.9,173.5
	l-1.8-1.8c-0.3-0.3-0.8-0.4-1.2-0.1c-0.7,0.7-1.3,1.3-1.3,2.1c0,1.2,0.7,2,1.3,3.1c0.3,0.6,1.2,0.7,1.6,0.2l1.4-1.7
	C207.4,174.7,207.4,173.9,206.9,173.5z"/>
</svg>
