<?xml version="1.0" encoding="utf-8"?>
<!-- Generator: Adobe Illustrator 23.0.6, SVG Export Plug-In . SVG Version: 6.00 Build 0)  -->
<svg version="1.1" id="Layer_1" xmlns="http://www.w3.org/2000/svg" xmlns:xlink="http://www.w3.org/1999/xlink" x="0px" y="0px"
	 viewBox="0 0 400 400" style="enable-background:new 0 0 400 400;" xml:space="preserve">
<path d="M125.6,71c0-19.4,0-38.8,0-58.2c0-5.8,1.6-7.7,7.3-7.7c36,0,72-0.3,108,0.1c19,0.2,36.7,5.5,52,17.3
	c16.9,13,27.5,30,30.7,51.3c2.3,15,1.7,29.9-2.7,44.5c-3.2,10.5-8.6,19.7-15.8,28.1c-13.4,15.8-30.8,24.3-50.7,27.6
	c-10.1,1.7-20.6,1.4-30.9,1.6c-3.3,0.1-5.4,1.1-5.5,4.3c-0.2,3.9-0.6,8.1,0.5,11.8c1.3,4.6,4.6,7.3,10.3,7.1
	c12.8-0.4,25.6-0.1,38.4-0.1c5,0,7.4,1.4,7.7,6.1c0.4,8.4,0,16.9-0.1,25.3c0,3.4-1.9,5.2-5.2,5.5c-4.1,0.3-5.8,3.1-5.7,6.5
	c0.1,4.1,1,8.2,1.9,12.2c1,4.4,3,8.7,3.7,13.2c1.7,10.4-4.3,19.8-13.5,21.9c-9.3,2.1-16.1-3.8-14.7-13.1c0.8-5.2,2.9-10.1,3.9-15.2
	c0.6-2.9,2.1-8.4,0.2-9.2c-1.9-0.8-5.1,2.4-7.7,3.7c-0.4,0.2-0.6,0.5-1,0.7c-9.9,7.8-16.5,5.6-20.3-6.6c-1.2-3.7-2.4-7.4-4.2-10.9
	c-0.7-1.3-2.8-2.6-4.3-2.6c-11.5-0.2-22.9,0-34.4-0.2c-2.7,0-3.4,0.9-3.4,3.5c0.1,10.6,0.1,21.3,0,31.9c0,6.2-1.8,8-7.8,8
	c-10.1,0-20.2,0-30.3,0c-4.7,0-6.6-1.8-6.6-6.5c-0.1-10.1,0-20.2,0-30.3c0-7.6,0.8-6.4-6.3-6.5c-2.6,0-5.1,0.2-7.7,0
	c-2.7-0.2-3.7,0.9-3.5,3.5c0.4,6.6,1.1,13.2,1.2,19.8c0.1,4-0.2,8.1-1.3,11.9c-0.8,2.7-2.7,5.4-4.8,7.2c-5.8,4.8-13.6,1-14.2-6.9
	c-0.3-4.8,0.6-9.6,1.2-14.4c0.7-6.3,0.9-12.5-3-17.9c-1-1.4-3-2.6-4.7-3c-5.1-1.2-7.1-3.2-7.2-8.5c-0.1-6.9-0.1-13.8,0-20.6
	c0.1-6.1,2.5-8.4,8.6-8.4c4.9,0,9.7-0.2,14.6,0.1c2.7,0.1,3.8-0.9,4.5-3.4c1.9-6.2-0.6-14.7-5.8-18.7c-0.9-0.7-2.2-0.9-3.3-1
	c-3.2-0.1-6.5,0-9.7-0.1c-6.1-0.1-8.9-2.7-8.9-8.8c-0.1-8.1-0.1-16.2,0-24.3c0-6.1,2.7-8.7,8.9-8.7c12.5,0,25.1-0.1,37.6,0.1
	c3.3,0.1,4-1,4-4.1C125.5,110.4,125.6,90.7,125.6,71z M170.3,90c0,13.1,0.2,26.1-0.1,39.2c-0.1,4.3,1.3,5,5.2,5
	c14.7-0.2,29.4,0,44.1-0.1c7.9-0.1,15.9,0.2,23.7-0.9c14.7-2.1,25.9-9.9,32-23.7c7.4-16.8,5.4-40-11.7-53.2
	c-9.9-7.7-20.8-11.5-33.3-6.2c-7.2,3.1-10.9,8.4-10.2,16.1c0.4,5.3,1.9,10.6,2.8,15.9c1.2,6.5,1.7,12.9-1.9,18.8
	c-3.5,5.7-9.8,8.5-15.9,7c-6.1-1.5-10.6-6.9-10.9-13.5c-0.1-2.7,0.2-5.4,0.5-8c0.8-6,2.4-11.9,2.6-17.9c0.3-10.7-7-19-17.6-20.9
	c-1.9-0.3-3.8-0.3-5.6-0.9c-3.3-1.3-3.6,0.3-3.6,3C170.4,63.1,170.3,76.5,170.3,90z M170.4,187.5c0,3-0.1,5.9,0.1,8.9
	c0.1,0.8,1.1,2.3,1.7,2.3c6.1,0.5,12.1,0.1,17.3-3.9c5.7-4.4,7.1-11.8,2.8-17.6c-0.6-0.8-2-1.4-3-1.4c-5.4-0.1-10.8,0-16.1-0.1
	c-2.1,0-2.8,0.8-2.8,2.8C170.4,181.6,170.3,184.6,170.4,187.5z M126.4,178.9c0-0.5-2.6-2.6-3.2-2.9c-0.5-0.4-1.9,1-2,1.4
	c-0.1,0.5,2.6,5.4,3.2,5.3C125,182.6,126.4,179.4,126.4,178.9z"/>
</svg>
