<?xml version="1.0" encoding="utf-8"?>
<!-- Generator: Adobe Illustrator 23.0.6, SVG Export Plug-In . SVG Version: 6.00 Build 0)  -->
<svg version="1.1"
	 id="svg4" xmlns:cc="http://creativecommons.org/ns#" xmlns:dc="http://purl.org/dc/elements/1.1/" xmlns:inkscape="http://www.inkscape.org/namespaces/inkscape" xmlns:rdf="http://www.w3.org/1999/02/22-rdf-syntax-ns#" xmlns:sodipodi="http://sodipodi.sourceforge.net/DTD/sodipodi-0.dtd" xmlns:svg="http://www.w3.org/2000/svg"
	 xmlns="http://www.w3.org/2000/svg" xmlns:xlink="http://www.w3.org/1999/xlink" x="0px" y="0px" viewBox="0 0 400 400"
	 style="enable-background:new 0 0 400 400;" xml:space="preserve">
<style type="text/css">
	.st0{fill:#00000B;}
</style>
<path class="st0" d="M201.2,23.6l-7.5-8.5c-1.1-1.2-2.8-1.5-4.2-0.8L179,19.7c-2,1-2.5,3.6-1.1,5.3c2.5,3.1,5,6.1,7.5,9.2
	c1.1,1.3,3,1.7,4.4,0.8l10.4-6.1C202.2,27.8,202.6,25.2,201.2,23.6z"/>
<path class="st0" d="M307.2,31.3c3.6,2.1,6.2,3.4,9.6,5.2c1,0.5,2.2,0.2,2.8-0.7l0.8-1.2c0.6-1,0.4-2.3-0.6-3
	c-3.8-2.8-7.6-5.6-11.7-8.6c-1.4-1-3.4-0.1-3.5,1.6c-0.1,0.7-0.1,1.3-0.1,2C304.6,27.9,304.3,29.6,307.2,31.3z"/>
<path class="st0" d="M239.3,19.5c5.1,0.1,10.2,0.1,15.5,0.1c1.8,0,3.2-1.6,2.9-3.4c-0.4-3-0.7-5.5-1.3-8c-0.2-1-1.7-2.3-2.7-2.4
	c-5.2-0.4-10.4-0.6-16-0.9c-1.6-0.1-2.9,1.4-2.6,3c0.6,3.3,1.2,6.4,2,9.4C237.3,18.3,238.5,19.5,239.3,19.5z"/>
<path class="st0" d="M64,215.9c-0.5,4.1-1,8.2-1.4,12.3c-0.4,3.7,2.2,7.1,5.9,7.5l11.6,1.4c3.6,0.4,6.9-2,7.5-5.6l2.2-12.8
	c0.7-3.9-2.2-7.6-6.2-7.9c-4.2-0.3-8.3-0.6-12.4-0.9C67.6,209.7,64.4,212.3,64,215.9z"/>
<path class="st0" d="M146.5,64.4l-6.5-4.3c-2.8-1.9-6.6-1.4-8.8,1.1c-1.7,1.9-3.3,3.7-5,5.6c-2.7,3.1-2.2,7.9,1.3,10.2l6.7,4.5
	c2.9,1.9,6.8,1.4,9-1.3l4.9-5.8C150.6,71.3,149.9,66.6,146.5,64.4z"/>
<path class="st0" d="M259.5,68.9l3.9,7.2c0.7,1.3,2.3,1.7,3.5,1c7-4,8.1-6.3,5.9-11.9c-0.5-1.2-1.7-1.8-2.9-1.5l-9.1,2.3
	C259.5,66.3,258.9,67.7,259.5,68.9z"/>
<path class="st0" d="M230.7,135.1c-3.8-3-7.6-5.9-11.6-8.9c-1-0.7-2.3-0.4-2.9,0.7c-1.7,3.2-3.2,6.3-4.6,9.4
	c-0.4,0.8,0.1,2.6,0.8,3.2c4.2,3.8,8.5,7.5,13.3,11.5c1,0.8,2.5,0.3,2.8-0.9c1-4.3,2-8.2,2.8-12.1
	C231.5,137,231.3,135.6,230.7,135.1z"/>
<path class="st0" d="M228.4,180.9c-4.6-2.6-9.3-5-14.2-7.6c-1.9-1-4.2,0.3-4.3,2.4c-0.3,4.1-0.5,7.9-0.6,11.6c0,0.7,0.6,1.9,1.2,2.1
	c4.9,2.2,9.9,4.4,15.2,6.6c2.1,0.9,4.5-0.7,4.4-3c-0.2-3.5-0.3-6.6-0.6-9.8C229.4,182.5,229.1,181.3,228.4,180.9z"/>
<path class="st0" d="M302.7,67.9c2.9,0.3,6.3,0.5,9.3,0.8c1.8,0.2,3.4-1.3,3.4-3.1v0c0-1.5-1.1-2.8-2.6-3.1
	c-2.9-0.6-6.3-1.1-9.3-1.7c-1.9-0.4-3.7,1.1-3.7,3.1v0.9C299.9,66.3,301.1,67.7,302.7,67.9z"/>
<path class="st0" d="M336.5,60.8c0.7-2.2,0-4.6-1.7-6.2c-10.2-9.2-21.3-16.5-33.4-22.5h0c-27.2-13.4-55-14.8-83.5-4.7
	c-26.2,9.3-47.1,25.8-62.7,48.4c-10.4,15.1-19.7,30.9-27.8,47.1c-2.7,4.9-5.2,8.4-8.8,9.8c-2.3,0.9-4.9,0.7-7.2-0.2l-15.9-6.2
	c-3-1.2-6.3,0.4-7.4,3.4L84,141.5c-0.8,2.4,0,5.1,2.1,6.5c17.6,12.3,20.6,20.9,13.9,49.5l0.1-0.2c-0.3,1.3-0.6,2.5-0.9,3.8
	c-5.5,23.2-9,47.8-8.1,71.7c0,1,0.1,1.6,0.3,2.7c0.3,2.4,1.9,4.4,4.2,5.1c35.3,10.6-2.4,90.8,25.4,93.8c17.5-0.3-3.3-50.9,8.7-78.7
	c4.3-9.8,14.2-16,24.9-16l65.6,0c3.2,0,5.8-2.2,6.6-5.3c2.1-8.7,8.4-14.6,17.3-18.6c2.2-1,3.2-3.5,2.1-5.7c-2.4-5.1-4.7-9.8-7-14.5
	c-0.3-0.6-1.4-1.3-2.2-1.3c-6-0.1-12-0.1-18.4-0.1c-2.8,0-5.4-1.4-6.8-3.7c0-0.1-0.1-0.1-0.1-0.2c-0.9-1.5-1.5-3.1-1.8-4.8
	c-0.4-2-0.9-4-1.3-6c-5.6-27.3-8.5-55-2.7-82.5c3.5-16.8,9.7-31.6,18.6-44.1c0.7-0.9,1.5-1.6,2.5-0.9l11.4,12.6
	c1.6,1.8,4.5,1.5,5.8-0.6c1-1.8,2-3.4,2.9-5.1c0.6-1.1,0.4-1.6-0.3-2.8c-3-4.8-5.8-8.8-9.1-13.7c-1.1-2.1-0.2-3.6,0.9-5
	c9.5-8.6,21-15.7,34.4-20.9c11.5-4.5,22.8-5.8,33.4-3.5c8.6,1.8,15.7,7.9,18.6,16.2c9.2,26.8-12.9,69.4,3.2,75.2
	c1.5,0.5,3.2,0.6,4.7,0C345.7,138.6,327.1,91,336.5,60.8z"/>
</svg>
