<?xml version="1.0" encoding="utf-8"?>
<!-- Generator: Adobe Illustrator 23.0.6, SVG Export Plug-In . SVG Version: 6.00 Build 0)  -->
<svg version="1.1"
	 id="svg4" xmlns:cc="http://creativecommons.org/ns#" xmlns:dc="http://purl.org/dc/elements/1.1/" xmlns:inkscape="http://www.inkscape.org/namespaces/inkscape" xmlns:rdf="http://www.w3.org/1999/02/22-rdf-syntax-ns#" xmlns:sodipodi="http://sodipodi.sourceforge.net/DTD/sodipodi-0.dtd" xmlns:svg="http://www.w3.org/2000/svg"
	 xmlns="http://www.w3.org/2000/svg" xmlns:xlink="http://www.w3.org/1999/xlink" x="0px" y="0px" viewBox="0 0 400 400"
	 style="enable-background:new 0 0 400 400;" xml:space="preserve">
<path d="M308.1,227.2c18.4-23.4,29.4-53,29.3-85.1C337.2,67,276,5.5,201,5C124.7,4.5,62.6,66.2,62.6,142.4
	c0,75.9,61.6,137.4,137.4,137.4c13.1,0,25.7-1.9,37.7-5.3c1.8-0.5,3.7-1,5.6-1.2c47.3-5.5-13.7,105.1,28.3,108.8
	c38.7-0.7-15.5-67.2,26.8-140.9C301.2,236.3,304.6,231.7,308.1,227.2z M252.2,254.1L252.2,254.1c-0.6,0.3-1.2,0-1.4-0.5l-3.7-8
	c-0.2-0.5,0-1.2,0.5-1.4l0.1,0c0.5-0.2,1.1,0,1.4,0.5l3.7,8C253,253.2,252.8,253.9,252.2,254.1z M251.7,231.6l0.2-0.1
	c0.5-0.3,1.1-0.1,1.4,0.4l9.1,15.8c0.3,0.5,0.1,1.1-0.4,1.4l-0.2,0.1c-0.5,0.3-1.1,0.1-1.4-0.4l-9.1-15.8
	C251,232.5,251.2,231.9,251.7,231.6z M294.8,221.5L294.8,221.5c-0.4,0.6-1.1,0.6-1.6,0.3l-14-11.6c-0.4-0.4-0.5-1-0.2-1.4l0.1-0.1
	c0.4-0.5,1-0.6,1.5-0.2l14,11.6C295.1,220.4,295.2,221,294.8,221.5z M292.3,206.6L292.3,206.6c0.4-0.5,1-0.6,1.5-0.3l7.3,5.2
	c0.5,0.3,0.6,1,0.2,1.5l-0.1,0.1c-0.3,0.5-1,0.6-1.4,0.2l-7.3-5.2C292.1,207.8,292,207.1,292.3,206.6z M287.4,229.6L287.4,229.6
	c-0.5,0.5-1.1,0.5-1.5,0.1l-6.2-6.2c-0.4-0.4-0.4-1.1,0-1.5l0.1-0.1c0.4-0.4,1.1-0.4,1.5,0l6.2,6.2
	C287.8,228.5,287.8,229.2,287.4,229.6z M279.4,237L279.4,237c-0.5,0.4-1.2,0.3-1.5-0.1l-11.6-14c-0.4-0.5-0.3-1.1,0.2-1.5l0.1-0.1
	c0.4-0.3,1.1-0.3,1.4,0.2l11.6,14C279.9,235.9,279.9,236.6,279.4,237z M270.9,243.3L270.9,243.3c-0.6,0.4-1.2,0.3-1.6-0.2l-5.2-7.3
	c-0.3-0.5-0.2-1.1,0.2-1.4l0.1-0.1c0.5-0.4,1.1-0.2,1.5,0.2l5.2,7.3C271.4,242.3,271.3,242.9,270.9,243.3z M305.5,204.3l-15.8-9.1
	c-0.5-0.3-0.7-0.9-0.4-1.4l0.1-0.2c0.3-0.5,0.9-0.7,1.4-0.4l15.8,9.1c0.5,0.3,0.7,0.9,0.4,1.4l-0.1,0.2
	C306.6,204.4,306,204.6,305.5,204.3z M310.5,195l-8-3.7c-0.5-0.2-0.7-0.8-0.5-1.4l0-0.1c0.2-0.5,0.9-0.8,1.4-0.5l8,3.7
	c0.5,0.2,0.7,0.8,0.5,1.4l0,0.1C311.7,195,311,195.2,310.5,195z M314.6,185.1l-17-6.3c-0.5-0.2-0.8-0.8-0.6-1.3l0,0
	c0.2-0.6,0.8-0.9,1.4-0.6l17,6.3c0.5,0.2,0.8,0.8,0.6,1.3l0,0C315.8,185,315.2,185.3,314.6,185.1z M318.2,174.9l-8.8-2.3
	c-0.6-0.2-0.9-0.7-0.7-1.3l0.1-0.2c0.2-0.5,0.7-0.9,1.3-0.7l8.8,2.3c0.6,0.2,0.9,0.7,0.7,1.3l-0.1,0.2
	C319.3,174.8,318.7,175.1,318.2,174.9z M320.6,164.4l-18-3.2c-0.6-0.1-1-0.7-0.8-1.2l0-0.2c0.1-0.6,0.6-0.9,1.2-0.8l18,3.2
	c0.6,0.1,1,0.7,0.8,1.2l0,0.2C321.7,164.2,321.1,164.5,320.6,164.4z M322.1,154l-8.9-0.7c-0.6,0-1-0.6-1-1.1l0-0.1
	c0.1-0.6,0.6-1,1.1-0.9l8.9,0.7c0.6,0,1,0.6,1,1.1l0,0.1C323.2,153.6,322.7,154,322.1,154z M303.3,141.3L303.3,141.3
	c0-0.6,0.5-1.1,1.1-1.1H322c0.6,0,1.1,0.5,1.1,1.1l0,0c0,0.6-0.5,1.1-1.1,1.1h-17.6C303.8,142.4,303.3,141.9,303.3,141.3z
	 M322.1,132.4l-8.9,0.7c-0.6,0-1.1-0.4-1.1-0.9l0-0.1c-0.1-0.6,0.4-1.1,1-1.1l8.9-0.7c0.6,0,1.1,0.4,1.1,0.9l0,0.1
	C323.1,131.8,322.6,132.3,322.1,132.4z M320.8,121.9l-18,3.2c-0.6,0.1-1.1-0.3-1.2-0.8l0-0.2c-0.1-0.6,0.3-1.1,0.8-1.2l18-3.2
	c0.6-0.1,1.1,0.3,1.2,0.8l0,0.2C321.7,121.3,321.3,121.8,320.8,121.9z M318.6,111.5l-8.8,2.3c-0.5,0.1-1.1-0.2-1.3-0.7l-0.1-0.2
	c-0.2-0.6,0.2-1.2,0.7-1.3l8.8-2.3c0.5-0.1,1.1,0.2,1.3,0.7l0.1,0.2C319.5,110.7,319.1,111.3,318.6,111.5z M315.6,101.2l-17,6.3
	c-0.6,0.2-1.2-0.1-1.4-0.6v0c-0.2-0.5,0.1-1.1,0.6-1.3l17-6.3c0.6-0.2,1.2,0.1,1.4,0.6l0,0C316.4,100.4,316.1,101,315.6,101.2z
	 M311.6,91.2l-8,3.7c-0.5,0.2-1.2,0-1.4-0.5l0-0.1c-0.2-0.5,0-1.1,0.5-1.4l8-3.7c0.5-0.2,1.2,0,1.4,0.5l0,0.1
	C312.4,90.3,312.2,90.9,311.6,91.2z M306.6,81.8l-15.8,9.1c-0.5,0.3-1.1,0.1-1.4-0.4l-0.1-0.2c-0.3-0.5-0.1-1.1,0.4-1.4l15.8-9.1
	c0.5-0.3,1.1-0.1,1.4,0.4l0.1,0.2C307.3,80.9,307.1,81.5,306.6,81.8z M301.3,71.1L301.3,71.1c0.4,0.6,0.3,1.2-0.2,1.6l-7.3,5.2
	c-0.5,0.3-1.1,0.2-1.4-0.2l-0.1-0.1c-0.4-0.5-0.2-1.1,0.2-1.5l7.3-5.2C300.3,70.6,301,70.7,301.3,71.1z M294.6,64.2l-13.9,11.6
	c-0.5,0.4-1.2,0.3-1.6-0.2l0,0c-0.4-0.5-0.3-1.1,0.2-1.5l13.9-11.6c0.5-0.4,1.2-0.3,1.6,0.2l0,0C295.1,63.1,295.1,63.8,294.6,64.2z
	 M237.5,119.6c-5.6,0.1-3.8-9.5,3.5-22c6-10.3,14.1-19.3,23.5-26.7l20-15.7c1.4-1.1,3.3,0.7,2.2,2.2l-45.2,60.1
	C240.5,118.8,239.1,119.6,237.5,119.6z M279.6,48.9l-11.6,14c-0.4,0.4-1,0.5-1.4,0.2l-0.1-0.1c-0.5-0.4-0.6-1-0.2-1.5l11.6-14
	c0.4-0.4,1-0.5,1.4-0.2l0.1,0.1C279.9,47.8,279.9,48.5,279.6,48.9z M270.8,40.8L270.8,40.8c0.5,0.4,0.6,1,0.3,1.5l-5.2,7.3
	c-0.3,0.5-1,0.6-1.5,0.2l-0.1-0.1c-0.5-0.3-0.6-1-0.2-1.4l5.2-7.3C269.6,40.6,270.3,40.5,270.8,40.8z M262.4,36.5l-9.1,15.8
	c-0.3,0.5-0.9,0.7-1.4,0.4l-0.2-0.1c-0.5-0.3-0.7-0.9-0.4-1.4l9.1-15.8c0.3-0.5,0.9-0.7,1.4-0.4L262,35
	C262.5,35.3,262.6,36,262.4,36.5z M252.2,30L252.2,30c0.6,0.3,0.8,0.9,0.6,1.4l-3.7,8c-0.2,0.5-0.8,0.7-1.4,0.5l-0.1,0
	c-0.5-0.2-0.8-0.9-0.5-1.4l3.7-8C251,30,251.6,29.8,252.2,30z M242.3,26L242.3,26c0.6,0.2,0.9,0.8,0.6,1.4l-6.3,17
	c-0.2,0.5-0.8,0.8-1.3,0.6l0,0c-0.6-0.2-0.9-0.8-0.6-1.4l6.3-17C241.2,26.1,241.8,25.8,242.3,26z M232,22.7l0.2,0.1
	c0.5,0.2,0.9,0.7,0.7,1.3l-2.3,8.8c-0.2,0.6-0.7,0.9-1.3,0.7l-0.2-0.1c-0.5-0.2-0.9-0.7-0.7-1.3l2.3-8.8
	C230.9,22.8,231.5,22.5,232,22.7z M221.5,20.4l0.2,0c0.6,0.1,0.9,0.6,0.8,1.2l-3.2,18c-0.1,0.6-0.7,1-1.2,0.8l-0.2,0
	c-0.6-0.1-0.9-0.6-0.8-1.2l3.2-18C220.4,20.6,220.9,20.3,221.5,20.4z M210.7,19l0.1,0c0.6,0.1,1,0.6,0.9,1.1l-0.7,8.9
	c0,0.6-0.6,1-1.1,1l-0.1,0c-0.6-0.1-1-0.6-0.9-1.1l0.7-8.9C209.6,19.3,210.2,18.9,210.7,19z M198.8,19.3h0.1c0.6,0,1,0.5,1,1V38
	c0,0.6-0.5,1-1,1h-0.1c-0.6,0-1-0.5-1-1V20.3C197.8,19.8,198.3,19.3,198.8,19.3z M190.4,19.9l0.7,8.9c0,0.6-0.4,1.1-0.9,1.1l-0.1,0
	c-0.6,0.1-1.1-0.4-1.1-1l-0.7-8.9c0-0.6,0.4-1.1,0.9-1.1l0.1,0C189.8,18.9,190.4,19.3,190.4,19.9z M179.7,21.2l3.2,18
	c0.1,0.6-0.3,1.1-0.8,1.2l-0.2,0c-0.6,0.1-1.1-0.3-1.2-0.8l-3.2-18c-0.1-0.6,0.3-1.1,0.8-1.2l0.2,0
	C179.1,20.3,179.6,20.6,179.7,21.2z M169.3,23.4l2.3,8.7c0.1,0.5-0.2,1.1-0.7,1.3l-0.2,0.1c-0.6,0.2-1.2-0.2-1.3-0.8l-2.1-8.8
	c-0.1-0.5,0.2-1.1,0.7-1.2l0,0C168.5,22.5,169.1,22.9,169.3,23.4z M159,26.6l6.3,17c0.2,0.6-0.1,1.2-0.6,1.4l0,0
	c-0.5,0.2-1.1-0.1-1.3-0.6l-6.3-17c-0.2-0.6,0.1-1.2,0.6-1.4l0,0C158.2,25.8,158.8,26.1,159,26.6z M149.2,30.6l3.7,8
	c0.2,0.5,0,1.2-0.5,1.4l-0.1,0c-0.5,0.2-1.1,0-1.4-0.5l-3.7-8c-0.2-0.5,0-1.2,0.5-1.4l0.1,0C148.4,29.8,149,30,149.2,30.6z
	 M139.6,35.4l9.1,15.8c0.3,0.5,0.1,1.1-0.4,1.4l-0.2,0.1c-0.5,0.3-1.1,0.1-1.4-0.4l-9.1-15.8c-0.3-0.5-0.1-1.1,0.4-1.4l0.2-0.1
	C138.7,34.7,139.3,34.9,139.6,35.4z M130.7,41.1l5.2,7.3c0.3,0.5,0.2,1.1-0.2,1.4l-0.1,0.1c-0.5,0.4-1.1,0.2-1.5-0.2l-5.2-7.3
	c-0.3-0.5-0.2-1.1,0.2-1.4l0.1-0.1C129.7,40.5,130.4,40.6,130.7,41.1z M122.1,47.5l11.6,14c0.4,0.5,0.3,1.1-0.2,1.5l-0.1,0.1
	c-0.4,0.3-1.1,0.3-1.4-0.2l-11.6-14c-0.4-0.5-0.3-1.1,0.2-1.5l0.1-0.1C121.2,47,121.8,47.1,122.1,47.5z M114.2,54.6l6.2,6.2
	c0.4,0.4,0.4,1,0,1.4l-0.2,0.2c-0.4,0.5-1.1,0.5-1.5,0.1l-6.2-6.2c-0.4-0.4-0.4-1,0-1.4l0.2-0.2C113,54.2,113.7,54.2,114.2,54.6z
	 M106.7,62.4l14,11.6c0.4,0.4,0.5,1,0.2,1.4l-0.1,0.1c-0.4,0.5-1,0.6-1.5,0.2l-14-11.6c-0.4-0.4-0.5-1-0.2-1.4l0.1-0.1
	C105.6,62.1,106.3,62,106.7,62.4z M100.1,70.9l7.3,5.2c0.5,0.3,0.6,1,0.2,1.5l-0.1,0.1c-0.3,0.5-1,0.6-1.4,0.2l-7.3-5.2
	c-0.5-0.3-0.6-1-0.2-1.5l0.1-0.1C99,70.7,99.7,70.6,100.1,70.9z M94.4,79.8l15.5,8.9c0.7,0.4,0.9,1.2,0.4,1.9v0
	c-0.3,0.5-0.9,0.6-1.4,0.3l-15.8-9.1c-0.5-0.3-0.7-1-0.3-1.5l0.2-0.2C93.3,79.7,94,79.5,94.4,79.8z M89.5,89.2l8,3.7
	c0.5,0.2,0.7,0.8,0.5,1.4l0,0.1c-0.2,0.5-0.9,0.8-1.4,0.5l-8-3.7c-0.5-0.2-0.7-0.8-0.5-1.4l0-0.1C88.3,89.2,89,89,89.5,89.2z
	 M85.3,99.2l17,6.3c0.5,0.2,0.8,0.8,0.6,1.3l0,0c-0.2,0.6-0.8,0.9-1.3,0.6l-17.1-6.3c-0.6-0.2-0.8-0.9-0.6-1.4l0-0.1
	C84.2,99.3,84.8,99,85.3,99.2z M81.8,109.3l8.8,2.3c0.6,0.2,0.9,0.7,0.7,1.3l-0.1,0.2c-0.2,0.5-0.7,0.9-1.3,0.7l-8.8-2.3
	c-0.6-0.2-0.9-0.7-0.7-1.3l0.1-0.2C80.7,109.4,81.3,109.1,81.8,109.3z M79.4,119.7l18,3.2c0.6,0.1,1,0.7,0.8,1.2l0,0.2
	c-0.1,0.6-0.6,0.9-1.2,0.8l-18-3.2c-0.6-0.1-1-0.7-0.8-1.2l0-0.2C78.3,120,78.9,119.6,79.4,119.7z M77.9,130.4l8.9,0.7
	c0.6,0,1,0.6,1,1.1l0,0.1c-0.1,0.6-0.6,1-1.1,0.9l-8.9-0.7c-0.6,0-1-0.6-1-1.1l0-0.1C76.8,130.8,77.3,130.4,77.9,130.4z M96.7,141.3
	v0.1c0,0.6-0.5,1-1,1H77.9c-0.6,0-1-0.5-1-1v-0.1c0-0.6,0.5-1,1-1h17.7C96.2,140.2,96.7,140.7,96.7,141.3z M77.9,151.8l8.9-0.7
	c0.6,0,1.1,0.4,1.1,0.9l0,0.1c0.1,0.6-0.4,1.1-1,1.1l-8.9,0.7c-0.6,0-1.1-0.4-1.1-0.9l0-0.1C76.9,152.4,77.4,151.8,77.9,151.8z
	 M79.2,162.2l18-3.2c0.6-0.1,1.1,0.3,1.2,0.8l0,0.2c0.1,0.6-0.3,1.1-0.8,1.2l-18,3.2c-0.6,0.1-1.1-0.3-1.2-0.8l0-0.2
	C78.3,162.9,78.7,162.3,79.2,162.2z M81.4,172.7l8.8-2.3c0.5-0.1,1.1,0.2,1.3,0.7l0.1,0.2c0.2,0.6-0.2,1.2-0.7,1.3l-8.8,2.3
	c-0.5,0.1-1.1-0.2-1.3-0.7l-0.1-0.2C80.5,173.4,80.9,172.9,81.4,172.7z M84.4,183l17-6.3c0.6-0.2,1.2,0.1,1.4,0.6l0,0
	c0.2,0.5-0.1,1.1-0.6,1.3l-17,6.3c-0.6,0.2-1.2-0.1-1.4-0.6l0,0C83.6,183.7,83.9,183.2,84.4,183z M88.4,193l8-3.7
	c0.5-0.2,1.2,0,1.4,0.5l0,0.1c0.2,0.5,0,1.1-0.5,1.4l-8,3.7c-0.5,0.2-1.2,0-1.4-0.5l0-0.1C87.6,193.8,87.8,193.2,88.4,193z
	 M93.4,202.6l15.8-9.1c0.5-0.3,1.1-0.1,1.4,0.4l0.1,0.2c0.3,0.5,0.1,1.1-0.4,1.4l-15.8,9.1c-0.5,0.3-1.1,0.1-1.4-0.4L93,204
	C92.7,203.5,92.9,202.9,93.4,202.6z M98.7,213.1L98.7,213.1c-0.4-0.6-0.3-1.2,0.2-1.6l7.3-5.2c0.5-0.3,1.1-0.2,1.4,0.2l0.1,0.1
	c0.4,0.5,0.2,1.1-0.2,1.5l-7.3,5.2C99.7,213.6,99,213.5,98.7,213.1z M120.8,208.6L120.8,208.6c0.4,0.5,0.3,1.2-0.1,1.5l-14,11.6
	c-0.5,0.4-1.1,0.3-1.5-0.2l-0.1-0.1c-0.3-0.4-0.3-1.1,0.2-1.4l14-11.6C119.8,208,120.5,208.1,120.8,208.6z M206.3,116.6l8.3-6.5
	c4.1-3.2,10.1-0.7,10.6,4.4c1.2,12.4-8.3,37-23.8,49.5l0,0l-86.8,65.3c-1.4,1.1-3.2-0.8-2.1-2.1l61.6-78.4
	C183.6,136.8,194.4,126,206.3,116.6z M120.4,235.2l11.6-14c0.4-0.4,1-0.5,1.4-0.2l0.1,0.1c0.5,0.4,0.6,1,0.2,1.5l-11.6,14
	c-0.4,0.4-1,0.5-1.4,0.2l-0.1-0.1C120.1,236.4,120.1,235.7,120.4,235.2z M129.2,243.4L129.2,243.4c-0.5-0.4-0.6-1-0.3-1.5l5.2-7.3
	c0.3-0.5,1-0.6,1.5-0.2l0.1,0.1c0.5,0.3,0.6,1,0.2,1.4l-5.2,7.3C130.4,243.6,129.7,243.7,129.2,243.4z M137.6,247.7l9.1-15.8
	c0.3-0.5,0.9-0.7,1.4-0.4l0.2,0.1c0.5,0.3,0.7,0.9,0.4,1.4l-9.1,15.8c-0.3,0.5-0.9,0.7-1.4,0.4l-0.2-0.1
	C137.5,248.8,137.4,248.2,137.6,247.7z M147.8,254.1L147.8,254.1c-0.6-0.3-0.8-0.9-0.6-1.4l3.7-8c0.2-0.5,0.8-0.7,1.4-0.5l0.1,0
	c0.5,0.2,0.8,0.9,0.5,1.4l-3.7,8C149,254.1,148.4,254.4,147.8,254.1z M157.7,258.4L157.7,258.4c-0.6-0.2-0.9-0.8-0.6-1.4l6.3-17
	c0.2-0.5,0.8-0.8,1.3-0.6l0,0c0.6,0.2,0.9,0.8,0.6,1.4l-6.3,17C158.8,258.3,158.2,258.6,157.7,258.4z M168,261.5l-0.2-0.1
	c-0.5-0.2-0.9-0.7-0.7-1.3l2.3-8.8c0.2-0.6,0.7-0.9,1.3-0.7l0.2,0.1c0.5,0.2,0.9,0.7,0.7,1.3l-2.3,8.8
	C169.1,261.3,168.5,261.7,168,261.5z M178.5,263.8l-0.2,0c-0.6-0.1-0.9-0.6-0.8-1.2l3.2-18c0.1-0.6,0.7-1,1.2-0.8l0.2,0
	c0.6,0.1,0.9,0.6,0.8,1.2l-3.2,18C179.6,263.5,179.1,263.9,178.5,263.8z M189.3,265.2l-0.1,0c-0.6-0.1-1-0.6-0.9-1.1l0.7-8.9
	c0-0.6,0.6-1,1.1-1l0.1,0c0.6,0.1,1,0.6,0.9,1.1l-0.7,8.9C190.4,264.8,189.8,265.3,189.3,265.2z M199,265.5h-0.1c-0.6,0-1-0.5-1-1
	v-17.7c0-0.6,0.5-1,1-1h0.1c0.6,0,1,0.5,1,1v17.7C200,265.1,199.5,265.5,199,265.5z M209.6,264.3l-0.7-8.9c0-0.6,0.4-1.1,0.9-1.1
	l0.1,0c0.6-0.1,1.1,0.4,1.1,1l0.7,8.9c0,0.6-0.4,1.1-0.9,1.1l-0.1,0C210.2,265.3,209.6,264.8,209.6,264.3z M220.3,263l-3.2-18
	c-0.1-0.6,0.3-1.1,0.8-1.2l0.2,0c0.6-0.1,1.1,0.3,1.2,0.8l3.2,18c0.1,0.6-0.3,1.1-0.8,1.2l-0.2,0C220.9,263.9,220.4,263.5,220.3,263
	z M230.7,260.7l-2.3-8.7c-0.1-0.5,0.2-1.1,0.7-1.3l0.2-0.1c0.6-0.2,1.2,0.2,1.3,0.8l2.1,8.8c0.1,0.5-0.2,1.1-0.7,1.2l0,0
	C231.5,261.6,230.9,261.3,230.7,260.7z M236.6,240.1l6.3,17c0.2,0.6-0.1,1.2-0.6,1.4l0,0c-0.5,0.2-1.1-0.1-1.3-0.6l-6.3-17
	c-0.2-0.6,0.1-1.2,0.6-1.4l0,0C235.9,239.3,236.4,239.6,236.6,240.1z"/>
</svg>
