<?xml version="1.0" encoding="utf-8"?>
<!-- Generator: Adobe Illustrator 23.0.6, SVG Export Plug-In . SVG Version: 6.00 Build 0)  -->
<svg version="1.1"
	 id="svg4" xmlns:cc="http://creativecommons.org/ns#" xmlns:dc="http://purl.org/dc/elements/1.1/" xmlns:inkscape="http://www.inkscape.org/namespaces/inkscape" xmlns:rdf="http://www.w3.org/1999/02/22-rdf-syntax-ns#" xmlns:sodipodi="http://sodipodi.sourceforge.net/DTD/sodipodi-0.dtd" xmlns:svg="http://www.w3.org/2000/svg"
	 xmlns="http://www.w3.org/2000/svg" xmlns:xlink="http://www.w3.org/1999/xlink" x="0px" y="0px" viewBox="0 0 400 400"
	 style="enable-background:new 0 0 400 400;" xml:space="preserve">
<path d="M337.4,186.4c0-0.3,0-0.4,0-0.6c-1-8-5.2-14.2-11.4-19c-7.2-5.6-15.7-7.9-24.6-8.3c-7.3-0.3-14.5,0.8-21.4,3.3
	c-1.3,0.5-2.6,1-3.8,1.5c-1.2,0.5-2.6,0-3.1-1.2c-2-3.9-4.2-7.7-4.7-12.3c-0.4-3.4-0.9-6.8-0.1-10.1c0.8-3.2,1.8-6.4,2.7-9.6
	c0.4-1.3-0.3-2.8-1.5-3.3c-0.5-0.2-1.1-0.4-1.6-0.5c-3.8-0.6-7.6-0.2-11.3,0.8c-1.3,0.4-2.3,1.1-2.6,2.6c-0.2,0.8-0.5,1.6-0.7,2.5
	c-1,3.4-1.7,6.9-3.2,10.2c-3.9,8.2-6.9,13.5-11.5,21.3c-0.3,0.5-1.1,1.9-1.9,3.1c-0.5,0.9-1.9,0.8-2.3-0.1c-1.2-2.5-2.4-5-2.8-7.8
	c-0.6-4-1.1-8-0.1-12c0.8-3,1.7-6,2.6-8.9c0.3-1-0.1-2.2-1-2.7c-0.6-0.4-1.3-0.6-1.9-0.8l0,0c-12.5-3.1-17.3-16.4-8.5-27.9l0,0
	c6.9-8.4,11.7-17.8,12.9-28.9c0.6-6,0-11.9-2.9-17.4c-3.1-5.9-7.9-10.4-13.7-13.4c-8.5-4.4-17.6-7-27-7h-2.7
	c-10.6,0-27.5,2.8-37.5,6.3c-8.9,3.1-17.7,6.9-26.2,11.1C108.6,65.8,93,75.9,80.1,89.9c-6.4,6.9-11.8,14.6-15,23.6
	c-0.9,2.6-1.8,5.5-2.4,8.2l-0.2,4c0,1.5,0.5,2.6,0.7,3.5c1.7,6.4,5.2,11.9,9.4,17c6,7.2,13.4,12.9,20.9,18.4
	c6.5,4.7,13.2,9.3,19.8,14c0.3,0.2,0.6,0.4,0.9,0.6c1.2,1,1.1,2.9-0.3,3.6l-2.2,1.1c-7.8,3.9-15.2,8.5-22,13.8
	c-4.8,3.7-9.5,7.6-12.7,12.8c-5.1,8-6.9,16.6-3.1,25.8c0.7,1.6,1.6,3,2.7,4.3l0,0c16.1,17.2-2.8,41,10.1,41.5
	c13.6-0.4-7.5-28.4,15.2-37.6c4.9-1.2,9.4-3.3,13.6-6.2c8.7-6,14.7-13.9,17.8-23.8c0,0.1,0,0.1,0,0.1c3.2-10.5,8.1-15.7,13.8-3.8
	l0-0.1c0.9,2.2,2.1,4.3,3.5,6.3c3.4,4.9,11.6,5.1,15.2,0.2c1.3-1.7,2.5-3.6,3.5-5.5c2.5-5.1,3.5-7.5,5.8-12.6c0,0,0.8-1.6,1.1-1.3
	c0.4,0.2,0.2,2.2,0.1,4.3c-0.1,3.3,0.1,6.6,1.2,9.8c1,2.7,2.6,4.7,5.7,5.1c2.1,0.2,3.8-0.7,5.4-2c2.4-1.9,4.4-4.3,5.9-7
	c4.2-7.6,8.4-15.2,12.2-23.1c4.1-8.5,6.3-14.8,10.1-23.4c0,0,0.8-2,1.9-2c1.1,0,1.6,5,2.8,8.3c1.3,3.8,3,7.5,4.8,11.1
	c1,2,0.7,3.2-1.2,5.1c-4.2,4.1-7.7,8.8-11.1,13.6c-1.8,2.6-4.1,5-5.8,7.7c-0.5,0.9-0.9,2-1.1,3c-0.3,2,0.9,3.9,3,4.3
	c1.9,0.4,4,0.6,5.9,0.4c6.8-0.5,12.9-2.9,18.4-6.9c7.1-5.2,9.3-12.4,7.6-20.8c-0.5-2.3-1.3-4.5-2.1-6.7c-0.3-0.8-0.3-1.5,0-2.2
	c8.7-10.3,11.6,2,9.1,12.9c-0.2,0.6-0.4,1.1-0.6,1.7c-0.8,2.4-1.4,4.9-1,7.5c0.5,3.9,4.3,6.5,8.2,5.6c8.3-2,15.4-5.9,20.7-12.9
	c3.6-4.7,3.9-10,2.4-15.6c-0.2-0.7-0.4-1.5-0.7-2.2c-0.4-1.4,0.3-2.9,1.7-3.3c1.2-0.4,2.5-0.8,3.7-1.1c10.9-2.5,21.7-2.1,32.2,1.9
	c6.1,2.3,11.1,6.1,14,12.2c3.6,7.4,1.6,14.4-5.4,19.1c-0.7,0.4-1.4,0.8-1.9,1.3c-0.3,0.3-0.5,1-0.4,1.5c0,0,0.1,0.1,0.1,0.1l-0.1,0
	c14,7-5.6,54.7,6.6,55.9c13.9-0.6-4-39.8,7-64.9c1-1.7,1.6-3.7,1.9-5.8c0,0,0.1-0.8,0-1.9C337.4,187.3,337.4,186.4,337.4,186.4z
	 M123.7,200.6c-0.7,9.8-5.2,17.7-12.4,24.1c-4.1,3.6-8.7,6.2-14.2,7.1c-2,0.3-4,0.4-5.9-0.4c-2.7-1.2-3.3-3.6-3.4-6.2
	c-0.1-4.1,1.4-7.8,3.3-11.4c2.6-4.6,6.4-8.1,10.4-11.4c5.6-4.5,12-8.6,18.2-12.4c1.3-0.8,3,0,3.3,1.5
	C123.7,194.6,123.9,197.6,123.7,200.6z M146.3,177c-1.3,4.7-2.3,9.5-2.5,14.3c-1.4,8.1-7.5-0.6-10.9-6.8c-0.6-1-0.2-2.2,0.8-2.8
	l9.5-5.5c0,0,2.2-1.4,2.8-0.8C146.5,176.1,146.5,176.1,146.3,177z M178.8,158.1c-0.5,3.1-1.2,6.2-2.1,9.3
	c-3.2,10.5-7.2,20.6-11.6,30.6c-0.8,1.9-2,3.5-3,5.3c-0.2,0.3-0.4,0.5-0.6,0.7c-1.3,1.3-2.5,1.2-3.1-0.5c-0.7-1.9-1.2-3.9-1.6-5.9
	c-0.3-1.4-0.2-2.8-0.3-4.2c0.1-9.8,3.1-18.8,8.2-27.1c2.1-3.4,4.4-6.7,7.9-8.9c1.1-0.7,2.3-1.2,3.5-1.5
	C178,155.4,179.1,156.3,178.8,158.1z M215.1,144.3c-0.5,1.5-1,2.9-1.6,4.3c-6.1,13.9-12.3,27.8-18.6,41.7c-1.3,2.9-1.6,3.3-3.1,6.1
	c-0.4,0.7-1.7,3.4-2.5,3.4s-0.8-1-0.8-1.3c0-1.8,0-2.4,0.3-4.1c1.3-6.7,2.9-13.4,4.6-20.1c0.5-2.2,1.7-6.1,2.3-8.2
	c0.4-1.4,0.4-2.7-0.6-3.9c-1.7-2-5.3-2.4-7.4-0.9l-0.9,0.5l0.2-1.5c0.5-3.4,0.5-6.7-0.5-10c-1.1-3.5-4.3-5.9-8-5.8
	c-1.9,0.1-3.9,0.4-5.7,1.1c-7.5,2.9-13.3,8.1-18.2,14.4c-0.5,0.6-1,1.1-1.6,1.4c-6.3,3.5-12.7,7-19,10.5l-3.4,1.9
	c-2.2,1.2-4.9,0.9-6.6-0.9c-0.9-0.8-1.7-1.6-2.6-2.4c-6-4.9-12-9.6-18.1-14.4c-5.3-4.3-10.5-8.7-14.4-14.4c-2.9-4.2-4.8-8.8-5-14
	c-0.2-6.6,1.6-12.7,5-18.3c2.8-4.7,6.3-8.9,10.3-12.6c1.4-1.4,3.1-2.4,5-2.9c12.1-2.7,16.8,19.9,25.2,30.3c0.2,0.2,0.4,0.5,0.6,0.7
	c0.7,0.9,1.5,1.6,2.3,2.3c0,0,0,0,0.1,0c1.1,0.9,2.2,1.7,3.4,2.5c5.8,3.7,12.3,4.9,19,5.2c10.2,0.4,20.1-1.1,29.9-3.8
	c4.4-1.2,8.6-2.8,12.6-4.6C209.9,122.3,217.4,131,215.1,144.3z M208.9,101c-8.7,9.3-19.4,15.7-31.4,19.9c-2.9,1-5.8,1.8-8.7,2.5
	c-4.6,1.1-9.4,0.7-13.8-1c-17.5-6.8-34.5-23.3-24.3-44.1c1.7-3.4,4.5-6.1,8-7.8c7.2-3.5,14.6-6.6,22.3-8.9
	c12.1-3.6,24.5-5.7,37.2-4.2c5,0.6,9.8,1.7,14.3,4.2c3.4,1.9,6.2,4.3,7.5,8.1c1.3,3.8,1.2,7.6,0.4,11.4
	C218.5,88.9,214.2,95.3,208.9,101z M229.3,193.8c-0.6,1.7-1.6,3.5-2.8,5.2c-1.5,2.1-3.3,4-5.1,5.4c-1.9,1.5-2.8,2-3.4,1.7
	c-0.6-0.3-0.5-1.3,0.9-3c1.7-2,4-4.6,5.4-6.3c1.2-1.4,2.5-2.9,3.4-4c1.2-1.4,1.4-1.2,1.7-1C229.8,191.9,229.8,192.5,229.3,193.8z
	 M248.3,163c2-3.4,4.4-7.7,6.4-11.5c0.4-0.7,1.3-0.5,1.5,0.2c1.3,6.3,3.3,12.3,6.4,17.9c0.4,0.8,0.1,1.7-0.7,2.1
	C255.2,174.5,246,170.1,248.3,163z M259.5,195.4c-1,0.5-2,0.9-3,1.4c-0.9,0.5-1.2,0-1.2-0.8c0-0.5,0.1-1.1,0.2-1.6
	c1.7-6,5.1-11.4,9.6-15.7c0.4-0.4,1.2-0.2,1.4,0.4C268.1,185.5,265.3,192.1,259.5,195.4z"/>
</svg>
