<?xml version="1.0" encoding="utf-8"?>
<!-- Generator: Adobe Illustrator 26.0.2, SVG Export Plug-In . SVG Version: 6.00 Build 0)  -->
<svg version="1.1" id="Layer_1" xmlns="http://www.w3.org/2000/svg" xmlns:xlink="http://www.w3.org/1999/xlink" x="0px" y="0px"
	 viewBox="0 0 400 400" style="enable-background:new 0 0 400 400;" xml:space="preserve">
<g>
	<path d="M335.6,255.8c1.2-1.2,1.9-2.8,1.9-4.6c0-1.7-0.7-3.3-1.9-4.6c-13.6-13.6-53.5-53.5-65.8-65.8c-2.1-2.1-2.5-5.4-1-7.9
		c10-16.7,15.7-36.1,15.7-57C284.6,54.7,234.9,5,173.6,5C112.2,5,62.5,54.7,62.5,116.1c0,61.3,49.7,111.1,111.1,111.1
		c20.8,0,40.3-5.8,57-15.7c2.5-1.5,5.8-1.1,7.9,0.9c9,8.9,31.6,31.4,31.6,31.4c54.3,46-2.4,103.1,29,103.8
		c32.4-3.8-12.7-55.2,32.7-87.9C331.8,259.6,333.7,257.8,335.6,255.8z M94,116.1c0-28.4,14.9-53.3,37.3-67.4
		c0.9-0.6,2.8-1.7,2.8-1.7c72.7-25.4-4.9,88.5,41.6,93.4c45.7-0.7-25.4-119.8,39.7-92.1c0,0,1.3,0.8,1.9,1.2
		c21.7,14.2,36,38.7,36,66.6c0,44-35.6,79.6-79.6,79.6C129.6,195.7,94,160.1,94,116.1z"/>
</g>
</svg>
