<?xml version="1.0" encoding="utf-8"?>
<!-- Generator: Adobe Illustrator 23.0.6, SVG Export Plug-In . SVG Version: 6.00 Build 0)  -->
<svg version="1.1" id="Layer_1" xmlns="http://www.w3.org/2000/svg" xmlns:xlink="http://www.w3.org/1999/xlink" x="0px" y="0px"
	 viewBox="0 0 400 400" style="enable-background:new 0 0 400 400;" xml:space="preserve">
<path d="M146.1,220.1h29.6c2.6,0,4.8,1.8,5.4,4.3c0.1,0.3,0.1,0.6,0.2,0.9c2.4,10,8.9,15,19,14.1c3.6-0.3,7.2-1.4,10.5-2.9
	c9.4-4.1,10.5-17.2,5.5-23.9c-4.1-5.5-9.5-8.8-15.8-11c-6.8-2.3-13.8-4.1-20.4-7c-17-7.4-29.9-19.3-35.9-37.3
	c-6.6-19.9-1.4-37.8,10.7-54.2c0.6-0.8,1.3-1.6,1.4-1.7c-4-7.2-8.6-13.7-11.5-20.8c-11.4-28.2,4.6-61.5,33.3-71.4
	c18.9-6.5,37-6,54.1,4.8c16.8,10.6,23.6,22.8,25.4,42c0.5,5.4-0.5,6.9-1.4,8c-4,5.1-8.6,9.8-12,15.3c-4.1,6.6-4.1,14-0.7,21.1
	c2.4,5.1,4.9,10.1,7.5,15.1c4.1,7.9,7.1,16.2,7.7,24.9c0.4,6.2-1.4,12.6-2.9,18.7c-1.7,7-4.8,13.6-9.3,19.3
	c-2.1,2.7-2.2,6.4-0.2,9.1c1.3,1.8,2.6,3.6,3.8,5.4c5.6,8.5,8.8,18.2,8.7,28.1c-0.1,14.6-5.1,27.8-15,39c-6,6.7-11.3,14.1-16.7,21.3
	c-3.6,4.9-4.6,10.4-3.1,16.4c1,3.8,1.9,7.7,2.2,11.5c0.7,11.6-9.4,19.2-20,15.2c-5.5-2.1-8.3-6.4-8.9-11.9
	c-0.4-4.1-0.4-8.4,0.3-12.5c2.5-13.3-6.7-21.2-15.5-23.8c-12.5-3.7-22.7-10.7-30-21.4c-6.1-8.9-9.4-18.9-10.5-29.8
	C141.4,222.4,143.5,220.1,146.1,220.1z M203.6,45.1c-5.7-0.5-8.7-0.1-11.5,0.8c-12.9,3.8-14,18.6-7.9,26.3
	c6.4,8.2,18.3,13.3,28.5,11c7.9-1.8,14.2-2.9,13.1-11c-0.3-2.5-2.8-8.6-3.5-10.4c-1.1-2.7-1.9-3.6-4.6-8.6
	C214.8,48.2,209.4,45.6,203.6,45.1z M200,122.6c-7.1,0-11.9,1.6-14.9,5.5c-4.4,5.8-5.8,14.1-2.6,19.4c4.9,8.1,12.3,13.3,21.7,13.2
	c9.3,0,16.6-10.6,14.9-19.9C217.7,132.8,207.6,122.6,200,122.6z"/>
</svg>
