<?xml version="1.0" encoding="utf-8"?>
<!-- Generator: Adobe Illustrator 23.0.6, SVG Export Plug-In . SVG Version: 6.00 Build 0)  -->
<svg version="1.1" id="Layer_1" xmlns="http://www.w3.org/2000/svg" xmlns:xlink="http://www.w3.org/1999/xlink" x="0px" y="0px"
	 viewBox="0 0 400 400" enable-background="new 0 0 400 400" xml:space="preserve">
<g>
	<path d="M98.2,181c9,0,18.1-0.2,27.1,0.1c5.4,0.1,8.6-3.1,11.2-6.9c6-9,8.9-19.4,12.4-29.5c1.9-5.4,2.4-11.2,1.4-16.8
		c-0.5-3.3-2.4-6.4-3.9-9.4c-2.5-5-5.2-9.8-7.7-14.7c-2.5-4.9-5.9-8.8-11-11c-1.1-0.5-2.3-0.7-3.5-0.7c-4.4-0.1-8.8-0.4-13.1,0
		c-6.3,0.6-10.1,4.9-12.3,10.4c-1.4,3.7-2.1,7.7-3,11.6c-1.1,4.3-3.9,7.2-6.9,7.1c-2.9-0.1-5.8-3.3-6.4-7.5
		c-0.4-2.9-0.5-5.9-0.7-8.9c-0.1-1.9-0.1-3.9-0.3-5.9c-0.6-5.4-2.2-6.8-7.6-6.9c-2.6-0.1-5.2-0.4-7.7-0.9c-2.6-0.5-3.8-2.3-3.7-5.1
		c0.1-5.2,0.3-10.4,0-15.6c-0.3-5.1,3.2-8.2,7-9.6c2.1-0.8,4.5-1,6.8-1.1c4-0.2,8,0,12-0.1c16.3-0.2,32.5-0.8,48.8-0.6
		c8.7,0.1,17.5,1.7,23.7,8.5c3.6,4,5.8,9.2,9,13.6c3.1,4.2,1.3,7.6-0.9,11.3c-1.9,3.3-3.4,6.8-5,10.2c-1.6,3.3-1.1,6.7,0.2,10
		c0.3,0.8,0.8,2.3,1.9,2.2c1.1-0.2,1.8-1.4,2.3-2.3c2.3-4.4,4.4-8.8,6.5-13.3c1.6-3.4,3.1-6.8,4.7-10.2c1.5-3.1,3.1-6,4.7-9
		c0.9-1.7,2-3.3,2.8-5c2.9-6.5,8.4-10.3,14.5-13.3c1.6-0.8,3.5-1,5.3-1.3c3-0.5,6-1.1,9-1.1c12.5-0.1,24.9-0.1,37.4,0
		c0.9,0,1.9-0.1,2.8,0.2c2.7,0.7,3.3,0.3,3.3-2.6c0-6.9-0.1-13.8,0-20.7c0.1-5.5,3.7-8.5,9.7-6c8.5,3.6,15.9,8.9,23.5,13.8
		c9.3,6,18.9,11.7,28.2,17.6c5.4,3.4,10.7,7,15.6,10.9c1,0.8,1.2,4.5,0.3,5.7c-1.9,2.3-4.7,3.9-7.3,5.6c-7.1,4.6-14,9.6-21.3,13.7
		c-9,5-13.6,12.9-16.6,22.1c-1.7,5.3-2.6,10.8-4.1,16.2c-0.7,2.3-1.8,4.5-3.3,6.3c-3.3,3.8-8.7,2.9-10.6-1.8
		c-0.8-1.9-1.1-4.1-1.2-6.2c-0.2-3.7,0.1-7.4,0-11.2c-0.1-2-0.6-3.1-3.2-1.9c-7.1,3.2-9.8-1.7-9.8-6.8c0-5.8,0-11.5,0-17.3
		c0-0.6,0.4-1.5-0.5-1.7c-0.8-0.3-1.1,0.8-1.3,1.3c-1.7,3-3.4,6-5,9c-2.3,4.4-6.2,7.2-11.2,3c-1.5-1.2-2.6-0.8-3.2,0.8
		c-0.9,2.3-1.5,4.8-2.6,7c-1.1,2.2-2.2,4.6-4,6.1c-3.4,2.9-7.2,2.1-8.9-2c-1.6-3.9-2.1-8.2-3.1-12.3c-0.6-2.1-1.2-4.3-2-6.4
		c-0.6-1.7-1.7-1.2-2.5-0.1c-0.8,1-1.5,2.1-2.1,3.2c-3.7,7.3-7.5,14.6-11,22c-2.8,5.9-2.9,12.2-0.8,18.4c0.7,1.9,2.4,3.4,3.4,5.3
		c2.8,5.4,5.4,11,8.2,16.4c2.7,5.2,5.7,10.4,11.5,12.8c2.2,0.9,4.8,1.6,7.2,1.6c8.2,0.2,16.4,0,24.6,0.1c2.3,0,3.1-0.8,3.1-3.1
		c-0.1-5.8-0.1-11.5,0-17.3c0-1.7,0.3-3.5,0.7-5.2c1.3-4.6,4.3-6.4,8.7-4.3c5.7,2.7,11.2,5.8,16.6,9c6.5,3.8,12.8,7.9,19.1,12
		c6.9,4.5,13.8,9,20.7,13.6c4.1,2.7,8.1,5.5,12.1,8.3c1.3,0.9,0.9,5.9-0.4,6.8c-4.4,3.1-9,5.9-13.1,9.4c-5.2,4.5-8.2,10.5-8.7,17.5
		c-0.2,3.2,0,6.5-0.1,9.8c-0.1,1.8-0.2,3.9-1,5.4c-0.8,1.5-2.5,3.5-4,3.6c-1.5,0.2-3.7-1.3-4.6-2.7c-1.3-1.9-1.7-4.5-2.4-6.7
		c-0.9-2.7-1.9-5.4-2.9-8.1c-0.9-2.4-2.4-2.4-4.4-1.1c-5.7,3.8-11.5,7.5-17.4,11c-2.8,1.7-5.9,3.2-8.9,4.5c-5.3,2.2-9.7-0.8-9.8-6.7
		c-0.1-6.5-0.2-13,0-19.5c0.1-2.8-0.9-3.6-3.6-3.5c-5.5,0.2-11,0.2-16.5,0c-2.7-0.1-4.2,0.7-4.5,3.6c-0.5,4.4-1.2,8.8-1.8,13.2
		c-0.6,3.8-1.8,7.2-5.1,9.6c-5.7,4.1-12.9,1.2-14.1-5.7c-0.4-2.3-0.4-4.6-0.5-6.9c-0.1-2.1,0.1-4.3-0.1-6.4
		c-0.6-8.3,0.3-6.9-7.5-8.6c-9.2-2.1-15.4-7.4-19.6-15.4c-1.1-2.1-2-4.2-3.1-6.2c-1.1-1.8-0.8-3.3,0-5.2c2.9-6.5,6-13,8.2-19.7
		c0.9-2.7-0.4-6.1-0.8-9.2c-0.1-0.6-0.7-1.6-1.7-1.6c-1,0-1.2,1.1-1.6,1.8c-1.9,3.7-3.7,7.4-5.5,11.1c-2.5,5.1-5,10.2-7.6,15.2
		c-1.8,3.6-3.7,7.3-5.6,10.9c-1.4,2.6-2.9,5.2-4.4,7.8c-2.2,3.8-5.8,6.3-9.6,8c-7.4,3.4-15.4,4-23.4,3.8c-3.9-0.1-4,0-4.5,3.9
		c-0.3,2.9-0.1,6-0.5,8.9c-0.3,2.4-0.8,5-1.9,7.2c-2.1,4.2-6.8,5-10.3,1.9c-1.7-1.4-2.8-3.4-4.4-5c-1-1-2.1-2.7-3.4-2.4
		c-1.3,0.3-1.7,2.7-1.9,4.1c-0.3,2.8-0.2,5.8-0.3,8.6c-0.1,2.6-0.2,5.2-0.6,7.8c-1.1,6.5-6.6,9-12.3,5.7c-6-3.4-9.4-11.3-8.5-19.3
		c0.5-4.5,0.9-9.1,0.6-13.6c-0.3-4.7-2.9-6.9-7.5-7.9c-2.5-0.5-5.2-1.1-7.3-2.3c-3.3-2-5.7-4.8-5.3-9.3c0.4-4.7,0.1-9.5,0.1-14.2
		c0-4.4,2.3-6.8,6.8-6.8C79,181,88.6,181,98.2,181z"/>
</g>
</svg>
