<?xml version="1.0" encoding="utf-8"?>
<!-- Generator: Adobe Illustrator 23.0.6, SVG Export Plug-In . SVG Version: 6.00 Build 0)  -->
<svg version="1.1"
	 id="Layer_1" xmlns:cc="http://creativecommons.org/ns#" xmlns:dc="http://purl.org/dc/elements/1.1/" xmlns:inkscape="http://www.inkscape.org/namespaces/inkscape" xmlns:rdf="http://www.w3.org/1999/02/22-rdf-syntax-ns#" xmlns:sodipodi="http://sodipodi.sourceforge.net/DTD/sodipodi-0.dtd" xmlns:svg="http://www.w3.org/2000/svg"
	 xmlns="http://www.w3.org/2000/svg" xmlns:xlink="http://www.w3.org/1999/xlink" x="0px" y="0px" viewBox="0 0 400 400"
	 style="enable-background:new 0 0 400 400;" xml:space="preserve">
<path d="M330.5,92c-1-2.7-2.6-5.1-4.3-7.6c-1.3-2-4-2.5-5.9-1.1c-11.5,7.8-19.4,10-37.5,7.6c-10.7-1.5-19.4,1.6-28.8,4.9
	c-8.5,3-17.3,5.2-26,7.9c-6.5,2-11.9,5-13.9,12.4c-2.5,9.3-7.9,17.3-7.4,27.9c0.4,9.1-3.6,18.2,6.6,24.3c3.8,2.3,7.4,5,11.1,7.4
	c2.7,1.8,4.7,4.5,5.5,7.7c2.3,8.7-2.8,11.3-10.1,11c-1,0-2-0.5-2.7-1.2l0,0c-2.8-2.8-8-3.6-12.3-4.4c-2.3-0.5-5.3,5.1-3.4,7
	c8.3,6.6,14.6,17,27.2,15.9c8.8-0.8,17.6-2.1,27-3.3c1-0.1,1.9,0.9,1.6,1.9c-2.1,5.9-7.9,8.4-13.1,10.5c-8,3.3-16.8,4.9-25,8
	c-1.3,0.5-2.3,1.7-3.3,3c-1.5,2.1-0.6,5.1,1.7,6.2c1.1,0.5,2.1,0.9,3.2,1.3c1.5,0.4,3.4,0.1,5.1-0.2c15.7-2,29.4-8.8,42-18
	c1.5-1.1,3.4-1.5,5.2-2.2c0.6-0.2,1.3,0,1.7,0.5l0,0c0.4,0.5,0.4,1.3,0,1.9c-3.7,4.7-7.6,9.4-11.2,14.2c-3.7,4.9-8.8,9.5-4.4,17.1
	c0.7,1.1,1.1,2.4,1.2,3.7c1.2,14.4-11,32.9,6.9,36c1.4,0.2,2.9,0.2,4.2-0.3c9.9-3.7-4.2-21.4,0.9-44.9c1.2-5.7,3.8-11,7.5-15.5
	c0.5-0.6,0.9-1.1,1.4-1.7c13.4-16.6,25.7-34,31.3-55.4c3.4-12.9,7.1-26.2,21.3-32.5c1.5-0.6,2.2-3.7,2.6-5.7
	C339.5,120.8,335.7,106.2,330.5,92z M257,186.1c-4.5,3.5-8.7,8.5-13.7,9.4c0,0,0,0,0,0c-0.8,0.1-1.5,0.1-2.3-0.1
	c-6.5-1.9-6.9-5.1-4.8-8.5c1.5-2.4,4.2-3.9,7.1-3.8c4,0.1,8.3-0.5,12.4-0.6c0.9,0,1.8,0.6,2.1,1.5c0,0,0,0,0,0
	C257.9,184.7,257.7,185.6,257,186.1z M257.4,158.7c-3.9,1.7-7.9,3-11.9,4.6c-7.6,3-21.3-2.7-24.5-10.4c-1.3-3.2-3.2-6.2-3.7-9.5
	c-0.4-2.6-0.1-5.9,1.3-8c2.4-3.6,5.4-6.8,8.3-10c1.3-1.4,3.1-2.2,4.9-2.2c3.2,0,6.3,0.1,9.2,0c4.2-0.1,9.5-2.4,12.3-0.6
	c5.5,3.7,10.1,9,14.1,14.4C270.9,141.8,264,155.9,257.4,158.7z"/>
<path d="M174.6,62c-1.9-0.4-3.7-1.4-4.9-2.9c-1.6-2-2.1-4.5-0.4-7.6c1.4-2.6,3.7-4.6,6.5-5.7c3.3-1.3,6.6-2.5,9.7-4.1
	c1.2-0.6,1.9-3.4,1.7-5c-0.1-1.2-1.4-2.9-3.3-3c-5.4-0.4-11.3-0.3-16.1,1.7c-12.3,5-24.1,11.3-36.1,17.1c-1.3,0.6-2.7,1.2-4,1.9
	c-0.7,0.3-1.5,0.1-1.9-0.4c0,0,0,0,0,0c-0.5-0.6-0.5-1.4,0-2c4.8-6.1,9.6-12.2,14.4-18.2c2.5-3.1,3.5-6,2.5-9
	c-0.9-2.9-4.7-3.7-6.8-1.4c-5.1,5.7-9.7,10.7-13.7,16.1c-9.8,13.8-19.8,27.7-28.2,42.4c-4.9,8.5-6.6,18.8-10,28.1
	c-3.2,8.7-7.6,16.5-16.2,21.2c-2,1.1-4.4,3.5-4.6,5.4c-1.8,17.8,0.5,34.9,9.4,50.5c1.6,2.8,4,5.1,6.7,6.7
	c30.1,18.1-11.2,68.7,16.1,79.7c2.9,1.2,6,1.6,9,1.1c25.1-4.5-32.3-61.1,16.6-91.7c0.6-0.4,1.3-0.4,1.9-0.2h0
	c4.1,1.3,9.5-0.7,14.1-2c11.2-3.3,22.3-6.7,33.2-10.8c4.9-1.8,11.7-4,13.4-7.9c4.2-10,9.5-19.5,9.8-31.4c0.4-13-0.9-23.1-12.6-31.3
	c-9.3-6.4-17.6-12.5-29.6-8.3c-3.9,1.4-8.3,1.4-12.4,2c-2,0.4-2.3-0.4-0.6-2c4.6-3.7,9-7.6,13.8-10.9c8.4-5.8,23.1-5.4,31.3,0.6
	c8.3,6.2,11.9,6.3,16,0.3c0.7-1.1,0.7-2.5-0.2-3.6C191.8,68.6,183.6,63.8,174.6,62z M169.2,114c1.5-1.3,3.6-1.2,5.1,0.1
	c2.9,2.5,5.2,5.8,6.7,10c0.7,2,1.6,3.9,2.5,5.8c0.7,1.6,0.6,3.5-0.4,5c-3.1,4.4-5.7,8.5-8.9,12.1c0,0,0,0,0,0
	c-1.2,1.4-3.3,1.8-5,1.1C157.8,143.1,155.6,125.6,169.2,114z M139.1,116.2c1.6-1.1,3.8-1.2,5.4,0c12.1,8.8,10.9,25.1,6.9,33.6
	c-0.6,1.2-1.8,2.1-3.2,2.2c-0.4,0-0.7,0-0.8-0.2c-5.2-6.4-12.4-12.3-14.6-19.7C130.8,125.7,133.9,119.8,139.1,116.2z M162,60.2
	c-0.9,0.9-2.1,1.4-3.3,1.5c-4.8,0.7-9.7,1.9-14.7,3.6c-1.1,0.4-2.2-0.8-1.7-1.9c0.7-1.5,1.5-2.7,2.6-3.3c4.3-2.2,8.7-4.3,13.1-6.4
	c0.9-0.4,2-0.4,2.8,0.2C163.2,55.7,164.3,57.9,162,60.2z"/>
</svg>
