<?xml version="1.0" encoding="utf-8"?>
<!-- Generator: Adobe Illustrator 23.0.6, SVG Export Plug-In . SVG Version: 6.00 Build 0)  -->
<svg version="1.1" id="Layer_1" xmlns="http://www.w3.org/2000/svg" xmlns:xlink="http://www.w3.org/1999/xlink" x="0px" y="0px"
	 viewBox="0 0 400 400" style="enable-background:new 0 0 400 400;" xml:space="preserve">
<path d="M327.9,140.7c-0.5,4.8-0.9,8.5-1.2,13.7c-0.1,1.9,0,4.1,0.9,5.6c21.9,34.7,8,78.2-25.6,97.6c-25.5,14.7-52,15.4-78.3,2.1
	c-6.3-3.2-16,2.5-16.2,9.7c-0.1,3.3,1,6.6,1.5,9.9c0.6,4.7,1.5,9.3,1.4,14c-0.1,3.8-2.7,6.6-6.5,7.4c-3.9,0.9-7-1-9.1-4.1
	c-2.1-3.2-3.5-6.8-5.5-10.1c-1-1.6-1.5-4.7-4-4c-2.5,0.7-3,3.3-3.1,5.1c-0.2,3.6,0.5,7.3,0.8,10.9c0.3,3.5,0.9,7,0.8,10.5
	c-0.3,8.2-5.9,13.8-13.5,14.1c-8.1,0.3-14.7-5.2-15.2-13.4c-0.3-4.8,0.6-9.8,1.4-14.6c1.7-9.8,2.7-19.5-1.5-28.9
	c-1.3-2.9-2.8-5.9-4.9-8.3c-6.3-7.3-12.7-14.2-21.1-19.6c-27.6-17.7-45.4-42.6-52.6-74.8c-2.9-13-3.3-26.1-1.4-39.3
	c0.2-1.5-0.2-3.4-1-4.6c-21.8-32.1-9.2-75.2,24.5-94.4c26-14.8,52.8-15.3,79.7-2.3c1.5,0.7,3.5,1.1,5.2,0.9
	c12.7-1.3,25.5-1.6,38.1,0.6c46.7,8.3,81,32.7,99.4,77.3C325.9,113.7,328.4,135.9,327.9,140.7z M135.4,104c0.1,10.5,3,18.4,9.7,24.9
	c7.4,7.2,16.6,11,26.2,13.7c13.5,3.6,27.1,6.5,40.7,9.8c5.9,1.4,9.3-0.1,11.6-5.7c2.3-5.6,2.5-11.4,0.9-17.1c-0.4-1.3-2-2.7-3.3-3.1
	c-8.5-2.2-17.1-3.8-25.5-6.1c-6.6-1.8-13.4-3.5-19.6-6.4c-9.9-4.7-10.7-14.8-1.8-21.2c3.7-2.7,8.5-4,13-5.3c2.5-0.7,4.5-1.5,4.7-4.1
	c0.3-4.4,0.5-8.9,0-13.2c-0.4-3.6-2.7-4.9-6.3-4.6c-11.6,1.1-22.7,4-32.7,10.2C142.2,82.4,135.5,91.9,135.4,104z M268.9,166.5
	c0.1-12.4-6.7-23-19.5-30.2c-5.4-3.1-5.7-3.1-8.6,2.5c-4.3,8.5-6,17.6-5.7,27.2c0.5,16.3-6,23.6-22.8,27.8c-3.4,0.8-7,1.1-10.5,1.1
	c-2.9,0-4.4,1.1-5.4,3.8c-3.4,9.6,4.4,19.7,15,18.7c10.9-1,21.5-3.1,31.3-8.4C258.9,200.5,269,188,268.9,166.5z M148.2,158.9
	c-11.2,0.1-17.6,7.9-15.4,17.4c1,4.4,2.4,8.9,4.7,12.8c7.7,13.6,20,21.2,34.8,25.1c1.2,0.3,3.2-0.1,4-1c5.1-5.1,7.3-11.3,5.8-18.4
	c-0.3-1.6-1.8-3-3-4.3c-3.2-3.4-7-6.4-9.8-10.1c-2.6-3.5-4.2-7.8-6.3-11.7C159.9,162.7,155.2,159,148.2,158.9z M244.1,114.3
	c10.6,0.6,19.8-7.8,17.1-18c-1.3-5.1-3.7-9.4-7.2-13.1c-8.7-9.2-19.7-13.8-31.8-16.5c-6.6-1.5-8-0.8-10.3,5.6
	c-0.4,1-0.7,2.1-0.8,3.1c-0.5,6.2,0.1,11.5,6.6,15.2c3.9,2.3,6.9,6.4,10,10c2,2.3,3.4,5.1,5.3,7.5
	C236,112.1,240.1,114.3,244.1,114.3z"/>
</svg>
