<?xml version="1.0" encoding="utf-8"?>
<!-- Generator: Adobe Illustrator 23.0.6, SVG Export Plug-In . SVG Version: 6.00 Build 0)  -->
<svg version="1.1" id="Layer_1" xmlns="http://www.w3.org/2000/svg" xmlns:xlink="http://www.w3.org/1999/xlink" x="0px" y="0px"
	 viewBox="0 0 400 400" style="enable-background:new 0 0 400 400;" xml:space="preserve">
<path d="M336.5,58.2c-0.1-10.5,0-21-0.1-31.5c-0.1-6.6-0.5-6.8-6.8-6.8c-7.3-0.1-23.7,0.1-32.1,0.1c-8.4,0-69.1-0.2-96.9-0.1
	s-86.4,0-129.6,0c-6.3,0-6.5,0.1-6.6,6.2c-0.6,29.1-1.5,58.1-1.7,87.2c-0.2,31.9,0.3,63.8,0.6,95.7c0.2,20.6,0.6,41.2,1.1,61.8
	c0.1,2.4,0.6,5.6,2.1,7.2c9.7,10.2,12.4,22.2,10.7,35.8c-0.9,7.7,0.3,15.4,4.7,22.1c3.8,5.8,9.7,8.6,14.9,6.8c6-2,8.3-6.9,8.4-12.8
	c0.1-6.2-0.5-12.5-0.4-18.7c0.1-3.8,0.5-7.7,1.5-11.3c0.9-3.3,3.2-3.4,5.1-0.4c1.8,2.9,3,6.4,5.3,8.8c2,2.1,5.4,4.5,7.9,4.2
	c2.4-0.3,5.2-3.5,6.4-6.1c1.7-3.6,2.2-7.7,3.1-11.6c2.1-9.9,11.8-17.3,22.6-17.2c43,0.6,86,0.6,129,0.8c12.4,0.1,18.5,5.7,19.9,18.1
	c0.6,5,1.1,10.1,2.4,14.9c2,7.3,7.6,11.5,13.4,10.7c6.1-0.8,11-6.3,11.4-13.7c0.3-4.8,0-9.7-0.1-14.5c-0.2-6.2,1.1-10.7,1.7-15.2
	c0.6-4.5,1.2-6.9,1.3-9.4c0.1-2.5,1.8-44.5,1.7-67.3C337.4,153.9,336.9,106.1,336.5,58.2z M310.7,172.5c-0.5,22.2-1,44.4-1.1,66.6
	c0,4.7-1,5.7-5.9,5.8c-24.2,0.6-48.4,2.2-72.6,2.8c-20.8,0.5-41.6,0.2-62.3-0.1c-13.9-0.2-27.8-1-41.7-1.6
	c-10.7-0.4-21.4-0.9-32.1-1.1c-2.6-0.1-3-1.2-3-3.3c0.1-4.4,0.2-8.9,0.1-13.3c-0.7-24.6-1.8-49.2-2.2-73.8
	c-0.2-14.1,0.9-28.2,1.2-42.3c0.4-17.8,0.8-35.5,0.8-53.3c0-4.5,0.9-5.5,5.6-5.6c29.2-0.8,58.5-2.2,87.7-3.2
	c8.5-0.3,17,0.2,25.4-0.3c10.1-0.6,19.2,8.4,19,18.5c-0.1,4-0.1,8.1,0.2,12.1c0.5,6.5,3.8,11.3,8.3,12.2c6,1.2,10.2-1.8,13.1-6.6
	c2.8-4.7,4.8-9.8,7.6-14.4c1.1-1.9,2.8-5.1,4.9-4.7c2.2,0.4,3.4,4.4,3.4,6.5c-0.1,6.4-1.1,12.8-1.7,19.2c-0.3,3.6-0.9,7.3-0.6,10.8
	c1.1,10.8,10.7,15.3,19.9,9.6c7.8-4.9,12-15.2,10.3-25.5c-1-6-2.7-11.8-3.2-17.8c-0.7-8.9,4.8-14.9,13.6-16.2
	c3.5-0.5,4.2,0.6,4.1,3.8c-0.1,10.5-0.1,18.8-0.1,31.5c0,12.7,0.7,46.3,0.9,58.6C310.6,159.4,310.9,163.8,310.7,172.5z"/>
</svg>
