<?xml version="1.0" encoding="utf-8"?>
<!-- Generator: Adobe Illustrator 23.0.6, SVG Export Plug-In . SVG Version: 6.00 Build 0)  -->
<svg version="1.1"
	 id="svg6" xmlns:cc="http://creativecommons.org/ns#" xmlns:dc="http://purl.org/dc/elements/1.1/" xmlns:inkscape="http://www.inkscape.org/namespaces/inkscape" xmlns:rdf="http://www.w3.org/1999/02/22-rdf-syntax-ns#" xmlns:sodipodi="http://sodipodi.sourceforge.net/DTD/sodipodi-0.dtd" xmlns:svg="http://www.w3.org/2000/svg"
	 xmlns="http://www.w3.org/2000/svg" xmlns:xlink="http://www.w3.org/1999/xlink" x="0px" y="0px" viewBox="0 0 400 400"
	 style="enable-background:new 0 0 400 400;" xml:space="preserve">
<path d="M161.9,65L161.9,65c0-7.8-5.5-13.8-13.8-13.8c-7.7,0-14,6-14,13.8c0,7.3,5.9,14,13.8,14C155.3,78.9,161.9,73.1,161.9,65z"/>
<path d="M198.2,255.6L198.2,255.6c-6.5,0-14,8.6-14,14.6c0,0.7,0,2.1,1,3.1c12.4,15.7-1.6,38.9,2.8,48c1.2,2.5,4.3,3.6,7,2.8
	c12.5-3.6,0.6-28.9,4.1-51.9c0.5-3.1,1.4-6,2.5-8.9c0.2-0.6,0.4-1.2,0.5-1.8c0,0,0,0,0,0l0,0c0.1-0.5,0.2-1.1,0.2-1.6
	C202.2,257.8,200.9,255.6,198.2,255.6z"/>
<path d="M166.7,253L166.7,253c-6.9,0-16.4,9-16.4,15.8c0,3.5,1.4,5.3,5.2,5.3c4.9,0,12-4.2,15.1-10.3c0.2-0.5,0.5-1,0.7-1.5
	c0.5-1.1,0.8-2.3,1-3.5c0-0.2,0-0.5,0-0.7c0-1-0.4-2-1-2.7C169.6,253.5,168.4,253,166.7,253z"/>
<path d="M136.6,236.1c-7.6,0-18.2,7.9-18.2,16.8c0,4.4,2.7,6.5,6.7,6.5c7.3,0,18.8-7.7,18.8-17C143.9,237.8,140.7,236.1,136.6,236.1
	z"/>
<path d="M124.2,210.6L124.2,210.6c0-5.4-3.6-7.8-7.9-8.2c-11.6-1.4-6.2-14.5-1.8-25c1-2.3,2.1-4.4,3.3-6.6c1-1.9,1.6-4,1.6-6.3l0,0
	c0-1.3-0.2-2.5-0.5-3.5c-0.4-1.2-0.8-2.3-1-3.5c-2.1-11,1.5-20.2,7.9-30.7c1.3-2.2,2.8-4.2,4.4-6.2c0.8-1,1.4-2.2,1.9-3.4
	c0,0,0,0,0-0.1l0,0c0.5-1.4,0.8-3,0.8-4.8c0-7.7-6.4-12.6-13.4-12.6c-7.6,0-17.4,5.3-17.4,15.2c0,1.7,0.3,3.3,0.9,4.7l0,0
	c0,0,0,0,0,0.1c0.4,1,0.9,1.8,1.5,2.6c0.8,1,1.5,2.1,2.1,3.3c6.3,12.6,0.9,21.3-7.9,29.8c-1.1,1.1-2.4,2.1-3.6,3
	c-1.2,0.9-2.4,2-3.3,3.2c0,0,0,0-0.1,0.1l0,0c-2.2,2.6-3.5,5.7-3.5,8.9c0,1.7,0.4,3.1,0.9,4.3c0.2,0.4,0.4,0.8,0.7,1.1
	c0.6,0.9,1.2,1.8,1.8,2.7c6,9.9,10.1,22.3,5,35.7c-0.7,1.6-1.1,3.2-1.1,5c0,5.6,3.8,8.1,9.1,8.1
	C111.2,227.2,124.2,221.1,124.2,210.6z"/>
<path d="M228.2,247.1L228.2,247.1c-6.3,0-11.5,9-11.5,13.6c0,2.3,1.1,3.6,3.4,3.6c5.7,0,11.5-8.7,11.5-13.2
	C231.6,249.2,231.2,247.1,228.2,247.1z"/>
<path d="M263.4,8.2L263.4,8.2c-6.3,0-8.3,7.9-8.3,11.5c0,2.4,1.5,11,7.5,10.9c6-0.1,8.3-7.9,8.3-11.8C270.9,16,269.4,8.2,263.4,8.2z
	"/>
<path d="M312,53c0-1.7-0.7-7.3-4.5-7.3v0c-5,0-6.9,8.2-6.9,10.7c0,0.7,0.1,1.8,0.4,2.8l0,0c0,0,0,0,0,0c0.1,0.5,0.3,1,0.5,1.5
	c0.9,2,1.8,4.1,2.1,6.3c2.2,14.9-6.2,35.4,0.7,38c0.6,0.2,1.2,0.3,1.8,0.2c8.4-1.6-1.7-27.5,3.8-44.7c0.2-0.6,0.4-1.1,0.7-1.6
	c0.2-0.5,0.4-1.1,0.6-1.7c0,0,0,0,0,0l0,0C311.8,55.6,312,53.9,312,53z"/>
<path d="M289.9,23.4L289.9,23.4c-5.4,0-7.3,8.4-7.3,11.1c0,2.7,0.9,8.7,5.7,8.7c5.6,0,7.3-8.4,7.3-11.1
	C295.6,29.9,294.4,23.4,289.9,23.4z"/>
<path d="M254.9,230.7c-5.7,0-9.7,8.7-9.7,12.2c0,1.8,0.5,3.6,3,3.6c5.7,0,9.7-8.6,9.7-12.2C257.9,232.6,257.3,230.7,254.9,230.7z"/>
<path d="M228.2,5c-6.9,0-9.5,8.2-9.5,12.6c0,4.6,3.4,12.6,10.1,12.6c6.8,0,9.4-8.2,9.3-12.4C237.9,12.4,235.7,5,228.2,5z"/>
<path d="M196.9,41.1c0.3-0.4,0.5-0.7,0.8-1.1c0,0,0-0.1,0-0.1l0,0c1.4-2.4,2.1-5.1,2.1-7.6c0-5.9-3.9-13.6-12.2-13.6
	c-7.5,0-11.3,6.6-11.3,12.6c0,2.4,0.7,5.4,2.2,7.9l0,0c14.8,26.7-8.1,69.3,10.3,69.3C210.2,108.5,178,69.5,196.9,41.1z"/>
</svg>
