<?xml version="1.0" encoding="utf-8"?>
<!-- Generator: Adobe Illustrator 23.0.6, SVG Export Plug-In . SVG Version: 6.00 Build 0)  -->
<svg version="1.1" id="Layer_1" xmlns="http://www.w3.org/2000/svg" xmlns:xlink="http://www.w3.org/1999/xlink" x="0px" y="0px"
	 viewBox="0 0 400 400" style="enable-background:new 0 0 400 400;" xml:space="preserve">
<path d="M169.3,163.6c-17.9,0-35.8,0-53.7,0c-3.6,0-3.4,0-3,3.4c0.3,2.4,0.4,5-0.1,7.4c-1.2,5.4-5.4,7.9-10.9,6.6
	c-1.6-0.4-3.2-1.1-4.8-1.5c-2.3-0.7-3.6,0-4.2,2.3c-0.4,1.6-0.4,3.3-0.6,5c-0.3,2.8-0.2,5.7-0.8,8.5c-1.5,6.8-6.8,10.9-12.5,9.8
	c-5.7-1-9.6-6.7-8.8-13.4c0.5-4.1,1.6-8.2,2.6-12.3c0.9-3.8,1.6-7.5,0.2-11.3c-1-2.6-2.2-4.7-5.6-4.8c-2.5,0-4.2-2.1-4.3-4.6
	c-0.1-3.6-0.1-7.1,0-10.7c0.1-2.6,1.7-4.3,4.3-4.7c1.1-0.2,2.3-0.1,3.5-0.1c25.6,0,51.3,0.1,76.9-0.1c3.2,0,8.1-1,9.6-2.2
	s1.9-2,2.3-3.1c0.7-2.3-0.4-3.6-2.8-3.6c-5.3-0.1-10.5,0-15.8,0c-2.7,0-4.8-1.1-6.4-3.3c-6.2-9-10.6-18.8-12.2-29.6
	c-2.8-19.9,2.8-37.3,16.2-52.2C149,37,162.9,30.6,178.5,27.7c11.1-2,22.2-2.8,33.5-1.4c11.8,1.4,23.6,3.3,35,7.1
	c2.3,0.8,4.7,1.8,6.6,3.4c1.4,1.2,2.7,3.3,2.9,5.1c1.6,12.7,2.9,25.4,4.2,38.2c0.2,2.2-0.1,4.4-0.4,6.6c-0.3,2-1.6,3.2-3.7,3.1
	c-3.7-0.1-7.5-0.4-11.2-0.7c-2.3-0.2-3.4-1.9-4.1-4c-3-8.1-6-16.2-11.1-23.3c-1.9-2.7-4.5-5-6.7-7.6c-1.5-1.7-2.8-1.2-3.8,0.5
	c-0.8,1.4-1.4,2.9-2,4.4c-0.7,1.9-1.2,3.9-1.9,5.8c-2.1,5.2-7,6.4-11.4,2.7c-1.6-1.4-3-3-4.6-4.5c-0.6-0.6-1.3-1.6-2.2-1.4
	c-0.8,0.2-1.1,1.6-1.3,2.5c-0.8,3.4-1.2,6.9-2.2,10.1c-1.4,4.4-5,6.9-9.1,7c-5.1,0.1-9.2-3.5-9.7-8.8c-0.2-2.7,0.1-5.5,0.2-8.2
	c0.1-2.6,0.4-5.2,0.3-7.7c-0.1-2.3-1.2-4.1-3.5-4.9c-2.2-0.8-4.1-0.2-5.8,1.4c-11.1,10.2-12.3,26.5-3.2,38.4
	c6.8,8.7,16.1,13.3,26,17c11.5,4.3,23.3,7.9,34.8,12.1c6.4,2.4,12.6,5.5,18.7,8.4c0.9,0.4,2.3,1.6,2,2.9s-1.8,2-2.8,2.1
	c-2.3,0.4-4.8,0.1-7.2,0.2c-2.9,0.1-5.3,3-4.9,5.8c0.3,1.8,1.3,3.1,3.3,3.2c1,0,2,0,2.9,0c31.1,0,62.2,0,93.2,0c1.1,0,2.1,0,3.2,0.1
	c2.9,0.3,4.7,2.1,4.8,5c0.1,3.2,0.1,6.4,0,9.6c-0.1,3.7-1.8,5.5-5.6,5.6c-7,0.1-14.1,0-21.1,0c-14.9,0-29.7,0.1-44.6,0
	c-4.2,0-6.8,2.3-8.9,5.4c-1.6,2.3-0.7,3.7,2.1,3.7c3.5,0,7,0.2,10.4,0c6.8-0.5,8.4,3,8.7,8c1.1,15.9-1.1,31.3-9.2,45.4
	c-3.9,6.8-9.7,12-16,16.6c-12,8.7-24.9,15.2-39.7,17.5c-11.8,1.8-23.8,1.9-35.7,1c-4.6-0.4-9.1-1.4-13.7-1.8
	c-1.1-0.1-2.6,0.3-3.6,1.6c-1,1.3-1.6,3.9-1.8,6.2c-0.3,2.2-0.5,4.2-0.7,6.2c-0.8,5.7-3.7,8.9-8.3,9.3c-5.1,0.4-9.9-2.6-11.1-7.8
	c-0.8-3.8-0.3-7.9-0.4-11.9c0-1.9,0.1-3.7-0.1-5.6c-0.3-3.7-1.8-6.5-5.8-7.3c-2.5-0.6-3.4-2.6-4-4.9c-1.9-6.9-2.4-13.9-2.2-20.9
	c0.3-7.8,0.8-15.6,1.6-23.4c0.5-4.7,2-5.7,6.7-5.7c9.2,0.1,7.8-0.4,11,7c1.7,4,3.2,8.1,5,12.1c6.6,14.5,17.3,23.3,31.2,27.7
	c3.3,1,5.8,1.7,9.4,2.2c1,0.2,3.4,0.1,5.5-1.1s3.6-2,6.1-3.6c3.7-2.4,7.1-5.1,10-8.4c2.2-2.4,4.2-5.2,5.9-8.2
	c3.4-6.3,4.8-13.1,4.6-20.1c-0.3-8.8-1.3-17.6-2-26.3c-0.2-2.9,0.2-3.5,3.1-3.5c3.2,0,6.4,0,9.6,0c2.3,0,2.8-0.9,1.4-2.7
	c-3-3.9-6.9-6.4-12-6.4C205.3,163.6,187.3,163.6,169.3,163.6z M239.6,225.8c0.5,0.5,1.4,0.5,1.9-0.1c2.4-3.1,4.1-6.8,5-10.6
	c1.1-4.3,1.2-8.8,0.4-12.6c-0.6-3.2-2.8-7.6-3.3-7.6s-1.4,1.2-1.6,1.4c-2.4,3.7-3.6,6.6-4.6,10.7c-1,3.7-1.3,7.6-0.8,11.8
	C236.9,221.3,237.7,223.8,239.6,225.8z M202.1,143.3c2,0,4.1,0.1,6.1,0c0.8,0,1.7-0.2,2.3-1.1c0.6-0.9,0.7-2.5,0.3-3.7
	c-0.5-1.5-1.6-3.6-2.9-4c-2.3-0.7-4.8-0.4-7.2,0.5c-2.8,1.2-5.2,3.3-6.5,5.9c-0.8,1.6-0.6,2.5,1.4,2.5
	C197.8,143.2,199.9,143.3,202.1,143.3z"/>
</svg>
