<?xml version="1.0" encoding="utf-8"?>
<!-- Generator: Adobe Illustrator 23.0.6, SVG Export Plug-In . SVG Version: 6.00 Build 0)  -->
<svg version="1.1" id="Layer_1" xmlns="http://www.w3.org/2000/svg" xmlns:xlink="http://www.w3.org/1999/xlink" x="0px" y="0px"
	 viewBox="0 0 400 400" style="enable-background:new 0 0 400 400;" xml:space="preserve">
<path d="M169.6,186c-0.7-1.9-3.3-2.2-4.4-0.5c-10.5,16.2-20.6,31.5-30.2,47.1c-2.9,4.7-6,6.5-11.4,6.3c-11.5-0.4-23,0-34.5-0.2
	c-1.2,0-2.6-0.2-3.8-0.8c-1.1-0.5-1.6-2.2-1.2-3.4c0.3-1,0.7-2,1.3-2.9c19-29.2,38.1-58.4,57.1-87.7c0.8-1.2,1.3-3.9,0.2-5.6
	c-3.7-5.8-7-10.3-11.3-15.6c-1.3-1.6-4.4-4-6-2.5c-1.8,1.6-3.3,4.4-3.5,6.9c-0.5,6.1,0.3,12.3-0.2,18.4c-0.7,9.1-8.4,13.9-17,11
	c-6.1-2-10.6-6.6-11.3-12.7c-0.9-7.3-1-15.1,0.5-22.2c4.3-21.3,3.6-42.1-3.7-62.6c-2.5-7.1-1.7-8,5.8-8c11.5,0,23,0.3,34.5-0.1
	c4.3-0.1,6.5,1.7,8.5,5c9.9,16.1,19.8,32.2,29.8,48.2v0c0.9,1.5,3.1,1.5,4,0c4-6.4,7.9-12.6,11.7-18.8c6-9.9,12.1-19.8,18-29.8
	c1.8-3.1,4-4.7,8-4.6c12.1,0.3,24.2,0,36.3,0.1c5.2,0,6.2,1.6,3.4,6c-15.7,24.6-31.3,49.2-47.2,73.6c-7.4,11.3-7.5,11,0,22.2
	c17.7,26.5,35.3,53.1,52.9,79.8c2.7,4.1,1.7,5.9-3.6,6c-8.9,0.2-17.8,0-26.8,0.1c-10,0.1-13.3,4-11.6,13.7c0.4,2.5,0.5,5.1,0.7,7.7
	c1.4,16.9-12.7,20.7-24.1,17c-8.3-2.7-12.9-9.1-12.9-17.9c0-5.9,0.5-11.8,1.4-17.6c2.1-14.2,0.6-28.7-4.5-42.2
	C172.9,195.2,171.4,190.8,169.6,186z"/>
<path d="M259.9,221.2c-1.3-0.1-2.3-1.2-2.3-2.5c0.3-15.7,12.2-26.3,25.8-26.3c7.5,0,15.1-0.5,21.5,4.4c11.9,8.9,14.3,21.7,7.1,35.8
	c-2.3,4.5-4.6,9.1-6.3,13.9c-0.9,2.5-0.7,5.5-0.4,8.2c0.4,3.3,1.7,6.2,6.1,5.6c3.7-0.5,4.9,1.5,4.8,4.9
	c-0.2,17.3,1.7,14.6-13.7,14.7c-13.3,0.1-26.6,0-39.9,0c-7.3,0-7.8-0.6-6.4-7.9c1.8-9,7.1-16.2,13.3-22.6
	c6.2-6.4,12.9-12.3,19.1-18.7c3.7-3.8,6.8-8,5.9-13.9c-0.6-4.2-3-6.2-7.1-6.5c-4.4-0.3-7.8,1.4-8.4,5.7c-0.8,5.9-2.7,8.4-9.1,6.3
	C266.8,221.3,263.4,221.4,259.9,221.2z"/>
</svg>
