<?xml version="1.0" encoding="utf-8"?>
<!-- Generator: Adobe Illustrator 23.0.6, SVG Export Plug-In . SVG Version: 6.00 Build 0)  -->
<svg version="1.1" id="Layer_1" xmlns="http://www.w3.org/2000/svg" xmlns:xlink="http://www.w3.org/1999/xlink" x="0px" y="0px"
	 viewBox="0 0 400 400" style="enable-background:new 0 0 400 400;" xml:space="preserve">
<g>
	<path d="M170.4,183.7c-0.6-1.3-2.3-1.4-3-0.2c-11,17.1-21.6,33.6-32.1,50.3c-2.1,3.4-4.3,4.8-8.4,4.7c-13.4-0.3-26.8-0.1-41.2-0.1
		c-1.1,0-1.9-1.1-1.6-2.2c0.8-2.5,1.4-4.8,2.6-6.7c18.4-28.3,36.9-56.6,55.5-84.8c2.2-3.4,2.3-5.7-0.1-8.9c-3.1-4.1-5.3-8.9-8.4-13
		c-0.7-0.9-1.6-1.6-2.6-2.3c-2.1-1.3-4.9-0.7-6.1,1.4c-0.6,1-1.1,2-1.3,3.1c-0.6,2.8,0.1,5.8,0.1,8.7c0,3.4,0.2,6.8-0.3,10.2
		c-1.5,9.7-10.3,13.9-19,9.2c-5.7-3.1-9.1-8.3-9.4-14.5c-0.3-6.6,0.1-13.4,1.4-19.8c3.5-16.9,3-33.6-0.7-50.3
		c-0.9-4-3.2-7.7-4.7-11.6c-0.6-1.4-0.9-3.5-0.3-4.6c0.5-1,2.2-1.4,3.7-1.4c13.3-0.1,26.7-0.2,40,0.1c1.6,0,3.8,1.5,4.7,3
		c10.5,16.5,20.8,33.1,31.1,49.7l0,0c0.7,1,2.2,1,2.8,0c3.8-6.1,7.4-12.1,11.1-18c6.4-10.5,12.9-20.9,19.2-31.4
		c1.5-2.5,3.3-3.5,6.2-3.4c12.7,0.2,25.4,0,38,0.2c1.3,0,2.7,0.3,3.9,0.8c0.8,0.3,1.3,1.4,1.1,2.3c-0.3,1.2-0.7,2.1-1.5,3.4
		c-17.2,26.9-34.5,53.8-51.8,80.7c-1.7,2.6-1.6,4.5,0.3,7.3c12.8,19,25.4,38.2,38.1,57.3c5.5,8.3,10.9,16.5,16.4,24.8
		c0.6,1,0.6,0.8,1.2,1.9c4.1,7.4,1.7,8.7-6.3,8.7c-11.1,0-19.4,0.1-30.5-0.1c-3.4-0.1-4.9,1.2-4.7,4.4c0.2,3.6,0.4,7.1,0.9,10.7
		c1.4,10.8-3.3,18.4-12.4,19.9c-11.6,1.9-21.8-4.2-23.3-14.6c-0.7-4.9-0.6-10.1,0.1-15c1.7-11.9,1.3-20.5,0.6-28.1
		C178.4,205.1,175.9,196.4,170.4,183.7z"/>
	<path d="M288.7,70.2c-1.2,1.2-0.4,3.2,1.3,3.3c6.8,0,12.8,0.1,18.8-0.1c3.4-0.1,5.3,0.7,5.4,4.5c0,0.9,0,2.5,0,4.8
		c0,2.3,0.5,6.2-1.4,9.1c-1.4,2.2-6.6,1.5-10.2,2.4c-4.5,1.1-9.3,2-13.5,3.9c-7.6,3.5-10.5,9.7-9.5,18c0.6,4.3,1.2,8.7,1.7,13
		c0.2,1.9,0.1,3.9-0.1,5.8c-0.8,7.6-4.9,12.5-10.9,12.9c-6.2,0.5-12.5-4.3-13.4-11.6c-0.8-6.7,0.2-13.5,0.1-20.3
		c-0.1-5.8,0.6-12.1-1.4-17.3c-4.1-10.4-0.3-18.5,4.7-26.8c0.5-0.8,1.1-1.6,1.7-2.4c2.2-3.2,5.5-5.2,5.6-10.2c0.1-7-2-13.8-6.4-19.6
		c-2-2.6-6-5.4-5.9-9c0.3-6.9,2.4-12.6,7.8-17.4c11.4-10,29.5-11.1,41.6-1.7c11,8.6,12.7,25.1,3.5,37.6c-5.2,7.1-12,13.1-18,19.5
		C289.7,69.2,289.2,69.6,288.7,70.2z M281.3,45.3c1,1.2,2.8,1.2,3.9,0.2c1.4-1.3,2.7-2.5,3.9-3.9c3-3.5,4.2-7.5,3.5-12.1
		c-0.6-3.8-3.6-5.7-6.8-5.7c-2.5,0-6.1,1.5-7,3.5C276.7,31.4,276.8,40.1,281.3,45.3z"/>
</g>
</svg>
