<?xml version="1.0" encoding="utf-8"?>
<!-- Generator: Adobe Illustrator 23.0.6, SVG Export Plug-In . SVG Version: 6.00 Build 0)  -->
<svg version="1.1" id="Layer_1" xmlns="http://www.w3.org/2000/svg" xmlns:xlink="http://www.w3.org/1999/xlink" x="0px" y="0px"
	 viewBox="0 0 400 400" style="enable-background:new 0 0 400 400;" xml:space="preserve">
<path d="M338.2,271.1c0,2.2-1.8,4-4,4l0,0c-52.4,0-104.9,0-157.3-0.1c-3.2,0-6,0.7-8.6,2.4c-9.8,6.6-17.4,14.9-18.4,27.2
	c-0.4,4.9,0.6,9.9,1.3,14.8c0.6,4.4,1.8,8.8,2.1,13.2c0.5,7.7-1.9,14.4-8.3,19c-7.1,5.1-16.6,3.5-21.2-3.9
	c-2.9-4.7-3.6-9.9-3.7-15.2c-0.1-6.4,0-12.8-0.6-19.1c-0.3-3.2-1.7-6.5-3.4-9.3c-2.6-4.2-6.1-4.1-8.9,0.1c-1.4,2-2.4,4.2-3.5,6.4
	c-2.4,4.4-5.3,8.5-11.1,8.2c-5.8-0.3-9.2-4.2-10.9-9.3c-1.5-4.3-2.4-8.8-3.2-13.3c-1.2-6-3.1-11.6-7.2-16.2
	c-1.8-2.1-3.5-4.5-6.4-4.9c-1.7-0.2-3-1.6-3-3.4v0c0-80.3,0-160.6,0-240.9c0-11.8,9.7-21.5,21.5-21.5c77.8,0,155.6,0,233.4,0
	c11.9,0,21.5,9.6,21.5,21.6c0,80,0,160.1,0,240.1C338.2,271,338.2,271.1,338.2,271.1z M183,264.1h34c2.3,0,4.1-1.8,4.1-4.1v-33.9
	c0-2.3-1.8-4.1-4.1-4.1h-34c-2.3,0-4.1,1.8-4.1,4.1V260C178.9,262.3,180.7,264.1,183,264.1z M217,62.7h-34c-2.3,0-4.1,1.8-4.1,4.1
	v33.9c0,2.3,1.8,4.1,4.1,4.1h34c2.3,0,4.1-1.8,4.1-4.1V66.7C221.1,64.5,219.3,62.7,217,62.7z M289.2,211.1h34.1c2.2,0,4-1.8,4-4V173
	c0-2.2-1.8-4-4-4h-34.1c-2.2,0-4,1.8-4,4v34.1C285.2,209.3,287,211.1,289.2,211.1z M236.4,211.1h33.4c2.4,0,4.4-2,4.4-4.4v-33.3
	c0-2.4-2-4.4-4.4-4.4h-33.4c-2.4,0-4.4,2-4.4,4.4v33.3C232,209.1,234,211.1,236.4,211.1z M183.8,211h32.6c2.6,0,4.7-2.1,4.7-4.7
	v-32.6c0-2.6-2.1-4.7-4.7-4.7h-32.6c-2.7,0-4.9,2.2-4.9,4.9v32.2C178.8,208.8,181,211,183.8,211z M110.7,169H76.6c-2.2,0-4,1.8-4,4
	v34.1c0,2.2,1.8,4,4,4h34.1c2.2,0,4-1.8,4-4V173C114.7,170.8,112.9,169,110.7,169z M290.5,264.2h35.8c0.8,0,1.4-0.6,1.4-1.4l0,0
	c0-12.9,0-25.7,0.1-38.6c0-2.2-1.1-2.4-2.8-2.4c-12.5,0-24.9,0-37.4,0l0,0c-1.2,0-2.2,1-2.2,2.2V259
	C285.3,261.9,287.6,264.2,290.5,264.2z M125.8,259.7c0,2.5,2,4.5,4.5,4.5H165c2.5,0,3.1-0.3,3.1-2.2c0-13.2,0-24.9,0.1-38.1
	c0-2-1.1-2-2.5-2c-12.7,0-25.3,0-38,0c0,0,0,0,0,0c-1.1,0-1.9,0.9-1.9,2V259.7z M72.6,225v36.3c0,1.6,1.3,2.9,2.9,2.9h35.2
	c2.2,0,4-1.8,4-4V225c0-1.6-1.3-3-3-3H75.6C74,222.1,72.6,223.4,72.6,225z M285.3,120.1v33.5c0,2.4,1.9,4.3,4.3,4.3h33.4
	c2.4,0,4.3-1.9,4.3-4.3v-33.5c0-2.4-1.9-4.3-4.3-4.3h-33.4C287.3,115.8,285.3,117.7,285.3,120.1z M274.2,154.1v-34.2
	c0-2.2-1.8-4.1-4.1-4.1l-35.6-0.2c-2.3,0-2.7,0.3-2.7,3.3c0,13.1,0.1,24.1,0,37.1c0,2,1.1,2.1,2.5,2c5.5,0,10.9,0,16.4,0
	c6.4,0,12.8,0,19.3,0C272.4,158.1,274.2,156.3,274.2,154.1z M125.9,119.8v34c0,2.2,1.8,4.1,4.1,4.1h33.9c2.2,0,4.1-1.8,4.1-4.1v-34
	c0-2.2-1.8-4.1-4.1-4.1h-33.9C127.7,115.8,125.9,117.6,125.9,119.8z M76.7,158h33.8c2.3,0,4.2-1.9,4.2-4.2V120
	c0-2.3-1.9-4.2-4.2-4.2H76.7c-2.3,0-4.2,1.9-4.2,4.2v33.8C72.5,156.1,74.4,158,76.7,158z M274.3,63.9c0-0.8-0.6-1.5-1.4-1.5
	c0,0,0,0,0,0c-12.9,0-25.7,0-38.6-0.1c-2.2,0-2.4,1.1-2.4,2.8c0,11.3,0,22.7,0,34c0,0.5,0,1,0,1.5c0,2.2,1.8,4.1,4.1,4.1h33.4
	c2.7,0,4.9-2.2,4.9-4.9V63.9z M163.9,62.6h-34.1c-2.2,0-4.1,1.8-4.1,4.1v34c0,2.2,1.8,4.1,4.1,4.1h34.1c2.2,0,4.1-1.8,4.1-4.1v-34
	C168,64.4,166.2,62.6,163.9,62.6z M179,119.9v33.3c0,2.7,2.2,4.5,4.8,4.9c0.8,0.1,1.8,0.1,3.4,0.1c9.3-0.3,15.1-7.3,16.6-13.6
	c2-8.6-0.1-16.1-5.4-23.1c-4.2-5.5-9.5-6.1-15.3-5.9C180.8,115.7,179,117.6,179,119.9z M114.7,101.8V64.7c0-1.2-1-2.3-2.3-2.3
	c-2.3,0-4.5-0.1-6.7,0.1c-1.2,0.1-2.8,0.8-3.5,1.7c-5.6,7-9.6,14.8-11.6,23.5c-1.1,4.8-1.4,8.9-0.2,13.8c0.4,1.7,1.7,3.3,3.7,3.3
	c6,0.2,11.3,0.1,17.4,0.1C113.3,104.9,114.7,103.5,114.7,101.8z M274.3,223.9c0-1.1-0.9-2-2-2c-4.5,0-9.5,0-11.4,0.1
	c-2.1,0.1-2.7,0.8-3.6,2.6c-0.9,1.8-3.4,6.7-4.4,10.7c-2.2,8.6,1.5,22.2,12,27.5c2.1,1,4.5,1.3,7.1,1.7c1.2,0.2,2.3-0.8,2.3-2V223.9
	z M327.6,74.7c0-3.3,0.1-5.9,0-9.3c-0.1-1.6-0.7-2.9-3-3c-3.9-0.2-6.4-0.1-10.3,0c-1,0-2.4,0.6-3.1,1.4c-5,5.7-7.9,17.2-2.1,24.7
	c2.7,3.5,6.9,4.5,11.2,2.9c5-1.8,7.3-4.8,7.3-9.4C327.6,79.6,327.6,77.1,327.6,74.7z M125.8,207c0,2.6,2.5,4.5,5,3.7
	c0.7-0.2,1.3-0.5,1.9-0.8c4.8-2.8,6.5-7.6,6.9-12.9c0.8-9.4-1.9-17.8-7.1-25.5c-1.1-1.7-2.4-2.6-4-2.8c-1.4-0.2-2.7,1-2.7,2.5V207z
	 M168.1,171.6c0-1.6-1.3-2.9-2.9-2.9c-2.6,0-5.1-0.1-7.6,0.1c-1.3,0.1-2.9,1-3.6,2c-3.5,5.6,0,13.7,6.4,15.2c3.8,0.9,7.2-1.2,7.5-5
	C168.2,178,168.1,174.9,168.1,171.6z M84.6,64.4c0-1.1-0.9-2-2-2c-1.2,0-2.3,0-3.4,0c-7,0-7,0-6.9,7c0.1,3.4,1.6,5.3,4.3,5.6
	c4.2,0.4,7.5-1.5,7.9-4.8C84.7,68.3,84.7,66.4,84.6,64.4z M231.8,230.9c0.1,1.4,0.3,2.6,1.2,2.9c1,0.3,2.1,0.3,3.1-0.3
	c3.6-2,4.8-4.7,4.3-9.1c-0.2-1.6-1.4-2.2-2.8-2.6c-5-0.8-5.8-0.4-5.8,5.8C231.9,227.6,231.7,229.5,231.8,230.9z M221.6,117.9
	c0.3-1.1-0.6-2.2-1.7-2.2c-2,0-3.4,0-4.9,0c-0.5,0-1.2,0.3-1.5,0.8c-1.6,2.3,0.1,8.5,2.8,9.3c1,0.3,2.8,0.1,3.3-1
	C220.5,122.7,220.9,120.4,221.6,117.9z M286.7,62.4c-0.9,0.1-1.6,0.9-1.7,1.8c0,1.8-0.1,3.6,0.1,5.4c0.1,1.2,1.2,1.9,2,2.1
	c1.1,0.3,3.1,0,4-1.5c1.3-2.1,1.6-3.8,0.3-6.1c-0.7-1.3-2.1-1.5-3.8-1.8C287.5,62.4,287.1,62.4,286.7,62.4z M285.2,102
	c0,1.4,1.6,2.1,2.6,1.3c1.8-1.4,2.5-3.2,2.2-5.5c-0.3-2.4-1.1-4.4-2.3-5.6c-0.9-0.9-2.6-0.2-2.6,1.1L285.2,102z"/>
</svg>
