<?xml version="1.0" encoding="utf-8"?>
<!-- Generator: Adobe Illustrator 26.0.2, SVG Export Plug-In . SVG Version: 6.00 Build 0)  -->
<svg version="1.1" id="Layer_1" xmlns="http://www.w3.org/2000/svg" xmlns:xlink="http://www.w3.org/1999/xlink" x="0px" y="0px"
	 viewBox="0 0 400 400" style="enable-background:new 0 0 400 400;" xml:space="preserve">
<g>
	<path d="M297.9,105.3c0,0,0-0.1,0-0.2c0-3.9-3.2-7.1-7.1-7.1h-28.5c-3.9,0-7.1,3.2-7.1,7.1c0,3.9,3.2,7.1,7.1,7.1h3.2
		c1.6,0,3,1.3,3,3v0c0,1.6-1.3,3-3,3c-24.8,0-195.9,0-195.9,0c-3.9,0-7.1,3.2-7.1,7.1v46.3c0,3.9,3.2,7.1,7.1,7.1
		c35.5,2,0.2,64.3,25.6,64.2c23.1-0.9-20-62.2,19.9-64.2h128.1c5.8,0.4,13.2,4.5,11.2,11.8c0,0-0.1,0.8-0.1,1.2
		c0,3.9,3.2,7.1,7.1,7.1c27.5,1.6-15.9,75.5,15.8,76.6c31.4,0.1-16.8-74.2,12.7-76.6c3.9,0,7.1-3.2,7.1-7.1c0-3.9-3.2-7.1-7.1-7.1
		h-4.2c-1.7,0-3-1.3-3-3v0c0-1.7,1.3-3,3-3c10.4,0,44.7,0,44.7,0c3.9,0,7.1-3.2,7.1-7.1v-46.3c0-3.9-3.2-7.1-7.1-7.1h-31.1
		C290.8,118.2,297.6,110.2,297.9,105.3z M259,178.7C259,178.7,259.1,178.7,259,178.7c0.1,0,2.4,0,4.7,0c1.3,0,2.5,0.5,3.4,1.4
		c0.9,0.9,1.4,2.1,1.4,3.4c0,0.6,0,1.1,0,1.1c0,0,0,0,0,0.1C267.9,187.9,255.6,179.3,259,178.7z M84.7,164.5c-2.1,0-4.1-0.8-5.6-2.3
		c-1.5-1.5-2.3-3.5-2.3-5.6v-16.2c0-2.1,0.8-4.1,2.3-5.6c1.5-1.5,3.5-2.3,5.6-2.3h175.9c2.1,0,4.1,0.8,5.6,2.3
		c1.5,1.5,2.3,3.5,2.3,5.6v16.2c0,2.1-0.8,4.1-2.3,5.6c-1.5,1.5-3.5,2.3-5.6,2.3H84.7z M323.3,156.5c0,4.4-3.6,8-8,8
		c-7.1,0-17.5,0-24.7,0c-4.4,0-8-3.6-8-8c0-4.9,0-11.3,0-16.2c0-4.4,3.6-8,8-8c7.1,0,17.5,0,24.7,0c4.4,0,8,3.6,8,8
		C323.3,145.2,323.3,151.6,323.3,156.5z M283.8,118.2h-0.3c-0.4,0-0.8-0.3-0.8-0.8c0,0,0,0,0,0c0-2.9,2.3-5.2,5.2-5.2h2.9
		C292.4,112,291.9,117.6,283.8,118.2z"/>
</g>
</svg>
