<?xml version="1.0" encoding="utf-8"?>
<!-- Generator: Adobe Illustrator 23.0.6, SVG Export Plug-In . SVG Version: 6.00 Build 0)  -->
<svg version="1.1"
	 id="svg12" xmlns:cc="http://creativecommons.org/ns#" xmlns:dc="http://purl.org/dc/elements/1.1/" xmlns:inkscape="http://www.inkscape.org/namespaces/inkscape" xmlns:rdf="http://www.w3.org/1999/02/22-rdf-syntax-ns#" xmlns:sodipodi="http://sodipodi.sourceforge.net/DTD/sodipodi-0.dtd" xmlns:svg="http://www.w3.org/2000/svg"
	 xmlns="http://www.w3.org/2000/svg" xmlns:xlink="http://www.w3.org/1999/xlink" x="0px" y="0px" viewBox="0 0 400 400"
	 style="enable-background:new 0 0 400 400;" xml:space="preserve">
<path d="M308.3,104.5h-71.5v12.4l47.4,0c3.4,0,6.7,1.1,9.3,3.3c15.6,13.2-6.9,32.7,8.3,35.7c15.8-0.2-9.5-24,8-36.4
	c2-1.4,4.8-1.5,6.9-0.2c4.9,3.1,8.2,8.7,8.2,15.2v50.9c0,9.7-7.5,17.7-16.6,17.7h-23.6v22.6l-19.1-22.6h-13.7c-2.9,0-5.8-1-8-3
	c-5.2-4.6-6.2-9.6-4.5-13.7c0.8-1.9,2.4-3.3,4.4-3.9c5.8-1.5,10.8-4.9,12.9-6.7c2.5-2.3,9.4-10.2,12.5-16.4c3.9,1.8,5.7,4.8,5.7,8.2
	c0,7.3-7,11.5-18.1,12.7l5.4,7.5c17.5-2.3,23.4-9.6,23.4-20.4c0-9.1-5.8-14.6-13-17c0.1-0.7,0.4-1.3,0.5-2.1l-9.9-1.8
	c-0.1,1-0.3,1.2-0.5,2.2c-3.6-0.2-7.6,0.4-8.8,0.6c0-1.8,0.1-6.7,0.1-8.4c8.3-0.4,16.4-1,24-2.2L277,129c-7.7,1.5-15.2,2.4-22.6,2.7
	c0.2-2,0.5-7.5,0.5-7.5l-10.5-0.8c-0.1,2.7-0.2,5.9-0.4,8.6c-4.6,0.1-10.2,0.1-13,0l0.5,9.4h1.1c0.2,0,0.4,0,0.7,0
	c4.2,1.6,7.1,6.4,8.5,11.6c-8.2,4.2-14,11-14,19.5c0,4.8,2.3,8.3,6.3,9.7c1.4,0.5,2.3,1.7,2.3,3.2c0,4.9-2.9,10.9-7,14.8
	c-1.6,1.5-3.7,2.3-5.8,2.3h-20.8c-9.2,0-16.6-7.9-16.6-17.7v-50.9c0-6.8,3.6-12.6,8.8-15.6c2.1-1.2,4.8-0.9,6.5,0.9
	c2.8,2.8,4.7,7.9,3.2,12.3c-0.7,2-2.5,3.5-4.6,3.9c-1,0.2-2,0.3-3,0.3v12.4c0.4,0,0.9,0,1.3,0c1.8-0.1,3.4,1,3.9,2.7
	c2.5,9.7-10.3,37.7,2.8,37.8c14.8-0.2,5.1-14.5,4-29.4c-0.5-7,2.1-14,7.2-18.8c5.9-5.5,9.6-13.4,9.6-22.4V67.8c0-16.5-13-30-29-30
	H91.5c-16,0-29,13.5-29,30v50.9c0,16.5,13,30,29,30h5.2c2,0,3.8,1.3,4.3,3.2c0.8,2.7,1.4,5.5,1.7,8.4v10.4c0,0.2,0,0.3,0,0.5
	c0.1,2.7,0.2,5.3-0.1,8c-3.2,31.2-18.1,62.8,7,62.4c21.8-2.4,4.4-27.2,6.8-55c0.6-7.3,3.5-14.2,8.2-19.7l15.3-18.1h23v-12.4h-28.8
	l-19.1,22.6v-22.6H91.5c-9.2,0-16.6-7.9-16.6-17.7V67.8c0-4.9,1.9-9.4,5-12.6c1.8-1.9,4.8-2.4,7.2-1.2c14.8,7.8,25,18.8,30.6,36.2
	c1.7,5.2,1.4,10.7-0.5,15.8l-3.7,9.8h12.9l4.5-12.8h21.5l4.3,12.8l6.7,0c4.6,0,8.8,2.8,10.2,7.2c0,0,0,0.1,0,0.1
	c0.7,2.2,0.8,4.5,0.5,6.8c-0.2,1.4-0.3,2.9-0.3,4.4v50.9c0,14.8,10.3,27.1,23.9,29.6c5.5,1,10.4,4.3,12.7,9.4
	c8.1,17.6-10,47.9,5.4,48.4c20.9,0.2-12.9-39.9,10.3-54.6c1.8-1.2,4-1.7,6.2-1.5c12,1.5-5.6,25.4,6.3,25.6c13.2-1.1-3.7-15.4,5.4-24
	c2-1.9,4.8-2.9,7.6-2.9l8.5,0l23,27.3c1.5,1.8,3.7,2.7,5.9,2.7c0.9,0,1.9-0.2,2.8-0.5c3.2-1.2,5.4-4.2,5.4-7.6v-21.9h11.2
	c16,0,29-13.5,29-30v-50.9C337.3,117.9,324.3,104.5,308.3,104.5z M259.4,157.8c-1.4,2.8-3.1,5.4-5,7.6c-0.3-2.3-0.4-4.5-0.6-6.9
	C254.6,158.3,257.6,157.8,259.4,157.8z M239.2,141.7c1.6,0,3.2-0.1,4.7-0.2c0,0.9,0,2.3,0,3.6C241.6,146.6,237.5,143.9,239.2,141.7z
	 M244.6,161.8c0.4,3.8,0.8,7.4,1.3,10.7c-1.7,0.8-3.4,1.4-5,1.5c-3.4,0.1-3.4-2-3.4-2.9C237.6,167.3,240.3,164.1,244.6,161.8z
	 M134.1,93.7l7.6-21.2h0.2l7.3,21.2H134.1z M166.9,108l-18.6-49.8h-12.9l-1.9,4.9c-1.2,3.1-3.7,5.6-6.8,6.6
	c-9.8,3.1-18.7-6.2-21.9-15.8c-0.6-1.9,0.7-3.8,2.7-3.8l61.3,0c2.2,0,4.3,0.7,6.1,2c15.9,11.9-6,34.8,9.2,35.2
	c13.4-1.2-7.4-21.6,9.6-36c1-0.8,2.2-1.2,3.5-1.2l0,0c9.2,0,16.6,7.9,16.6,17.7v50.9v0c0,1.2-0.9,2.3-2.1,2.5
	c-3.6,0.4-7.3-5.3-8.7-11.1c-0.1-0.6-0.2-1.2-0.2-1.9c0-1.4,0-3.8,0-3.8c-7.3,0-13.9,2.8-19.1,7.5c-1.6,1.5-3.5,2.7-5.6,3.4
	C172.6,117.2,170.2,114.2,166.9,108z"/>
</svg>
