<?xml version="1.0" encoding="utf-8"?>
<!-- Generator: Adobe Illustrator 23.0.6, SVG Export Plug-In . SVG Version: 6.00 Build 0)  -->
<svg version="1.1"
	 id="typescript" xmlns:cc="http://creativecommons.org/ns#" xmlns:dc="http://purl.org/dc/elements/1.1/" xmlns:inkscape="http://www.inkscape.org/namespaces/inkscape" xmlns:rdf="http://www.w3.org/1999/02/22-rdf-syntax-ns#" xmlns:sodipodi="http://sodipodi.sourceforge.net/DTD/sodipodi-0.dtd" xmlns:svg="http://www.w3.org/2000/svg"
	 xmlns="http://www.w3.org/2000/svg" xmlns:xlink="http://www.w3.org/1999/xlink" x="0px" y="0px" viewBox="0 0 400 400"
	 style="enable-background:new 0 0 400 400;" xml:space="preserve">
<path d="M327.7,4.8H72.3c-5.4,0-9.7,4.3-9.7,9.7v127.7v127.4c0,5.6,3.2,10.6,8.2,13.1c45.8,22.4-15,96.5,26.7,100.8
	c29.4-0.2-14.2-75.5,19.5-98.9c4.9-3.4,10.7-5,16.7-5h194c5.4,0,9.7-4.3,9.7-9.7V14.5C337.4,9.1,333,4.8,327.7,4.8z M158.6,249.4
	v-15.7c0-4.6,1.5-9.1,4.4-12.6c7-8.3,13.7,0.1,20.1,30.5c0.4,2.1-1.1,4-3.2,4h-15.1C161.3,255.5,158.6,252.8,158.6,249.4z
	 M213.4,153.9H190c-3.4,0-6.1,2.7-6.1,6.1v44.8c0,2.1-0.4,4.2-1.3,6.1c-6.6,13.6-19.1-25-23.3-51.8c-0.5-3-3-5.2-6-5.2h-24.3
	c-3.4,0-6.1-2.7-6.1-6.1v-4.9c0-1.8,0-3.6,0-5.5c0.1-3.3,2.7-6,6-6c8.2-0.1,24.3-0.1,42.6-0.1h41.9c3.3,0,6.1,2.7,6.1,6l0.1,5.3v5.1
	C219.5,151.2,216.8,153.9,213.4,153.9z M228.3,233.9c-0.9-1.5-0.5-3.5,1.1-4.4c0,0,0,0,0,0l10.1-5.8l5.4-3.1
	c1.4-0.8,3.2-0.4,4.1,0.9l0,0c2.8,4,6.3,7.4,10.4,10c0.3,0.2,0.6,0.3,0.9,0.4c0.6,0.3,1.2,0.6,1.8,1c17.3,11.5,18.5,21.5,3.8,22.4
	c-6.4,0.4-12.8-1.1-18.6-4c-4.9-2.5-9.4-5.7-13.4-9.7C232.5,239.9,229.9,236.4,228.3,233.9z M313.3,234.5
	c-2.3,5.9-6.2,10.8-11.7,14.5c-2.3,1.6-5,2.6-7.9,2.7c-10.1,0.3-11.2-11-5.3-24.6c2-3.8,1.9-8.5-0.6-12.3c-2.2-3.1-6.6-5.6-18.9-11
	c-14.2-6.1-20.3-9.9-25.9-15.9c-3.5-3.9-6-8.6-7.5-13.6c0-0.1-0.1-0.2-0.1-0.3c-1.1-5.7-1.2-11.5-0.5-17.3c0-0.1,0-0.2,0-0.3
	c3-13.6,13.2-23.1,28-25.9c0.1,0,0.1,0,0.2,0c6.9-0.8,13.9-0.6,20.8,0.6v0c6.6,1.5,12.6,5,17.2,9.9c1.6,1.7,3.1,3.4,4.4,5.3
	c1.3,1.9,0.9,4.6-1.1,5.9c-3.6,2.5-9.8,6.7-14.5,9.7c-1.1,0.7-2.5,0.3-3.2-0.8c-0.2-0.3-0.4-0.7-0.7-1.1c-2.7-4.6-7.6-7.6-12.9-7.8
	c-8.3-0.6-13.7,3.8-13.7,11c-0.1,1.8,0.3,3.6,1.2,5.1c1.8,3.8,5.2,6.1,15.9,10.7c19.7,8.5,28.1,14,33.3,22
	C316,209.8,317.2,224,313.3,234.5z"/>
</svg>
