<?xml version="1.0" encoding="utf-8"?>
<!-- Generator: Adobe Illustrator 23.0.6, SVG Export Plug-In . SVG Version: 6.00 Build 0)  -->
<svg version="1.1" id="Layer_1" xmlns="http://www.w3.org/2000/svg" xmlns:xlink="http://www.w3.org/1999/xlink" x="0px" y="0px"
	 viewBox="0 0 400 400" style="enable-background:new 0 0 400 400;" xml:space="preserve">
<path d="M178.1,191.8c-0.1,3.6-2,8.5-4.7,10.1c-2.1,1.3-7.2-0.8-10.1-2.7c-6.4-4.2-12.1-9.3-18.2-14c-11-8.5-16.7-6-19,8
	c-1.1,6.7-1.2,14-3.9,20c-2.1,4.6-7,9.1-11.7,11c-6.1,2.5-12.3-1.3-15.2-6.8c-3.6-6.9-6.9-14.4-8-22c-1.6-11.6-0.9-23.5-1.8-35.2
	c-1.1-13.6-4.2-26.2-16.8-34.7c-10.3-7-7.5-12.3,6.5-21.2c28.5-18.1,55.5-38.6,79.6-62.3c14.3-14.1,21.3-14.7,26.7-0.2
	c2.6,6.9,4.4,14.1,7.3,20.9c6.2,14.9,16.7,23.8,33.6,26.2c15.8,2.3,31.7,6.1,46.8,11.3c32.9,11.3,55.5,33.1,64.3,67.6
	c5.1,19.9,4.9,40,1.9,60.1c-1.3,8.2-2.9,16.3-4.6,24.5c-0.4,2.1-3.5,2-3.7-0.2c-0.7-6.3-1-12.5-1.8-18.7c-3.8-30-17.1-54.1-45-68
	c-31.7-15.9-66.1-17-101.9-17.5C178.3,163.4,178.6,177.6,178.1,191.8z M183.3,86.6L183.3,86.6c2.3-0.1,3.6-2.8,2.2-4.6l-2.6-3.5
	c-1.3-1.7-4-0.8-4,1.3v2.6C179,84.8,181,86.7,183.3,86.6z"/>
</svg>
