<?xml version="1.0" encoding="utf-8"?>
<!-- Generator: Adobe Illustrator 23.0.6, SVG Export Plug-In . SVG Version: 6.00 Build 0)  -->
<svg version="1.1" id="Layer_1" xmlns="http://www.w3.org/2000/svg" xmlns:xlink="http://www.w3.org/1999/xlink" x="0px" y="0px"
	 viewBox="0 0 400 400" enable-background="new 0 0 400 400" xml:space="preserve">
<path d="M200.2,5.1c4.1,0,8.2,0.2,12.2-0.1c3.2-0.2,3.8,1.1,3.8,3.9c-0.2,7.8,0,15.5-0.1,23.3c0,2.8,0.9,3.7,3.7,3.8
	c14.2,0.5,28,3.2,41.2,8.6c3.3,1.3,4.3,2.9,3.2,6.5c-3.1,10.8-6,21.6-8.4,32.5c-1.4,6.2-1.6,12.6-2.5,18.8c-0.4,2.6-0.7,5.4-1.8,7.7
	c-1.8,4-6.1,4.2-8.3,0.4c-1.3-2.4-1.9-5.2-2.6-7.9c-0.4-1.6-0.6-3.3-0.9-4.9c-1.8-7.9-4.5-9.7-12.4-8.4c-6.9,1.1-9.3-0.2-12.5-6.4
	c-1.8-3.5-3.9-8.8-6.1-9.9s-10.8,0.8-15.9,2.1c-5.2,1.2-9.8,3.7-12.6,8.9c-3.4,6.4-2.1,15.2,3.7,19.9c7.9,6.3,17,10.3,26.3,13.9
	c14.9,5.9,30.2,10.9,43,21c12.3,9.7,19.5,22.1,20.9,37.9c1.4,15.4-1.7,29.5-10.9,41.8c-10.8,14.4-25.7,22.4-43.1,26.1
	c-5.3,1.1-5.4,0.9-5.4,6.5c0,8.1,0.1,16.3-0.1,24.4c-0.1,2.1-0.8,4.6-2,6.2c-5.4,6.6-6.2,13.6-3.1,21.4c1.4,3.6,2.9,7.4,3.5,11.2
	c1.5,8.6-4.5,15.6-13.3,15.8c-11.8,0.4-20-10.5-16.4-21.6c1.1-3.3,2.6-6.3,3.9-9.5c2.8-6.7,1.7-13.4-2.8-18.2
	c-2.9-3.1-2.4-5.7-2.5-8.8c-0.2-7-0.1-14,0-21c0-2.1-0.6-3.1-2.8-2.8c-0.6,0.1-1.3,0.1-1.9,0c-7.5-1.2-7.5-1.2-9.9,6
	c-1,3-1.7,6.2-2.8,9.1c-2,5.1-5.8,5.6-9.8,1.8c-1.5-1.4-3.5-3.9-4.9-3.7c-1.4,0.3-2.3,3.9-3,5.9c-1.1,3.4-1.7,6.9-2.9,10.2
	c-1.1,3-3.3,5.2-6.9,5.1c-3.5-0.1-6.1-2.1-6.9-5.1c-0.9-3.4-1.1-7.2-0.7-10.8c0.4-4,2.2-7.8,2.8-11.8c1.2-7.6,0-14.7-6-20.3
	c-0.8-0.7-0.9-2.6-0.7-3.7c2.6-10.9,5.4-21.7,8.2-32.6c0.6-2.5,1.3-3.5,4.2-2c11.1,6,23,9.8,35.3,11.8c12.2,2,24.5,2.9,36.5-1.9
	c12.1-4.8,17.1-17.5,10.5-27.7c-4.5-7-17.1-13.4-18.9-14c-1.8-0.6-3.1,0.9-3.4,1.8c-1.6,4.2-2.9,8.6-4.1,13
	c-0.7,2.4-0.8,5.1-2.1,7.3c-0.9,1.6-3.2,3.6-4.8,3.5c-1.8-0.1-4.4-1.9-5.1-3.6c-1.2-3.1-1.6-6.7-1.7-10c-0.2-6.8-0.6-13.5-4.4-19.4
	c-1-1.6-2.6-3.2-4.4-3.9c-10.5-4.3-20.2-9.9-28.5-17.6c-8.7-8-13.8-18.1-15.6-29.9c-3.5-23.8,8.4-46.3,29.3-57.5
	c7.4-4,15.5-6.6,23.5-9.2c3.1-1,3.9-2.1,3.9-5.1c-0.2-8.5,0-17-0.1-25.6c0-2.3,0.5-3.2,2.9-3.1C191.3,5.2,195.7,5.1,200.2,5.1z"/>
</svg>
