<?xml version="1.0" encoding="utf-8"?>
<!-- Generator: Adobe Illustrator 23.0.6, SVG Export Plug-In . SVG Version: 6.00 Build 0)  -->
<svg version="1.1" id="Layer_1" xmlns="http://www.w3.org/2000/svg" xmlns:xlink="http://www.w3.org/1999/xlink" x="0px" y="0px"
	 viewBox="0 0 400 400" style="enable-background:new 0 0 400 400;" xml:space="preserve">
<path d="M191.1,44.8c2.9,0.3,5.6,2,6.5,4.6c1.5,4,2.5,8.3,2.9,12.5c1.9,19.9,3.5,43.9,3.5,60s0,25.8-0.6,38.7
	c-0.8,19.9-2.3,39.8-3.7,59.7c-0.3,4.3-1.8,8.5-2.8,12.7c-1.7,6.5-1.3,12.8,1.8,18.9c1.6,3.1,3,6.4,4.2,9.7
	c2.5,7.1,0.1,13.5-5.8,16.4c-5.7,2.8-13.4,0.6-17.3-5c-2.6-3.8-3.4-8-2.7-12.5c0.7-4.4,1.8-8.7,2.4-13.1
	c1.6-12.8-4.4-22.3-13.4-30.4c-8.8-7.9-17.7-15.8-26.4-23.9c-4.1-3.8-7.2-7.5-11.1-11.5c-1.7-1.7-2.7-2.3-4.9-2.5
	c-2.3-0.2-3.7-0.2-6.6-0.1c-2.9,0.1-4.9,1-5.8,5.1c-0.6,2.7-0.5,5.6-0.6,8.4c-0.1,2.1,0.1,4.3-0.3,6.3c-1,5.4-5.8,7.3-10.3,4.1
	c-1.7-1.2-3.1-2.6-4.7-3.8c-0.5-0.3-1-1.1-1.6-0.7c-0.6,0.4-0.5,1.5-0.4,2.6s0.2,3.3,0.3,5.5c0.1,2,0.3,4.1,0.2,6.1
	c-0.2,5.3-3.2,9.4-7.5,10.5c-4.8,1.2-10.4-1-12.5-5.7c-1.5-3.5-2.1-7.6-2.3-11.5c-0.2-5.4,1-10.9,0.4-16.3c-0.3-2.7-2.4-5.7-4.5-7.8
	c-2.7-2.7-3.7-4.7-4-9.1c-0.4-4.4-0.5-8.2-0.8-14.1c0-1.2,0-6,0-7.2c0.1-13.5,0.2-27,0.4-40.6c0-3.2,0.2-6.4,0.3-9.6
	c0.1-2.3,2.6-4.1,5.9-4.2c4.9-0.1,9.9,0,14.8,0c0,0,27.3,0.7,34.9,0.6s10.8-3.3,14.9-7.3c5.4-5.3,10.6-10.8,16.1-16
	c8.8-8.4,17.8-16.6,26.7-25c1.3-1.2,3.4-3.2,5.2-3.6C183.7,45.2,188.2,44.5,191.1,44.8z"/>
<path d="M293.7,50.7c2.3-0.4,3.5-0.8,6.1-0.9c4.5-0.2,9-0.1,13.5,0.4c9.2,1.2,16,5.5,19.5,14.8c6.1,16.1,9.8,32.7,11.3,49.7
	c0.7,7.6,0.5,15.3,0.4,22.9c-0.1,8.9,0,17.8-0.9,26.7c-1.5,14.7-4.7,29.1-10,43c-2.1,5.5-5.1,10.2-9.6,14.3
	c-7.9,7.3-11.6,16.6-10,27.8c0.9,6.1,1.4,12.4-0.3,18.6c-1.1,4.2-3.1,7.8-6.9,10.2c-5.9,3.7-13.4,1.9-17-4.1
	c-2-3.4-2.9-7.1-2.2-11.1c0.7-4.2,1.6-8.5,2.6-12.7c2.1-8.3,1.2-16.2-2.5-23.8c-1.8-3.6-1.9-6.8,0.3-10.6c6-10.4,5.2-21.3,1.1-32.1
	c-1.4-3.7-3.6-10.5-5-10.5s-2.2,1.9-2.6,2.6c-2.9,5.5-5.9,10.9-8.9,16.4c-1.5,2.7-4.5,2.5-7.8,2.7c-3.3,0.3-7.3,0.5-11.7,0.8
	c-3,0.2-6.2,0.1-9.2-0.2c-3.3-0.3-4.1-1.9-2.6-4.8c3.6-6.8,7.6-13.3,10.8-20.3c4.1-9,5.9-18.6,5.9-28.5c0-4.5-0.2-9-0.4-13.5
	c0-0.7-0.1-1.7-1.1-2s-1.7,0.5-2.2,1.1c-1.4,2.1-2.9,4.3-3.9,6.7c-2.7,6.5-4.8,13.4-8,19.7c-4.3,8.5-9.5,16.6-14.3,24.9
	c-0.5,0.9-0.9,2.2-0.8,3.2c0.4,3.6,1.2,7.2,1.7,10.8c0.4,3.1,0.9,6.3,0.5,9.3c-0.5,3.9-3.4,6.4-6.8,6.8c-3.7,0.5-7.7-1.3-8.8-5
	c-1.1-3.5-1.8-7.6-1.2-11.2c1-7-0.2-13.2-4-18.9c-2.8-4.3-2.6-8,0.1-12.4c4.7-7.8,8.2-16.1,7.2-25.6c-0.4-4-1.1-8-2.4-11.7
	c-1.3-3.9-3.3-7.5-5.4-11.1c-3.1-5.4-2.1-8.6,4-9.8c5.3-1,10.9-1.8,16,1.1c1.4,0.8,2.9,2,3.5,3.4c1.6,3.6,2.5,7.4,3.9,11.1
	c0.4,1,0.7,2.7,2.3,2.5s2-1.5,2.2-2.3c1.1-6,2.3-12,2.7-18.1c0.4-5.4,0.8-10.9-2.1-16c-1.2-2,0.9-3.2,2.7-3.4
	c2.9-0.2,5.9-0.2,8.9-0.1c4.5,0.3,8.8,0.5,14.1,0.7c5.4,0.2,6.3,3.1,8.6,6.2c5.9,8,8,17.5,10.4,26.9c1.8,7,2.6,14.3,4.3,21.4
	c1.8,7.3,4.2,14.4,9.8,19.8c2.1,2,4.4,2.9,7.1,2c2.6-0.8,3.2-3.3,3.6-5.7c3.4-20-0.4-39.3-6.1-58.4c-3.8-12.8-9.3-24.9-16.1-36.5
	c-0.5-0.9-1.1-1.8-1.4-2.8c-0.9-2.5-0.2-3.7,2.1-3.8C290.9,51.5,291.4,51.1,293.7,50.7z"/>
</svg>
