<?xml version="1.0" encoding="utf-8"?>
<!-- Generator: Adobe Illustrator 23.0.6, SVG Export Plug-In . SVG Version: 6.00 Build 0)  -->
<svg version="1.1" id="Layer_1" xmlns="http://www.w3.org/2000/svg" xmlns:xlink="http://www.w3.org/1999/xlink" x="0px" y="0px"
	 viewBox="0 0 400 400" style="enable-background:new 0 0 400 400;" xml:space="preserve">
<path d="M192,44.6c2.9,0.3,5.6,2,6.6,4.6c1.5,4,2.5,8.3,2.9,12.5c1.9,20,3.5,44.1,3.5,60.3s0,25.9-0.6,38.9c-0.8,20-2.3,40-3.7,60
	c-0.3,4.3-1.8,8.6-2.8,12.8c-1.7,6.6-1.3,12.9,1.8,19c1.6,3.2,3,6.4,4.2,9.7c2.5,7.2,0.1,13.6-5.9,16.5c-5.7,2.8-13.4,0.6-17.4-5
	c-2.7-3.8-3.5-8.1-2.7-12.6c0.7-4.4,1.8-8.8,2.4-13.2c1.6-12.8-4.4-22.4-13.5-30.6c-8.9-8-17.8-15.9-26.5-24.1
	c-4.1-3.8-7.2-7.5-11.1-11.6c-1.7-1.7-2.7-2.4-5-2.5c-2.3-0.2-3.7-0.2-6.7-0.1c-3,0.1-5,1-5.8,5.1c-0.6,2.7-0.5,5.6-0.6,8.4
	c-0.1,2.1,0.1,4.3-0.3,6.3c-1,5.4-5.8,7.3-10.3,4.2c-1.7-1.2-3.2-2.6-4.8-3.8c-0.5-0.3-1-1.1-1.6-0.7c-0.6,0.4-0.5,1.5-0.4,2.6
	c0,1.1,0.2,3.4,0.3,5.5c0.1,2,0.3,4.1,0.2,6.1c-0.2,5.4-3.2,9.5-7.5,10.5c-4.8,1.2-10.5-1-12.5-5.7c-1.5-3.5-2.1-7.7-2.3-11.6
	c-0.2-5.5,1-11,0.5-16.4c-0.3-2.8-2.5-5.7-4.6-7.8c-2.7-2.7-3.7-4.8-4-9.2c-0.4-4.4-0.5-8.2-0.8-14.2c0-1.2,0-6,0-7.2
	c0.1-13.6,0.2-27.2,0.4-40.8c0-3.2,0.2-6.4,0.3-9.6c0.1-2.3,2.6-4.1,6-4.2c5-0.1,9.9,0,14.9,0c0,0,27.4,0.7,35,0.6
	c7.6,0,10.9-3.3,15-7.4c5.4-5.3,10.7-10.8,16.2-16.1c8.9-8.4,17.9-16.7,26.9-25.1c1.3-1.2,3.4-3.2,5.3-3.6S189.1,44.3,192,44.6z"/>
<path d="M258.3,127.1c-1.3-0.6-2.8,2.2-3.6,3.9c-0.8,1.7-1.9,3.6-3,5.8c-1.1,2.2-13.2,30.3-22,44.4c-1.3,2.1-0.6,5.8-0.3,8.7
	c0.4,3.9,1.7,7.8,1.9,11.7c0.3,5.1-2.6,8.7-6.8,9.3c-4.2,0.7-8.4-2.2-9.6-7.1c-0.7-2.7-0.9-5.8-0.4-8.5c1.4-7.2-0.1-13.6-3.9-19.6
	c-2.6-4.1-2.6-7.5,0-11.7c6.7-10.9,10-22.6,5.9-35.2c-1.6-4.8-3.9-9.3-6.3-13.7c-2.9-5.4-1.9-8.3,4-9.4c3.5-0.7,7.1-0.9,10.6-0.6
	c4.7,0.5,8.5,2.7,9.9,7.8c0.7,2.8,1.5,5.5,2.6,8.2c0.4,1,1.5,2.2,2.3,2.3c0.8,0,2-0.8,2.7-2.5s2-7.6,2.2-11.7
	c0.3-7.4,1.8-14.9-1.6-22.2c-1.3-2.8,1.8-3.4,3.7-3.3c6.4,0.1,10.5,0.4,19.2,0.8c8.7,0.4,10.9,5,13.4,10.5
	c10.7,23.3,15.2,47.3,6.8,72.4c-2.6,7.7-5.7,15.3-9,22.7c-1.8,3.9-3.1,6-9.9,6.5c-6.8,0.5-12.8,0.7-19.2,0.9
	c-5.5,0.1-6.3-1.2-3.7-5.9c2.9-5.4,6.3-10.6,8.9-16.1c6.6-13.7,7.9-28.3,7-43.2C259.8,130.9,259.6,127.8,258.3,127.1z"/>
</svg>
