<?xml version="1.0" encoding="utf-8"?>
<!-- Generator: Adobe Illustrator 23.0.6, SVG Export Plug-In . SVG Version: 6.00 Build 0)  -->
<svg version="1.1" id="Layer_1" xmlns="http://www.w3.org/2000/svg" xmlns:xlink="http://www.w3.org/1999/xlink" x="0px" y="0px"
	 viewBox="0 0 400 400" style="enable-background:new 0 0 400 400;" xml:space="preserve">
<path d="M192.1,45.3c2.9,0.3,5.6,2,6.6,4.6c1.5,4,2.5,8.3,2.9,12.6c1.9,20.1,3.5,44.2,3.5,60.4s0,26-0.6,39
	c-0.8,20.1-2.3,40.1-3.7,60.1c-0.3,4.3-1.8,8.6-2.8,12.8c-1.7,6.6-1.3,12.9,1.8,19.1c1.6,3.2,3,6.4,4.2,9.8
	c2.5,7.2,0.1,13.6-5.9,16.6c-5.7,2.8-13.5,0.6-17.4-5.1c-2.7-3.8-3.5-8.1-2.7-12.6c0.7-4.4,1.9-8.8,2.4-13.3
	c1.6-12.9-4.4-22.5-13.5-30.7c-8.9-8-17.9-16-26.6-24.1c-4.1-3.8-7.3-7.6-11.2-11.6c-1.7-1.7-2.7-2.4-5-2.5
	c-2.3-0.2-3.7-0.2-6.7-0.1c-3,0.1-5,1-5.8,5.1c-0.6,2.7-0.5,5.6-0.6,8.4c-0.1,2.1,0.1,4.3-0.3,6.4c-1,5.4-5.8,7.3-10.4,4.2
	c-1.7-1.2-3.2-2.6-4.8-3.9c-0.5-0.3-1-1.1-1.6-0.7s-0.5,1.5-0.4,2.6c0,1.1,0.2,3.4,0.3,5.5c0.1,2,0.3,4.1,0.2,6.1
	c-0.2,5.4-3.2,9.5-7.5,10.6c-4.8,1.2-10.5-1-12.6-5.7c-1.5-3.5-2.1-7.7-2.3-11.6c-0.2-5.5,1-11,0.5-16.4c-0.3-2.8-2.5-5.8-4.6-7.8
	c-2.7-2.7-3.7-4.8-4-9.2s-0.5-8.3-0.8-14.2c0-1.2,0-6.1,0-7.2c0.1-13.6,0.2-27.2,0.4-40.9c0-3.2,0.2-6.4,0.3-9.7
	c0.1-2.3,2.6-4.1,6-4.2c5-0.1,9.9,0,14.9,0c0,0,27.5,0.7,35.1,0.6s10.9-3.3,15.1-7.4c5.4-5.3,10.7-10.9,16.2-16.1
	c8.9-8.5,18-16.8,26.9-25.2c1.3-1.2,3.4-3.2,5.3-3.6C184.6,45.7,189.2,44.9,192.1,45.3z"/>
<path d="M217.2,141.1c0.5-9.2-3.5-17.1-7.8-24.8c-3.1-5.5-2.1-8.4,4.1-9.5c5.4-0.9,11.1-1.5,16.2,1.5c1.3,0.8,2.5,2.2,2.9,3.6
	c1.9,5.9,3.8,11.8,5.1,17.9c1,4.7,1.8,9.6,1.5,14.3c-0.3,5.2-1.6,10.4-3,15.4c-1.8,5.9-4,11.7-6.4,17.4c-1.9,4.6-2.6,9.1-1.5,14
	c0.6,2.3,1.3,4.6,1.6,7c0.3,2.2,0.5,4.6,0.3,6.8c-0.4,3.8-2.9,6.5-6.1,7.1c-3.6,0.7-7.7-1-9-4.5c-1.1-3-2-6.6-1.4-9.7
	c1.4-7.9,0-15-4.4-21.6c-2.3-3.5-1.9-6.6,0.1-10.1C213.8,158.2,217.7,150.4,217.2,141.1z"/>
</svg>
