<?xml version="1.0" encoding="utf-8"?>
<!-- Generator: Adobe Illustrator 23.0.6, SVG Export Plug-In . SVG Version: 6.00 Build 0)  -->
<svg version="1.1"
	 id="svg6" xmlns:cc="http://creativecommons.org/ns#" xmlns:dc="http://purl.org/dc/elements/1.1/" xmlns:inkscape="http://www.inkscape.org/namespaces/inkscape" xmlns:rdf="http://www.w3.org/1999/02/22-rdf-syntax-ns#" xmlns:sodipodi="http://sodipodi.sourceforge.net/DTD/sodipodi-0.dtd" xmlns:svg="http://www.w3.org/2000/svg"
	 xmlns="http://www.w3.org/2000/svg" xmlns:xlink="http://www.w3.org/1999/xlink" x="0px" y="0px" viewBox="0 0 400 400"
	 style="enable-background:new 0 0 400 400;" xml:space="preserve">
<path d="M228.9,28.7l-25.4,43.4c-1.4,2.4-4.9,2.4-6.3,0l-25.4-43.4c-1.7-2.9-4.8-4.7-8.2-4.7l-97.4-0.3c-2.8,0-4.6,3.1-3.2,5.5
	l134.2,230.3c1.4,2.4,4.9,2.4,6.3,0L337,29.2c1.4-2.4-0.4-5.5-3.2-5.5L237.1,24C233.7,24,230.6,25.8,228.9,28.7z M293.8,25.1l37.8,0
	c2.8,0,4.6,3,3.1,5.5l-83.7,143.8c-1.4,2.4-3,4.7-4.7,6.7c-14.8,17.2-28.7,6.3-32-12.8c-2-11.3,0.3-23,6.1-33l59.5-102.2
	C282.8,28.2,288.1,25.1,293.8,25.1z M116.9,30.9c7.5,11.7,8.3,26.8-20.9,36.7c-4.4,1.5-9.3-0.3-11.6-4.3l-19-32.4
	c-1.5-2.6,0.4-5.8,3.3-5.8l37.6,0C110.5,25.1,114.5,27.3,116.9,30.9z M198.3,257.9l-80.9-138.1c-4.4-7.5-7.2-15.8-8-24.4
	c-1.5-16.4,4.2-31.4,23.2-29.6c4.8,0.4,9,3.2,11.5,7.4l47.3,81.2c13.6,28.7,21.4,58.4,16.9,87.4c-0.9,5.7-2.9,11.2-5.8,16.1v0
	C201.5,259.4,199.2,259.5,198.3,257.9z"/>
</svg>
