<?xml version="1.0" encoding="utf-8"?>
<!-- Generator: Adobe Illustrator 23.0.6, SVG Export Plug-In . SVG Version: 6.00 Build 0)  -->
<svg version="1.1"
	 id="svg2" xmlns:cc="http://creativecommons.org/ns#" xmlns:dc="http://purl.org/dc/elements/1.1/" xmlns:inkscape="http://www.inkscape.org/namespaces/inkscape" xmlns:rdf="http://www.w3.org/1999/02/22-rdf-syntax-ns#" xmlns:sodipodi="http://sodipodi.sourceforge.net/DTD/sodipodi-0.dtd" xmlns:svg="http://www.w3.org/2000/svg"
	 xmlns="http://www.w3.org/2000/svg" xmlns:xlink="http://www.w3.org/1999/xlink" x="0px" y="0px" viewBox="0 0 400 400"
	 style="enable-background:new 0 0 400 400;" xml:space="preserve">
<path d="M329.8,122.8c-0.4,0-0.8,0.2-1.1,0.5c-3.8,4.1-7.5,8.3-11.3,12.5c-1.4,1.6-2.9,3.1-4.3,4.7c-0.3,0.3-0.8,0.4-1.1,0
	c-2.5-2.7-4.9-5.5-7.4-8.2c-0.6-0.7-1.2-1.3-1.8-2c-0.9-1-1.7-2.1-2.6-3.1c-1.3-1.4-2.7-2.8-4.1-4.2c-0.2-0.2-0.6-0.2-1-0.2
	c-2.9,0-5.7,0-8.6,0c-9.1,0-18.2,0-27.2,0c-1.3,0-1.3,0-1.3,1.3v12.8c0,0.5-0.1,1.1-0.4,1.5c-1.8,2.8-5.7-5-5.4-9.6l0,0
	c0-0.1,0-0.2,0-0.3c0.1-3.1-0.6-5.9-2.5-8.4c-1.5-2.1-3.5-3.7-5.8-4.9c-3.4-1.8-7-2.8-10.8-3c-0.2,0-0.4-0.1-0.5-0.1h-6.7
	c-1.2,0.1-2.4,0.3-3.6,0.4c-4,0.5-7.6,1.9-11,4c-1.1,0.7-2.1,1.4-3.1,2.2c0,0-0.1,0.1-0.1,0.1l0,0c-7.4,3.3-13.5,4-19.2,4.1
	c-1.9,0-3.9,0-5.8,0c-0.5,0-1,0-1.5,0c0,0,0,0,0,0c-6,0-12,0-18.1,0c-1.2,0-1.2,0-1.2,1.2c0,10.4,0,20.8,0,31.2c0,0.8,0,1.1-0.5,1.1
	c-9.9,0-24.9-9.5-13.7-11.1c0.8,0,0.7-0.2,0.7-1.6c0-1.1,0-2.2,0-3.3c0-1.3,0.1-1.4-1-1.4c-6.2,0-12.4,0-18.7,0
	c-0.7,0-1.2-0.5-1.2-1.2c0-2.5,0-5.1,0-7.6c0-0.9,0-0.9,0.9-0.9c8.8,0,17.6,0,26.4,0c1.1,0,1.1,0,1.1-1.2c0-1.3,0-2.6,0-3.9
	c0-0.6-0.3-0.9-0.8-0.9c-0.3,0-0.6,0-0.8,0c-2.3,0-4.5,0-6.8,0c-7,0-13.9-0.1-20.9-0.1c-2.9,0-5.7-0.1-8.6-0.1c-0.6,0-1.2,0.4-1.4,1
	c-1.8,6-3.5,11.9-5.3,17.9c-1.3,4.3-1.1,3.6-2.4,7.9c0,0.1-0.7,2.3-1.2,4c-0.2,0.5-0.9,0.5-1,0c-0.2-0.5-0.3-1.1-0.5-1.6
	c-2.2-7.5-4.5-15-6.7-22.5c-0.6-2-1.2-3.9-1.8-5.9c-0.3-0.9-0.8-0.5-2.4-0.6c-1.3-0.1-2.7-0.1-4,0c-1.8,0.1-2.4-0.2-2.7,0.8
	c-3,10.2-7,23.4-7,23.4l-1.9,6.3c-0.2,0.5-0.9,0.5-1.1,0l-1.7-5.6c0,0-1.9-6.2-3.8-12.6c-1.2-3.9-2.4-7.8-3.5-11.6
	c-0.2-0.5-0.4-0.7-0.9-0.7c-2.1,0-4.4,0-6.5,0c-0.3,0-0.5,0.3-0.4,0.6c0.5,1.5,1.1,3.2,1.6,4.6c1.4,4.3,2.8,8.5,4.2,12.8
	c1.9,5.8,3.8,11.7,5.7,17.5c0.3,1,0.6,2,0.9,3c0.3,0.8,1.1,1.4,1.9,1.4l6,0c0.8,0,1.6-0.5,1.9-1.3c4.4-10.8,9.4-25.7,13.3-17.2
	c1.2,4.1,2.4,8.2,3.7,12.3c0.5,1.6,0.9,3.2,1.4,4.8c0.3,0.9,1,1.5,2,1.5h5.9c0.9,0,1.7-0.6,1.9-1.4c0.5-1.6,1-3.1,1.5-4.7
	c1.7-5.1,3.3-10.2,5-15.3c0.4-1.2,0.8-2.4,1.2-3.6c0.1-0.3,0.6-0.2,0.6,0.1v3c0,8.2,0,12.6,0,20.8v0c0,0.6,0.5,1.1,1.1,1.2
	c19.1,2.9-0.7,31.2,9.2,32.6c10.5,0.4-5.2-27.8,6.7-32.3c0.8-0.3,1.7-0.4,2.6-0.4c0.9,0,1.7,0.2,2.5,0.6c5.2,3-1.9,12,2.6,12.3
	c3.7,0,0.2-6.6,1.3-10.6c0.4-1.4,1.7-2.3,3.1-2.3h45.7c0.9,0,1.8-0.1,2.8-0.2c0.7-0.1,1.4-0.2,2.1-0.4c0.5-0.1,1-0.3,1.5-0.5
	c0.2-0.1,0.4,0.1,0.4,0.3v0.4c0,0.2,0.2,0.4,0.4,0.4h59.6c1.2,0,2.3-1,2.3-2.3c0-3.8,0-7.7,0-11.5c0-0.7,0.5-1.2,1.2-1.2
	c1.1,0,2.3,0,3.4,0c1.8,0,3.7,0.3,5.3,1.1c13.5,6.4-1.5,30.4,7.7,31.1c8.2-0.2-4-22.6,5.1-30.6c1.2-1.1,2.8-1.6,4.4-1.9
	c1.1-0.2,2.1-0.4,3.1-0.7c3.2-1.1,5.8-3.4,7.1-6.6c0.1-0.2,0.3-0.2,0.4-0.1c0.2,0.3,0.4,0.5,0.7,0.8c1.7,1.9,3.5,3.9,5.2,5.8
	c0.3,0.4,0.5,0.8,0.5,1.3c0,4.6,0,9.2,0,13.8v0c0,0.6,0.5,1,1,1h4.9c0.6,0,1.1-0.5,1.1-1.1c0-4.5,0-9.1,0-13.6
	c0-0.6,0.2-1.3,0.7-1.8c2.9-3.2,5.8-6.4,8.7-9.7c3-3.3,6-6.6,9.1-10c0.7-0.7,2.1-2.2,2.9-3.1c0.3-0.3,0.1-0.7-0.3-0.7
	C334.8,122.8,332.1,122.8,329.8,122.8z M91.8,137.3c0.1-0.3,0.2-0.7,0.3-1c0.5-1.7,0.5-1.8,0.9-3.5c0.1-0.2,0.7-2.8,0.9-2.1
	c0.3,1,0.6,1.9,0.9,2.9c0,0.1,0.1,0.3,0.1,0.4C95.4,136.3,91.6,139.4,91.8,137.3z M138.3,156.3c-3,0-6,0-9.1,0c-1.1,0-1.1,0-1.1-1.1
	c0-3,0-6.1,0-9.1c0-0.7,0-0.9,0.4-0.9C136.7,146.2,150.1,155.9,138.3,156.3z M180.1,155.7c-1.1,0.4-2.3,0.6-3.6,0.6
	c-2.1,0-4.1,0-6.2,0c-0.9,0-0.9,0-0.9-0.9c0-3,0-6,0-8.9c0-0.4-0.1-0.8,0.4-0.8C176.1,146.6,187.8,152.9,180.1,155.7z M170.3,139.3
	c-0.9,0-0.9,0-0.9-0.9c0-2.8,0-5.6,0-8.4c0-0.6,0.2-0.9,0.8-0.9c8.3,0,16.6,0,24.9,0c1.5,0,2.9,0.3,4,1.3c2.5,2.1,2.2,6-0.6,7.8
	c-1.1,0.7-2.3,1.1-3.7,1.1c-4,0-8,0-12,0C178.6,139.3,174.4,139.3,170.3,139.3z M198.9,155.6C198.9,155.6,198.9,155.6,198.9,155.6
	c-0.7,0.2-1.5,0.2-2.3,0.1c-8.4-1.6-14.3-6.5-10.4-9.2c0.9-0.6,1.9-0.9,3-0.9c2,0,4,0,6,0c1.2,0,2.5,0.3,3.7,0.6
	c2.1,0.6,3.3,2.6,3.3,4.9C202.1,153.3,201,155,198.9,155.6z M209.1,146.1c-0.8,0.8-0.8,0.8-1.4-0.1c-0.9-1.4-2.1-2.5-3.6-3.2
	c0,0,0,0,0,0c-0.6-0.3-0.6-1-0.2-1.4c0.1-0.1,0.1-0.1,0.2-0.2c2.1-1.8,3.2-3.9,3.3-6.4c0,0,0,0,0,0c0,0,0,0,0-0.1c0-0.1,0-0.3,0-0.4
	c0.2-5,2.4-6.9,5.2-9.1c0.1-0.1,0.2-0.2,0.4-0.3c1.8-1.7,4-2.8,6.4-3.5c1.9-0.6,3.8-1,5.8-1.2c2.1-0.2,4.2-0.2,6.3-0.2
	c3.1,0.1,6.1,0.7,8.6,2.6c2.3,1.6,3.3,4.3,2.3,6.9c-0.6,1.5-1.7,2.5-3.1,3.3c-2.4,1.3-5,2-7.6,2.8c-3.4,1-6.8,1.8-10.1,2.9
	C217,139.9,212.6,142.3,209.1,146.1z M255,153.2c-1.1,1.2-2.7,1.8-4.4,1.8c-12.1,0-20.6,0-32.7,0c-0.2,0-2.2,0-3.6,0
	c-0.6,0-0.9-0.6-0.6-1.1c0.4-0.7,0.9-1.4,1-1.6c2.7-4.4,5.5-5.1,10.8-6.8c4-1.3,8-2.3,12.1-3.3c0.6-0.2,1.3-0.3,1.9-0.5
	C254.7,138.7,259.2,148.7,255,153.2z M265.2,141.3c-0.2-0.1-0.2-0.3-0.2-0.9c0-3.5,0-6.9,0-10.4c0-0.7,0.2-0.9,0.9-0.9
	c3.6,0,7.1,0,10.7,0c0.8,0,1.7,0.1,2.4,0.4C284.7,131.7,281.8,140,265.2,141.3z M294.9,138.8c-1.1,1.7-2.8,2.2-4.7,2.5
	c-1.1,0.1-2.3,0.1-3.4,0.2c-0.8,0-1.6,0-2.4,0c-3.4,0-3-3.6-1.1-6.4c1.6-2.3,4.4-4.5,7.5-4.9c1.4-0.2,2.8,0.3,3.7,1.4
	c0.6,0.8,1,1.7,1.2,2.8C295.9,135.9,295.7,137.4,294.9,138.8z"/>
</svg>
