<?xml version="1.0" encoding="utf-8"?>
<!-- Generator: Adobe Illustrator 23.0.6, SVG Export Plug-In . SVG Version: 6.00 Build 0)  -->
<svg version="1.1"
	 id="Layer_1" inkscape:version="0.92.1 r15371" sodipodi:docname="wrench.svg" xmlns:cc="http://creativecommons.org/ns#" xmlns:dc="http://purl.org/dc/elements/1.1/" xmlns:inkscape="http://www.inkscape.org/namespaces/inkscape" xmlns:rdf="http://www.w3.org/1999/02/22-rdf-syntax-ns#" xmlns:sodipodi="http://sodipodi.sourceforge.net/DTD/sodipodi-0.dtd" xmlns:svg="http://www.w3.org/2000/svg"
	 xmlns="http://www.w3.org/2000/svg" xmlns:xlink="http://www.w3.org/1999/xlink" x="0px" y="0px" viewBox="0 0 400 400"
	 style="enable-background:new 0 0 400 400;" xml:space="preserve">
<path d="M330.1,117.7c0.4-1,0.9-1.9,1.3-2.9c4.3-10.3,6.7-21,6-33.1l0,0l0,0l0,0c-3,1.4-5.2,2.4-7.4,3.5
	c-11.3,6-22.7,12.2-34.2,18.1c-3.2,1.6-7.2,0.1-8.4-3.4c-8.2-22.1-2-51.6,19-77.4c-3.2-2.2-5.2-3.7-7.2-4.9
	c-27.8-15.2-55.5-14.9-81.9,2.4c-26.6,17.4-37.1,43.3-34,74.6c0.5,4.9-0.7,7.7-4,10.9c-34.3,34-68.4,68.2-102.5,102.3
	c-2.8,2.8-5.5,5.8-7.7,9.1c-13.3,20-6.1,46.4,15.2,57.3c16.4,8.3,34.1,4.8,48.9-9.9c33.4-33.4,66.9-66.8,100.2-100.3
	c3.5-3.5,6.6-4.6,11.7-3.6c22.2,4.6,45.1-1.6,62.5-15c30.5-4-14,65.6,13.7,66.7C350.8,214.4,324.5,176,330.1,117.7z M248.2,84.7
	c0.6-8.7,1.2-17.4,1.1-26.1c0-4.9,1.8-7.5,6.1-9.7c3.2-1.6,6.4-3.2,9.6-4.9c4.6-2.4,10.3,0.4,11.3,5.5c3.1,17.2-1.9,34.6-11,43.3
	c-3.1,3-7.8,3.5-11.5,1.3c-0.3-0.1-0.6-0.4-1-0.5C249.1,91.5,247.9,88.8,248.2,84.7z"/>
</svg>
