<?xml version="1.0" encoding="utf-8"?>
<!-- Generator: Adobe Illustrator 23.0.6, SVG Export Plug-In . SVG Version: 6.00 Build 0)  -->
<svg version="1.1"
	 id="svg4" xmlns:cc="http://creativecommons.org/ns#" xmlns:dc="http://purl.org/dc/elements/1.1/" xmlns:inkscape="http://www.inkscape.org/namespaces/inkscape" xmlns:rdf="http://www.w3.org/1999/02/22-rdf-syntax-ns#" xmlns:sodipodi="http://sodipodi.sourceforge.net/DTD/sodipodi-0.dtd" xmlns:svg="http://www.w3.org/2000/svg"
	 xmlns="http://www.w3.org/2000/svg" xmlns:xlink="http://www.w3.org/1999/xlink" x="0px" y="0px" viewBox="0 0 400 400"
	 style="enable-background:new 0 0 400 400;" xml:space="preserve">
<path d="M254,127.1c3.9,14.4,6.6,29.1,8,46.4c0.3,3.6,4.7,5.2,7.2,2.6c30.2-31.2,56.6-65.1,58.9-104c0.6-27.5-9.8-49-23.7-61.3
	c-6.2-5.4-14.8-7.2-22.6-4.6c-27.1,8.9-53.6,41.3-44.1,72.4c2.8,12.4,8,28.5,1.4,28.7c-1.6,0.1-3.1-0.9-3.8-2.4
	c-5.3-10.5-11.4-20.6-18.3-30c-31.7-43-85.3-64.8-136.6-48.7c-5,1.6-8.4,6.3-8.3,11.6c0.3,16.5,4.8,35.5,16.4,51.9
	c0.9,1.2,1.7,2.6,2.2,4c18,44.5-9.7,89.2,12.3,87.1c26.9-1-18.3-73.4,17.6-63.7c1.7,0.5,3.3,1.1,4.9,1.8c4.1,1.7,8.5,3.2,13.2,4.5
	c20.3,6,35.3,10,50.5,15.2c3.2,1.1,6.1,2.8,8.5,5.3c8.4,8.8,5.8,21.6,0.8,31c-1.6,2.1-3.3,4.3-5,6.5c-15.5,19.5-31.1,50.6-29.3,87.3
	c0.2,5.1,2.4,10,5.7,13.9c20.7,24.6-10.2,71.2,15.4,75.8c20.5,0.1-3.5-34.8,9-70.4c4-11.3,11.7-20.9,21.7-27.5
	c25.9-17.2,37.4-43.1,40.9-62.6c0.9-5.2-0.5-10.7-3.9-14.7c-9.6-11.3-22.3-19.6-31.6-24.6c-1.9-1-3.8-2.2-5.5-3.5
	c-3.7-2.7-7.6-5.3-5.4-6.8c0.8-0.5,1.8-0.5,2.6-0.1c15,7,27.8,15.7,38.8,27.6c2,2.1,5.5,0.5,5.1-2.4c-0.7-4.8-1.6-9.7-2.6-14.6
	c-0.7-10-5.2-22.1-4.3-31.1C250,125.1,253.3,124.8,254,127.1z"/>
</svg>
