<?xml version="1.0" encoding="utf-8"?>
<!-- Generator: Adobe Illustrator 27.0.0, SVG Export Plug-In . SVG Version: 6.00 Build 0)  -->
<svg version="1.1" id="Layer_1" xmlns="http://www.w3.org/2000/svg" xmlns:xlink="http://www.w3.org/1999/xlink" x="0px" y="0px"
	 viewBox="0 0 400 400" style="enable-background:new 0 0 400 400;" xml:space="preserve">
<path d="M200.1,0C122.8,0,60.2,62.6,60.2,139.8c0,45.2,21.5,85.4,54.8,111c41.3,35.4-4.5,78.3,22.4,79.8
	c27.8-0.1-11.3-63.1,19.6-57.7c13.6,4.4,28,6.8,43.1,6.8c5.2,0,10.4-0.3,15.4-0.8l0,0h0.1c1-0.1,2.1-0.2,3.1-0.4
	c41-3.5,3,68.2,30.7,70.4c32.2-0.3-18.9-56.5,31.3-94.7c35.8-25.4,59.1-67,59.1-114.2C339.9,62.6,277.3,0,200.1,0L200.1,0z
	 M132.5,168L132.5,168c-3.6-8.7-5.7-18.2-5.7-28.2c0-40.4,32.8-73.1,73.1-73.1c6.4,0,12.6,0.8,18.5,2.4c0.1,0,0.3,0.1,0.3,0.1
	c8.6,3.8,6.7,9-1.8,6.1c0,0-0.1,0-0.2-0.1c-5.3-1.4-11-2.2-16.7-2.2c-36.7,0-66.8,29.9-66.8,66.8c0,9.5,2,18.5,5.5,26.6l0,0
	C142.2,174.7,136.6,176.3,132.5,168L132.5,168z M224.9,131.6l11.7,6.6l-13.3,8.1C216.8,149.7,217.5,129.4,224.9,131.6L224.9,131.6z
	 M201.2,160.1l-26.6,16.3v-73.1l31.1,17.6C219.2,130.6,211.3,154.3,201.2,160.1z M200.1,212.9c-23.6,0-44.7-11.2-58.1-28.7l-0.1-0.1
	c-3.6-5.5,0.5-9.8,4.4-4.7l0.1,0.1c12.1,16.4,31.6,27,53.6,27c36.9,0,66.8-29.9,66.8-66.8c0-21.8-10.5-41.1-26.6-53.3
	c-0.1-0.1-0.2-0.2-0.2-0.2c-9.6-7.2-5-10.1,2.7-6c0,0,0.1,0.1,0.2,0.1c18.4,13.3,30.3,34.8,30.3,59.3
	C273.1,180.2,240.4,212.9,200.1,212.9z"/>
</svg>
