<?xml version="1.0" encoding="utf-8"?>
<!-- Generator: Adobe Illustrator 23.0.6, SVG Export Plug-In . SVG Version: 6.00 Build 0)  -->
<svg version="1.1" id="Layer_1" xmlns="http://www.w3.org/2000/svg" xmlns:xlink="http://www.w3.org/1999/xlink" x="0px" y="0px"
	 viewBox="0 0 400 400" style="enable-background:new 0 0 400 400;" xml:space="preserve">
<path d="M317.7,221.2c2.5-2.9,5.1-6.7,8.9-10.7c6.8-8,10.9-17.9,10.9-29.4V98.8c0-28.1-24.3-47.4-53.5-51c-20.8-2.6-63-4.4-84-4.4
	s-63.2,1.4-84,4.4c-30.2,4.3-53.5,23-53.5,51v82.3c0,28.1,24.3,47.1,53.5,51c20.9,2.8,62.9,4.5,84,4.5c8.9,0,21.6-0.3,34.8-0.8
	c2.4-0.1,5-0.3,9.1-0.3s5.4,0.2,8.4,2s4.4,3.8,2.3,7.9c-0.8,1.5-1.8,3-2,4.5c-0.2,1.6-0.3,3.1,0.7,4.9c1,1.8,3.4,4.1,7,4.6
	c3.6,0.5,9.8-2.6,10-8.6c0-1.7-0.3-4.4,0.5-6.1c0.8-1.7,3.8-4.3,7.5-3.6s5.3,5,5.1,9c-0.1,1.9-1,3.4-2,5.7c-1,2.3-2.2,7.1-2.1,9.7
	c0.1,2.5,0.7,5.5,1.2,6.4s1.6,2.5,3.9,4.3c2.3,1.8,7.5,1.7,10.5,0.1c5.1-2.9,8.3-9.8,7.2-15.7c-1.1-6-2.3-6.8-2.4-9.9
	c-0.1-3.1,0.5-5.8,2.3-9.2s4.5-7.6,7.7-11.3C312.8,226.8,315.2,224.1,317.7,221.2z M245.5,143.7c-22.3,13-44.5,26-66.8,39
	c-0.4,0.3-0.9,0.5-1.3,0.7c-1.7,0.9-2.5,0.5-2.5-1.5c0-13.3,0-26.5,0-39.8c0-13.2,0-26.3,0-39.5c0-1.9,0.8-2.4,2.5-1.5
	c5.1,3,10.2,5.9,15.2,9.1c4.3,2.8,6,7.2,6.4,12.3c0.3,3.7-0.7,6.9-2.8,9.9c-1.5,2-1.3,4.6,0.2,6.7c1.3,1.8,4.7,3.1,6.7,2.4
	c1.2-0.4,2.5-1,3.6-1.8c1.5-1.1,1.9-2.7,1.2-4.6c-0.6-1.4-1.2-2.9-1.4-4.4c-0.5-4.4,2.6-6.4,6.9-5.8c8.9,1.2,15.5,6.9,23.1,10.9
	c3.1,1.6,6.1,3.4,9.1,5.2c0.4,0.3,0.8,0.9,0.9,1.4C246.4,142.8,245.9,143.4,245.5,143.7z"/>
</svg>
