<?xml version="1.0" encoding="utf-8"?>
<!-- Generator: Adobe Illustrator 21.1.0, SVG Export Plug-In . SVG Version: 6.00 Build 0)  -->
<!DOCTYPE svg PUBLIC "-//W3C//DTD SVG 1.1//EN" "http://www.w3.org/Graphics/SVG/1.1/DTD/svg11.dtd">
<svg version="1.1" id="Layer_1" xmlns="http://www.w3.org/2000/svg" xmlns:xlink="http://www.w3.org/1999/xlink" x="0px" y="0px"
	 viewBox="0 0 400 400" enable-background="new 0 0 400 400" xml:space="preserve">
<g>
	<path d="M370,25.1c-0.5,11.3-0.5,35.9-0.6,52.5c-0.1,31.8,1.3,63.6,1,95.4c-0.4,40.4-2.7,80.8-2.6,121.1c0,22-2.3,44.7,8.3,65.7
		c3.7,7.2,3.5,15.5-3.8,21.1c-6.2,4.8-13.4,5.1-20.2,0.9c-7.8-4.8-11.4-12-10.2-21.1c0.4-3.1,1.5-6.1,2.4-9.1
		c4.8-16.5-2.1-30.6-17.6-37.5c-43.1-19.4-86.3-38.6-129.1-58.8c-27.2-12.8-53.6-27.2-80.4-40.9c-6.8-3.5-14-5.7-19.8,0.8
		c-5.6,6.2-7.8,13.6-4.3,22.2c6.2,15.2,3.8,30.1-5.3,37c-9.8,7.6-19.2,5.3-24.4-6.4c-6.5-14.6-3-28.2,5.7-40.5
		c5.4-7.6,5.2-12.3,2.5-18.8c-2.8-6.4-5-6.8-6.9-6.1c-1.9,0.7-2.6,2.4-3,5.6s-3.5,13.1-7.4,16.2c-3.9,3.1-11.8,4.3-14.6,2
		c-4.2-3.5-7.5-11.8-6.4-17.1c2.6-12.4,3.9-23.8-3.8-33.3c-1.6-1.9-2.2-2.8-5.9-5.5s-0.3-4.3,2.1-5.4S130.6,116,183.3,92.2
		c48.8-22,98-43.2,147.1-64.5c9.2-4,16.1-8,25.5-11.5C368.9,11.5,370.5,13.8,370,25.1z"/>
</g>
</svg>
