<?xml version="1.0" encoding="UTF-8" standalone="no"?>
<svg
   xmlns:dc="http://purl.org/dc/elements/1.1/"
   xmlns:cc="http://creativecommons.org/ns#"
   xmlns:rdf="http://www.w3.org/1999/02/22-rdf-syntax-ns#"
   xmlns:svg="http://www.w3.org/2000/svg"
   xmlns="http://www.w3.org/2000/svg"
   viewBox="0 0 533.33331 533.33331"
   height="533.33331"
   width="533.33331"
   xml:space="preserve"
   id="svg2"
   version="1.1"><metadata
     id="metadata8"><rdf:RDF><cc:Work
         rdf:about=""><dc:format>image/svg+xml</dc:format><dc:type
           rdf:resource="http://purl.org/dc/dcmitype/StillImage" /></cc:Work></rdf:RDF></metadata><defs
     id="defs6"><clipPath
       id="clipPath18"
       clipPathUnits="userSpaceOnUse"><path
         id="path16"
         d="M 0,400 H 400 V 0 H 0 Z" /></clipPath></defs><g
     transform="matrix(1.3333333,0,0,-1.3333333,0,533.33333)"
     id="g10"><g
       id="g12"><g
         clip-path="url(#clipPath18)"
         id="g14"><g
           transform="translate(333.9863,157.4199)"
           id="g20"><path
             id="path22"
             style="fill:#000000;fill-opacity:1;fill-rule:nonzero;stroke:none"
             d="m 0,0 c -11.526,-0.132 -14.96,0.983 -24.412,4.351 -9.452,3.366 -15.417,10.75 -19.298,19.41 -3.755,8.377 -6.204,17.35 -9.031,26.125 -1.417,4.397 -1.907,5.85 -3.954,13.395 -2.047,7.545 -4.622,10.346 -11.718,11.716 -15.171,2.926 -29.133,-3.935 -34.595,-18.261 -1.706,-4.473 -2.495,-9.29 -3.835,-13.911 -1.448,-4.997 -2.37,-10.302 -4.726,-14.846 -4.893,-9.436 -16.203,-9.534 -20.84,0.047 -3.005,6.208 -3.973,13.392 -5.976,20.102 -0.767,2.57 -1.313,6.689 -2.824,7.554 -1.511,0.865 -4.015,-1.531 -5.499,-2.553 -1.483,-1.023 -2.891,-2.047 -3.709,-2.629 -9.408,-6.683 -16.796,-4.847 -21.642,5.728 -1.837,4.011 -3.269,8.238 -5.415,12.07 -2.492,4.453 -6.24,6.517 -11.641,4.723 -5.527,-1.835 -11.165,-3.374 -16.821,-4.776 -4.511,-1.118 -6.38,-3.766 -7.258,-8.339 -2.722,-14.18 -5.314,-28.444 -9.2,-42.327 -4.117,-14.708 -14.491,-22.942 -29.527,-27.008 -12.18,-3.292 -20.743,-11.918 -23.671,-25.011 -1.579,-7.062 -3.147,-14.152 -5.287,-21.053 -1.875,-6.05 -5.05,-11.445 -11.377,-14.081 -6.567,-2.737 -13.745,-0.5 -16.024,6.18 -1.755,5.143 -2.841,11.123 -2.057,16.41 2.566,17.295 0.914,33.361 -5.296,50.138 -4.574,12.356 -3.815,26.825 -4.584,40.399 -0.508,8.958 -0.606,18.21 1.067,26.957 2.442,12.764 8.463,23.957 18.834,32.651 15.887,13.318 33.625,23.722 52.719,31.092 14.871,5.741 30.921,8.402 46.403,12.593 18.252,4.942 36.971,6.761 55.71,8.051 13.969,0.961 18.193,1.455 41.916,0.336 23.723,-1.119 80.017,-8.15 117.382,-24.579 5.055,-2.222 9.221,-3.662 15.194,-6.591 5.972,-2.928 7.603,-6.796 9.76,-12.018 C 47.104,91.866 49.983,70.542 52.026,49.162 52.97,39.288 52.86,28.731 50.316,19.268 47.674,9.435 39.251,3.234 28.592,1.975 20.432,1.011 11.526,0.132 0,0" /></g></g></g></g></svg>