<?xml version="1.0" encoding="utf-8"?>
<!-- Generator: Adobe Illustrator 23.0.1, SVG Export Plug-In . SVG Version: 6.00 Build 0)  -->
<svg version="1.1"
	 id="svg4" xmlns:cc="http://creativecommons.org/ns#" xmlns:dc="http://purl.org/dc/elements/1.1/" xmlns:inkscape="http://www.inkscape.org/namespaces/inkscape" xmlns:rdf="http://www.w3.org/1999/02/22-rdf-syntax-ns#" xmlns:sodipodi="http://sodipodi.sourceforge.net/DTD/sodipodi-0.dtd" xmlns:svg="http://www.w3.org/2000/svg"
	 xmlns="http://www.w3.org/2000/svg" xmlns:xlink="http://www.w3.org/1999/xlink" x="0px" y="0px" viewBox="0 0 400 400"
	 style="enable-background:new 0 0 400 400;" xml:space="preserve">
<sodipodi:namedview  bordercolor="#666666" borderopacity="1" gridtolerance="10" guidetolerance="10" id="namedview6" inkscape:current-layer="svg4" inkscape:cx="-27.512885" inkscape:cy="79.56902" inkscape:pageopacity="0" inkscape:pageshadow="2" inkscape:window-height="705" inkscape:window-maximized="1" inkscape:window-width="1366" inkscape:window-x="-8" inkscape:window-y="245" inkscape:zoom="1.84375" objecttolerance="10" pagecolor="#ffffff" showgrid="false">
	</sodipodi:namedview>
<g>
	<path d="M101.6,95.4c1.4-2.4,2-5.1,2-6.8c0-2.9-0.6-4.5-3-7.9c-2.4-3.5-3.9-5.1-7.2-6.1c-1.8-0.5-4-0.2-6.1,0.3
		c-2.4,0.6-3.6,3.2-2.5,5.4c12,25-5.8,53.6,9.3,56.4c1.2,0.2,2.5,0.3,3.7-0.1c8.1-2.7,0.1-19,1.1-32.8
		C99.1,100.8,100.1,98,101.6,95.4z"/>
	<path d="M381.4,311.5C381.5,311.5,381.4,311.5,381.4,311.5L381.4,311.5z"/>
	<path d="M394,389.6c-0.9-1.2-1.3-2.4-1.7-3.5c-0.8-2.3-2.1-4.4-3.8-6l-3.5-3.4c-1.4-1.4-2.8-2.9-4.1-4.5
		c-6.5-8.2-14.5-15.6-22.8-22c-0.7-0.5-1.3-1.1-1.9-1.8c-6.9-9,5.9-26.6,22.6-35.7c1.3-0.7,1.8-2.4,0.9-3.7
		c-3.3-5-8.2-12.1-12.6-15.8c-13.5-11.5-28-23-43.2-32.6c-8.4-5.3-13.7-7.2-22.9-11.1c-3.7-1.5-12.9-4.5-14.9-7
		c-4.7-6-6.6-14.1-10.2-21c-7.6-14.6-14.6-30.7-21.3-46c-4.6-10.5-8.7-20.2-14.4-29.6c-27.4-45.1-57-72.3-102.7-99.1
		c-8.5-5-18.7-7.3-29.5-9.8c-3.2-0.7-6.4-1.2-9.6-1.5c-3-0.2-6-0.4-9-0.6c-4.8-0.3-9.3-2.1-12.9-5.3c-1.8-1.6-3.5-3.1-5.2-4.2
		c-15.2-9.6-54-30.4-65.3-3c-7.1,17.3,10.6,34.1,16.9,42.9c4.4,6.1,9,13.3,12.2,20.2c2.1,4.5,3.5,8.8,5.3,13.6
		c4.4,11.8,8.2,24.7,13.9,35.7c2.9,5.5,6,11.4,9.7,16.3c0.6,0.8,1.3,1.5,2,2.1c2.3,2.1,3.7,6.4,3.2,9.4c-1,6-2.8,11.8-4.6,17.4
		C55.5,210,59,247,72.8,269c1.6,2.5,3.9,6.1,6.9,9.3c2.9,3,5.3,6.5,6.8,10.3c11.1,28-14.1,70.8,10.1,74c21.8-0.5-0.8-49.4,10.4-82.3
		c0.6-1.8,1.1-3.6,1.5-5.4c1.3-5.9,3.1-16.6,4.5-22.3c0.6-2.4,1-4.6,2.3-6.8c0.4-0.8,1.5-0.7,1.9,0.1c2.4,5.6,5,11.5,7.7,17.2
		c1.3,2.7,2.8,5.3,4.5,7.7c8.1,11.6,19.8,23.2,30.6,31.4c5.9,4.4,11.4,11.7,17.2,14.9c0.3,0.2,0.7-0.2,0.5-0.5c-2-3.1-6.2-7.1-8-8.9
		c-4.7-4.6-6.7-6.2-10.6-11.5c-11-15-20.7-31.4-29.6-48.4c-4.2-8.1-7.9-17.1-11.5-25.4c-0.7-1.7-1.1-3.7-1.6-5.6
		c-0.6-2.2-3.5-2.7-4.9-0.9c-3.6,4.7-8,9.1-10.4,14.9c-4.8,11.4-5.2,23.2-7,37.7c-0.1,0.9-0.3,3.3-2.1,2.5
		c-8.3-3-10.7-10.4-13.8-17.8c-7.9-18.8-9.4-49.1-2.4-70.7c1.8-5.6,9.9-21.5,6.6-28.4s-6.8-8.1-9.7-12.1c-3.6-4.9-7.2-11.3-9.7-16.9
		c-6.5-14.7-9.5-31.1-16.3-45.9c-3.3-7.1-8.8-14.3-13.3-20.5c-5-7-10.6-12.1-14.5-20.6c-1.4-3-3.3-7.8-1.2-10.9
		c1.2-1.5,2-2.4,3.6-3.6c3.5-2.7,13.3,0.9,16.9,2.4c9.7,4,17.8,7.7,26,13.2c3.2,2.1,6.5,4.8,10.2,7.4c1.6,1.1,3.4,1.6,5.3,1.6h2.6
		c8.5,0,18,0.7,26,3.1c14,4.3,26.6,11,38.1,18.2c34.8,22,62.2,53.4,81.7,90.8c3.1,6,5.6,11.7,8.4,18c5.6,12.9,12.6,26.1,18.1,38.7
		s10.9,25.2,18.7,35.7c4.1,5.5,19.4,9.3,27.2,11.5c5.3,1.5,13.3,4.4,18.1,7.2c1.2,0.7,2.5,1.5,3.7,2.3c2.2,1.4,4.3,3,6.2,4.8
		c16.1,15.4-4.6,24.3-24.2,36c-0.4,0.2-0.8,0.4-1.2,0.7c0,0,0,0,0,0l0,0l0,0c-1.2,0.9-1.7,2.5-1.2,4c0.9,2.7,1.9,5.4,3.4,7.9
		c3.3,5.4,8.9,12.6,13.9,16.3c5.5,4.1,11.1,8.5,16.9,12.1c10.4,6.3,22,10,32,16.3c5.9,3.7,12.3,8.5,18,12.7c2.3,1.7,3.3,4.6,7.1,6.1
		C393.8,391,394.4,390.2,394,389.6z M356,297.1c0.9,0.2,1.7,0.6,2.4,1.2c2.1,1.7,3.9,3.5,4.6,5.2c0.3,0.6-0.2,1.3-0.9,1.2
		c-3.4-0.1-6.7-0.1-9.8,0c-1.7,0-3.5-0.2-5.1-0.7C333.2,299.5,347.7,295.1,356,297.1z M341.7,336.5c-2.5,0.6-5.2,0-7.4-1.5
		c-4-2.8-7.8-6.3-9.7-9.7c-0.5-0.9,0-2,1-2.2c5.4-0.9,11.4-2.7,16.2-3.9c2.1-0.6,4.2-1,6.2-1.3c0.8-0.1,1.7-0.2,2.5-0.1
		C361,318.8,351.7,334.1,341.7,336.5z"/>
</g>
</svg>
