<?xml version="1.0" encoding="utf-8"?>
<!-- Generator: Adobe Illustrator 23.0.6, SVG Export Plug-In . SVG Version: 6.00 Build 0)  -->
<svg version="1.1" id="Layer_1" xmlns="http://www.w3.org/2000/svg" xmlns:xlink="http://www.w3.org/1999/xlink" x="0px" y="0px"
	 viewBox="0 0 400 400" style="enable-background:new 0 0 400 400;" xml:space="preserve">
<path d="M229.8,20.2c6.1-1.4,15.2-4,25.5-6.2c5.5-1.2,9.1-2,15.1-3.1s16.7-2.5,24.2-3.8c5.2-0.9,10.5-1.7,15.7-2
	c7.9-0.3,15.8-0.1,23.7-0.2c2.3,0,3.4,0.7,3.2,3.2c-0.3,3.1,0.1,6.6,0.2,9.3s0.1,1.4,0.1,6.6s-1,13.1-2.2,19.6
	c-0.9,5.2-2.7,10.3-3.6,15.5c-0.8,4.5-0.8,9.2-1.6,13.7c-1.4,7.5-3.3,14.8-5,22.3c-1.7,7.4-3.3,14.8-4.9,22.2
	c-0.1,0.6-0.2,1.3-0.3,1.7c-2,5.6-3.7,9.2-5.7,13.6c-0.9,2.1-1.7,4.3-2.7,6.4c-0.9,2-2.1,2-3.8,0.7c-7.6-5.9-15.3-11.6-23-17.5
	c-1.5-1.2-2.4-1-3.6,0.3c-7,7.7-14.2,15.2-21,23c-2,2.3-3.4,5.4-4.3,8.4c-1.1,3.5-0.4,6.9,2.1,10c4.6,5.6,5.4,12,2.3,18.6
	c-0.9,1.9-2.1,3.7-2.9,5.6c-1.2,2.7-3.3,3.4-5.9,3c-1.9-0.2-3.8-0.4-5.7-0.9c-5.7-1.6-7.6-7.4-7.4-13.3c0.2-4.2-0.6-4.9-4.7-4.2
	c-4.5,0.8-7.5,3.8-10.4,6.9c-3.4,3.7-6.6,7.5-10.1,11.1c-8.4,8.4-16.8,16.7-25.4,24.9c-1.8,1.7-4,2.9-6,4.4
	c-1.7,1.3-1.9,2.7-0.6,4.5c3.6,4.7,7.2,9.3,10.7,14c2.4,3.2,4.7,6.3,6.8,9.6c1.1,1.7-0.3,2.7-1.7,3.2c-5.2,1.8-8.9,3.4-13.2,4.8
	c-4.3,1.4-3.6,1.4-8.4,3c-4.9,1.6-21.9,5.4-33.3,7.9c-4.1,0.9-8.3,1.4-12.5,1.9c-8.3,0.9-15.4,3.5-20.3,11
	c-3.2,4.8-3.3,9.2-0.9,14.1c2.3,4.7,0,12.5-4.5,15.1c-6.8,3.8-14.6,2.2-19.6-3.2c-2.8-3-3.5-7-1.8-11.3c1.6-3.9,2.3-7.9,0.6-12.1
	c-2.2-5.3-7.1-6.4-11.8-6.8c-8.4-0.7-8.9-1.2-8.6-9.5c0.2-3.4-0.2-6.8,0.1-10.2c0.6-6.6,1.2-13.2,2.4-19.7c1-6,2.8-11.8,4.2-17.7
	c0.5-2.1,0.2-3.2-2.3-3.9c-4.6-1.3-7.9-4.3-8.6-9.4c-0.8-5.8-0.5-11,3.6-15.9c5.4-6.5,10.8-13.1,15-20.4c3.9-6.7,6.3-14.3,9.3-21.6
	c0.9-2.1,1.6-4.4,2.6-6.4c0.7-1.4,1.7-2.4,3.4-1c5.8,4.5,11.8,9,17.6,13.5c1.5,1.2,3.1,2.3,4.5,3.6c2.1,1.8,3.7,1.8,5.6-0.4
	c4.5-5.1,9.1-10.2,13.8-15.1c4.6-4.8,9.5-9.3,14.2-13.9c10.1-9.9,15.8-16.2,29.5-29.5s19.8-19,29.4-28.4c3.7-3.6,7.8-6.8,11.8-10.1
	c1.6-1.3,1.6-2.4,0.4-4.1c-4.8-6.3-9.4-12.7-14.1-19c-1.1-1.5-2.3-3-3.3-4.6c-1.1-1.7-0.1-2.7,1.5-3.3c5-1.7,10.1-3.2,15.1-5
	C218.4,23.8,223.7,21.6,229.8,20.2z"/>
</svg>
