<?xml version="1.0" encoding="utf-8"?>
<!-- Generator: Adobe Illustrator 21.1.0, SVG Export Plug-In . SVG Version: 6.00 Build 0)  -->
<!DOCTYPE svg PUBLIC "-//W3C//DTD SVG 1.1//EN" "http://www.w3.org/Graphics/SVG/1.1/DTD/svg11.dtd">
<svg version="1.1" id="Layer_1" xmlns="http://www.w3.org/2000/svg" xmlns:xlink="http://www.w3.org/1999/xlink" x="0px" y="0px"
	 viewBox="0 0 400 400" enable-background="new 0 0 400 400" xml:space="preserve">
<g>
	<path d="M235.8,29.2c7.5-1.7,18.8-4.9,31.6-7.6c6.8-1.5,11.3-2.4,18.7-3.8c7.4-1.4,20.6-3.1,30-4.8c6.4-1.2,13-2.1,19.5-2.4
		c9.8-0.4,19.6-0.1,29.4-0.2c2.8,0,4.2,0.8,3.9,4c-0.3,3.9,0.1,8.2,0.2,11.6c0.1,3.4,0.1,1.7,0.1,8.2s-1.3,16.2-2.7,24.3
		c-1.1,6.4-3.3,12.7-4.5,19.1c-1,5.6-0.9,11.4-2,16.9c-1.8,9.2-4.1,18.4-6.2,27.5c-2.1,9.2-4,18.4-6.1,27.5
		c-0.2,0.7-0.2,1.6-0.4,2.1c-2.5,6.9-4.6,11.3-7.1,16.9c-1.2,2.6-2.2,5.3-3.4,7.9c-1.1,2.5-2.6,2.5-4.8,0.8
		c-9.4-7.3-19-14.4-28.4-21.6c-1.9-1.4-3-1.2-4.5,0.4c-8.7,9.5-17.6,18.8-26,28.5c-2.5,2.9-4.1,6.7-5.3,10.4
		c-1.3,4.3-0.5,8.5,2.6,12.4c5.6,6.9,6.7,14.8,2.8,23.1c-1.1,2.4-2.6,4.6-3.6,7c-1.4,3.3-4,4.2-7.3,3.7c-2.4-0.3-4.8-0.5-7-1.2
		c-7.1-2-9.5-9.1-9.1-16.4c0.2-5.2-0.7-6.1-5.8-5.2c-5.6,1-9.3,4.7-12.8,8.6c-4.2,4.6-8.1,9.3-12.5,13.7
		c-10.4,10.4-20.8,20.7-31.4,30.8c-2.2,2.1-5,3.6-7.4,5.5c-2.1,1.6-2.4,3.4-0.7,5.5c4.4,5.8,8.9,11.5,13.2,17.3
		c2.9,3.9,5.8,7.9,8.5,11.9c1.4,2.2-0.3,3.4-2.1,4c-6.4,2.2-11,4.2-16.4,6s-4.4,1.8-10.4,3.7s-27.1,6.7-41.2,9.8
		c-5.1,1.1-10.3,1.8-15.5,2.3c-10.3,1.1-19,4.4-25.1,13.6c-3.9,5.9-4.1,11.4-1.1,17.5c2.9,5.8,0,15.5-5.6,18.7
		c-8.4,4.7-18.1,2.7-24.2-3.9c-3.5-3.7-4.4-8.7-2.2-14c1.9-4.8,2.9-9.8,0.7-14.9c-2.7-6.5-8.7-7.9-14.6-8.5
		c-10.4-0.9-11.1-1.4-10.6-11.8c0.2-4.2-0.3-8.5,0.1-12.7c0.7-8.2,1.5-16.4,2.9-24.4c1.3-7.4,3.4-14.6,5.2-21.9
		c0.7-2.6,0.2-3.9-2.8-4.8c-5.7-1.6-9.8-5.3-10.6-11.7c-0.9-7.1-0.6-13.6,4.5-19.7c6.7-8,13.4-16.3,18.6-25.3
		c4.8-8.3,7.7-17.7,11.5-26.7c1.1-2.6,2-5.4,3.2-7.9c0.8-1.7,2.1-2.9,4.2-1.2c7.2,5.6,14.5,11.1,21.8,16.7c1.9,1.5,3.8,2.9,5.6,4.5
		c2.5,2.2,4.6,2.2,7-0.5c5.6-6.4,11.2-12.7,17.1-18.7c5.7-5.9,11.8-11.5,17.6-17.2c12.5-12.3,19.6-20,36.5-36.5s24.5-23.5,36.4-35.1
		c4.6-4.5,9.7-8.4,14.6-12.5c1.9-1.6,2-3,0.4-5.1c-5.9-7.8-11.6-15.7-17.4-23.5c-1.4-1.9-2.9-3.8-4.1-5.8c-1.4-2.1-0.1-3.4,1.8-4
		c6.2-2.1,12.5-4,18.7-6.2C221.7,33.7,228.3,30.9,235.8,29.2z"/>
</g>
</svg>
