<?xml version="1.0" encoding="utf-8"?>
<!-- Generator: Adobe Illustrator 23.0.1, SVG Export Plug-In . SVG Version: 6.00 Build 0)  -->
<svg version="1.1"
	 id="svg6" xmlns:cc="http://creativecommons.org/ns#" xmlns:dc="http://purl.org/dc/elements/1.1/" xmlns:inkscape="http://www.inkscape.org/namespaces/inkscape" xmlns:rdf="http://www.w3.org/1999/02/22-rdf-syntax-ns#" xmlns:sodipodi="http://sodipodi.sourceforge.net/DTD/sodipodi-0.dtd" xmlns:svg="http://www.w3.org/2000/svg"
	 xmlns="http://www.w3.org/2000/svg" xmlns:xlink="http://www.w3.org/1999/xlink" x="0px" y="0px" viewBox="0 0 400 400"
	 style="enable-background:new 0 0 400 400;" xml:space="preserve">
<sodipodi:namedview  bordercolor="#666666" borderopacity="1" fit-margin-bottom="50" fit-margin-left="0" fit-margin-right="0" fit-margin-top="0" gridtolerance="10" guidetolerance="10" id="namedview8" inkscape:current-layer="svg6" inkscape:cx="13.100045" inkscape:cy="109.90775" inkscape:pageopacity="0" inkscape:pageshadow="2" inkscape:window-height="1017" inkscape:window-maximized="1" inkscape:window-width="1920" inkscape:window-x="1358" inkscape:window-y="-8" inkscape:zoom="5.2149125" objecttolerance="10" pagecolor="#ffffff" showgrid="false">
	</sodipodi:namedview>
<path d="M326.7,78.8c-1.4-2.6-2.8-5.4-5-6.6L207.4,6.4c-1.9-1.2-4.5-1.7-7.3-1.7c-2.8,0-5.4,0.7-7.3,1.7l-113.6,66
	c-4,2.4-6.9,8.3-6.9,12.8v131.8c0,2.6,0,5.7,1.7,8.3c1.2,1.9,2.8,3.6,4.5,4.5l91.6,53c8,4.7,14.2,12,17.2,20.8
	c13.5,39.2-18,88.1,13.5,91.5c1,0.1,2.1,0.1,3.1,0c21.2-3.4-10-57.2,13.7-99.3c3.3-5.9,8.3-10.7,14.1-14.2l89.1-51.8
	c4-2.4,6.9-8.3,6.9-12.8V85C327.6,82.8,327.6,81,326.7,78.8z M198.7,93.1c-30,0.7-54.8,24.7-56.5,54.7c-1.1,19.2,7.2,36.5,20.8,47.8
	c11.1,10.1,32.6,40.2-5,35.6c-5.5-0.7-10.8-2.9-15.1-6.3c-21.7-16.8-35.7-42.8-36.2-72.2c-0.9-52,41.5-95.1,93.5-95.1
	c31.7,0,59.7,15.9,76.6,40.1c2.7,3.8,1.5,9.1-2.5,11.4l-17.1,9.9c-3.5,2-7.9,1.1-10.3-2.2C235.9,102,218.3,92.6,198.7,93.1z
	 M276.4,204.9c-8,11.3-18.4,20.8-30.5,27.6c-33.6,13-40.2-12-12.4-34c5-3.5,9.5-7.9,13.1-12.8c2.4-3.3,6.9-4.2,10.4-2.2l17,10
	C278,195.9,279.1,201.1,276.4,204.9z M318.4,146.3h-3.4c-1.1,0-2,0.8-2.3,1.8l-1.1,4.8c-0.3,1.5,0.8,2.9,2.3,2.9h4.4
	c1.3,0,2.3,1.1,2.3,2.3v6.8c0,1.5-1.4,2.6-2.8,2.3c-7.7-1.8-13.5-9.1-15.7-19.1c-0.2-1.1-1.2-1.8-2.3-1.8h-5.2c-1.1,0-2,0.8-2.3,1.8
	l-1.3,5.8c-0.2,1.1,0.3,2.1,1.3,2.6c10.1,4.9,14.1,11.5,13.8,23c0,1.3-1.1,2.3-2.3,2.3h-6.5c-1.5,0-2.6-1.4-2.3-2.8l1.7-8.6
	c0.3-1.5-0.8-2.8-2.3-2.8h-4.2c-1.1,0-2.1,0.8-2.3,1.9l-2.1,10.4c-0.2,1.1-1.2,1.9-2.3,1.9H277c-1.5,0-2.6-1.4-2.3-2.8l1.7-8.6
	c0.3-1.5-0.8-2.8-2.3-2.8h-0.7c-1.3,0-2.3-1.1-2.3-2.3v-7.1c0-1.3,1.1-2.3,2.3-2.3h4.1c1.1,0,2-0.8,2.3-1.8l1.1-4.8
	c0.3-1.5-0.8-2.9-2.3-2.9h-5.1c-1.3,0-2.3-1.1-2.3-2.3v-7.1c0-1.3,1.1-2.3,2.3-2.3h8.3c1.1,0,2.1-0.8,2.3-1.9l2.1-10.4
	c0.2-1.1,1.2-1.9,2.3-1.9h6.8c1.5,0,2.6,1.4,2.3,2.8l-1.7,8.6c-0.3,1.5,0.8,2.8,2.3,2.8h4.2c1.1,0,2.1-0.8,2.3-1.9l2.1-10.4
	c0.2-1.1,1.2-1.9,2.3-1.9h6.6c1.5,0,2.6,1.4,2.3,2.8l-1.7,8.6c-0.3,1.5,0.8,2.8,2.3,2.8l0,0c1.3,0,2.3,1.1,2.3,2.3v7.1
	C320.8,145.3,319.7,146.3,318.4,146.3z"/>
</svg>
