<?xml version="1.0" encoding="utf-8"?>
<!-- Generator: Adobe Illustrator 23.0.6, SVG Export Plug-In . SVG Version: 6.00 Build 0)  -->
<svg version="1.1"
	 id="svg6" xmlns:cc="http://creativecommons.org/ns#" xmlns:dc="http://purl.org/dc/elements/1.1/" xmlns:inkscape="http://www.inkscape.org/namespaces/inkscape" xmlns:rdf="http://www.w3.org/1999/02/22-rdf-syntax-ns#" xmlns:sodipodi="http://sodipodi.sourceforge.net/DTD/sodipodi-0.dtd" xmlns:svg="http://www.w3.org/2000/svg"
	 xmlns="http://www.w3.org/2000/svg" xmlns:xlink="http://www.w3.org/1999/xlink" x="0px" y="0px" viewBox="0 0 400 400"
	 style="enable-background:new 0 0 400 400;" xml:space="preserve">
<path d="M321.8,76.2c-1.4-2.5-2.7-5.2-4.8-6.4L207.1,6.6c-1.8-1.1-4.3-1.6-7.1-1.6c-2.7,0-5.2,0.7-7.1,1.6L83.8,70.1
	c-3.9,2.3-6.6,8-6.6,12.3v126.7c0,2.5,0,5.5,1.6,8c1.1,1.8,2.7,3.4,4.3,4.3l88.1,51c7.7,4.5,13.7,11.5,16.6,20
	c13,37.7-17.3,84.7,13,87.9c1,0.1,2,0.1,3,0c20.3-3.3-9.7-55,13.1-95.4c3.2-5.7,8-10.3,13.6-13.6l85.7-49.8c3.9-2.3,6.6-8,6.6-12.3
	v-127C322.7,80,322.7,78.2,321.8,76.2z M198.7,89.9c-28.9,0.7-52.7,23.7-54.3,52.5c-1,18.4,7,35.1,20,46
	c10.7,9.7,31.3,38.6-4.8,34.2c-5.3-0.7-10.3-2.8-14.6-6c-20.8-16.1-34.3-41.2-34.8-69.4c-0.8-50,39.9-91.4,89.9-91.4
	c30.5,0,57.4,15.3,73.6,38.5c2.6,3.6,1.4,8.7-2.4,10.9l-16.5,9.5c-3.3,1.9-7.6,1-9.9-2.1C234.5,98.4,217.6,89.4,198.7,89.9z
	 M273.5,197.4c-7.7,10.9-17.7,20-29.4,26.5c-32.3,12.5-38.7-11.6-11.9-32.7c4.8-3.4,9.1-7.6,12.6-12.3c2.3-3.1,6.6-4.1,10-2.1
	l16.3,9.6C274.9,188.7,276,193.7,273.5,197.4z M313.9,141.1h-3.2c-1.1,0-2,0.7-2.2,1.8l-1,4.6c-0.3,1.4,0.8,2.8,2.2,2.8h4.3
	c1.2,0,2.3,1,2.3,2.3v6.5c0,1.4-1.3,2.5-2.7,2.2c-7.4-1.8-13-8.8-15.1-18.3c-0.2-1-1.1-1.7-2.2-1.7h-5c-1.1,0-2,0.7-2.2,1.8
	l-1.3,5.6c-0.2,1,0.3,2.1,1.2,2.5c9.7,4.7,13.6,11.1,13.3,22.1c0,1.2-1,2.2-2.3,2.2h-6.2c-1.4,0-2.5-1.3-2.2-2.7l1.7-8.3
	c0.3-1.4-0.8-2.7-2.2-2.7h-4c-1.1,0-2,0.8-2.2,1.8l-2,10c-0.2,1.1-1.1,1.8-2.2,1.8H274c-1.4,0-2.5-1.3-2.2-2.7l1.7-8.3
	c0.3-1.4-0.8-2.7-2.2-2.7h-0.7c-1.2,0-2.3-1-2.3-2.3v-6.9c0-1.2,1-2.3,2.3-2.3h3.9c1.1,0,2-0.7,2.2-1.8l1-4.6
	c0.3-1.4-0.8-2.8-2.2-2.8h-4.9c-1.2,0-2.3-1-2.3-2.3v-6.9c0-1.2,1-2.3,2.3-2.3h8c1.1,0,2-0.8,2.2-1.8l2-10c0.2-1.1,1.1-1.8,2.2-1.8
	h6.5c1.4,0,2.5,1.3,2.2,2.7l-1.7,8.3c-0.3,1.4,0.8,2.7,2.2,2.7h4c1.1,0,2-0.8,2.2-1.8l2-10c0.2-1.1,1.1-1.8,2.2-1.8h6.3
	c1.4,0,2.5,1.3,2.2,2.7l-1.7,8.3c-0.3,1.4,0.8,2.7,2.2,2.7l0,0c1.2,0,2.3,1,2.3,2.3v6.9C316.1,140,315.1,141.1,313.9,141.1z"/>
</svg>
