<?xml version="1.0" encoding="utf-8"?>
<!-- Generator: Adobe Illustrator 23.0.1, SVG Export Plug-In . SVG Version: 6.00 Build 0)  -->
<svg version="1.1"
	 id="svg6" inkscape:version="0.92.1 r15371" sodipodi:docname="inkscape.svg" xmlns:cc="http://creativecommons.org/ns#" xmlns:dc="http://purl.org/dc/elements/1.1/" xmlns:inkscape="http://www.inkscape.org/namespaces/inkscape" xmlns:rdf="http://www.w3.org/1999/02/22-rdf-syntax-ns#" xmlns:sodipodi="http://sodipodi.sourceforge.net/DTD/sodipodi-0.dtd" xmlns:svg="http://www.w3.org/2000/svg"
	 xmlns="http://www.w3.org/2000/svg" xmlns:xlink="http://www.w3.org/1999/xlink" x="0px" y="0px" viewBox="0 0 400 400"
	 style="enable-background:new 0 0 400 400;" xml:space="preserve">
<path d="M392.6,233.6c-1.3-1.5-3-3.2-4.9-4.9c-6.2-5.5-15-7.2-22.9-4.4c-2.8,1-5.6,2.2-8.3,3.5c-1.7,0.8-3,1.3-0.9-0.1
	c2.2-1.4,1.8-1.1,4.4-3c17.4-11.9,23.2-27.2,0.4-49.9l-142-145.3c-17.3-16.7-46.2-16.7-62.6,0L18.8,169.6
	C2.5,190,1.6,202.3,8.9,210.4c4.6,5.2,8.4,11.2,10.4,17.8c9.6,32.6-12.4,60.5,3.7,62.2c23.6-2.1-13.3-62.8,14.5-65.6
	c2.1-0.2,4.1,0,6.2,0.5c13.7,3.3,28.3,6.1,38.9,11c1,0.5,1.9,1.3,2.4,2.3c5,11.3-46.6,20.1-35,31.6c9.1,9.3,46.9,18.1,69.3,27.4
	c2.9,1.2,4.5,4.4,3.6,7.4c-0.8,2.8-2.2,5-4.1,6.6c-1.5,0.9-3,1.5-5,1.8c-1.9,0.3-3.8,0.2-5.6-0.1c-16.7-2.8-40.8,10-25.6,23.2
	c8.1,6.9,19.1,3.4,27.2-4l0,0.2c0.1-0.1,0.2-0.3,0.3-0.5c2.3-2.1,4.3-4.5,6-7.1c2-3.1,4.4-5.8,7.3-8c1.3-1,2.5-1.7,3.5-2.2
	c2-0.9,4,1,3.4,3.1c-1.3,3.9-4.1,12.2-6.1,18.3c-1.7,5,1,10.5,6,12.1c13.3,4.3,32.1,1.2,36.3,24c3.6,20.1,49.9,8.5,72.4-7.9
	c11.9-12.2-21.8-10.1-10.9-23.4c15.7-19.2,29.2-19.8,49.1-22.8c9-1.8,28-2.5,24.7,3l0,0c-4.2,11,9.8,19.5,22.3,11.9
	c2.4-2.7,1.3-9.9-6.1-14.9c-5.1-3.4-4-11.2,1.9-12.8c0.3-0.1,0.7-0.2,1.1-0.2c1.8-0.3,3.6-0.3,5.3,0c10,1.7,23.3,1.9,31.3-0.7
	c5.1-1.6,7.1-7.7,3.9-12c-9.7-12.9-33.5-12.8-43.9-0.7l0,0c-3,3.5-9,3.7-14.4,2.7c-4.8-0.9-9.2-3.1-13-6.1
	c-10.6-8.3-32-14.6-28.1-22.8c0.6-1.2,1.5-2,2.7-2.6c10-5.4,26.1-10.3,43-15.8c9.5-3.1,19.5-3.9,29.3-2.6
	c10.9,1.5,21.3,3.6,33.9,3.7c6.3-0.5,15.5-3.5,20.7-6.7C394.2,240.1,394.8,236.1,392.6,233.6z M115.2,121
	c-12.2,0-13.4-16.1-2.4-27.1c8.9-9.6,18.4-19.4,27.3-28.3c1.4-1.4,2.9-2.7,4.6-3.7c20.8-12.9,10.2,36.7,1.4,56.4
	c-0.7,1.7-2.4,2.7-4.2,2.7L115.2,121z M195.7,265.7c-3.1,2.9-7.3,4.3-11.5,3.9c-21.3-1.9-73.4-23.6-62.7-25.1c0.8-0.1,1.5,0,2.2,0.3
	c7.9,2.8,58.8,13.1,71.8,15.5C198.7,260.8,198.3,263.2,195.7,265.7z M231,116c-2.3,2-5.6,2.2-8.3,0.8l-8.9-4.7c-1-0.5-2.1-0.5-3,0.1
	l-33,21c-0.7,0.4-1.6,0.1-1.8-0.7l-4.6-18.3c-1.1-4.4-2.2-8.8-3-13.2c-4.3-21.5-18.3-48.8,9.1-66.5c4.6-3,10.2-4.3,15.7-3.5
	c6.4,0.9,12.8,4,17.5,8.7c10.8,11,18.9,24.4,23.1,39.2C238.2,95.4,237.5,110.4,231,116z M267.7,111.1c-0.4,0.9-1.7,1.2-2.5,0.5
	c-5.8-6-22.6-33.5-13.9-29.8c0.8,0.3,1.5,0.9,2.2,1.5l11,11.2C268.9,99,269.6,107,267.7,111.1z"/>
</svg>
