<?xml version="1.0" encoding="UTF-8" standalone="no"?>
<svg
   xmlns:dc="http://purl.org/dc/elements/1.1/"
   xmlns:cc="http://creativecommons.org/ns#"
   xmlns:rdf="http://www.w3.org/1999/02/22-rdf-syntax-ns#"
   xmlns:svg="http://www.w3.org/2000/svg"
   xmlns="http://www.w3.org/2000/svg"
   viewBox="0 0 533.33331 533.33331"
   height="533.33331"
   width="533.33331"
   xml:space="preserve"
   id="svg2"
   version="1.1"><metadata
     id="metadata8"><rdf:RDF><cc:Work
         rdf:about=""><dc:format>image/svg+xml</dc:format><dc:type
           rdf:resource="http://purl.org/dc/dcmitype/StillImage" /></cc:Work></rdf:RDF></metadata><defs
     id="defs6"><clipPath
       id="clipPath18"
       clipPathUnits="userSpaceOnUse"><path
         id="path16"
         d="M 0,400 H 400 V 0 H 0 Z" /></clipPath></defs><g
     transform="matrix(1.3333333,0,0,-1.3333333,0,533.33333)"
     id="g10"><g
       id="g12"><g
         clip-path="url(#clipPath18)"
         id="g14"><g
           transform="translate(57.1382,145.998)"
           id="g20"><path
             id="path22"
             style="fill:#000000;fill-opacity:1;fill-rule:nonzero;stroke:none"
             d="m 0,0 c 12.665,0.001 25.336,0.225 37.994,-0.083 7.569,-0.185 12.111,4.336 15.688,9.659 8.481,12.623 12.493,27.264 17.422,41.448 2.656,7.644 3.308,15.706 2.017,23.577 -0.753,4.584 -3.359,8.929 -5.479,13.209 -3.449,6.961 -7.247,13.749 -10.778,20.671 -3.483,6.828 -8.294,12.291 -15.429,15.378 -1.514,0.655 -3.275,0.981 -4.932,1.016 -6.133,0.132 -12.316,0.555 -18.396,-0.019 -8.884,-0.838 -14.182,-6.869 -17.228,-14.619 -2.03,-5.164 -2.903,-10.785 -4.267,-16.209 -1.522,-6.054 -5.404,-10.063 -9.631,-9.896 -4.121,0.163 -8.09,4.656 -8.917,10.566 -0.576,4.121 -0.748,8.301 -1.024,12.46 -0.182,2.734 -0.08,5.493 -0.364,8.214 -0.792,7.574 -3.132,9.5 -10.627,9.694 -3.597,0.093 -7.225,0.572 -10.756,1.286 -3.682,0.745 -5.301,3.19 -5.195,7.116 0.198,7.306 0.443,14.649 -0.056,21.927 -0.487,7.113 4.456,11.513 9.818,13.422 2.999,1.068 6.333,1.468 9.542,1.611 5.603,0.249 11.226,0.002 16.84,0.078 22.817,0.308 45.64,1.135 68.446,0.804 12.141,-0.177 24.548,-2.334 33.237,-11.993 5.034,-5.596 8.077,-12.934 12.577,-19.077 4.363,-5.955 1.76,-10.694 -1.224,-15.903 -2.641,-4.608 -4.809,-9.496 -7.051,-14.322 -2.18,-4.692 -1.538,-9.452 0.294,-14.057 0.469,-1.181 1.115,-3.274 2.68,-3.037 1.564,0.237 2.58,1.939 3.25,3.231 3.179,6.132 6.189,12.354 9.16,18.591 2.261,4.745 4.284,9.603 6.579,14.331 2.081,4.286 4.358,8.48 6.606,12.683 1.27,2.375 2.863,4.595 3.953,7.044 4.077,9.171 11.717,14.458 20.276,18.654 2.24,1.097 4.893,1.47 7.405,1.868 4.209,0.667 8.453,1.496 12.691,1.538 17.494,0.171 34.992,0.076 52.488,0.062 1.297,-0.002 2.655,0.077 3.881,-0.259 3.794,-1.042 4.639,-0.49 4.657,3.662 0.041,9.662 -0.132,19.327 0.063,28.986 0.157,7.77 5.256,11.962 13.637,8.445 11.895,-4.992 22.255,-12.433 33.007,-19.304 13.108,-8.377 26.47,-16.359 39.577,-24.738 7.512,-4.802 14.972,-9.763 21.901,-15.341 1.465,-1.18 1.727,-6.346 0.422,-7.953 -2.634,-3.242 -6.628,-5.449 -10.233,-7.822 -9.904,-6.52 -19.57,-13.501 -29.939,-19.189 -12.683,-6.958 -19.095,-18.116 -23.227,-31.041 -2.373,-7.423 -3.61,-15.203 -5.811,-22.691 -0.926,-3.157 -2.546,-6.378 -4.676,-8.861 -4.601,-5.362 -12.208,-4.063 -14.924,2.462 -1.116,2.682 -1.521,5.787 -1.649,8.725 -0.227,5.209 0.136,10.442 -0.014,15.657 -0.079,2.74 -0.861,4.327 -4.434,2.706 -9.926,-4.504 -13.701,2.356 -13.688,9.6 0.014,8.096 0.019,16.191 -0.031,24.286 -0.004,0.818 0.508,2.043 -0.635,2.449 -1.145,0.407 -1.481,-1.053 -1.892,-1.769 -2.399,-4.179 -4.763,-8.38 -7.014,-12.64 -3.28,-6.207 -8.742,-10.121 -15.764,-4.232 -2.052,1.72 -3.606,1.185 -4.529,-1.155 -1.288,-3.263 -2.154,-6.721 -3.706,-9.846 -1.525,-3.07 -3.153,-6.447 -5.672,-8.587 -4.778,-4.058 -10.145,-2.933 -12.437,2.836 -2.181,5.485 -2.905,11.541 -4.396,17.313 -0.778,3.011 -1.702,5.999 -2.791,8.911 -0.882,2.357 -2.331,1.624 -3.466,0.156 -1.094,-1.414 -2.149,-2.899 -2.955,-4.487 -5.207,-10.265 -10.549,-20.47 -15.434,-30.888 -3.912,-8.346 -4.083,-17.174 -1.089,-25.847 0.927,-2.684 3.375,-4.802 4.713,-7.393 3.934,-7.615 7.525,-15.407 11.505,-22.997 3.83,-7.306 7.95,-14.581 16.067,-17.96 3.15,-1.311 6.709,-2.176 10.107,-2.257 11.483,-0.274 22.978,-0.031 34.467,-0.153 3.258,-0.034 4.347,1.19 4.28,4.4 -0.17,8.093 -0.144,16.192 -0.026,24.286 0.037,2.441 0.386,4.942 1.021,7.3 1.754,6.523 6.023,8.941 12.148,6.047 7.966,-3.762 15.681,-8.113 23.268,-12.608 9.062,-5.37 17.922,-11.091 26.785,-16.789 9.734,-6.26 19.402,-12.622 29.042,-19.027 5.703,-3.79 11.319,-7.712 16.921,-11.65 1.771,-1.245 1.241,-8.29 -0.575,-9.579 -6.153,-4.364 -12.661,-8.32 -18.337,-13.237 -7.34,-6.36 -11.526,-14.766 -12.216,-24.588 -0.319,-4.549 0.043,-9.144 -0.186,-13.702 -0.129,-2.572 -0.26,-5.426 -1.437,-7.582 -1.185,-2.17 -3.541,-4.851 -5.614,-5.064 -2.066,-0.212 -5.161,1.871 -6.461,3.837 -1.8,2.722 -2.321,6.281 -3.43,9.469 -1.321,3.799 -2.607,7.613 -4.053,11.365 -1.28,3.324 -3.339,3.3 -6.133,1.477 -8.063,-5.263 -16.169,-10.468 -24.408,-15.449 -3.99,-2.411 -8.211,-4.521 -12.514,-6.32 -7.462,-3.118 -13.633,1.078 -13.811,9.406 -0.194,9.136 -0.216,18.283 0.033,27.417 0.106,3.889 -1.306,4.982 -4.997,4.877 -7.698,-0.218 -15.411,-0.245 -23.107,0.003 -3.852,0.125 -5.831,-1.047 -6.274,-5.039 -0.688,-6.214 -1.629,-12.401 -2.584,-18.582 -0.814,-5.278 -2.562,-10.137 -7.156,-13.413 -7.971,-5.685 -18.107,-1.622 -19.759,8.025 -0.545,3.19 -0.572,6.477 -0.705,9.725 -0.121,2.997 0.1,6.013 -0.118,9 -0.849,11.644 0.443,9.654 -10.589,12.128 -12.87,2.887 -21.562,10.323 -27.453,21.663 -1.499,2.887 -2.748,5.916 -4.405,8.706 -1.522,2.562 -1.134,4.62 0.069,7.275 4.119,9.092 8.392,18.19 11.432,27.662 1.218,3.791 -0.497,8.582 -1.161,12.873 -0.132,0.852 -0.915,2.254 -2.385,2.249 -1.471,-0.007 -1.681,-1.612 -2.181,-2.591 C 121.496,28.522 118.978,23.309 116.41,18.12 112.886,11 109.376,3.873 105.816,-3.229 c -2.563,-5.11 -5.138,-10.215 -7.822,-15.262 -1.963,-3.693 -4.074,-7.308 -6.187,-10.917 -3.141,-5.363 -8.068,-8.779 -13.494,-11.285 -10.4,-4.803 -21.545,-5.608 -32.835,-5.365 -5.473,0.118 -5.664,0.032 -6.287,-5.41 -0.474,-4.136 -0.102,-8.375 -0.64,-12.499 -0.447,-3.426 -1.127,-7.028 -2.671,-10.06 -2.987,-5.865 -9.532,-6.983 -14.483,-2.676 -2.329,2.025 -3.954,4.839 -6.149,7.045 -1.36,1.366 -2.938,3.804 -4.812,3.369 -1.873,-0.436 -2.412,-3.726 -2.655,-5.707 -0.491,-3.995 -0.235,-8.077 -0.419,-12.116 -0.166,-3.636 -0.223,-7.311 -0.827,-10.884 -1.534,-9.078 -9.199,-12.557 -17.306,-8.048 -8.455,4.702 -13.184,15.905 -11.919,27.093 0.714,6.316 1.272,12.747 0.881,19.063 -0.41,6.632 -4.067,9.66 -10.454,11.044 -3.491,0.756 -7.227,1.473 -10.202,3.28 -4.651,2.824 -7.993,6.711 -7.498,13.066 0.516,6.619 0.114,13.31 0.115,19.968 0.002,6.146 3.258,9.488 9.501,9.512 C -26.898,0.035 -13.449,-0.001 0,0" /></g></g></g></g></svg>