<?xml version="1.0" encoding="UTF-8" standalone="no"?>
<svg
   xmlns:dc="http://purl.org/dc/elements/1.1/"
   xmlns:cc="http://creativecommons.org/ns#"
   xmlns:rdf="http://www.w3.org/1999/02/22-rdf-syntax-ns#"
   xmlns:svg="http://www.w3.org/2000/svg"
   xmlns="http://www.w3.org/2000/svg"
   viewBox="0 0 533.33331 533.33331"
   height="533.33331"
   width="533.33331"
   xml:space="preserve"
   id="svg2"
   version="1.1"><metadata
     id="metadata8"><rdf:RDF><cc:Work
         rdf:about=""><dc:format>image/svg+xml</dc:format><dc:type
           rdf:resource="http://purl.org/dc/dcmitype/StillImage" /></cc:Work></rdf:RDF></metadata><defs
     id="defs6"><clipPath
       id="clipPath18"
       clipPathUnits="userSpaceOnUse"><path
         id="path16"
         d="M 0,400 H 400 V 0 H 0 Z" /></clipPath></defs><g
     transform="matrix(1.3333333,0,0,-1.3333333,0,533.33333)"
     id="g10"><g
       id="g12"><g
         clip-path="url(#clipPath18)"
         id="g14"><g
           transform="translate(150.0933,67.3008)"
           id="g20"><path
             id="path22"
             style="fill:#000000;fill-opacity:1;fill-rule:nonzero;stroke:none"
             d="m 0,0 c 4.907,0.383 9.83,0.626 14.718,1.17 43.742,4.866 82.63,37.954 92.843,78.934 10.946,43.919 -4.742,84.515 -42.837,110.846 -8.839,6.109 -13.173,5.312 -19.241,-3.733 -4.389,-6.541 -5.269,-13.837 -3.145,-21.217 1.622,-5.636 4.517,-10.895 6.309,-16.494 2.157,-6.74 4.767,-13.577 5.352,-20.527 1.01,-12.002 -6.53,-22.08 -16.894,-24.69 -10.618,-2.674 -20.852,2.664 -26.551,13.819 -5.676,11.111 -3.626,22.435 -1.315,33.904 1.202,5.964 2.104,12.142 1.92,18.187 -0.184,6.052 -3.443,11.231 -10.059,11.869 -6.209,0.599 -10.181,-3.594 -11.917,-9.13 -1.451,-4.626 -1.851,-9.587 -2.644,-14.412 -0.992,-6.039 -1.136,-12.344 -3.024,-18.08 -3.504,-10.643 -14.184,-15.625 -24.259,-12.238 -9.977,3.354 -14.707,12.804 -11.704,23.779 1.1,4.024 2.778,7.886 3.977,11.885 3.174,10.58 0.033,20.481 -9.161,26.401 -2.188,1.409 -6.952,1.607 -8.912,0.164 C -99.948,165.83 -116.503,133.024 -110.81,91.35 -103.588,38.483 -55.769,-0.201 0,0 m 148.8,240.418 c 1.357,1.948 -11.05,12.443 -16.281,18.299 -2.133,2.387 -4.375,4.679 -6.461,7.107 -4.46,5.189 -6.872,10.979 -3.709,17.653 3.036,6.409 8.839,7.943 15.404,8.055 23.887,0.407 47.773,0.924 71.659,1.403 2.709,0.054 5.417,0.169 8.125,0.192 17.839,0.148 26.503,-11.938 20.454,-28.983 -5.931,-16.71 -11.491,-33.614 -18.609,-49.822 -7.179,-16.351 -6.254,-31.897 0.061,-47.948 3.963,-10.071 7.755,-20.302 5.756,-31.53 -1.55,-8.7 -6.445,-14.278 -13.656,-15.47 -7.878,-1.303 -15.38,2.674 -19.46,10.419 -4.27,8.106 -4.08,16.618 -1.738,25.138 1.169,4.251 3.071,8.298 4.565,12.464 3.117,8.691 2.724,17.022 -3.26,24.421 -6.192,7.654 -12.724,15.032 -18.943,22.663 -2.847,3.491 -5.387,4.158 -9.28,1.25 -14.403,-10.759 -28.983,-21.282 -43.561,-31.805 -2.965,-2.14 -4.5,-3.979 -2.077,-7.793 30.694,-48.308 29.407,-97.294 -2.265,-143.533 -33.326,-48.655 -82.11,-66.809 -139.924,-58.311 -64.949,9.547 -114.147,64.85 -115.657,127.87 -1.569,65.51 47.717,123.405 113.777,134.968 43.947,7.692 82.358,-3.722 116.833,-30.717 4.365,-3.419 7.353,-4.214 12.068,-0.61 13.499,10.317 27.395,20.113 41.105,30.156 1.538,1.127 3.718,2.516 5.074,4.464" /></g></g></g></g></svg>