<?xml version="1.0" encoding="UTF-8" standalone="no"?>
<svg
   xmlns:dc="http://purl.org/dc/elements/1.1/"
   xmlns:cc="http://creativecommons.org/ns#"
   xmlns:rdf="http://www.w3.org/1999/02/22-rdf-syntax-ns#"
   xmlns:svg="http://www.w3.org/2000/svg"
   xmlns="http://www.w3.org/2000/svg"
   viewBox="0 0 533.33331 533.33331"
   height="533.33331"
   width="533.33331"
   xml:space="preserve"
   id="svg2"
   version="1.1"><metadata
     id="metadata8"><rdf:RDF><cc:Work
         rdf:about=""><dc:format>image/svg+xml</dc:format><dc:type
           rdf:resource="http://purl.org/dc/dcmitype/StillImage" /></cc:Work></rdf:RDF></metadata><defs
     id="defs6"><clipPath
       id="clipPath18"
       clipPathUnits="userSpaceOnUse"><path
         id="path16"
         d="M 0,400 H 400 V 0 H 0 Z" /></clipPath></defs><g
     transform="matrix(1.3333333,0,0,-1.3333333,0,533.33333)"
     id="g10"><g
       id="g12"><g
         clip-path="url(#clipPath18)"
         id="g14"><g
           transform="translate(183.1245,357.5879)"
           id="g20"><path
             id="path22"
             style="fill:#000000;fill-opacity:1;fill-rule:nonzero;stroke:none"
             d="m 0,0 c 3.852,-0.431 7.505,-2.63 8.806,-6.2 1.953,-5.358 3.317,-11.101 3.846,-16.778 2.5,-26.81 4.698,-59.002 4.698,-80.634 0,-21.633 -0.038,-34.71 -0.765,-52.022 -1.123,-26.775 -3.038,-53.522 -5,-80.253 -0.424,-5.775 -2.357,-11.461 -3.8,-17.135 -2.24,-8.809 -1.717,-17.249 2.416,-25.472 2.119,-4.216 4.059,-8.564 5.61,-13.015 3.344,-9.597 0.174,-18.154 -7.864,-22.12 -7.617,-3.759 -17.981,-0.789 -23.245,6.755 -3.548,5.083 -4.625,10.795 -3.626,16.846 0.977,5.912 2.469,11.749 3.222,17.684 2.181,17.184 -5.862,29.981 -18.027,40.931 -11.877,10.69 -23.823,21.308 -35.506,32.207 -5.5,5.132 -9.692,10.08 -14.913,15.514 -2.223,2.313 -3.597,3.145 -6.657,3.368 -3.06,0.221 -4.973,0.266 -8.923,0.087 -3.949,-0.179 -6.648,-1.299 -7.789,-6.792 -0.759,-3.657 -0.61,-7.507 -0.814,-11.273 -0.152,-2.829 0.133,-5.73 -0.394,-8.482 -1.386,-7.242 -7.785,-9.767 -13.834,-5.564 -2.237,1.555 -4.218,3.474 -6.383,5.141 -0.607,0.467 -1.325,1.422 -2.186,0.923 -0.862,-0.498 -0.635,-2.058 -0.591,-3.492 0.043,-1.435 0.259,-4.504 0.39,-7.339 0.126,-2.73 0.392,-5.467 0.29,-8.19 -0.269,-7.194 -4.278,-12.702 -10.056,-14.103 -6.406,-1.553 -14.052,1.298 -16.788,7.641 -2.039,4.731 -2.85,10.247 -3.039,15.457 -0.266,7.305 1.285,14.718 0.604,21.949 -0.348,3.693 -3.284,7.673 -6.097,10.472 -3.602,3.586 -4.92,6.373 -5.397,12.305 -0.477,5.931 -0.73,11.011 -1.053,18.99 -0.063,1.575 -0.012,8.092 0.001,9.666 0.157,18.179 0.324,36.359 0.536,54.538 0.05,4.298 0.261,8.594 0.428,12.89 0.119,3.074 3.445,5.531 8,5.612 6.622,0.118 13.249,0.03 19.873,0.03 0,0 36.688,-0.926 46.879,-0.86 10.191,0.065 14.516,4.423 20.088,9.861 7.27,7.094 14.262,14.478 21.62,21.479 11.877,11.301 23.968,22.378 35.94,33.581 1.783,1.668 4.575,4.336 7.061,4.798 C -9.954,-0.535 -3.852,0.432 0,0" /></g><g
           transform="translate(271.8486,247.2319)"
           id="g24"><path
             id="path26"
             style="fill:#000000;fill-opacity:1;fill-rule:nonzero;stroke:none"
             d="m 0,0 c -1.678,0.841 -3.707,-2.877 -4.831,-5.166 -1.123,-2.289 -2.583,-4.751 -4.053,-7.746 -1.469,-2.994 -17.623,-40.497 -29.391,-59.335 -1.789,-2.863 -0.804,-7.745 -0.402,-11.621 0.544,-5.246 2.268,-10.393 2.57,-15.635 0.393,-6.844 -3.479,-11.605 -9.083,-12.507 -5.613,-0.904 -11.286,2.893 -12.901,9.461 -0.892,3.632 -1.267,7.733 -0.545,11.358 1.914,9.604 -0.189,18.248 -5.24,26.224 -3.447,5.444 -3.444,10.032 0.024,15.675 8.931,14.531 13.372,30.207 7.831,47.13 -2.086,6.372 -5.265,12.448 -8.456,18.384 -3.848,7.161 -2.574,11.073 5.403,12.607 4.62,0.888 9.516,1.218 14.185,0.755 6.34,-0.629 11.431,-3.597 13.19,-10.497 0.948,-3.717 2.072,-7.413 3.467,-10.981 0.503,-1.289 2.016,-2.999 3.097,-3.02 1.116,-0.021 2.739,1.111 3.578,3.289 0.839,2.178 2.725,10.192 2.951,15.593 0.414,9.915 2.419,19.953 -2.206,29.703 -1.767,3.722 2.377,4.53 4.948,4.473 8.58,-0.193 14.106,-0.499 25.704,-1.029 11.598,-0.529 14.587,-6.739 17.912,-14.007 14.252,-31.157 20.309,-63.33 9.056,-96.881 -3.462,-10.325 -7.564,-20.479 -12.079,-30.39 -2.357,-5.17 -4.1,-8.016 -13.239,-8.738 -9.138,-0.723 -17.093,-0.939 -25.667,-1.169 -7.327,-0.195 -8.385,1.59 -5.009,7.914 3.873,7.253 8.397,14.177 11.963,21.569 8.832,18.3 10.619,37.855 9.303,57.842 C 1.963,-4.975 1.677,-0.842 0,0" /></g></g></g></g></svg>