<?xml version="1.0" encoding="utf-8"?>
<!-- Generator: Adobe Illustrator 23.0.6, SVG Export Plug-In . SVG Version: 6.00 Build 0)  -->
<svg version="1.1" id="Layer_1" xmlns="http://www.w3.org/2000/svg" xmlns:xlink="http://www.w3.org/1999/xlink" x="0px" y="0px"
	 viewBox="0 0 400 400" style="enable-background:new 0 0 400 400;" xml:space="preserve">
<path d="M156.6,299.2c-0.1,2.5-0.4,6.1,0.1,9c1.1,6.4,3,12.7,4,19.1c0.5,3.5,0.5,7.4-0.3,10.9c-2.7,12.3-15.5,16.7-25.3,8.6
	c-8-6.6-9.8-15.6-7.6-25c1.9-8.2,5.4-16.1,8.3-24.1c4.7-13,4.3-25.9-1.2-38.5c-1.2-2.7-2.8-5.3-4.7-7.5
	c-34.5-41.4-21-101.9,27.7-125.1c11.3-5.4,17.9-15.3,20.4-27.3c1.7-7.8,2-16,2.4-24c0.6-12.6,6.2-21.4,17.7-26.7
	c1.7-0.8,3.4-2.9,3.9-4.8c2.8-10,6.6-19.6,12.8-28.1c2.4-3.3,4.4-5.5,6.8-7.2c1.7-1.2,3.7-2.2,6.2-3.1c0.6-0.2,1.9-0.7,2.1-0.5
	c0.3,0.2,0.1,0.9-0.1,1.3c-2.5,5.8-3.5,11.7-3.7,17.6c-0.2,6.1,0.5,12.2,1.2,18.4c0.1,1.2,1.1,2.9,2.1,3.1c1,0.3,1.4,0.3,1.7,0.4
	c19.3,4.8,26.4,15.2,23.9,35.1c-0.4,3.2-1,6.4-1.8,9.6c-3.8,15.1,1.9,25.4,16.8,30.5c9.6,3.2,14.6,9.6,14.4,19.1
	c-0.1,4.3-0.8,8.8-2,13c-2.7,9.6-1.7,18.7,2.8,27.6c4.3,8.3,5.3,16.9,2.6,26c-2.4,8-2,16,0.3,23.9c4,13.8-0.4,25.2-11.7,32.8
	c-9.6,6.5-9.1,14.8-7.3,23.8c1,4.8,3.3,9.3,4.9,14c0.9,2.7,1.7,5.4,2.1,8.2c0.8,6.3-1.1,11.6-6.9,14.8c-5.6,3.1-11.5,3.1-16.9-0.5
	c-5.5-3.6-6.8-9.2-5.8-15.4c1-5.6,2.3-11.1,3.1-16.7c0.4-2.6,0.3-5.4-0.1-8c-1.2-9.3-3.2-9.6-9.7-11.6s-15.4,0.6-22.6,2.8
	c-8,2.4-16.5,3.7-24.9,4.4c-4.2,0.4-6.5,1.9-8.1,5.4c-2.7,5.7-2.4,11.6-1.3,17.5c0.6,3.6,1.6,7.2,1.8,10.9c0.2,2.9,0.1,6-0.6,8.8
	c-1.4,5.1-6.6,6.7-11.3,3.9c-4.8-2.9-7-7.7-8.8-12.7c-1.3-3.6-2.4-7.2-3.8-10.8c-0.5-1.2-1-2.4-1.8-3.5
	C157.6,297.6,156.6,296.7,156.6,299.2z M234.4,125.8c1.1,2,17.3-3.1,17.5-4.9c0.2-1.8-5.8-8.3-7.8-7.9S233.3,123.7,234.4,125.8z"/>
</svg>
