<?xml version="1.0" encoding="utf-8"?>
<!-- Generator: Adobe Illustrator 23.0.1, SVG Export Plug-In . SVG Version: 6.00 Build 0)  -->
<svg version="1.1"
	 id="svg8" xmlns:cc="http://creativecommons.org/ns#" xmlns:dc="http://purl.org/dc/elements/1.1/" xmlns:inkscape="http://www.inkscape.org/namespaces/inkscape" xmlns:rdf="http://www.w3.org/1999/02/22-rdf-syntax-ns#" xmlns:sodipodi="http://sodipodi.sourceforge.net/DTD/sodipodi-0.dtd" xmlns:svg="http://www.w3.org/2000/svg"
	 xmlns="http://www.w3.org/2000/svg" xmlns:xlink="http://www.w3.org/1999/xlink" x="0px" y="0px" viewBox="0 0 400 400"
	 style="enable-background:new 0 0 400 400;" xml:space="preserve">
<sodipodi:namedview  bordercolor="#666666" borderopacity="1" fit-margin-bottom="15" fit-margin-left="0" fit-margin-right="0" fit-margin-top="0" gridtolerance="10" guidetolerance="10" id="namedview10" inkscape:current-layer="svg8" inkscape:cx="41.127155" inkscape:cy="5.3608749" inkscape:pageopacity="0" inkscape:pageshadow="2" inkscape:window-height="705" inkscape:window-maximized="1" inkscape:window-width="1366" inkscape:window-x="-8" inkscape:window-y="245" inkscape:zoom="16" objecttolerance="10" pagecolor="#ffffff" showgrid="false">
	</sodipodi:namedview>
<g id="Layer_1">
</g>
<g>
	<path d="M260.2,189c-1.6,0.4-3.9,0.9-5.4,1.1c-2.6,0.4-5.9,0.4-8.6,0.4c-7.3,0-13.3-2.7-19.3-7.3c-6-4.7-8.6-13.3-8.6-25.3
		c0-10.6,2-18.6,7.3-23.9s12-8,19.9-8c2.4,0,4.7,0,7.1,0.5c0.6,0.1,1.1,0.3,1.7,0.5c1.7,0.6,4.2,1.3,6.1,1.6
		c0.6,0.1,1.1-0.3,1.1-0.9c0-3.7,0-16.3,0-18.9c0-0.3-0.2-0.5-0.5-0.6c-1.1-0.2-3.1-0.8-5.2-1.3c-2.7-0.7-6.9-0.7-10.9-0.7
		c-15.3,0-26.6,5.3-35.9,15.3c-3.3,3.8-5.9,7.9-8,12.4c-0.6,1.3-1.3,2.5-2.1,3.7c-13.7,18.4-25.4-34.4-29.1-60.5
		c-0.4-3.1-3.1-5.4-6.2-5.4h-10.8c-3.5,0-6.3,2.8-6.3,6.3v125.6c0,3.5,2.8,6.3,6.3,6.3l10,0c3.5,0,6.3-2.8,6.3-6.3v-51.8
		c0-2.1,0.5-4.2,1.7-6c6.3-9.9,18.2,6.4,23.6,17.8c1.1,2.4,1.9,4.9,2.3,7.5c0.1,0.6,0.2,1.2,0.3,1.7c0,0,0,0,0,0l0,0
		c1.9,9.4,5.8,17.5,11.3,24.4c4.8,6,10.9,10.1,18.2,12.4c1.4,0.4,2.8,1,4.1,1.8c18.3,12-5.4,54.5,15.5,55.3
		c20-0.7-11.8-41.3,13.3-56.9c0.5-0.2,0.9-0.4,1.4-0.6c0.1,0,0.1-0.1,0.2-0.1l0.6-0.4c0.3-0.2,0.6-0.6,0.6-1l0-0.5c0,0,0-0.1,0-0.1
		v-16.6C262.1,189.5,261.2,188.8,260.2,189z"/>
	<path d="M340.5,5.1h-281c-5.5,0-10,4.5-10,10v273.1c0,5.5,4.5,10,10,10h213.8c6.7,0,13.3,1.2,19.4,3.8
		c48.1,20.5-2.8,90.1,26.2,92.8c26.5-3.3-23.6-70,24.4-93.7c4.4-2.2,7.2-6.6,7.2-11.5l0-274.6C350.5,9.6,346,5.1,340.5,5.1z
		 M337.9,276.2c0,5.5-4.5,10-10,10H72.1c-5.5,0-10-4.5-10-10V27.8c0-5.5,4.5-10,10-10h255.8c5.5,0,10,4.5,10,10V276.2z"/>
</g>
</svg>
