<?xml version="1.0" encoding="utf-8"?>
<!-- Generator: Adobe Illustrator 23.0.6, SVG Export Plug-In . SVG Version: 6.00 Build 0)  -->
<svg version="1.1"
	 id="svg8" xmlns:cc="http://creativecommons.org/ns#" xmlns:dc="http://purl.org/dc/elements/1.1/" xmlns:inkscape="http://www.inkscape.org/namespaces/inkscape" xmlns:rdf="http://www.w3.org/1999/02/22-rdf-syntax-ns#" xmlns:sodipodi="http://sodipodi.sourceforge.net/DTD/sodipodi-0.dtd" xmlns:svg="http://www.w3.org/2000/svg"
	 xmlns="http://www.w3.org/2000/svg" xmlns:xlink="http://www.w3.org/1999/xlink" x="0px" y="0px" viewBox="0 0 400 400"
	 style="enable-background:new 0 0 400 400;" xml:space="preserve">
<path d="M255,177.1c-1.5,0.3-3.5,0.8-4.9,1c-2.4,0.4-5.4,0.4-7.9,0.4c-6.7,0-12.1-2.4-17.6-6.7c-5.5-4.2-7.9-12.1-7.9-23.1
	c0-9.7,1.8-17,6.7-21.9c4.9-4.9,10.9-7.3,18.2-7.3c2.2,0,4.3,0,6.5,0.4c0.5,0.1,1,0.3,1.5,0.4c1.6,0.5,3.8,1.2,5.6,1.5
	c0.5,0.1,1-0.3,1-0.8c0-3.4,0-14.9,0-17.3c0-0.3-0.2-0.5-0.4-0.5c-1-0.2-2.9-0.7-4.8-1.2c-2.4-0.6-6.3-0.7-10-0.7
	c-14,0-24.3,4.9-32.8,14c-3,3.4-5.4,7.2-7.3,11.4c-0.5,1.2-1.1,2.3-1.9,3.4c-12.5,16.8-23.2-31.4-26.5-55.3
	c-0.4-2.8-2.8-4.9-5.7-4.9h-9.8c-3.2,0-5.7,2.6-5.7,5.7v114.8c0,3.2,2.6,5.7,5.7,5.7l9.2,0c3.2,0,5.7-2.6,5.7-5.7V143
	c0-1.9,0.5-3.9,1.5-5.5c5.7-9,16.6,5.8,21.6,16.3c1,2.2,1.7,4.5,2.1,6.9c0.1,0.5,0.2,1.1,0.3,1.6c0,0,0,0,0,0l0,0
	c1.7,8.6,5.3,16,10.3,22.3c4.4,5.5,10,9.3,16.6,11.3c1.3,0.4,2.6,0.9,3.7,1.7c16.7,11-4.9,49.8,14.1,50.5
	c18.3-0.6-10.8-37.8,12.1-52c0.4-0.2,0.8-0.4,1.3-0.6c0.1,0,0.1-0.1,0.1-0.1l0.6-0.4c0.3-0.2,0.5-0.6,0.5-0.9l0-0.4c0,0,0-0.1,0-0.1
	v-15.1C256.8,177.6,255.9,176.9,255,177.1z"/>
<path d="M328.4,9.1H71.6c-5,0-9.1,4.1-9.1,9.1v249.4c0,5,4.1,9.1,9.1,9.1H267c6.1,0,12.1,1.1,17.7,3.5c43.9,18.8-2.6,82.3,23.9,84.8
	c24.2-3-21.6-63.9,22.3-85.6c4-2,6.6-6,6.6-10.5l0-250.8C337.5,13.2,333.4,9.1,328.4,9.1z M326,256.8c0,5-4.1,9.1-9.1,9.1H83.2
	c-5,0-9.1-4.1-9.1-9.1v-227c0-5,4.1-9.1,9.1-9.1h233.7c5,0,9.1,4.1,9.1,9.1V256.8z"/>
</svg>
