<?xml version="1.0" encoding="utf-8"?>
<!-- Generator: Adobe Illustrator 23.0.1, SVG Export Plug-In . SVG Version: 6.00 Build 0)  -->
<svg version="1.1"
	 id="svg2" inkscape:version="0.92.1 r15371" sodipodi:docname="procreate.svg" xmlns:cc="http://creativecommons.org/ns#" xmlns:dc="http://purl.org/dc/elements/1.1/" xmlns:inkscape="http://www.inkscape.org/namespaces/inkscape" xmlns:rdf="http://www.w3.org/1999/02/22-rdf-syntax-ns#" xmlns:sodipodi="http://sodipodi.sourceforge.net/DTD/sodipodi-0.dtd" xmlns:svg="http://www.w3.org/2000/svg"
	 xmlns="http://www.w3.org/2000/svg" xmlns:xlink="http://www.w3.org/1999/xlink" x="0px" y="0px" viewBox="0 0 400 400"
	 style="enable-background:new 0 0 400 400;" xml:space="preserve">
<path d="M345.9,17.3c-0.6-4.1-1.7-8.1-2.6-12.1c-0.1-0.3-0.5-0.3-0.5,0c-0.1,3-0.1,6-0.4,8.9c-1.7,15-7.5,28.4-16.5,40.4
	c-8.4,11.2-19.1,20-30.4,28.1c-13.6,9.7-28.6,17-44.1,23.4c-17.6,7.2-35.4,13.5-54.1,17.4c-23,4.7-44.6,13.2-64.5,25.8
	c-25,15.8-44.6,36.5-57.3,63.3c-11.4,23.9-16.1,49.4-16.8,75.7c-0.1,2.9,0,5.9,0,8.8c0,0,0,0,0,0c0,0,0,0,0,0
	c2.7,44.1-16.9,96.9,5.3,98.5c36.3-4.4-42.1-79.8,35.5-161.5c8.3-8.7,18.8-14.9,30.4-18l0.2-0.1c15.8-4.3,31.7-8,47.7-11.7
	c21.5-5,42.2-11.9,62.1-21.1c40-14.9,3.4,57.8,24.5,58.5c25.8-0.9-25.3-40.8,26-89.8c7-5.9,13.6-12.4,19.7-19.5
	c18.8-21.6,30.4-46.6,34.9-74.9C346.8,44.1,348,30.8,345.9,17.3z"/>
</svg>
