<?xml version="1.0" encoding="utf-8"?>
<!-- Generator: Adobe Illustrator 23.0.6, SVG Export Plug-In . SVG Version: 6.00 Build 0)  -->
<svg version="1.1"
	 id="svg2" xmlns:cc="http://creativecommons.org/ns#" xmlns:dc="http://purl.org/dc/elements/1.1/" xmlns:inkscape="http://www.inkscape.org/namespaces/inkscape" xmlns:rdf="http://www.w3.org/1999/02/22-rdf-syntax-ns#" xmlns:sodipodi="http://sodipodi.sourceforge.net/DTD/sodipodi-0.dtd" xmlns:svg="http://www.w3.org/2000/svg"
	 xmlns="http://www.w3.org/2000/svg" xmlns:xlink="http://www.w3.org/1999/xlink" x="0px" y="0px" viewBox="0 0 400 400"
	 style="enable-background:new 0 0 400 400;" xml:space="preserve">
<path d="M336.4,16.5c-0.6-3.8-1.6-7.6-2.5-11.3c-0.1-0.3-0.5-0.2-0.5,0c-0.1,2.8-0.1,5.6-0.4,8.4c-1.6,14-7,26.5-15.4,37.8
	c-7.8,10.5-17.9,18.7-28.5,26.3c-12.8,9.1-26.8,15.9-41.2,21.8c-16.5,6.8-33.1,12.6-50.6,16.2c-21.5,4.4-41.7,12.4-60.4,24.1
	c-23.4,14.8-41.7,34.1-53.6,59.2c-10.6,22.4-15.1,46.2-15.7,70.8c-0.1,2.7,0,5.5,0,8.2c0,0,0,0,0,0s0,0,0,0
	c2.6,41.3-15.8,90.6,4.9,92.1c33.9-4.1-39.4-74.6,33.2-151c7.7-8.1,17.6-13.9,28.5-16.9l0.2-0.1c14.8-4,29.7-7.5,44.6-11
	c20.1-4.7,39.5-11.2,58.1-19.8c37.4-13.9,3.2,54,23,54.7c24.1-0.8-23.7-38.2,24.3-84c6.6-5.6,12.7-11.6,18.5-18.2
	c17.5-20.2,28.5-43.6,32.7-70.1C337.4,41.6,338.4,29.1,336.4,16.5z"/>
</svg>
