<?xml version="1.0" encoding="utf-8"?>
<!-- Generator: Adobe Illustrator 23.0.6, SVG Export Plug-In . SVG Version: 6.00 Build 0)  -->
<svg version="1.1" id="Layer_1" xmlns="http://www.w3.org/2000/svg" xmlns:xlink="http://www.w3.org/1999/xlink" x="0px" y="0px"
	 viewBox="0 0 400 400" style="enable-background:new 0 0 400 400;" xml:space="preserve">
<path d="M87.9,278.1c0.1,3.4,1.4,8,1.9,15.8c0.6,7.8-5.9,16.1-14.9,16.1s-12.6-5-12.4-13.6s4.6-14.8,5.9-22
	c4.2-23.2,2.6-49.1,2.7-60.4c0.1-14.9-0.2-21.3-0.1-32.1c0.3-32.3,0.9-64.6,1.3-97c0.2-19.4,0.4-38.7,0.5-58.1
	c0-10.4,1.4-11.4,11.1-7.1c30.9,13.6,62.2,26.7,92.7,41.2c36.7,17.5,72.8,36.3,109.2,54.5c16,8,32.1,15.7,48.1,23.5
	c3.5,1.7,5.5,3.8,0.5,7.1c-9.3,6.1-8.8,12.5-8,17.6s1.4,9.9,1.3,13.2c-0.1,3.3-0.6,7.4-4,10.2c-3.4,2.8-10.1,1.4-12.8-1
	c-3.1-2.8-3.3-5.8-3.7-9.2s-0.3-6.8-2.3-7.7c-2-1-3.7,0.5-5.7,3.8c-2,3.3-4.1,7.9,1.4,16.1c5.4,8.2,8.3,19.3,6.7,26.5
	c-1.7,7.1-9.5,13.4-15.4,13.5c-6,0.1-11.4-7.6-11.6-13.4c-0.3-5.8,0.9-14.4,1.6-19s0.1-12.7-3.2-16.2s-8.3-4.1-14.8-2
	c-6.6,2.1-34.4,15.3-51.5,23c-15.9,7.1-31.8,14.3-47.9,21.2c-14.6,6.3-29.6,11.9-44.1,18.4c-12.9,5.9-25.6,12.4-30.9,27.1
	C88.4,271.3,87.8,274.8,87.9,278.1z"/>
</svg>
