<?xml version="1.0" encoding="UTF-8" standalone="no"?>
<svg
   xmlns:dc="http://purl.org/dc/elements/1.1/"
   xmlns:cc="http://creativecommons.org/ns#"
   xmlns:rdf="http://www.w3.org/1999/02/22-rdf-syntax-ns#"
   xmlns:svg="http://www.w3.org/2000/svg"
   xmlns="http://www.w3.org/2000/svg"
   viewBox="0 0 533.33331 533.33331"
   height="533.33331"
   width="533.33331"
   xml:space="preserve"
   id="svg2"
   version="1.1"><metadata
     id="metadata8"><rdf:RDF><cc:Work
         rdf:about=""><dc:format>image/svg+xml</dc:format><dc:type
           rdf:resource="http://purl.org/dc/dcmitype/StillImage" /></cc:Work></rdf:RDF></metadata><defs
     id="defs6"><clipPath
       id="clipPath18"
       clipPathUnits="userSpaceOnUse"><path
         id="path16"
         d="M 0,400 H 400 V 0 H 0 Z" /></clipPath></defs><g
     transform="matrix(1.3333333,0,0,-1.3333333,0,533.33333)"
     id="g10"><g
       id="g12"><g
         clip-path="url(#clipPath18)"
         id="g14"><g
           transform="translate(107.6162,220.6221)"
           id="g20"><path
             id="path22"
             style="fill:#000000;fill-opacity:1;fill-rule:nonzero;stroke:none"
             d="m 0,0 c -0.328,0.876 -14.583,27.048 -20.75,41.147 -6.176,14.121 -12.969,39.484 -14.946,43.931 -1.977,4.447 -2.848,5.44 -3.258,8.302 -2.319,16.203 7.371,26.949 17.327,37.685 12.854,13.861 26.466,26.693 43.176,35.918 6.902,3.81 13.544,3.009 19.928,-0.593 11.655,-6.576 16.862,-18.79 24.543,-28.849 14.511,-19.006 6.85,-34.239 -3.691,-48.72 -5.298,-7.277 -11.35,-14.026 -17.326,-20.779 -2.377,-2.686 -2.98,-4.937 -1.59,-8.388 14.024,-34.828 34.067,-65.264 63.941,-88.643 3.706,-2.9 7.387,-5.843 10.918,-8.949 3.582,-3.151 7.129,-3.291 11.335,-1.161 7.873,3.986 15.768,7.999 23.923,11.341 15.25,6.249 33.213,9.649 46.785,-8.002 7.47,-9.715 15.464,-19.219 21.455,-29.817 4.955,-8.768 1.535,-18.544 -6.75,-24.827 -11.667,-8.848 -24.037,-16.797 -35.431,-25.97 -12.269,-9.878 -19.577,-23.038 -20.03,-39.053 -0.249,-8.779 1.416,-17.605 1.295,-26.398 -0.084,-6.154 -1.009,-12.514 -2.865,-18.366 -2.297,-7.246 -8.629,-10.943 -15.293,-10.509 -5.727,0.371 -11.789,4.98 -12.509,12.184 -1.002,10.022 -0.186,20.228 -0.07,30.355 0.028,2.344 0.542,4.686 0.511,7.026 -0.02,1.454 0.21,3.984 -0.994,4.352 -1.204,0.368 -2.534,-2.216 -3.333,-3.595 -2.553,-4.403 -4.662,-9.075 -7.385,-13.362 -1.424,-2.242 -3.514,-4.3 -5.753,-5.74 -6.694,-4.307 -14.574,-1.923 -16.503,5.751 -1.429,5.684 -1.219,11.962 -0.744,17.897 0.528,6.617 2.126,13.154 3.358,19.708 2.089,11.109 0.304,21.825 -5.612,31.138 -3.326,5.235 -9.15,8.89 -13.883,13.221 -10.409,9.526 -20.839,19.028 -31.26,28.539 l 0.038,-0.038 c -2.6,2.58 -5.413,4.982 -7.757,7.778 -6.008,7.166 -11.922,14.42 -17.662,21.803 C 16.798,-25.529 5.663,-10.497 4.579,-8.87 3.495,-7.243 0.327,-0.876 0,0" /></g></g></g></g></svg>