<?xml version="1.0" encoding="utf-8"?>
<!-- Generator: Adobe Illustrator 23.0.1, SVG Export Plug-In . SVG Version: 6.00 Build 0)  -->
<svg version="1.1"
	 id="typescript" inkscape:version="0.92.1 r15371" sodipodi:docname="typescript.svg" xmlns:cc="http://creativecommons.org/ns#" xmlns:dc="http://purl.org/dc/elements/1.1/" xmlns:inkscape="http://www.inkscape.org/namespaces/inkscape" xmlns:rdf="http://www.w3.org/1999/02/22-rdf-syntax-ns#" xmlns:sodipodi="http://sodipodi.sourceforge.net/DTD/sodipodi-0.dtd" xmlns:svg="http://www.w3.org/2000/svg"
	 xmlns="http://www.w3.org/2000/svg" xmlns:xlink="http://www.w3.org/1999/xlink" x="0px" y="0px" viewBox="0 0 400 400"
	 style="enable-background:new 0 0 400 400;" xml:space="preserve">
<sodipodi:namedview  bordercolor="#666666" borderopacity="1" fit-margin-bottom="50" fit-margin-left="0" fit-margin-right="0" fit-margin-top="0" gridtolerance="10" guidetolerance="10" id="namedview10" inkscape:current-layer="typescript" inkscape:cx="172.29399" inkscape:cy="146.55466" inkscape:pageopacity="0" inkscape:pageshadow="2" inkscape:window-height="705" inkscape:window-maximized="1" inkscape:window-width="1366" inkscape:window-x="-8" inkscape:window-y="245" inkscape:zoom="1.84375" objecttolerance="10" pagecolor="#ffffff" showgrid="false">
	</sodipodi:namedview>
<title  id="title6">Artboard 4</title>
<path d="M331.7,4.8H68.3c-5.5,0-10,4.5-10,10v131.7v131.4c0,5.7,3.3,10.9,8.5,13.5c47.2,23.1-15.4,99.5,27.5,104
	c30.3-0.2-14.6-77.9,20.1-102c5-3.5,11.1-5.2,17.2-5.2h200c5.5,0,10-4.5,10-10V14.8C341.7,9.2,337.2,4.8,331.7,4.8z M157.3,257
	v-16.2c0-4.7,1.5-9.4,4.6-13c7.2-8.6,14.1,0.1,20.7,31.4c0.4,2.1-1.2,4.1-3.3,4.1h-15.6C160.1,263.3,157.3,260.5,157.3,257z
	 M213.9,158.6h-24.2c-3.5,0-6.3,2.8-6.3,6.3V211c0,2.2-0.4,4.3-1.4,6.3c-6.8,14-19.7-25.7-24-53.4c-0.5-3.1-3.1-5.4-6.2-5.4h-25.1
	c-3.5,0-6.3-2.8-6.3-6.3v-5c0-1.9,0-3.8,0-5.6c0.1-3.4,2.8-6.2,6.2-6.2c8.5-0.1,25.1-0.1,44-0.1h43.2c3.4,0,6.3,2.8,6.3,6.2l0.1,5.4
	v5.3C220.1,155.7,217.3,158.6,213.9,158.6z M229.2,241c-1-1.5-0.5-3.6,1.1-4.5c0,0,0,0,0,0l10.4-6l5.5-3.2c1.5-0.8,3.3-0.4,4.3,1
	l0,0c2.9,4.1,6.5,7.6,10.7,10.3c0.3,0.2,0.6,0.3,0.9,0.5c0.6,0.3,1.3,0.6,1.8,1c17.8,11.8,19.1,22.1,3.9,23.1
	c-6.6,0.4-13.2-1.1-19.2-4.1c-5.1-2.5-9.7-5.9-13.8-10C233.5,247.2,230.9,243.6,229.2,241z M316.8,241.7c-2.3,6.1-6.4,11.2-12,15
	c-2.4,1.7-5.2,2.7-8.1,2.8c-10.4,0.3-11.6-11.3-5.5-25.4c2.1-3.9,1.9-8.8-0.7-12.6c-2.3-3.2-6.8-5.8-19.5-11.3
	c-14.6-6.3-20.9-10.2-26.7-16.4c-3.6-4.1-6.2-8.8-7.7-14c0-0.1-0.1-0.2-0.1-0.3c-1.1-5.9-1.3-11.9-0.5-17.8c0-0.1,0-0.2,0-0.3
	c3-14,13.6-23.8,28.9-26.7c0.1,0,0.1,0,0.2,0c7.1-0.9,14.3-0.7,21.4,0.6v0c6.8,1.6,13,5.1,17.7,10.2c1.6,1.7,3.2,3.6,4.5,5.5
	c1.4,2,0.9,4.7-1.1,6.1c-3.7,2.6-10.1,6.9-14.9,10c-1.1,0.7-2.6,0.3-3.3-0.8c-0.2-0.3-0.4-0.7-0.7-1.2c-2.8-4.8-7.8-7.8-13.3-8
	c-8.6-0.6-14.1,3.9-14.1,11.3c-0.1,1.8,0.4,3.7,1.2,5.3c1.9,3.9,5.4,6.3,16.4,11c20.3,8.7,29,14.5,34.4,22.7
	C319.6,216.2,320.9,230.8,316.8,241.7z"/>
</svg>
