<?xml version="1.0" encoding="UTF-8" standalone="no"?>
<svg
   xmlns:dc="http://purl.org/dc/elements/1.1/"
   xmlns:cc="http://creativecommons.org/ns#"
   xmlns:rdf="http://www.w3.org/1999/02/22-rdf-syntax-ns#"
   xmlns:svg="http://www.w3.org/2000/svg"
   xmlns="http://www.w3.org/2000/svg"
   viewBox="0 0 682.66669 682.66669"
   height="682.66669"
   width="682.66669"
   xml:space="preserve"
   id="svg2"
   version="1.1"><metadata
     id="metadata8"><rdf:RDF><cc:Work
         rdf:about=""><dc:format>image/svg+xml</dc:format><dc:type
           rdf:resource="http://purl.org/dc/dcmitype/StillImage" /></cc:Work></rdf:RDF></metadata><defs
     id="defs6"><clipPath
       id="clipPath18"
       clipPathUnits="userSpaceOnUse"><path
         id="path16"
         d="M 0,512 H 512 V 0 H 0 Z" /></clipPath></defs><g
     transform="matrix(1.3333333,0,0,-1.3333333,0,682.66667)"
     id="g10"><g
       id="g12"><g
         clip-path="url(#clipPath18)"
         id="g14"><g
           transform="translate(403.0176,488.1875)"
           id="g20"><path
             id="path22"
             style="fill:#000000;fill-opacity:1;fill-rule:nonzero;stroke:none"
             d="m 0,0 c 1.511,-0.097 2.621,-1.479 2.377,-2.973 -1.17,-7.168 -2.803,-8.046 -10.751,-8.442 -21.161,-1.052 -37.524,-9.977 -45.349,-30.241 -6.939,-17.972 -12.918,-36.372 -18.288,-54.882 -20.136,-69.408 -39.896,-138.926 -59.686,-208.435 -4.286,-15.053 -8.391,-30.171 -12.079,-45.38 -5.627,-23.205 5.824,-30.008 24.007,-33.211 5.856,-1.032 11.816,-1.471 17.734,-2.037 2.101,-0.201 3.684,-2.002 3.631,-4.112 -0.147,-5.818 -2.609,-7.339 -9.74,-7.34 -16.499,-10e-4 -32.998,0.01 -49.496,-0.005 -12.321,-0.011 -20.66,-5.609 -24.339,-17.48 -2.305,-7.436 -3.068,-15.336 -5.051,-22.889 -1.553,-5.911 -3.15,-12.034 -6.074,-17.318 -6.747,-12.19 -20.802,-13.16 -29.124,-1.933 -3.573,4.821 -5.562,10.886 -7.873,16.548 -1.818,4.452 -2.795,9.245 -4.572,13.719 -1.792,4.515 -5.404,6.149 -10.152,4.859 -2.732,-0.742 -5.44,-1.583 -8.134,-2.453 -8.629,-2.784 -15.595,-0.508 -21.394,6.448 -4.891,5.867 -8.52,9.987 -13.837,15.468 -0.945,0.974 -3.617,3.294 -4.866,4.011 -2.444,1.402 -3.847,4.154 -3.356,6.928 0.829,4.675 3.206,5.391 10.386,6.083 7.734,0.746 15.562,1.977 22.984,4.205 15.862,4.76 23.381,17.969 28.363,32.122 7.567,21.494 14.049,43.388 20.45,65.271 15.051,51.459 29.901,102.977 44.592,154.539 7.569,26.564 14.644,53.269 21.867,79.93 0.267,0.986 0.392,2.011 0.478,3.075 0.15,1.838 -1.566,3.327 -3.344,2.839 -4.297,-1.182 -7.655,-3.577 -10.272,-7.038 -2.802,-3.705 -5.171,-7.744 -7.64,-11.693 -1.942,-3.106 -3.575,-6.416 -5.648,-9.427 -3.302,-4.797 -7.163,-9.331 -13.801,-7.902 -6.485,1.395 -8.498,6.987 -9.892,12.618 -0.676,2.727 -1.357,5.672 -1.024,8.394 2.169,17.726 4.61,35.419 6.956,53.124 0.392,2.959 2.914,5.167 5.899,5.161 C -124.563,0.037 -63.067,0.07 -1.572,0.057 -1.048,0.056 -0.524,0.033 0,0" /></g></g></g></g></svg>