<?xml version="1.0" encoding="utf-8"?>
<!-- Generator: Adobe Illustrator 23.0.6, SVG Export Plug-In . SVG Version: 6.00 Build 0)  -->
<svg version="1.1"
	 id="svg4" xmlns:cc="http://creativecommons.org/ns#" xmlns:dc="http://purl.org/dc/elements/1.1/" xmlns:inkscape="http://www.inkscape.org/namespaces/inkscape" xmlns:rdf="http://www.w3.org/1999/02/22-rdf-syntax-ns#" xmlns:sodipodi="http://sodipodi.sourceforge.net/DTD/sodipodi-0.dtd" xmlns:svg="http://www.w3.org/2000/svg"
	 xmlns="http://www.w3.org/2000/svg" xmlns:xlink="http://www.w3.org/1999/xlink" x="0px" y="0px" viewBox="0 0 400 400"
	 style="enable-background:new 0 0 400 400;" xml:space="preserve">
<path d="M327.8,5H72.2c-5.4,0-9.7,4.3-9.7,9.7l0,259c0,3.5,2.4,6.4,5.8,7.2c54,12.8-10.7,100.2,35.4,103
	C132,384,72,296.2,129.5,281.5c4.4-1.1,9-1.6,13.6-1.6h184.6c5.4,0,9.7-4.3,9.7-9.7V14.7C337.5,9.3,333.1,5,327.8,5z M208,239.2
	L208,239.2c-4.1,8.3-11.8,13.7-20.8,16.3c-13.8,3.2-27,1.4-36.8-4.5c-5-3.1-9.2-7.4-12.5-12.5c-1.6-2.6-0.9-6,1.7-7.6l14.3-8.7
	c1.3-0.8,2.9-0.4,3.7,0.9c0,0,0,0,0,0c2.7,4.5,5,7.6,9.5,9.9c4.4,1.5,14.2,2.5,18-5.3c1.7-3,1.7-11,1.6-20.8c0-3.6,1-7.1,3.2-10
	c9.1-12,16.5,12.6,19.6,33.7C210,233.6,209.4,236.6,208,239.2z M191.9,130.4h16.3c2.4,0,4.4,2,4.4,4.4c0,14.2,0.1,28.1,0.1,41.9
	c0,2.5-0.4,5-1.4,7.4c-7,16.8-20.2-24.5-23.8-48.5C187,132.8,189.1,130.4,191.9,130.4z M253.8,253.9c-7-2.3-13.2-5.8-17.8-10.5
	c-2.9-3.2-5-5.4-6.8-8.2c-1.6-2.3-0.9-5.5,1.6-6.9c5.7-3.3,7.5-4.3,13.4-7.7c1.9-1.1,4.3-0.5,5.4,1.4c6.4,10.9,17.5,29.9,8.1,32.2
	C256.4,254.4,255.1,254.3,253.8,253.9z M314.8,232c-2,6.7-5.9,11.9-11,15.9c-6.1,4.7-13.8,7.1-21.5,6.4
	c-14.2-1.2-13.2-11.2-6.7-17.7c1.9-1.9,4.2-3.2,6.7-4.1c5.9-2.3,9.6-7,7.9-14.9c-2.9-11-25.9-13.6-41.5-25.4
	c-15.9-10.7-19.6-36.5-6.5-51.3c4.3-5.5,11.8-9.6,19.5-11.5l8.1-1c15.6-0.3,25.3,3.8,32.5,11.8c1.3,1.3,2.5,2.8,4,4.9
	c1.5,2.1,0.9,5.1-1.3,6.5c-4.1,2.6-6,3.8-12.3,7.9c-2,1.3-4.7,0.7-6.1-1.2c-2.5-3.3-5.7-5.6-9-6.7c-6.9-2.1-15.6,0.2-17.4,7.5
	c-0.6,2.3-0.5,4.3,0.5,8.1c2.8,6.4,12.2,9.2,20.6,13c24.3,9.8,32.5,20.4,34.5,32.9C317.6,223.9,315.2,230.9,314.8,232z"/>
</svg>
