<?xml version="1.0" encoding="utf-8"?>
<!-- Generator: Adobe Illustrator 23.0.1, SVG Export Plug-In . SVG Version: 6.00 Build 0)  -->
<svg version="1.1"
	 id="svg4" xmlns:cc="http://creativecommons.org/ns#" xmlns:dc="http://purl.org/dc/elements/1.1/" xmlns:inkscape="http://www.inkscape.org/namespaces/inkscape" xmlns:rdf="http://www.w3.org/1999/02/22-rdf-syntax-ns#" xmlns:sodipodi="http://sodipodi.sourceforge.net/DTD/sodipodi-0.dtd" xmlns:svg="http://www.w3.org/2000/svg"
	 xmlns="http://www.w3.org/2000/svg" xmlns:xlink="http://www.w3.org/1999/xlink" x="0px" y="0px" viewBox="0 0 400 400"
	 style="enable-background:new 0 0 400 400;" xml:space="preserve">
<sodipodi:namedview  bordercolor="#666666" borderopacity="1" fit-margin-bottom="50" fit-margin-left="0" fit-margin-right="0" fit-margin-top="0" gridtolerance="10" guidetolerance="10" id="namedview6" inkscape:current-layer="svg4" inkscape:cx="24.652339" inkscape:cy="123.85751" inkscape:pageopacity="0" inkscape:pageshadow="2" inkscape:window-height="705" inkscape:window-maximized="1" inkscape:window-width="1366" inkscape:window-x="-8" inkscape:window-y="245" inkscape:zoom="1.84375" objecttolerance="10" pagecolor="#ffffff" showgrid="false">
	</sodipodi:namedview>
<path d="M331.6,4.8H68.4c-5.5,0-10,4.5-10,10l0,266.8c0,3.6,2.5,6.6,5.9,7.5c55.6,13.2-11,103.2,36.5,106.1
	c29.2,0.1-32.7-90.4,26.6-105.5c4.6-1.2,9.3-1.7,14-1.7h190.2c5.5,0,10-4.5,10-10V14.8C341.6,9.3,337.1,4.8,331.6,4.8z M208.2,246.1
	L208.2,246.1c-4.2,8.5-12.2,14.1-21.4,16.8c-14.2,3.3-27.8,1.4-37.9-4.7c-5.2-3.2-9.5-7.7-12.8-12.9c-1.7-2.6-0.9-6.1,1.8-7.8
	l14.7-9c1.3-0.8,3-0.4,3.8,1c0,0,0,0,0,0c2.8,4.6,5.1,7.9,9.8,10.2c4.6,1.6,14.6,2.6,18.5-5.5c1.8-3.1,1.8-11.3,1.7-21.4
	c0-3.7,1-7.3,3.3-10.3c9.4-12.4,17,13,20.2,34.7C210.3,240.3,209.7,243.4,208.2,246.1z M191.6,134h16.8c2.5,0,4.5,2,4.5,4.5
	c0,14.7,0.1,28.9,0.1,43.2c0,2.6-0.4,5.2-1.4,7.6c-7.2,17.3-20.8-25.3-24.5-49.9C186.6,136.5,188.8,134,191.6,134z M255.5,261.3
	c-7.2-2.4-13.6-6-18.4-10.9c-2.9-3.3-5.1-5.6-7.1-8.4c-1.6-2.4-0.9-5.7,1.6-7.1c5.9-3.4,7.8-4.5,13.8-8c1.9-1.1,4.4-0.5,5.5,1.4
	c6.6,11.3,18.1,30.8,8.4,33.2C258.1,261.8,256.7,261.7,255.5,261.3z M318.3,238.7c-2,6.9-6,12.3-11.3,16.4
	c-6.3,4.9-14.2,7.3-22.2,6.6c-14.6-1.2-13.6-11.5-6.9-18.2c1.9-1.9,4.3-3.3,6.9-4.3c6.1-2.3,9.9-7.2,8.2-15.3
	c-3-11.3-26.7-14-42.8-26.1c-16.3-11-20.2-37.6-6.7-52.9c4.5-5.6,12.1-9.8,20.1-11.9l8.4-1.1c16-0.3,26.1,3.9,33.4,12.1
	c1.4,1.4,2.6,2.8,4.1,5.1c1.5,2.2,0.9,5.2-1.3,6.6c-4.2,2.7-6.1,3.9-12.7,8.1c-2.1,1.3-4.8,0.8-6.3-1.2c-2.5-3.4-5.8-5.7-9.3-6.9
	c-7.1-2.2-16.1,0.2-18,7.7c-0.6,2.3-0.5,4.5,0.5,8.3c2.9,6.6,12.6,9.4,21.2,13.4c25,10.1,33.4,21,35.5,33.9
	C321.1,230.4,318.6,237.6,318.3,238.7z"/>
</svg>
