<?xml version="1.0" encoding="utf-8"?>
<!-- Generator: Adobe Illustrator 23.0.6, SVG Export Plug-In . SVG Version: 6.00 Build 0)  -->
<svg version="1.1"
	 id="svg8" xmlns:cc="http://creativecommons.org/ns#" xmlns:dc="http://purl.org/dc/elements/1.1/" xmlns:inkscape="http://www.inkscape.org/namespaces/inkscape" xmlns:rdf="http://www.w3.org/1999/02/22-rdf-syntax-ns#" xmlns:sodipodi="http://sodipodi.sourceforge.net/DTD/sodipodi-0.dtd" xmlns:svg="http://www.w3.org/2000/svg"
	 xmlns="http://www.w3.org/2000/svg" xmlns:xlink="http://www.w3.org/1999/xlink" x="0px" y="0px" viewBox="0 0 400 400"
	 style="enable-background:new 0 0 400 400;" xml:space="preserve">
<path d="M328,8.9H72c-5.2,0-9.5,4.2-9.5,9.5v249.5c0,4.8,2.7,9.3,7.1,11.5c43.5,21.2-14.8,94.6,21.2,100
	c33.5-1.8-12.3-79.8,19.2-99.2c3.8-2.3,8.3-3.4,12.8-3.4H328c5.2,0,9.5-4.2,9.5-9.5V18.4C337.5,13.2,333.3,8.9,328,8.9z
	 M316.5,265.7h-233c-5.2,0-9.5-4.2-9.5-9.5V29.9c0-5.2,4.2-9.5,9.5-9.5h233c5.2,0,9.5,4.2,9.5,9.5v226.3
	C326,261.5,321.7,265.7,316.5,265.7z"/>
<path d="M285.9,112.7c-6.7-4.2-13.4-6.7-20-6.7v0c-5.5,0-10.3,0.6-14.6,1.2c-2.9,0.8-5.5,1.7-8,2.7c-2.1,0.8-4.4,0.8-6.3-0.4
	c-2.1-1.2-4.4-2.1-6.9-2.9c-3.6-0.6-7.3-1.2-11.5-1.2c-6.1,0-12.1,0.6-18.2,2.4c-4.8,1.5-9.2,3-13.2,4.5c-1.8,0.7-3,2.4-3,4.3
	c0,2.4-0.1,4.2-0.1,5.8c0,1.8,0,3,0,3.6V194c0,1.4,1.1,2.5,2.5,2.5h13.6c1.2,0,2.2-0.8,2.5-2c5.2-24,26.4-33.2,26.9-17.5l0,18
	c0,1.5,1.2,2.7,2.7,2.7l14.1,0c1.5,0,2.7-1.2,2.7-2.7v-56.8c0-2.4-0.3-5.1-0.4-6.1c-0.1-1-0.4-2.4-0.6-3.3c-0.4-1.6,0.5-3.2,2.1-3.7
	c1-0.3,2-0.6,3.2-0.9c1.8-0.6,4.2-0.6,7.3-0.6c6.1,0,9.7,1.2,12.1,4.2c2.4,3,3.6,7.3,3.6,12.7v54.8c0,1.9,1.5,3.5,3.5,3.5h13.1
	c1.9,0,3.5-1.5,3.5-3.5v-56C296.2,126.1,292.6,117,285.9,112.7z M202.1,154.7v-27.1c0-1.6,1-3,2.5-3.5l2.9-1
	c1.8-0.6,4.2-0.6,6.7-0.6c4.9,0,9.1,1.2,11.5,4.2c2.4,3,3.6,7.3,3.6,12.7l0,0c0,0.7-0.1,1.4-0.2,2.1c-2.4,10.7-21.1,34.8-26.3,18.6
	C202.4,158.4,202.1,156.5,202.1,154.7z"/>
<path d="M161.9,75.7h-53.8c-3.1,0-5.6,2.5-5.6,5.6v111.5c0,3.1,2.5,5.6,5.6,5.6h8.9c3.1,0,5.6-2.5,5.6-5.6l0-42.2c0-2.8,2.2-5,5-5
	h31.3c3.1,0,5.6-2.5,5.6-5.6l0-8.4c0-2.4-1.5-4.5-3.8-5.3c-9.8-3.3-31.8-13.9-36.6-28.3c-0.8-2.3,1-4.7,3.4-4.7c8.1,0,25.7,0,35.2,0
	c3.3,0,5.9-2.9,5.5-6.2l-0.8-6.5C167.1,77.8,164.7,75.7,161.9,75.7z M133.5,127.3h-6.9c-1.9,0-3.4-1.5-3.4-3.4v-3.8
	c0-2,1.8-3.5,3.7-3.2c6.1,0.9,16.3,7.6,9.5,10C135.5,127.2,134.5,127.3,133.5,127.3z"/>
</svg>
