<?xml version="1.0" encoding="utf-8"?>
<!-- Generator: Adobe Illustrator 23.0.1, SVG Export Plug-In . SVG Version: 6.00 Build 0)  -->
<svg version="1.1"
	 id="svg8" xmlns:cc="http://creativecommons.org/ns#" xmlns:dc="http://purl.org/dc/elements/1.1/" xmlns:inkscape="http://www.inkscape.org/namespaces/inkscape" xmlns:rdf="http://www.w3.org/1999/02/22-rdf-syntax-ns#" xmlns:sodipodi="http://sodipodi.sourceforge.net/DTD/sodipodi-0.dtd" xmlns:svg="http://www.w3.org/2000/svg"
	 xmlns="http://www.w3.org/2000/svg" xmlns:xlink="http://www.w3.org/1999/xlink" x="0px" y="0px" viewBox="0 0 400 400"
	 style="enable-background:new 0 0 400 400;" xml:space="preserve">
<sodipodi:namedview  bordercolor="#666666" borderopacity="1" fit-margin-bottom="20" fit-margin-left="0" fit-margin-right="0" fit-margin-top="0" gridtolerance="10" guidetolerance="10" id="namedview10" inkscape:current-layer="svg8" inkscape:cx="11.547987" inkscape:cy="41.712265" inkscape:pageopacity="0" inkscape:pageshadow="2" inkscape:window-height="705" inkscape:window-maximized="1" inkscape:window-width="1366" inkscape:window-x="-8" inkscape:window-y="245" inkscape:zoom="5.3514741" objecttolerance="10" pagecolor="#ffffff" showgrid="false">
	</sodipodi:namedview>
<g id="Layer_1">
</g>
<path d="M335.1,4.6H64.9c-5.5,0-10,4.5-10,10v263.2c0,5.1,2.9,9.8,7.5,12.1c45.9,22.3-15.6,99.8,22.4,105.5
	c35.4-1.9-13-84.2,20.3-104.7c4-2.5,8.7-3.6,13.5-3.6h216.5c5.5,0,10-4.5,10-10V14.6C345.1,9.1,340.6,4.6,335.1,4.6z M322.9,275.5
	H77.1c-5.5,0-10-4.5-10-10V26.8c0-5.5,4.5-10,10-10h245.8c5.5,0,10,4.5,10,10v238.8C332.9,271.1,328.4,275.5,322.9,275.5z"/>
<g>
	<path d="M290.6,114.1c-7-4.5-14.1-7-21.1-7v0c-5.8,0-10.9,0.6-15.4,1.3c-3.1,0.9-5.8,1.7-8.5,2.8c-2.2,0.9-4.6,0.8-6.7-0.4
		c-2.3-1.3-4.6-2.2-7.3-3.1c-3.8-0.6-7.7-1.3-12.2-1.3c-6.4,0-12.8,0.6-19.2,2.6c-5.1,1.5-9.7,3.2-14,4.7c-1.9,0.7-3.2,2.5-3.2,4.6
		c0,2.5-0.1,4.5-0.1,6.1c0,1.9,0,3.2,0,3.8v71.6c0,1.5,1.2,2.7,2.7,2.7h14.4c1.2,0,2.3-0.9,2.6-2.1c5.5-25.3,27.9-35.1,28.4-18.5
		l0,19c0,1.6,1.3,2.8,2.8,2.8l14.8,0c1.6,0,2.8-1.3,2.8-2.8V141c0-2.6-0.3-5.4-0.4-6.5c-0.1-1.1-0.4-2.5-0.6-3.5
		c-0.4-1.7,0.5-3.4,2.2-3.9c1-0.3,2.1-0.6,3.3-0.9c1.9-0.6,4.5-0.6,7.7-0.6c6.4,0,10.2,1.3,12.8,4.5s3.8,7.7,3.8,13.5v57.8
		c0,2,1.6,3.6,3.6,3.6h13.8c2,0,3.6-1.6,3.6-3.6v-59.1C301.5,128.2,297.7,118.6,290.6,114.1z M202.2,158.4v-28.6
		c0-1.7,1.1-3.2,2.7-3.7l3.1-1c1.9-0.6,4.5-0.6,7-0.6c5.1,0,9.6,1.3,12.2,4.5c2.6,3.2,3.8,7.7,3.8,13.5l0,0c0,0.8-0.1,1.5-0.2,2.2
		c-2.5,11.3-22.2,36.7-27.8,19.6C202.5,162.3,202.2,160.4,202.2,158.4z"/>
	<path d="M159.8,75.1h-56.7c-3.2,0-5.9,2.6-5.9,5.9v117.7c0,3.2,2.6,5.9,5.9,5.9h9.4c3.2,0,5.9-2.6,5.9-5.9l0-44.6
		c0-2.9,2.4-5.3,5.3-5.3h33c3.2,0,5.9-2.6,5.9-5.9l0-8.9c0-2.5-1.6-4.8-4-5.6c-10.4-3.4-33.5-14.7-38.6-29.9c-0.8-2.4,1-4.9,3.6-4.9
		c8.6,0,27.2,0,37.1,0c3.5,0,6.2-3.1,5.8-6.6l-0.8-6.8C165.3,77.3,162.8,75.1,159.8,75.1z M129.8,129.5h-7.3c-2,0-3.6-1.6-3.6-3.6
		v-4c0-2.1,1.9-3.7,3.9-3.4c6.4,1,17.2,8,10,10.6C131.9,129.4,130.9,129.5,129.8,129.5z"/>
</g>
</svg>
