<?xml version="1.0" encoding="utf-8"?>
<!-- Generator: Adobe Illustrator 22.0.0, SVG Export Plug-In . SVG Version: 6.00 Build 0)  -->
<!DOCTYPE svg PUBLIC "-//W3C//DTD SVG 1.1//EN" "http://www.w3.org/Graphics/SVG/1.1/DTD/svg11.dtd">
<svg version="1.1" id="Layer_1" xmlns="http://www.w3.org/2000/svg" xmlns:xlink="http://www.w3.org/1999/xlink" x="0px" y="0px"
	 viewBox="0 0 400 400" enable-background="new 0 0 400 400" xml:space="preserve">
<g>
	<path d="M8.6,200.2C7.9,95.3,94.8,5,206.3,8.6C307.4,12,392.2,92.6,391.4,201.4c-0.8,105.9-82.9,190.1-191.9,190.1
		C93,391.4,9.1,306.4,8.6,200.2z M170.8,110.5c-7.2,0-11.3,0.2-16.2,0.4c-4.3,0.2-7.8,2.2-9.6,3.6c-9.6,7.2-13.7,15.1-11.4,27.5
		c0.8,4.5,1.5,9,1.4,13.5c-0.1,7.4-4.4,12.3-10.9,13.7c-6.1,1.3-13-1.7-15.6-8c-1.9-4.4-2.3-9.5-3.1-14.3
		c-1.2-7.2-1.1-11.9-2.9-21.6s-3.2-16.6-4.4-26.8c-1.1-10.3-1.3-10.7-2-13.6c-1.4-6.5-7.5-8.8-12-4.1c-7.5,7.9-15.1,16-21.4,24.8
		c-17.3,24.1-26.7,51.5-29.1,80.9c-2.3,28.8,2.6,56.6,14.8,83.2c11.4,24.8,28,45.4,49.2,62.2c14.9,11.8,31.7,20.1,49.5,26.7
		c24.4,9,45-0.2,52.4-24.4c7.2-23.7,1.7-45.4-12.8-64.9c-9.9-13.4-15.6-28-16-44.7c-0.1-3.9,1.6-5.4,5-5.8c2.5-0.3,5-0.8,7.5-1.1
		c15.6-1.7,28-9.1,36.9-21.8c17.9-25.6,11.3-59.6-14.6-76.5C194,111.7,182.6,110.5,170.8,110.5z M188,85.5
		c18.7,1.5,37.4,12.2,50.6,28.4c10.8,13.2,16.9,28.3,18,45.2c1.5,22-5.5,41.4-19.4,58.5c-10.3,12.7-10.4,40,0.1,52.6
		c1.8,2.1,6.8,3,9.6,1.4c1.1-0.6,2.1-2.6,2.2-4.7c0.2-4.3,1.6-5.4,5.5-3.3c11.9,6.5,23.9,12.9,35.7,19.5c1.7,0.9,4.1,2.6,4.1,4.1
		c0,1.6-2.2,3.6-3.9,4.6c-11.5,6.4-23.1,12.7-34.7,18.9c-6.5,3.5-6.6,3.3-7.6-4.1c-0.1-0.7-0.5-1.3-0.8-2c-0.3-0.6-1-0.8-1.6-0.5
		c-0.6,0.3-1.3,0.6-1.7,1.2c-6.3,8.2-5.3,23.6,2.1,32.8c7.6,9.6,21,13.9,30.7,9.4c16.5-7.6,30.9-18.5,43-31.7
		c9.9-10.7,18.8-22.8,25.9-35.5c16.5-29.4,23.4-61.1,20.1-95.1c-2.2-22.4-8.2-43.5-18.8-63.3c-12.1-22.7-28.2-42-49.5-56.7
		c-5-3.5-7.9-3.1-10.2,2.4c-1.9,4.4-2.7,9.4-3.3,14.3c-0.7,5.3-0.2,10.7-0.9,15.9c-0.9,6.4-4.1,11.7-10.7,13.8
		c-6.9,2.2-12.9,0.1-18.1-4.6c-5.8-5.3-8.6-12.2-9.9-19.8c-1.2-7-1.9-14.1-3.5-21c-3.7-15.4-22.7-31.9-36.5-32.7
		c-20.7-1.2-40.5,3-60.1,9.1c-10.9,3.4-19,9.6-21.1,21.5c-2,11,5.5,20.2,16.6,20.5c7.3,0.2,14.6-0.3,22-0.2
		C169.4,84.6,169.3,84,188,85.5z M209.6,243.1l-2.5-2.5c-0.5-0.5-1.2-0.5-1.6-0.1c-1,0.9-1.8,1.8-1.8,3c0,1.7,1,2.7,1.8,4.3
		c0.5,0.8,1.6,0.9,2.2,0.2l2-2.3C210.3,244.9,210.3,243.8,209.6,243.1z"/>
</g>
</svg>
