<?xml version="1.0" encoding="utf-8"?>
<!-- Generator: Adobe Illustrator 22.0.0, SVG Export Plug-In . SVG Version: 6.00 Build 0)  -->
<!DOCTYPE svg PUBLIC "-//W3C//DTD SVG 1.1//EN" "http://www.w3.org/Graphics/SVG/1.1/DTD/svg11.dtd">
<svg version="1.1" id="Layer_1" xmlns="http://www.w3.org/2000/svg" xmlns:xlink="http://www.w3.org/1999/xlink" x="0px" y="0px"
	 viewBox="0 0 400 400" enable-background="new 0 0 400 400" xml:space="preserve">
<g>
	<path d="M293.5,218.4c0,53.1-0.1,106.3,0.1,159.4c0,6.6-1.2,8.7-8.7,9s-19.5,2.5-24.9-2.4c-4.7-4.2-3.9-17.3-3.9-26.5
		c-0.1-32.1,0-64.1-0.1-96.2l0,0c0-5-6.1-7.5-9.6-4c-0.1,0.1-0.3,0.3-0.4,0.4c-18.5,20.7-28.5,44.7-27.8,72.9
		c0.4,16.1-0.2,32.3,0.2,48.4c0.1,4.2-1.9,7.2-7.6,7.2c-5.6,0-14.9,0-22.2,0c-7.3,0-7.3-3.4-7.3-8.7c0.1-46.3,0.1-92.6,0.1-138.9
		c0-10.7-0.2-21.4,0.1-32.1c0.1-4.5-1.3-6.1-6-6.2c-21.8-0.3-31.8,11.5-27.9,32.9c1.6,8.7,2.9,17.5,3.1,26.3
		c0.1,7.7-3.8,14-11.9,15.6c-8.7,1.8-15.5-2.9-17.3-10.5c-2.2-9.5-2.8-19.8-1.8-29.6c1.4-13.3,4.7-26.6-0.9-39.4
		c-2.2-5.1-5.9-10.4-10.4-13.7C76.3,158.8,62,119.8,72,81.7c9.5-36.2,41.6-63.8,79.8-68.7c2.5-0.3,5-0.4,7.5-0.4
		c54.1,0,108.1,0.1,162.2-0.2c7.1,0,9.5,2.5,9.5,9s-0.1,12.9-0.1,19.6s-0.9,8.7-8.7,8.7s-13.6-0.2-20.5-0.2c-6.9,0-8.4,2.3-8.3,8.7
		C293.6,111.5,293.5,164.9,293.5,218.4z M218.3,137.7c0.1,0,0.2,0,0.2,0c0,28.2-0.1,56.4,0.1,84.6c0,0,0,0.1,0,0.1
		c0.1,4.4,6.1,6.1,8.6,2.5c0-0.1,0.1-0.1,0.1-0.2c18.5-28.3,27.5-59.6,28.6-93.1c0.8-24.6,0-49.2,0.3-73.9c0.1-6.2-1.5-8.2-8.6-8.2
		c-7.1,0-14.9-0.1-21.4-0.1s-8.1,2.2-8,8.2C218.4,84.3,218.3,111,218.3,137.7z M159.5,146c-0.3-1.7-0.7-5.9-1.9-9.8
		c-6.4-20.1-17-37.2-35.7-48c-9.3-5.4-12.4-3.6-14.6,6.7c-6,27.8,10.3,56,37.3,64.6C156.5,163.2,159.6,160.9,159.5,146z M181.2,71.6
		c0,0,0.1,0,0.1,0c0-1.8,0-3.6,0-5.3c0-18.4-0.1-18.8-18.6-16.4c-3.7,0.5-8.5,4.5-9.8,8c-4.4,12.1,6.8,32.1,19.1,36.2
		c6.3,2.1,9-0.3,9.1-6.5C181.3,82.3,181.2,77,181.2,71.6z"/>
</g>
</svg>
