<?xml version="1.0" encoding="utf-8"?>
<!-- Generator: Adobe Illustrator 23.0.6, SVG Export Plug-In . SVG Version: 6.00 Build 0)  -->
<svg version="1.1" id="Layer_1" xmlns="http://www.w3.org/2000/svg" xmlns:xlink="http://www.w3.org/1999/xlink" x="0px" y="0px"
	 viewBox="0 0 400 400" style="enable-background:new 0 0 400 400;" xml:space="preserve">
<path d="M146.4,253c-0.1,0.7-0.2,1.5-0.2,2.2c-0.3,2.9-0.3,5.9-0.8,8.8c-0.6,3.6-2.3,6.5-6,7.7c-3.8,1.2-6.9-0.3-9.5-3
	c-2.5-2.6-3.9-5.8-4.4-9.4c-0.4-3-0.6-8.9-0.8-14.6c-0.2-5.7-1.6-12.7-3.5-22.2c-1.9-9.5-4.9-16.1-8.2-25.4
	c-7.3-20.2-16.8-39.3-28.3-57.3c-5.4-8.5-11.7-16.3-17.6-24.5c-0.8-1.1-1.7-2.1-2.4-3.3c-1.3-2.4-0.1-4.8,2.6-5.2
	c1.1-0.2,2.3-0.1,3.5-0.1c18.2,0,36.5,0.1,54.7-0.1c4.5,0,8.1,1.2,10.8,4.9c5.2,7.1,10.4,14.2,15.6,21.3l0,0c0.8,1,2.4,0.7,2.7-0.6
	c5-23.9,7.3-48.1,8.4-72.6c0.1-1.9,1.6-3.4,3.5-3.4c0,0,0,0,0,0c20.5,0,41,0,61.5,0c2.4,0,4.1,0.6,5.3,2.8c0.8,1.4,1.9,2.6,2.9,3.9
	c2.6,3.6,6.2,4.5,10.2,2.6c3.1-1.4,5.3-3.7,6.9-6.6c1.2-2.2,2-4.2,2.7-6.9c0.7-3,0.7-5.5,0.2-8.1c-2.1-9.6-4.3-19.1-6.4-28.6
	c-0.3-1.2-0.4-2.5-0.4-3.7c-0.1-3.2,2.2-6,5.5-6.5c0.8-0.1,1.6-0.1,2.4-0.1c17.3,0,34.5,0.1,51.8-0.1c6.4-0.1,9.9,4,10.7,9.3
	c0.9,6.1,2.6,12.1,3.7,18.2c1.5,8.1,3,16.2,4.3,24.4c1.1,6.6,2.1,13.3,2.9,19.9c0.7,5.5,1.2,11,1.7,16.6c0.6,5.7,1.1,11.4,1.6,17.1
	c0.3,4.2,0.9,9,1.3,16.4s0.9,18.6,0.9,24.1s-0.2,11.9-0.4,17.3c-0.2,5-0.8,10-1.3,15c-0.8,8.8-1.5,17.7-2.5,26.5
	c-0.8,6.7-1.9,13.3-3.1,19.9c-1.3,7.1-2.7,14.3-4.2,21.4c-1.2,5.7-2.6,11.4-4,17c-0.7,3-1.6,6.1-2.5,9.1c-0.4,1.6-1.4,2.3-3.2,2.2
	c-2.2-0.1-4.3,0.1-6.5-0.1c-3-0.2-5.7,0.6-8.3,1.7c-4.5,1.9-7.1,5.4-7.5,10.3c-0.3,4.3-0.3,8.6-0.7,12.9c-0.6,5.6-3.1,10.3-8.4,13
	c-8.6,4.3-17.7-0.5-18.9-10c-0.3-2.9-0.1-5.9-0.2-8.9c0-2.7,0.2-5.4-0.1-8.1c-0.9-7.5-3.9-10.3-11.8-11c-0.1,0-0.3,0-0.4,0
	c-1.7-0.1-3.1-1.4-3.4-3c-0.2-1.2-0.4-2.3-0.5-3.5c-1.5-22.2-9-42-23.3-59.1c-2.5-2.9-5.7-5.2-8.5-7.8c-0.4-0.4-0.9-0.6-1.4-0.9
	c-5.8-3.8-12.1-1.3-14.4,5.2c-1.9,5.5-4.2,10.9-6.2,16.4c-0.6,1.7-1.5,2.4-3.3,2.5c-4.9,0.2-9.5,1.8-13.9,4c-5.9,3-9,7.7-9.9,14.2
	c-0.2,1.6-0.5,3.1-0.9,4.7c-2,7.4-8.1,9-13.2,3.2c-1-1.1-1.9-2.3-2.9-3.4l0,0C149.1,250.3,146.6,251.1,146.4,253z M261.4,103.4
	c1,1.8,3.8,0.9,3.6-1.2c-1-9.6-2.2-19.2-3.8-29c-0.2-1.4-1.9-2-3-1c0,0,0,0,0,0c-2.9,2.8-5,6.1-6.6,9.8c-0.9,2-0.6,3.7,0.5,5.6
	c3,4.9,5.8,9.9,8.7,14.9C261.1,102.7,261.2,103,261.4,103.4z M223.9,172.7c-1.8-4.6-3.7-9.3-5.6-14.2c-0.3-0.7-1.4-0.8-1.7-0.1
	c0,0,0,0.1,0,0.1c-1.3,4.7-2.6,9.5-3.7,14.3c-0.2,0.9,0.4,2.4,1.1,3c1.7,1.6,5.1,2,8,1.1C223.6,176.4,224.6,174.4,223.9,172.7z"/>
</svg>
