<?xml version="1.0" encoding="UTF-8" standalone="no"?>
<svg
   xmlns:dc="http://purl.org/dc/elements/1.1/"
   xmlns:cc="http://creativecommons.org/ns#"
   xmlns:rdf="http://www.w3.org/1999/02/22-rdf-syntax-ns#"
   xmlns:svg="http://www.w3.org/2000/svg"
   xmlns="http://www.w3.org/2000/svg"
   viewBox="0 0 682.66669 682.66669"
   height="682.66669"
   width="682.66669"
   xml:space="preserve"
   id="svg2"
   version="1.1"><metadata
     id="metadata8"><rdf:RDF><cc:Work
         rdf:about=""><dc:format>image/svg+xml</dc:format><dc:type
           rdf:resource="http://purl.org/dc/dcmitype/StillImage" /></cc:Work></rdf:RDF></metadata><defs
     id="defs6"><clipPath
       id="clipPath18"
       clipPathUnits="userSpaceOnUse"><path
         id="path16"
         d="M 0,512 H 512 V 0 H 0 Z" /></clipPath></defs><g
     transform="matrix(1.3333333,0,0,-1.3333333,0,682.66667)"
     id="g10"><g
       id="g12"><g
         clip-path="url(#clipPath18)"
         id="g14"><g
           transform="translate(293.0049,239.2695)"
           id="g20"><path
             id="path22"
             style="fill:#000000;fill-opacity:1;fill-rule:nonzero;stroke:none"
             d="m 0,0 c -2.833,7.129 -5.727,14.413 -8.761,22.05 -0.452,1.137 -2.101,1.302 -2.631,0.198 -0.029,-0.06 -0.052,-0.121 -0.069,-0.184 -1.994,-7.363 -4.063,-14.712 -5.733,-22.151 -0.317,-1.408 0.576,-3.663 1.683,-4.711 2.689,-2.544 7.907,-3.088 12.394,-1.73 C -0.369,-5.698 1.06,-2.668 0,0 m 58.369,107.774 c 1.623,-2.811 5.929,-1.407 5.58,1.82 -1.609,14.88 -3.346,29.831 -5.923,45.141 -0.363,2.162 -3.027,3.06 -4.597,1.53 -0.01,-0.009 -0.02,-0.018 -0.029,-0.028 -4.434,-4.351 -7.801,-9.404 -10.219,-15.154 -1.327,-3.151 -0.952,-5.791 0.797,-8.676 4.622,-7.626 9.026,-15.384 13.502,-23.096 0.297,-0.512 0.594,-1.024 0.889,-1.537 m -178.76,-232.545 c -0.135,-1.157 -0.263,-2.315 -0.372,-3.474 -0.43,-4.58 -0.487,-9.213 -1.211,-13.742 -0.884,-5.534 -3.576,-10.144 -9.27,-11.904 -5.833,-1.802 -10.7,0.485 -14.761,4.651 -3.942,4.043 -6.113,9.051 -6.798,14.561 -0.583,4.694 -0.873,13.81 -1.184,22.652 -0.31,8.841 -2.504,19.671 -5.501,34.445 -2.998,14.773 -7.602,25.089 -12.808,39.493 -11.324,31.324 -26.083,61.055 -43.979,89.11 -8.388,13.149 -18.206,25.387 -27.383,38.033 -1.228,1.693 -2.701,3.244 -3.695,5.062 -2.082,3.806 -0.224,7.426 4.053,8.039 1.787,0.256 3.624,0.206 5.438,0.207 28.358,0.016 56.716,-0.109 85.072,0.114 7.001,0.054 12.557,-1.928 16.712,-7.614 8.059,-11.028 16.143,-22.039 24.227,-33.048 l 0.026,-0.036 c 1.198,-1.628 3.771,-1.078 4.182,0.902 7.722,37.204 11.335,74.77 13.116,112.808 0.137,2.938 2.521,5.317 5.462,5.325 h 0.049 c 31.85,0.018 63.701,-0.031 95.55,0.073 3.726,0.012 6.407,-0.93 8.275,-4.323 1.2,-2.181 2.952,-4.056 4.45,-6.073 4.097,-5.518 9.578,-6.924 15.853,-4.077 4.766,2.162 8.285,5.733 10.775,10.199 1.892,3.395 3.171,6.538 4.124,10.67 1.084,4.697 1.161,8.508 0.271,12.638 -3.198,14.847 -6.673,29.634 -9.978,44.457 -0.422,1.895 -0.591,3.87 -0.658,5.816 -0.171,5.026 3.488,9.333 8.532,10.105 1.235,0.189 2.507,0.193 3.761,0.194 26.821,0.016 53.645,-0.221 80.461,0.15 9.966,0.138 15.318,-6.168 16.566,-14.451 1.428,-9.477 4.003,-18.775 5.789,-28.207 2.384,-12.593 4.596,-25.222 6.68,-37.869 1.696,-10.296 3.248,-20.622 4.578,-30.971 1.1,-8.561 1.811,-17.171 2.644,-25.765 0.862,-8.879 1.744,-17.757 2.462,-26.649 0.528,-6.534 1.393,-13.932 2.037,-25.49 0.645,-11.558 1.376,-28.863 1.376,-37.477 0,-8.614 -0.298,-18.518 -0.672,-26.886 -0.347,-7.775 -1.247,-15.527 -1.962,-23.284 -1.265,-13.749 -2.333,-27.524 -3.945,-41.233 -1.22,-10.362 -3.003,-20.668 -4.82,-30.948 -1.963,-11.104 -4.121,-22.18 -6.452,-33.213 -1.871,-8.857 -4.077,-17.645 -6.234,-26.439 -1.162,-4.738 -2.534,-9.423 -3.809,-14.132 -0.683,-2.522 -2.233,-3.579 -4.921,-3.426 -3.342,0.191 -6.718,-0.159 -10.052,0.091 -4.628,0.346 -8.845,-0.926 -12.974,-2.699 -7.047,-3.029 -11.059,-8.351 -11.59,-16.053 -0.46,-6.685 -0.401,-13.418 -1.149,-20.065 -0.987,-8.779 -4.867,-15.998 -13.116,-20.166 -13.31,-6.727 -27.532,0.729 -29.292,15.52 -0.541,4.547 -0.233,9.198 -0.276,13.802 -0.04,4.187 0.373,8.423 -0.119,12.554 -1.389,11.69 -6.055,16.034 -18.338,17.04 -0.215,0.017 -0.431,0.031 -0.648,0.04 -2.636,0.111 -4.82,2.098 -5.296,4.693 -0.335,1.828 -0.627,3.603 -0.749,5.389 -2.351,34.475 -13.991,65.314 -36.257,91.862 -3.809,4.543 -8.796,8.102 -13.268,12.083 -0.617,0.549 -1.414,0.894 -2.114,1.353 -9.024,5.944 -18.852,2.09 -22.418,-8.008 -3.017,-8.539 -6.539,-16.899 -9.576,-25.431 -0.959,-2.693 -2.4,-3.738 -5.148,-3.847 -7.679,-0.301 -14.732,-2.838 -21.532,-6.284 -9.096,-4.61 -13.964,-12.038 -15.417,-22.019 -0.355,-2.433 -0.82,-4.885 -1.473,-7.268 -3.176,-11.574 -12.542,-13.921 -20.558,-4.988 -1.546,1.723 -2.974,3.595 -4.519,5.317 l -0.053,0.06 c -2.04,2.274 -5.819,1.086 -6.176,-1.949" /></g></g></g></g></svg>