<?xml version="1.0" encoding="utf-8"?>
<!-- Generator: Adobe Illustrator 23.0.6, SVG Export Plug-In . SVG Version: 6.00 Build 0)  -->
<svg version="1.1"
	 id="Layer_1" xmlns:cc="http://creativecommons.org/ns#" xmlns:dc="http://purl.org/dc/elements/1.1/" xmlns:inkscape="http://www.inkscape.org/namespaces/inkscape" xmlns:rdf="http://www.w3.org/1999/02/22-rdf-syntax-ns#" xmlns:sodipodi="http://sodipodi.sourceforge.net/DTD/sodipodi-0.dtd" xmlns:svg="http://www.w3.org/2000/svg"
	 xmlns="http://www.w3.org/2000/svg" xmlns:xlink="http://www.w3.org/1999/xlink" x="0px" y="0px" viewBox="0 0 400 400"
	 style="enable-background:new 0 0 400 400;" xml:space="preserve">
<g>
	<path d="M313.7,4.8H84.2C65,4.8,49.5,20.3,49.5,39.4V178c0,11.9,5.6,22.2,14.5,28.4l-0.2,0.1c72.5,38.2-16.8,184.3,45.8,188.7
		c72.2-2.6,20.5-111,41.8-167.5c3.4-9.1,12.1-15,21.8-15h142.7c19.1,0,34.6-15.5,34.6-34.6V39.4C348.3,19.9,333.2,4.8,313.7,4.8z
		 M328.8,175.8c0,6.5-4.3,13-13,13h-9.1c-29.5-0.4-52.2-2.5-50.4-27.6c0.1-1.5,0.4-2.9,0.7-4.3c0.2-0.9,0.3-1.8,0.3-2.7
		c0-6-5-10.8-11-10.8c-26.3,0-113.9,0-140.4,0c-6.1,0-11.1,4.9-11,11c0.1,6.4,4.4,10.6,10.8,10.6h58.5c10.5,0,21,1.1,31.3,3.2
		c28.5,6,49.8,13.4,33.2,18.8c-3.7,1.2-7.7,1.8-11.6,1.8c-11.3,0-41.5,0-58.4,0c-7.5,0-14.7,3.1-19.9,8.7l-16,17.2
		c-1.5,1.6-4.1,0.5-4.1-1.6v-16.4c0-4.4-3.5-7.9-7.9-7.9H84.2c-6.5,0-13-4.3-13-13V39.4c0-6.5,4.3-13,13-13l66.8,0
		c2.1,0,4.1,0.3,6.1,0.9c12.9,4.1,1,15.2-12.5,21.4c-5.3,2.5-11.2,3.7-17.1,3.7H106c-6.1,0-11.1,4.9-11,11
		c0.1,6.4,4.4,10.6,10.8,10.6h92.9c6.1,0,11.1-4.9,11-11c-0.1-5.8-3.6-9.8-9.1-10.5c-2.2-0.3-4.5-0.5-6.7-1
		c-23.5-5.2-2.8-15.2,22.1-21.7c8.7-2.3,17.7-3.4,26.7-3.4l73,0c6.5,0,13,4.3,13,13V175.8z"/>
	<path d="M292,97.9H105.8c-6.5,0-10.8,4.3-10.8,10.8s4.3,10.8,10.8,10.8H292c6.5,0,10.8-4.3,10.8-10.8S298.5,97.9,292,97.9z"/>
</g>
</svg>
