<?xml version="1.0" encoding="UTF-8" standalone="no"?>
<svg
   xmlns:dc="http://purl.org/dc/elements/1.1/"
   xmlns:cc="http://creativecommons.org/ns#"
   xmlns:rdf="http://www.w3.org/1999/02/22-rdf-syntax-ns#"
   xmlns:svg="http://www.w3.org/2000/svg"
   xmlns="http://www.w3.org/2000/svg"
   viewBox="0 0 682.66669 682.66669"
   height="682.66669"
   width="682.66669"
   xml:space="preserve"
   id="svg2"
   version="1.1"><metadata
     id="metadata8"><rdf:RDF><cc:Work
         rdf:about=""><dc:format>image/svg+xml</dc:format><dc:type
           rdf:resource="http://purl.org/dc/dcmitype/StillImage" /></cc:Work></rdf:RDF></metadata><defs
     id="defs6"><clipPath
       id="clipPath18"
       clipPathUnits="userSpaceOnUse"><path
         id="path16"
         d="M 0,512 H 512 V 0 H 0 Z" /></clipPath></defs><g
     transform="matrix(1.3333333,0,0,-1.3333333,0,682.66667)"
     id="g10"><g
       id="g12"><g
         clip-path="url(#clipPath18)"
         id="g14"><g
           transform="translate(448.5723,383.9897)"
           id="g20"><path
             id="path22"
             style="fill:#000000;fill-opacity:1;fill-rule:nonzero;stroke:none"
             d="m 0,0 c 0.448,-4.715 4.398,-8.33 9.135,-8.324 7.108,0.008 14.18,0.02 21.253,-0.014 9.526,-0.048 12.783,-3.406 12.795,-13.126 0.017,-14.01 0.018,-28.02 0,-42.031 -0.013,-9.708 -3.239,-13.005 -12.868,-13.009 -46.953,-0.021 -93.906,-0.01 -140.859,-0.011 h -1.944 c -3.82,0 -7.305,-2.152 -9.039,-5.555 -3.651,-7.162 -4.059,-16.908 -0.348,-23.698 1.05,-1.922 3.81,-3.435 6,-3.435 h 3.22 c 47.332,0 94.664,0.005 141.996,-0.004 11.121,-0.002 13.837,-2.689 13.845,-13.641 0.008,-14.199 0.038,-28.4 -0.016,-42.599 -0.03,-8.1 -3.632,-11.819 -11.777,-11.878 -15.714,-0.114 -31.432,-0.239 -47.141,0.064 -5.128,0.098 -7.595,-2.122 -9.205,-6.505 -2.299,-6.257 -2.084,-13.097 0.752,-19.609 1.662,-3.815 5.511,-6.208 9.673,-6.208 6.566,0 13.332,0 20.097,0 7.621,-0.002 15.244,0.064 22.866,-0.002 8.144,-0.073 14.713,-6.663 14.743,-14.807 0.048,-13.532 0.022,-27.064 0.004,-40.596 -0.014,-9.633 -3.233,-12.806 -13.025,-12.807 -89.174,-0.008 -178.347,-0.005 -267.521,-0.005 -12.306,0 -24.616,-0.187 -36.916,0.098 -4.373,0.102 -7.687,-1.258 -9.16,-5.093 -2.417,-6.292 -4.552,-12.748 -6.097,-19.302 -1.425,-6.05 -1.38,-12.46 -2.94,-18.463 -2.995,-11.526 -12.004,-14.584 -21.728,-7.682 -3.227,2.291 -6.072,5.119 -9.108,7.682 -6.01,5.071 -8.788,4.719 -13.204,-1.95 -2.611,-3.943 -4.681,-8.265 -7.489,-12.049 -2.68,-3.611 -5.599,-7.268 -9.122,-9.985 -7.631,-5.886 -17.022,-4.068 -20.933,4.728 -2.932,6.596 -3.898,14.101 -5.457,21.262 -1.486,6.824 -1.961,13.929 -4.023,20.555 -4.012,12.899 -14.772,20.183 -28.319,20.198 -1.515,0.002 -3.029,-0.008 -4.544,0.003 -8.874,0.064 -11.881,3.038 -11.907,11.979 -0.043,14.389 -0.031,28.777 -0.006,43.167 0.017,10.209 2.894,13.059 13.28,13.06 118.898,0.011 229.729,0.009 348.628,0.009 h 11.794 c 3.003,0 5.55,1.664 5.263,4.453 -0.185,1.811 -0.887,4.465 -1.301,5.997 -0.984,3.635 -1.723,5.072 -3.118,8.58 -3.663,9.201 -9.206,13.646 -20.417,13.508 -56.789,-0.705 -113.592,-0.326 -170.391,-0.324 -1.893,0 -3.79,-0.053 -5.679,0.043 -6.771,0.348 -10.04,3.566 -10.082,10.369 -0.097,15.904 -0.104,31.808 0.005,47.711 0.046,6.811 3.284,9.939 10.261,10.004 12.285,0.114 24.572,0.02 36.857,0.049 6.441,0.015 9.655,2.669 10.706,9.158 1.351,8.34 1.592,13.416 -4.476,19.485 -3.12,3.12 -6.678,4.035 -10.344,4.035 -10.852,0 -15.99,0 -27.004,0 -14.724,0.002 -16.044,1.345 -16.044,16.32 -10e-4,12.874 -0.009,25.749 0.002,38.623 0.009,10.779 2.502,13.239 13.488,13.241 56.798,0.009 113.597,0.005 170.396,0.005 h 2.512 c 3.305,0 5.915,2.805 5.69,6.102 -0.149,2.208 -0.315,4.328 -0.571,6.436 -0.224,1.848 -0.98,3.651 -1.631,5.425 -5.07,13.816 -6.065,14.5 -20.744,14.5 -73.838,0 -147.676,-0.083 -221.513,0.145 -6.453,0.02 -10.579,-2.314 -14.396,-7.064 -9.456,-11.766 -11.25,-25.693 -12.283,-40.014 -0.84,-11.635 1.906,-21.225 11.141,-29.406 11.459,-10.149 21.858,-21.497 32.655,-32.386 7.467,-7.532 7.491,-11.191 0.152,-18.549 -23.531,-23.592 -47.117,-47.129 -70.62,-70.749 -3.293,-3.31 -6.776,-5.688 -11.558,-3.841 -5.055,1.953 -6.001,6.282 -5.997,11.145 0.028,42.41 0.01,84.819 0.007,127.229 0,5.679 -0.05,11.358 0.017,17.037 0.091,7.763 1.28,10.412 6.958,12.301 2.602,0.866 4.636,2.996 5.179,5.683 1.337,6.621 0.16,15.56 -3.143,23.035 -1.437,3.252 -4.682,5.308 -8.237,5.402 -0.277,0.008 -0.555,0.013 -0.833,0.014 -11.36,0.042 -22.721,-0.054 -34.079,0.06 -7.067,0.07 -10.442,3.409 -10.493,10.519 -0.103,14.633 -0.112,29.267 -0.017,43.9 0.047,7.402 6.084,13.366 13.485,13.361 h 0.137 c 147.867,10e-4 295.734,10e-4 443.6,-0.001 1.704,0 3.416,0.075 5.11,-0.059 5.217,-0.413 9.004,-3.912 9.057,-9.096 C 43.258,66.523 43.257,50.239 43.11,33.958 43.06,28.289 39.102,24.499 33.372,24.215 29.217,24.01 25.044,24.156 20.879,24.133 8.151,24.062 -1.165,12.269 0,0" /></g></g></g></g></svg>