<?xml version="1.0" encoding="utf-8"?>
<!-- Generator: Adobe Illustrator 23.0.1, SVG Export Plug-In . SVG Version: 6.00 Build 0)  -->
<svg version="1.1"
	 id="svg4" xmlns:cc="http://creativecommons.org/ns#" xmlns:dc="http://purl.org/dc/elements/1.1/" xmlns:inkscape="http://www.inkscape.org/namespaces/inkscape" xmlns:rdf="http://www.w3.org/1999/02/22-rdf-syntax-ns#" xmlns:sodipodi="http://sodipodi.sourceforge.net/DTD/sodipodi-0.dtd" xmlns:svg="http://www.w3.org/2000/svg"
	 xmlns="http://www.w3.org/2000/svg" xmlns:xlink="http://www.w3.org/1999/xlink" x="0px" y="0px" viewBox="0 0 400 400"
	 style="enable-background:new 0 0 400 400;" xml:space="preserve">
<sodipodi:namedview  bordercolor="#666666" borderopacity="1" gridtolerance="10" guidetolerance="10" id="namedview6" inkscape:current-layer="svg4" inkscape:cx="-40.775901" inkscape:cy="87.00287" inkscape:pageopacity="0" inkscape:pageshadow="2" inkscape:window-height="1017" inkscape:window-maximized="1" inkscape:window-width="1920" inkscape:window-x="1358" inkscape:window-y="-8" inkscape:zoom="2.8284271" objecttolerance="10" pagecolor="#ffffff" showgrid="false">
	</sodipodi:namedview>
<path d="M395.2,196.6c-0.4-3.7-0.3-4.9-0.7-6.5c-1.8-7.6-5.5-13.3-12.6-16.9c-13.3-6.8-27.3-10.5-41.7-13.8
	c-17.6-4-35.3-7.2-53.1-9.8c-4.7-0.7-9.2-1.9-13.6-3.6c-10-4-2.8-4.6,6.3-8c3.1-1.1,6.1-2.3,9.2-3.3c7.3-2.4,14.2-6.2,20.5-12
	c8.4-7.9,13.2-17.6,16.1-28.2c0.3-1.1,1.3-2,2.5-1.8c7.7,0.8-9.6,40.8,1.5,51.1c2.4,2.3,6.2,2.6,9,0.8
	c15.5-9.7-25.5-68.4,12.9-114.4c0,0,0,0,0,0c0.5-0.6,1-1.2,1.7-2.1c-8.4-2.6-16.8-2.9-25-1.4c-31.5,5.8-55.8,22.9-70.5,51.7
	c-5.4-1.4-10.8-2.6-16.1-4.2c-1-0.3-1.7-2-2.2-3.2c-5-14.3-12.2-26.7-22.1-36.7c-7.1-7.2-18-14.4-25.9-17.4s-12-4.6-24.5-4.6
	s-23.1,0.3-23.1,0.3c-5.1,0-10.2,0.8-15.3,1.8c-61.1,12.8-108.8,60-120,121.6c-10.7,59,2.8,111.3,36.9,157.8
	c7.6,10.4,13.4,22.1,16.2,34.7c8.4,37.3-9.2,56.1,11.1,59.5c24.4-0.7-12.8-36.4,26.5-55.4c2-1,4.1-1.7,6.2-2.3
	c7.6-2.4,14.8-8.5,19.3-16.3c0.4-0.7,1.5-0.6,1.8,0.1c3.4,8.9,7.1,17.5,10,26.4c3.1,9.3,14.2,13.5,21,13.1c1.3-0.1,2.9,1.1,3.8,0.4
	c6.1-4.6,10.9,3,16.1,3h0.2c6,0,11.9-1.5,17-4.5c2.7-1.6,5.1-3.5,7.1-6.2c0.5-0.7,2.6-0.9,4-0.7c7.7,0.8,14.9-1,21.4-5.3
	c4.4-3,7.5-6.9,8.9-11.8c0.6-2,1.8-3.8,3.7-4.7c5.1-2.5,8.2-7.4,8.4-14.2c0.1-3.6-0.2-7.6-1.3-11c-0.9-2.8-1.3-5.8-0.6-8.7
	c2.3-9.8,13.8-16.9,28.3-21c6-1.7,12.2-2.2,18.4-1.9c1.6,0.1,3.2,0.1,4.8-0.1c8.9-0.6,17.3-2.4,22.7-10c1.1-1.6,3-2.5,4.9-2.5
	c5.9,0.1,11.9,0.5,17.7-0.3c3.1-0.4,6.1-1.4,9.1-2.7c1.4-0.6,2.9-1.1,4.4-1.4c29.5-5.3-12.6,69.6,19.9,71.1
	c25.4-0.1-8.6-58.1,9.5-94.7c1.1-2.2,2.5-4.2,4-6.1c0.9-1.2,1.7-2.5,2.3-3.8c1.6-3.3,2.7-6.1,3.2-10S395.6,200.4,395.2,196.6z
	 M154.6,117.2c-11.4,0-20.5-9.2-20.4-20.6c0.1-11.4,9.4-20.6,20.6-20.6c11.4,0.1,20.4,9.2,20.3,20.7
	C175.1,108.3,166.1,117.2,154.6,117.2z M230.8,268.1c-1.2-2.1-2.3-4.2-3.5-6.4l-0.5-1.1l1.2,0.5c2.2,1.1,4.3,2,6.6,2.7
	C239.4,266.7,233.3,271,230.8,268.1z M247.7,144.2c-0.7,0-1.5,0-2.2-0.1c-2.5-0.3-4.9-0.6-7.4-0.9c-0.5-0.1-0.9-0.5-0.8-1
	c1.3-9.2,4.9-12.4,16.1-14.8c0.3-0.1,0.7,0.1,0.8,0.4c1,2.4,2,4.9,3.2,7.2c0.3,0.6,0.7,1.2,1.1,1.8
	C261.3,140.6,256.2,143.6,247.7,144.2z M244.3,112.1c-9.3,4.1-18.9,4.1-28.7,3.5c-0.4,0-0.5,0.4-0.2,0.7c5.3,4.2,11.7,3.9,17.9,3
	c5.3-0.8,10.5-2.3,15.9-3.6c0.4-0.1,0.9,0.2,0.9,0.6l0.2,1.9c0,0.3-0.1,0.6-0.4,0.7c-3.5,1.6-24.6,11.1-31,14c-1,0.5-2.2,0-2.6-1.1
	c-1.9-4.9-3.3-9.9-3.1-15.3c0.1-1.8,0.1-3.6,0.2-5.4c0.2-9.6,3.8-18,9.5-25.7c0.8-1.1,3.5-1.2,5.2-1.1c20,1.4,37.4,9.5,53.4,21.1
	c2.8,2,5.5,4.2,8,6.7c0.4,0.4,0,1.1-0.5,1c-5.6-1.2-11.2-2.5-16.9-3.6C262.6,107.7,253.2,108.1,244.3,112.1z"/>
</svg>
