<?xml version="1.0" encoding="utf-8"?>
<!-- Generator: Adobe Illustrator 23.0.6, SVG Export Plug-In . SVG Version: 6.00 Build 0)  -->
<svg version="1.1"
	 id="svg4" xmlns:cc="http://creativecommons.org/ns#" xmlns:dc="http://purl.org/dc/elements/1.1/" xmlns:inkscape="http://www.inkscape.org/namespaces/inkscape" xmlns:rdf="http://www.w3.org/1999/02/22-rdf-syntax-ns#" xmlns:sodipodi="http://sodipodi.sourceforge.net/DTD/sodipodi-0.dtd" xmlns:svg="http://www.w3.org/2000/svg"
	 xmlns="http://www.w3.org/2000/svg" xmlns:xlink="http://www.w3.org/1999/xlink" x="0px" y="0px" viewBox="0 0 400 400"
	 style="enable-background:new 0 0 400 400;" xml:space="preserve">
<path d="M337.7,150.4c-0.3-2.6-0.2-3.4-0.5-4.6c-1.3-5.4-3.9-9.4-8.9-11.9c-9.3-4.8-19.3-7.4-29.4-9.7c-12.4-2.8-24.9-5.1-37.5-6.9
	c-3.3-0.5-6.5-1.3-9.6-2.5c-7.1-2.8-2-3.3,4.4-5.6c2.2-0.8,4.3-1.6,6.5-2.3c5.2-1.7,10-4.4,14.4-8.5c6-5.6,9.3-12.4,11.3-19.9
	c0.2-0.8,0.9-1.4,1.8-1.3c5.4,0.6-6.8,28.7,1.1,36c1.7,1.6,4.4,1.8,6.4,0.6c10.9-6.9-18-48.2,9.1-80.6c0,0,0,0,0,0
	c0.4-0.4,0.7-0.8,1.2-1.5c-5.9-1.8-11.8-2.1-17.6-1c-22.2,4.1-39.3,16.1-49.7,36.4c-3.8-1-7.6-1.8-11.3-2.9
	c-0.7-0.2-1.2-1.4-1.5-2.3c-3.5-10.1-8.6-18.8-15.6-25.8c-5-5.1-12.7-10.1-18.3-12.3c-5.6-2.2-8.4-3.2-17.3-3.2
	c-8.9,0-16.3,0.2-16.3,0.2c-3.6,0-7.2,0.5-10.8,1.3c-43.1,9-76.7,42.3-84.6,85.7c-7.5,41.6,1.9,78.5,26,111.3
	c5.4,7.3,9.4,15.6,11.4,24.5c5.9,26.3-6.5,39.6,7.8,41.9c17.2-0.5-9.1-25.7,18.7-39.1c1.4-0.7,2.9-1.2,4.4-1.6
	c5.4-1.7,10.4-6,13.6-11.5c0.3-0.5,1-0.4,1.3,0.1c2.4,6.3,5,12.4,7,18.6c2.2,6.5,10,9.5,14.8,9.2c0.9-0.1,2,0.8,2.7,0.3
	c4.3-3.2,7.7,2.1,11.4,2.1h0.2c4.2,0,8.4-1,12-3.2c1.9-1.1,3.6-2.5,5-4.4c0.3-0.5,1.9-0.6,2.8-0.5c5.5,0.6,10.5-0.7,15.1-3.8
	c3.1-2.1,5.3-4.9,6.3-8.3c0.4-1.4,1.3-2.7,2.6-3.3c3.6-1.8,5.8-5.2,5.9-10c0.1-2.5-0.1-5.3-0.9-7.8c-0.7-2-0.9-4.1-0.4-6.1
	c1.6-6.9,9.7-11.9,19.9-14.8c4.2-1.2,8.6-1.5,13-1.3c1.1,0.1,2.3,0,3.4,0c6.3-0.4,12.2-1.7,16-7.1c0.8-1.1,2.1-1.8,3.5-1.8
	c4.2,0.1,8.4,0.3,12.5-0.2c2.2-0.3,4.3-1,6.4-1.9c1-0.4,2-0.8,3.1-1c20.8-3.7-8.9,49,14,50.1c17.9,0-6.1-40.9,6.7-66.8
	c0.8-1.5,1.8-2.9,2.8-4.3c0.6-0.8,1.2-1.7,1.6-2.7c1.1-2.4,1.9-4.3,2.2-7S338,153,337.7,150.4z M168.1,94.4c-8,0-14.5-6.5-14.4-14.5
	c0.1-8,6.6-14.5,14.5-14.5c8,0.1,14.4,6.5,14.3,14.6C182.5,88.1,176.2,94.4,168.1,94.4z M221.8,200.8c-0.8-1.5-1.7-3-2.5-4.5
	l-0.4-0.8l0.9,0.3c1.5,0.7,3.1,1.4,4.6,1.9C227.8,199.8,223.6,202.8,221.8,200.8z M233.7,113.4c-0.5,0-1,0-1.5-0.1
	c-1.7-0.2-3.5-0.4-5.2-0.7c-0.3,0-0.6-0.4-0.6-0.7c0.9-6.5,3.4-8.8,11.3-10.5c0.2-0.1,0.5,0.1,0.6,0.3c0.7,1.7,1.4,3.4,2.2,5.1
	c0.2,0.4,0.5,0.9,0.8,1.3C243.3,110.9,239.7,113,233.7,113.4z M231.3,90.8c-6.5,2.9-13.3,2.9-20.2,2.5c-0.3,0-0.4,0.3-0.2,0.5
	c3.8,3,8.2,2.7,12.6,2.1c3.7-0.6,7.4-1.6,11.2-2.5c0.3-0.1,0.6,0.1,0.6,0.5l0.1,1.3c0,0.2-0.1,0.4-0.3,0.5
	c-2.4,1.1-17.3,7.8-21.8,9.8c-0.7,0.3-1.5,0-1.8-0.8c-1.3-3.4-2.3-7-2.2-10.8c0-1.3,0.1-2.6,0.1-3.8c0.2-6.7,2.7-12.7,6.7-18.1
	c0.6-0.8,2.5-0.9,3.7-0.8c14.1,1,26.4,6.7,37.6,14.9c2,1.4,3.9,3,5.6,4.7c0.3,0.3,0,0.8-0.4,0.7c-4-0.9-7.9-1.8-11.9-2.5
	C244.2,87.7,237.6,88,231.3,90.8z"/>
</svg>
