<?xml version="1.0" encoding="utf-8"?>
<!-- Generator: Adobe Illustrator 23.0.1, SVG Export Plug-In . SVG Version: 6.00 Build 0)  -->
<svg version="1.1"
	 id="svg4" inkscape:version="0.92.1 r15371" sodipodi:docname="ruby.svg" xmlns:cc="http://creativecommons.org/ns#" xmlns:dc="http://purl.org/dc/elements/1.1/" xmlns:inkscape="http://www.inkscape.org/namespaces/inkscape" xmlns:rdf="http://www.w3.org/1999/02/22-rdf-syntax-ns#" xmlns:sodipodi="http://sodipodi.sourceforge.net/DTD/sodipodi-0.dtd" xmlns:svg="http://www.w3.org/2000/svg"
	 xmlns="http://www.w3.org/2000/svg" xmlns:xlink="http://www.w3.org/1999/xlink" x="0px" y="0px" viewBox="0 0 400 400"
	 style="enable-background:new 0 0 400 400;" xml:space="preserve">
<style type="text/css">
	.st0{fill:#000004;}
</style>
<sodipodi:namedview  bordercolor="#666666" borderopacity="1" fit-margin-bottom="50" fit-margin-left="0" fit-margin-right="0" fit-margin-top="0" gridtolerance="10" guidetolerance="10" id="namedview6" inkscape:current-layer="svg4" inkscape:cx="67.488051" inkscape:cy="95.080461" inkscape:pageopacity="0" inkscape:pageshadow="2" inkscape:window-height="705" inkscape:window-maximized="1" inkscape:window-width="1366" inkscape:window-x="-8" inkscape:window-y="245" inkscape:zoom="2.6074563" objecttolerance="10" pagecolor="#ffffff" showgrid="false">
	</sodipodi:namedview>
<g>
	<path class="st0" d="M226.7,13.5c-1,0.1-1.2,1.5-0.3,1.9c4.9,2,9.2,3.2,14.4,1.8c15.7-4,31.6-7.2,47.4-10.7c1-0.2,4.9-1.1,4.8-1.6
		c-0.1-0.4-2.4-0.1-5.1,0.3C268.4,7.9,246.1,10.9,226.7,13.5z"/>
	<path class="st0" d="M288.4,39.3c-14.9-3.9-29.9-7.8-44.8-11.8c-1.9-0.5-3.2-0.8-4.3,1.4c-4.5,9.2-9.6,19.6-14.4,29.1
		c-1,2,0.7,4.4,2.9,4c29.6-4.5,61-9.3,90.5-13.7c0.6-0.1,0.7-1,0.1-1.1C308.7,44.7,297.8,41.8,288.4,39.3z"/>
	<path class="st0" d="M159.7,127.4c30.1,9.8,59.8,19.4,90.2,29.3c1.4,0.4,2.6-0.9,2.1-2.2c-11.1-27.2-22-53.6-33-80.3
		c-0.8-2-3.4-2.6-5-1.1c-18.4,16.8-36.5,33.4-55.1,50.3C157.5,124.6,158,126.8,159.7,127.4z"/>
	<path class="st0" d="M326.3,7.4l-62.1,13.8c-1.6,0.4-1.7,2.7-0.1,3.1l75.4,20.9c1.9,0.5,3.6-1.3,2.9-3.1
		c-3.9-10.9-7.5-21.3-11.2-31.9C330.5,8.1,328.3,6.9,326.3,7.4z"/>
	<path class="st0" d="M130.6,245.5c40.6-26.1,80.4-51.8,119.9-77.2c1.3-0.9,1.1-2.9-0.4-3.4c-30.7-10-61.3-19.9-92.1-29.9
		c-1.9-0.6-4,0.5-4.4,2.5c-8.3,35.2-16.7,70.2-25.2,106.4C128,245.2,129.5,246.2,130.6,245.5z"/>
	<path class="st0" d="M88.6,174.4C78,199.5,67.8,224,57.5,248.8c-0.6,1.5,0.5,3.2,2.2,3.1c19.5-0.5,38.4-1.2,57.9-1.7
		c1.8,0,3-1.8,2.3-3.5c-9.3-24.1-18.5-47.9-28-72.3C91.2,173,89.2,173,88.6,174.4z"/>
	<path class="st0" d="M341.4,55.8c-5.5,8.3-11.5,17.2-16.6,25c-1,1.5-2.2,2.9-3.5,4.1c-7.5,6.4,4.9-16.1,9.8-27.9
		c0.8-1.9-0.8-3.8-2.8-3.5c-32.5,5.5-64.5,10.8-96.7,16.1c-3.2,0.5-5.1,3.9-3.9,7c9.9,24.1,19.7,47.8,29.6,71.9
		c3.1,7.8,3,15.6-1.1,23.4c-1.8,3.3-4.4,6.1-7.5,8.1l-112.6,72.6c-0.5,0.3-0.4,1.1,0.2,1.2c18.3,3.6,122.5,19.4,113.2,22.1
		c-11.4-1.6-22.8-3.1-34.2-4.7c-28.7-4-57.5-8.3-86.4-11.6c-10.5-1.2-21.2-0.1-31.9,0.1c-8.7,0.1-11.6,0.3-20.3,0.6
		c-0.6,0-4.3,0.2-6.7,0.7c-0.5,0.1-0.5,0.8,0.1,0.9c58.9,5.5,117.8,10.9,176.7,16.3c6,0.6,11.8,2.3,16.9,5.5
		c42.3,26.3-8.6,109.7,29,111.4c30.4-2.7-26-86.5,26.9-113.2c3.1-1.6,4.3-5.5,2.5-8.5c-18.4-30.6-36.4-60.5-54.4-90.6
		c-2.7-4.5-4.2-9.7-4-15c0.2-6.9,2.2-14.6,6.7-21.4c3.9-5.9,7.9-11.8,11.8-17.8c0.8-1.3,2-2.3,3.4-2.9c8.8-3.5-9.7,27.8-16.8,39.2h0
		c0,0,0,0,0,0c-1.1,1.6-2.5,2.9-1,5.4c18.7,30.8,37.2,61.7,55.7,92.6c2,3.4,4.1,6.8,6.4,10.1c1.1,1.5,3.5,0.8,3.5-1
		c3.6-71.4,7.1-144.1,10.8-215.5C344.2,55.2,342.2,54.5,341.4,55.8z"/>
	<path class="st0" d="M84.4,157c-2.2-2.1-4.3-4.3-6.5-6.6c-2.2-2.3-6.1-1.2-6.8,1.9c-5,24.5-10.2,50.2-15,74.4
		c-0.3,1.4-0.4,2.1,0,2.3s1.1-1.2,1.4-1.9c9.3-21.6,18.6-43.2,27.9-64.7C86.3,160.2,86.3,158.8,84.4,157z"/>
	<path class="st0" d="M228,25.6c-6.2-2.4-12.1-4.6-18.1-6.7c-0.9-0.3-2.4,0.3-3.4,0.9c-15.7,8.8-31.8,17.1-47,26.7
		c-7.6,4.8-13.8,11.9-20.6,18c-10.9,9.9-21.7,19.9-32.5,30c-2.8,2.7-5.4,5.7-7.7,9c-6,8.8-11.8,17.6-17.9,26.6
		c-2.4,3.5-1.9,8.2,1,11.2c0.4,0.4,0.8,0.9,1.3,1.3c3.6,4.4,7.6,10.3,11,16.9c8.3,21.5,17.5,45,26.1,67.4c0.6,1.6,2.9,1.5,3.3-0.2
		c7.4-30.8,15.2-62.5,22.7-94.3c6.5-16.7,16.4-24.4,25.3-32.7c12.9-11.8,25.8-23.7,38.6-35.6c1-0.9,2.2-1.8,2.8-3
		c5.4-10.6,10.8-21.4,16.3-32.3C230,27.6,229.4,26.1,228,25.6z"/>
</g>
</svg>
