<?xml version="1.0" encoding="utf-8"?>
<!-- Generator: Adobe Illustrator 23.0.6, SVG Export Plug-In . SVG Version: 6.00 Build 0)  -->
<svg version="1.1"
	 id="svg4" xmlns:cc="http://creativecommons.org/ns#" xmlns:dc="http://purl.org/dc/elements/1.1/" xmlns:inkscape="http://www.inkscape.org/namespaces/inkscape" xmlns:rdf="http://www.w3.org/1999/02/22-rdf-syntax-ns#" xmlns:sodipodi="http://sodipodi.sourceforge.net/DTD/sodipodi-0.dtd" xmlns:svg="http://www.w3.org/2000/svg"
	 xmlns="http://www.w3.org/2000/svg" xmlns:xlink="http://www.w3.org/1999/xlink" x="0px" y="0px" viewBox="0 0 400 400"
	 style="enable-background:new 0 0 400 400;" xml:space="preserve">
<style type="text/css">
	.st0{fill:#000004;}
</style>
<path class="st0" d="M225.4,20.2c-1,0.1-1.2,1.5-0.3,1.8c4.7,2,8.8,3,13.8,1.8c15-3.8,30.1-6.9,45.2-10.2c1-0.2,4.7-1.1,4.6-1.5
	c-0.1-0.4-2.3-0.1-4.8,0.3C265.3,14.9,243.9,17.8,225.4,20.2z"/>
<path class="st0" d="M284.3,44.9c-14.2-3.7-28.5-7.4-42.7-11.3c-1.8-0.5-3.1-0.8-4.1,1.3c-4.3,8.8-9.2,18.7-13.7,27.8
	c-1,1.9,0.7,4.2,2.8,3.9c28.2-4.3,58.2-8.8,86.3-13.1c0.6-0.1,0.6-0.9,0.1-1.1C303.7,50.1,293.3,47.3,284.3,44.9z"/>
<path class="st0" d="M161.6,128.9c28.7,9.3,57,18.5,86,28c1.3,0.4,2.5-0.9,2-2.1c-10.6-26-21-51.1-31.5-76.6
	c-0.8-1.9-3.2-2.5-4.8-1.1c-17.5,16-34.9,31.9-52.5,48C159.5,126.3,159.9,128.4,161.6,128.9z"/>
<path class="st0" d="M320.4,14.4l-59.2,13.1c-1.6,0.3-1.6,2.6-0.1,3L333,50.4c1.8,0.5,3.4-1.2,2.8-3c-3.7-10.4-7.2-20.3-10.7-30.4
	C324.4,15.1,322.4,14,320.4,14.4z"/>
<path class="st0" d="M133.8,241.6c38.8-24.9,76.7-49.4,114.3-73.6c1.3-0.8,1-2.8-0.4-3.2c-29.3-9.5-58.5-19-87.9-28.5
	c-1.8-0.6-3.8,0.5-4.2,2.4c-7.9,33.6-15.9,67-24,101.5C131.3,241.3,132.7,242.3,133.8,241.6z"/>
<path class="st0" d="M93.7,173.8c-10.1,24-19.8,47.3-29.7,71c-0.6,1.4,0.5,3,2.1,3c18.6-0.5,36.6-1.1,55.2-1.6
	c1.7,0,2.8-1.8,2.2-3.3c-8.9-23-17.7-45.7-26.7-69C96.2,172.4,94.3,172.4,93.7,173.8z"/>
<path class="st0" d="M334.9,60.6c-5.3,7.9-11,16.5-15.8,23.8c-0.9,1.4-2.1,2.8-3.4,3.9c-7.1,6.1,4.6-15.4,9.4-26.6
	c0.8-1.8-0.8-3.7-2.7-3.4c-31,5.2-61.5,10.3-92.2,15.4c-3.1,0.5-4.9,3.8-3.7,6.7c9.4,23,18.8,45.6,28.2,68.6
	c2.9,7.5,2.9,14.9-1.1,22.3c-1.7,3.1-4.2,5.8-7.1,7.7l-107.4,69.3c-0.5,0.3-0.4,1.1,0.2,1.2c17.4,3.4,116.9,18.5,108,21.1
	c-10.9-1.5-21.7-3-32.6-4.5c-27.4-3.8-54.8-7.9-82.4-11.1c-10-1.1-20.2-0.1-30.4,0.1c-8.3,0.1-11.1,0.3-19.4,0.6
	c-0.6,0-4.1,0.2-6.4,0.7c-0.5,0.1-0.4,0.8,0.1,0.9c56.2,5.2,112.3,10.4,168.5,15.6c5.7,0.5,11.2,2.2,16.1,5.2
	c40.3,25.1-8.2,104.7,27.6,106.3c29-2.6-24.8-82.5,25.6-108c3-1.5,4.1-5.2,2.4-8.1c-17.5-29.2-34.7-57.7-51.9-86.4
	c-2.6-4.3-4-9.2-3.8-14.3c0.2-6.6,2.1-13.9,6.4-20.4c3.8-5.7,7.5-11.3,11.3-16.9c0.8-1.2,1.9-2.2,3.3-2.7c8.4-3.3-9.2,26.5-16,37.4
	h0c0,0,0,0,0,0c-1,1.5-2.4,2.8-1,5.2c17.8,29.4,35.5,58.9,53.1,88.3c1.9,3.2,3.9,6.5,6.1,9.6c1,1.4,3.3,0.8,3.4-1
	c3.4-68.1,6.8-137.5,10.3-205.5C337.6,60,335.7,59.4,334.9,60.6z"/>
<path class="st0" d="M89.8,157.2c-2.1-2-4.1-4.1-6.2-6.3c-2.1-2.2-5.9-1.2-6.5,1.8c-4.7,23.3-9.7,47.9-14.3,70.9
	c-0.3,1.3-0.4,2,0,2.2c0.4,0.2,1-1.1,1.3-1.8c8.9-20.6,17.7-41.2,26.6-61.7C91.6,160.3,91.6,158.9,89.8,157.2z"/>
<path class="st0" d="M226.8,31.8c-5.9-2.3-11.6-4.4-17.3-6.3c-0.9-0.3-2.3,0.3-3.2,0.9c-15,8.4-30.3,16.3-44.8,25.5
	c-7.2,4.6-13.2,11.4-19.6,17.2c-10.4,9.4-20.7,19-31,28.6c-2.7,2.6-5.2,5.4-7.3,8.6c-5.7,8.4-11.3,16.8-17.1,25.4
	c-2.2,3.4-1.8,7.8,0.9,10.7c0.4,0.4,0.8,0.8,1.2,1.2c3.4,4.2,7.2,9.8,10.5,16.2c8,20.5,16.7,42.9,24.9,64.3c0.6,1.5,2.8,1.4,3.2-0.2
	c7.1-29.4,14.5-59.6,21.7-90c6.2-15.9,15.7-23.2,24.1-31.2c12.3-11.3,24.6-22.6,36.8-33.9c1-0.9,2.1-1.7,2.7-2.9
	c5.2-10.1,10.3-20.4,15.6-30.8C228.6,33.8,228,32.3,226.8,31.8z"/>
</svg>
