<?xml version="1.0" encoding="utf-8"?>
<!-- Generator: Adobe Illustrator 23.0.1, SVG Export Plug-In . SVG Version: 6.00 Build 0)  -->
<svg version="1.1"
	 id="svg8" inkscape:version="0.92.1 r15371" sodipodi:docname="Typekit.svg" xmlns:cc="http://creativecommons.org/ns#" xmlns:dc="http://purl.org/dc/elements/1.1/" xmlns:inkscape="http://www.inkscape.org/namespaces/inkscape" xmlns:rdf="http://www.w3.org/1999/02/22-rdf-syntax-ns#" xmlns:sodipodi="http://sodipodi.sourceforge.net/DTD/sodipodi-0.dtd" xmlns:svg="http://www.w3.org/2000/svg"
	 xmlns="http://www.w3.org/2000/svg" xmlns:xlink="http://www.w3.org/1999/xlink" x="0px" y="0px" viewBox="0 0 400 400"
	 style="enable-background:new 0 0 400 400;" xml:space="preserve">
<sodipodi:namedview  bordercolor="#666666" borderopacity="1" fit-margin-bottom="20" fit-margin-left="0" fit-margin-right="0" fit-margin-top="0" gridtolerance="10" guidetolerance="10" id="namedview10" inkscape:current-layer="svg8" inkscape:cx="-12.004545" inkscape:cy="37.925294" inkscape:pageopacity="0" inkscape:pageshadow="2" inkscape:window-height="705" inkscape:window-maximized="1" inkscape:window-width="1366" inkscape:window-x="-8" inkscape:window-y="245" inkscape:zoom="5.6568543" objecttolerance="10" pagecolor="#ffffff" showgrid="false">
	</sodipodi:namedview>
<g id="Layer_1">
</g>
<g>
	<path d="M112.2,86.7h29.8h1.7c0.8,0,1.5,0.7,1.5,1.5v108.7v1.3c0,0.3,0.3,0.6,0.6,0.6h18.8c0.7,0,1.3-0.6,1.3-1.3v-0.6v-0.1
		c0-15.1,1.6-30.3,5.1-45c5.5-22.7,14.9-44.2,28-63.4c0.5-0.7,0.7-1.5,0.7-2.3L197.9,71c-0.1-1.3-0.2-1.9-0.2-1.9
		c0-1.2-1.2-1.2-1.8-1.2h-82h-0.2c-0.8,0-1.4,0.5-1.6,1.2c0,0,0,0,0,0l-2.3,15C109.7,85.5,110.9,86.7,112.2,86.7z M165.9,89.3
		c0-0.7,0.6-1.3,1.3-1.3h9.6c1.3,0,2.6,0.6,3.4,1.6c7,9.6-9.4,50.5-13.8,36.2c-0.4-1.1-0.5-2.4-0.5-3.6V89.3z"/>
	<path d="M211.5,198.1c0.6,0,0.1,0,0.7,0h16.9h2c0.3,0,0.5-0.2,0.5-0.5c0.1-11.6,6.7-23.5,14.8-20.5c1.6,0.6,2.9,1.7,3.9,3.1
		c5.1,7,9.1,12.4,11.8,16.2c0.5,0.7,1.2,1.2,2,1.5c0.4,0.1,0.8,0.2,1.3,0.2h21.2c0.8,0,1.6-0.4,2-1.1l0.1-0.2c0.3-0.4,0.2-0.9,0-1.3
		l-37.1-49.4c0,0-0.3-0.3-0.3-0.6s0.3-0.6,0.3-0.6c3.8-4.4,9.4-11.3,17.5-21.3c8.1-10,13.1-16.3,15.6-19.4c0.6-0.6,0.6-1.3,0.6-1.3
		c0-0.6-0.6-0.6-1.3-0.6h-19.4c-1,0-1.9,0.5-2.5,1.3l-26.4,36c-1.4,1.4-3.3,0.3-3.6-1.7V70.3c0-0.7-0.4-1.4-1-1.8l-0.4-0.3
		c-0.4-0.2-0.8-0.4-1.2-0.4h-16.6c-0.6,0-1.1,0.2-1.5,0.6c-0.4,0.4-0.6,0.9-0.6,1.5v126.8C211,197.5,210.9,198.1,211.5,198.1z
		 M231.6,166.2c0-0.9,0.2-1.8,0.7-2.6c1.5-2.1,4.1-2.2,6.1-0.2c0.1,0.2,0.2,0.3,0.3,0.5c0.4,0.5,0.6,1.1,0.6,1.8
		c0,4.6-3.5,12.7-6.6,8.9c-0.7-0.9-1.1-2.1-1.1-3.3L231.6,166.2z"/>
	<path d="M58.2,9.7v265.9c0,2.8,2.3,5,5,5l189,0c7.7,0,15.4,1.5,22.5,4.6c55.3,24.9-6.5,108.5,28.8,110
		c38.7,0.8-21.3-86.5,30.7-111.7c4.6-2.2,7.5-6.8,7.5-11.9V9.7c0-2.8-2.3-5-5-5H63.3C60.5,4.7,58.2,6.9,58.2,9.7z M324.8,269.4H75.2
		c-2.8,0-5-2.3-5-5V21.6c0-2.8,2.3-5,5-5h249.7c2.8,0,5,2.3,5,5v242.8C329.9,267.2,327.6,269.4,324.8,269.4z"/>
</g>
</svg>
