<?xml version="1.0" encoding="utf-8"?>
<!-- Generator: Adobe Illustrator 22.1.0, SVG Export Plug-In . SVG Version: 6.00 Build 0)  -->
<!DOCTYPE svg PUBLIC "-//W3C//DTD SVG 1.1//EN" "http://www.w3.org/Graphics/SVG/1.1/DTD/svg11.dtd">
<svg version="1.1" id="Layer_1" xmlns="http://www.w3.org/2000/svg" xmlns:xlink="http://www.w3.org/1999/xlink" x="0px" y="0px"
	 viewBox="0 0 400 400" enable-background="new 0 0 400 400" xml:space="preserve">
<g>
	<path d="M200.3,12.3c58,0,115.9,0.2,173.9-0.2c9.2-0.1,11.8,2.7,11.3,11.6c-0.7,13-0.6,26.1,0,39.1c0.3,7.2-2,9.7-9.1,9.2
		c-13.1-0.8-23.2,6.1-30.5,15.8c-3.4,4.5-5,12.2-3.9,17.7c1.7,7.9,8.9,12,17.2,12.5c6.1,0.4,12.3,0.5,18.5,0
		c6.4-0.5,7.9,2.2,7.8,8.1c-0.4,13.8-0.6,27.6,0.1,41.3c0.4,7.9-2.5,9.5-9.9,9.5c-46.4-0.3-92.8,0-139.1-0.2
		c-11.1-0.1-20.6,3.5-28.7,10.8c-9.7,8.8-9.9,18.9,0.7,26.6c6,4.4,14.2,8,21.5,8.1c48.2,0.7,96.4,0.5,144.6,0.2
		c8.1-0.1,11.6,1.4,11,10.5c-0.9,13.4-0.4,26.8-0.1,40.2c0.1,5.8-1.1,8.3-7.6,8.3c-71-0.2-142-0.2-213,0c-6.4,0-8-2.2-7.8-8.1
		c0.4-10.9,0.2-21.7,0.1-32.6c-0.1-8.7,0.2-14.5,0.2-24.1c0-10.9,0-19.7,0-30c0-11.8,0.1-18.6,0.1-27c0-12.5,0.2-21.2-0.3-33.1
		c-0.3-7,2.2-8.4,8.6-8.3c35.9,0.3,71.7-0.1,107.6,0.3c8.5,0.1,14.6-3.2,19.9-9c8-9,7.4-19.8-1.8-27.7c-8.7-7.5-19.1-9.7-30.3-9.7
		c-77.2,0.1-154.3,0.1-231.5,0c-14.5,0-14.5,0-14.5-14.7c0-11.6,0.5-23.2-0.2-34.8c-0.5-8.3,2.5-10.3,10.5-10.3
		C83.6,12.4,141.9,12.3,200.3,12.3z"/>
	<path d="M199.2,387.7c-58.3,0-116.6-0.1-174.9,0.1c-7.2,0-10.6-0.4-9.8-9.4c1.3-14,0.6-28.2,0.2-42.3c-0.2-6.7,1.4-10,9-9.4
		c8.6,0.7,17.4-0.5,26,0.3c9.1,0.9,15-3.1,20.5-9.5c15.7-18.2,16.4-43.6,1-66.3c-11.7-17.3-27.2-30.6-44-42.8
		c-11.9-8.7-11.8-8.8-0.4-17.8c27.6-22,55.2-44.1,82.9-66c0.8-0.6,1.7-1.2,2.6-1.7c2.1-1.2,4.8,0.1,5.1,2.6c0.1,1.1,0.2,2.3,0.2,3.4
		c0.1,46.4-0.1,92.7,0.1,139.1c0.1,20,6.7,37.5,21.2,51.8c5.1,5.1,10.7,7.4,18.3,7.4c72.1-0.3,144.1,0,216.2-0.4
		c10.5-0.1,12.8,2.9,11.7,14.3c-1.2,11.8-1,23.7,0.1,35.5c0.8,9.4-1.6,11.6-10.1,11.6C316.6,387.6,257.9,387.7,199.2,387.7z"/>
</g>
</svg>
