<?xml version="1.0" encoding="utf-8"?>
<!-- Generator: Adobe Illustrator 23.0.3, SVG Export Plug-In . SVG Version: 6.00 Build 0)  -->
<svg version="1.1"
	 id="svg8" xmlns:cc="http://creativecommons.org/ns#" xmlns:dc="http://purl.org/dc/elements/1.1/" xmlns:inkscape="http://www.inkscape.org/namespaces/inkscape" xmlns:rdf="http://www.w3.org/1999/02/22-rdf-syntax-ns#" xmlns:sodipodi="http://sodipodi.sourceforge.net/DTD/sodipodi-0.dtd" xmlns:svg="http://www.w3.org/2000/svg"
	 xmlns="http://www.w3.org/2000/svg" xmlns:xlink="http://www.w3.org/1999/xlink" x="0px" y="0px" viewBox="0 0 400 400"
	 style="enable-background:new 0 0 400 400;" xml:space="preserve">
<sodipodi:namedview  bordercolor="#666666" borderopacity="1" fit-margin-bottom="10" fit-margin-left="0" fit-margin-right="0" fit-margin-top="0" gridtolerance="10" guidetolerance="10" id="namedview10" inkscape:current-layer="svg8" inkscape:cx="-49.299188" inkscape:cy="10.250533" inkscape:pageopacity="0" inkscape:pageshadow="2" inkscape:window-height="1017" inkscape:window-maximized="1" inkscape:window-width="1920" inkscape:window-x="1912" inkscape:window-y="-8" inkscape:zoom="5.6568543" objecttolerance="10" pagecolor="#ffffff" showgrid="false">
	</sodipodi:namedview>
<path d="M303.4,4.8h-73.9c-8.2,0-14.8,6.6-14.8,14.8c0.3,19.5-7.7,49.8-44.9,24.1c-2.4-1.7-4.6-3.6-6.7-5.7l-1.4-1.4
	c-2.2-2.3-6.2-0.7-6.2,2.5v44.4c0,5.5-4.5,10-10,10H47.5c-5.5,0-10,4.5-10,10v98.2c0,5.5,4.5,10,10,10h81c4,0,7.9,0.7,11.5,2.4
	c50,23.6-45.6,167.5,18.2,180.2c5.7,1.1,11.6,0.8,17-1.2c32.7-12.5,0.1-63.8,4.3-116c1.7-21.4,11.2-41.3,26.4-56.5l61-61
	c3.9-3.9,3.9-10.1,0.1-14.1l-16.3-16.9c-6.6-6.8-12-14.6-16-23.1c-14.4-31.2-5.3-52.7,14.6-64c8.5-4.8,18.2-7.1,27.9-7.1h26.2
	c16.3,0,29.6,13.2,29.6,29.6v177.3c0,16.3-13.2,29.6-29.6,29.6h-73.9c-8.2,0-14.8,6.6-14.8,14.8s6.6,14.8,14.8,14.8h73.9
	c32.5,0,59.1-26.6,59.1-59.1V63.9C362.6,31.4,336,4.8,303.4,4.8z"/>
</svg>
