<?xml version="1.0" encoding="utf-8"?>
<!-- Generator: Adobe Illustrator 23.0.1, SVG Export Plug-In . SVG Version: 6.00 Build 0)  -->
<svg version="1.1"
	 id="svg4" inkscape:version="0.92.1 r15371" sodipodi:docname="android.svg" xmlns:cc="http://creativecommons.org/ns#" xmlns:dc="http://purl.org/dc/elements/1.1/" xmlns:inkscape="http://www.inkscape.org/namespaces/inkscape" xmlns:rdf="http://www.w3.org/1999/02/22-rdf-syntax-ns#" xmlns:sodipodi="http://sodipodi.sourceforge.net/DTD/sodipodi-0.dtd" xmlns:svg="http://www.w3.org/2000/svg"
	 xmlns="http://www.w3.org/2000/svg" xmlns:xlink="http://www.w3.org/1999/xlink" x="0px" y="0px" viewBox="0 0 400 400"
	 style="enable-background:new 0 0 400 400;" xml:space="preserve">
<style type="text/css">
	.st0{fill:#000005;}
</style>
<sodipodi:namedview  bordercolor="#666666" borderopacity="1" fit-margin-bottom="70" fit-margin-left="0" fit-margin-right="0" fit-margin-top="0" gridtolerance="10" guidetolerance="10" id="namedview6" inkscape:current-layer="svg4" inkscape:cx="238.36338" inkscape:cy="226.62343" inkscape:pageopacity="0" inkscape:pageshadow="2" inkscape:window-height="1017" inkscape:window-maximized="1" inkscape:window-width="1920" inkscape:window-x="1358" inkscape:window-y="-8" inkscape:zoom="1.3037281" objecttolerance="10" pagecolor="#ffffff" showgrid="false">
	</sodipodi:namedview>
<path class="st0" d="M327.8,123.7c0-10.3-8.3-18.6-18.6-18.6c-10.3,0-18.6,8.3-18.6,18.6l0,42.7l0-0.1c-1,14-3.9,34-6.6,28.7
	c-0.4-0.9-0.6-1.8-0.6-2.8l0-79.6c0-2.2-1.8-4-4-4l-40.9,0c-1.4,0-2.8-0.1-4.2-0.4c-10.5-2,25.4-4.4,45.9-5.8c2.1-0.2,3.8-2,3.7-4.1
	c-1.1-20.2-10.7-38.4-25.6-51.5c-6.2-6.3-9.9-14.8-4.3-35l0.2-0.4c0.7-1.2,0.2-2.8-1-3.5c-1.3-0.7-2.8-0.2-3.5,1l-11.4,20.9
	c-1,1.8-3.1,2.5-5,1.8c-10.2-4.1-21.4-6.3-33.3-6.3c-11.8,0-23,2.2-33.2,6.3c-1.9,0.7-4,0-5-1.8L150.4,8.8c-0.7-1.3-2.3-1.7-3.5-1
	c-1.3,0.7-1.7,2.3-1,3.5l11.1,20.2c1,1.9,0.4,4.3-1.5,5.4c-22.5,12.9-37.8,35.3-39.3,61.1c-0.1,2.3,1.7,4.2,4,4.2l61.1,0
	c1.3,0,2.5,0.2,3.7,0.7c3.7,1.6,0,2.8-6.2,3.9c-7.2,1.3-14.5,1.9-21.9,1.9l-33.3,0c-5,0-6.8,1.8-6.8,4l0,44.4c0,1.9-0.3,3.8-0.9,5.6
	c-3.5,9.8-5.5-15.4-6.3-30.8v-8.1c0-10.3-8.4-18.6-18.7-18.6c-10.3,0-18.6,8.4-18.6,18.6l0,78c0,10.3,8.3,18.6,18.6,18.6
	c9.6,0,17.4-7.2,18.5-16.5c0.2-1.9,0.5-3.7,1-5.5c3.9-13.8,4.4-0.1,5.7,14.8c0.5,5.4,0.7,10.9,0.7,16.3c0,11,8.9,19.9,19.9,19.9
	l9.6,0c2.2,0,4,1.8,4,4l0,37.3c0,10.3,8.4,18.6,18.6,18.6c10.3,0,18.6-8.4,18.6-18.7l0-37.3c0-2.2,1.8-4,4-4l17.2,0c2.2,0,4,1.8,4,4
	l0,37.3c0,4.2,1.4,8.1,3.7,11.2c2,2.6,3.7,5.5,4.9,8.5c15.4,39.5-16.7,80.4,12.3,82.1c20.4-0.4-3.8-39.6,6.3-77.2
	c1.4-5.1,3.8-9.8,6.8-14.2c2-3,3.2-6.6,3.2-10.5l0-37.3c0-2.2,1.8-4,4-4l9.6,0c8,0,14.8-4.7,18-11.5c7.3-9-1-31,18.4-20.1l0.9,0.5
	c2.5,1.3,5.4,2,8.4,2c10.3,0,18.6-8.3,18.6-18.6L327.8,123.7z M161.8,71.7c-3.9,0-7-3.2-7-7c0-3.9,3.1-7,7-7c3.9,0,7,3.2,7,7
	C168.8,68.6,165.7,71.7,161.8,71.7z M242.3,32.9l0.4-0.7c2.3-2.3,4.5,6.5,1.5,4.5c0,0,0,0,0,0c-0.3-0.2-0.7-0.4-1-0.6
	C242.1,35.5,241.6,34.1,242.3,32.9z M238.2,57.6c3.9,0,7,3.2,7,7.1c0,3.9-3.1,7-7,7c-3.9,0-7-3.1-7-7
	C231.2,60.8,234.3,57.6,238.2,57.6z"/>
</svg>
