<?xml version="1.0" encoding="utf-8"?>
<!-- Generator: Adobe Illustrator 23.0.1, SVG Export Plug-In . SVG Version: 6.00 Build 0)  -->
<svg version="1.1"
	 id="google" inkscape:version="0.92.1 r15371" sodipodi:docname="google.svg" xmlns:cc="http://creativecommons.org/ns#" xmlns:dc="http://purl.org/dc/elements/1.1/" xmlns:inkscape="http://www.inkscape.org/namespaces/inkscape" xmlns:rdf="http://www.w3.org/1999/02/22-rdf-syntax-ns#" xmlns:sodipodi="http://sodipodi.sourceforge.net/DTD/sodipodi-0.dtd" xmlns:svg="http://www.w3.org/2000/svg"
	 xmlns="http://www.w3.org/2000/svg" xmlns:xlink="http://www.w3.org/1999/xlink" x="0px" y="0px" viewBox="0 0 400 400"
	 style="enable-background:new 0 0 400 400;" xml:space="preserve">
<sodipodi:namedview  bordercolor="#666666" borderopacity="1" fit-margin-bottom="50" fit-margin-left="0" fit-margin-right="0" fit-margin-top="0" gridtolerance="10" guidetolerance="10" id="namedview12" inkscape:current-layer="google" inkscape:cx="228.03309" inkscape:cy="134.199" inkscape:pageopacity="0" inkscape:pageshadow="2" inkscape:window-height="1017" inkscape:window-maximized="1" inkscape:window-width="1920" inkscape:window-x="1358" inkscape:window-y="-8" inkscape:zoom="2.6074563" objecttolerance="10" pagecolor="#ffffff" showgrid="false">
	</sodipodi:namedview>
<title  id="title6">google</title>
<path d="M323.7,120.8h-29.8c-9.1,0-17.9-3.1-24.7-9.1c-16.9-14.8-5.3-31.3,17.1-58c1.8-1.8,3.7-3.7,5.6-5.5c3-3,2.8-7.9-0.5-10.6
	c-11.8-9.8-25.2-17.5-39.6-22.9c-30.7-11.1-64.2-11.4-95-0.8C83,39.4,44,119.8,69.6,193.4c15.3,44.2,51.6,77.9,96.7,90.1
	c19.4,5,39.6,6.1,59.3,3.2c2.8-0.4,5.6-0.4,8.3,0.1c44.4,8.5-8.7,107.8,27.1,107c35.5,3.9-9.6-78.9,25.3-129.1
	c2.3-3.3,5.2-6.3,8.2-9c0.6-0.5,1.1-1,1.7-1.5c17-15.9,29.3-36.2,35.7-58.6c5.8-20.4,7.6-41.7,5.3-62.7
	C336.6,126,330.6,120.8,323.7,120.8z M251,213.2c-1.7,5.7-6.1,10.2-11.5,12.6c-6.1,2.7-12.5,4.7-19.1,5.8c-11.1,2.1-22.5,2.1-33.7,0
	c-11.3-2.3-22-7-31.3-13.7c-15.1-10.7-26.4-25.8-32.3-43.3c-6-17.8-6-37.1,0-54.9c4.2-12.5,11.2-23.9,20.5-33.3
	c18.5-19.2,46.4-27.6,72.8-23.9c10.6,1.5,20.4,7,26.5,15.9c9.5,13.9,6.5,29.2-9.7,37.8c-5.9,3.1-12.6,4.6-19.3,4.6l-4.8,0
	c-3.5,0-6.3,2.8-6.3,6.3v43.7c0,2.9,2,5.4,4.9,6.1C234.6,183.4,256.2,195.8,251,213.2z M278.1,182.8c-0.8,2.8-1.8,5.5-2.9,8.1
	c-2.2,5.1-8.9,6.5-12.8,2.6c-2.5-2.5-4.6-6.1-5.4-9.4c-1.1-4.2,2.2-8.2,6.5-8.2h9.4C276.5,175.8,279.1,179.3,278.1,182.8z"/>
</svg>
