<?xml version="1.0" encoding="utf-8"?>
<!-- Generator: Adobe Illustrator 23.0.1, SVG Export Plug-In . SVG Version: 6.00 Build 0)  -->
<svg version="1.1"
	 id="svg4" inkscape:version="0.92.1 r15371" sodipodi:docname="ubuntu.svg" xmlns:cc="http://creativecommons.org/ns#" xmlns:dc="http://purl.org/dc/elements/1.1/" xmlns:inkscape="http://www.inkscape.org/namespaces/inkscape" xmlns:rdf="http://www.w3.org/1999/02/22-rdf-syntax-ns#" xmlns:sodipodi="http://sodipodi.sourceforge.net/DTD/sodipodi-0.dtd" xmlns:svg="http://www.w3.org/2000/svg"
	 xmlns="http://www.w3.org/2000/svg" xmlns:xlink="http://www.w3.org/1999/xlink" x="0px" y="0px" viewBox="0 0 400 400"
	 style="enable-background:new 0 0 400 400;" xml:space="preserve">
<sodipodi:namedview  bordercolor="#666666" borderopacity="1" fit-margin-bottom="60" fit-margin-left="0" fit-margin-right="0" fit-margin-top="0" gridtolerance="10" guidetolerance="10" id="namedview6" inkscape:current-layer="svg4" inkscape:cx="74.882178" inkscape:cy="122.79142" inkscape:pageopacity="0" inkscape:pageshadow="2" inkscape:window-height="1017" inkscape:window-maximized="1" inkscape:window-width="1920" inkscape:window-x="1358" inkscape:window-y="-8" inkscape:zoom="4" objecttolerance="10" pagecolor="#ffffff" showgrid="false">
	</sodipodi:namedview>
<path d="M345.8,150.5C345.8,70,280.5,4.7,200,4.7C119.6,4.7,54.2,70,54.2,150.5c0,80.5,65.3,145.8,145.8,145.8
	c3.3,0,6.5-0.1,9.7-0.4c2-0.1,4.1-0.1,6.1,0.1c43.1,6-7.1,95,32.7,99.2c38.4-2.7-34-74.2,33-123.8
	C320.3,245.3,345.8,200.9,345.8,150.5z M232.7,54.9c5.4-9.3,17.3-12.5,26.6-7.1c9.3,5.4,12.5,17.3,7.1,26.6
	c-5.4,9.3-17.3,12.5-26.6,7.1C230.5,76.1,227.3,64.2,232.7,54.9z M200,66c5.7,0,11.2,0.6,16.6,1.6c3.4,0.7,6.1,3.2,7.3,6.5
	c2.1,5.8,6.2,10.9,12,14.3c5.8,3.3,12.2,4.3,18.3,3.3c3.3-0.6,6.4,1.3,7.5,4.4c6.8,20.6,0.4,52.3-6.9,39.4
	c-6.6-24.1-28.6-41.8-54.8-41.8c-7.3,0-14.3,1.4-20.7,3.9c-1.9,0.7-4,0-5-1.8l-9.7-17.3c-1.1-2.1-0.3-4.7,1.9-5.6
	C176.8,68.4,188.1,66,200,66z M259.3,253.2c-9.3,5.4-21.2,2.2-26.6-7.1c-5.4-9.3-2.2-21.2,7.1-26.6c9.3-5.4,21.2-2.2,26.6,7.1
	C271.8,236,268.6,247.9,259.3,253.2z M164.5,106.1c-8.2,6.5-14.5,15.2-18,25.3c-0.5,1.3-1.5,2.5-2.9,2.9c-8.1,2.2-2.4-27.4,6.2-47.3
	c1.3-3,5.4-3.2,7.1-0.4l8.6,14.4C166.5,102.6,166.1,104.9,164.5,106.1z M122.8,116.1c0.9-2,3.8-1.8,4.3,0.4c1.4,6-1.2,19.1-5.4,16.4
	c0,0,0,0,0,0c-2.2-2.5-2.9-6-1.9-9.2C120.7,121.1,121.7,118.5,122.8,116.1z M92.5,132.9c11.1-2.4,0.2,32.4-8.7,27
	c-1.5-2.8-2.4-6-2.4-9.4C81.4,142.7,85.9,136.1,92.5,132.9z M106.1,169.2c-11,0.3-7.4-41.7,7.4-33.5c4.1,3.6,6.8,8.8,6.8,14.8
	C120.3,159.4,114.3,166.9,106.1,169.2z M119.8,177.3c-1-3.1-0.3-6.5,1.8-8.9c4.1-4.8,6.6-11,6.6-17.8c0-0.7-0.1-1.5-0.1-2.2
	c0.6-5.5,12.6-0.7,15.7,10.9l0,0c2.2,14.4,9.8,27.1,20.7,35.8c1.6,1.3,2,3.5,1,5.2l-10.2,17.1c-1.2,2-3.9,2.6-5.8,1.2
	C135.8,208.1,125.3,193.9,119.8,177.3z M164.6,222.6l9.7-17.3c1-1.8,3.1-2.5,5-1.8c6.4,2.5,13.4,3.9,20.7,3.9c2.9,0,5.8-0.3,8.6-0.7
	l0,0c9.5-1.8,15.1,4.7,16.3,10.1c1.2,5.4,0.2,14.1-11.1,17.1c-4.5,0.7-9,1.2-13.7,1.2c-11.9,0-23.2-2.5-33.5-6.9
	C164.3,227.2,163.5,224.6,164.6,222.6z M263.6,206.2c-2.4,2.7-6,3.8-9.5,3.2c-4.5-0.8-9.2-0.4-13.7,1.2l0.1-0.1
	c-0.1,0.1-0.3,0.1-0.4,0.2c-0.6,0.2-1.1,0.4-1.7,0.7c-4.3,0.8-8-4.6-5.6-11.5c0.8-2.5,2.4-4.7,4.4-6.4c9.6-8.3,16.3-19.7,18.7-32.6
	c0.6-3.1,3.2-5.3,6.4-5.3l15.1,0.2c3.9,0.1,6.8,3.5,6.2,7.4C281.1,179.6,274,194.4,263.6,206.2z M274.6,145.2
	c-9.5-0.7,2.8-30.5,6.1-20.1c1.5,4.7,2.6,9.7,3.2,14.7c0.3,2.8-1.8,5.2-4.6,5.3L274.6,145.2z"/>
</svg>
