<?xml version="1.0" encoding="UTF-8" standalone="no"?>
<svg
   xmlns:dc="http://purl.org/dc/elements/1.1/"
   xmlns:cc="http://creativecommons.org/ns#"
   xmlns:rdf="http://www.w3.org/1999/02/22-rdf-syntax-ns#"
   xmlns:svg="http://www.w3.org/2000/svg"
   xmlns="http://www.w3.org/2000/svg"
   viewBox="0 0 533.33331 533.33331"
   height="533.33331"
   width="533.33331"
   xml:space="preserve"
   id="svg2"
   version="1.1"><metadata
     id="metadata8"><rdf:RDF><cc:Work
         rdf:about=""><dc:format>image/svg+xml</dc:format><dc:type
           rdf:resource="http://purl.org/dc/dcmitype/StillImage" /></cc:Work></rdf:RDF></metadata><defs
     id="defs6"><clipPath
       id="clipPath18"
       clipPathUnits="userSpaceOnUse"><path
         id="path16"
         d="M 0,400 H 400 V 0 H 0 Z" /></clipPath></defs><g
     transform="matrix(1.3333333,0,0,-1.3333333,0,533.33333)"
     id="g10"><g
       id="g12"><g
         clip-path="url(#clipPath18)"
         id="g14"><g
           transform="translate(172.6431,98.9473)"
           id="g20"><path
             id="path22"
             style="fill:#000000;fill-opacity:1;fill-rule:nonzero;stroke:none"
             d="m 0,0 c 0,-6.149 0.13,-16.488 0.13,-18.443 0,-1.955 2.303,-2.459 2.745,-2.225 13.243,7.016 19.379,28.403 12.504,41.687 C 12.385,26.804 6.021,23.344 4.765,22.797 3.509,22.25 0.574,19.681 0.395,17.815 Z m 23.429,168.709 c 0.182,2.665 0.514,5.33 0.506,7.994 -0.009,2.864 -0.025,5.789 -0.587,8.577 -1.317,6.544 -5.661,7.961 -10.544,3.367 -2.517,-2.368 -4.411,-5.387 -6.712,-8.002 -2.293,-2.605 -4.428,-5.506 -7.188,-7.514 -6.861,-4.991 -14.035,-1.714 -14.235,6.745 -0.129,5.457 1.668,10.931 1.94,16.43 0.301,6.052 0.247,12.187 -0.419,18.201 -0.495,4.468 -3.565,6.841 -8.385,5.685 -10.518,-2.521 -21.718,-3.561 -31.405,-7.936 -29.505,-13.329 -47.74,-36.396 -50.826,-68.958 -3.079,-32.486 9.257,-59.222 35.81,-78.567 16.938,-12.339 36.014,-17.317 57.291,-17.015 22.798,0.323 42.323,7.722 59.355,21.92 36.891,30.751 40.246,86.226 7.902,120.23 -3.704,3.894 -5.75,2.78 -7.847,-0.97 -3.447,-6.168 -1.658,-12.347 0.174,-18.512 1.342,-4.515 2.995,-8.986 3.798,-13.6 1.494,-8.603 -3.51,-16.681 -10.833,-18.323 -7.583,-1.7 -15.231,4.78 -16.845,12.499 -1.613,7.719 -0.95,17.749 -0.95,17.749 m 144.746,119.365 c 13.475,0.006 20.907,-8.485 16.524,-21.357 -5.164,-15.17 -10.38,-30.376 -16.704,-45.08 -5.2,-12.086 -3.834,-23.374 -0.224,-35.329 2.752,-9.112 5.094,-18.576 5.77,-28.015 0.541,-7.545 -5.327,-13.067 -11.549,-13.89 -7.096,-0.938 -13.989,3.129 -16.454,10.1 -2.466,6.971 -1.779,10.793 -1.6,16.189 0.117,3.555 1.64,7.218 3.166,10.541 4.507,9.81 3.707,18.579 -3.814,26.692 -4.882,5.266 -9.385,10.888 -13.969,16.425 -2.091,2.524 -4.045,2.852 -6.798,0.813 -11.724,-8.686 -23.482,-17.331 -35.398,-25.749 -3.657,-2.583 -2.445,-4.668 -0.719,-7.645 C 110.075,150.921 108.4,110.675 82.667,71.468 72.573,56.086 58.779,44.285 42.377,35.969 37.134,33.31 34.582,29.626 33.485,24.405 c -2.85,-13.575 -2.72,-27.057 3.046,-39.872 1.846,-4.106 4.829,-8.145 8.306,-10.964 4.496,-3.642 7.107,-7.473 5.609,-13.151 -1.519,-5.76 -5.974,-8.327 -11.559,-8.419 -10.271,-0.168 -20.55,0.058 -30.824,0.17 -8.042,0.089 -8.013,0.123 -8.085,-8.084 -0.053,-5.959 0.073,-11.938 -0.366,-17.87 -0.556,-7.501 -5.16,-12.139 -11.422,-12.183 -6.507,-0.046 -11.283,4.89 -11.599,12.632 -0.277,6.769 -0.173,13.566 0.079,20.34 0.158,4.242 -1.441,5.902 -5.702,5.859 -8.629,-0.087 -17.262,0.145 -25.893,0.281 -2.464,0.039 -4.947,0.034 -7.385,0.339 -6.974,0.874 -11.42,5.497 -11.33,11.576 0.09,6.044 4.642,10.523 11.667,11.279 2.236,0.241 4.515,0.137 6.773,0.108 8.836,-0.111 17.677,-0.133 26.507,-0.443 4.065,-0.143 5.388,1.497 5.357,5.429 -0.09,11.301 -0.108,22.613 0.269,33.907 0.169,5.055 -1.814,6.53 -6.615,7.218 -42.12,6.031 -73.711,27.435 -91.675,66.322 -27.025,58.5 3.456,127.737 65.802,150.211 43.508,15.684 83.328,7.603 119.168,-21.013 3.72,-2.97 6.004,-2.833 9.511,-0.186 10.66,8.046 21.445,15.938 32.378,23.608 3.774,2.647 4.437,4.558 0.947,8.058 -5.364,5.376 -10.306,11.176 -15.341,16.873 -3.748,4.241 -5.983,9.018 -3.436,14.672 2.565,5.697 7.613,6.961 13.314,6.934 11.301,-0.054 22.601,-0.016 33.902,-0.016 z" /></g></g></g></g></svg>