<?xml version="1.0" encoding="utf-8"?>
<!-- Generator: Adobe Illustrator 23.0.6, SVG Export Plug-In . SVG Version: 6.00 Build 0)  -->
<svg version="1.1" id="Layer_1" xmlns="http://www.w3.org/2000/svg" xmlns:xlink="http://www.w3.org/1999/xlink" x="0px" y="0px"
	 viewBox="0 0 400 400" enable-background="new 0 0 400 400" xml:space="preserve">
<path d="M303.5,5c9.9,0,15.4,6.2,12.1,15.7c-3.8,11.2-7.6,22.3-12.3,33.1c-3.8,8.9-2.8,17.2-0.2,26c2,6.7,3.7,13.7,4.2,20.6
	c0.4,5.5-3.9,9.6-8.5,10.2c-5.2,0.7-10.3-2.3-12.1-7.4s-1.3-7.9-1.2-11.9c0.1-2.6,1.2-5.3,2.3-7.7c3.3-7.2,2.7-13.7-2.8-19.6
	c-3.6-3.9-6.9-8-10.3-12.1c-1.5-1.9-3-2.1-5-0.6c-8.6,6.4-17.3,12.7-26,18.9c-2.7,1.9-1.8,3.4-0.5,5.6c17.4,30,16.2,59.6-2.7,88.4
	c-7.4,11.3-17.6,20-29.6,26.1c-3.9,2-5.7,4.7-6.5,8.5c-2.1,10-2,19.9,2.2,29.3c1.4,3,3.6,6,6.1,8.1c3.3,2.7,5.2,5.5,4.1,9.7
	c-1.1,4.2-4.4,6.1-8.5,6.2c-7.6,0.1-15.1,0-22.7-0.1c-5.9-0.1-5.9-0.1-5.9,5.9c0,4.4,0.1,8.8-0.3,13.1c-0.4,5.5-3.8,8.9-8.4,9
	c-4.8,0-8.3-3.6-8.5-9.3c-0.2-5-0.1-10,0.1-15c0.1-3.1-1.1-4.3-4.2-4.3c-6.3,0.1-12.7-0.1-19-0.2c-1.8,0-3.6,0-5.4-0.2
	c-5.1-0.6-8.4-4-8.3-8.5c0.1-4.4,3.4-7.7,8.6-8.3c1.6-0.2,3.3-0.1,5-0.1c6.5,0.1,13,0.1,19.5,0.3c3,0.1,4-1.1,3.9-4
	c-0.1-8.3-0.1-16.6,0.2-24.9c0.1-3.7-1.3-4.8-4.9-5.3c-31-4.4-54.2-20.2-67.4-48.8C70.8,108.4,93.2,57.5,139,41
	c32-11.5,61.3-5.6,87.6,15.4c2.7,2.2,4.4,2.1,7,0.1c7.8-5.9,15.8-11.7,23.8-17.4c2.8-1.9,3.3-3.4,0.7-5.9c-3.9-4-7.6-8.2-11.3-12.4
	c-2.8-3.1-4.4-6.6-2.5-10.8c1.9-4.2,5.6-5.1,9.8-5.1c8.3,0,16.6,0,24.9,0L303.5,5z M197.1,92.8c0.1-2,0.4-3.9,0.4-5.9
	c0-2.1,0-4.3-0.4-6.3c-1-4.8-4.2-5.9-7.8-2.5c-1.9,1.7-3.2,4-4.9,5.9c-1.7,1.9-3.3,4-5.3,5.5c-5,3.7-10.3,1.3-10.5-5
	c-0.1-4,1.2-8,1.4-12.1c0.2-4.4,0.2-9-0.3-13.4c-0.4-3.3-2.6-5-6.2-4.2c-7.7,1.9-16,2.6-23.1,5.8c-21.7,9.8-35.1,26.8-37.4,50.7
	c-2.3,23.9,6.8,43.5,26.3,57.8c12.5,9.1,26.5,12.7,42.1,12.5c16.8-0.2,31.1-5.7,43.6-16.1c27.1-22.6,29.6-63.4,5.8-88.4
	c-2.7-2.9-4.2-2-5.8,0.7c-2.5,4.5-1.2,9.1,0.1,13.6c1,3.3,2.2,6.6,2.8,10c1.1,6.3-2.6,12.3-8,13.5c-5.6,1.2-11.2-3.5-12.4-9.2
	C196.6,100.1,197.1,92.8,197.1,92.8z M179.9,216.8c0,4.5,0.1,12.1,0.1,13.6c0,1.4,1.7,1.8,2,1.6c9.7-5.2,14.2-20.9,9.2-30.6
	c-2.2-4.3-6.9-1.7-7.8-1.3c-0.9,0.4-3.1,2.3-3.2,3.7L179.9,216.8z"/>
</svg>
