<?xml version="1.0" encoding="utf-8"?>
<!-- Generator: Adobe Illustrator 22.1.0, SVG Export Plug-In . SVG Version: 6.00 Build 0)  -->
<svg version="1.1"
	 id="svg12" inkscape:version="0.92.1 r15371" sodipodi:docname="translation.svg" xmlns:cc="http://creativecommons.org/ns#" xmlns:dc="http://purl.org/dc/elements/1.1/" xmlns:inkscape="http://www.inkscape.org/namespaces/inkscape" xmlns:rdf="http://www.w3.org/1999/02/22-rdf-syntax-ns#" xmlns:sodipodi="http://sodipodi.sourceforge.net/DTD/sodipodi-0.dtd" xmlns:svg="http://www.w3.org/2000/svg"
	 xmlns="http://www.w3.org/2000/svg" xmlns:xlink="http://www.w3.org/1999/xlink" x="0px" y="0px" viewBox="0 0 300 300"
	 style="enable-background:new 0 0 300 300;" xml:space="preserve">
<sodipodi:namedview  bordercolor="#666666" borderopacity="1" gridtolerance="10" guidetolerance="10" id="namedview14" inkscape:current-layer="svg12" inkscape:cx="103.44749" inkscape:cy="157.23721" inkscape:pageopacity="0" inkscape:pageshadow="2" inkscape:window-height="1017" inkscape:window-maximized="1" inkscape:window-width="1920" inkscape:window-x="1358" inkscape:window-y="-8" inkscape:zoom="1.5733333" objecttolerance="10" pagecolor="#ffffff" showgrid="false">
	</sodipodi:namedview>
<path d="M264.8,111.1h-75.7v13.1h50.2c3.6,0,7.1,1.2,9.8,3.5c16.6,14-7.3,34.7,8.8,37.8c16.7-0.2-10.1-25.4,8.5-38.5
	c2.2-1.5,5.1-1.6,7.3-0.2c5.2,3.2,8.7,9.2,8.7,16.1v53.9c0,10.3-7.9,18.7-17.6,18.7h-25v23.9l-20.2-23.9h-14.5
	c-3.1,0-6.2-1.1-8.5-3.2c-5.6-4.9-6.5-10.2-4.8-14.5c0.8-2,2.6-3.5,4.7-4.1c6.1-1.6,11.5-5.2,13.6-7.1c2.7-2.4,10-10.8,13.2-17.4
	c4.1,1.9,6,5.1,6,8.7c0,7.7-7.4,12.2-19.2,13.5l5.7,7.9c18.5-2.4,24.8-10.2,24.8-21.6c0-9.6-6.1-15.5-13.8-18
	c0.1-0.7,0.4-1.4,0.5-2.2l-10.5-1.9c-0.1,1.1-0.3,1.3-0.5,2.3c-3.8-0.2-8,0.4-9.3,0.6c0-1.9,0.1-7.1,0.1-8.9
	c8.8-0.4,17.4-1.1,25.4-2.3l-0.9-10.4c-8.2,1.6-16.1,2.5-23.9,2.9c0.2-2.1,0.5-7.9,0.5-7.9l-11.1-0.8c-0.1,2.9-0.2,6.2-0.4,9.1
	c-4.9,0.1-10.8,0.1-13.8,0l0.5,10h1.2c0.2,0,0.4,0,0.7,0c4.4,1.7,7.5,6.8,9,12.3c-8.7,4.4-14.8,11.7-14.8,20.7c0,5,2.4,8.8,6.6,10.3
	c1.4,0.5,2.4,1.9,2.4,3.4c0,5.2-3.1,11.6-7.4,15.7c-1.7,1.6-3.9,2.4-6.2,2.4h-22c-9.7,0-17.6-8.4-17.6-18.7v-53.9
	c0-7.2,3.8-13.4,9.3-16.5c2.2-1.3,5-0.9,6.8,0.9c3,3,5,8.4,3.4,13c-0.8,2.1-2.6,3.7-4.9,4.1c-1,0.2-2.1,0.3-3.2,0.3v13.1
	c0.5,0,0.9,0,1.4,0c1.9-0.1,3.6,1.1,4.1,2.9c2.6,10.2-10.9,39.9,3,40.1c15.6-0.2,5.4-15.3,4.3-31.2c-0.5-7.4,2.2-14.8,7.7-19.9
	c6.3-5.8,10.2-14.2,10.2-23.7V72.2c0-17.5-13.8-31.8-30.7-31.8H35.2c-16.9,0-30.7,14.3-30.7,31.8v53.9c0,17.5,13.8,31.8,30.7,31.8
	h5.5c2.1,0,4,1.3,4.6,3.3c0.9,2.9,1.5,5.8,1.9,8.9v11c0,0.2,0,0.4,0,0.5c0.1,2.8,0.2,5.6-0.1,8.5c-3.4,33.1-19.2,66.5,7.4,66.1
	c23.1-2.6,4.6-28.8,7.2-58.2c0.7-7.7,3.7-15,8.7-20.9l16.2-19.2h24.4v-13.1H80.4l-20.2,23.9v-23.9h-25c-9.7,0-17.6-8.4-17.6-18.7
	V72.2c0-5.2,2-9.9,5.2-13.3c2-2.1,5.1-2.6,7.6-1.2c15.7,8.2,26.4,20,32.4,38.4c1.8,5.5,1.5,11.4-0.5,16.7l-4,10.4H72l4.8-13.6h22.8
	l4.6,13.6l7.1,0c4.8,0,9.3,3,10.8,7.6c0,0.1,0,0.1,0.1,0.2c0.8,2.3,0.8,4.8,0.5,7.2c-0.2,1.5-0.3,3.1-0.3,4.6v53.9
	c0,15.7,10.9,28.7,25.3,31.3c5.8,1.1,11,4.6,13.4,10c8.5,18.7-10.5,50.7,5.8,51.2c22.1,0.2-13.7-42.3,10.9-57.8
	c1.9-1.2,4.3-1.9,6.5-1.6c12.7,1.6-6,26.9,6.7,27.1c14-1.2-3.9-16.3,5.7-25.4c2.1-2,5.1-3.1,8-3.1l9,0l24.4,28.9
	c1.6,1.9,3.9,2.9,6.3,2.9c1,0,2-0.2,3-0.5c3.4-1.3,5.7-4.5,5.7-8.1v-23.2H265c16.9,0,30.7-14.3,30.7-31.8v-53.9
	C295.5,125.3,281.7,111.1,264.8,111.1z M213,167.5c-1.5,3-3.3,5.7-5.3,8c-0.3-2.4-0.4-4.8-0.6-7.3C207.9,168,211.1,167.5,213,167.5z
	 M191.6,150.4c1.7,0,3.4-0.1,5-0.2c0,1,0,2.4,0,3.8C194.1,155.6,189.8,152.8,191.6,150.4z M197.3,171.7c0.4,4,0.8,7.8,1.4,11.3
	c-1.8,0.9-3.6,1.5-5.3,1.6c-3.6,0.1-3.6-2.1-3.6-3.1C189.9,177.6,192.8,174.2,197.3,171.7z M80.3,99.6l8-22.4h0.2l7.7,22.4H80.3z
	 M115,114.8L95.3,62.1H81.6l-2,5.2c-1.3,3.3-3.9,5.9-7.2,6.9C62,77.6,52.6,67.7,49.2,57.5c-0.7-2,0.8-4,2.9-4l64.9,0
	c2.3,0,4.6,0.7,6.4,2.1c16.8,12.6-6.4,36.8,9.7,37.3c14.2-1.3-7.9-22.9,10.1-38.1c1-0.9,2.3-1.3,3.7-1.3l0,0
	c9.7,0,17.6,8.4,17.6,18.7v53.9v0c0,1.2-1,2.5-2.2,2.6c-3.8,0.4-7.7-5.6-9.2-11.7c-0.2-0.6-0.2-1.3-0.2-2c0-1.5,0-4,0-4
	c-7.7,0-14.8,3-20.2,7.9c-1.7,1.6-3.7,2.9-5.9,3.6C121.1,124.5,118.5,121.3,115,114.8z"/>
</svg>
