<?xml version="1.0" encoding="utf-8"?>
<!-- Generator: Adobe Illustrator 23.0.1, SVG Export Plug-In . SVG Version: 6.00 Build 0)  -->
<svg version="1.1"
	 id="svg4" xmlns:cc="http://creativecommons.org/ns#" xmlns:dc="http://purl.org/dc/elements/1.1/" xmlns:inkscape="http://www.inkscape.org/namespaces/inkscape" xmlns:rdf="http://www.w3.org/1999/02/22-rdf-syntax-ns#" xmlns:sodipodi="http://sodipodi.sourceforge.net/DTD/sodipodi-0.dtd" xmlns:svg="http://www.w3.org/2000/svg"
	 xmlns="http://www.w3.org/2000/svg" xmlns:xlink="http://www.w3.org/1999/xlink" x="0px" y="0px" viewBox="0 0 400 400"
	 style="enable-background:new 0 0 400 400;" xml:space="preserve">
<style type="text/css">
	.st0{fill:#000001;}
</style>
<sodipodi:namedview  bordercolor="#666666" borderopacity="1" fit-margin-bottom="50" fit-margin-left="0" fit-margin-right="0" fit-margin-top="0" gridtolerance="10" guidetolerance="10" id="namedview6" inkscape:current-layer="svg4" inkscape:cx="-150.9721" inkscape:cy="158.75825" inkscape:pageopacity="0" inkscape:pageshadow="2" inkscape:window-height="705" inkscape:window-maximized="1" inkscape:window-width="1366" inkscape:window-x="-8" inkscape:window-y="245" inkscape:zoom="1.3037281" objecttolerance="10" pagecolor="#ffffff" showgrid="false" showguides="false">
	</sodipodi:namedview>
<g>
	<path class="st0" d="M272,106.6c-2.9-4.8-6.5-9.5-8.2-14.8c-1.9-6-3.5-12.8-2.5-18.8c1.3-8,6.4-12.8,13.6-15
		c2.6-0.8,3.2-4.2,1.1-5.9C220.1,5.9,137.4,22.8,102.6,75c-1.6,2.3,0.2,5.4,3,5.3c10.6-0.5,20.8-1.1,31-1.2c2.3,0,6.2,1.9,6.7,3.8
		c1.2,4.1-2.2,5.5-5.9,5.8c-2.5,0.2-5,0.4-7.7,0.6c-2.3,0.2-3.8,2.4-3,4.6c14.2,42.4,28.3,84.2,42.6,127c3,5.2,3.8,15.9-0.8,33.5
		c-0.4,1.1-1,3.3-1.5,5.3c-0.6,2.2,0.7,4.5,3,5c22.2,5.4,44,4.9,66.2-1.8c2.2-0.7,3.4-3.1,2.6-5.3l-33.5-91.7c-1.1-3-5.4-3-6.4,0.1
		c-2.1,6.2-4.2,12.3-6.3,18.4c-3.5,7.3-7.7-2.4-6.6-11c3.1-9.5,6.3-18.9,9.4-28.4c0.7-2.2,0.4-5.2-0.4-7.5
		c-4.2-12.1-9.2-24-12.9-36.3c-2.5-8.4-5.9-13.8-15.8-12.9c-0.5,0-1-0.2-1.5-0.6c-2.8-2.3-2.1-7,1.2-8.3c0.5-0.2,1-0.3,1.5-0.3
		c20.2-0.3,40.4-0.3,60.7,0c0.3,0,0.7,0.1,1,0.2c3.9,1.2,4.4,6.6,0.9,8.6c-0.4,0.2-0.7,0.4-1.1,0.5c-1.5,0.5-3.1,0.7-4.7,0.8
		c-3.9,0.4-6.5,4.3-5.2,8c12.7,37.9,25.3,75.2,38.1,113.5c1.1,3.2,5.5,3.1,6.5-0.1c5.5-18.3,10.7-35.5,15.8-52.7
		C284.9,139.7,281.7,122.7,272,106.6z"/>
	<path class="st0" d="M203.4,4.7c-79-1.4-145,62.7-145,140.4c0,79.9,62.9,143.7,141.8,143.6c4.1,0,8.2-0.2,12.3-0.5
		c62.2-4.6,10.3,100.1,40.4,106.8c1.5,0.3,3,0.3,4.5,0.1c43.1-5.9-34.9-74.7,38.8-144.2c27.9-25.9,45.3-63,45.3-104.2
		C341.6,69.6,278.6,6.1,203.4,4.7z M295.7,241.5c-12.4,9.7-18.2,0.5-11.5-8.1c22.2-20.4,34.7-46.8,37.1-79.1
		c1.3-17.3-2.6-39.4-7.6-52.1c-1.3-3.4-6.4-2.6-6.6,1.1c-0.3,5.7-0.7,11.4-2.2,16.8c-6,21.1-13.3,41.8-20.3,62.6
		c-7.6,22.6-15.6,45.1-23.4,67.6c-6.3,13.3-14.7,19.3-23.7,23.5c-10.3,4.8-21.5,7.3-32.8,7.7c-1.6,0.1-3.1,0.1-4.7,0.1
		c-74.7,0-134.8-60.5-134.7-135.9c0-9.1,0.9-18,2.7-26.6c0.3-1.3,1-2.5,2.1-3.2c6.1-3.8,7.6,13.5,8.3,28.9c0,4.2,0.1,8.4,0.5,12.6
		c0,0,0,0,0,0l0,0c3.5,36.8,23.7,73.8,60.3,94.3c2.8,1.6,6-1.1,4.9-4.1L89.5,97.8c-5.5-16.7,5.9-34.1,19-50
		c24.1-22.4,56.4-36.2,91.5-36.2c75,0,134.8,60.9,134.7,137.4C334.7,184.7,319.7,217.5,295.7,241.5z"/>
</g>
</svg>
