<?xml version="1.0" encoding="utf-8"?>
<!-- Generator: Adobe Illustrator 23.0.6, SVG Export Plug-In . SVG Version: 6.00 Build 0)  -->
<svg version="1.1"
	 id="svg4" xmlns:cc="http://creativecommons.org/ns#" xmlns:dc="http://purl.org/dc/elements/1.1/" xmlns:inkscape="http://www.inkscape.org/namespaces/inkscape" xmlns:rdf="http://www.w3.org/1999/02/22-rdf-syntax-ns#" xmlns:sodipodi="http://sodipodi.sourceforge.net/DTD/sodipodi-0.dtd" xmlns:svg="http://www.w3.org/2000/svg"
	 xmlns="http://www.w3.org/2000/svg" xmlns:xlink="http://www.w3.org/1999/xlink" x="0px" y="0px" viewBox="0 0 400 400"
	 style="enable-background:new 0 0 400 400;" xml:space="preserve">
<style type="text/css">
	.st0{fill:#000001;}
</style>
<path class="st0" d="M269.6,103.6c-2.8-4.7-6.3-9.2-7.9-14.3c-1.8-5.8-3.3-12.4-2.4-18.2c1.3-7.7,6.2-12.4,13.2-14.5
	c2.5-0.8,3.1-4,1.1-5.7C219.4,6.1,139.5,22.5,105.8,73c-1.5,2.3,0.2,5.3,2.9,5.1c10.2-0.5,20.1-1.1,30-1.2c2.3,0,6,1.9,6.5,3.6
	c1.2,4-2.1,5.3-5.7,5.6c-2.4,0.2-4.8,0.4-7.4,0.6c-2.2,0.2-3.6,2.4-2.9,4.4c13.8,41,27.3,81.5,41.2,122.8c2.9,5,3.7,15.4-0.8,32.4
	c-0.4,1.1-0.9,3.1-1.5,5.1c-0.6,2.1,0.7,4.3,2.9,4.9c21.4,5.2,42.5,4.8,64.1-1.7c2.2-0.7,3.3-3,2.5-5.1l-32.4-88.8
	c-1.1-2.9-5.2-2.9-6.2,0.1c-2.1,6-4.1,11.9-6.1,17.8c-3.4,7.1-7.4-2.3-6.4-10.6c3-9.2,6.1-18.3,9.1-27.5c0.7-2.2,0.4-5-0.4-7.2
	c-4.1-11.7-8.9-23.2-12.5-35.1c-2.4-8.1-5.7-13.4-15.3-12.4c-0.5,0-0.9-0.2-1.4-0.6c-2.7-2.2-2.1-6.7,1.2-8c0.5-0.2,1-0.3,1.4-0.3
	c19.6-0.3,39.1-0.3,58.7,0c0.3,0,0.6,0.1,1,0.2c3.7,1.1,4.2,6.4,0.9,8.4c-0.3,0.2-0.7,0.4-1.1,0.5c-1.5,0.4-3,0.7-4.5,0.8
	c-3.8,0.3-6.2,4.2-5,7.8c12.3,36.6,24.4,72.7,36.9,109.8c1,3,5.4,3,6.3-0.1c5.3-17.7,10.4-34.3,15.3-51
	C282.2,135.6,279.1,119.1,269.6,103.6z"/>
<path class="st0" d="M203.3,5C126.9,3.7,63.1,65.7,63,140.8c0,77.3,60.9,139.1,137.2,138.9c4,0,8-0.2,11.9-0.5
	c60.1-4.5,10,96.8,39.1,103.3c1.4,0.3,2.9,0.3,4.4,0.1c41.7-5.7-33.8-72.3,37.5-139.5c27-25.1,43.8-61,43.8-100.8
	C337,67.8,276.1,6.3,203.3,5z M292.6,234.1c-12,9.4-17.6,0.4-11.1-7.8c21.5-19.7,33.5-45.3,35.9-76.6c1.3-16.7-2.5-38.1-7.4-50.4
	c-1.3-3.3-6.2-2.5-6.4,1c-0.2,5.5-0.6,11-2.1,16.3c-5.8,20.4-12.8,40.5-19.6,60.6c-7.4,21.9-15.1,43.6-22.6,65.4
	c-6.1,12.9-14.2,18.7-22.9,22.8c-9.9,4.7-20.8,7.1-31.8,7.4c-1.5,0.1-3,0.1-4.6,0.1c-72.3,0-130.4-58.6-130.4-131.4
	c0-8.8,0.9-17.4,2.6-25.8c0.3-1.3,1-2.4,2.1-3.1c5.9-3.7,7.3,13.1,8,28c0,4,0.1,8.1,0.5,12.2c0,0,0,0,0,0l0,0
	c3.4,35.6,22.9,71.4,58.3,91.3c2.7,1.5,5.8-1.1,4.7-4L93.1,95c-5.3-16.1,5.7-33,18.3-48.3c23.3-21.7,54.5-35,88.5-35
	c72.6,0,130.4,58.9,130.3,132.9C330.3,179.1,315.8,210.8,292.6,234.1z"/>
</svg>
