<?xml version="1.0" encoding="utf-8"?>
<!-- Generator: Adobe Illustrator 23.0.1, SVG Export Plug-In . SVG Version: 6.00 Build 0)  -->
<svg version="1.1"
	 id="svg2" xmlns:cc="http://creativecommons.org/ns#" xmlns:dc="http://purl.org/dc/elements/1.1/" xmlns:inkscape="http://www.inkscape.org/namespaces/inkscape" xmlns:rdf="http://www.w3.org/1999/02/22-rdf-syntax-ns#" xmlns:sodipodi="http://sodipodi.sourceforge.net/DTD/sodipodi-0.dtd" xmlns:svg="http://www.w3.org/2000/svg"
	 xmlns="http://www.w3.org/2000/svg" xmlns:xlink="http://www.w3.org/1999/xlink" x="0px" y="0px" viewBox="0 0 400 400"
	 style="enable-background:new 0 0 400 400;" xml:space="preserve">
<path d="M372.7,132L206.2,7c-3.7-2.8-8.8-2.8-12.5,0L27.2,132c-3.6,2.7-5.1,7.4-3.6,11.6c1.1,3.5,4,6,7.5,6.8
	c42.3,16.4,61.2,40.4,69.4,59c4,8.9,5.9,18.6,5.9,28.4l0,27.4c0,5.7,4.6,10.4,10.4,10.4l81.8,0c3.4,0,6.9,0.4,10.2,1.3
	c51.7,14-12.5,113.8,35.7,118.2c38.7-2.5-24.6-99.1,35.9-118.6c1.5-0.5,3-0.7,4.6-1c4.9-0.8,8.7-5.1,8.7-10.3V155.9
	c0-2.9,2.3-5.2,5.2-5.2h67.7c4.5,0,8.5-2.9,9.9-7.1C377.7,139.3,376.3,134.6,372.7,132z M106.4,161c0,1.2-0.1,2.3-0.5,3.4
	c-4,12-18.5-13.8-9.9-13.8h8.2c1.2,0,2.2,1,2.2,2.2V161z M283.2,129.8c-5.7,0-10.4,4.6-10.4,10.4v109.3c0,2.9-2.3,5.2-5.2,5.2H132.3
	c-2.9,0-5.2-2.3-5.2-5.2V140.3c0-5.7-4.6-10.4-10.4-10.4H68.3c-1.2,0-1.7-1.5-0.7-2.2l129.2-97c1.9-1.4,4.4-1.4,6.3,0L315.5,115
	C326.8,125.4,317.8,129.9,283.2,129.8z"/>
</svg>
