<?xml version="1.0" encoding="utf-8"?>
<!-- Generator: Adobe Illustrator 23.0.6, SVG Export Plug-In . SVG Version: 6.00 Build 0)  -->
<svg version="1.1"
	 id="svg8" xmlns:cc="http://creativecommons.org/ns#" xmlns:dc="http://purl.org/dc/elements/1.1/" xmlns:inkscape="http://www.inkscape.org/namespaces/inkscape" xmlns:rdf="http://www.w3.org/1999/02/22-rdf-syntax-ns#" xmlns:sodipodi="http://sodipodi.sourceforge.net/DTD/sodipodi-0.dtd" xmlns:svg="http://www.w3.org/2000/svg"
	 xmlns="http://www.w3.org/2000/svg" xmlns:xlink="http://www.w3.org/1999/xlink" x="0px" y="0px" viewBox="0 0 400 400"
	 style="enable-background:new 0 0 400 400;" xml:space="preserve">
<path d="M363.2,34.6l-10.8-14.7c-3.1-4.2-8.9-5.1-13.1-2l-49.8,36.6c-3.7,2.7-8.7,2.1-11.7-1.3c-2.2-2.5-4.4-4.9-6.8-7.3
	c-26.4-26.4-61.6-41-99-41c-37.1,0-72.8,14.8-99,41c-26.4,26.4-41,61.6-41,99c0,29.4,9,57.3,25.6,80.8c4.4,6.2,8.2,12.7,11.1,19.7
	c11.5,27.6,13.1,53,11.7,74.6c-3.9,44.4-20,73.4,11.5,75.1c0.9,0,1.7,0,2.4-0.1c34.1-0.5,5.3-76.3,14.1-106.9
	c2.4-8.3,11.3-12.9,19.5-10.2c14,4.6,28.8,7,44,7c37.4,0,72.5-14.6,99-41c26.4-26.4,41-61.6,41-99c0-16-2.7-31.6-7.8-46.2
	c-1.3-3.6,0-7.6,3-9.9v0C387,34.3,262,264.9,344.4,262.6c49.5-5.6-40.5-109.2,19.5-213C366.6,44.9,366.4,39,363.2,34.6z M191.7,21.9
	c3.1-2,7-2.5,10.7-1.6c22.6,5.5,43.4,17.1,60.3,33.9c2,2,3.8,4,5.6,6c2.8,3.2,2.2,8.2-1.2,10.7l-58.6,43.1
	c-3.9,2.9-9.6,0.5-10.2-4.4C194.2,77.9,174.3,33.2,191.7,21.9z M135.8,207.7c5.3,29.7-3.8,43.4-24.2,42.7
	c-9.7-0.3-18.9-4.4-26.1-10.9c-1.4-1.3-2.7-2.6-4-3.9c-23.8-23.9-37.1-55.4-37.5-89.1c-0.4-33.4,12.3-65.8,35.4-90
	c18.1-19,41-31.7,66-36.9c5.9-1.2,12,1.3,15.1,6.4c14.1,24.3-26.7,97.7,3.1,114c2.7,1.5,3,5.2,0.6,7l-0.1,0.1c-1.7,1.2-4,1-5.4-0.5
	l-35.2-36.5c-5.3-5.5-14.1-5.6-19.5-0.1l-10,10.1c-5.1,5.1-5.2,13.3-0.4,18.7l18.6,20.6C124.2,173,132.5,189.7,135.8,207.7z
	 M262.7,235.5c-16,16-35.5,27.2-56.7,33c-10.1,2.8-21.1-0.8-27.4-9.2c-14.6-19.5-15.5-55.1,15.5-84.1l-0.2,0l91-69.4
	c3.7-2.8,9-1,10.3,3.4c3.3,11.4,5,23.4,5,35.6C300.2,179.1,286.9,211.3,262.7,235.5z"/>
</svg>
