<?xml version="1.0" encoding="UTF-8" standalone="no"?>
<svg
   xmlns:dc="http://purl.org/dc/elements/1.1/"
   xmlns:cc="http://creativecommons.org/ns#"
   xmlns:rdf="http://www.w3.org/1999/02/22-rdf-syntax-ns#"
   xmlns:svg="http://www.w3.org/2000/svg"
   xmlns="http://www.w3.org/2000/svg"
   viewBox="0 0 533.33331 533.33331"
   height="533.33331"
   width="533.33331"
   xml:space="preserve"
   id="svg2"
   version="1.1"><metadata
     id="metadata8"><rdf:RDF><cc:Work
         rdf:about=""><dc:format>image/svg+xml</dc:format><dc:type
           rdf:resource="http://purl.org/dc/dcmitype/StillImage" /></cc:Work></rdf:RDF></metadata><defs
     id="defs6"><clipPath
       id="clipPath18"
       clipPathUnits="userSpaceOnUse"><path
         id="path16"
         d="M 0,400 H 400 V 0 H 0 Z" /></clipPath></defs><g
     transform="matrix(1.3333333,0,0,-1.3333333,0,533.33333)"
     id="g10"><g
       id="g12"><g
         clip-path="url(#clipPath18)"
         id="g14"><g
           transform="translate(148.3638,309.9937)"
           id="g20"><path
             id="path22"
             style="fill:#000000;fill-opacity:1;fill-rule:nonzero;stroke:none"
             d="m 0,0 c 13.327,0.575 25.012,-5.113 37.056,-9.363 3.878,-1.368 7.754,-2.811 11.734,-3.807 9.493,-2.378 17.864,4.535 17.236,14.382 -0.088,1.376 -0.298,4.243 -2.707,4.455 -2.408,0.212 -3.68,-0.594 -5.031,-0.813 -5.742,-0.929 -7.559,1.422 -7.344,7.177 1.166,31.258 29.05,62.445 60.229,67.157 4.538,0.686 6.015,-0.748 5.97,-5.347 C 116.979,57.117 110.682,42.85 101.423,29.215 97.34,23.203 94.773,15.773 93.095,8.618 91.243,0.717 93.883,-0.719 101.85,0.15 c 28.303,3.088 52.4,-5.166 71.151,-27.305 2.665,-3.145 2.507,-4.733 -0.986,-7.291 -16.59,-12.147 -27.595,-27.989 -30.266,-48.798 -3.968,-30.906 9.553,-57.916 36.941,-73.029 4.808,-2.652 6.294,-4.837 3.693,-9.861 -6.409,-12.381 -11.581,-25.511 -18.998,-37.234 -7.901,-12.487 -9.192,-25.158 -5.468,-38.666 2.358,-8.556 6.56,-16.619 8.739,-25.207 1.581,-6.229 2.307,-13.113 1.414,-19.422 -1.124,-7.938 -7.4,-12.548 -14.114,-12.671 -6.711,-0.124 -12.787,4.287 -14.716,12.168 -1.674,6.834 -1.803,14.034 -3.039,20.997 -0.426,2.395 -1.324,6.188 -3.254,6.836 -1.931,0.648 -4,-3.668 -4.909,-5.939 -2.115,-5.282 -2.748,-11.297 -5.527,-16.125 -2.01,-3.494 -6.15,-6.96 -9.971,-7.917 -5.123,-1.283 -9.355,2.693 -10.913,7.526 -1.94,6.019 -3.473,12.362 -3.875,18.648 -1.22,19.083 -2.794,21.595 -21.096,27.393 -14.293,4.53 -28.505,3.643 -42.356,-1.777 -12.363,-4.839 -27.273,-11.406 -38.386,-7.863 -1.953,0.853 -4.085,-2.2 -4.597,-3.881 -2.046,-6.728 -3.437,-13.653 -5.13,-20.491 -0.876,-3.538 -1.516,-7.196 -2.904,-10.533 -2.181,-5.242 -6.184,-8.603 -12.143,-8.547 -6.182,0.056 -11.255,3.344 -12.361,9.052 -1.355,6.989 -2.004,14.661 -0.561,21.534 3.388,16.128 3.691,31.783 -2.325,47.264 -1.318,3.389 -2.875,6.747 -4.781,9.836 -22.235,36.052 -33.707,74.818 -31.133,117.539 2.465,40.933 29.526,74.344 67.757,82.315 C -8.26,-0.464 -4.092,-0.414 0,0" /></g></g></g></g></svg>