<?xml version="1.0" encoding="utf-8"?>
<!-- Generator: Adobe Illustrator 23.0.6, SVG Export Plug-In . SVG Version: 6.00 Build 0)  -->
<svg version="1.1" id="Layer_1" xmlns="http://www.w3.org/2000/svg" xmlns:xlink="http://www.w3.org/1999/xlink" x="0px" y="0px"
	 viewBox="0 0 400 400" style="enable-background:new 0 0 400 400;" xml:space="preserve">
<path d="M343.19,69.46c-0.08-11.01-0.02-22.03-0.15-33.04c-0.08-6.88-0.53-7.11-7.18-7.18c-7.62-0.09-24.85,0.12-33.71,0.12
	s-72.45-0.24-101.61-0.08c-29.16,0.16-90.63,0.01-135.94-0.01c-6.6,0-6.83,0.13-6.96,6.53c-0.64,30.48-1.62,60.97-1.79,91.45
	c-0.18,33.45,0.31,66.91,0.66,100.37c0.23,21.6,0.66,43.19,1.2,64.78c0.06,2.57,0.6,5.83,2.22,7.53
	c10.18,10.69,12.99,23.23,11.26,37.53c-0.98,8.08,0.29,16.11,4.94,23.15c4.02,6.09,10.12,8.99,15.63,7.13
	c6.25-2.11,8.68-7.2,8.76-13.38c0.09-6.55-0.49-13.11-0.37-19.66c0.07-3.96,0.47-8.03,1.56-11.81c0.98-3.42,3.37-3.59,5.34-0.42
	c1.9,3.05,3.15,6.67,5.58,9.19c2.13,2.21,5.69,4.73,8.25,4.39c2.55-0.34,5.43-3.7,6.74-6.42c1.79-3.73,2.35-8.08,3.24-12.21
	c2.23-10.42,12.42-18.16,23.69-18c45.1,0.65,90.21,0.58,135.32,0.8c13.04,0.06,19.37,5.93,20.85,18.93
	c0.59,5.24,1.15,10.56,2.51,15.62c2.08,7.69,7.95,12.02,14.09,11.25c6.43-0.81,11.52-6.64,11.99-14.4
	c0.31-5.06,0.04-10.16-0.09-15.24c-0.17-6.53,1.2-11.18,1.78-15.89c0.58-4.71,1.27-7.2,1.38-9.85c0.11-2.65,1.85-46.7,1.8-70.62
	C344.09,169.83,343.54,119.64,343.19,69.46z M316.1,189.28c-0.53,23.27-1.01,46.54-1.14,69.81c-0.03,4.89-1.05,5.98-6.18,6.11
	c-25.38,0.64-50.74,2.35-76.12,2.92c-21.78,0.5-43.59,0.17-65.37-0.16c-14.6-0.22-29.19-1.08-43.78-1.64
	c-11.21-0.43-22.41-0.94-33.62-1.16c-2.76-0.05-3.18-1.22-3.14-3.44c0.08-4.66,0.21-9.32,0.07-13.97
	c-0.76-25.8-1.91-51.6-2.27-77.41c-0.21-14.79,0.91-29.59,1.25-44.39c0.43-18.62,0.85-37.24,0.86-55.86c0-4.67,0.98-5.79,5.88-5.92
	c30.67-0.86,61.33-2.29,91.99-3.39c8.88-0.32,17.8,0.18,26.67-0.35c10.62-0.63,20.1,8.85,19.9,19.38c-0.08,4.23-0.13,8.48,0.2,12.7
	c0.53,6.84,3.99,11.83,8.68,12.75c6.31,1.24,10.74-1.94,13.76-6.95c2.94-4.88,5.06-10.24,7.95-15.15c1.17-1.98,2.92-5.4,5.18-4.95
	c2.26,0.45,3.55,4.57,3.52,6.83c-0.09,6.72-1.15,13.43-1.74,20.15c-0.33,3.78-0.98,7.63-0.6,11.35
	c1.15,11.31,11.27,16.05,20.89,10.05c8.19-5.11,12.63-15.95,10.79-26.69c-1.07-6.24-2.87-12.41-3.39-18.69
	c-0.78-9.3,5.08-15.59,14.26-16.97c3.62-0.54,4.36,0.64,4.32,3.93c-0.14,11-0.08,19.69-0.05,33.01c0.02,13.32,0.71,48.53,0.9,61.45
	C315.94,175.55,316.31,180.2,316.1,189.28z"/>
</svg>
