<?xml version="1.0" encoding="utf-8"?>
<!-- Generator: Adobe Illustrator 23.0.6, SVG Export Plug-In . SVG Version: 6.00 Build 0)  -->
<svg version="1.1" id="Layer_1" xmlns="http://www.w3.org/2000/svg" xmlns:xlink="http://www.w3.org/1999/xlink" x="0px" y="0px"
	 viewBox="0 0 400 400" style="enable-background:new 0 0 400 400;" xml:space="preserve">
<path d="M170.9,281.8c0.4-3.2,0.4-6.4-5.3-8.5s-12-5.8-17.3-10c-7.9-6.3-12.6-14.8-16-24c-3.2-8.8-9-14.8-16.5-20.1
	c-13.3-9.3-26.2-19.1-39-29.2c-9.4-7.4-13.4-17.9-14.3-29.6c-0.7-8.6,3.6-14.8,10.2-19.3c11.8-7.9,24.9-12.9,38.7-16.3
	c5.1-1.3,10.4-2.1,15.5-3.3c1.2-0.3,3.1-1.7,3-2.6c0-2-0.8-4.1-1.7-5.9c-0.6-1.1-2.1-1.7-3.4-2.4c-9.5-4.7-14.4-12.9-15.9-22.8
	c-3.7-24.8,4.8-45.1,23.9-60.9c7.7-6.4,17-9.1,27.1-6.8c7.9,1.8,13.1,6.9,16.6,13.9c5.6,11.1,5.6,22.8,2.8,34.6
	c-3.5,14.6-10.8,27-22.7,36.5c-2.7,2.1-5.3,4.4-7.9,6.6c-1.7,1.5-1.5,3.4-0.5,5.2c1,1.9,2.3,3.2,4.8,3.3c14.5,0.5,28.4,3.8,41.6,9.6
	c7.2,3.2,12.1,9,14.6,16.5c4,11.8,6.6,23.9,6.6,39.7c-1.5,19.8-4.5,42.4-15.8,63.1c-2.7,4.9-5.4,9.8-8.3,14.6
	c-3.4,5.5-2.8,11.2-0.8,16.8c2,5.4,4.6,10.5,4.1,16.5c-0.2,3.4-1.8,7.1-5.1,9.1c-3.3,2-8.8,3.7-13.2,1.1c-4.4-2.5-6.8-5.4-7.3-10.6
	C169.2,291.4,170.5,285,170.9,281.8z"/>
<path d="M257.3,246.5c-11.5-0.3-19.7-1.9-27-6.8c-11.8-7.9-15.6-22.1-9.7-35.5c6.2-13.8,17.1-22.5,30.8-28.1
	c4.1-1.7,8.5-2.5,12.7-3.8c1.1-0.3,2.2-0.6,3.2-1.1c2.2-1.3,4.1-3,3.7-5.8c-0.6-4.2-2.7-6.3-6.2-6.9c-10.2-1.8-18.9-6.1-24.1-15.5
	c-4.1-7.4-4.2-15.2-1.8-23c4.8-15.8,15.8-26.5,29.7-34.5c10.6-6.1,22-9.5,34.3-9.4c9.2,0.1,17.7,2.4,24.9,8.4
	c9.3,7.8,12.2,21.3,7.3,33.6c-7.1,17.7-20.6,28.7-37.6,35.8c-5.1,2.1-10.2,3.8-12.5,9.6c-1.5,3.9,0.4,9,4.2,10.1
	c19.8,5.7,27.6,25.6,17.2,43.6c-7.7,13.2-19.3,21.5-33.7,25.9C266.8,245.1,260.5,245.8,257.3,246.5z"/>
<path d="M274,39.5c-0.6,15.4-6,28.7-14.9,40.7c-5.7,7.6-12.4,14-20.5,19.1c-5,3.1-8.9,7.5-10,13.4c-0.5,2.9-0.2,6.2,0.7,9.1
	c1.5,4.8,3.3,9.2,1.2,14.3c-2.6,6.4-8.9,8.4-14.9,4.6c-5.3-3.3-7.1-8.1-6-14.1c0.6-3.5,1.4-6.9,2.3-10.3c0.8-3.1-0.1-6.1-2.6-8.1
	c-4-3.1-8.3-5.8-11.8-9.4c-7.2-7.3-9.2-16.8-7.9-26.6c3.4-26.9,17.4-46.8,41.6-59.2c7.8-4,16.3-5,24.8-2.3
	c10.8,3.4,15.6,11.8,17.4,22.3C273.8,35.3,273.9,37.6,274,39.5z"/>
</svg>
