<?xml version="1.0" encoding="utf-8"?>
<!-- Generator: Adobe Illustrator 21.1.0, SVG Export Plug-In . SVG Version: 6.00 Build 0)  -->
<!DOCTYPE svg PUBLIC "-//W3C//DTD SVG 1.1//EN" "http://www.w3.org/Graphics/SVG/1.1/DTD/svg11.dtd">
<svg version="1.1" id="Layer_1" xmlns="http://www.w3.org/2000/svg" xmlns:xlink="http://www.w3.org/1999/xlink" x="0px" y="0px"
	 viewBox="0 0 612 792" enable-background="new 0 0 612 792" xml:space="preserve">
<g>
	<path d="M270.6,636.9c0.8-6.2,0.7-12.3-10.3-16.2s-23-11.1-33.1-19.1c-15.2-12.1-24.2-28.4-30.7-46c-6.2-16.8-17.2-28.4-31.6-38.6
		c-25.4-17.9-50.3-36.7-74.7-56c-18-14.2-25.6-34.4-27.4-56.8c-1.3-16.4,6.9-28.4,19.6-36.9c22.6-15.1,47.8-24.8,74.2-31.3
		c9.8-2.4,19.9-3.9,29.8-6.4c2.3-0.6,5.9-3.3,5.8-5c0-3.8-1.4-7.9-3.3-11.3c-1.1-2.1-4.1-3.4-6.4-4.5c-18.2-9-27.6-24.7-30.4-43.8
		c-7.1-47.5,9.2-86.5,45.9-116.8c14.8-12.3,32.5-17.5,51.9-13.1c15,3.4,25.1,13.3,31.9,26.6c10.8,21.3,10.7,43.7,5.4,66.3
		c-6.7,28-20.7,51.7-43.5,69.9c-5.1,4.1-10.2,8.3-15.1,12.7c-3.2,2.9-2.9,6.5-0.9,10c2,3.6,4.3,6.2,9.2,6.4
		c27.8,1,54.5,7.3,79.8,18.5c13.9,6.1,23.1,17.2,28,31.6c7.7,22.7,12.6,45.9,12.6,76.2c-2.9,37.9-8.7,81.3-30.3,121
		c-5.1,9.4-10.3,18.8-15.9,28c-6.5,10.6-5.4,21.4-1.5,32.1c3.8,10.3,8.7,20.1,7.9,31.6c-0.5,6.5-3.5,13.6-9.9,17.5
		s-16.9,7.1-25.4,2.2s-13.1-10.4-14-20.2S269.7,643.1,270.6,636.9z"/>
	<path d="M436,569.4c-22.1-0.5-37.8-3.7-51.7-12.9c-22.6-15.1-30-42.4-18.5-68c11.8-26.5,32.9-43.1,59-53.8
		c7.8-3.2,16.2-4.8,24.3-7.2c2.1-0.6,4.3-1.1,6.1-2.2c4.2-2.4,7.9-5.7,7.1-11c-1.1-8.1-5.1-12-11.8-13.2
		c-19.5-3.5-36.1-11.6-46.2-29.8c-7.8-14.1-8-29.2-3.5-44.1c9.1-30.3,30.2-50.8,56.9-66.1c20.3-11.7,42.2-18.2,65.7-18
		c17.6,0.2,34,4.6,47.8,16c17.9,14.9,23.4,40.7,13.9,64.4c-13.6,33.8-39.4,55-72.1,68.7c-9.8,4.1-19.6,7.3-24,18.4
		c-2.9,7.5,0.8,17.2,8.1,19.3c38,11,53,49.1,32.9,83.5c-14.8,25.3-37.1,41.1-64.5,49.7C454.3,566.7,442.3,568.1,436,569.4z"/>
	<path d="M468.2,172.5c-1.1,29.6-11.6,55.1-28.7,78.1c-10.8,14.6-23.9,26.8-39.3,36.5c-9.5,6-17,14.4-19.1,25.8
		c-1,5.6-0.4,11.9,1.3,17.4c2.8,9.1,6.3,17.6,2.3,27.5c-4.9,12.2-17,16.1-28.6,8.8c-10.1-6.3-13.5-15.6-11.4-27
		c1.2-6.7,2.7-13.3,4.4-19.8c1.5-5.9-0.2-11.7-5.1-15.5c-7.6-5.9-15.9-11.2-22.6-18c-13.8-14.1-17.6-32.3-15.2-51
		c6.5-51.6,33.3-89.8,79.8-113.4c14.9-7.6,31.3-9.6,47.5-4.5c20.6,6.5,29.9,22.7,33.4,42.8C467.8,164.5,467.8,168.8,468.2,172.5z"/>
</g>
</svg>
