<?xml version="1.0" encoding="utf-8"?>
<!-- Generator: Adobe Illustrator 23.0.6, SVG Export Plug-In . SVG Version: 6.00 Build 0)  -->
<svg version="1.1"
	 id="svg8" xmlns:cc="http://creativecommons.org/ns#" xmlns:dc="http://purl.org/dc/elements/1.1/" xmlns:inkscape="http://www.inkscape.org/namespaces/inkscape" xmlns:rdf="http://www.w3.org/1999/02/22-rdf-syntax-ns#" xmlns:sodipodi="http://sodipodi.sourceforge.net/DTD/sodipodi-0.dtd" xmlns:svg="http://www.w3.org/2000/svg"
	 xmlns="http://www.w3.org/2000/svg" xmlns:xlink="http://www.w3.org/1999/xlink" x="0px" y="0px" viewBox="0 0 400 400"
	 style="enable-background:new 0 0 400 400;" xml:space="preserve">
<path d="M147.8,195.6h9.2c3.2,0,5.7-2.6,5.7-5.7V75.1c0-3.2-2.6-5.7-5.7-5.7h-9.2c-3.2,0-5.7,2.6-5.7,5.7v114.8
	C142,193,144.6,195.6,147.8,195.6z"/>
<path d="M328,8.6H72c-5.3,0-9.5,4.3-9.5,9.5v252c0,3.4,2,6.6,5.2,7.9c39.8,16.9-11.9,98.6,19.4,101.5c29.1,0.7-5.5-59.8,11.6-91.1
	c4.1-7.6,12.2-12.1,20.8-12.1H328c5.3,0,9.5-4.3,9.5-9.5V18.1C337.5,12.9,333.2,8.6,328,8.6z M326,255.9c0,5.3-4.3,9.5-9.5,9.5H83.5
	c-5.3,0-9.5-4.3-9.5-9.5V29.7c0-5.3,4.3-9.5,9.5-9.5h232.9c5.3,0,9.5,4.3,9.5,9.5V255.9z"/>
<path d="M253.8,70.5h-13.5c-2,0-3.6,1.6-3.6,3.6l0,24.3c0,1.7-1.4,3-3,3h-3c-14.6,0-26.1,4.2-34.6,14c-8.5,9.7-12.7,21.2-12.7,34.6
	c0,15.8,3.6,27.9,12.7,36.4c3.1,3.1,6.7,5.6,10.6,7.4c1,0.5,1.9,0.9,2.9,1.4c36.6,19.6,2.1,64.6,25.6,65.3
	c21.8-0.7-16.2-43,17.5-67.1c1.1-0.8,2.3-1.4,3.5-2.1c0.6-0.4,1.1-0.9,1.2-1.7c0,0,0.1-4.3,0.1-6.2s0-3.6,0-5.5V74.1
	C257.4,72.1,255.8,70.5,253.8,70.5z M233.9,179.4c-0.7,0.2-1.5,0.4-2.2,0.4c-0.8,0-1.7,0-2.5,0c-7.4,0.4-13.4-2-18.6-7.2
	c-1.3-1.5-2.4-3.2-3.4-5.1c-0.5-1.1-0.8-2.4-0.5-3.5c2-9,25.4,2,28.4,13.1C235.5,178,234.9,179.1,233.9,179.4z M235.5,149.6
	L235.5,149.6c0.6,16.8-26,4.2-28.4-12.3c-0.3-2.4,0.2-4.8,1.5-6.9c0.8-1.2,1.6-2.4,2.6-3.5c4.9-5.5,10.9-7.9,18.2-7.9
	c1.2,0,2.4,0,3.6,0s2.4-0.2,2.4,0.6V149.6z"/>
</svg>
