<?xml version="1.0" encoding="utf-8"?>
<!-- Generator: Adobe Illustrator 23.0.1, SVG Export Plug-In . SVG Version: 6.00 Build 0)  -->
<svg version="1.1"
	 id="svg8" xmlns:cc="http://creativecommons.org/ns#" xmlns:dc="http://purl.org/dc/elements/1.1/" xmlns:inkscape="http://www.inkscape.org/namespaces/inkscape" xmlns:rdf="http://www.w3.org/1999/02/22-rdf-syntax-ns#" xmlns:sodipodi="http://sodipodi.sourceforge.net/DTD/sodipodi-0.dtd" xmlns:svg="http://www.w3.org/2000/svg"
	 xmlns="http://www.w3.org/2000/svg" xmlns:xlink="http://www.w3.org/1999/xlink" x="0px" y="0px" viewBox="0 0 400 400"
	 style="enable-background:new 0 0 400 400;" xml:space="preserve">
<sodipodi:namedview  bordercolor="#666666" borderopacity="1" fit-margin-bottom="20" fit-margin-left="0" fit-margin-right="0" fit-margin-top="0" gridtolerance="10" guidetolerance="10" id="namedview10" inkscape:current-layer="svg8" inkscape:cx="-5.0548029" inkscape:cy="32.291897" inkscape:pageopacity="0" inkscape:pageshadow="2" inkscape:window-height="705" inkscape:window-maximized="1" inkscape:window-width="1366" inkscape:window-x="-8" inkscape:window-y="245" inkscape:zoom="7.5681273" objecttolerance="10" pagecolor="#ffffff" showgrid="false">
	</sodipodi:namedview>
<g id="Layer_1">
</g>
<g>
	<path d="M145.1,201.6h9.6c3.3,0,6-2.7,6-6V74.9c0-3.3-2.7-6-6-6h-9.6c-3.3,0-6,2.7-6,6v120.6C139.1,198.9,141.8,201.6,145.1,201.6z
		"/>
	<path d="M334.5,5.1h-269c-5.5,0-10,4.5-10,10v264.8c0,3.6,2.1,6.9,5.5,8.3c41.8,17.7-12.5,103.7,20.4,106.6
		c30.5,0.7-5.8-62.9,12.2-95.7c4.3-7.9,12.8-12.7,21.9-12.7h219c5.5,0,10-4.5,10-10V15.1C344.5,9.6,340,5.1,334.5,5.1z M332.4,265
		c0,5.5-4.5,10-10,10H77.6c-5.5,0-10-4.5-10-10V27.2c0-5.5,4.5-10,10-10h244.8c5.5,0,10,4.5,10,10V265z"/>
	<path d="M256.5,70.2h-14.2c-2.1,0-3.8,1.7-3.8,3.8l0,25.6c0,1.8-1.4,3.2-3.2,3.2h-3.2c-15.3,0-27.4,4.5-36.4,14.7
		c-8.9,10.2-13.4,22.3-13.4,36.4c0,16.6,3.8,29.3,13.4,38.3c3.3,3.3,7,5.9,11.1,7.8c1,0.5,2,0.9,3,1.5c38.5,20.6,2.2,67.9,26.9,68.6
		c22.9-0.7-17-45.2,18.4-70.5c1.2-0.8,2.4-1.5,3.7-2.3c0.6-0.4,1.2-0.9,1.2-1.8c0,0,0.1-4.6,0.1-6.5s0-3.8,0-5.7V73.9
		C260.3,71.9,258.6,70.2,256.5,70.2z M235.7,184.6c-0.8,0.3-1.6,0.4-2.3,0.4c-0.9,0-1.8,0-2.7,0c-7.8,0.4-14-2.1-19.5-7.6
		c-1.4-1.6-2.5-3.3-3.5-5.4c-0.6-1.2-0.8-2.5-0.5-3.7c2.2-9.5,26.7,2.1,29.9,13.8C237.3,183.1,236.7,184.3,235.7,184.6z
		 M237.3,153.3L237.3,153.3c0.7,17.6-27.3,4.4-29.9-12.9c-0.4-2.5,0.3-5.1,1.6-7.2c0.8-1.3,1.7-2.5,2.8-3.7
		c5.1-5.7,11.5-8.3,19.1-8.3c1.3,0,2.6,0,3.8,0s2.6-0.2,2.6,0.6V153.3z"/>
</g>
</svg>
