<?xml version="1.0" encoding="utf-8"?>
<!-- Generator: Adobe Illustrator 23.0.1, SVG Export Plug-In . SVG Version: 6.00 Build 0)  -->
<svg version="1.1"
	 id="svg8" xmlns:cc="http://creativecommons.org/ns#" xmlns:dc="http://purl.org/dc/elements/1.1/" xmlns:inkscape="http://www.inkscape.org/namespaces/inkscape" xmlns:rdf="http://www.w3.org/1999/02/22-rdf-syntax-ns#" xmlns:sodipodi="http://sodipodi.sourceforge.net/DTD/sodipodi-0.dtd" xmlns:svg="http://www.w3.org/2000/svg"
	 xmlns="http://www.w3.org/2000/svg" xmlns:xlink="http://www.w3.org/1999/xlink" x="0px" y="0px" viewBox="0 0 400 400"
	 style="enable-background:new 0 0 400 400;" xml:space="preserve">
<sodipodi:namedview  bordercolor="#666666" borderopacity="1" fit-margin-bottom="20" fit-margin-left="0" fit-margin-right="0" fit-margin-top="0" gridtolerance="10" guidetolerance="10" id="namedview10" inkscape:current-layer="svg8" inkscape:cx="-29.005644" inkscape:cy="34.893502" inkscape:pageopacity="0" inkscape:pageshadow="2" inkscape:window-height="705" inkscape:window-maximized="1" inkscape:window-width="1366" inkscape:window-x="-8" inkscape:window-y="245" inkscape:zoom="3.7840636" objecttolerance="10" pagecolor="#ffffff" showgrid="false">
	</sodipodi:namedview>
<g id="Layer_1">
</g>
<g>
	<path d="M203.7,69.8h-61c-2.2,0-4,1.8-4,4v125c0,2.2,1.8,4,4,4h13.2c2.2,0,4-1.8,4-4v-48.5c0-2.2,1.8-4,4-4h36.3c2.2,0,4-1.8,4-4
		l0-10.9c0-2.4-1.6-4.4-3.9-5c-12.7-3.3-32.2-17.3-38.9-32.6c-0.9-2.2,0.7-4.6,3.1-4.6h39.9c2.3,0,4.1-2,4-4.3l-0.8-11.3
		C207.5,71.4,205.8,69.8,203.7,69.8z M168.5,127h-5.2c-1.9,0-3.4-1.5-3.4-3.4v-6.8c0-3.5,5.1-1.8,8.4,0.7
		C172.5,120.7,175.9,127,168.5,127z"/>
	<path d="M258.1,186.1c-1.3,0-3.2,0-3.9-1.3c-0.6-1.3-1.3-2.6-1.3-5.1V74.3c0-2.1-1.7-3.9-3.9-3.9H235c-2.1,0-3.9,1.7-3.9,3.9v107.3
		c0,9.6,1.9,16.1,5.8,18.6c0.5,0.4,1,0.8,1.5,1.1c20.2,16.4-9.5,65.7,12,66.2c19.2-0.5-7.9-44.7,10.3-63.6c0.8-0.8,1.2-1.9,1.2-3
		v-11C262,187.8,260.3,186.1,258.1,186.1z"/>
	<path d="M335.5,4.9h-271c-5.5,0-10,4.5-10,10v265.9c0,3.8,1.9,7.4,5.1,9.3c26.2,15.3-15.3,105.1,17,105c24.5-0.4-4.3-63.9,7.1-93.9
		c3-7.9,10.8-12.9,19.3-12.9l232.6-0.1c5.5,0,10-4.5,10-10V14.9C345.5,9.4,341,4.9,335.5,4.9z M332.7,266.7c0,5.5-4.5,10-10,10H76.1
		c-5.5,0-10-4.5-10-10V27.1c0-5.5,4.5-10,10-10h246.6c5.5,0,10,4.5,10,10V266.7z"/>
</g>
</svg>
