<?xml version="1.0" encoding="utf-8"?>
<!-- Generator: Adobe Illustrator 23.0.1, SVG Export Plug-In . SVG Version: 6.00 Build 0)  -->
<svg version="1.1"
	 id="svg8" xmlns:cc="http://creativecommons.org/ns#" xmlns:dc="http://purl.org/dc/elements/1.1/" xmlns:inkscape="http://www.inkscape.org/namespaces/inkscape" xmlns:rdf="http://www.w3.org/1999/02/22-rdf-syntax-ns#" xmlns:sodipodi="http://sodipodi.sourceforge.net/DTD/sodipodi-0.dtd" xmlns:svg="http://www.w3.org/2000/svg"
	 xmlns="http://www.w3.org/2000/svg" xmlns:xlink="http://www.w3.org/1999/xlink" x="0px" y="0px" viewBox="0 0 400 400"
	 style="enable-background:new 0 0 400 400;" xml:space="preserve">
<sodipodi:namedview  bordercolor="#666666" borderopacity="1" fit-margin-bottom="20" fit-margin-left="0" fit-margin-right="0" fit-margin-top="0" gridtolerance="10" guidetolerance="10" id="namedview10" inkscape:current-layer="svg8" inkscape:cx="-0.89695308" inkscape:cy="68.243231" inkscape:pageopacity="0" inkscape:pageshadow="2" inkscape:window-height="705" inkscape:window-maximized="1" inkscape:window-width="1366" inkscape:window-x="-8" inkscape:window-y="245" inkscape:zoom="5.3514741" objecttolerance="10" pagecolor="#ffffff" showgrid="false">
	</sodipodi:namedview>
<g id="Layer_1">
</g>
<g>
	<path d="M198.9,83l0-10.2c0-2.6-2.1-4.6-4.6-4.6h-59c-2.6,0-4.6,2.1-4.6,4.6v120c0,2.6,2.1,4.6,4.6,4.6h13.2c2.3,0,4.3-1.8,4.6-4.1
		c1.9-15.3,5.6-26.6,12.2-34c6-6.7,14.9-11.2,26.7-14.9c2.3-0.7,3.9-2.8,3.9-5.2l0-10c0-2.6-2.1-4.7-4.6-4.7h-34.7
		c-2.6,0-4.6-2.1-4.6-4.6V92.3c0-2.6,2.1-4.6,4.6-4.6l37.7,0C196.8,87.6,198.9,85.6,198.9,83z M159,143.5c2.4,0,4.3,2,4.1,4.4
		c-0.6,7.7-9.8,21.6-11,14.8l-0.2-16c0-1.7,1.4-3.1,3.1-3.1H159z"/>
	<path d="M253.7,143.6c-2.5-1.4-4.4-3.9-4.6-6.8c-0.6-7.8,10-12,19.6-12.1c0.8,0,0.6-0.6,0.6-1.3v-16.3c0-0.6,0-0.6,0-1.3
		s-0.6-1-1.6-1.5s-4.8-2.1-7.7-2.7c-2.9-0.7-7.6-0.7-12.7-0.7c-10.7,0-18.8,2.5-24.5,8.2s-8.8,11.9-8.8,19.5
		c0,6.9,1.9,12.6,5.6,16.9c3.8,4.4,10,8.8,18.2,13.2c6.3,3.1,10,5.6,11.9,7.5c1.9,1.9,2.5,4.4,2.5,6.3c0,3.1-1.3,5-3.1,6.9
		c-1.9,1.9-5,2.5-10,2.5c-3.8,0-7.5-0.6-11.9-1.9c-4.4-1.3-8.2-2.5-11.9-5c-0.6,0-1.3,0-1.3,0c-0.6,0.6-0.6,0.6-0.6,1.3v17.6v0.1
		c0,0.7,0.4,1.4,1.1,1.8c26.9,15.6-6.2,64.2,16.2,65.4c22.3-1.8-11.9-48.8,11.5-59.7c1.5-0.7,3-1.1,4.6-1.3c6.3-1,11.7-3.3,16.2-6.9
		c6.3-5,9.4-11.9,9.4-21.3c0-6.9-1.3-12.6-5-16.9C264.9,151.2,260.3,147.3,253.7,143.6z M237,133.8c-0.8-0.5-1.5-1.2-1.6-1.3
		c-1.9-1.9-1.6-3.4-1.6-5.3c0-1.9,1-3.8,2.9-5.7c1.9-1.9,5-3.1,10-3.1c1,0,1.9,0,2.8,0c2.2,0.1,3.9,2.2,3.3,4.4
		C251.5,128.3,242.5,136.2,237,133.8z"/>
	<path d="M332.2,4.8H67.8c-5.5,0-10,4.5-10,10v256.8c0,5.5,4.5,10,10,10h173.9c2.3,0,4.6,0.2,6.8,0.8c31,7.6-3.3,56,17.4,58.3
		c27.6-2.9-12.6-60.9,20.4-57.5c47.9,2.4-6.7,107.7,28.4,112.1c34.2,0.6-18.4-96.9,18.8-111.8c5.1-2.1,8.6-6.9,8.6-12.4V14.8
		C342.2,9.2,337.7,4.8,332.2,4.8z M330.3,260.3c0,5.5-4.5,10-10,10H79.7c-5.5,0-10-4.5-10-10V26.7c0-5.5,4.5-10,10-10h240.5
		c5.5,0,10,4.5,10,10V260.3z"/>
</g>
</svg>
