<?xml version="1.0" encoding="utf-8"?>
<!-- Generator: Adobe Illustrator 23.0.6, SVG Export Plug-In . SVG Version: 6.00 Build 0)  -->
<svg version="1.1"
	 id="svg8" xmlns:cc="http://creativecommons.org/ns#" xmlns:dc="http://purl.org/dc/elements/1.1/" xmlns:inkscape="http://www.inkscape.org/namespaces/inkscape" xmlns:rdf="http://www.w3.org/1999/02/22-rdf-syntax-ns#" xmlns:sodipodi="http://sodipodi.sourceforge.net/DTD/sodipodi-0.dtd" xmlns:svg="http://www.w3.org/2000/svg"
	 xmlns="http://www.w3.org/2000/svg" xmlns:xlink="http://www.w3.org/1999/xlink" x="0px" y="0px" viewBox="0 0 400 400"
	 style="enable-background:new 0 0 400 400;" xml:space="preserve">
<path d="M198.9,84.7l0-9.8c0-2.5-2-4.5-4.5-4.5h-57.1c-2.5,0-4.5,2-4.5,4.5v116.1c0,2.5,2,4.5,4.5,4.5h12.7c2.3,0,4.2-1.7,4.4-4
	c1.8-14.8,5.4-25.7,11.8-32.9c5.8-6.5,14.4-10.9,25.9-14.4c2.2-0.7,3.7-2.7,3.7-5l0-9.6c0-2.5-2-4.5-4.5-4.5H158
	c-2.5,0-4.5-2-4.5-4.5V93.7c0-2.5,2-4.5,4.5-4.5l36.4,0C196.9,89.2,198.9,87.2,198.9,84.7z M160.4,143.2c2.3,0,4.2,2,4,4.3
	c-0.6,7.4-9.5,20.9-10.6,14.3l-0.2-15.5c0-1.7,1.3-3,3-3H160.4z"/>
<path d="M251.9,143.3c-2.5-1.4-4.2-3.8-4.4-6.6c-0.5-7.5,9.6-11.6,19-11.7c0.8,0,0.6-0.6,0.6-1.2V108c0-0.6,0-0.6,0-1.2
	s-0.6-0.9-1.5-1.5s-4.7-2-7.5-2.6c-2.8-0.6-7.4-0.7-12.2-0.7c-10.3,0-18.2,2.4-23.7,7.9s-8.5,11.5-8.5,18.8c0,6.7,1.8,12.1,5.5,16.4
	c3.6,4.2,9.7,8.5,17.6,12.7c6.1,3,9.7,5.5,11.5,7.3c1.8,1.8,2.4,4.2,2.4,6.1c0,3-1.2,4.9-3,6.7c-1.8,1.8-4.9,2.4-9.7,2.4
	c-3.6,0-7.3-0.6-11.5-1.8c-4.2-1.2-7.9-2.4-11.5-4.9c-0.6,0-1.2,0-1.2,0c-0.6,0.6-0.6,0.6-0.6,1.2v17v0.1c0,0.7,0.4,1.4,1,1.7
	c26,15.1-6,62.1,15.7,63.3c21.5-1.7-11.5-47.2,11.1-57.7c1.4-0.7,2.9-1,4.5-1.3c6.1-1,11.3-3.2,15.6-6.7c6.1-4.9,9.1-11.5,9.1-20.6
	c0-6.7-1.2-12.1-4.9-16.4C262.8,150.7,258.4,146.9,251.9,143.3z M235.8,133.8c-0.7-0.5-1.5-1.1-1.6-1.2c-1.8-1.8-1.6-3.3-1.6-5.1
	c0-1.8,1-3.7,2.8-5.5c1.8-1.8,4.9-3,9.7-3c0.9,0,1.8,0,2.7,0c2.1,0.1,3.8,2.2,3.2,4.2C249.8,128.5,241.1,136.1,235.8,133.8z"/>
<path d="M327.8,9.1H72.2c-5.3,0-9.7,4.3-9.7,9.7v248.4c0,5.3,4.3,9.7,9.7,9.7h168.2c2.2,0,4.4,0.2,6.5,0.7
	c30,7.4-3.2,54.1,16.8,56.4c26.7-2.8-12.2-58.9,19.7-55.6c46.3,2.3-6.5,104.1,27.5,108.4c33.1,0.6-17.8-93.7,18.2-108.1
	c5-2,8.3-6.7,8.3-12V18.7C337.5,13.4,333.2,9.1,327.8,9.1z M326,256.2c0,5.3-4.3,9.7-9.7,9.7H83.7c-5.3,0-9.7-4.3-9.7-9.7V30.3
	c0-5.3,4.3-9.7,9.7-9.7h232.6c5.3,0,9.7,4.3,9.7,9.7V256.2z"/>
</svg>
