<?xml version="1.0" encoding="utf-8"?>
<!-- Generator: Adobe Illustrator 23.0.1, SVG Export Plug-In . SVG Version: 6.00 Build 0)  -->
<svg version="1.1"
	 id="svg4" inkscape:version="0.92.1 r15371" sodipodi:docname="python.svg" xmlns:cc="http://creativecommons.org/ns#" xmlns:dc="http://purl.org/dc/elements/1.1/" xmlns:inkscape="http://www.inkscape.org/namespaces/inkscape" xmlns:rdf="http://www.w3.org/1999/02/22-rdf-syntax-ns#" xmlns:sodipodi="http://sodipodi.sourceforge.net/DTD/sodipodi-0.dtd" xmlns:svg="http://www.w3.org/2000/svg"
	 xmlns="http://www.w3.org/2000/svg" xmlns:xlink="http://www.w3.org/1999/xlink" x="0px" y="0px" viewBox="0 0 400 400"
	 style="enable-background:new 0 0 400 400;" xml:space="preserve">
<sodipodi:namedview  bordercolor="#666666" borderopacity="1" fit-margin-bottom="50" fit-margin-left="0" fit-margin-right="0" fit-margin-top="0" gridtolerance="10" guidetolerance="10" id="namedview6" inkscape:current-layer="svg4" inkscape:cx="36.197047" inkscape:cy="141.36255" inkscape:pageopacity="0" inkscape:pageshadow="2" inkscape:window-height="705" inkscape:window-maximized="1" inkscape:window-width="1366" inkscape:window-x="-8" inkscape:window-y="245" inkscape:zoom="2" objecttolerance="10" pagecolor="#ffffff" showgrid="false">
	</sodipodi:namedview>
<path d="M344.2,118.7c-5.2-20.9-15.1-36.6-36.1-36.6h-19.4c-4,0-7.5,2.8-8.3,6.8c-2.2,10.6-5.9,26-8.6,18.4V45.4
	c0-19.6-16.4-34.3-36-37.5c-12.4-2.1-25.2-3-37.6-2.9C185.8,5,174.4,6,164,7.9c-30.6,5.4-35.8,16.7-35.8,37.5v18.5
	c0,4.7,3.4,8.7,8,9.5c13.9,2.4,27.2,5.8,19,8.1c-1.5,0.4-3.1,0.6-4.7,0.6h-50.1c-21,0-39.4,12.6-45.1,36.6
	c-6.6,27.5-6.9,44.3,0,73.1c3.8,15.7,11.4,27.8,23.4,33.2c31.2,12.1,44,29.3,50.4,48.4l0,0c0,0,0,0,0,0l0,0c0.1,0.1,0.1,0.3,0.2,0.5
	c0.5,1.7,1,3.4,1.8,4.9c18.3,55.1-14.9,115.7,21.9,116.4c27.5,0-19.8-84.6,20.6-89.3c2.5-0.3,5-0.1,7.4,0.3c17,2.8,34.2,2,54.7-4
	c18.2-5.3,35.8-15.9,35.8-36.7v-22.6c0-2.7-2.2-4.9-4.9-4.9h-61.8c-2.7,0-4.9-2.2-4.9-4.9s2.2-4.9,4.9-4.9h103.1
	c21,0,28.8-14.3,36.1-36.3C351.7,169.1,351.4,147.7,344.2,118.7z M240.4,256.3c7.5,0,13.6,6.1,13.6,13.7c0,7.6-6.1,13.8-13.6,13.8
	c-7.5,0-13.6-6.2-13.6-13.8C226.8,262.4,232.9,256.3,240.4,256.3z M174.8,73.1c1.3-0.6,2.7-0.9,4.2-0.9h15.2c3.3,0,5.9,2.7,5.9,5.9
	c0,2-1.9,3.5-3.8,3.1C185.5,79,167.8,76.4,174.8,73.1z M145.6,40.8c0-7.6,6.1-13.8,13.6-13.8c7.5,0,13.6,6.2,13.6,13.8
	c0,7.6-6.1,13.7-13.6,13.7C151.7,54.6,145.6,48.4,145.6,40.8z M278.5,129.9c-6.8,16.9-24,28.8-42.7,28.8h-72.1
	c-19.8,0-35.5,18.1-35.5,37.9V235c0,0.9-0.2,1.9-0.6,2.7c-1.5,2.9-3.9,1-5.9-2c-2.3-3.5-3.4-7.7-3.4-11.9l0-28.2
	c0-23.8,20.8-44.4,45.3-44.4h72.1c10.3,0,19.5-4.5,26-11.6c5.7-4.7,17.2-28.6,17.9-16.9C279.9,125.2,279.5,127.7,278.5,129.9z"/>
</svg>
