<?xml version="1.0" encoding="UTF-8" standalone="no"?>
<svg
   xmlns:dc="http://purl.org/dc/elements/1.1/"
   xmlns:cc="http://creativecommons.org/ns#"
   xmlns:rdf="http://www.w3.org/1999/02/22-rdf-syntax-ns#"
   xmlns:svg="http://www.w3.org/2000/svg"
   xmlns="http://www.w3.org/2000/svg"
   viewBox="0 0 682.66669 682.66669"
   height="682.66669"
   width="682.66669"
   xml:space="preserve"
   id="svg2"
   version="1.1"><metadata
     id="metadata8"><rdf:RDF><cc:Work
         rdf:about=""><dc:format>image/svg+xml</dc:format><dc:type
           rdf:resource="http://purl.org/dc/dcmitype/StillImage" /></cc:Work></rdf:RDF></metadata><defs
     id="defs6"><clipPath
       id="clipPath18"
       clipPathUnits="userSpaceOnUse"><path
         id="path16"
         d="M 0,512 H 512 V 0 H 0 Z" /></clipPath></defs><g
     transform="matrix(1.3333333,0,0,-1.3333333,0,682.66667)"
     id="g10"><g
       id="g12"><g
         clip-path="url(#clipPath18)"
         id="g14"><g
           transform="translate(212.2144,247.8369)"
           id="g20"><path
             id="path22"
             style="fill:#000000;fill-opacity:1;fill-rule:nonzero;stroke:none"
             d="m 0,0 c -0.413,-0.751 -0.357,-1.687 0.177,-2.356 3.296,-4.13 7.272,-7.03 11.792,-9.131 16.635,-7.736 33.522,-10.561 51.772,-4.84 15.772,4.944 26.586,14.465 33.628,29.028 4.798,9.923 7.259,20.32 7.318,31.329 0.15,28.211 -12.756,60.704 -53.059,65.492 -2.226,0.265 -6.439,-1.01 -7.704,-2.402 C 37.418,99.958 31.87,93.403 30.585,83.45 29.575,75.616 29.858,67.572 30.068,59.634 30.371,48.209 32.447,36.672 31.38,25.409 30.518,16.3 26.406,9.507 20.128,5.444 15.24,2.281 9.039,0.772 2.034,1.114 1.196,1.155 0.403,0.735 0,0 m -172.374,9.655 c 0,-2.777 2.516,-4.876 5.249,-4.379 34.361,6.297 74.437,-20.384 75.527,-59.65 0.086,-3.091 1.035,-4.454 4.357,-4.461 36.656,-0.066 73.312,-0.268 109.968,-0.317 1.86,-0.002 4.018,0.631 5.523,1.695 3.477,2.456 5.512,5.838 4.183,10.349 -1.321,4.485 -3.323,7.907 -8.673,9.084 -17.014,3.743 -31.977,11.073 -42.874,25.437 -19.584,25.817 -22.812,54.811 -16.524,85.443 2.76,13.438 4.141,26.726 0.651,40.059 -4.581,17.499 -13.971,31.208 -32.67,35.492 -6.682,1.531 -11.349,1.264 -18.304,0.873 -3.677,-0.206 -5.496,-2.045 -5.496,-5.129 -0.23,-7.083 -1.648,-12.628 -4.092,-18.742 -11.434,-28.61 -44.295,-45.467 -72.349,-39.931 -2.32,0.452 -4.476,-1.325 -4.476,-3.688 z m 432.325,72.553 c 0,2.052 -1.801,3.636 -3.837,3.382 -0.323,-0.041 -0.641,-0.09 -0.955,-0.151 -10.588,-2.069 -20.903,-0.794 -31.057,2.462 -25.147,8.065 -43.405,30.571 -44.802,55.198 -0.36,6.337 -0.359,6.378 -6.972,6.389 -43.664,0.07 -87.328,0.126 -130.992,0.158 -1.989,0.001 -3.984,-0.229 -5.968,-0.431 -5.295,-0.539 -6.435,-3.805 -6.436,-7.559 -0.002,-3.565 3.03,-5.947 5.192,-6.526 7.964,-2.131 16.136,-3.482 24.229,-5.132 17.812,-3.633 34.209,-9.797 46.393,-24.334 25.11,-29.962 27.463,-74.49 9.992,-105.607 -4.155,-7.401 -8.896,-14.469 -13.088,-21.849 -3.557,-6.262 -5.102,-12.939 -3.096,-20.191 2.139,-7.735 6.824,-13.318 14.132,-16.422 0.767,-0.326 2.184,-0.594 3.316,-0.591 19.5,0.044 38.999,0.214 58.498,0.138 3.875,-0.015 4.41,1.67 4.881,5.052 0.936,6.711 1.789,13.672 4.282,19.886 10.722,26.744 41.121,43.656 69.662,39.391 0.601,-0.09 1.205,-0.172 1.818,-0.249 2.55,-0.323 4.808,1.657 4.808,4.227 z M 183.665,-118.74 c -0.687,2.663 -3.996,3.592 -5.971,1.678 -1.609,-1.556 -3.032,-2.932 -4.467,-4.297 -18.875,-17.969 -44.019,-10.562 -50.271,14.818 -0.637,2.587 -1.257,5.19 -1.66,7.821 -1.267,8.293 -6.508,12.517 -14.123,15.068 -7.394,2.477 -14.819,3.227 -22.562,3.21 -42.485,-0.097 -84.97,-0.002 -127.455,0.109 -42.611,0.112 -85.222,0.297 -127.833,0.53 -3.314,0.019 -6.629,0.251 -9.904,0.761 -10.234,1.594 -13.26,4.696 -13.375,14.167 -0.323,26.649 -0.705,53.298 -0.82,79.948 -0.15,34.826 -0.148,69.653 -0.041,104.479 0.038,12.487 0.491,24.975 0.906,37.458 0.239,7.191 3.246,10.801 10.209,12.108 4.067,0.763 8.248,1.263 12.381,1.285 61.82,0.334 123.64,0.791 185.46,0.772 80.973,-0.025 161.946,-0.427 242.92,-0.743 4.469,-0.018 8.988,-0.43 13.392,-1.19 8.128,-1.403 11.018,-4.982 11.138,-13.344 0.317,-21.981 0.724,-43.963 0.791,-65.946 0.127,-41.658 0.097,-83.317 0.005,-124.975 -0.022,-10.485 -0.455,-20.971 -0.83,-31.453 -0.251,-7.019 -3.361,-10.748 -10.341,-11.978 -4.732,-0.835 -9.57,-1.136 -14.374,-1.491 -6.712,-0.496 -9.842,-3.765 -8.699,-10.46 0.834,-4.877 2.674,-9.596 4.229,-14.332 3.326,-10.137 4.276,-20.232 -0.518,-30.177 -6.224,-12.913 -19.778,-20.835 -33.699,-19.854 -14.871,1.047 -27.109,10.929 -31.679,25.762 -1.002,3.251 -1.851,6.548 -2.809,10.266" /></g><g
           transform="translate(411.9619,296.9551)"
           id="g24"><path
             id="path26"
             style="fill:#000000;fill-opacity:1;fill-rule:nonzero;stroke:none"
             d="m 0,0 c 0.115,-13.152 -10.084,-23.5 -23.227,-23.563 -12.894,-0.063 -23.26,10.056 -23.424,22.868 -0.168,13.041 10.179,23.678 23.114,23.761 C -11.108,23.146 -0.108,12.367 0,0" /></g><g
           transform="translate(123.4399,273.3906)"
           id="g28"><path
             id="path30"
             style="fill:#000000;fill-opacity:1;fill-rule:nonzero;stroke:none"
             d="m 0,0 c -13.177,0.01 -23.543,10.348 -23.444,23.381 0.094,12.415 10.958,23.214 23.393,23.253 12.733,0.04 23.239,-10.34 23.349,-23.068 C 23.411,10.513 13.009,-0.009 0,0" /></g></g></g></g></svg>