<?xml version="1.0" encoding="utf-8"?>
<!-- Generator: Adobe Illustrator 23.0.4, SVG Export Plug-In . SVG Version: 6.00 Build 0)  -->
<svg version="1.1"
	 id="svg8" xmlns:cc="http://creativecommons.org/ns#" xmlns:dc="http://purl.org/dc/elements/1.1/" xmlns:inkscape="http://www.inkscape.org/namespaces/inkscape" xmlns:rdf="http://www.w3.org/1999/02/22-rdf-syntax-ns#" xmlns:sodipodi="http://sodipodi.sourceforge.net/DTD/sodipodi-0.dtd" xmlns:svg="http://www.w3.org/2000/svg"
	 xmlns="http://www.w3.org/2000/svg" xmlns:xlink="http://www.w3.org/1999/xlink" x="0px" y="0px" viewBox="0 0 400 400"
	 style="enable-background:new 0 0 400 400;" xml:space="preserve">
<path d="M299,45.9c-26.4-26.4-61.6-41-99-41s-72.5,14.6-99,41s-41,61.6-41,99c0,34.3,12.3,66.8,34.8,92.3
	c40.8,88.2-23.3,155.3,25.2,157.8c43.4,0.7-9.5-113.7,26.9-120.6c16.6,6.8,34.6,10.4,53.1,10.4c37.4,0,72.5-14.6,99-41
	c26.4-26.4,41-61.6,41-99C340,107.5,325.4,72.4,299,45.9z M200,273.1c-34.2,0-66.4-13.3-90.6-37.5c-24.2-24.2-37.5-56.4-37.5-90.6
	c0-34.2,13.3-66.4,37.5-90.6c18.8-18.8,42.5-31.1,68.2-35.6c42.4,8.8-32.4,120.8,25.8,124.4c61.4,3-21.8-117.6,23.2-123.6
	c24.1,5.1,46.2,17,64,34.8c24.2,24.2,37.5,56.4,37.5,90.6c0,34.2-13.3,66.4-37.5,90.6C266.4,259.7,234.2,273.1,200,273.1z"/>
</svg>
