<?xml version="1.0" encoding="utf-8"?>
<!-- Generator: Adobe Illustrator 23.0.6, SVG Export Plug-In . SVG Version: 6.00 Build 0)  -->
<svg version="1.1"
	 id="svg8" inkscape:version="0.92.4 (5da689c313, 2019-01-14)" sodipodi:docname="circle.svg" xmlns:cc="http://creativecommons.org/ns#" xmlns:dc="http://purl.org/dc/elements/1.1/" xmlns:inkscape="http://www.inkscape.org/namespaces/inkscape" xmlns:rdf="http://www.w3.org/1999/02/22-rdf-syntax-ns#" xmlns:sodipodi="http://sodipodi.sourceforge.net/DTD/sodipodi-0.dtd" xmlns:svg="http://www.w3.org/2000/svg"
	 xmlns="http://www.w3.org/2000/svg" xmlns:xlink="http://www.w3.org/1999/xlink" x="0px" y="0px" viewBox="0 0 400 400"
	 style="enable-background:new 0 0 400 400;" xml:space="preserve">
<path d="M297.2,45.2c-26-26-60.5-40.3-97.2-40.3s-71.2,14.3-97.2,40.3s-40.3,60.5-40.3,97.2c0,33.7,12.1,65.6,34.2,90.7
	c40.1,86.6-22.9,152.5,24.7,155c42.6,0.7-9.3-111.6,26.5-118.4c16.3,6.7,34,10.2,52.1,10.2c36.7,0,71.2-14.3,97.2-40.3
	c26-26,40.3-60.5,40.3-97.2C337.5,105.7,323.2,71.1,297.2,45.2z M200,268.2c-33.6,0-65.2-13.1-89-36.9c-23.8-23.8-36.9-55.4-36.9-89
	c0-33.6,13.1-65.2,36.9-89c18.5-18.5,41.8-30.5,67-35c41.6,8.6-31.8,118.6,25.4,122.2c60.3,2.9-21.4-115.5,22.8-121.3
	c23.6,5,45.3,16.7,62.8,34.1c23.8,23.8,36.9,55.4,36.9,89c0,33.6-13.1,65.2-36.9,89C265.2,255.1,233.6,268.2,200,268.2z"/>
</svg>
