<?xml version="1.0" encoding="UTF-8" standalone="no"?>
<svg
   xmlns:dc="http://purl.org/dc/elements/1.1/"
   xmlns:cc="http://creativecommons.org/ns#"
   xmlns:rdf="http://www.w3.org/1999/02/22-rdf-syntax-ns#"
   xmlns:svg="http://www.w3.org/2000/svg"
   xmlns="http://www.w3.org/2000/svg"
   viewBox="0 0 533.33331 533.33331"
   height="533.33331"
   width="533.33331"
   xml:space="preserve"
   id="svg2"
   version="1.1"><metadata
     id="metadata8"><rdf:RDF><cc:Work
         rdf:about=""><dc:format>image/svg+xml</dc:format><dc:type
           rdf:resource="http://purl.org/dc/dcmitype/StillImage" /></cc:Work></rdf:RDF></metadata><defs
     id="defs6"><clipPath
       id="clipPath18"
       clipPathUnits="userSpaceOnUse"><path
         id="path16"
         d="M 0,400 H 400 V 0 H 0 Z" /></clipPath></defs><g
     transform="matrix(1.3333333,0,0,-1.3333333,0,533.33333)"
     id="g10"><g
       id="g12"><g
         clip-path="url(#clipPath18)"
         id="g14"><g
           transform="translate(201.3672,269.6079)"
           id="g20"><path
             id="path22"
             style="fill:#000000;fill-opacity:1;fill-rule:nonzero;stroke:none"
             d="m 0,0 c 0.757,-13.018 -0.409,-25.707 -7.773,-36.971 -6.898,-10.551 -16.468,-16.31 -29.439,-15.199 -14.33,1.227 -23.441,13.147 -19.719,26.954 1.74,6.456 5.459,12.411 8.529,18.468 4.204,8.294 9.681,16.1 12.772,24.771 7.215,20.239 -3.624,40.155 -24.213,46.58 -4.62,1.441 -8.611,0.944 -12.818,-1.613 -11.423,-6.943 -20.897,-16.035 -29.17,-26.33 -30.695,-38.196 -37.877,-80.337 -18.037,-125.406 21.406,-48.624 74.474,-78.563 128.634,-73.586 42.443,3.902 77.867,21.886 101.175,58.194 35.308,54.996 21.183,130.228 -42.758,168.997 -4.815,2.919 -8.219,1.652 -9.846,-3.777 -0.69,-2.299 -0.946,-5.004 -0.455,-7.325 C 58.156,47.745 60.28,41.908 61.473,35.883 63.56,25.344 62.104,15.481 53.553,7.997 46.044,1.425 37.151,3.394 33.12,12.473 c -1.528,3.444 -2.2,7.3 -3.015,11.022 C 28.72,29.824 28.19,36.421 26.113,42.5 22.32,53.601 12.654,55.032 5.074,45.992 0.111,40.072 -1.472,32.859 -1.399,25.433 -1.315,16.952 -0.499,8.478 0,0 M 10.867,115.975 C 70.532,112.634 123.25,81.36 150.053,16.312 c 23.07,-55.989 13.607,-109.702 -26.409,-156.461 -15.748,-18.401 -34.281,-33.482 -56.911,-43.076 -9.019,-3.823 -14.851,-17.236 -12.508,-28.112 1.046,-4.855 3.085,-9.487 4.494,-14.273 0.982,-3.336 2.114,-6.725 2.387,-10.154 0.748,-9.39 -4.406,-16.562 -12.998,-18.773 -8.828,-2.272 -17.666,1.363 -21.202,9.826 -2.205,5.275 -3.113,11.18 -3.999,16.897 -1.365,8.811 -3.059,17.343 -8.774,24.625 -3.355,4.274 -7.158,6.086 -12.795,6.035 -48.064,-0.438 -89.397,16.099 -123.201,50.404 -57.854,58.711 -57.873,155.575 0.916,213.341 32.459,31.894 71.934,49.864 131.814,49.384" /></g></g></g></g></svg>