<?xml version="1.0" encoding="UTF-8" standalone="no"?>
<svg
   xmlns:dc="http://purl.org/dc/elements/1.1/"
   xmlns:cc="http://creativecommons.org/ns#"
   xmlns:rdf="http://www.w3.org/1999/02/22-rdf-syntax-ns#"
   xmlns:svg="http://www.w3.org/2000/svg"
   xmlns="http://www.w3.org/2000/svg"
   viewBox="0 0 682.66669 682.66669"
   height="682.66669"
   width="682.66669"
   xml:space="preserve"
   id="svg2"
   version="1.1"><metadata
     id="metadata8"><rdf:RDF><cc:Work
         rdf:about=""><dc:format>image/svg+xml</dc:format><dc:type
           rdf:resource="http://purl.org/dc/dcmitype/StillImage" /></cc:Work></rdf:RDF></metadata><defs
     id="defs6"><clipPath
       id="clipPath18"
       clipPathUnits="userSpaceOnUse"><path
         id="path16"
         d="M 0,512 H 512 V 0 H 0 Z" /></clipPath></defs><g
     transform="matrix(1.3333333,0,0,-1.3333333,0,682.66667)"
     id="g10"><g
       id="g12"><g
         clip-path="url(#clipPath18)"
         id="g14"><g
           transform="translate(249.5044,400.3491)"
           id="g20"><path
             id="path22"
             style="fill:#000000;fill-opacity:1;fill-rule:nonzero;stroke:none"
             d="m 0,0 c -1.692,1.561 -4.437,0.749 -5.006,-1.481 -0.522,-2.04 -0.372,-6.745 -0.369,-8.784 0.01,-7.829 0.057,-12.991 0.114,-20.821 0.053,-7.429 -0.762,-14.785 -5.088,-21.193 -5.915,-8.762 -16.645,-9.986 -23.526,-1.989 -3.372,3.92 -6.302,9.084 -7.182,14.08 -1.337,7.591 -1.232,15.555 -0.798,23.308 0.563,10.085 2.913,20.12 2.908,30.175 -0.004,11.345 -8.244,18.038 -19.61,16.934 -4.793,-0.465 -13.425,-3.54 -17.459,-5.962 -10.745,-6.454 -18.555,-10.629 -27.776,-18.951 -36.439,-32.886 -54.595,-73.686 -51.07,-123.427 2.784,-39.279 19.388,-71.863 47.911,-98.226 65.808,-60.829 168.969,-60.251 234.522,0.795 45.225,42.116 60.097,106.328 36.817,163.551 C 145.615,-5.845 110.779,23.455 64.132,39.387 55.353,42.385 50.825,41.414 46.417,33.229 42.789,26.49 40.999,18.71 38.788,11.274 36.958,5.121 36.427,-1.5 34.025,-7.384 30.287,-16.539 21.6,-18.648 13.643,-12.848 10.454,-10.523 7.868,-7.376 4.977,-4.635 3.332,-3.075 1.666,-1.538 0,0 m 8.714,92.571 c 79.89,-2.375 144.307,-33.675 185.561,-103.957 47.516,-80.951 28.615,-182.168 -43.756,-243.742 -20.344,-17.309 -43.394,-29.793 -68.274,-39.515 -8.88,-3.469 -16.991,-9.811 -24.195,-16.249 -3.212,-2.871 -4.605,-9.233 -4.563,-13.989 0.094,-10.374 1.884,-20.72 2.493,-31.107 0.364,-6.22 0.641,-12.653 -0.525,-18.704 -1.774,-9.197 -7.933,-15.175 -17.201,-17.22 -9.293,-2.05 -16.962,1.186 -22.967,8.371 -6.065,7.257 -7.59,16.282 -9.564,25.142 -0.762,3.416 -1.538,6.867 -2.614,10.193 -1.964,6.073 -7.46,7.481 -12.172,3.177 -2.171,-1.983 -4.224,-4.117 -6.514,-5.953 -2.052,-1.644 -4.117,-3.367 -6.299,-4.844 -10.675,-7.221 -20.387,-2.462 -21.603,10.368 -0.404,4.252 -0.233,8.633 -0.337,12.925 -0.166,6.893 0.465,13.853 -0.288,20.669 -0.917,8.3 -5.082,13.504 -14.01,16.497 -61.552,20.635 -107.161,59.872 -129.832,121.191 -23.333,63.11 -15.654,124.163 23.915,179.202 37.385,52.001 89.047,80.658 152.957,86.841 2.6,0.251 5.199,0.599 7.806,0.674 3.991,0.114 7.988,0.03 11.982,0.03" /></g></g></g></g></svg>