<?xml version="1.0" encoding="UTF-8" standalone="no"?>
<svg
   xmlns:dc="http://purl.org/dc/elements/1.1/"
   xmlns:cc="http://creativecommons.org/ns#"
   xmlns:rdf="http://www.w3.org/1999/02/22-rdf-syntax-ns#"
   xmlns:svg="http://www.w3.org/2000/svg"
   xmlns="http://www.w3.org/2000/svg"
   viewBox="0 0 682.66669 682.66669"
   height="682.66669"
   width="682.66669"
   xml:space="preserve"
   id="svg2"
   version="1.1"><metadata
     id="metadata8"><rdf:RDF><cc:Work
         rdf:about=""><dc:format>image/svg+xml</dc:format><dc:type
           rdf:resource="http://purl.org/dc/dcmitype/StillImage" /></cc:Work></rdf:RDF></metadata><defs
     id="defs6"><clipPath
       id="clipPath18"
       clipPathUnits="userSpaceOnUse"><path
         id="path16"
         d="M 0,512 H 512 V 0 H 0 Z" /></clipPath></defs><g
     transform="matrix(1.3333333,0,0,-1.3333333,0,682.66667)"
     id="g10"><g
       id="g12"><g
         clip-path="url(#clipPath18)"
         id="g14"><g
           transform="translate(333.4697,349.4146)"
           id="g20"><path
             id="path22"
             style="fill:#000000;fill-opacity:1;fill-rule:nonzero;stroke:none"
             d="m 0,0 c 2.398,0 5.839,0.004 8.238,-0.002 2.399,-0.008 4.798,-0.032 7.197,-0.04 6.922,-0.022 10.263,1.928 10.546,8.908 0.057,1.387 -0.178,2.814 -0.461,4.185 -0.821,3.974 -3.781,5.286 -7.737,5.331 -11.146,0.126 -20.513,-0.078 -31.66,0 -2.734,0.019 -4.357,-1.288 -4.716,-3.839 -0.409,-2.916 -0.682,-5.89 -0.594,-8.827 0.143,-4.841 1.077,-5.649 5.832,-5.696 C -8.136,-0.033 -5.221,0.008 0,0 m -43.539,62.596 0.972,1.22 c 8.542,10.779 12.615,23.298 13.285,36.81 0.6,12.11 0.362,24.26 0.498,36.393 0.013,1.269 -0.062,2.553 0.103,3.804 0.311,2.345 1.938,2.729 3.702,1.831 1.205,-0.613 2.153,-1.791 3.113,-2.812 C 14.087,101.607 50.03,63.364 85.961,25.108 87.263,23.723 88.924,21.642 87.272,19.622 86.26,18.382 84.563,18.275 82.81,18.215 76.148,17.988 69.473,17.996 62.809,18.165 59.444,18.25 56.401,16.167 55.278,12.995 54.381,10.46 53.404,7.927 52.85,5.312 c -0.91,-4.284 0.005,-5.368 4.406,-5.407 10.582,-0.092 21.165,-0.066 31.748,-0.088 2.258,-0.005 4.517,0.04 6.772,-0.028 3.714,-0.113 4.888,-0.966 5.567,-4.471 0.327,-1.695 0.444,-3.424 0.431,-5.151 -0.346,-44.124 -0.701,-88.247 -1.089,-132.37 -0.274,-31.041 -0.582,-62.081 -0.913,-93.121 -0.101,-9.567 -1.322,-10.786 -11.125,-10.786 -27.233,-10e-4 -54.465,0.089 -81.699,0.129 -22.577,0.032 -45.153,0.053 -67.73,0.064 -16.596,0.007 -32.044,-4.48 -46.531,-12.317 -7.217,-3.904 -13.866,-8.959 -15.52,-17.473 -1.048,-5.398 -0.421,-11.185 -0.091,-16.771 0.357,-6.041 1.764,-12.053 1.728,-18.071 -0.027,-4.544 -0.981,-9.319 -2.614,-13.572 -3.996,-10.415 -14.706,-16.45 -25.77,-15.234 -11.621,1.278 -20.935,9.993 -22.895,21.136 -1.49,8.469 0.667,16.52 2.276,24.675 1.253,6.35 2.815,12.722 1.039,19.249 -0.294,1.082 -0.564,2.198 -1.054,3.195 -2.122,4.317 -5.009,4.809 -8.158,1.216 -1.942,-2.217 -3.433,-4.823 -5.268,-7.141 -2.794,-3.527 -5.356,-7.344 -8.642,-10.353 -9.166,-8.394 -20.462,-6.037 -25.65,5.212 -1.764,3.826 -3.101,7.875 -4.317,11.918 -4.034,13.415 -13.571,20.674 -26.629,23.913 -7.049,1.748 -7.871,2.699 -7.83,10.091 0.255,46.846 0.439,93.692 0.702,140.537 0.442,78.875 0.925,157.75 1.396,236.624 0.008,1.27 -0.015,2.551 0.152,3.804 0.498,3.715 2.506,5.437 6.731,5.517 6.913,0.13 13.828,0.09 20.742,0.152 52.206,0.473 104.412,0.933 156.617,1.464 4.688,0.048 6.886,0.052 13.95,0.052 7.064,0 9.136,-2.249 9.139,-8.993 0.008,-25.823 -0.005,-50.933 0.02,-76.755 10e-4,-0.829 0.057,-1.658 0.13,-2.488 0.159,-1.813 2.457,-2.498 3.59,-1.074" /></g></g></g></g></svg>