<?xml version="1.0" encoding="utf-8"?>
<!-- Generator: Adobe Illustrator 23.0.6, SVG Export Plug-In . SVG Version: 6.00 Build 0)  -->
<svg version="1.1"
	 id="Layer_1" inkscape:version="0.92.1 r15371" sodipodi:docname="audio-wave.svg" xmlns:cc="http://creativecommons.org/ns#" xmlns:dc="http://purl.org/dc/elements/1.1/" xmlns:inkscape="http://www.inkscape.org/namespaces/inkscape" xmlns:rdf="http://www.w3.org/1999/02/22-rdf-syntax-ns#" xmlns:sodipodi="http://sodipodi.sourceforge.net/DTD/sodipodi-0.dtd" xmlns:svg="http://www.w3.org/2000/svg"
	 xmlns="http://www.w3.org/2000/svg" xmlns:xlink="http://www.w3.org/1999/xlink" x="0px" y="0px" viewBox="0 0 400 400"
	 style="enable-background:new 0 0 400 400;" xml:space="preserve">
<path d="M200.7,121.2H198c-4.6,0-8.4,3.8-8.4,8.4v25.8c0,1.9,0.6,3.6,1.7,5.1c1,1.4,2,2.8,2.6,4.5c9,25.3-19.1,59.1,4.3,60
	c24.9-3.1-4-34,6.3-59.7c0.7-1.7,1.7-3.1,2.9-4.6c1.1-1.5,1.9-3.3,1.9-5.2v-25.8C209.1,125,205.4,121.2,200.7,121.2z"/>
<path d="M168.8,96.7H166c-4.6,0-8.4,3.8-8.4,8.4v4.2c0,1.4-0.1,2.8-0.2,4.3c-1.8,17.9-4.8,33.4-10,31.1c-1.3-0.6-2.1-2-2.1-3.3V51.4
	c0-4.6-3.8-8.4-8.4-8.4h-2.8c-4.6,0-8.4,3.8-8.4,8.4v182.1c0,4.6,3.8,8.4,8.4,8.4h2.8c4.6,0,8.4-3.8,8.4-8.4v-28.8
	c0-4.5,0.6-9,1.7-13.3c3.5-12.8,7.6-24.7,10-17.3c0.3,1.2,0.6,2.4,0.6,3.6v2.2c0,4.7,3.8,8.5,8.4,8.5h2.8c4.6,0,8.4-3.8,8.4-8.4v-75
	C177.2,100.4,173.4,96.7,168.8,96.7z"/>
<path d="M296.5,90.4h-2.8c-4.6,0-8.4,3.8-8.4,8.4v46.1c0,5-0.5,9.9-1.6,14.8c-1.8,7.9-4.7,15.1-8.7,12.3c-1.3-1-2.1-2.6-2.1-4.3
	V51.4c0-4.6-3.8-8.4-8.4-8.4h-2.8c-4.6,0-8.4,3.8-8.4,8.4V78c-1.3,17.9-4.6,37.2-10.5,33.1c-1.3-0.9-1.9-2.4-1.9-3.9V105
	c0-4.6-3.8-8.4-8.4-8.4h-2.8c-4.7,0-8.4,3.8-8.4,8.4v75c0,4.6,3.8,8.4,8.4,8.4h2.8c4.6,0,8.4-3.8,8.4-8.4v-13.9
	c0-3.8,0.3-7.7,0.8-11.6c2.7-18.5,6.8-29.7,10.4-25.3c0.8,1,1.1,2.2,1.1,3.4v100.8c0,4.6,3.8,8.4,8.4,8.4h2.8c4.6,0,8.4-3.8,8.4-8.4
	V201c0-3,0.3-6,1.1-8.9c1.6-6.2,4.3-9.5,9-5.9c1.3,1,2.4,2.4,3.2,3.9c1.4,2.7,4.2,4.5,7.4,4.5h2.8c4.6,0,8.4-3.8,8.4-8.4V98.8
	C304.9,94.2,301.1,90.4,296.5,90.4z"/>
<path d="M105,90.4h-2.8c-4.6,0-8.4,3.8-8.4,8.4v43.1c0,2.1-0.8,4.1-2.4,5.4c-3.1,2.7-6.3,0.6-8.4-4.7c-1.1-2.8-1.6-5.8-1.6-8.8v-4.2
	c0-4.6-3.8-8.4-8.4-8.4h-2.8c-4.6,0-8.4,3.8-8.4,8.4v25.8c0,4.6,3.8,8.4,8.4,8.4H73c1.2,0,2.4-0.3,3.4-0.7c2.2-1,4.7-1.3,7-0.5
	c3.8,1.4,6.6,4.7,8.4,8.9c1.3,3.1,2,6.6,2,10v4.6c0,4.6,3.8,8.4,8.4,8.4h2.8c4.6,0,8.4-3.8,8.4-8.4V98.8
	C113.4,94.2,109.6,90.4,105,90.4z"/>
<path d="M328.4,121.2h-2.8c-4.6,0-8.4,3.8-8.4,8.4v25.8c0,2.1,0.8,4,2.1,5.5c2.3,2.7,4.2,5.7,5,9.1c3.6,14.7-9.1,24.4,1.7,25.1
	c9.1-0.3,3.8-10.7,3.8-21.6c0-4.7,1.9-9.1,5-12.8c1.2-1.5,2-3.3,2-5.4v-25.8C336.8,125,333.1,121.2,328.4,121.2z"/>
</svg>
