<?xml version="1.0" encoding="utf-8"?>
<!-- Generator: Adobe Illustrator 22.1.0, SVG Export Plug-In . SVG Version: 6.00 Build 0)  -->
<svg version="1.1"
	 id="Layer_1" inkscape:version="0.92.1 r15371" sodipodi:docname="audio-wave.svg" xmlns:cc="http://creativecommons.org/ns#" xmlns:dc="http://purl.org/dc/elements/1.1/" xmlns:inkscape="http://www.inkscape.org/namespaces/inkscape" xmlns:rdf="http://www.w3.org/1999/02/22-rdf-syntax-ns#" xmlns:sodipodi="http://sodipodi.sourceforge.net/DTD/sodipodi-0.dtd" xmlns:svg="http://www.w3.org/2000/svg"
	 xmlns="http://www.w3.org/2000/svg" xmlns:xlink="http://www.w3.org/1999/xlink" x="0px" y="0px" viewBox="0 0 412 412"
	 style="enable-background:new 0 0 412 412;" xml:space="preserve">
<sodipodi:namedview  bordercolor="#666666" borderopacity="1" gridtolerance="10" guidetolerance="10" id="namedview21" inkscape:current-layer="Layer_1" inkscape:cx="156.11267" inkscape:cy="249.36596" inkscape:pageopacity="0" inkscape:pageshadow="2" inkscape:window-height="1017" inkscape:window-maximized="1" inkscape:window-width="1920" inkscape:window-x="1358" inkscape:window-y="-8" inkscape:zoom="1.620167" objecttolerance="10" pagecolor="#ffffff" showgrid="false">
	</sodipodi:namedview>
<g>
	<path d="M208,175.5h-4c-6.6,0-12,5.4-12,12v37c0,2.7,0.9,5.2,2.4,7.3c1.5,2,2.8,4,3.7,6.4c12.9,36.3-27.4,84.7,6.1,86
		c35.7-4.4-5.8-48.7,9.1-85.6c1-2.4,2.5-4.5,4.1-6.6c1.6-2.1,2.7-4.7,2.7-7.4v-37C220,180.9,214.6,175.5,208,175.5z"/>
	<path d="M162.2,140.3h-4c-6.6,0-12,5.4-12,12v6c0,2-0.1,4-0.3,6.1c-2.6,25.7-6.9,47.9-14.4,44.6c-1.9-0.8-3-2.8-3-4.8V75.5
		c0-6.6-5.4-12-12-12h-4c-6.6,0-12,5.4-12,12v261c0,6.6,5.4,12,12,12h4c6.6,0,12-5.4,12-12l0-41.3c0-6.5,0.8-12.9,2.5-19.1
		c5-18.4,10.9-35.4,14.4-24.8c0.5,1.7,0.8,3.4,0.8,5.1v3.2c0,6.8,5.4,12.2,12,12.2h4c6.6,0,12-5.4,12-12V152.3
		C174.2,145.7,168.8,140.3,162.2,140.3z"/>
	<path d="M345.2,131.4h-4c-6.6,0-12,5.4-12,12v66c0,7.1-0.7,14.2-2.3,21.2c-2.6,11.3-6.7,21.7-12.4,17.6c-1.9-1.4-3-3.7-3-6.1V75.5
		c0-6.6-5.4-12-12-12h-4c-6.6,0-12,5.4-12,12v38.1c-1.9,25.6-6.6,53.3-15,47.4c-1.8-1.3-2.7-3.4-2.7-5.6v-3.1c0-6.6-5.4-12-12-12h-4
		c-6.7,0-12,5.4-12,12v107.5c0,6.6,5.4,12,12,12h4c6.6,0,12-5.4,12-12v-19.9c0-5.5,0.4-11.1,1.2-16.6c3.9-26.5,9.8-42.5,14.9-36.2
		c1.1,1.4,1.6,3.1,1.6,4.9v144.5c0,6.6,5.4,12,12,12h4c6.6,0,12-5.4,12-12l0-46.7c0-4.3,0.5-8.6,1.6-12.8c2.3-8.9,6.2-13.6,12.9-8.4
		c1.9,1.5,3.5,3.5,4.6,5.6c2,3.8,6,6.4,10.6,6.4h4c6.6,0,12-5.4,12-12V143.4C357.2,136.8,351.8,131.4,345.2,131.4z"/>
	<path d="M70.8,131.4h-4c-6.6,0-12,5.4-12,12v61.7c0,3-1.2,5.9-3.5,7.8c-4.5,3.8-9,0.9-12.1-6.8c-1.6-4-2.3-8.3-2.3-12.6v-6
		c0-6.6-5.4-12-12-12h-4c-6.6,0-12,5.4-12,12v37c0,6.6,5.4,12,12,12h4c1.7,0,3.4-0.4,4.9-1c3.2-1.4,6.7-1.9,10-0.7
		c5.5,2,9.5,6.7,12.1,12.8c1.9,4.5,2.8,9.4,2.8,14.3v6.6c0,6.6,5.4,12,12,12h4c6.6,0,12-5.4,12-12V143.4
		C82.8,136.8,77.4,131.4,70.8,131.4z"/>
	<path d="M391,175.5h-4c-6.6,0-12,5.4-12,12v37c0,3,1.1,5.8,3,7.9c3.3,3.8,6,8.1,7.2,13c5.2,21-13.1,35,2.5,36
		c13.1-0.5,5.5-15.3,5.4-31c0-6.8,2.7-13.1,7.1-18.3c1.7-2.1,2.8-4.7,2.8-7.7v-37C403,180.9,397.6,175.5,391,175.5z"/>
</g>
</svg>
