<?xml version="1.0" encoding="utf-8"?>
<!-- Generator: Adobe Illustrator 22.0.0, SVG Export Plug-In . SVG Version: 6.00 Build 0)  -->
<!DOCTYPE svg PUBLIC "-//W3C//DTD SVG 1.1//EN" "http://www.w3.org/Graphics/SVG/1.1/DTD/svg11.dtd">
<svg version="1.1" id="Layer_1" xmlns="http://www.w3.org/2000/svg" xmlns:xlink="http://www.w3.org/1999/xlink" x="0px" y="0px"
	 viewBox="0 0 400 400" enable-background="new 0 0 400 400" xml:space="preserve">
<g>
	<path d="M97.4,92.9c-2.7-1.6-6,0.3-6,3.4c0,0,0,0,0,0c0,55.7,0,111.3,0,167c0,5.8,0,5.8,5.8,5.8c14.6,0,29.3,0.1,43.9-0.1
		c3.7-0.1,4.7,1.2,4.9,4.8c0.5,8.6,1.1,17.2,2.4,25.7c1,6.6,1.5,6.5-5.4,6.5c-17.4,0-34.9-0.3-52.3,0.1
		c-19.2,0.4-36.2-15.6-36.2-35.5c0-61.1,0-122.2,0-183.3c0-20.2,17.1-36.6,36.4-35.5c6.4,0.4,12.8,0,19.2,0.1c3,0.1,4.5-0.8,5.3-3.9
		c3.5-14.3,11.9-20.7,26.6-20.8c1.4,0,2.8-0.1,4.2,0c3.8,0.5,6.3-0.8,8.7-4.1c2.4-3.4,5.9-6,9.2-8.7c3.7-3.2,10.9-0.1,13.3,2.3
		c3.1,3.1,6.1,6.4,9.4,9.2c1.3,1.1,3.6,1.1,5.5,1.4c5.9,0.8,12,0.6,17.6,2.4c8.4,2.7,12.7,9.6,14.3,18.1c0.5,2.5,2.7,4.3,5.2,4.2
		c6.8-0.3,13.7-0.1,20.5-0.1c11.8,0,22.1,5.7,28.4,14.4c4.9,6.9,6.5,14.2,6.5,18.6c0,4.4,0,10.9,0,15.9s-1.5,5.2-7.5,5.2
		s-18.9,0.1-22.8,0.1s-6.7,0-6.5-3.6c0.2-3.2,0-6.4,0.1-9.6c0.1-2.8-1.1-4.1-3.9-4.1c-6.8,0-13.7-0.1-20.5,0.1c-1.4,0-3.2,1-4.1,2.1
		c-5.6,6.6-12.6,9.6-21.3,9.4c-12.8-0.3-25.7-0.1-38.5-0.1c-16.3,0-24.7,10-21.6,26.1c1.5,7.9,4.3,15.7,5.2,23.7
		c0.7,5.8,0.1,12-1.3,17.7c-1.7,6.9-6.1,12.5-14,13.1c-7.8,0.6-12.8-4-16.2-10.4c-4.1-7.5-4.3-15.8-3.5-24.1
		c0.8-7.2,1.9-14.4,2.4-21.6c0.7-10.1-1.5-19.4-8.1-27.4C100.9,95.7,99.3,94.1,97.4,92.9z M170.2,75.8c8.5,0,17-0.1,25.5,0.1
		c3,0.1,4.4-1,4.3-4c-0.1-5.3-0.1-10.6,0-15.9c0-2.4-0.8-3.6-3.3-3.6c-17.7,0.1-35.4,0.1-53,0c-3.1,0-4.1,1.4-4,4.4
		c0.2,4.6,0.2,9.2,0,13.8c-0.2,4.1,1.6,5.4,5.5,5.3C153.5,75.7,161.9,75.8,170.2,75.8z"/>
	<path d="M345.5,225.1c0,19,0,37.9,0,56.9c0,19.8-12.3,38.2-30.8,45.1c-4.1,1.5-8.7,2.1-13.1,2.2c-9.8,0.3-19.5,0-29.3,0.2
		c-2.1,0.1-4.6,1.2-6,2.7c-6.4,6.5-9,14.6-9.2,23.6c-0.1,5.2,0,10.3-0.4,15.5c-0.5,6.3-2.2,12.5-9,14.8c-6.9,2.3-12.5-0.8-17.4-5.5
		c-4.4-4.3-6.6-9.7-7-15.7c-0.4-5,0.2-10.1-0.4-15c-0.6-5.5-1.9-10.9-3.3-16.2c-0.8-3.2-3.2-4.4-6.7-4.1
		c-10.5,0.9-20.2-1.5-28.8-7.7c-14.2-10.3-20.8-24.5-20.9-41.7c-0.2-34.9-0.2-69.7,0-104.6c0.1-19.6,7.9-35.1,25.2-45.1
		c6.8-4,14.3-6.1,22.3-6.2c29.4-0.1,58.9-0.6,88.3,0.2c18.5,0.5,32.4,9.8,41.2,26.3c4.1,7.7,5.4,16,5.4,24.6
		C345.4,191.9,345.5,208.5,345.5,225.1z M320.5,227.4c0-18.3,0-36.6,0-54.8c0-10.2-6.9-19.8-17-22.2c-5.5-1.3-11.4-0.8-16.9-1.8
		c-8.7-1.5-13.7,2.4-17.4,9.9c-4.5,9.3-5.6,18.7-2.5,28.4c2.4,7.5,6.6,10.1,14.3,10.1c4,0,8.1,0,12.1,0c2.8,0,4.1,1.2,4,4.1
		c-0.1,5.3-0.1,10.6,0,15.9c0.1,3.4-1.4,4.6-4.8,4.6c-25.4-0.1-50.8-0.1-76.2,0c-3.4,0-4.4-1.5-4.4-4.5c0.1-5.2,0.2-10.3,0-15.5
		c-0.1-3.4,1.1-4.8,4.6-4.7c4.7,0.2,9.5,0.4,14.2-0.1c2.2-0.2,5.1-1.5,6.2-3.3c6.5-10.2,6.8-21.1,1.5-31.9
		c-4.7-9.5-12.7-13.6-23.6-13.2c-15.8,0.6-26.5,10.8-26.5,26.6c0,35.3,0,70.6,0,105.9c0,13.3,10.6,24.3,24,24.5
		c6.4,0.1,12.8,0,19.3,0c4.8,0.1,8.1-2.2,10-6.3c1.4-3,2.6-6.2,3.2-9.5c2.3-11.1-5-19.9-16.1-19.9c-4.2,0-8.4-0.1-12.6,0
		c-2.9,0.1-4.1-1.3-4.1-4c0-5.6,0-11.2,0-16.7c0-2.8,1.2-3.9,4.1-3.9c25.5,0.1,51.1,0.1,76.6,0c3.5,0,4.8,1.5,4.7,4.8
		c-0.1,4.9-0.2,9.8,0,14.6c0.1,3.8-1.3,5.3-5.2,5.2c-6.7-0.2-13.4-0.1-20.1,0c-1.4,0-3.2,0.3-4.3,1.1c-5.1,4-7.2,16.8-3.3,22.2
		c5,6.9,11.7,11.6,20.5,12.2c4.3,0.3,8.7,0.2,13,0.1c12.4-0.4,22.6-11,22.7-23.4C320.5,264,320.5,245.7,320.5,227.4z"/>
</g>
</svg>
