<?xml version="1.0" encoding="utf-8"?>
<!-- Generator: Adobe Illustrator 23.0.6, SVG Export Plug-In . SVG Version: 6.00 Build 0)  -->
<svg version="1.1" id="Layer_1" xmlns="http://www.w3.org/2000/svg" xmlns:xlink="http://www.w3.org/1999/xlink" x="0px" y="0px"
	 viewBox="0 0 400 400" style="enable-background:new 0 0 400 400;" xml:space="preserve">
<path d="M110.8,74.3c-2.3-1.4-5.2,0.3-5.2,3c0,0,0,0,0,0c0,48.4,0,96.7,0,145.1c0,5,0,5,5.1,5c12.7,0,25.4,0.1,38.2-0.1
	c3.2,0,4.1,1.1,4.2,4.1c0.4,7.4,1,14.9,2.1,22.3c0.9,5.7,1.3,5.7-4.7,5.7c-15.1,0-30.3-0.2-45.4,0.1c-16.7,0.3-31.5-13.6-31.5-30.8
	c0-53.1,0-106.2,0-159.2c0-17.5,14.9-31.8,31.6-30.9c5.6,0.3,11.1,0,16.7,0.1c2.6,0.1,3.9-0.7,4.6-3.4c3-12.4,10.3-18,23.1-18
	c1.2,0,2.4-0.1,3.6,0c3.3,0.4,5.5-0.7,7.5-3.6c2.1-2.9,5.2-5.2,8-7.6c3.2-2.8,9.5-0.1,11.5,2c2.7,2.7,5.3,5.6,8.2,8
	c1.1,0.9,3.1,1,4.7,1.2c5.1,0.7,10.4,0.6,15.3,2.1c7.3,2.3,11,8.4,12.4,15.7c0.4,2.2,2.3,3.8,4.5,3.7c5.9-0.2,11.9-0.1,17.8-0.1
	c10.3,0,19.2,4.9,24.7,12.5c4.3,6,5.6,12.3,5.6,16.2c0,3.9,0,9.5,0,13.8s-1.3,4.5-6.5,4.5s-16.4,0.1-19.8,0.1c-3.4,0-5.8,0-5.6-3.1
	c0.2-2.8,0-5.6,0.1-8.4c0.1-2.5-1-3.6-3.4-3.6c-5.9,0-11.9-0.1-17.8,0.1c-1.2,0-2.8,0.9-3.6,1.8c-4.9,5.8-10.9,8.3-18.5,8.1
	c-11.1-0.3-22.3-0.1-33.4-0.1c-14.2,0-21.5,8.7-18.8,22.7c1.3,6.9,3.7,13.6,4.5,20.5c0.6,5,0.1,10.5-1.1,15.4
	c-1.5,6-5.3,10.9-12.2,11.4c-6.8,0.5-11.1-3.5-14.1-9.1c-3.5-6.6-3.8-13.7-3-20.9c0.7-6.3,1.6-12.5,2.1-18.8
	c0.6-8.7-1.3-16.9-7.1-23.8C114,76.7,112.6,75.3,110.8,74.3z M174.1,59.4c7.4,0,14.8-0.1,22.1,0c2.6,0.1,3.8-0.9,3.8-3.5
	c-0.1-4.6-0.1-9.2,0-13.8c0-2.1-0.7-3.1-2.9-3.1c-15.4,0-30.7,0-46.1,0c-2.7,0-3.6,1.2-3.5,3.8c0.2,4,0.2,8,0,12
	c-0.2,3.5,1.4,4.7,4.8,4.6C159.6,59.3,166.9,59.4,174.1,59.4z"/>
<path d="M326.4,189.1c0,16.5,0,33,0,49.4c0,17.2-10.7,33.1-26.7,39.2c-3.5,1.3-7.5,1.8-11.4,1.9c-8.5,0.3-17,0-25.4,0.2
	c-1.8,0.1-4,1-5.2,2.3c-5.5,5.6-7.8,12.7-8,20.5c-0.1,4.5,0,9-0.4,13.4c-0.5,5.5-1.9,10.8-7.8,12.8c-6,2-10.9-0.7-15.1-4.8
	c-3.8-3.7-5.7-8.4-6.1-13.6c-0.3-4.3,0.1-8.8-0.4-13.1c-0.6-4.7-1.7-9.4-2.9-14.1c-0.7-2.7-2.8-3.9-5.8-3.6
	c-9.1,0.8-17.5-1.3-25-6.7c-12.3-8.9-18-21.3-18.1-36.2c-0.2-30.3-0.2-60.6,0-90.9c0.1-17,6.9-30.5,21.9-39.1
	c5.9-3.4,12.5-5.3,19.4-5.3c25.6,0,51.1-0.5,76.7,0.1c16.1,0.4,28.1,8.5,35.8,22.9c3.6,6.7,4.7,13.9,4.6,21.4
	C326.3,160.2,326.4,174.7,326.4,189.1z M304.7,191.1c0-15.9,0-31.8,0-47.6c0-8.9-6-17.2-14.7-19.3c-4.8-1.1-9.9-0.7-14.7-1.5
	c-7.6-1.3-11.9,2-15.1,8.6c-3.9,8-4.9,16.2-2.2,24.7c2.1,6.5,5.7,8.8,12.5,8.8c3.5,0,7,0,10.5,0c2.4,0,3.5,1,3.5,3.5
	c-0.1,4.6-0.1,9.2,0,13.8c0.1,3-1.2,4-4.2,4c-22.1-0.1-44.1-0.1-66.2,0c-3,0-3.8-1.3-3.8-3.9c0.1-4.5,0.1-9,0-13.4
	c-0.1-3,0.9-4.2,4-4.1c4.1,0.2,8.3,0.3,12.3-0.1c1.9-0.2,4.4-1.3,5.4-2.8c5.7-8.9,5.9-18.4,1.3-27.7c-4.1-8.3-11-11.8-20.5-11.4
	c-13.7,0.5-23,9.4-23,23.1c0,30.7,0,61.3,0,92c0,11.6,9.2,21.1,20.8,21.3c5.6,0.1,11.1,0,16.7,0c4.1,0.1,7-1.9,8.7-5.5
	c1.2-2.6,2.2-5.4,2.8-8.2c2-9.6-4.3-17.3-14-17.3c-3.6,0-7.3-0.1-10.9,0c-2.5,0.1-3.5-1.1-3.5-3.5c0-4.8,0-9.7,0-14.5
	c0-2.4,1-3.4,3.6-3.4c22.2,0.1,44.4,0.1,66.5,0c3,0,4.1,1.3,4.1,4.2c-0.1,4.2-0.1,8.5,0,12.7c0.1,3.3-1.2,4.6-4.5,4.5
	c-5.8-0.1-11.6-0.1-17.4,0c-1.3,0-2.8,0.2-3.7,1c-4.4,3.5-6.2,14.6-2.9,19.3c4.3,6,10.2,10.1,17.8,10.6c3.7,0.3,7.5,0.2,11.3,0.1
	c10.8-0.4,19.7-9.6,19.7-20.3C304.7,222.8,304.7,207,304.7,191.1z"/>
</svg>
