<?xml version="1.0" encoding="utf-8"?>
<!-- Generator: Adobe Illustrator 23.0.6, SVG Export Plug-In . SVG Version: 6.00 Build 0)  -->
<svg version="1.1"
	 id="svg4" xmlns:cc="http://creativecommons.org/ns#" xmlns:dc="http://purl.org/dc/elements/1.1/" xmlns:inkscape="http://www.inkscape.org/namespaces/inkscape" xmlns:rdf="http://www.w3.org/1999/02/22-rdf-syntax-ns#" xmlns:sodipodi="http://sodipodi.sourceforge.net/DTD/sodipodi-0.dtd" xmlns:svg="http://www.w3.org/2000/svg"
	 xmlns="http://www.w3.org/2000/svg" xmlns:xlink="http://www.w3.org/1999/xlink" x="0px" y="0px" viewBox="0 0 400 400"
	 style="enable-background:new 0 0 400 400;" xml:space="preserve">
<style type="text/css">
	.st0{fill-opacity:0.9859;}
</style>
<path class="st0" d="M256.4,60.4c-13,4.1-42.5,15.2-52.4,34.1c-6.7,10-6.8-7.2-3.6-17.1c0.7-2.1,1.9-3.9,3.5-5.3
	c40.3-33.5,32.2-57.7,26.7-66.7c-0.6-1-2.1-0.4-1.9,0.7c7.2,42.3-42.7,56.3-61.2,83.9c-12.3,18.7,4.8,38.7,29.4,61.1
	c0.7,0.6,1.8-0.2,1.3-1c-7.8-14-22.4-27.3-20.3-44c0.4-2.8,1.6-5.6,3.7-7.5c5.4-5.2,9.6,0.8,22,22.2l0,0c2,4.4,5,9.1,9.3,14
	c6.7,7.7,5.8,15.1,3.3,20.5c-3.1,4.8-8.1,10.4-15.2,14.3c-2.9,1.6-6.1,2.5-9.4,2.6c-16.6,0.6-31.8,0.4-40.9-0.8
	c-25-3.4-1.2-11.3,11.3-14.8c0.9-0.3,0.7-1.6-0.3-1.6c-7.8,0.6-21.4,2.7-37,10.2c-27.7,13.3,65.3,19.7,117.7,7.6
	c2.6-0.6,5.1-1.6,7.4-3c1.7-1,3.3-1.8,4.8-2.6c0.7-0.4,0.4-1.5-0.4-1.4c-7.5,1.2-22.2,3.4-36.9,4.7c-0.3,0-0.9,0-1.2,0
	c-4.8-0.7-3.6-4.6-1.7-7.9c1.1-1.9,2.6-3.5,4.3-4.9c8.7-7,19-19.3,9-33.3c-14.1-19.9-25.1-30.1,29.3-62.6
	C257.9,61.4,257.3,60.1,256.4,60.4z"/>
<path class="st0" d="M260.4,204.9c-0.5,0.2-1.1,0.8-1.5,1.2c-0.3,0.3-0.1,0.8,0.3,0.9c16.4,3.1-1.7,34.6,8.5,38.1
	c0.7,0.2,1.4,0.3,2.2,0.2c9.5-1.5-7-25.3,9.4-44c2-2.3,4.5-4.3,7.1-6c32.4-21,10.1-50.9-17.4-41.2c-1.3,0.5-2.3,1.2-3,1.8
	c-0.4,0.4,0,1.1,0.5,1c1-0.3,2.3-0.6,4-1c15.4-3.1,36.9,18.3,0.6,42.7C267.7,200.8,264.9,202.6,260.4,204.9z"/>
<path class="st0" d="M261.2,269.6c-0.5,0.1-0.9,0.2-1.4,0.2c-1.9,0.3-3.9,0.4-5.9,0.1c-7.3-1.3,1.9-6,13.4-11.5c2-1,4.1-1.8,6.2-2.5
	c14.9-4.9,20.7-10.7,13.9-15.2c-0.5-0.4-1.2,0.2-1,0.8c0.9,2.3,0.3,6.1-10.2,9.4c-18.8,5.7-61.9,9-99.5,8.2
	c-5.7-0.1-11.5-1.1-16.9-3.1c-12.8-4.6-21.9-12.2-19.5-16c0.6-0.9,0.1-2.1-0.9-2.4c-15.5-4-66.4,16.7-28.1,23
	c46.3,7.4,89.2,7.2,121.4,3.5c0.8-0.1,1.7-0.1,2.5,0.1c5.1,1.3-4.6,5.6-14,9.1c-2.6,1-5.3,1.6-8.1,1.7c-28.1,1.4-55.7,0.1-75.7-3
	c-0.9-0.1-1.4,1-0.8,1.6c32.5,30.7-3.2,88.1,22.3,90.7c25.6-1.6-17.9-62.1,7.3-81.2c3.7-2.8,8.4-4.1,13.1-3.9
	c49.4,2.5,119.5-2.9,122.9-25c0-0.2-0.2-0.2-0.3-0.1C300.5,256.4,292.8,263.7,261.2,269.6z M134.7,255.1c-1.3,0.2-2.6,0.1-3.8-0.2
	c-5.2-1-9.7-2.3-13-3.7c-5.3-2.3-2.4-5.1,2.3-7.4c1.7-0.8,3.6-1.1,5.4-0.7C134.9,245.2,143.7,253.9,134.7,255.1z"/>
<path class="st0" d="M160.1,217.9c-34.9,12.1,29.2,34.3,81.7,13.2c0.8-0.3,0.8-1.5,0-1.8c-5.2-2.2-9.4-4.4-11.5-5.6
	c-1.1-0.6-2.3-0.8-3.5-0.6c-23,4.2-34.2,4.5-55.7,2.1c-11-1.3-11.5-4.1-10.1-6.1C161.4,218.5,160.8,217.7,160.1,217.9z"/>
<path class="st0" d="M239,194.9c-1.1-0.9-2.5-1.2-3.9-1c-30.8,5.7-49,5.5-72,3.1c-11.8-1.2-10.9-5.4-8.9-8.1c0.5-0.7-0.2-1.6-1-1.3
	c-39.1,15.1,30,31.2,93.5,13.4c0.7-0.2,0.7-1.1,0.1-1.4C243.3,198.1,240.6,196.2,239,194.9z"/>
</svg>
