<?xml version="1.0" encoding="utf-8"?>
<!-- Generator: Adobe Illustrator 23.0.1, SVG Export Plug-In . SVG Version: 6.00 Build 0)  -->
<svg version="1.1"
	 id="svg4" xmlns:cc="http://creativecommons.org/ns#" xmlns:dc="http://purl.org/dc/elements/1.1/" xmlns:inkscape="http://www.inkscape.org/namespaces/inkscape" xmlns:rdf="http://www.w3.org/1999/02/22-rdf-syntax-ns#" xmlns:sodipodi="http://sodipodi.sourceforge.net/DTD/sodipodi-0.dtd" xmlns:svg="http://www.w3.org/2000/svg"
	 xmlns="http://www.w3.org/2000/svg" xmlns:xlink="http://www.w3.org/1999/xlink" x="0px" y="0px" viewBox="0 0 400 400"
	 style="enable-background:new 0 0 400 400;" xml:space="preserve">
<style type="text/css">
	.st0{fill-opacity:0.9859;}
</style>
<sodipodi:namedview  bordercolor="#666666" borderopacity="1" fit-margin-bottom="50" fit-margin-left="0" fit-margin-right="0" fit-margin-top="0" gridtolerance="10" guidetolerance="10" id="namedview6" inkscape:current-layer="svg4" inkscape:cx="33.468657" inkscape:cy="118.18577" inkscape:pageopacity="0" inkscape:pageshadow="2" inkscape:window-height="705" inkscape:window-maximized="1" inkscape:window-width="1366" inkscape:window-x="-8" inkscape:window-y="245" inkscape:zoom="1.84375" objecttolerance="10" pagecolor="#ffffff" showgrid="false">
	</sodipodi:namedview>
<g>
	<path class="st0" d="M259.2,71.2c-13.6,4.3-44.6,16-55.1,35.8c-7.1,10.5-7.1-7.5-3.8-17.9c0.7-2.2,2-4.1,3.7-5.5
		c42.3-35.2,33.8-60.6,28.1-70c-0.6-1-2.2-0.4-2,0.7c7.5,44.5-44.9,59.1-64.2,88.1c-12.9,19.6,5,40.6,30.8,64.2
		c0.7,0.7,1.9-0.2,1.4-1.1c-8.2-14.7-23.6-28.6-21.3-46.2c0.4-3,1.7-5.8,3.8-7.9c5.7-5.4,10,0.9,23.1,23.3l0,0
		c2.1,4.6,5.3,9.5,9.7,14.7c7.1,8.1,6.1,15.8,3.4,21.5c-3.3,5-8.5,10.9-15.9,15c-3,1.7-6.4,2.6-9.9,2.7c-17.5,0.6-33.3,0.4-43-0.9
		c-26.2-3.6-1.2-11.8,11.9-15.5c1-0.3,0.7-1.7-0.3-1.7c-8.2,0.6-22.5,2.9-38.8,10.7c-29.1,14,68.6,20.6,123.6,8
		c2.8-0.6,5.4-1.7,7.8-3.2c1.7-1,3.5-1.9,5-2.7c0.8-0.4,0.4-1.6-0.5-1.4c-7.9,1.3-23.3,3.6-38.7,4.9c-0.4,0-0.9,0-1.3,0
		c-5-0.8-3.7-4.9-1.7-8.2c1.2-2,2.8-3.7,4.6-5.2c9.2-7.4,19.9-20.2,9.4-35c-14.8-20.9-26.3-31.6,30.7-65.7
		C260.8,72.2,260.2,70.9,259.2,71.2z"/>
	<path class="st0" d="M263.4,223c-0.6,0.3-1.2,0.8-1.6,1.2c-0.3,0.3-0.1,0.9,0.3,0.9c17.2,3.2-1.8,36.3,9,40
		c0.7,0.3,1.5,0.3,2.3,0.2c10-1.6-7.3-26.5,9.9-46.2c2.2-2.5,4.7-4.5,7.4-6.3c34-22.1,10.6-53.5-18.3-43.3c-1.4,0.5-2.4,1.2-3.2,1.9
		c-0.5,0.4,0,1.2,0.6,1c1-0.3,2.4-0.6,4.2-1c16.2-3.3,38.7,19.2,0.7,44.9C271.1,218.7,268.1,220.5,263.4,223z"/>
	<path class="st0" d="M264.2,290.9c-0.5,0.1-0.9,0.2-1.4,0.3c-2,0.4-4.1,0.4-6.2,0.1c-7.7-1.3,2-6.3,14.1-12.1
		c2.1-1,4.3-1.9,6.6-2.6c15.6-5.2,21.7-11.2,14.6-15.9c-0.6-0.4-1.3,0.2-1,0.8c1,2.4,0.4,6.4-10.7,9.8c-19.7,6-65,9.5-104.4,8.6
		c-6-0.1-12-1.2-17.7-3.2c-13.4-4.9-23-12.8-20.4-16.8c0.6-1,0.1-2.2-1-2.5c-16.2-4.2-69.7,17.6-29.5,24.1
		c48.6,7.8,93.7,7.6,127.4,3.7c0.9-0.1,1.7-0.1,2.6,0.1c5.4,1.4-4.8,5.9-14.7,9.6c-2.7,1-5.6,1.6-8.5,1.8
		c-29.5,1.5-58.5,0.1-79.5-3.1c-0.9-0.1-1.5,1-0.8,1.7c34.1,32.2-3.4,92.5,23.4,95.2c26.9-1.6-18.8-65.2,7.7-85.2
		c3.9-3,8.9-4.3,13.8-4c51.9,2.6,125.4-3,129-26.3c0-0.2-0.2-0.3-0.3-0.1C305.5,277,297.5,284.6,264.2,290.9z M131.5,275.7
		c-1.3,0.2-2.7,0.1-4-0.2c-5.5-1.1-10.2-2.4-13.7-3.9c-5.6-2.4-2.5-5.4,2.4-7.8c1.8-0.8,3.8-1.1,5.7-0.7
		C131.6,265.2,140.9,274.4,131.5,275.7z"/>
	<path class="st0" d="M158.1,236.6c-36.7,12.7,30.6,36,85.8,13.9c0.8-0.3,0.8-1.5,0-1.9c-5.5-2.3-9.8-4.6-12.1-5.9
		c-1.1-0.6-2.4-0.9-3.7-0.6c-24.1,4.4-35.9,4.8-58.5,2.2c-11.6-1.4-12-4.3-10.6-6.4C159.5,237.2,158.9,236.3,158.1,236.6z"/>
	<path class="st0" d="M241,212.5c-1.2-0.9-2.7-1.3-4.1-1c-32.3,6-51.5,5.8-75.6,3.2c-12.4-1.3-11.5-5.6-9.3-8.5
		c0.5-0.7-0.2-1.7-1-1.3c-41,15.9,31.5,32.7,98.1,14.1c0.7-0.2,0.8-1.2,0.1-1.5C245.5,215.9,242.7,213.8,241,212.5z"/>
</g>
</svg>
