<?xml version="1.0" encoding="utf-8"?>
<!-- Generator: Adobe Illustrator 23.0.6, SVG Export Plug-In . SVG Version: 6.00 Build 0)  -->
<svg version="1.1"
	 id="svg4" xmlns:cc="http://creativecommons.org/ns#" xmlns:dc="http://purl.org/dc/elements/1.1/" xmlns:inkscape="http://www.inkscape.org/namespaces/inkscape" xmlns:rdf="http://www.w3.org/1999/02/22-rdf-syntax-ns#" xmlns:sodipodi="http://sodipodi.sourceforge.net/DTD/sodipodi-0.dtd" xmlns:svg="http://www.w3.org/2000/svg"
	 xmlns="http://www.w3.org/2000/svg" xmlns:xlink="http://www.w3.org/1999/xlink" x="0px" y="0px" viewBox="0 0 400 400"
	 style="enable-background:new 0 0 400 400;" xml:space="preserve">
<path d="M187.5,7.1L77.3,45.9C69.1,48.8,64,56.9,65,65.6L83.7,220c0.7,5.9,4.2,11.1,9.5,14l63.6,35c14.9,8.2,25.4,22.6,28.1,39.4
	c6.5,40.3-21.7,83.9,6.6,86.6c21.1,1.3,1.9-50.4,5.1-84.3c1.1-10.9,7.6-20.6,17.2-25.9h0c29.7-10.8,3.5,45.2,20.7,47.5
	c14.1,0.1,4.1-18.6,6.5-40.4c1.7-15,10.8-28.2,24-35.6l41.9-23.2c5.2-2.9,8.7-8.1,9.4-14L335,64.8c1-8.7-4.1-16.9-12.4-19.7L211.6,7
	C203.8,4.3,195.3,4.3,187.5,7.1z M188.5,59c0.2-4.5,1.3-8.9,3.2-13.1l5.3-11.7c1-2.3,4.2-2.3,5.3,0l5.8,12.4
	c3.7,7.8,6.1,16.2,6.8,24.8c1.6,18.6-4.8,29.7-15.4,16.8C191.5,74.9,188.1,68.2,188.5,59z M144.7,206.6c-5.2,5.4-12.6,8.3-20.1,8.3
	l-0.7,0c-4,0-6.7-4.1-5.1-7.8l14.4-31.9c1.7-3.7,6.4-4.8,9.5-2.2C149.9,179.2,156.2,194.6,144.7,206.6z M240.2,175.4L240.2,175.4
	c-0.8-1.9-2.6-3.1-4.7-3l-36.2,0.2l-36,0.5c-19.2-1.6,4.6-65.7,15.1-97.1c0.5-1.6,2-2.9,3.7-3c9-0.5,9.3,30.1,2.7,50.4l-7.1,16.9
	c-1.5,3.6,1.1,7.5,5,7.5l39.2,0c3,0,5.2-2.9,4.4-5.8c-5.2-18-9.1-45.1,3.4-41.2c3,1,5.4,3.3,6.8,6.1l16.9,36
	C259.5,168.8,246.5,183.7,240.2,175.4z M273.9,215.4c-5.6-0.1-10.6-3.8-12.2-9.2c-4.3-14.1-2.4-36.8,5.1-32.3
	c1.1,0.6,1.8,1.6,2.4,2.7c2.3,4.8,10.6,22.6,15.2,32.4c1.4,3-0.8,6.5-4.2,6.4L273.9,215.4z"/>
</svg>
