<?xml version="1.0" encoding="utf-8"?>
<!-- Generator: Adobe Illustrator 23.0.1, SVG Export Plug-In . SVG Version: 6.00 Build 0)  -->
<svg version="1.1"
	 id="svg4" xmlns:cc="http://creativecommons.org/ns#" xmlns:dc="http://purl.org/dc/elements/1.1/" xmlns:inkscape="http://www.inkscape.org/namespaces/inkscape" xmlns:rdf="http://www.w3.org/1999/02/22-rdf-syntax-ns#" xmlns:sodipodi="http://sodipodi.sourceforge.net/DTD/sodipodi-0.dtd" xmlns:svg="http://www.w3.org/2000/svg"
	 xmlns="http://www.w3.org/2000/svg" xmlns:xlink="http://www.w3.org/1999/xlink" x="0px" y="0px" viewBox="0 0 400 400"
	 style="enable-background:new 0 0 400 400;" xml:space="preserve">
<sodipodi:namedview  bordercolor="#666666" borderopacity="1" fit-margin-bottom="50" fit-margin-left="0" fit-margin-right="0" fit-margin-top="0" gridtolerance="10" guidetolerance="10" id="namedview6" inkscape:current-layer="svg4" inkscape:cx="-30.8561" inkscape:cy="47.578734" inkscape:pageopacity="0" inkscape:pageshadow="2" inkscape:window-height="1017" inkscape:window-maximized="1" inkscape:window-width="1920" inkscape:window-x="1358" inkscape:window-y="-8" inkscape:zoom="3.6875" objecttolerance="10" pagecolor="#ffffff" showgrid="false">
	</sodipodi:namedview>
<path d="M199.6,3.1L62.7,51.3l21.6,179.4l72.2,39.7c14.9,8.2,25.5,22.7,28.2,39.5c6.5,40.5-21.8,84.3,6.7,87
	c21.2,1.3,1.9-50.6,5.1-84.6c1.1-11,7.6-20.7,17.3-26h0c29.8-10.8,3.5,45.4,20.8,47.7c14.2,0.1,4.1-18.7,6.6-40.6
	c1.7-15.1,10.8-28.4,24.1-35.7l50.4-27.9l21.6-179.4L199.6,3.1z M188.4,59.4c0.2-4.5,1.3-9,3.2-13.1l7.1-15.7c0.3-0.7,1.4-0.8,1.7,0
	l7.7,16.3c3.7,7.8,6.1,16.3,6.8,24.9c1.6,18.7-4.8,29.8-15.5,16.9C191.5,75.4,188,68.7,188.4,59.4z M144.4,207.7
	c-5.2,5.4-12.6,8.3-20.2,8.3l-9.3,0l18-39.9c1.7-3.7,6.5-4.9,9.5-2.2C149.7,180.2,156,195.7,144.4,207.7z M240.3,176.4l-1.3-3.1
	l-39.7,0.2l-36.2,0.5c-19.3-1.6,4.6-65.9,15.1-97.6c0.5-1.6,2-2.9,3.7-3c9-0.5,9.3,30.2,2.7,50.6l-10.3,24.5h53.8
	c-5.9-17.2-12.4-51.6,1.6-47.2c3,1,5.5,3.3,6.8,6.2l17,36.1C259.7,169.7,246.7,184.7,240.3,176.4z M274.2,216.6
	c-5.6-0.1-10.6-3.8-12.3-9.2c-4.3-14.2-2.4-37,5.1-32.4c1.1,0.6,1.9,1.6,2.4,2.8l18.4,39.1L274.2,216.6z"/>
</svg>
