<?xml version="1.0" encoding="utf-8"?>
<!-- Generator: Adobe Illustrator 23.0.1, SVG Export Plug-In . SVG Version: 6.00 Build 0)  -->
<svg version="1.1"
	 id="svg8" xmlns:cc="http://creativecommons.org/ns#" xmlns:dc="http://purl.org/dc/elements/1.1/" xmlns:inkscape="http://www.inkscape.org/namespaces/inkscape" xmlns:rdf="http://www.w3.org/1999/02/22-rdf-syntax-ns#" xmlns:sodipodi="http://sodipodi.sourceforge.net/DTD/sodipodi-0.dtd" xmlns:svg="http://www.w3.org/2000/svg"
	 xmlns="http://www.w3.org/2000/svg" xmlns:xlink="http://www.w3.org/1999/xlink" x="0px" y="0px" viewBox="0 0 400 400"
	 style="enable-background:new 0 0 400 400;" xml:space="preserve">
<sodipodi:namedview  bordercolor="#666666" borderopacity="1" fit-margin-bottom="20" fit-margin-left="0" fit-margin-right="0" fit-margin-top="0" gridtolerance="10" guidetolerance="10" id="namedview10" inkscape:current-layer="svg8" inkscape:cx="59.840696" inkscape:cy="19.967505" inkscape:pageopacity="0" inkscape:pageshadow="2" inkscape:window-height="705" inkscape:window-maximized="1" inkscape:window-width="1366" inkscape:window-x="-8" inkscape:window-y="245" inkscape:zoom="5.3514741" objecttolerance="10" pagecolor="#ffffff" showgrid="false">
	</sodipodi:namedview>
<g id="Layer_1">
</g>
<g>
	<path d="M168.9,122.7c-4.2-2.6-6.6-7.5-5.5-12.3c1.8-8.2,9.1-18.3,19.9-22c0.9-0.3,1.8-0.6,2.7-0.6c0.4,0,0.7-0.3,0.7-0.6V69.7
		l0-0.8c0-0.3-0.1-0.5-0.4-0.6c-0.3-0.2-0.4-0.2-0.9-0.4c-2.5-1.2-5.6-2.5-10-3.1c-4.4-0.6-9.4-1.2-15-1.2c-13.1,0-23.1,3.7-30,10.6
		c-6.9,7.5-10,15.6-10,25.6c0,7.5,1.9,14.4,5.6,20c3.7,5.6,10.6,11.9,20.6,17.5l6.9,3.7c6.9,4.4,11.2,8.1,13.7,11.2
		c2.5,3.1,3.7,6.9,3.7,10.6s-1.9,7.5-5,10.6c-3.1,3.1-8.1,5-15,5c-4.4,0-9.4-0.6-14.4-1.9c-4.6-1.7-9.2-3.5-13.3-6.2
		c-0.7-0.4-1.5-0.7-2.3-0.7c-0.4,0-0.6,0.3-0.6,0.6v18.7c0,1.2,0,1.2,0,1.9c0,0.2,0,0.4,0.1,0.7s0.2,0.3,0.5,0.5
		c1.1,0.6,2.1,1.3,3,2.2c20,19.9-4.2,65.3,14.8,66c15.6-0.2-11.8-47.6,13.7-60.6c2-1,4.1-1.7,6.3-2c8.9-1.5,16.2-5.3,22.8-12.4
		c7.5-6.9,11.2-15.6,11.2-26.2c0-6.9-1.9-13.7-5.6-20C183.9,133.6,177.8,128.1,168.9,122.7z M148,109.2c-1.1-0.1-2-0.7-2.8-1.5
		c-0.2-0.2-0.3-0.4-0.5-0.6c-2.5-3.1-3.7-6.2-3.7-10c0-3.1,1.2-6.9,4.4-10c2.5-2.5,6.2-4.2,11.4-4.8c2.3-0.3,4.7,0.8,6,2.8
		C167.7,93.4,156.8,110.3,148,109.2z"/>
	<path d="M331.4,4.8H68.6c-5.5,0-10,4.5-10,10v255.3c0,5.5,4.5,10,10,10h202.9c4.7,0,9.3,1.1,13.3,3.6
		c31.6,19.8-7.6,99.4,15.6,110.4c2.5,1.2,5.5,1.2,8.2,0.6c32-8.1-21.3-98.5,27.3-113.3c3.2-1,5.5-3.9,5.5-7.3V14.8
		C341.4,9.3,336.9,4.8,331.4,4.8z M329.5,258.8c0,5.5-4.5,10-10,10h-239c-5.5,0-10-4.5-10-10V26.7c0-5.5,4.5-10,10-10h239
		c5.5,0,10,4.5,10,10V258.8z"/>
	<path d="M281.6,103.4c-1.4,0-2.9-0.3-4.6-0.8c-6.2-1.9-12.6-3.1-19.1-3.4c-1.3-0.1-2.6-0.1-4-0.1c-15.6,0-26.8,4.4-35,13.7
		c-8.1,9.4-11.9,20.6-11.9,33.7c0,14.4,4.4,25.6,11.9,33.1c2.6,2.6,5.4,4.7,8.5,6.4c1.1,0.6,2.2,1.3,3,2.3
		c6.8,7.8-9.3,13.3-18.6,15.6c-0.3,0.1-0.4,0.3-0.4,0.6v2.2v16.2c0,0.4,0.1,0.8,0.2,1.1c0.3,0.9,0.9,1.6,1.8,2.1
		c2.8,1.5,6.1,2.5,9.9,3c4.4,0.6,8.1,1.2,12.5,1.2c9.4,0,18.1-2.5,26.2-6.2s15-11.9,18.1-24.3c0.6-2.5,0.5-1.6,1.2-5.3
		c0.6-3.7,0.7-11.5,0.7-15.9v-63c0-0.6,0-2.5,0-4.4c0-1.9,0.2-4.2,0.2-6.2V104C282.3,103.4,282.3,103.4,281.6,103.4z M253.4,204.5
		c-3.4,2.4-7.5,4.1-12.4,4.7c-1.2,0.2-2.5-0.1-3.6-0.8c-6-4.2,2.2-12.2,13.3-17c1.1-0.5,2.2-0.8,3.3-1.1c0.2-0.1,0.4-0.1,0.6-0.2
		c1.5-0.5,2.9-1,4.4-1.5c0.6-0.2,1.2,0.3,1.1,0.9C259.4,196.4,257.5,201.6,253.4,204.5z M260.2,169.5c0,0.4-0.2,0.8-0.6,1
		c-1.1,0.5-2.3,1.1-3.6,1.3c-1.5,0.2-3.3,0.3-5.1,0.3c-6.2,0-11.9-1.9-16.2-6.2c-3.6-3.6-5.5-9-6.1-16.5c-0.2-2.9,0.8-5.7,2.7-7.8
		c13.3-14.8,26.2,13.8,28.6,24.9C260.1,167.4,260.2,168.4,260.2,169.5L260.2,169.5z M260.2,127.9c0,1.6-0.3,3.2-0.9,4.6
		c-4.6,10.8-15.4-7.8-12.5-14.6c0.3-0.7,1-1.2,1.8-1.3c2-0.2,3.9-0.1,6.6,0c0.7,0,1.8,0,2.9,0s2.1,0.6,2.1,1.8V127.9z"/>
</g>
</svg>
