<?xml version="1.0" encoding="utf-8"?>
<!-- Generator: Adobe Illustrator 23.0.6, SVG Export Plug-In . SVG Version: 6.00 Build 0)  -->
<svg version="1.1"
	 id="svg8" xmlns:cc="http://creativecommons.org/ns#" xmlns:dc="http://purl.org/dc/elements/1.1/" xmlns:inkscape="http://www.inkscape.org/namespaces/inkscape" xmlns:rdf="http://www.w3.org/1999/02/22-rdf-syntax-ns#" xmlns:sodipodi="http://sodipodi.sourceforge.net/DTD/sodipodi-0.dtd" xmlns:svg="http://www.w3.org/2000/svg"
	 xmlns="http://www.w3.org/2000/svg" xmlns:xlink="http://www.w3.org/1999/xlink" x="0px" y="0px" viewBox="0 0 400 400"
	 style="enable-background:new 0 0 400 400;" xml:space="preserve">
<path d="M169.5,123.4c-4.1-2.5-6.4-7.3-5.4-12c1.7-8,8.8-17.8,19.4-21.4c0.8-0.3,1.7-0.6,2.6-0.5c0.3,0,0.6-0.3,0.6-0.6v-17l0-0.8
	c0-0.3-0.1-0.5-0.4-0.6c-0.3-0.2-0.4-0.2-0.8-0.4c-2.4-1.2-5.5-2.4-9.7-3c-4.2-0.6-9.1-1.2-14.6-1.2c-12.7,0-22.5,3.6-29.1,10.3
	c-6.7,7.3-9.7,15.2-9.7,24.9c0,7.3,1.8,14,5.5,19.4c3.6,5.5,10.3,11.5,20,17l6.7,3.6c6.7,4.2,10.9,7.9,13.4,10.9
	c2.4,3,3.6,6.7,3.6,10.3c0,3.6-1.8,7.3-4.9,10.3c-3,3-7.9,4.9-14.6,4.9c-4.2,0-9.1-0.6-14-1.8c-4.5-1.7-9-3.4-13-6
	c-0.7-0.4-1.4-0.7-2.2-0.7c-0.3,0-0.6,0.3-0.6,0.6v18.2c0,1.2,0,1.2,0,1.8c0,0.2,0,0.4,0.1,0.7c0.2,0.3,0.2,0.3,0.5,0.5
	c1,0.6,2,1.3,2.9,2.2c19.5,19.4-4.1,63.5,14.4,64.2c15.1-0.2-11.5-46.3,13.3-59c1.9-1,4-1.6,6.1-2c8.6-1.4,15.8-5.2,22.2-12.1
	c7.3-6.7,10.9-15.2,10.9-25.5c0-6.7-1.8-13.4-5.5-19.4C184.2,134,178.2,128.7,169.5,123.4z M149.2,110.3c-1-0.1-2-0.7-2.7-1.4
	c-0.2-0.2-0.3-0.4-0.5-0.5c-2.4-3-3.6-6.1-3.6-9.7c0-3,1.2-6.7,4.2-9.7c2.4-2.4,6-4.1,11.1-4.6c2.3-0.3,4.6,0.8,5.8,2.7
	C168.4,94.9,157.8,111.3,149.2,110.3z"/>
<path d="M327.6,8.7H72c-5.4,0-9.7,4.4-9.7,9.7v248.3c0,5.4,4.4,9.7,9.7,9.7h197.3c4.5,0,9.1,1.1,12.9,3.5
	c30.7,19.3-7.4,96.7,15.2,107.4c2.5,1.2,5.3,1.2,8,0.5c31.1-7.9-20.7-95.8,26.6-110.2c3.1-1,5.3-3.8,5.3-7.1V18.5
	C337.3,13.1,333,8.7,327.6,8.7z M325.8,255.8c0,5.4-4.4,9.7-9.7,9.7H83.6c-5.4,0-9.7-4.4-9.7-9.7V30c0-5.4,4.4-9.7,9.7-9.7H316
	c5.4,0,9.7,4.4,9.7,9.7V255.8z"/>
<path d="M279.2,104.6c-1.4,0-2.8-0.3-4.4-0.8c-6.1-1.8-12.3-3-18.6-3.3c-1.3-0.1-2.5-0.1-3.9-0.1c-15.2,0-26.1,4.2-34,13.4
	c-7.9,9.1-11.5,20-11.5,32.8c0,14,4.2,24.9,11.5,32.2c2.5,2.5,5.3,4.5,8.3,6.2c1.1,0.6,2.1,1.3,2.9,2.2c6.6,7.6-9,12.9-18.1,15.1
	c-0.3,0.1-0.4,0.3-0.4,0.6v2.1v15.7c0,0.4,0.1,0.7,0.2,1.1c0.3,0.9,0.9,1.6,1.7,2c2.8,1.4,6,2.4,9.6,2.9c4.2,0.6,7.9,1.2,12.1,1.2
	c9.1,0,17.6-2.4,25.5-6.1c7.9-3.6,14.6-11.5,17.6-23.7c0.6-2.4,0.5-1.6,1.1-5.2c0.6-3.6,0.7-11.2,0.7-15.4v-61.3c0-0.6,0-2.4,0-4.2
	c0-1.8,0.2-4.1,0.2-6.1v-0.6C279.8,104.6,279.8,104.6,279.2,104.6z M251.7,203c-3.3,2.4-7.3,4-12.1,4.6c-1.2,0.2-2.5-0.1-3.5-0.8
	c-5.8-4.1,2.1-11.9,12.9-16.6c1-0.5,2.1-0.8,3.2-1c0.2-0.1,0.4-0.1,0.6-0.2c1.4-0.5,2.8-0.9,4.3-1.4c0.6-0.2,1.1,0.3,1.1,0.9
	C257.6,195.1,255.7,200.1,251.7,203z M258.4,168.9c0,0.4-0.2,0.8-0.6,1c-1.1,0.5-2.3,1-3.5,1.2c-1.5,0.2-3.2,0.3-5,0.3
	c-6.1,0-11.5-1.8-15.8-6.1c-3.5-3.5-5.4-8.8-5.9-16c-0.2-2.8,0.8-5.6,2.6-7.6c12.9-14.4,25.5,13.4,27.9,24.2
	C258.3,166.9,258.4,167.9,258.4,168.9L258.4,168.9z M258.4,128.4c0,1.5-0.3,3.1-0.9,4.5c-4.5,10.5-14.9-7.6-12.2-14.2
	c0.3-0.7,1-1.2,1.8-1.2c1.9-0.2,3.8-0.1,6.4,0c0.7,0,1.8,0,2.8,0c1,0,2,0.5,2,1.7V128.4z"/>
</svg>
