<?xml version="1.0" encoding="utf-8"?>
<!-- Generator: Adobe Illustrator 21.1.0, SVG Export Plug-In . SVG Version: 6.00 Build 0)  -->
<!DOCTYPE svg PUBLIC "-//W3C//DTD SVG 1.1//EN" "http://www.w3.org/Graphics/SVG/1.1/DTD/svg11.dtd">
<svg version="1.1" id="Layer_1" xmlns="http://www.w3.org/2000/svg" xmlns:xlink="http://www.w3.org/1999/xlink" x="0px" y="0px"
	 viewBox="0 0 400 400" enable-background="new 0 0 400 400" xml:space="preserve">
<g>
	<path d="M307.7,151.5c-8.7,0.6-15-6.8-14.7-15.5c0.3-8.1,0.3-16.2,0.2-24.3c0-1.1-0.7-2.7-1.6-3.1c-0.7-0.4-2.4,0.4-3.2,1.1
		c-4.5,4.7-9,9.4-13.2,14.3c-11.8,13.6-23.5,27.3-35.3,40.9c-2.3,2.7-2.7,5.3-0.6,8.1c4.4,6,8.6,12.2,13.3,18
		c7.5,9.3,15.2,18.4,23,27.4c5.6,6.4,12.4,11.9,17.2,18.9c19.5,27.9,38.5,56.2,57.6,84.4c3,4.4,4.2,8.4,1.7,14.1
		c-2.8,6.6-3.2,14.2,0.7,21.2c4.4,7.8,5.3,16.2,2.5,24.9c-3.2,9.9-14.1,15-23.7,10.7c-1.1-0.5-2.5-0.9-3.7-0.7
		c-5.4,1-8.3-2.1-9.6-6.5c-2.6-8.4-4.5-16.8-0.2-25.4c1.3-2.6,1.8-5.8,2.3-8.8c1.5-9.9-3-16.5-12.9-19.7c-0.9-0.3-1.9-1-2.5-1.7
		c-3.5-4.9-6.9-9.9-10.4-14.7c-7.2-9.9-14.1-20-21.8-29.5c-9.4-11.6-19.4-22.7-29.2-34.1c-5.3-6.1-10.6-12.3-16-18.3
		c-7.4-8.3-14.9-16.5-22.4-24.7c-2-2.2-4.1-2.3-6.3-0.6c-6,4.8-11.5,10.1-14.3,17.5c-0.4,1.2-1.4,2.4-2.1,3.3
		c-5.4,7-1.8,14.7-0.7,22.1c0.5,3.3,1.8,6.4,2.5,9.7c1.8,8.2-1.8,15.1-6.5,21.1c-1.5,2-5.4,2.8-8.2,2.9
		c-11.1,0.5-18.2-9.2-14.8-19.6c1.4-4.2,1.9-7.9-1.1-7.9s-11.5,12.5-16.7,19.1c-6,7.6-11.4,15.6-17.1,23.5
		c-6.6,9.1-13.3,18.3-20,27.3c-3.1,4.2-7.2,6.6-12.7,6c-2-0.2-4.1,0.1-6.2,0.3c-5.9,0.3-11.7,0.7-17.6,1.1c-5.3,0.4-8-3.1-10.4-7
		c-2.4-3.8-0.6-7.2,1.4-10.2c13.6-20.2,27.1-40.5,41-60.5c7.3-10.6,14.1-22,23.3-30.7c14.1-13.3,24.2-29.7,37.7-43.4
		c4.1-4.2,6.6-9.2,5.1-15.1c-0.7-2.7-2.6-5.3-4.4-7.6c-10.5-13.2-20-27.5-32.1-39.1C107,103.2,95.5,80.8,79.7,61.6
		c-1.6-1.9-4.6-4.1-5.8-5c-1.1-1-1.9-0.6-1.6,1.2c0.3,1.8,0.5,3.3,0.9,4.8c1.3,4.7,3.7,9.3,3.8,13.9c0.1,3-2.4,7.2-5,9
		c-5.5,3.8-12.6,4.6-18.2,1.4c-3.8-2.1-6.2-7.2-8.5-11.4c-5.3-9.5-0.5-18.1,2.4-27.1c1.9-6,1.4-12.8,1.7-19.2
		c0.1-2.5-0.5-5.1-0.8-7.6c-0.7-6.9,2.4-12.6,9.1-14.3c5-1.3,10.3-1.5,15.5-1.5c4.8,0,9.6,0.8,14.4,1.2c4.3,0.3,7.9,1.9,10.6,5.6
		c10.5,14.4,20.9,28.9,31.9,42.9c9,11.4,18.7,22.1,28.3,32.9c11.7,13.2,23.4,26.4,35.3,39.4c2,2.1,5.2,4.8,7.4,4.9s3.3-0.7,4.3-1.7
		c9.4-9.7,18.9-19.4,27.9-29.5c9.7-10.9,19.1-22.1,28.2-33.5c12.8-16.1,25.1-32.6,37.8-48.7C305,12.3,312.5,7.7,321.7,7
		c7.8-0.6,15.6-0.9,23.4-0.6c7.3,0.3,10.1,6.4,6.3,12.6c-5.9,9.7-11.6,19.4-17.5,29c-7.7,12.4-9.2,26.6-12.1,40.5
		c-1.9,9.3,1.3,17.7,4,26c3.1,9.6,2,22.6,0.5,27.3C324.8,146.4,316.4,150.9,307.7,151.5z"/>
</g>
</svg>
