<?xml version="1.0" encoding="utf-8"?>
<!-- Generator: Adobe Illustrator 21.1.0, SVG Export Plug-In . SVG Version: 6.00 Build 0)  -->
<!DOCTYPE svg PUBLIC "-//W3C//DTD SVG 1.1//EN" "http://www.w3.org/Graphics/SVG/1.1/DTD/svg11.dtd">
<svg version="1.1" id="Layer_1" xmlns="http://www.w3.org/2000/svg" xmlns:xlink="http://www.w3.org/1999/xlink" x="0px" y="0px"
	 viewBox="0 0 400 400" enable-background="new 0 0 400 400" xml:space="preserve">
<g>
	<path d="M297.5,328.1c-0.6,1.7-0.9,2.5-2,4.4c-3.2,5.5-7.4,10.7-9.1,16.7c-2,7-0.4,14.6,3.3,21c2.8,4.7,1.8,9.2,0.4,13.7
		c-0.7,2.4-3.6,5.5-5.3,6.3c-1.7,0.8-4.2,1.4-6.5,1.4s-4-0.5-7.8-2.8c-3.8-2.3-7.3-7.7-8.3-14c-0.3-1.9,0.1-4.2,0.8-6
		c2.7-7.3-1.5-12.9-7.8-15.6c-6.4-2.7-16.8-4.7-23.4-5.1c-6.6-0.4-12.7-0.7-18.1-2.1c-19.6-4.9-38.5-11.6-52.7-27.1
		c-9.7-10.5-14.9-23.2-18.6-36.7c-4.3-15.3-4.5-30.8-4.4-46.5c0-4.1-0.1-4.1-4-3.1c-5.7,1.4-10.6-2.2-11.5-8.7
		c-0.7-5.3,0.3-10.5,2.3-15.4c3.2-7.6,6.8-15.1,9.6-22.8c1.5-4,2.1-8.5,2.2-12.7c0.3-7-0.2-14.1-0.2-21.1c0-2.5-1.1-3.2-3.4-3.2
		c-8.7,0-17.4-0.1-26.1-0.2c-4.8,0-4.8-0.2-4.5-5c0.5-8.4,0.6-16.8,0.9-25.1c0.1-4,0.5-8.1,0.4-12.1c0-3.1,1.4-4.8,4-6
		c4.5-2.1,9.3-3.8,13.3-6.5c20.5-13.8,34.8-32.8,44.3-55.5c3.4-8.2,5.6-16.7,4.4-25.7c-0.4-2.8,0.9-3.9,3.7-3.9
		c16.1,0.1,32.3,0.1,48.4,0c3,0,3.3,1.7,3.3,4c-0.1,13-0.1,26.1-0.1,39.1c-0.1,13.4-0.1,26.7-0.3,40.1c0,2.8,1.6,2.6,3.4,2.6
		c18.6,0,37.3-0.1,55.9-0.1c6.9,0,6.9,0,6.8,6.7c-0.2,14.1-0.4,28.1-0.6,42.2c0,2.5-1,3.9-3.3,5c-6.3,2.9-10.8,7.4-12.1,14.6
		c-0.8,4.4,0.9,8.1,2.4,11.9c0.5,1.3,1.1,2.7,1.7,4c2.1,5,0.1,8.7-3.4,12.1c-3,2.9-6.5,2.8-10.1,1.8c-8.5-2.5-13.5-12.6-8.5-21.2
		c2.1-3.6,2.1-7.4,1.3-11.1c-0.9-4.3-4.8-6.6-8.8-8.2c-4-1.7-14-4-21.7-3.2c-2.7,0.3-3.5,1.1-3.5,3.7c0.1,15.6,0,46.9,0,46.9
		s0.5,38.7,0.5,46.3c0,7.6,0.9,13.4,2.8,19.8c3,10.1,10.1,15.4,20.2,16.9c10.6,1.6,21,0.3,31.1-3.6c2-0.8,3.1,0.2,3.7,2.1
		c3,9.2,5.9,18.5,8.9,27.7c1.5,4.6,4.1,11.9,4.8,13.8S298.1,326.4,297.5,328.1z"/>
</g>
</svg>
