<?xml version="1.0" encoding="utf-8"?>
<!-- Generator: Adobe Illustrator 23.0.6, SVG Export Plug-In . SVG Version: 6.00 Build 0)  -->
<svg version="1.1" id="Layer_1" xmlns="http://www.w3.org/2000/svg" xmlns:xlink="http://www.w3.org/1999/xlink" x="0px" y="0px"
	 viewBox="0 0 400 400" style="enable-background:new 0 0 400 400;" xml:space="preserve">
<g>
	<path d="M278.5,262.1c-0.5,1.3-0.7,2-1.6,3.5c-2.5,4.5-6,8.6-7.3,13.4c-1.6,5.6-0.4,11.7,2.7,16.9c2.2,3.8,1.4,7.4,0.3,11
		c-0.6,2-2.9,4.4-4.3,5.1c-1.4,0.6-3.4,1.1-5.2,1.1s-3.2-0.4-6.3-2.3c-3-1.9-5.9-6.2-6.7-11.2c-0.3-1.5,0.1-3.3,0.6-4.8
		c2.2-5.9-1.2-10.3-6.3-12.5c-5.1-2.2-13.5-3.8-18.8-4.1c-5.3-0.3-10.2-0.6-14.6-1.7c-15.8-4-30.9-9.3-42.4-21.8
		c-7.8-8.4-12-18.7-15-29.5c-3.4-12.3-3.6-24.8-3.5-37.4c0-3.3,0-3.3-3.2-2.5c-4.5,1.2-8.5-1.8-9.2-7c-0.6-4.3,0.2-8.5,1.9-12.4
		c2.6-6.1,5.5-12.1,7.7-18.4c1.2-3.2,1.7-6.8,1.8-10.3c0.2-5.6-0.2-11.3-0.2-17c0-2-0.9-2.6-2.7-2.6c-7,0-14-0.1-21-0.1
		c-3.9,0-3.8-0.2-3.6-4c0.4-6.7,0.5-13.5,0.8-20.2c0.1-3.2,0.4-6.5,0.3-9.7c0-2.5,1.1-3.8,3.2-4.8c3.6-1.7,7.5-3,10.7-5.3
		c16.5-11.1,28-26.4,35.6-44.6c2.7-6.6,4.5-13.4,3.5-20.7c-0.3-2.2,0.7-3.1,3-3.1c13,0,26,0,39,0c2.4,0,2.7,1.4,2.7,3.2
		c-0.1,10.5-0.1,21-0.1,31.5c-0.1,10.7-0.1,21.5-0.2,32.2c0,2.3,1.3,2.1,2.7,2.1c15,0,30,0,45-0.1c5.5,0,5.6,0,5.5,5.4
		c-0.1,11.3-0.4,22.7-0.4,34c0,2-0.8,3.1-2.6,4c-5.1,2.4-8.7,6-9.8,11.8c-0.7,3.6,0.7,6.5,1.9,9.6c0.4,1.1,0.9,2.1,1.4,3.2
		c1.7,4,0.1,7-2.8,9.7c-2.4,2.3-5.2,2.3-8.2,1.4c-6.9-2-10.9-10.1-6.8-17c1.7-2.9,1.7-6,1.1-9c-0.8-3.5-3.9-5.3-7.1-6.6
		s-11.3-3.2-17.5-2.6c-2.2,0.2-2.8,0.9-2.8,3c0.1,12.6,0,37.7,0,37.7s0.4,31.1,0.4,37.2c0,6.1,0.7,10.8,2.3,15.9
		c2.4,8.1,8.2,12.4,16.2,13.6c8.5,1.3,16.9,0.2,25-2.9c1.6-0.6,2.5,0.2,3,1.7c2.4,7.4,4.8,14.9,7.2,22.3c1.2,3.7,3.3,9.6,3.9,11.1
		C278.1,259,278.9,260.8,278.5,262.1z"/>
</g>
</svg>
