<?xml version="1.0" encoding="UTF-8" standalone="no"?>
<svg
   xmlns:dc="http://purl.org/dc/elements/1.1/"
   xmlns:cc="http://creativecommons.org/ns#"
   xmlns:rdf="http://www.w3.org/1999/02/22-rdf-syntax-ns#"
   xmlns:svg="http://www.w3.org/2000/svg"
   xmlns="http://www.w3.org/2000/svg"
   viewBox="0 0 533.33331 533.33331"
   height="533.33331"
   width="533.33331"
   xml:space="preserve"
   id="svg2"
   version="1.1"><metadata
     id="metadata8"><rdf:RDF><cc:Work
         rdf:about=""><dc:format>image/svg+xml</dc:format><dc:type
           rdf:resource="http://purl.org/dc/dcmitype/StillImage" /></cc:Work></rdf:RDF></metadata><defs
     id="defs6"><clipPath
       id="clipPath18"
       clipPathUnits="userSpaceOnUse"><path
         id="path16"
         d="M 0,400 H 400 V 0 H 0 Z" /></clipPath></defs><g
     transform="matrix(1.3333333,0,0,-1.3333333,0,533.33333)"
     id="g10"><g
       id="g12"><g
         clip-path="url(#clipPath18)"
         id="g14"><g
           transform="translate(270.0518,200.583)"
           id="g20"><path
             id="path22"
             style="fill:#000000;fill-opacity:1;fill-rule:nonzero;stroke:none"
             d="m 0,0 c -0.545,-16.451 -1.312,-32.897 -1.647,-49.353 -0.161,-7.917 0.381,-15.853 0.751,-23.775 0.166,-3.577 -1.217,-4.815 -4.837,-4.808 -42.11,0.095 -84.219,0.094 -126.328,0.004 -3.538,-0.007 -4.99,1.062 -4.94,4.714 0.075,5.367 -0.156,10.746 -0.453,16.109 -1.359,24.533 -2.954,49.054 -4.088,73.597 -0.349,7.565 0.542,15.184 0.787,22.782 1.111,34.463 2.217,68.927 3.264,103.393 0.167,5.507 -0.161,14.023 0.879,15.519 1.04,1.495 3.477,0.379 5.157,-0.324 6.267,-2.623 8.276,-6.483 8.849,-14.187 0.383,-5.171 0.55,-10.38 1.322,-15.495 0.631,-4.181 2.921,-7.748 7.529,-8.155 4.701,-0.415 7.243,3 8.654,6.917 1.617,4.486 2.462,11.058 3.362,12.117 0.9,1.059 2.745,0.77 3.647,0.397 3.194,-1.321 5.418,-1.918 7.112,-1.584 2.867,0.564 4.218,3.796 6.186,10.701 2.246,7.881 6.947,11.587 14.98,11.662 20.591,0.193 41.186,0.25 61.776,0.593 3.93,0.065 5.078,-1.242 5.153,-5.032 0.571,-28.938 1.206,-57.876 2.053,-86.807 C -0.508,57.909 0.831,46.856 0.96,35.784 1.1,23.861 0.395,11.927 0,0 m -71.213,-124.041 c -9.12,0.235 -16.192,7.62 -16.112,16.825 0.077,8.936 7.211,16.375 15.479,16.142 11.083,-0.312 17.783,-6.583 17.67,-16.541 -0.105,-9.38 -7.663,-16.667 -17.037,-16.426 M 28.416,92.181 c -1.066,21.256 -3.586,42.459 -6.03,63.619 -2.498,21.632 -14.213,32.376 -36.046,33.465 -8.46,0.422 -16.97,-0.153 -25.456,-0.303 -9.524,-0.168 -19.048,-0.603 -28.568,-0.504 -18.358,0.192 -36.716,1.082 -55.068,0.942 -24.596,-0.186 -35.203,-9.42 -39.881,-33.492 -0.231,-1.189 -0.414,-2.393 -0.523,-3.599 -3.857,-42.597 -9.376,-85.094 -7.52,-128.223 0,-11.572 -0.633,-23.386 0.125,-35.11 1.864,-28.864 4.298,-57.692 6.672,-86.52 0.44,-5.331 1.373,-10.667 2.594,-15.88 3.691,-15.755 12.839,-24.538 28.873,-26.318 9.76,-1.083 19.709,-0.527 29.574,-0.563 22.685,-0.082 45.372,0.046 68.054,-0.255 3.003,-0.04 6.406,-1.496 8.888,-3.306 7.04,-5.135 8.361,-12.281 5.919,-20.397 -1.195,-3.973 -2.542,-7.953 -3.19,-12.03 -1.092,-6.866 2.432,-11.812 9.116,-13.625 12.767,-3.46 25.023,7.068 23.116,20.151 -0.59,4.055 -2.25,7.972 -3.578,11.898 -2.669,7.89 -2.684,15.259 3.39,21.828 7.355,7.955 12.403,17.335 13.357,28.086 3.201,36.05 7.132,72.101 8.383,108.235 1.059,30.577 -0.666,61.297 -2.201,91.901" /></g></g></g></g></svg>