<?xml version="1.0" encoding="UTF-8" standalone="no"?>
<svg
   xmlns:dc="http://purl.org/dc/elements/1.1/"
   xmlns:cc="http://creativecommons.org/ns#"
   xmlns:rdf="http://www.w3.org/1999/02/22-rdf-syntax-ns#"
   xmlns:svg="http://www.w3.org/2000/svg"
   xmlns="http://www.w3.org/2000/svg"
   viewBox="0 0 533.33331 533.33331"
   height="533.33331"
   width="533.33331"
   xml:space="preserve"
   id="svg2"
   version="1.1"><metadata
     id="metadata8"><rdf:RDF><cc:Work
         rdf:about=""><dc:format>image/svg+xml</dc:format><dc:type
           rdf:resource="http://purl.org/dc/dcmitype/StillImage" /></cc:Work></rdf:RDF></metadata><defs
     id="defs6"><clipPath
       id="clipPath18"
       clipPathUnits="userSpaceOnUse"><path
         id="path16"
         d="M 0,400 H 400 V 0 H 0 Z" /></clipPath></defs><g
     transform="matrix(1.3333333,0,0,-1.3333333,0,533.33333)"
     id="g10"><g
       id="g12"><g
         clip-path="url(#clipPath18)"
         id="g14"><g
           transform="translate(200.0576,385.6079)"
           id="g20"><path
             id="path22"
             style="fill:#000000;fill-opacity:1;fill-rule:nonzero;stroke:none"
             d="m 0,0 c 46.513,-0.002 93.026,0 139.539,-0.004 7.429,-0.001 8.116,-0.668 8.116,-8.116 0.003,-86.805 -0.004,-173.609 -0.015,-260.414 0,-1.924 0.346,-4.011 -0.283,-5.723 -0.567,-1.545 -2.028,-3.437 -3.483,-3.869 -8.356,-2.485 -13.436,-7.772 -14.003,-16.62 -0.424,-6.611 0.067,-13.304 0.478,-19.941 0.516,-8.343 0.864,-16.618 -3.097,-24.346 -3.207,-6.255 -7.925,-10.404 -15.419,-9.888 -7.284,0.501 -11.187,5.37 -12.827,11.74 -1.387,5.383 -1.639,11.068 -2.243,16.637 -0.495,4.555 -0.39,9.212 -1.308,13.669 -0.431,2.09 -1.522,5.521 -4.051,5.702 -2.529,0.181 -3.586,-3.373 -4.016,-5.357 -1.031,-4.736 -1.334,-9.645 -1.743,-14.501 -0.792,-9.414 -0.55,-19.02 -2.381,-28.219 -2.823,-14.167 -14.315,-22.587 -27.753,-21.933 -11.548,0.562 -20.527,9.1 -20.032,20.638 0.325,7.567 2.773,15.045 4.31,22.556 1.274,6.222 3.05,12.378 3.812,18.66 1.302,10.745 -1.998,20.253 -9.646,27.97 -1.498,1.511 -3.434,2.803 -6.101,2.817 -2.667,0.015 -61.918,0.244 -92.876,0.033 -7.638,-0.052 -12.94,-5.044 -15.346,-11.674 -2.327,-6.414 -3.361,-13.444 -3.988,-20.293 -0.993,-10.825 -1.658,-21.627 -7.781,-31.093 -4.619,-7.141 -10.779,-12.33 -19.521,-13.263 -11.422,-1.219 -20.617,6.79 -20.609,18.648 0.004,6.559 1.726,13.137 2.879,19.67 1.28,7.257 3.913,14.397 1.875,21.904 -2.318,8.537 -6.722,14.951 -16.328,16.502 -1.45,0.234 -3.707,1.426 -3.707,4.108 0,2.683 -0.166,2.611 -0.166,3.944 -0.002,87.249 -0.002,174.498 0.006,261.747 0,8.047 0.289,8.312 8.168,8.312 C -93.026,0.001 -46.513,0.002 0,0" /></g></g></g></g></svg>