<?xml version="1.0" encoding="utf-8"?>
<!-- Generator: Adobe Illustrator 23.0.6, SVG Export Plug-In . SVG Version: 6.00 Build 0)  -->
<svg version="1.1" id="Layer_1" xmlns="http://www.w3.org/2000/svg" xmlns:xlink="http://www.w3.org/1999/xlink" x="0px" y="0px"
	 viewBox="0 0 400 400" style="enable-background:new 0 0 400 400;" xml:space="preserve">
<path d="M336.7,29.4c-0.4,8.9-0.4,28.3-0.5,41.4c-0.1,25.1,1,50.2,0.8,75.2c-0.3,31.8-2.1,63.7-2.1,95.5c0,17.4-1.8,35.2,6.5,51.8
	c2.9,5.7,2.8,12.2-3,16.6c-4.9,3.8-10.6,4-15.9,0.7c-6.1-3.8-9-9.4-8-16.7c0.3-2.4,1.2-4.8,1.9-7.2c3.8-13-1.7-24.1-13.9-29.6
	c-34-15.3-68.1-30.5-101.8-46.4c-21.4-10.1-42.3-21.4-63.4-32.3c-5.4-2.8-11-4.5-15.6,0.6c-4.4,4.9-6.1,10.7-3.4,17.5
	c4.9,12,3,23.7-4.1,29.2c-7.8,6-15.1,4.2-19.2-5c-5.1-11.5-2.4-22.2,4.5-32c4.2-6,4.1-9.7,2-14.8c-2.2-5.1-3.9-5.4-5.4-4.8
	s-2,1.9-2.4,4.4c-0.3,2.5-2.7,10.3-5.8,12.8c-3.1,2.4-9.3,3.4-11.5,1.6c-3.3-2.8-5.9-9.3-5.1-13.5c2-9.8,3.1-18.8-3-26.2
	c-1.2-1.5-1.7-2.2-4.7-4.4c-3-2.1-0.2-3.4,1.6-4.3c1.8-0.9,82.6-38.7,124.2-57.5c38.5-17.4,77.2-34.1,116-50.9
	c7.2-3.1,12.7-6.3,20.1-9C335.9,18.6,337.1,20.4,336.7,29.4z"/>
</svg>
