<?xml version="1.0" encoding="utf-8"?>
<!-- Generator: Adobe Illustrator 23.0.6, SVG Export Plug-In . SVG Version: 6.00 Build 0)  -->
<svg version="1.1" id="Layer_1" xmlns="http://www.w3.org/2000/svg" xmlns:xlink="http://www.w3.org/1999/xlink" x="0px" y="0px"
	 viewBox="0 0 400 400" style="enable-background:new 0 0 400 400;" xml:space="preserve">
<path d="M88.1,133.3c0,3.1,0.3,6.3-0.1,9.4c-0.5,4.5-2.6,8.8-7.2,9.1c-3.7,0.2-9.1-1-11-3.6c-2.7-3.6-4.8-9.5-3.8-13.7
	c2.9-12.7,3.2-24.7-2.6-36.7c-2.1-4.4,0.1-7.3,5.2-7.4c5-0.1,10,0.3,15,0.7c27.9,2.1,55.9,4.1,83.8,6.3c4.2,0.3,4.9-2.2,5.7-5
	c6.3-21.9,12.6-43.8,19-65.7c1.8-6,3.8-11.9,6-17.8c0.5-1.5,1.2-3.9,3.2-3.9c2,0,2.5,2.5,3,4c4,12.3,7.9,24.7,11.6,37.1
	c4.1,13.6,7.9,27.3,11.9,41c2.9,9.8,2.9,10.1,13.3,9.5c14.2-0.8,28.4-2,42.6-3c15.4-1.1,30.9-2.3,46.3-3.2c2.5-0.1,7-0.4,7.6,2
	c0.6,2.4-1.2,5.4-2.7,7.4c-7.7,10.2-9.5,20.9-4.3,32.9c1.8,4.1,2.6,8.9,2.7,13.4c0.2,6.2-4,10.6-9.5,11.5c-6.2,1-11.9-2.2-13.5-8.5
	c-1-4.1-0.5-8.6-0.8-12.9c-0.3-4.3-0.5-8.6-1.1-12.9c-0.5-2.9-2.2-2.9-4.4-1.2c-14.6,11.2-29.2,22.5-43.9,33.4
	c-3.8,2.9-1.8,5.4-0.5,8.1c10.3,21,20.6,42,30.9,63.1c7.6,15.6,15.3,31.1,22.8,46.8c1.2,2.6,4.1,5.6,0.5,8.4c-3.3,2.5-6.2,0.6-9-1.6
	c-26.9-20.6-53.9-41-80.8-61.6c-3.5-2.6-6.9-5.4-11.2-2.3c-4.1,3-2.4,7.2-1.3,11c2.4,8.7,5.3,17.2,2.4,26.4
	c-2.1,6.6-6.1,11.4-13,13.2c-8.9,2.4-16.5-3.1-16.1-12.2c0.3-6.2,2.2-12.3,3.1-18.5c1-7.3-2.5-13.5-8-13.3
	c-4.2,0.2-9.1,1.1-12.4,3.5c-13.9,10-28.1,19.8-40.8,31.3c-6.5,5.9-11.1,14.7-14.4,23.1c-1.8,4.5,0.6,10.8,1.7,16.2
	c1.2,5.7,4,11.1,4.4,16.8c0.7,10.8-7.1,17.9-17.6,17.2c-9.8-0.7-16.6-8.9-15.3-19.1c0.5-3.9,2.1-7.6,2.9-11.5
	c1.5-6.6,4.2-13.2-1.7-19.5c-1.1-1.2,0-5.2,1.1-7.4c12.6-26.2,25.5-52.2,38.3-78.3c5.4-11.1,10.7-22.2,16.3-33.2
	c1.6-3.1,1-4.7-1.6-6.7c-15.4-11.6-30.6-23.3-46-34.9c-3.9-2.9-5.8-2.1-6.5,2.8C87.8,126.5,88.2,129.9,88.1,133.3
	C88.1,133.3,88.1,133.3,88.1,133.3z"/>
</svg>
