<?xml version="1.0" encoding="utf-8"?>
<!-- Generator: Adobe Illustrator 23.0.6, SVG Export Plug-In . SVG Version: 6.00 Build 0)  -->
<svg version="1.1" id="Layer_1" xmlns="http://www.w3.org/2000/svg" xmlns:xlink="http://www.w3.org/1999/xlink" x="0px" y="0px"
	 viewBox="0 0 400 400" enable-background="new 0 0 400 400" xml:space="preserve">
<path d="M308.6,142.3c0,43,0,86.1,0,129.1c0,1.4,0,2.7-0.1,4.1c-0.1,2.5-1.4,3.9-4,3.9c-0.6,0-1.3,0-1.9,0c-23.3,0-46.7,0-70,0
	c-5.1,0-6-0.9-6-6.1c0-45.7,0-91.3,0-137c0-4.2-1.2-4.8-4.9-2.7c-3.9,2.2-7.3,4.6-10.6,7.7c-14.5,13-26.4,28.2-34.7,45.9
	c-2.4,5.1-3.5,10.4-3.5,16.1c0.1,23.3,0,46.7,0,70c0,5.4-0.7,6.1-6.2,6.1c-3.6,0-7.3-0.3-10.9,0.1c-2,0.2-4.3,1-5.8,2.3
	c-6.5,5.9-8.6,13.6-6.9,21.9c1.4,7.1,3.9,14,5.9,21c2.2,7.7,3.6,15.4,0.4,23.3c-5.8,14.2-24.5,17.8-33.8,6.5
	c-3.4-4.2-5-9.2-4.9-14.5c0.1-6.3,0.5-12.6,1.4-18.8c2.3-15.3-0.7-28.3-11-39.9c-1.5-1.5-2.6-1.9-3.7-1.9c-5.8-0.3-6.1-0.6-6.1-6.4
	c0-73,0-146,0-219.1c0-14.6,0-29.2,0-43.8c0-4.5,0.7-5.2,5.3-5.2c23.4,0,46.9,0,70.3,0c5.4,0,6.1,0.7,6.1,6.2c0,26.9,0,53.8,0,80.7
	c0,4.7,0.1,10.7,0.4,13.1c0.3,2.4,1,5.2,2,6.7c0.9,1.6,2.3,3.2,3.4,4.5c5.7,6.4,12.1,7.2,19.5,2.9c6.9-4.1,11.4-10.4,15.1-17.3
	c7.9-14.6,11.9-30.4,12.5-46.9c0.5-14.4,0.5-28.8,0.7-43.2c0.1-6.2,0.7-6.8,7-6.8c22.9,0,45.8,0,68.6,0c5.6,0,6.4,0.7,6.4,6.2
	C308.6,54.9,308.6,98.6,308.6,142.3z"/>
</svg>
