<?xml version="1.0" encoding="utf-8"?>
<!-- Generator: Adobe Illustrator 22.0.0, SVG Export Plug-In . SVG Version: 6.00 Build 0)  -->
<!DOCTYPE svg PUBLIC "-//W3C//DTD SVG 1.1//EN" "http://www.w3.org/Graphics/SVG/1.1/DTD/svg11.dtd">
<svg version="1.1" id="Layer_1" xmlns="http://www.w3.org/2000/svg" xmlns:xlink="http://www.w3.org/1999/xlink" x="0px" y="0px"
	 viewBox="0 0 400 400" enable-background="new 0 0 400 400" xml:space="preserve">
<path d="M301.6,294.5c0.1,4.1-3.2,7.4-7.3,7.4c-2.1,0-4.2,0-6.2,0c-32.2,0-64.4,0-96.6,0c-19,0-32.3,6.1-36.2,15.7
	c-3,7.2-0.2,21,1,25.2c1.4,4.7,4.3,9,6,13.6c4.9,14-1,26-15.2,29.2c-11.4,2.5-23,2.5-32.2-6.7c-8.5-8.4-7.5-18.5-4.5-28.9
	c4.9-16.7,2.5-31.4-7.9-46.5c-4.1-5.9-3.6-15-3.9-24.3c-0.1-4.2,3.3-7.7,7.5-7.7c13.5,0,25.6,0,37.7,0c21.5,0,42.9,0.2,64.4-0.2
	c4.3-0.1,12.1-0.4,16.5-4.5c4.6-4.3,5.2-9.1,4.8-14.6c-0.7-8.1-9.6-8.7-16.1-8.3c-26.5,1.6-52.2-0.6-75.8-14.5
	c-24.5-14.4-36.9-37.1-37.8-64.1c-1.6-49.4-0.5-98.9-0.4-148.3v0c0-2.3,1.9-4.1,4.2-4.1l35.5,0c2.5,0,4.4,2,4.4,4.5
	c0,3.4,0,6.4,0,9.3c0,41-0.4,82,0.2,123c0.2,18,2,36.3,18.8,47.7c6.4,4.4,12.9,6.5,25.5,8.7c13.3,2.3,23.6,0.8,36.9-1.6
	c17.4-3.1,29.2-17.2,31.1-34.8c1.3-12.9,1.9-25.9,2-38.9C258.1,93.6,258,56.5,258,18c0-2.6,2.1-4.7,4.7-4.7l34,0c2.7,0,5,2.2,5,5
	c0,2.7,0,5.3,0,7.8c0,45.2-0.2,90.4,0.1,135.7c0.1,19.5-6,36.5-17.9,51.7c-15.3,19.5-13.3,40.2,7.5,52.8
	c9.4,5.7,11.2,11.8,10.3,21.1C301.5,289.6,301.5,291.9,301.6,294.5z"/>
</svg>
