<?xml version="1.0" encoding="utf-8"?>
<!-- Generator: Adobe Illustrator 23.0.6, SVG Export Plug-In . SVG Version: 6.00 Build 0)  -->
<svg version="1.1" id="Layer_1" xmlns="http://www.w3.org/2000/svg" xmlns:xlink="http://www.w3.org/1999/xlink" x="0px" y="0px"
	 viewBox="0 0 400 400" style="enable-background:new 0 0 400 400;" xml:space="preserve">
<path d="M296.2,271.7c0.1,3.8-3,7-6.9,7c-2,0-3.9,0-5.8,0c-30.5,0-61,0-91.5,0c-18,0-30.6,5.8-34.3,14.9c-2.8,6.8-0.2,19.9,1,23.9
	c1.3,4.5,4.1,8.5,5.7,12.9c4.7,13.3-0.9,24.6-14.4,27.6c-10.8,2.4-21.8,2.3-30.5-6.3c-8.1-8-7.1-17.5-4.3-27.4
	c4.6-15.9,2.4-29.7-7.5-44.1c-3.9-5.6-3.4-14.2-3.7-23c-0.1-4,3.1-7.3,7.1-7.3c12.8,0,24.2,0,35.7,0c20.3,0,40.7,0.2,61-0.2
	c4.1-0.1,11.5-0.4,15.7-4.3c4.4-4.1,5-8.6,4.5-13.8c-0.7-7.7-9.1-8.2-15.2-7.9c-25.1,1.5-49.5-0.6-71.8-13.7
	c-23.2-13.6-35-35.1-35.8-60.7c-1.5-46.8-0.4-93.7-0.4-140.5v0c0-2.2,1.8-3.9,3.9-3.9l33.7,0c2.3,0,4.2,1.9,4.2,4.2c0,3.2,0,6,0,8.8
	c0,38.8-0.3,77.7,0.2,116.5c0.2,17,1.9,34.4,17.8,45.2c6.1,4.1,12.2,6.1,24.2,8.2c12.6,2.2,22.3,0.7,35-1.5
	c16.5-2.9,27.7-16.3,29.4-33c1.3-12.2,1.8-24.6,1.9-36.8c0.2-35.2,0.1-70.4,0.1-106.9c0-2.5,2-4.4,4.4-4.4l32.3,0
	c2.6,0,4.7,2.1,4.7,4.7c0,2.5,0,5,0,7.4c0,42.8-0.2,85.7,0.1,128.5c0.1,18.5-5.7,34.6-17,48.9c-14.5,18.5-12.6,38.1,7.1,50
	c8.9,5.4,10.6,11.2,9.8,19.9C296.2,267,296.2,269.3,296.2,271.7z"/>
</svg>
