<?xml version="1.0" encoding="utf-8"?>
<!-- Generator: Adobe Illustrator 22.1.0, SVG Export Plug-In . SVG Version: 6.00 Build 0)  -->
<!DOCTYPE svg PUBLIC "-//W3C//DTD SVG 1.1//EN" "http://www.w3.org/Graphics/SVG/1.1/DTD/svg11.dtd">
<svg version="1.1"
	 id="Layer_1" inkscape:version="0.92.2 (5c3e80d, 2017-08-06)" sodipodi:docname="anghami.svg.2018_09_13_17_31_29.0.svg" xmlns:cc="http://creativecommons.org/ns#" xmlns:dc="http://purl.org/dc/elements/1.1/" xmlns:inkscape="http://www.inkscape.org/namespaces/inkscape" xmlns:rdf="http://www.w3.org/1999/02/22-rdf-syntax-ns#" xmlns:sodipodi="http://sodipodi.sourceforge.net/DTD/sodipodi-0.dtd" xmlns:svg="http://www.w3.org/2000/svg"
	 xmlns="http://www.w3.org/2000/svg" xmlns:xlink="http://www.w3.org/1999/xlink" x="0px" y="0px" viewBox="0 0 400 400"
	 style="enable-background:new 0 0 400 400;" xml:space="preserve">
<sodipodi:namedview  bordercolor="#666666" borderopacity="1" gridtolerance="10" guidetolerance="10" id="namedview9" inkscape:current-layer="Layer_1" inkscape:cx="424.76932" inkscape:cy="138.5127" inkscape:pageopacity="0" inkscape:pageshadow="2" inkscape:window-height="1017" inkscape:window-maximized="1" inkscape:window-width="1920" inkscape:window-x="1358" inkscape:window-y="-8" inkscape:zoom="0.71717172" objecttolerance="10" pagecolor="#ffffff" showgrid="false">
	</sodipodi:namedview>
<g>
	<path d="M353.8,201.3C353.8,201.4,353.8,201.3,353.8,201.3L353.8,201.3z"/>
	<path d="M354.4,221.4c0-4,0-6.8-0.1-9.6c-0.3-9.8-1.6-19.6-4.5-29c-5.5-17.7-15.4-33.2-29.4-46.5c-0.3-0.3-0.7-0.6-1.2-0.9
		c-2.1-1.2-3.8-3-4.5-5.2c-2.3-7.1,3.1-17.8,17.3-25.6c0.8-0.4,1.6-0.7,2.4-1c0.3-0.1,0.5-0.3,0.4-0.6c0-0.5-1.1-0.9-2.2-1.3
		C314,95.6,299.5,84.5,290.2,67c-7.9-14.9-11.1-30.9-10.2-47.6c0-0.7,0-1.3,0-2c-0.2-10.9-14.3-15.6-20.5-6.7
		c-0.2,0.2-0.3,0.5-0.4,0.7c-26.3,45.3-52.4,90.7-78.7,136.1c-3.8,6.6-7.6,13.1-11.6,19.9c-0.6,1.1-2.2,1-2.8-0.1l0,0
		c-15.4-29.1-50.6-46-82.7-39.3c-17.3,3.6-30,13.2-36,30.6l0,0c-1.2,3.6-1.8,7.4-1.8,11.2c0,1.1,0,2.2,0,3.2
		c0,5.6,0.9,11.2,2.9,16.4c1.9,5.1,4.5,9.9,7.4,14.1c2.4,3.5,4.4,7.3,6.1,11.2c26.5,63.2-14.9,104.2,5.5,117.1
		c3.7,2.4,8.3,2.8,12.6,1.8c37.2-8.9-13.1-88.9,13.5-98.2c2.5-0.9,5.3-0.9,7.9-0.2c10.2,2.7,21.1,3.2,32.5,1.1
		c12.3-2.3,21.7-8.2,29.1-17.2c1.7-2,4.5-2.6,6.7-1.3c16,9.5-14.8,34.7-25.8,45.8c-0.9,0.9-1,2.2-0.4,3.3l0,0
		c2.1,3.7,4.3,7.1,6.7,10.4c2.4,3.4,4.5,6.9,6,10.8c23,57.3-16.3,101.4,17.2,106.4c1.6,0.2,3.2,0.2,4.8-0.1
		c25.3-5.9-15.6-77,8.2-81.7c2.5-0.5,5,0,7.3,1c7.5,3.5,15.5,6.2,24,8.1c3,0.7,6,1.2,9,1.7c4.4,0.8,8.8,1.1,13.3,1.1
		c7.9,0,15.7-0.7,23.4-2.2c1-0.2,2-0.4,3.1-0.6c14.7-3.1,28.4-9,40.4-17.3c2.9-2,6.4-3.1,9.9-2.9c21.2,1.2-11.6,46.8,4.3,61.8
		c3.8,3.5,9.3,4.2,14.1,2.3c18.2-7.3-6.9-37.2,5.9-97.2c0.4-1.7,1-3.4,1.8-4.9c4.6-8.9,7.9-18.6,9.9-28.7c0.2-1.2,0.6-3.1,0.9-5.3
		c0-0.1,0.1-0.2,0.1-0.3l-0.1,0.2C354.1,227.1,354.4,224.1,354.4,221.4z M242.4,248.2c-18.6-0.1-33.7-15-33.6-33.1
		c0.1-18.2,15.2-32.8,33.8-32.8c18.4,0.1,33.5,14.8,33.6,32.8C276.3,233.1,260.7,248.3,242.4,248.2z M302.1,268.1
		c-1.3,0.6-2.9,0.2-4-0.8c-6.8-6.5-13.5-12.9-20.2-19.2c-1.3-1.2-1.5-3.2-0.4-4.7c1.6-2.2,3-4.3,4.5-6.4c0.8-1.1,2.4-1.3,3.4-0.3
		C299.7,250,307.9,265.5,302.1,268.1z M256,120.5c-1.5-0.5-3.2,0.1-4,1.4c0,0,0,0,0,0c-20.6,35.7-41.3,71.5-61.9,107.3
		c-0.9,1.6-3.2,1.8-4.3,0.4c-9.7-11.8,24-71.7,46.8-127.4c1.6-3.9,3.4-7.6,5.5-11.2c1.9-3.3,3.8-6.6,5.7-9.9c1.1-2,3.9-2.4,5.5-0.7
		c14.7,15.3,31.6,22.8,50,24.9c3.7,0.4,7,2.9,7.9,6.5C310.4,123.4,287.8,132.2,256,120.5z M328.5,262.9c-1.9,4-4.9,8.5-7.9,12.3
		c-1.1,1.4-3.1,1.7-4.6,0.7c-6.4-4.4-14.5-22.2-8.2-25.7c1.3-0.7,2.8-0.6,4.1,0.1c5.1,2.8,10.1,5.5,15.2,8.3
		C328.6,259.5,329.3,261.3,328.5,262.9z"/>
</g>
</svg>
