<?xml version="1.0" encoding="utf-8"?>
<!-- Generator: Adobe Illustrator 23.0.6, SVG Export Plug-In . SVG Version: 6.00 Build 0)  -->
<svg version="1.1"
	 id="Layer_1" inkscape:version="0.92.2 (5c3e80d, 2017-08-06)" sodipodi:docname="anghami.svg.2018_09_13_17_31_29.0.svg" xmlns:cc="http://creativecommons.org/ns#" xmlns:dc="http://purl.org/dc/elements/1.1/" xmlns:inkscape="http://www.inkscape.org/namespaces/inkscape" xmlns:rdf="http://www.w3.org/1999/02/22-rdf-syntax-ns#" xmlns:sodipodi="http://sodipodi.sourceforge.net/DTD/sodipodi-0.dtd" xmlns:svg="http://www.w3.org/2000/svg"
	 xmlns="http://www.w3.org/2000/svg" xmlns:xlink="http://www.w3.org/1999/xlink" x="0px" y="0px" viewBox="0 0 400 400"
	 style="enable-background:new 0 0 400 400;" xml:space="preserve">
<path d="M332.4,173C332.4,173.1,332.4,173,332.4,173L332.4,173z"/>
<path d="M332.9,190.3c0-3.5,0-5.8-0.1-8.3c-0.2-8.5-1.4-16.9-3.9-25c-4.7-15.3-13.2-28.6-25.3-40.1c-0.3-0.3-0.6-0.5-1-0.8
	c-1.8-1-3.3-2.6-3.9-4.5c-1.9-6.1,2.7-15.3,14.9-22c0.7-0.4,1.4-0.6,2.1-0.9c0.3-0.1,0.4-0.2,0.4-0.5c0-0.4-0.9-0.8-1.9-1.1
	c-16-5.2-28.5-14.8-36.5-29.8c-6.8-12.8-9.5-26.6-8.8-41c0-0.6,0-1.1,0-1.7c-0.2-9.4-12.3-13.5-17.7-5.7c-0.1,0.2-0.3,0.4-0.4,0.6
	c-22.6,39-45.1,78.1-67.7,117.2c-3.3,5.7-6.5,11.3-9.9,17.1c-0.5,0.9-1.9,0.9-2.4-0.1l0,0c-13.3-25-43.6-39.6-71.2-33.8
	c-14.9,3.1-25.9,11.4-31,26.3v0c-1,3.1-1.6,6.3-1.6,9.6c0,0.9,0,1.9,0,2.8c0,4.8,0.8,9.6,2.5,14.1c1.7,4.4,3.9,8.6,6.3,12.2
	c2.1,3,3.8,6.3,5.2,9.7c22.8,54.4-12.8,89.7,4.7,100.8c3.2,2,7.2,2.4,10.9,1.6c32-7.7-11.3-76.5,11.6-84.6c2.2-0.8,4.6-0.8,6.8-0.2
	c8.8,2.3,18.2,2.7,28,0.9c10.6-2,18.7-7.1,25.1-14.8c1.4-1.7,3.9-2.2,5.8-1.1c13.8,8.2-12.7,29.9-22.2,39.4
	c-0.8,0.8-0.9,1.9-0.4,2.9l0,0c1.8,3.1,3.7,6.1,5.8,9c2.1,2.9,3.8,6,5.2,9.3c19.8,49.3-14,87.3,14.8,91.6c1.4,0.2,2.8,0.2,4.1-0.1
	c21.8-5.1-13.4-66.3,7-70.3c2.1-0.4,4.3,0,6.3,0.9c6.4,3,13.3,5.3,20.7,7c2.6,0.6,5.1,1.1,7.7,1.5c3.8,0.6,7.6,1,11.4,1
	c6.8,0,13.5-0.6,20.2-1.9c0.9-0.2,1.8-0.3,2.6-0.5c12.7-2.6,24.4-7.8,34.7-14.9c2.5-1.7,5.5-2.7,8.5-2.5c18.3,1-10,40.3,3.7,53.2
	c3.2,3,8,3.6,12.1,2c15.7-6.3-5.9-32,5.1-83.6c0.3-1.5,0.9-2.9,1.5-4.2c3.9-7.7,6.8-16,8.5-24.7c0.2-1,0.5-2.7,0.7-4.6
	c0-0.1,0.1-0.2,0.1-0.2l-0.1,0.1C332.7,195.2,332.9,192.6,332.9,190.3z M236.5,213.4c-16-0.1-29-12.9-28.9-28.5
	c0.1-15.7,13.1-28.3,29.1-28.2c15.8,0.1,28.8,12.8,28.9,28.3C265.7,200.3,252.3,213.5,236.5,213.4z M287.9,230.5
	c-1.1,0.5-2.5,0.2-3.4-0.7c-5.8-5.6-11.6-11.1-17.3-16.6c-1.1-1.1-1.3-2.8-0.4-4c1.3-1.9,2.6-3.7,3.9-5.5c0.7-1,2-1.1,2.9-0.3
	C285.9,214.9,292.9,228.3,287.9,230.5z M248.2,103.4c-1.3-0.5-2.7,0-3.4,1.2c0,0,0,0,0,0c-17.8,30.8-35.6,61.5-53.3,92.3
	c-0.8,1.4-2.7,1.5-3.7,0.3c-8.3-10.2,20.6-61.7,40.3-109.6c1.4-3.3,2.9-6.5,4.7-9.6c1.6-2.8,3.2-5.6,4.9-8.5c1-1.7,3.4-2,4.7-0.6
	c12.6,13.2,27.2,19.6,43,21.4c3.2,0.4,6,2.5,6.8,5.6C295,105.9,275.6,113.5,248.2,103.4z M310.6,226c-1.7,3.5-4.2,7.3-6.8,10.6
	c-1,1.2-2.7,1.5-4,0.6c-5.5-3.8-12.5-19.1-7.1-22.1c1.1-0.6,2.4-0.5,3.5,0.1c4.4,2.4,8.7,4.8,13.1,7.2
	C310.7,223.1,311.3,224.7,310.6,226z"/>
</svg>
