<?xml version="1.0" encoding="utf-8"?>
<!-- Generator: Adobe Illustrator 21.1.0, SVG Export Plug-In . SVG Version: 6.00 Build 0)  -->
<!DOCTYPE svg PUBLIC "-//W3C//DTD SVG 1.1//EN" "http://www.w3.org/Graphics/SVG/1.1/DTD/svg11.dtd">
<svg version="1.1" id="Layer_1" xmlns="http://www.w3.org/2000/svg" xmlns:xlink="http://www.w3.org/1999/xlink" x="0px" y="0px"
	 viewBox="0 0 400 400" enable-background="new 0 0 400 400" xml:space="preserve">
<g>
	<path d="M187.4,191c0.3-6.1-4.3-8-8.3-8.1c-16.8-0.3-33.6-0.6-50.4-0.8c-7.2-0.1-8.2-1.4-5.2-8.1c9.3-21,18.2-42.2,28-62.9
		c10.7-22.4,22.2-44.5,33.4-66.7c5.1-10.2,10.2-20.4,15.4-30.6c0.5-1,1-2.7,2.3-2.7c1.3,0,1.8,1.7,2.3,2.7
		c11.5,24.4,23.1,48.8,34.2,73.4c9.7,21.5,18.9,43.2,28.1,64.9c4.1,9.7,10.9,28.2,11.3,29.4c0.5,1.2,0,2.8-2.6,2.7
		c-2.7-0.1-12-0.9-18-0.9c-10.4-0.1-20.8,0-31.2,0.3c-4.4,0.1-6.9,3.8-6.8,8.8c0.1,4.5,2.9,5.6,6.7,5.7c4.4,0.2,8.7,0.8,13.1,1
		c4.4,0.2,6.9,0.2,13.2,0c6.3-0.2,14.1-0.4,19.6-0.6s6.7,1.5,5,6.8c-1.7,5.1-3.5,10.2-5.7,15.1c-8.4,18.8-16.6,37.7-25.7,56.2
		c-9.8,20.1-20.8,39.6-30.7,59.6c-4.1,8.3-7.3,17.1-10,25.9c-0.9,3,0.4,6.9,1.3,10.1c1.1,4,2.1,8.3,0.4,11.7s-8.5,5.6-14.2,4
		s-10.1-7.5-6.7-15.3c2.4-5.4,3.6-11.1,1.7-16.9c-2.7-7.9-5.3-15.9-8.7-23.6c-5.8-13.2-12.3-26.1-18.1-39.4
		c-9.5-21.7-18.8-43.5-28-65.4c-4-9.6-10.5-27-11.3-29s0.6-2.4,3.2-2.3s12,0.9,18,1c13.9,0.2,38,0.1,39.4,0
		C183.7,197.2,187.1,197.1,187.4,191z"/>
</g>
</svg>
