<?xml version="1.0" encoding="UTF-8" standalone="no"?>
<svg
   xmlns:dc="http://purl.org/dc/elements/1.1/"
   xmlns:cc="http://creativecommons.org/ns#"
   xmlns:rdf="http://www.w3.org/1999/02/22-rdf-syntax-ns#"
   xmlns:svg="http://www.w3.org/2000/svg"
   xmlns="http://www.w3.org/2000/svg"
   viewBox="0 0 533.33331 533.33331"
   height="533.33331"
   width="533.33331"
   xml:space="preserve"
   id="svg2"
   version="1.1"><metadata
     id="metadata8"><rdf:RDF><cc:Work
         rdf:about=""><dc:format>image/svg+xml</dc:format><dc:type
           rdf:resource="http://purl.org/dc/dcmitype/StillImage" /></cc:Work></rdf:RDF></metadata><defs
     id="defs6"><clipPath
       id="clipPath18"
       clipPathUnits="userSpaceOnUse"><path
         id="path16"
         d="M 0,400 H 400 V 0 H 0 Z" /></clipPath></defs><g
     transform="matrix(1.3333333,0,0,-1.3333333,0,533.33333)"
     id="g10"><g
       id="g12"><g
         clip-path="url(#clipPath18)"
         id="g14"><g
           transform="translate(79.165,204.019)"
           id="g20"><path
             id="path22"
             style="fill:#000000;fill-opacity:1;fill-rule:nonzero;stroke:none"
             d="m 0,0 c -8.636,0.008 -20.827,-12.551 -20.921,-23.634 -0.081,-9.671 2.069,-19.356 3.142,-29.044 1.046,-9.454 2.985,-18.957 2.649,-28.37 -0.29,-8.105 -5.219,-14.747 -13.872,-16.514 -8.559,-1.747 -15.894,2.077 -19.416,9.44 -3.588,7.502 -6.078,16.028 -6.763,24.294 -0.906,10.938 -1.599,21.933 -2.711,32.825 -1.099,10.766 -2.939,21.198 -5.006,31.913 -2.041,10.575 -3.44,21.547 -3.571,32.24 -0.231,18.896 0.943,37.817 1.83,56.713 0.231,4.922 -0.057,11.871 2.836,14.144 3.394,2.666 9.749,2.601 14.966,2.863 40.395,2.032 81.05,4.631 121.431,4.351 70.587,-0.491 141.204,-2.572 211.782,-4.507 4.33,-0.119 8.785,-0.032 12.906,-0.919 2.848,-0.614 7.097,-3.391 7.396,-5.644 1.215,-9.146 1.639,-18.473 1.445,-27.713 -0.391,-18.502 -0.87,-37.031 -2.336,-55.467 -0.731,-9.2 -1.79,-18.653 -2.412,-27.846 -1.297,-19.186 -3.934,-37.976 -5.02,-57.183 -0.671,-11.892 -1.447,-24.083 -4.661,-35.438 -3.07,-10.847 -13.771,-16.446 -23.78,-15.721 -9.829,0.711 -19.935,8.089 -20.939,19.3 -1.224,13.663 1.009,27.615 1.456,41.452 0.318,9.873 0.631,19.798 -0.115,29.62 -0.195,2.57 -1.956,7.249 -6.674,7.249 -4.719,0 -5.531,-4.726 -6.267,-7.608 -2.054,-8.044 -2.698,-16.437 -4.517,-24.555 -1.444,-6.449 -3.076,-13.041 -5.918,-18.949 -4.406,-9.158 -12.158,-14.518 -22.661,-13.528 -11.028,1.04 -18.292,7.999 -20.323,18.418 -1.683,8.631 -0.933,17.761 -1.005,26.671 -0.046,5.616 0.797,11.258 0.502,16.85 -0.546,10.332 -12.58,21.199 -22.877,21.582 -13.33,0.495 -37.31,1.402 -51.757,1.486 C 94.372,-1.143 8.635,-0.007 0,0" /></g></g></g></g></svg>