<?xml version="1.0" encoding="utf-8"?>
<!-- Generator: Adobe Illustrator 23.0.1, SVG Export Plug-In . SVG Version: 6.00 Build 0)  -->
<svg version="1.1"
	 id="svg4" inkscape:version="0.92.1 r15371" sodipodi:docname="gitlab.svg" xmlns:cc="http://creativecommons.org/ns#" xmlns:dc="http://purl.org/dc/elements/1.1/" xmlns:inkscape="http://www.inkscape.org/namespaces/inkscape" xmlns:rdf="http://www.w3.org/1999/02/22-rdf-syntax-ns#" xmlns:sodipodi="http://sodipodi.sourceforge.net/DTD/sodipodi-0.dtd" xmlns:svg="http://www.w3.org/2000/svg"
	 xmlns="http://www.w3.org/2000/svg" xmlns:xlink="http://www.w3.org/1999/xlink" x="0px" y="0px" viewBox="0 0 400 400"
	 style="enable-background:new 0 0 400 400;" xml:space="preserve">
<sodipodi:namedview  bordercolor="#666666" borderopacity="1" fit-margin-bottom="50" fit-margin-left="0" fit-margin-right="0" fit-margin-top="0" gridtolerance="10" guidetolerance="10" id="namedview6" inkscape:current-layer="svg4" inkscape:cx="30.695631" inkscape:cy="82.258093" inkscape:pageopacity="0" inkscape:pageshadow="2" inkscape:window-height="1017" inkscape:window-maximized="1" inkscape:window-width="1920" inkscape:window-x="1358" inkscape:window-y="-8" inkscape:zoom="3.6875" objecttolerance="10" pagecolor="#ffffff" showgrid="false">
	</sodipodi:namedview>
<path d="M348.5,162.7L348.5,162.7l-16.7-51.3L298.7,9.6c-1.3-3.9-5.8-4.9-8.7-2.9c-0.9,0.7-1.7,2-2.1,3.3l-29,89.7
	c-2.4,7.4-9.3,12.4-17.1,12.4h-83.7c-7.8,0-14.7-5-17.1-12.4l-17.9-55.4L112.1,9.8c-0.2-0.6-0.5-1.3-0.9-1.8
	c-0.2-0.2-0.4-0.5-0.6-0.7c-2.2-2.1-5.8-2.1-8,0.2c-0.6,0.6-1,1.3-1.3,2.1L68.2,111.4l-7,21.5l-9.7,29.8c-1.2,3.7-0.4,7.7,2,10.7
	c0.6,0.8,1.3,1.5,2.1,2l117.7,85.6c21,15.3,32.5,40.6,29.6,66.4c-3.9,34-19.7,64.8,11.3,66.9c43-0.8-26.1-88,26.9-143.6
	c20.1-20.1-4.8,56.5,17.1,57.7c15.1,0.3,7.2-15.8,4.5-36.3c-2.8-21.2,6.5-42.1,23.8-54.7l57.7-41.9
	C348.3,172.5,350,167.4,348.5,162.7z"/>
</svg>
