<?xml version="1.0" encoding="UTF-8" standalone="no"?>
<svg
   xmlns:dc="http://purl.org/dc/elements/1.1/"
   xmlns:cc="http://creativecommons.org/ns#"
   xmlns:rdf="http://www.w3.org/1999/02/22-rdf-syntax-ns#"
   xmlns:svg="http://www.w3.org/2000/svg"
   xmlns="http://www.w3.org/2000/svg"
   viewBox="0 0 533.33331 533.33331"
   height="533.33331"
   width="533.33331"
   xml:space="preserve"
   id="svg2"
   version="1.1"><metadata
     id="metadata8"><rdf:RDF><cc:Work
         rdf:about=""><dc:format>image/svg+xml</dc:format><dc:type
           rdf:resource="http://purl.org/dc/dcmitype/StillImage" /></cc:Work></rdf:RDF></metadata><defs
     id="defs6"><clipPath
       id="clipPath18"
       clipPathUnits="userSpaceOnUse"><path
         id="path16"
         d="M 0,400 H 400 V 0 H 0 Z" /></clipPath></defs><g
     transform="matrix(1.3333333,0,0,-1.3333333,0,533.33333)"
     id="g10"><g
       id="g12"><g
         clip-path="url(#clipPath18)"
         id="g14"><g
           transform="translate(247.4092,351.3701)"
           id="g20"><path
             id="path22"
             style="fill:#000000;fill-opacity:1;fill-rule:nonzero;stroke:none"
             d="m 0,0 c -2.581,0 -4.051,-0.224 -4.247,-1.126 -0.197,-0.904 1.413,-2.589 2.15,-3.865 0.23,-0.396 0.547,-0.745 0.85,-1.093 0.847,-0.974 1.801,-3.046 2.56,-2.903 0.761,0.143 1.462,2.37 1.965,3.645 C 5.113,-0.692 2.581,0 0,0 m -62.148,-153.984 c 0.523,0.78 0.451,4.48 -2.841,3.974 -5.756,-0.884 -11.498,-1.866 -17.229,-2.9 -1.279,-0.231 -1.908,-1.033 -0.761,-2.263 3.99,-4.274 8.013,-8.519 11.95,-12.843 1.577,-1.731 2.686,-1.138 3.421,0.589 1.913,4.501 4.936,12.661 5.46,13.443 m 3.449,81.362 c -3.407,0 -6.815,-0.043 -10.222,0.018 -1.771,0.031 -2.822,-0.367 -3.098,-2.449 -1.039,-7.842 5.158,-16.573 12.998,-17.87 0.993,-0.164 2.405,0.215 3.151,0.876 4.855,4.3 7.529,10.059 9.958,15.884 1.24,2.975 0.792,3.428 -2.565,3.523 -3.405,0.097 -6.815,0.021 -10.222,0.018 m -12.042,38.123 c 6.196,0 12.391,-0.024 18.586,0.01 3.592,0.019 3.826,0.308 1.879,3.473 -5.216,8.479 -12.779,14.337 -22.128,17.249 -8.285,2.581 -16.929,4.015 -25.429,5.897 -2.494,0.553 -4.432,-0.475 -4.975,-2.952 -0.586,-2.667 -1.154,-5.5 -0.862,-8.166 0.626,-5.705 4.009,-10.03 8.485,-13.34 1.608,-1.189 3.865,-1.987 5.863,-2.071 6.184,-0.263 12.386,-0.097 18.581,-0.1 m 23.195,73.062 c 31.149,0 62.297,0.01 93.445,-0.029 1.815,-0.002 3.701,-0.166 5.427,-0.68 3.692,-1.101 5.454,-3.644 5.384,-7.631 -0.128,-7.282 -0.029,-14.567 -0.038,-21.85 -0.007,-5.992 -2.537,-8.602 -8.699,-8.684 -7.283,-0.096 -14.575,-0.218 -21.847,0.06 -3.511,0.134 -5.451,-1.16 -6.776,-4.241 -3.931,-9.143 -3.754,-18.36 -0.906,-27.716 0.649,-2.131 2.089,-2.32 3.933,-2.31 8.523,0.047 17.047,0.036 25.57,0.014 6.511,-0.017 8.65,-1.253 9.04,-7.673 0.504,-8.281 0.135,-16.65 -0.402,-24.946 -0.248,-3.843 -2.772,-5.385 -6.621,-5.492 -4.802,-0.134 -4.909,-0.204 -6.458,-4.848 -1.824,-5.468 -1.503,-11.034 -0.402,-16.54 1.398,-6.982 3.545,-13.846 4.473,-20.878 0.676,-5.12 0.645,-10.586 -0.398,-15.623 -1.752,-8.462 -9.29,-13.444 -17.538,-12.7 -7.987,0.721 -14.341,6.849 -14.825,15.314 -0.268,4.709 0.599,9.538 1.392,14.24 0.976,5.794 2.679,11.468 3.565,17.272 0.893,5.835 -0.383,11.423 -3.707,16.4 -0.763,1.144 -1.748,2.188 -2.797,3.082 -2.456,2.089 -3.021,1.921 -3.778,-1.269 -1.883,-7.935 -4.228,-15.687 -8.032,-22.956 -5.583,-10.668 -12.897,-19.92 -22.375,-27.362 -3.613,-2.837 -7.614,-5.177 -11.25,-7.988 -1.525,-1.179 -2.935,-2.813 -3.761,-4.544 -8.067,-16.908 -10.412,-34.915 -9.69,-53.413 0.076,-1.947 1.336,-4.138 2.656,-5.702 10.036,-11.876 20.355,-23.515 30.33,-35.44 10.941,-13.081 21.603,-26.395 32.405,-39.591 0.978,-1.193 2.202,-2.193 3.124,-3.422 1.717,-2.287 3.083,-4.773 1.438,-7.659 -1.584,-2.778 -3.752,-4.938 -7.212,-5.011 -3.872,-0.082 -7.762,-0.226 -11.618,0.04 -3.163,0.218 -4.019,-1.182 -4.121,-4.007 -0.198,-5.426 1.282,-10.404 3.538,-15.237 1.833,-3.928 3.836,-7.797 5.359,-11.844 2.069,-5.495 2.531,-11.155 -2.254,-15.526 -4.907,-4.485 -10.82,-4.191 -16.597,-1.841 -6.24,2.537 -9.774,7.537 -10.995,14.005 -0.685,3.628 -0.679,7.387 -0.968,11.088 -0.313,4.01 -0.312,8.07 -0.978,12.019 -0.909,5.394 -3.335,9.793 -8.905,12.045 -2.026,0.819 -3.81,2.65 -5.273,4.383 -11.196,13.275 -22.208,26.707 -33.434,39.957 -8.852,10.448 -17.865,20.763 -26.92,31.038 -13.141,14.913 -26.355,29.762 -39.6,44.583 -4.006,4.485 -8.155,8.845 -12.351,13.153 -2.583,2.651 -4.111,5.456 -4.001,9.385 0.246,8.826 0.071,17.664 0.067,26.497 -0.003,6.57 2.488,9.116 9.212,9.154 10.382,0.059 20.766,-0.057 31.148,0.053 4.003,0.043 8.014,0.389 11.991,0.853 1.034,0.121 2.332,0.981 2.868,1.882 5.28,8.881 7.066,21.154 0.555,30.826 -2.75,4.085 -6.098,6.418 -11.515,6.251 -12.386,-0.38 -24.791,-0.138 -37.189,-0.11 -4.83,0.011 -7.011,2.146 -7.047,7.009 -0.061,8.057 -0.032,16.115 0.003,24.172 0.02,4.527 2.113,6.725 6.748,6.894 3.869,0.14 7.754,0.174 11.619,-0.016 2.522,-0.123 3.572,0.936 4.145,3.251 2.147,8.673 -1.19,15.807 -6.21,22.438 -0.519,0.686 -1.882,0.889 -2.892,1.014 -1.374,0.17 -2.795,-0.065 -4.176,0.073 -5.778,0.579 -9.735,1.704 -9.352,9.567 0.46,9.431 0.41,18.914 -0.009,28.349 -0.232,5.223 3.177,7.821 7.785,8.382 1.222,0.149 2.476,0.035 3.716,0.035 30.994,0.001 61.987,0.001 92.981,0.001" /></g></g></g></g></svg>