<?xml version="1.0" encoding="UTF-8" standalone="no"?>
<svg
   xmlns:dc="http://purl.org/dc/elements/1.1/"
   xmlns:cc="http://creativecommons.org/ns#"
   xmlns:rdf="http://www.w3.org/1999/02/22-rdf-syntax-ns#"
   xmlns:svg="http://www.w3.org/2000/svg"
   xmlns="http://www.w3.org/2000/svg"
   viewBox="0 0 682.66669 682.66669"
   height="682.66669"
   width="682.66669"
   xml:space="preserve"
   id="svg2"
   version="1.1"><metadata
     id="metadata8"><rdf:RDF><cc:Work
         rdf:about=""><dc:format>image/svg+xml</dc:format><dc:type
           rdf:resource="http://purl.org/dc/dcmitype/StillImage" /></cc:Work></rdf:RDF></metadata><defs
     id="defs6"><clipPath
       id="clipPath18"
       clipPathUnits="userSpaceOnUse"><path
         id="path16"
         d="M 0,512 H 512 V 0 H 0 Z" /></clipPath></defs><g
     transform="matrix(1.3333333,0,0,-1.3333333,0,682.66667)"
     id="g10"><g
       id="g12"><g
         clip-path="url(#clipPath18)"
         id="g14"><g
           transform="translate(259.7275,275.3491)"
           id="g20"><path
             id="path22"
             style="fill:#000000;fill-opacity:1;fill-rule:nonzero;stroke:none"
             d="m 0,0 c 3.674,0 7.353,-0.094 11.021,0.049 1.359,0.053 3.126,0.403 4.161,2.035 1.034,1.634 1.327,4.455 0.584,6.708 -0.907,2.749 -2.93,6.425 -5.278,7.175 -4.089,1.307 -8.71,0.793 -12.914,-0.959 -5.017,-2.09 -9.439,-5.943 -11.654,-10.57 -1.413,-2.952 -1.097,-4.526 2.577,-4.452 C -7.67,0.062 -3.834,0.003 0,0 m 67.563,-148.562 c 0.96,-0.979 2.575,-0.882 3.418,0.198 4.363,5.589 7.305,12.232 8.957,19.018 1.902,7.813 2.094,15.817 0.774,22.624 -1.123,5.792 -5.011,13.689 -5.967,13.689 -0.956,0 -2.609,-2.153 -2.841,-2.519 -4.25,-6.743 -6.403,-11.826 -8.346,-19.179 -1.782,-6.736 -2.398,-13.768 -1.489,-21.168 0.571,-4.648 1.995,-9.104 5.494,-12.663 M -58.969,-36.568 c -32.217,0.004 -64.434,0.005 -96.651,0.002 -6.442,-10e-4 -6.139,0.023 -5.486,-6.118 0.468,-4.401 0.698,-9.056 -0.216,-13.329 -2.099,-9.81 -9.797,-14.258 -19.564,-11.917 -2.952,0.707 -5.782,1.909 -8.711,2.731 -4.205,1.18 -6.52,0.078 -7.626,-4.149 -0.758,-2.902 -0.75,-6.007 -1.041,-9.025 -0.492,-5.094 -0.435,-10.306 -1.526,-15.267 -2.692,-12.242 -12.26,-19.538 -22.461,-17.724 -10.212,1.817 -17.321,12.015 -15.9,24.064 0.876,7.435 2.903,14.748 4.606,22.07 1.577,6.782 2.878,13.557 0.387,20.346 -1.713,4.672 -4.02,8.506 -10.118,8.581 -4.437,0.054 -7.623,3.793 -7.786,8.33 -0.228,6.403 -0.217,12.825 -0.015,19.228 0.146,4.607 3.132,7.737 7.73,8.462 2.041,0.322 4.153,0.26 6.233,0.261 46.161,0.013 92.324,-0.139 138.484,0.201 5.686,0.042 14.506,1.769 17.194,3.991 2.688,2.222 3.413,3.535 4.079,5.592 1.314,4.065 -0.7,6.488 -5.034,6.541 -9.455,0.115 -18.913,0.068 -28.369,0.051 -4.857,-0.008 -8.696,1.93 -11.447,5.913 -11.179,16.186 -19.164,33.846 -21.907,53.34 -5.035,35.78 5.069,67.154 29.196,94.042 19.477,21.707 44.371,33.101 72.558,38.296 19.971,3.68 40.047,5.07 60.265,2.601 21.32,-2.604 42.524,-5.908 62.951,-12.824 4.198,-1.42 8.529,-3.325 11.866,-6.119 2.585,-2.166 4.889,-5.92 5.303,-9.222 2.867,-22.86 5.303,-45.778 7.616,-68.704 0.395,-3.92 -0.256,-7.996 -0.806,-11.947 -0.506,-3.638 -2.94,-5.774 -6.646,-5.638 -6.719,0.246 -13.44,0.65 -20.134,1.275 -4.202,0.392 -6.063,3.445 -7.455,7.19 -5.418,14.57 -10.812,29.217 -19.935,41.982 -3.507,4.905 -8.026,9.085 -12.077,13.602 -2.716,3.026 -5.125,2.185 -6.909,-0.851 -1.447,-2.461 -2.554,-5.153 -3.555,-7.839 -1.285,-3.449 -2.112,-7.076 -3.492,-10.481 -3.826,-9.44 -12.666,-11.579 -20.497,-4.921 -2.92,2.483 -5.387,5.49 -8.194,8.114 -1.109,1.036 -2.379,2.797 -3.892,2.504 -1.513,-0.292 -1.936,-2.864 -2.307,-4.437 -1.432,-6.068 -2.149,-12.341 -4.008,-18.263 -2.458,-7.837 -9.04,-12.423 -16.466,-12.539 -9.138,-0.143 -16.607,6.361 -17.403,15.83 -0.411,4.903 0.233,9.897 0.423,14.849 0.177,4.632 0.68,9.275 0.488,13.891 -0.17,4.089 -2.242,7.315 -6.356,8.803 -4.042,1.462 -7.339,0.433 -10.521,-2.48 -20.042,-18.346 -22.228,-47.708 -5.676,-69.042 12.189,-15.71 29.043,-23.957 46.825,-30.592 C -2.261,54.966 18.916,48.55 39.626,40.876 51.159,36.603 62.226,31.038 73.36,25.756 75,24.979 77.485,22.901 76.938,20.601 76.392,18.301 73.787,17.055 71.884,16.745 67.66,16.056 63.263,16.488 58.942,16.311 53.741,16.098 49.374,10.915 50.17,5.826 c 0.518,-3.307 2.29,-5.63 5.972,-5.786 1.759,-0.075 3.525,-0.05 5.288,-0.05 55.939,-0.003 111.878,-0.002 167.817,-0.005 1.923,-0.001 3.856,0.072 5.767,-0.091 5.298,-0.451 8.508,-3.717 8.656,-9.066 0.158,-5.766 0.112,-11.54 0.033,-17.31 -0.092,-6.718 -3.311,-9.989 -10.119,-10.044 -12.662,-0.1 -25.324,-0.037 -37.987,-0.038 -26.768,-0.002 -53.535,-0.11 -80.302,0.066 -7.582,0.05 -12.277,-4.165 -16.033,-9.728 -2.82,-4.175 -1.264,-6.632 3.712,-6.694 6.25,-0.079 12.525,-0.374 18.748,0.049 12.2,0.832 15.078,-5.408 15.718,-14.358 2.047,-28.601 -1.919,-56.331 -16.539,-81.653 -7.096,-12.291 -17.417,-21.573 -28.855,-29.83 -21.606,-15.599 -44.871,-27.34 -71.454,-31.432 -21.313,-3.281 -42.78,-3.468 -64.233,-1.775 -8.275,0.652 -16.453,2.471 -24.721,3.321 -1.99,0.204 -4.691,-0.549 -6.518,-2.899 -1.827,-2.348 -2.798,-7.091 -3.266,-11.116 -0.468,-4.023 -0.863,-7.518 -1.349,-11.16 -1.366,-10.243 -6.672,-16.023 -14.982,-16.654 -9.115,-0.691 -17.905,4.695 -19.896,14 -1.47,6.879 -0.616,14.258 -0.77,21.415 -0.071,3.345 0.117,6.709 -0.15,10.037 -0.529,6.617 -3.215,11.621 -10.358,13.217 -4.548,1.015 -6.115,4.672 -7.216,8.732 -3.346,12.344 -4.38,24.969 -3.894,37.645 0.54,14.058 1.479,28.125 2.917,42.118 0.861,8.381 3.578,10.274 12.128,10.212 16.605,-0.122 14.115,0.69 19.842,-12.591 3.107,-7.205 5.777,-14.606 9.033,-21.741 11.873,-26.031 31.132,-41.936 56.179,-49.778 5.881,-1.841 10.494,-2.99 16.992,-3.968 1.799,-0.272 6.108,-0.096 9.94,1.962 3.831,2.059 6.54,3.589 10.917,6.459 6.614,4.339 12.73,9.241 18.043,15.043 4.014,4.382 7.571,9.279 10.54,14.835 6.052,11.331 8.664,23.622 8.306,36.172 -0.451,15.815 -2.306,31.591 -3.635,47.377 -0.442,5.253 0.282,6.248 5.597,6.315 5.77,0.073 11.542,-0.051 17.311,0.06 4.169,0.08 5.048,1.627 2.49,4.902 -5.467,6.998 -12.378,11.462 -21.676,11.449 -32.377,-0.043 -64.755,-0.017 -97.132,-0.013" /></g></g></g></g></svg>