<?xml version="1.0" encoding="utf-8"?>
<!-- Generator: Adobe Illustrator 23.0.1, SVG Export Plug-In . SVG Version: 6.00 Build 0)  -->
<svg version="1.1"
	 id="svg8" xmlns:cc="http://creativecommons.org/ns#" xmlns:dc="http://purl.org/dc/elements/1.1/" xmlns:inkscape="http://www.inkscape.org/namespaces/inkscape" xmlns:rdf="http://www.w3.org/1999/02/22-rdf-syntax-ns#" xmlns:sodipodi="http://sodipodi.sourceforge.net/DTD/sodipodi-0.dtd" xmlns:svg="http://www.w3.org/2000/svg"
	 xmlns="http://www.w3.org/2000/svg" xmlns:xlink="http://www.w3.org/1999/xlink" x="0px" y="0px" viewBox="0 0 400 400"
	 style="enable-background:new 0 0 400 400;" xml:space="preserve">
<sodipodi:namedview  bordercolor="#666666" borderopacity="1" fit-margin-bottom="20" fit-margin-left="0" fit-margin-right="0" fit-margin-top="0" gridtolerance="10" guidetolerance="10" id="namedview10" inkscape:current-layer="svg8" inkscape:cx="-35.984002" inkscape:cy="46.711282" inkscape:pageopacity="0" inkscape:pageshadow="2" inkscape:window-height="705" inkscape:window-maximized="1" inkscape:window-width="1366" inkscape:window-x="-8" inkscape:window-y="245" inkscape:zoom="4" objecttolerance="10" pagecolor="#ffffff" showgrid="false">
	</sodipodi:namedview>
<g id="Layer_1">
</g>
<g>
	<path d="M217.8,205.5l13.4,0c2.2,0,4.1-1.4,4.8-3.5c6.4-19.7,29-56,29.1-42.1l0,41.8c0,2.8,2.3,5.1,5.1,5.1h12.1
		c2.8,0,5.1-2.3,5.1-5.1v-60.3c0-15-3.9-24.9-11.8-29.4c-7.8-4.6-16.4-7.2-24.9-7.2c-6,0-12.5,0.5-18.6,2.2
		c-1.1,0.3-2.2,0.6-3.3,0.8c-4.2,0.9-8.1,2.1-11.7,3.3c-2.6,0.9-4.3,3.3-4.3,6v9.3v74.1C212.8,203.3,215,205.5,217.8,205.5z
		 M235,129c0-1.8,1.2-3.3,2.9-3.7c1-0.2,2.1-0.5,3-0.9c2-0.7,4.6-0.7,7.2-0.7c3.9,0,7.2,0.6,9.7,1.9c1.3,0.7,2.1,2.2,2,3.7
		c-1.5,14.7-19.5,47.5-24.2,35.5c-0.4-1-0.6-2.1-0.6-3.2V129z"/>
	<path d="M338.1,4.7H61.9c-5.5,0-10,4.5-10,10v265.3c0,7.2,3.4,13.9,9.1,18.3c33.5,26-11.7,93.2,15.3,96.9
		c35.6-0.8-13.2-73.6,19.5-97c4.8-3.4,10.6-5.1,16.5-5.1h225.9c5.5,0,10-4.5,10-10V14.7C348.1,9.2,343.7,4.7,338.1,4.7z
		 M325.7,281.4H74.3c-5.5,0-10-4.5-10-10V27.2c0-5.5,4.5-10,10-10h251.4c5.5,0,10,4.5,10,10v244.2
		C335.7,276.9,331.2,281.4,325.7,281.4z"/>
	<path d="M120.5,208.2c16.4,13.8-8.7,54.9,9.7,55.7c14.6-0.1,0.8-27.1,4.4-44.7c1.6-7.7,8.6-13.1,16.4-13.1h35.6
		c1.8,0,3.2-1.3,3.5-3l1.8-13.3c0.3-2.1-1.3-4-3.5-4h-46.3c-1.8,0-3.3-1.5-3.3-3.3V150c0-1.8,1.5-3.3,3.3-3.3h39.2
		c1.8,0,3.3-1.5,3.3-3.3v-12.9c0-2-1.3-3.8-3.3-4.4c-15.8-4.6-33.7-9.4-40.6-31.2c-0.7-2.2,1-4.5,3.3-4.5h42.2
		c2.1,0,3.7-1.8,3.5-3.9l-1.5-13.3c-0.2-1.8-1.7-3.1-3.5-3.1h-64.1c-1.8,0-3.3,1.5-3.3,3.3v128.2
		C117.3,204.2,118.5,206.6,120.5,208.2z M139.5,119.7c1.8-4.8,14.4,6.5,7.4,7.4h-3.4c-2.2,0-4-1.8-4-4V119.7z"/>
</g>
</svg>
