<?xml version="1.0" encoding="utf-8"?>
<!-- Generator: Adobe Illustrator 23.0.6, SVG Export Plug-In . SVG Version: 6.00 Build 0)  -->
<svg version="1.1"
	 id="svg8" xmlns:cc="http://creativecommons.org/ns#" xmlns:dc="http://purl.org/dc/elements/1.1/" xmlns:inkscape="http://www.inkscape.org/namespaces/inkscape" xmlns:rdf="http://www.w3.org/1999/02/22-rdf-syntax-ns#" xmlns:sodipodi="http://sodipodi.sourceforge.net/DTD/sodipodi-0.dtd" xmlns:svg="http://www.w3.org/2000/svg"
	 xmlns="http://www.w3.org/2000/svg" xmlns:xlink="http://www.w3.org/1999/xlink" x="0px" y="0px" viewBox="0 0 400 400"
	 style="enable-background:new 0 0 400 400;" xml:space="preserve">
<path d="M216.5,195.3l12.4,0c2,0,3.8-1.3,4.5-3.2c5.9-18.3,26.9-52,27-39l0,38.8c0,2.6,2.1,4.7,4.7,4.7h11.2c2.6,0,4.7-2.1,4.7-4.7
	v-56c0-14-3.6-23.1-10.9-27.3c-7.3-4.2-15.2-6.7-23.1-6.7c-5.6,0-11.6,0.5-17.3,2c-1,0.3-2.1,0.5-3.1,0.8c-3.9,0.9-7.5,1.9-10.8,3.1
	c-2.4,0.8-4,3.1-4,5.6v8.6v68.7C211.8,193.2,213.9,195.3,216.5,195.3z M232.5,124.3c0-1.6,1.1-3,2.7-3.4c0.9-0.2,1.9-0.5,2.8-0.8
	c1.8-0.6,4.2-0.6,6.7-0.6c3.6,0,6.6,0.5,9,1.7c1.3,0.6,2,2,1.8,3.4c-1.4,13.7-18.1,44.1-22.5,33c-0.4-1-0.5-2-0.5-3V124.3z"/>
<path d="M328.2,9H71.8c-5.1,0-9.3,4.2-9.3,9.3v246.3c0,6.7,3.2,12.9,8.5,17c31,24.1-10.9,86.5,14.2,89.9
	c33.1-0.7-12.3-68.3,18.1-90.1c4.4-3.2,9.8-4.7,15.3-4.7h209.7c5.1,0,9.3-4.2,9.3-9.3V18.2C337.5,13.1,333.3,9,328.2,9z
	 M316.7,265.7H83.3c-5.1,0-9.3-4.2-9.3-9.3V29.8c0-5.1,4.2-9.3,9.3-9.3h233.4c5.1,0,9.3,4.2,9.3,9.3v226.7
	C326,261.6,321.8,265.7,316.7,265.7z"/>
<path d="M126.2,197.8c15.2,12.8-8.1,50.9,9,51.7c13.5-0.1,0.8-25.1,4.1-41.5c1.5-7.1,8-12.2,15.3-12.2h33c1.6,0,3-1.2,3.2-2.8
	l1.7-12.3c0.3-2-1.2-3.7-3.2-3.7h-43c-1.7,0-3.1-1.4-3.1-3.1v-30.3c0-1.7,1.4-3.1,3.1-3.1h36.4c1.7,0,3.1-1.4,3.1-3.1v-12
	c0-1.9-1.2-3.5-3.1-4.1c-14.7-4.2-31.3-8.7-37.7-29c-0.7-2.1,0.9-4.1,3.1-4.1h39.1c1.9,0,3.5-1.7,3.2-3.6L189,72.5
	c-0.2-1.6-1.6-2.9-3.2-2.9h-59.5c-1.7,0-3.1,1.4-3.1,3.1v119C123.2,194.1,124.3,196.3,126.2,197.8z M143.8,115.6
	c1.7-4.5,13.4,6,6.9,6.9h-3.2c-2,0-3.7-1.7-3.7-3.7V115.6z"/>
</svg>
