<?xml version="1.0" encoding="UTF-8" standalone="no"?>
<svg
   xmlns:dc="http://purl.org/dc/elements/1.1/"
   xmlns:cc="http://creativecommons.org/ns#"
   xmlns:rdf="http://www.w3.org/1999/02/22-rdf-syntax-ns#"
   xmlns:svg="http://www.w3.org/2000/svg"
   xmlns="http://www.w3.org/2000/svg"
   viewBox="0 0 533.33331 533.33331"
   height="533.33331"
   width="533.33331"
   xml:space="preserve"
   id="svg2"
   version="1.1"><metadata
     id="metadata8"><rdf:RDF><cc:Work
         rdf:about=""><dc:format>image/svg+xml</dc:format><dc:type
           rdf:resource="http://purl.org/dc/dcmitype/StillImage" /></cc:Work></rdf:RDF></metadata><defs
     id="defs6"><clipPath
       id="clipPath18"
       clipPathUnits="userSpaceOnUse"><path
         id="path16"
         d="M 0,400 H 400 V 0 H 0 Z" /></clipPath></defs><g
     transform="matrix(1.3333333,0,0,-1.3333333,0,533.33333)"
     id="g10"><g
       id="g12"><g
         clip-path="url(#clipPath18)"
         id="g14"><g
           transform="translate(355.8672,141.7139)"
           id="g20"><path
             id="path22"
             style="fill:#000000;fill-opacity:1;fill-rule:nonzero;stroke:none"
             d="m 0,0 c -0.03,-1.055 -1.49,-2.947 -2.317,-2.967 -8.636,-0.199 -17.286,0.149 -25.917,-0.117 -34.048,-1.047 -68.096,-2.151 -102.131,-3.519 -5.704,-0.228 -13.816,-0.574 -19.455,-0.408 -11.964,0.353 -21.444,-0.021 -33.409,0.478 -27.688,1.154 -55.392,1.964 -83.094,2.719 -14.83,0.403 -29.672,0.361 -44.504,0.709 -0.729,0.016 -1.96,1.791 -2.043,2.821 -2.122,26.323 -2.571,52.752 -3.937,79.117 -0.501,9.667 -0.048,19.332 0.416,29.093 1.199,25.142 2.03,50.302 3.071,75.452 0.055,1.332 -0.086,3.459 1.069,3.958 1.154,0.499 2.518,-1.514 3.457,-2.515 8.141,-8.68 8.17,-20.338 11.144,-30.931 0.852,-3.039 1.769,-6.152 3.262,-8.902 5.542,-10.205 15.911,-11.407 23.308,-2.44 3.543,4.296 5.986,9.492 9.037,14.209 0.644,0.996 1.482,3.149 2.668,2.512 1.186,-0.637 0.959,-2.373 0.983,-3.569 0.106,-5.481 0.059,-10.382 0.047,-16.449 -0.013,-6.066 -0.462,-16.305 2.707,-28.62 3.169,-12.315 13.405,-19.167 23.71,-18.464 9.928,0.676 18.927,8.889 20.041,21.2 0.921,10.171 0.349,20.868 -1.8,30.85 -5.729,26.612 9.471,39.624 29.374,47.07 6.395,2.393 12.346,4.479 18.876,5.743 7.003,1.356 14.333,2.112 21.601,1.59 15.652,-1.126 31.352,-2.484 47.017,-3.169 28.263,-1.237 56.557,-1.771 84.839,-2.599 0.289,-0.009 0.578,-0.037 0.866,-0.031 3.536,0.076 9.099,0.266 9.993,-1.232 1.952,-3.27 1.789,-6.795 2.076,-10.946 1.126,-16.27 2.437,-32.537 3.077,-48.828 C 4.517,119.489 3.047,107.024 4.267,94.803 7.45,62.934 0.896,31.615 0,0 m 35.999,137.94 c -0.282,26.402 -1.554,52.799 -8.665,78.714 -1.986,7.239 -4.391,9.149 -10.629,9.573 -20.599,1.401 -41.168,3.365 -61.786,4.286 -15.237,0.68 -30.532,0.018 -45.802,0.045 -33.416,0.057 -66.831,0.127 -100.246,0.28 -20.035,0.092 -40.096,1.086 -60.097,0.348 -24.86,-0.919 -49.66,-3.381 -74.506,-4.822 -10.25,-0.595 -10.922,-0.225 -13.034,-10.095 -2.836,-13.264 -6.206,-26.619 -6.989,-40.072 -1.516,-26.024 -1.594,-52.142 -1.87,-78.225 -0.222,-20.95 -0.58,-41.942 0.475,-62.847 0.853,-16.893 3.646,-33.692 5.763,-50.511 0.392,-3.117 0.567,-4.378 0.957,-9.14 0.39,-4.763 2.279,-7.36 6.263,-7.88 12.307,-1.607 24.67,-2.855 37.041,-3.89 8.572,-0.717 17.19,-0.93 25.793,-1.23 12.45,-0.434 24.904,-0.997 37.358,-1.037 14.132,-0.046 28.266,0.525 42.398,0.501 1.265,-0.001 3.515,-2.33 3.613,-3.699 0.387,-5.372 0.292,-10.806 -0.089,-16.184 -0.091,-1.284 -1.871,-3.377 -3.051,-3.509 -11.371,-1.267 -18.772,-1.847 -26.516,-2.542 -7.744,-0.694 -9.251,-0.812 -11.43,-1.368 -2.18,-0.557 -4.255,-1.1 -4.71,-8.06 -0.454,-6.961 -0.686,-11.889 -1.1,-17.898 -0.776,-11.285 0.293,-12.617 11.114,-15.468 22.179,-5.842 44.734,-8.216 67.664,-8.09 12.316,0.718 24.713,0.8 36.926,2.338 11.562,1.456 22.954,4.346 34.381,6.789 6.016,1.286 9.83,4.871 8.845,11.414 -0.879,5.843 -1.5,10.802 -2.062,16.688 -0.128,1.338 -0.312,3.665 -0.393,5.014 -0.101,1.694 -0.312,4.442 -1.294,5.166 -2.049,1.512 -4.324,2.404 -6.851,2.687 -11.242,1.258 -22.536,2.055 -33.779,3.315 -1.242,0.14 -3.136,2.09 -3.25,3.335 -0.466,5.111 -0.164,10.287 -0.533,15.412 -0.267,3.728 1,4.95 4.742,4.909 24.28,-0.257 48.562,-0.19 72.838,-0.514 17.56,-0.235 28.49,-13.95 25.221,-31.175 -1.005,-5.299 -2.534,-10.542 -3.037,-15.884 -0.936,-9.926 4.856,-17.322 14.171,-18.941 16.272,-2.829 29.159,9.394 26.886,25.842 -0.734,5.311 -2.416,10.506 -3.845,15.706 -2.462,8.949 -1.248,17.031 5.085,24.122 4.133,4.626 9.414,5.776 11.247,16.026 1.834,10.25 4.607,30.803 5.21,46.432 1.465,38.014 1.979,76.097 1.573,114.139" /></g></g></g></g></svg>