<?xml version="1.0" encoding="utf-8"?>
<!-- Generator: Adobe Illustrator 22.0.0, SVG Export Plug-In . SVG Version: 6.00 Build 0)  -->
<!DOCTYPE svg PUBLIC "-//W3C//DTD SVG 1.1//EN" "http://www.w3.org/Graphics/SVG/1.1/DTD/svg11.dtd">
<svg version="1.1" id="Layer_1" xmlns="http://www.w3.org/2000/svg" xmlns:xlink="http://www.w3.org/1999/xlink" x="0px" y="0px"
	 viewBox="0 0 400 400" enable-background="new 0 0 400 400" xml:space="preserve">
<g>
	<path d="M349.9,296.7c0,2.4-1.9,4.3-4.3,4.3l0,0c-56.9,0-113.7,0-170.6-0.1c-3.5,0-6.5,0.7-9.3,2.7c-10.6,7.2-18.9,16.1-20,29.5
		c-0.4,5.3,0.7,10.7,1.4,16c0.6,4.8,1.9,9.5,2.3,14.3c0.6,8.4-2.1,15.6-9,20.6c-7.7,5.6-18,3.8-23-4.3c-3.1-5.1-3.9-10.7-4-16.5
		c-0.1-6.9,0-13.9-0.7-20.7c-0.4-3.5-1.9-7.1-3.7-10c-2.8-4.6-6.6-4.4-9.6,0.1c-1.5,2.2-2.6,4.6-3.8,6.9c-2.7,4.8-5.8,9.2-12,8.8
		c-6.3-0.4-9.9-4.6-11.9-10.1c-1.6-4.6-2.6-9.5-3.5-14.4c-1.3-6.5-3.4-12.5-7.8-17.6c-2-2.3-3.8-4.9-6.9-5.3
		c-1.9-0.2-3.3-1.8-3.3-3.7v0c0-87.1,0-174.2,0-261.3c0-12.8,10.5-23.3,23.3-23.3c84.4,0,168.7,0,253.1,0
		c12.9,0,23.4,10.4,23.4,23.4c0,86.8,0,173.6,0,260.4C349.9,296.6,349.9,296.7,349.9,296.7z M181.5,289.2h36.8c2.5,0,4.4-2,4.4-4.4
		V248c0-2.5-2-4.4-4.4-4.4h-36.8c-2.5,0-4.4,2-4.4,4.4v36.7C177.1,287.2,179.1,289.2,181.5,289.2z M218.4,70.6h-36.8
		c-2.4,0-4.4,2-4.4,4.4v36.8c0,2.4,2,4.4,4.4,4.4h36.8c2.4,0,4.4-2,4.4-4.4V75.1C222.9,72.6,220.9,70.6,218.4,70.6z M296.8,231.6h37
		c2.4,0,4.4-2,4.4-4.4v-37c0-2.4-2-4.4-4.4-4.4h-37c-2.4,0-4.4,2-4.4,4.4v37C292.4,229.7,294.4,231.6,296.8,231.6z M239.5,231.6
		h36.3c2.6,0,4.8-2.1,4.8-4.8v-36.1c0-2.6-2.1-4.8-4.8-4.8h-36.3c-2.6,0-4.8,2.1-4.8,4.8v36.1C234.7,229.5,236.8,231.6,239.5,231.6z
		 M182.4,231.6h35.3c2.8,0,5.1-2.3,5.1-5.1v-35.3c0-2.8-2.3-5.1-5.1-5.1h-35.4c-2.9,0-5.3,2.4-5.3,5.3v34.9
		C177,229.1,179.4,231.6,182.4,231.6z M103.2,185.9h-37c-2.4,0-4.4,2-4.4,4.4v36.9c0,2.4,2,4.4,4.4,4.4h37c2.4,0,4.4-2,4.4-4.4
		v-36.9C107.5,187.9,105.6,185.9,103.2,185.9z M298.1,289.2h38.8c0.8,0,1.5-0.7,1.5-1.5l0,0c0-13.9,0-27.9,0.1-41.8
		c0-2.4-1.1-2.6-3-2.6c-13.5,0-27,0-40.5,0l0,0c-1.3,0-2.4,1.1-2.4,2.4v37.9C292.5,286.7,295,289.2,298.1,289.2z M119.5,284.3
		c0,2.7,2.2,4.8,4.8,4.8H162c2.7,0,3.4-0.3,3.4-2.4c0-14.3,0-27,0.1-41.3c0-2.1-1.2-2.2-2.7-2.2c-13.7,0-27.5,0-41.2,0c0,0,0,0,0,0
		c-1.1,0-2,1-2,2.1V284.3z M61.9,246.7v39.4c0,1.7,1.4,3.1,3.1,3.1h38.2c2.4,0,4.3-1.9,4.3-4.3v-38.1c0-1.8-1.4-3.2-3.2-3.2H65.1
		C63.3,243.5,61.9,244.9,61.9,246.7z M292.6,132.9v36.4c0,2.6,2.1,4.6,4.6,4.6h36.3c2.6,0,4.6-2.1,4.6-4.6v-36.4
		c0-2.6-2.1-4.6-4.6-4.6h-36.3C294.6,128.2,292.6,130.3,292.6,132.9z M280.5,169.8v-37.1c0-2.4-2-4.4-4.4-4.4l-38.6-0.2
		c-2.5,0-3,0.4-3,3.6c0,14.2,0.1,26.1,0,40.3c0,2.1,1.1,2.2,2.7,2.2c5.9,0,11.9,0,17.8,0c6.9,0,13.8,0,21,0
		C278.5,174.2,280.5,172.2,280.5,169.8z M119.6,132.6v36.9c0,2.4,2,4.4,4.4,4.4h36.7c2.4,0,4.4-2,4.4-4.4v-36.9c0-2.4-2-4.4-4.4-4.4
		H124C121.6,128.2,119.6,130.2,119.6,132.6z M66.3,174h36.6c2.5,0,4.5-2,4.5-4.5v-36.6c0-2.5-2-4.5-4.5-4.5H66.3
		c-2.5,0-4.5,2-4.5,4.5v36.6C61.8,172,63.8,174,66.3,174z M280.6,72c0-0.9-0.7-1.6-1.6-1.6c0,0,0,0,0,0c-13.9,0-27.9,0-41.8-0.1
		c-2.4,0-2.6,1.2-2.6,3c0,12.3,0,24.6,0,36.9c0,0.5,0,1.1,0,1.6c0,2.4,2,4.4,4.4,4.4h36.3c2.9,0,5.3-2.4,5.3-5.3V72z M160.9,70.6
		h-37c-2.4,0-4.4,2-4.4,4.4v36.8c0,2.4,2,4.4,4.4,4.4h37c2.4,0,4.4-2,4.4-4.4V74.9C165.3,72.5,163.3,70.6,160.9,70.6z M177.2,132.7
		v36.1c0,2.9,2.4,4.9,5.3,5.3c0.9,0.1,1.9,0.1,3.7,0.1c10.1-0.3,16.4-7.9,18-14.8c2.1-9.3-0.1-17.5-5.8-25.1
		c-4.5-6-10.4-6.7-16.6-6.4C179.1,128.1,177.2,130.2,177.2,132.7z M107.5,113V72.8c0-1.4-1.1-2.5-2.4-2.5c-2.5,0-4.9-0.1-7.3,0.1
		c-1.3,0.1-3,0.9-3.8,1.9c-6,7.6-10.4,16-12.6,25.5c-1.2,5.2-1.5,9.7-0.2,15c0.5,1.8,1.8,3.5,4,3.5c6.6,0.2,12.2,0.1,18.9,0.1
		C106,116.4,107.5,114.9,107.5,113z M280.6,245.5c0-1.2-1-2.2-2.2-2.2c-4.9,0-10.3,0-12.3,0.1c-2.3,0.1-2.9,0.9-3.9,2.8
		c-0.9,1.9-3.7,7.3-4.8,11.6c-2.4,9.4,1.6,24.1,13,29.8c2.2,1.1,4.9,1.4,7.7,1.8c1.3,0.2,2.5-0.8,2.5-2.2V245.5z M338.4,83.7
		c0-3.6,0.1-6.4,0-10c-0.1-1.8-0.8-3.2-3.2-3.3c-4.2-0.2-6.9-0.1-11.2,0c-1.1,0-2.6,0.7-3.4,1.5c-5.4,6.1-8.5,18.7-2.3,26.8
		c2.9,3.8,7.5,4.9,12.2,3.2c5.5-2,7.9-5.2,7.9-10.2C338.4,89,338.4,86.3,338.4,83.7z M119.5,227.1c0,2.8,2.7,4.9,5.4,4
		c0.7-0.2,1.4-0.5,2.1-0.9c5.2-3,7-8.3,7.5-13.9c0.8-10.2-2.1-19.3-7.7-27.7c-1.2-1.8-2.6-2.8-4.3-3c-1.6-0.2-2.9,1.1-2.9,2.7V227.1
		z M165.4,188.8c0-1.7-1.4-3.1-3.1-3.1c-2.8,0-5.6-0.1-8.3,0.1c-1.4,0.1-3.1,1.1-3.9,2.2c-3.8,6,0.1,14.9,7,16.5
		c4.1,0.9,7.8-1.3,8.2-5.4C165.5,195.7,165.4,192.3,165.4,188.8z M74.9,72.5c0-1.2-1-2.1-2.2-2.1c-1.3,0-2.5,0-3.6,0
		c-7.6,0-7.6,0-7.4,7.6c0.1,3.7,1.7,5.8,4.6,6c4.6,0.4,8.1-1.6,8.6-5.2C75,76.7,74.9,74.7,74.9,72.5z M234.5,253.1
		c0.1,1.6,0.4,2.9,1.3,3.1c1.1,0.3,2.3,0.3,3.4-0.3c4-2.2,5.2-5.1,4.6-9.9c-0.2-1.7-1.5-2.4-3-2.8c-5.4-0.9-6.3-0.5-6.3,6.3
		C234.6,249.5,234.4,251.5,234.5,253.1z M223.4,130.5c0.3-1.2-0.6-2.4-1.9-2.4c-2.1,0-3.7,0-5.3,0c-0.6,0-1.3,0.4-1.6,0.8
		c-1.8,2.5,0.2,9.2,3.1,10.1c1,0.3,3,0.1,3.6-1.1C222.3,135.7,222.7,133.3,223.4,130.5z M294.1,70.4c-1,0.1-1.8,1-1.8,2
		c0,2-0.1,3.9,0.1,5.8c0.1,1.4,1.3,2.1,2.2,2.3c1.2,0.3,3.4,0,4.4-1.6c1.4-2.2,1.7-4.1,0.3-6.6c-0.8-1.4-2.3-1.6-4.1-1.9
		C294.9,70.3,294.5,70.3,294.1,70.4z M292.4,113.3c0,1.5,1.7,2.3,2.9,1.4c1.9-1.5,2.7-3.5,2.4-6c-0.3-2.6-1.2-4.8-2.5-6.1
		c-1-1-2.8-0.2-2.8,1.2L292.4,113.3z"/>
</g>
</svg>
