<?xml version="1.0" encoding="utf-8"?>
<!-- Generator: Adobe Illustrator 23.0.6, SVG Export Plug-In . SVG Version: 6.00 Build 0)  -->
<svg version="1.1" id="Layer_1" xmlns="http://www.w3.org/2000/svg" xmlns:xlink="http://www.w3.org/1999/xlink" x="0px" y="0px"
	 viewBox="0 0 400 400" enable-background="new 0 0 400 400" xml:space="preserve">
<path d="M138.5,90.5V71.1c0-2.3,1.9-4.1,4.1-4.1h176.7c2.3,0,4.1,1.8,4.1,4.1v19.7c0,2.3-1.9,4-4.1,3.9l0,0
	c-5.3-0.3-9.5,1.9-12.8,5.7c-4.4,5.1-6.3,11.2-5.7,17.8c0.5,6.4,4.9,10.2,11.2,10.2c3.1,0,6.2,0.1,9.3,0c2.1-0.1,2.2,0.8,2.3,3.5
	c0.2,7,0,13.9,0,20.6c0,3.7-0.8,4.1-3,4.1c-7.3-0.1-14.7,0-22,0c-18.1,0-36.2,0-54.3,0c-10.1,0-17,11-12.2,19.9
	c1.5,2.8,3.9,5.4,6.5,7.3c5.1,3.9,11,5.9,17.6,5.9c21.2-0.1,42.4,0,63.6,0c3.9,0,4,0,4,4c0,7,0,14.1,0,21.1c0,0,0,0,0,0
	c0,1.8-1.5,3.2-3.2,3.2c-1.2,0-2.4,0-3.7,0c-78.6,0-157.2,0-235.8,0c-4.8,0-4.7,0-4.7-5.2c0-5.9,0-11.8,0-17.7
	c0-5.3-0.1-5.3,4.7-5.3c31.1,0,62.3,0,93.4,0c9.7,0,18.5-3.2,26.3-8.9c2.4-1.7,4.6-4,6.3-6.4c4.5-6.3,3.2-12.4-3.5-16.3
	c-3.4-1.9-3.6-4.1-3.8-8.2c-0.2-5.3-0.2-10.8,0-16.5c0.1-4,0.3-5.2,3.7-5.2c17.3,0.1,34.5,0.1,51.8,0.1c7.5,0,19.1-8.6,20.8-15.8
	c0.6-2.4,0.4-5.2-0.4-7.5c-2.3-6.7-8-10.4-15.1-10.4c-39.3,0-78.6,0-117.9,0h-0.1C140.4,94.7,138.5,92.8,138.5,90.5z"/>
<path d="M200.3,5.1c39.3,0,76,0,115.3,0c6.1,0,8.1,1.3,8.1,7.9c0,6.2,0,8.2,0,14.4c0,4-1.7,6-5.6,6c-59.3,0-117,0.1-176.4-0.1
	c-10.4,0-20,2.9-29.3,6.9c-3.4,1.5-6.4,4.1-9.2,6.7c-3,2.7-4.3,6.4-4.6,10.5c-0.5,7.4,0.7,14.6,2.4,21.8c1.2,5.1,2.1,10.4,2,15.6
	c-0.2,9.1-6.5,14.4-15.5,14.1c-5.5-0.1-9.4-3.3-10.5-8.7c-1.3-5.9,0.1-11.6,2.2-17c3.9-10.1,5-20.5,3.2-31.1
	c-1-6.1-3.2-11.9-4.9-17.8c-0.4-1.6-1-3.2-1-4.8c-0.1-6.9,0.1-13.9-0.1-20.8c-0.1-3,0.9-3.9,3.9-3.9C120.3,5.1,160.3,5.1,200.3,5.1
	C200.3,5.1,200.3,5.1,200.3,5.1z"/>
<path d="M320,251.6c2,0,3.7,1.6,3.7,3.7c0,7.7,0,15,0,22.3c0,2.4-1.9,2.3-3.5,2.4c-6.3,0-12.6,0-18.9,0c-26,0-51.9-0.1-77.9-0.1
	c-25.3,0-50.7,0.1-76,0.1c-9,0-9-0.1-9-9.1c0-4.9,0-9.8,0-15c0-2.3,1.9-4.2,4.2-4.2L320,251.6z"/>
</svg>
