<?xml version="1.0" encoding="utf-8"?>
<!-- Generator: Adobe Illustrator 22.1.0, SVG Export Plug-In . SVG Version: 6.00 Build 0)  -->
<!DOCTYPE svg PUBLIC "-//W3C//DTD SVG 1.1//EN" "http://www.w3.org/Graphics/SVG/1.1/DTD/svg11.dtd">
<svg version="1.1" id="Layer_1" xmlns="http://www.w3.org/2000/svg" xmlns:xlink="http://www.w3.org/1999/xlink" x="0px" y="0px"
	 viewBox="0 0 400 400" enable-background="new 0 0 400 400" xml:space="preserve">
<g>
	<path d="M113.1,126.6V99.2c0-3.2,2.6-5.8,5.8-5.8h249.6c3.2,0,5.8,2.6,5.8,5.8v27.8c0,3.2-2.6,5.7-5.8,5.5l-0.1,0
		c-7.5-0.4-13.4,2.7-18.1,8.1c-6.2,7.2-8.9,15.8-8.1,25.2c0.8,9.1,6.9,14.4,15.9,14.4c4.4,0,8.8,0.1,13.1,0c2.9-0.1,3.1,1.2,3.3,5
		c0.3,9.9,0,19.7,0,29.2c0,5.2-1.1,5.8-4.3,5.8c-10.4-0.1-20.7,0-31.1,0c-25.6,0-51.1,0-76.7,0c-14.2,0-24,15.5-17.2,28.2
		c2.1,4,5.5,7.6,9.2,10.3c7.2,5.5,15.5,8.3,24.9,8.3c29.9-0.2,59.9-0.1,89.8-0.1c5.6,0,5.6,0,5.6,5.7c0,9.9,0.1,19.9,0.1,29.8
		c0,0,0,0,0,0c0,2.5-2.1,4.5-4.6,4.5c-1.7,0-3.5,0-5.2,0c-111,0-222,0-333-0.1c-6.8,0-6.6,0-6.6-7.4c0-8.4,0-16.7,0-25.1
		c0-7.5-0.2-7.5,6.7-7.5c44,0,87.9,0,131.9,0c13.8,0,26.1-4.5,37.1-12.6c3.4-2.5,6.4-5.6,8.8-9c6.3-8.9,4.6-17.6-4.9-23
		c-4.8-2.7-5.1-5.8-5.4-11.6c-0.4-7.4-0.2-15.2,0-23.2c0.2-5.6,0.4-7.4,5.2-7.3c24.4,0.2,48.8,0.1,73.2,0.1
		c10.6,0,26.9-12.1,29.4-22.4c0.8-3.3,0.6-7.4-0.5-10.6c-3.2-9.4-11.3-14.6-21.3-14.6c-55.5,0-111,0-166.5,0h-0.2
		C115.7,132.5,113.1,129.8,113.1,126.6z"/>
	<path d="M200.3,5.9c55.5,0,107.4,0,162.9,0c8.6,0,11.4,1.8,11.5,11.1c0,8.8,0,11.6,0,20.4c0,5.6-2.4,8.5-8,8.5
		c-83.8,0-165.3,0.1-249.1-0.1c-14.7,0-28.2,4.1-41.3,9.8c-4.8,2.1-9.1,5.8-13,9.4c-4.2,3.9-6.1,9.1-6.5,14.9
		c-0.7,10.5,1,20.6,3.4,30.8c1.7,7.2,3,14.7,2.8,22c-0.4,12.8-9.2,20.3-21.9,20c-7.8-0.2-13.2-4.6-14.9-12.3
		c-1.8-8.4,0.2-16.4,3.1-24c5.5-14.3,7-29,4.5-43.9c-1.5-8.5-4.6-16.8-6.9-25.2c-0.6-2.2-1.4-4.5-1.5-6.7
		c-0.2-9.8,0.1-19.6-0.1-29.3c-0.1-4.2,1.3-5.5,5.5-5.5C87.3,5.9,143.8,5.9,200.3,5.9C200.3,5.9,200.3,5.9,200.3,5.9z"/>
	<path d="M369.5,354.1c2.9,0,5.2,2.3,5.2,5.2c0,10.8,0,21.2,0,31.5c0,3.4-2.7,3.3-5,3.3c-8.9,0.1-17.8,0-26.7,0
		c-36.7-0.1-73.3-0.2-110-0.2c-35.8,0-71.5,0.1-107.3,0.1c-12.7,0-12.7-0.1-12.7-12.9c0-6.9,0-13.9,0-21.2c0-3.2,2.6-5.9,5.9-5.9
		L369.5,354.1z"/>
</g>
</svg>
