<?xml version="1.0" encoding="utf-8"?>
<!-- Generator: Adobe Illustrator 23.0.6, SVG Export Plug-In . SVG Version: 6.00 Build 0)  -->
<svg version="1.1" id="Layer_1" xmlns="http://www.w3.org/2000/svg" xmlns:xlink="http://www.w3.org/1999/xlink" x="0px" y="0px"
	 viewBox="0 0 400 400" style="enable-background:new 0 0 400 400;" xml:space="preserve">
<path d="M285,212c0.7,9.3-1.2,14.1-10.2,17.4c-8,2.9-11.1,17.5-6.6,24.8c3.6,5.8,0.8,15-5.6,16.8c-2.2,0.6-6.2-0.8-7.6-2.6
	c-2.2-2.9-4.4-7.1-4.1-10.5c1-9.8-2-15.5-9.3-20.7c-1-0.7-3.1-1.2-4-0.7c-0.8,0.5-1.2,2.6-1,3.8c0.4,2.1,1.5,4,2.1,6.1
	c1.2,4,2.1,8.2-2.7,10.3c-4.8,2.1-9.9-0.5-11.1-5.4c-0.7-2.6-1.1-5.5-0.7-8.1c1.7-10.4-1.6-15-12.1-15.6c-6.5-0.3-16.9-0.4-19,0.2
	c-2,0.6-2.5,1.6-3.1,2.5c-7.7,13-15.4,25.9-22.8,39c-2.5,4.4-5.3,7.9-10.5,9.6c-9.4,3-12.7,10-10.1,19.6c1.9,7.1-2.6,13.6-9.9,14.3
	c-5.1,0.5-10.2-7.2-8.9-13.4c2.8-13.5,2-15.2-10.1-22.5c-0.9-0.5-1.7-2-1.7-3.1c-0.2-14.9-0.6-29.7-0.1-44.6
	c0.2-5,2.5-10.2,4.8-14.8c12.6-24.6,25.3-49.2,38.3-73.6c3.8-7.3,8.6-14,12.9-21c1.9-3.1,1.8-5.2-2.7-4.7
	c-6.5,0.7-13.2,0.5-19.5,2.1c-9.4,2.4-12.9,8.8-12.5,18.5c0.1,3.1-0.7,7.2-2.7,9.1c-1.7,1.6-5.5,2.3-8.5,0.7c-3-1.6-3.9-6.9-3.1-9.9
	c2.5-9.9,1.4-14.5-6.6-21.1c-0.9-0.7-1.3-2.4-1.3-3.6c-0.1-16.7,0-33.4,0-50.1c0-5.2,2.9-7.7,7.5-7.9c14.4-0.6,28.7-1,43.1-1.2
	c11.8-0.1,23.7-0.1,35.6,0.3c4.8,0.2,6.7-1.8,8.5-5.9c5.2-11.5,11-22.8,16.5-34.3c2.4-5.1,6.4-6.9,11.8-6.9
	c12.8,0,25.6-0.2,38.4-0.1c1.1,0,3.2,0.6,3.3,3.7s0.4,13.7,1.2,28.7s-4.2,24.5-10.3,35.5c-13.7,24.6-27.3,49.2-40.9,73.8
	c-3.4,6.2-9,17.8-9.6,19c-0.6,1.2,0.1,2.7,1.8,2.7c1.7,0,35.7-0.8,53.5-1.5c4.9-0.2,6.9,1.5,7.1,6.6C283,178.7,284.3,202.7,285,212z
	"/>
</svg>
