<?xml version="1.0" encoding="utf-8"?>
<!-- Generator: Adobe Illustrator 22.1.0, SVG Export Plug-In . SVG Version: 6.00 Build 0)  -->
<!DOCTYPE svg PUBLIC "-//W3C//DTD SVG 1.1//EN" "http://www.w3.org/Graphics/SVG/1.1/DTD/svg11.dtd">
<svg version="1.1"
	 id="Layer_1" inkscape:version="0.92.1 r15371" sodipodi:docname="twitch.svg" xmlns:cc="http://creativecommons.org/ns#" xmlns:dc="http://purl.org/dc/elements/1.1/" xmlns:inkscape="http://www.inkscape.org/namespaces/inkscape" xmlns:rdf="http://www.w3.org/1999/02/22-rdf-syntax-ns#" xmlns:sodipodi="http://sodipodi.sourceforge.net/DTD/sodipodi-0.dtd" xmlns:svg="http://www.w3.org/2000/svg"
	 xmlns="http://www.w3.org/2000/svg" xmlns:xlink="http://www.w3.org/1999/xlink" x="0px" y="0px" viewBox="0 0 400 400"
	 style="enable-background:new 0 0 400 400;" xml:space="preserve">
<sodipodi:namedview  bordercolor="#666666" borderopacity="1" gridtolerance="10" guidetolerance="10" id="namedview15" inkscape:current-layer="Layer_1" inkscape:cx="184.96144" inkscape:cy="207.2963" inkscape:pageopacity="0" inkscape:pageshadow="2" inkscape:window-height="705" inkscape:window-maximized="1" inkscape:window-width="1366" inkscape:window-x="-8" inkscape:window-y="235" inkscape:zoom="0.65186406" objecttolerance="10" pagecolor="#ffffff" showgrid="false">
	</sodipodi:namedview>
<g>
	<path d="M46.3,6C40.9,27,35.6,48,30.1,69v284.7c21.5-0.1,43.1-0.1,64.6-0.4c5.1-0.1,7.4,1.3,7.1,6.8c-0.5,11.2-0.5,22.6-0.6,33.9
		h38.8c12.2-12.2,24.1-24.7,36.5-36.7c2.4-2.2,6.5-3.7,9.9-3.8c15.7-0.4,31.3-0.6,46.9,0c7.4,0.3,12.4-2.2,17.5-7.4
		c17.1-17.3,34.2-34.6,51.4-51.8c2.6-2.6,7.2-1.6,8.3,2c6.9,22.1-17.3,83.2,10.9,83.9c32.1-0.5-5.9-57.2,16-115
		c2.5-6.7,6.5-12.7,11.6-17.8c5.1-5.1,10.2-10.2,15.3-15.4c1.6-1.6,3.6-3,5.4-4.6V6H46.3z M339.4,45.7c0,5.2,0,10.4-0.1,15.6
		c0,4.8-3.9,8.8-8.7,8.6c-12-0.4-27.2-11.7-29.2-25.7c-0.6-4,2.6-7.6,6.7-7.6c7.3,0,14.6,0,21.9,0C336.8,36.6,339.4,38.4,339.4,45.7
		z M276.8,268.1c-0.8,0-1.6,0-2.3,0c-19.1-9.1-17-38.4,2.4-67c3.1-4.5,4.7-9.8,4.7-15.2v-83.5h-29.1v90.8c0,0.9,0.1,1.8,0.1,2.7
		c2.1,24.6-8.5,53.3-31.1,67.5c-5.2,3.3-11.2,4.9-17.3,4.8l-0.1,0c-5.9-0.1-9.9,1.8-14,6c-11.3,11.9-23.1,23.3-34.7,35l0,0
		c-2.8,2.8-7.5,0.8-7.5-3.1c0-13.1,0-25.1,0-37.8c-3.4,0-6.3,0-9.1,0c-18.1,0-36.1-0.2-54.2,0.2c-6,0.2-8-1.7-7.9-7.8
		c0.4-18.1,0.2-36.1,0.2-54.2c0-53.4,0.1-106.7-0.2-160.1c0-4.9,0.7-7.7,3.7-9c2.6-1.1,5.5-0.6,7.8,1.1
		c45.6,33.7-16,123.1,29.4,122.5C158,160.1,99,86.7,136,44.1c4.1-4.7,10-7.4,16.2-7.4c24.1,0,48.2,0,72.3,0c5.7,0,11.3,0.9,16.7,2.6
		C282.5,52.3,310,70.9,327,91c7.9,9.4,12.3,21.3,12.3,33.5c0,26.8,0,53.6-0.2,80.4c-0.1,4-2.2,8.9-5,11.9
		c-15.3,16-30.8,31.6-46.7,47C284.7,266.2,280.3,268,276.8,268.1z"/>
	<path d="M165.4,194.5c9.7,0,18.9,0,29,0c0-31.2,0-61.7,0-92.1c-10.1,0-19.6,0-29,0C165.4,133.4,165.4,163.7,165.4,194.5z"/>
</g>
</svg>
