<?xml version="1.0" encoding="utf-8"?>
<!-- Generator: Adobe Illustrator 23.0.6, SVG Export Plug-In . SVG Version: 6.00 Build 0)  -->
<svg version="1.1"
	 id="Layer_1" inkscape:version="0.92.1 r15371" sodipodi:docname="twitch.svg" xmlns:cc="http://creativecommons.org/ns#" xmlns:dc="http://purl.org/dc/elements/1.1/" xmlns:inkscape="http://www.inkscape.org/namespaces/inkscape" xmlns:rdf="http://www.w3.org/1999/02/22-rdf-syntax-ns#" xmlns:sodipodi="http://sodipodi.sourceforge.net/DTD/sodipodi-0.dtd" xmlns:svg="http://www.w3.org/2000/svg"
	 xmlns="http://www.w3.org/2000/svg" xmlns:xlink="http://www.w3.org/1999/xlink" x="0px" y="0px" viewBox="0 0 400 400"
	 style="enable-background:new 0 0 400 400;" xml:space="preserve">
<path d="M89.2,12.6C87,21,84.8,29.5,82.6,38c-2,7.8-3,15.7-3,23.8l0,180.9c0,4.9,3.9,8.8,8.8,8.8c12.3,0,24.7-0.1,37-0.2
	c3.6-0.1,5.2,0.9,5.1,4.8c-0.2,5.5-0.3,11.1-0.4,16.6c0,4.1,3.2,7.4,7.3,7.4h9.4c6.9,0,13.5-2.8,18.3-7.7c6-6.2,12.1-12.3,18.3-18.3
	c1.7-1.6,4.6-2.6,7-2.7c11.1-0.3,22.2-0.4,33.2,0c5.3,0.2,8.8-1.6,12.4-5.3c12.1-12.3,24.3-24.5,36.4-36.7c1.9-1.9,5.1-1.1,5.9,1.4
	c4.9,15.6-12.2,59,7.7,59.5c22.7-0.4-4.1-40.4,11.3-81.3c1.8-4.7,4.5-9,8.1-12.6c3.7-3.7,7.4-7.4,11-11.1l0,0
	c2.4-2.4,3.8-5.7,3.8-9.2V14c0-5-4-9-9-9L98.9,5C94.3,5,90.3,8.1,89.2,12.6z M298.8,33.2c0,3.7,0,7.4,0,11.1c0,3.4-2.8,6.2-6.2,6.1
	c-8.5-0.3-19.2-8.3-20.7-18.2c-0.4-2.8,1.8-5.4,4.7-5.4c5.2,0,10.4,0,15.5,0C297,26.7,298.8,28,298.8,33.2z M254.4,190.7
	c-0.6,0-1.1,0-1.7,0c-13.6-6.5-12.1-27.3,1.8-47.6c2.1-3.2,3.3-6.9,3.3-10.7V81c0-4.3-3.5-7.7-7.7-7.7h-5.1c-4.3,0-7.7,3.5-7.7,7.7
	l0,56.6c0,0.6,0,1.3,0.1,1.9c1.5,17.4-6.1,37.8-22.1,47.9c-3.7,2.3-7.9,3.4-12.2,3.4l-0.1,0c-4.2-0.1-7,1.3-9.9,4.2
	c-8,8.4-16.4,16.5-24.6,24.8l0,0c-2,2-5.3,0.6-5.3-2.2c0-7,0-13.6,0-20.3c0-3.6-2.9-6.5-6.5-6.5h0c-12.8,0-25.6-0.1-38.4,0.1
	c-4.2,0.1-5.7-1.2-5.6-5.5c0.3-12.8,0.1-25.6,0.1-38.4c0-37.8,0.1-75.6-0.1-113.4c0-3.7,0.6-5.7,3-6.5c1.7-0.6,3.6-0.2,5,0.9
	c32.5,23.9-11.3,87.3,21,86.9c28.6-0.6-13.2-52.7,13.1-82.9c2.9-3.3,7.1-5.2,11.4-5.2c17,0,33.9,0,50.9,0c4.1,0,8.2,0.6,12.2,1.8
	c29.3,9.2,48.8,22.5,60.9,36.7c5.6,6.6,8.6,15,8.6,23.7c0,19,0,38-0.1,57c-0.1,2.9-1.6,6.3-3.6,8.4c-10.8,11.3-21.9,22.4-33.1,33.3
	C260,189.4,256.9,190.7,254.4,190.7z"/>
<path d="M183.2,138.6h5.1c4.3,0,7.7-3.5,7.7-7.7V81.1c0-4.3-3.5-7.7-7.7-7.7h-5.1c-4.3,0-7.7,3.5-7.7,7.7v49.8
	C175.5,135.2,178.9,138.6,183.2,138.6z"/>
</svg>
