<?xml version="1.0" encoding="utf-8"?>
<!-- Generator: Adobe Illustrator 23.0.1, SVG Export Plug-In . SVG Version: 6.00 Build 0)  -->
<svg version="1.1"
	 id="svg6" xmlns:cc="http://creativecommons.org/ns#" xmlns:dc="http://purl.org/dc/elements/1.1/" xmlns:inkscape="http://www.inkscape.org/namespaces/inkscape" xmlns:rdf="http://www.w3.org/1999/02/22-rdf-syntax-ns#" xmlns:sodipodi="http://sodipodi.sourceforge.net/DTD/sodipodi-0.dtd" xmlns:svg="http://www.w3.org/2000/svg"
	 xmlns="http://www.w3.org/2000/svg" xmlns:xlink="http://www.w3.org/1999/xlink" x="0px" y="0px" viewBox="0 0 400 400"
	 style="enable-background:new 0 0 400 400;" xml:space="preserve">
<sodipodi:namedview  bordercolor="#666666" borderopacity="1" gridtolerance="10" guidetolerance="10" id="namedview8" inkscape:current-layer="svg6" inkscape:cx="168.29002" inkscape:cy="176.16412" inkscape:pageopacity="0" inkscape:pageshadow="2" inkscape:window-height="1017" inkscape:window-maximized="1" inkscape:window-width="1920" inkscape:window-x="1358" inkscape:window-y="-8" inkscape:zoom="2.6074563" objecttolerance="10" pagecolor="#ffffff" showgrid="false">
	</sodipodi:namedview>
<path d="M239.7,41.4L204.8,101c-1.9,3.3-6.7,3.3-8.6,0l-34.9-59.6c-2.3-4-6.6-6.4-11.2-6.4L7.6,34.5l192.9,331.1L392.4,34.5
	l-141.5,0.5C246.3,34.9,242,37.4,239.7,41.4z M328.8,36.4l51.9,0c3.8,0,6.2,4.2,4.3,7.5L270.1,241.2c-1.9,3.3-4,6.4-6.5,9.3
	c-20.3,23.6-39.4,8.7-43.9-17.6c-2.7-15.6,0.5-31.6,8.4-45.2l81.7-140.2C313.7,40.6,320.9,36.4,328.8,36.4z M85.9,44.4
	c10.3,16,11.4,36.8-28.7,50.4c-6.1,2.1-12.7-0.4-16-5.9l-26-44.5c-2.1-3.5,0.5-8,4.6-8l51.6,0C77.2,36.4,82.7,39.4,85.9,44.4z
	 M197.6,355.9l-111-189.5c-6-10.3-9.9-21.7-11-33.5c-2-22.5,5.8-43,31.9-40.6c6.6,0.6,12.4,4.5,15.7,10.1l64.9,111.4
	c18.7,39.4,29.3,80.1,23.1,119.9c-1.2,7.8-3.9,15.3-7.9,22.1v0C202,358,198.9,358,197.6,355.9z"/>
</svg>
