<?xml version="1.0" encoding="utf-8"?>
<!-- Generator: Adobe Illustrator 23.0.6, SVG Export Plug-In . SVG Version: 6.00 Build 0)  -->
<svg version="1.1" id="Layer_1" xmlns="http://www.w3.org/2000/svg" xmlns:xlink="http://www.w3.org/1999/xlink" x="0px" y="0px"
	 viewBox="0 0 400 400" style="enable-background:new 0 0 400 400;" xml:space="preserve">
<path d="M266.2,115.1c0,11,0.4,22.1-0.1,33c-0.6,14.6,3.2,27.5,12.4,39c5.6,7,4.8,9.7-2.1,15.4c-5.5,4.5-11.6,8.4-13.5,16.1
	c-1.9,7.5,2.4,12.1,9.9,9.9c4-1.1,7.8-2.8,11.6-4.3c7.7-3.1,9.8-9.9,4.3-16.2c-3.3-3.8-2-5.6,1.3-7.7c12.1-7.9,25.5-10.1,39.7-9
	c4.9,0.4,7.6,3,7.6,8c-0.1,14.5-3.7,28-13,39.5c-0.1,0.2-0.3,0.3-0.4,0.4c-1.6,1.4-4.1-0.2-3.7-2.2c0,0,0,0,0,0
	c1.8-8.9,3.8-17.7,5.4-26.6c0.9-5-2-7.9-6.8-8.6c-8.1-1.3-13.4,1.1-14.7,6.3c-0.7,2.9-0.1,4.4,3.4,4.6c0,0,0,0,0.1,0
	c3.6,0.2,5.5,4.5,3.5,7.5c-0.3,0.4-0.6,0.8-1,1.1c-22.8,19-49.1,31-77.9,37.3c-16.1,3.6-21.7,12.2-17.7,28.5c1,4.2,1.9,8.4,1.9,12.7
	c0,8.8-7.1,16.5-15.8,17.8c-8.8,1.3-15.2-3.5-16.7-13c-0.6-4.1-0.3-8.3-0.6-12.4c-0.4-4.6-0.2-9.4-1.7-13.7
	c-3.5-10.1-10.7-15.3-21.8-16.1c-21.4-1.5-41.8-7.6-61-17.2c-11.9-5.9-23.1-13.3-34.5-20.3c0,0,0,0,0,0c-2.3-1.5-0.5-5.1,2.1-4.4
	c0.1,0,0.1,0,0.2,0.1c13.5,4.7,26.8,9.8,40.3,14.4c8.1,2.8,15.2-1.8,16.5-10.5c0.9-6,0.2-11.7-3.8-16.8
	c-12.2-15.4-13.2-33.2-10.5-51.6c2.8-18.8,13.4-32.7,29.4-42.5c8.7-5.3,11.4-13.5,7.1-22.9c-1.8-4-4.4-6.8-9.4-6.9
	c-5.1-0.2-10.1-1.1-15.1-1.7c-5.1-0.6-8-4.2-7-9.2c4.9-24.9,20.1-40.9,43.6-49.1c13.6-4.8,27.8-6.9,42.2-6
	c17.2,1,33.9,4.5,47.8,15.5c13.4,10.6,18.6,25.4,18.8,42C266.3,88.6,266.2,101.8,266.2,115.1z M214.7,139.4c0-2.8-0.1-4.4,0-6
	c0.3-4.8-2-6.8-6.7-6.3c-5.5,0.7-11,1.2-16.5,2.2c-19.4,3.5-31.7,16.1-30.1,37.2c1.3,17.7,13.2,24.4,25.1,22.5
	c10.2-1.6,17-8.6,22-17.4C214.4,161.1,214.1,149.5,214.7,139.4z M167.8,243.8c7.2,1.4,14.6,1.7,21.9,1c9.8-0.9,18.7-1.7,27.7-2.4
	c9.4-0.7,15.8-7.2,16.2-16.7c0.3-7.7-3.3-13.7-7.4-19.7c-3.9-5.7-3.9-5.9-8.9-1c-8.5,8.3-17.9,15.8-29.7,18.4
	c-9.7,2.1-19.8,2.3-29.8,3c-4.1,0.3-8.5-0.2-9.7,4.8c-1.2,4.9,2.8,7,6.1,9.2c0.8,0.5,3.2,1.4,4.1,1.6
	C162.1,242.7,164.3,243.2,167.8,243.8z M214.7,88c0-8.1-0.1-16.3-5.6-23c-6.5-8-20.7-10.1-32.1-5.3c-4.7,2-7.8,4.9-8.4,10
	c-0.9,9.2,0.8,17.9,7.1,24.9c2.1,2.4,5.8,4.6,8.8,4.7c7.2,0.3,14.5-0.4,21.7-1.4C214.8,96.6,214.7,96.3,214.7,88z"/>
</svg>
