<?xml version="1.0" encoding="utf-8"?>
<!-- Generator: Adobe Illustrator 22.1.0, SVG Export Plug-In . SVG Version: 6.00 Build 0)  -->
<!DOCTYPE svg PUBLIC "-//W3C//DTD SVG 1.1//EN" "http://www.w3.org/Graphics/SVG/1.1/DTD/svg11.dtd">
<svg version="1.1" id="Layer_1" xmlns="http://www.w3.org/2000/svg" xmlns:xlink="http://www.w3.org/1999/xlink" x="0px" y="0px"
	 viewBox="0 0 400 400" enable-background="new 0 0 400 400" xml:space="preserve">
<g>
	<path d="M284.4,132.9c0,14,0.5,28.1-0.1,42.1c-0.8,18.7,4.1,35.1,15.8,49.8c7.1,8.9,6.2,12.4-2.7,19.6
		c-7.1,5.7-14.8,10.7-17.3,20.5c-2.4,9.6,3.1,15.4,12.7,12.7c5.1-1.4,9.9-3.6,14.8-5.5c9.8-4,12.5-12.6,5.4-20.7
		c-4.2-4.9-2.5-7.2,1.6-9.9c15.5-10.1,32.6-12.9,50.6-11.4c6.2,0.5,9.7,3.9,9.7,10.2c-0.1,18.5-4.7,35.7-16.6,50.3
		c-0.2,0.2-0.3,0.4-0.5,0.5c-2,1.7-5.2-0.2-4.7-2.8c0,0,0,0,0-0.1c2.3-11.3,4.8-22.5,6.8-33.9c1.1-6.4-2.5-10-8.6-11
		c-10.3-1.6-17.1,1.4-18.8,8c-0.9,3.7-0.2,5.7,4.3,5.9c0,0,0.1,0,0.1,0c4.6,0.3,7.1,5.8,4.4,9.5c-0.4,0.5-0.8,1-1.2,1.4
		c-29.1,24.2-62.6,39.5-99.4,47.6c-20.6,4.5-27.6,15.5-22.6,36.4c1.3,5.3,2.5,10.8,2.5,16.2c0,11.2-9.1,21.1-20.1,22.7
		c-11.2,1.7-19.4-4.4-21.3-16.6c-0.8-5.2-0.4-10.6-0.8-15.8c-0.5-5.8-0.3-12-2.1-17.4c-4.4-12.9-13.6-19.5-27.8-20.5
		C121,318.9,95,311,70.5,298.9c-15.2-7.5-29.5-17-44-25.9c0,0,0,0-0.1,0c-2.9-1.9-0.6-6.5,2.7-5.6c0.1,0,0.2,0.1,0.3,0.1
		c17.2,6,34.2,12.4,51.4,18.4c10.4,3.6,19.4-2.2,21.1-13.4c1.1-7.6,0.2-15-4.9-21.4c-15.6-19.6-16.9-42.3-13.3-65.7
		c3.6-24,17-41.7,37.4-54.1c11.1-6.8,14.6-17.2,9-29.2c-2.3-5.1-5.6-8.6-11.9-8.9c-6.4-0.2-12.9-1.4-19.3-2.2
		c-6.5-0.8-10.2-5.4-8.9-11.8c6.3-31.7,25.6-52.1,55.5-62.7c17.4-6.1,35.5-8.8,53.9-7.7c21.9,1.3,43.2,5.8,60.9,19.8
		c17.1,13.5,23.7,32.3,24,53.6C284.5,99.1,284.4,116,284.4,132.9z M218.8,164c0-3.6-0.1-5.7,0-7.7c0.3-6.1-2.6-8.7-8.5-8
		c-7,0.8-14,1.5-21,2.7c-24.7,4.4-40.4,20.6-38.4,47.4c1.7,22.5,16.8,31.1,32,28.7c13-2.1,21.7-11,28-22.2
		C218.4,191.6,217.9,176.8,218.8,164z M159,297c9.2,1.7,18.6,2.2,27.9,1.3c12.5-1.2,23.9-2.2,35.3-3.1c12-0.9,20.2-9.2,20.6-21.3
		c0.4-9.8-4.2-17.5-9.5-25.2c-5-7.2-4.9-7.5-11.3-1.3c-10.9,10.6-22.9,20.1-37.8,23.4c-12.3,2.7-25.2,2.9-37.9,3.8
		c-5.2,0.4-10.8-0.2-12.3,6.2c-1.5,6.2,3.6,8.9,7.8,11.7c1,0.7,4.1,1.8,5.2,2.1C151.7,295.7,154.4,296.2,159,297z M218.8,98.4
		c0-10.4-0.2-20.7-7.2-29.4c-8.3-10.2-26.4-12.9-41-6.8c-6,2.5-10,6.3-10.7,12.7c-1.2,11.7,1,22.8,9.1,31.8c2.7,3,7.4,5.9,11.2,6
		c9.2,0.3,18.5-0.5,27.6-1.8C218.8,109.4,218.8,109,218.8,98.4z"/>
</g>
</svg>
