<?xml version="1.0" encoding="utf-8"?>
<!-- Generator: Adobe Illustrator 23.0.6, SVG Export Plug-In . SVG Version: 6.00 Build 0)  -->
<svg version="1.1"
	 id="Capa_1" inkscape:version="0.92.2 (5c3e80d, 2017-08-06)" sodipodi:docname="deezer.svg.2018_09_13_18_33_54.0.svg" xmlns:cc="http://creativecommons.org/ns#" xmlns:dc="http://purl.org/dc/elements/1.1/" xmlns:inkscape="http://www.inkscape.org/namespaces/inkscape" xmlns:rdf="http://www.w3.org/1999/02/22-rdf-syntax-ns#" xmlns:sodipodi="http://sodipodi.sourceforge.net/DTD/sodipodi-0.dtd" xmlns:svg="http://www.w3.org/2000/svg"
	 xmlns="http://www.w3.org/2000/svg" xmlns:xlink="http://www.w3.org/1999/xlink" x="0px" y="0px" viewBox="0 0 400 400"
	 style="enable-background:new 0 0 400 400;" xml:space="preserve">
<path d="M110.2,204.2H65.4c-1.5,0-2.7,1.2-2.7,2.7v10.2c0,1.2,1,2.2,2.2,2.2h0c36.2,27.5-9.8,64,21.9,69.7
	c35.7,2.5-16.7-49.8,21.9-69.3c0.5-0.3,1.1-0.4,1.7-0.4c1.4,0,2.5-1.1,2.5-2.5v-10C112.9,205.4,111.7,204.2,110.2,204.2z"/>
<path d="M65.4,199.7h44.6c1.5,0,2.7-1.2,2.7-2.7v-9.7c0-1.5-1.2-2.7-2.7-2.7H65.4c-1.5,0-2.7,1.2-2.7,2.7v9.7
	C62.6,198.5,63.9,199.7,65.4,199.7z"/>
<path d="M65.4,179.7h44.6c1.5,0,2.7-1.2,2.7-2.7v-9.7c0-1.5-1.2-2.7-2.7-2.7H65.4c-1.5,0-2.7,1.2-2.7,2.7v9.7
	C62.6,178.5,63.9,179.7,65.4,179.7z"/>
<path d="M166.1,204.2h-44.6c-1.5,0-2.7,1.2-2.7,2.7v9.7c0,1.5,1.2,2.7,2.7,2.7h44.6c1.5,0,2.7-1.2,2.7-2.7v-9.7
	C168.8,205.4,167.6,204.2,166.1,204.2z"/>
<path d="M222.6,184.5H178c-1.5,0-2.7,1.2-2.7,2.7v8.9c0,1.9,1.6,3.5,3.5,3.5h3.8c12.3,0.7,13.8,2.5,12.4,3.8
	c-0.4,0.4-1.1,0.6-1.7,0.6c-2.6,0-10.9,0-15.3,0c-1.5,0-2.7,1.2-2.7,2.7v10.2c0,0.9,0.7,1.7,1.6,2.1c0.8,0.3,1.6,0.7,2.3,1.2
	c36.1,29.1-13.9,90.3,21.9,93.3c41.9,2.8-14.2-65.6,20.2-93.3c0.7-0.6,1.5-0.9,2.3-1.2c0.9-0.3,1.6-1.1,1.6-2.1v-10.4
	c0-1.4-1.1-2.6-2.5-2.7c-8.2-0.6-15.9-0.7-15.1-3.2c0.2-0.7,0.9-1.1,1.6-1.1c2.3,0,8.5,0,12.5,0c1.9,0,3.5-1.6,3.5-3.5v-8.9
	C225.3,185.7,224.1,184.5,222.6,184.5z"/>
<path d="M222.6,164.6H178c-1.5,0-2.7,1.2-2.7,2.7v9.7c0,1.5,1.2,2.7,2.7,2.7h44.6c1.5,0,2.7-1.2,2.7-2.7v-9.7
	C225.3,165.8,224.1,164.6,222.6,164.6z"/>
<path d="M222.6,144.9H178c-1.5,0-2.7,1.2-2.7,2.7v9.7c0,1.5,1.2,2.7,2.7,2.7h44.6c1.5,0,2.7-1.2,2.7-2.7v-9.7
	C225.3,146.1,224.1,144.9,222.6,144.9z"/>
<path d="M222.6,125.2H178c-1.5,0-2.7,1.2-2.7,2.7v9.7c0,1.5,1.2,2.7,2.7,2.7h44.6c1.5,0,2.7-1.2,2.7-2.7V128
	C225.3,126.5,224.1,125.2,222.6,125.2z"/>
<path d="M222.6,85.6H178c-1.5,0-2.7,1.2-2.7,2.7v9.7c0,1.5,1.2,2.7,2.7,2.7h14.7c0.7,0,1.3,0.3,1.7,0.9c1.1,1.7-2.8,2.7-7.4,3.4
	c-0.9,0.1-1.8,0.2-2.7,0.2h-6.1c-1.5,0-2.7,1.2-2.7,2.7v9.7c0,1.5,1.2,2.7,2.7,2.7h44.3c1.5,0,2.7-1.2,2.7-2.7V108
	c0-1.5-1.2-2.7-2.7-2.7h-11.4c-0.9,0-1.7-0.2-2.5-0.6c-3.2-1.7,2.9-3.2,11-3.9h2.9c1.5,0,2.7-1.2,2.7-2.7v-9.7
	C225.3,86.8,224.1,85.6,222.6,85.6z"/>
<path d="M278.7,204.2h-44.6c-1.5,0-2.7,1.2-2.7,2.7v9.7c0,1.5,1.2,2.7,2.7,2.7h44.6c1.5,0,2.7-1.2,2.7-2.7v-9.7
	C281.5,205.4,280.2,204.2,278.7,204.2z"/>
<path d="M278.7,184.5h-44.6c-1.5,0-2.7,1.2-2.7,2.7v9.7c0,1.5,1.2,2.7,2.7,2.7h44.6c1.5,0,2.7-1.2,2.7-2.7v-9.7
	C281.5,185.7,280.2,184.5,278.7,184.5z"/>
<path d="M278.7,144.9h-44.6c-1.5,0-2.7,1.2-2.7,2.7v9.7c0,1.5,1.2,2.7,2.7,2.7h16.9c0.7,0,1.4,0.3,1.9,0.8c2.2,2.5-8.7,3.3-18.9,3.6
	c-1.5,0-2.6,1.2-2.6,2.7v9.8c0,1.5,1.2,2.7,2.7,2.7h44.6c1.5,0,2.7-1.2,2.7-2.7v-9.7c0-1.5-1.2-2.7-2.7-2.7h-13
	c-0.7,0-1.4-0.2-2-0.6c-2-1.6,2.6-2.9,15.2-3.7c1.4-0.1,2.6-1.3,2.6-2.7v-9.9C281.5,146.1,280.2,144.9,278.7,144.9z"/>
<path d="M334.9,204.2h-44.6c-1.5,0-2.7,1.2-2.7,2.7v10.2c0,0.8,0.4,1.6,1.1,1.9c1.4,0.8,2.8,1.6,3.9,2.7
	c39.3,37-18.4,108.4,23.9,113.6c38.6,0-16.6-85.5,15.5-113.8c1.2-1.1,2.6-1.8,4.1-2.5c0.8-0.4,1.5-1.1,1.5-1.9v-10.2
	C337.6,205.4,336.4,204.2,334.9,204.2z"/>
<path d="M334.9,184.5h-44.6c-1.5,0-2.7,1.2-2.7,2.7v9.7c0,1.5,1.2,2.7,2.7,2.7h44.6c1.5,0,2.7-1.2,2.7-2.7v-9.7
	C337.6,185.7,336.4,184.5,334.9,184.5z"/>
<path d="M334.9,164.6h-44.6c-1.5,0-2.7,1.2-2.7,2.7v9.7c0,1.5,1.2,2.7,2.7,2.7h44.6c1.5,0,2.7-1.2,2.7-2.7v-9.7
	C337.6,165.8,336.4,164.6,334.9,164.6z"/>
<path d="M334.9,144.9h-44.6c-1.5,0-2.7,1.2-2.7,2.7v9.7c0,1.5,1.2,2.7,2.7,2.7h44.6c1.5,0,2.7-1.2,2.7-2.7v-9.7
	C337.6,146.1,336.4,144.9,334.9,144.9z"/>
<path d="M319.8,81.1h15.1c1.5,0,2.7-1.2,2.7-2.7v-9.7c0-1.5-1.2-2.7-2.7-2.7h-44.6c-1.5,0-2.7,1.2-2.7,2.7c0,2-0.3,4-1,5.9
	c-7.1,20.3-23.2,40.2-48.3,49.9c-1.3,0.5-2.7,0.8-4.2,0.8c-1.5,0-2.7,1.2-2.7,2.7v9.7c0,1.5,1.2,2.7,2.7,2.7h44.6
	c1.5,0,2.7-1.2,2.7-2.7v-12.4c0-2,1.4-4.8,6.2-4.5c12.6,0.3,22.8,4.5,15.7,4.5h-13c-1.5,0-2.7,1.2-2.7,2.7v9.7
	c0,1.5,1.2,2.7,2.7,2.7h44.6c1.5,0,2.7-1.2,2.7-2.7V128c0-1.5-1.2-2.7-2.7-2.7h-7.1c-7.9-0.6-17-3-10.1-4.5h17.2
	c1.5,0,2.7-1.2,2.7-2.7v-9.7c0-1.5-1.2-2.7-2.7-2.7h-36.5c-0.8,0-1.7-0.1-2.5-0.4c-1.1-0.4-2.1-0.7-2.9-1.2c-1.5-0.8-0.9-3,0.7-3
	c8.5,0,33,0,41.2,0c1.5,0,2.7-1.2,2.7-2.7l0-10.1c0-1.5-1.1-2.7-2.6-2.7c-12.5-0.5-16.9-1.7-16.5-3.5
	C318.7,81.5,319.3,81.1,319.8,81.1z M307.3,85.6h-15.7c-0.8-0.6-1.4-1.6-1.5-3c-0.1-0.8,0.6-1.5,1.5-1.5h0
	C311.4,81.1,314.6,85.6,307.3,85.6z"/>
<path d="M166.6,164.6c-32.9-3.2-42.5-11.6-53.2-34.1c-0.4-0.8-0.5-1.7-0.5-2.5c0-1.5-1.2-2.7-2.7-2.7H65.4c-1.5,0-2.7,1.2-2.7,2.7
	v9.9c0,1.4,1,2.5,2.4,2.7c6,0.7,9,3.1,6,4.3h-5.7c-1.5,0-2.7,1.2-2.7,2.7v9.7c0,1.5,1.2,2.7,2.7,2.7h47.6c3.7,0,5.9-0.2,5.9,4.8V177
	c0,1.5,1.2,2.7,2.7,2.7h4.3c0.4,0,0.7,0.1,1.1,0.1c7.6,0,13.3,4.4,7.9,4.4h-13.3c-1.5,0-2.7,1.2-2.7,2.7v10c0,1.5,1.2,2.7,2.7,2.7
	h44.8c1.5,0,2.7-1.2,2.7-2.7v-9.7c0-1.5-1.2-2.7-2.7-2.7H155c-0.5,0-1.1-0.1-1.6-0.1c-3.8-0.7-5.7-1.7-4.6-3.2
	c0.5-0.7,1.5-1.1,2.4-1.1h15.3c1.5,0,2.7-1.2,2.7-2.7c0-2.8,0-7.2,0-10C169.1,165.9,168,164.8,166.6,164.6z M108.6,142.6
	c-0.1,0.2-0.3,0.4-0.5,0.6c-1.1,1.1-2.7,1.7-4.3,1.7c-15.6-0.4-15.8-3.1-13.6-4.5h17.1C108.4,140.4,109.2,141.7,108.6,142.6z"/>
</svg>
