<?xml version="1.0" encoding="utf-8"?>
<!-- Generator: Adobe Illustrator 22.1.0, SVG Export Plug-In . SVG Version: 6.00 Build 0)  -->
<!DOCTYPE svg PUBLIC "-//W3C//DTD SVG 1.1//EN" "http://www.w3.org/Graphics/SVG/1.1/DTD/svg11.dtd">
<svg version="1.1"
	 id="Capa_1" inkscape:version="0.92.2 (5c3e80d, 2017-08-06)" sodipodi:docname="deezer.svg.2018_09_13_18_33_54.0.svg" xmlns:cc="http://creativecommons.org/ns#" xmlns:dc="http://purl.org/dc/elements/1.1/" xmlns:inkscape="http://www.inkscape.org/namespaces/inkscape" xmlns:rdf="http://www.w3.org/1999/02/22-rdf-syntax-ns#" xmlns:sodipodi="http://sodipodi.sourceforge.net/DTD/sodipodi-0.dtd" xmlns:svg="http://www.w3.org/2000/svg"
	 xmlns="http://www.w3.org/2000/svg" xmlns:xlink="http://www.w3.org/1999/xlink" x="0px" y="0px" viewBox="0 0 400 400"
	 style="enable-background:new 0 0 400 400;" xml:space="preserve">
<sodipodi:namedview  bordercolor="#666666" borderopacity="1" gridtolerance="10" guidetolerance="10" id="namedview93" inkscape:current-layer="Capa_1" inkscape:cx="86.602832" inkscape:cy="44.759199" inkscape:pageopacity="0" inkscape:pageshadow="2" inkscape:window-height="1017" inkscape:window-maximized="1" inkscape:window-width="1920" inkscape:window-x="1358" inkscape:window-y="-8" inkscape:zoom="4.8238084" objecttolerance="10" pagecolor="#ffffff" showgrid="false">
	</sodipodi:namedview>
<g id="g62">
</g>
<g id="g64">
</g>
<g id="g66">
</g>
<g id="g68">
</g>
<g id="g70">
</g>
<g id="g72">
</g>
<g id="g74">
</g>
<g id="g76">
</g>
<g id="g78">
</g>
<g id="g80">
</g>
<g id="g82">
</g>
<g id="g84">
</g>
<g id="g86">
</g>
<g id="g88">
</g>
<g id="g90">
</g>
<g>
	<path d="M71.2,205.5H6.9c-2.2,0-3.9,1.7-3.9,3.9V224c0,1.8,1.4,3.2,3.2,3.2h0c52,39.5-14.1,91.8,31.4,99.9
		c51.2,3.6-23.9-71.4,31.4-99.3c0.8-0.4,1.6-0.6,2.5-0.6c1.9,0,3.5-1.6,3.5-3.5v-14.3C75.1,207.2,73.3,205.5,71.2,205.5z"/>
	<path d="M6.9,199h63.9c2.2,0,3.9-1.7,3.9-3.9v-13.9c0-2.2-1.7-3.9-3.9-3.9H6.9c-2.2,0-3.9,1.7-3.9,3.9v13.9
		C3,197.3,4.7,199,6.9,199z"/>
	<path d="M6.9,170.4h63.9c2.2,0,3.9-1.7,3.9-3.9v-13.9c0-2.2-1.7-3.9-3.9-3.9H6.9c-2.2,0-3.9,1.7-3.9,3.9v13.9
		C3,168.7,4.7,170.4,6.9,170.4z"/>
	<path d="M151.3,205.5H87.4c-2.2,0-3.9,1.7-3.9,3.9v13.9c0,2.2,1.7,3.9,3.9,3.9h63.9c2.2,0,3.9-1.7,3.9-3.9v-13.9
		C155.2,207.2,153.5,205.5,151.3,205.5z"/>
	<path d="M232.3,177.3h-63.9c-2.2,0-3.9,1.7-3.9,3.9V194c0,2.8,2.3,5,5,5h5.4c17.6,1,19.8,3.6,17.8,5.5c-0.6,0.6-1.5,0.9-2.4,0.9
		c-3.7,0-15.7,0-22,0c-2.2,0-3.9,1.7-3.9,3.9V224c0,1.3,1,2.5,2.3,3c1.2,0.5,2.3,1,3.3,1.8c51.8,41.7-19.9,129.4,31.5,133.8
		c60,4-20.4-94.1,29-133.8c1-0.8,2.2-1.3,3.3-1.8c1.3-0.5,2.3-1.6,2.3-3v-14.9c0-2-1.6-3.8-3.6-3.9c-11.8-0.8-22.9-1-21.6-4.6
		c0.3-1,1.3-1.6,2.4-1.6c3.3,0,12.2,0,17.9,0c2.8,0,5-2.3,5-5v-12.8C236.2,179,234.5,177.3,232.3,177.3z"/>
	<path d="M232.3,148.7h-63.9c-2.2,0-3.9,1.7-3.9,3.9v13.9c0,2.2,1.7,3.9,3.9,3.9h63.9c2.2,0,3.9-1.7,3.9-3.9v-13.9
		C236.2,150.4,234.5,148.7,232.3,148.7z"/>
	<path d="M232.3,120.5h-63.9c-2.2,0-3.9,1.7-3.9,3.9v13.9c0,2.2,1.7,3.9,3.9,3.9h63.9c2.2,0,3.9-1.7,3.9-3.9v-13.9
		C236.2,122.2,234.5,120.5,232.3,120.5z"/>
	<path d="M232.3,92.3h-63.9c-2.2,0-3.9,1.7-3.9,3.9v13.9c0,2.2,1.7,3.9,3.9,3.9h63.9c2.2,0,3.9-1.7,3.9-3.9V96.2
		C236.2,94.1,234.5,92.3,232.3,92.3z"/>
	<path d="M232.3,35.5h-63.9c-2.2,0-3.9,1.7-3.9,3.9v13.9c0,2.2,1.7,3.9,3.9,3.9h21.1c1,0,1.9,0.4,2.4,1.3c1.5,2.5-4,3.9-10.6,4.9
		c-1.3,0.2-2.5,0.3-3.8,0.3h-8.7c-2.2,0-3.9,1.7-3.9,3.9v13.9c0,2.2,1.7,3.9,3.9,3.9h63.5c2.2,0,3.9-1.7,3.9-3.9V67.6
		c0-2.2-1.7-3.9-3.9-3.9h-16.4c-1.2,0-2.4-0.3-3.5-0.8c-4.5-2.5,4.1-4.5,15.7-5.6h4.2c2.2,0,3.9-1.7,3.9-3.9V39.4
		C236.2,37.3,234.5,35.5,232.3,35.5z"/>
	<path d="M312.9,205.5H249c-2.2,0-3.9,1.7-3.9,3.9v13.9c0,2.2,1.7,3.9,3.9,3.9h63.9c2.2,0,3.9-1.7,3.9-3.9v-13.9
		C316.8,207.2,315,205.5,312.9,205.5z"/>
	<path d="M312.9,177.3H249c-2.2,0-3.9,1.7-3.9,3.9v13.9c0,2.2,1.7,3.9,3.9,3.9h63.9c2.2,0,3.9-1.7,3.9-3.9v-13.9
		C316.8,179,315,177.3,312.9,177.3z"/>
	<path d="M312.9,120.5H249c-2.2,0-3.9,1.7-3.9,3.9v13.9c0,2.2,1.7,3.9,3.9,3.9h24.3c1,0,2.1,0.4,2.8,1.1c3.2,3.6-12.5,4.8-27.1,5.2
		c-2.1,0.1-3.8,1.8-3.8,3.9v14.1c0,2.2,1.7,3.9,3.9,3.9h63.9c2.2,0,3.9-1.7,3.9-3.9v-13.9c0-2.2-1.7-3.9-3.9-3.9h-18.6
		c-1,0-2.1-0.3-2.9-0.9c-2.9-2.3,3.7-4.2,21.7-5.3c2.1-0.1,3.7-1.8,3.7-3.9v-14.2C316.8,122.2,315,120.5,312.9,120.5z"/>
	<path d="M393.4,205.5h-63.9c-2.2,0-3.9,1.7-3.9,3.9V224c0,1.2,0.6,2.2,1.6,2.8c2,1.2,3.9,2.4,5.6,3.9
		c56.3,53.1-26.4,155.4,34.3,162.9c55.3,0-23.8-122.6,22.2-163.2c1.7-1.5,3.8-2.6,5.9-3.6c1.2-0.6,2.2-1.6,2.2-2.8v-14.6
		C397.3,207.2,395.6,205.5,393.4,205.5z"/>
	<path d="M393.4,177.3h-63.9c-2.2,0-3.9,1.7-3.9,3.9v13.9c0,2.2,1.7,3.9,3.9,3.9h63.9c2.2,0,3.9-1.7,3.9-3.9v-13.9
		C397.3,179,395.6,177.3,393.4,177.3z"/>
	<path d="M393.4,148.7h-63.9c-2.2,0-3.9,1.7-3.9,3.9v13.9c0,2.2,1.7,3.9,3.9,3.9h63.9c2.2,0,3.9-1.7,3.9-3.9v-13.9
		C397.3,150.4,395.6,148.7,393.4,148.7z"/>
	<path d="M393.4,120.5h-63.9c-2.2,0-3.9,1.7-3.9,3.9v13.9c0,2.2,1.7,3.9,3.9,3.9h63.9c2.2,0,3.9-1.7,3.9-3.9v-13.9
		C397.3,122.2,395.6,120.5,393.4,120.5z"/>
	<path d="M371.8,29.1h21.7c2.2,0,3.9-1.7,3.9-3.9V11.2c0-2.2-1.7-3.9-3.9-3.9h-63.9c-2.2,0-3.9,1.7-3.9,3.9c0,2.9-0.5,5.7-1.4,8.5
		c-10.2,29.1-33.3,57.6-69.3,71.5c-1.9,0.7-3.9,1.1-6,1.1c-2.2,0-3.9,1.7-3.9,3.9v13.9c0,2.2,1.7,3.9,3.9,3.9h63.9
		c2.2,0,3.9-1.7,3.9-3.9V92.3c0-2.9,2-6.8,8.9-6.4c18.1,0.4,32.7,6.4,22.6,6.4h-18.7c-2.2,0-3.9,1.7-3.9,3.9v13.9
		c0,2.2,1.7,3.9,3.9,3.9h63.9c2.2,0,3.9-1.7,3.9-3.9V96.2c0-2.2-1.7-3.9-3.9-3.9h-10.2c-11.3-0.8-24.3-4.3-14.5-6.4h24.7
		c2.2,0,3.9-1.7,3.9-3.9V68c0-2.2-1.7-3.9-3.9-3.9H341c-1.2,0-2.4-0.2-3.6-0.5c-1.6-0.5-3.1-1.1-4.2-1.7c-2.1-1.1-1.3-4.3,1.1-4.3
		c12.2,0,47.3,0,59.1,0c2.2,0,3.9-1.7,3.9-3.9l0-14.5c0-2.1-1.6-3.8-3.7-3.9c-17.9-0.8-24.2-2.4-23.6-5
		C370.2,29.6,370.9,29.1,371.8,29.1z M353.7,35.5h-22.5c-1.2-0.9-2-2.3-2.1-4.3c-0.1-1.2,0.9-2.2,2.1-2.2h0
		C359.7,29.1,364.3,35.5,353.7,35.5z"/>
	<path d="M152.1,148.8c-47.2-4.6-60.9-16.6-76.3-48.9c-0.5-1.1-0.7-2.4-0.7-3.6c0-2.1-1.8-3.9-3.9-3.9H6.9c-2.2,0-3.9,1.7-3.9,3.9
		v14.2c0,2,1.5,3.6,3.5,3.9c8.6,1,12.9,4.4,8.6,6.2H6.9c-2.2,0-3.9,1.7-3.9,3.9v13.9c0,2.2,1.7,3.9,3.9,3.9h68.2
		c5.2,0,8.5-0.3,8.5,6.8v17.4c0,2.2,1.7,3.9,3.9,3.9h6.2c0.5,0,1,0.1,1.5,0.1c10.8,0,19,6.3,11.3,6.3H87.4c-2.2,0-3.9,1.7-3.9,3.9
		v14.3c0,2.2,1.7,3.9,3.9,3.9h64.3c2.2,0,3.9-1.7,3.9-3.9v-13.9c0-2.2-1.7-3.9-3.9-3.9h-16.4c-0.8,0-1.5-0.1-2.3-0.2
		c-5.5-1-8.2-2.5-6.6-4.6c0.8-1.1,2.1-1.6,3.4-1.6h21.9c2.2,0,3.9-1.7,3.9-3.9c0-4.1,0-10.4,0-14.3
		C155.6,150.6,154.1,149,152.1,148.8z M68.8,117.2c-0.2,0.3-0.4,0.6-0.7,0.9c-1.6,1.6-3.9,2.4-6.1,2.4c-22.4-0.6-22.6-4.4-19.5-6.4
		H67C68.7,114.1,69.7,115.9,68.8,117.2z"/>
</g>
</svg>
