<?xml version="1.0" encoding="utf-8"?>
<!-- Generator: Adobe Illustrator 23.0.1, SVG Export Plug-In . SVG Version: 6.00 Build 0)  -->
<svg version="1.1"
	 id="svg6" xmlns:cc="http://creativecommons.org/ns#" xmlns:dc="http://purl.org/dc/elements/1.1/" xmlns:inkscape="http://www.inkscape.org/namespaces/inkscape" xmlns:rdf="http://www.w3.org/1999/02/22-rdf-syntax-ns#" xmlns:sodipodi="http://sodipodi.sourceforge.net/DTD/sodipodi-0.dtd" xmlns:svg="http://www.w3.org/2000/svg"
	 xmlns="http://www.w3.org/2000/svg" xmlns:xlink="http://www.w3.org/1999/xlink" x="0px" y="0px" viewBox="0 0 400 400"
	 style="enable-background:new 0 0 400 400;" xml:space="preserve">
<sodipodi:namedview  bordercolor="#666666" borderopacity="1" gridtolerance="10" guidetolerance="10" id="namedview8" inkscape:current-layer="svg6" inkscape:cx="-120.97778" inkscape:cy="87.042444" inkscape:pageopacity="0" inkscape:pageshadow="2" inkscape:window-height="705" inkscape:window-maximized="1" inkscape:window-width="1366" inkscape:window-x="-8" inkscape:window-y="245" inkscape:zoom="1.84375" objecttolerance="10" pagecolor="#ffffff" showgrid="false">
	</sodipodi:namedview>
<g>
	<path d="M272.8,132.3c-4.4,2.5-6.9,7.2-6.9,13.7c0,9.4,4.7,14.7,12.8,14.7c2.2,0,3.7-0.3,6.3-1c0.5-0.2,0.9-0.6,0.9-1.2v-27.8
		c0-0.7-0.6-1.3-1.3-1.2C280.8,129.7,275.3,130.6,272.8,132.3z"/>
	<path d="M373.3,60.8H26.4c-11.9,0-21.5,9.7-21.5,21.5v125.2c0,11.3,8.3,20.4,18.9,21.7c0.8,0.1,1.6,0.2,2.4,0.4
		C72.7,241.5,15,338.8,50.2,339.2c38.9,0.3,4.5-78,12.5-102.3c1.7-5.3,7.8-7.9,12.8-5.7c20,8.7-10.9,58.7,16.6,59.3
		c22.9-1.1,8.1-32.4,10.5-50c0.9-6.4,6.4-11,12.9-11c29.1,0,197.5,0,257.8,0c11.9,0,21.5-9.7,21.5-21.5V82.3
		C394.8,70.5,385.2,60.8,373.3,60.8z M132.6,124.6c0-2.5,1.6-4.8,4-5.7c2.8-1.1,5.5-1.9,8-2.5c0.9-0.2,1.8-0.2,2.6,0.1
		c5,1.7-0.9,8.7-11.8,16.5c-1.2,0.8-2.8,0-2.8-1.4C132.6,129.4,132.6,126.8,132.6,124.6z M101.6,123.1c0-3.3,2.7-6.1,6.1-6.1h4.8
		c4.1,0,7,4,5.8,7.9c-4.9,15.6-15,37.8-16.6,27.6V123.1z M73.5,143.3c0-2.1,0-6.5,0-9.5c0-1.8-1.3-3.4-3.1-3.7
		c-1-0.2-1.8-0.3-3.2-0.3c-9.4,0-14.7,5.9-14.7,15.9c0,8.4,3.5,13.5,10.3,14.9c0.7,0.1,1.3,0.3,1.9,0.5c5.1,1.8,14.4,6.4,12.2,11.5
		c-0.8,1.9-2.7,3-4.7,3c-1.3,0-2.6,0.1-3.9,0.1c-22.8,0-34.7-10-34.7-29.7c0-18.7,12.5-31.2,31.9-31.2c1.7,0,3,0.1,4.3,0.3
		c2,0.3,3.8-1.3,3.8-3.3V94.9c0-3.3,2.7-6.1,6.1-6.1h6.6c3.3,0,6.1,2.7,6.1,6.1v56.6c0,2.6-1.2,5.1-3.3,6.6
		c-6.1,4.1-13.7-4.1-15.4-11.7C73.6,145.3,73.5,144.3,73.5,143.3z M120.4,159.2c0,14.7-0.6,21.9-3.7,28.1
		c-2.7,5.2-5.7,8.7-11.8,12.2c-1.7,1-3.8,1.1-5.6,0.2c-1.2-0.6-2.8-1.3-4.3-2.1c-3.9-1.9-4.7-7.2-1.4-10c2.4-2.1,4-4.4,5.4-7.2
		c0.8-1.8,1.4-3.7,1.8-6c1.9-9.7,18-32.1,19.7-20.1V159.2z M105.2,107.6h-1.3h0c-1.2,0-2.2-1-2.2-2.2V94.9c0-3.3,2.7-6.1,6.1-6.1
		h10.5c1.2,0,2.2,1,2.2,2.2C120.2,106.9,115.3,107.6,105.2,107.6z M176.3,166.3L176.3,166.3c-2.1,10.3-11.2-4.1-14.3-13.1
		c-0.7-2-2.8-3.3-4.9-3c-9.3,1.3-12,3.2-12,7.7c0,3.7,2.2,5.3,7.2,5.3c0.9,0,1.8,0,2.7-0.1c8,0.4,15.6,11,9.9,12.5
		c-4.9,0.4-10.1,0.7-14.2,0.7c-15.6,0-22.2-5.3-22.2-17.5c0-12.5,9.4-18.5,29.3-20.6c1.6-0.2,2.9-1.6,2.9-3.2v-1.1
		c0-2.6-0.9-4-3.4-4.5c-9.7-3.4-0.3-11.3,8.1-12.3c3-0.4,5.9,0.8,7.9,3.1c0.6,0.6,1.1,1.4,1.5,2.1c1.6,2.8,1.6,6.2,1.6,14.1V166.3z
		 M239.1,176.3c-2.6,0-6.4,0-9.6,0c-3.3,0-6-2.7-6-6.1v-7.9c0-3.2,3.2-5.5,6.2-4.3c4.8,2,10,9.4,11.9,15
		C242,174.7,240.8,176.3,239.1,176.3z M242.2,153L242.2,153c-1.2,8.7-13.8-7.8-19.4-18.2c-1.2-3.7-4.2-5.1-9.1-5.1
		c-1.6,0-3.5,0.1-5.5,0.4c-2.1,0.3-3.6,2.1-3.6,4.2c0,7.6,0,26.2,0,35.8c0,3.3-2.7,6-6.1,6H192c-3.3,0-6.1-2.7-6.1-6.1v-46.2
		c0-2.9,2-5.3,4.8-5.9c9.8-2.1,16.7-3,24.6-3c9.4,0,16.9,2.2,20.9,6.2c4.1,4.1,5.9,8.1,5.9,17.5V153z M282,202.8
		c-2,1.5-4.5,2.3-7,2.5c-2.1,0.2-4.3,0.3-6.7,0.3c-5.6,0-10.9-0.6-16-2.1c-2.6-0.8-4.3-3.1-4.3-5.8V196c0-5,4.7-8.7,9.6-7.5
		c2.8,0.7,5.6,1.1,8.4,1.2C278.5,191.3,290.2,196.9,282,202.8z M305.1,130.6L305.1,130.6c-0.8-0.1-1.5,0.5-1.6,1.3l-0.5,3.6
		c-0.4,3.1-0.4,6.3,0,9.4l1.4,10.9c0.2,1.3,0.2,2.5,0.2,3.8v3.4c0,7.7-0.4,13.5-1.4,18c-0.7,3.4-2.5,6.5-5.4,8.5
		c-7.1,4.9-11.4-3.4-12.3-11.4c-0.1-1.2-0.1-2.3-0.1-3.5c0,0,0,0,0,0c0-0.7-0.7-1.1-1.3-0.9c-3,1.3-6.8,1.8-10.9,1.8
		c-16.2,0-26.5-10.6-26.5-27.5c0-20.9,15.3-32.8,42.2-32.8c6.9,0,13.6,0.7,21.2,2c1.4,0.2,2.2,1.8,1.5,3.1l-5.1,9.6
		C306.2,130.3,305.7,130.6,305.1,130.6z M362.8,169.1c-1.5,1.4-3.3,2.5-5.3,3.1c-9.6,2.8-9.2-9.3-6.8-15.6c1.5-2.7,2.3-6.4,2.3-10.9
		c0-10-4.1-16.2-11.2-16.2s-11.6,5.9-11.6,16.2c0,6.2,1.5,10.7,4.2,13.4l0,0c4,4.4,4,10.1,0.7,13.2c-2.3,2.1-5.7,2.5-8.5,1.1
		c-9.6-4.6-15.2-14.2-15.2-27.2c0-19.4,11.9-31.5,30.6-31.5c18.4,0,29.7,11.6,29.7,30.6C371.9,155.5,368.6,163.7,362.8,169.1z"/>
</g>
</svg>
