<?xml version="1.0" encoding="utf-8"?>
<!-- Generator: Adobe Illustrator 23.0.6, SVG Export Plug-In . SVG Version: 6.00 Build 0)  -->
<svg version="1.1"
	 id="svg6" xmlns:cc="http://creativecommons.org/ns#" xmlns:dc="http://purl.org/dc/elements/1.1/" xmlns:inkscape="http://www.inkscape.org/namespaces/inkscape" xmlns:rdf="http://www.w3.org/1999/02/22-rdf-syntax-ns#" xmlns:sodipodi="http://sodipodi.sourceforge.net/DTD/sodipodi-0.dtd" xmlns:svg="http://www.w3.org/2000/svg"
	 xmlns="http://www.w3.org/2000/svg" xmlns:xlink="http://www.w3.org/1999/xlink" x="0px" y="0px" viewBox="0 0 400 400"
	 style="enable-background:new 0 0 400 400;" xml:space="preserve">
<path d="M251.4,137.5c-3.1,1.8-4.8,5.1-4.8,9.7c0,6.6,3.3,10.3,9,10.3c1.6,0,2.6-0.2,4.4-0.7c0.4-0.1,0.6-0.4,0.6-0.8v-19.6
	c0-0.5-0.4-0.9-0.9-0.9C257.1,135.6,253.2,136.3,251.4,137.5z"/>
<path d="M322.3,87.1H77.7c-8.4,0-15.2,6.8-15.2,15.2v88.3c0,7.9,5.8,14.4,13.3,15.3c0.6,0.1,1.1,0.1,1.7,0.3
	c32.8,8.4-7.9,77,17,77.3c27.4,0.2,3.2-55,8.8-72.2c1.2-3.7,5.5-5.6,9.1-4c14.1,6.2-7.7,41.4,11.7,41.8c16.2-0.8,5.7-22.9,7.4-35.3
	c0.6-4.5,4.5-7.8,9.1-7.8c20.5,0,139.2,0,181.8,0c8.4,0,15.2-6.8,15.2-15.2v-88.5C337.5,93.9,330.7,87.1,322.3,87.1z M152.6,132
	c0-1.8,1.1-3.4,2.8-4c2-0.7,3.8-1.3,5.6-1.8c0.6-0.2,1.3-0.2,1.9,0c3.5,1.2-0.6,6.2-8.3,11.6c-0.8,0.6-2,0-2-1
	C152.6,135.4,152.6,133.6,152.6,132z M130.8,131c0-2.4,1.9-4.3,4.3-4.3h3.4c2.9,0,4.9,2.8,4.1,5.5c-3.5,11-10.6,26.7-11.7,19.5V131z
	 M110.9,145.2c0-1.5,0-4.6,0-6.7c0-1.3-0.9-2.4-2.2-2.6c-0.7-0.1-1.3-0.2-2.2-0.2c-6.6,0-10.3,4.2-10.3,11.2c0,5.9,2.5,9.5,7.3,10.5
	c0.5,0.1,0.9,0.2,1.4,0.4c3.6,1.3,10.1,4.5,8.6,8.1c-0.5,1.3-1.9,2.1-3.3,2.1c-0.9,0-1.8,0-2.7,0c-16.1,0-24.4-7-24.4-20.9
	c0-13.2,8.8-22,22.5-22c1.2,0,2.1,0.1,3.1,0.2c1.4,0.2,2.7-0.9,2.7-2.3v-11.9c0-2.4,1.9-4.3,4.3-4.3h4.7c2.4,0,4.3,1.9,4.3,4.3V151
	c0,1.8-0.8,3.6-2.3,4.6c-4.3,2.9-9.6-2.9-10.9-8.3C111,146.7,110.9,145.9,110.9,145.2z M144,156.4c0,10.3-0.4,15.4-2.6,19.8
	c-1.9,3.7-4,6.1-8.3,8.6c-1.2,0.7-2.7,0.8-3.9,0.2c-0.9-0.4-1.9-0.9-3.1-1.4c-2.8-1.3-3.3-5.1-1-7.1c1.7-1.5,2.8-3.1,3.8-5.1
	c0.6-1.3,1-2.6,1.3-4.2c1.4-6.9,12.7-22.6,13.9-14.2V156.4z M133.3,120.1h-0.9h0c-0.9,0-1.6-0.7-1.6-1.6v-7.4c0-2.4,1.9-4.3,4.3-4.3
	h7.4c0.8,0,1.5,0.7,1.5,1.5C143.8,119.6,140.4,120.1,133.3,120.1z M183.4,161.4L183.4,161.4c-1.5,7.3-7.9-2.9-10.1-9.2
	c-0.5-1.4-2-2.3-3.5-2.1c-6.5,0.9-8.4,2.3-8.4,5.4c0,2.6,1.5,3.7,5.1,3.7c0.6,0,1.3,0,1.9-0.1c5.6,0.3,11,7.8,7,8.8
	c-3.5,0.3-7.1,0.5-10,0.5c-11,0-15.6-3.7-15.6-12.3c0-8.8,6.6-13,20.6-14.6c1.2-0.1,2-1.1,2-2.3v-0.8c0-1.8-0.6-2.8-2.4-3.1
	c-6.8-2.4-0.2-8,5.7-8.7c2.1-0.2,4.1,0.6,5.5,2.2c0.4,0.5,0.7,1,1.1,1.5c1.1,2,1.1,4.4,1.1,9.9V161.4z M227.7,168.5
	c-1.8,0-4.5,0-6.8,0c-2.4,0-4.3-1.9-4.3-4.3v-5.6c0-2.2,2.3-3.9,4.3-3c3.4,1.4,7.1,6.7,8.4,10.6
	C229.7,167.4,228.9,168.5,227.7,168.5z M229.8,152.1L229.8,152.1c-0.9,6.1-9.8-5.5-13.6-12.8c-0.8-2.6-2.9-3.6-6.4-3.6
	c-1.1,0-2.5,0.1-3.9,0.3c-1.4,0.2-2.5,1.5-2.5,3c0,5.4,0,18.5,0,25.3c0,2.4-1.9,4.3-4.3,4.3h-4.7c-2.4,0-4.3-1.9-4.3-4.3v-32.6
	c0-2,1.4-3.8,3.4-4.2c6.9-1.5,11.8-2.1,17.3-2.1c6.6,0,11.9,1.5,14.8,4.4c2.9,2.9,4.2,5.7,4.2,12.3V152.1z M258,187.2
	c-1.4,1-3.2,1.6-4.9,1.8c-1.5,0.2-3.1,0.2-4.7,0.2c-3.9,0-7.7-0.4-11.3-1.5c-1.8-0.6-3.1-2.2-3.1-4.1v-1.3c0-3.5,3.3-6.1,6.7-5.3
	c2,0.5,3.9,0.8,5.9,0.9C255.5,179.1,263.7,183,258,187.2z M274.2,136.3L274.2,136.3c-0.6-0.1-1.1,0.3-1.1,0.9l-0.3,2.5
	c-0.3,2.2-0.3,4.4,0,6.6l1,7.7c0.1,0.9,0.2,1.8,0.2,2.7v2.4c0,5.5-0.3,9.5-1,12.7c-0.5,2.4-1.8,4.6-3.8,6c-5,3.4-8-2.4-8.6-8
	c-0.1-0.8-0.1-1.7-0.1-2.5c0,0,0,0,0,0c0-0.5-0.5-0.8-0.9-0.6c-2.1,0.9-4.8,1.3-7.7,1.3c-11.4,0-18.7-7.5-18.7-19.4
	c0-14.8,10.8-23.1,29.7-23.1c4.9,0,9.6,0.5,14.9,1.4c1,0.2,1.5,1.3,1.1,2.2l-3.6,6.8C275,136.1,274.6,136.3,274.2,136.3z
	 M314.9,163.4c-1.1,1-2.3,1.8-3.7,2.2c-6.8,1.9-6.5-6.5-4.8-11c1-1.9,1.6-4.5,1.6-7.7c0-7-2.9-11.4-7.9-11.4
	c-5.1,0-8.1,4.2-8.1,11.4c0,4.3,1,7.6,3,9.5l0,0c2.8,3.1,2.9,7.1,0.5,9.3c-1.6,1.5-4,1.7-6,0.8c-6.8-3.3-10.7-10-10.7-19.2
	c0-13.7,8.4-22.2,21.6-22.2c13,0,20.9,8.1,20.9,21.6C321.3,153.8,319,159.6,314.9,163.4z"/>
</svg>
