<?xml version="1.0" encoding="utf-8"?>
<!-- Generator: Adobe Illustrator 23.0.6, SVG Export Plug-In . SVG Version: 6.00 Build 0)  -->
<svg version="1.1"
	 id="svg6" xmlns:cc="http://creativecommons.org/ns#" xmlns:dc="http://purl.org/dc/elements/1.1/" xmlns:inkscape="http://www.inkscape.org/namespaces/inkscape" xmlns:rdf="http://www.w3.org/1999/02/22-rdf-syntax-ns#" xmlns:sodipodi="http://sodipodi.sourceforge.net/DTD/sodipodi-0.dtd" xmlns:svg="http://www.w3.org/2000/svg"
	 xmlns="http://www.w3.org/2000/svg" xmlns:xlink="http://www.w3.org/1999/xlink" x="0px" y="0px" viewBox="0 0 400 400"
	 style="enable-background:new 0 0 400 400;" xml:space="preserve">
<path d="M336.1,140.9c0-16.8-3.1-32-8.7-48.6c-0.6-1.9-2.4-3.1-4.3-3.1h-74.5c-5.5,0-8.3,6.4-4.7,10.6
	c10.2,11.7,16.5,25.6,16.5,41.7c0,10.4-2.6,19.3-7.3,30.5h0l-1.3,2.2c-2.6,3.1-3.6-4.1-3.2-13.2c0.1-3.5,0.7-6.9,1.3-10.3
	c0.5-2.9,0.8-5.9,0.8-8.9c0-24-16.7-44-39-49.3c-4.6-2,4.5-4.8,17.8-7.4c16.8-3.2,33.9-4.8,51.1-4.8c11.6,0,25.5,0,33.9,0
	c3.5,0,5.7-3.8,3.9-6.8C295,32.4,250.7,5,200,5c-41.7,0-79.1,19.1-104,48.6c-1.7,2-2,4.7-0.8,7c10.1,19.2,24.8,59,15.9,46.4L92.3,75
	c-2.5-4.2-8.6-4.2-11,0.1c-11.1,19.7-17.4,42.4-17.4,66.6c0,66.9,48.4,122.6,112,133.9c2.6,0.5,5.3-0.8,6.6-3.1l41-70.6
	c1.2-2-0.8-4.3-3-3.5c-6.4,2.3-13.4,3.6-20.6,3.6c-26.1,0-48.3-16.6-56.7-39.8c-2.5-11.2-22.2-48-15.2-44.6c0.9,0.4,1.6,1.2,2.1,2
	l1.7,2.9c2.8,4.7,9.8,3.9,11.5-1.3c6.8-21.4,24.2-37.7,49.4-40.6c0.8-0.1,1.6,0,2.2,0.5c3.9,2.7-6.4,8.4-15.6,14.2
	c-18,8-30.4,26.1-30.1,47.1c0.4,26.7,21.9,48.7,48.6,49.8c14.2,0.6,27.1-4.7,36.6-13.6c0.5-0.5,1.1-1,1.7-1.3
	c6.2-3.8,2.2,7.3-3.9,21.3c-9.6,22.2-20.5,43.8-32.7,64.6l-5.6,9.6c-1.7,2.8-0.9,6.5,1.8,8.4c41.1,29.2-7.1,96.1,24.5,97.2
	c29.8,0.7-10.4-52.8,17.4-95.2c5.5-8.3,13.2-14.8,22.1-19.2C305,241.5,336.1,194.5,336.1,140.9z"/>
</svg>
