<?xml version="1.0" encoding="utf-8"?>
<!-- Generator: Adobe Illustrator 23.0.1, SVG Export Plug-In . SVG Version: 6.00 Build 0)  -->
<svg version="1.1"
	 id="svg6" inkscape:version="0.92.1 r15371" sodipodi:docname="chrome.svg" xmlns:cc="http://creativecommons.org/ns#" xmlns:dc="http://purl.org/dc/elements/1.1/" xmlns:inkscape="http://www.inkscape.org/namespaces/inkscape" xmlns:rdf="http://www.w3.org/1999/02/22-rdf-syntax-ns#" xmlns:sodipodi="http://sodipodi.sourceforge.net/DTD/sodipodi-0.dtd" xmlns:svg="http://www.w3.org/2000/svg"
	 xmlns="http://www.w3.org/2000/svg" xmlns:xlink="http://www.w3.org/1999/xlink" x="0px" y="0px" viewBox="0 0 400 400"
	 style="enable-background:new 0 0 400 400;" xml:space="preserve">
<sodipodi:namedview  bordercolor="#666666" borderopacity="1" fit-margin-bottom="50" fit-margin-left="0" fit-margin-right="0" fit-margin-top="0" gridtolerance="10" guidetolerance="10" id="namedview8" inkscape:current-layer="svg6" inkscape:cx="15.758394" inkscape:cy="94.76872" inkscape:pageopacity="0" inkscape:pageshadow="2" inkscape:window-height="1017" inkscape:window-maximized="1" inkscape:window-width="1920" inkscape:window-x="1358" inkscape:window-y="-8" inkscape:zoom="5.2149125" objecttolerance="10" pagecolor="#ffffff" showgrid="false">
	</sodipodi:namedview>
<path d="M342.5,146.8c0-17.6-3.2-33.5-9.1-50.9c-0.7-1.9-2.5-3.3-4.5-3.3l-78,0c-5.7,0-8.7,6.7-5,11.1
	c10.7,12.2,17.2,26.9,17.2,43.7c0,10.9-2.8,20.2-7.7,31.9h0l-1.4,2.3c-2.7,3.3-3.7-4.3-3.3-13.9c0.2-3.6,0.7-7.2,1.3-10.8
	c0.5-3,0.8-6.2,0.8-9.4c0-25.1-17.5-46.1-40.9-51.6c-4.9-2.1,4.7-5.1,18.6-7.7c17.6-3.4,35.6-5,53.5-5c12.1,0,26.7,0,35.6,0
	c3.7,0,5.9-4,4.1-7.1C299.5,33.2,253.1,4.4,200,4.4c-43.7,0-82.8,20-109,51c-1.7,2.1-2.1,5-0.8,7.4c10.5,20.1,26,61.8,16.7,48.7
	L87.2,77.7c-2.6-4.4-9-4.4-11.5,0.1c-11.6,20.6-18.2,44.4-18.2,69.8c0,70.1,50.7,128.4,117.4,140.3c2.8,0.5,5.5-0.8,6.9-3.2l42.9-74
	c1.2-2.1-0.9-4.5-3.1-3.7c-6.7,2.5-14,3.8-21.6,3.8c-27.3,0-50.6-17.4-59.4-41.7c-2.6-11.8-23.2-50.3-15.9-46.7
	c0.9,0.5,1.7,1.2,2.2,2.1l1.8,3.1c2.9,4.9,10.3,4.1,12.1-1.4c7.1-22.4,25.4-39.4,51.8-42.5c0.8-0.1,1.6,0.1,2.3,0.5
	c4.1,2.8-6.7,8.8-16.3,14.9c-18.8,8.4-31.9,27.3-31.5,49.3c0.4,28,22.9,51,50.9,52.1c14.8,0.6,28.4-4.9,38.3-14.2
	c0.6-0.5,1.1-1,1.8-1.4c6.5-4,2.3,7.7-4,22.3c-10,23.3-21.5,45.9-34.3,67.7l-5.9,10.1c-1.7,3-0.9,6.8,1.9,8.8
	c43.1,30.6-7.4,100.7,25.6,101.9c31.2,0.7-10.9-55.3,18.3-99.7c5.7-8.7,13.9-15.5,23.2-20.1C310,252.1,342.5,203,342.5,146.8z"/>
</svg>
