<?xml version="1.0" encoding="UTF-8" standalone="no"?>
<svg
   xmlns:dc="http://purl.org/dc/elements/1.1/"
   xmlns:cc="http://creativecommons.org/ns#"
   xmlns:rdf="http://www.w3.org/1999/02/22-rdf-syntax-ns#"
   xmlns:svg="http://www.w3.org/2000/svg"
   xmlns="http://www.w3.org/2000/svg"
   viewBox="0 0 533.33331 533.33331"
   height="533.33331"
   width="533.33331"
   xml:space="preserve"
   id="svg2"
   version="1.1"><metadata
     id="metadata8"><rdf:RDF><cc:Work
         rdf:about=""><dc:format>image/svg+xml</dc:format><dc:type
           rdf:resource="http://purl.org/dc/dcmitype/StillImage" /></cc:Work></rdf:RDF></metadata><defs
     id="defs6"><clipPath
       id="clipPath18"
       clipPathUnits="userSpaceOnUse"><path
         id="path16"
         d="M 0,400 H 400 V 0 H 0 Z" /></clipPath></defs><g
     transform="matrix(1.3333333,0,0,-1.3333333,0,533.33333)"
     id="g10"><g
       id="g12"><g
         clip-path="url(#clipPath18)"
         id="g14"><g
           transform="translate(137.9194,167.0557)"
           id="g20"><path
             id="path22"
             style="fill:#000000;fill-opacity:1;fill-rule:nonzero;stroke:none"
             d="m 0,0 c 1.697,-0.521 6.282,4.208 8.887,6.952 6.626,6.978 9.668,15.659 10.392,25.101 0.506,6.6 3.054,10.135 8.655,10.39 3.442,0.157 6.906,-0.241 10.36,-0.221 12.955,0.071 25.981,-0.591 38.843,0.554 12.763,1.135 25.348,4.373 37.123,9.665 13.439,6.04 23.157,15.152 25.914,30.25 0.292,1.598 0.883,4.571 -0.208,5.09 -1.091,0.52 -9.04,-9.455 -14.354,-13.291 C 118.431,69.306 110.541,65.38 102.163,62.434 89.68,58.044 76.395,56.155 63.072,55.89 50.343,55.637 37.591,55.464 24.879,55.979 17.574,56.274 8.944,49.997 7.684,43.203 6.788,38.37 5.789,33.555 4.893,28.721 3.122,19.174 -1.697,0.52 0,0 m 163.496,100.975 c 3.259,2.114 9.853,28.795 11.446,33.2 1.592,4.406 9.236,-6.045 11.866,-10.896 7.062,-13.022 7.69,-26.926 5.945,-41.283 C 191.066,68.095 187.219,54.887 180.94,42.431 174.775,30.202 166.166,19.939 154.608,12.455 147.94,8.138 146.155,1.983 146.695,-5.35 c 0.223,-3.031 0.888,-6.069 0.762,-9.079 -0.333,-7.846 -6.535,-11.879 -13.931,-9.114 -2.57,0.961 -4.923,2.505 -7.381,3.772 -2.63,1.356 -4.558,0.477 -4.844,-2.312 -0.304,-2.972 -0.051,-6.039 0.289,-9.027 0.361,-3.154 1.39,-6.241 1.638,-9.395 0.713,-9.054 -4.484,-15.645 -12.702,-16.463 -9.3,-0.924 -17.473,4.778 -18.329,13.511 -0.408,4.159 0.672,8.469 1.12,12.705 0.448,4.242 1.494,8.502 1.306,12.711 -0.33,7.374 -5.298,12.898 -12.592,13.746 -2.026,0.235 -5.421,-1.847 -6.367,-3.765 -1.953,-3.954 -2.878,-8.468 -3.856,-12.836 -1.224,-5.465 -2.155,-11.001 -3.071,-16.531 -1.694,-10.219 -3.234,-20.464 -4.941,-30.68 -0.627,-3.758 -1.601,-7.457 -2.315,-11.203 -0.81,-4.25 -3.598,-6.592 -7.358,-8.219 -10.701,-4.629 -15.559,-14.25 -12.701,-25.606 1.485,-5.899 3.849,-11.592 5.117,-17.526 0.905,-4.243 1.345,-8.832 0.751,-13.094 -0.976,-7 -6.275,-10.999 -13.365,-11.283 -12.06,-0.483 -20.647,8.883 -19.557,21.495 0.392,4.547 1.254,9.052 1.7,13.595 1.307,13.285 -1.398,25.018 -12.841,33.505 -4.39,3.255 -2.72,8.193 -2.133,12.307 1.637,11.473 3.805,22.871 5.863,34.281 1.357,7.523 2.894,15.015 4.328,22.525 0.098,0.513 0.493,1.757 -0.79,2.15 -1.284,0.393 -5.492,-5.111 -7.071,-8.254 -4.505,-8.964 -8.29,-18.29 -12.646,-27.336 -0.61,-1.265 -2.832,-2.473 -4.311,-2.477 -5.933,-0.018 -11.864,0.612 -17.8,0.699 -9.554,0.139 -19.111,0.017 -28.666,0.044 -7.27,0.022 -10.494,4.51 -9.093,11.695 1.647,8.445 2.685,17.005 4.17,25.484 1.788,10.2 3.87,20.349 5.635,30.554 1.796,10.378 3.331,20.801 5.041,31.194 0.82,4.987 1.814,9.945 2.67,14.927 1.456,8.478 2.842,16.968 4.299,25.446 1.945,11.322 3.989,22.628 5.881,33.959 1.684,10.091 3.149,20.218 4.843,30.307 1.174,6.996 2.63,13.943 3.853,20.93 1.743,9.959 3.372,19.938 5.082,29.902 0.622,3.623 1.098,7.296 2.068,10.829 1.293,4.711 6.083,8.266 11.185,8.221 19.375,-0.171 38.748,-0.577 58.123,-0.746 15.924,-0.138 31.909,0.794 47.759,-0.309 18.576,-1.293 36.655,-5.823 51.671,-17.657 11.192,-8.822 17.354,-20.723 19.318,-35.157 2.143,-15.735 -1.165,-30.512 -5.668,-45.247 -1.358,-4.445 -0.607,-12.164 1.563,-18.134 0.914,-2.515 1.836,-4.834 5.095,-2.719" /></g></g></g></g></svg>